%TF.GenerationSoftware,KiCad,Pcbnew,6.0.4-6f826c9f35~116~ubuntu20.04.1*%
%TF.CreationDate,2022-04-29T19:02:11-06:00*%
%TF.ProjectId,square,73717561-7265-42e6-9b69-6361645f7063,rev?*%
%TF.SameCoordinates,Original*%
%TF.FileFunction,Legend,Top*%
%TF.FilePolarity,Positive*%
%FSLAX46Y46*%
G04 Gerber Fmt 4.6, Leading zero omitted, Abs format (unit mm)*
G04 Created by KiCad (PCBNEW 6.0.4-6f826c9f35~116~ubuntu20.04.1) date 2022-04-29 19:02:11*
%MOMM*%
%LPD*%
G01*
G04 APERTURE LIST*
G04 Aperture macros list*
%AMRoundRect*
0 Rectangle with rounded corners*
0 $1 Rounding radius*
0 $2 $3 $4 $5 $6 $7 $8 $9 X,Y pos of 4 corners*
0 Add a 4 corners polygon primitive as box body*
4,1,4,$2,$3,$4,$5,$6,$7,$8,$9,$2,$3,0*
0 Add four circle primitives for the rounded corners*
1,1,$1+$1,$2,$3*
1,1,$1+$1,$4,$5*
1,1,$1+$1,$6,$7*
1,1,$1+$1,$8,$9*
0 Add four rect primitives between the rounded corners*
20,1,$1+$1,$2,$3,$4,$5,0*
20,1,$1+$1,$4,$5,$6,$7,0*
20,1,$1+$1,$6,$7,$8,$9,0*
20,1,$1+$1,$8,$9,$2,$3,0*%
G04 Aperture macros list end*
%ADD10C,0.150000*%
%ADD11C,0.120000*%
%ADD12RoundRect,0.200000X-0.275000X0.200000X-0.275000X-0.200000X0.275000X-0.200000X0.275000X0.200000X0*%
%ADD13RoundRect,0.200000X-0.200000X-0.275000X0.200000X-0.275000X0.200000X0.275000X-0.200000X0.275000X0*%
%ADD14R,1.700000X1.700000*%
%ADD15O,1.700000X1.700000*%
%ADD16R,1.000000X1.500000*%
%ADD17RoundRect,0.140000X-0.170000X0.140000X-0.170000X-0.140000X0.170000X-0.140000X0.170000X0.140000X0*%
%ADD18RoundRect,0.225000X-0.250000X0.225000X-0.250000X-0.225000X0.250000X-0.225000X0.250000X0.225000X0*%
G04 APERTURE END LIST*
D10*
X45838095Y-58504761D02*
X45933333Y-58552380D01*
X46123809Y-58552380D01*
X46219047Y-58504761D01*
X46266666Y-58409523D01*
X46266666Y-58361904D01*
X46219047Y-58266666D01*
X46123809Y-58219047D01*
X45980952Y-58219047D01*
X45885714Y-58171428D01*
X45838095Y-58076190D01*
X45838095Y-58028571D01*
X45885714Y-57933333D01*
X45980952Y-57885714D01*
X46123809Y-57885714D01*
X46219047Y-57933333D01*
X47123809Y-57885714D02*
X47123809Y-58885714D01*
X47123809Y-58504761D02*
X47028571Y-58552380D01*
X46838095Y-58552380D01*
X46742857Y-58504761D01*
X46695238Y-58457142D01*
X46647619Y-58361904D01*
X46647619Y-58076190D01*
X46695238Y-57980952D01*
X46742857Y-57933333D01*
X46838095Y-57885714D01*
X47028571Y-57885714D01*
X47123809Y-57933333D01*
X48028571Y-57885714D02*
X48028571Y-58552380D01*
X47600000Y-57885714D02*
X47600000Y-58409523D01*
X47647619Y-58504761D01*
X47742857Y-58552380D01*
X47885714Y-58552380D01*
X47980952Y-58504761D01*
X48028571Y-58457142D01*
X48933333Y-58552380D02*
X48933333Y-58028571D01*
X48885714Y-57933333D01*
X48790476Y-57885714D01*
X48600000Y-57885714D01*
X48504761Y-57933333D01*
X48933333Y-58504761D02*
X48838095Y-58552380D01*
X48600000Y-58552380D01*
X48504761Y-58504761D01*
X48457142Y-58409523D01*
X48457142Y-58314285D01*
X48504761Y-58219047D01*
X48600000Y-58171428D01*
X48838095Y-58171428D01*
X48933333Y-58123809D01*
X49409523Y-58552380D02*
X49409523Y-57885714D01*
X49409523Y-58076190D02*
X49457142Y-57980952D01*
X49504761Y-57933333D01*
X49600000Y-57885714D01*
X49695238Y-57885714D01*
X50409523Y-58504761D02*
X50314285Y-58552380D01*
X50123809Y-58552380D01*
X50028571Y-58504761D01*
X49980952Y-58409523D01*
X49980952Y-58028571D01*
X50028571Y-57933333D01*
X50123809Y-57885714D01*
X50314285Y-57885714D01*
X50409523Y-57933333D01*
X50457142Y-58028571D01*
X50457142Y-58123809D01*
X49980952Y-58219047D01*
X50647619Y-58647619D02*
X51409523Y-58647619D01*
X51552380Y-57885714D02*
X51790476Y-58552380D01*
X52028571Y-57885714D01*
X52933333Y-58552380D02*
X52361904Y-58552380D01*
X52647619Y-58552380D02*
X52647619Y-57552380D01*
X52552380Y-57695238D01*
X52457142Y-57790476D01*
X52361904Y-57838095D01*
X53361904Y-58457142D02*
X53409523Y-58504761D01*
X53361904Y-58552380D01*
X53314285Y-58504761D01*
X53361904Y-58457142D01*
X53361904Y-58552380D01*
X54028571Y-57552380D02*
X54123809Y-57552380D01*
X54219047Y-57600000D01*
X54266666Y-57647619D01*
X54314285Y-57742857D01*
X54361904Y-57933333D01*
X54361904Y-58171428D01*
X54314285Y-58361904D01*
X54266666Y-58457142D01*
X54219047Y-58504761D01*
X54123809Y-58552380D01*
X54028571Y-58552380D01*
X53933333Y-58504761D01*
X53885714Y-58457142D01*
X53838095Y-58361904D01*
X53790476Y-58171428D01*
X53790476Y-57933333D01*
X53838095Y-57742857D01*
X53885714Y-57647619D01*
X53933333Y-57600000D01*
X54028571Y-57552380D01*
X56190476Y-36385714D02*
X56190476Y-37052380D01*
X55952380Y-36004761D02*
X55714285Y-36719047D01*
X56333333Y-36719047D01*
X55766666Y-54552380D02*
X56385714Y-54552380D01*
X56052380Y-54933333D01*
X56195238Y-54933333D01*
X56290476Y-54980952D01*
X56338095Y-55028571D01*
X56385714Y-55123809D01*
X56385714Y-55361904D01*
X56338095Y-55457142D01*
X56290476Y-55504761D01*
X56195238Y-55552380D01*
X55909523Y-55552380D01*
X55814285Y-55504761D01*
X55766666Y-55457142D01*
X44214285Y-54647619D02*
X44261904Y-54600000D01*
X44357142Y-54552380D01*
X44595238Y-54552380D01*
X44690476Y-54600000D01*
X44738095Y-54647619D01*
X44785714Y-54742857D01*
X44785714Y-54838095D01*
X44738095Y-54980952D01*
X44166666Y-55552380D01*
X44785714Y-55552380D01*
X44585714Y-37052380D02*
X44014285Y-37052380D01*
X44300000Y-37052380D02*
X44300000Y-36052380D01*
X44204761Y-36195238D01*
X44109523Y-36290476D01*
X44014285Y-36338095D01*
%TO.C,D4*%
X58272380Y-40434285D02*
X58272380Y-41005714D01*
X58272380Y-40720000D02*
X57272380Y-40720000D01*
X57415238Y-40815238D01*
X57510476Y-40910476D01*
X57558095Y-41005714D01*
%TO.C,D3*%
X58282380Y-58824285D02*
X58282380Y-59395714D01*
X58282380Y-59110000D02*
X57282380Y-59110000D01*
X57425238Y-59205238D01*
X57520476Y-59300476D01*
X57568095Y-59395714D01*
%TO.C,D2*%
X39892380Y-58844285D02*
X39892380Y-59415714D01*
X39892380Y-59130000D02*
X38892380Y-59130000D01*
X39035238Y-59225238D01*
X39130476Y-59320476D01*
X39178095Y-59415714D01*
%TO.C,D1*%
X39882380Y-40464285D02*
X39882380Y-41035714D01*
X39882380Y-40750000D02*
X38882380Y-40750000D01*
X39025238Y-40845238D01*
X39120476Y-40940476D01*
X39168095Y-41035714D01*
D11*
%TO.C,R2*%
X56977500Y-44787742D02*
X56977500Y-45262258D01*
X58022500Y-44787742D02*
X58022500Y-45262258D01*
%TO.C,R1*%
X43562742Y-46622500D02*
X44037258Y-46622500D01*
X43562742Y-45577500D02*
X44037258Y-45577500D01*
%TO.C,J2*%
X61630000Y-41915000D02*
X58970000Y-41915000D01*
X61630000Y-47055000D02*
X61630000Y-41915000D01*
X61630000Y-48325000D02*
X61630000Y-49655000D01*
X58970000Y-47055000D02*
X58970000Y-41915000D01*
X61630000Y-49655000D02*
X60300000Y-49655000D01*
X61630000Y-47055000D02*
X58970000Y-47055000D01*
%TO.C,J1*%
X41230000Y-41805000D02*
X38570000Y-41805000D01*
X41230000Y-46945000D02*
X41230000Y-41805000D01*
X41230000Y-48215000D02*
X41230000Y-49545000D01*
X38570000Y-46945000D02*
X38570000Y-41805000D01*
X41230000Y-49545000D02*
X39900000Y-49545000D01*
X41230000Y-46945000D02*
X38570000Y-46945000D01*
%TO.C,D4*%
X56670000Y-40220000D02*
X56670000Y-32920000D01*
X62170000Y-40220000D02*
X62170000Y-32920000D01*
X62170000Y-32920000D02*
X61020000Y-32920000D01*
%TO.C,D3*%
X56680000Y-58610000D02*
X56680000Y-51310000D01*
X62180000Y-58610000D02*
X62180000Y-51310000D01*
X62180000Y-51310000D02*
X61030000Y-51310000D01*
%TO.C,D2*%
X38290000Y-58630000D02*
X38290000Y-51330000D01*
X43790000Y-58630000D02*
X43790000Y-51330000D01*
X43790000Y-51330000D02*
X42640000Y-51330000D01*
%TO.C,D1*%
X38280000Y-40250000D02*
X38280000Y-32950000D01*
X43780000Y-40250000D02*
X43780000Y-32950000D01*
X43780000Y-32950000D02*
X42630000Y-32950000D01*
%TO.C,C2*%
X41940000Y-43592164D02*
X41940000Y-43807836D01*
X42660000Y-43592164D02*
X42660000Y-43807836D01*
%TO.C,C1*%
X44210000Y-43459420D02*
X44210000Y-43740580D01*
X43190000Y-43459420D02*
X43190000Y-43740580D01*
%TD*%
%LPC*%
D12*
%TO.C,R2*%
X57500000Y-44200000D03*
X57500000Y-45850000D03*
%TD*%
D13*
%TO.C,R1*%
X42975000Y-46100000D03*
X44625000Y-46100000D03*
%TD*%
D14*
%TO.C,J2*%
X60300000Y-48325000D03*
D15*
X60300000Y-45785000D03*
X60300000Y-43245000D03*
%TD*%
D14*
%TO.C,J1*%
X39900000Y-48215000D03*
D15*
X39900000Y-45675000D03*
X39900000Y-43135000D03*
%TD*%
D16*
%TO.C,D4*%
X57820000Y-39020000D03*
X61020000Y-39020000D03*
X61020000Y-34120000D03*
X57820000Y-34120000D03*
%TD*%
%TO.C,D3*%
X57830000Y-57410000D03*
X61030000Y-57410000D03*
X61030000Y-52510000D03*
X57830000Y-52510000D03*
%TD*%
%TO.C,D2*%
X39440000Y-57430000D03*
X42640000Y-57430000D03*
X42640000Y-52530000D03*
X39440000Y-52530000D03*
%TD*%
%TO.C,D1*%
X39430000Y-39050000D03*
X42630000Y-39050000D03*
X42630000Y-34150000D03*
X39430000Y-34150000D03*
%TD*%
D17*
%TO.C,C2*%
X42300000Y-43220000D03*
X42300000Y-44180000D03*
%TD*%
D18*
%TO.C,C1*%
X43700000Y-44375000D03*
X43700000Y-42825000D03*
%TD*%
M02*
