%TF.GenerationSoftware,KiCad,Pcbnew,6.0.4-6f826c9f35~116~ubuntu20.04.1*%
%TF.CreationDate,2022-04-29T19:02:11-06:00*%
%TF.ProjectId,square,73717561-7265-42e6-9b69-6361645f7063,rev?*%
%TF.SameCoordinates,Original*%
%TF.FileFunction,Copper,L1,Top*%
%TF.FilePolarity,Positive*%
%FSLAX46Y46*%
G04 Gerber Fmt 4.6, Leading zero omitted, Abs format (unit mm)*
G04 Created by KiCad (PCBNEW 6.0.4-6f826c9f35~116~ubuntu20.04.1) date 2022-04-29 19:02:11*
%MOMM*%
%LPD*%
G01*
G04 APERTURE LIST*
G04 Aperture macros list*
%AMRoundRect*
0 Rectangle with rounded corners*
0 $1 Rounding radius*
0 $2 $3 $4 $5 $6 $7 $8 $9 X,Y pos of 4 corners*
0 Add a 4 corners polygon primitive as box body*
4,1,4,$2,$3,$4,$5,$6,$7,$8,$9,$2,$3,0*
0 Add four circle primitives for the rounded corners*
1,1,$1+$1,$2,$3*
1,1,$1+$1,$4,$5*
1,1,$1+$1,$6,$7*
1,1,$1+$1,$8,$9*
0 Add four rect primitives between the rounded corners*
20,1,$1+$1,$2,$3,$4,$5,0*
20,1,$1+$1,$4,$5,$6,$7,0*
20,1,$1+$1,$6,$7,$8,$9,0*
20,1,$1+$1,$8,$9,$2,$3,0*%
G04 Aperture macros list end*
%TA.AperFunction,SMDPad,CuDef*%
%ADD10RoundRect,0.200000X-0.275000X0.200000X-0.275000X-0.200000X0.275000X-0.200000X0.275000X0.200000X0*%
%TD*%
%TA.AperFunction,SMDPad,CuDef*%
%ADD11RoundRect,0.200000X-0.200000X-0.275000X0.200000X-0.275000X0.200000X0.275000X-0.200000X0.275000X0*%
%TD*%
%TA.AperFunction,ComponentPad*%
%ADD12R,1.700000X1.700000*%
%TD*%
%TA.AperFunction,ComponentPad*%
%ADD13O,1.700000X1.700000*%
%TD*%
%TA.AperFunction,SMDPad,CuDef*%
%ADD14R,1.000000X1.500000*%
%TD*%
%TA.AperFunction,SMDPad,CuDef*%
%ADD15RoundRect,0.140000X-0.170000X0.140000X-0.170000X-0.140000X0.170000X-0.140000X0.170000X0.140000X0*%
%TD*%
%TA.AperFunction,SMDPad,CuDef*%
%ADD16RoundRect,0.225000X-0.250000X0.225000X-0.250000X-0.225000X0.250000X-0.225000X0.250000X0.225000X0*%
%TD*%
%TA.AperFunction,ViaPad*%
%ADD17C,0.800000*%
%TD*%
%TA.AperFunction,Conductor*%
%ADD18C,0.200000*%
%TD*%
%TA.AperFunction,Conductor*%
%ADD19C,0.500000*%
%TD*%
G04 APERTURE END LIST*
D10*
%TO.P,R2,1*%
%TO.N,Net-(D4-Pad2)*%
X57500000Y-44200000D03*
%TO.P,R2,2*%
%TO.N,/SIG_OUT*%
X57500000Y-45850000D03*
%TD*%
D11*
%TO.P,R1,1*%
%TO.N,/SIG_IN*%
X42975000Y-46100000D03*
%TO.P,R1,2*%
%TO.N,Net-(D1-Pad4)*%
X44625000Y-46100000D03*
%TD*%
D12*
%TO.P,J2,1,Pin_1*%
%TO.N,GND*%
X60300000Y-48325000D03*
D13*
%TO.P,J2,2,Pin_2*%
%TO.N,/SIG_OUT*%
X60300000Y-45785000D03*
%TO.P,J2,3,Pin_3*%
%TO.N,VCC*%
X60300000Y-43245000D03*
%TD*%
D12*
%TO.P,J1,1,Pin_1*%
%TO.N,GND*%
X39900000Y-48215000D03*
D13*
%TO.P,J1,2,Pin_2*%
%TO.N,/SIG_IN*%
X39900000Y-45675000D03*
%TO.P,J1,3,Pin_3*%
%TO.N,VCC*%
X39900000Y-43135000D03*
%TD*%
D14*
%TO.P,D4,1,VDD*%
%TO.N,VCC*%
X57820000Y-39020000D03*
%TO.P,D4,2,DOUT*%
%TO.N,Net-(D4-Pad2)*%
X61020000Y-39020000D03*
%TO.P,D4,3,VSS*%
%TO.N,GND*%
X61020000Y-34120000D03*
%TO.P,D4,4,DIN*%
%TO.N,Net-(D3-Pad2)*%
X57820000Y-34120000D03*
%TD*%
%TO.P,D3,1,VDD*%
%TO.N,VCC*%
X57830000Y-57410000D03*
%TO.P,D3,2,DOUT*%
%TO.N,Net-(D3-Pad2)*%
X61030000Y-57410000D03*
%TO.P,D3,3,VSS*%
%TO.N,GND*%
X61030000Y-52510000D03*
%TO.P,D3,4,DIN*%
%TO.N,Net-(D2-Pad2)*%
X57830000Y-52510000D03*
%TD*%
%TO.P,D2,1,VDD*%
%TO.N,VCC*%
X39440000Y-57430000D03*
%TO.P,D2,2,DOUT*%
%TO.N,Net-(D2-Pad2)*%
X42640000Y-57430000D03*
%TO.P,D2,3,VSS*%
%TO.N,GND*%
X42640000Y-52530000D03*
%TO.P,D2,4,DIN*%
%TO.N,Net-(D1-Pad2)*%
X39440000Y-52530000D03*
%TD*%
%TO.P,D1,1,VDD*%
%TO.N,VCC*%
X39430000Y-39050000D03*
%TO.P,D1,2,DOUT*%
%TO.N,Net-(D1-Pad2)*%
X42630000Y-39050000D03*
%TO.P,D1,3,VSS*%
%TO.N,GND*%
X42630000Y-34150000D03*
%TO.P,D1,4,DIN*%
%TO.N,Net-(D1-Pad4)*%
X39430000Y-34150000D03*
%TD*%
D15*
%TO.P,C2,1*%
%TO.N,VCC*%
X42300000Y-43220000D03*
%TO.P,C2,2*%
%TO.N,GND*%
X42300000Y-44180000D03*
%TD*%
D16*
%TO.P,C1,2*%
%TO.N,GND*%
X43700000Y-44375000D03*
%TO.P,C1,1*%
%TO.N,VCC*%
X43700000Y-42825000D03*
%TD*%
D17*
%TO.N,Net-(D1-Pad2)*%
X42700000Y-40500000D03*
X47000000Y-40400000D03*
%TO.N,VCC*%
X43700000Y-41300000D03*
X56100000Y-41300000D03*
%TO.N,GND*%
X56349500Y-44600000D03*
X45000000Y-44300000D03*
%TO.N,/SIG_IN*%
X42900000Y-47400000D03*
%TD*%
D18*
%TO.N,/SIG_OUT*%
X57500000Y-45850000D02*
X57565000Y-45785000D01*
X57565000Y-45785000D02*
X60300000Y-45785000D01*
%TO.N,Net-(D4-Pad2)*%
X61020000Y-39020000D02*
X61020000Y-39270000D01*
X57500000Y-42790000D02*
X57500000Y-44200000D01*
X61020000Y-39270000D02*
X57500000Y-42790000D01*
%TO.N,Net-(D3-Pad2)*%
X61030000Y-57410000D02*
X61829511Y-56610489D01*
X61829511Y-56610489D02*
X61829511Y-33080489D01*
X61829511Y-33080489D02*
X61649022Y-32900000D01*
X59040000Y-32900000D02*
X57820000Y-34120000D01*
X61649022Y-32900000D02*
X59040000Y-32900000D01*
%TO.N,Net-(D2-Pad2)*%
X42640000Y-57430000D02*
X55530000Y-57430000D01*
X55530000Y-57430000D02*
X56559511Y-58459511D01*
X56559511Y-58459511D02*
X58540489Y-58459511D01*
X58540489Y-58459511D02*
X58900000Y-58100000D01*
X58900000Y-53580000D02*
X57830000Y-52510000D01*
X58900000Y-58100000D02*
X58900000Y-53580000D01*
%TO.N,Net-(D1-Pad2)*%
X42630000Y-39050000D02*
X42630000Y-40430000D01*
X42630000Y-40430000D02*
X42700000Y-40500000D01*
X40489511Y-53579511D02*
X39440000Y-52530000D01*
X47000000Y-40400000D02*
X47000000Y-50019022D01*
X47000000Y-50019022D02*
X43439511Y-53579511D01*
X43439511Y-53579511D02*
X40489511Y-53579511D01*
%TO.N,Net-(D1-Pad4)*%
X44625000Y-46100000D02*
X45174031Y-45550969D01*
X45174031Y-45550969D02*
X45174031Y-45525969D01*
X45174031Y-45525969D02*
X46100000Y-44600000D01*
X46100000Y-44600000D02*
X46100000Y-35000000D01*
X46100000Y-35000000D02*
X44200489Y-33100489D01*
X44200489Y-33100489D02*
X40479511Y-33100489D01*
X40479511Y-33100489D02*
X39430000Y-34150000D01*
D19*
%TO.N,GND*%
X56300000Y-46043559D02*
X56300000Y-44649500D01*
X56349500Y-42639522D02*
X56349500Y-44600000D01*
%TO.N,VCC*%
X55500000Y-41900000D02*
X55500000Y-55080000D01*
%TO.N,GND*%
X56300000Y-44649500D02*
X56349500Y-44600000D01*
X61020000Y-34120000D02*
X60070489Y-35069511D01*
X60070489Y-35069511D02*
X60070489Y-38918533D01*
X60070489Y-38918533D02*
X56349500Y-42639522D01*
%TO.N,VCC*%
X56100000Y-41300000D02*
X55500000Y-41900000D01*
X55500000Y-55080000D02*
X57830000Y-57410000D01*
X43700000Y-42825000D02*
X43700000Y-41300000D01*
X56100000Y-40740000D02*
X57820000Y-39020000D01*
X56100000Y-41300000D02*
X56100000Y-40740000D01*
%TO.N,GND*%
X45000000Y-44300000D02*
X45000000Y-36520000D01*
X45000000Y-36520000D02*
X42630000Y-34150000D01*
X39900000Y-48215000D02*
X39900000Y-49790000D01*
X39900000Y-49790000D02*
X42640000Y-52530000D01*
%TO.N,VCC*%
X39900000Y-43135000D02*
X39900000Y-39520000D01*
X39900000Y-39520000D02*
X39430000Y-39050000D01*
X39900000Y-43135000D02*
X38490489Y-44544511D01*
X38490489Y-56480489D02*
X39440000Y-57430000D01*
X38490489Y-44544511D02*
X38490489Y-56480489D01*
%TO.N,GND*%
X56300000Y-46043559D02*
X61030000Y-50773559D01*
X61030000Y-50773559D02*
X61030000Y-52510000D01*
X43700000Y-44375000D02*
X44925000Y-44375000D01*
X44925000Y-44375000D02*
X45000000Y-44300000D01*
X56300000Y-46043559D02*
X58581441Y-48325000D01*
X58581441Y-48325000D02*
X60300000Y-48325000D01*
D18*
%TO.N,/SIG_IN*%
X42900000Y-47400000D02*
X42900000Y-46175000D01*
X42900000Y-46175000D02*
X42975000Y-46100000D01*
D19*
%TO.N,GND*%
X42300000Y-44180000D02*
X43505000Y-44180000D01*
X43505000Y-44180000D02*
X43700000Y-44375000D01*
X39900000Y-48215000D02*
X41199511Y-46915489D01*
X41199511Y-46915489D02*
X41199511Y-45280489D01*
X41199511Y-45280489D02*
X42300000Y-44180000D01*
%TO.N,VCC*%
X43700000Y-42825000D02*
X43205000Y-42825000D01*
X42300000Y-43220000D02*
X43305000Y-43220000D01*
X43305000Y-43220000D02*
X43700000Y-42825000D01*
X39900000Y-43135000D02*
X42215000Y-43135000D01*
X42215000Y-43135000D02*
X42300000Y-43220000D01*
%TD*%
M02*
