%TF.GenerationSoftware,KiCad,Pcbnew,6.0.4-6f826c9f35~116~ubuntu20.04.1*%
%TF.CreationDate,2022-04-29T19:02:11-06:00*%
%TF.ProjectId,square,73717561-7265-42e6-9b69-6361645f7063,rev?*%
%TF.SameCoordinates,Original*%
%TF.FileFunction,Copper,L2,Bot*%
%TF.FilePolarity,Positive*%
%FSLAX46Y46*%
G04 Gerber Fmt 4.6, Leading zero omitted, Abs format (unit mm)*
G04 Created by KiCad (PCBNEW 6.0.4-6f826c9f35~116~ubuntu20.04.1) date 2022-04-29 19:02:11*
%MOMM*%
%LPD*%
G01*
G04 APERTURE LIST*
%TA.AperFunction,ComponentPad*%
%ADD10R,1.700000X1.700000*%
%TD*%
%TA.AperFunction,ComponentPad*%
%ADD11O,1.700000X1.700000*%
%TD*%
%TA.AperFunction,ViaPad*%
%ADD12C,0.800000*%
%TD*%
%TA.AperFunction,Conductor*%
%ADD13C,0.200000*%
%TD*%
%TA.AperFunction,Conductor*%
%ADD14C,0.500000*%
%TD*%
G04 APERTURE END LIST*
D10*
%TO.P,J2,1,Pin_1*%
%TO.N,GND*%
X60300000Y-48325000D03*
D11*
%TO.P,J2,2,Pin_2*%
%TO.N,/SIG_OUT*%
X60300000Y-45785000D03*
%TO.P,J2,3,Pin_3*%
%TO.N,VCC*%
X60300000Y-43245000D03*
%TD*%
D10*
%TO.P,J1,1,Pin_1*%
%TO.N,GND*%
X39900000Y-48215000D03*
D11*
%TO.P,J1,2,Pin_2*%
%TO.N,/SIG_IN*%
X39900000Y-45675000D03*
%TO.P,J1,3,Pin_3*%
%TO.N,VCC*%
X39900000Y-43135000D03*
%TD*%
D12*
%TO.N,Net-(D1-Pad2)*%
X42700000Y-40500000D03*
X47000000Y-40400000D03*
%TO.N,VCC*%
X43700000Y-41300000D03*
X56100000Y-41300000D03*
%TO.N,GND*%
X56349500Y-44600000D03*
X45000000Y-44300000D03*
%TO.N,/SIG_IN*%
X42900000Y-47400000D03*
%TD*%
D13*
%TO.N,Net-(D1-Pad2)*%
X42700000Y-40500000D02*
X46900000Y-40500000D01*
X46900000Y-40500000D02*
X47000000Y-40400000D01*
D14*
%TO.N,VCC*%
X56100000Y-41300000D02*
X58355000Y-41300000D01*
X58355000Y-41300000D02*
X60300000Y-43245000D01*
%TO.N,GND*%
X45300000Y-44600000D02*
X56349500Y-44600000D01*
X45000000Y-44300000D02*
X45300000Y-44600000D01*
%TO.N,VCC*%
X43700000Y-41300000D02*
X56100000Y-41300000D01*
D13*
%TO.N,/SIG_IN*%
X39900000Y-45675000D02*
X41175000Y-45675000D01*
X41175000Y-45675000D02*
X42900000Y-47400000D01*
%TD*%
%TA.AperFunction,Conductor*%
%TO.N,GND*%
G36*
X61933621Y-33128502D02*
G01*
X61980114Y-33182158D01*
X61991500Y-33234500D01*
X61991500Y-58265500D01*
X61971498Y-58333621D01*
X61917842Y-58380114D01*
X61865500Y-58391500D01*
X38634500Y-58391500D01*
X38566379Y-58371498D01*
X38519886Y-58317842D01*
X38508500Y-58265500D01*
X38508500Y-49545944D01*
X38528502Y-49477823D01*
X38582158Y-49431330D01*
X38652432Y-49421226D01*
X38710065Y-49445118D01*
X38796351Y-49509786D01*
X38811946Y-49518324D01*
X38932394Y-49563478D01*
X38947649Y-49567105D01*
X38998514Y-49572631D01*
X39005328Y-49573000D01*
X39627885Y-49573000D01*
X39643124Y-49568525D01*
X39644329Y-49567135D01*
X39646000Y-49559452D01*
X39646000Y-49554884D01*
X40154000Y-49554884D01*
X40158475Y-49570123D01*
X40159865Y-49571328D01*
X40167548Y-49572999D01*
X40794669Y-49572999D01*
X40801490Y-49572629D01*
X40852352Y-49567105D01*
X40867604Y-49563479D01*
X40988054Y-49518324D01*
X41003649Y-49509786D01*
X41105724Y-49433285D01*
X41118285Y-49420724D01*
X41194786Y-49318649D01*
X41203324Y-49303054D01*
X41234584Y-49219669D01*
X58942001Y-49219669D01*
X58942371Y-49226490D01*
X58947895Y-49277352D01*
X58951521Y-49292604D01*
X58996676Y-49413054D01*
X59005214Y-49428649D01*
X59081715Y-49530724D01*
X59094276Y-49543285D01*
X59196351Y-49619786D01*
X59211946Y-49628324D01*
X59332394Y-49673478D01*
X59347649Y-49677105D01*
X59398514Y-49682631D01*
X59405328Y-49683000D01*
X60027885Y-49683000D01*
X60043124Y-49678525D01*
X60044329Y-49677135D01*
X60046000Y-49669452D01*
X60046000Y-49664884D01*
X60554000Y-49664884D01*
X60558475Y-49680123D01*
X60559865Y-49681328D01*
X60567548Y-49682999D01*
X61194669Y-49682999D01*
X61201490Y-49682629D01*
X61252352Y-49677105D01*
X61267604Y-49673479D01*
X61388054Y-49628324D01*
X61403649Y-49619786D01*
X61505724Y-49543285D01*
X61518285Y-49530724D01*
X61594786Y-49428649D01*
X61603324Y-49413054D01*
X61648478Y-49292606D01*
X61652105Y-49277351D01*
X61657631Y-49226486D01*
X61658000Y-49219672D01*
X61658000Y-48597115D01*
X61653525Y-48581876D01*
X61652135Y-48580671D01*
X61644452Y-48579000D01*
X60572115Y-48579000D01*
X60556876Y-48583475D01*
X60555671Y-48584865D01*
X60554000Y-48592548D01*
X60554000Y-49664884D01*
X60046000Y-49664884D01*
X60046000Y-48597115D01*
X60041525Y-48581876D01*
X60040135Y-48580671D01*
X60032452Y-48579000D01*
X58960116Y-48579000D01*
X58944877Y-48583475D01*
X58943672Y-48584865D01*
X58942001Y-48592548D01*
X58942001Y-49219669D01*
X41234584Y-49219669D01*
X41248478Y-49182606D01*
X41252105Y-49167351D01*
X41257631Y-49116486D01*
X41258000Y-49109672D01*
X41258000Y-48487115D01*
X41253525Y-48471876D01*
X41252135Y-48470671D01*
X41244452Y-48469000D01*
X40172115Y-48469000D01*
X40156876Y-48473475D01*
X40155671Y-48474865D01*
X40154000Y-48482548D01*
X40154000Y-49554884D01*
X39646000Y-49554884D01*
X39646000Y-48087000D01*
X39666002Y-48018879D01*
X39719658Y-47972386D01*
X39772000Y-47961000D01*
X41239884Y-47961000D01*
X41255123Y-47956525D01*
X41256328Y-47955135D01*
X41257999Y-47947452D01*
X41257999Y-47320331D01*
X41257629Y-47313510D01*
X41252105Y-47262648D01*
X41248479Y-47247396D01*
X41203324Y-47126946D01*
X41194786Y-47111351D01*
X41118285Y-47009276D01*
X41105724Y-46996715D01*
X41003649Y-46920214D01*
X40988054Y-46911676D01*
X40877813Y-46870348D01*
X40821049Y-46827706D01*
X40796349Y-46761145D01*
X40811557Y-46691796D01*
X40833104Y-46663115D01*
X40934430Y-46562144D01*
X40934440Y-46562132D01*
X40938096Y-46558489D01*
X40941114Y-46554289D01*
X40960198Y-46527732D01*
X41016194Y-46484085D01*
X41086897Y-46477640D01*
X41151615Y-46512164D01*
X41950281Y-47310830D01*
X41984307Y-47373142D01*
X41986841Y-47396716D01*
X41986496Y-47400000D01*
X42006458Y-47589928D01*
X42065473Y-47771556D01*
X42160960Y-47936944D01*
X42165378Y-47941851D01*
X42165379Y-47941852D01*
X42277635Y-48066525D01*
X42288747Y-48078866D01*
X42443248Y-48191118D01*
X42449276Y-48193802D01*
X42449278Y-48193803D01*
X42611681Y-48266109D01*
X42617712Y-48268794D01*
X42711113Y-48288647D01*
X42798056Y-48307128D01*
X42798061Y-48307128D01*
X42804513Y-48308500D01*
X42995487Y-48308500D01*
X43001939Y-48307128D01*
X43001944Y-48307128D01*
X43088887Y-48288647D01*
X43182288Y-48268794D01*
X43188319Y-48266109D01*
X43350722Y-48193803D01*
X43350724Y-48193802D01*
X43356752Y-48191118D01*
X43511253Y-48078866D01*
X43522365Y-48066525D01*
X43634621Y-47941852D01*
X43634622Y-47941851D01*
X43639040Y-47936944D01*
X43734527Y-47771556D01*
X43793542Y-47589928D01*
X43813504Y-47400000D01*
X43796367Y-47236946D01*
X43794232Y-47216635D01*
X43794232Y-47216633D01*
X43793542Y-47210072D01*
X43734527Y-47028444D01*
X43730620Y-47021676D01*
X43692641Y-46955896D01*
X43639040Y-46863056D01*
X43605831Y-46826173D01*
X43515675Y-46726045D01*
X43515674Y-46726044D01*
X43511253Y-46721134D01*
X43356752Y-46608882D01*
X43350724Y-46606198D01*
X43350722Y-46606197D01*
X43188319Y-46533891D01*
X43188318Y-46533891D01*
X43182288Y-46531206D01*
X43088888Y-46511353D01*
X43001944Y-46492872D01*
X43001939Y-46492872D01*
X42995487Y-46491500D01*
X42904239Y-46491500D01*
X42836118Y-46471498D01*
X42815144Y-46454595D01*
X41639315Y-45278766D01*
X41628448Y-45266375D01*
X41614013Y-45247563D01*
X41608987Y-45241013D01*
X41577075Y-45216526D01*
X41577072Y-45216523D01*
X41481876Y-45143476D01*
X41333851Y-45082162D01*
X41325664Y-45081084D01*
X41325663Y-45081084D01*
X41314458Y-45079609D01*
X41283262Y-45075502D01*
X41214885Y-45066500D01*
X41214882Y-45066500D01*
X41214874Y-45066499D01*
X41175000Y-45061250D01*
X41175432Y-45057969D01*
X41122158Y-45042326D01*
X41084487Y-45004768D01*
X41082490Y-45001680D01*
X40980014Y-44843277D01*
X40829670Y-44678051D01*
X40825619Y-44674852D01*
X40825615Y-44674848D01*
X40658414Y-44542800D01*
X40658410Y-44542798D01*
X40654359Y-44539598D01*
X40613053Y-44516796D01*
X40563084Y-44466364D01*
X40548312Y-44396921D01*
X40573428Y-44330516D01*
X40600780Y-44303909D01*
X40644603Y-44272650D01*
X40779860Y-44176173D01*
X40938096Y-44018489D01*
X40986393Y-43951277D01*
X41065435Y-43841277D01*
X41068453Y-43837077D01*
X41115514Y-43741857D01*
X41165136Y-43641453D01*
X41165137Y-43641451D01*
X41167430Y-43636811D01*
X41232370Y-43423069D01*
X41261529Y-43201590D01*
X41263156Y-43135000D01*
X41244852Y-42912361D01*
X41190431Y-42695702D01*
X41101354Y-42490840D01*
X40980014Y-42303277D01*
X40829670Y-42138051D01*
X40825619Y-42134852D01*
X40825615Y-42134848D01*
X40658414Y-42002800D01*
X40658410Y-42002798D01*
X40654359Y-41999598D01*
X40458789Y-41891638D01*
X40453920Y-41889914D01*
X40453916Y-41889912D01*
X40253087Y-41818795D01*
X40253083Y-41818794D01*
X40248212Y-41817069D01*
X40243119Y-41816162D01*
X40243116Y-41816161D01*
X40033373Y-41778800D01*
X40033367Y-41778799D01*
X40028284Y-41777894D01*
X39954452Y-41776992D01*
X39810081Y-41775228D01*
X39810079Y-41775228D01*
X39804911Y-41775165D01*
X39584091Y-41808955D01*
X39371756Y-41878357D01*
X39341443Y-41894137D01*
X39279926Y-41926161D01*
X39173607Y-41981507D01*
X39169474Y-41984610D01*
X39169471Y-41984612D01*
X38999100Y-42112530D01*
X38994965Y-42115635D01*
X38840629Y-42277138D01*
X38747762Y-42413277D01*
X38738588Y-42426725D01*
X38683677Y-42471728D01*
X38613152Y-42479899D01*
X38549405Y-42448645D01*
X38512675Y-42387888D01*
X38508500Y-42355721D01*
X38508500Y-40500000D01*
X41786496Y-40500000D01*
X41787186Y-40506565D01*
X41794946Y-40580393D01*
X41806458Y-40689928D01*
X41865473Y-40871556D01*
X41960960Y-41036944D01*
X42088747Y-41178866D01*
X42243248Y-41291118D01*
X42249276Y-41293802D01*
X42249278Y-41293803D01*
X42411681Y-41366109D01*
X42417712Y-41368794D01*
X42511112Y-41388647D01*
X42598056Y-41407128D01*
X42598061Y-41407128D01*
X42604513Y-41408500D01*
X42688456Y-41408500D01*
X42756577Y-41428502D01*
X42803070Y-41482158D01*
X42808289Y-41495562D01*
X42865473Y-41671556D01*
X42960960Y-41836944D01*
X42965378Y-41841851D01*
X42965379Y-41841852D01*
X43027329Y-41910654D01*
X43088747Y-41978866D01*
X43187843Y-42050864D01*
X43237904Y-42087235D01*
X43243248Y-42091118D01*
X43249276Y-42093802D01*
X43249278Y-42093803D01*
X43357239Y-42141870D01*
X43417712Y-42168794D01*
X43511113Y-42188647D01*
X43598056Y-42207128D01*
X43598061Y-42207128D01*
X43604513Y-42208500D01*
X43795487Y-42208500D01*
X43801939Y-42207128D01*
X43801944Y-42207128D01*
X43888887Y-42188647D01*
X43982288Y-42168794D01*
X44042761Y-42141870D01*
X44150722Y-42093803D01*
X44150724Y-42093802D01*
X44156752Y-42091118D01*
X44162091Y-42087239D01*
X44162098Y-42087235D01*
X44168528Y-42082563D01*
X44242587Y-42058500D01*
X55557413Y-42058500D01*
X55631472Y-42082563D01*
X55637902Y-42087235D01*
X55637909Y-42087239D01*
X55643248Y-42091118D01*
X55649276Y-42093802D01*
X55649278Y-42093803D01*
X55757239Y-42141870D01*
X55817712Y-42168794D01*
X55911113Y-42188647D01*
X55998056Y-42207128D01*
X55998061Y-42207128D01*
X56004513Y-42208500D01*
X56195487Y-42208500D01*
X56201939Y-42207128D01*
X56201944Y-42207128D01*
X56288887Y-42188647D01*
X56382288Y-42168794D01*
X56442761Y-42141870D01*
X56550722Y-42093803D01*
X56550724Y-42093802D01*
X56556752Y-42091118D01*
X56562091Y-42087239D01*
X56562098Y-42087235D01*
X56568528Y-42082563D01*
X56642587Y-42058500D01*
X57988629Y-42058500D01*
X58056750Y-42078502D01*
X58077724Y-42095405D01*
X58919449Y-42937130D01*
X58953475Y-42999442D01*
X58955641Y-43039613D01*
X58937251Y-43211695D01*
X58937548Y-43216848D01*
X58937548Y-43216851D01*
X58949724Y-43428023D01*
X58950110Y-43434715D01*
X58951247Y-43439761D01*
X58951248Y-43439767D01*
X58971119Y-43527939D01*
X58999222Y-43652639D01*
X59083266Y-43859616D01*
X59085965Y-43864020D01*
X59182859Y-44022137D01*
X59199987Y-44050088D01*
X59346250Y-44218938D01*
X59518126Y-44361632D01*
X59522757Y-44364338D01*
X59591445Y-44404476D01*
X59640169Y-44456114D01*
X59653240Y-44525897D01*
X59626509Y-44591669D01*
X59586055Y-44625027D01*
X59573607Y-44631507D01*
X59569474Y-44634610D01*
X59569471Y-44634612D01*
X59399100Y-44762530D01*
X59394965Y-44765635D01*
X59391393Y-44769373D01*
X59320769Y-44843277D01*
X59240629Y-44927138D01*
X59237715Y-44931410D01*
X59237714Y-44931411D01*
X59198672Y-44988645D01*
X59114743Y-45111680D01*
X59099984Y-45143476D01*
X59037185Y-45278766D01*
X59020688Y-45314305D01*
X58960989Y-45529570D01*
X58937251Y-45751695D01*
X58937548Y-45756848D01*
X58937548Y-45756851D01*
X58949812Y-45969547D01*
X58950110Y-45974715D01*
X58951247Y-45979761D01*
X58951248Y-45979767D01*
X58971119Y-46067939D01*
X58999222Y-46192639D01*
X59083266Y-46399616D01*
X59085965Y-46404020D01*
X59165550Y-46533891D01*
X59199987Y-46590088D01*
X59346250Y-46758938D01*
X59350225Y-46762238D01*
X59350231Y-46762244D01*
X59355425Y-46766556D01*
X59395059Y-46825460D01*
X59396555Y-46896441D01*
X59359439Y-46956962D01*
X59319168Y-46981480D01*
X59211946Y-47021676D01*
X59196351Y-47030214D01*
X59094276Y-47106715D01*
X59081715Y-47119276D01*
X59005214Y-47221351D01*
X58996676Y-47236946D01*
X58951522Y-47357394D01*
X58947895Y-47372649D01*
X58942369Y-47423514D01*
X58942000Y-47430328D01*
X58942000Y-48052885D01*
X58946475Y-48068124D01*
X58947865Y-48069329D01*
X58955548Y-48071000D01*
X61639884Y-48071000D01*
X61655123Y-48066525D01*
X61656328Y-48065135D01*
X61657999Y-48057452D01*
X61657999Y-47430331D01*
X61657629Y-47423510D01*
X61652105Y-47372648D01*
X61648479Y-47357396D01*
X61603324Y-47236946D01*
X61594786Y-47221351D01*
X61518285Y-47119276D01*
X61505724Y-47106715D01*
X61403649Y-47030214D01*
X61388054Y-47021676D01*
X61277813Y-46980348D01*
X61221049Y-46937706D01*
X61196349Y-46871145D01*
X61211557Y-46801796D01*
X61233104Y-46773115D01*
X61334430Y-46672144D01*
X61334440Y-46672132D01*
X61338096Y-46668489D01*
X61397594Y-46585689D01*
X61465435Y-46491277D01*
X61468453Y-46487077D01*
X61474082Y-46475689D01*
X61565136Y-46291453D01*
X61565137Y-46291451D01*
X61567430Y-46286811D01*
X61599900Y-46179940D01*
X61630865Y-46078023D01*
X61630865Y-46078021D01*
X61632370Y-46073069D01*
X61661529Y-45851590D01*
X61663156Y-45785000D01*
X61644852Y-45562361D01*
X61590431Y-45345702D01*
X61501354Y-45140840D01*
X61447742Y-45057969D01*
X61382822Y-44957617D01*
X61382820Y-44957614D01*
X61380014Y-44953277D01*
X61229670Y-44788051D01*
X61225619Y-44784852D01*
X61225615Y-44784848D01*
X61058414Y-44652800D01*
X61058410Y-44652798D01*
X61054359Y-44649598D01*
X61013053Y-44626796D01*
X60963084Y-44576364D01*
X60948312Y-44506921D01*
X60973428Y-44440516D01*
X61000780Y-44413909D01*
X61070276Y-44364338D01*
X61179860Y-44286173D01*
X61217839Y-44248327D01*
X61261209Y-44205107D01*
X61338096Y-44128489D01*
X61397594Y-44045689D01*
X61465435Y-43951277D01*
X61468453Y-43947077D01*
X61474082Y-43935689D01*
X61565136Y-43751453D01*
X61565137Y-43751451D01*
X61567430Y-43746811D01*
X61602356Y-43631857D01*
X61630865Y-43538023D01*
X61630865Y-43538021D01*
X61632370Y-43533069D01*
X61661529Y-43311590D01*
X61663156Y-43245000D01*
X61644852Y-43022361D01*
X61590431Y-42805702D01*
X61501354Y-42600840D01*
X61417828Y-42471728D01*
X61382822Y-42417617D01*
X61382820Y-42417614D01*
X61380014Y-42413277D01*
X61229670Y-42248051D01*
X61225619Y-42244852D01*
X61225615Y-42244848D01*
X61058414Y-42112800D01*
X61058410Y-42112798D01*
X61054359Y-42109598D01*
X61028649Y-42095405D01*
X60998028Y-42078502D01*
X60858789Y-42001638D01*
X60853920Y-41999914D01*
X60853916Y-41999912D01*
X60653087Y-41928795D01*
X60653083Y-41928794D01*
X60648212Y-41927069D01*
X60643119Y-41926162D01*
X60643116Y-41926161D01*
X60433373Y-41888800D01*
X60433367Y-41888799D01*
X60428284Y-41887894D01*
X60357770Y-41887033D01*
X60210082Y-41885228D01*
X60210080Y-41885228D01*
X60204911Y-41885165D01*
X60163262Y-41891538D01*
X60101385Y-41901006D01*
X60031023Y-41891538D01*
X59993232Y-41865551D01*
X58938770Y-40811089D01*
X58926384Y-40796677D01*
X58917851Y-40785082D01*
X58917846Y-40785077D01*
X58913508Y-40779182D01*
X58907930Y-40774443D01*
X58907927Y-40774440D01*
X58873232Y-40744965D01*
X58865716Y-40738035D01*
X58860021Y-40732340D01*
X58853880Y-40727482D01*
X58837749Y-40714719D01*
X58834345Y-40711928D01*
X58784297Y-40669409D01*
X58784295Y-40669408D01*
X58778715Y-40664667D01*
X58772199Y-40661339D01*
X58767150Y-40657972D01*
X58762021Y-40654805D01*
X58756284Y-40650266D01*
X58690125Y-40619345D01*
X58686225Y-40617439D01*
X58621192Y-40584231D01*
X58614084Y-40582492D01*
X58608441Y-40580393D01*
X58602678Y-40578476D01*
X58596050Y-40575378D01*
X58524583Y-40560513D01*
X58520299Y-40559543D01*
X58449390Y-40542192D01*
X58443788Y-40541844D01*
X58443785Y-40541844D01*
X58438236Y-40541500D01*
X58438238Y-40541464D01*
X58434245Y-40541225D01*
X58430053Y-40540851D01*
X58422885Y-40539360D01*
X58356675Y-40541151D01*
X58345479Y-40541454D01*
X58342072Y-40541500D01*
X56642587Y-40541500D01*
X56568528Y-40517437D01*
X56562098Y-40512765D01*
X56562091Y-40512761D01*
X56556752Y-40508882D01*
X56550724Y-40506198D01*
X56550722Y-40506197D01*
X56388319Y-40433891D01*
X56388318Y-40433891D01*
X56382288Y-40431206D01*
X56288888Y-40411353D01*
X56201944Y-40392872D01*
X56201939Y-40392872D01*
X56195487Y-40391500D01*
X56004513Y-40391500D01*
X55998061Y-40392872D01*
X55998056Y-40392872D01*
X55911112Y-40411353D01*
X55817712Y-40431206D01*
X55811682Y-40433891D01*
X55811681Y-40433891D01*
X55649278Y-40506197D01*
X55649276Y-40506198D01*
X55643248Y-40508882D01*
X55637909Y-40512761D01*
X55637902Y-40512765D01*
X55631472Y-40517437D01*
X55557413Y-40541500D01*
X48038569Y-40541500D01*
X47970448Y-40521498D01*
X47923955Y-40467842D01*
X47915030Y-40413170D01*
X47912814Y-40413170D01*
X47912814Y-40406565D01*
X47913504Y-40400000D01*
X47904052Y-40310072D01*
X47894232Y-40216635D01*
X47894232Y-40216633D01*
X47893542Y-40210072D01*
X47834527Y-40028444D01*
X47739040Y-39863056D01*
X47611253Y-39721134D01*
X47456752Y-39608882D01*
X47450724Y-39606198D01*
X47450722Y-39606197D01*
X47288319Y-39533891D01*
X47288318Y-39533891D01*
X47282288Y-39531206D01*
X47188888Y-39511353D01*
X47101944Y-39492872D01*
X47101939Y-39492872D01*
X47095487Y-39491500D01*
X46904513Y-39491500D01*
X46898061Y-39492872D01*
X46898056Y-39492872D01*
X46811112Y-39511353D01*
X46717712Y-39531206D01*
X46711682Y-39533891D01*
X46711681Y-39533891D01*
X46549278Y-39606197D01*
X46549276Y-39606198D01*
X46543248Y-39608882D01*
X46388747Y-39721134D01*
X46302200Y-39817255D01*
X46272887Y-39849810D01*
X46212441Y-39887050D01*
X46179251Y-39891500D01*
X43430710Y-39891500D01*
X43362589Y-39871498D01*
X43337074Y-39849811D01*
X43315668Y-39826037D01*
X43315666Y-39826036D01*
X43311253Y-39821134D01*
X43180375Y-39726045D01*
X43162094Y-39712763D01*
X43162093Y-39712762D01*
X43156752Y-39708882D01*
X43150724Y-39706198D01*
X43150722Y-39706197D01*
X42988319Y-39633891D01*
X42988318Y-39633891D01*
X42982288Y-39631206D01*
X42888887Y-39611353D01*
X42801944Y-39592872D01*
X42801939Y-39592872D01*
X42795487Y-39591500D01*
X42604513Y-39591500D01*
X42598061Y-39592872D01*
X42598056Y-39592872D01*
X42511113Y-39611353D01*
X42417712Y-39631206D01*
X42411682Y-39633891D01*
X42411681Y-39633891D01*
X42249278Y-39706197D01*
X42249276Y-39706198D01*
X42243248Y-39708882D01*
X42237907Y-39712762D01*
X42237906Y-39712763D01*
X42219625Y-39726045D01*
X42088747Y-39821134D01*
X41960960Y-39963056D01*
X41865473Y-40128444D01*
X41806458Y-40310072D01*
X41786496Y-40500000D01*
X38508500Y-40500000D01*
X38508500Y-33234500D01*
X38528502Y-33166379D01*
X38582158Y-33119886D01*
X38634500Y-33108500D01*
X61865500Y-33108500D01*
X61933621Y-33128502D01*
G37*
%TD.AperFunction*%
%TD*%
M02*
