%FSLAX45Y45*%
G04 Gerber Fmt 4.5, Leading zero omitted, Abs format (unit mm)*
G04 Created by KiCad (PCBNEW 6.0.4-6f826c9f35~116~ubuntu20.04.1) date 2022-04-29 19:01:11*
%MOMM*%
%LPD*%
G01*
G04 APERTURE LIST*
%TA.AperFunction,Profile*%
%ADD10C,0.100000*%
%TD*%
%ADD11C,0.200000*%
%ADD12C,0.040000*%
%ADD13C,0.100000*%
G04 APERTURE END LIST*
D10*
X3800000Y-5890000D02*
X3800000Y-3260000D01*
X6250000Y-5890000D02*
X3800000Y-5890000D01*
X6250000Y-3260000D02*
X6250000Y-5890000D01*
X3800000Y-3260000D02*
X6250000Y-3260000D01*
D11*
D12*
X4250000Y-4030000D02*
X4290000Y-4070000D01*
X4290000Y-4030000D02*
X4250000Y-4070000D01*
X4270000Y-4720000D02*
X4310000Y-4760000D01*
X4310000Y-4720000D02*
X4270000Y-4760000D01*
X4350000Y-4110000D02*
X4390000Y-4150000D01*
X4390000Y-4110000D02*
X4350000Y-4150000D01*
X4480000Y-4410000D02*
X4520000Y-4450000D01*
X4520000Y-4410000D02*
X4480000Y-4450000D01*
X4680000Y-4020000D02*
X4720000Y-4060000D01*
X4720000Y-4020000D02*
X4680000Y-4060000D01*
X5590000Y-4110000D02*
X5630000Y-4150000D01*
X5630000Y-4110000D02*
X5590000Y-4150000D01*
X5614950Y-4440000D02*
X5654950Y-4480000D01*
X5654950Y-4440000D02*
X5614950Y-4480000D01*
D13*
X4040000Y-4313500D02*
G75*
G03*
X4040000Y-4313500I-50000J0D01*
G01*
X4040000Y-4567500D02*
G75*
G03*
X4040000Y-4567500I-50000J0D01*
G01*
X4040000Y-4821500D02*
G75*
G03*
X4040000Y-4821500I-50000J0D01*
G01*
X6080000Y-4324500D02*
G75*
G03*
X6080000Y-4324500I-50000J0D01*
G01*
X6080000Y-4578500D02*
G75*
G03*
X6080000Y-4578500I-50000J0D01*
G01*
X6080000Y-4832500D02*
G75*
G03*
X6080000Y-4832500I-50000J0D01*
G01*
D11*
X4052619Y-6205476D02*
X4052619Y-6005476D01*
X4100238Y-6005476D01*
X4128809Y-6015000D01*
X4147857Y-6034048D01*
X4157381Y-6053095D01*
X4166905Y-6091190D01*
X4166905Y-6119762D01*
X4157381Y-6157857D01*
X4147857Y-6176905D01*
X4128809Y-6195952D01*
X4100238Y-6205476D01*
X4052619Y-6205476D01*
X4252619Y-6205476D02*
X4252619Y-6072143D01*
X4252619Y-6110238D02*
X4262143Y-6091190D01*
X4271667Y-6081667D01*
X4290714Y-6072143D01*
X4309762Y-6072143D01*
X4376429Y-6205476D02*
X4376429Y-6072143D01*
X4376429Y-6005476D02*
X4366905Y-6015000D01*
X4376429Y-6024524D01*
X4385952Y-6015000D01*
X4376429Y-6005476D01*
X4376429Y-6024524D01*
X4500238Y-6205476D02*
X4481190Y-6195952D01*
X4471667Y-6176905D01*
X4471667Y-6005476D01*
X4605000Y-6205476D02*
X4585952Y-6195952D01*
X4576429Y-6176905D01*
X4576429Y-6005476D01*
X4833571Y-6205476D02*
X4833571Y-6005476D01*
X4900238Y-6148333D01*
X4966905Y-6005476D01*
X4966905Y-6205476D01*
X5147857Y-6205476D02*
X5147857Y-6100714D01*
X5138333Y-6081667D01*
X5119286Y-6072143D01*
X5081190Y-6072143D01*
X5062143Y-6081667D01*
X5147857Y-6195952D02*
X5128810Y-6205476D01*
X5081190Y-6205476D01*
X5062143Y-6195952D01*
X5052619Y-6176905D01*
X5052619Y-6157857D01*
X5062143Y-6138809D01*
X5081190Y-6129286D01*
X5128810Y-6129286D01*
X5147857Y-6119762D01*
X5243095Y-6072143D02*
X5243095Y-6272143D01*
X5243095Y-6081667D02*
X5262143Y-6072143D01*
X5300238Y-6072143D01*
X5319286Y-6081667D01*
X5328810Y-6091190D01*
X5338333Y-6110238D01*
X5338333Y-6167381D01*
X5328810Y-6186428D01*
X5319286Y-6195952D01*
X5300238Y-6205476D01*
X5262143Y-6205476D01*
X5243095Y-6195952D01*
X5424048Y-6186428D02*
X5433571Y-6195952D01*
X5424048Y-6205476D01*
X5414524Y-6195952D01*
X5424048Y-6186428D01*
X5424048Y-6205476D01*
X5424048Y-6081667D02*
X5433571Y-6091190D01*
X5424048Y-6100714D01*
X5414524Y-6091190D01*
X5424048Y-6081667D01*
X5424048Y-6100714D01*
D12*
X3755000Y-6515000D02*
X3795000Y-6555000D01*
X3795000Y-6515000D02*
X3755000Y-6555000D01*
D11*
X4090714Y-6425476D02*
X4109762Y-6425476D01*
X4128809Y-6435000D01*
X4138333Y-6444524D01*
X4147857Y-6463571D01*
X4157381Y-6501667D01*
X4157381Y-6549286D01*
X4147857Y-6587381D01*
X4138333Y-6606428D01*
X4128809Y-6615952D01*
X4109762Y-6625476D01*
X4090714Y-6625476D01*
X4071667Y-6615952D01*
X4062143Y-6606428D01*
X4052619Y-6587381D01*
X4043095Y-6549286D01*
X4043095Y-6501667D01*
X4052619Y-6463571D01*
X4062143Y-6444524D01*
X4071667Y-6435000D01*
X4090714Y-6425476D01*
X4243095Y-6606428D02*
X4252619Y-6615952D01*
X4243095Y-6625476D01*
X4233571Y-6615952D01*
X4243095Y-6606428D01*
X4243095Y-6625476D01*
X4424048Y-6492143D02*
X4424048Y-6625476D01*
X4376429Y-6415952D02*
X4328810Y-6558809D01*
X4452619Y-6558809D01*
X4566905Y-6425476D02*
X4585952Y-6425476D01*
X4605000Y-6435000D01*
X4614524Y-6444524D01*
X4624048Y-6463571D01*
X4633571Y-6501667D01*
X4633571Y-6549286D01*
X4624048Y-6587381D01*
X4614524Y-6606428D01*
X4605000Y-6615952D01*
X4585952Y-6625476D01*
X4566905Y-6625476D01*
X4547857Y-6615952D01*
X4538333Y-6606428D01*
X4528810Y-6587381D01*
X4519286Y-6549286D01*
X4519286Y-6501667D01*
X4528810Y-6463571D01*
X4538333Y-6444524D01*
X4547857Y-6435000D01*
X4566905Y-6425476D01*
X4757381Y-6425476D02*
X4776429Y-6425476D01*
X4795476Y-6435000D01*
X4805000Y-6444524D01*
X4814524Y-6463571D01*
X4824048Y-6501667D01*
X4824048Y-6549286D01*
X4814524Y-6587381D01*
X4805000Y-6606428D01*
X4795476Y-6615952D01*
X4776429Y-6625476D01*
X4757381Y-6625476D01*
X4738333Y-6615952D01*
X4728810Y-6606428D01*
X4719286Y-6587381D01*
X4709762Y-6549286D01*
X4709762Y-6501667D01*
X4719286Y-6463571D01*
X4728810Y-6444524D01*
X4738333Y-6435000D01*
X4757381Y-6425476D01*
X4909762Y-6625476D02*
X4909762Y-6492143D01*
X4909762Y-6511190D02*
X4919286Y-6501667D01*
X4938333Y-6492143D01*
X4966905Y-6492143D01*
X4985952Y-6501667D01*
X4995476Y-6520714D01*
X4995476Y-6625476D01*
X4995476Y-6520714D02*
X5005000Y-6501667D01*
X5024048Y-6492143D01*
X5052619Y-6492143D01*
X5071667Y-6501667D01*
X5081190Y-6520714D01*
X5081190Y-6625476D01*
X5176429Y-6625476D02*
X5176429Y-6492143D01*
X5176429Y-6511190D02*
X5185952Y-6501667D01*
X5205000Y-6492143D01*
X5233571Y-6492143D01*
X5252619Y-6501667D01*
X5262143Y-6520714D01*
X5262143Y-6625476D01*
X5262143Y-6520714D02*
X5271667Y-6501667D01*
X5290714Y-6492143D01*
X5319286Y-6492143D01*
X5338333Y-6501667D01*
X5347857Y-6520714D01*
X5347857Y-6625476D01*
X5738333Y-6415952D02*
X5566905Y-6673095D01*
X5995476Y-6425476D02*
X6014524Y-6425476D01*
X6033571Y-6435000D01*
X6043095Y-6444524D01*
X6052619Y-6463571D01*
X6062143Y-6501667D01*
X6062143Y-6549286D01*
X6052619Y-6587381D01*
X6043095Y-6606428D01*
X6033571Y-6615952D01*
X6014524Y-6625476D01*
X5995476Y-6625476D01*
X5976428Y-6615952D01*
X5966905Y-6606428D01*
X5957381Y-6587381D01*
X5947857Y-6549286D01*
X5947857Y-6501667D01*
X5957381Y-6463571D01*
X5966905Y-6444524D01*
X5976428Y-6435000D01*
X5995476Y-6425476D01*
X6147857Y-6606428D02*
X6157381Y-6615952D01*
X6147857Y-6625476D01*
X6138333Y-6615952D01*
X6147857Y-6606428D01*
X6147857Y-6625476D01*
X6281190Y-6425476D02*
X6300238Y-6425476D01*
X6319286Y-6435000D01*
X6328809Y-6444524D01*
X6338333Y-6463571D01*
X6347857Y-6501667D01*
X6347857Y-6549286D01*
X6338333Y-6587381D01*
X6328809Y-6606428D01*
X6319286Y-6615952D01*
X6300238Y-6625476D01*
X6281190Y-6625476D01*
X6262143Y-6615952D01*
X6252619Y-6606428D01*
X6243095Y-6587381D01*
X6233571Y-6549286D01*
X6233571Y-6501667D01*
X6243095Y-6463571D01*
X6252619Y-6444524D01*
X6262143Y-6435000D01*
X6281190Y-6425476D01*
X6538333Y-6625476D02*
X6424048Y-6625476D01*
X6481190Y-6625476D02*
X6481190Y-6425476D01*
X6462143Y-6454048D01*
X6443095Y-6473095D01*
X6424048Y-6482619D01*
X6719286Y-6425476D02*
X6624048Y-6425476D01*
X6614524Y-6520714D01*
X6624048Y-6511190D01*
X6643095Y-6501667D01*
X6690714Y-6501667D01*
X6709762Y-6511190D01*
X6719286Y-6520714D01*
X6728809Y-6539762D01*
X6728809Y-6587381D01*
X6719286Y-6606428D01*
X6709762Y-6615952D01*
X6690714Y-6625476D01*
X6643095Y-6625476D01*
X6624048Y-6615952D01*
X6614524Y-6606428D01*
X6795476Y-6425476D02*
X6928809Y-6425476D01*
X6843095Y-6625476D01*
X6995476Y-6425476D02*
X6995476Y-6463571D01*
X7071667Y-6425476D02*
X7071667Y-6463571D01*
X7366905Y-6701667D02*
X7357381Y-6692143D01*
X7338333Y-6663571D01*
X7328809Y-6644524D01*
X7319286Y-6615952D01*
X7309762Y-6568333D01*
X7309762Y-6530238D01*
X7319286Y-6482619D01*
X7328809Y-6454048D01*
X7338333Y-6435000D01*
X7357381Y-6406428D01*
X7366905Y-6396905D01*
X7424048Y-6425476D02*
X7557381Y-6425476D01*
X7471667Y-6625476D01*
X7785952Y-6625476D02*
X7785952Y-6425476D01*
X7871667Y-6625476D02*
X7871667Y-6520714D01*
X7862143Y-6501667D01*
X7843095Y-6492143D01*
X7814524Y-6492143D01*
X7795476Y-6501667D01*
X7785952Y-6511190D01*
X7995476Y-6625476D02*
X7976428Y-6615952D01*
X7966905Y-6606428D01*
X7957381Y-6587381D01*
X7957381Y-6530238D01*
X7966905Y-6511190D01*
X7976428Y-6501667D01*
X7995476Y-6492143D01*
X8024048Y-6492143D01*
X8043095Y-6501667D01*
X8052619Y-6511190D01*
X8062143Y-6530238D01*
X8062143Y-6587381D01*
X8052619Y-6606428D01*
X8043095Y-6615952D01*
X8024048Y-6625476D01*
X7995476Y-6625476D01*
X8176428Y-6625476D02*
X8157381Y-6615952D01*
X8147857Y-6596905D01*
X8147857Y-6425476D01*
X8328809Y-6615952D02*
X8309762Y-6625476D01*
X8271667Y-6625476D01*
X8252619Y-6615952D01*
X8243095Y-6596905D01*
X8243095Y-6520714D01*
X8252619Y-6501667D01*
X8271667Y-6492143D01*
X8309762Y-6492143D01*
X8328809Y-6501667D01*
X8338333Y-6520714D01*
X8338333Y-6539762D01*
X8243095Y-6558809D01*
X8414524Y-6615952D02*
X8433571Y-6625476D01*
X8471667Y-6625476D01*
X8490714Y-6615952D01*
X8500238Y-6596905D01*
X8500238Y-6587381D01*
X8490714Y-6568333D01*
X8471667Y-6558809D01*
X8443095Y-6558809D01*
X8424048Y-6549286D01*
X8414524Y-6530238D01*
X8414524Y-6520714D01*
X8424048Y-6501667D01*
X8443095Y-6492143D01*
X8471667Y-6492143D01*
X8490714Y-6501667D01*
X8566905Y-6701667D02*
X8576429Y-6692143D01*
X8595476Y-6663571D01*
X8605000Y-6644524D01*
X8614524Y-6615952D01*
X8624048Y-6568333D01*
X8624048Y-6530238D01*
X8614524Y-6482619D01*
X8605000Y-6454048D01*
X8595476Y-6435000D01*
X8576429Y-6406428D01*
X8566905Y-6396905D01*
D13*
X3795000Y-6799000D02*
G75*
G03*
X3795000Y-6799000I-50000J0D01*
G01*
D11*
X4157381Y-6889476D02*
X4043095Y-6889476D01*
X4100238Y-6889476D02*
X4100238Y-6689476D01*
X4081190Y-6718048D01*
X4062143Y-6737095D01*
X4043095Y-6746619D01*
X4243095Y-6870428D02*
X4252619Y-6879952D01*
X4243095Y-6889476D01*
X4233571Y-6879952D01*
X4243095Y-6870428D01*
X4243095Y-6889476D01*
X4376429Y-6689476D02*
X4395476Y-6689476D01*
X4414524Y-6699000D01*
X4424048Y-6708524D01*
X4433571Y-6727571D01*
X4443095Y-6765667D01*
X4443095Y-6813286D01*
X4433571Y-6851381D01*
X4424048Y-6870428D01*
X4414524Y-6879952D01*
X4395476Y-6889476D01*
X4376429Y-6889476D01*
X4357381Y-6879952D01*
X4347857Y-6870428D01*
X4338333Y-6851381D01*
X4328810Y-6813286D01*
X4328810Y-6765667D01*
X4338333Y-6727571D01*
X4347857Y-6708524D01*
X4357381Y-6699000D01*
X4376429Y-6689476D01*
X4566905Y-6689476D02*
X4585952Y-6689476D01*
X4605000Y-6699000D01*
X4614524Y-6708524D01*
X4624048Y-6727571D01*
X4633571Y-6765667D01*
X4633571Y-6813286D01*
X4624048Y-6851381D01*
X4614524Y-6870428D01*
X4605000Y-6879952D01*
X4585952Y-6889476D01*
X4566905Y-6889476D01*
X4547857Y-6879952D01*
X4538333Y-6870428D01*
X4528810Y-6851381D01*
X4519286Y-6813286D01*
X4519286Y-6765667D01*
X4528810Y-6727571D01*
X4538333Y-6708524D01*
X4547857Y-6699000D01*
X4566905Y-6689476D01*
X4757381Y-6689476D02*
X4776429Y-6689476D01*
X4795476Y-6699000D01*
X4805000Y-6708524D01*
X4814524Y-6727571D01*
X4824048Y-6765667D01*
X4824048Y-6813286D01*
X4814524Y-6851381D01*
X4805000Y-6870428D01*
X4795476Y-6879952D01*
X4776429Y-6889476D01*
X4757381Y-6889476D01*
X4738333Y-6879952D01*
X4728810Y-6870428D01*
X4719286Y-6851381D01*
X4709762Y-6813286D01*
X4709762Y-6765667D01*
X4719286Y-6727571D01*
X4728810Y-6708524D01*
X4738333Y-6699000D01*
X4757381Y-6689476D01*
X4909762Y-6889476D02*
X4909762Y-6756143D01*
X4909762Y-6775190D02*
X4919286Y-6765667D01*
X4938333Y-6756143D01*
X4966905Y-6756143D01*
X4985952Y-6765667D01*
X4995476Y-6784714D01*
X4995476Y-6889476D01*
X4995476Y-6784714D02*
X5005000Y-6765667D01*
X5024048Y-6756143D01*
X5052619Y-6756143D01*
X5071667Y-6765667D01*
X5081190Y-6784714D01*
X5081190Y-6889476D01*
X5176429Y-6889476D02*
X5176429Y-6756143D01*
X5176429Y-6775190D02*
X5185952Y-6765667D01*
X5205000Y-6756143D01*
X5233571Y-6756143D01*
X5252619Y-6765667D01*
X5262143Y-6784714D01*
X5262143Y-6889476D01*
X5262143Y-6784714D02*
X5271667Y-6765667D01*
X5290714Y-6756143D01*
X5319286Y-6756143D01*
X5338333Y-6765667D01*
X5347857Y-6784714D01*
X5347857Y-6889476D01*
X5738333Y-6679952D02*
X5566905Y-6937095D01*
X5995476Y-6689476D02*
X6014524Y-6689476D01*
X6033571Y-6699000D01*
X6043095Y-6708524D01*
X6052619Y-6727571D01*
X6062143Y-6765667D01*
X6062143Y-6813286D01*
X6052619Y-6851381D01*
X6043095Y-6870428D01*
X6033571Y-6879952D01*
X6014524Y-6889476D01*
X5995476Y-6889476D01*
X5976428Y-6879952D01*
X5966905Y-6870428D01*
X5957381Y-6851381D01*
X5947857Y-6813286D01*
X5947857Y-6765667D01*
X5957381Y-6727571D01*
X5966905Y-6708524D01*
X5976428Y-6699000D01*
X5995476Y-6689476D01*
X6147857Y-6870428D02*
X6157381Y-6879952D01*
X6147857Y-6889476D01*
X6138333Y-6879952D01*
X6147857Y-6870428D01*
X6147857Y-6889476D01*
X6281190Y-6689476D02*
X6300238Y-6689476D01*
X6319286Y-6699000D01*
X6328809Y-6708524D01*
X6338333Y-6727571D01*
X6347857Y-6765667D01*
X6347857Y-6813286D01*
X6338333Y-6851381D01*
X6328809Y-6870428D01*
X6319286Y-6879952D01*
X6300238Y-6889476D01*
X6281190Y-6889476D01*
X6262143Y-6879952D01*
X6252619Y-6870428D01*
X6243095Y-6851381D01*
X6233571Y-6813286D01*
X6233571Y-6765667D01*
X6243095Y-6727571D01*
X6252619Y-6708524D01*
X6262143Y-6699000D01*
X6281190Y-6689476D01*
X6414524Y-6689476D02*
X6538333Y-6689476D01*
X6471667Y-6765667D01*
X6500238Y-6765667D01*
X6519286Y-6775190D01*
X6528809Y-6784714D01*
X6538333Y-6803762D01*
X6538333Y-6851381D01*
X6528809Y-6870428D01*
X6519286Y-6879952D01*
X6500238Y-6889476D01*
X6443095Y-6889476D01*
X6424048Y-6879952D01*
X6414524Y-6870428D01*
X6633571Y-6889476D02*
X6671667Y-6889476D01*
X6690714Y-6879952D01*
X6700238Y-6870428D01*
X6719286Y-6841857D01*
X6728809Y-6803762D01*
X6728809Y-6727571D01*
X6719286Y-6708524D01*
X6709762Y-6699000D01*
X6690714Y-6689476D01*
X6652619Y-6689476D01*
X6633571Y-6699000D01*
X6624048Y-6708524D01*
X6614524Y-6727571D01*
X6614524Y-6775190D01*
X6624048Y-6794238D01*
X6633571Y-6803762D01*
X6652619Y-6813286D01*
X6690714Y-6813286D01*
X6709762Y-6803762D01*
X6719286Y-6794238D01*
X6728809Y-6775190D01*
X6900238Y-6756143D02*
X6900238Y-6889476D01*
X6852619Y-6679952D02*
X6805000Y-6822809D01*
X6928809Y-6822809D01*
X6995476Y-6689476D02*
X6995476Y-6727571D01*
X7071667Y-6689476D02*
X7071667Y-6727571D01*
X7366905Y-6965667D02*
X7357381Y-6956143D01*
X7338333Y-6927571D01*
X7328809Y-6908524D01*
X7319286Y-6879952D01*
X7309762Y-6832333D01*
X7309762Y-6794238D01*
X7319286Y-6746619D01*
X7328809Y-6718048D01*
X7338333Y-6699000D01*
X7357381Y-6670428D01*
X7366905Y-6660905D01*
X7528809Y-6689476D02*
X7490714Y-6689476D01*
X7471667Y-6699000D01*
X7462143Y-6708524D01*
X7443095Y-6737095D01*
X7433571Y-6775190D01*
X7433571Y-6851381D01*
X7443095Y-6870428D01*
X7452619Y-6879952D01*
X7471667Y-6889476D01*
X7509762Y-6889476D01*
X7528809Y-6879952D01*
X7538333Y-6870428D01*
X7547857Y-6851381D01*
X7547857Y-6803762D01*
X7538333Y-6784714D01*
X7528809Y-6775190D01*
X7509762Y-6765667D01*
X7471667Y-6765667D01*
X7452619Y-6775190D01*
X7443095Y-6784714D01*
X7433571Y-6803762D01*
X7785952Y-6889476D02*
X7785952Y-6689476D01*
X7871667Y-6889476D02*
X7871667Y-6784714D01*
X7862143Y-6765667D01*
X7843095Y-6756143D01*
X7814524Y-6756143D01*
X7795476Y-6765667D01*
X7785952Y-6775190D01*
X7995476Y-6889476D02*
X7976428Y-6879952D01*
X7966905Y-6870428D01*
X7957381Y-6851381D01*
X7957381Y-6794238D01*
X7966905Y-6775190D01*
X7976428Y-6765667D01*
X7995476Y-6756143D01*
X8024048Y-6756143D01*
X8043095Y-6765667D01*
X8052619Y-6775190D01*
X8062143Y-6794238D01*
X8062143Y-6851381D01*
X8052619Y-6870428D01*
X8043095Y-6879952D01*
X8024048Y-6889476D01*
X7995476Y-6889476D01*
X8176428Y-6889476D02*
X8157381Y-6879952D01*
X8147857Y-6860905D01*
X8147857Y-6689476D01*
X8328809Y-6879952D02*
X8309762Y-6889476D01*
X8271667Y-6889476D01*
X8252619Y-6879952D01*
X8243095Y-6860905D01*
X8243095Y-6784714D01*
X8252619Y-6765667D01*
X8271667Y-6756143D01*
X8309762Y-6756143D01*
X8328809Y-6765667D01*
X8338333Y-6784714D01*
X8338333Y-6803762D01*
X8243095Y-6822809D01*
X8414524Y-6879952D02*
X8433571Y-6889476D01*
X8471667Y-6889476D01*
X8490714Y-6879952D01*
X8500238Y-6860905D01*
X8500238Y-6851381D01*
X8490714Y-6832333D01*
X8471667Y-6822809D01*
X8443095Y-6822809D01*
X8424048Y-6813286D01*
X8414524Y-6794238D01*
X8414524Y-6784714D01*
X8424048Y-6765667D01*
X8443095Y-6756143D01*
X8471667Y-6756143D01*
X8490714Y-6765667D01*
X8566905Y-6965667D02*
X8576429Y-6956143D01*
X8595476Y-6927571D01*
X8605000Y-6908524D01*
X8614524Y-6879952D01*
X8624048Y-6832333D01*
X8624048Y-6794238D01*
X8614524Y-6746619D01*
X8605000Y-6718048D01*
X8595476Y-6699000D01*
X8576429Y-6670428D01*
X8566905Y-6660905D01*
M02*
