%FSLAX45Y45*%
G04 Gerber Fmt 4.5, Leading zero omitted, Abs format (unit mm)*
G04 Created by KiCad (PCBNEW 6.0.4-6f826c9f35~116~ubuntu20.04.1) date 2022-04-29 19:57:33*
%MOMM*%
%LPD*%
G01*
G04 APERTURE LIST*
%TA.AperFunction,Profile*%
%ADD10C,0.100000*%
%TD*%
%ADD11C,0.200000*%
G04 APERTURE END LIST*
D10*
X10910000Y-14280000D02*
X12480000Y-12900000D01*
X12480000Y-12900000D02*
X13290000Y-11110000D01*
X9880000Y-8460000D02*
X8580000Y-9420000D01*
X13290000Y-10340000D02*
X12500000Y-8400000D01*
X13290000Y-11110000D02*
X13290000Y-10340000D01*
X8610000Y-15410000D02*
X10910000Y-14280000D01*
X12500000Y-8400000D02*
X9880000Y-8460000D01*
X8050000Y-15410000D02*
X8610000Y-15410000D01*
X5750000Y-14280000D02*
X8050000Y-15410000D01*
X4160000Y-12880000D02*
X5750000Y-14280000D01*
X3350000Y-11090000D02*
X4160000Y-12880000D01*
X3350000Y-10320000D02*
X3350000Y-11090000D01*
X4140000Y-8380000D02*
X3350000Y-10320000D01*
X6760000Y-8440000D02*
X4140000Y-8380000D01*
X8060000Y-9420000D02*
X6760000Y-8440000D01*
X8580000Y-9420000D02*
X8060000Y-9420000D01*
D11*
X3602619Y-15725476D02*
X3602619Y-15525476D01*
X3650238Y-15525476D01*
X3678809Y-15535000D01*
X3697857Y-15554048D01*
X3707381Y-15573095D01*
X3716905Y-15611190D01*
X3716905Y-15639762D01*
X3707381Y-15677857D01*
X3697857Y-15696905D01*
X3678809Y-15715952D01*
X3650238Y-15725476D01*
X3602619Y-15725476D01*
X3802619Y-15725476D02*
X3802619Y-15592143D01*
X3802619Y-15630238D02*
X3812143Y-15611190D01*
X3821667Y-15601667D01*
X3840714Y-15592143D01*
X3859762Y-15592143D01*
X3926428Y-15725476D02*
X3926428Y-15592143D01*
X3926428Y-15525476D02*
X3916905Y-15535000D01*
X3926428Y-15544524D01*
X3935952Y-15535000D01*
X3926428Y-15525476D01*
X3926428Y-15544524D01*
X4050238Y-15725476D02*
X4031190Y-15715952D01*
X4021667Y-15696905D01*
X4021667Y-15525476D01*
X4155000Y-15725476D02*
X4135952Y-15715952D01*
X4126428Y-15696905D01*
X4126428Y-15525476D01*
X4383571Y-15725476D02*
X4383571Y-15525476D01*
X4450238Y-15668333D01*
X4516905Y-15525476D01*
X4516905Y-15725476D01*
X4697857Y-15725476D02*
X4697857Y-15620714D01*
X4688333Y-15601667D01*
X4669286Y-15592143D01*
X4631190Y-15592143D01*
X4612143Y-15601667D01*
X4697857Y-15715952D02*
X4678810Y-15725476D01*
X4631190Y-15725476D01*
X4612143Y-15715952D01*
X4602619Y-15696905D01*
X4602619Y-15677857D01*
X4612143Y-15658809D01*
X4631190Y-15649286D01*
X4678810Y-15649286D01*
X4697857Y-15639762D01*
X4793095Y-15592143D02*
X4793095Y-15792143D01*
X4793095Y-15601667D02*
X4812143Y-15592143D01*
X4850238Y-15592143D01*
X4869286Y-15601667D01*
X4878810Y-15611190D01*
X4888333Y-15630238D01*
X4888333Y-15687381D01*
X4878810Y-15706428D01*
X4869286Y-15715952D01*
X4850238Y-15725476D01*
X4812143Y-15725476D01*
X4793095Y-15715952D01*
X4974048Y-15706428D02*
X4983571Y-15715952D01*
X4974048Y-15725476D01*
X4964524Y-15715952D01*
X4974048Y-15706428D01*
X4974048Y-15725476D01*
X4974048Y-15601667D02*
X4983571Y-15611190D01*
X4974048Y-15620714D01*
X4964524Y-15611190D01*
X4974048Y-15601667D01*
X4974048Y-15620714D01*
M02*
