%TF.GenerationSoftware,KiCad,Pcbnew,6.0.4-6f826c9f35~116~ubuntu20.04.1*%
%TF.CreationDate,2022-04-29T20:59:42-06:00*%
%TF.ProjectId,heart,68656172-742e-46b6-9963-61645f706362,rev?*%
%TF.SameCoordinates,Original*%
%TF.FileFunction,Paste,Top*%
%TF.FilePolarity,Positive*%
%FSLAX46Y46*%
G04 Gerber Fmt 4.6, Leading zero omitted, Abs format (unit mm)*
G04 Created by KiCad (PCBNEW 6.0.4-6f826c9f35~116~ubuntu20.04.1) date 2022-04-29 20:59:42*
%MOMM*%
%LPD*%
G01*
G04 APERTURE LIST*
G04 Aperture macros list*
%AMRoundRect*
0 Rectangle with rounded corners*
0 $1 Rounding radius*
0 $2 $3 $4 $5 $6 $7 $8 $9 X,Y pos of 4 corners*
0 Add a 4 corners polygon primitive as box body*
4,1,4,$2,$3,$4,$5,$6,$7,$8,$9,$2,$3,0*
0 Add four circle primitives for the rounded corners*
1,1,$1+$1,$2,$3*
1,1,$1+$1,$4,$5*
1,1,$1+$1,$6,$7*
1,1,$1+$1,$8,$9*
0 Add four rect primitives between the rounded corners*
20,1,$1+$1,$2,$3,$4,$5,0*
20,1,$1+$1,$4,$5,$6,$7,0*
20,1,$1+$1,$6,$7,$8,$9,0*
20,1,$1+$1,$8,$9,$2,$3,0*%
G04 Aperture macros list end*
%ADD10R,1.000000X1.500000*%
%ADD11RoundRect,0.200000X-0.200000X-0.275000X0.200000X-0.275000X0.200000X0.275000X-0.200000X0.275000X0*%
%ADD12RoundRect,0.225000X-0.250000X0.225000X-0.250000X-0.225000X0.250000X-0.225000X0.250000X0.225000X0*%
%ADD13RoundRect,0.140000X-0.170000X0.140000X-0.170000X-0.140000X0.170000X-0.140000X0.170000X0.140000X0*%
G04 APERTURE END LIST*
D10*
%TO.C,D1*%
X35100000Y-109450000D03*
X38300000Y-109450000D03*
X38300000Y-104550000D03*
X35100000Y-104550000D03*
%TD*%
%TO.C,D12*%
X128000000Y-109450000D03*
X131200000Y-109450000D03*
X131200000Y-104550000D03*
X128000000Y-104550000D03*
%TD*%
%TO.C,D7*%
X42700000Y-90450000D03*
X45900000Y-90450000D03*
X45900000Y-85550000D03*
X42700000Y-85550000D03*
%TD*%
%TO.C,D11*%
X81600000Y-100750000D03*
X84800000Y-100750000D03*
X84800000Y-95850000D03*
X81600000Y-95850000D03*
%TD*%
%TO.C,D3*%
X81500000Y-126650000D03*
X84700000Y-126650000D03*
X84700000Y-121750000D03*
X81500000Y-121750000D03*
%TD*%
%TO.C,D14*%
X104300000Y-115850000D03*
X107500000Y-115850000D03*
X107500000Y-110950000D03*
X104300000Y-110950000D03*
%TD*%
%TO.C,D10*%
X119900000Y-127350000D03*
X123100000Y-127350000D03*
X123100000Y-122450000D03*
X119900000Y-122450000D03*
%TD*%
D11*
%TO.C,R2*%
X52575000Y-88900000D03*
X54225000Y-88900000D03*
%TD*%
D10*
%TO.C,D2*%
X43000000Y-127350000D03*
X46200000Y-127350000D03*
X46200000Y-122450000D03*
X43000000Y-122450000D03*
%TD*%
D12*
%TO.C,C1*%
X43200000Y-95125000D03*
X43200000Y-96675000D03*
%TD*%
D11*
%TO.C,R1*%
X42475000Y-98400000D03*
X44125000Y-98400000D03*
%TD*%
D10*
%TO.C,D4*%
X58700000Y-141150000D03*
X61900000Y-141150000D03*
X61900000Y-136250000D03*
X58700000Y-136250000D03*
%TD*%
%TO.C,D15*%
X120400000Y-90550000D03*
X123600000Y-90550000D03*
X123600000Y-85650000D03*
X120400000Y-85650000D03*
%TD*%
%TO.C,D13*%
X100600000Y-90950000D03*
X103800000Y-90950000D03*
X103800000Y-86050000D03*
X100600000Y-86050000D03*
%TD*%
%TO.C,D5*%
X58800000Y-115950000D03*
X62000000Y-115950000D03*
X62000000Y-111050000D03*
X58800000Y-111050000D03*
%TD*%
D13*
%TO.C,C2*%
X41800000Y-95520000D03*
X41800000Y-96480000D03*
%TD*%
D10*
%TO.C,D6*%
X81600000Y-152250000D03*
X84800000Y-152250000D03*
X84800000Y-147350000D03*
X81600000Y-147350000D03*
%TD*%
%TO.C,D9*%
X62500000Y-90850000D03*
X65700000Y-90850000D03*
X65700000Y-85950000D03*
X62500000Y-85950000D03*
%TD*%
%TO.C,D8*%
X104300000Y-141150000D03*
X107500000Y-141150000D03*
X107500000Y-136250000D03*
X104300000Y-136250000D03*
%TD*%
M02*
