M48
; DRILL file {KiCad 6.0.4-6f826c9f35~116~ubuntu20.04.1} date Fri 29 Apr 2022 07:57:32 PM MDT
; FORMAT={-:-/ absolute / metric / decimal}
; #@! TF.CreationDate,2022-04-29T19:57:32-06:00
; #@! TF.GenerationSoftware,Kicad,Pcbnew,6.0.4-6f826c9f35~116~ubuntu20.04.1
; #@! TF.FileFunction,Plated,1,2,PTH
FMAT,2
METRIC
; #@! TA.AperFunction,Plated,PTH,ViaDrill
T1C0.400
; #@! TA.AperFunction,Plated,PTH,ComponentDrill
T2C1.000
%
G90
G05
T1
X42.5Y-99.9
X42.6Y-88.4
X46.0Y-87.7
X46.2Y-96.5
X47.8Y-127.4
X48.0Y-86.0
X51.6Y-96.5
X52.0Y-113.0
X52.0Y-135.0
X52.5Y-94.3
X56.635Y-95.435
X57.9Y-127.4
X58.3Y-119.0
X59.3Y-91.0
X59.3Y-106.9
X59.5Y-123.6
X61.1Y-96.5
X62.4Y-87.6
X62.465Y-95.435
X63.4Y-141.2
X63.6Y-88.8
X64.5Y-130.9
X64.8Y-96.5
X66.2Y-107.4
X66.7Y-145.4
X68.1Y-86.6
X76.6Y-92.9
X77.4Y-130.9
X77.6Y-113.3
X78.2Y-151.0
X79.835Y-95.435
X81.4Y-141.1
X81.6Y-117.9
X82.9Y-104.3
X83.9Y-134.2
X84.4Y-114.5
X84.7Y-124.3
X84.8Y-98.1
X86.5Y-96.5
X87.5Y-152.1
X88.3Y-138.3
X88.5Y-120.0
X96.7Y-88.6
X99.1Y-98.1
X100.565Y-95.435
X101.1Y-135.3
X101.3Y-115.9
X102.1Y-142.5
X103.8Y-88.6
X104.3Y-112.4
X104.4Y-138.1
X105.2Y-133.9
X106.0Y-91.1
X106.3Y-138.4
X107.2Y-86.5
X107.3Y-117.9
X107.5Y-96.5
X109.7Y-136.8
X116.1Y-98.0
X116.6Y-109.8
X116.7Y-113.7
X117.4Y-86.4
X117.6Y-91.5
X117.6Y-129.4
X120.3Y-88.5
X120.365Y-95.435
X121.4Y-97.8
X122.3Y-129.2
X123.6Y-92.7
X124.3Y-98.8
X124.6Y-96.5
X125.8Y-120.3
X126.2Y-95.4
X126.5Y-91.4
X129.2Y-116.8
X129.3Y-96.5
X130.5Y-101.9
X131.1Y-111.5
T2
X39.4Y-95.435
X39.4Y-97.975
X39.4Y-100.515
X51.575Y-86.3
X54.115Y-86.3
X56.655Y-86.3
T0
M30
