%TF.GenerationSoftware,KiCad,Pcbnew,6.0.4-6f826c9f35~116~ubuntu20.04.1*%
%TF.CreationDate,2022-04-29T20:59:42-06:00*%
%TF.ProjectId,heart,68656172-742e-46b6-9963-61645f706362,rev?*%
%TF.SameCoordinates,Original*%
%TF.FileFunction,Copper,L2,Bot*%
%TF.FilePolarity,Positive*%
%FSLAX46Y46*%
G04 Gerber Fmt 4.6, Leading zero omitted, Abs format (unit mm)*
G04 Created by KiCad (PCBNEW 6.0.4-6f826c9f35~116~ubuntu20.04.1) date 2022-04-29 20:59:42*
%MOMM*%
%LPD*%
G01*
G04 APERTURE LIST*
%TA.AperFunction,ComponentPad*%
%ADD10R,1.700000X1.700000*%
%TD*%
%TA.AperFunction,ComponentPad*%
%ADD11O,1.700000X1.700000*%
%TD*%
%TA.AperFunction,ViaPad*%
%ADD12C,0.800000*%
%TD*%
%TA.AperFunction,Conductor*%
%ADD13C,0.500000*%
%TD*%
%TA.AperFunction,Conductor*%
%ADD14C,0.200000*%
%TD*%
G04 APERTURE END LIST*
D10*
%TO.P,J2,1,Pin_1*%
%TO.N,GND*%
X51575000Y-86300000D03*
D11*
%TO.P,J2,2,Pin_2*%
%TO.N,/SIG_OUT*%
X54115000Y-86300000D03*
%TO.P,J2,3,Pin_3*%
%TO.N,VCC*%
X56655000Y-86300000D03*
%TD*%
D10*
%TO.P,J1,1,Pin_1*%
%TO.N,GND*%
X39400000Y-100515000D03*
D11*
%TO.P,J1,2,Pin_2*%
%TO.N,/SIG_IN*%
X39400000Y-97975000D03*
%TO.P,J1,3,Pin_3*%
%TO.N,VCC*%
X39400000Y-95435000D03*
%TD*%
D12*
%TO.N,VCC*%
X126200000Y-95400000D03*
X56635000Y-95435000D03*
X100565000Y-95435000D03*
X79835000Y-95435000D03*
X120365000Y-95435000D03*
X62465000Y-95435000D03*
%TO.N,GND*%
X117600000Y-129400000D03*
X124300000Y-98800000D03*
X129300000Y-96500000D03*
X82900000Y-104300000D03*
X117400000Y-86400000D03*
X76600000Y-92900000D03*
X122300000Y-129200000D03*
X106000000Y-91100000D03*
X109700000Y-136800000D03*
X126500000Y-91400000D03*
X106300000Y-138400000D03*
X61100000Y-96500000D03*
X116700000Y-113700000D03*
X116100000Y-98000000D03*
X124600000Y-96500000D03*
X96700000Y-88600000D03*
X68100000Y-86600000D03*
X86500000Y-96500000D03*
X52000000Y-135000000D03*
X117600000Y-91500000D03*
X102100000Y-142500000D03*
X107500000Y-96500000D03*
X121400000Y-97800000D03*
X64800000Y-96500000D03*
X59300000Y-106900000D03*
X107200000Y-86500000D03*
X77400000Y-130900000D03*
X64500000Y-130900000D03*
X78200000Y-151000000D03*
X51600000Y-96500000D03*
X105200000Y-133900000D03*
X58300000Y-119000000D03*
X101300000Y-115900000D03*
X52000000Y-113000000D03*
X87500000Y-152100000D03*
X77600000Y-113300000D03*
X66200000Y-107400000D03*
X48000000Y-86000000D03*
X84400000Y-114500000D03*
X129200000Y-116800000D03*
X88500000Y-120000000D03*
X83900000Y-134200000D03*
X46200000Y-96500000D03*
X130500000Y-101900000D03*
X59300000Y-91000000D03*
X125800000Y-120300000D03*
X116600000Y-109800000D03*
X66700000Y-145400000D03*
%TO.N,Net-(D2-Pad2)*%
X47800000Y-127400000D03*
X57900000Y-127400000D03*
%TO.N,Net-(D3-Pad2)*%
X84700000Y-124300000D03*
X59500000Y-123600000D03*
%TO.N,Net-(D4-Pad2)*%
X63400000Y-141200000D03*
X81400000Y-141100000D03*
%TO.N,/SIG_IN*%
X42500000Y-99900000D03*
%TO.N,Net-(D14-Pad2)*%
X107300000Y-117900000D03*
X81600000Y-117900000D03*
%TO.N,Net-(D5-Pad2)*%
X42600000Y-88400000D03*
X63600000Y-88800000D03*
%TO.N,Net-(D6-Pad2)*%
X88300000Y-138300000D03*
X104400000Y-138100000D03*
%TO.N,Net-(D7-Pad2)*%
X62400000Y-87600000D03*
X46000000Y-87700000D03*
%TO.N,Net-(D11-Pad2)*%
X99100000Y-98100000D03*
X84800000Y-98100000D03*
%TO.N,Net-(D12-Pad2)*%
X131100000Y-111500000D03*
X104300000Y-112400000D03*
%TO.N,Net-(D13-Pad2)*%
X120300000Y-88500000D03*
X103800000Y-88600000D03*
%TO.N,Net-(D15-Pad2)*%
X52500000Y-94300000D03*
X123600000Y-92700000D03*
%TD*%
D13*
%TO.N,VCC*%
X62465000Y-95435000D02*
X79835000Y-95435000D01*
X56635000Y-95435000D02*
X62465000Y-95435000D01*
X100565000Y-95435000D02*
X120365000Y-95435000D01*
X126165000Y-95435000D02*
X126200000Y-95400000D01*
X79835000Y-95435000D02*
X100565000Y-95435000D01*
X39400000Y-95435000D02*
X56635000Y-95435000D01*
X120365000Y-95435000D02*
X126165000Y-95435000D01*
%TO.N,GND*%
X46200000Y-96500000D02*
X48000000Y-96500000D01*
X107500000Y-96500000D02*
X124600000Y-96500000D01*
X39400000Y-100515000D02*
X40700000Y-99215000D01*
X61100000Y-96500000D02*
X86500000Y-96500000D01*
X41700000Y-96500000D02*
X46200000Y-96500000D01*
X124600000Y-96500000D02*
X129300000Y-96500000D01*
X40700000Y-99215000D02*
X40700000Y-97500000D01*
X51600000Y-96500000D02*
X61100000Y-96500000D01*
X40700000Y-97500000D02*
X41700000Y-96500000D01*
X48000000Y-96500000D02*
X51600000Y-96500000D01*
X86500000Y-96500000D02*
X107500000Y-96500000D01*
D14*
%TO.N,Net-(D2-Pad2)*%
X47800000Y-127400000D02*
X57900000Y-127400000D01*
%TO.N,Net-(D3-Pad2)*%
X60200000Y-124300000D02*
X59500000Y-123600000D01*
X84700000Y-124300000D02*
X60200000Y-124300000D01*
%TO.N,Net-(D4-Pad2)*%
X63400000Y-141200000D02*
X81300000Y-141200000D01*
X81300000Y-141200000D02*
X81400000Y-141100000D01*
%TO.N,/SIG_IN*%
X39400000Y-97975000D02*
X38200000Y-99175000D01*
X39985978Y-102414022D02*
X42500000Y-99900000D01*
X38200000Y-99175000D02*
X38200000Y-101614022D01*
X38200000Y-101614022D02*
X39000000Y-102414022D01*
X39000000Y-102414022D02*
X39985978Y-102414022D01*
%TO.N,Net-(D14-Pad2)*%
X107300000Y-117900000D02*
X81600000Y-117900000D01*
%TO.N,Net-(D5-Pad2)*%
X63200000Y-88400000D02*
X63600000Y-88800000D01*
X42600000Y-88400000D02*
X63200000Y-88400000D01*
%TO.N,Net-(D6-Pad2)*%
X104200000Y-138300000D02*
X104400000Y-138100000D01*
X88300000Y-138300000D02*
X104200000Y-138300000D01*
%TO.N,Net-(D7-Pad2)*%
X62300000Y-87700000D02*
X62400000Y-87600000D01*
X46000000Y-87700000D02*
X62300000Y-87700000D01*
%TO.N,Net-(D11-Pad2)*%
X84800000Y-98100000D02*
X99100000Y-98100000D01*
%TO.N,Net-(D12-Pad2)*%
X105200000Y-111500000D02*
X104300000Y-112400000D01*
X131100000Y-111500000D02*
X105200000Y-111500000D01*
%TO.N,Net-(D13-Pad2)*%
X120200000Y-88600000D02*
X120300000Y-88500000D01*
X103800000Y-88600000D02*
X120200000Y-88600000D01*
%TO.N,Net-(D15-Pad2)*%
X121999980Y-94300020D02*
X52500020Y-94300020D01*
X123600000Y-92700000D02*
X121999980Y-94300020D01*
X52500020Y-94300020D02*
X52500000Y-94300000D01*
%TD*%
%TA.AperFunction,Conductor*%
%TO.N,GND*%
G36*
X67384093Y-84903689D02*
G01*
X67457055Y-84929042D01*
X70639935Y-87328444D01*
X78779152Y-93464161D01*
X78780140Y-93464906D01*
X78822496Y-93521884D01*
X78827323Y-93592717D01*
X78793089Y-93654914D01*
X78730662Y-93688730D01*
X78704293Y-93691520D01*
X53230728Y-93691520D01*
X53162607Y-93671518D01*
X53137092Y-93649831D01*
X53115668Y-93626037D01*
X53115666Y-93626036D01*
X53111253Y-93621134D01*
X53041102Y-93570166D01*
X52962094Y-93512763D01*
X52962093Y-93512762D01*
X52956752Y-93508882D01*
X52950724Y-93506198D01*
X52950722Y-93506197D01*
X52788319Y-93433891D01*
X52788318Y-93433891D01*
X52782288Y-93431206D01*
X52688887Y-93411353D01*
X52601944Y-93392872D01*
X52601939Y-93392872D01*
X52595487Y-93391500D01*
X52404513Y-93391500D01*
X52398061Y-93392872D01*
X52398056Y-93392872D01*
X52311113Y-93411353D01*
X52217712Y-93431206D01*
X52211682Y-93433891D01*
X52211681Y-93433891D01*
X52049278Y-93506197D01*
X52049276Y-93506198D01*
X52043248Y-93508882D01*
X51888747Y-93621134D01*
X51884326Y-93626044D01*
X51884325Y-93626045D01*
X51858601Y-93654615D01*
X51760960Y-93763056D01*
X51665473Y-93928444D01*
X51606458Y-94110072D01*
X51605768Y-94116633D01*
X51605768Y-94116635D01*
X51588691Y-94279118D01*
X51586496Y-94300000D01*
X51587186Y-94306565D01*
X51601006Y-94438051D01*
X51606458Y-94489928D01*
X51608498Y-94496206D01*
X51613488Y-94511564D01*
X51615516Y-94582531D01*
X51578853Y-94643329D01*
X51515141Y-94674655D01*
X51493655Y-94676500D01*
X40595939Y-94676500D01*
X40527818Y-94656498D01*
X40490147Y-94618941D01*
X40486151Y-94612763D01*
X40480014Y-94603277D01*
X40329670Y-94438051D01*
X40325619Y-94434852D01*
X40325615Y-94434848D01*
X40158414Y-94302800D01*
X40158410Y-94302798D01*
X40154359Y-94299598D01*
X39958789Y-94191638D01*
X39953920Y-94189914D01*
X39953916Y-94189912D01*
X39753087Y-94118795D01*
X39753083Y-94118794D01*
X39748212Y-94117069D01*
X39743119Y-94116162D01*
X39743116Y-94116161D01*
X39533373Y-94078800D01*
X39533367Y-94078799D01*
X39528284Y-94077894D01*
X39454452Y-94076992D01*
X39310081Y-94075228D01*
X39310079Y-94075228D01*
X39304911Y-94075165D01*
X39084091Y-94108955D01*
X38871756Y-94178357D01*
X38673607Y-94281507D01*
X38669474Y-94284610D01*
X38669471Y-94284612D01*
X38499100Y-94412530D01*
X38494965Y-94415635D01*
X38340629Y-94577138D01*
X38337715Y-94581410D01*
X38337714Y-94581411D01*
X38289264Y-94652436D01*
X38214743Y-94761680D01*
X38120688Y-94964305D01*
X38060989Y-95179570D01*
X38037251Y-95401695D01*
X38050110Y-95624715D01*
X38051247Y-95629761D01*
X38051248Y-95629767D01*
X38075304Y-95736508D01*
X38099222Y-95842639D01*
X38183266Y-96049616D01*
X38203570Y-96082749D01*
X38293072Y-96228803D01*
X38299987Y-96240088D01*
X38446250Y-96408938D01*
X38618126Y-96551632D01*
X38688595Y-96592811D01*
X38691445Y-96594476D01*
X38740169Y-96646114D01*
X38753240Y-96715897D01*
X38726509Y-96781669D01*
X38686055Y-96815027D01*
X38673607Y-96821507D01*
X38669474Y-96824610D01*
X38669471Y-96824612D01*
X38645247Y-96842800D01*
X38494965Y-96955635D01*
X38340629Y-97117138D01*
X38337715Y-97121410D01*
X38337714Y-97121411D01*
X38252556Y-97246249D01*
X38214743Y-97301680D01*
X38199003Y-97335590D01*
X38159295Y-97421134D01*
X38120688Y-97504305D01*
X38060989Y-97719570D01*
X38037251Y-97941695D01*
X38037548Y-97946848D01*
X38037548Y-97946851D01*
X38043011Y-98041590D01*
X38050110Y-98164715D01*
X38078329Y-98289928D01*
X38089956Y-98341521D01*
X38085420Y-98412372D01*
X38056134Y-98458317D01*
X37803766Y-98710685D01*
X37791375Y-98721552D01*
X37766013Y-98741013D01*
X37741526Y-98772925D01*
X37741523Y-98772928D01*
X37741517Y-98772936D01*
X37679090Y-98854292D01*
X37668476Y-98868124D01*
X37607162Y-99016149D01*
X37607162Y-99016150D01*
X37591500Y-99135115D01*
X37591500Y-99135120D01*
X37586250Y-99175000D01*
X37587328Y-99183188D01*
X37590422Y-99206690D01*
X37591500Y-99223136D01*
X37591500Y-101565886D01*
X37590422Y-101582329D01*
X37586250Y-101614022D01*
X37591500Y-101653902D01*
X37591500Y-101653907D01*
X37604609Y-101753479D01*
X37607162Y-101772873D01*
X37668476Y-101920898D01*
X37673503Y-101927449D01*
X37673504Y-101927451D01*
X37741520Y-102016091D01*
X37741526Y-102016097D01*
X37766013Y-102048009D01*
X37772568Y-102053039D01*
X37791379Y-102067474D01*
X37803770Y-102078341D01*
X38535685Y-102810256D01*
X38546552Y-102822647D01*
X38566013Y-102848009D01*
X38572563Y-102853035D01*
X38597921Y-102872493D01*
X38597937Y-102872507D01*
X38647305Y-102910388D01*
X38693124Y-102945546D01*
X38841149Y-103006860D01*
X38849336Y-103007938D01*
X38849337Y-103007938D01*
X38860542Y-103009413D01*
X38891738Y-103013520D01*
X38960115Y-103022522D01*
X38960118Y-103022522D01*
X38960126Y-103022523D01*
X38991811Y-103026694D01*
X39000000Y-103027772D01*
X39031693Y-103023600D01*
X39048136Y-103022522D01*
X39937842Y-103022522D01*
X39954285Y-103023600D01*
X39985978Y-103027772D01*
X39994167Y-103026694D01*
X40025852Y-103022523D01*
X40025862Y-103022522D01*
X40025863Y-103022522D01*
X40025879Y-103022520D01*
X40125435Y-103009413D01*
X40136642Y-103007938D01*
X40136644Y-103007937D01*
X40144829Y-103006860D01*
X40292854Y-102945546D01*
X40388040Y-102872507D01*
X40388047Y-102872502D01*
X40388053Y-102872496D01*
X40413412Y-102853037D01*
X40419965Y-102848009D01*
X40424995Y-102841454D01*
X40439430Y-102822643D01*
X40450297Y-102810252D01*
X42415144Y-100845405D01*
X42477456Y-100811379D01*
X42504239Y-100808500D01*
X42595487Y-100808500D01*
X42601939Y-100807128D01*
X42601944Y-100807128D01*
X42688887Y-100788647D01*
X42782288Y-100768794D01*
X42947265Y-100695342D01*
X42950722Y-100693803D01*
X42950724Y-100693802D01*
X42956752Y-100691118D01*
X43111253Y-100578866D01*
X43239040Y-100436944D01*
X43334527Y-100271556D01*
X43393542Y-100089928D01*
X43413504Y-99900000D01*
X43393542Y-99710072D01*
X43334527Y-99528444D01*
X43239040Y-99363056D01*
X43179307Y-99296715D01*
X43115675Y-99226045D01*
X43115674Y-99226044D01*
X43111253Y-99221134D01*
X42992865Y-99135120D01*
X42962094Y-99112763D01*
X42962093Y-99112762D01*
X42956752Y-99108882D01*
X42950724Y-99106198D01*
X42950722Y-99106197D01*
X42788319Y-99033891D01*
X42788318Y-99033891D01*
X42782288Y-99031206D01*
X42688888Y-99011353D01*
X42601944Y-98992872D01*
X42601939Y-98992872D01*
X42595487Y-98991500D01*
X42404513Y-98991500D01*
X42398061Y-98992872D01*
X42398056Y-98992872D01*
X42311112Y-99011353D01*
X42217712Y-99031206D01*
X42211682Y-99033891D01*
X42211681Y-99033891D01*
X42049278Y-99106197D01*
X42049276Y-99106198D01*
X42043248Y-99108882D01*
X42037907Y-99112762D01*
X42037906Y-99112763D01*
X42007135Y-99135120D01*
X41888747Y-99221134D01*
X41884326Y-99226044D01*
X41884325Y-99226045D01*
X41820694Y-99296715D01*
X41760960Y-99363056D01*
X41665473Y-99528444D01*
X41606458Y-99710072D01*
X41586496Y-99900000D01*
X41586684Y-99901786D01*
X41567184Y-99968196D01*
X41550281Y-99989170D01*
X40807356Y-100732095D01*
X40745044Y-100766121D01*
X40718261Y-100769000D01*
X39272000Y-100769000D01*
X39203879Y-100748998D01*
X39157386Y-100695342D01*
X39146000Y-100643000D01*
X39146000Y-100387000D01*
X39166002Y-100318879D01*
X39219658Y-100272386D01*
X39272000Y-100261000D01*
X40739884Y-100261000D01*
X40755123Y-100256525D01*
X40756328Y-100255135D01*
X40757999Y-100247452D01*
X40757999Y-99620331D01*
X40757629Y-99613510D01*
X40752105Y-99562648D01*
X40748479Y-99547396D01*
X40703324Y-99426946D01*
X40694786Y-99411351D01*
X40618285Y-99309276D01*
X40605724Y-99296715D01*
X40503649Y-99220214D01*
X40488054Y-99211676D01*
X40377813Y-99170348D01*
X40321049Y-99127706D01*
X40296349Y-99061145D01*
X40311557Y-98991796D01*
X40333104Y-98963115D01*
X40434430Y-98862144D01*
X40434440Y-98862132D01*
X40438096Y-98858489D01*
X40498840Y-98773955D01*
X40565435Y-98681277D01*
X40568453Y-98677077D01*
X40667430Y-98476811D01*
X40732370Y-98263069D01*
X40753839Y-98100000D01*
X83886496Y-98100000D01*
X83906458Y-98289928D01*
X83965473Y-98471556D01*
X84060960Y-98636944D01*
X84065378Y-98641851D01*
X84065379Y-98641852D01*
X84184325Y-98773955D01*
X84188747Y-98778866D01*
X84287843Y-98850864D01*
X84311600Y-98868124D01*
X84343248Y-98891118D01*
X84349276Y-98893802D01*
X84349278Y-98893803D01*
X84511681Y-98966109D01*
X84517712Y-98968794D01*
X84611112Y-98988647D01*
X84698056Y-99007128D01*
X84698061Y-99007128D01*
X84704513Y-99008500D01*
X84895487Y-99008500D01*
X84901939Y-99007128D01*
X84901944Y-99007128D01*
X84988888Y-98988647D01*
X85082288Y-98968794D01*
X85088319Y-98966109D01*
X85250722Y-98893803D01*
X85250724Y-98893802D01*
X85256752Y-98891118D01*
X85288401Y-98868124D01*
X85389671Y-98794546D01*
X85411253Y-98778866D01*
X85416593Y-98772936D01*
X85437074Y-98750189D01*
X85497520Y-98712950D01*
X85530710Y-98708500D01*
X98369290Y-98708500D01*
X98437411Y-98728502D01*
X98462926Y-98750189D01*
X98483408Y-98772936D01*
X98488747Y-98778866D01*
X98510329Y-98794546D01*
X98611600Y-98868124D01*
X98643248Y-98891118D01*
X98649276Y-98893802D01*
X98649278Y-98893803D01*
X98811681Y-98966109D01*
X98817712Y-98968794D01*
X98911112Y-98988647D01*
X98998056Y-99007128D01*
X98998061Y-99007128D01*
X99004513Y-99008500D01*
X99195487Y-99008500D01*
X99201939Y-99007128D01*
X99201944Y-99007128D01*
X99288888Y-98988647D01*
X99382288Y-98968794D01*
X99388319Y-98966109D01*
X99550722Y-98893803D01*
X99550724Y-98893802D01*
X99556752Y-98891118D01*
X99588401Y-98868124D01*
X99612157Y-98850864D01*
X99711253Y-98778866D01*
X99715675Y-98773955D01*
X99834621Y-98641852D01*
X99834622Y-98641851D01*
X99839040Y-98636944D01*
X99934527Y-98471556D01*
X99993542Y-98289928D01*
X100013504Y-98100000D01*
X99993542Y-97910072D01*
X99934527Y-97728444D01*
X99839040Y-97563056D01*
X99814411Y-97535702D01*
X99715675Y-97426045D01*
X99715674Y-97426044D01*
X99711253Y-97421134D01*
X99593512Y-97335590D01*
X99562094Y-97312763D01*
X99562093Y-97312762D01*
X99556752Y-97308882D01*
X99550724Y-97306198D01*
X99550722Y-97306197D01*
X99388319Y-97233891D01*
X99388318Y-97233891D01*
X99382288Y-97231206D01*
X99288888Y-97211353D01*
X99201944Y-97192872D01*
X99201939Y-97192872D01*
X99195487Y-97191500D01*
X99004513Y-97191500D01*
X98998061Y-97192872D01*
X98998056Y-97192872D01*
X98911113Y-97211353D01*
X98817712Y-97231206D01*
X98811682Y-97233891D01*
X98811681Y-97233891D01*
X98649278Y-97306197D01*
X98649276Y-97306198D01*
X98643248Y-97308882D01*
X98637907Y-97312762D01*
X98637906Y-97312763D01*
X98606488Y-97335590D01*
X98488747Y-97421134D01*
X98484334Y-97426036D01*
X98484332Y-97426037D01*
X98462926Y-97449811D01*
X98402480Y-97487050D01*
X98369290Y-97491500D01*
X85530710Y-97491500D01*
X85462589Y-97471498D01*
X85437074Y-97449811D01*
X85415668Y-97426037D01*
X85415666Y-97426036D01*
X85411253Y-97421134D01*
X85293512Y-97335590D01*
X85262094Y-97312763D01*
X85262093Y-97312762D01*
X85256752Y-97308882D01*
X85250724Y-97306198D01*
X85250722Y-97306197D01*
X85088319Y-97233891D01*
X85088318Y-97233891D01*
X85082288Y-97231206D01*
X84988888Y-97211353D01*
X84901944Y-97192872D01*
X84901939Y-97192872D01*
X84895487Y-97191500D01*
X84704513Y-97191500D01*
X84698061Y-97192872D01*
X84698056Y-97192872D01*
X84611113Y-97211353D01*
X84517712Y-97231206D01*
X84511682Y-97233891D01*
X84511681Y-97233891D01*
X84349278Y-97306197D01*
X84349276Y-97306198D01*
X84343248Y-97308882D01*
X84337907Y-97312762D01*
X84337906Y-97312763D01*
X84306488Y-97335590D01*
X84188747Y-97421134D01*
X84184326Y-97426044D01*
X84184325Y-97426045D01*
X84085590Y-97535702D01*
X84060960Y-97563056D01*
X83965473Y-97728444D01*
X83906458Y-97910072D01*
X83886496Y-98100000D01*
X40753839Y-98100000D01*
X40761529Y-98041590D01*
X40763156Y-97975000D01*
X40744852Y-97752361D01*
X40690431Y-97535702D01*
X40601354Y-97330840D01*
X40536010Y-97229834D01*
X40482822Y-97147617D01*
X40482820Y-97147614D01*
X40480014Y-97143277D01*
X40329670Y-96978051D01*
X40325619Y-96974852D01*
X40325615Y-96974848D01*
X40158414Y-96842800D01*
X40158410Y-96842798D01*
X40154359Y-96839598D01*
X40113053Y-96816796D01*
X40063084Y-96766364D01*
X40048312Y-96696921D01*
X40073428Y-96630516D01*
X40100780Y-96603909D01*
X40144603Y-96572650D01*
X40279860Y-96476173D01*
X40438096Y-96318489D01*
X40447670Y-96305166D01*
X40490203Y-96245974D01*
X40546198Y-96202326D01*
X40592526Y-96193500D01*
X56092413Y-96193500D01*
X56166472Y-96217563D01*
X56172902Y-96222235D01*
X56172909Y-96222239D01*
X56178248Y-96226118D01*
X56184276Y-96228802D01*
X56184278Y-96228803D01*
X56346681Y-96301109D01*
X56352712Y-96303794D01*
X56439009Y-96322137D01*
X56533056Y-96342128D01*
X56533061Y-96342128D01*
X56539513Y-96343500D01*
X56730487Y-96343500D01*
X56736939Y-96342128D01*
X56736944Y-96342128D01*
X56830991Y-96322137D01*
X56917288Y-96303794D01*
X56923319Y-96301109D01*
X57085722Y-96228803D01*
X57085724Y-96228802D01*
X57091752Y-96226118D01*
X57097091Y-96222239D01*
X57097098Y-96222235D01*
X57103528Y-96217563D01*
X57177587Y-96193500D01*
X61922413Y-96193500D01*
X61996472Y-96217563D01*
X62002902Y-96222235D01*
X62002909Y-96222239D01*
X62008248Y-96226118D01*
X62014276Y-96228802D01*
X62014278Y-96228803D01*
X62176681Y-96301109D01*
X62182712Y-96303794D01*
X62269009Y-96322137D01*
X62363056Y-96342128D01*
X62363061Y-96342128D01*
X62369513Y-96343500D01*
X62560487Y-96343500D01*
X62566939Y-96342128D01*
X62566944Y-96342128D01*
X62660991Y-96322137D01*
X62747288Y-96303794D01*
X62753319Y-96301109D01*
X62915722Y-96228803D01*
X62915724Y-96228802D01*
X62921752Y-96226118D01*
X62927091Y-96222239D01*
X62927098Y-96222235D01*
X62933528Y-96217563D01*
X63007587Y-96193500D01*
X79292413Y-96193500D01*
X79366472Y-96217563D01*
X79372902Y-96222235D01*
X79372909Y-96222239D01*
X79378248Y-96226118D01*
X79384276Y-96228802D01*
X79384278Y-96228803D01*
X79546681Y-96301109D01*
X79552712Y-96303794D01*
X79639009Y-96322137D01*
X79733056Y-96342128D01*
X79733061Y-96342128D01*
X79739513Y-96343500D01*
X79930487Y-96343500D01*
X79936939Y-96342128D01*
X79936944Y-96342128D01*
X80030991Y-96322137D01*
X80117288Y-96303794D01*
X80123319Y-96301109D01*
X80285722Y-96228803D01*
X80285724Y-96228802D01*
X80291752Y-96226118D01*
X80297091Y-96222239D01*
X80297098Y-96222235D01*
X80303528Y-96217563D01*
X80377587Y-96193500D01*
X100022413Y-96193500D01*
X100096472Y-96217563D01*
X100102902Y-96222235D01*
X100102909Y-96222239D01*
X100108248Y-96226118D01*
X100114276Y-96228802D01*
X100114278Y-96228803D01*
X100276681Y-96301109D01*
X100282712Y-96303794D01*
X100369009Y-96322137D01*
X100463056Y-96342128D01*
X100463061Y-96342128D01*
X100469513Y-96343500D01*
X100660487Y-96343500D01*
X100666939Y-96342128D01*
X100666944Y-96342128D01*
X100760991Y-96322137D01*
X100847288Y-96303794D01*
X100853319Y-96301109D01*
X101015722Y-96228803D01*
X101015724Y-96228802D01*
X101021752Y-96226118D01*
X101027091Y-96222239D01*
X101027098Y-96222235D01*
X101033528Y-96217563D01*
X101107587Y-96193500D01*
X119822413Y-96193500D01*
X119896472Y-96217563D01*
X119902902Y-96222235D01*
X119902909Y-96222239D01*
X119908248Y-96226118D01*
X119914276Y-96228802D01*
X119914278Y-96228803D01*
X120076681Y-96301109D01*
X120082712Y-96303794D01*
X120169009Y-96322137D01*
X120263056Y-96342128D01*
X120263061Y-96342128D01*
X120269513Y-96343500D01*
X120460487Y-96343500D01*
X120466939Y-96342128D01*
X120466944Y-96342128D01*
X120560991Y-96322137D01*
X120647288Y-96303794D01*
X120653319Y-96301109D01*
X120815722Y-96228803D01*
X120815724Y-96228802D01*
X120821752Y-96226118D01*
X120827091Y-96222239D01*
X120827098Y-96222235D01*
X120833528Y-96217563D01*
X120907587Y-96193500D01*
X125721815Y-96193500D01*
X125773064Y-96204393D01*
X125843357Y-96235689D01*
X125917712Y-96268794D01*
X126011113Y-96288647D01*
X126098056Y-96307128D01*
X126098061Y-96307128D01*
X126104513Y-96308500D01*
X126295487Y-96308500D01*
X126301939Y-96307128D01*
X126301944Y-96307128D01*
X126388888Y-96288647D01*
X126482288Y-96268794D01*
X126537999Y-96243990D01*
X126650722Y-96193803D01*
X126650724Y-96193802D01*
X126656752Y-96191118D01*
X126811253Y-96078866D01*
X126815675Y-96073955D01*
X126934621Y-95941852D01*
X126934622Y-95941851D01*
X126939040Y-95936944D01*
X127034527Y-95771556D01*
X127093542Y-95589928D01*
X127113504Y-95400000D01*
X127093542Y-95210072D01*
X127034527Y-95028444D01*
X126939040Y-94863056D01*
X126811253Y-94721134D01*
X126656752Y-94608882D01*
X126650724Y-94606198D01*
X126650722Y-94606197D01*
X126488319Y-94533891D01*
X126488318Y-94533891D01*
X126482288Y-94531206D01*
X126388887Y-94511353D01*
X126301944Y-94492872D01*
X126301939Y-94492872D01*
X126295487Y-94491500D01*
X126104513Y-94491500D01*
X126098061Y-94492872D01*
X126098056Y-94492872D01*
X126011112Y-94511353D01*
X125917712Y-94531206D01*
X125911682Y-94533891D01*
X125911681Y-94533891D01*
X125749278Y-94606197D01*
X125749276Y-94606198D01*
X125743248Y-94608882D01*
X125737907Y-94612762D01*
X125737906Y-94612763D01*
X125683301Y-94652436D01*
X125609240Y-94676500D01*
X122788239Y-94676500D01*
X122720118Y-94656498D01*
X122673625Y-94602842D01*
X122663521Y-94532568D01*
X122693015Y-94467988D01*
X122699144Y-94461405D01*
X123515144Y-93645405D01*
X123577456Y-93611379D01*
X123604239Y-93608500D01*
X123695487Y-93608500D01*
X123701939Y-93607128D01*
X123701944Y-93607128D01*
X123788887Y-93588647D01*
X123882288Y-93568794D01*
X123929918Y-93547588D01*
X124050722Y-93493803D01*
X124050724Y-93493802D01*
X124056752Y-93491118D01*
X124067915Y-93483008D01*
X124191975Y-93392872D01*
X124211253Y-93378866D01*
X124339040Y-93236944D01*
X124434527Y-93071556D01*
X124493542Y-92889928D01*
X124513504Y-92700000D01*
X124493542Y-92510072D01*
X124434527Y-92328444D01*
X124339040Y-92163056D01*
X124211253Y-92021134D01*
X124056752Y-91908882D01*
X124050724Y-91906198D01*
X124050722Y-91906197D01*
X123888319Y-91833891D01*
X123888318Y-91833891D01*
X123882288Y-91831206D01*
X123788888Y-91811353D01*
X123701944Y-91792872D01*
X123701939Y-91792872D01*
X123695487Y-91791500D01*
X123504513Y-91791500D01*
X123498061Y-91792872D01*
X123498056Y-91792872D01*
X123411112Y-91811353D01*
X123317712Y-91831206D01*
X123311682Y-91833891D01*
X123311681Y-91833891D01*
X123149278Y-91906197D01*
X123149276Y-91906198D01*
X123143248Y-91908882D01*
X122988747Y-92021134D01*
X122860960Y-92163056D01*
X122765473Y-92328444D01*
X122706458Y-92510072D01*
X122686496Y-92700000D01*
X122686684Y-92701786D01*
X122667184Y-92768196D01*
X122650281Y-92789170D01*
X121784836Y-93654615D01*
X121722524Y-93688641D01*
X121695741Y-93691520D01*
X87727297Y-93691520D01*
X87659176Y-93671518D01*
X87612683Y-93617862D01*
X87602579Y-93547588D01*
X87632073Y-93483008D01*
X87652448Y-93464161D01*
X89606547Y-92021134D01*
X94239333Y-88600000D01*
X102886496Y-88600000D01*
X102887186Y-88606565D01*
X102905129Y-88777279D01*
X102906458Y-88789928D01*
X102965473Y-88971556D01*
X103060960Y-89136944D01*
X103065378Y-89141851D01*
X103065379Y-89141852D01*
X103179678Y-89268794D01*
X103188747Y-89278866D01*
X103343248Y-89391118D01*
X103349276Y-89393802D01*
X103349278Y-89393803D01*
X103511681Y-89466109D01*
X103517712Y-89468794D01*
X103583365Y-89482749D01*
X103698056Y-89507128D01*
X103698061Y-89507128D01*
X103704513Y-89508500D01*
X103895487Y-89508500D01*
X103901939Y-89507128D01*
X103901944Y-89507128D01*
X104016635Y-89482749D01*
X104082288Y-89468794D01*
X104088319Y-89466109D01*
X104250722Y-89393803D01*
X104250724Y-89393802D01*
X104256752Y-89391118D01*
X104370466Y-89308500D01*
X104399731Y-89287237D01*
X104411253Y-89278866D01*
X104422740Y-89266109D01*
X104437074Y-89250189D01*
X104497520Y-89212950D01*
X104530710Y-89208500D01*
X119688595Y-89208500D01*
X119756716Y-89228502D01*
X119762656Y-89232564D01*
X119831724Y-89282745D01*
X119843248Y-89291118D01*
X119849276Y-89293802D01*
X119849278Y-89293803D01*
X119933332Y-89331226D01*
X120017712Y-89368794D01*
X120104479Y-89387237D01*
X120198056Y-89407128D01*
X120198061Y-89407128D01*
X120204513Y-89408500D01*
X120395487Y-89408500D01*
X120401939Y-89407128D01*
X120401944Y-89407128D01*
X120495521Y-89387237D01*
X120582288Y-89368794D01*
X120666668Y-89331226D01*
X120750722Y-89293803D01*
X120750724Y-89293802D01*
X120756752Y-89291118D01*
X120768277Y-89282745D01*
X120842935Y-89228502D01*
X120911253Y-89178866D01*
X120917835Y-89171556D01*
X121034621Y-89041852D01*
X121034622Y-89041851D01*
X121039040Y-89036944D01*
X121134527Y-88871556D01*
X121193542Y-88689928D01*
X121203393Y-88596206D01*
X121212814Y-88506565D01*
X121213504Y-88500000D01*
X121203684Y-88406565D01*
X121194232Y-88316635D01*
X121194232Y-88316633D01*
X121193542Y-88310072D01*
X121134527Y-88128444D01*
X121039040Y-87963056D01*
X120911253Y-87821134D01*
X120780364Y-87726037D01*
X120762094Y-87712763D01*
X120762093Y-87712762D01*
X120756752Y-87708882D01*
X120750724Y-87706198D01*
X120750722Y-87706197D01*
X120588319Y-87633891D01*
X120588318Y-87633891D01*
X120582288Y-87631206D01*
X120488887Y-87611353D01*
X120401944Y-87592872D01*
X120401939Y-87592872D01*
X120395487Y-87591500D01*
X120204513Y-87591500D01*
X120198061Y-87592872D01*
X120198056Y-87592872D01*
X120111113Y-87611353D01*
X120017712Y-87631206D01*
X120011682Y-87633891D01*
X120011681Y-87633891D01*
X119849278Y-87706197D01*
X119849276Y-87706198D01*
X119843248Y-87708882D01*
X119837907Y-87712762D01*
X119837906Y-87712763D01*
X119819636Y-87726037D01*
X119688747Y-87821134D01*
X119602200Y-87917255D01*
X119572887Y-87949810D01*
X119512441Y-87987050D01*
X119479251Y-87991500D01*
X104530710Y-87991500D01*
X104462589Y-87971498D01*
X104437074Y-87949811D01*
X104415668Y-87926037D01*
X104415666Y-87926036D01*
X104411253Y-87921134D01*
X104372354Y-87892872D01*
X104262094Y-87812763D01*
X104262093Y-87812762D01*
X104256752Y-87808882D01*
X104250724Y-87806198D01*
X104250722Y-87806197D01*
X104088319Y-87733891D01*
X104088318Y-87733891D01*
X104082288Y-87731206D01*
X103988888Y-87711353D01*
X103901944Y-87692872D01*
X103901939Y-87692872D01*
X103895487Y-87691500D01*
X103704513Y-87691500D01*
X103698061Y-87692872D01*
X103698056Y-87692872D01*
X103611112Y-87711353D01*
X103517712Y-87731206D01*
X103511682Y-87733891D01*
X103511681Y-87733891D01*
X103349278Y-87806197D01*
X103349276Y-87806198D01*
X103343248Y-87808882D01*
X103337907Y-87812762D01*
X103337906Y-87812763D01*
X103319625Y-87826045D01*
X103188747Y-87921134D01*
X103184326Y-87926044D01*
X103184325Y-87926045D01*
X103177261Y-87933891D01*
X103060960Y-88063056D01*
X102965473Y-88228444D01*
X102906458Y-88410072D01*
X102905768Y-88416633D01*
X102905768Y-88416635D01*
X102904527Y-88428444D01*
X102886496Y-88600000D01*
X94239333Y-88600000D01*
X98940490Y-85128377D01*
X99012454Y-85103769D01*
X108542113Y-84885532D01*
X124574414Y-84518379D01*
X124642974Y-84536816D01*
X124690683Y-84589393D01*
X124693987Y-84596812D01*
X130646705Y-99214880D01*
X132382195Y-103476716D01*
X132391500Y-103524236D01*
X132391500Y-110963119D01*
X132380294Y-111015065D01*
X132328064Y-111130488D01*
X132232242Y-111342242D01*
X132185935Y-111396058D01*
X132117884Y-111416295D01*
X132049694Y-111396529D01*
X132003016Y-111343034D01*
X131994224Y-111316561D01*
X131993542Y-111310072D01*
X131934527Y-111128444D01*
X131920282Y-111103770D01*
X131842341Y-110968774D01*
X131839040Y-110963056D01*
X131711253Y-110821134D01*
X131556752Y-110708882D01*
X131550724Y-110706198D01*
X131550722Y-110706197D01*
X131388319Y-110633891D01*
X131388318Y-110633891D01*
X131382288Y-110631206D01*
X131288887Y-110611353D01*
X131201944Y-110592872D01*
X131201939Y-110592872D01*
X131195487Y-110591500D01*
X131004513Y-110591500D01*
X130998061Y-110592872D01*
X130998056Y-110592872D01*
X130911113Y-110611353D01*
X130817712Y-110631206D01*
X130811682Y-110633891D01*
X130811681Y-110633891D01*
X130649278Y-110706197D01*
X130649276Y-110706198D01*
X130643248Y-110708882D01*
X130488747Y-110821134D01*
X130484334Y-110826036D01*
X130484332Y-110826037D01*
X130462926Y-110849811D01*
X130402480Y-110887050D01*
X130369290Y-110891500D01*
X105248136Y-110891500D01*
X105231690Y-110890422D01*
X105208188Y-110887328D01*
X105200000Y-110886250D01*
X105191812Y-110887328D01*
X105160129Y-110891499D01*
X105160120Y-110891500D01*
X105160115Y-110891500D01*
X105041150Y-110907162D01*
X104962804Y-110939614D01*
X104893124Y-110968476D01*
X104797928Y-111041523D01*
X104797925Y-111041526D01*
X104766013Y-111066013D01*
X104760983Y-111072568D01*
X104746548Y-111091379D01*
X104735681Y-111103770D01*
X104384856Y-111454595D01*
X104322544Y-111488621D01*
X104295761Y-111491500D01*
X104204513Y-111491500D01*
X104198061Y-111492872D01*
X104198056Y-111492872D01*
X104111113Y-111511353D01*
X104017712Y-111531206D01*
X104011682Y-111533891D01*
X104011681Y-111533891D01*
X103849278Y-111606197D01*
X103849276Y-111606198D01*
X103843248Y-111608882D01*
X103688747Y-111721134D01*
X103560960Y-111863056D01*
X103465473Y-112028444D01*
X103406458Y-112210072D01*
X103386496Y-112400000D01*
X103387186Y-112406565D01*
X103392243Y-112454675D01*
X103406458Y-112589928D01*
X103465473Y-112771556D01*
X103560960Y-112936944D01*
X103688747Y-113078866D01*
X103843248Y-113191118D01*
X103849276Y-113193802D01*
X103849278Y-113193803D01*
X104011681Y-113266109D01*
X104017712Y-113268794D01*
X104111113Y-113288647D01*
X104198056Y-113307128D01*
X104198061Y-113307128D01*
X104204513Y-113308500D01*
X104395487Y-113308500D01*
X104401939Y-113307128D01*
X104401944Y-113307128D01*
X104488888Y-113288647D01*
X104582288Y-113268794D01*
X104588319Y-113266109D01*
X104750722Y-113193803D01*
X104750724Y-113193802D01*
X104756752Y-113191118D01*
X104911253Y-113078866D01*
X105039040Y-112936944D01*
X105134527Y-112771556D01*
X105193542Y-112589928D01*
X105207758Y-112454675D01*
X105212814Y-112406565D01*
X105213504Y-112400000D01*
X105213316Y-112398214D01*
X105232816Y-112331804D01*
X105249719Y-112310830D01*
X105415144Y-112145405D01*
X105477456Y-112111379D01*
X105504239Y-112108500D01*
X130369290Y-112108500D01*
X130437411Y-112128502D01*
X130462926Y-112150189D01*
X130488747Y-112178866D01*
X130643248Y-112291118D01*
X130649276Y-112293802D01*
X130649278Y-112293803D01*
X130788765Y-112355906D01*
X130817712Y-112368794D01*
X130911112Y-112388647D01*
X130998056Y-112407128D01*
X130998061Y-112407128D01*
X131004513Y-112408500D01*
X131195487Y-112408500D01*
X131201939Y-112407128D01*
X131201944Y-112407128D01*
X131288888Y-112388647D01*
X131382288Y-112368794D01*
X131556752Y-112291118D01*
X131557197Y-112292118D01*
X131620059Y-112276872D01*
X131687150Y-112300096D01*
X131731034Y-112355906D01*
X131737779Y-112426581D01*
X131728852Y-112454671D01*
X124464233Y-128508586D01*
X124393134Y-128665707D01*
X124361526Y-128708397D01*
X108827663Y-142362366D01*
X108800041Y-142380815D01*
X88199313Y-152502042D01*
X86008112Y-153578588D01*
X85952551Y-153591500D01*
X80647449Y-153591500D01*
X80591888Y-153578588D01*
X59619261Y-143274646D01*
X57800208Y-142380937D01*
X57772504Y-142362416D01*
X57772448Y-142362366D01*
X56452332Y-141200000D01*
X62486496Y-141200000D01*
X62487186Y-141206565D01*
X62496608Y-141296206D01*
X62506458Y-141389928D01*
X62565473Y-141571556D01*
X62660960Y-141736944D01*
X62665378Y-141741851D01*
X62665379Y-141741852D01*
X62762926Y-141850189D01*
X62788747Y-141878866D01*
X62943248Y-141991118D01*
X62949276Y-141993802D01*
X62949278Y-141993803D01*
X63111681Y-142066109D01*
X63117712Y-142068794D01*
X63211112Y-142088647D01*
X63298056Y-142107128D01*
X63298061Y-142107128D01*
X63304513Y-142108500D01*
X63495487Y-142108500D01*
X63501939Y-142107128D01*
X63501944Y-142107128D01*
X63588888Y-142088647D01*
X63682288Y-142068794D01*
X63688319Y-142066109D01*
X63850722Y-141993803D01*
X63850724Y-141993802D01*
X63856752Y-141991118D01*
X64011253Y-141878866D01*
X64037074Y-141850189D01*
X64097520Y-141812950D01*
X64130710Y-141808500D01*
X80788595Y-141808500D01*
X80856716Y-141828502D01*
X80862656Y-141832564D01*
X80931724Y-141882745D01*
X80943248Y-141891118D01*
X80949276Y-141893802D01*
X80949278Y-141893803D01*
X81111681Y-141966109D01*
X81117712Y-141968794D01*
X81204479Y-141987237D01*
X81298056Y-142007128D01*
X81298061Y-142007128D01*
X81304513Y-142008500D01*
X81495487Y-142008500D01*
X81501939Y-142007128D01*
X81501944Y-142007128D01*
X81595521Y-141987237D01*
X81682288Y-141968794D01*
X81688319Y-141966109D01*
X81850722Y-141893803D01*
X81850724Y-141893802D01*
X81856752Y-141891118D01*
X81868277Y-141882745D01*
X81942935Y-141828502D01*
X82011253Y-141778866D01*
X82139040Y-141636944D01*
X82234527Y-141471556D01*
X82293542Y-141289928D01*
X82313504Y-141100000D01*
X82304052Y-141010072D01*
X82294232Y-140916635D01*
X82294232Y-140916633D01*
X82293542Y-140910072D01*
X82234527Y-140728444D01*
X82139040Y-140563056D01*
X82011253Y-140421134D01*
X81856752Y-140308882D01*
X81850724Y-140306198D01*
X81850722Y-140306197D01*
X81688319Y-140233891D01*
X81688318Y-140233891D01*
X81682288Y-140231206D01*
X81588887Y-140211353D01*
X81501944Y-140192872D01*
X81501939Y-140192872D01*
X81495487Y-140191500D01*
X81304513Y-140191500D01*
X81298061Y-140192872D01*
X81298056Y-140192872D01*
X81211113Y-140211353D01*
X81117712Y-140231206D01*
X81111682Y-140233891D01*
X81111681Y-140233891D01*
X80949278Y-140306197D01*
X80949276Y-140306198D01*
X80943248Y-140308882D01*
X80788747Y-140421134D01*
X80702200Y-140517255D01*
X80672887Y-140549810D01*
X80612441Y-140587050D01*
X80579251Y-140591500D01*
X64130710Y-140591500D01*
X64062589Y-140571498D01*
X64037074Y-140549811D01*
X64015668Y-140526037D01*
X64015666Y-140526036D01*
X64011253Y-140521134D01*
X63880375Y-140426045D01*
X63862094Y-140412763D01*
X63862093Y-140412762D01*
X63856752Y-140408882D01*
X63850724Y-140406198D01*
X63850722Y-140406197D01*
X63688319Y-140333891D01*
X63688318Y-140333891D01*
X63682288Y-140331206D01*
X63588887Y-140311353D01*
X63501944Y-140292872D01*
X63501939Y-140292872D01*
X63495487Y-140291500D01*
X63304513Y-140291500D01*
X63298061Y-140292872D01*
X63298056Y-140292872D01*
X63211113Y-140311353D01*
X63117712Y-140331206D01*
X63111682Y-140333891D01*
X63111681Y-140333891D01*
X62949278Y-140406197D01*
X62949276Y-140406198D01*
X62943248Y-140408882D01*
X62937907Y-140412762D01*
X62937906Y-140412763D01*
X62919625Y-140426045D01*
X62788747Y-140521134D01*
X62660960Y-140663056D01*
X62565473Y-140828444D01*
X62506458Y-141010072D01*
X62486496Y-141200000D01*
X56452332Y-141200000D01*
X53158760Y-138300000D01*
X87386496Y-138300000D01*
X87387186Y-138306565D01*
X87405129Y-138477279D01*
X87406458Y-138489928D01*
X87465473Y-138671556D01*
X87560960Y-138836944D01*
X87565378Y-138841851D01*
X87565379Y-138841852D01*
X87679678Y-138968794D01*
X87688747Y-138978866D01*
X87843248Y-139091118D01*
X87849276Y-139093802D01*
X87849278Y-139093803D01*
X88011681Y-139166109D01*
X88017712Y-139168794D01*
X88111112Y-139188647D01*
X88198056Y-139207128D01*
X88198061Y-139207128D01*
X88204513Y-139208500D01*
X88395487Y-139208500D01*
X88401939Y-139207128D01*
X88401944Y-139207128D01*
X88488888Y-139188647D01*
X88582288Y-139168794D01*
X88588319Y-139166109D01*
X88750722Y-139093803D01*
X88750724Y-139093802D01*
X88756752Y-139091118D01*
X88870466Y-139008500D01*
X88889671Y-138994546D01*
X88911253Y-138978866D01*
X88922740Y-138966109D01*
X88937074Y-138950189D01*
X88997520Y-138912950D01*
X89030710Y-138908500D01*
X103955506Y-138908500D01*
X104006755Y-138919393D01*
X104117712Y-138968794D01*
X104183365Y-138982749D01*
X104298056Y-139007128D01*
X104298061Y-139007128D01*
X104304513Y-139008500D01*
X104495487Y-139008500D01*
X104501939Y-139007128D01*
X104501944Y-139007128D01*
X104616635Y-138982749D01*
X104682288Y-138968794D01*
X104724076Y-138950189D01*
X104850722Y-138893803D01*
X104850724Y-138893802D01*
X104856752Y-138891118D01*
X105011253Y-138778866D01*
X105139040Y-138636944D01*
X105234527Y-138471556D01*
X105293542Y-138289928D01*
X105313504Y-138100000D01*
X105295473Y-137928444D01*
X105294232Y-137916635D01*
X105294232Y-137916633D01*
X105293542Y-137910072D01*
X105234527Y-137728444D01*
X105139040Y-137563056D01*
X105022740Y-137433891D01*
X105015675Y-137426045D01*
X105015674Y-137426044D01*
X105011253Y-137421134D01*
X104856752Y-137308882D01*
X104850724Y-137306198D01*
X104850722Y-137306197D01*
X104688319Y-137233891D01*
X104688318Y-137233891D01*
X104682288Y-137231206D01*
X104588888Y-137211353D01*
X104501944Y-137192872D01*
X104501939Y-137192872D01*
X104495487Y-137191500D01*
X104304513Y-137191500D01*
X104298061Y-137192872D01*
X104298056Y-137192872D01*
X104211112Y-137211353D01*
X104117712Y-137231206D01*
X104111682Y-137233891D01*
X104111681Y-137233891D01*
X103949278Y-137306197D01*
X103949276Y-137306198D01*
X103943248Y-137308882D01*
X103788747Y-137421134D01*
X103784326Y-137426044D01*
X103784325Y-137426045D01*
X103777261Y-137433891D01*
X103660960Y-137563056D01*
X103657659Y-137568774D01*
X103623176Y-137628500D01*
X103571794Y-137677493D01*
X103514057Y-137691500D01*
X89030710Y-137691500D01*
X88962589Y-137671498D01*
X88937074Y-137649811D01*
X88915668Y-137626037D01*
X88915666Y-137626036D01*
X88911253Y-137621134D01*
X88756752Y-137508882D01*
X88750724Y-137506198D01*
X88750722Y-137506197D01*
X88588319Y-137433891D01*
X88588318Y-137433891D01*
X88582288Y-137431206D01*
X88488888Y-137411353D01*
X88401944Y-137392872D01*
X88401939Y-137392872D01*
X88395487Y-137391500D01*
X88204513Y-137391500D01*
X88198061Y-137392872D01*
X88198056Y-137392872D01*
X88111112Y-137411353D01*
X88017712Y-137431206D01*
X88011682Y-137433891D01*
X88011681Y-137433891D01*
X87849278Y-137506197D01*
X87849276Y-137506198D01*
X87843248Y-137508882D01*
X87688747Y-137621134D01*
X87560960Y-137763056D01*
X87465473Y-137928444D01*
X87406458Y-138110072D01*
X87386496Y-138300000D01*
X53158760Y-138300000D01*
X48085187Y-133832703D01*
X65890743Y-133832703D01*
X65928268Y-134117734D01*
X66004129Y-134395036D01*
X66116923Y-134659476D01*
X66264561Y-134906161D01*
X66444313Y-135130528D01*
X66652851Y-135328423D01*
X66886317Y-135496186D01*
X66890112Y-135498195D01*
X66890113Y-135498196D01*
X66911869Y-135509715D01*
X67140392Y-135630712D01*
X67410373Y-135729511D01*
X67691264Y-135790755D01*
X67719841Y-135793004D01*
X67914282Y-135808307D01*
X67914291Y-135808307D01*
X67916739Y-135808500D01*
X68072271Y-135808500D01*
X68074407Y-135808354D01*
X68074418Y-135808354D01*
X68282548Y-135794165D01*
X68282554Y-135794164D01*
X68286825Y-135793873D01*
X68291020Y-135793004D01*
X68291022Y-135793004D01*
X68427584Y-135764723D01*
X68568342Y-135735574D01*
X68839343Y-135639607D01*
X69094812Y-135507750D01*
X69098313Y-135505289D01*
X69098317Y-135505287D01*
X69212418Y-135425095D01*
X69330023Y-135342441D01*
X69540622Y-135146740D01*
X69722713Y-134924268D01*
X69872927Y-134679142D01*
X69988483Y-134415898D01*
X70067244Y-134139406D01*
X70107751Y-133854784D01*
X70107845Y-133836951D01*
X70107867Y-133832703D01*
X96790743Y-133832703D01*
X96828268Y-134117734D01*
X96904129Y-134395036D01*
X97016923Y-134659476D01*
X97164561Y-134906161D01*
X97344313Y-135130528D01*
X97552851Y-135328423D01*
X97786317Y-135496186D01*
X97790112Y-135498195D01*
X97790113Y-135498196D01*
X97811869Y-135509715D01*
X98040392Y-135630712D01*
X98310373Y-135729511D01*
X98591264Y-135790755D01*
X98619841Y-135793004D01*
X98814282Y-135808307D01*
X98814291Y-135808307D01*
X98816739Y-135808500D01*
X98972271Y-135808500D01*
X98974407Y-135808354D01*
X98974418Y-135808354D01*
X99182548Y-135794165D01*
X99182554Y-135794164D01*
X99186825Y-135793873D01*
X99191020Y-135793004D01*
X99191022Y-135793004D01*
X99327584Y-135764723D01*
X99468342Y-135735574D01*
X99739343Y-135639607D01*
X99994812Y-135507750D01*
X99998313Y-135505289D01*
X99998317Y-135505287D01*
X100112417Y-135425096D01*
X100230023Y-135342441D01*
X100440622Y-135146740D01*
X100622713Y-134924268D01*
X100772927Y-134679142D01*
X100888483Y-134415898D01*
X100967244Y-134139406D01*
X101007751Y-133854784D01*
X101007845Y-133836951D01*
X101009235Y-133571583D01*
X101009235Y-133571576D01*
X101009257Y-133567297D01*
X100971732Y-133282266D01*
X100895871Y-133004964D01*
X100783077Y-132740524D01*
X100635439Y-132493839D01*
X100455687Y-132269472D01*
X100247149Y-132071577D01*
X100013683Y-131903814D01*
X99991843Y-131892250D01*
X99968654Y-131879972D01*
X99759608Y-131769288D01*
X99489627Y-131670489D01*
X99208736Y-131609245D01*
X99177685Y-131606801D01*
X98985718Y-131591693D01*
X98985709Y-131591693D01*
X98983261Y-131591500D01*
X98827729Y-131591500D01*
X98825593Y-131591646D01*
X98825582Y-131591646D01*
X98617452Y-131605835D01*
X98617446Y-131605836D01*
X98613175Y-131606127D01*
X98608980Y-131606996D01*
X98608978Y-131606996D01*
X98472416Y-131635277D01*
X98331658Y-131664426D01*
X98060657Y-131760393D01*
X97805188Y-131892250D01*
X97801687Y-131894711D01*
X97801683Y-131894713D01*
X97791594Y-131901804D01*
X97569977Y-132057559D01*
X97359378Y-132253260D01*
X97177287Y-132475732D01*
X97027073Y-132720858D01*
X96911517Y-132984102D01*
X96832756Y-133260594D01*
X96792249Y-133545216D01*
X96792227Y-133549505D01*
X96792226Y-133549512D01*
X96790765Y-133828417D01*
X96790743Y-133832703D01*
X70107867Y-133832703D01*
X70109235Y-133571583D01*
X70109235Y-133571576D01*
X70109257Y-133567297D01*
X70071732Y-133282266D01*
X69995871Y-133004964D01*
X69883077Y-132740524D01*
X69735439Y-132493839D01*
X69555687Y-132269472D01*
X69347149Y-132071577D01*
X69113683Y-131903814D01*
X69091843Y-131892250D01*
X69068654Y-131879972D01*
X68859608Y-131769288D01*
X68589627Y-131670489D01*
X68308736Y-131609245D01*
X68277685Y-131606801D01*
X68085718Y-131591693D01*
X68085709Y-131591693D01*
X68083261Y-131591500D01*
X67927729Y-131591500D01*
X67925593Y-131591646D01*
X67925582Y-131591646D01*
X67717452Y-131605835D01*
X67717446Y-131605836D01*
X67713175Y-131606127D01*
X67708980Y-131606996D01*
X67708978Y-131606996D01*
X67572416Y-131635277D01*
X67431658Y-131664426D01*
X67160657Y-131760393D01*
X66905188Y-131892250D01*
X66901687Y-131894711D01*
X66901683Y-131894713D01*
X66891594Y-131901804D01*
X66669977Y-132057559D01*
X66459378Y-132253260D01*
X66277287Y-132475732D01*
X66127073Y-132720858D01*
X66011517Y-132984102D01*
X65932756Y-133260594D01*
X65892249Y-133545216D01*
X65892227Y-133549505D01*
X65892226Y-133549512D01*
X65890765Y-133828417D01*
X65890743Y-133832703D01*
X48085187Y-133832703D01*
X47455344Y-133278124D01*
X42038512Y-128508586D01*
X42006984Y-128465966D01*
X41524620Y-127400000D01*
X46886496Y-127400000D01*
X46906458Y-127589928D01*
X46965473Y-127771556D01*
X47060960Y-127936944D01*
X47188747Y-128078866D01*
X47343248Y-128191118D01*
X47349276Y-128193802D01*
X47349278Y-128193803D01*
X47511681Y-128266109D01*
X47517712Y-128268794D01*
X47611112Y-128288647D01*
X47698056Y-128307128D01*
X47698061Y-128307128D01*
X47704513Y-128308500D01*
X47895487Y-128308500D01*
X47901939Y-128307128D01*
X47901944Y-128307128D01*
X47988888Y-128288647D01*
X48082288Y-128268794D01*
X48088319Y-128266109D01*
X48250722Y-128193803D01*
X48250724Y-128193802D01*
X48256752Y-128191118D01*
X48411253Y-128078866D01*
X48437074Y-128050189D01*
X48497520Y-128012950D01*
X48530710Y-128008500D01*
X57169290Y-128008500D01*
X57237411Y-128028502D01*
X57262926Y-128050189D01*
X57288747Y-128078866D01*
X57443248Y-128191118D01*
X57449276Y-128193802D01*
X57449278Y-128193803D01*
X57611681Y-128266109D01*
X57617712Y-128268794D01*
X57711112Y-128288647D01*
X57798056Y-128307128D01*
X57798061Y-128307128D01*
X57804513Y-128308500D01*
X57995487Y-128308500D01*
X58001939Y-128307128D01*
X58001944Y-128307128D01*
X58088888Y-128288647D01*
X58182288Y-128268794D01*
X58188319Y-128266109D01*
X58350722Y-128193803D01*
X58350724Y-128193802D01*
X58356752Y-128191118D01*
X58511253Y-128078866D01*
X58639040Y-127936944D01*
X58734527Y-127771556D01*
X58793542Y-127589928D01*
X58813504Y-127400000D01*
X58793542Y-127210072D01*
X58734527Y-127028444D01*
X58639040Y-126863056D01*
X58511253Y-126721134D01*
X58356752Y-126608882D01*
X58350724Y-126606198D01*
X58350722Y-126606197D01*
X58188319Y-126533891D01*
X58188318Y-126533891D01*
X58182288Y-126531206D01*
X58088888Y-126511353D01*
X58001944Y-126492872D01*
X58001939Y-126492872D01*
X57995487Y-126491500D01*
X57804513Y-126491500D01*
X57798061Y-126492872D01*
X57798056Y-126492872D01*
X57711112Y-126511353D01*
X57617712Y-126531206D01*
X57611682Y-126533891D01*
X57611681Y-126533891D01*
X57449278Y-126606197D01*
X57449276Y-126606198D01*
X57443248Y-126608882D01*
X57288747Y-126721134D01*
X57284334Y-126726036D01*
X57284332Y-126726037D01*
X57262926Y-126749811D01*
X57202480Y-126787050D01*
X57169290Y-126791500D01*
X48530710Y-126791500D01*
X48462589Y-126771498D01*
X48437074Y-126749811D01*
X48415668Y-126726037D01*
X48415666Y-126726036D01*
X48411253Y-126721134D01*
X48256752Y-126608882D01*
X48250724Y-126606198D01*
X48250722Y-126606197D01*
X48088319Y-126533891D01*
X48088318Y-126533891D01*
X48082288Y-126531206D01*
X47988888Y-126511353D01*
X47901944Y-126492872D01*
X47901939Y-126492872D01*
X47895487Y-126491500D01*
X47704513Y-126491500D01*
X47698061Y-126492872D01*
X47698056Y-126492872D01*
X47611112Y-126511353D01*
X47517712Y-126531206D01*
X47511682Y-126533891D01*
X47511681Y-126533891D01*
X47349278Y-126606197D01*
X47349276Y-126606198D01*
X47343248Y-126608882D01*
X47188747Y-126721134D01*
X47060960Y-126863056D01*
X46965473Y-127028444D01*
X46906458Y-127210072D01*
X46886496Y-127400000D01*
X41524620Y-127400000D01*
X40289961Y-124671556D01*
X39805067Y-123600000D01*
X58586496Y-123600000D01*
X58587186Y-123606565D01*
X58604235Y-123768774D01*
X58606458Y-123789928D01*
X58665473Y-123971556D01*
X58760960Y-124136944D01*
X58888747Y-124278866D01*
X59043248Y-124391118D01*
X59049276Y-124393802D01*
X59049278Y-124393803D01*
X59211681Y-124466109D01*
X59217712Y-124468794D01*
X59286263Y-124483365D01*
X59398056Y-124507128D01*
X59398061Y-124507128D01*
X59404513Y-124508500D01*
X59495761Y-124508500D01*
X59563882Y-124528502D01*
X59584856Y-124545405D01*
X59735685Y-124696234D01*
X59746552Y-124708625D01*
X59766013Y-124733987D01*
X59772563Y-124739013D01*
X59797925Y-124758474D01*
X59797928Y-124758477D01*
X59867318Y-124811722D01*
X59886570Y-124826495D01*
X59886574Y-124826497D01*
X59893125Y-124831524D01*
X60041150Y-124892838D01*
X60160115Y-124908500D01*
X60160120Y-124908500D01*
X60160129Y-124908501D01*
X60191812Y-124912672D01*
X60200000Y-124913750D01*
X60231693Y-124909578D01*
X60248136Y-124908500D01*
X83969290Y-124908500D01*
X84037411Y-124928502D01*
X84062926Y-124950189D01*
X84088747Y-124978866D01*
X84243248Y-125091118D01*
X84249276Y-125093802D01*
X84249278Y-125093803D01*
X84411681Y-125166109D01*
X84417712Y-125168794D01*
X84511113Y-125188647D01*
X84598056Y-125207128D01*
X84598061Y-125207128D01*
X84604513Y-125208500D01*
X84795487Y-125208500D01*
X84801939Y-125207128D01*
X84801944Y-125207128D01*
X84888887Y-125188647D01*
X84982288Y-125168794D01*
X84988319Y-125166109D01*
X85150722Y-125093803D01*
X85150724Y-125093802D01*
X85156752Y-125091118D01*
X85311253Y-124978866D01*
X85439040Y-124836944D01*
X85534527Y-124671556D01*
X85593542Y-124489928D01*
X85596046Y-124466109D01*
X85612814Y-124306565D01*
X85613504Y-124300000D01*
X85596882Y-124141852D01*
X85594232Y-124116635D01*
X85594232Y-124116633D01*
X85593542Y-124110072D01*
X85534527Y-123928444D01*
X85439040Y-123763056D01*
X85311253Y-123621134D01*
X85156752Y-123508882D01*
X85150724Y-123506198D01*
X85150722Y-123506197D01*
X84988319Y-123433891D01*
X84988318Y-123433891D01*
X84982288Y-123431206D01*
X84882861Y-123410072D01*
X84801944Y-123392872D01*
X84801939Y-123392872D01*
X84795487Y-123391500D01*
X84604513Y-123391500D01*
X84598061Y-123392872D01*
X84598056Y-123392872D01*
X84517139Y-123410072D01*
X84417712Y-123431206D01*
X84411682Y-123433891D01*
X84411681Y-123433891D01*
X84249278Y-123506197D01*
X84249276Y-123506198D01*
X84243248Y-123508882D01*
X84088747Y-123621134D01*
X84084334Y-123626036D01*
X84084332Y-123626037D01*
X84062926Y-123649811D01*
X84002480Y-123687050D01*
X83969290Y-123691500D01*
X60536572Y-123691500D01*
X60468451Y-123671498D01*
X60421958Y-123617842D01*
X60411262Y-123578670D01*
X60394232Y-123416635D01*
X60394232Y-123416633D01*
X60393542Y-123410072D01*
X60334527Y-123228444D01*
X60239040Y-123063056D01*
X60111253Y-122921134D01*
X59956752Y-122808882D01*
X59950724Y-122806198D01*
X59950722Y-122806197D01*
X59788319Y-122733891D01*
X59788318Y-122733891D01*
X59782288Y-122731206D01*
X59688887Y-122711353D01*
X59601944Y-122692872D01*
X59601939Y-122692872D01*
X59595487Y-122691500D01*
X59404513Y-122691500D01*
X59398061Y-122692872D01*
X59398056Y-122692872D01*
X59311113Y-122711353D01*
X59217712Y-122731206D01*
X59211682Y-122733891D01*
X59211681Y-122733891D01*
X59049278Y-122806197D01*
X59049276Y-122806198D01*
X59043248Y-122808882D01*
X58888747Y-122921134D01*
X58760960Y-123063056D01*
X58665473Y-123228444D01*
X58606458Y-123410072D01*
X58605768Y-123416633D01*
X58605768Y-123416635D01*
X58596355Y-123506197D01*
X58586496Y-123600000D01*
X39805067Y-123600000D01*
X37225737Y-117900000D01*
X80686496Y-117900000D01*
X80706458Y-118089928D01*
X80765473Y-118271556D01*
X80860960Y-118436944D01*
X80988747Y-118578866D01*
X81143248Y-118691118D01*
X81149276Y-118693802D01*
X81149278Y-118693803D01*
X81311681Y-118766109D01*
X81317712Y-118768794D01*
X81411112Y-118788647D01*
X81498056Y-118807128D01*
X81498061Y-118807128D01*
X81504513Y-118808500D01*
X81695487Y-118808500D01*
X81701939Y-118807128D01*
X81701944Y-118807128D01*
X81788888Y-118788647D01*
X81882288Y-118768794D01*
X81888319Y-118766109D01*
X82050722Y-118693803D01*
X82050724Y-118693802D01*
X82056752Y-118691118D01*
X82211253Y-118578866D01*
X82237074Y-118550189D01*
X82297520Y-118512950D01*
X82330710Y-118508500D01*
X106569290Y-118508500D01*
X106637411Y-118528502D01*
X106662926Y-118550189D01*
X106688747Y-118578866D01*
X106843248Y-118691118D01*
X106849276Y-118693802D01*
X106849278Y-118693803D01*
X107011681Y-118766109D01*
X107017712Y-118768794D01*
X107111112Y-118788647D01*
X107198056Y-118807128D01*
X107198061Y-118807128D01*
X107204513Y-118808500D01*
X107395487Y-118808500D01*
X107401939Y-118807128D01*
X107401944Y-118807128D01*
X107488888Y-118788647D01*
X107582288Y-118768794D01*
X107588319Y-118766109D01*
X107750722Y-118693803D01*
X107750724Y-118693802D01*
X107756752Y-118691118D01*
X107911253Y-118578866D01*
X108039040Y-118436944D01*
X108134527Y-118271556D01*
X108193542Y-118089928D01*
X108213504Y-117900000D01*
X108193542Y-117710072D01*
X108134527Y-117528444D01*
X108039040Y-117363056D01*
X107911253Y-117221134D01*
X107756752Y-117108882D01*
X107750724Y-117106198D01*
X107750722Y-117106197D01*
X107588319Y-117033891D01*
X107588318Y-117033891D01*
X107582288Y-117031206D01*
X107488888Y-117011353D01*
X107401944Y-116992872D01*
X107401939Y-116992872D01*
X107395487Y-116991500D01*
X107204513Y-116991500D01*
X107198061Y-116992872D01*
X107198056Y-116992872D01*
X107111112Y-117011353D01*
X107017712Y-117031206D01*
X107011682Y-117033891D01*
X107011681Y-117033891D01*
X106849278Y-117106197D01*
X106849276Y-117106198D01*
X106843248Y-117108882D01*
X106688747Y-117221134D01*
X106684334Y-117226036D01*
X106684332Y-117226037D01*
X106662926Y-117249811D01*
X106602480Y-117287050D01*
X106569290Y-117291500D01*
X82330710Y-117291500D01*
X82262589Y-117271498D01*
X82237074Y-117249811D01*
X82215668Y-117226037D01*
X82215666Y-117226036D01*
X82211253Y-117221134D01*
X82056752Y-117108882D01*
X82050724Y-117106198D01*
X82050722Y-117106197D01*
X81888319Y-117033891D01*
X81888318Y-117033891D01*
X81882288Y-117031206D01*
X81788888Y-117011353D01*
X81701944Y-116992872D01*
X81701939Y-116992872D01*
X81695487Y-116991500D01*
X81504513Y-116991500D01*
X81498061Y-116992872D01*
X81498056Y-116992872D01*
X81411112Y-117011353D01*
X81317712Y-117031206D01*
X81311682Y-117033891D01*
X81311681Y-117033891D01*
X81149278Y-117106197D01*
X81149276Y-117106198D01*
X81143248Y-117108882D01*
X80988747Y-117221134D01*
X80860960Y-117363056D01*
X80765473Y-117528444D01*
X80706458Y-117710072D01*
X80686496Y-117900000D01*
X37225737Y-117900000D01*
X34019706Y-110815067D01*
X34008500Y-110763121D01*
X34008500Y-103832703D01*
X48467594Y-103832703D01*
X48505119Y-104117734D01*
X48580980Y-104395036D01*
X48693774Y-104659476D01*
X48841412Y-104906161D01*
X49021164Y-105130528D01*
X49229702Y-105328423D01*
X49463168Y-105496186D01*
X49466963Y-105498195D01*
X49466964Y-105498196D01*
X49488720Y-105509715D01*
X49717243Y-105630712D01*
X49987224Y-105729511D01*
X50268115Y-105790755D01*
X50296692Y-105793004D01*
X50491133Y-105808307D01*
X50491142Y-105808307D01*
X50493590Y-105808500D01*
X50649122Y-105808500D01*
X50651258Y-105808354D01*
X50651269Y-105808354D01*
X50859399Y-105794165D01*
X50859405Y-105794164D01*
X50863676Y-105793873D01*
X50867871Y-105793004D01*
X50867873Y-105793004D01*
X51004435Y-105764723D01*
X51145193Y-105735574D01*
X51416194Y-105639607D01*
X51671663Y-105507750D01*
X51675164Y-105505289D01*
X51675168Y-105505287D01*
X51789269Y-105425095D01*
X51906874Y-105342441D01*
X52117473Y-105146740D01*
X52299564Y-104924268D01*
X52449778Y-104679142D01*
X52565334Y-104415898D01*
X52644095Y-104139406D01*
X52684602Y-103854784D01*
X52684696Y-103836951D01*
X52684718Y-103832703D01*
X112490743Y-103832703D01*
X112528268Y-104117734D01*
X112604129Y-104395036D01*
X112716923Y-104659476D01*
X112864561Y-104906161D01*
X113044313Y-105130528D01*
X113252851Y-105328423D01*
X113486317Y-105496186D01*
X113490112Y-105498195D01*
X113490113Y-105498196D01*
X113511869Y-105509715D01*
X113740392Y-105630712D01*
X114010373Y-105729511D01*
X114291264Y-105790755D01*
X114319841Y-105793004D01*
X114514282Y-105808307D01*
X114514291Y-105808307D01*
X114516739Y-105808500D01*
X114672271Y-105808500D01*
X114674407Y-105808354D01*
X114674418Y-105808354D01*
X114882548Y-105794165D01*
X114882554Y-105794164D01*
X114886825Y-105793873D01*
X114891020Y-105793004D01*
X114891022Y-105793004D01*
X115027584Y-105764723D01*
X115168342Y-105735574D01*
X115439343Y-105639607D01*
X115694812Y-105507750D01*
X115698313Y-105505289D01*
X115698317Y-105505287D01*
X115812418Y-105425095D01*
X115930023Y-105342441D01*
X116140622Y-105146740D01*
X116322713Y-104924268D01*
X116472927Y-104679142D01*
X116588483Y-104415898D01*
X116667244Y-104139406D01*
X116707751Y-103854784D01*
X116707845Y-103836951D01*
X116709235Y-103571583D01*
X116709235Y-103571576D01*
X116709257Y-103567297D01*
X116671732Y-103282266D01*
X116670214Y-103276715D01*
X116621631Y-103099127D01*
X116595871Y-103004964D01*
X116539370Y-102872500D01*
X116484763Y-102744476D01*
X116484761Y-102744472D01*
X116483077Y-102740524D01*
X116335439Y-102493839D01*
X116155687Y-102269472D01*
X115947149Y-102071577D01*
X115713683Y-101903814D01*
X115691843Y-101892250D01*
X115668654Y-101879972D01*
X115459608Y-101769288D01*
X115189627Y-101670489D01*
X114908736Y-101609245D01*
X114877685Y-101606801D01*
X114685718Y-101591693D01*
X114685709Y-101591693D01*
X114683261Y-101591500D01*
X114527729Y-101591500D01*
X114525593Y-101591646D01*
X114525582Y-101591646D01*
X114317452Y-101605835D01*
X114317446Y-101605836D01*
X114313175Y-101606127D01*
X114308980Y-101606996D01*
X114308978Y-101606996D01*
X114172416Y-101635277D01*
X114031658Y-101664426D01*
X113760657Y-101760393D01*
X113505188Y-101892250D01*
X113501687Y-101894711D01*
X113501683Y-101894713D01*
X113491594Y-101901804D01*
X113269977Y-102057559D01*
X113059378Y-102253260D01*
X112877287Y-102475732D01*
X112727073Y-102720858D01*
X112725347Y-102724791D01*
X112725346Y-102724792D01*
X112682391Y-102822647D01*
X112611517Y-102984102D01*
X112532756Y-103260594D01*
X112492249Y-103545216D01*
X112492227Y-103549505D01*
X112492226Y-103549512D01*
X112490765Y-103828417D01*
X112490743Y-103832703D01*
X52684718Y-103832703D01*
X52686086Y-103571583D01*
X52686086Y-103571576D01*
X52686108Y-103567297D01*
X52648583Y-103282266D01*
X52647065Y-103276715D01*
X52598482Y-103099127D01*
X52572722Y-103004964D01*
X52516221Y-102872500D01*
X52461614Y-102744476D01*
X52461612Y-102744472D01*
X52459928Y-102740524D01*
X52312290Y-102493839D01*
X52132538Y-102269472D01*
X51924000Y-102071577D01*
X51690534Y-101903814D01*
X51668694Y-101892250D01*
X51645505Y-101879972D01*
X51436459Y-101769288D01*
X51166478Y-101670489D01*
X50885587Y-101609245D01*
X50854536Y-101606801D01*
X50662569Y-101591693D01*
X50662560Y-101591693D01*
X50660112Y-101591500D01*
X50504580Y-101591500D01*
X50502444Y-101591646D01*
X50502433Y-101591646D01*
X50294303Y-101605835D01*
X50294297Y-101605836D01*
X50290026Y-101606127D01*
X50285831Y-101606996D01*
X50285829Y-101606996D01*
X50149267Y-101635277D01*
X50008509Y-101664426D01*
X49737508Y-101760393D01*
X49482039Y-101892250D01*
X49478538Y-101894711D01*
X49478534Y-101894713D01*
X49468445Y-101901804D01*
X49246828Y-102057559D01*
X49036229Y-102253260D01*
X48854138Y-102475732D01*
X48703924Y-102720858D01*
X48702198Y-102724791D01*
X48702197Y-102724792D01*
X48659242Y-102822647D01*
X48588368Y-102984102D01*
X48509607Y-103260594D01*
X48469100Y-103545216D01*
X48469078Y-103549505D01*
X48469077Y-103549512D01*
X48467616Y-103828417D01*
X48467594Y-103832703D01*
X34008500Y-103832703D01*
X34008500Y-103324235D01*
X34017805Y-103276715D01*
X35613510Y-99358148D01*
X40075849Y-88400000D01*
X41686496Y-88400000D01*
X41706458Y-88589928D01*
X41765473Y-88771556D01*
X41860960Y-88936944D01*
X41865378Y-88941851D01*
X41865379Y-88941852D01*
X41908667Y-88989928D01*
X41988747Y-89078866D01*
X42087843Y-89150864D01*
X42126385Y-89178866D01*
X42143248Y-89191118D01*
X42149276Y-89193802D01*
X42149278Y-89193803D01*
X42275924Y-89250189D01*
X42317712Y-89268794D01*
X42383365Y-89282749D01*
X42498056Y-89307128D01*
X42498061Y-89307128D01*
X42504513Y-89308500D01*
X42695487Y-89308500D01*
X42701939Y-89307128D01*
X42701944Y-89307128D01*
X42816635Y-89282749D01*
X42882288Y-89268794D01*
X42924076Y-89250189D01*
X43050722Y-89193803D01*
X43050724Y-89193802D01*
X43056752Y-89191118D01*
X43073616Y-89178866D01*
X43189671Y-89094546D01*
X43211253Y-89078866D01*
X43237074Y-89050189D01*
X43297520Y-89012950D01*
X43330710Y-89008500D01*
X62620948Y-89008500D01*
X62689069Y-89028502D01*
X62735562Y-89082158D01*
X62740781Y-89095562D01*
X62765473Y-89171556D01*
X62860960Y-89336944D01*
X62865378Y-89341851D01*
X62865379Y-89341852D01*
X62979678Y-89468794D01*
X62988747Y-89478866D01*
X63143248Y-89591118D01*
X63149276Y-89593802D01*
X63149278Y-89593803D01*
X63311681Y-89666109D01*
X63317712Y-89668794D01*
X63411112Y-89688647D01*
X63498056Y-89707128D01*
X63498061Y-89707128D01*
X63504513Y-89708500D01*
X63695487Y-89708500D01*
X63701939Y-89707128D01*
X63701944Y-89707128D01*
X63788888Y-89688647D01*
X63882288Y-89668794D01*
X63888319Y-89666109D01*
X64050722Y-89593803D01*
X64050724Y-89593802D01*
X64056752Y-89591118D01*
X64211253Y-89478866D01*
X64220322Y-89468794D01*
X64334621Y-89341852D01*
X64334622Y-89341851D01*
X64339040Y-89336944D01*
X64434527Y-89171556D01*
X64493542Y-88989928D01*
X64494872Y-88977279D01*
X64512814Y-88806565D01*
X64513504Y-88800000D01*
X64493542Y-88610072D01*
X64434527Y-88428444D01*
X64339040Y-88263056D01*
X64297243Y-88216635D01*
X64215675Y-88126045D01*
X64215674Y-88126044D01*
X64211253Y-88121134D01*
X64056752Y-88008882D01*
X64050724Y-88006198D01*
X64050722Y-88006197D01*
X63888319Y-87933891D01*
X63888318Y-87933891D01*
X63882288Y-87931206D01*
X63788888Y-87911353D01*
X63701944Y-87892872D01*
X63701939Y-87892872D01*
X63695487Y-87891500D01*
X63578361Y-87891500D01*
X63515362Y-87874620D01*
X63513427Y-87873503D01*
X63506876Y-87868476D01*
X63499249Y-87865317D01*
X63499246Y-87865315D01*
X63381458Y-87816526D01*
X63326177Y-87771978D01*
X63303756Y-87704614D01*
X63304366Y-87686947D01*
X63312814Y-87606565D01*
X63313504Y-87600000D01*
X63304052Y-87510072D01*
X63294232Y-87416635D01*
X63294232Y-87416633D01*
X63293542Y-87410072D01*
X63234527Y-87228444D01*
X63139040Y-87063056D01*
X63011253Y-86921134D01*
X62856752Y-86808882D01*
X62850724Y-86806198D01*
X62850722Y-86806197D01*
X62688319Y-86733891D01*
X62688318Y-86733891D01*
X62682288Y-86731206D01*
X62571415Y-86707639D01*
X62501944Y-86692872D01*
X62501939Y-86692872D01*
X62495487Y-86691500D01*
X62304513Y-86691500D01*
X62298061Y-86692872D01*
X62298056Y-86692872D01*
X62228585Y-86707639D01*
X62117712Y-86731206D01*
X62111682Y-86733891D01*
X62111681Y-86733891D01*
X61949278Y-86806197D01*
X61949276Y-86806198D01*
X61943248Y-86808882D01*
X61788747Y-86921134D01*
X61687464Y-87033621D01*
X61672887Y-87049810D01*
X61612441Y-87087050D01*
X61579251Y-87091500D01*
X57982079Y-87091500D01*
X57913958Y-87071498D01*
X57867465Y-87017842D01*
X57857361Y-86947568D01*
X57869121Y-86909674D01*
X57922430Y-86801811D01*
X57987370Y-86588069D01*
X58016529Y-86366590D01*
X58018156Y-86300000D01*
X57999852Y-86077361D01*
X57945431Y-85860702D01*
X57856354Y-85655840D01*
X57735014Y-85468277D01*
X57584670Y-85303051D01*
X57580619Y-85299852D01*
X57580615Y-85299848D01*
X57413414Y-85167800D01*
X57413410Y-85167798D01*
X57409359Y-85164598D01*
X57213789Y-85056638D01*
X57208920Y-85054914D01*
X57208916Y-85054912D01*
X57008087Y-84983795D01*
X57008083Y-84983794D01*
X57003212Y-84982069D01*
X56998119Y-84981162D01*
X56998116Y-84981161D01*
X56788373Y-84943800D01*
X56788367Y-84943799D01*
X56783284Y-84942894D01*
X56709452Y-84941992D01*
X56565081Y-84940228D01*
X56565079Y-84940228D01*
X56559911Y-84940165D01*
X56339091Y-84973955D01*
X56126756Y-85043357D01*
X55928607Y-85146507D01*
X55924474Y-85149610D01*
X55924471Y-85149612D01*
X55841450Y-85211946D01*
X55749965Y-85280635D01*
X55595629Y-85442138D01*
X55488201Y-85599621D01*
X55433293Y-85644621D01*
X55362768Y-85652792D01*
X55299021Y-85621538D01*
X55278324Y-85597054D01*
X55197822Y-85472617D01*
X55197820Y-85472614D01*
X55195014Y-85468277D01*
X55044670Y-85303051D01*
X55040619Y-85299852D01*
X55040615Y-85299848D01*
X54873414Y-85167800D01*
X54873410Y-85167798D01*
X54869359Y-85164598D01*
X54673789Y-85056638D01*
X54668920Y-85054914D01*
X54668916Y-85054912D01*
X54468087Y-84983795D01*
X54468083Y-84983794D01*
X54463212Y-84982069D01*
X54458119Y-84981162D01*
X54458116Y-84981161D01*
X54248373Y-84943800D01*
X54248367Y-84943799D01*
X54243284Y-84942894D01*
X54169452Y-84941992D01*
X54025081Y-84940228D01*
X54025079Y-84940228D01*
X54019911Y-84940165D01*
X53799091Y-84973955D01*
X53586756Y-85043357D01*
X53388607Y-85146507D01*
X53384474Y-85149610D01*
X53384471Y-85149612D01*
X53301450Y-85211946D01*
X53209965Y-85280635D01*
X53206393Y-85284373D01*
X53128898Y-85365466D01*
X53067374Y-85400895D01*
X52996462Y-85397438D01*
X52938676Y-85356192D01*
X52919823Y-85322644D01*
X52878324Y-85211946D01*
X52869786Y-85196351D01*
X52793285Y-85094276D01*
X52780724Y-85081715D01*
X52678649Y-85005214D01*
X52663054Y-84996676D01*
X52542606Y-84951522D01*
X52527351Y-84947895D01*
X52476486Y-84942369D01*
X52469672Y-84942000D01*
X51847115Y-84942000D01*
X51831876Y-84946475D01*
X51830671Y-84947865D01*
X51829000Y-84955548D01*
X51829000Y-86428000D01*
X51808998Y-86496121D01*
X51755342Y-86542614D01*
X51703000Y-86554000D01*
X50235116Y-86554000D01*
X50219877Y-86558475D01*
X50218672Y-86559865D01*
X50217001Y-86567548D01*
X50217001Y-86965500D01*
X50196999Y-87033621D01*
X50143343Y-87080114D01*
X50091001Y-87091500D01*
X46730710Y-87091500D01*
X46662589Y-87071498D01*
X46637074Y-87049811D01*
X46615668Y-87026037D01*
X46615666Y-87026036D01*
X46611253Y-87021134D01*
X46534680Y-86965500D01*
X46462094Y-86912763D01*
X46462093Y-86912762D01*
X46456752Y-86908882D01*
X46450724Y-86906198D01*
X46450722Y-86906197D01*
X46288319Y-86833891D01*
X46288318Y-86833891D01*
X46282288Y-86831206D01*
X46188887Y-86811353D01*
X46101944Y-86792872D01*
X46101939Y-86792872D01*
X46095487Y-86791500D01*
X45904513Y-86791500D01*
X45898061Y-86792872D01*
X45898056Y-86792872D01*
X45811113Y-86811353D01*
X45717712Y-86831206D01*
X45711682Y-86833891D01*
X45711681Y-86833891D01*
X45549278Y-86906197D01*
X45549276Y-86906198D01*
X45543248Y-86908882D01*
X45537907Y-86912762D01*
X45537906Y-86912763D01*
X45487843Y-86949136D01*
X45388747Y-87021134D01*
X45260960Y-87163056D01*
X45165473Y-87328444D01*
X45106458Y-87510072D01*
X45105768Y-87516633D01*
X45105768Y-87516635D01*
X45097900Y-87591500D01*
X45093727Y-87631206D01*
X45088738Y-87678670D01*
X45061725Y-87744327D01*
X45003503Y-87784957D01*
X44963428Y-87791500D01*
X43330710Y-87791500D01*
X43262589Y-87771498D01*
X43237074Y-87749811D01*
X43215668Y-87726037D01*
X43215666Y-87726036D01*
X43211253Y-87721134D01*
X43172354Y-87692872D01*
X43062094Y-87612763D01*
X43062093Y-87612762D01*
X43056752Y-87608882D01*
X43050724Y-87606198D01*
X43050722Y-87606197D01*
X42888319Y-87533891D01*
X42888318Y-87533891D01*
X42882288Y-87531206D01*
X42782861Y-87510072D01*
X42701944Y-87492872D01*
X42701939Y-87492872D01*
X42695487Y-87491500D01*
X42504513Y-87491500D01*
X42498061Y-87492872D01*
X42498056Y-87492872D01*
X42417139Y-87510072D01*
X42317712Y-87531206D01*
X42311682Y-87533891D01*
X42311681Y-87533891D01*
X42149278Y-87606197D01*
X42149276Y-87606198D01*
X42143248Y-87608882D01*
X41988747Y-87721134D01*
X41984326Y-87726044D01*
X41984325Y-87726045D01*
X41919348Y-87798210D01*
X41860960Y-87863056D01*
X41765473Y-88028444D01*
X41706458Y-88210072D01*
X41705768Y-88216633D01*
X41705768Y-88216635D01*
X41695948Y-88310072D01*
X41686496Y-88400000D01*
X40075849Y-88400000D01*
X41041813Y-86027885D01*
X50217000Y-86027885D01*
X50221475Y-86043124D01*
X50222865Y-86044329D01*
X50230548Y-86046000D01*
X51302885Y-86046000D01*
X51318124Y-86041525D01*
X51319329Y-86040135D01*
X51321000Y-86032452D01*
X51321000Y-84960116D01*
X51316525Y-84944877D01*
X51315135Y-84943672D01*
X51307452Y-84942001D01*
X50680331Y-84942001D01*
X50673510Y-84942371D01*
X50622648Y-84947895D01*
X50607396Y-84951521D01*
X50486946Y-84996676D01*
X50471351Y-85005214D01*
X50369276Y-85081715D01*
X50356715Y-85094276D01*
X50280214Y-85196351D01*
X50271676Y-85211946D01*
X50226522Y-85332394D01*
X50222895Y-85347649D01*
X50217369Y-85398514D01*
X50217000Y-85405328D01*
X50217000Y-86027885D01*
X41041813Y-86027885D01*
X41706008Y-84396825D01*
X41750223Y-84341279D01*
X41817451Y-84318455D01*
X41825576Y-84318379D01*
X67384093Y-84903689D01*
G37*
%TD.AperFunction*%
%TD*%
M02*
