%TF.GenerationSoftware,KiCad,Pcbnew,6.0.4-6f826c9f35~116~ubuntu20.04.1*%
%TF.CreationDate,2022-04-29T19:57:12-06:00*%
%TF.ProjectId,heart,68656172-742e-46b6-9963-61645f706362,rev?*%
%TF.SameCoordinates,Original*%
%TF.FileFunction,Legend,Top*%
%TF.FilePolarity,Positive*%
%FSLAX46Y46*%
G04 Gerber Fmt 4.6, Leading zero omitted, Abs format (unit mm)*
G04 Created by KiCad (PCBNEW 6.0.4-6f826c9f35~116~ubuntu20.04.1) date 2022-04-29 19:57:12*
%MOMM*%
%LPD*%
G01*
G04 APERTURE LIST*
G04 Aperture macros list*
%AMRoundRect*
0 Rectangle with rounded corners*
0 $1 Rounding radius*
0 $2 $3 $4 $5 $6 $7 $8 $9 X,Y pos of 4 corners*
0 Add a 4 corners polygon primitive as box body*
4,1,4,$2,$3,$4,$5,$6,$7,$8,$9,$2,$3,0*
0 Add four circle primitives for the rounded corners*
1,1,$1+$1,$2,$3*
1,1,$1+$1,$4,$5*
1,1,$1+$1,$6,$7*
1,1,$1+$1,$8,$9*
0 Add four rect primitives between the rounded corners*
20,1,$1+$1,$2,$3,$4,$5,0*
20,1,$1+$1,$4,$5,$6,$7,0*
20,1,$1+$1,$6,$7,$8,$9,0*
20,1,$1+$1,$8,$9,$2,$3,0*%
G04 Aperture macros list end*
%ADD10C,0.150000*%
%ADD11C,0.120000*%
%ADD12R,1.000000X1.500000*%
%ADD13RoundRect,0.200000X-0.200000X-0.275000X0.200000X-0.275000X0.200000X0.275000X-0.200000X0.275000X0*%
%ADD14R,1.700000X1.700000*%
%ADD15O,1.700000X1.700000*%
%ADD16RoundRect,0.225000X-0.250000X0.225000X-0.250000X-0.225000X0.250000X-0.225000X0.250000X0.225000X0*%
%ADD17RoundRect,0.140000X-0.170000X0.140000X-0.170000X-0.140000X0.170000X-0.140000X0.170000X0.140000X0*%
G04 APERTURE END LIST*
D10*
X117909523Y-88852380D02*
X117338095Y-88852380D01*
X117623809Y-88852380D02*
X117623809Y-87852380D01*
X117528571Y-87995238D01*
X117433333Y-88090476D01*
X117338095Y-88138095D01*
X118814285Y-87852380D02*
X118338095Y-87852380D01*
X118290476Y-88328571D01*
X118338095Y-88280952D01*
X118433333Y-88233333D01*
X118671428Y-88233333D01*
X118766666Y-88280952D01*
X118814285Y-88328571D01*
X118861904Y-88423809D01*
X118861904Y-88661904D01*
X118814285Y-88757142D01*
X118766666Y-88804761D01*
X118671428Y-88852380D01*
X118433333Y-88852380D01*
X118338095Y-88804761D01*
X118290476Y-88757142D01*
X105909523Y-89252380D02*
X105338095Y-89252380D01*
X105623809Y-89252380D02*
X105623809Y-88252380D01*
X105528571Y-88395238D01*
X105433333Y-88490476D01*
X105338095Y-88538095D01*
X106766666Y-88585714D02*
X106766666Y-89252380D01*
X106528571Y-88204761D02*
X106290476Y-88919047D01*
X106909523Y-88919047D01*
X87609523Y-98752380D02*
X87038095Y-98752380D01*
X87323809Y-98752380D02*
X87323809Y-97752380D01*
X87228571Y-97895238D01*
X87133333Y-97990476D01*
X87038095Y-98038095D01*
X87942857Y-97752380D02*
X88561904Y-97752380D01*
X88228571Y-98133333D01*
X88371428Y-98133333D01*
X88466666Y-98180952D01*
X88514285Y-98228571D01*
X88561904Y-98323809D01*
X88561904Y-98561904D01*
X88514285Y-98657142D01*
X88466666Y-98704761D01*
X88371428Y-98752380D01*
X88085714Y-98752380D01*
X87990476Y-98704761D01*
X87942857Y-98657142D01*
X67709523Y-89452380D02*
X67138095Y-89452380D01*
X67423809Y-89452380D02*
X67423809Y-88452380D01*
X67328571Y-88595238D01*
X67233333Y-88690476D01*
X67138095Y-88738095D01*
X68090476Y-88547619D02*
X68138095Y-88500000D01*
X68233333Y-88452380D01*
X68471428Y-88452380D01*
X68566666Y-88500000D01*
X68614285Y-88547619D01*
X68661904Y-88642857D01*
X68661904Y-88738095D01*
X68614285Y-88880952D01*
X68042857Y-89452380D01*
X68661904Y-89452380D01*
X48009523Y-88952380D02*
X47438095Y-88952380D01*
X47723809Y-88952380D02*
X47723809Y-87952380D01*
X47628571Y-88095238D01*
X47533333Y-88190476D01*
X47438095Y-88238095D01*
X48961904Y-88952380D02*
X48390476Y-88952380D01*
X48676190Y-88952380D02*
X48676190Y-87952380D01*
X48580952Y-88095238D01*
X48485714Y-88190476D01*
X48390476Y-88238095D01*
X64209523Y-114152380D02*
X63638095Y-114152380D01*
X63923809Y-114152380D02*
X63923809Y-113152380D01*
X63828571Y-113295238D01*
X63733333Y-113390476D01*
X63638095Y-113438095D01*
X64828571Y-113152380D02*
X64923809Y-113152380D01*
X65019047Y-113200000D01*
X65066666Y-113247619D01*
X65114285Y-113342857D01*
X65161904Y-113533333D01*
X65161904Y-113771428D01*
X65114285Y-113961904D01*
X65066666Y-114057142D01*
X65019047Y-114104761D01*
X64923809Y-114152380D01*
X64828571Y-114152380D01*
X64733333Y-114104761D01*
X64685714Y-114057142D01*
X64638095Y-113961904D01*
X64590476Y-113771428D01*
X64590476Y-113533333D01*
X64638095Y-113342857D01*
X64685714Y-113247619D01*
X64733333Y-113200000D01*
X64828571Y-113152380D01*
X86409523Y-124752380D02*
X86600000Y-124752380D01*
X86695238Y-124704761D01*
X86742857Y-124657142D01*
X86838095Y-124514285D01*
X86885714Y-124323809D01*
X86885714Y-123942857D01*
X86838095Y-123847619D01*
X86790476Y-123800000D01*
X86695238Y-123752380D01*
X86504761Y-123752380D01*
X86409523Y-123800000D01*
X86361904Y-123847619D01*
X86314285Y-123942857D01*
X86314285Y-124180952D01*
X86361904Y-124276190D01*
X86409523Y-124323809D01*
X86504761Y-124371428D01*
X86695238Y-124371428D01*
X86790476Y-124323809D01*
X86838095Y-124276190D01*
X86885714Y-124180952D01*
X109104761Y-113580952D02*
X109009523Y-113533333D01*
X108961904Y-113485714D01*
X108914285Y-113390476D01*
X108914285Y-113342857D01*
X108961904Y-113247619D01*
X109009523Y-113200000D01*
X109104761Y-113152380D01*
X109295238Y-113152380D01*
X109390476Y-113200000D01*
X109438095Y-113247619D01*
X109485714Y-113342857D01*
X109485714Y-113390476D01*
X109438095Y-113485714D01*
X109390476Y-113533333D01*
X109295238Y-113580952D01*
X109104761Y-113580952D01*
X109009523Y-113628571D01*
X108961904Y-113676190D01*
X108914285Y-113771428D01*
X108914285Y-113961904D01*
X108961904Y-114057142D01*
X109009523Y-114104761D01*
X109104761Y-114152380D01*
X109295238Y-114152380D01*
X109390476Y-114104761D01*
X109438095Y-114057142D01*
X109485714Y-113961904D01*
X109485714Y-113771428D01*
X109438095Y-113676190D01*
X109390476Y-113628571D01*
X109295238Y-113580952D01*
X125566666Y-106252380D02*
X126233333Y-106252380D01*
X125804761Y-107252380D01*
X125190476Y-124252380D02*
X125000000Y-124252380D01*
X124904761Y-124300000D01*
X124857142Y-124347619D01*
X124761904Y-124490476D01*
X124714285Y-124680952D01*
X124714285Y-125061904D01*
X124761904Y-125157142D01*
X124809523Y-125204761D01*
X124904761Y-125252380D01*
X125095238Y-125252380D01*
X125190476Y-125204761D01*
X125238095Y-125157142D01*
X125285714Y-125061904D01*
X125285714Y-124823809D01*
X125238095Y-124728571D01*
X125190476Y-124680952D01*
X125095238Y-124633333D01*
X124904761Y-124633333D01*
X124809523Y-124680952D01*
X124761904Y-124728571D01*
X124714285Y-124823809D01*
X109738095Y-138352380D02*
X109261904Y-138352380D01*
X109214285Y-138828571D01*
X109261904Y-138780952D01*
X109357142Y-138733333D01*
X109595238Y-138733333D01*
X109690476Y-138780952D01*
X109738095Y-138828571D01*
X109785714Y-138923809D01*
X109785714Y-139161904D01*
X109738095Y-139257142D01*
X109690476Y-139304761D01*
X109595238Y-139352380D01*
X109357142Y-139352380D01*
X109261904Y-139304761D01*
X109214285Y-139257142D01*
X86890476Y-149585714D02*
X86890476Y-150252380D01*
X86652380Y-149204761D02*
X86414285Y-149919047D01*
X87033333Y-149919047D01*
X40385714Y-107352380D02*
X39814285Y-107352380D01*
X40100000Y-107352380D02*
X40100000Y-106352380D01*
X40004761Y-106495238D01*
X39909523Y-106590476D01*
X39814285Y-106638095D01*
X47714285Y-124447619D02*
X47761904Y-124400000D01*
X47857142Y-124352380D01*
X48095238Y-124352380D01*
X48190476Y-124400000D01*
X48238095Y-124447619D01*
X48285714Y-124542857D01*
X48285714Y-124638095D01*
X48238095Y-124780952D01*
X47666666Y-125352380D01*
X48285714Y-125352380D01*
X63366666Y-138152380D02*
X63985714Y-138152380D01*
X63652380Y-138533333D01*
X63795238Y-138533333D01*
X63890476Y-138580952D01*
X63938095Y-138628571D01*
X63985714Y-138723809D01*
X63985714Y-138961904D01*
X63938095Y-139057142D01*
X63890476Y-139104761D01*
X63795238Y-139152380D01*
X63509523Y-139152380D01*
X63414285Y-139104761D01*
X63366666Y-139057142D01*
%TO.C,D15*%
X120852380Y-91964285D02*
X120852380Y-92535714D01*
X120852380Y-92250000D02*
X119852380Y-92250000D01*
X119995238Y-92345238D01*
X120090476Y-92440476D01*
X120138095Y-92535714D01*
%TO.C,D14*%
X104752380Y-117264285D02*
X104752380Y-117835714D01*
X104752380Y-117550000D02*
X103752380Y-117550000D01*
X103895238Y-117645238D01*
X103990476Y-117740476D01*
X104038095Y-117835714D01*
%TO.C,D13*%
X101052380Y-92364285D02*
X101052380Y-92935714D01*
X101052380Y-92650000D02*
X100052380Y-92650000D01*
X100195238Y-92745238D01*
X100290476Y-92840476D01*
X100338095Y-92935714D01*
%TO.C,D12*%
X128452380Y-110864285D02*
X128452380Y-111435714D01*
X128452380Y-111150000D02*
X127452380Y-111150000D01*
X127595238Y-111245238D01*
X127690476Y-111340476D01*
X127738095Y-111435714D01*
%TO.C,D11*%
X82052380Y-102164285D02*
X82052380Y-102735714D01*
X82052380Y-102450000D02*
X81052380Y-102450000D01*
X81195238Y-102545238D01*
X81290476Y-102640476D01*
X81338095Y-102735714D01*
%TO.C,D10*%
X120352380Y-128764285D02*
X120352380Y-129335714D01*
X120352380Y-129050000D02*
X119352380Y-129050000D01*
X119495238Y-129145238D01*
X119590476Y-129240476D01*
X119638095Y-129335714D01*
%TO.C,D9*%
X62952380Y-92264285D02*
X62952380Y-92835714D01*
X62952380Y-92550000D02*
X61952380Y-92550000D01*
X62095238Y-92645238D01*
X62190476Y-92740476D01*
X62238095Y-92835714D01*
%TO.C,D8*%
X104752380Y-142564285D02*
X104752380Y-143135714D01*
X104752380Y-142850000D02*
X103752380Y-142850000D01*
X103895238Y-142945238D01*
X103990476Y-143040476D01*
X104038095Y-143135714D01*
%TO.C,D7*%
X43152380Y-91864285D02*
X43152380Y-92435714D01*
X43152380Y-92150000D02*
X42152380Y-92150000D01*
X42295238Y-92245238D01*
X42390476Y-92340476D01*
X42438095Y-92435714D01*
%TO.C,D5*%
X59252380Y-117364285D02*
X59252380Y-117935714D01*
X59252380Y-117650000D02*
X58252380Y-117650000D01*
X58395238Y-117745238D01*
X58490476Y-117840476D01*
X58538095Y-117935714D01*
%TO.C,D3*%
X81952380Y-128064285D02*
X81952380Y-128635714D01*
X81952380Y-128350000D02*
X80952380Y-128350000D01*
X81095238Y-128445238D01*
X81190476Y-128540476D01*
X81238095Y-128635714D01*
%TO.C,D1*%
X35552380Y-110864285D02*
X35552380Y-111435714D01*
X35552380Y-111150000D02*
X34552380Y-111150000D01*
X34695238Y-111245238D01*
X34790476Y-111340476D01*
X34838095Y-111435714D01*
%TO.C,D2*%
X43452380Y-128764285D02*
X43452380Y-129335714D01*
X43452380Y-129050000D02*
X42452380Y-129050000D01*
X42595238Y-129145238D01*
X42690476Y-129240476D01*
X42738095Y-129335714D01*
%TO.C,D4*%
X59152380Y-142564285D02*
X59152380Y-143135714D01*
X59152380Y-142850000D02*
X58152380Y-142850000D01*
X58295238Y-142945238D01*
X58390476Y-143040476D01*
X58438095Y-143135714D01*
%TO.C,D6*%
X82052380Y-153664285D02*
X82052380Y-154235714D01*
X82052380Y-153950000D02*
X81052380Y-153950000D01*
X81195238Y-154045238D01*
X81290476Y-154140476D01*
X81338095Y-154235714D01*
D11*
%TO.C,D15*%
X119250000Y-91750000D02*
X119250000Y-84450000D01*
X124750000Y-91750000D02*
X124750000Y-84450000D01*
X124750000Y-84450000D02*
X123600000Y-84450000D01*
%TO.C,D14*%
X103150000Y-117050000D02*
X103150000Y-109750000D01*
X108650000Y-117050000D02*
X108650000Y-109750000D01*
X108650000Y-109750000D02*
X107500000Y-109750000D01*
%TO.C,D13*%
X99450000Y-92150000D02*
X99450000Y-84850000D01*
X104950000Y-92150000D02*
X104950000Y-84850000D01*
X104950000Y-84850000D02*
X103800000Y-84850000D01*
%TO.C,D12*%
X126850000Y-110650000D02*
X126850000Y-103350000D01*
X132350000Y-110650000D02*
X132350000Y-103350000D01*
X132350000Y-103350000D02*
X131200000Y-103350000D01*
%TO.C,D11*%
X80450000Y-101950000D02*
X80450000Y-94650000D01*
X85950000Y-101950000D02*
X85950000Y-94650000D01*
X85950000Y-94650000D02*
X84800000Y-94650000D01*
%TO.C,D10*%
X118750000Y-128550000D02*
X118750000Y-121250000D01*
X124250000Y-128550000D02*
X124250000Y-121250000D01*
X124250000Y-121250000D02*
X123100000Y-121250000D01*
%TO.C,D9*%
X61350000Y-92050000D02*
X61350000Y-84750000D01*
X66850000Y-92050000D02*
X66850000Y-84750000D01*
X66850000Y-84750000D02*
X65700000Y-84750000D01*
%TO.C,D8*%
X108650000Y-135050000D02*
X107500000Y-135050000D01*
X108650000Y-142350000D02*
X108650000Y-135050000D01*
X103150000Y-142350000D02*
X103150000Y-135050000D01*
%TO.C,D7*%
X41550000Y-91650000D02*
X41550000Y-84350000D01*
X47050000Y-91650000D02*
X47050000Y-84350000D01*
X47050000Y-84350000D02*
X45900000Y-84350000D01*
%TO.C,D5*%
X57650000Y-117150000D02*
X57650000Y-109850000D01*
X63150000Y-117150000D02*
X63150000Y-109850000D01*
X63150000Y-109850000D02*
X62000000Y-109850000D01*
%TO.C,D3*%
X80350000Y-127850000D02*
X80350000Y-120550000D01*
X85850000Y-127850000D02*
X85850000Y-120550000D01*
X85850000Y-120550000D02*
X84700000Y-120550000D01*
%TO.C,D1*%
X33950000Y-110650000D02*
X33950000Y-103350000D01*
X39450000Y-103350000D02*
X38300000Y-103350000D01*
X39450000Y-110650000D02*
X39450000Y-103350000D01*
%TO.C,R2*%
X53162742Y-88377500D02*
X53637258Y-88377500D01*
X53162742Y-89422500D02*
X53637258Y-89422500D01*
%TO.C,D2*%
X47350000Y-121250000D02*
X46200000Y-121250000D01*
X47350000Y-128550000D02*
X47350000Y-121250000D01*
X41850000Y-128550000D02*
X41850000Y-121250000D01*
%TO.C,J2*%
X52845000Y-87630000D02*
X52845000Y-84970000D01*
X52845000Y-87630000D02*
X57985000Y-87630000D01*
X51575000Y-87630000D02*
X50245000Y-87630000D01*
X50245000Y-87630000D02*
X50245000Y-86300000D01*
X57985000Y-87630000D02*
X57985000Y-84970000D01*
X52845000Y-84970000D02*
X57985000Y-84970000D01*
%TO.C,C1*%
X42690000Y-95759420D02*
X42690000Y-96040580D01*
X43710000Y-95759420D02*
X43710000Y-96040580D01*
%TO.C,R1*%
X43062742Y-97877500D02*
X43537258Y-97877500D01*
X43062742Y-98922500D02*
X43537258Y-98922500D01*
%TO.C,D4*%
X63050000Y-135050000D02*
X61900000Y-135050000D01*
X57550000Y-142350000D02*
X57550000Y-135050000D01*
X63050000Y-142350000D02*
X63050000Y-135050000D01*
%TO.C,C2*%
X41440000Y-95892164D02*
X41440000Y-96107836D01*
X42160000Y-95892164D02*
X42160000Y-96107836D01*
%TO.C,D6*%
X85950000Y-153450000D02*
X85950000Y-146150000D01*
X80450000Y-153450000D02*
X80450000Y-146150000D01*
X85950000Y-146150000D02*
X84800000Y-146150000D01*
%TO.C,J1*%
X40730000Y-99245000D02*
X40730000Y-94105000D01*
X40730000Y-100515000D02*
X40730000Y-101845000D01*
X38070000Y-99245000D02*
X38070000Y-94105000D01*
X40730000Y-94105000D02*
X38070000Y-94105000D01*
X40730000Y-99245000D02*
X38070000Y-99245000D01*
X40730000Y-101845000D02*
X39400000Y-101845000D01*
%TD*%
%LPC*%
D12*
%TO.C,D15*%
X120400000Y-90550000D03*
X123600000Y-90550000D03*
X123600000Y-85650000D03*
X120400000Y-85650000D03*
%TD*%
%TO.C,D14*%
X104300000Y-115850000D03*
X107500000Y-115850000D03*
X107500000Y-110950000D03*
X104300000Y-110950000D03*
%TD*%
%TO.C,D13*%
X100600000Y-90950000D03*
X103800000Y-90950000D03*
X103800000Y-86050000D03*
X100600000Y-86050000D03*
%TD*%
%TO.C,D12*%
X128000000Y-109450000D03*
X131200000Y-109450000D03*
X131200000Y-104550000D03*
X128000000Y-104550000D03*
%TD*%
%TO.C,D11*%
X81600000Y-100750000D03*
X84800000Y-100750000D03*
X84800000Y-95850000D03*
X81600000Y-95850000D03*
%TD*%
%TO.C,D10*%
X119900000Y-127350000D03*
X123100000Y-127350000D03*
X123100000Y-122450000D03*
X119900000Y-122450000D03*
%TD*%
%TO.C,D9*%
X62500000Y-90850000D03*
X65700000Y-90850000D03*
X65700000Y-85950000D03*
X62500000Y-85950000D03*
%TD*%
%TO.C,D8*%
X104300000Y-136250000D03*
X107500000Y-136250000D03*
X107500000Y-141150000D03*
X104300000Y-141150000D03*
%TD*%
%TO.C,D7*%
X42700000Y-90450000D03*
X45900000Y-90450000D03*
X45900000Y-85550000D03*
X42700000Y-85550000D03*
%TD*%
%TO.C,D5*%
X58800000Y-115950000D03*
X62000000Y-115950000D03*
X62000000Y-111050000D03*
X58800000Y-111050000D03*
%TD*%
%TO.C,D3*%
X81500000Y-126650000D03*
X84700000Y-126650000D03*
X84700000Y-121750000D03*
X81500000Y-121750000D03*
%TD*%
%TO.C,D1*%
X35100000Y-109450000D03*
X38300000Y-109450000D03*
X38300000Y-104550000D03*
X35100000Y-104550000D03*
%TD*%
D13*
%TO.C,R2*%
X52575000Y-88900000D03*
X54225000Y-88900000D03*
%TD*%
D12*
%TO.C,D2*%
X43000000Y-127350000D03*
X46200000Y-127350000D03*
X46200000Y-122450000D03*
X43000000Y-122450000D03*
%TD*%
D14*
%TO.C,J2*%
X51575000Y-86300000D03*
D15*
X54115000Y-86300000D03*
X56655000Y-86300000D03*
%TD*%
D16*
%TO.C,C1*%
X43200000Y-95125000D03*
X43200000Y-96675000D03*
%TD*%
D13*
%TO.C,R1*%
X42475000Y-98400000D03*
X44125000Y-98400000D03*
%TD*%
D12*
%TO.C,D4*%
X58700000Y-141150000D03*
X61900000Y-141150000D03*
X61900000Y-136250000D03*
X58700000Y-136250000D03*
%TD*%
D17*
%TO.C,C2*%
X41800000Y-95520000D03*
X41800000Y-96480000D03*
%TD*%
D12*
%TO.C,D6*%
X81600000Y-152250000D03*
X84800000Y-152250000D03*
X84800000Y-147350000D03*
X81600000Y-147350000D03*
%TD*%
D14*
%TO.C,J1*%
X39400000Y-100515000D03*
D15*
X39400000Y-97975000D03*
X39400000Y-95435000D03*
%TD*%
M02*
