%TF.GenerationSoftware,KiCad,Pcbnew,6.0.4-6f826c9f35~116~ubuntu20.04.1*%
%TF.CreationDate,2022-04-29T19:57:11-06:00*%
%TF.ProjectId,heart,68656172-742e-46b6-9963-61645f706362,rev?*%
%TF.SameCoordinates,Original*%
%TF.FileFunction,Copper,L1,Top*%
%TF.FilePolarity,Positive*%
%FSLAX46Y46*%
G04 Gerber Fmt 4.6, Leading zero omitted, Abs format (unit mm)*
G04 Created by KiCad (PCBNEW 6.0.4-6f826c9f35~116~ubuntu20.04.1) date 2022-04-29 19:57:11*
%MOMM*%
%LPD*%
G01*
G04 APERTURE LIST*
G04 Aperture macros list*
%AMRoundRect*
0 Rectangle with rounded corners*
0 $1 Rounding radius*
0 $2 $3 $4 $5 $6 $7 $8 $9 X,Y pos of 4 corners*
0 Add a 4 corners polygon primitive as box body*
4,1,4,$2,$3,$4,$5,$6,$7,$8,$9,$2,$3,0*
0 Add four circle primitives for the rounded corners*
1,1,$1+$1,$2,$3*
1,1,$1+$1,$4,$5*
1,1,$1+$1,$6,$7*
1,1,$1+$1,$8,$9*
0 Add four rect primitives between the rounded corners*
20,1,$1+$1,$2,$3,$4,$5,0*
20,1,$1+$1,$4,$5,$6,$7,0*
20,1,$1+$1,$6,$7,$8,$9,0*
20,1,$1+$1,$8,$9,$2,$3,0*%
G04 Aperture macros list end*
%TA.AperFunction,SMDPad,CuDef*%
%ADD10R,1.000000X1.500000*%
%TD*%
%TA.AperFunction,SMDPad,CuDef*%
%ADD11RoundRect,0.200000X-0.200000X-0.275000X0.200000X-0.275000X0.200000X0.275000X-0.200000X0.275000X0*%
%TD*%
%TA.AperFunction,ComponentPad*%
%ADD12R,1.700000X1.700000*%
%TD*%
%TA.AperFunction,ComponentPad*%
%ADD13O,1.700000X1.700000*%
%TD*%
%TA.AperFunction,SMDPad,CuDef*%
%ADD14RoundRect,0.225000X-0.250000X0.225000X-0.250000X-0.225000X0.250000X-0.225000X0.250000X0.225000X0*%
%TD*%
%TA.AperFunction,SMDPad,CuDef*%
%ADD15RoundRect,0.140000X-0.170000X0.140000X-0.170000X-0.140000X0.170000X-0.140000X0.170000X0.140000X0*%
%TD*%
%TA.AperFunction,ViaPad*%
%ADD16C,0.800000*%
%TD*%
%TA.AperFunction,Conductor*%
%ADD17C,0.200000*%
%TD*%
%TA.AperFunction,Conductor*%
%ADD18C,0.500000*%
%TD*%
G04 APERTURE END LIST*
D10*
%TO.P,D15,1,VDD*%
%TO.N,VCC*%
X120400000Y-90550000D03*
%TO.P,D15,2,DOUT*%
%TO.N,Net-(D15-Pad2)*%
X123600000Y-90550000D03*
%TO.P,D15,3,VSS*%
%TO.N,GND*%
X123600000Y-85650000D03*
%TO.P,D15,4,DIN*%
%TO.N,Net-(D13-Pad2)*%
X120400000Y-85650000D03*
%TD*%
%TO.P,D14,1,VDD*%
%TO.N,VCC*%
X104300000Y-115850000D03*
%TO.P,D14,2,DOUT*%
%TO.N,Net-(D14-Pad2)*%
X107500000Y-115850000D03*
%TO.P,D14,3,VSS*%
%TO.N,GND*%
X107500000Y-110950000D03*
%TO.P,D14,4,DIN*%
%TO.N,Net-(D12-Pad2)*%
X104300000Y-110950000D03*
%TD*%
%TO.P,D13,1,VDD*%
%TO.N,VCC*%
X100600000Y-90950000D03*
%TO.P,D13,2,DOUT*%
%TO.N,Net-(D13-Pad2)*%
X103800000Y-90950000D03*
%TO.P,D13,3,VSS*%
%TO.N,GND*%
X103800000Y-86050000D03*
%TO.P,D13,4,DIN*%
%TO.N,Net-(D11-Pad2)*%
X100600000Y-86050000D03*
%TD*%
%TO.P,D12,1,VDD*%
%TO.N,VCC*%
X128000000Y-109450000D03*
%TO.P,D12,2,DOUT*%
%TO.N,Net-(D12-Pad2)*%
X131200000Y-109450000D03*
%TO.P,D12,3,VSS*%
%TO.N,GND*%
X131200000Y-104550000D03*
%TO.P,D12,4,DIN*%
%TO.N,Net-(D10-Pad2)*%
X128000000Y-104550000D03*
%TD*%
%TO.P,D11,1,VDD*%
%TO.N,VCC*%
X81600000Y-100750000D03*
%TO.P,D11,2,DOUT*%
%TO.N,Net-(D11-Pad2)*%
X84800000Y-100750000D03*
%TO.P,D11,3,VSS*%
%TO.N,GND*%
X84800000Y-95850000D03*
%TO.P,D11,4,DIN*%
%TO.N,Net-(D11-Pad4)*%
X81600000Y-95850000D03*
%TD*%
%TO.P,D10,1,VDD*%
%TO.N,VCC*%
X119900000Y-127350000D03*
%TO.P,D10,2,DOUT*%
%TO.N,Net-(D10-Pad2)*%
X123100000Y-127350000D03*
%TO.P,D10,3,VSS*%
%TO.N,GND*%
X123100000Y-122450000D03*
%TO.P,D10,4,DIN*%
%TO.N,Net-(D10-Pad4)*%
X119900000Y-122450000D03*
%TD*%
%TO.P,D9,1,VDD*%
%TO.N,VCC*%
X62500000Y-90850000D03*
%TO.P,D9,2,DOUT*%
%TO.N,Net-(D11-Pad4)*%
X65700000Y-90850000D03*
%TO.P,D9,3,VSS*%
%TO.N,GND*%
X65700000Y-85950000D03*
%TO.P,D9,4,DIN*%
%TO.N,Net-(D7-Pad2)*%
X62500000Y-85950000D03*
%TD*%
%TO.P,D8,4,DIN*%
%TO.N,Net-(D6-Pad2)*%
X104300000Y-136250000D03*
%TO.P,D8,3,VSS*%
%TO.N,GND*%
X107500000Y-136250000D03*
%TO.P,D8,2,DOUT*%
%TO.N,Net-(D10-Pad4)*%
X107500000Y-141150000D03*
%TO.P,D8,1,VDD*%
%TO.N,VCC*%
X104300000Y-141150000D03*
%TD*%
%TO.P,D7,1,VDD*%
%TO.N,VCC*%
X42700000Y-90450000D03*
%TO.P,D7,2,DOUT*%
%TO.N,Net-(D7-Pad2)*%
X45900000Y-90450000D03*
%TO.P,D7,3,VSS*%
%TO.N,GND*%
X45900000Y-85550000D03*
%TO.P,D7,4,DIN*%
%TO.N,Net-(D5-Pad2)*%
X42700000Y-85550000D03*
%TD*%
%TO.P,D5,1,VDD*%
%TO.N,VCC*%
X58800000Y-115950000D03*
%TO.P,D5,2,DOUT*%
%TO.N,Net-(D5-Pad2)*%
X62000000Y-115950000D03*
%TO.P,D5,3,VSS*%
%TO.N,GND*%
X62000000Y-111050000D03*
%TO.P,D5,4,DIN*%
%TO.N,Net-(D3-Pad2)*%
X58800000Y-111050000D03*
%TD*%
%TO.P,D3,1,VDD*%
%TO.N,VCC*%
X81500000Y-126650000D03*
%TO.P,D3,2,DOUT*%
%TO.N,Net-(D3-Pad2)*%
X84700000Y-126650000D03*
%TO.P,D3,3,VSS*%
%TO.N,GND*%
X84700000Y-121750000D03*
%TO.P,D3,4,DIN*%
%TO.N,Net-(D14-Pad2)*%
X81500000Y-121750000D03*
%TD*%
%TO.P,D1,1,VDD*%
%TO.N,VCC*%
X35100000Y-109450000D03*
%TO.P,D1,2,DOUT*%
%TO.N,Net-(D1-Pad2)*%
X38300000Y-109450000D03*
%TO.P,D1,3,VSS*%
%TO.N,GND*%
X38300000Y-104550000D03*
%TO.P,D1,4,DIN*%
%TO.N,Net-(D1-Pad4)*%
X35100000Y-104550000D03*
%TD*%
D11*
%TO.P,R2,1*%
%TO.N,Net-(D15-Pad2)*%
X52575000Y-88900000D03*
%TO.P,R2,2*%
%TO.N,/SIG_OUT*%
X54225000Y-88900000D03*
%TD*%
D10*
%TO.P,D2,1,VDD*%
%TO.N,VCC*%
X43000000Y-127350000D03*
%TO.P,D2,2,DOUT*%
%TO.N,Net-(D2-Pad2)*%
X46200000Y-127350000D03*
%TO.P,D2,3,VSS*%
%TO.N,GND*%
X46200000Y-122450000D03*
%TO.P,D2,4,DIN*%
%TO.N,Net-(D1-Pad2)*%
X43000000Y-122450000D03*
%TD*%
D12*
%TO.P,J2,1,Pin_1*%
%TO.N,GND*%
X51575000Y-86300000D03*
D13*
%TO.P,J2,2,Pin_2*%
%TO.N,/SIG_OUT*%
X54115000Y-86300000D03*
%TO.P,J2,3,Pin_3*%
%TO.N,VCC*%
X56655000Y-86300000D03*
%TD*%
D14*
%TO.P,C1,1*%
%TO.N,VCC*%
X43200000Y-95125000D03*
%TO.P,C1,2*%
%TO.N,GND*%
X43200000Y-96675000D03*
%TD*%
D11*
%TO.P,R1,1*%
%TO.N,/SIG_IN*%
X42475000Y-98400000D03*
%TO.P,R1,2*%
%TO.N,Net-(D1-Pad4)*%
X44125000Y-98400000D03*
%TD*%
D10*
%TO.P,D4,1,VDD*%
%TO.N,VCC*%
X58700000Y-141150000D03*
%TO.P,D4,2,DOUT*%
%TO.N,Net-(D4-Pad2)*%
X61900000Y-141150000D03*
%TO.P,D4,3,VSS*%
%TO.N,GND*%
X61900000Y-136250000D03*
%TO.P,D4,4,DIN*%
%TO.N,Net-(D2-Pad2)*%
X58700000Y-136250000D03*
%TD*%
D15*
%TO.P,C2,1*%
%TO.N,VCC*%
X41800000Y-95520000D03*
%TO.P,C2,2*%
%TO.N,GND*%
X41800000Y-96480000D03*
%TD*%
D10*
%TO.P,D6,1,VDD*%
%TO.N,VCC*%
X81600000Y-152250000D03*
%TO.P,D6,2,DOUT*%
%TO.N,Net-(D6-Pad2)*%
X84800000Y-152250000D03*
%TO.P,D6,3,VSS*%
%TO.N,GND*%
X84800000Y-147350000D03*
%TO.P,D6,4,DIN*%
%TO.N,Net-(D4-Pad2)*%
X81600000Y-147350000D03*
%TD*%
D12*
%TO.P,J1,1,Pin_1*%
%TO.N,GND*%
X39400000Y-100515000D03*
D13*
%TO.P,J1,2,Pin_2*%
%TO.N,/SIG_IN*%
X39400000Y-97975000D03*
%TO.P,J1,3,Pin_3*%
%TO.N,VCC*%
X39400000Y-95435000D03*
%TD*%
D16*
%TO.N,GND*%
X126500000Y-91400000D03*
X130500000Y-101900000D03*
X129200000Y-116800000D03*
X125800000Y-120300000D03*
X124300000Y-98800000D03*
X121400000Y-97800000D03*
X122300000Y-129200000D03*
X105200000Y-133900000D03*
X106300000Y-138400000D03*
X109700000Y-136800000D03*
X117600000Y-129400000D03*
X116700000Y-113700000D03*
X116600000Y-109800000D03*
X116100000Y-98000000D03*
X106000000Y-91100000D03*
X117600000Y-91500000D03*
X117400000Y-86400000D03*
X107200000Y-86500000D03*
X96700000Y-88600000D03*
X101300000Y-115900000D03*
X88500000Y-120000000D03*
X101100000Y-135300000D03*
X102100000Y-142500000D03*
X87500000Y-152100000D03*
X83900000Y-134200000D03*
X84400000Y-114500000D03*
X82900000Y-104300000D03*
X66200000Y-107400000D03*
X77600000Y-113300000D03*
X64500000Y-130900000D03*
X77400000Y-130900000D03*
X66700000Y-145400000D03*
X78200000Y-151000000D03*
X68100000Y-86600000D03*
X76600000Y-92900000D03*
X59300000Y-106900000D03*
X59300000Y-91000000D03*
X58300000Y-119000000D03*
X52000000Y-113000000D03*
X52000000Y-135000000D03*
X48000000Y-86000000D03*
X64800000Y-96500000D03*
X51600000Y-96500000D03*
%TO.N,Net-(D15-Pad2)*%
X123600000Y-92700000D03*
X52500000Y-94300000D03*
%TO.N,Net-(D13-Pad2)*%
X103800000Y-88600000D03*
X120300000Y-88500000D03*
%TO.N,Net-(D11-Pad2)*%
X84800000Y-98100000D03*
X99100000Y-98100000D03*
%TO.N,Net-(D7-Pad2)*%
X46000000Y-87700000D03*
X62400000Y-87600000D03*
%TO.N,Net-(D5-Pad2)*%
X63600000Y-88800000D03*
X42600000Y-88400000D03*
%TO.N,Net-(D3-Pad2)*%
X84700000Y-124300000D03*
X59500000Y-123600000D03*
%TO.N,Net-(D14-Pad2)*%
X107300000Y-117900000D03*
X81600000Y-117900000D03*
%TO.N,Net-(D12-Pad2)*%
X131100000Y-111500000D03*
X104300000Y-112400000D03*
%TO.N,Net-(D6-Pad2)*%
X88300000Y-138300000D03*
X104400000Y-138100000D03*
%TO.N,Net-(D4-Pad2)*%
X63400000Y-141200000D03*
X81400000Y-141100000D03*
%TO.N,Net-(D2-Pad2)*%
X47800000Y-127400000D03*
X57900000Y-127400000D03*
%TO.N,/SIG_IN*%
X42500000Y-99900000D03*
%TO.N,GND*%
X46200000Y-96500000D03*
X61100000Y-96500000D03*
X86500000Y-96500000D03*
X107500000Y-96500000D03*
X124600000Y-96500000D03*
X129300000Y-96500000D03*
%TO.N,VCC*%
X56635000Y-95435000D03*
X62465000Y-95435000D03*
X79835000Y-95435000D03*
X100565000Y-95435000D03*
X120365000Y-95435000D03*
X126200000Y-95400000D03*
%TD*%
D17*
%TO.N,Net-(D5-Pad2)*%
X63600000Y-114350000D02*
X63600000Y-88800000D01*
X62000000Y-115950000D02*
X63600000Y-114350000D01*
D18*
%TO.N,GND*%
X65700000Y-88700978D02*
X64750489Y-89650489D01*
X65700000Y-85950000D02*
X65700000Y-88700978D01*
X64750489Y-89650489D02*
X64750489Y-96450489D01*
X64750489Y-96450489D02*
X64800000Y-96500000D01*
X45900000Y-85550000D02*
X45750000Y-85550000D01*
X45750000Y-85550000D02*
X44950489Y-86349511D01*
X44950489Y-86349511D02*
X44950489Y-95250489D01*
X44950489Y-95250489D02*
X46200000Y-96500000D01*
X51575000Y-96475000D02*
X51600000Y-96500000D01*
X51575000Y-86300000D02*
X51575000Y-96475000D01*
D17*
%TO.N,/SIG_OUT*%
X54225000Y-88900000D02*
X54115000Y-88790000D01*
X54115000Y-88790000D02*
X54115000Y-86300000D01*
%TO.N,Net-(D15-Pad2)*%
X123600000Y-90550000D02*
X123600000Y-92700000D01*
X52500000Y-88975000D02*
X52575000Y-88900000D01*
X52500000Y-94300000D02*
X52500000Y-88975000D01*
%TO.N,Net-(D13-Pad2)*%
X103800000Y-90950000D02*
X103800000Y-88600000D01*
X120300000Y-88500000D02*
X120400000Y-88400000D01*
X120400000Y-88400000D02*
X120400000Y-85650000D01*
D18*
%TO.N,GND*%
X103800000Y-86050000D02*
X107500000Y-89750000D01*
X107500000Y-89750000D02*
X107500000Y-96500000D01*
D17*
%TO.N,Net-(D11-Pad2)*%
X99100000Y-98100000D02*
X99100000Y-87550000D01*
X99100000Y-87550000D02*
X100600000Y-86050000D01*
X84800000Y-100750000D02*
X84800000Y-98100000D01*
%TO.N,Net-(D11-Pad4)*%
X65700000Y-90850000D02*
X69150020Y-94300020D01*
X69150020Y-94300020D02*
X80050020Y-94300020D01*
X80050020Y-94300020D02*
X81600000Y-95850000D01*
%TO.N,Net-(D7-Pad2)*%
X45900000Y-90450000D02*
X45900000Y-87800000D01*
X62400000Y-87600000D02*
X62400000Y-86050000D01*
X45900000Y-87800000D02*
X46000000Y-87700000D01*
X62400000Y-86050000D02*
X62500000Y-85950000D01*
%TO.N,Net-(D5-Pad2)*%
X42700000Y-88300000D02*
X42700000Y-85550000D01*
X42600000Y-88400000D02*
X42700000Y-88300000D01*
%TO.N,Net-(D3-Pad2)*%
X84700000Y-126650000D02*
X84700000Y-124300000D01*
X59500000Y-123600000D02*
X59599511Y-123500489D01*
X59599511Y-123500489D02*
X59599511Y-111849511D01*
X59599511Y-111849511D02*
X58800000Y-111050000D01*
%TO.N,Net-(D14-Pad2)*%
X107500000Y-115850000D02*
X107500000Y-117700000D01*
X107500000Y-117700000D02*
X107300000Y-117900000D01*
X81600000Y-117900000D02*
X81500000Y-118000000D01*
X81500000Y-118000000D02*
X81500000Y-121750000D01*
%TO.N,Net-(D12-Pad2)*%
X131200000Y-109450000D02*
X131200000Y-111400000D01*
X131200000Y-111400000D02*
X131100000Y-111500000D01*
X104300000Y-112400000D02*
X104300000Y-110950000D01*
%TO.N,Net-(D10-Pad2)*%
X123100000Y-127350000D02*
X123100000Y-127100000D01*
X123100000Y-127100000D02*
X127500000Y-122700000D01*
X127500000Y-122700000D02*
X127500000Y-111799022D01*
X128799511Y-110499511D02*
X128799511Y-105349511D01*
X127500000Y-111799022D02*
X128799511Y-110499511D01*
X128799511Y-105349511D02*
X128000000Y-104550000D01*
%TO.N,Net-(D10-Pad4)*%
X107500000Y-141150000D02*
X108200000Y-141150000D01*
X108200000Y-141150000D02*
X120699511Y-128650489D01*
X120699511Y-123249511D02*
X119900000Y-122450000D01*
X120699511Y-128650489D02*
X120699511Y-123249511D01*
%TO.N,Net-(D6-Pad2)*%
X84800000Y-152250000D02*
X88300000Y-148750000D01*
X88300000Y-148750000D02*
X88300000Y-138300000D01*
X104400000Y-138100000D02*
X104400000Y-136350000D01*
X104400000Y-136350000D02*
X104300000Y-136250000D01*
%TO.N,Net-(D4-Pad2)*%
X61900000Y-141150000D02*
X63350000Y-141150000D01*
X63350000Y-141150000D02*
X63400000Y-141200000D01*
X81400000Y-141100000D02*
X81600000Y-141300000D01*
X81600000Y-141300000D02*
X81600000Y-147350000D01*
%TO.N,Net-(D2-Pad2)*%
X46200000Y-127350000D02*
X47750000Y-127350000D01*
X47750000Y-127350000D02*
X47800000Y-127400000D01*
X58700000Y-128200000D02*
X58700000Y-136250000D01*
X57900000Y-127400000D02*
X58700000Y-128200000D01*
%TO.N,Net-(D1-Pad2)*%
X38300000Y-109450000D02*
X38300000Y-117750000D01*
X38300000Y-117750000D02*
X43000000Y-122450000D01*
%TO.N,Net-(D1-Pad4)*%
X44125000Y-98400000D02*
X44125000Y-100574022D01*
X44125000Y-100574022D02*
X39099511Y-105599511D01*
X39099511Y-105599511D02*
X36149511Y-105599511D01*
X36149511Y-105599511D02*
X35100000Y-104550000D01*
%TO.N,/SIG_IN*%
X42500000Y-98425000D02*
X42500000Y-99900000D01*
X42475000Y-98400000D02*
X42500000Y-98425000D01*
D18*
%TO.N,VCC*%
X43000000Y-127350000D02*
X44974520Y-125375480D01*
X44974520Y-125375480D02*
X44974520Y-96899520D01*
X44974520Y-96899520D02*
X43200000Y-95125000D01*
%TO.N,GND*%
X38300000Y-104550000D02*
X38300000Y-101615000D01*
X38300000Y-101615000D02*
X39400000Y-100515000D01*
X46200000Y-122450000D02*
X46200000Y-96500000D01*
X61050489Y-135400489D02*
X61050489Y-109150489D01*
X61050489Y-109150489D02*
X61050489Y-96549511D01*
X62000000Y-111050000D02*
X62000000Y-110100000D01*
X62000000Y-110100000D02*
X61050489Y-109150489D01*
X61900000Y-136250000D02*
X61050489Y-135400489D01*
X61050489Y-96549511D02*
X61100000Y-96500000D01*
X86500000Y-145650000D02*
X86500000Y-119900000D01*
X86500000Y-119900000D02*
X86500000Y-96500000D01*
X84700000Y-121750000D02*
X84700000Y-121700000D01*
X84700000Y-121700000D02*
X86500000Y-119900000D01*
X84800000Y-95850000D02*
X85850000Y-95850000D01*
X85850000Y-95850000D02*
X86500000Y-96500000D01*
X84800000Y-147350000D02*
X86500000Y-145650000D01*
X107500000Y-136250000D02*
X108449511Y-135300489D01*
X108449511Y-135300489D02*
X108449511Y-111899511D01*
X108449511Y-111899511D02*
X107500000Y-110950000D01*
X107500000Y-110950000D02*
X107500000Y-96500000D01*
X123100000Y-122450000D02*
X123100000Y-98000000D01*
X123100000Y-98000000D02*
X124600000Y-96500000D01*
X123600000Y-85650000D02*
X124600000Y-86650000D01*
X124600000Y-86650000D02*
X124600000Y-96500000D01*
X129300000Y-96500000D02*
X129300000Y-102650000D01*
X129300000Y-102650000D02*
X131200000Y-104550000D01*
%TO.N,VCC*%
X79835000Y-124985000D02*
X79835000Y-124565000D01*
X79835000Y-124565000D02*
X79835000Y-98435000D01*
X80250000Y-150900000D02*
X80250000Y-124980000D01*
X80250000Y-124980000D02*
X79835000Y-124565000D01*
X56635000Y-113785000D02*
X56635000Y-113165000D01*
X56635000Y-113165000D02*
X56635000Y-95435000D01*
X58700000Y-140900000D02*
X56635000Y-138835000D01*
X58700000Y-141150000D02*
X58700000Y-140900000D01*
X56635000Y-138835000D02*
X56635000Y-113165000D01*
X103350489Y-114900489D02*
X103350489Y-114250489D01*
X104300000Y-141150000D02*
X103350489Y-140200489D01*
X103350489Y-114250489D02*
X103350489Y-98220489D01*
X103350489Y-140200489D02*
X103350489Y-114250489D01*
X119900000Y-127350000D02*
X118950489Y-126400489D01*
X118950489Y-126400489D02*
X118950489Y-96849511D01*
X118950489Y-96849511D02*
X120365000Y-95435000D01*
X104300000Y-115850000D02*
X103350489Y-114900489D01*
X103350489Y-98220489D02*
X100565000Y-95435000D01*
X79835000Y-98985000D02*
X79835000Y-98435000D01*
X79835000Y-98435000D02*
X79835000Y-95435000D01*
X81500000Y-126650000D02*
X79835000Y-124985000D01*
X58800000Y-115950000D02*
X56635000Y-113785000D01*
X80250000Y-150900000D02*
X81600000Y-152250000D01*
X39400000Y-95435000D02*
X38100489Y-96734511D01*
X38100489Y-99400489D02*
X34150489Y-103350489D01*
X38100489Y-96734511D02*
X38100489Y-99400489D01*
X34150489Y-103350489D02*
X34150489Y-108500489D01*
X34150489Y-108500489D02*
X35100000Y-109450000D01*
X56655000Y-86300000D02*
X56655000Y-95415000D01*
X56655000Y-95415000D02*
X56635000Y-95435000D01*
X62500000Y-90850000D02*
X62500000Y-95400000D01*
X62500000Y-95400000D02*
X62465000Y-95435000D01*
X81600000Y-100750000D02*
X79835000Y-98985000D01*
X100600000Y-90950000D02*
X100600000Y-95400000D01*
X100600000Y-95400000D02*
X100565000Y-95435000D01*
X120400000Y-90550000D02*
X120400000Y-95400000D01*
X120400000Y-95400000D02*
X120365000Y-95435000D01*
X126200000Y-95400000D02*
X126200000Y-107650000D01*
X126200000Y-107650000D02*
X128000000Y-109450000D01*
X43200000Y-95125000D02*
X43200000Y-90950000D01*
X43200000Y-90950000D02*
X42700000Y-90450000D01*
%TO.N,GND*%
X41800000Y-96480000D02*
X43005000Y-96480000D01*
X43005000Y-96480000D02*
X43200000Y-96675000D01*
X39400000Y-100515000D02*
X40699511Y-99215489D01*
X40699511Y-99215489D02*
X40699511Y-97580489D01*
X40699511Y-97580489D02*
X41800000Y-96480000D01*
%TO.N,VCC*%
X39400000Y-95435000D02*
X42890000Y-95435000D01*
X42890000Y-95435000D02*
X43200000Y-95125000D01*
%TD*%
%TA.AperFunction,Conductor*%
%TO.N,GND*%
G36*
X122566560Y-84584369D02*
G01*
X122614269Y-84636946D01*
X122625979Y-84706971D01*
X122618866Y-84736129D01*
X122601522Y-84782394D01*
X122597895Y-84797649D01*
X122592369Y-84848514D01*
X122592000Y-84855328D01*
X122592000Y-85377885D01*
X122596475Y-85393124D01*
X122597865Y-85394329D01*
X122605548Y-85396000D01*
X124589884Y-85396000D01*
X124605123Y-85391525D01*
X124606328Y-85390135D01*
X124607999Y-85382452D01*
X124607999Y-85029157D01*
X124628001Y-84961036D01*
X124681657Y-84914543D01*
X124751931Y-84904439D01*
X124816511Y-84933933D01*
X124850694Y-84981637D01*
X132332718Y-103355214D01*
X132358196Y-103417781D01*
X132365363Y-103488415D01*
X132333204Y-103551710D01*
X132271930Y-103587571D01*
X132200995Y-103584613D01*
X132140675Y-103540866D01*
X132068285Y-103444276D01*
X132055724Y-103431715D01*
X131953649Y-103355214D01*
X131938054Y-103346676D01*
X131817606Y-103301522D01*
X131802351Y-103297895D01*
X131751486Y-103292369D01*
X131744672Y-103292000D01*
X131472115Y-103292000D01*
X131456876Y-103296475D01*
X131455671Y-103297865D01*
X131454000Y-103305548D01*
X131454000Y-105789884D01*
X131458475Y-105805123D01*
X131459865Y-105806328D01*
X131467548Y-105807999D01*
X131744669Y-105807999D01*
X131751490Y-105807629D01*
X131802352Y-105802105D01*
X131817604Y-105798479D01*
X131938054Y-105753324D01*
X131953649Y-105744786D01*
X132055724Y-105668285D01*
X132068285Y-105655724D01*
X132144788Y-105553646D01*
X132154980Y-105535030D01*
X132205238Y-105484884D01*
X132274629Y-105469870D01*
X132341122Y-105494755D01*
X132383605Y-105551638D01*
X132391500Y-105595539D01*
X132391500Y-108403408D01*
X132371498Y-108471529D01*
X132317842Y-108518022D01*
X132247568Y-108528126D01*
X132182988Y-108498632D01*
X132154981Y-108463918D01*
X132153764Y-108461696D01*
X132150615Y-108453295D01*
X132063261Y-108336739D01*
X131946705Y-108249385D01*
X131810316Y-108198255D01*
X131748134Y-108191500D01*
X130651866Y-108191500D01*
X130589684Y-108198255D01*
X130453295Y-108249385D01*
X130336739Y-108336739D01*
X130249385Y-108453295D01*
X130198255Y-108589684D01*
X130191500Y-108651866D01*
X130191500Y-110248134D01*
X130198255Y-110310316D01*
X130249385Y-110446705D01*
X130336739Y-110563261D01*
X130395830Y-110607547D01*
X130453295Y-110650615D01*
X130451535Y-110652963D01*
X130491207Y-110692720D01*
X130506225Y-110762110D01*
X130481344Y-110828604D01*
X130474194Y-110837297D01*
X130360960Y-110963056D01*
X130265473Y-111128444D01*
X130206458Y-111310072D01*
X130205768Y-111316633D01*
X130205768Y-111316635D01*
X130197327Y-111396947D01*
X130186496Y-111500000D01*
X130206458Y-111689928D01*
X130265473Y-111871556D01*
X130268776Y-111877278D01*
X130268777Y-111877279D01*
X130275769Y-111889389D01*
X130360960Y-112036944D01*
X130365378Y-112041851D01*
X130365379Y-112041852D01*
X130391346Y-112070691D01*
X130488747Y-112178866D01*
X130643248Y-112291118D01*
X130649276Y-112293802D01*
X130649278Y-112293803D01*
X130727214Y-112328502D01*
X130817712Y-112368794D01*
X130911112Y-112388647D01*
X130998056Y-112407128D01*
X130998061Y-112407128D01*
X131004513Y-112408500D01*
X131195487Y-112408500D01*
X131201939Y-112407128D01*
X131201944Y-112407128D01*
X131288888Y-112388647D01*
X131382288Y-112368794D01*
X131556752Y-112291118D01*
X131557197Y-112292118D01*
X131620059Y-112276872D01*
X131687150Y-112300096D01*
X131731034Y-112355906D01*
X131737779Y-112426581D01*
X131728852Y-112454671D01*
X128372800Y-119871133D01*
X128349294Y-119923079D01*
X128302987Y-119976895D01*
X128234936Y-119997132D01*
X128166746Y-119977366D01*
X128120068Y-119923871D01*
X128108500Y-119871133D01*
X128108500Y-112103261D01*
X128128502Y-112035140D01*
X128145405Y-112014166D01*
X129195745Y-110963826D01*
X129208136Y-110952959D01*
X129226948Y-110938524D01*
X129233498Y-110933498D01*
X129257985Y-110901586D01*
X129257991Y-110901580D01*
X129326007Y-110812940D01*
X129326008Y-110812938D01*
X129331035Y-110806387D01*
X129392349Y-110658362D01*
X129399039Y-110607547D01*
X129408011Y-110539396D01*
X129408011Y-110539391D01*
X129413261Y-110499511D01*
X129409089Y-110467818D01*
X129408011Y-110451375D01*
X129408011Y-105397647D01*
X129409089Y-105381201D01*
X129412183Y-105357699D01*
X129413261Y-105349511D01*
X129412624Y-105344669D01*
X130192001Y-105344669D01*
X130192371Y-105351490D01*
X130197895Y-105402352D01*
X130201521Y-105417604D01*
X130246676Y-105538054D01*
X130255214Y-105553649D01*
X130331715Y-105655724D01*
X130344276Y-105668285D01*
X130446351Y-105744786D01*
X130461946Y-105753324D01*
X130582394Y-105798478D01*
X130597649Y-105802105D01*
X130648514Y-105807631D01*
X130655328Y-105808000D01*
X130927885Y-105808000D01*
X130943124Y-105803525D01*
X130944329Y-105802135D01*
X130946000Y-105794452D01*
X130946000Y-104822115D01*
X130941525Y-104806876D01*
X130940135Y-104805671D01*
X130932452Y-104804000D01*
X130210116Y-104804000D01*
X130194877Y-104808475D01*
X130193672Y-104809865D01*
X130192001Y-104817548D01*
X130192001Y-105344669D01*
X129412624Y-105344669D01*
X129408011Y-105309633D01*
X129408011Y-105309626D01*
X129392349Y-105190661D01*
X129331035Y-105042636D01*
X129326008Y-105036085D01*
X129326006Y-105036081D01*
X129311233Y-105016829D01*
X129257994Y-104947447D01*
X129257988Y-104947439D01*
X129257985Y-104947436D01*
X129233498Y-104915524D01*
X129226943Y-104910494D01*
X129208132Y-104896059D01*
X129195741Y-104885192D01*
X129045405Y-104734856D01*
X129011379Y-104672544D01*
X129008500Y-104645761D01*
X129008500Y-104277885D01*
X130192000Y-104277885D01*
X130196475Y-104293124D01*
X130197865Y-104294329D01*
X130205548Y-104296000D01*
X130927885Y-104296000D01*
X130943124Y-104291525D01*
X130944329Y-104290135D01*
X130946000Y-104282452D01*
X130946000Y-103310116D01*
X130941525Y-103294877D01*
X130940135Y-103293672D01*
X130932452Y-103292001D01*
X130655331Y-103292001D01*
X130648510Y-103292371D01*
X130597648Y-103297895D01*
X130582396Y-103301521D01*
X130461946Y-103346676D01*
X130446351Y-103355214D01*
X130344276Y-103431715D01*
X130331715Y-103444276D01*
X130255214Y-103546351D01*
X130246676Y-103561946D01*
X130201522Y-103682394D01*
X130197895Y-103697649D01*
X130192369Y-103748514D01*
X130192000Y-103755328D01*
X130192000Y-104277885D01*
X129008500Y-104277885D01*
X129008500Y-103751866D01*
X129001745Y-103689684D01*
X128950615Y-103553295D01*
X128863261Y-103436739D01*
X128746705Y-103349385D01*
X128610316Y-103298255D01*
X128548134Y-103291500D01*
X127451866Y-103291500D01*
X127389684Y-103298255D01*
X127253295Y-103349385D01*
X127213943Y-103378878D01*
X127160065Y-103419257D01*
X127093559Y-103444105D01*
X127024176Y-103429052D01*
X126973946Y-103378878D01*
X126958500Y-103318431D01*
X126958500Y-95936999D01*
X126975381Y-95873999D01*
X127031223Y-95777279D01*
X127031224Y-95777278D01*
X127034527Y-95771556D01*
X127093542Y-95589928D01*
X127113504Y-95400000D01*
X127098488Y-95257128D01*
X127094232Y-95216635D01*
X127094232Y-95216633D01*
X127093542Y-95210072D01*
X127034527Y-95028444D01*
X127016748Y-94997649D01*
X126994215Y-94958622D01*
X126939040Y-94863056D01*
X126915921Y-94837379D01*
X126815675Y-94726045D01*
X126815674Y-94726044D01*
X126811253Y-94721134D01*
X126689661Y-94632792D01*
X126662094Y-94612763D01*
X126662093Y-94612762D01*
X126656752Y-94608882D01*
X126650724Y-94606198D01*
X126650722Y-94606197D01*
X126488319Y-94533891D01*
X126488318Y-94533891D01*
X126482288Y-94531206D01*
X126388887Y-94511353D01*
X126301944Y-94492872D01*
X126301939Y-94492872D01*
X126295487Y-94491500D01*
X126104513Y-94491500D01*
X126098061Y-94492872D01*
X126098056Y-94492872D01*
X126011112Y-94511353D01*
X125917712Y-94531206D01*
X125911682Y-94533891D01*
X125911681Y-94533891D01*
X125749278Y-94606197D01*
X125749276Y-94606198D01*
X125743248Y-94608882D01*
X125737907Y-94612762D01*
X125737906Y-94612763D01*
X125710339Y-94632792D01*
X125588747Y-94721134D01*
X125584326Y-94726044D01*
X125584325Y-94726045D01*
X125484080Y-94837379D01*
X125460960Y-94863056D01*
X125405785Y-94958622D01*
X125383253Y-94997649D01*
X125365473Y-95028444D01*
X125306458Y-95210072D01*
X125305768Y-95216633D01*
X125305768Y-95216635D01*
X125301512Y-95257128D01*
X125286496Y-95400000D01*
X125306458Y-95589928D01*
X125365473Y-95771556D01*
X125368776Y-95777278D01*
X125368777Y-95777279D01*
X125424619Y-95873999D01*
X125441500Y-95936999D01*
X125441500Y-107582930D01*
X125440067Y-107601880D01*
X125436801Y-107623349D01*
X125437394Y-107630641D01*
X125437394Y-107630644D01*
X125441085Y-107676018D01*
X125441500Y-107686233D01*
X125441500Y-107694293D01*
X125441925Y-107697937D01*
X125444789Y-107722507D01*
X125445222Y-107726882D01*
X125451140Y-107799637D01*
X125453396Y-107806601D01*
X125454587Y-107812560D01*
X125455971Y-107818415D01*
X125456818Y-107825681D01*
X125481735Y-107894327D01*
X125483152Y-107898455D01*
X125505649Y-107967899D01*
X125509445Y-107974154D01*
X125511951Y-107979628D01*
X125514670Y-107985058D01*
X125517167Y-107991937D01*
X125521180Y-107998057D01*
X125521180Y-107998058D01*
X125557186Y-108052976D01*
X125559523Y-108056680D01*
X125597405Y-108119107D01*
X125601121Y-108123315D01*
X125601122Y-108123316D01*
X125604803Y-108127484D01*
X125604776Y-108127508D01*
X125607429Y-108130500D01*
X125610132Y-108133733D01*
X125614144Y-108139852D01*
X125619456Y-108144884D01*
X125670383Y-108193128D01*
X125672825Y-108195506D01*
X126954595Y-109477276D01*
X126988621Y-109539588D01*
X126991500Y-109566371D01*
X126991500Y-110248134D01*
X126998255Y-110310316D01*
X127049385Y-110446705D01*
X127136739Y-110563261D01*
X127253295Y-110650615D01*
X127389684Y-110701745D01*
X127426983Y-110705797D01*
X127441278Y-110707350D01*
X127506840Y-110734592D01*
X127547266Y-110792955D01*
X127549721Y-110863909D01*
X127516765Y-110921708D01*
X127103766Y-111334707D01*
X127091375Y-111345574D01*
X127066013Y-111365035D01*
X127041526Y-111396947D01*
X127041523Y-111396950D01*
X127041517Y-111396958D01*
X127002787Y-111447432D01*
X126968476Y-111492146D01*
X126907162Y-111640171D01*
X126907162Y-111640172D01*
X126905414Y-111653448D01*
X126900515Y-111690661D01*
X126891500Y-111759137D01*
X126891500Y-111759142D01*
X126886250Y-111799022D01*
X126888697Y-111817606D01*
X126890422Y-111830712D01*
X126891500Y-111847158D01*
X126891500Y-122395761D01*
X126871498Y-122463882D01*
X126854595Y-122484856D01*
X123284856Y-126054595D01*
X123222544Y-126088621D01*
X123195761Y-126091500D01*
X122551866Y-126091500D01*
X122489684Y-126098255D01*
X122353295Y-126149385D01*
X122236739Y-126236739D01*
X122149385Y-126353295D01*
X122098255Y-126489684D01*
X122091500Y-126551866D01*
X122091500Y-128148134D01*
X122098255Y-128210316D01*
X122149385Y-128346705D01*
X122236739Y-128463261D01*
X122353295Y-128550615D01*
X122489684Y-128601745D01*
X122551866Y-128608500D01*
X123648134Y-128608500D01*
X123710316Y-128601745D01*
X123846705Y-128550615D01*
X123963261Y-128463261D01*
X124050615Y-128346705D01*
X124101745Y-128210316D01*
X124108500Y-128148134D01*
X124108500Y-127004239D01*
X124128502Y-126936118D01*
X124145405Y-126915144D01*
X125555797Y-125504752D01*
X125618109Y-125470726D01*
X125688924Y-125475791D01*
X125745760Y-125518338D01*
X125770571Y-125584858D01*
X125759686Y-125645793D01*
X125705123Y-125766371D01*
X124396315Y-128658678D01*
X124393134Y-128665707D01*
X124361526Y-128708397D01*
X109101230Y-142121906D01*
X108827663Y-142362366D01*
X108800041Y-142380815D01*
X89088573Y-152065144D01*
X86008112Y-153578588D01*
X85952551Y-153591500D01*
X85736941Y-153591500D01*
X85668820Y-153571498D01*
X85622327Y-153517842D01*
X85612223Y-153447568D01*
X85641717Y-153382988D01*
X85650005Y-153375266D01*
X85649731Y-153374992D01*
X85656081Y-153368642D01*
X85663261Y-153363261D01*
X85750615Y-153246705D01*
X85801745Y-153110316D01*
X85808500Y-153048134D01*
X85808500Y-152154239D01*
X85828502Y-152086118D01*
X85845405Y-152065144D01*
X88696234Y-149214315D01*
X88708625Y-149203448D01*
X88727437Y-149189013D01*
X88733987Y-149183987D01*
X88758474Y-149152075D01*
X88758477Y-149152072D01*
X88831523Y-149056876D01*
X88831524Y-149056875D01*
X88892838Y-148908850D01*
X88908500Y-148789885D01*
X88908500Y-148789878D01*
X88913750Y-148750000D01*
X88909578Y-148718307D01*
X88908500Y-148701864D01*
X88908500Y-139030290D01*
X88928502Y-138962169D01*
X88940864Y-138945980D01*
X89034621Y-138841852D01*
X89034622Y-138841851D01*
X89039040Y-138836944D01*
X89134527Y-138671556D01*
X89193542Y-138489928D01*
X89194872Y-138477279D01*
X89212814Y-138306565D01*
X89213504Y-138300000D01*
X89193542Y-138110072D01*
X89134527Y-137928444D01*
X89039040Y-137763056D01*
X88911253Y-137621134D01*
X88756752Y-137508882D01*
X88750724Y-137506198D01*
X88750722Y-137506197D01*
X88588319Y-137433891D01*
X88588318Y-137433891D01*
X88582288Y-137431206D01*
X88488888Y-137411353D01*
X88401944Y-137392872D01*
X88401939Y-137392872D01*
X88395487Y-137391500D01*
X88204513Y-137391500D01*
X88198061Y-137392872D01*
X88198056Y-137392872D01*
X88111112Y-137411353D01*
X88017712Y-137431206D01*
X88011682Y-137433891D01*
X88011681Y-137433891D01*
X87849278Y-137506197D01*
X87849276Y-137506198D01*
X87843248Y-137508882D01*
X87688747Y-137621134D01*
X87560960Y-137763056D01*
X87465473Y-137928444D01*
X87406458Y-138110072D01*
X87386496Y-138300000D01*
X87387186Y-138306565D01*
X87405129Y-138477279D01*
X87406458Y-138489928D01*
X87465473Y-138671556D01*
X87560960Y-138836944D01*
X87565378Y-138841851D01*
X87565379Y-138841852D01*
X87659136Y-138945980D01*
X87689854Y-139009987D01*
X87691500Y-139030290D01*
X87691500Y-148445761D01*
X87671498Y-148513882D01*
X87654595Y-148534856D01*
X85234856Y-150954595D01*
X85172544Y-150988621D01*
X85145761Y-150991500D01*
X84251866Y-150991500D01*
X84189684Y-150998255D01*
X84053295Y-151049385D01*
X83936739Y-151136739D01*
X83849385Y-151253295D01*
X83798255Y-151389684D01*
X83791500Y-151451866D01*
X83791500Y-153048134D01*
X83798255Y-153110316D01*
X83849385Y-153246705D01*
X83936739Y-153363261D01*
X83943919Y-153368642D01*
X83950269Y-153374992D01*
X83948022Y-153377239D01*
X83981143Y-153421544D01*
X83986162Y-153492363D01*
X83952097Y-153554653D01*
X83889762Y-153588638D01*
X83863059Y-153591500D01*
X82536941Y-153591500D01*
X82468820Y-153571498D01*
X82422327Y-153517842D01*
X82412223Y-153447568D01*
X82441717Y-153382988D01*
X82450005Y-153375266D01*
X82449731Y-153374992D01*
X82456081Y-153368642D01*
X82463261Y-153363261D01*
X82550615Y-153246705D01*
X82601745Y-153110316D01*
X82608500Y-153048134D01*
X82608500Y-151451866D01*
X82601745Y-151389684D01*
X82550615Y-151253295D01*
X82463261Y-151136739D01*
X82346705Y-151049385D01*
X82210316Y-150998255D01*
X82148134Y-150991500D01*
X81466371Y-150991500D01*
X81398250Y-150971498D01*
X81377276Y-150954595D01*
X81045405Y-150622724D01*
X81011379Y-150560412D01*
X81008500Y-150533629D01*
X81008500Y-148734500D01*
X81028502Y-148666379D01*
X81082158Y-148619886D01*
X81134500Y-148608500D01*
X82148134Y-148608500D01*
X82210316Y-148601745D01*
X82346705Y-148550615D01*
X82463261Y-148463261D01*
X82550615Y-148346705D01*
X82601745Y-148210316D01*
X82608500Y-148148134D01*
X82608500Y-148144669D01*
X83792001Y-148144669D01*
X83792371Y-148151490D01*
X83797895Y-148202352D01*
X83801521Y-148217604D01*
X83846676Y-148338054D01*
X83855214Y-148353649D01*
X83931715Y-148455724D01*
X83944276Y-148468285D01*
X84046351Y-148544786D01*
X84061946Y-148553324D01*
X84182394Y-148598478D01*
X84197649Y-148602105D01*
X84248514Y-148607631D01*
X84255328Y-148608000D01*
X84527885Y-148608000D01*
X84543124Y-148603525D01*
X84544329Y-148602135D01*
X84546000Y-148594452D01*
X84546000Y-148589884D01*
X85054000Y-148589884D01*
X85058475Y-148605123D01*
X85059865Y-148606328D01*
X85067548Y-148607999D01*
X85344669Y-148607999D01*
X85351490Y-148607629D01*
X85402352Y-148602105D01*
X85417604Y-148598479D01*
X85538054Y-148553324D01*
X85553649Y-148544786D01*
X85655724Y-148468285D01*
X85668285Y-148455724D01*
X85744786Y-148353649D01*
X85753324Y-148338054D01*
X85798478Y-148217606D01*
X85802105Y-148202351D01*
X85807631Y-148151486D01*
X85808000Y-148144672D01*
X85808000Y-147622115D01*
X85803525Y-147606876D01*
X85802135Y-147605671D01*
X85794452Y-147604000D01*
X85072115Y-147604000D01*
X85056876Y-147608475D01*
X85055671Y-147609865D01*
X85054000Y-147617548D01*
X85054000Y-148589884D01*
X84546000Y-148589884D01*
X84546000Y-147622115D01*
X84541525Y-147606876D01*
X84540135Y-147605671D01*
X84532452Y-147604000D01*
X83810116Y-147604000D01*
X83794877Y-147608475D01*
X83793672Y-147609865D01*
X83792001Y-147617548D01*
X83792001Y-148144669D01*
X82608500Y-148144669D01*
X82608500Y-147077885D01*
X83792000Y-147077885D01*
X83796475Y-147093124D01*
X83797865Y-147094329D01*
X83805548Y-147096000D01*
X84527885Y-147096000D01*
X84543124Y-147091525D01*
X84544329Y-147090135D01*
X84546000Y-147082452D01*
X84546000Y-147077885D01*
X85054000Y-147077885D01*
X85058475Y-147093124D01*
X85059865Y-147094329D01*
X85067548Y-147096000D01*
X85789884Y-147096000D01*
X85805123Y-147091525D01*
X85806328Y-147090135D01*
X85807999Y-147082452D01*
X85807999Y-146555331D01*
X85807629Y-146548510D01*
X85802105Y-146497648D01*
X85798479Y-146482396D01*
X85753324Y-146361946D01*
X85744786Y-146346351D01*
X85668285Y-146244276D01*
X85655724Y-146231715D01*
X85553649Y-146155214D01*
X85538054Y-146146676D01*
X85417606Y-146101522D01*
X85402351Y-146097895D01*
X85351486Y-146092369D01*
X85344672Y-146092000D01*
X85072115Y-146092000D01*
X85056876Y-146096475D01*
X85055671Y-146097865D01*
X85054000Y-146105548D01*
X85054000Y-147077885D01*
X84546000Y-147077885D01*
X84546000Y-146110116D01*
X84541525Y-146094877D01*
X84540135Y-146093672D01*
X84532452Y-146092001D01*
X84255331Y-146092001D01*
X84248510Y-146092371D01*
X84197648Y-146097895D01*
X84182396Y-146101521D01*
X84061946Y-146146676D01*
X84046351Y-146155214D01*
X83944276Y-146231715D01*
X83931715Y-146244276D01*
X83855214Y-146346351D01*
X83846676Y-146361946D01*
X83801522Y-146482394D01*
X83797895Y-146497649D01*
X83792369Y-146548514D01*
X83792000Y-146555328D01*
X83792000Y-147077885D01*
X82608500Y-147077885D01*
X82608500Y-146551866D01*
X82601745Y-146489684D01*
X82550615Y-146353295D01*
X82463261Y-146236739D01*
X82346705Y-146149385D01*
X82336092Y-146145406D01*
X82290270Y-146128228D01*
X82233505Y-146085586D01*
X82208806Y-146019024D01*
X82208500Y-146010246D01*
X82208500Y-141550397D01*
X82225380Y-141487398D01*
X82234527Y-141471556D01*
X82293542Y-141289928D01*
X82313504Y-141100000D01*
X82304052Y-141010072D01*
X82294232Y-140916635D01*
X82294232Y-140916633D01*
X82293542Y-140910072D01*
X82234527Y-140728444D01*
X82215434Y-140695373D01*
X82196775Y-140663056D01*
X82139040Y-140563056D01*
X82011253Y-140421134D01*
X81911239Y-140348469D01*
X81862094Y-140312763D01*
X81862093Y-140312762D01*
X81856752Y-140308882D01*
X81850724Y-140306198D01*
X81850722Y-140306197D01*
X81688319Y-140233891D01*
X81688318Y-140233891D01*
X81682288Y-140231206D01*
X81588887Y-140211353D01*
X81501944Y-140192872D01*
X81501939Y-140192872D01*
X81495487Y-140191500D01*
X81304513Y-140191500D01*
X81298061Y-140192872D01*
X81298056Y-140192872D01*
X81160697Y-140222069D01*
X81089906Y-140216667D01*
X81033274Y-140173850D01*
X81008780Y-140107212D01*
X81008500Y-140098822D01*
X81008500Y-128034500D01*
X81028502Y-127966379D01*
X81082158Y-127919886D01*
X81134500Y-127908500D01*
X82048134Y-127908500D01*
X82110316Y-127901745D01*
X82246705Y-127850615D01*
X82363261Y-127763261D01*
X82450615Y-127646705D01*
X82501745Y-127510316D01*
X82508500Y-127448134D01*
X83691500Y-127448134D01*
X83698255Y-127510316D01*
X83749385Y-127646705D01*
X83836739Y-127763261D01*
X83953295Y-127850615D01*
X84089684Y-127901745D01*
X84151866Y-127908500D01*
X85248134Y-127908500D01*
X85310316Y-127901745D01*
X85446705Y-127850615D01*
X85563261Y-127763261D01*
X85650615Y-127646705D01*
X85701745Y-127510316D01*
X85708500Y-127448134D01*
X85708500Y-125851866D01*
X85701745Y-125789684D01*
X85650615Y-125653295D01*
X85563261Y-125536739D01*
X85446705Y-125449385D01*
X85411129Y-125436048D01*
X85390270Y-125428228D01*
X85333505Y-125385586D01*
X85308806Y-125319024D01*
X85308500Y-125310246D01*
X85308500Y-125030290D01*
X85328502Y-124962169D01*
X85340864Y-124945980D01*
X85434621Y-124841852D01*
X85434622Y-124841851D01*
X85439040Y-124836944D01*
X85534527Y-124671556D01*
X85593542Y-124489928D01*
X85596046Y-124466109D01*
X85612814Y-124306565D01*
X85613504Y-124300000D01*
X85596882Y-124141852D01*
X85594232Y-124116635D01*
X85594232Y-124116633D01*
X85593542Y-124110072D01*
X85534527Y-123928444D01*
X85439040Y-123763056D01*
X85407928Y-123728502D01*
X85315675Y-123626045D01*
X85315674Y-123626044D01*
X85311253Y-123621134D01*
X85156752Y-123508882D01*
X85150724Y-123506198D01*
X85150722Y-123506197D01*
X84988319Y-123433891D01*
X84988318Y-123433891D01*
X84982288Y-123431206D01*
X84882861Y-123410072D01*
X84801944Y-123392872D01*
X84801939Y-123392872D01*
X84795487Y-123391500D01*
X84604513Y-123391500D01*
X84598061Y-123392872D01*
X84598056Y-123392872D01*
X84517139Y-123410072D01*
X84417712Y-123431206D01*
X84411682Y-123433891D01*
X84411681Y-123433891D01*
X84249278Y-123506197D01*
X84249276Y-123506198D01*
X84243248Y-123508882D01*
X84088747Y-123621134D01*
X84084326Y-123626044D01*
X84084325Y-123626045D01*
X83992073Y-123728502D01*
X83960960Y-123763056D01*
X83865473Y-123928444D01*
X83806458Y-124110072D01*
X83805768Y-124116633D01*
X83805768Y-124116635D01*
X83803118Y-124141852D01*
X83786496Y-124300000D01*
X83787186Y-124306565D01*
X83803955Y-124466109D01*
X83806458Y-124489928D01*
X83865473Y-124671556D01*
X83960960Y-124836944D01*
X83965378Y-124841851D01*
X83965379Y-124841852D01*
X84059136Y-124945980D01*
X84089854Y-125009987D01*
X84091500Y-125030290D01*
X84091500Y-125310246D01*
X84071498Y-125378367D01*
X84017842Y-125424860D01*
X84009730Y-125428228D01*
X83988871Y-125436048D01*
X83953295Y-125449385D01*
X83836739Y-125536739D01*
X83749385Y-125653295D01*
X83698255Y-125789684D01*
X83691500Y-125851866D01*
X83691500Y-127448134D01*
X82508500Y-127448134D01*
X82508500Y-125851866D01*
X82501745Y-125789684D01*
X82450615Y-125653295D01*
X82363261Y-125536739D01*
X82246705Y-125449385D01*
X82110316Y-125398255D01*
X82048134Y-125391500D01*
X81366371Y-125391500D01*
X81298250Y-125371498D01*
X81277276Y-125354595D01*
X81047180Y-125124499D01*
X81013154Y-125062187D01*
X81011858Y-125021207D01*
X81011843Y-125021206D01*
X81011851Y-125020978D01*
X81011708Y-125016458D01*
X81012098Y-125013892D01*
X81012098Y-125013887D01*
X81013199Y-125006651D01*
X81008915Y-124953982D01*
X81008500Y-124943767D01*
X81008500Y-124935707D01*
X81005209Y-124907480D01*
X81004778Y-124903121D01*
X80999454Y-124837662D01*
X80999453Y-124837659D01*
X80998860Y-124830364D01*
X80996604Y-124823400D01*
X80995417Y-124817461D01*
X80994030Y-124811590D01*
X80993182Y-124804319D01*
X80990686Y-124797443D01*
X80990684Y-124797434D01*
X80968275Y-124735702D01*
X80966865Y-124731598D01*
X80944352Y-124662101D01*
X80940556Y-124655846D01*
X80938057Y-124650387D01*
X80935329Y-124644939D01*
X80932833Y-124638063D01*
X80892805Y-124577010D01*
X80890481Y-124573327D01*
X80855504Y-124515686D01*
X80855501Y-124515682D01*
X80852595Y-124510893D01*
X80845197Y-124502517D01*
X80845224Y-124502493D01*
X80842580Y-124499512D01*
X80839872Y-124496273D01*
X80835856Y-124490148D01*
X80779620Y-124436874D01*
X80777179Y-124434498D01*
X80630405Y-124287725D01*
X80596380Y-124225413D01*
X80593500Y-124198629D01*
X80593500Y-123072509D01*
X80613502Y-123004388D01*
X80667158Y-122957895D01*
X80737432Y-122947791D01*
X80763729Y-122954527D01*
X80882282Y-122998971D01*
X80882288Y-122998973D01*
X80889684Y-123001745D01*
X80951866Y-123008500D01*
X82048134Y-123008500D01*
X82110316Y-123001745D01*
X82246705Y-122950615D01*
X82363261Y-122863261D01*
X82450615Y-122746705D01*
X82501745Y-122610316D01*
X82508500Y-122548134D01*
X82508500Y-122544669D01*
X83692001Y-122544669D01*
X83692371Y-122551490D01*
X83697895Y-122602352D01*
X83701521Y-122617604D01*
X83746676Y-122738054D01*
X83755214Y-122753649D01*
X83831715Y-122855724D01*
X83844276Y-122868285D01*
X83946351Y-122944786D01*
X83961946Y-122953324D01*
X84082394Y-122998478D01*
X84097649Y-123002105D01*
X84148514Y-123007631D01*
X84155328Y-123008000D01*
X84427885Y-123008000D01*
X84443124Y-123003525D01*
X84444329Y-123002135D01*
X84446000Y-122994452D01*
X84446000Y-122989884D01*
X84954000Y-122989884D01*
X84958475Y-123005123D01*
X84959865Y-123006328D01*
X84967548Y-123007999D01*
X85244669Y-123007999D01*
X85251490Y-123007629D01*
X85302352Y-123002105D01*
X85317604Y-122998479D01*
X85438054Y-122953324D01*
X85453649Y-122944786D01*
X85555724Y-122868285D01*
X85568285Y-122855724D01*
X85644786Y-122753649D01*
X85653324Y-122738054D01*
X85698478Y-122617606D01*
X85702105Y-122602351D01*
X85707631Y-122551486D01*
X85708000Y-122544672D01*
X85708000Y-122022115D01*
X85703525Y-122006876D01*
X85702135Y-122005671D01*
X85694452Y-122004000D01*
X84972115Y-122004000D01*
X84956876Y-122008475D01*
X84955671Y-122009865D01*
X84954000Y-122017548D01*
X84954000Y-122989884D01*
X84446000Y-122989884D01*
X84446000Y-122022115D01*
X84441525Y-122006876D01*
X84440135Y-122005671D01*
X84432452Y-122004000D01*
X83710116Y-122004000D01*
X83694877Y-122008475D01*
X83693672Y-122009865D01*
X83692001Y-122017548D01*
X83692001Y-122544669D01*
X82508500Y-122544669D01*
X82508500Y-121477885D01*
X83692000Y-121477885D01*
X83696475Y-121493124D01*
X83697865Y-121494329D01*
X83705548Y-121496000D01*
X84427885Y-121496000D01*
X84443124Y-121491525D01*
X84444329Y-121490135D01*
X84446000Y-121482452D01*
X84446000Y-121477885D01*
X84954000Y-121477885D01*
X84958475Y-121493124D01*
X84959865Y-121494329D01*
X84967548Y-121496000D01*
X85689884Y-121496000D01*
X85705123Y-121491525D01*
X85706328Y-121490135D01*
X85707999Y-121482452D01*
X85707999Y-120955331D01*
X85707629Y-120948510D01*
X85702105Y-120897648D01*
X85698479Y-120882396D01*
X85653324Y-120761946D01*
X85644786Y-120746351D01*
X85568285Y-120644276D01*
X85555724Y-120631715D01*
X85453649Y-120555214D01*
X85438054Y-120546676D01*
X85317606Y-120501522D01*
X85302351Y-120497895D01*
X85251486Y-120492369D01*
X85244672Y-120492000D01*
X84972115Y-120492000D01*
X84956876Y-120496475D01*
X84955671Y-120497865D01*
X84954000Y-120505548D01*
X84954000Y-121477885D01*
X84446000Y-121477885D01*
X84446000Y-120510116D01*
X84441525Y-120494877D01*
X84440135Y-120493672D01*
X84432452Y-120492001D01*
X84155331Y-120492001D01*
X84148510Y-120492371D01*
X84097648Y-120497895D01*
X84082396Y-120501521D01*
X83961946Y-120546676D01*
X83946351Y-120555214D01*
X83844276Y-120631715D01*
X83831715Y-120644276D01*
X83755214Y-120746351D01*
X83746676Y-120761946D01*
X83701522Y-120882394D01*
X83697895Y-120897649D01*
X83692369Y-120948514D01*
X83692000Y-120955328D01*
X83692000Y-121477885D01*
X82508500Y-121477885D01*
X82508500Y-120951866D01*
X82501745Y-120889684D01*
X82450615Y-120753295D01*
X82363261Y-120636739D01*
X82246705Y-120549385D01*
X82236092Y-120545406D01*
X82190270Y-120528228D01*
X82133505Y-120485586D01*
X82108806Y-120419024D01*
X82108500Y-120410246D01*
X82108500Y-118717721D01*
X82128502Y-118649600D01*
X82160436Y-118615787D01*
X82211253Y-118578866D01*
X82339040Y-118436944D01*
X82434527Y-118271556D01*
X82493542Y-118089928D01*
X82513504Y-117900000D01*
X82501931Y-117789885D01*
X82494232Y-117716635D01*
X82494232Y-117716633D01*
X82493542Y-117710072D01*
X82434527Y-117528444D01*
X82339040Y-117363056D01*
X82211253Y-117221134D01*
X82056752Y-117108882D01*
X82050724Y-117106198D01*
X82050722Y-117106197D01*
X81888319Y-117033891D01*
X81888318Y-117033891D01*
X81882288Y-117031206D01*
X81787161Y-117010986D01*
X81701944Y-116992872D01*
X81701939Y-116992872D01*
X81695487Y-116991500D01*
X81504513Y-116991500D01*
X81498061Y-116992872D01*
X81498056Y-116992872D01*
X81412839Y-117010986D01*
X81317712Y-117031206D01*
X81311682Y-117033891D01*
X81311681Y-117033891D01*
X81149278Y-117106197D01*
X81149276Y-117106198D01*
X81143248Y-117108882D01*
X80988747Y-117221134D01*
X80860960Y-117363056D01*
X80857659Y-117368774D01*
X80828619Y-117419072D01*
X80777236Y-117468065D01*
X80707523Y-117481501D01*
X80641612Y-117455115D01*
X80600430Y-117397282D01*
X80593500Y-117356072D01*
X80593500Y-102007800D01*
X80613502Y-101939679D01*
X80667158Y-101893186D01*
X80737432Y-101883082D01*
X80795065Y-101906974D01*
X80853295Y-101950615D01*
X80989684Y-102001745D01*
X81051866Y-102008500D01*
X82148134Y-102008500D01*
X82210316Y-102001745D01*
X82346705Y-101950615D01*
X82463261Y-101863261D01*
X82550615Y-101746705D01*
X82601745Y-101610316D01*
X82608500Y-101548134D01*
X83791500Y-101548134D01*
X83798255Y-101610316D01*
X83849385Y-101746705D01*
X83936739Y-101863261D01*
X84053295Y-101950615D01*
X84189684Y-102001745D01*
X84251866Y-102008500D01*
X85348134Y-102008500D01*
X85410316Y-102001745D01*
X85546705Y-101950615D01*
X85663261Y-101863261D01*
X85750615Y-101746705D01*
X85801745Y-101610316D01*
X85808500Y-101548134D01*
X85808500Y-99951866D01*
X85801745Y-99889684D01*
X85750615Y-99753295D01*
X85663261Y-99636739D01*
X85546705Y-99549385D01*
X85536092Y-99545406D01*
X85490270Y-99528228D01*
X85433505Y-99485586D01*
X85408806Y-99419024D01*
X85408500Y-99410246D01*
X85408500Y-98830290D01*
X85428502Y-98762169D01*
X85440864Y-98745980D01*
X85534621Y-98641852D01*
X85534622Y-98641851D01*
X85539040Y-98636944D01*
X85634527Y-98471556D01*
X85693542Y-98289928D01*
X85704649Y-98184256D01*
X85712814Y-98106565D01*
X85713504Y-98100000D01*
X85712814Y-98093435D01*
X85694232Y-97916635D01*
X85694232Y-97916633D01*
X85693542Y-97910072D01*
X85634527Y-97728444D01*
X85539040Y-97563056D01*
X85514411Y-97535702D01*
X85415675Y-97426045D01*
X85415674Y-97426044D01*
X85411253Y-97421134D01*
X85337410Y-97367484D01*
X85292278Y-97334693D01*
X85248924Y-97278470D01*
X85242849Y-97207734D01*
X85275981Y-97144943D01*
X85337801Y-97110031D01*
X85352734Y-97107494D01*
X85402352Y-97102105D01*
X85417604Y-97098479D01*
X85538054Y-97053324D01*
X85553649Y-97044786D01*
X85655724Y-96968285D01*
X85668285Y-96955724D01*
X85744786Y-96853649D01*
X85753324Y-96838054D01*
X85798478Y-96717606D01*
X85802105Y-96702351D01*
X85807631Y-96651486D01*
X85808000Y-96644672D01*
X85808000Y-96122115D01*
X85803525Y-96106876D01*
X85802135Y-96105671D01*
X85794452Y-96104000D01*
X83810116Y-96104000D01*
X83794877Y-96108475D01*
X83793672Y-96109865D01*
X83792001Y-96117548D01*
X83792001Y-96644669D01*
X83792371Y-96651490D01*
X83797895Y-96702352D01*
X83801521Y-96717604D01*
X83846676Y-96838054D01*
X83855214Y-96853649D01*
X83931715Y-96955724D01*
X83944276Y-96968285D01*
X84046351Y-97044786D01*
X84061946Y-97053324D01*
X84182394Y-97098478D01*
X84197648Y-97102105D01*
X84247268Y-97107496D01*
X84312830Y-97134738D01*
X84353255Y-97193102D01*
X84355710Y-97264056D01*
X84319415Y-97325073D01*
X84307720Y-97334695D01*
X84195124Y-97416501D01*
X84188747Y-97421134D01*
X84184326Y-97426044D01*
X84184325Y-97426045D01*
X84085590Y-97535702D01*
X84060960Y-97563056D01*
X83965473Y-97728444D01*
X83906458Y-97910072D01*
X83905768Y-97916633D01*
X83905768Y-97916635D01*
X83887186Y-98093435D01*
X83886496Y-98100000D01*
X83887186Y-98106565D01*
X83895352Y-98184256D01*
X83906458Y-98289928D01*
X83965473Y-98471556D01*
X84060960Y-98636944D01*
X84065378Y-98641851D01*
X84065379Y-98641852D01*
X84159136Y-98745980D01*
X84189854Y-98809987D01*
X84191500Y-98830290D01*
X84191500Y-99410246D01*
X84171498Y-99478367D01*
X84117842Y-99524860D01*
X84109730Y-99528228D01*
X84063908Y-99545406D01*
X84053295Y-99549385D01*
X83936739Y-99636739D01*
X83849385Y-99753295D01*
X83798255Y-99889684D01*
X83791500Y-99951866D01*
X83791500Y-101548134D01*
X82608500Y-101548134D01*
X82608500Y-99951866D01*
X82601745Y-99889684D01*
X82550615Y-99753295D01*
X82463261Y-99636739D01*
X82346705Y-99549385D01*
X82210316Y-99498255D01*
X82148134Y-99491500D01*
X81466371Y-99491500D01*
X81398250Y-99471498D01*
X81377276Y-99454595D01*
X80630405Y-98707724D01*
X80596379Y-98645412D01*
X80593500Y-98618629D01*
X80593500Y-97107800D01*
X80613502Y-97039679D01*
X80667158Y-96993186D01*
X80737432Y-96983082D01*
X80795065Y-97006974D01*
X80853295Y-97050615D01*
X80989684Y-97101745D01*
X81051866Y-97108500D01*
X82148134Y-97108500D01*
X82210316Y-97101745D01*
X82346705Y-97050615D01*
X82463261Y-96963261D01*
X82550615Y-96846705D01*
X82601745Y-96710316D01*
X82608500Y-96648134D01*
X82608500Y-95051866D01*
X82601745Y-94989684D01*
X82560150Y-94878729D01*
X82554967Y-94807923D01*
X82588888Y-94745554D01*
X82651143Y-94711424D01*
X82678132Y-94708500D01*
X83722402Y-94708500D01*
X83790523Y-94728502D01*
X83837016Y-94782158D01*
X83847120Y-94852432D01*
X83840384Y-94878730D01*
X83801522Y-94982394D01*
X83797895Y-94997649D01*
X83792369Y-95048514D01*
X83792000Y-95055328D01*
X83792000Y-95577885D01*
X83796475Y-95593124D01*
X83797865Y-95594329D01*
X83805548Y-95596000D01*
X85789884Y-95596000D01*
X85805123Y-95591525D01*
X85806328Y-95590135D01*
X85807999Y-95582452D01*
X85807999Y-95055331D01*
X85807629Y-95048510D01*
X85802105Y-94997648D01*
X85798479Y-94982397D01*
X85758595Y-94876007D01*
X85753412Y-94805200D01*
X85787333Y-94742831D01*
X85851900Y-94708218D01*
X85882519Y-94702103D01*
X85889325Y-94700937D01*
X85935294Y-94694354D01*
X85935297Y-94694353D01*
X85944187Y-94693080D01*
X85952365Y-94689362D01*
X85957346Y-94687905D01*
X85962218Y-94686185D01*
X85971016Y-94684428D01*
X85978968Y-94680272D01*
X85978970Y-94680271D01*
X86020120Y-94658763D01*
X86026334Y-94655729D01*
X86068612Y-94636507D01*
X86068614Y-94636506D01*
X86076782Y-94632792D01*
X86100028Y-94612763D01*
X86114291Y-94600473D01*
X86121689Y-94594568D01*
X98940490Y-85128377D01*
X99012454Y-85103769D01*
X99465405Y-85093396D01*
X99533966Y-85111833D01*
X99581675Y-85164410D01*
X99593553Y-85232971D01*
X99591500Y-85251866D01*
X99591500Y-86145761D01*
X99571498Y-86213882D01*
X99554595Y-86234856D01*
X98703766Y-87085685D01*
X98691375Y-87096552D01*
X98666013Y-87116013D01*
X98641526Y-87147925D01*
X98641523Y-87147928D01*
X98625527Y-87168774D01*
X98574918Y-87234729D01*
X98568476Y-87243124D01*
X98510441Y-87383234D01*
X98507162Y-87391150D01*
X98491500Y-87510115D01*
X98491500Y-87510120D01*
X98486250Y-87550000D01*
X98487328Y-87558188D01*
X98490422Y-87581690D01*
X98491500Y-87598136D01*
X98491500Y-97369710D01*
X98471498Y-97437831D01*
X98459136Y-97454020D01*
X98381071Y-97540720D01*
X98360960Y-97563056D01*
X98265473Y-97728444D01*
X98206458Y-97910072D01*
X98205768Y-97916633D01*
X98205768Y-97916635D01*
X98187186Y-98093435D01*
X98186496Y-98100000D01*
X98187186Y-98106565D01*
X98195352Y-98184256D01*
X98206458Y-98289928D01*
X98265473Y-98471556D01*
X98360960Y-98636944D01*
X98365378Y-98641851D01*
X98365379Y-98641852D01*
X98459136Y-98745980D01*
X98488747Y-98778866D01*
X98643248Y-98891118D01*
X98649276Y-98893802D01*
X98649278Y-98893803D01*
X98810637Y-98965644D01*
X98817712Y-98968794D01*
X98911112Y-98988647D01*
X98998056Y-99007128D01*
X98998061Y-99007128D01*
X99004513Y-99008500D01*
X99195487Y-99008500D01*
X99201939Y-99007128D01*
X99201944Y-99007128D01*
X99288888Y-98988647D01*
X99382288Y-98968794D01*
X99389363Y-98965644D01*
X99550722Y-98893803D01*
X99550724Y-98893802D01*
X99556752Y-98891118D01*
X99711253Y-98778866D01*
X99740864Y-98745980D01*
X99834621Y-98641852D01*
X99834622Y-98641851D01*
X99839040Y-98636944D01*
X99934527Y-98471556D01*
X99993542Y-98289928D01*
X100004649Y-98184256D01*
X100012814Y-98106565D01*
X100013504Y-98100000D01*
X100012814Y-98093435D01*
X99994232Y-97916635D01*
X99994232Y-97916633D01*
X99993542Y-97910072D01*
X99934527Y-97728444D01*
X99839040Y-97563056D01*
X99818929Y-97540720D01*
X99740864Y-97454020D01*
X99710146Y-97390013D01*
X99708500Y-97369710D01*
X99708500Y-96169732D01*
X99728502Y-96101611D01*
X99782158Y-96055118D01*
X99852432Y-96045014D01*
X99917012Y-96074508D01*
X99928136Y-96085422D01*
X99942713Y-96101611D01*
X99953747Y-96113866D01*
X100108248Y-96226118D01*
X100114276Y-96228802D01*
X100114278Y-96228803D01*
X100266518Y-96296584D01*
X100282712Y-96303794D01*
X100289167Y-96305166D01*
X100289176Y-96305169D01*
X100345772Y-96317199D01*
X100408669Y-96351350D01*
X102555084Y-98497765D01*
X102589110Y-98560077D01*
X102591989Y-98586860D01*
X102591989Y-114833419D01*
X102590556Y-114852369D01*
X102587290Y-114873838D01*
X102587883Y-114881130D01*
X102587883Y-114881133D01*
X102591574Y-114926507D01*
X102591989Y-114936722D01*
X102591989Y-140133419D01*
X102590556Y-140152369D01*
X102589136Y-140161705D01*
X102587290Y-140173838D01*
X102587883Y-140181130D01*
X102587883Y-140181133D01*
X102591574Y-140226507D01*
X102591989Y-140236722D01*
X102591989Y-140244782D01*
X102592414Y-140248426D01*
X102595278Y-140272996D01*
X102595711Y-140277371D01*
X102600201Y-140332565D01*
X102601629Y-140350126D01*
X102603885Y-140357090D01*
X102605076Y-140363049D01*
X102606460Y-140368904D01*
X102607307Y-140376170D01*
X102632224Y-140444816D01*
X102633641Y-140448944D01*
X102656138Y-140518388D01*
X102659934Y-140524643D01*
X102662440Y-140530117D01*
X102665159Y-140535547D01*
X102667656Y-140542426D01*
X102671669Y-140548546D01*
X102671669Y-140548547D01*
X102707675Y-140603465D01*
X102710012Y-140607169D01*
X102747894Y-140669596D01*
X102751610Y-140673804D01*
X102751611Y-140673805D01*
X102755292Y-140677973D01*
X102755265Y-140677997D01*
X102757918Y-140680989D01*
X102760621Y-140684222D01*
X102764633Y-140690341D01*
X102769945Y-140695373D01*
X102820872Y-140743617D01*
X102823314Y-140745995D01*
X103254595Y-141177276D01*
X103288621Y-141239588D01*
X103291500Y-141266371D01*
X103291500Y-141948134D01*
X103298255Y-142010316D01*
X103349385Y-142146705D01*
X103436739Y-142263261D01*
X103553295Y-142350615D01*
X103689684Y-142401745D01*
X103751866Y-142408500D01*
X104848134Y-142408500D01*
X104910316Y-142401745D01*
X105046705Y-142350615D01*
X105163261Y-142263261D01*
X105250615Y-142146705D01*
X105301745Y-142010316D01*
X105308500Y-141948134D01*
X105308500Y-140351866D01*
X105301745Y-140289684D01*
X105250615Y-140153295D01*
X105163261Y-140036739D01*
X105046705Y-139949385D01*
X104910316Y-139898255D01*
X104848134Y-139891500D01*
X104234989Y-139891500D01*
X104166868Y-139871498D01*
X104120375Y-139817842D01*
X104108989Y-139765500D01*
X104108989Y-139122538D01*
X104128991Y-139054417D01*
X104182647Y-139007924D01*
X104252921Y-138997820D01*
X104261185Y-138999291D01*
X104293886Y-139006241D01*
X104304513Y-139008500D01*
X104495487Y-139008500D01*
X104501939Y-139007128D01*
X104501944Y-139007128D01*
X104588888Y-138988647D01*
X104682288Y-138968794D01*
X104697168Y-138962169D01*
X104850722Y-138893803D01*
X104850724Y-138893802D01*
X104856752Y-138891118D01*
X104878070Y-138875630D01*
X104912157Y-138850864D01*
X105011253Y-138778866D01*
X105139040Y-138636944D01*
X105234527Y-138471556D01*
X105293542Y-138289928D01*
X105313504Y-138100000D01*
X105295473Y-137928444D01*
X105294232Y-137916635D01*
X105294232Y-137916633D01*
X105293542Y-137910072D01*
X105234527Y-137728444D01*
X105175407Y-137626045D01*
X105142344Y-137568778D01*
X105142342Y-137568775D01*
X105139040Y-137563056D01*
X105133635Y-137557053D01*
X105133265Y-137556282D01*
X105130739Y-137552805D01*
X105131375Y-137552343D01*
X105102920Y-137493044D01*
X105111686Y-137422591D01*
X105151708Y-137371920D01*
X105156079Y-137368644D01*
X105156081Y-137368642D01*
X105163261Y-137363261D01*
X105250615Y-137246705D01*
X105301745Y-137110316D01*
X105308500Y-137048134D01*
X105308500Y-137044669D01*
X106492001Y-137044669D01*
X106492371Y-137051490D01*
X106497895Y-137102352D01*
X106501521Y-137117604D01*
X106546676Y-137238054D01*
X106555214Y-137253649D01*
X106631715Y-137355724D01*
X106644276Y-137368285D01*
X106746351Y-137444786D01*
X106761946Y-137453324D01*
X106882394Y-137498478D01*
X106897649Y-137502105D01*
X106948514Y-137507631D01*
X106955328Y-137508000D01*
X107227885Y-137508000D01*
X107243124Y-137503525D01*
X107244329Y-137502135D01*
X107246000Y-137494452D01*
X107246000Y-137489884D01*
X107754000Y-137489884D01*
X107758475Y-137505123D01*
X107759865Y-137506328D01*
X107767548Y-137507999D01*
X108044669Y-137507999D01*
X108051490Y-137507629D01*
X108102352Y-137502105D01*
X108117604Y-137498479D01*
X108238054Y-137453324D01*
X108253649Y-137444786D01*
X108355724Y-137368285D01*
X108368285Y-137355724D01*
X108444786Y-137253649D01*
X108453324Y-137238054D01*
X108498478Y-137117606D01*
X108502105Y-137102351D01*
X108507631Y-137051486D01*
X108508000Y-137044672D01*
X108508000Y-136522115D01*
X108503525Y-136506876D01*
X108502135Y-136505671D01*
X108494452Y-136504000D01*
X107772115Y-136504000D01*
X107756876Y-136508475D01*
X107755671Y-136509865D01*
X107754000Y-136517548D01*
X107754000Y-137489884D01*
X107246000Y-137489884D01*
X107246000Y-136522115D01*
X107241525Y-136506876D01*
X107240135Y-136505671D01*
X107232452Y-136504000D01*
X106510116Y-136504000D01*
X106494877Y-136508475D01*
X106493672Y-136509865D01*
X106492001Y-136517548D01*
X106492001Y-137044669D01*
X105308500Y-137044669D01*
X105308500Y-135977885D01*
X106492000Y-135977885D01*
X106496475Y-135993124D01*
X106497865Y-135994329D01*
X106505548Y-135996000D01*
X107227885Y-135996000D01*
X107243124Y-135991525D01*
X107244329Y-135990135D01*
X107246000Y-135982452D01*
X107246000Y-135977885D01*
X107754000Y-135977885D01*
X107758475Y-135993124D01*
X107759865Y-135994329D01*
X107767548Y-135996000D01*
X108489884Y-135996000D01*
X108505123Y-135991525D01*
X108506328Y-135990135D01*
X108507999Y-135982452D01*
X108507999Y-135455331D01*
X108507629Y-135448510D01*
X108502105Y-135397648D01*
X108498479Y-135382396D01*
X108453324Y-135261946D01*
X108444786Y-135246351D01*
X108368285Y-135144276D01*
X108355724Y-135131715D01*
X108253649Y-135055214D01*
X108238054Y-135046676D01*
X108117606Y-135001522D01*
X108102351Y-134997895D01*
X108051486Y-134992369D01*
X108044672Y-134992000D01*
X107772115Y-134992000D01*
X107756876Y-134996475D01*
X107755671Y-134997865D01*
X107754000Y-135005548D01*
X107754000Y-135977885D01*
X107246000Y-135977885D01*
X107246000Y-135010116D01*
X107241525Y-134994877D01*
X107240135Y-134993672D01*
X107232452Y-134992001D01*
X106955331Y-134992001D01*
X106948510Y-134992371D01*
X106897648Y-134997895D01*
X106882396Y-135001521D01*
X106761946Y-135046676D01*
X106746351Y-135055214D01*
X106644276Y-135131715D01*
X106631715Y-135144276D01*
X106555214Y-135246351D01*
X106546676Y-135261946D01*
X106501522Y-135382394D01*
X106497895Y-135397649D01*
X106492369Y-135448514D01*
X106492000Y-135455328D01*
X106492000Y-135977885D01*
X105308500Y-135977885D01*
X105308500Y-135451866D01*
X105301745Y-135389684D01*
X105250615Y-135253295D01*
X105163261Y-135136739D01*
X105046705Y-135049385D01*
X104910316Y-134998255D01*
X104848134Y-134991500D01*
X104234989Y-134991500D01*
X104166868Y-134971498D01*
X104120375Y-134917842D01*
X104108989Y-134865500D01*
X104108989Y-117900000D01*
X106386496Y-117900000D01*
X106406458Y-118089928D01*
X106465473Y-118271556D01*
X106560960Y-118436944D01*
X106688747Y-118578866D01*
X106843248Y-118691118D01*
X106849276Y-118693802D01*
X106849278Y-118693803D01*
X107011681Y-118766109D01*
X107017712Y-118768794D01*
X107111112Y-118788647D01*
X107198056Y-118807128D01*
X107198061Y-118807128D01*
X107204513Y-118808500D01*
X107395487Y-118808500D01*
X107401939Y-118807128D01*
X107401944Y-118807128D01*
X107488888Y-118788647D01*
X107582288Y-118768794D01*
X107588319Y-118766109D01*
X107750722Y-118693803D01*
X107750724Y-118693802D01*
X107756752Y-118691118D01*
X107911253Y-118578866D01*
X108039040Y-118436944D01*
X108134527Y-118271556D01*
X108193542Y-118089928D01*
X108213504Y-117900000D01*
X108201931Y-117789885D01*
X108194232Y-117716635D01*
X108194232Y-117716633D01*
X108193542Y-117710072D01*
X108134527Y-117528444D01*
X108125380Y-117512602D01*
X108108500Y-117449603D01*
X108108500Y-117189754D01*
X108128502Y-117121633D01*
X108182158Y-117075140D01*
X108190270Y-117071772D01*
X108238297Y-117053767D01*
X108246705Y-117050615D01*
X108363261Y-116963261D01*
X108450615Y-116846705D01*
X108501745Y-116710316D01*
X108508500Y-116648134D01*
X108508500Y-115051866D01*
X108501745Y-114989684D01*
X108450615Y-114853295D01*
X108363261Y-114736739D01*
X108246705Y-114649385D01*
X108110316Y-114598255D01*
X108048134Y-114591500D01*
X106951866Y-114591500D01*
X106889684Y-114598255D01*
X106753295Y-114649385D01*
X106636739Y-114736739D01*
X106549385Y-114853295D01*
X106498255Y-114989684D01*
X106491500Y-115051866D01*
X106491500Y-116648134D01*
X106498255Y-116710316D01*
X106549385Y-116846705D01*
X106636739Y-116963261D01*
X106643919Y-116968642D01*
X106643920Y-116968643D01*
X106700418Y-117010986D01*
X106742933Y-117067845D01*
X106747959Y-117138664D01*
X106713899Y-117200957D01*
X106698918Y-117213744D01*
X106688747Y-117221134D01*
X106560960Y-117363056D01*
X106465473Y-117528444D01*
X106406458Y-117710072D01*
X106405768Y-117716633D01*
X106405768Y-117716635D01*
X106398069Y-117789885D01*
X106386496Y-117900000D01*
X104108989Y-117900000D01*
X104108989Y-117234500D01*
X104128991Y-117166379D01*
X104182647Y-117119886D01*
X104234989Y-117108500D01*
X104848134Y-117108500D01*
X104910316Y-117101745D01*
X105046705Y-117050615D01*
X105163261Y-116963261D01*
X105250615Y-116846705D01*
X105301745Y-116710316D01*
X105308500Y-116648134D01*
X105308500Y-115051866D01*
X105301745Y-114989684D01*
X105250615Y-114853295D01*
X105163261Y-114736739D01*
X105046705Y-114649385D01*
X104910316Y-114598255D01*
X104848134Y-114591500D01*
X104234989Y-114591500D01*
X104166868Y-114571498D01*
X104120375Y-114517842D01*
X104108989Y-114465500D01*
X104108989Y-113434500D01*
X104128991Y-113366379D01*
X104182647Y-113319886D01*
X104234989Y-113308500D01*
X104395487Y-113308500D01*
X104401939Y-113307128D01*
X104401944Y-113307128D01*
X104491009Y-113288196D01*
X104582288Y-113268794D01*
X104588319Y-113266109D01*
X104750722Y-113193803D01*
X104750724Y-113193802D01*
X104756752Y-113191118D01*
X104911253Y-113078866D01*
X105039040Y-112936944D01*
X105134527Y-112771556D01*
X105193542Y-112589928D01*
X105207758Y-112454675D01*
X105212814Y-112406565D01*
X105213504Y-112400000D01*
X105208870Y-112355906D01*
X105194233Y-112216642D01*
X105194232Y-112216638D01*
X105193542Y-112210072D01*
X105171313Y-112141659D01*
X105169285Y-112070691D01*
X105190320Y-112027157D01*
X105245229Y-111953892D01*
X105245230Y-111953890D01*
X105250615Y-111946705D01*
X105301745Y-111810316D01*
X105308500Y-111748134D01*
X105308500Y-111744669D01*
X106492001Y-111744669D01*
X106492371Y-111751490D01*
X106497895Y-111802352D01*
X106501521Y-111817604D01*
X106546676Y-111938054D01*
X106555214Y-111953649D01*
X106631715Y-112055724D01*
X106644276Y-112068285D01*
X106746351Y-112144786D01*
X106761946Y-112153324D01*
X106882394Y-112198478D01*
X106897649Y-112202105D01*
X106948514Y-112207631D01*
X106955328Y-112208000D01*
X107227885Y-112208000D01*
X107243124Y-112203525D01*
X107244329Y-112202135D01*
X107246000Y-112194452D01*
X107246000Y-112189884D01*
X107754000Y-112189884D01*
X107758475Y-112205123D01*
X107759865Y-112206328D01*
X107767548Y-112207999D01*
X108044669Y-112207999D01*
X108051490Y-112207629D01*
X108102352Y-112202105D01*
X108117604Y-112198479D01*
X108238054Y-112153324D01*
X108253649Y-112144786D01*
X108355724Y-112068285D01*
X108368285Y-112055724D01*
X108444786Y-111953649D01*
X108453324Y-111938054D01*
X108498478Y-111817606D01*
X108502105Y-111802351D01*
X108507631Y-111751486D01*
X108508000Y-111744672D01*
X108508000Y-111222115D01*
X108503525Y-111206876D01*
X108502135Y-111205671D01*
X108494452Y-111204000D01*
X107772115Y-111204000D01*
X107756876Y-111208475D01*
X107755671Y-111209865D01*
X107754000Y-111217548D01*
X107754000Y-112189884D01*
X107246000Y-112189884D01*
X107246000Y-111222115D01*
X107241525Y-111206876D01*
X107240135Y-111205671D01*
X107232452Y-111204000D01*
X106510116Y-111204000D01*
X106494877Y-111208475D01*
X106493672Y-111209865D01*
X106492001Y-111217548D01*
X106492001Y-111744669D01*
X105308500Y-111744669D01*
X105308500Y-110677885D01*
X106492000Y-110677885D01*
X106496475Y-110693124D01*
X106497865Y-110694329D01*
X106505548Y-110696000D01*
X107227885Y-110696000D01*
X107243124Y-110691525D01*
X107244329Y-110690135D01*
X107246000Y-110682452D01*
X107246000Y-110677885D01*
X107754000Y-110677885D01*
X107758475Y-110693124D01*
X107759865Y-110694329D01*
X107767548Y-110696000D01*
X108489884Y-110696000D01*
X108505123Y-110691525D01*
X108506328Y-110690135D01*
X108507999Y-110682452D01*
X108507999Y-110155331D01*
X108507629Y-110148510D01*
X108502105Y-110097648D01*
X108498479Y-110082396D01*
X108453324Y-109961946D01*
X108444786Y-109946351D01*
X108368285Y-109844276D01*
X108355724Y-109831715D01*
X108253649Y-109755214D01*
X108238054Y-109746676D01*
X108117606Y-109701522D01*
X108102351Y-109697895D01*
X108051486Y-109692369D01*
X108044672Y-109692000D01*
X107772115Y-109692000D01*
X107756876Y-109696475D01*
X107755671Y-109697865D01*
X107754000Y-109705548D01*
X107754000Y-110677885D01*
X107246000Y-110677885D01*
X107246000Y-109710116D01*
X107241525Y-109694877D01*
X107240135Y-109693672D01*
X107232452Y-109692001D01*
X106955331Y-109692001D01*
X106948510Y-109692371D01*
X106897648Y-109697895D01*
X106882396Y-109701521D01*
X106761946Y-109746676D01*
X106746351Y-109755214D01*
X106644276Y-109831715D01*
X106631715Y-109844276D01*
X106555214Y-109946351D01*
X106546676Y-109961946D01*
X106501522Y-110082394D01*
X106497895Y-110097649D01*
X106492369Y-110148514D01*
X106492000Y-110155328D01*
X106492000Y-110677885D01*
X105308500Y-110677885D01*
X105308500Y-110151866D01*
X105301745Y-110089684D01*
X105250615Y-109953295D01*
X105163261Y-109836739D01*
X105046705Y-109749385D01*
X104910316Y-109698255D01*
X104848134Y-109691500D01*
X104234989Y-109691500D01*
X104166868Y-109671498D01*
X104120375Y-109617842D01*
X104108989Y-109565500D01*
X104108989Y-98287558D01*
X104110422Y-98268607D01*
X104112588Y-98254372D01*
X104112588Y-98254370D01*
X104113688Y-98247140D01*
X104109404Y-98194471D01*
X104108989Y-98184256D01*
X104108989Y-98176196D01*
X104105700Y-98147982D01*
X104105267Y-98143607D01*
X104099943Y-98078150D01*
X104099942Y-98078147D01*
X104099349Y-98070852D01*
X104097093Y-98063888D01*
X104095902Y-98057929D01*
X104094518Y-98052074D01*
X104093671Y-98044808D01*
X104068754Y-97976162D01*
X104067337Y-97972034D01*
X104047096Y-97909553D01*
X104047095Y-97909551D01*
X104044840Y-97902590D01*
X104041044Y-97896335D01*
X104038538Y-97890861D01*
X104035819Y-97885431D01*
X104033322Y-97878552D01*
X103993298Y-97817505D01*
X103990961Y-97813801D01*
X103955998Y-97756182D01*
X103955994Y-97756177D01*
X103953084Y-97751381D01*
X103945686Y-97743005D01*
X103945712Y-97742982D01*
X103943063Y-97739992D01*
X103940355Y-97736753D01*
X103936345Y-97730637D01*
X103931038Y-97725610D01*
X103931035Y-97725606D01*
X103880106Y-97677361D01*
X103877664Y-97674983D01*
X101485125Y-95282444D01*
X101454387Y-95232285D01*
X101433758Y-95168794D01*
X101399527Y-95063444D01*
X101392843Y-95051866D01*
X101375381Y-95021622D01*
X101358500Y-94958622D01*
X101358500Y-92204802D01*
X101378502Y-92136681D01*
X101408935Y-92103976D01*
X101456081Y-92068642D01*
X101463261Y-92063261D01*
X101550615Y-91946705D01*
X101601745Y-91810316D01*
X101608500Y-91748134D01*
X102791500Y-91748134D01*
X102798255Y-91810316D01*
X102849385Y-91946705D01*
X102936739Y-92063261D01*
X103053295Y-92150615D01*
X103189684Y-92201745D01*
X103251866Y-92208500D01*
X104348134Y-92208500D01*
X104410316Y-92201745D01*
X104546705Y-92150615D01*
X104663261Y-92063261D01*
X104750615Y-91946705D01*
X104801745Y-91810316D01*
X104808500Y-91748134D01*
X104808500Y-90151866D01*
X104801745Y-90089684D01*
X104750615Y-89953295D01*
X104663261Y-89836739D01*
X104546705Y-89749385D01*
X104535096Y-89745033D01*
X104490270Y-89728228D01*
X104433505Y-89685586D01*
X104408806Y-89619024D01*
X104408500Y-89610246D01*
X104408500Y-89330290D01*
X104428502Y-89262169D01*
X104440864Y-89245980D01*
X104534621Y-89141852D01*
X104534622Y-89141851D01*
X104539040Y-89136944D01*
X104600076Y-89031226D01*
X104631223Y-88977279D01*
X104631224Y-88977278D01*
X104634527Y-88971556D01*
X104693542Y-88789928D01*
X104694872Y-88777279D01*
X104712814Y-88606565D01*
X104713504Y-88600000D01*
X104695473Y-88428444D01*
X104694232Y-88416635D01*
X104694232Y-88416633D01*
X104693542Y-88410072D01*
X104634527Y-88228444D01*
X104539040Y-88063056D01*
X104527546Y-88050290D01*
X104415675Y-87926045D01*
X104415674Y-87926044D01*
X104411253Y-87921134D01*
X104280375Y-87826045D01*
X104262094Y-87812763D01*
X104262093Y-87812762D01*
X104256752Y-87808882D01*
X104250724Y-87806198D01*
X104250722Y-87806197D01*
X104088319Y-87733891D01*
X104088318Y-87733891D01*
X104082288Y-87731206D01*
X103966362Y-87706565D01*
X103901944Y-87692872D01*
X103901939Y-87692872D01*
X103895487Y-87691500D01*
X103704513Y-87691500D01*
X103698061Y-87692872D01*
X103698056Y-87692872D01*
X103633638Y-87706565D01*
X103517712Y-87731206D01*
X103511682Y-87733891D01*
X103511681Y-87733891D01*
X103349278Y-87806197D01*
X103349276Y-87806198D01*
X103343248Y-87808882D01*
X103337907Y-87812762D01*
X103337906Y-87812763D01*
X103319625Y-87826045D01*
X103188747Y-87921134D01*
X103184326Y-87926044D01*
X103184325Y-87926045D01*
X103072455Y-88050290D01*
X103060960Y-88063056D01*
X102965473Y-88228444D01*
X102906458Y-88410072D01*
X102905768Y-88416633D01*
X102905768Y-88416635D01*
X102904527Y-88428444D01*
X102886496Y-88600000D01*
X102887186Y-88606565D01*
X102905129Y-88777279D01*
X102906458Y-88789928D01*
X102965473Y-88971556D01*
X102968776Y-88977278D01*
X102968777Y-88977279D01*
X102999924Y-89031226D01*
X103060960Y-89136944D01*
X103065378Y-89141851D01*
X103065379Y-89141852D01*
X103159136Y-89245980D01*
X103189854Y-89309987D01*
X103191500Y-89330290D01*
X103191500Y-89610246D01*
X103171498Y-89678367D01*
X103117842Y-89724860D01*
X103109730Y-89728228D01*
X103064904Y-89745033D01*
X103053295Y-89749385D01*
X102936739Y-89836739D01*
X102849385Y-89953295D01*
X102798255Y-90089684D01*
X102791500Y-90151866D01*
X102791500Y-91748134D01*
X101608500Y-91748134D01*
X101608500Y-90151866D01*
X101601745Y-90089684D01*
X101550615Y-89953295D01*
X101463261Y-89836739D01*
X101346705Y-89749385D01*
X101210316Y-89698255D01*
X101148134Y-89691500D01*
X100051866Y-89691500D01*
X99989684Y-89698255D01*
X99878730Y-89739850D01*
X99807923Y-89745033D01*
X99745554Y-89711112D01*
X99711424Y-89648857D01*
X99708500Y-89621868D01*
X99708500Y-87854239D01*
X99728502Y-87786118D01*
X99745405Y-87765144D01*
X100165144Y-87345405D01*
X100227456Y-87311379D01*
X100254239Y-87308500D01*
X101148134Y-87308500D01*
X101210316Y-87301745D01*
X101346705Y-87250615D01*
X101463261Y-87163261D01*
X101550615Y-87046705D01*
X101601745Y-86910316D01*
X101608500Y-86848134D01*
X101608500Y-86844669D01*
X102792001Y-86844669D01*
X102792371Y-86851490D01*
X102797895Y-86902352D01*
X102801521Y-86917604D01*
X102846676Y-87038054D01*
X102855214Y-87053649D01*
X102931715Y-87155724D01*
X102944276Y-87168285D01*
X103046351Y-87244786D01*
X103061946Y-87253324D01*
X103182394Y-87298478D01*
X103197649Y-87302105D01*
X103248514Y-87307631D01*
X103255328Y-87308000D01*
X103527885Y-87308000D01*
X103543124Y-87303525D01*
X103544329Y-87302135D01*
X103546000Y-87294452D01*
X103546000Y-87289884D01*
X104054000Y-87289884D01*
X104058475Y-87305123D01*
X104059865Y-87306328D01*
X104067548Y-87307999D01*
X104344669Y-87307999D01*
X104351490Y-87307629D01*
X104402352Y-87302105D01*
X104417604Y-87298479D01*
X104538054Y-87253324D01*
X104553649Y-87244786D01*
X104655724Y-87168285D01*
X104668285Y-87155724D01*
X104744786Y-87053649D01*
X104753324Y-87038054D01*
X104798478Y-86917606D01*
X104802105Y-86902351D01*
X104807631Y-86851486D01*
X104808000Y-86844672D01*
X104808000Y-86322115D01*
X104803525Y-86306876D01*
X104802135Y-86305671D01*
X104794452Y-86304000D01*
X104072115Y-86304000D01*
X104056876Y-86308475D01*
X104055671Y-86309865D01*
X104054000Y-86317548D01*
X104054000Y-87289884D01*
X103546000Y-87289884D01*
X103546000Y-86322115D01*
X103541525Y-86306876D01*
X103540135Y-86305671D01*
X103532452Y-86304000D01*
X102810116Y-86304000D01*
X102794877Y-86308475D01*
X102793672Y-86309865D01*
X102792001Y-86317548D01*
X102792001Y-86844669D01*
X101608500Y-86844669D01*
X101608500Y-85251866D01*
X101601745Y-85189684D01*
X101602809Y-85189568D01*
X101606130Y-85125931D01*
X101647575Y-85068286D01*
X101713605Y-85042199D01*
X101722123Y-85041715D01*
X102677829Y-85019829D01*
X102746387Y-85038265D01*
X102794096Y-85090842D01*
X102805806Y-85160866D01*
X102803293Y-85174942D01*
X102797895Y-85197643D01*
X102792369Y-85248514D01*
X102792000Y-85255328D01*
X102792000Y-85777885D01*
X102796475Y-85793124D01*
X102797865Y-85794329D01*
X102805548Y-85796000D01*
X104789884Y-85796000D01*
X104805123Y-85791525D01*
X104806328Y-85790135D01*
X104807999Y-85782452D01*
X104807999Y-85255331D01*
X104807629Y-85248510D01*
X104802105Y-85197648D01*
X104798479Y-85182396D01*
X104782284Y-85139196D01*
X104777101Y-85068388D01*
X104811022Y-85006019D01*
X104873277Y-84971890D01*
X104897379Y-84968999D01*
X114527178Y-84748469D01*
X119272559Y-84639796D01*
X119341120Y-84658233D01*
X119388829Y-84710810D01*
X119400539Y-84780835D01*
X119399600Y-84786097D01*
X119398255Y-84789684D01*
X119391500Y-84851866D01*
X119391500Y-86448134D01*
X119398255Y-86510316D01*
X119449385Y-86646705D01*
X119536739Y-86763261D01*
X119653295Y-86850615D01*
X119661703Y-86853767D01*
X119709730Y-86871772D01*
X119766495Y-86914414D01*
X119791194Y-86980976D01*
X119791500Y-86989754D01*
X119791500Y-87682279D01*
X119771498Y-87750400D01*
X119739564Y-87784213D01*
X119688747Y-87821134D01*
X119684326Y-87826044D01*
X119684325Y-87826045D01*
X119602640Y-87916766D01*
X119560960Y-87963056D01*
X119505322Y-88059424D01*
X119471266Y-88118411D01*
X119465473Y-88128444D01*
X119406458Y-88310072D01*
X119405768Y-88316633D01*
X119405768Y-88316635D01*
X119396316Y-88406565D01*
X119386496Y-88500000D01*
X119387186Y-88506565D01*
X119396608Y-88596206D01*
X119406458Y-88689928D01*
X119465473Y-88871556D01*
X119560960Y-89036944D01*
X119674117Y-89162618D01*
X119674193Y-89162702D01*
X119704910Y-89226710D01*
X119696145Y-89297163D01*
X119652969Y-89348950D01*
X119653295Y-89349385D01*
X119651461Y-89350759D01*
X119651460Y-89350760D01*
X119648224Y-89353186D01*
X119648220Y-89353188D01*
X119563765Y-89416484D01*
X119536739Y-89436739D01*
X119449385Y-89553295D01*
X119398255Y-89689684D01*
X119391500Y-89751866D01*
X119391500Y-91348134D01*
X119398255Y-91410316D01*
X119449385Y-91546705D01*
X119536739Y-91663261D01*
X119543919Y-91668642D01*
X119591065Y-91703976D01*
X119633580Y-91760835D01*
X119641500Y-91804802D01*
X119641500Y-94837379D01*
X119624619Y-94900378D01*
X119605992Y-94932642D01*
X119537158Y-95051866D01*
X119530473Y-95063444D01*
X119496243Y-95168794D01*
X119475612Y-95232288D01*
X119444874Y-95282446D01*
X118950040Y-95777279D01*
X118461578Y-96265741D01*
X118447166Y-96278127D01*
X118435571Y-96286660D01*
X118435566Y-96286665D01*
X118429671Y-96291003D01*
X118424932Y-96296581D01*
X118424929Y-96296584D01*
X118395454Y-96331279D01*
X118388524Y-96338795D01*
X118382829Y-96344490D01*
X118380549Y-96347372D01*
X118365208Y-96366762D01*
X118362417Y-96370166D01*
X118333132Y-96404637D01*
X118315156Y-96425796D01*
X118311828Y-96432312D01*
X118308461Y-96437361D01*
X118305294Y-96442490D01*
X118300755Y-96448227D01*
X118269834Y-96514386D01*
X118267931Y-96518280D01*
X118234720Y-96583319D01*
X118232981Y-96590427D01*
X118230882Y-96596070D01*
X118228965Y-96601833D01*
X118225867Y-96608461D01*
X118224377Y-96615623D01*
X118224377Y-96615624D01*
X118211003Y-96679923D01*
X118210033Y-96684207D01*
X118192681Y-96755121D01*
X118191989Y-96766275D01*
X118191953Y-96766273D01*
X118191714Y-96770266D01*
X118191340Y-96774458D01*
X118189849Y-96781626D01*
X118190047Y-96788943D01*
X118191943Y-96859032D01*
X118191989Y-96862439D01*
X118191989Y-126333419D01*
X118190556Y-126352369D01*
X118187290Y-126373838D01*
X118187883Y-126381130D01*
X118187883Y-126381133D01*
X118191574Y-126426507D01*
X118191989Y-126436722D01*
X118191989Y-126444782D01*
X118192414Y-126448426D01*
X118195278Y-126472996D01*
X118195711Y-126477371D01*
X118200309Y-126533892D01*
X118201629Y-126550126D01*
X118203885Y-126557090D01*
X118205076Y-126563049D01*
X118206460Y-126568904D01*
X118207307Y-126576170D01*
X118232224Y-126644816D01*
X118233641Y-126648944D01*
X118256138Y-126718388D01*
X118259934Y-126724643D01*
X118262440Y-126730117D01*
X118265159Y-126735547D01*
X118267656Y-126742426D01*
X118271669Y-126748546D01*
X118271669Y-126748547D01*
X118307675Y-126803465D01*
X118310012Y-126807169D01*
X118347894Y-126869596D01*
X118351610Y-126873804D01*
X118351611Y-126873805D01*
X118355292Y-126877973D01*
X118355265Y-126877997D01*
X118357918Y-126880989D01*
X118360621Y-126884222D01*
X118364633Y-126890341D01*
X118412956Y-126936118D01*
X118420872Y-126943617D01*
X118423314Y-126945995D01*
X118854595Y-127377276D01*
X118888621Y-127439588D01*
X118891500Y-127466371D01*
X118891500Y-128148134D01*
X118898255Y-128210316D01*
X118949385Y-128346705D01*
X119036739Y-128463261D01*
X119153295Y-128550615D01*
X119289684Y-128601745D01*
X119351866Y-128608500D01*
X119576761Y-128608500D01*
X119644882Y-128628502D01*
X119691375Y-128682158D01*
X119701479Y-128752432D01*
X119671985Y-128817012D01*
X119665856Y-128823595D01*
X108491637Y-139997814D01*
X108429325Y-140031840D01*
X108358510Y-140026775D01*
X108326979Y-140009547D01*
X108246705Y-139949385D01*
X108110316Y-139898255D01*
X108048134Y-139891500D01*
X106951866Y-139891500D01*
X106889684Y-139898255D01*
X106753295Y-139949385D01*
X106636739Y-140036739D01*
X106549385Y-140153295D01*
X106498255Y-140289684D01*
X106491500Y-140351866D01*
X106491500Y-141948134D01*
X106498255Y-142010316D01*
X106549385Y-142146705D01*
X106636739Y-142263261D01*
X106753295Y-142350615D01*
X106889684Y-142401745D01*
X106951866Y-142408500D01*
X108048134Y-142408500D01*
X108110316Y-142401745D01*
X108246705Y-142350615D01*
X108363261Y-142263261D01*
X108450615Y-142146705D01*
X108501745Y-142010316D01*
X108508500Y-141948134D01*
X108508500Y-141742413D01*
X108528502Y-141674292D01*
X108557791Y-141642455D01*
X108602072Y-141608477D01*
X108602075Y-141608474D01*
X108633987Y-141583987D01*
X108653458Y-141558613D01*
X108664316Y-141546233D01*
X121095745Y-129114804D01*
X121108136Y-129103937D01*
X121126948Y-129089502D01*
X121133498Y-129084476D01*
X121157985Y-129052564D01*
X121157991Y-129052558D01*
X121226007Y-128963918D01*
X121226008Y-128963916D01*
X121231035Y-128957365D01*
X121292349Y-128809340D01*
X121294902Y-128789946D01*
X121308011Y-128690374D01*
X121308011Y-128690369D01*
X121313261Y-128650489D01*
X121309089Y-128618796D01*
X121308011Y-128602353D01*
X121308011Y-123297647D01*
X121309089Y-123281201D01*
X121312183Y-123257699D01*
X121313261Y-123249511D01*
X121312624Y-123244669D01*
X122092001Y-123244669D01*
X122092371Y-123251490D01*
X122097895Y-123302352D01*
X122101521Y-123317604D01*
X122146676Y-123438054D01*
X122155214Y-123453649D01*
X122231715Y-123555724D01*
X122244276Y-123568285D01*
X122346351Y-123644786D01*
X122361946Y-123653324D01*
X122482394Y-123698478D01*
X122497649Y-123702105D01*
X122548514Y-123707631D01*
X122555328Y-123708000D01*
X122827885Y-123708000D01*
X122843124Y-123703525D01*
X122844329Y-123702135D01*
X122846000Y-123694452D01*
X122846000Y-123689884D01*
X123354000Y-123689884D01*
X123358475Y-123705123D01*
X123359865Y-123706328D01*
X123367548Y-123707999D01*
X123644669Y-123707999D01*
X123651490Y-123707629D01*
X123702352Y-123702105D01*
X123717604Y-123698479D01*
X123838054Y-123653324D01*
X123853649Y-123644786D01*
X123955724Y-123568285D01*
X123968285Y-123555724D01*
X124044786Y-123453649D01*
X124053324Y-123438054D01*
X124098478Y-123317606D01*
X124102105Y-123302351D01*
X124107631Y-123251486D01*
X124108000Y-123244672D01*
X124108000Y-122722115D01*
X124103525Y-122706876D01*
X124102135Y-122705671D01*
X124094452Y-122704000D01*
X123372115Y-122704000D01*
X123356876Y-122708475D01*
X123355671Y-122709865D01*
X123354000Y-122717548D01*
X123354000Y-123689884D01*
X122846000Y-123689884D01*
X122846000Y-122722115D01*
X122841525Y-122706876D01*
X122840135Y-122705671D01*
X122832452Y-122704000D01*
X122110116Y-122704000D01*
X122094877Y-122708475D01*
X122093672Y-122709865D01*
X122092001Y-122717548D01*
X122092001Y-123244669D01*
X121312624Y-123244669D01*
X121310488Y-123228444D01*
X121308011Y-123209633D01*
X121308011Y-123209626D01*
X121293427Y-123098849D01*
X121292349Y-123090661D01*
X121231035Y-122942636D01*
X121204190Y-122907651D01*
X121157988Y-122847439D01*
X121157985Y-122847436D01*
X121133498Y-122815524D01*
X121120522Y-122805567D01*
X121108132Y-122796059D01*
X121095741Y-122785192D01*
X120945405Y-122634856D01*
X120911379Y-122572544D01*
X120908500Y-122545761D01*
X120908500Y-122177885D01*
X122092000Y-122177885D01*
X122096475Y-122193124D01*
X122097865Y-122194329D01*
X122105548Y-122196000D01*
X122827885Y-122196000D01*
X122843124Y-122191525D01*
X122844329Y-122190135D01*
X122846000Y-122182452D01*
X122846000Y-122177885D01*
X123354000Y-122177885D01*
X123358475Y-122193124D01*
X123359865Y-122194329D01*
X123367548Y-122196000D01*
X124089884Y-122196000D01*
X124105123Y-122191525D01*
X124106328Y-122190135D01*
X124107999Y-122182452D01*
X124107999Y-121655331D01*
X124107629Y-121648510D01*
X124102105Y-121597648D01*
X124098479Y-121582396D01*
X124053324Y-121461946D01*
X124044786Y-121446351D01*
X123968285Y-121344276D01*
X123955724Y-121331715D01*
X123853649Y-121255214D01*
X123838054Y-121246676D01*
X123717606Y-121201522D01*
X123702351Y-121197895D01*
X123651486Y-121192369D01*
X123644672Y-121192000D01*
X123372115Y-121192000D01*
X123356876Y-121196475D01*
X123355671Y-121197865D01*
X123354000Y-121205548D01*
X123354000Y-122177885D01*
X122846000Y-122177885D01*
X122846000Y-121210116D01*
X122841525Y-121194877D01*
X122840135Y-121193672D01*
X122832452Y-121192001D01*
X122555331Y-121192001D01*
X122548510Y-121192371D01*
X122497648Y-121197895D01*
X122482396Y-121201521D01*
X122361946Y-121246676D01*
X122346351Y-121255214D01*
X122244276Y-121331715D01*
X122231715Y-121344276D01*
X122155214Y-121446351D01*
X122146676Y-121461946D01*
X122101522Y-121582394D01*
X122097895Y-121597649D01*
X122092369Y-121648514D01*
X122092000Y-121655328D01*
X122092000Y-122177885D01*
X120908500Y-122177885D01*
X120908500Y-121651866D01*
X120901745Y-121589684D01*
X120850615Y-121453295D01*
X120763261Y-121336739D01*
X120646705Y-121249385D01*
X120510316Y-121198255D01*
X120448134Y-121191500D01*
X119834989Y-121191500D01*
X119766868Y-121171498D01*
X119720375Y-121117842D01*
X119708989Y-121065500D01*
X119708989Y-97215882D01*
X119728991Y-97147761D01*
X119745894Y-97126787D01*
X120521331Y-96351350D01*
X120584228Y-96317199D01*
X120640824Y-96305169D01*
X120640833Y-96305166D01*
X120647288Y-96303794D01*
X120663482Y-96296584D01*
X120815722Y-96228803D01*
X120815724Y-96228802D01*
X120821752Y-96226118D01*
X120976253Y-96113866D01*
X120985136Y-96104000D01*
X121099621Y-95976852D01*
X121099622Y-95976851D01*
X121104040Y-95971944D01*
X121199527Y-95806556D01*
X121258542Y-95624928D01*
X121261583Y-95596000D01*
X121277814Y-95441565D01*
X121278504Y-95435000D01*
X121258542Y-95245072D01*
X121199527Y-95063444D01*
X121192843Y-95051866D01*
X121175381Y-95021622D01*
X121158500Y-94958622D01*
X121158500Y-91804802D01*
X121178502Y-91736681D01*
X121208935Y-91703976D01*
X121256081Y-91668642D01*
X121263261Y-91663261D01*
X121350615Y-91546705D01*
X121401745Y-91410316D01*
X121408500Y-91348134D01*
X122591500Y-91348134D01*
X122598255Y-91410316D01*
X122649385Y-91546705D01*
X122736739Y-91663261D01*
X122853295Y-91750615D01*
X122861703Y-91753767D01*
X122909730Y-91771772D01*
X122966495Y-91814414D01*
X122991194Y-91880976D01*
X122991500Y-91889754D01*
X122991500Y-91969710D01*
X122971498Y-92037831D01*
X122959136Y-92054020D01*
X122884708Y-92136681D01*
X122860960Y-92163056D01*
X122765473Y-92328444D01*
X122706458Y-92510072D01*
X122686496Y-92700000D01*
X122706458Y-92889928D01*
X122765473Y-93071556D01*
X122860960Y-93236944D01*
X122988747Y-93378866D01*
X123143248Y-93491118D01*
X123149276Y-93493802D01*
X123149278Y-93493803D01*
X123311681Y-93566109D01*
X123317712Y-93568794D01*
X123411112Y-93588647D01*
X123498056Y-93607128D01*
X123498061Y-93607128D01*
X123504513Y-93608500D01*
X123695487Y-93608500D01*
X123701939Y-93607128D01*
X123701944Y-93607128D01*
X123788887Y-93588647D01*
X123882288Y-93568794D01*
X123888319Y-93566109D01*
X124050722Y-93493803D01*
X124050724Y-93493802D01*
X124056752Y-93491118D01*
X124211253Y-93378866D01*
X124339040Y-93236944D01*
X124434527Y-93071556D01*
X124493542Y-92889928D01*
X124513504Y-92700000D01*
X124493542Y-92510072D01*
X124434527Y-92328444D01*
X124339040Y-92163056D01*
X124315292Y-92136681D01*
X124240864Y-92054020D01*
X124210146Y-91990013D01*
X124208500Y-91969710D01*
X124208500Y-91889754D01*
X124228502Y-91821633D01*
X124282158Y-91775140D01*
X124290270Y-91771772D01*
X124338297Y-91753767D01*
X124346705Y-91750615D01*
X124463261Y-91663261D01*
X124550615Y-91546705D01*
X124601745Y-91410316D01*
X124608500Y-91348134D01*
X124608500Y-89751866D01*
X124601745Y-89689684D01*
X124550615Y-89553295D01*
X124463261Y-89436739D01*
X124346705Y-89349385D01*
X124210316Y-89298255D01*
X124148134Y-89291500D01*
X123051866Y-89291500D01*
X122989684Y-89298255D01*
X122853295Y-89349385D01*
X122736739Y-89436739D01*
X122649385Y-89553295D01*
X122598255Y-89689684D01*
X122591500Y-89751866D01*
X122591500Y-91348134D01*
X121408500Y-91348134D01*
X121408500Y-89751866D01*
X121401745Y-89689684D01*
X121350615Y-89553295D01*
X121263261Y-89436739D01*
X121146705Y-89349385D01*
X121138296Y-89346233D01*
X121138295Y-89346232D01*
X121029000Y-89305259D01*
X120972235Y-89262618D01*
X120947535Y-89196056D01*
X120962742Y-89126707D01*
X120979589Y-89102971D01*
X121039040Y-89036944D01*
X121134527Y-88871556D01*
X121193542Y-88689928D01*
X121203393Y-88596206D01*
X121212814Y-88506565D01*
X121213504Y-88500000D01*
X121203684Y-88406565D01*
X121194232Y-88316635D01*
X121194232Y-88316633D01*
X121193542Y-88310072D01*
X121134527Y-88128444D01*
X121128735Y-88118411D01*
X121042342Y-87968775D01*
X121042341Y-87968774D01*
X121039040Y-87963056D01*
X121034621Y-87958148D01*
X121032564Y-87955317D01*
X121008705Y-87888449D01*
X121008500Y-87881256D01*
X121008500Y-86989754D01*
X121028502Y-86921633D01*
X121082158Y-86875140D01*
X121090270Y-86871772D01*
X121138297Y-86853767D01*
X121146705Y-86850615D01*
X121263261Y-86763261D01*
X121350615Y-86646705D01*
X121401745Y-86510316D01*
X121408500Y-86448134D01*
X121408500Y-86444669D01*
X122592001Y-86444669D01*
X122592371Y-86451490D01*
X122597895Y-86502352D01*
X122601521Y-86517604D01*
X122646676Y-86638054D01*
X122655214Y-86653649D01*
X122731715Y-86755724D01*
X122744276Y-86768285D01*
X122846351Y-86844786D01*
X122861946Y-86853324D01*
X122982394Y-86898478D01*
X122997649Y-86902105D01*
X123048514Y-86907631D01*
X123055328Y-86908000D01*
X123327885Y-86908000D01*
X123343124Y-86903525D01*
X123344329Y-86902135D01*
X123346000Y-86894452D01*
X123346000Y-86889884D01*
X123854000Y-86889884D01*
X123858475Y-86905123D01*
X123859865Y-86906328D01*
X123867548Y-86907999D01*
X124144669Y-86907999D01*
X124151490Y-86907629D01*
X124202352Y-86902105D01*
X124217604Y-86898479D01*
X124338054Y-86853324D01*
X124353649Y-86844786D01*
X124455724Y-86768285D01*
X124468285Y-86755724D01*
X124544786Y-86653649D01*
X124553324Y-86638054D01*
X124598478Y-86517606D01*
X124602105Y-86502351D01*
X124607631Y-86451486D01*
X124608000Y-86444672D01*
X124608000Y-85922115D01*
X124603525Y-85906876D01*
X124602135Y-85905671D01*
X124594452Y-85904000D01*
X123872115Y-85904000D01*
X123856876Y-85908475D01*
X123855671Y-85909865D01*
X123854000Y-85917548D01*
X123854000Y-86889884D01*
X123346000Y-86889884D01*
X123346000Y-85922115D01*
X123341525Y-85906876D01*
X123340135Y-85905671D01*
X123332452Y-85904000D01*
X122610116Y-85904000D01*
X122594877Y-85908475D01*
X122593672Y-85909865D01*
X122592001Y-85917548D01*
X122592001Y-86444669D01*
X121408500Y-86444669D01*
X121408500Y-84851866D01*
X121401745Y-84789684D01*
X121390190Y-84758861D01*
X121385007Y-84688056D01*
X121418927Y-84625686D01*
X121481182Y-84591557D01*
X121505286Y-84588665D01*
X121608622Y-84586299D01*
X122497999Y-84565932D01*
X122566560Y-84584369D01*
G37*
%TD.AperFunction*%
%TA.AperFunction,Conductor*%
G36*
X44833262Y-84387259D02*
G01*
X44900907Y-84408815D01*
X44946159Y-84463522D01*
X44954651Y-84534008D01*
X44948359Y-84557456D01*
X44901522Y-84682394D01*
X44897895Y-84697649D01*
X44892369Y-84748514D01*
X44892000Y-84755328D01*
X44892000Y-85277885D01*
X44896475Y-85293124D01*
X44897865Y-85294329D01*
X44905548Y-85296000D01*
X46889884Y-85296000D01*
X46905123Y-85291525D01*
X46906328Y-85290135D01*
X46907999Y-85282452D01*
X46907999Y-84755331D01*
X46907629Y-84748510D01*
X46902105Y-84697648D01*
X46898478Y-84682393D01*
X46870166Y-84606869D01*
X46864983Y-84536062D01*
X46898904Y-84473693D01*
X46961160Y-84439564D01*
X46991033Y-84436673D01*
X51903104Y-84549163D01*
X61442759Y-84767628D01*
X61510403Y-84789184D01*
X61555655Y-84843890D01*
X61564147Y-84914377D01*
X61551778Y-84950102D01*
X61549385Y-84953295D01*
X61498255Y-85089684D01*
X61491500Y-85151866D01*
X61491500Y-86748134D01*
X61498255Y-86810316D01*
X61549385Y-86946705D01*
X61587407Y-86997438D01*
X61600480Y-87014881D01*
X61625328Y-87081387D01*
X61608773Y-87153446D01*
X61577491Y-87207629D01*
X61565473Y-87228444D01*
X61506458Y-87410072D01*
X61486496Y-87600000D01*
X61487186Y-87606564D01*
X61487186Y-87606565D01*
X61505547Y-87781256D01*
X61506458Y-87789928D01*
X61565473Y-87971556D01*
X61660960Y-88136944D01*
X61665378Y-88141851D01*
X61665379Y-88141852D01*
X61770092Y-88258148D01*
X61788747Y-88278866D01*
X61843634Y-88318744D01*
X61931724Y-88382745D01*
X61943248Y-88391118D01*
X61949276Y-88393802D01*
X61949278Y-88393803D01*
X62035785Y-88432318D01*
X62117712Y-88468794D01*
X62211113Y-88488647D01*
X62298056Y-88507128D01*
X62298061Y-88507128D01*
X62304513Y-88508500D01*
X62495487Y-88508500D01*
X62501939Y-88507128D01*
X62501944Y-88507128D01*
X62552564Y-88496368D01*
X62623355Y-88501770D01*
X62679988Y-88544587D01*
X62704481Y-88611225D01*
X62704071Y-88632782D01*
X62686496Y-88800000D01*
X62687186Y-88806565D01*
X62705129Y-88977279D01*
X62706458Y-88989928D01*
X62765473Y-89171556D01*
X62860960Y-89336944D01*
X62900801Y-89381192D01*
X62931517Y-89445198D01*
X62922752Y-89515651D01*
X62877289Y-89570182D01*
X62807163Y-89591500D01*
X61951866Y-89591500D01*
X61889684Y-89598255D01*
X61753295Y-89649385D01*
X61636739Y-89736739D01*
X61549385Y-89853295D01*
X61498255Y-89989684D01*
X61491500Y-90051866D01*
X61491500Y-91648134D01*
X61498255Y-91710316D01*
X61549385Y-91846705D01*
X61636739Y-91963261D01*
X61643919Y-91968642D01*
X61691065Y-92003976D01*
X61733580Y-92060835D01*
X61741500Y-92104802D01*
X61741500Y-94837379D01*
X61724619Y-94900378D01*
X61705992Y-94932642D01*
X61637158Y-95051866D01*
X61630473Y-95063444D01*
X61571458Y-95245072D01*
X61551496Y-95435000D01*
X61552186Y-95441565D01*
X61568418Y-95596000D01*
X61571458Y-95624928D01*
X61630473Y-95806556D01*
X61725960Y-95971944D01*
X61730378Y-95976851D01*
X61730379Y-95976852D01*
X61844864Y-96104000D01*
X61853747Y-96113866D01*
X62008248Y-96226118D01*
X62014276Y-96228802D01*
X62014278Y-96228803D01*
X62166518Y-96296584D01*
X62182712Y-96303794D01*
X62271761Y-96322722D01*
X62363056Y-96342128D01*
X62363061Y-96342128D01*
X62369513Y-96343500D01*
X62560487Y-96343500D01*
X62566939Y-96342128D01*
X62566944Y-96342128D01*
X62658239Y-96322722D01*
X62747288Y-96303794D01*
X62814252Y-96273980D01*
X62884618Y-96264546D01*
X62948915Y-96294652D01*
X62986729Y-96354741D01*
X62991500Y-96389087D01*
X62991500Y-109781583D01*
X62971498Y-109849704D01*
X62917842Y-109896197D01*
X62847568Y-109906301D01*
X62789935Y-109882409D01*
X62753649Y-109855214D01*
X62738054Y-109846676D01*
X62617606Y-109801522D01*
X62602351Y-109797895D01*
X62551486Y-109792369D01*
X62544672Y-109792000D01*
X62272115Y-109792000D01*
X62256876Y-109796475D01*
X62255671Y-109797865D01*
X62254000Y-109805548D01*
X62254000Y-112289884D01*
X62258475Y-112305123D01*
X62259865Y-112306328D01*
X62267548Y-112307999D01*
X62544669Y-112307999D01*
X62551490Y-112307629D01*
X62602352Y-112302105D01*
X62617604Y-112298479D01*
X62738054Y-112253324D01*
X62753649Y-112244786D01*
X62789935Y-112217591D01*
X62856442Y-112192743D01*
X62925824Y-112207796D01*
X62976054Y-112257970D01*
X62991500Y-112318417D01*
X62991500Y-114045761D01*
X62971498Y-114113882D01*
X62954595Y-114134856D01*
X62434856Y-114654595D01*
X62372544Y-114688621D01*
X62345761Y-114691500D01*
X61451866Y-114691500D01*
X61389684Y-114698255D01*
X61253295Y-114749385D01*
X61136739Y-114836739D01*
X61049385Y-114953295D01*
X60998255Y-115089684D01*
X60991500Y-115151866D01*
X60991500Y-116748134D01*
X60998255Y-116810316D01*
X61049385Y-116946705D01*
X61136739Y-117063261D01*
X61253295Y-117150615D01*
X61389684Y-117201745D01*
X61451866Y-117208500D01*
X62548134Y-117208500D01*
X62610316Y-117201745D01*
X62746705Y-117150615D01*
X62863261Y-117063261D01*
X62950615Y-116946705D01*
X63001745Y-116810316D01*
X63008500Y-116748134D01*
X63008500Y-115854239D01*
X63028502Y-115786118D01*
X63045405Y-115765144D01*
X63996234Y-114814315D01*
X64008625Y-114803448D01*
X64027437Y-114789013D01*
X64033987Y-114783987D01*
X64058474Y-114752075D01*
X64058478Y-114752071D01*
X64131524Y-114656876D01*
X64192838Y-114508851D01*
X64213751Y-114350000D01*
X64209578Y-114318301D01*
X64208500Y-114301856D01*
X64208500Y-89530290D01*
X64228502Y-89462169D01*
X64240864Y-89445980D01*
X64334621Y-89341852D01*
X64334622Y-89341851D01*
X64339040Y-89336944D01*
X64434527Y-89171556D01*
X64493542Y-88989928D01*
X64494872Y-88977279D01*
X64512814Y-88806565D01*
X64513504Y-88800000D01*
X64493542Y-88610072D01*
X64434527Y-88428444D01*
X64339040Y-88263056D01*
X64297243Y-88216635D01*
X64215675Y-88126045D01*
X64215674Y-88126044D01*
X64211253Y-88121134D01*
X64056752Y-88008882D01*
X64050724Y-88006198D01*
X64050722Y-88006197D01*
X63888319Y-87933891D01*
X63888318Y-87933891D01*
X63882288Y-87931206D01*
X63788888Y-87911353D01*
X63701944Y-87892872D01*
X63701939Y-87892872D01*
X63695487Y-87891500D01*
X63504513Y-87891500D01*
X63498061Y-87892872D01*
X63498056Y-87892872D01*
X63447436Y-87903632D01*
X63376645Y-87898230D01*
X63320012Y-87855413D01*
X63295519Y-87788775D01*
X63295929Y-87767214D01*
X63297697Y-87750400D01*
X63313504Y-87600000D01*
X63293542Y-87410072D01*
X63269971Y-87337529D01*
X63244426Y-87258908D01*
X63242399Y-87187940D01*
X63279061Y-87127143D01*
X63288694Y-87119146D01*
X63333341Y-87085685D01*
X63363261Y-87063261D01*
X63450615Y-86946705D01*
X63501745Y-86810316D01*
X63508500Y-86748134D01*
X63508500Y-86744669D01*
X64692001Y-86744669D01*
X64692371Y-86751490D01*
X64697895Y-86802352D01*
X64701521Y-86817604D01*
X64746676Y-86938054D01*
X64755214Y-86953649D01*
X64831715Y-87055724D01*
X64844276Y-87068285D01*
X64946351Y-87144786D01*
X64961946Y-87153324D01*
X65082394Y-87198478D01*
X65097649Y-87202105D01*
X65148514Y-87207631D01*
X65155328Y-87208000D01*
X65427885Y-87208000D01*
X65443124Y-87203525D01*
X65444329Y-87202135D01*
X65446000Y-87194452D01*
X65446000Y-87189884D01*
X65954000Y-87189884D01*
X65958475Y-87205123D01*
X65959865Y-87206328D01*
X65967548Y-87207999D01*
X66244669Y-87207999D01*
X66251490Y-87207629D01*
X66302352Y-87202105D01*
X66317604Y-87198479D01*
X66438054Y-87153324D01*
X66453649Y-87144786D01*
X66555724Y-87068285D01*
X66568285Y-87055724D01*
X66644786Y-86953649D01*
X66653324Y-86938054D01*
X66698478Y-86817606D01*
X66702105Y-86802351D01*
X66707631Y-86751486D01*
X66708000Y-86744672D01*
X66708000Y-86222115D01*
X66703525Y-86206876D01*
X66702135Y-86205671D01*
X66694452Y-86204000D01*
X65972115Y-86204000D01*
X65956876Y-86208475D01*
X65955671Y-86209865D01*
X65954000Y-86217548D01*
X65954000Y-87189884D01*
X65446000Y-87189884D01*
X65446000Y-86222115D01*
X65441525Y-86206876D01*
X65440135Y-86205671D01*
X65432452Y-86204000D01*
X64710116Y-86204000D01*
X64694877Y-86208475D01*
X64693672Y-86209865D01*
X64692001Y-86217548D01*
X64692001Y-86744669D01*
X63508500Y-86744669D01*
X63508500Y-85151866D01*
X63501745Y-85089684D01*
X63463199Y-84986863D01*
X63458016Y-84916055D01*
X63491937Y-84853686D01*
X63554192Y-84819557D01*
X63584066Y-84816666D01*
X64613401Y-84840239D01*
X64681046Y-84861795D01*
X64726298Y-84916502D01*
X64734790Y-84986988D01*
X64728498Y-85010436D01*
X64701522Y-85082394D01*
X64697895Y-85097649D01*
X64692369Y-85148514D01*
X64692000Y-85155328D01*
X64692000Y-85677885D01*
X64696475Y-85693124D01*
X64697865Y-85694329D01*
X64705548Y-85696000D01*
X66689884Y-85696000D01*
X66705123Y-85691525D01*
X66706328Y-85690135D01*
X66707999Y-85682452D01*
X66707999Y-85155331D01*
X66707629Y-85148510D01*
X66702105Y-85097648D01*
X66698478Y-85082390D01*
X66690371Y-85060765D01*
X66685188Y-84989958D01*
X66719110Y-84927589D01*
X66781366Y-84893461D01*
X66811236Y-84890570D01*
X67384093Y-84903689D01*
X67457055Y-84929042D01*
X70639935Y-87328444D01*
X78659491Y-93373955D01*
X78780140Y-93464906D01*
X78822496Y-93521884D01*
X78827323Y-93592717D01*
X78793089Y-93654914D01*
X78730662Y-93688730D01*
X78704293Y-93691520D01*
X69454259Y-93691520D01*
X69386138Y-93671518D01*
X69365164Y-93654615D01*
X66745405Y-91034856D01*
X66711379Y-90972544D01*
X66708500Y-90945761D01*
X66708500Y-90051866D01*
X66701745Y-89989684D01*
X66650615Y-89853295D01*
X66563261Y-89736739D01*
X66446705Y-89649385D01*
X66310316Y-89598255D01*
X66248134Y-89591500D01*
X65151866Y-89591500D01*
X65089684Y-89598255D01*
X64953295Y-89649385D01*
X64836739Y-89736739D01*
X64749385Y-89853295D01*
X64698255Y-89989684D01*
X64691500Y-90051866D01*
X64691500Y-91648134D01*
X64698255Y-91710316D01*
X64749385Y-91846705D01*
X64836739Y-91963261D01*
X64953295Y-92050615D01*
X65089684Y-92101745D01*
X65151866Y-92108500D01*
X66045761Y-92108500D01*
X66113882Y-92128502D01*
X66134856Y-92145405D01*
X68685705Y-94696254D01*
X68696572Y-94708645D01*
X68716033Y-94734007D01*
X68722583Y-94739033D01*
X68747945Y-94758494D01*
X68747948Y-94758497D01*
X68812361Y-94807923D01*
X68843144Y-94831544D01*
X68991169Y-94892858D01*
X68999356Y-94893936D01*
X68999357Y-94893936D01*
X69010562Y-94895411D01*
X69041758Y-94899518D01*
X69110135Y-94908520D01*
X69110138Y-94908520D01*
X69110146Y-94908521D01*
X69141831Y-94912692D01*
X69150020Y-94913770D01*
X69181713Y-94909598D01*
X69198156Y-94908520D01*
X78877387Y-94908520D01*
X78945508Y-94928522D01*
X78992001Y-94982178D01*
X79002105Y-95052452D01*
X78997221Y-95073452D01*
X78941458Y-95245072D01*
X78921496Y-95435000D01*
X78922186Y-95441565D01*
X78938418Y-95596000D01*
X78941458Y-95624928D01*
X79000473Y-95806556D01*
X79003776Y-95812278D01*
X79003777Y-95812279D01*
X79059619Y-95908999D01*
X79076500Y-95971999D01*
X79076500Y-98917930D01*
X79075067Y-98936880D01*
X79071801Y-98958349D01*
X79072394Y-98965641D01*
X79072394Y-98965644D01*
X79076085Y-99011018D01*
X79076500Y-99021233D01*
X79076500Y-124497930D01*
X79075067Y-124516880D01*
X79071801Y-124538349D01*
X79072394Y-124545641D01*
X79072394Y-124545644D01*
X79076085Y-124591018D01*
X79076500Y-124601233D01*
X79076500Y-124917930D01*
X79075067Y-124936880D01*
X79073683Y-124945980D01*
X79071801Y-124958349D01*
X79072394Y-124965641D01*
X79072394Y-124965644D01*
X79076085Y-125011018D01*
X79076500Y-125021233D01*
X79076500Y-125029293D01*
X79078049Y-125042583D01*
X79079789Y-125057507D01*
X79080222Y-125061882D01*
X79083177Y-125098204D01*
X79086140Y-125134637D01*
X79088396Y-125141601D01*
X79089587Y-125147560D01*
X79090971Y-125153415D01*
X79091818Y-125160681D01*
X79116735Y-125229327D01*
X79118152Y-125233455D01*
X79140649Y-125302899D01*
X79144445Y-125309154D01*
X79146951Y-125314628D01*
X79149670Y-125320058D01*
X79152167Y-125326937D01*
X79156180Y-125333057D01*
X79156180Y-125333058D01*
X79192186Y-125387976D01*
X79194523Y-125391680D01*
X79232405Y-125454107D01*
X79236121Y-125458315D01*
X79236122Y-125458316D01*
X79239803Y-125462484D01*
X79239776Y-125462508D01*
X79242429Y-125465500D01*
X79245132Y-125468733D01*
X79249144Y-125474852D01*
X79254456Y-125479884D01*
X79305383Y-125528128D01*
X79307825Y-125530506D01*
X79454595Y-125677276D01*
X79488621Y-125739588D01*
X79491500Y-125766371D01*
X79491500Y-150832930D01*
X79490067Y-150851880D01*
X79486801Y-150873349D01*
X79487394Y-150880641D01*
X79487394Y-150880644D01*
X79491085Y-150926018D01*
X79491500Y-150936233D01*
X79491500Y-150944293D01*
X79491925Y-150947937D01*
X79494789Y-150972507D01*
X79495222Y-150976882D01*
X79496961Y-150998255D01*
X79501140Y-151049637D01*
X79503396Y-151056601D01*
X79504587Y-151062560D01*
X79505971Y-151068415D01*
X79506818Y-151075681D01*
X79531735Y-151144327D01*
X79533152Y-151148455D01*
X79555649Y-151217899D01*
X79559445Y-151224154D01*
X79561951Y-151229628D01*
X79564670Y-151235058D01*
X79567167Y-151241937D01*
X79571180Y-151248057D01*
X79571180Y-151248058D01*
X79607186Y-151302976D01*
X79609523Y-151306680D01*
X79647405Y-151369107D01*
X79651121Y-151373315D01*
X79651122Y-151373316D01*
X79654803Y-151377484D01*
X79654776Y-151377508D01*
X79657429Y-151380500D01*
X79660132Y-151383733D01*
X79664144Y-151389852D01*
X79669456Y-151394884D01*
X79720383Y-151443128D01*
X79722825Y-151445506D01*
X80554595Y-152277276D01*
X80588621Y-152339588D01*
X80591500Y-152366371D01*
X80591500Y-153048134D01*
X80598255Y-153110316D01*
X80649385Y-153246705D01*
X80736739Y-153363261D01*
X80743919Y-153368642D01*
X80750269Y-153374992D01*
X80748022Y-153377239D01*
X80781143Y-153421544D01*
X80786162Y-153492363D01*
X80752097Y-153554653D01*
X80689762Y-153588638D01*
X80663059Y-153591500D01*
X80647449Y-153591500D01*
X80591888Y-153578588D01*
X75230048Y-150944293D01*
X58342948Y-142647588D01*
X58290628Y-142599598D01*
X58272559Y-142530939D01*
X58294479Y-142463411D01*
X58349427Y-142418453D01*
X58398509Y-142408500D01*
X59248134Y-142408500D01*
X59310316Y-142401745D01*
X59446705Y-142350615D01*
X59563261Y-142263261D01*
X59650615Y-142146705D01*
X59701745Y-142010316D01*
X59708500Y-141948134D01*
X60891500Y-141948134D01*
X60898255Y-142010316D01*
X60949385Y-142146705D01*
X61036739Y-142263261D01*
X61153295Y-142350615D01*
X61289684Y-142401745D01*
X61351866Y-142408500D01*
X62448134Y-142408500D01*
X62510316Y-142401745D01*
X62646705Y-142350615D01*
X62763261Y-142263261D01*
X62850615Y-142146705D01*
X62866873Y-142103337D01*
X62909515Y-142046573D01*
X62976076Y-142021873D01*
X63036104Y-142032460D01*
X63067803Y-142046573D01*
X63117712Y-142068794D01*
X63211112Y-142088647D01*
X63298056Y-142107128D01*
X63298061Y-142107128D01*
X63304513Y-142108500D01*
X63495487Y-142108500D01*
X63501939Y-142107128D01*
X63501944Y-142107128D01*
X63588888Y-142088647D01*
X63682288Y-142068794D01*
X63688319Y-142066109D01*
X63850722Y-141993803D01*
X63850724Y-141993802D01*
X63856752Y-141991118D01*
X64011253Y-141878866D01*
X64139040Y-141736944D01*
X64234527Y-141571556D01*
X64293542Y-141389928D01*
X64303393Y-141296206D01*
X64312814Y-141206565D01*
X64313504Y-141200000D01*
X64293542Y-141010072D01*
X64234527Y-140828444D01*
X64139040Y-140663056D01*
X64030425Y-140542426D01*
X64015675Y-140526045D01*
X64015674Y-140526044D01*
X64011253Y-140521134D01*
X63880375Y-140426045D01*
X63862094Y-140412763D01*
X63862093Y-140412762D01*
X63856752Y-140408882D01*
X63850724Y-140406198D01*
X63850722Y-140406197D01*
X63688319Y-140333891D01*
X63688318Y-140333891D01*
X63682288Y-140331206D01*
X63588887Y-140311353D01*
X63501944Y-140292872D01*
X63501939Y-140292872D01*
X63495487Y-140291500D01*
X63304513Y-140291500D01*
X63298061Y-140292872D01*
X63298056Y-140292872D01*
X63211113Y-140311353D01*
X63117712Y-140331206D01*
X63068229Y-140353237D01*
X62997863Y-140362671D01*
X62933566Y-140332565D01*
X62898999Y-140282359D01*
X62853768Y-140161705D01*
X62853767Y-140161703D01*
X62850615Y-140153295D01*
X62763261Y-140036739D01*
X62646705Y-139949385D01*
X62510316Y-139898255D01*
X62448134Y-139891500D01*
X61351866Y-139891500D01*
X61289684Y-139898255D01*
X61153295Y-139949385D01*
X61036739Y-140036739D01*
X60949385Y-140153295D01*
X60898255Y-140289684D01*
X60891500Y-140351866D01*
X60891500Y-141948134D01*
X59708500Y-141948134D01*
X59708500Y-140351866D01*
X59701745Y-140289684D01*
X59650615Y-140153295D01*
X59563261Y-140036739D01*
X59446705Y-139949385D01*
X59310316Y-139898255D01*
X59248134Y-139891500D01*
X58816371Y-139891500D01*
X58748250Y-139871498D01*
X58727276Y-139854595D01*
X57430405Y-138557724D01*
X57396379Y-138495412D01*
X57393500Y-138468629D01*
X57393500Y-128362992D01*
X57413502Y-128294871D01*
X57467158Y-128248378D01*
X57537432Y-128238274D01*
X57570748Y-128247885D01*
X57611677Y-128266108D01*
X57611685Y-128266111D01*
X57617712Y-128268794D01*
X57711112Y-128288647D01*
X57798056Y-128307128D01*
X57798061Y-128307128D01*
X57804513Y-128308500D01*
X57895761Y-128308500D01*
X57963882Y-128328502D01*
X57984856Y-128345405D01*
X58054595Y-128415144D01*
X58088621Y-128477456D01*
X58091500Y-128504239D01*
X58091500Y-134910246D01*
X58071498Y-134978367D01*
X58017842Y-135024860D01*
X58009730Y-135028228D01*
X57963908Y-135045406D01*
X57953295Y-135049385D01*
X57836739Y-135136739D01*
X57749385Y-135253295D01*
X57698255Y-135389684D01*
X57691500Y-135451866D01*
X57691500Y-137048134D01*
X57698255Y-137110316D01*
X57749385Y-137246705D01*
X57836739Y-137363261D01*
X57953295Y-137450615D01*
X58089684Y-137501745D01*
X58151866Y-137508500D01*
X59248134Y-137508500D01*
X59310316Y-137501745D01*
X59446705Y-137450615D01*
X59563261Y-137363261D01*
X59650615Y-137246705D01*
X59701745Y-137110316D01*
X59708500Y-137048134D01*
X59708500Y-137044669D01*
X60892001Y-137044669D01*
X60892371Y-137051490D01*
X60897895Y-137102352D01*
X60901521Y-137117604D01*
X60946676Y-137238054D01*
X60955214Y-137253649D01*
X61031715Y-137355724D01*
X61044276Y-137368285D01*
X61146351Y-137444786D01*
X61161946Y-137453324D01*
X61282394Y-137498478D01*
X61297649Y-137502105D01*
X61348514Y-137507631D01*
X61355328Y-137508000D01*
X61627885Y-137508000D01*
X61643124Y-137503525D01*
X61644329Y-137502135D01*
X61646000Y-137494452D01*
X61646000Y-137489884D01*
X62154000Y-137489884D01*
X62158475Y-137505123D01*
X62159865Y-137506328D01*
X62167548Y-137507999D01*
X62444669Y-137507999D01*
X62451490Y-137507629D01*
X62502352Y-137502105D01*
X62517604Y-137498479D01*
X62638054Y-137453324D01*
X62653649Y-137444786D01*
X62755724Y-137368285D01*
X62768285Y-137355724D01*
X62844786Y-137253649D01*
X62853324Y-137238054D01*
X62898478Y-137117606D01*
X62902105Y-137102351D01*
X62907631Y-137051486D01*
X62908000Y-137044672D01*
X62908000Y-136522115D01*
X62903525Y-136506876D01*
X62902135Y-136505671D01*
X62894452Y-136504000D01*
X62172115Y-136504000D01*
X62156876Y-136508475D01*
X62155671Y-136509865D01*
X62154000Y-136517548D01*
X62154000Y-137489884D01*
X61646000Y-137489884D01*
X61646000Y-136522115D01*
X61641525Y-136506876D01*
X61640135Y-136505671D01*
X61632452Y-136504000D01*
X60910116Y-136504000D01*
X60894877Y-136508475D01*
X60893672Y-136509865D01*
X60892001Y-136517548D01*
X60892001Y-137044669D01*
X59708500Y-137044669D01*
X59708500Y-135977885D01*
X60892000Y-135977885D01*
X60896475Y-135993124D01*
X60897865Y-135994329D01*
X60905548Y-135996000D01*
X61627885Y-135996000D01*
X61643124Y-135991525D01*
X61644329Y-135990135D01*
X61646000Y-135982452D01*
X61646000Y-135977885D01*
X62154000Y-135977885D01*
X62158475Y-135993124D01*
X62159865Y-135994329D01*
X62167548Y-135996000D01*
X62889884Y-135996000D01*
X62905123Y-135991525D01*
X62906328Y-135990135D01*
X62907999Y-135982452D01*
X62907999Y-135455331D01*
X62907629Y-135448510D01*
X62902105Y-135397648D01*
X62898479Y-135382396D01*
X62853324Y-135261946D01*
X62844786Y-135246351D01*
X62768285Y-135144276D01*
X62755724Y-135131715D01*
X62653649Y-135055214D01*
X62638054Y-135046676D01*
X62517606Y-135001522D01*
X62502351Y-134997895D01*
X62451486Y-134992369D01*
X62444672Y-134992000D01*
X62172115Y-134992000D01*
X62156876Y-134996475D01*
X62155671Y-134997865D01*
X62154000Y-135005548D01*
X62154000Y-135977885D01*
X61646000Y-135977885D01*
X61646000Y-135010116D01*
X61641525Y-134994877D01*
X61640135Y-134993672D01*
X61632452Y-134992001D01*
X61355331Y-134992001D01*
X61348510Y-134992371D01*
X61297648Y-134997895D01*
X61282396Y-135001521D01*
X61161946Y-135046676D01*
X61146351Y-135055214D01*
X61044276Y-135131715D01*
X61031715Y-135144276D01*
X60955214Y-135246351D01*
X60946676Y-135261946D01*
X60901522Y-135382394D01*
X60897895Y-135397649D01*
X60892369Y-135448514D01*
X60892000Y-135455328D01*
X60892000Y-135977885D01*
X59708500Y-135977885D01*
X59708500Y-135451866D01*
X59701745Y-135389684D01*
X59650615Y-135253295D01*
X59563261Y-135136739D01*
X59446705Y-135049385D01*
X59436092Y-135045406D01*
X59390270Y-135028228D01*
X59333505Y-134985586D01*
X59308806Y-134919024D01*
X59308500Y-134910246D01*
X59308500Y-128248136D01*
X59309578Y-128231690D01*
X59312672Y-128208188D01*
X59313750Y-128200000D01*
X59308500Y-128160120D01*
X59308500Y-128160115D01*
X59294578Y-128054364D01*
X59292838Y-128041149D01*
X59231524Y-127893124D01*
X59158478Y-127797929D01*
X59158474Y-127797925D01*
X59142632Y-127777279D01*
X59139016Y-127772566D01*
X59139013Y-127772563D01*
X59133987Y-127766013D01*
X59121044Y-127756081D01*
X59108621Y-127746548D01*
X59096230Y-127735681D01*
X58849719Y-127489170D01*
X58815693Y-127426858D01*
X58813159Y-127403284D01*
X58813504Y-127400000D01*
X58793542Y-127210072D01*
X58734527Y-127028444D01*
X58639040Y-126863056D01*
X58530425Y-126742426D01*
X58515675Y-126726045D01*
X58515674Y-126726044D01*
X58511253Y-126721134D01*
X58356752Y-126608882D01*
X58350724Y-126606198D01*
X58350722Y-126606197D01*
X58188319Y-126533891D01*
X58188318Y-126533891D01*
X58182288Y-126531206D01*
X58060044Y-126505222D01*
X58001944Y-126492872D01*
X58001939Y-126492872D01*
X57995487Y-126491500D01*
X57804513Y-126491500D01*
X57798061Y-126492872D01*
X57798056Y-126492872D01*
X57739956Y-126505222D01*
X57617712Y-126531206D01*
X57611685Y-126533889D01*
X57611677Y-126533892D01*
X57570748Y-126552115D01*
X57500381Y-126561549D01*
X57436084Y-126531442D01*
X57398271Y-126471353D01*
X57393500Y-126437008D01*
X57393500Y-115920371D01*
X57413502Y-115852250D01*
X57467158Y-115805757D01*
X57537432Y-115795653D01*
X57602012Y-115825147D01*
X57608595Y-115831276D01*
X57754595Y-115977276D01*
X57788621Y-116039588D01*
X57791500Y-116066371D01*
X57791500Y-116748134D01*
X57798255Y-116810316D01*
X57849385Y-116946705D01*
X57936739Y-117063261D01*
X58053295Y-117150615D01*
X58189684Y-117201745D01*
X58251866Y-117208500D01*
X58865011Y-117208500D01*
X58933132Y-117228502D01*
X58979625Y-117282158D01*
X58991011Y-117334500D01*
X58991011Y-122782635D01*
X58971009Y-122850756D01*
X58939072Y-122884571D01*
X58894091Y-122917251D01*
X58894089Y-122917253D01*
X58888747Y-122921134D01*
X58884326Y-122926044D01*
X58884325Y-122926045D01*
X58810415Y-123008131D01*
X58760960Y-123063056D01*
X58749427Y-123083032D01*
X58676334Y-123209633D01*
X58665473Y-123228444D01*
X58606458Y-123410072D01*
X58605768Y-123416633D01*
X58605768Y-123416635D01*
X58591112Y-123556081D01*
X58586496Y-123600000D01*
X58587186Y-123606565D01*
X58604235Y-123768774D01*
X58606458Y-123789928D01*
X58665473Y-123971556D01*
X58760960Y-124136944D01*
X58888747Y-124278866D01*
X59043248Y-124391118D01*
X59049276Y-124393802D01*
X59049278Y-124393803D01*
X59146018Y-124436874D01*
X59217712Y-124468794D01*
X59286263Y-124483365D01*
X59398056Y-124507128D01*
X59398061Y-124507128D01*
X59404513Y-124508500D01*
X59595487Y-124508500D01*
X59601939Y-124507128D01*
X59601944Y-124507128D01*
X59713737Y-124483365D01*
X59782288Y-124468794D01*
X59853982Y-124436874D01*
X59950722Y-124393803D01*
X59950724Y-124393802D01*
X59956752Y-124391118D01*
X60111253Y-124278866D01*
X60239040Y-124136944D01*
X60334527Y-123971556D01*
X60393542Y-123789928D01*
X60395766Y-123768774D01*
X60412814Y-123606565D01*
X60413504Y-123600000D01*
X60408888Y-123556081D01*
X60394232Y-123416635D01*
X60394232Y-123416633D01*
X60393542Y-123410072D01*
X60334527Y-123228444D01*
X60323667Y-123209633D01*
X60242342Y-123068775D01*
X60242341Y-123068774D01*
X60239040Y-123063056D01*
X60234621Y-123058148D01*
X60232075Y-123054644D01*
X60208217Y-122987776D01*
X60208011Y-122980583D01*
X60208011Y-111897647D01*
X60209089Y-111881201D01*
X60212183Y-111857699D01*
X60213261Y-111849511D01*
X60212624Y-111844669D01*
X60992001Y-111844669D01*
X60992371Y-111851490D01*
X60997895Y-111902352D01*
X61001521Y-111917604D01*
X61046676Y-112038054D01*
X61055214Y-112053649D01*
X61131715Y-112155724D01*
X61144276Y-112168285D01*
X61246351Y-112244786D01*
X61261946Y-112253324D01*
X61382394Y-112298478D01*
X61397649Y-112302105D01*
X61448514Y-112307631D01*
X61455328Y-112308000D01*
X61727885Y-112308000D01*
X61743124Y-112303525D01*
X61744329Y-112302135D01*
X61746000Y-112294452D01*
X61746000Y-111322115D01*
X61741525Y-111306876D01*
X61740135Y-111305671D01*
X61732452Y-111304000D01*
X61010116Y-111304000D01*
X60994877Y-111308475D01*
X60993672Y-111309865D01*
X60992001Y-111317548D01*
X60992001Y-111844669D01*
X60212624Y-111844669D01*
X60211865Y-111838902D01*
X60208011Y-111809633D01*
X60208011Y-111809626D01*
X60193427Y-111698849D01*
X60192349Y-111690661D01*
X60131035Y-111542636D01*
X60103357Y-111506565D01*
X60092293Y-111492147D01*
X60092292Y-111492146D01*
X60057988Y-111447439D01*
X60057982Y-111447432D01*
X60038527Y-111422077D01*
X60038524Y-111422074D01*
X60033498Y-111415524D01*
X60026943Y-111410494D01*
X60008132Y-111396059D01*
X59995741Y-111385192D01*
X59845405Y-111234856D01*
X59811379Y-111172544D01*
X59808500Y-111145761D01*
X59808500Y-110777885D01*
X60992000Y-110777885D01*
X60996475Y-110793124D01*
X60997865Y-110794329D01*
X61005548Y-110796000D01*
X61727885Y-110796000D01*
X61743124Y-110791525D01*
X61744329Y-110790135D01*
X61746000Y-110782452D01*
X61746000Y-109810116D01*
X61741525Y-109794877D01*
X61740135Y-109793672D01*
X61732452Y-109792001D01*
X61455331Y-109792001D01*
X61448510Y-109792371D01*
X61397648Y-109797895D01*
X61382396Y-109801521D01*
X61261946Y-109846676D01*
X61246351Y-109855214D01*
X61144276Y-109931715D01*
X61131715Y-109944276D01*
X61055214Y-110046351D01*
X61046676Y-110061946D01*
X61001522Y-110182394D01*
X60997895Y-110197649D01*
X60992369Y-110248514D01*
X60992000Y-110255328D01*
X60992000Y-110777885D01*
X59808500Y-110777885D01*
X59808500Y-110251866D01*
X59801745Y-110189684D01*
X59750615Y-110053295D01*
X59663261Y-109936739D01*
X59546705Y-109849385D01*
X59410316Y-109798255D01*
X59348134Y-109791500D01*
X58251866Y-109791500D01*
X58189684Y-109798255D01*
X58053295Y-109849385D01*
X57936739Y-109936739D01*
X57849385Y-110053295D01*
X57798255Y-110189684D01*
X57791500Y-110251866D01*
X57791500Y-111848134D01*
X57798255Y-111910316D01*
X57849385Y-112046705D01*
X57936739Y-112163261D01*
X58053295Y-112250615D01*
X58189684Y-112301745D01*
X58251866Y-112308500D01*
X58865011Y-112308500D01*
X58933132Y-112328502D01*
X58979625Y-112382158D01*
X58991011Y-112434500D01*
X58991011Y-114565500D01*
X58971009Y-114633621D01*
X58917353Y-114680114D01*
X58865011Y-114691500D01*
X58666371Y-114691500D01*
X58598250Y-114671498D01*
X58577276Y-114654595D01*
X57430405Y-113507724D01*
X57396379Y-113445412D01*
X57393500Y-113418629D01*
X57393500Y-95971999D01*
X57410381Y-95908999D01*
X57466223Y-95812279D01*
X57466224Y-95812278D01*
X57469527Y-95806556D01*
X57528542Y-95624928D01*
X57531583Y-95596000D01*
X57547814Y-95441565D01*
X57548504Y-95435000D01*
X57528542Y-95245072D01*
X57469527Y-95063444D01*
X57430380Y-94995640D01*
X57413500Y-94932642D01*
X57413500Y-87492632D01*
X57433502Y-87424511D01*
X57466331Y-87390054D01*
X57534860Y-87341173D01*
X57567648Y-87308500D01*
X57623992Y-87252352D01*
X57693096Y-87183489D01*
X57733585Y-87127143D01*
X57820435Y-87006277D01*
X57823453Y-87002077D01*
X57829544Y-86989754D01*
X57920136Y-86806453D01*
X57920137Y-86806451D01*
X57922430Y-86801811D01*
X57987370Y-86588069D01*
X58016529Y-86366590D01*
X58016980Y-86348134D01*
X58018074Y-86303365D01*
X58018074Y-86303361D01*
X58018156Y-86300000D01*
X57999852Y-86077361D01*
X57945431Y-85860702D01*
X57856354Y-85655840D01*
X57735014Y-85468277D01*
X57584670Y-85303051D01*
X57580619Y-85299852D01*
X57580615Y-85299848D01*
X57413414Y-85167800D01*
X57413410Y-85167798D01*
X57409359Y-85164598D01*
X57402599Y-85160866D01*
X57357136Y-85135769D01*
X57213789Y-85056638D01*
X57208920Y-85054914D01*
X57208916Y-85054912D01*
X57008087Y-84983795D01*
X57008083Y-84983794D01*
X57003212Y-84982069D01*
X56998119Y-84981162D01*
X56998116Y-84981161D01*
X56788373Y-84943800D01*
X56788367Y-84943799D01*
X56783284Y-84942894D01*
X56709452Y-84941992D01*
X56565081Y-84940228D01*
X56565079Y-84940228D01*
X56559911Y-84940165D01*
X56339091Y-84973955D01*
X56126756Y-85043357D01*
X55928607Y-85146507D01*
X55924474Y-85149610D01*
X55924471Y-85149612D01*
X55754100Y-85277530D01*
X55749965Y-85280635D01*
X55746393Y-85284373D01*
X55639720Y-85396000D01*
X55595629Y-85442138D01*
X55488201Y-85599621D01*
X55433293Y-85644621D01*
X55362768Y-85652792D01*
X55299021Y-85621538D01*
X55278324Y-85597054D01*
X55197822Y-85472617D01*
X55197820Y-85472614D01*
X55195014Y-85468277D01*
X55044670Y-85303051D01*
X55040619Y-85299852D01*
X55040615Y-85299848D01*
X54873414Y-85167800D01*
X54873410Y-85167798D01*
X54869359Y-85164598D01*
X54862599Y-85160866D01*
X54817136Y-85135769D01*
X54673789Y-85056638D01*
X54668920Y-85054914D01*
X54668916Y-85054912D01*
X54468087Y-84983795D01*
X54468083Y-84983794D01*
X54463212Y-84982069D01*
X54458119Y-84981162D01*
X54458116Y-84981161D01*
X54248373Y-84943800D01*
X54248367Y-84943799D01*
X54243284Y-84942894D01*
X54169452Y-84941992D01*
X54025081Y-84940228D01*
X54025079Y-84940228D01*
X54019911Y-84940165D01*
X53799091Y-84973955D01*
X53586756Y-85043357D01*
X53388607Y-85146507D01*
X53384474Y-85149610D01*
X53384471Y-85149612D01*
X53214100Y-85277530D01*
X53209965Y-85280635D01*
X53206393Y-85284373D01*
X53128898Y-85365466D01*
X53067374Y-85400895D01*
X52996462Y-85397438D01*
X52938676Y-85356192D01*
X52919823Y-85322644D01*
X52878324Y-85211946D01*
X52869786Y-85196351D01*
X52793285Y-85094276D01*
X52780724Y-85081715D01*
X52678649Y-85005214D01*
X52663054Y-84996676D01*
X52542606Y-84951522D01*
X52527351Y-84947895D01*
X52476486Y-84942369D01*
X52469672Y-84942000D01*
X51847115Y-84942000D01*
X51831876Y-84946475D01*
X51830671Y-84947865D01*
X51829000Y-84955548D01*
X51829000Y-87639884D01*
X51833475Y-87655123D01*
X51834865Y-87656328D01*
X51842548Y-87657999D01*
X52469669Y-87657999D01*
X52476490Y-87657629D01*
X52527352Y-87652105D01*
X52542604Y-87648479D01*
X52663054Y-87603324D01*
X52678649Y-87594786D01*
X52780724Y-87518285D01*
X52793285Y-87505724D01*
X52869786Y-87403649D01*
X52878324Y-87388054D01*
X52919225Y-87278952D01*
X52961867Y-87222188D01*
X53028428Y-87197488D01*
X53097777Y-87212696D01*
X53132444Y-87240684D01*
X53157865Y-87270031D01*
X53157869Y-87270035D01*
X53161250Y-87273938D01*
X53237846Y-87337529D01*
X53317663Y-87403794D01*
X53333126Y-87416632D01*
X53352132Y-87427738D01*
X53444070Y-87481462D01*
X53492794Y-87533100D01*
X53506500Y-87590250D01*
X53506500Y-88050290D01*
X53486498Y-88118411D01*
X53432842Y-88164904D01*
X53362568Y-88175008D01*
X53297988Y-88145514D01*
X53291405Y-88139385D01*
X53215381Y-88063361D01*
X53068699Y-87974528D01*
X53061452Y-87972257D01*
X53061450Y-87972256D01*
X52995164Y-87951483D01*
X52905062Y-87923247D01*
X52831635Y-87916500D01*
X52828737Y-87916500D01*
X52574335Y-87916501D01*
X52318366Y-87916501D01*
X52315508Y-87916764D01*
X52315499Y-87916764D01*
X52279996Y-87920026D01*
X52244938Y-87923247D01*
X52238560Y-87925246D01*
X52238559Y-87925246D01*
X52088550Y-87972256D01*
X52088548Y-87972257D01*
X52081301Y-87974528D01*
X51934619Y-88063361D01*
X51813361Y-88184619D01*
X51724528Y-88331301D01*
X51673247Y-88494938D01*
X51666500Y-88568365D01*
X51666501Y-89231634D01*
X51666764Y-89234492D01*
X51666764Y-89234501D01*
X51670026Y-89270004D01*
X51673247Y-89305062D01*
X51675246Y-89311440D01*
X51675246Y-89311441D01*
X51719701Y-89453295D01*
X51724528Y-89468699D01*
X51813361Y-89615381D01*
X51854595Y-89656615D01*
X51888621Y-89718927D01*
X51891500Y-89745710D01*
X51891500Y-93569710D01*
X51871498Y-93637831D01*
X51859136Y-93654020D01*
X51858331Y-93654914D01*
X51760960Y-93763056D01*
X51665473Y-93928444D01*
X51606458Y-94110072D01*
X51605768Y-94116633D01*
X51605768Y-94116635D01*
X51588691Y-94279118D01*
X51586496Y-94300000D01*
X51587186Y-94306565D01*
X51601006Y-94438051D01*
X51606458Y-94489928D01*
X51665473Y-94671556D01*
X51668776Y-94677278D01*
X51668777Y-94677279D01*
X51698351Y-94728502D01*
X51760960Y-94836944D01*
X51765378Y-94841851D01*
X51765379Y-94841852D01*
X51843417Y-94928522D01*
X51888747Y-94978866D01*
X51949108Y-95022721D01*
X52013805Y-95069726D01*
X52043248Y-95091118D01*
X52049276Y-95093802D01*
X52049278Y-95093803D01*
X52211681Y-95166109D01*
X52217712Y-95168794D01*
X52311113Y-95188647D01*
X52398056Y-95207128D01*
X52398061Y-95207128D01*
X52404513Y-95208500D01*
X52595487Y-95208500D01*
X52601939Y-95207128D01*
X52601944Y-95207128D01*
X52688887Y-95188647D01*
X52782288Y-95168794D01*
X52788319Y-95166109D01*
X52950722Y-95093803D01*
X52950724Y-95093802D01*
X52956752Y-95091118D01*
X52986196Y-95069726D01*
X53050892Y-95022721D01*
X53111253Y-94978866D01*
X53156583Y-94928522D01*
X53234621Y-94841852D01*
X53234622Y-94841851D01*
X53239040Y-94836944D01*
X53301649Y-94728502D01*
X53331223Y-94677279D01*
X53331224Y-94677278D01*
X53334527Y-94671556D01*
X53393542Y-94489928D01*
X53398995Y-94438051D01*
X53412814Y-94306565D01*
X53413504Y-94300000D01*
X53411309Y-94279118D01*
X53394232Y-94116635D01*
X53394232Y-94116633D01*
X53393542Y-94110072D01*
X53334527Y-93928444D01*
X53239040Y-93763056D01*
X53141669Y-93654914D01*
X53140864Y-93654020D01*
X53110146Y-93590013D01*
X53108500Y-93569710D01*
X53108500Y-89872365D01*
X53128502Y-89804244D01*
X53169228Y-89764590D01*
X53215381Y-89736639D01*
X53310905Y-89641115D01*
X53373217Y-89607089D01*
X53444032Y-89612154D01*
X53489095Y-89641115D01*
X53584619Y-89736639D01*
X53731301Y-89825472D01*
X53738548Y-89827743D01*
X53738550Y-89827744D01*
X53790165Y-89843919D01*
X53894938Y-89876753D01*
X53968365Y-89883500D01*
X53971263Y-89883500D01*
X54225665Y-89883499D01*
X54481634Y-89883499D01*
X54484492Y-89883236D01*
X54484501Y-89883236D01*
X54520004Y-89879974D01*
X54555062Y-89876753D01*
X54569064Y-89872365D01*
X54711450Y-89827744D01*
X54711452Y-89827743D01*
X54718699Y-89825472D01*
X54865381Y-89736639D01*
X54986639Y-89615381D01*
X55075472Y-89468699D01*
X55080300Y-89453295D01*
X55114576Y-89343919D01*
X55126753Y-89305062D01*
X55133500Y-89231635D01*
X55133499Y-88568366D01*
X55133234Y-88565474D01*
X55127821Y-88506565D01*
X55126753Y-88494938D01*
X55118560Y-88468794D01*
X55077744Y-88338550D01*
X55077743Y-88338548D01*
X55075472Y-88331301D01*
X54986639Y-88184619D01*
X54865381Y-88063361D01*
X54818103Y-88034729D01*
X54784229Y-88014214D01*
X54736322Y-87961817D01*
X54723500Y-87906438D01*
X54723500Y-87593319D01*
X54743502Y-87525198D01*
X54794068Y-87480168D01*
X54800754Y-87476893D01*
X54808353Y-87473170D01*
X54808357Y-87473168D01*
X54812994Y-87470896D01*
X54817198Y-87467898D01*
X54817202Y-87467895D01*
X54913315Y-87399338D01*
X54994860Y-87341173D01*
X55027648Y-87308500D01*
X55083992Y-87252352D01*
X55153096Y-87183489D01*
X55193585Y-87127143D01*
X55283453Y-87002077D01*
X55284776Y-87003028D01*
X55331645Y-86959857D01*
X55401580Y-86947625D01*
X55467026Y-86975144D01*
X55494875Y-87006994D01*
X55554987Y-87105088D01*
X55701250Y-87273938D01*
X55842433Y-87391150D01*
X55850985Y-87398250D01*
X55890620Y-87457152D01*
X55896500Y-87495194D01*
X55896500Y-94863359D01*
X55879619Y-94926359D01*
X55806819Y-95052452D01*
X55800473Y-95063444D01*
X55741458Y-95245072D01*
X55721496Y-95435000D01*
X55722186Y-95441565D01*
X55738418Y-95596000D01*
X55741458Y-95624928D01*
X55800473Y-95806556D01*
X55803776Y-95812278D01*
X55803777Y-95812279D01*
X55859619Y-95908999D01*
X55876500Y-95971999D01*
X55876500Y-113717930D01*
X55875067Y-113736880D01*
X55871801Y-113758349D01*
X55872394Y-113765641D01*
X55872394Y-113765644D01*
X55876085Y-113811018D01*
X55876500Y-113821233D01*
X55876500Y-138767930D01*
X55875067Y-138786880D01*
X55871801Y-138808349D01*
X55872394Y-138815641D01*
X55872394Y-138815644D01*
X55876085Y-138861018D01*
X55876500Y-138871233D01*
X55876500Y-138879293D01*
X55876925Y-138882937D01*
X55879789Y-138907507D01*
X55880222Y-138911882D01*
X55882996Y-138945980D01*
X55886140Y-138984637D01*
X55888396Y-138991601D01*
X55889587Y-138997560D01*
X55890971Y-139003415D01*
X55891818Y-139010681D01*
X55916735Y-139079327D01*
X55918152Y-139083455D01*
X55940649Y-139152899D01*
X55944445Y-139159154D01*
X55946951Y-139164628D01*
X55949670Y-139170058D01*
X55952167Y-139176937D01*
X55956180Y-139183057D01*
X55956180Y-139183058D01*
X55992186Y-139237976D01*
X55994523Y-139241680D01*
X56032405Y-139304107D01*
X56036121Y-139308315D01*
X56036122Y-139308316D01*
X56039803Y-139312484D01*
X56039776Y-139312508D01*
X56042429Y-139315500D01*
X56045132Y-139318733D01*
X56049144Y-139324852D01*
X56054456Y-139329884D01*
X56105383Y-139378128D01*
X56107825Y-139380506D01*
X57654595Y-140927276D01*
X57688621Y-140989588D01*
X57691500Y-141016371D01*
X57691500Y-141948134D01*
X57691869Y-141951531D01*
X57697647Y-142004719D01*
X57685119Y-142074602D01*
X57636798Y-142126617D01*
X57568026Y-142144252D01*
X57500638Y-142121906D01*
X57489118Y-142112893D01*
X49412072Y-135001029D01*
X42402484Y-128829065D01*
X42364577Y-128769037D01*
X42365141Y-128698043D01*
X42403997Y-128638623D01*
X42468810Y-128609644D01*
X42485751Y-128608500D01*
X43548134Y-128608500D01*
X43610316Y-128601745D01*
X43746705Y-128550615D01*
X43863261Y-128463261D01*
X43950615Y-128346705D01*
X44001745Y-128210316D01*
X44008500Y-128148134D01*
X44008500Y-127466371D01*
X44028502Y-127398250D01*
X44045405Y-127377276D01*
X44977584Y-126445097D01*
X45039896Y-126411071D01*
X45110711Y-126416136D01*
X45167547Y-126458683D01*
X45192358Y-126525203D01*
X45191992Y-126545069D01*
X45192053Y-126545072D01*
X45191960Y-126546794D01*
X45191941Y-126547806D01*
X45191500Y-126551866D01*
X45191500Y-128148134D01*
X45198255Y-128210316D01*
X45249385Y-128346705D01*
X45336739Y-128463261D01*
X45453295Y-128550615D01*
X45589684Y-128601745D01*
X45651866Y-128608500D01*
X46748134Y-128608500D01*
X46810316Y-128601745D01*
X46946705Y-128550615D01*
X47063261Y-128463261D01*
X47150615Y-128346705D01*
X47164938Y-128308500D01*
X47181176Y-128265184D01*
X47223817Y-128208419D01*
X47290379Y-128183719D01*
X47350406Y-128194306D01*
X47511677Y-128266108D01*
X47511685Y-128266111D01*
X47517712Y-128268794D01*
X47611112Y-128288647D01*
X47698056Y-128307128D01*
X47698061Y-128307128D01*
X47704513Y-128308500D01*
X47895487Y-128308500D01*
X47901939Y-128307128D01*
X47901944Y-128307128D01*
X47988888Y-128288647D01*
X48082288Y-128268794D01*
X48088321Y-128266108D01*
X48250722Y-128193803D01*
X48250724Y-128193802D01*
X48256752Y-128191118D01*
X48411253Y-128078866D01*
X48512537Y-127966379D01*
X48534621Y-127941852D01*
X48534622Y-127941851D01*
X48539040Y-127936944D01*
X48634527Y-127771556D01*
X48693542Y-127589928D01*
X48701910Y-127510316D01*
X48712814Y-127406565D01*
X48713504Y-127400000D01*
X48693542Y-127210072D01*
X48634527Y-127028444D01*
X48539040Y-126863056D01*
X48430425Y-126742426D01*
X48415675Y-126726045D01*
X48415674Y-126726044D01*
X48411253Y-126721134D01*
X48256752Y-126608882D01*
X48250724Y-126606198D01*
X48250722Y-126606197D01*
X48088319Y-126533891D01*
X48088318Y-126533891D01*
X48082288Y-126531206D01*
X47960044Y-126505222D01*
X47901944Y-126492872D01*
X47901939Y-126492872D01*
X47895487Y-126491500D01*
X47704513Y-126491500D01*
X47698061Y-126492872D01*
X47698056Y-126492872D01*
X47639956Y-126505222D01*
X47517712Y-126531206D01*
X47378475Y-126593198D01*
X47308109Y-126602632D01*
X47243812Y-126572526D01*
X47205998Y-126512437D01*
X47204587Y-126505183D01*
X47204425Y-126505222D01*
X47202598Y-126497540D01*
X47201745Y-126489684D01*
X47150615Y-126353295D01*
X47063261Y-126236739D01*
X46946705Y-126149385D01*
X46810316Y-126098255D01*
X46748134Y-126091500D01*
X45651866Y-126091500D01*
X45647440Y-126091981D01*
X45647200Y-126091938D01*
X45645072Y-126092053D01*
X45645045Y-126091551D01*
X45577559Y-126079450D01*
X45525545Y-126031127D01*
X45507914Y-125962355D01*
X45530262Y-125894968D01*
X45539667Y-125883014D01*
X45542180Y-125880501D01*
X45544446Y-125877637D01*
X45544453Y-125877629D01*
X45559801Y-125858229D01*
X45562592Y-125854825D01*
X45605111Y-125804777D01*
X45605112Y-125804775D01*
X45609853Y-125799195D01*
X45613181Y-125792679D01*
X45616548Y-125787630D01*
X45619715Y-125782501D01*
X45624254Y-125776764D01*
X45655175Y-125710605D01*
X45657081Y-125706705D01*
X45672108Y-125677276D01*
X45690289Y-125641672D01*
X45692028Y-125634564D01*
X45694127Y-125628921D01*
X45696044Y-125623158D01*
X45699142Y-125616530D01*
X45714007Y-125545063D01*
X45714977Y-125540779D01*
X45720468Y-125518338D01*
X45732328Y-125469870D01*
X45733020Y-125458716D01*
X45733056Y-125458718D01*
X45733295Y-125454725D01*
X45733669Y-125450533D01*
X45735160Y-125443365D01*
X45733066Y-125365959D01*
X45733020Y-125362552D01*
X45733020Y-123834000D01*
X45753022Y-123765879D01*
X45806678Y-123719386D01*
X45859020Y-123708000D01*
X45927885Y-123708000D01*
X45943124Y-123703525D01*
X45944329Y-123702135D01*
X45946000Y-123694452D01*
X45946000Y-123689884D01*
X46454000Y-123689884D01*
X46458475Y-123705123D01*
X46459865Y-123706328D01*
X46467548Y-123707999D01*
X46744669Y-123707999D01*
X46751490Y-123707629D01*
X46802352Y-123702105D01*
X46817604Y-123698479D01*
X46938054Y-123653324D01*
X46953649Y-123644786D01*
X47055724Y-123568285D01*
X47068285Y-123555724D01*
X47144786Y-123453649D01*
X47153324Y-123438054D01*
X47198478Y-123317606D01*
X47202105Y-123302351D01*
X47207631Y-123251486D01*
X47208000Y-123244672D01*
X47208000Y-122722115D01*
X47203525Y-122706876D01*
X47202135Y-122705671D01*
X47194452Y-122704000D01*
X46472115Y-122704000D01*
X46456876Y-122708475D01*
X46455671Y-122709865D01*
X46454000Y-122717548D01*
X46454000Y-123689884D01*
X45946000Y-123689884D01*
X45946000Y-122177885D01*
X46454000Y-122177885D01*
X46458475Y-122193124D01*
X46459865Y-122194329D01*
X46467548Y-122196000D01*
X47189884Y-122196000D01*
X47205123Y-122191525D01*
X47206328Y-122190135D01*
X47207999Y-122182452D01*
X47207999Y-121655331D01*
X47207629Y-121648510D01*
X47202105Y-121597648D01*
X47198479Y-121582396D01*
X47153324Y-121461946D01*
X47144786Y-121446351D01*
X47068285Y-121344276D01*
X47055724Y-121331715D01*
X46953649Y-121255214D01*
X46938054Y-121246676D01*
X46817606Y-121201522D01*
X46802351Y-121197895D01*
X46751486Y-121192369D01*
X46744672Y-121192000D01*
X46472115Y-121192000D01*
X46456876Y-121196475D01*
X46455671Y-121197865D01*
X46454000Y-121205548D01*
X46454000Y-122177885D01*
X45946000Y-122177885D01*
X45946000Y-121210116D01*
X45941525Y-121194877D01*
X45940135Y-121193672D01*
X45932452Y-121192001D01*
X45859020Y-121192001D01*
X45790899Y-121171999D01*
X45744406Y-121118343D01*
X45733020Y-121066001D01*
X45733020Y-96966589D01*
X45734453Y-96947638D01*
X45736619Y-96933403D01*
X45736619Y-96933401D01*
X45737719Y-96926171D01*
X45734470Y-96886220D01*
X45733435Y-96873502D01*
X45733020Y-96863287D01*
X45733020Y-96855227D01*
X45729731Y-96827013D01*
X45729298Y-96822638D01*
X45723974Y-96757181D01*
X45723973Y-96757178D01*
X45723380Y-96749883D01*
X45721124Y-96742919D01*
X45719933Y-96736960D01*
X45718549Y-96731105D01*
X45717702Y-96723839D01*
X45692785Y-96655193D01*
X45691368Y-96651065D01*
X45671127Y-96588584D01*
X45671126Y-96588582D01*
X45668871Y-96581621D01*
X45665075Y-96575366D01*
X45662569Y-96569892D01*
X45659850Y-96564462D01*
X45657353Y-96557583D01*
X45650415Y-96547000D01*
X45617339Y-96496552D01*
X45614992Y-96492832D01*
X45580029Y-96435213D01*
X45580025Y-96435208D01*
X45577115Y-96430412D01*
X45569717Y-96422036D01*
X45569743Y-96422013D01*
X45567094Y-96419023D01*
X45564386Y-96415784D01*
X45560376Y-96409668D01*
X45555069Y-96404641D01*
X45555066Y-96404637D01*
X45504137Y-96356392D01*
X45501695Y-96354014D01*
X44220405Y-95072724D01*
X44186379Y-95010412D01*
X44183500Y-94983629D01*
X44183500Y-94851268D01*
X44181454Y-94831544D01*
X44176329Y-94782158D01*
X44172887Y-94748981D01*
X44142032Y-94656498D01*
X44121073Y-94593676D01*
X44121072Y-94593674D01*
X44118756Y-94586732D01*
X44083547Y-94529834D01*
X44032606Y-94447515D01*
X44028752Y-94441287D01*
X43995482Y-94408075D01*
X43961403Y-94345793D01*
X43958500Y-94318902D01*
X43958500Y-91248134D01*
X44891500Y-91248134D01*
X44898255Y-91310316D01*
X44949385Y-91446705D01*
X45036739Y-91563261D01*
X45153295Y-91650615D01*
X45289684Y-91701745D01*
X45351866Y-91708500D01*
X46448134Y-91708500D01*
X46510316Y-91701745D01*
X46646705Y-91650615D01*
X46763261Y-91563261D01*
X46850615Y-91446705D01*
X46901745Y-91310316D01*
X46908500Y-91248134D01*
X46908500Y-89651866D01*
X46901745Y-89589684D01*
X46850615Y-89453295D01*
X46763261Y-89336739D01*
X46646705Y-89249385D01*
X46607069Y-89234526D01*
X46590270Y-89228228D01*
X46533505Y-89185586D01*
X46508806Y-89119024D01*
X46508500Y-89110246D01*
X46508500Y-88517721D01*
X46528502Y-88449600D01*
X46560436Y-88415787D01*
X46611253Y-88378866D01*
X46739040Y-88236944D01*
X46834527Y-88071556D01*
X46893542Y-87889928D01*
X46894454Y-87881256D01*
X46912814Y-87706565D01*
X46913504Y-87700000D01*
X46896878Y-87541811D01*
X46894232Y-87516635D01*
X46894232Y-87516633D01*
X46893542Y-87510072D01*
X46834527Y-87328444D01*
X46824675Y-87311379D01*
X46781484Y-87236571D01*
X46757292Y-87194669D01*
X50217001Y-87194669D01*
X50217371Y-87201490D01*
X50222895Y-87252352D01*
X50226521Y-87267604D01*
X50271676Y-87388054D01*
X50280214Y-87403649D01*
X50356715Y-87505724D01*
X50369276Y-87518285D01*
X50471351Y-87594786D01*
X50486946Y-87603324D01*
X50607394Y-87648478D01*
X50622649Y-87652105D01*
X50673514Y-87657631D01*
X50680328Y-87658000D01*
X51302885Y-87658000D01*
X51318124Y-87653525D01*
X51319329Y-87652135D01*
X51321000Y-87644452D01*
X51321000Y-86572115D01*
X51316525Y-86556876D01*
X51315135Y-86555671D01*
X51307452Y-86554000D01*
X50235116Y-86554000D01*
X50219877Y-86558475D01*
X50218672Y-86559865D01*
X50217001Y-86567548D01*
X50217001Y-87194669D01*
X46757292Y-87194669D01*
X46739040Y-87163056D01*
X46725413Y-87147921D01*
X46615675Y-87026045D01*
X46615673Y-87026043D01*
X46611253Y-87021134D01*
X46566738Y-86988792D01*
X46523386Y-86932570D01*
X46517311Y-86861834D01*
X46550443Y-86799042D01*
X46596572Y-86768875D01*
X46638052Y-86753325D01*
X46653649Y-86744786D01*
X46755724Y-86668285D01*
X46768285Y-86655724D01*
X46844786Y-86553649D01*
X46853324Y-86538054D01*
X46898478Y-86417606D01*
X46902105Y-86402351D01*
X46907631Y-86351486D01*
X46908000Y-86344672D01*
X46908000Y-86027885D01*
X50217000Y-86027885D01*
X50221475Y-86043124D01*
X50222865Y-86044329D01*
X50230548Y-86046000D01*
X51302885Y-86046000D01*
X51318124Y-86041525D01*
X51319329Y-86040135D01*
X51321000Y-86032452D01*
X51321000Y-84960116D01*
X51316525Y-84944877D01*
X51315135Y-84943672D01*
X51307452Y-84942001D01*
X50680331Y-84942001D01*
X50673510Y-84942371D01*
X50622648Y-84947895D01*
X50607396Y-84951521D01*
X50486946Y-84996676D01*
X50471351Y-85005214D01*
X50369276Y-85081715D01*
X50356715Y-85094276D01*
X50280214Y-85196351D01*
X50271676Y-85211946D01*
X50226522Y-85332394D01*
X50222895Y-85347649D01*
X50217369Y-85398514D01*
X50217000Y-85405328D01*
X50217000Y-86027885D01*
X46908000Y-86027885D01*
X46908000Y-85822115D01*
X46903525Y-85806876D01*
X46902135Y-85805671D01*
X46894452Y-85804000D01*
X44910116Y-85804000D01*
X44894877Y-85808475D01*
X44893672Y-85809865D01*
X44892001Y-85817548D01*
X44892001Y-86344669D01*
X44892371Y-86351490D01*
X44897895Y-86402352D01*
X44901521Y-86417604D01*
X44946676Y-86538054D01*
X44955214Y-86553649D01*
X45031715Y-86655724D01*
X45044276Y-86668285D01*
X45146351Y-86744786D01*
X45161946Y-86753324D01*
X45282394Y-86798478D01*
X45297650Y-86802106D01*
X45316895Y-86804196D01*
X45382458Y-86831436D01*
X45422885Y-86889799D01*
X45425342Y-86960753D01*
X45388823Y-87021079D01*
X45388747Y-87021134D01*
X45357602Y-87055724D01*
X45274588Y-87147921D01*
X45260960Y-87163056D01*
X45218516Y-87236571D01*
X45175326Y-87311379D01*
X45165473Y-87328444D01*
X45106458Y-87510072D01*
X45105768Y-87516633D01*
X45105768Y-87516635D01*
X45103122Y-87541811D01*
X45086496Y-87700000D01*
X45087186Y-87706565D01*
X45105547Y-87881256D01*
X45106458Y-87889928D01*
X45165473Y-88071556D01*
X45168776Y-88077278D01*
X45168777Y-88077279D01*
X45257658Y-88231225D01*
X45260960Y-88236944D01*
X45265379Y-88241852D01*
X45267436Y-88244683D01*
X45291295Y-88311551D01*
X45291500Y-88318744D01*
X45291500Y-89110246D01*
X45271498Y-89178367D01*
X45217842Y-89224860D01*
X45209730Y-89228228D01*
X45192931Y-89234526D01*
X45153295Y-89249385D01*
X45036739Y-89336739D01*
X44949385Y-89453295D01*
X44898255Y-89589684D01*
X44891500Y-89651866D01*
X44891500Y-91248134D01*
X43958500Y-91248134D01*
X43958500Y-91017070D01*
X43959933Y-90998120D01*
X43962099Y-90983885D01*
X43962099Y-90983881D01*
X43963199Y-90976651D01*
X43960687Y-90945761D01*
X43958915Y-90923982D01*
X43958500Y-90913767D01*
X43958500Y-90905707D01*
X43955209Y-90877480D01*
X43954778Y-90873121D01*
X43949453Y-90807660D01*
X43948860Y-90800364D01*
X43946605Y-90793403D01*
X43945418Y-90787463D01*
X43944029Y-90781588D01*
X43943182Y-90774319D01*
X43918264Y-90705670D01*
X43916847Y-90701542D01*
X43896607Y-90639064D01*
X43896606Y-90639062D01*
X43894351Y-90632101D01*
X43890555Y-90625846D01*
X43888049Y-90620372D01*
X43885330Y-90614942D01*
X43882833Y-90608063D01*
X43842814Y-90547024D01*
X43840467Y-90543305D01*
X43802595Y-90480893D01*
X43795197Y-90472516D01*
X43795224Y-90472492D01*
X43792571Y-90469500D01*
X43789868Y-90466267D01*
X43785856Y-90460148D01*
X43747846Y-90424141D01*
X43712149Y-90362773D01*
X43708500Y-90332669D01*
X43708500Y-89651866D01*
X43701745Y-89589684D01*
X43650615Y-89453295D01*
X43563261Y-89336739D01*
X43446705Y-89249385D01*
X43438296Y-89246233D01*
X43438295Y-89246232D01*
X43329000Y-89205259D01*
X43272235Y-89162618D01*
X43247535Y-89096056D01*
X43262742Y-89026707D01*
X43279589Y-89002971D01*
X43339040Y-88936944D01*
X43434527Y-88771556D01*
X43493542Y-88589928D01*
X43495809Y-88568365D01*
X43512814Y-88406565D01*
X43513504Y-88400000D01*
X43504052Y-88310072D01*
X43494232Y-88216635D01*
X43494232Y-88216633D01*
X43493542Y-88210072D01*
X43434527Y-88028444D01*
X43405671Y-87978463D01*
X43342342Y-87868775D01*
X43342341Y-87868774D01*
X43339040Y-87863056D01*
X43334621Y-87858148D01*
X43332564Y-87855317D01*
X43308705Y-87788449D01*
X43308500Y-87781256D01*
X43308500Y-86889754D01*
X43328502Y-86821633D01*
X43382158Y-86775140D01*
X43390270Y-86771772D01*
X43438297Y-86753767D01*
X43446705Y-86750615D01*
X43563261Y-86663261D01*
X43650615Y-86546705D01*
X43701745Y-86410316D01*
X43708500Y-86348134D01*
X43708500Y-84751866D01*
X43701745Y-84689684D01*
X43662264Y-84584369D01*
X43653766Y-84561699D01*
X43653764Y-84561696D01*
X43650615Y-84553295D01*
X43646648Y-84548002D01*
X43631733Y-84479806D01*
X43656469Y-84413258D01*
X43713257Y-84370648D01*
X43760307Y-84362687D01*
X44833262Y-84387259D01*
G37*
%TD.AperFunction*%
%TA.AperFunction,Conductor*%
G36*
X40957122Y-96208857D02*
G01*
X40958101Y-96206697D01*
X41000691Y-96226000D01*
X41278621Y-96226000D01*
X41342760Y-96243546D01*
X41359580Y-96253493D01*
X41370403Y-96259894D01*
X41378014Y-96262105D01*
X41378016Y-96262106D01*
X41413742Y-96272485D01*
X41527746Y-96305606D01*
X41534151Y-96306110D01*
X41534156Y-96306111D01*
X41562060Y-96308307D01*
X41562068Y-96308307D01*
X41564516Y-96308500D01*
X42035484Y-96308500D01*
X42037932Y-96308307D01*
X42037940Y-96308307D01*
X42065844Y-96306111D01*
X42065849Y-96306110D01*
X42072254Y-96305606D01*
X42186258Y-96272485D01*
X42221984Y-96262106D01*
X42221986Y-96262105D01*
X42229597Y-96259894D01*
X42240421Y-96253493D01*
X42257240Y-96243546D01*
X42321379Y-96226000D01*
X42532000Y-96226000D01*
X42600121Y-96246002D01*
X42646614Y-96299658D01*
X42658000Y-96352000D01*
X42658000Y-96402885D01*
X42662475Y-96418124D01*
X42663865Y-96419329D01*
X42671548Y-96421000D01*
X43328000Y-96421000D01*
X43396121Y-96441002D01*
X43442614Y-96494658D01*
X43454000Y-96547000D01*
X43454000Y-96803000D01*
X43433998Y-96871121D01*
X43380342Y-96917614D01*
X43328000Y-96929000D01*
X42303000Y-96929000D01*
X42234879Y-96908998D01*
X42188386Y-96855342D01*
X42177000Y-96803000D01*
X42177000Y-96752115D01*
X42172525Y-96736876D01*
X42171135Y-96735671D01*
X42163452Y-96734000D01*
X42072115Y-96734000D01*
X42056876Y-96738475D01*
X42055671Y-96739865D01*
X42054000Y-96747548D01*
X42054000Y-97248424D01*
X42063128Y-97279512D01*
X42084375Y-97312573D01*
X42084375Y-97383570D01*
X42045991Y-97443296D01*
X42001160Y-97468305D01*
X41981301Y-97474528D01*
X41834619Y-97563361D01*
X41713361Y-97684619D01*
X41624528Y-97831301D01*
X41622257Y-97838548D01*
X41622256Y-97838550D01*
X41609720Y-97878552D01*
X41573247Y-97994938D01*
X41566500Y-98068365D01*
X41566501Y-98731634D01*
X41573247Y-98805062D01*
X41575246Y-98811440D01*
X41575246Y-98811441D01*
X41591136Y-98862144D01*
X41624528Y-98968699D01*
X41713361Y-99115381D01*
X41771207Y-99173227D01*
X41805233Y-99235539D01*
X41800168Y-99306354D01*
X41775751Y-99346629D01*
X41760960Y-99363056D01*
X41757659Y-99368774D01*
X41700155Y-99468374D01*
X41665473Y-99528444D01*
X41606458Y-99710072D01*
X41605768Y-99716633D01*
X41605768Y-99716635D01*
X41594462Y-99824204D01*
X41586496Y-99900000D01*
X41606458Y-100089928D01*
X41665473Y-100271556D01*
X41760960Y-100436944D01*
X41888747Y-100578866D01*
X42043248Y-100691118D01*
X42049276Y-100693802D01*
X42049278Y-100693803D01*
X42211681Y-100766109D01*
X42217712Y-100768794D01*
X42303905Y-100787115D01*
X42398056Y-100807128D01*
X42398061Y-100807128D01*
X42404513Y-100808500D01*
X42595487Y-100808500D01*
X42601939Y-100807128D01*
X42601944Y-100807128D01*
X42731182Y-100779657D01*
X42801973Y-100785059D01*
X42858605Y-100827876D01*
X42883099Y-100894513D01*
X42867678Y-100963815D01*
X42846474Y-100991999D01*
X39523094Y-104315379D01*
X39460782Y-104349405D01*
X39389967Y-104344340D01*
X39333131Y-104301793D01*
X39308320Y-104235273D01*
X39307999Y-104226284D01*
X39307999Y-103755331D01*
X39307629Y-103748510D01*
X39302105Y-103697648D01*
X39298479Y-103682396D01*
X39253324Y-103561946D01*
X39244786Y-103546351D01*
X39168285Y-103444276D01*
X39155724Y-103431715D01*
X39053649Y-103355214D01*
X39038054Y-103346676D01*
X38917606Y-103301522D01*
X38902351Y-103297895D01*
X38851486Y-103292369D01*
X38844672Y-103292000D01*
X38572115Y-103292000D01*
X38556876Y-103296475D01*
X38555671Y-103297865D01*
X38554000Y-103305548D01*
X38554000Y-104678000D01*
X38533998Y-104746121D01*
X38480342Y-104792614D01*
X38428000Y-104804000D01*
X37310116Y-104804000D01*
X37294877Y-104808475D01*
X37293672Y-104809865D01*
X37292001Y-104817548D01*
X37292001Y-104865011D01*
X37271999Y-104933132D01*
X37218343Y-104979625D01*
X37166001Y-104991011D01*
X36453750Y-104991011D01*
X36385629Y-104971009D01*
X36364655Y-104954106D01*
X36145405Y-104734856D01*
X36111379Y-104672544D01*
X36108500Y-104645761D01*
X36108500Y-104277885D01*
X37292000Y-104277885D01*
X37296475Y-104293124D01*
X37297865Y-104294329D01*
X37305548Y-104296000D01*
X38027885Y-104296000D01*
X38043124Y-104291525D01*
X38044329Y-104290135D01*
X38046000Y-104282452D01*
X38046000Y-103310116D01*
X38041525Y-103294877D01*
X38040135Y-103293672D01*
X38032452Y-103292001D01*
X37755331Y-103292001D01*
X37748510Y-103292371D01*
X37697648Y-103297895D01*
X37682396Y-103301521D01*
X37561946Y-103346676D01*
X37546351Y-103355214D01*
X37444276Y-103431715D01*
X37431715Y-103444276D01*
X37355214Y-103546351D01*
X37346676Y-103561946D01*
X37301522Y-103682394D01*
X37297895Y-103697649D01*
X37292369Y-103748514D01*
X37292000Y-103755328D01*
X37292000Y-104277885D01*
X36108500Y-104277885D01*
X36108500Y-103751866D01*
X36101745Y-103689684D01*
X36050615Y-103553295D01*
X35963261Y-103436739D01*
X35846705Y-103349385D01*
X35710316Y-103298255D01*
X35648134Y-103291500D01*
X35586349Y-103291500D01*
X35518228Y-103271498D01*
X35471735Y-103217842D01*
X35461631Y-103147568D01*
X35491125Y-103082988D01*
X35497254Y-103076405D01*
X37826906Y-100746753D01*
X37889218Y-100712727D01*
X37960033Y-100717792D01*
X38016869Y-100760339D01*
X38041680Y-100826859D01*
X38042001Y-100835848D01*
X38042001Y-101409669D01*
X38042371Y-101416490D01*
X38047895Y-101467352D01*
X38051521Y-101482604D01*
X38096676Y-101603054D01*
X38105214Y-101618649D01*
X38181715Y-101720724D01*
X38194276Y-101733285D01*
X38296351Y-101809786D01*
X38311946Y-101818324D01*
X38432394Y-101863478D01*
X38447649Y-101867105D01*
X38498514Y-101872631D01*
X38505328Y-101873000D01*
X39127885Y-101873000D01*
X39143124Y-101868525D01*
X39144329Y-101867135D01*
X39146000Y-101859452D01*
X39146000Y-101854884D01*
X39654000Y-101854884D01*
X39658475Y-101870123D01*
X39659865Y-101871328D01*
X39667548Y-101872999D01*
X40294669Y-101872999D01*
X40301490Y-101872629D01*
X40352352Y-101867105D01*
X40367604Y-101863479D01*
X40488054Y-101818324D01*
X40503649Y-101809786D01*
X40605724Y-101733285D01*
X40618285Y-101720724D01*
X40694786Y-101618649D01*
X40703324Y-101603054D01*
X40748478Y-101482606D01*
X40752105Y-101467351D01*
X40757631Y-101416486D01*
X40758000Y-101409672D01*
X40758000Y-100787115D01*
X40753525Y-100771876D01*
X40752135Y-100770671D01*
X40744452Y-100769000D01*
X39672115Y-100769000D01*
X39656876Y-100773475D01*
X39655671Y-100774865D01*
X39654000Y-100782548D01*
X39654000Y-101854884D01*
X39146000Y-101854884D01*
X39146000Y-100387000D01*
X39166002Y-100318879D01*
X39219658Y-100272386D01*
X39272000Y-100261000D01*
X40739884Y-100261000D01*
X40755123Y-100256525D01*
X40756328Y-100255135D01*
X40757999Y-100247452D01*
X40757999Y-99620331D01*
X40757629Y-99613510D01*
X40752105Y-99562648D01*
X40748479Y-99547396D01*
X40703324Y-99426946D01*
X40694786Y-99411351D01*
X40618285Y-99309276D01*
X40605724Y-99296715D01*
X40503649Y-99220214D01*
X40488054Y-99211676D01*
X40377813Y-99170348D01*
X40321049Y-99127706D01*
X40296349Y-99061145D01*
X40311557Y-98991796D01*
X40333104Y-98963115D01*
X40434430Y-98862144D01*
X40434440Y-98862132D01*
X40438096Y-98858489D01*
X40493874Y-98780866D01*
X40565435Y-98681277D01*
X40568453Y-98677077D01*
X40638835Y-98534670D01*
X40665136Y-98481453D01*
X40665137Y-98481451D01*
X40667430Y-98476811D01*
X40727825Y-98278028D01*
X40730865Y-98268023D01*
X40730865Y-98268021D01*
X40732370Y-98263069D01*
X40761529Y-98041590D01*
X40763156Y-97975000D01*
X40744852Y-97752361D01*
X40690431Y-97535702D01*
X40601354Y-97330840D01*
X40480014Y-97143277D01*
X40329670Y-96978051D01*
X40325619Y-96974852D01*
X40325615Y-96974848D01*
X40158414Y-96842800D01*
X40158410Y-96842798D01*
X40154359Y-96839598D01*
X40113053Y-96816796D01*
X40063084Y-96766364D01*
X40058725Y-96745871D01*
X40991776Y-96745871D01*
X41028357Y-96871784D01*
X41034604Y-96886220D01*
X41109876Y-97013499D01*
X41119516Y-97025926D01*
X41224074Y-97130484D01*
X41236501Y-97140124D01*
X41363780Y-97215396D01*
X41378216Y-97221643D01*
X41521641Y-97263312D01*
X41529609Y-97264768D01*
X41543031Y-97261948D01*
X41546000Y-97250487D01*
X41546000Y-96752115D01*
X41541525Y-96736876D01*
X41540135Y-96735671D01*
X41532452Y-96734000D01*
X41006442Y-96734000D01*
X40992911Y-96737973D01*
X40991776Y-96745871D01*
X40058725Y-96745871D01*
X40048312Y-96696921D01*
X40073428Y-96630516D01*
X40100780Y-96603909D01*
X40174308Y-96551462D01*
X40279860Y-96476173D01*
X40287742Y-96468319D01*
X40417719Y-96338795D01*
X40438096Y-96318489D01*
X40445413Y-96308307D01*
X40490203Y-96245974D01*
X40546198Y-96202326D01*
X40592526Y-96193500D01*
X40904819Y-96193500D01*
X40957122Y-96208857D01*
G37*
%TD.AperFunction*%
%TD*%
M02*
