%TF.GenerationSoftware,KiCad,Pcbnew,6.0.4-6f826c9f35~116~ubuntu20.04.1*%
%TF.CreationDate,2022-04-29T20:59:42-06:00*%
%TF.ProjectId,heart,68656172-742e-46b6-9963-61645f706362,rev?*%
%TF.SameCoordinates,Original*%
%TF.FileFunction,Legend,Bot*%
%TF.FilePolarity,Positive*%
%FSLAX46Y46*%
G04 Gerber Fmt 4.6, Leading zero omitted, Abs format (unit mm)*
G04 Created by KiCad (PCBNEW 6.0.4-6f826c9f35~116~ubuntu20.04.1) date 2022-04-29 20:59:42*
%MOMM*%
%LPD*%
G01*
G04 APERTURE LIST*
%ADD10C,0.150000*%
%ADD11C,3.200000*%
%ADD12R,1.700000X1.700000*%
%ADD13O,1.700000X1.700000*%
G04 APERTURE END LIST*
D10*
X54579761Y-88066666D02*
X54627380Y-88209523D01*
X54627380Y-88447619D01*
X54579761Y-88542857D01*
X54532142Y-88590476D01*
X54436904Y-88638095D01*
X54341666Y-88638095D01*
X54246428Y-88590476D01*
X54198809Y-88542857D01*
X54151190Y-88447619D01*
X54103571Y-88257142D01*
X54055952Y-88161904D01*
X54008333Y-88114285D01*
X53913095Y-88066666D01*
X53817857Y-88066666D01*
X53722619Y-88114285D01*
X53675000Y-88161904D01*
X53627380Y-88257142D01*
X53627380Y-88495238D01*
X53675000Y-88638095D01*
X54627380Y-89066666D02*
X53627380Y-89066666D01*
X53675000Y-90066666D02*
X53627380Y-89971428D01*
X53627380Y-89828571D01*
X53675000Y-89685714D01*
X53770238Y-89590476D01*
X53865476Y-89542857D01*
X54055952Y-89495238D01*
X54198809Y-89495238D01*
X54389285Y-89542857D01*
X54484523Y-89590476D01*
X54579761Y-89685714D01*
X54627380Y-89828571D01*
X54627380Y-89923809D01*
X54579761Y-90066666D01*
X54532142Y-90114285D01*
X54198809Y-90114285D01*
X54198809Y-89923809D01*
X54722619Y-90304761D02*
X54722619Y-91066666D01*
X53627380Y-91495238D02*
X53627380Y-91685714D01*
X53675000Y-91780952D01*
X53770238Y-91876190D01*
X53960714Y-91923809D01*
X54294047Y-91923809D01*
X54484523Y-91876190D01*
X54579761Y-91780952D01*
X54627380Y-91685714D01*
X54627380Y-91495238D01*
X54579761Y-91400000D01*
X54484523Y-91304761D01*
X54294047Y-91257142D01*
X53960714Y-91257142D01*
X53770238Y-91304761D01*
X53675000Y-91400000D01*
X53627380Y-91495238D01*
X53627380Y-92352380D02*
X54436904Y-92352380D01*
X54532142Y-92400000D01*
X54579761Y-92447619D01*
X54627380Y-92542857D01*
X54627380Y-92733333D01*
X54579761Y-92828571D01*
X54532142Y-92876190D01*
X54436904Y-92923809D01*
X53627380Y-92923809D01*
X53627380Y-93257142D02*
X53627380Y-93828571D01*
X54627380Y-93542857D02*
X53627380Y-93542857D01*
X45766666Y-98404761D02*
X45623809Y-98452380D01*
X45385714Y-98452380D01*
X45290476Y-98404761D01*
X45242857Y-98357142D01*
X45195238Y-98261904D01*
X45195238Y-98166666D01*
X45242857Y-98071428D01*
X45290476Y-98023809D01*
X45385714Y-97976190D01*
X45576190Y-97928571D01*
X45671428Y-97880952D01*
X45719047Y-97833333D01*
X45766666Y-97738095D01*
X45766666Y-97642857D01*
X45719047Y-97547619D01*
X45671428Y-97500000D01*
X45576190Y-97452380D01*
X45338095Y-97452380D01*
X45195238Y-97500000D01*
X44766666Y-98452380D02*
X44766666Y-97452380D01*
X43766666Y-97500000D02*
X43861904Y-97452380D01*
X44004761Y-97452380D01*
X44147619Y-97500000D01*
X44242857Y-97595238D01*
X44290476Y-97690476D01*
X44338095Y-97880952D01*
X44338095Y-98023809D01*
X44290476Y-98214285D01*
X44242857Y-98309523D01*
X44147619Y-98404761D01*
X44004761Y-98452380D01*
X43909523Y-98452380D01*
X43766666Y-98404761D01*
X43719047Y-98357142D01*
X43719047Y-98023809D01*
X43909523Y-98023809D01*
X43528571Y-98547619D02*
X42766666Y-98547619D01*
X42528571Y-98452380D02*
X42528571Y-97452380D01*
X42052380Y-98452380D02*
X42052380Y-97452380D01*
X41480952Y-98452380D01*
X41480952Y-97452380D01*
X43461904Y-100100000D02*
X43557142Y-100052380D01*
X43700000Y-100052380D01*
X43842857Y-100100000D01*
X43938095Y-100195238D01*
X43985714Y-100290476D01*
X44033333Y-100480952D01*
X44033333Y-100623809D01*
X43985714Y-100814285D01*
X43938095Y-100909523D01*
X43842857Y-101004761D01*
X43700000Y-101052380D01*
X43604761Y-101052380D01*
X43461904Y-101004761D01*
X43414285Y-100957142D01*
X43414285Y-100623809D01*
X43604761Y-100623809D01*
X42985714Y-101052380D02*
X42985714Y-100052380D01*
X42414285Y-101052380D01*
X42414285Y-100052380D01*
X41938095Y-101052380D02*
X41938095Y-100052380D01*
X41700000Y-100052380D01*
X41557142Y-100100000D01*
X41461904Y-100195238D01*
X41414285Y-100290476D01*
X41366666Y-100480952D01*
X41366666Y-100623809D01*
X41414285Y-100814285D01*
X41461904Y-100909523D01*
X41557142Y-101004761D01*
X41700000Y-101052380D01*
X41938095Y-101052380D01*
X98842857Y-147152380D02*
X98842857Y-146152380D01*
X98414285Y-147152380D02*
X98414285Y-146628571D01*
X98461904Y-146533333D01*
X98557142Y-146485714D01*
X98700000Y-146485714D01*
X98795238Y-146533333D01*
X98842857Y-146580952D01*
X97557142Y-147104761D02*
X97652380Y-147152380D01*
X97842857Y-147152380D01*
X97938095Y-147104761D01*
X97985714Y-147009523D01*
X97985714Y-146628571D01*
X97938095Y-146533333D01*
X97842857Y-146485714D01*
X97652380Y-146485714D01*
X97557142Y-146533333D01*
X97509523Y-146628571D01*
X97509523Y-146723809D01*
X97985714Y-146819047D01*
X96652380Y-147152380D02*
X96652380Y-146628571D01*
X96700000Y-146533333D01*
X96795238Y-146485714D01*
X96985714Y-146485714D01*
X97080952Y-146533333D01*
X96652380Y-147104761D02*
X96747619Y-147152380D01*
X96985714Y-147152380D01*
X97080952Y-147104761D01*
X97128571Y-147009523D01*
X97128571Y-146914285D01*
X97080952Y-146819047D01*
X96985714Y-146771428D01*
X96747619Y-146771428D01*
X96652380Y-146723809D01*
X96176190Y-147152380D02*
X96176190Y-146485714D01*
X96176190Y-146676190D02*
X96128571Y-146580952D01*
X96080952Y-146533333D01*
X95985714Y-146485714D01*
X95890476Y-146485714D01*
X95700000Y-146485714D02*
X95319047Y-146485714D01*
X95557142Y-146152380D02*
X95557142Y-147009523D01*
X95509523Y-147104761D01*
X95414285Y-147152380D01*
X95319047Y-147152380D01*
X95223809Y-147247619D02*
X94461904Y-147247619D01*
X94319047Y-146485714D02*
X94080952Y-147152380D01*
X93842857Y-146485714D01*
X92938095Y-147152380D02*
X93509523Y-147152380D01*
X93223809Y-147152380D02*
X93223809Y-146152380D01*
X93319047Y-146295238D01*
X93414285Y-146390476D01*
X93509523Y-146438095D01*
X92509523Y-147057142D02*
X92461904Y-147104761D01*
X92509523Y-147152380D01*
X92557142Y-147104761D01*
X92509523Y-147057142D01*
X92509523Y-147152380D01*
X91842857Y-146152380D02*
X91747619Y-146152380D01*
X91652380Y-146200000D01*
X91604761Y-146247619D01*
X91557142Y-146342857D01*
X91509523Y-146533333D01*
X91509523Y-146771428D01*
X91557142Y-146961904D01*
X91604761Y-147057142D01*
X91652380Y-147104761D01*
X91747619Y-147152380D01*
X91842857Y-147152380D01*
X91938095Y-147104761D01*
X91985714Y-147057142D01*
X92033333Y-146961904D01*
X92080952Y-146771428D01*
X92080952Y-146533333D01*
X92033333Y-146342857D01*
X91985714Y-146247619D01*
X91938095Y-146200000D01*
X91842857Y-146152380D01*
X42490476Y-94952380D02*
X42966666Y-94952380D01*
X43014285Y-95428571D01*
X42966666Y-95380952D01*
X42871428Y-95333333D01*
X42633333Y-95333333D01*
X42538095Y-95380952D01*
X42490476Y-95428571D01*
X42442857Y-95523809D01*
X42442857Y-95761904D01*
X42490476Y-95857142D01*
X42538095Y-95904761D01*
X42633333Y-95952380D01*
X42871428Y-95952380D01*
X42966666Y-95904761D01*
X43014285Y-95857142D01*
X42157142Y-94952380D02*
X41823809Y-95952380D01*
X41490476Y-94952380D01*
X56152380Y-88709523D02*
X56152380Y-88233333D01*
X56628571Y-88185714D01*
X56580952Y-88233333D01*
X56533333Y-88328571D01*
X56533333Y-88566666D01*
X56580952Y-88661904D01*
X56628571Y-88709523D01*
X56723809Y-88757142D01*
X56961904Y-88757142D01*
X57057142Y-88709523D01*
X57104761Y-88661904D01*
X57152380Y-88566666D01*
X57152380Y-88328571D01*
X57104761Y-88233333D01*
X57057142Y-88185714D01*
X56152380Y-89042857D02*
X57152380Y-89376190D01*
X56152380Y-89709523D01*
X51000000Y-88538095D02*
X50952380Y-88442857D01*
X50952380Y-88300000D01*
X51000000Y-88157142D01*
X51095238Y-88061904D01*
X51190476Y-88014285D01*
X51380952Y-87966666D01*
X51523809Y-87966666D01*
X51714285Y-88014285D01*
X51809523Y-88061904D01*
X51904761Y-88157142D01*
X51952380Y-88300000D01*
X51952380Y-88395238D01*
X51904761Y-88538095D01*
X51857142Y-88585714D01*
X51523809Y-88585714D01*
X51523809Y-88395238D01*
X51952380Y-89014285D02*
X50952380Y-89014285D01*
X51952380Y-89585714D01*
X50952380Y-89585714D01*
X51952380Y-90061904D02*
X50952380Y-90061904D01*
X50952380Y-90300000D01*
X51000000Y-90442857D01*
X51095238Y-90538095D01*
X51190476Y-90585714D01*
X51380952Y-90633333D01*
X51523809Y-90633333D01*
X51714285Y-90585714D01*
X51809523Y-90538095D01*
X51904761Y-90442857D01*
X51952380Y-90300000D01*
X51952380Y-90061904D01*
%LPC*%
D11*
%TO.C,H4*%
X98900000Y-133700000D03*
%TD*%
%TO.C,H3*%
X50576851Y-103700000D03*
%TD*%
%TO.C,H2*%
X68000000Y-133700000D03*
%TD*%
%TO.C,H1*%
X114600000Y-103700000D03*
%TD*%
D12*
%TO.C,J2*%
X51575000Y-86300000D03*
D13*
X54115000Y-86300000D03*
X56655000Y-86300000D03*
%TD*%
D12*
%TO.C,J1*%
X39400000Y-100515000D03*
D13*
X39400000Y-97975000D03*
X39400000Y-95435000D03*
%TD*%
M02*
