%TF.GenerationSoftware,KiCad,Pcbnew,6.0.4-6f826c9f35~116~ubuntu20.04.1*%
%TF.CreationDate,2022-04-30T10:36:36-06:00*%
%TF.ProjectId,pot-holder,706f742d-686f-46c6-9465-722e6b696361,rev?*%
%TF.SameCoordinates,Original*%
%TF.FileFunction,Legend,Bot*%
%TF.FilePolarity,Positive*%
%FSLAX46Y46*%
G04 Gerber Fmt 4.6, Leading zero omitted, Abs format (unit mm)*
G04 Created by KiCad (PCBNEW 6.0.4-6f826c9f35~116~ubuntu20.04.1) date 2022-04-30 10:36:36*
%MOMM*%
%LPD*%
G01*
G04 APERTURE LIST*
%ADD10C,0.150000*%
%ADD11C,0.120000*%
%ADD12C,2.400000*%
%ADD13C,2.900000*%
%ADD14R,1.700000X1.700000*%
%ADD15O,1.700000X1.700000*%
%ADD16C,3.200000*%
G04 APERTURE END LIST*
D10*
X101480952Y-54785714D02*
X101480952Y-55785714D01*
X101480952Y-54833333D02*
X101385714Y-54785714D01*
X101195238Y-54785714D01*
X101100000Y-54833333D01*
X101052380Y-54880952D01*
X101004761Y-54976190D01*
X101004761Y-55261904D01*
X101052380Y-55357142D01*
X101100000Y-55404761D01*
X101195238Y-55452380D01*
X101385714Y-55452380D01*
X101480952Y-55404761D01*
X100433333Y-55452380D02*
X100528571Y-55404761D01*
X100576190Y-55357142D01*
X100623809Y-55261904D01*
X100623809Y-54976190D01*
X100576190Y-54880952D01*
X100528571Y-54833333D01*
X100433333Y-54785714D01*
X100290476Y-54785714D01*
X100195238Y-54833333D01*
X100147619Y-54880952D01*
X100100000Y-54976190D01*
X100100000Y-55261904D01*
X100147619Y-55357142D01*
X100195238Y-55404761D01*
X100290476Y-55452380D01*
X100433333Y-55452380D01*
X99814285Y-54785714D02*
X99433333Y-54785714D01*
X99671428Y-54452380D02*
X99671428Y-55309523D01*
X99623809Y-55404761D01*
X99528571Y-55452380D01*
X99433333Y-55452380D01*
X99100000Y-55071428D02*
X98338095Y-55071428D01*
X97861904Y-55452380D02*
X97861904Y-54452380D01*
X97433333Y-55452380D02*
X97433333Y-54928571D01*
X97480952Y-54833333D01*
X97576190Y-54785714D01*
X97719047Y-54785714D01*
X97814285Y-54833333D01*
X97861904Y-54880952D01*
X96814285Y-55452380D02*
X96909523Y-55404761D01*
X96957142Y-55357142D01*
X97004761Y-55261904D01*
X97004761Y-54976190D01*
X96957142Y-54880952D01*
X96909523Y-54833333D01*
X96814285Y-54785714D01*
X96671428Y-54785714D01*
X96576190Y-54833333D01*
X96528571Y-54880952D01*
X96480952Y-54976190D01*
X96480952Y-55261904D01*
X96528571Y-55357142D01*
X96576190Y-55404761D01*
X96671428Y-55452380D01*
X96814285Y-55452380D01*
X95909523Y-55452380D02*
X96004761Y-55404761D01*
X96052380Y-55309523D01*
X96052380Y-54452380D01*
X95100000Y-55452380D02*
X95100000Y-54452380D01*
X95100000Y-55404761D02*
X95195238Y-55452380D01*
X95385714Y-55452380D01*
X95480952Y-55404761D01*
X95528571Y-55357142D01*
X95576190Y-55261904D01*
X95576190Y-54976190D01*
X95528571Y-54880952D01*
X95480952Y-54833333D01*
X95385714Y-54785714D01*
X95195238Y-54785714D01*
X95100000Y-54833333D01*
X94242857Y-55404761D02*
X94338095Y-55452380D01*
X94528571Y-55452380D01*
X94623809Y-55404761D01*
X94671428Y-55309523D01*
X94671428Y-54928571D01*
X94623809Y-54833333D01*
X94528571Y-54785714D01*
X94338095Y-54785714D01*
X94242857Y-54833333D01*
X94195238Y-54928571D01*
X94195238Y-55023809D01*
X94671428Y-55119047D01*
X93766666Y-55452380D02*
X93766666Y-54785714D01*
X93766666Y-54976190D02*
X93719047Y-54880952D01*
X93671428Y-54833333D01*
X93576190Y-54785714D01*
X93480952Y-54785714D01*
X92480952Y-54785714D02*
X92242857Y-55452380D01*
X92004761Y-54785714D01*
X91100000Y-55452380D02*
X91671428Y-55452380D01*
X91385714Y-55452380D02*
X91385714Y-54452380D01*
X91480952Y-54595238D01*
X91576190Y-54690476D01*
X91671428Y-54738095D01*
X90671428Y-55357142D02*
X90623809Y-55404761D01*
X90671428Y-55452380D01*
X90719047Y-55404761D01*
X90671428Y-55357142D01*
X90671428Y-55452380D01*
X90004761Y-54452380D02*
X89909523Y-54452380D01*
X89814285Y-54500000D01*
X89766666Y-54547619D01*
X89719047Y-54642857D01*
X89671428Y-54833333D01*
X89671428Y-55071428D01*
X89719047Y-55261904D01*
X89766666Y-55357142D01*
X89814285Y-55404761D01*
X89909523Y-55452380D01*
X90004761Y-55452380D01*
X90100000Y-55404761D01*
X90147619Y-55357142D01*
X90195238Y-55261904D01*
X90242857Y-55071428D01*
X90242857Y-54833333D01*
X90195238Y-54642857D01*
X90147619Y-54547619D01*
X90100000Y-54500000D01*
X90004761Y-54452380D01*
D11*
%TO.C,J1*%
X66115000Y-56330000D02*
X66115000Y-53670000D01*
X71255000Y-56330000D02*
X66115000Y-56330000D01*
X72525000Y-56330000D02*
X73855000Y-56330000D01*
X71255000Y-53670000D02*
X66115000Y-53670000D01*
X73855000Y-56330000D02*
X73855000Y-55000000D01*
X71255000Y-56330000D02*
X71255000Y-53670000D01*
%TD*%
%LPC*%
D12*
%TO.C,RV1*%
X194025000Y-65395000D03*
X194025000Y-69195000D03*
X66525000Y-65395000D03*
D13*
X91475000Y-64445000D03*
X173975000Y-64445000D03*
%TD*%
D14*
%TO.C,J1*%
X72525000Y-55000000D03*
D15*
X69985000Y-55000000D03*
X67445000Y-55000000D03*
%TD*%
D16*
%TO.C,H4*%
X199000000Y-57000000D03*
%TD*%
%TO.C,H3*%
X61000000Y-71000000D03*
%TD*%
%TO.C,H2*%
X199000000Y-71000000D03*
%TD*%
%TO.C,H1*%
X61000000Y-57000000D03*
%TD*%
M02*
