%FSLAX45Y45*%
G04 Gerber Fmt 4.5, Leading zero omitted, Abs format (unit mm)*
G04 Created by KiCad (PCBNEW 6.0.4-6f826c9f35~116~ubuntu20.04.1) date 2022-04-30 10:36:40*
%MOMM*%
%LPD*%
G01*
G04 APERTURE LIST*
%TA.AperFunction,Profile*%
%ADD10C,0.100000*%
%TD*%
%ADD11C,0.200000*%
%ADD12C,0.320000*%
G04 APERTURE END LIST*
D10*
X20300000Y-5500000D02*
G75*
G03*
X20100000Y-5300000I-200000J0D01*
G01*
X20100000Y-7500000D02*
G75*
G03*
X20300000Y-7300000I0J200000D01*
G01*
X5700000Y-7300000D02*
G75*
G03*
X5900000Y-7500000I200000J0D01*
G01*
X5900000Y-5300000D02*
G75*
G03*
X5700000Y-5500000I0J-200000D01*
G01*
X5700000Y-7300000D02*
X5700000Y-5500000D01*
X20100000Y-7500000D02*
X5900000Y-7500000D01*
X20300000Y-5500000D02*
X20300000Y-7300000D01*
X5900000Y-5300000D02*
X20100000Y-5300000D01*
D11*
D12*
X5940000Y-5540000D02*
X6260000Y-5860000D01*
X6260000Y-5540000D02*
X5940000Y-5860000D01*
X5940000Y-6940000D02*
X6260000Y-7260000D01*
X6260000Y-6940000D02*
X5940000Y-7260000D01*
X19740000Y-5540000D02*
X20060000Y-5860000D01*
X20060000Y-5540000D02*
X19740000Y-5860000D01*
X19740000Y-6940000D02*
X20060000Y-7260000D01*
X20060000Y-6940000D02*
X19740000Y-7260000D01*
D11*
X5952619Y-7815476D02*
X5952619Y-7615476D01*
X6000238Y-7615476D01*
X6028809Y-7625000D01*
X6047857Y-7644048D01*
X6057381Y-7663095D01*
X6066905Y-7701190D01*
X6066905Y-7729762D01*
X6057381Y-7767857D01*
X6047857Y-7786905D01*
X6028809Y-7805952D01*
X6000238Y-7815476D01*
X5952619Y-7815476D01*
X6152619Y-7815476D02*
X6152619Y-7682143D01*
X6152619Y-7720238D02*
X6162143Y-7701190D01*
X6171667Y-7691667D01*
X6190714Y-7682143D01*
X6209762Y-7682143D01*
X6276428Y-7815476D02*
X6276428Y-7682143D01*
X6276428Y-7615476D02*
X6266905Y-7625000D01*
X6276428Y-7634524D01*
X6285952Y-7625000D01*
X6276428Y-7615476D01*
X6276428Y-7634524D01*
X6400238Y-7815476D02*
X6381190Y-7805952D01*
X6371667Y-7786905D01*
X6371667Y-7615476D01*
X6505000Y-7815476D02*
X6485952Y-7805952D01*
X6476428Y-7786905D01*
X6476428Y-7615476D01*
X6733571Y-7815476D02*
X6733571Y-7615476D01*
X6800238Y-7758333D01*
X6866905Y-7615476D01*
X6866905Y-7815476D01*
X7047857Y-7815476D02*
X7047857Y-7710714D01*
X7038333Y-7691667D01*
X7019286Y-7682143D01*
X6981190Y-7682143D01*
X6962143Y-7691667D01*
X7047857Y-7805952D02*
X7028809Y-7815476D01*
X6981190Y-7815476D01*
X6962143Y-7805952D01*
X6952619Y-7786905D01*
X6952619Y-7767857D01*
X6962143Y-7748809D01*
X6981190Y-7739286D01*
X7028809Y-7739286D01*
X7047857Y-7729762D01*
X7143095Y-7682143D02*
X7143095Y-7882143D01*
X7143095Y-7691667D02*
X7162143Y-7682143D01*
X7200238Y-7682143D01*
X7219286Y-7691667D01*
X7228809Y-7701190D01*
X7238333Y-7720238D01*
X7238333Y-7777381D01*
X7228809Y-7796428D01*
X7219286Y-7805952D01*
X7200238Y-7815476D01*
X7162143Y-7815476D01*
X7143095Y-7805952D01*
X7324048Y-7796428D02*
X7333571Y-7805952D01*
X7324048Y-7815476D01*
X7314524Y-7805952D01*
X7324048Y-7796428D01*
X7324048Y-7815476D01*
X7324048Y-7691667D02*
X7333571Y-7701190D01*
X7324048Y-7710714D01*
X7314524Y-7701190D01*
X7324048Y-7691667D01*
X7324048Y-7710714D01*
X5495000Y-8045000D02*
X5695000Y-8245000D01*
X5695000Y-8045000D02*
X5495000Y-8245000D01*
X5933571Y-8035476D02*
X6057381Y-8035476D01*
X5990714Y-8111667D01*
X6019286Y-8111667D01*
X6038333Y-8121190D01*
X6047857Y-8130714D01*
X6057381Y-8149762D01*
X6057381Y-8197381D01*
X6047857Y-8216428D01*
X6038333Y-8225952D01*
X6019286Y-8235476D01*
X5962143Y-8235476D01*
X5943095Y-8225952D01*
X5933571Y-8216428D01*
X6143095Y-8216428D02*
X6152619Y-8225952D01*
X6143095Y-8235476D01*
X6133571Y-8225952D01*
X6143095Y-8216428D01*
X6143095Y-8235476D01*
X6228809Y-8054524D02*
X6238333Y-8045000D01*
X6257381Y-8035476D01*
X6305000Y-8035476D01*
X6324048Y-8045000D01*
X6333571Y-8054524D01*
X6343095Y-8073571D01*
X6343095Y-8092619D01*
X6333571Y-8121190D01*
X6219286Y-8235476D01*
X6343095Y-8235476D01*
X6466905Y-8035476D02*
X6485952Y-8035476D01*
X6505000Y-8045000D01*
X6514524Y-8054524D01*
X6524048Y-8073571D01*
X6533571Y-8111667D01*
X6533571Y-8159286D01*
X6524048Y-8197381D01*
X6514524Y-8216428D01*
X6505000Y-8225952D01*
X6485952Y-8235476D01*
X6466905Y-8235476D01*
X6447857Y-8225952D01*
X6438333Y-8216428D01*
X6428809Y-8197381D01*
X6419286Y-8159286D01*
X6419286Y-8111667D01*
X6428809Y-8073571D01*
X6438333Y-8054524D01*
X6447857Y-8045000D01*
X6466905Y-8035476D01*
X6657381Y-8035476D02*
X6676428Y-8035476D01*
X6695476Y-8045000D01*
X6705000Y-8054524D01*
X6714524Y-8073571D01*
X6724048Y-8111667D01*
X6724048Y-8159286D01*
X6714524Y-8197381D01*
X6705000Y-8216428D01*
X6695476Y-8225952D01*
X6676428Y-8235476D01*
X6657381Y-8235476D01*
X6638333Y-8225952D01*
X6628809Y-8216428D01*
X6619286Y-8197381D01*
X6609762Y-8159286D01*
X6609762Y-8111667D01*
X6619286Y-8073571D01*
X6628809Y-8054524D01*
X6638333Y-8045000D01*
X6657381Y-8035476D01*
X6809762Y-8235476D02*
X6809762Y-8102143D01*
X6809762Y-8121190D02*
X6819286Y-8111667D01*
X6838333Y-8102143D01*
X6866905Y-8102143D01*
X6885952Y-8111667D01*
X6895476Y-8130714D01*
X6895476Y-8235476D01*
X6895476Y-8130714D02*
X6905000Y-8111667D01*
X6924048Y-8102143D01*
X6952619Y-8102143D01*
X6971667Y-8111667D01*
X6981190Y-8130714D01*
X6981190Y-8235476D01*
X7076428Y-8235476D02*
X7076428Y-8102143D01*
X7076428Y-8121190D02*
X7085952Y-8111667D01*
X7105000Y-8102143D01*
X7133571Y-8102143D01*
X7152619Y-8111667D01*
X7162143Y-8130714D01*
X7162143Y-8235476D01*
X7162143Y-8130714D02*
X7171667Y-8111667D01*
X7190714Y-8102143D01*
X7219286Y-8102143D01*
X7238333Y-8111667D01*
X7247857Y-8130714D01*
X7247857Y-8235476D01*
X7638333Y-8025952D02*
X7466905Y-8283095D01*
X7895476Y-8035476D02*
X7914524Y-8035476D01*
X7933571Y-8045000D01*
X7943095Y-8054524D01*
X7952619Y-8073571D01*
X7962143Y-8111667D01*
X7962143Y-8159286D01*
X7952619Y-8197381D01*
X7943095Y-8216428D01*
X7933571Y-8225952D01*
X7914524Y-8235476D01*
X7895476Y-8235476D01*
X7876428Y-8225952D01*
X7866905Y-8216428D01*
X7857381Y-8197381D01*
X7847857Y-8159286D01*
X7847857Y-8111667D01*
X7857381Y-8073571D01*
X7866905Y-8054524D01*
X7876428Y-8045000D01*
X7895476Y-8035476D01*
X8047857Y-8216428D02*
X8057381Y-8225952D01*
X8047857Y-8235476D01*
X8038333Y-8225952D01*
X8047857Y-8216428D01*
X8047857Y-8235476D01*
X8247857Y-8235476D02*
X8133571Y-8235476D01*
X8190714Y-8235476D02*
X8190714Y-8035476D01*
X8171667Y-8064048D01*
X8152619Y-8083095D01*
X8133571Y-8092619D01*
X8324048Y-8054524D02*
X8333571Y-8045000D01*
X8352619Y-8035476D01*
X8400238Y-8035476D01*
X8419286Y-8045000D01*
X8428810Y-8054524D01*
X8438333Y-8073571D01*
X8438333Y-8092619D01*
X8428810Y-8121190D01*
X8314524Y-8235476D01*
X8438333Y-8235476D01*
X8609762Y-8035476D02*
X8571667Y-8035476D01*
X8552619Y-8045000D01*
X8543095Y-8054524D01*
X8524048Y-8083095D01*
X8514524Y-8121190D01*
X8514524Y-8197381D01*
X8524048Y-8216428D01*
X8533571Y-8225952D01*
X8552619Y-8235476D01*
X8590714Y-8235476D01*
X8609762Y-8225952D01*
X8619286Y-8216428D01*
X8628810Y-8197381D01*
X8628810Y-8149762D01*
X8619286Y-8130714D01*
X8609762Y-8121190D01*
X8590714Y-8111667D01*
X8552619Y-8111667D01*
X8533571Y-8121190D01*
X8524048Y-8130714D01*
X8514524Y-8149762D01*
X8752619Y-8035476D02*
X8771667Y-8035476D01*
X8790714Y-8045000D01*
X8800238Y-8054524D01*
X8809762Y-8073571D01*
X8819286Y-8111667D01*
X8819286Y-8159286D01*
X8809762Y-8197381D01*
X8800238Y-8216428D01*
X8790714Y-8225952D01*
X8771667Y-8235476D01*
X8752619Y-8235476D01*
X8733571Y-8225952D01*
X8724048Y-8216428D01*
X8714524Y-8197381D01*
X8705000Y-8159286D01*
X8705000Y-8111667D01*
X8714524Y-8073571D01*
X8724048Y-8054524D01*
X8733571Y-8045000D01*
X8752619Y-8035476D01*
X8895476Y-8035476D02*
X8895476Y-8073571D01*
X8971667Y-8035476D02*
X8971667Y-8073571D01*
X9266905Y-8311667D02*
X9257381Y-8302143D01*
X9238333Y-8273571D01*
X9228810Y-8254524D01*
X9219286Y-8225952D01*
X9209762Y-8178333D01*
X9209762Y-8140238D01*
X9219286Y-8092619D01*
X9228810Y-8064048D01*
X9238333Y-8045000D01*
X9257381Y-8016428D01*
X9266905Y-8006905D01*
X9428810Y-8102143D02*
X9428810Y-8235476D01*
X9381190Y-8025952D02*
X9333571Y-8168809D01*
X9457381Y-8168809D01*
X9685952Y-8235476D02*
X9685952Y-8035476D01*
X9771667Y-8235476D02*
X9771667Y-8130714D01*
X9762143Y-8111667D01*
X9743095Y-8102143D01*
X9714524Y-8102143D01*
X9695476Y-8111667D01*
X9685952Y-8121190D01*
X9895476Y-8235476D02*
X9876429Y-8225952D01*
X9866905Y-8216428D01*
X9857381Y-8197381D01*
X9857381Y-8140238D01*
X9866905Y-8121190D01*
X9876429Y-8111667D01*
X9895476Y-8102143D01*
X9924048Y-8102143D01*
X9943095Y-8111667D01*
X9952619Y-8121190D01*
X9962143Y-8140238D01*
X9962143Y-8197381D01*
X9952619Y-8216428D01*
X9943095Y-8225952D01*
X9924048Y-8235476D01*
X9895476Y-8235476D01*
X10076429Y-8235476D02*
X10057381Y-8225952D01*
X10047857Y-8206905D01*
X10047857Y-8035476D01*
X10228810Y-8225952D02*
X10209762Y-8235476D01*
X10171667Y-8235476D01*
X10152619Y-8225952D01*
X10143095Y-8206905D01*
X10143095Y-8130714D01*
X10152619Y-8111667D01*
X10171667Y-8102143D01*
X10209762Y-8102143D01*
X10228810Y-8111667D01*
X10238333Y-8130714D01*
X10238333Y-8149762D01*
X10143095Y-8168809D01*
X10314524Y-8225952D02*
X10333571Y-8235476D01*
X10371667Y-8235476D01*
X10390714Y-8225952D01*
X10400238Y-8206905D01*
X10400238Y-8197381D01*
X10390714Y-8178333D01*
X10371667Y-8168809D01*
X10343095Y-8168809D01*
X10324048Y-8159286D01*
X10314524Y-8140238D01*
X10314524Y-8130714D01*
X10324048Y-8111667D01*
X10343095Y-8102143D01*
X10371667Y-8102143D01*
X10390714Y-8111667D01*
X10466905Y-8311667D02*
X10476429Y-8302143D01*
X10495476Y-8273571D01*
X10505000Y-8254524D01*
X10514524Y-8225952D01*
X10524048Y-8178333D01*
X10524048Y-8140238D01*
X10514524Y-8092619D01*
X10505000Y-8064048D01*
X10495476Y-8045000D01*
X10476429Y-8016428D01*
X10466905Y-8006905D01*
X10828810Y-8311667D02*
X10819286Y-8302143D01*
X10800238Y-8273571D01*
X10790714Y-8254524D01*
X10781190Y-8225952D01*
X10771667Y-8178333D01*
X10771667Y-8140238D01*
X10781190Y-8092619D01*
X10790714Y-8064048D01*
X10800238Y-8045000D01*
X10819286Y-8016428D01*
X10828810Y-8006905D01*
X10905000Y-8102143D02*
X10905000Y-8235476D01*
X10905000Y-8121190D02*
X10914524Y-8111667D01*
X10933571Y-8102143D01*
X10962143Y-8102143D01*
X10981190Y-8111667D01*
X10990714Y-8130714D01*
X10990714Y-8235476D01*
X11114524Y-8235476D02*
X11095476Y-8225952D01*
X11085952Y-8216428D01*
X11076429Y-8197381D01*
X11076429Y-8140238D01*
X11085952Y-8121190D01*
X11095476Y-8111667D01*
X11114524Y-8102143D01*
X11143095Y-8102143D01*
X11162143Y-8111667D01*
X11171667Y-8121190D01*
X11181190Y-8140238D01*
X11181190Y-8197381D01*
X11171667Y-8216428D01*
X11162143Y-8225952D01*
X11143095Y-8235476D01*
X11114524Y-8235476D01*
X11238333Y-8102143D02*
X11314524Y-8102143D01*
X11266905Y-8035476D02*
X11266905Y-8206905D01*
X11276428Y-8225952D01*
X11295476Y-8235476D01*
X11314524Y-8235476D01*
X11533571Y-8102143D02*
X11533571Y-8302143D01*
X11533571Y-8111667D02*
X11552619Y-8102143D01*
X11590714Y-8102143D01*
X11609762Y-8111667D01*
X11619286Y-8121190D01*
X11628809Y-8140238D01*
X11628809Y-8197381D01*
X11619286Y-8216428D01*
X11609762Y-8225952D01*
X11590714Y-8235476D01*
X11552619Y-8235476D01*
X11533571Y-8225952D01*
X11743095Y-8235476D02*
X11724048Y-8225952D01*
X11714524Y-8206905D01*
X11714524Y-8035476D01*
X11905000Y-8235476D02*
X11905000Y-8130714D01*
X11895476Y-8111667D01*
X11876428Y-8102143D01*
X11838333Y-8102143D01*
X11819286Y-8111667D01*
X11905000Y-8225952D02*
X11885952Y-8235476D01*
X11838333Y-8235476D01*
X11819286Y-8225952D01*
X11809762Y-8206905D01*
X11809762Y-8187857D01*
X11819286Y-8168809D01*
X11838333Y-8159286D01*
X11885952Y-8159286D01*
X11905000Y-8149762D01*
X11971667Y-8102143D02*
X12047857Y-8102143D01*
X12000238Y-8035476D02*
X12000238Y-8206905D01*
X12009762Y-8225952D01*
X12028809Y-8235476D01*
X12047857Y-8235476D01*
X12190714Y-8225952D02*
X12171667Y-8235476D01*
X12133571Y-8235476D01*
X12114524Y-8225952D01*
X12105000Y-8206905D01*
X12105000Y-8130714D01*
X12114524Y-8111667D01*
X12133571Y-8102143D01*
X12171667Y-8102143D01*
X12190714Y-8111667D01*
X12200238Y-8130714D01*
X12200238Y-8149762D01*
X12105000Y-8168809D01*
X12371667Y-8235476D02*
X12371667Y-8035476D01*
X12371667Y-8225952D02*
X12352619Y-8235476D01*
X12314524Y-8235476D01*
X12295476Y-8225952D01*
X12285952Y-8216428D01*
X12276428Y-8197381D01*
X12276428Y-8140238D01*
X12285952Y-8121190D01*
X12295476Y-8111667D01*
X12314524Y-8102143D01*
X12352619Y-8102143D01*
X12371667Y-8111667D01*
X12447857Y-8311667D02*
X12457381Y-8302143D01*
X12476428Y-8273571D01*
X12485952Y-8254524D01*
X12495476Y-8225952D01*
X12505000Y-8178333D01*
X12505000Y-8140238D01*
X12495476Y-8092619D01*
X12485952Y-8064048D01*
X12476428Y-8045000D01*
X12457381Y-8016428D01*
X12447857Y-8006905D01*
M02*
