%FSLAX45Y45*%
G04 Gerber Fmt 4.5, Leading zero omitted, Abs format (unit mm)*
G04 Created by KiCad (PCBNEW 6.0.4-6f826c9f35~116~ubuntu20.04.1) date 2022-04-29 21:32:25*
%MOMM*%
%LPD*%
G01*
G04 APERTURE LIST*
%TA.AperFunction,Profile*%
%ADD10C,0.100000*%
%TD*%
%ADD11C,0.200000*%
%ADD12C,0.040000*%
%ADD13C,0.100000*%
G04 APERTURE END LIST*
D10*
X1780000Y-4690000D02*
X1780000Y-3890000D01*
X2440000Y-2510000D02*
X3760000Y-1680000D01*
X2000000Y-6250000D02*
X1780000Y-4690000D01*
X3760000Y-1680000D02*
X5860000Y-1680000D01*
X1780000Y-3890000D02*
X2440000Y-2510000D01*
X7840000Y-4690000D02*
X7620000Y-6250000D01*
X5860000Y-1680000D02*
X7180000Y-2510000D01*
X7180000Y-2510000D02*
X7840000Y-3890000D01*
X4810000Y-6380000D02*
X7620000Y-6250000D01*
X7840000Y-3890000D02*
X7840000Y-4690000D01*
X2000000Y-6250000D02*
X4810000Y-6380000D01*
D11*
D12*
X1930000Y-4730000D02*
X1970000Y-4770000D01*
X1970000Y-4730000D02*
X1930000Y-4770000D01*
X1980000Y-5580000D02*
X2020000Y-5620000D01*
X2020000Y-5580000D02*
X1980000Y-5620000D01*
X2050000Y-3750000D02*
X2090000Y-3790000D01*
X2090000Y-3750000D02*
X2050000Y-3790000D01*
X2250000Y-3910000D02*
X2290000Y-3950000D01*
X2290000Y-3910000D02*
X2250000Y-3950000D01*
X2430000Y-3450000D02*
X2470000Y-3490000D01*
X2470000Y-3450000D02*
X2430000Y-3490000D01*
X2450000Y-5430000D02*
X2490000Y-5470000D01*
X2490000Y-5430000D02*
X2450000Y-5470000D01*
X2560000Y-4730000D02*
X2600000Y-4770000D01*
X2600000Y-4730000D02*
X2560000Y-4770000D01*
X2560000Y-5090000D02*
X2600000Y-5130000D01*
X2600000Y-5090000D02*
X2560000Y-5130000D01*
X2630000Y-5790000D02*
X2670000Y-5830000D01*
X2670000Y-5790000D02*
X2630000Y-5830000D01*
X2730000Y-3920000D02*
X2770000Y-3960000D01*
X2770000Y-3920000D02*
X2730000Y-3960000D01*
X2730000Y-4590000D02*
X2770000Y-4630000D01*
X2770000Y-4590000D02*
X2730000Y-4630000D01*
X2730000Y-5432500D02*
X2770000Y-5472500D01*
X2770000Y-5432500D02*
X2730000Y-5472500D01*
X2810000Y-2480000D02*
X2850000Y-2520000D01*
X2850000Y-2480000D02*
X2810000Y-2520000D01*
X2960000Y-5530000D02*
X3000000Y-5570000D01*
X3000000Y-5530000D02*
X2960000Y-5570000D01*
X3260000Y-5720000D02*
X3300000Y-5760000D01*
X3300000Y-5720000D02*
X3260000Y-5760000D01*
X3380000Y-5090000D02*
X3420000Y-5130000D01*
X3420000Y-5090000D02*
X3380000Y-5130000D01*
X3460000Y-2040000D02*
X3500000Y-2080000D01*
X3500000Y-2040000D02*
X3460000Y-2080000D01*
X3700000Y-4590000D02*
X3740000Y-4630000D01*
X3740000Y-4590000D02*
X3700000Y-4630000D01*
X3820000Y-2480000D02*
X3860000Y-2520000D01*
X3860000Y-2480000D02*
X3820000Y-2520000D01*
X4110000Y-2820000D02*
X4150000Y-2860000D01*
X4150000Y-2820000D02*
X4110000Y-2860000D01*
X4180000Y-2040000D02*
X4220000Y-2080000D01*
X4220000Y-2040000D02*
X4180000Y-2080000D01*
X4390000Y-3820000D02*
X4430000Y-3860000D01*
X4430000Y-3820000D02*
X4390000Y-3860000D01*
X4630000Y-5090000D02*
X4670000Y-5130000D01*
X4670000Y-5090000D02*
X4630000Y-5130000D01*
X4960000Y-4590000D02*
X5000000Y-4630000D01*
X5000000Y-4590000D02*
X4960000Y-4630000D01*
X5070000Y-6260000D02*
X5110000Y-6300000D01*
X5110000Y-6260000D02*
X5070000Y-6300000D01*
X5130000Y-1820000D02*
X5170000Y-1860000D01*
X5170000Y-1820000D02*
X5130000Y-1860000D01*
X5210000Y-3530000D02*
X5250000Y-3570000D01*
X5250000Y-3530000D02*
X5210000Y-3570000D01*
X5390000Y-2470000D02*
X5430000Y-2510000D01*
X5430000Y-2470000D02*
X5390000Y-2510000D01*
X5720000Y-2040000D02*
X5760000Y-2080000D01*
X5760000Y-2040000D02*
X5720000Y-2080000D01*
X5770000Y-5090000D02*
X5810000Y-5130000D01*
X5810000Y-5090000D02*
X5770000Y-5130000D01*
X5920000Y-6050000D02*
X5960000Y-6090000D01*
X5960000Y-6050000D02*
X5920000Y-6090000D01*
X6050000Y-1950000D02*
X6090000Y-1990000D01*
X6090000Y-1950000D02*
X6050000Y-1990000D01*
X6060000Y-4590000D02*
X6100000Y-4630000D01*
X6100000Y-4590000D02*
X6060000Y-4630000D01*
X6370000Y-2620000D02*
X6410000Y-2660000D01*
X6410000Y-2620000D02*
X6370000Y-2660000D01*
X6470000Y-4820000D02*
X6510000Y-4860000D01*
X6510000Y-4820000D02*
X6470000Y-4860000D01*
X6700000Y-5090000D02*
X6740000Y-5130000D01*
X6740000Y-5090000D02*
X6700000Y-5130000D01*
X6730000Y-6020000D02*
X6770000Y-6060000D01*
X6770000Y-6020000D02*
X6730000Y-6060000D01*
X6900000Y-4590000D02*
X6940000Y-4630000D01*
X6940000Y-4590000D02*
X6900000Y-4630000D01*
X6970000Y-5090000D02*
X7010000Y-5130000D01*
X7010000Y-5090000D02*
X6970000Y-5130000D01*
X7150000Y-4870000D02*
X7190000Y-4910000D01*
X7190000Y-4870000D02*
X7150000Y-4910000D01*
X7180000Y-5260000D02*
X7220000Y-5300000D01*
X7220000Y-5260000D02*
X7180000Y-5300000D01*
X7330000Y-5090000D02*
X7370000Y-5130000D01*
X7370000Y-5090000D02*
X7330000Y-5130000D01*
X7450000Y-3560000D02*
X7490000Y-3600000D01*
X7490000Y-3560000D02*
X7450000Y-3600000D01*
X7540000Y-4440000D02*
X7580000Y-4480000D01*
X7580000Y-4440000D02*
X7540000Y-4480000D01*
D13*
X2893500Y-6050000D02*
G75*
G03*
X2893500Y-6050000I-50000J0D01*
G01*
X3147500Y-6050000D02*
G75*
G03*
X3147500Y-6050000I-50000J0D01*
G01*
X3401500Y-6050000D02*
G75*
G03*
X3401500Y-6050000I-50000J0D01*
G01*
X3804500Y-6090000D02*
G75*
G03*
X3804500Y-6090000I-50000J0D01*
G01*
X4058500Y-6090000D02*
G75*
G03*
X4058500Y-6090000I-50000J0D01*
G01*
X4312500Y-6090000D02*
G75*
G03*
X4312500Y-6090000I-50000J0D01*
G01*
D11*
X2032619Y-6695476D02*
X2032619Y-6495476D01*
X2080238Y-6495476D01*
X2108810Y-6505000D01*
X2127857Y-6524048D01*
X2137381Y-6543095D01*
X2146905Y-6581190D01*
X2146905Y-6609762D01*
X2137381Y-6647857D01*
X2127857Y-6666905D01*
X2108810Y-6685952D01*
X2080238Y-6695476D01*
X2032619Y-6695476D01*
X2232619Y-6695476D02*
X2232619Y-6562143D01*
X2232619Y-6600238D02*
X2242143Y-6581190D01*
X2251667Y-6571667D01*
X2270714Y-6562143D01*
X2289762Y-6562143D01*
X2356429Y-6695476D02*
X2356429Y-6562143D01*
X2356429Y-6495476D02*
X2346905Y-6505000D01*
X2356429Y-6514524D01*
X2365952Y-6505000D01*
X2356429Y-6495476D01*
X2356429Y-6514524D01*
X2480238Y-6695476D02*
X2461190Y-6685952D01*
X2451667Y-6666905D01*
X2451667Y-6495476D01*
X2585000Y-6695476D02*
X2565952Y-6685952D01*
X2556429Y-6666905D01*
X2556429Y-6495476D01*
X2813571Y-6695476D02*
X2813571Y-6495476D01*
X2880238Y-6638333D01*
X2946905Y-6495476D01*
X2946905Y-6695476D01*
X3127857Y-6695476D02*
X3127857Y-6590714D01*
X3118333Y-6571667D01*
X3099286Y-6562143D01*
X3061190Y-6562143D01*
X3042143Y-6571667D01*
X3127857Y-6685952D02*
X3108809Y-6695476D01*
X3061190Y-6695476D01*
X3042143Y-6685952D01*
X3032619Y-6666905D01*
X3032619Y-6647857D01*
X3042143Y-6628809D01*
X3061190Y-6619286D01*
X3108809Y-6619286D01*
X3127857Y-6609762D01*
X3223095Y-6562143D02*
X3223095Y-6762143D01*
X3223095Y-6571667D02*
X3242143Y-6562143D01*
X3280238Y-6562143D01*
X3299286Y-6571667D01*
X3308809Y-6581190D01*
X3318333Y-6600238D01*
X3318333Y-6657381D01*
X3308809Y-6676428D01*
X3299286Y-6685952D01*
X3280238Y-6695476D01*
X3242143Y-6695476D01*
X3223095Y-6685952D01*
X3404048Y-6676428D02*
X3413571Y-6685952D01*
X3404048Y-6695476D01*
X3394524Y-6685952D01*
X3404048Y-6676428D01*
X3404048Y-6695476D01*
X3404048Y-6571667D02*
X3413571Y-6581190D01*
X3404048Y-6590714D01*
X3394524Y-6581190D01*
X3404048Y-6571667D01*
X3404048Y-6590714D01*
D12*
X1735000Y-7005000D02*
X1775000Y-7045000D01*
X1775000Y-7005000D02*
X1735000Y-7045000D01*
D11*
X2070714Y-6915476D02*
X2089762Y-6915476D01*
X2108810Y-6925000D01*
X2118333Y-6934524D01*
X2127857Y-6953571D01*
X2137381Y-6991667D01*
X2137381Y-7039286D01*
X2127857Y-7077381D01*
X2118333Y-7096428D01*
X2108810Y-7105952D01*
X2089762Y-7115476D01*
X2070714Y-7115476D01*
X2051667Y-7105952D01*
X2042143Y-7096428D01*
X2032619Y-7077381D01*
X2023095Y-7039286D01*
X2023095Y-6991667D01*
X2032619Y-6953571D01*
X2042143Y-6934524D01*
X2051667Y-6925000D01*
X2070714Y-6915476D01*
X2223095Y-7096428D02*
X2232619Y-7105952D01*
X2223095Y-7115476D01*
X2213571Y-7105952D01*
X2223095Y-7096428D01*
X2223095Y-7115476D01*
X2404048Y-6982143D02*
X2404048Y-7115476D01*
X2356429Y-6905952D02*
X2308810Y-7048809D01*
X2432619Y-7048809D01*
X2546905Y-6915476D02*
X2565952Y-6915476D01*
X2585000Y-6925000D01*
X2594524Y-6934524D01*
X2604048Y-6953571D01*
X2613571Y-6991667D01*
X2613571Y-7039286D01*
X2604048Y-7077381D01*
X2594524Y-7096428D01*
X2585000Y-7105952D01*
X2565952Y-7115476D01*
X2546905Y-7115476D01*
X2527857Y-7105952D01*
X2518333Y-7096428D01*
X2508810Y-7077381D01*
X2499286Y-7039286D01*
X2499286Y-6991667D01*
X2508810Y-6953571D01*
X2518333Y-6934524D01*
X2527857Y-6925000D01*
X2546905Y-6915476D01*
X2737381Y-6915476D02*
X2756429Y-6915476D01*
X2775476Y-6925000D01*
X2785000Y-6934524D01*
X2794524Y-6953571D01*
X2804048Y-6991667D01*
X2804048Y-7039286D01*
X2794524Y-7077381D01*
X2785000Y-7096428D01*
X2775476Y-7105952D01*
X2756429Y-7115476D01*
X2737381Y-7115476D01*
X2718333Y-7105952D01*
X2708810Y-7096428D01*
X2699286Y-7077381D01*
X2689762Y-7039286D01*
X2689762Y-6991667D01*
X2699286Y-6953571D01*
X2708810Y-6934524D01*
X2718333Y-6925000D01*
X2737381Y-6915476D01*
X2889762Y-7115476D02*
X2889762Y-6982143D01*
X2889762Y-7001190D02*
X2899286Y-6991667D01*
X2918333Y-6982143D01*
X2946905Y-6982143D01*
X2965952Y-6991667D01*
X2975476Y-7010714D01*
X2975476Y-7115476D01*
X2975476Y-7010714D02*
X2985000Y-6991667D01*
X3004048Y-6982143D01*
X3032619Y-6982143D01*
X3051667Y-6991667D01*
X3061190Y-7010714D01*
X3061190Y-7115476D01*
X3156428Y-7115476D02*
X3156428Y-6982143D01*
X3156428Y-7001190D02*
X3165952Y-6991667D01*
X3185000Y-6982143D01*
X3213571Y-6982143D01*
X3232619Y-6991667D01*
X3242143Y-7010714D01*
X3242143Y-7115476D01*
X3242143Y-7010714D02*
X3251667Y-6991667D01*
X3270714Y-6982143D01*
X3299286Y-6982143D01*
X3318333Y-6991667D01*
X3327857Y-7010714D01*
X3327857Y-7115476D01*
X3718333Y-6905952D02*
X3546905Y-7163095D01*
X3975476Y-6915476D02*
X3994524Y-6915476D01*
X4013571Y-6925000D01*
X4023095Y-6934524D01*
X4032619Y-6953571D01*
X4042143Y-6991667D01*
X4042143Y-7039286D01*
X4032619Y-7077381D01*
X4023095Y-7096428D01*
X4013571Y-7105952D01*
X3994524Y-7115476D01*
X3975476Y-7115476D01*
X3956428Y-7105952D01*
X3946905Y-7096428D01*
X3937381Y-7077381D01*
X3927857Y-7039286D01*
X3927857Y-6991667D01*
X3937381Y-6953571D01*
X3946905Y-6934524D01*
X3956428Y-6925000D01*
X3975476Y-6915476D01*
X4127857Y-7096428D02*
X4137381Y-7105952D01*
X4127857Y-7115476D01*
X4118333Y-7105952D01*
X4127857Y-7096428D01*
X4127857Y-7115476D01*
X4261190Y-6915476D02*
X4280238Y-6915476D01*
X4299286Y-6925000D01*
X4308810Y-6934524D01*
X4318333Y-6953571D01*
X4327857Y-6991667D01*
X4327857Y-7039286D01*
X4318333Y-7077381D01*
X4308810Y-7096428D01*
X4299286Y-7105952D01*
X4280238Y-7115476D01*
X4261190Y-7115476D01*
X4242143Y-7105952D01*
X4232619Y-7096428D01*
X4223095Y-7077381D01*
X4213571Y-7039286D01*
X4213571Y-6991667D01*
X4223095Y-6953571D01*
X4232619Y-6934524D01*
X4242143Y-6925000D01*
X4261190Y-6915476D01*
X4518333Y-7115476D02*
X4404048Y-7115476D01*
X4461190Y-7115476D02*
X4461190Y-6915476D01*
X4442143Y-6944048D01*
X4423095Y-6963095D01*
X4404048Y-6972619D01*
X4699286Y-6915476D02*
X4604048Y-6915476D01*
X4594524Y-7010714D01*
X4604048Y-7001190D01*
X4623095Y-6991667D01*
X4670714Y-6991667D01*
X4689762Y-7001190D01*
X4699286Y-7010714D01*
X4708810Y-7029762D01*
X4708810Y-7077381D01*
X4699286Y-7096428D01*
X4689762Y-7105952D01*
X4670714Y-7115476D01*
X4623095Y-7115476D01*
X4604048Y-7105952D01*
X4594524Y-7096428D01*
X4775476Y-6915476D02*
X4908810Y-6915476D01*
X4823095Y-7115476D01*
X4975476Y-6915476D02*
X4975476Y-6953571D01*
X5051667Y-6915476D02*
X5051667Y-6953571D01*
X5346905Y-7191667D02*
X5337381Y-7182143D01*
X5318333Y-7153571D01*
X5308810Y-7134524D01*
X5299286Y-7105952D01*
X5289762Y-7058333D01*
X5289762Y-7020238D01*
X5299286Y-6972619D01*
X5308810Y-6944048D01*
X5318333Y-6925000D01*
X5337381Y-6896428D01*
X5346905Y-6886905D01*
X5508810Y-6982143D02*
X5508810Y-7115476D01*
X5461190Y-6905952D02*
X5413571Y-7048809D01*
X5537381Y-7048809D01*
X5699286Y-6982143D02*
X5699286Y-7115476D01*
X5651667Y-6905952D02*
X5604048Y-7048809D01*
X5727857Y-7048809D01*
X5956428Y-7115476D02*
X5956428Y-6915476D01*
X6042143Y-7115476D02*
X6042143Y-7010714D01*
X6032619Y-6991667D01*
X6013571Y-6982143D01*
X5985000Y-6982143D01*
X5965952Y-6991667D01*
X5956428Y-7001190D01*
X6165952Y-7115476D02*
X6146905Y-7105952D01*
X6137381Y-7096428D01*
X6127857Y-7077381D01*
X6127857Y-7020238D01*
X6137381Y-7001190D01*
X6146905Y-6991667D01*
X6165952Y-6982143D01*
X6194524Y-6982143D01*
X6213571Y-6991667D01*
X6223095Y-7001190D01*
X6232619Y-7020238D01*
X6232619Y-7077381D01*
X6223095Y-7096428D01*
X6213571Y-7105952D01*
X6194524Y-7115476D01*
X6165952Y-7115476D01*
X6346905Y-7115476D02*
X6327857Y-7105952D01*
X6318333Y-7086905D01*
X6318333Y-6915476D01*
X6499286Y-7105952D02*
X6480238Y-7115476D01*
X6442143Y-7115476D01*
X6423095Y-7105952D01*
X6413571Y-7086905D01*
X6413571Y-7010714D01*
X6423095Y-6991667D01*
X6442143Y-6982143D01*
X6480238Y-6982143D01*
X6499286Y-6991667D01*
X6508809Y-7010714D01*
X6508809Y-7029762D01*
X6413571Y-7048809D01*
X6585000Y-7105952D02*
X6604048Y-7115476D01*
X6642143Y-7115476D01*
X6661190Y-7105952D01*
X6670714Y-7086905D01*
X6670714Y-7077381D01*
X6661190Y-7058333D01*
X6642143Y-7048809D01*
X6613571Y-7048809D01*
X6594524Y-7039286D01*
X6585000Y-7020238D01*
X6585000Y-7010714D01*
X6594524Y-6991667D01*
X6613571Y-6982143D01*
X6642143Y-6982143D01*
X6661190Y-6991667D01*
X6737381Y-7191667D02*
X6746905Y-7182143D01*
X6765952Y-7153571D01*
X6775476Y-7134524D01*
X6785000Y-7105952D01*
X6794524Y-7058333D01*
X6794524Y-7020238D01*
X6785000Y-6972619D01*
X6775476Y-6944048D01*
X6765952Y-6925000D01*
X6746905Y-6896428D01*
X6737381Y-6886905D01*
D13*
X1775000Y-7289000D02*
G75*
G03*
X1775000Y-7289000I-50000J0D01*
G01*
D11*
X2137381Y-7379476D02*
X2023095Y-7379476D01*
X2080238Y-7379476D02*
X2080238Y-7179476D01*
X2061190Y-7208048D01*
X2042143Y-7227095D01*
X2023095Y-7236619D01*
X2223095Y-7360428D02*
X2232619Y-7369952D01*
X2223095Y-7379476D01*
X2213571Y-7369952D01*
X2223095Y-7360428D01*
X2223095Y-7379476D01*
X2356429Y-7179476D02*
X2375476Y-7179476D01*
X2394524Y-7189000D01*
X2404048Y-7198524D01*
X2413571Y-7217571D01*
X2423095Y-7255667D01*
X2423095Y-7303286D01*
X2413571Y-7341381D01*
X2404048Y-7360428D01*
X2394524Y-7369952D01*
X2375476Y-7379476D01*
X2356429Y-7379476D01*
X2337381Y-7369952D01*
X2327857Y-7360428D01*
X2318333Y-7341381D01*
X2308810Y-7303286D01*
X2308810Y-7255667D01*
X2318333Y-7217571D01*
X2327857Y-7198524D01*
X2337381Y-7189000D01*
X2356429Y-7179476D01*
X2546905Y-7179476D02*
X2565952Y-7179476D01*
X2585000Y-7189000D01*
X2594524Y-7198524D01*
X2604048Y-7217571D01*
X2613571Y-7255667D01*
X2613571Y-7303286D01*
X2604048Y-7341381D01*
X2594524Y-7360428D01*
X2585000Y-7369952D01*
X2565952Y-7379476D01*
X2546905Y-7379476D01*
X2527857Y-7369952D01*
X2518333Y-7360428D01*
X2508810Y-7341381D01*
X2499286Y-7303286D01*
X2499286Y-7255667D01*
X2508810Y-7217571D01*
X2518333Y-7198524D01*
X2527857Y-7189000D01*
X2546905Y-7179476D01*
X2737381Y-7179476D02*
X2756429Y-7179476D01*
X2775476Y-7189000D01*
X2785000Y-7198524D01*
X2794524Y-7217571D01*
X2804048Y-7255667D01*
X2804048Y-7303286D01*
X2794524Y-7341381D01*
X2785000Y-7360428D01*
X2775476Y-7369952D01*
X2756429Y-7379476D01*
X2737381Y-7379476D01*
X2718333Y-7369952D01*
X2708810Y-7360428D01*
X2699286Y-7341381D01*
X2689762Y-7303286D01*
X2689762Y-7255667D01*
X2699286Y-7217571D01*
X2708810Y-7198524D01*
X2718333Y-7189000D01*
X2737381Y-7179476D01*
X2889762Y-7379476D02*
X2889762Y-7246143D01*
X2889762Y-7265190D02*
X2899286Y-7255667D01*
X2918333Y-7246143D01*
X2946905Y-7246143D01*
X2965952Y-7255667D01*
X2975476Y-7274714D01*
X2975476Y-7379476D01*
X2975476Y-7274714D02*
X2985000Y-7255667D01*
X3004048Y-7246143D01*
X3032619Y-7246143D01*
X3051667Y-7255667D01*
X3061190Y-7274714D01*
X3061190Y-7379476D01*
X3156428Y-7379476D02*
X3156428Y-7246143D01*
X3156428Y-7265190D02*
X3165952Y-7255667D01*
X3185000Y-7246143D01*
X3213571Y-7246143D01*
X3232619Y-7255667D01*
X3242143Y-7274714D01*
X3242143Y-7379476D01*
X3242143Y-7274714D02*
X3251667Y-7255667D01*
X3270714Y-7246143D01*
X3299286Y-7246143D01*
X3318333Y-7255667D01*
X3327857Y-7274714D01*
X3327857Y-7379476D01*
X3718333Y-7169952D02*
X3546905Y-7427095D01*
X3975476Y-7179476D02*
X3994524Y-7179476D01*
X4013571Y-7189000D01*
X4023095Y-7198524D01*
X4032619Y-7217571D01*
X4042143Y-7255667D01*
X4042143Y-7303286D01*
X4032619Y-7341381D01*
X4023095Y-7360428D01*
X4013571Y-7369952D01*
X3994524Y-7379476D01*
X3975476Y-7379476D01*
X3956428Y-7369952D01*
X3946905Y-7360428D01*
X3937381Y-7341381D01*
X3927857Y-7303286D01*
X3927857Y-7255667D01*
X3937381Y-7217571D01*
X3946905Y-7198524D01*
X3956428Y-7189000D01*
X3975476Y-7179476D01*
X4127857Y-7360428D02*
X4137381Y-7369952D01*
X4127857Y-7379476D01*
X4118333Y-7369952D01*
X4127857Y-7360428D01*
X4127857Y-7379476D01*
X4261190Y-7179476D02*
X4280238Y-7179476D01*
X4299286Y-7189000D01*
X4308810Y-7198524D01*
X4318333Y-7217571D01*
X4327857Y-7255667D01*
X4327857Y-7303286D01*
X4318333Y-7341381D01*
X4308810Y-7360428D01*
X4299286Y-7369952D01*
X4280238Y-7379476D01*
X4261190Y-7379476D01*
X4242143Y-7369952D01*
X4232619Y-7360428D01*
X4223095Y-7341381D01*
X4213571Y-7303286D01*
X4213571Y-7255667D01*
X4223095Y-7217571D01*
X4232619Y-7198524D01*
X4242143Y-7189000D01*
X4261190Y-7179476D01*
X4394524Y-7179476D02*
X4518333Y-7179476D01*
X4451667Y-7255667D01*
X4480238Y-7255667D01*
X4499286Y-7265190D01*
X4508810Y-7274714D01*
X4518333Y-7293762D01*
X4518333Y-7341381D01*
X4508810Y-7360428D01*
X4499286Y-7369952D01*
X4480238Y-7379476D01*
X4423095Y-7379476D01*
X4404048Y-7369952D01*
X4394524Y-7360428D01*
X4613571Y-7379476D02*
X4651667Y-7379476D01*
X4670714Y-7369952D01*
X4680238Y-7360428D01*
X4699286Y-7331857D01*
X4708810Y-7293762D01*
X4708810Y-7217571D01*
X4699286Y-7198524D01*
X4689762Y-7189000D01*
X4670714Y-7179476D01*
X4632619Y-7179476D01*
X4613571Y-7189000D01*
X4604048Y-7198524D01*
X4594524Y-7217571D01*
X4594524Y-7265190D01*
X4604048Y-7284238D01*
X4613571Y-7293762D01*
X4632619Y-7303286D01*
X4670714Y-7303286D01*
X4689762Y-7293762D01*
X4699286Y-7284238D01*
X4708810Y-7265190D01*
X4880238Y-7246143D02*
X4880238Y-7379476D01*
X4832619Y-7169952D02*
X4785000Y-7312809D01*
X4908810Y-7312809D01*
X4975476Y-7179476D02*
X4975476Y-7217571D01*
X5051667Y-7179476D02*
X5051667Y-7217571D01*
X5346905Y-7455667D02*
X5337381Y-7446143D01*
X5318333Y-7417571D01*
X5308810Y-7398524D01*
X5299286Y-7369952D01*
X5289762Y-7322333D01*
X5289762Y-7284238D01*
X5299286Y-7236619D01*
X5308810Y-7208048D01*
X5318333Y-7189000D01*
X5337381Y-7160428D01*
X5346905Y-7150905D01*
X5508810Y-7179476D02*
X5470714Y-7179476D01*
X5451667Y-7189000D01*
X5442143Y-7198524D01*
X5423095Y-7227095D01*
X5413571Y-7265190D01*
X5413571Y-7341381D01*
X5423095Y-7360428D01*
X5432619Y-7369952D01*
X5451667Y-7379476D01*
X5489762Y-7379476D01*
X5508810Y-7369952D01*
X5518333Y-7360428D01*
X5527857Y-7341381D01*
X5527857Y-7293762D01*
X5518333Y-7274714D01*
X5508810Y-7265190D01*
X5489762Y-7255667D01*
X5451667Y-7255667D01*
X5432619Y-7265190D01*
X5423095Y-7274714D01*
X5413571Y-7293762D01*
X5765952Y-7379476D02*
X5765952Y-7179476D01*
X5851667Y-7379476D02*
X5851667Y-7274714D01*
X5842143Y-7255667D01*
X5823095Y-7246143D01*
X5794524Y-7246143D01*
X5775476Y-7255667D01*
X5765952Y-7265190D01*
X5975476Y-7379476D02*
X5956428Y-7369952D01*
X5946905Y-7360428D01*
X5937381Y-7341381D01*
X5937381Y-7284238D01*
X5946905Y-7265190D01*
X5956428Y-7255667D01*
X5975476Y-7246143D01*
X6004048Y-7246143D01*
X6023095Y-7255667D01*
X6032619Y-7265190D01*
X6042143Y-7284238D01*
X6042143Y-7341381D01*
X6032619Y-7360428D01*
X6023095Y-7369952D01*
X6004048Y-7379476D01*
X5975476Y-7379476D01*
X6156428Y-7379476D02*
X6137381Y-7369952D01*
X6127857Y-7350905D01*
X6127857Y-7179476D01*
X6308809Y-7369952D02*
X6289762Y-7379476D01*
X6251667Y-7379476D01*
X6232619Y-7369952D01*
X6223095Y-7350905D01*
X6223095Y-7274714D01*
X6232619Y-7255667D01*
X6251667Y-7246143D01*
X6289762Y-7246143D01*
X6308809Y-7255667D01*
X6318333Y-7274714D01*
X6318333Y-7293762D01*
X6223095Y-7312809D01*
X6394524Y-7369952D02*
X6413571Y-7379476D01*
X6451667Y-7379476D01*
X6470714Y-7369952D01*
X6480238Y-7350905D01*
X6480238Y-7341381D01*
X6470714Y-7322333D01*
X6451667Y-7312809D01*
X6423095Y-7312809D01*
X6404048Y-7303286D01*
X6394524Y-7284238D01*
X6394524Y-7274714D01*
X6404048Y-7255667D01*
X6423095Y-7246143D01*
X6451667Y-7246143D01*
X6470714Y-7255667D01*
X6546905Y-7455667D02*
X6556428Y-7446143D01*
X6575476Y-7417571D01*
X6585000Y-7398524D01*
X6594524Y-7369952D01*
X6604048Y-7322333D01*
X6604048Y-7284238D01*
X6594524Y-7236619D01*
X6585000Y-7208048D01*
X6575476Y-7189000D01*
X6556428Y-7160428D01*
X6546905Y-7150905D01*
M02*
