%TF.GenerationSoftware,KiCad,Pcbnew,6.0.4-6f826c9f35~116~ubuntu20.04.1*%
%TF.CreationDate,2022-04-29T21:32:22-06:00*%
%TF.ProjectId,circle-big,63697263-6c65-42d6-9269-672e6b696361,rev?*%
%TF.SameCoordinates,Original*%
%TF.FileFunction,Legend,Top*%
%TF.FilePolarity,Positive*%
%FSLAX46Y46*%
G04 Gerber Fmt 4.6, Leading zero omitted, Abs format (unit mm)*
G04 Created by KiCad (PCBNEW 6.0.4-6f826c9f35~116~ubuntu20.04.1) date 2022-04-29 21:32:22*
%MOMM*%
%LPD*%
G01*
G04 APERTURE LIST*
G04 Aperture macros list*
%AMRoundRect*
0 Rectangle with rounded corners*
0 $1 Rounding radius*
0 $2 $3 $4 $5 $6 $7 $8 $9 X,Y pos of 4 corners*
0 Add a 4 corners polygon primitive as box body*
4,1,4,$2,$3,$4,$5,$6,$7,$8,$9,$2,$3,0*
0 Add four circle primitives for the rounded corners*
1,1,$1+$1,$2,$3*
1,1,$1+$1,$4,$5*
1,1,$1+$1,$6,$7*
1,1,$1+$1,$8,$9*
0 Add four rect primitives between the rounded corners*
20,1,$1+$1,$2,$3,$4,$5,0*
20,1,$1+$1,$4,$5,$6,$7,0*
20,1,$1+$1,$6,$7,$8,$9,0*
20,1,$1+$1,$8,$9,$2,$3,0*%
G04 Aperture macros list end*
%ADD10C,0.150000*%
%ADD11C,0.120000*%
%ADD12R,1.000000X1.500000*%
%ADD13RoundRect,0.200000X-0.200000X-0.275000X0.200000X-0.275000X0.200000X0.275000X-0.200000X0.275000X0*%
%ADD14R,1.700000X1.700000*%
%ADD15O,1.700000X1.700000*%
%ADD16RoundRect,0.225000X-0.225000X-0.250000X0.225000X-0.250000X0.225000X0.250000X-0.225000X0.250000X0*%
%ADD17RoundRect,0.200000X0.275000X-0.200000X0.275000X0.200000X-0.275000X0.200000X-0.275000X-0.200000X0*%
%ADD18C,3.200000*%
%ADD19RoundRect,0.140000X-0.140000X-0.170000X0.140000X-0.170000X0.140000X0.170000X-0.140000X0.170000X0*%
G04 APERTURE END LIST*
D10*
X20614285Y-38747619D02*
X20661904Y-38700000D01*
X20757142Y-38652380D01*
X20995238Y-38652380D01*
X21090476Y-38700000D01*
X21138095Y-38747619D01*
X21185714Y-38842857D01*
X21185714Y-38938095D01*
X21138095Y-39080952D01*
X20566666Y-39652380D01*
X21185714Y-39652380D01*
X74866666Y-38452380D02*
X75533333Y-38452380D01*
X75104761Y-39452380D01*
X41490476Y-24885714D02*
X41490476Y-25552380D01*
X41252380Y-24504761D02*
X41014285Y-25219047D01*
X41633333Y-25219047D01*
X57038095Y-24552380D02*
X56561904Y-24552380D01*
X56514285Y-25028571D01*
X56561904Y-24980952D01*
X56657142Y-24933333D01*
X56895238Y-24933333D01*
X56990476Y-24980952D01*
X57038095Y-25028571D01*
X57085714Y-25123809D01*
X57085714Y-25361904D01*
X57038095Y-25457142D01*
X56990476Y-25504761D01*
X56895238Y-25552380D01*
X56657142Y-25552380D01*
X56561904Y-25504761D01*
X56514285Y-25457142D01*
X47709523Y-30852380D02*
X47138095Y-30852380D01*
X47423809Y-30852380D02*
X47423809Y-29852380D01*
X47328571Y-29995238D01*
X47233333Y-30090476D01*
X47138095Y-30138095D01*
X48661904Y-30852380D02*
X48090476Y-30852380D01*
X48376190Y-30852380D02*
X48376190Y-29852380D01*
X48280952Y-29995238D01*
X48185714Y-30090476D01*
X48090476Y-30138095D01*
X73004761Y-54280952D02*
X72909523Y-54233333D01*
X72861904Y-54185714D01*
X72814285Y-54090476D01*
X72814285Y-54042857D01*
X72861904Y-53947619D01*
X72909523Y-53900000D01*
X73004761Y-53852380D01*
X73195238Y-53852380D01*
X73290476Y-53900000D01*
X73338095Y-53947619D01*
X73385714Y-54042857D01*
X73385714Y-54090476D01*
X73338095Y-54185714D01*
X73290476Y-54233333D01*
X73195238Y-54280952D01*
X73004761Y-54280952D01*
X72909523Y-54328571D01*
X72861904Y-54376190D01*
X72814285Y-54471428D01*
X72814285Y-54661904D01*
X72861904Y-54757142D01*
X72909523Y-54804761D01*
X73004761Y-54852380D01*
X73195238Y-54852380D01*
X73290476Y-54804761D01*
X73338095Y-54757142D01*
X73385714Y-54661904D01*
X73385714Y-54471428D01*
X73338095Y-54376190D01*
X73290476Y-54328571D01*
X73195238Y-54280952D01*
X56257142Y-40804761D02*
X56161904Y-40852380D01*
X55971428Y-40852380D01*
X55876190Y-40804761D01*
X55828571Y-40757142D01*
X55780952Y-40661904D01*
X55780952Y-40376190D01*
X55828571Y-40280952D01*
X55876190Y-40233333D01*
X55971428Y-40185714D01*
X56161904Y-40185714D01*
X56257142Y-40233333D01*
X56685714Y-40852380D02*
X56685714Y-40185714D01*
X56685714Y-39852380D02*
X56638095Y-39900000D01*
X56685714Y-39947619D01*
X56733333Y-39900000D01*
X56685714Y-39852380D01*
X56685714Y-39947619D01*
X57161904Y-40852380D02*
X57161904Y-40185714D01*
X57161904Y-40376190D02*
X57209523Y-40280952D01*
X57257142Y-40233333D01*
X57352380Y-40185714D01*
X57447619Y-40185714D01*
X58209523Y-40804761D02*
X58114285Y-40852380D01*
X57923809Y-40852380D01*
X57828571Y-40804761D01*
X57780952Y-40757142D01*
X57733333Y-40661904D01*
X57733333Y-40376190D01*
X57780952Y-40280952D01*
X57828571Y-40233333D01*
X57923809Y-40185714D01*
X58114285Y-40185714D01*
X58209523Y-40233333D01*
X58780952Y-40852380D02*
X58685714Y-40804761D01*
X58638095Y-40709523D01*
X58638095Y-39852380D01*
X59542857Y-40804761D02*
X59447619Y-40852380D01*
X59257142Y-40852380D01*
X59161904Y-40804761D01*
X59114285Y-40709523D01*
X59114285Y-40328571D01*
X59161904Y-40233333D01*
X59257142Y-40185714D01*
X59447619Y-40185714D01*
X59542857Y-40233333D01*
X59590476Y-40328571D01*
X59590476Y-40423809D01*
X59114285Y-40519047D01*
X60019047Y-40471428D02*
X60780952Y-40471428D01*
X61257142Y-40852380D02*
X61257142Y-39852380D01*
X61257142Y-40233333D02*
X61352380Y-40185714D01*
X61542857Y-40185714D01*
X61638095Y-40233333D01*
X61685714Y-40280952D01*
X61733333Y-40376190D01*
X61733333Y-40661904D01*
X61685714Y-40757142D01*
X61638095Y-40804761D01*
X61542857Y-40852380D01*
X61352380Y-40852380D01*
X61257142Y-40804761D01*
X62161904Y-40852380D02*
X62161904Y-40185714D01*
X62161904Y-39852380D02*
X62114285Y-39900000D01*
X62161904Y-39947619D01*
X62209523Y-39900000D01*
X62161904Y-39852380D01*
X62161904Y-39947619D01*
X63066666Y-40185714D02*
X63066666Y-40995238D01*
X63019047Y-41090476D01*
X62971428Y-41138095D01*
X62876190Y-41185714D01*
X62733333Y-41185714D01*
X62638095Y-41138095D01*
X63066666Y-40804761D02*
X62971428Y-40852380D01*
X62780952Y-40852380D01*
X62685714Y-40804761D01*
X62638095Y-40757142D01*
X62590476Y-40661904D01*
X62590476Y-40376190D01*
X62638095Y-40280952D01*
X62685714Y-40233333D01*
X62780952Y-40185714D01*
X62971428Y-40185714D01*
X63066666Y-40233333D01*
X63304761Y-40947619D02*
X64066666Y-40947619D01*
X64209523Y-40185714D02*
X64447619Y-40852380D01*
X64685714Y-40185714D01*
X65590476Y-40852380D02*
X65019047Y-40852380D01*
X65304761Y-40852380D02*
X65304761Y-39852380D01*
X65209523Y-39995238D01*
X65114285Y-40090476D01*
X65019047Y-40138095D01*
X66019047Y-40757142D02*
X66066666Y-40804761D01*
X66019047Y-40852380D01*
X65971428Y-40804761D01*
X66019047Y-40757142D01*
X66019047Y-40852380D01*
X66685714Y-39852380D02*
X66780952Y-39852380D01*
X66876190Y-39900000D01*
X66923809Y-39947619D01*
X66971428Y-40042857D01*
X67019047Y-40233333D01*
X67019047Y-40471428D01*
X66971428Y-40661904D01*
X66923809Y-40757142D01*
X66876190Y-40804761D01*
X66780952Y-40852380D01*
X66685714Y-40852380D01*
X66590476Y-40804761D01*
X66542857Y-40757142D01*
X66495238Y-40661904D01*
X66447619Y-40471428D01*
X66447619Y-40233333D01*
X66495238Y-40042857D01*
X66542857Y-39947619D01*
X66590476Y-39900000D01*
X66685714Y-39852380D01*
X68890476Y-24452380D02*
X68700000Y-24452380D01*
X68604761Y-24500000D01*
X68557142Y-24547619D01*
X68461904Y-24690476D01*
X68414285Y-24880952D01*
X68414285Y-25261904D01*
X68461904Y-25357142D01*
X68509523Y-25404761D01*
X68604761Y-25452380D01*
X68795238Y-25452380D01*
X68890476Y-25404761D01*
X68938095Y-25357142D01*
X68985714Y-25261904D01*
X68985714Y-25023809D01*
X68938095Y-24928571D01*
X68890476Y-24880952D01*
X68795238Y-24833333D01*
X68604761Y-24833333D01*
X68509523Y-24880952D01*
X68461904Y-24928571D01*
X68414285Y-25023809D01*
X35409523Y-43252380D02*
X34838095Y-43252380D01*
X35123809Y-43252380D02*
X35123809Y-42252380D01*
X35028571Y-42395238D01*
X34933333Y-42490476D01*
X34838095Y-42538095D01*
X35790476Y-42347619D02*
X35838095Y-42300000D01*
X35933333Y-42252380D01*
X36171428Y-42252380D01*
X36266666Y-42300000D01*
X36314285Y-42347619D01*
X36361904Y-42442857D01*
X36361904Y-42538095D01*
X36314285Y-42680952D01*
X35742857Y-43252380D01*
X36361904Y-43252380D01*
X60309523Y-43352380D02*
X59738095Y-43352380D01*
X60023809Y-43352380D02*
X60023809Y-42352380D01*
X59928571Y-42495238D01*
X59833333Y-42590476D01*
X59738095Y-42638095D01*
X60928571Y-42352380D02*
X61023809Y-42352380D01*
X61119047Y-42400000D01*
X61166666Y-42447619D01*
X61214285Y-42542857D01*
X61261904Y-42733333D01*
X61261904Y-42971428D01*
X61214285Y-43161904D01*
X61166666Y-43257142D01*
X61119047Y-43304761D01*
X61023809Y-43352380D01*
X60928571Y-43352380D01*
X60833333Y-43304761D01*
X60785714Y-43257142D01*
X60738095Y-43161904D01*
X60690476Y-42971428D01*
X60690476Y-42733333D01*
X60738095Y-42542857D01*
X60785714Y-42447619D01*
X60833333Y-42400000D01*
X60928571Y-42352380D01*
X48009523Y-55852380D02*
X48200000Y-55852380D01*
X48295238Y-55804761D01*
X48342857Y-55757142D01*
X48438095Y-55614285D01*
X48485714Y-55423809D01*
X48485714Y-55042857D01*
X48438095Y-54947619D01*
X48390476Y-54900000D01*
X48295238Y-54852380D01*
X48104761Y-54852380D01*
X48009523Y-54900000D01*
X47961904Y-54947619D01*
X47914285Y-55042857D01*
X47914285Y-55280952D01*
X47961904Y-55376190D01*
X48009523Y-55423809D01*
X48104761Y-55471428D01*
X48295238Y-55471428D01*
X48390476Y-55423809D01*
X48438095Y-55376190D01*
X48485714Y-55280952D01*
X23285714Y-54752380D02*
X22714285Y-54752380D01*
X23000000Y-54752380D02*
X23000000Y-53752380D01*
X22904761Y-53895238D01*
X22809523Y-53990476D01*
X22714285Y-54038095D01*
X26866666Y-24452380D02*
X27485714Y-24452380D01*
X27152380Y-24833333D01*
X27295238Y-24833333D01*
X27390476Y-24880952D01*
X27438095Y-24928571D01*
X27485714Y-25023809D01*
X27485714Y-25261904D01*
X27438095Y-25357142D01*
X27390476Y-25404761D01*
X27295238Y-25452380D01*
X27009523Y-25452380D01*
X26914285Y-25404761D01*
X26866666Y-25357142D01*
%TO.C,D1*%
X22052380Y-62464285D02*
X22052380Y-63035714D01*
X22052380Y-62750000D02*
X21052380Y-62750000D01*
X21195238Y-62845238D01*
X21290476Y-62940476D01*
X21338095Y-63035714D01*
%TO.C,D11*%
X74152380Y-47164285D02*
X74152380Y-47735714D01*
X74152380Y-47450000D02*
X73152380Y-47450000D01*
X73295238Y-47545238D01*
X73390476Y-47640476D01*
X73438095Y-47735714D01*
%TO.C,D7*%
X46952380Y-38564285D02*
X46952380Y-39135714D01*
X46952380Y-38850000D02*
X45952380Y-38850000D01*
X46095238Y-38945238D01*
X46190476Y-39040476D01*
X46238095Y-39135714D01*
%TO.C,D3*%
X46952380Y-63564285D02*
X46952380Y-64135714D01*
X46952380Y-63850000D02*
X45952380Y-63850000D01*
X46095238Y-63945238D01*
X46190476Y-64040476D01*
X46238095Y-64135714D01*
%TO.C,D12*%
X71952380Y-62464285D02*
X71952380Y-63035714D01*
X71952380Y-62750000D02*
X70952380Y-62750000D01*
X71095238Y-62845238D01*
X71190476Y-62940476D01*
X71238095Y-63035714D01*
%TO.C,D10*%
X67652380Y-33164285D02*
X67652380Y-33735714D01*
X67652380Y-33450000D02*
X66652380Y-33450000D01*
X66795238Y-33545238D01*
X66890476Y-33640476D01*
X66938095Y-33735714D01*
%TO.C,D2*%
X19852380Y-47164285D02*
X19852380Y-47735714D01*
X19852380Y-47450000D02*
X18852380Y-47450000D01*
X18995238Y-47545238D01*
X19090476Y-47640476D01*
X19138095Y-47735714D01*
%TO.C,D4*%
X26252380Y-33064285D02*
X26252380Y-33635714D01*
X26252380Y-33350000D02*
X25252380Y-33350000D01*
X25395238Y-33445238D01*
X25490476Y-33540476D01*
X25538095Y-33635714D01*
%TO.C,D5*%
X59352380Y-51064285D02*
X59352380Y-51635714D01*
X59352380Y-51350000D02*
X58352380Y-51350000D01*
X58495238Y-51445238D01*
X58590476Y-51540476D01*
X58638095Y-51635714D01*
%TO.C,D6*%
X39252380Y-24764285D02*
X39252380Y-25335714D01*
X39252380Y-25050000D02*
X38252380Y-25050000D01*
X38395238Y-25145238D01*
X38490476Y-25240476D01*
X38538095Y-25335714D01*
%TO.C,D9*%
X34452380Y-50964285D02*
X34452380Y-51535714D01*
X34452380Y-51250000D02*
X33452380Y-51250000D01*
X33595238Y-51345238D01*
X33690476Y-51440476D01*
X33738095Y-51535714D01*
%TO.C,D8*%
X54652380Y-24764285D02*
X54652380Y-25335714D01*
X54652380Y-25050000D02*
X53652380Y-25050000D01*
X53795238Y-25145238D01*
X53890476Y-25240476D01*
X53938095Y-25335714D01*
D11*
%TO.C,D1*%
X20450000Y-62250000D02*
X20450000Y-54950000D01*
X25950000Y-54950000D02*
X24800000Y-54950000D01*
X25950000Y-62250000D02*
X25950000Y-54950000D01*
%TO.C,D11*%
X78050000Y-46950000D02*
X78050000Y-39650000D01*
X72550000Y-46950000D02*
X72550000Y-39650000D01*
X78050000Y-39650000D02*
X76900000Y-39650000D01*
%TO.C,D7*%
X50850000Y-38350000D02*
X50850000Y-31050000D01*
X45350000Y-38350000D02*
X45350000Y-31050000D01*
X50850000Y-31050000D02*
X49700000Y-31050000D01*
%TO.C,D3*%
X50850000Y-63350000D02*
X50850000Y-56050000D01*
X45350000Y-63350000D02*
X45350000Y-56050000D01*
X50850000Y-56050000D02*
X49700000Y-56050000D01*
%TO.C,D12*%
X70350000Y-62250000D02*
X70350000Y-54950000D01*
X75850000Y-54950000D02*
X74700000Y-54950000D01*
X75850000Y-62250000D02*
X75850000Y-54950000D01*
%TO.C,D10*%
X66050000Y-32950000D02*
X66050000Y-25650000D01*
X71550000Y-25650000D02*
X70400000Y-25650000D01*
X71550000Y-32950000D02*
X71550000Y-25650000D01*
%TO.C,R2*%
X39062742Y-57577500D02*
X39537258Y-57577500D01*
X39062742Y-58622500D02*
X39537258Y-58622500D01*
%TO.C,D2*%
X23750000Y-39650000D02*
X22600000Y-39650000D01*
X23750000Y-46950000D02*
X23750000Y-39650000D01*
X18250000Y-46950000D02*
X18250000Y-39650000D01*
%TO.C,J2*%
X41355000Y-59570000D02*
X41355000Y-62230000D01*
X41355000Y-59570000D02*
X36215000Y-59570000D01*
X42625000Y-59570000D02*
X43955000Y-59570000D01*
X43955000Y-59570000D02*
X43955000Y-60900000D01*
X36215000Y-59570000D02*
X36215000Y-62230000D01*
X41355000Y-62230000D02*
X36215000Y-62230000D01*
%TO.C,C1*%
X28759420Y-57210000D02*
X29040580Y-57210000D01*
X28759420Y-56190000D02*
X29040580Y-56190000D01*
%TO.C,R1*%
X30877500Y-56837258D02*
X30877500Y-56362742D01*
X31922500Y-56837258D02*
X31922500Y-56362742D01*
%TO.C,D4*%
X30150000Y-25550000D02*
X29000000Y-25550000D01*
X24650000Y-32850000D02*
X24650000Y-25550000D01*
X30150000Y-32850000D02*
X30150000Y-25550000D01*
%TO.C,D5*%
X57750000Y-50850000D02*
X57750000Y-43550000D01*
X63250000Y-50850000D02*
X63250000Y-43550000D01*
X63250000Y-43550000D02*
X62100000Y-43550000D01*
%TO.C,C2*%
X28892164Y-58460000D02*
X29107836Y-58460000D01*
X28892164Y-57740000D02*
X29107836Y-57740000D01*
%TO.C,D6*%
X43150000Y-24550000D02*
X43150000Y-17250000D01*
X37650000Y-24550000D02*
X37650000Y-17250000D01*
X43150000Y-17250000D02*
X42000000Y-17250000D01*
%TO.C,D9*%
X38350000Y-50750000D02*
X38350000Y-43450000D01*
X32850000Y-50750000D02*
X32850000Y-43450000D01*
X38350000Y-43450000D02*
X37200000Y-43450000D01*
%TO.C,J1*%
X32245000Y-59170000D02*
X27105000Y-59170000D01*
X33515000Y-59170000D02*
X34845000Y-59170000D01*
X32245000Y-61830000D02*
X27105000Y-61830000D01*
X27105000Y-59170000D02*
X27105000Y-61830000D01*
X32245000Y-59170000D02*
X32245000Y-61830000D01*
X34845000Y-59170000D02*
X34845000Y-60500000D01*
%TO.C,D8*%
X58550000Y-24550000D02*
X58550000Y-17250000D01*
X53050000Y-24550000D02*
X53050000Y-17250000D01*
X58550000Y-17250000D02*
X57400000Y-17250000D01*
%TD*%
%LPC*%
D12*
%TO.C,D1*%
X21600000Y-61050000D03*
X24800000Y-61050000D03*
X24800000Y-56150000D03*
X21600000Y-56150000D03*
%TD*%
%TO.C,D11*%
X73700000Y-45750000D03*
X76900000Y-45750000D03*
X76900000Y-40850000D03*
X73700000Y-40850000D03*
%TD*%
%TO.C,D7*%
X46500000Y-37150000D03*
X49700000Y-37150000D03*
X49700000Y-32250000D03*
X46500000Y-32250000D03*
%TD*%
%TO.C,D3*%
X46500000Y-62150000D03*
X49700000Y-62150000D03*
X49700000Y-57250000D03*
X46500000Y-57250000D03*
%TD*%
%TO.C,D12*%
X71500000Y-61050000D03*
X74700000Y-61050000D03*
X74700000Y-56150000D03*
X71500000Y-56150000D03*
%TD*%
%TO.C,D10*%
X67200000Y-31750000D03*
X70400000Y-31750000D03*
X70400000Y-26850000D03*
X67200000Y-26850000D03*
%TD*%
D13*
%TO.C,R2*%
X38475000Y-58100000D03*
X40125000Y-58100000D03*
%TD*%
D12*
%TO.C,D2*%
X19400000Y-45750000D03*
X22600000Y-45750000D03*
X22600000Y-40850000D03*
X19400000Y-40850000D03*
%TD*%
D14*
%TO.C,J2*%
X42625000Y-60900000D03*
D15*
X40085000Y-60900000D03*
X37545000Y-60900000D03*
%TD*%
D16*
%TO.C,C1*%
X28125000Y-56700000D03*
X29675000Y-56700000D03*
%TD*%
D17*
%TO.C,R1*%
X31400000Y-57425000D03*
X31400000Y-55775000D03*
%TD*%
D18*
%TO.C,H1*%
X55707999Y-58700000D03*
%TD*%
%TO.C,H3*%
X60600000Y-30300000D03*
%TD*%
D12*
%TO.C,D4*%
X25800000Y-31650000D03*
X29000000Y-31650000D03*
X29000000Y-26750000D03*
X25800000Y-26750000D03*
%TD*%
%TO.C,D5*%
X58900000Y-49650000D03*
X62100000Y-49650000D03*
X62100000Y-44750000D03*
X58900000Y-44750000D03*
%TD*%
D19*
%TO.C,C2*%
X28520000Y-58100000D03*
X29480000Y-58100000D03*
%TD*%
D12*
%TO.C,D6*%
X38800000Y-23350000D03*
X42000000Y-23350000D03*
X42000000Y-18450000D03*
X38800000Y-18450000D03*
%TD*%
%TO.C,D9*%
X34000000Y-49550000D03*
X37200000Y-49550000D03*
X37200000Y-44650000D03*
X34000000Y-44650000D03*
%TD*%
D14*
%TO.C,J1*%
X33515000Y-60500000D03*
D15*
X30975000Y-60500000D03*
X28435000Y-60500000D03*
%TD*%
D12*
%TO.C,D8*%
X54200000Y-23350000D03*
X57400000Y-23350000D03*
X57400000Y-18450000D03*
X54200000Y-18450000D03*
%TD*%
D18*
%TO.C,H2*%
X35700000Y-30300000D03*
%TD*%
M02*
