M48
; DRILL file {KiCad 6.0.4-6f826c9f35~116~ubuntu20.04.1} date Fri 29 Apr 2022 09:32:24 PM MDT
; FORMAT={-:-/ absolute / metric / decimal}
; #@! TF.CreationDate,2022-04-29T21:32:24-06:00
; #@! TF.GenerationSoftware,Kicad,Pcbnew,6.0.4-6f826c9f35~116~ubuntu20.04.1
; #@! TF.FileFunction,Plated,1,2,PTH
FMAT,2
METRIC
; #@! TA.AperFunction,Plated,PTH,ViaDrill
T1C0.400
; #@! TA.AperFunction,Plated,PTH,ComponentDrill
T2C1.000
%
G90
G05
T1
X19.5Y-47.5
X20.0Y-56.0
X20.7Y-37.7
X22.7Y-39.3
X24.5Y-34.7
X24.7Y-54.5
X25.8Y-47.5
X25.8Y-51.1
X26.5Y-58.1
X27.5Y-39.4
X27.5Y-46.1
X27.5Y-54.525
X28.3Y-25.0
X29.8Y-55.5
X32.8Y-57.4
X34.0Y-51.1
X34.8Y-20.6
X37.2Y-46.1
X38.4Y-25.0
X41.3Y-28.4
X42.0Y-20.6
X44.1Y-38.4
X46.5Y-51.1
X49.8Y-46.1
X50.9Y-62.8
X51.5Y-18.4
X52.3Y-35.5
X54.1Y-24.9
X57.4Y-20.6
X57.9Y-51.1
X59.4Y-60.7
X60.7Y-19.7
X60.8Y-46.1
X63.9Y-26.4
X64.9Y-48.4
X67.2Y-51.1
X67.5Y-60.4
X69.2Y-46.1
X69.9Y-51.1
X71.7Y-48.9
X72.0Y-52.8
X73.5Y-51.1
X74.7Y-35.8
X75.6Y-44.6
T2
X28.435Y-60.5
X30.975Y-60.5
X33.515Y-60.5
X37.545Y-60.9
X40.085Y-60.9
X42.625Y-60.9
T0
M30
