%TF.GenerationSoftware,KiCad,Pcbnew,6.0.4-6f826c9f35~116~ubuntu20.04.1*%
%TF.CreationDate,2022-04-29T21:32:22-06:00*%
%TF.ProjectId,circle-big,63697263-6c65-42d6-9269-672e6b696361,rev?*%
%TF.SameCoordinates,Original*%
%TF.FileFunction,Soldermask,Top*%
%TF.FilePolarity,Negative*%
%FSLAX46Y46*%
G04 Gerber Fmt 4.6, Leading zero omitted, Abs format (unit mm)*
G04 Created by KiCad (PCBNEW 6.0.4-6f826c9f35~116~ubuntu20.04.1) date 2022-04-29 21:32:22*
%MOMM*%
%LPD*%
G01*
G04 APERTURE LIST*
G04 Aperture macros list*
%AMRoundRect*
0 Rectangle with rounded corners*
0 $1 Rounding radius*
0 $2 $3 $4 $5 $6 $7 $8 $9 X,Y pos of 4 corners*
0 Add a 4 corners polygon primitive as box body*
4,1,4,$2,$3,$4,$5,$6,$7,$8,$9,$2,$3,0*
0 Add four circle primitives for the rounded corners*
1,1,$1+$1,$2,$3*
1,1,$1+$1,$4,$5*
1,1,$1+$1,$6,$7*
1,1,$1+$1,$8,$9*
0 Add four rect primitives between the rounded corners*
20,1,$1+$1,$2,$3,$4,$5,0*
20,1,$1+$1,$4,$5,$6,$7,0*
20,1,$1+$1,$6,$7,$8,$9,0*
20,1,$1+$1,$8,$9,$2,$3,0*%
G04 Aperture macros list end*
%ADD10R,1.000000X1.500000*%
%ADD11RoundRect,0.200000X-0.200000X-0.275000X0.200000X-0.275000X0.200000X0.275000X-0.200000X0.275000X0*%
%ADD12R,1.700000X1.700000*%
%ADD13O,1.700000X1.700000*%
%ADD14RoundRect,0.225000X-0.225000X-0.250000X0.225000X-0.250000X0.225000X0.250000X-0.225000X0.250000X0*%
%ADD15RoundRect,0.200000X0.275000X-0.200000X0.275000X0.200000X-0.275000X0.200000X-0.275000X-0.200000X0*%
%ADD16C,3.200000*%
%ADD17RoundRect,0.140000X-0.140000X-0.170000X0.140000X-0.170000X0.140000X0.170000X-0.140000X0.170000X0*%
G04 APERTURE END LIST*
D10*
%TO.C,D1*%
X21600000Y-61050000D03*
X24800000Y-61050000D03*
X24800000Y-56150000D03*
X21600000Y-56150000D03*
%TD*%
%TO.C,D11*%
X73700000Y-45750000D03*
X76900000Y-45750000D03*
X76900000Y-40850000D03*
X73700000Y-40850000D03*
%TD*%
%TO.C,D7*%
X46500000Y-37150000D03*
X49700000Y-37150000D03*
X49700000Y-32250000D03*
X46500000Y-32250000D03*
%TD*%
%TO.C,D3*%
X46500000Y-62150000D03*
X49700000Y-62150000D03*
X49700000Y-57250000D03*
X46500000Y-57250000D03*
%TD*%
%TO.C,D12*%
X71500000Y-61050000D03*
X74700000Y-61050000D03*
X74700000Y-56150000D03*
X71500000Y-56150000D03*
%TD*%
%TO.C,D10*%
X67200000Y-31750000D03*
X70400000Y-31750000D03*
X70400000Y-26850000D03*
X67200000Y-26850000D03*
%TD*%
D11*
%TO.C,R2*%
X38475000Y-58100000D03*
X40125000Y-58100000D03*
%TD*%
D10*
%TO.C,D2*%
X19400000Y-45750000D03*
X22600000Y-45750000D03*
X22600000Y-40850000D03*
X19400000Y-40850000D03*
%TD*%
D12*
%TO.C,J2*%
X42625000Y-60900000D03*
D13*
X40085000Y-60900000D03*
X37545000Y-60900000D03*
%TD*%
D14*
%TO.C,C1*%
X28125000Y-56700000D03*
X29675000Y-56700000D03*
%TD*%
D15*
%TO.C,R1*%
X31400000Y-57425000D03*
X31400000Y-55775000D03*
%TD*%
D16*
%TO.C,H1*%
X55707999Y-58700000D03*
%TD*%
%TO.C,H3*%
X60600000Y-30300000D03*
%TD*%
D10*
%TO.C,D4*%
X25800000Y-31650000D03*
X29000000Y-31650000D03*
X29000000Y-26750000D03*
X25800000Y-26750000D03*
%TD*%
%TO.C,D5*%
X58900000Y-49650000D03*
X62100000Y-49650000D03*
X62100000Y-44750000D03*
X58900000Y-44750000D03*
%TD*%
D17*
%TO.C,C2*%
X28520000Y-58100000D03*
X29480000Y-58100000D03*
%TD*%
D10*
%TO.C,D6*%
X38800000Y-23350000D03*
X42000000Y-23350000D03*
X42000000Y-18450000D03*
X38800000Y-18450000D03*
%TD*%
%TO.C,D9*%
X34000000Y-49550000D03*
X37200000Y-49550000D03*
X37200000Y-44650000D03*
X34000000Y-44650000D03*
%TD*%
D12*
%TO.C,J1*%
X33515000Y-60500000D03*
D13*
X30975000Y-60500000D03*
X28435000Y-60500000D03*
%TD*%
D10*
%TO.C,D8*%
X54200000Y-23350000D03*
X57400000Y-23350000D03*
X57400000Y-18450000D03*
X54200000Y-18450000D03*
%TD*%
D16*
%TO.C,H2*%
X35700000Y-30300000D03*
%TD*%
M02*
