%FSLAX45Y45*%
G04 Gerber Fmt 4.5, Leading zero omitted, Abs format (unit mm)*
G04 Created by KiCad (PCBNEW 6.0.4-6f826c9f35~116~ubuntu20.04.1) date 2022-04-29 21:32:25*
%MOMM*%
%LPD*%
G01*
G04 APERTURE LIST*
%TA.AperFunction,Profile*%
%ADD10C,0.100000*%
%TD*%
%ADD11C,0.200000*%
%ADD12C,0.320000*%
G04 APERTURE END LIST*
D10*
X1780000Y-4690000D02*
X1780000Y-3890000D01*
X2440000Y-2510000D02*
X3760000Y-1680000D01*
X2000000Y-6250000D02*
X1780000Y-4690000D01*
X3760000Y-1680000D02*
X5860000Y-1680000D01*
X1780000Y-3890000D02*
X2440000Y-2510000D01*
X7840000Y-4690000D02*
X7620000Y-6250000D01*
X5860000Y-1680000D02*
X7180000Y-2510000D01*
X7180000Y-2510000D02*
X7840000Y-3890000D01*
X4810000Y-6380000D02*
X7620000Y-6250000D01*
X7840000Y-3890000D02*
X7840000Y-4690000D01*
X2000000Y-6250000D02*
X4810000Y-6380000D01*
D11*
D12*
X3410000Y-2870000D02*
X3730000Y-3190000D01*
X3730000Y-2870000D02*
X3410000Y-3190000D01*
X5410800Y-5710000D02*
X5730800Y-6030000D01*
X5730800Y-5710000D02*
X5410800Y-6030000D01*
X5900000Y-2870000D02*
X6220000Y-3190000D01*
X6220000Y-2870000D02*
X5900000Y-3190000D01*
D11*
X2032619Y-6695476D02*
X2032619Y-6495476D01*
X2080238Y-6495476D01*
X2108810Y-6505000D01*
X2127857Y-6524048D01*
X2137381Y-6543095D01*
X2146905Y-6581190D01*
X2146905Y-6609762D01*
X2137381Y-6647857D01*
X2127857Y-6666905D01*
X2108810Y-6685952D01*
X2080238Y-6695476D01*
X2032619Y-6695476D01*
X2232619Y-6695476D02*
X2232619Y-6562143D01*
X2232619Y-6600238D02*
X2242143Y-6581190D01*
X2251667Y-6571667D01*
X2270714Y-6562143D01*
X2289762Y-6562143D01*
X2356429Y-6695476D02*
X2356429Y-6562143D01*
X2356429Y-6495476D02*
X2346905Y-6505000D01*
X2356429Y-6514524D01*
X2365952Y-6505000D01*
X2356429Y-6495476D01*
X2356429Y-6514524D01*
X2480238Y-6695476D02*
X2461190Y-6685952D01*
X2451667Y-6666905D01*
X2451667Y-6495476D01*
X2585000Y-6695476D02*
X2565952Y-6685952D01*
X2556429Y-6666905D01*
X2556429Y-6495476D01*
X2813571Y-6695476D02*
X2813571Y-6495476D01*
X2880238Y-6638333D01*
X2946905Y-6495476D01*
X2946905Y-6695476D01*
X3127857Y-6695476D02*
X3127857Y-6590714D01*
X3118333Y-6571667D01*
X3099286Y-6562143D01*
X3061190Y-6562143D01*
X3042143Y-6571667D01*
X3127857Y-6685952D02*
X3108809Y-6695476D01*
X3061190Y-6695476D01*
X3042143Y-6685952D01*
X3032619Y-6666905D01*
X3032619Y-6647857D01*
X3042143Y-6628809D01*
X3061190Y-6619286D01*
X3108809Y-6619286D01*
X3127857Y-6609762D01*
X3223095Y-6562143D02*
X3223095Y-6762143D01*
X3223095Y-6571667D02*
X3242143Y-6562143D01*
X3280238Y-6562143D01*
X3299286Y-6571667D01*
X3308809Y-6581190D01*
X3318333Y-6600238D01*
X3318333Y-6657381D01*
X3308809Y-6676428D01*
X3299286Y-6685952D01*
X3280238Y-6695476D01*
X3242143Y-6695476D01*
X3223095Y-6685952D01*
X3404048Y-6676428D02*
X3413571Y-6685952D01*
X3404048Y-6695476D01*
X3394524Y-6685952D01*
X3404048Y-6676428D01*
X3404048Y-6695476D01*
X3404048Y-6571667D02*
X3413571Y-6581190D01*
X3404048Y-6590714D01*
X3394524Y-6581190D01*
X3404048Y-6571667D01*
X3404048Y-6590714D01*
X1575000Y-6925000D02*
X1775000Y-7125000D01*
X1775000Y-6925000D02*
X1575000Y-7125000D01*
X2013571Y-6915476D02*
X2137381Y-6915476D01*
X2070714Y-6991667D01*
X2099286Y-6991667D01*
X2118333Y-7001190D01*
X2127857Y-7010714D01*
X2137381Y-7029762D01*
X2137381Y-7077381D01*
X2127857Y-7096428D01*
X2118333Y-7105952D01*
X2099286Y-7115476D01*
X2042143Y-7115476D01*
X2023095Y-7105952D01*
X2013571Y-7096428D01*
X2223095Y-7096428D02*
X2232619Y-7105952D01*
X2223095Y-7115476D01*
X2213571Y-7105952D01*
X2223095Y-7096428D01*
X2223095Y-7115476D01*
X2308810Y-6934524D02*
X2318333Y-6925000D01*
X2337381Y-6915476D01*
X2385000Y-6915476D01*
X2404048Y-6925000D01*
X2413571Y-6934524D01*
X2423095Y-6953571D01*
X2423095Y-6972619D01*
X2413571Y-7001190D01*
X2299286Y-7115476D01*
X2423095Y-7115476D01*
X2546905Y-6915476D02*
X2565952Y-6915476D01*
X2585000Y-6925000D01*
X2594524Y-6934524D01*
X2604048Y-6953571D01*
X2613571Y-6991667D01*
X2613571Y-7039286D01*
X2604048Y-7077381D01*
X2594524Y-7096428D01*
X2585000Y-7105952D01*
X2565952Y-7115476D01*
X2546905Y-7115476D01*
X2527857Y-7105952D01*
X2518333Y-7096428D01*
X2508810Y-7077381D01*
X2499286Y-7039286D01*
X2499286Y-6991667D01*
X2508810Y-6953571D01*
X2518333Y-6934524D01*
X2527857Y-6925000D01*
X2546905Y-6915476D01*
X2737381Y-6915476D02*
X2756429Y-6915476D01*
X2775476Y-6925000D01*
X2785000Y-6934524D01*
X2794524Y-6953571D01*
X2804048Y-6991667D01*
X2804048Y-7039286D01*
X2794524Y-7077381D01*
X2785000Y-7096428D01*
X2775476Y-7105952D01*
X2756429Y-7115476D01*
X2737381Y-7115476D01*
X2718333Y-7105952D01*
X2708810Y-7096428D01*
X2699286Y-7077381D01*
X2689762Y-7039286D01*
X2689762Y-6991667D01*
X2699286Y-6953571D01*
X2708810Y-6934524D01*
X2718333Y-6925000D01*
X2737381Y-6915476D01*
X2889762Y-7115476D02*
X2889762Y-6982143D01*
X2889762Y-7001190D02*
X2899286Y-6991667D01*
X2918333Y-6982143D01*
X2946905Y-6982143D01*
X2965952Y-6991667D01*
X2975476Y-7010714D01*
X2975476Y-7115476D01*
X2975476Y-7010714D02*
X2985000Y-6991667D01*
X3004048Y-6982143D01*
X3032619Y-6982143D01*
X3051667Y-6991667D01*
X3061190Y-7010714D01*
X3061190Y-7115476D01*
X3156428Y-7115476D02*
X3156428Y-6982143D01*
X3156428Y-7001190D02*
X3165952Y-6991667D01*
X3185000Y-6982143D01*
X3213571Y-6982143D01*
X3232619Y-6991667D01*
X3242143Y-7010714D01*
X3242143Y-7115476D01*
X3242143Y-7010714D02*
X3251667Y-6991667D01*
X3270714Y-6982143D01*
X3299286Y-6982143D01*
X3318333Y-6991667D01*
X3327857Y-7010714D01*
X3327857Y-7115476D01*
X3718333Y-6905952D02*
X3546905Y-7163095D01*
X3975476Y-6915476D02*
X3994524Y-6915476D01*
X4013571Y-6925000D01*
X4023095Y-6934524D01*
X4032619Y-6953571D01*
X4042143Y-6991667D01*
X4042143Y-7039286D01*
X4032619Y-7077381D01*
X4023095Y-7096428D01*
X4013571Y-7105952D01*
X3994524Y-7115476D01*
X3975476Y-7115476D01*
X3956428Y-7105952D01*
X3946905Y-7096428D01*
X3937381Y-7077381D01*
X3927857Y-7039286D01*
X3927857Y-6991667D01*
X3937381Y-6953571D01*
X3946905Y-6934524D01*
X3956428Y-6925000D01*
X3975476Y-6915476D01*
X4127857Y-7096428D02*
X4137381Y-7105952D01*
X4127857Y-7115476D01*
X4118333Y-7105952D01*
X4127857Y-7096428D01*
X4127857Y-7115476D01*
X4327857Y-7115476D02*
X4213571Y-7115476D01*
X4270714Y-7115476D02*
X4270714Y-6915476D01*
X4251667Y-6944048D01*
X4232619Y-6963095D01*
X4213571Y-6972619D01*
X4404048Y-6934524D02*
X4413571Y-6925000D01*
X4432619Y-6915476D01*
X4480238Y-6915476D01*
X4499286Y-6925000D01*
X4508810Y-6934524D01*
X4518333Y-6953571D01*
X4518333Y-6972619D01*
X4508810Y-7001190D01*
X4394524Y-7115476D01*
X4518333Y-7115476D01*
X4689762Y-6915476D02*
X4651667Y-6915476D01*
X4632619Y-6925000D01*
X4623095Y-6934524D01*
X4604048Y-6963095D01*
X4594524Y-7001190D01*
X4594524Y-7077381D01*
X4604048Y-7096428D01*
X4613571Y-7105952D01*
X4632619Y-7115476D01*
X4670714Y-7115476D01*
X4689762Y-7105952D01*
X4699286Y-7096428D01*
X4708810Y-7077381D01*
X4708810Y-7029762D01*
X4699286Y-7010714D01*
X4689762Y-7001190D01*
X4670714Y-6991667D01*
X4632619Y-6991667D01*
X4613571Y-7001190D01*
X4604048Y-7010714D01*
X4594524Y-7029762D01*
X4832619Y-6915476D02*
X4851667Y-6915476D01*
X4870714Y-6925000D01*
X4880238Y-6934524D01*
X4889762Y-6953571D01*
X4899286Y-6991667D01*
X4899286Y-7039286D01*
X4889762Y-7077381D01*
X4880238Y-7096428D01*
X4870714Y-7105952D01*
X4851667Y-7115476D01*
X4832619Y-7115476D01*
X4813571Y-7105952D01*
X4804048Y-7096428D01*
X4794524Y-7077381D01*
X4785000Y-7039286D01*
X4785000Y-6991667D01*
X4794524Y-6953571D01*
X4804048Y-6934524D01*
X4813571Y-6925000D01*
X4832619Y-6915476D01*
X4975476Y-6915476D02*
X4975476Y-6953571D01*
X5051667Y-6915476D02*
X5051667Y-6953571D01*
X5346905Y-7191667D02*
X5337381Y-7182143D01*
X5318333Y-7153571D01*
X5308810Y-7134524D01*
X5299286Y-7105952D01*
X5289762Y-7058333D01*
X5289762Y-7020238D01*
X5299286Y-6972619D01*
X5308810Y-6944048D01*
X5318333Y-6925000D01*
X5337381Y-6896428D01*
X5346905Y-6886905D01*
X5404048Y-6915476D02*
X5527857Y-6915476D01*
X5461190Y-6991667D01*
X5489762Y-6991667D01*
X5508810Y-7001190D01*
X5518333Y-7010714D01*
X5527857Y-7029762D01*
X5527857Y-7077381D01*
X5518333Y-7096428D01*
X5508810Y-7105952D01*
X5489762Y-7115476D01*
X5432619Y-7115476D01*
X5413571Y-7105952D01*
X5404048Y-7096428D01*
X5765952Y-7115476D02*
X5765952Y-6915476D01*
X5851667Y-7115476D02*
X5851667Y-7010714D01*
X5842143Y-6991667D01*
X5823095Y-6982143D01*
X5794524Y-6982143D01*
X5775476Y-6991667D01*
X5765952Y-7001190D01*
X5975476Y-7115476D02*
X5956428Y-7105952D01*
X5946905Y-7096428D01*
X5937381Y-7077381D01*
X5937381Y-7020238D01*
X5946905Y-7001190D01*
X5956428Y-6991667D01*
X5975476Y-6982143D01*
X6004048Y-6982143D01*
X6023095Y-6991667D01*
X6032619Y-7001190D01*
X6042143Y-7020238D01*
X6042143Y-7077381D01*
X6032619Y-7096428D01*
X6023095Y-7105952D01*
X6004048Y-7115476D01*
X5975476Y-7115476D01*
X6156428Y-7115476D02*
X6137381Y-7105952D01*
X6127857Y-7086905D01*
X6127857Y-6915476D01*
X6308809Y-7105952D02*
X6289762Y-7115476D01*
X6251667Y-7115476D01*
X6232619Y-7105952D01*
X6223095Y-7086905D01*
X6223095Y-7010714D01*
X6232619Y-6991667D01*
X6251667Y-6982143D01*
X6289762Y-6982143D01*
X6308809Y-6991667D01*
X6318333Y-7010714D01*
X6318333Y-7029762D01*
X6223095Y-7048809D01*
X6394524Y-7105952D02*
X6413571Y-7115476D01*
X6451667Y-7115476D01*
X6470714Y-7105952D01*
X6480238Y-7086905D01*
X6480238Y-7077381D01*
X6470714Y-7058333D01*
X6451667Y-7048809D01*
X6423095Y-7048809D01*
X6404048Y-7039286D01*
X6394524Y-7020238D01*
X6394524Y-7010714D01*
X6404048Y-6991667D01*
X6423095Y-6982143D01*
X6451667Y-6982143D01*
X6470714Y-6991667D01*
X6546905Y-7191667D02*
X6556428Y-7182143D01*
X6575476Y-7153571D01*
X6585000Y-7134524D01*
X6594524Y-7105952D01*
X6604048Y-7058333D01*
X6604048Y-7020238D01*
X6594524Y-6972619D01*
X6585000Y-6944048D01*
X6575476Y-6925000D01*
X6556428Y-6896428D01*
X6546905Y-6886905D01*
X6908809Y-7191667D02*
X6899286Y-7182143D01*
X6880238Y-7153571D01*
X6870714Y-7134524D01*
X6861190Y-7105952D01*
X6851667Y-7058333D01*
X6851667Y-7020238D01*
X6861190Y-6972619D01*
X6870714Y-6944048D01*
X6880238Y-6925000D01*
X6899286Y-6896428D01*
X6908809Y-6886905D01*
X6985000Y-6982143D02*
X6985000Y-7115476D01*
X6985000Y-7001190D02*
X6994524Y-6991667D01*
X7013571Y-6982143D01*
X7042143Y-6982143D01*
X7061190Y-6991667D01*
X7070714Y-7010714D01*
X7070714Y-7115476D01*
X7194524Y-7115476D02*
X7175476Y-7105952D01*
X7165952Y-7096428D01*
X7156428Y-7077381D01*
X7156428Y-7020238D01*
X7165952Y-7001190D01*
X7175476Y-6991667D01*
X7194524Y-6982143D01*
X7223095Y-6982143D01*
X7242143Y-6991667D01*
X7251667Y-7001190D01*
X7261190Y-7020238D01*
X7261190Y-7077381D01*
X7251667Y-7096428D01*
X7242143Y-7105952D01*
X7223095Y-7115476D01*
X7194524Y-7115476D01*
X7318333Y-6982143D02*
X7394524Y-6982143D01*
X7346905Y-6915476D02*
X7346905Y-7086905D01*
X7356428Y-7105952D01*
X7375476Y-7115476D01*
X7394524Y-7115476D01*
X7613571Y-6982143D02*
X7613571Y-7182143D01*
X7613571Y-6991667D02*
X7632619Y-6982143D01*
X7670714Y-6982143D01*
X7689762Y-6991667D01*
X7699286Y-7001190D01*
X7708809Y-7020238D01*
X7708809Y-7077381D01*
X7699286Y-7096428D01*
X7689762Y-7105952D01*
X7670714Y-7115476D01*
X7632619Y-7115476D01*
X7613571Y-7105952D01*
X7823095Y-7115476D02*
X7804048Y-7105952D01*
X7794524Y-7086905D01*
X7794524Y-6915476D01*
X7985000Y-7115476D02*
X7985000Y-7010714D01*
X7975476Y-6991667D01*
X7956428Y-6982143D01*
X7918333Y-6982143D01*
X7899286Y-6991667D01*
X7985000Y-7105952D02*
X7965952Y-7115476D01*
X7918333Y-7115476D01*
X7899286Y-7105952D01*
X7889762Y-7086905D01*
X7889762Y-7067857D01*
X7899286Y-7048809D01*
X7918333Y-7039286D01*
X7965952Y-7039286D01*
X7985000Y-7029762D01*
X8051667Y-6982143D02*
X8127857Y-6982143D01*
X8080238Y-6915476D02*
X8080238Y-7086905D01*
X8089762Y-7105952D01*
X8108809Y-7115476D01*
X8127857Y-7115476D01*
X8270714Y-7105952D02*
X8251667Y-7115476D01*
X8213571Y-7115476D01*
X8194524Y-7105952D01*
X8185000Y-7086905D01*
X8185000Y-7010714D01*
X8194524Y-6991667D01*
X8213571Y-6982143D01*
X8251667Y-6982143D01*
X8270714Y-6991667D01*
X8280238Y-7010714D01*
X8280238Y-7029762D01*
X8185000Y-7048809D01*
X8451667Y-7115476D02*
X8451667Y-6915476D01*
X8451667Y-7105952D02*
X8432619Y-7115476D01*
X8394524Y-7115476D01*
X8375476Y-7105952D01*
X8365952Y-7096428D01*
X8356428Y-7077381D01*
X8356428Y-7020238D01*
X8365952Y-7001190D01*
X8375476Y-6991667D01*
X8394524Y-6982143D01*
X8432619Y-6982143D01*
X8451667Y-6991667D01*
X8527857Y-7191667D02*
X8537381Y-7182143D01*
X8556429Y-7153571D01*
X8565952Y-7134524D01*
X8575476Y-7105952D01*
X8585000Y-7058333D01*
X8585000Y-7020238D01*
X8575476Y-6972619D01*
X8565952Y-6944048D01*
X8556429Y-6925000D01*
X8537381Y-6896428D01*
X8527857Y-6886905D01*
M02*
