%TF.GenerationSoftware,KiCad,Pcbnew,6.0.4-6f826c9f35~116~ubuntu20.04.1*%
%TF.CreationDate,2022-04-29T21:32:22-06:00*%
%TF.ProjectId,circle-big,63697263-6c65-42d6-9269-672e6b696361,rev?*%
%TF.SameCoordinates,Original*%
%TF.FileFunction,Legend,Bot*%
%TF.FilePolarity,Positive*%
%FSLAX46Y46*%
G04 Gerber Fmt 4.6, Leading zero omitted, Abs format (unit mm)*
G04 Created by KiCad (PCBNEW 6.0.4-6f826c9f35~116~ubuntu20.04.1) date 2022-04-29 21:32:22*
%MOMM*%
%LPD*%
G01*
G04 APERTURE LIST*
%ADD10C,0.150000*%
%ADD11R,1.700000X1.700000*%
%ADD12O,1.700000X1.700000*%
%ADD13C,3.200000*%
G04 APERTURE END LIST*
D10*
X39620238Y-59133333D02*
X39572619Y-58990476D01*
X39572619Y-58752380D01*
X39620238Y-58657142D01*
X39667857Y-58609523D01*
X39763095Y-58561904D01*
X39858333Y-58561904D01*
X39953571Y-58609523D01*
X40001190Y-58657142D01*
X40048809Y-58752380D01*
X40096428Y-58942857D01*
X40144047Y-59038095D01*
X40191666Y-59085714D01*
X40286904Y-59133333D01*
X40382142Y-59133333D01*
X40477380Y-59085714D01*
X40525000Y-59038095D01*
X40572619Y-58942857D01*
X40572619Y-58704761D01*
X40525000Y-58561904D01*
X39572619Y-58133333D02*
X40572619Y-58133333D01*
X40525000Y-57133333D02*
X40572619Y-57228571D01*
X40572619Y-57371428D01*
X40525000Y-57514285D01*
X40429761Y-57609523D01*
X40334523Y-57657142D01*
X40144047Y-57704761D01*
X40001190Y-57704761D01*
X39810714Y-57657142D01*
X39715476Y-57609523D01*
X39620238Y-57514285D01*
X39572619Y-57371428D01*
X39572619Y-57276190D01*
X39620238Y-57133333D01*
X39667857Y-57085714D01*
X40001190Y-57085714D01*
X40001190Y-57276190D01*
X39477380Y-56895238D02*
X39477380Y-56133333D01*
X40572619Y-55704761D02*
X40572619Y-55514285D01*
X40525000Y-55419047D01*
X40429761Y-55323809D01*
X40239285Y-55276190D01*
X39905952Y-55276190D01*
X39715476Y-55323809D01*
X39620238Y-55419047D01*
X39572619Y-55514285D01*
X39572619Y-55704761D01*
X39620238Y-55800000D01*
X39715476Y-55895238D01*
X39905952Y-55942857D01*
X40239285Y-55942857D01*
X40429761Y-55895238D01*
X40525000Y-55800000D01*
X40572619Y-55704761D01*
X40572619Y-54847619D02*
X39763095Y-54847619D01*
X39667857Y-54800000D01*
X39620238Y-54752380D01*
X39572619Y-54657142D01*
X39572619Y-54466666D01*
X39620238Y-54371428D01*
X39667857Y-54323809D01*
X39763095Y-54276190D01*
X40572619Y-54276190D01*
X40572619Y-53942857D02*
X40572619Y-53371428D01*
X39572619Y-53657142D02*
X40572619Y-53657142D01*
X31404761Y-54133333D02*
X31452380Y-54276190D01*
X31452380Y-54514285D01*
X31404761Y-54609523D01*
X31357142Y-54657142D01*
X31261904Y-54704761D01*
X31166666Y-54704761D01*
X31071428Y-54657142D01*
X31023809Y-54609523D01*
X30976190Y-54514285D01*
X30928571Y-54323809D01*
X30880952Y-54228571D01*
X30833333Y-54180952D01*
X30738095Y-54133333D01*
X30642857Y-54133333D01*
X30547619Y-54180952D01*
X30500000Y-54228571D01*
X30452380Y-54323809D01*
X30452380Y-54561904D01*
X30500000Y-54704761D01*
X31452380Y-55133333D02*
X30452380Y-55133333D01*
X30500000Y-56133333D02*
X30452380Y-56038095D01*
X30452380Y-55895238D01*
X30500000Y-55752380D01*
X30595238Y-55657142D01*
X30690476Y-55609523D01*
X30880952Y-55561904D01*
X31023809Y-55561904D01*
X31214285Y-55609523D01*
X31309523Y-55657142D01*
X31404761Y-55752380D01*
X31452380Y-55895238D01*
X31452380Y-55990476D01*
X31404761Y-56133333D01*
X31357142Y-56180952D01*
X31023809Y-56180952D01*
X31023809Y-55990476D01*
X31547619Y-56371428D02*
X31547619Y-57133333D01*
X31452380Y-57371428D02*
X30452380Y-57371428D01*
X31452380Y-57847619D02*
X30452380Y-57847619D01*
X31452380Y-58419047D01*
X30452380Y-58419047D01*
X33100000Y-56438095D02*
X33052380Y-56342857D01*
X33052380Y-56200000D01*
X33100000Y-56057142D01*
X33195238Y-55961904D01*
X33290476Y-55914285D01*
X33480952Y-55866666D01*
X33623809Y-55866666D01*
X33814285Y-55914285D01*
X33909523Y-55961904D01*
X34004761Y-56057142D01*
X34052380Y-56200000D01*
X34052380Y-56295238D01*
X34004761Y-56438095D01*
X33957142Y-56485714D01*
X33623809Y-56485714D01*
X33623809Y-56295238D01*
X34052380Y-56914285D02*
X33052380Y-56914285D01*
X34052380Y-57485714D01*
X33052380Y-57485714D01*
X34052380Y-57961904D02*
X33052380Y-57961904D01*
X33052380Y-58200000D01*
X33100000Y-58342857D01*
X33195238Y-58438095D01*
X33290476Y-58485714D01*
X33480952Y-58533333D01*
X33623809Y-58533333D01*
X33814285Y-58485714D01*
X33909523Y-58438095D01*
X34004761Y-58342857D01*
X34052380Y-58200000D01*
X34052380Y-57961904D01*
X66542857Y-40804761D02*
X66638095Y-40852380D01*
X66828571Y-40852380D01*
X66923809Y-40804761D01*
X66971428Y-40757142D01*
X67019047Y-40661904D01*
X67019047Y-40376190D01*
X66971428Y-40280952D01*
X66923809Y-40233333D01*
X66828571Y-40185714D01*
X66638095Y-40185714D01*
X66542857Y-40233333D01*
X66114285Y-40852380D02*
X66114285Y-40185714D01*
X66114285Y-39852380D02*
X66161904Y-39900000D01*
X66114285Y-39947619D01*
X66066666Y-39900000D01*
X66114285Y-39852380D01*
X66114285Y-39947619D01*
X65638095Y-40852380D02*
X65638095Y-40185714D01*
X65638095Y-40376190D02*
X65590476Y-40280952D01*
X65542857Y-40233333D01*
X65447619Y-40185714D01*
X65352380Y-40185714D01*
X64590476Y-40804761D02*
X64685714Y-40852380D01*
X64876190Y-40852380D01*
X64971428Y-40804761D01*
X65019047Y-40757142D01*
X65066666Y-40661904D01*
X65066666Y-40376190D01*
X65019047Y-40280952D01*
X64971428Y-40233333D01*
X64876190Y-40185714D01*
X64685714Y-40185714D01*
X64590476Y-40233333D01*
X64019047Y-40852380D02*
X64114285Y-40804761D01*
X64161904Y-40709523D01*
X64161904Y-39852380D01*
X63257142Y-40804761D02*
X63352380Y-40852380D01*
X63542857Y-40852380D01*
X63638095Y-40804761D01*
X63685714Y-40709523D01*
X63685714Y-40328571D01*
X63638095Y-40233333D01*
X63542857Y-40185714D01*
X63352380Y-40185714D01*
X63257142Y-40233333D01*
X63209523Y-40328571D01*
X63209523Y-40423809D01*
X63685714Y-40519047D01*
X62780952Y-40471428D02*
X62019047Y-40471428D01*
X61542857Y-40852380D02*
X61542857Y-39852380D01*
X61542857Y-40233333D02*
X61447619Y-40185714D01*
X61257142Y-40185714D01*
X61161904Y-40233333D01*
X61114285Y-40280952D01*
X61066666Y-40376190D01*
X61066666Y-40661904D01*
X61114285Y-40757142D01*
X61161904Y-40804761D01*
X61257142Y-40852380D01*
X61447619Y-40852380D01*
X61542857Y-40804761D01*
X60638095Y-40852380D02*
X60638095Y-40185714D01*
X60638095Y-39852380D02*
X60685714Y-39900000D01*
X60638095Y-39947619D01*
X60590476Y-39900000D01*
X60638095Y-39852380D01*
X60638095Y-39947619D01*
X59733333Y-40185714D02*
X59733333Y-40995238D01*
X59780952Y-41090476D01*
X59828571Y-41138095D01*
X59923809Y-41185714D01*
X60066666Y-41185714D01*
X60161904Y-41138095D01*
X59733333Y-40804761D02*
X59828571Y-40852380D01*
X60019047Y-40852380D01*
X60114285Y-40804761D01*
X60161904Y-40757142D01*
X60209523Y-40661904D01*
X60209523Y-40376190D01*
X60161904Y-40280952D01*
X60114285Y-40233333D01*
X60019047Y-40185714D01*
X59828571Y-40185714D01*
X59733333Y-40233333D01*
X59495238Y-40947619D02*
X58733333Y-40947619D01*
X58590476Y-40185714D02*
X58352380Y-40852380D01*
X58114285Y-40185714D01*
X57209523Y-40852380D02*
X57780952Y-40852380D01*
X57495238Y-40852380D02*
X57495238Y-39852380D01*
X57590476Y-39995238D01*
X57685714Y-40090476D01*
X57780952Y-40138095D01*
X56780952Y-40757142D02*
X56733333Y-40804761D01*
X56780952Y-40852380D01*
X56828571Y-40804761D01*
X56780952Y-40757142D01*
X56780952Y-40852380D01*
X56114285Y-39852380D02*
X56019047Y-39852380D01*
X55923809Y-39900000D01*
X55876190Y-39947619D01*
X55828571Y-40042857D01*
X55780952Y-40233333D01*
X55780952Y-40471428D01*
X55828571Y-40661904D01*
X55876190Y-40757142D01*
X55923809Y-40804761D01*
X56019047Y-40852380D01*
X56114285Y-40852380D01*
X56209523Y-40804761D01*
X56257142Y-40757142D01*
X56304761Y-40661904D01*
X56352380Y-40471428D01*
X56352380Y-40233333D01*
X56304761Y-40042857D01*
X56257142Y-39947619D01*
X56209523Y-39900000D01*
X56114285Y-39852380D01*
X27952380Y-57409523D02*
X27952380Y-56933333D01*
X28428571Y-56885714D01*
X28380952Y-56933333D01*
X28333333Y-57028571D01*
X28333333Y-57266666D01*
X28380952Y-57361904D01*
X28428571Y-57409523D01*
X28523809Y-57457142D01*
X28761904Y-57457142D01*
X28857142Y-57409523D01*
X28904761Y-57361904D01*
X28952380Y-57266666D01*
X28952380Y-57028571D01*
X28904761Y-56933333D01*
X28857142Y-56885714D01*
X27952380Y-57742857D02*
X28952380Y-58076190D01*
X27952380Y-58409523D01*
X38047619Y-58490476D02*
X38047619Y-58966666D01*
X37571428Y-59014285D01*
X37619047Y-58966666D01*
X37666666Y-58871428D01*
X37666666Y-58633333D01*
X37619047Y-58538095D01*
X37571428Y-58490476D01*
X37476190Y-58442857D01*
X37238095Y-58442857D01*
X37142857Y-58490476D01*
X37095238Y-58538095D01*
X37047619Y-58633333D01*
X37047619Y-58871428D01*
X37095238Y-58966666D01*
X37142857Y-59014285D01*
X38047619Y-58157142D02*
X37047619Y-57823809D01*
X38047619Y-57490476D01*
X43200000Y-58661904D02*
X43247619Y-58757142D01*
X43247619Y-58900000D01*
X43200000Y-59042857D01*
X43104761Y-59138095D01*
X43009523Y-59185714D01*
X42819047Y-59233333D01*
X42676190Y-59233333D01*
X42485714Y-59185714D01*
X42390476Y-59138095D01*
X42295238Y-59042857D01*
X42247619Y-58900000D01*
X42247619Y-58804761D01*
X42295238Y-58661904D01*
X42342857Y-58614285D01*
X42676190Y-58614285D01*
X42676190Y-58804761D01*
X42247619Y-58185714D02*
X43247619Y-58185714D01*
X42247619Y-57614285D01*
X43247619Y-57614285D01*
X42247619Y-57138095D02*
X43247619Y-57138095D01*
X43247619Y-56900000D01*
X43200000Y-56757142D01*
X43104761Y-56661904D01*
X43009523Y-56614285D01*
X42819047Y-56566666D01*
X42676190Y-56566666D01*
X42485714Y-56614285D01*
X42390476Y-56661904D01*
X42295238Y-56757142D01*
X42247619Y-56900000D01*
X42247619Y-57138095D01*
%LPC*%
D11*
%TO.C,J2*%
X42625000Y-60900000D03*
D12*
X40085000Y-60900000D03*
X37545000Y-60900000D03*
%TD*%
D13*
%TO.C,H1*%
X55707999Y-58700000D03*
%TD*%
%TO.C,H3*%
X60600000Y-30300000D03*
%TD*%
D11*
%TO.C,J1*%
X33515000Y-60500000D03*
D12*
X30975000Y-60500000D03*
X28435000Y-60500000D03*
%TD*%
D13*
%TO.C,H2*%
X35700000Y-30300000D03*
%TD*%
M02*
