%TF.GenerationSoftware,KiCad,Pcbnew,6.0.5-a6ca702e91~116~ubuntu20.04.1*%
%TF.CreationDate,2022-06-23T19:27:38-06:00*%
%TF.ProjectId,interface-brain,696e7465-7266-4616-9365-2d627261696e,rev?*%
%TF.SameCoordinates,Original*%
%TF.FileFunction,Legend,Top*%
%TF.FilePolarity,Positive*%
%FSLAX46Y46*%
G04 Gerber Fmt 4.6, Leading zero omitted, Abs format (unit mm)*
G04 Created by KiCad (PCBNEW 6.0.5-a6ca702e91~116~ubuntu20.04.1) date 2022-06-23 19:27:38*
%MOMM*%
%LPD*%
G01*
G04 APERTURE LIST*
G04 Aperture macros list*
%AMRoundRect*
0 Rectangle with rounded corners*
0 $1 Rounding radius*
0 $2 $3 $4 $5 $6 $7 $8 $9 X,Y pos of 4 corners*
0 Add a 4 corners polygon primitive as box body*
4,1,4,$2,$3,$4,$5,$6,$7,$8,$9,$2,$3,0*
0 Add four circle primitives for the rounded corners*
1,1,$1+$1,$2,$3*
1,1,$1+$1,$4,$5*
1,1,$1+$1,$6,$7*
1,1,$1+$1,$8,$9*
0 Add four rect primitives between the rounded corners*
20,1,$1+$1,$2,$3,$4,$5,0*
20,1,$1+$1,$4,$5,$6,$7,0*
20,1,$1+$1,$6,$7,$8,$9,0*
20,1,$1+$1,$8,$9,$2,$3,0*%
G04 Aperture macros list end*
%ADD10C,0.150000*%
%ADD11C,0.120000*%
%ADD12C,0.650000*%
%ADD13C,0.100000*%
%ADD14R,2.000000X2.000000*%
%ADD15C,2.000000*%
%ADD16R,1.700000X1.700000*%
%ADD17O,1.700000X1.700000*%
%ADD18C,3.200000*%
%ADD19R,1.600000X1.600000*%
%ADD20C,1.600000*%
%ADD21R,1.500000X1.500000*%
%ADD22C,1.500000*%
%ADD23O,6.030000X2.070000*%
%ADD24RoundRect,0.218750X0.218750X0.256250X-0.218750X0.256250X-0.218750X-0.256250X0.218750X-0.256250X0*%
G04 APERTURE END LIST*
D10*
X23000000Y-60000000D02*
X147000000Y-60000000D01*
X104000000Y-123000000D02*
X104000000Y-102400000D01*
X61000000Y-123000000D02*
X61000000Y-102400000D01*
X127000000Y-123000000D02*
X127000000Y-102400000D01*
X147000000Y-102000000D02*
X23000000Y-102000000D01*
X23000000Y-81000000D02*
X147000000Y-81000000D01*
X23000000Y-102400000D02*
X147000000Y-102400000D01*
X52000000Y-18000000D02*
X52000000Y-102000000D01*
X82000000Y-102000000D02*
X82000000Y-18000000D01*
X40000000Y-123000000D02*
X40000000Y-102400000D01*
X23000000Y-39000000D02*
X147000000Y-39000000D01*
X112000000Y-102000000D02*
X112000000Y-18000000D01*
X83000000Y-123000000D02*
X83000000Y-102400000D01*
X147000000Y-18000000D02*
X147000000Y-102000000D01*
X24352380Y-73190476D02*
X24352380Y-73666666D01*
X24828571Y-73714285D01*
X24780952Y-73666666D01*
X24733333Y-73571428D01*
X24733333Y-73333333D01*
X24780952Y-73238095D01*
X24828571Y-73190476D01*
X24923809Y-73142857D01*
X25161904Y-73142857D01*
X25257142Y-73190476D01*
X25304761Y-73238095D01*
X25352380Y-73333333D01*
X25352380Y-73571428D01*
X25304761Y-73666666D01*
X25257142Y-73714285D01*
X24352380Y-72857142D02*
X25352380Y-72523809D01*
X24352380Y-72190476D01*
X128952380Y-94638095D02*
X128952380Y-94019047D01*
X129333333Y-94352380D01*
X129333333Y-94209523D01*
X129380952Y-94114285D01*
X129428571Y-94066666D01*
X129523809Y-94019047D01*
X129761904Y-94019047D01*
X129857142Y-94066666D01*
X129904761Y-94114285D01*
X129952380Y-94209523D01*
X129952380Y-94495238D01*
X129904761Y-94590476D01*
X129857142Y-94638095D01*
X128952380Y-93733333D02*
X129952380Y-93400000D01*
X128952380Y-93066666D01*
X128952380Y-92828571D02*
X128952380Y-92209523D01*
X129333333Y-92542857D01*
X129333333Y-92400000D01*
X129380952Y-92304761D01*
X129428571Y-92257142D01*
X129523809Y-92209523D01*
X129761904Y-92209523D01*
X129857142Y-92257142D01*
X129904761Y-92304761D01*
X129952380Y-92400000D01*
X129952380Y-92685714D01*
X129904761Y-92780952D01*
X129857142Y-92828571D01*
X149752380Y-20152380D02*
X149752380Y-19485714D01*
X149752380Y-19152380D02*
X149704761Y-19200000D01*
X149752380Y-19247619D01*
X149800000Y-19200000D01*
X149752380Y-19152380D01*
X149752380Y-19247619D01*
X150228571Y-19485714D02*
X150228571Y-20152380D01*
X150228571Y-19580952D02*
X150276190Y-19533333D01*
X150371428Y-19485714D01*
X150514285Y-19485714D01*
X150609523Y-19533333D01*
X150657142Y-19628571D01*
X150657142Y-20152380D01*
X150990476Y-19485714D02*
X151371428Y-19485714D01*
X151133333Y-19152380D02*
X151133333Y-20009523D01*
X151180952Y-20104761D01*
X151276190Y-20152380D01*
X151371428Y-20152380D01*
X152085714Y-20104761D02*
X151990476Y-20152380D01*
X151800000Y-20152380D01*
X151704761Y-20104761D01*
X151657142Y-20009523D01*
X151657142Y-19628571D01*
X151704761Y-19533333D01*
X151800000Y-19485714D01*
X151990476Y-19485714D01*
X152085714Y-19533333D01*
X152133333Y-19628571D01*
X152133333Y-19723809D01*
X151657142Y-19819047D01*
X152561904Y-20152380D02*
X152561904Y-19485714D01*
X152561904Y-19676190D02*
X152609523Y-19580952D01*
X152657142Y-19533333D01*
X152752380Y-19485714D01*
X152847619Y-19485714D01*
X153038095Y-19485714D02*
X153419047Y-19485714D01*
X153180952Y-20152380D02*
X153180952Y-19295238D01*
X153228571Y-19200000D01*
X153323809Y-19152380D01*
X153419047Y-19152380D01*
X154180952Y-20152380D02*
X154180952Y-19628571D01*
X154133333Y-19533333D01*
X154038095Y-19485714D01*
X153847619Y-19485714D01*
X153752380Y-19533333D01*
X154180952Y-20104761D02*
X154085714Y-20152380D01*
X153847619Y-20152380D01*
X153752380Y-20104761D01*
X153704761Y-20009523D01*
X153704761Y-19914285D01*
X153752380Y-19819047D01*
X153847619Y-19771428D01*
X154085714Y-19771428D01*
X154180952Y-19723809D01*
X155085714Y-20104761D02*
X154990476Y-20152380D01*
X154800000Y-20152380D01*
X154704761Y-20104761D01*
X154657142Y-20057142D01*
X154609523Y-19961904D01*
X154609523Y-19676190D01*
X154657142Y-19580952D01*
X154704761Y-19533333D01*
X154800000Y-19485714D01*
X154990476Y-19485714D01*
X155085714Y-19533333D01*
X155895238Y-20104761D02*
X155800000Y-20152380D01*
X155609523Y-20152380D01*
X155514285Y-20104761D01*
X155466666Y-20009523D01*
X155466666Y-19628571D01*
X155514285Y-19533333D01*
X155609523Y-19485714D01*
X155800000Y-19485714D01*
X155895238Y-19533333D01*
X155942857Y-19628571D01*
X155942857Y-19723809D01*
X155466666Y-19819047D01*
X156371428Y-19771428D02*
X157133333Y-19771428D01*
X157609523Y-20152380D02*
X157609523Y-19152380D01*
X157609523Y-19533333D02*
X157704761Y-19485714D01*
X157895238Y-19485714D01*
X157990476Y-19533333D01*
X158038095Y-19580952D01*
X158085714Y-19676190D01*
X158085714Y-19961904D01*
X158038095Y-20057142D01*
X157990476Y-20104761D01*
X157895238Y-20152380D01*
X157704761Y-20152380D01*
X157609523Y-20104761D01*
X158514285Y-20152380D02*
X158514285Y-19485714D01*
X158514285Y-19676190D02*
X158561904Y-19580952D01*
X158609523Y-19533333D01*
X158704761Y-19485714D01*
X158800000Y-19485714D01*
X159561904Y-20152380D02*
X159561904Y-19628571D01*
X159514285Y-19533333D01*
X159419047Y-19485714D01*
X159228571Y-19485714D01*
X159133333Y-19533333D01*
X159561904Y-20104761D02*
X159466666Y-20152380D01*
X159228571Y-20152380D01*
X159133333Y-20104761D01*
X159085714Y-20009523D01*
X159085714Y-19914285D01*
X159133333Y-19819047D01*
X159228571Y-19771428D01*
X159466666Y-19771428D01*
X159561904Y-19723809D01*
X160038095Y-20152380D02*
X160038095Y-19485714D01*
X160038095Y-19152380D02*
X159990476Y-19200000D01*
X160038095Y-19247619D01*
X160085714Y-19200000D01*
X160038095Y-19152380D01*
X160038095Y-19247619D01*
X160514285Y-19485714D02*
X160514285Y-20152380D01*
X160514285Y-19580952D02*
X160561904Y-19533333D01*
X160657142Y-19485714D01*
X160800000Y-19485714D01*
X160895238Y-19533333D01*
X160942857Y-19628571D01*
X160942857Y-20152380D01*
X162085714Y-19485714D02*
X162323809Y-20152380D01*
X162561904Y-19485714D01*
X163466666Y-20152380D02*
X162895238Y-20152380D01*
X163180952Y-20152380D02*
X163180952Y-19152380D01*
X163085714Y-19295238D01*
X162990476Y-19390476D01*
X162895238Y-19438095D01*
X163895238Y-20057142D02*
X163942857Y-20104761D01*
X163895238Y-20152380D01*
X163847619Y-20104761D01*
X163895238Y-20057142D01*
X163895238Y-20152380D01*
X164895238Y-20152380D02*
X164323809Y-20152380D01*
X164609523Y-20152380D02*
X164609523Y-19152380D01*
X164514285Y-19295238D01*
X164419047Y-19390476D01*
X164323809Y-19438095D01*
X169966666Y-52852380D02*
X169966666Y-51852380D01*
X170347619Y-51852380D01*
X170442857Y-51900000D01*
X170490476Y-51947619D01*
X170538095Y-52042857D01*
X170538095Y-52185714D01*
X170490476Y-52280952D01*
X170442857Y-52328571D01*
X170347619Y-52376190D01*
X169966666Y-52376190D01*
X170871428Y-51852380D02*
X171109523Y-52852380D01*
X171300000Y-52138095D01*
X171490476Y-52852380D01*
X171728571Y-51852380D01*
X172680952Y-52852380D02*
X172347619Y-52376190D01*
X172109523Y-52852380D02*
X172109523Y-51852380D01*
X172490476Y-51852380D01*
X172585714Y-51900000D01*
X172633333Y-51947619D01*
X172680952Y-52042857D01*
X172680952Y-52185714D01*
X172633333Y-52280952D01*
X172585714Y-52328571D01*
X172490476Y-52376190D01*
X172109523Y-52376190D01*
X24352380Y-94190476D02*
X24352380Y-94666666D01*
X24828571Y-94714285D01*
X24780952Y-94666666D01*
X24733333Y-94571428D01*
X24733333Y-94333333D01*
X24780952Y-94238095D01*
X24828571Y-94190476D01*
X24923809Y-94142857D01*
X25161904Y-94142857D01*
X25257142Y-94190476D01*
X25304761Y-94238095D01*
X25352380Y-94333333D01*
X25352380Y-94571428D01*
X25304761Y-94666666D01*
X25257142Y-94714285D01*
X24352380Y-93857142D02*
X25352380Y-93523809D01*
X24352380Y-93190476D01*
X128952380Y-52738095D02*
X128952380Y-52119047D01*
X129333333Y-52452380D01*
X129333333Y-52309523D01*
X129380952Y-52214285D01*
X129428571Y-52166666D01*
X129523809Y-52119047D01*
X129761904Y-52119047D01*
X129857142Y-52166666D01*
X129904761Y-52214285D01*
X129952380Y-52309523D01*
X129952380Y-52595238D01*
X129904761Y-52690476D01*
X129857142Y-52738095D01*
X128952380Y-51833333D02*
X129952380Y-51500000D01*
X128952380Y-51166666D01*
X128952380Y-50928571D02*
X128952380Y-50309523D01*
X129333333Y-50642857D01*
X129333333Y-50500000D01*
X129380952Y-50404761D01*
X129428571Y-50357142D01*
X129523809Y-50309523D01*
X129761904Y-50309523D01*
X129857142Y-50357142D01*
X129904761Y-50404761D01*
X129952380Y-50500000D01*
X129952380Y-50785714D01*
X129904761Y-50880952D01*
X129857142Y-50928571D01*
X114352380Y-73090476D02*
X114352380Y-73566666D01*
X114828571Y-73614285D01*
X114780952Y-73566666D01*
X114733333Y-73471428D01*
X114733333Y-73233333D01*
X114780952Y-73138095D01*
X114828571Y-73090476D01*
X114923809Y-73042857D01*
X115161904Y-73042857D01*
X115257142Y-73090476D01*
X115304761Y-73138095D01*
X115352380Y-73233333D01*
X115352380Y-73471428D01*
X115304761Y-73566666D01*
X115257142Y-73614285D01*
X114352380Y-72757142D02*
X115352380Y-72423809D01*
X114352380Y-72090476D01*
X54352380Y-73090476D02*
X54352380Y-73566666D01*
X54828571Y-73614285D01*
X54780952Y-73566666D01*
X54733333Y-73471428D01*
X54733333Y-73233333D01*
X54780952Y-73138095D01*
X54828571Y-73090476D01*
X54923809Y-73042857D01*
X55161904Y-73042857D01*
X55257142Y-73090476D01*
X55304761Y-73138095D01*
X55352380Y-73233333D01*
X55352380Y-73471428D01*
X55304761Y-73566666D01*
X55257142Y-73614285D01*
X54352380Y-72757142D02*
X55352380Y-72423809D01*
X54352380Y-72090476D01*
X54452380Y-51990476D02*
X54452380Y-52466666D01*
X54928571Y-52514285D01*
X54880952Y-52466666D01*
X54833333Y-52371428D01*
X54833333Y-52133333D01*
X54880952Y-52038095D01*
X54928571Y-51990476D01*
X55023809Y-51942857D01*
X55261904Y-51942857D01*
X55357142Y-51990476D01*
X55404761Y-52038095D01*
X55452380Y-52133333D01*
X55452380Y-52371428D01*
X55404761Y-52466666D01*
X55357142Y-52514285D01*
X54452380Y-51657142D02*
X55452380Y-51323809D01*
X54452380Y-50990476D01*
X54352380Y-31090476D02*
X54352380Y-31566666D01*
X54828571Y-31614285D01*
X54780952Y-31566666D01*
X54733333Y-31471428D01*
X54733333Y-31233333D01*
X54780952Y-31138095D01*
X54828571Y-31090476D01*
X54923809Y-31042857D01*
X55161904Y-31042857D01*
X55257142Y-31090476D01*
X55304761Y-31138095D01*
X55352380Y-31233333D01*
X55352380Y-31471428D01*
X55304761Y-31566666D01*
X55257142Y-31614285D01*
X54352380Y-30757142D02*
X55352380Y-30423809D01*
X54352380Y-30090476D01*
X114452380Y-31090476D02*
X114452380Y-31566666D01*
X114928571Y-31614285D01*
X114880952Y-31566666D01*
X114833333Y-31471428D01*
X114833333Y-31233333D01*
X114880952Y-31138095D01*
X114928571Y-31090476D01*
X115023809Y-31042857D01*
X115261904Y-31042857D01*
X115357142Y-31090476D01*
X115404761Y-31138095D01*
X115452380Y-31233333D01*
X115452380Y-31471428D01*
X115404761Y-31566666D01*
X115357142Y-31614285D01*
X114452380Y-30757142D02*
X115452380Y-30423809D01*
X114452380Y-30090476D01*
X84352380Y-52090476D02*
X84352380Y-52566666D01*
X84828571Y-52614285D01*
X84780952Y-52566666D01*
X84733333Y-52471428D01*
X84733333Y-52233333D01*
X84780952Y-52138095D01*
X84828571Y-52090476D01*
X84923809Y-52042857D01*
X85161904Y-52042857D01*
X85257142Y-52090476D01*
X85304761Y-52138095D01*
X85352380Y-52233333D01*
X85352380Y-52471428D01*
X85304761Y-52566666D01*
X85257142Y-52614285D01*
X84352380Y-51757142D02*
X85352380Y-51423809D01*
X84352380Y-51090476D01*
X128952380Y-73638095D02*
X128952380Y-73019047D01*
X129333333Y-73352380D01*
X129333333Y-73209523D01*
X129380952Y-73114285D01*
X129428571Y-73066666D01*
X129523809Y-73019047D01*
X129761904Y-73019047D01*
X129857142Y-73066666D01*
X129904761Y-73114285D01*
X129952380Y-73209523D01*
X129952380Y-73495238D01*
X129904761Y-73590476D01*
X129857142Y-73638095D01*
X128952380Y-72733333D02*
X129952380Y-72400000D01*
X128952380Y-72066666D01*
X128952380Y-71828571D02*
X128952380Y-71209523D01*
X129333333Y-71542857D01*
X129333333Y-71400000D01*
X129380952Y-71304761D01*
X129428571Y-71257142D01*
X129523809Y-71209523D01*
X129761904Y-71209523D01*
X129857142Y-71257142D01*
X129904761Y-71304761D01*
X129952380Y-71400000D01*
X129952380Y-71685714D01*
X129904761Y-71780952D01*
X129857142Y-71828571D01*
X84352380Y-31090476D02*
X84352380Y-31566666D01*
X84828571Y-31614285D01*
X84780952Y-31566666D01*
X84733333Y-31471428D01*
X84733333Y-31233333D01*
X84780952Y-31138095D01*
X84828571Y-31090476D01*
X84923809Y-31042857D01*
X85161904Y-31042857D01*
X85257142Y-31090476D01*
X85304761Y-31138095D01*
X85352380Y-31233333D01*
X85352380Y-31471428D01*
X85304761Y-31566666D01*
X85257142Y-31614285D01*
X84352380Y-30757142D02*
X85352380Y-30423809D01*
X84352380Y-30090476D01*
X105952380Y-115638095D02*
X105952380Y-115019047D01*
X106333333Y-115352380D01*
X106333333Y-115209523D01*
X106380952Y-115114285D01*
X106428571Y-115066666D01*
X106523809Y-115019047D01*
X106761904Y-115019047D01*
X106857142Y-115066666D01*
X106904761Y-115114285D01*
X106952380Y-115209523D01*
X106952380Y-115495238D01*
X106904761Y-115590476D01*
X106857142Y-115638095D01*
X105952380Y-114733333D02*
X106952380Y-114400000D01*
X105952380Y-114066666D01*
X105952380Y-113828571D02*
X105952380Y-113209523D01*
X106333333Y-113542857D01*
X106333333Y-113400000D01*
X106380952Y-113304761D01*
X106428571Y-113257142D01*
X106523809Y-113209523D01*
X106761904Y-113209523D01*
X106857142Y-113257142D01*
X106904761Y-113304761D01*
X106952380Y-113400000D01*
X106952380Y-113685714D01*
X106904761Y-113780952D01*
X106857142Y-113828571D01*
X84952380Y-115638095D02*
X84952380Y-115019047D01*
X85333333Y-115352380D01*
X85333333Y-115209523D01*
X85380952Y-115114285D01*
X85428571Y-115066666D01*
X85523809Y-115019047D01*
X85761904Y-115019047D01*
X85857142Y-115066666D01*
X85904761Y-115114285D01*
X85952380Y-115209523D01*
X85952380Y-115495238D01*
X85904761Y-115590476D01*
X85857142Y-115638095D01*
X84952380Y-114733333D02*
X85952380Y-114400000D01*
X84952380Y-114066666D01*
X84952380Y-113828571D02*
X84952380Y-113209523D01*
X85333333Y-113542857D01*
X85333333Y-113400000D01*
X85380952Y-113304761D01*
X85428571Y-113257142D01*
X85523809Y-113209523D01*
X85761904Y-113209523D01*
X85857142Y-113257142D01*
X85904761Y-113304761D01*
X85952380Y-113400000D01*
X85952380Y-113685714D01*
X85904761Y-113780952D01*
X85857142Y-113828571D01*
X84352380Y-94090476D02*
X84352380Y-94566666D01*
X84828571Y-94614285D01*
X84780952Y-94566666D01*
X84733333Y-94471428D01*
X84733333Y-94233333D01*
X84780952Y-94138095D01*
X84828571Y-94090476D01*
X84923809Y-94042857D01*
X85161904Y-94042857D01*
X85257142Y-94090476D01*
X85304761Y-94138095D01*
X85352380Y-94233333D01*
X85352380Y-94471428D01*
X85304761Y-94566666D01*
X85257142Y-94614285D01*
X84352380Y-93757142D02*
X85352380Y-93423809D01*
X84352380Y-93090476D01*
X114352380Y-94090476D02*
X114352380Y-94566666D01*
X114828571Y-94614285D01*
X114780952Y-94566666D01*
X114733333Y-94471428D01*
X114733333Y-94233333D01*
X114780952Y-94138095D01*
X114828571Y-94090476D01*
X114923809Y-94042857D01*
X115161904Y-94042857D01*
X115257142Y-94090476D01*
X115304761Y-94138095D01*
X115352380Y-94233333D01*
X115352380Y-94471428D01*
X115304761Y-94566666D01*
X115257142Y-94614285D01*
X114352380Y-93757142D02*
X115352380Y-93423809D01*
X114352380Y-93090476D01*
X114352380Y-52090476D02*
X114352380Y-52566666D01*
X114828571Y-52614285D01*
X114780952Y-52566666D01*
X114733333Y-52471428D01*
X114733333Y-52233333D01*
X114780952Y-52138095D01*
X114828571Y-52090476D01*
X114923809Y-52042857D01*
X115161904Y-52042857D01*
X115257142Y-52090476D01*
X115304761Y-52138095D01*
X115352380Y-52233333D01*
X115352380Y-52471428D01*
X115304761Y-52566666D01*
X115257142Y-52614285D01*
X114352380Y-51757142D02*
X115352380Y-51423809D01*
X114352380Y-51090476D01*
X24352380Y-31190476D02*
X24352380Y-31666666D01*
X24828571Y-31714285D01*
X24780952Y-31666666D01*
X24733333Y-31571428D01*
X24733333Y-31333333D01*
X24780952Y-31238095D01*
X24828571Y-31190476D01*
X24923809Y-31142857D01*
X25161904Y-31142857D01*
X25257142Y-31190476D01*
X25304761Y-31238095D01*
X25352380Y-31333333D01*
X25352380Y-31571428D01*
X25304761Y-31666666D01*
X25257142Y-31714285D01*
X24352380Y-30857142D02*
X25352380Y-30523809D01*
X24352380Y-30190476D01*
X128952380Y-31738095D02*
X128952380Y-31119047D01*
X129333333Y-31452380D01*
X129333333Y-31309523D01*
X129380952Y-31214285D01*
X129428571Y-31166666D01*
X129523809Y-31119047D01*
X129761904Y-31119047D01*
X129857142Y-31166666D01*
X129904761Y-31214285D01*
X129952380Y-31309523D01*
X129952380Y-31595238D01*
X129904761Y-31690476D01*
X129857142Y-31738095D01*
X128952380Y-30833333D02*
X129952380Y-30500000D01*
X128952380Y-30166666D01*
X128952380Y-29928571D02*
X128952380Y-29309523D01*
X129333333Y-29642857D01*
X129333333Y-29500000D01*
X129380952Y-29404761D01*
X129428571Y-29357142D01*
X129523809Y-29309523D01*
X129761904Y-29309523D01*
X129857142Y-29357142D01*
X129904761Y-29404761D01*
X129952380Y-29500000D01*
X129952380Y-29785714D01*
X129904761Y-29880952D01*
X129857142Y-29928571D01*
X54352380Y-94190476D02*
X54352380Y-94666666D01*
X54828571Y-94714285D01*
X54780952Y-94666666D01*
X54733333Y-94571428D01*
X54733333Y-94333333D01*
X54780952Y-94238095D01*
X54828571Y-94190476D01*
X54923809Y-94142857D01*
X55161904Y-94142857D01*
X55257142Y-94190476D01*
X55304761Y-94238095D01*
X55352380Y-94333333D01*
X55352380Y-94571428D01*
X55304761Y-94666666D01*
X55257142Y-94714285D01*
X54352380Y-93857142D02*
X55352380Y-93523809D01*
X54352380Y-93190476D01*
X63452380Y-115438095D02*
X63452380Y-114819047D01*
X63833333Y-115152380D01*
X63833333Y-115009523D01*
X63880952Y-114914285D01*
X63928571Y-114866666D01*
X64023809Y-114819047D01*
X64261904Y-114819047D01*
X64357142Y-114866666D01*
X64404761Y-114914285D01*
X64452380Y-115009523D01*
X64452380Y-115295238D01*
X64404761Y-115390476D01*
X64357142Y-115438095D01*
X63452380Y-114533333D02*
X64452380Y-114200000D01*
X63452380Y-113866666D01*
X63452380Y-113628571D02*
X63452380Y-113009523D01*
X63833333Y-113342857D01*
X63833333Y-113200000D01*
X63880952Y-113104761D01*
X63928571Y-113057142D01*
X64023809Y-113009523D01*
X64261904Y-113009523D01*
X64357142Y-113057142D01*
X64404761Y-113104761D01*
X64452380Y-113200000D01*
X64452380Y-113485714D01*
X64404761Y-113580952D01*
X64357142Y-113628571D01*
X128952380Y-115638095D02*
X128952380Y-115019047D01*
X129333333Y-115352380D01*
X129333333Y-115209523D01*
X129380952Y-115114285D01*
X129428571Y-115066666D01*
X129523809Y-115019047D01*
X129761904Y-115019047D01*
X129857142Y-115066666D01*
X129904761Y-115114285D01*
X129952380Y-115209523D01*
X129952380Y-115495238D01*
X129904761Y-115590476D01*
X129857142Y-115638095D01*
X128952380Y-114733333D02*
X129952380Y-114400000D01*
X128952380Y-114066666D01*
X128952380Y-113828571D02*
X128952380Y-113209523D01*
X129333333Y-113542857D01*
X129333333Y-113400000D01*
X129380952Y-113304761D01*
X129428571Y-113257142D01*
X129523809Y-113209523D01*
X129761904Y-113209523D01*
X129857142Y-113257142D01*
X129904761Y-113304761D01*
X129952380Y-113400000D01*
X129952380Y-113685714D01*
X129904761Y-113780952D01*
X129857142Y-113828571D01*
X24352380Y-52090476D02*
X24352380Y-52566666D01*
X24828571Y-52614285D01*
X24780952Y-52566666D01*
X24733333Y-52471428D01*
X24733333Y-52233333D01*
X24780952Y-52138095D01*
X24828571Y-52090476D01*
X24923809Y-52042857D01*
X25161904Y-52042857D01*
X25257142Y-52090476D01*
X25304761Y-52138095D01*
X25352380Y-52233333D01*
X25352380Y-52471428D01*
X25304761Y-52566666D01*
X25257142Y-52614285D01*
X24352380Y-51757142D02*
X25352380Y-51423809D01*
X24352380Y-51090476D01*
X84352380Y-73090476D02*
X84352380Y-73566666D01*
X84828571Y-73614285D01*
X84780952Y-73566666D01*
X84733333Y-73471428D01*
X84733333Y-73233333D01*
X84780952Y-73138095D01*
X84828571Y-73090476D01*
X84923809Y-73042857D01*
X85161904Y-73042857D01*
X85257142Y-73090476D01*
X85304761Y-73138095D01*
X85352380Y-73233333D01*
X85352380Y-73471428D01*
X85304761Y-73566666D01*
X85257142Y-73614285D01*
X84352380Y-72757142D02*
X85352380Y-72423809D01*
X84352380Y-72090476D01*
%TO.C,U3*%
X155738095Y-39280349D02*
X155738095Y-40089873D01*
X155785714Y-40185111D01*
X155833333Y-40232730D01*
X155928571Y-40280349D01*
X156119047Y-40280349D01*
X156214285Y-40232730D01*
X156261904Y-40185111D01*
X156309523Y-40089873D01*
X156309523Y-39280349D01*
X156738095Y-40232730D02*
X156880952Y-40280349D01*
X157119047Y-40280349D01*
X157214285Y-40232730D01*
X157261904Y-40185111D01*
X157309523Y-40089873D01*
X157309523Y-39994635D01*
X157261904Y-39899397D01*
X157214285Y-39851778D01*
X157119047Y-39804159D01*
X156928571Y-39756540D01*
X156833333Y-39708921D01*
X156785714Y-39661302D01*
X156738095Y-39566064D01*
X156738095Y-39470826D01*
X156785714Y-39375588D01*
X156833333Y-39327969D01*
X156928571Y-39280349D01*
X157166666Y-39280349D01*
X157309523Y-39327969D01*
X158071428Y-39756540D02*
X158214285Y-39804159D01*
X158261904Y-39851778D01*
X158309523Y-39947016D01*
X158309523Y-40089873D01*
X158261904Y-40185111D01*
X158214285Y-40232730D01*
X158119047Y-40280349D01*
X157738095Y-40280349D01*
X157738095Y-39280349D01*
X158071428Y-39280349D01*
X158166666Y-39327969D01*
X158214285Y-39375588D01*
X158261904Y-39470826D01*
X158261904Y-39566064D01*
X158214285Y-39661302D01*
X158166666Y-39708921D01*
X158071428Y-39756540D01*
X157738095Y-39756540D01*
X155796666Y-64274635D02*
X155796666Y-63574635D01*
X155963333Y-63574635D01*
X156063333Y-63607969D01*
X156130000Y-63674635D01*
X156163333Y-63741302D01*
X156196666Y-63874635D01*
X156196666Y-63974635D01*
X156163333Y-64107969D01*
X156130000Y-64174635D01*
X156063333Y-64241302D01*
X155963333Y-64274635D01*
X155796666Y-64274635D01*
X156396666Y-63574635D02*
X156630000Y-64274635D01*
X156863333Y-63574635D01*
X157296666Y-63574635D02*
X157296666Y-64074635D01*
X157263333Y-64174635D01*
X157196666Y-64241302D01*
X157096666Y-64274635D01*
X157030000Y-64274635D01*
X157930000Y-63574635D02*
X157796666Y-63574635D01*
X157730000Y-63607969D01*
X157696666Y-63641302D01*
X157630000Y-63741302D01*
X157596666Y-63874635D01*
X157596666Y-64141302D01*
X157630000Y-64207969D01*
X157663333Y-64241302D01*
X157730000Y-64274635D01*
X157863333Y-64274635D01*
X157930000Y-64241302D01*
X157963333Y-64207969D01*
X157996666Y-64141302D01*
X157996666Y-63974635D01*
X157963333Y-63907969D01*
X157930000Y-63874635D01*
X157863333Y-63841302D01*
X157730000Y-63841302D01*
X157663333Y-63874635D01*
X157630000Y-63907969D01*
X157596666Y-63974635D01*
X158263333Y-64074635D02*
X158596666Y-64074635D01*
X158196666Y-64274635D02*
X158430000Y-63574635D01*
X158663333Y-64274635D01*
X157452380Y-93747016D02*
X156452380Y-93747016D01*
X157166666Y-93413683D01*
X156452380Y-93080349D01*
X157452380Y-93080349D01*
X157452380Y-92604159D02*
X156785714Y-92604159D01*
X156452380Y-92604159D02*
X156500000Y-92651778D01*
X156547619Y-92604159D01*
X156500000Y-92556540D01*
X156452380Y-92604159D01*
X156547619Y-92604159D01*
X157404761Y-91699397D02*
X157452380Y-91794635D01*
X157452380Y-91985111D01*
X157404761Y-92080349D01*
X157357142Y-92127969D01*
X157261904Y-92175588D01*
X156976190Y-92175588D01*
X156880952Y-92127969D01*
X156833333Y-92080349D01*
X156785714Y-91985111D01*
X156785714Y-91794635D01*
X156833333Y-91699397D01*
X157452380Y-91270826D02*
X156785714Y-91270826D01*
X156976190Y-91270826D02*
X156880952Y-91223207D01*
X156833333Y-91175588D01*
X156785714Y-91080349D01*
X156785714Y-90985111D01*
X157452380Y-90508921D02*
X157404761Y-90604159D01*
X157357142Y-90651778D01*
X157261904Y-90699397D01*
X156976190Y-90699397D01*
X156880952Y-90651778D01*
X156833333Y-90604159D01*
X156785714Y-90508921D01*
X156785714Y-90366064D01*
X156833333Y-90270826D01*
X156880952Y-90223207D01*
X156976190Y-90175588D01*
X157261904Y-90175588D01*
X157357142Y-90223207D01*
X157404761Y-90270826D01*
X157452380Y-90366064D01*
X157452380Y-90508921D01*
X157404761Y-89032730D02*
X157452380Y-88889873D01*
X157452380Y-88651778D01*
X157404761Y-88556540D01*
X157357142Y-88508921D01*
X157261904Y-88461302D01*
X157166666Y-88461302D01*
X157071428Y-88508921D01*
X157023809Y-88556540D01*
X156976190Y-88651778D01*
X156928571Y-88842254D01*
X156880952Y-88937492D01*
X156833333Y-88985111D01*
X156738095Y-89032730D01*
X156642857Y-89032730D01*
X156547619Y-88985111D01*
X156500000Y-88937492D01*
X156452380Y-88842254D01*
X156452380Y-88604159D01*
X156500000Y-88461302D01*
X157452380Y-88032730D02*
X156452380Y-88032730D01*
X156452380Y-87794635D01*
X156500000Y-87651778D01*
X156595238Y-87556540D01*
X156690476Y-87508921D01*
X156880952Y-87461302D01*
X157023809Y-87461302D01*
X157214285Y-87508921D01*
X157309523Y-87556540D01*
X157404761Y-87651778D01*
X157452380Y-87794635D01*
X157452380Y-88032730D01*
X153916666Y-65544635D02*
X153916666Y-64844635D01*
X154150000Y-65344635D01*
X154383333Y-64844635D01*
X154383333Y-65544635D01*
X154716666Y-65544635D02*
X154716666Y-64844635D01*
X155050000Y-65544635D02*
X155050000Y-64844635D01*
X155283333Y-65344635D01*
X155516666Y-64844635D01*
X155516666Y-65544635D01*
X155783333Y-64844635D02*
X156250000Y-65544635D01*
X156250000Y-64844635D02*
X155783333Y-65544635D01*
X156916666Y-65544635D02*
X156683333Y-65211302D01*
X156516666Y-65544635D02*
X156516666Y-64844635D01*
X156783333Y-64844635D01*
X156850000Y-64877969D01*
X156883333Y-64911302D01*
X156916666Y-64977969D01*
X156916666Y-65077969D01*
X156883333Y-65144635D01*
X156850000Y-65177969D01*
X156783333Y-65211302D01*
X156516666Y-65211302D01*
X157116666Y-64844635D02*
X157516666Y-64844635D01*
X157316666Y-65544635D02*
X157316666Y-64844635D01*
X158116666Y-65544635D02*
X157716666Y-65544635D01*
X157916666Y-65544635D02*
X157916666Y-64844635D01*
X157850000Y-64944635D01*
X157783333Y-65011302D01*
X157716666Y-65044635D01*
X158550000Y-64844635D02*
X158616666Y-64844635D01*
X158683333Y-64877969D01*
X158716666Y-64911302D01*
X158750000Y-64977969D01*
X158783333Y-65111302D01*
X158783333Y-65277969D01*
X158750000Y-65411302D01*
X158716666Y-65477969D01*
X158683333Y-65511302D01*
X158616666Y-65544635D01*
X158550000Y-65544635D01*
X158483333Y-65511302D01*
X158450000Y-65477969D01*
X158416666Y-65411302D01*
X158383333Y-65277969D01*
X158383333Y-65111302D01*
X158416666Y-64977969D01*
X158450000Y-64911302D01*
X158483333Y-64877969D01*
X158550000Y-64844635D01*
X159383333Y-64844635D02*
X159250000Y-64844635D01*
X159183333Y-64877969D01*
X159150000Y-64911302D01*
X159083333Y-65011302D01*
X159050000Y-65144635D01*
X159050000Y-65411302D01*
X159083333Y-65477969D01*
X159116666Y-65511302D01*
X159183333Y-65544635D01*
X159316666Y-65544635D01*
X159383333Y-65511302D01*
X159416666Y-65477969D01*
X159450000Y-65411302D01*
X159450000Y-65244635D01*
X159416666Y-65177969D01*
X159383333Y-65144635D01*
X159316666Y-65111302D01*
X159183333Y-65111302D01*
X159116666Y-65144635D01*
X159083333Y-65177969D01*
X159050000Y-65244635D01*
X159716666Y-64911302D02*
X159750000Y-64877969D01*
X159816666Y-64844635D01*
X159983333Y-64844635D01*
X160050000Y-64877969D01*
X160083333Y-64911302D01*
X160116666Y-64977969D01*
X160116666Y-65044635D01*
X160083333Y-65144635D01*
X159683333Y-65544635D01*
X160116666Y-65544635D01*
%TO.C,J1*%
X165598358Y-108453571D02*
X165741215Y-108501190D01*
X165788834Y-108548809D01*
X165836453Y-108644047D01*
X165836453Y-108786904D01*
X165788834Y-108882142D01*
X165741215Y-108929761D01*
X165645977Y-108977380D01*
X165265025Y-108977380D01*
X165265025Y-107977380D01*
X165598358Y-107977380D01*
X165693596Y-108025000D01*
X165741215Y-108072619D01*
X165788834Y-108167857D01*
X165788834Y-108263095D01*
X165741215Y-108358333D01*
X165693596Y-108405952D01*
X165598358Y-108453571D01*
X165265025Y-108453571D01*
X173336453Y-108977380D02*
X173003120Y-108501190D01*
X172765025Y-108977380D02*
X172765025Y-107977380D01*
X173145977Y-107977380D01*
X173241215Y-108025000D01*
X173288834Y-108072619D01*
X173336453Y-108167857D01*
X173336453Y-108310714D01*
X173288834Y-108405952D01*
X173241215Y-108453571D01*
X173145977Y-108501190D01*
X172765025Y-108501190D01*
D11*
%TO.C,C56*%
X175113323Y-55108000D02*
X175113323Y-57759000D01*
X173153323Y-60241000D02*
X173153323Y-63907000D01*
X174193323Y-60241000D02*
X174193323Y-63504000D01*
X175433323Y-60241000D02*
X175433323Y-62601000D01*
X173833323Y-60241000D02*
X173833323Y-63674000D01*
X174673323Y-60241000D02*
X174673323Y-63221000D01*
X176153323Y-56291000D02*
X176153323Y-61709000D01*
X174833323Y-60241000D02*
X174833323Y-63110000D01*
X175033323Y-60241000D02*
X175033323Y-62957000D01*
X172833323Y-54018000D02*
X172833323Y-63982000D01*
X175553323Y-55522000D02*
X175553323Y-57759000D01*
X176913323Y-58401000D02*
X176913323Y-59599000D01*
X166852677Y-55625000D02*
X166852677Y-56625000D01*
X176793323Y-57770000D02*
X176793323Y-60230000D01*
X175353323Y-55321000D02*
X175353323Y-57759000D01*
X175913323Y-55946000D02*
X175913323Y-62054000D01*
X175033323Y-55043000D02*
X175033323Y-57759000D01*
X175073323Y-60241000D02*
X175073323Y-62925000D01*
X174993323Y-60241000D02*
X174993323Y-62989000D01*
X172472323Y-53960000D02*
X172472323Y-64040000D01*
X173753323Y-54293000D02*
X173753323Y-57759000D01*
X173353323Y-60241000D02*
X173353323Y-63850000D01*
X175233323Y-60241000D02*
X175233323Y-62789000D01*
X173873323Y-60241000D02*
X173873323Y-63657000D01*
X173633323Y-60241000D02*
X173633323Y-63754000D01*
X175753323Y-55746000D02*
X175753323Y-62254000D01*
X174953323Y-54980000D02*
X174953323Y-57759000D01*
X173713323Y-60241000D02*
X173713323Y-63723000D01*
X174233323Y-60241000D02*
X174233323Y-63483000D01*
X174113323Y-60241000D02*
X174113323Y-63545000D01*
X173473323Y-54189000D02*
X173473323Y-57759000D01*
X175273323Y-60241000D02*
X175273323Y-62753000D01*
X172232323Y-53935000D02*
X172232323Y-64065000D01*
X172272323Y-53938000D02*
X172272323Y-64062000D01*
X174153323Y-60241000D02*
X174153323Y-63525000D01*
X172633323Y-53982000D02*
X172633323Y-64018000D01*
X176233323Y-56421000D02*
X176233323Y-61579000D01*
X174833323Y-54890000D02*
X174833323Y-57759000D01*
X173793323Y-60241000D02*
X173793323Y-63690000D01*
X173073323Y-54072000D02*
X173073323Y-63928000D01*
X174993323Y-55011000D02*
X174993323Y-57759000D01*
X172593323Y-53976000D02*
X172593323Y-64024000D01*
X174553323Y-54702000D02*
X174553323Y-57759000D01*
X174313323Y-60241000D02*
X174313323Y-63440000D01*
X173193323Y-54103000D02*
X173193323Y-57759000D01*
X172512323Y-53965000D02*
X172512323Y-64035000D01*
X175393323Y-60241000D02*
X175393323Y-62640000D01*
X175313323Y-60241000D02*
X175313323Y-62716000D01*
X175993323Y-56055000D02*
X175993323Y-61945000D01*
X175673323Y-55653000D02*
X175673323Y-62347000D01*
X173713323Y-54277000D02*
X173713323Y-57759000D01*
X173393323Y-60241000D02*
X173393323Y-63837000D01*
X173953323Y-60241000D02*
X173953323Y-63621000D01*
X173873323Y-54343000D02*
X173873323Y-57759000D01*
X172112323Y-53927000D02*
X172112323Y-64073000D01*
X172392323Y-53950000D02*
X172392323Y-64050000D01*
X174873323Y-60241000D02*
X174873323Y-63080000D01*
X176633323Y-57258000D02*
X176633323Y-60742000D01*
X176393323Y-56711000D02*
X176393323Y-61289000D01*
X175153323Y-60241000D02*
X175153323Y-62858000D01*
X172152323Y-53930000D02*
X172152323Y-64070000D01*
X172793323Y-54010000D02*
X172793323Y-63990000D01*
X174153323Y-54475000D02*
X174153323Y-57759000D01*
X175593323Y-55564000D02*
X175593323Y-62436000D01*
X176713323Y-57490000D02*
X176713323Y-60510000D01*
X172032323Y-53923000D02*
X172032323Y-64077000D01*
X172312323Y-53942000D02*
X172312323Y-64058000D01*
X172913323Y-54035000D02*
X172913323Y-63965000D01*
X173233323Y-60241000D02*
X173233323Y-63885000D01*
X173313323Y-60241000D02*
X173313323Y-63862000D01*
X174633323Y-60241000D02*
X174633323Y-63247000D01*
X174913323Y-54950000D02*
X174913323Y-57759000D01*
X176753323Y-57622000D02*
X176753323Y-60378000D01*
X174033323Y-60241000D02*
X174033323Y-63584000D01*
X171992323Y-53922000D02*
X171992323Y-64078000D01*
X173953323Y-54379000D02*
X173953323Y-57759000D01*
X176833323Y-57938000D02*
X176833323Y-60062000D01*
X173913323Y-60241000D02*
X173913323Y-63639000D01*
X174913323Y-60241000D02*
X174913323Y-63050000D01*
X173553323Y-60241000D02*
X173553323Y-63783000D01*
X174273323Y-60241000D02*
X174273323Y-63462000D01*
X173673323Y-54262000D02*
X173673323Y-57759000D01*
X172192323Y-53932000D02*
X172192323Y-64068000D01*
X175353323Y-60241000D02*
X175353323Y-62679000D01*
X173113323Y-60241000D02*
X173113323Y-63918000D01*
X175193323Y-60241000D02*
X175193323Y-62824000D01*
X176033323Y-56111000D02*
X176033323Y-61889000D01*
X175313323Y-55284000D02*
X175313323Y-57759000D01*
X171832323Y-53920000D02*
X171832323Y-64080000D01*
X174873323Y-54920000D02*
X174873323Y-57759000D01*
X174593323Y-60241000D02*
X174593323Y-63273000D01*
X176273323Y-56490000D02*
X176273323Y-61510000D01*
X176113323Y-56230000D02*
X176113323Y-61770000D01*
X174713323Y-60241000D02*
X174713323Y-63194000D01*
X174273323Y-54538000D02*
X174273323Y-57759000D01*
X173993323Y-54397000D02*
X173993323Y-57759000D01*
X172873323Y-54026000D02*
X172873323Y-63974000D01*
X173153323Y-54093000D02*
X173153323Y-57759000D01*
X173113323Y-54082000D02*
X173113323Y-57759000D01*
X173433323Y-60241000D02*
X173433323Y-63824000D01*
X173593323Y-54232000D02*
X173593323Y-57759000D01*
X172673323Y-53989000D02*
X172673323Y-64011000D01*
X175233323Y-55211000D02*
X175233323Y-57759000D01*
X174353323Y-60241000D02*
X174353323Y-63417000D01*
X175113323Y-60241000D02*
X175113323Y-62892000D01*
X176433323Y-56791000D02*
X176433323Y-61209000D01*
X175473323Y-55439000D02*
X175473323Y-57759000D01*
X176353323Y-56635000D02*
X176353323Y-61365000D01*
X174313323Y-54560000D02*
X174313323Y-57759000D01*
X173433323Y-54176000D02*
X173433323Y-57759000D01*
X176513323Y-56963000D02*
X176513323Y-61037000D01*
X175393323Y-55360000D02*
X175393323Y-57759000D01*
X175513323Y-55480000D02*
X175513323Y-57759000D01*
X173273323Y-60241000D02*
X173273323Y-63874000D01*
X175513323Y-60241000D02*
X175513323Y-62520000D01*
X173633323Y-54246000D02*
X173633323Y-57759000D01*
X176873323Y-58138000D02*
X176873323Y-59862000D01*
X175073323Y-55075000D02*
X175073323Y-57759000D01*
X176473323Y-56875000D02*
X176473323Y-61125000D01*
X176673323Y-57370000D02*
X176673323Y-60630000D01*
X173313323Y-54138000D02*
X173313323Y-57759000D01*
X174633323Y-54753000D02*
X174633323Y-57759000D01*
X175473323Y-60241000D02*
X175473323Y-62561000D01*
X173513323Y-54203000D02*
X173513323Y-57759000D01*
X175193323Y-55176000D02*
X175193323Y-57759000D01*
X175873323Y-55894000D02*
X175873323Y-62106000D01*
X173353323Y-54150000D02*
X173353323Y-57759000D01*
X174433323Y-60241000D02*
X174433323Y-63371000D01*
X172953323Y-54044000D02*
X172953323Y-63956000D01*
X173273323Y-54126000D02*
X173273323Y-57759000D01*
X174793323Y-54862000D02*
X174793323Y-57759000D01*
X174393323Y-54605000D02*
X174393323Y-57759000D01*
X174953323Y-60241000D02*
X174953323Y-63020000D01*
X174073323Y-54436000D02*
X174073323Y-57759000D01*
X174473323Y-60241000D02*
X174473323Y-63347000D01*
X174553323Y-60241000D02*
X174553323Y-63298000D01*
X175953323Y-56000000D02*
X175953323Y-62000000D01*
X174753323Y-54834000D02*
X174753323Y-57759000D01*
X173793323Y-54310000D02*
X173793323Y-57759000D01*
X173553323Y-54217000D02*
X173553323Y-57759000D01*
X175793323Y-55794000D02*
X175793323Y-62206000D01*
X171952323Y-53921000D02*
X171952323Y-64079000D01*
X172993323Y-54053000D02*
X172993323Y-63947000D01*
X173673323Y-60241000D02*
X173673323Y-63738000D01*
X174353323Y-54583000D02*
X174353323Y-57759000D01*
X166352677Y-56125000D02*
X167352677Y-56125000D01*
X174113323Y-54455000D02*
X174113323Y-57759000D01*
X172553323Y-53970000D02*
X172553323Y-64030000D01*
X174193323Y-54496000D02*
X174193323Y-57759000D01*
X173233323Y-54115000D02*
X173233323Y-57759000D01*
X171912323Y-53920000D02*
X171912323Y-64080000D01*
X175153323Y-55142000D02*
X175153323Y-57759000D01*
X174673323Y-54779000D02*
X174673323Y-57759000D01*
X172352323Y-53946000D02*
X172352323Y-64054000D01*
X173033323Y-54062000D02*
X173033323Y-63938000D01*
X175433323Y-55399000D02*
X175433323Y-57759000D01*
X173833323Y-54326000D02*
X173833323Y-57759000D01*
X174593323Y-54727000D02*
X174593323Y-57759000D01*
X173393323Y-54163000D02*
X173393323Y-57759000D01*
X174753323Y-60241000D02*
X174753323Y-63166000D01*
X173593323Y-60241000D02*
X173593323Y-63768000D01*
X176593323Y-57154000D02*
X176593323Y-60846000D01*
X173913323Y-54361000D02*
X173913323Y-57759000D01*
X175713323Y-55699000D02*
X175713323Y-62301000D01*
X174713323Y-54806000D02*
X174713323Y-57759000D01*
X175633323Y-55608000D02*
X175633323Y-62392000D01*
X174033323Y-54416000D02*
X174033323Y-57759000D01*
X175553323Y-60241000D02*
X175553323Y-62478000D01*
X173753323Y-60241000D02*
X173753323Y-63707000D01*
X172072323Y-53925000D02*
X172072323Y-64075000D01*
X174233323Y-54517000D02*
X174233323Y-57759000D01*
X175833323Y-55844000D02*
X175833323Y-62156000D01*
X174793323Y-60241000D02*
X174793323Y-63138000D01*
X174073323Y-60241000D02*
X174073323Y-63564000D01*
X174393323Y-60241000D02*
X174393323Y-63395000D01*
X176193323Y-56355000D02*
X176193323Y-61645000D01*
X173193323Y-60241000D02*
X173193323Y-63897000D01*
X172713323Y-53996000D02*
X172713323Y-64004000D01*
X173993323Y-60241000D02*
X173993323Y-63603000D01*
X174433323Y-54629000D02*
X174433323Y-57759000D01*
X174473323Y-54653000D02*
X174473323Y-57759000D01*
X175273323Y-55247000D02*
X175273323Y-57759000D01*
X176553323Y-57056000D02*
X176553323Y-60944000D01*
X174513323Y-60241000D02*
X174513323Y-63323000D01*
X172432323Y-53955000D02*
X172432323Y-64045000D01*
X172753323Y-54003000D02*
X172753323Y-63997000D01*
X174513323Y-54677000D02*
X174513323Y-57759000D01*
X173513323Y-60241000D02*
X173513323Y-63797000D01*
X173473323Y-60241000D02*
X173473323Y-63811000D01*
X176313323Y-56561000D02*
X176313323Y-61439000D01*
X176073323Y-56170000D02*
X176073323Y-61830000D01*
X171872323Y-53920000D02*
X171872323Y-64080000D01*
X176952323Y-59000000D02*
G75*
G03*
X176952323Y-59000000I-5120000J0D01*
G01*
D12*
%TO.C,J8*%
X58810000Y-74220000D02*
X56270000Y-74220000D01*
D11*
X53500000Y-80160000D02*
X61550000Y-80160000D01*
X61550000Y-80160000D02*
X61550000Y-74220000D01*
X61550000Y-74220000D02*
X53500000Y-74220000D01*
X53500000Y-74220000D02*
X53500000Y-80160000D01*
D12*
%TO.C,J25*%
X133285000Y-95220000D02*
X130745000Y-95220000D01*
D11*
X127975000Y-101160000D02*
X136025000Y-101160000D01*
X136025000Y-101160000D02*
X136025000Y-95220000D01*
X136025000Y-95220000D02*
X127975000Y-95220000D01*
X127975000Y-95220000D02*
X127975000Y-101160000D01*
D12*
%TO.C,J29*%
X69530000Y-95500000D02*
X71010000Y-95500000D01*
D11*
X72500000Y-100700000D02*
X72510000Y-95500000D01*
X68030000Y-100700000D02*
X68030000Y-95500000D01*
D12*
X68030000Y-100700000D02*
X72500000Y-100700000D01*
D11*
X68030000Y-95500000D02*
X72510000Y-95500000D01*
D12*
%TO.C,J19*%
X38030000Y-58700000D02*
X42500000Y-58700000D01*
D11*
X38030000Y-53500000D02*
X42510000Y-53500000D01*
X38030000Y-58700000D02*
X38030000Y-53500000D01*
D12*
X39530000Y-53500000D02*
X41010000Y-53500000D01*
D11*
X42500000Y-58700000D02*
X42510000Y-53500000D01*
D12*
%TO.C,J13*%
X88810000Y-95220000D02*
X86270000Y-95220000D01*
D11*
X83500000Y-101160000D02*
X91550000Y-101160000D01*
X91550000Y-101160000D02*
X91550000Y-95220000D01*
X91550000Y-95220000D02*
X83500000Y-95220000D01*
X83500000Y-95220000D02*
X83500000Y-101160000D01*
D12*
%TO.C,J31*%
X89285000Y-116220000D02*
X86745000Y-116220000D01*
D11*
X83975000Y-122160000D02*
X92025000Y-122160000D01*
X92025000Y-122160000D02*
X92025000Y-116220000D01*
X92025000Y-116220000D02*
X83975000Y-116220000D01*
X83975000Y-116220000D02*
X83975000Y-122160000D01*
D12*
%TO.C,J11*%
X88810000Y-53220000D02*
X86270000Y-53220000D01*
D11*
X83500000Y-59160000D02*
X91550000Y-59160000D01*
X91550000Y-59160000D02*
X91550000Y-53220000D01*
X91550000Y-53220000D02*
X83500000Y-53220000D01*
X83500000Y-53220000D02*
X83500000Y-59160000D01*
D12*
%TO.C,J35*%
X99530000Y-53500000D02*
X101010000Y-53500000D01*
D11*
X98030000Y-58700000D02*
X98030000Y-53500000D01*
D12*
X98030000Y-58700000D02*
X102500000Y-58700000D01*
D11*
X98030000Y-53500000D02*
X102510000Y-53500000D01*
X102500000Y-58700000D02*
X102510000Y-53500000D01*
D12*
%TO.C,J10*%
X88810000Y-32220000D02*
X86270000Y-32220000D01*
D11*
X83500000Y-38160000D02*
X91550000Y-38160000D01*
X91550000Y-38160000D02*
X91550000Y-32220000D01*
X91550000Y-32220000D02*
X83500000Y-32220000D01*
X83500000Y-32220000D02*
X83500000Y-38160000D01*
D12*
%TO.C,J6*%
X58810000Y-32220000D02*
X56270000Y-32220000D01*
D11*
X53500000Y-38160000D02*
X61550000Y-38160000D01*
X61550000Y-38160000D02*
X61550000Y-32220000D01*
X61550000Y-32220000D02*
X53500000Y-32220000D01*
X53500000Y-32220000D02*
X53500000Y-38160000D01*
D12*
%TO.C,J16*%
X118810000Y-74220000D02*
X116270000Y-74220000D01*
D11*
X113500000Y-80160000D02*
X121550000Y-80160000D01*
X121550000Y-80160000D02*
X121550000Y-74220000D01*
X121550000Y-74220000D02*
X113500000Y-74220000D01*
X113500000Y-74220000D02*
X113500000Y-80160000D01*
%TO.C,J26*%
X68030000Y-37700000D02*
X68030000Y-32500000D01*
D12*
X68030000Y-37700000D02*
X72500000Y-37700000D01*
X69530000Y-32500000D02*
X71010000Y-32500000D01*
D11*
X68030000Y-32500000D02*
X72510000Y-32500000D01*
X72500000Y-37700000D02*
X72510000Y-32500000D01*
%TO.C,J20*%
X38030000Y-74500000D02*
X42510000Y-74500000D01*
D12*
X38030000Y-79700000D02*
X42500000Y-79700000D01*
D11*
X38030000Y-79700000D02*
X38030000Y-74500000D01*
X42500000Y-79700000D02*
X42510000Y-74500000D01*
D12*
X39530000Y-74500000D02*
X41010000Y-74500000D01*
%TO.C,J30*%
X67810000Y-116220000D02*
X65270000Y-116220000D01*
D11*
X62500000Y-122160000D02*
X70550000Y-122160000D01*
X70550000Y-122160000D02*
X70550000Y-116220000D01*
X70550000Y-116220000D02*
X62500000Y-116220000D01*
X62500000Y-116220000D02*
X62500000Y-122160000D01*
D12*
%TO.C,J4*%
X28810000Y-74220000D02*
X26270000Y-74220000D01*
D11*
X23500000Y-80160000D02*
X31550000Y-80160000D01*
X31550000Y-80160000D02*
X31550000Y-74220000D01*
X31550000Y-74220000D02*
X23500000Y-74220000D01*
X23500000Y-74220000D02*
X23500000Y-80160000D01*
D12*
%TO.C,J17*%
X118810000Y-95220000D02*
X116270000Y-95220000D01*
D11*
X113500000Y-101160000D02*
X121550000Y-101160000D01*
X121550000Y-101160000D02*
X121550000Y-95220000D01*
X121550000Y-95220000D02*
X113500000Y-95220000D01*
X113500000Y-95220000D02*
X113500000Y-101160000D01*
D12*
%TO.C,J7*%
X58810000Y-53220000D02*
X56270000Y-53220000D01*
D11*
X53500000Y-59160000D02*
X61550000Y-59160000D01*
X61550000Y-59160000D02*
X61550000Y-53220000D01*
X61550000Y-53220000D02*
X53500000Y-53220000D01*
X53500000Y-53220000D02*
X53500000Y-59160000D01*
D10*
%TO.C,U3*%
X165890000Y-36017969D02*
X165890000Y-96977969D01*
X150650000Y-84277969D02*
X150650000Y-96977969D01*
X163350000Y-71577969D02*
X163350000Y-58877969D01*
X165890000Y-96977969D02*
X148110000Y-96977969D01*
X162080000Y-95707969D02*
X151920000Y-95707969D01*
X155730000Y-80467969D02*
X155730000Y-76657969D01*
X162080000Y-96977969D02*
X162080000Y-95707969D01*
X150650000Y-71577969D02*
X163350000Y-71577969D01*
X163350000Y-96977969D02*
X163350000Y-84277969D01*
X153190000Y-41097969D02*
X160810000Y-41097969D01*
X160810000Y-41097969D02*
X160810000Y-36017969D01*
X153190000Y-41097969D02*
X153190000Y-36017969D01*
X153190000Y-34747969D02*
X160810000Y-34747969D01*
X158270000Y-76657969D02*
X158270000Y-80467969D01*
X153190000Y-36017969D02*
X153190000Y-34747969D01*
X148110000Y-36017969D02*
X165890000Y-36017969D01*
X163350000Y-84277969D02*
X150650000Y-84277969D01*
X151920000Y-95707969D02*
X151920000Y-96977969D01*
X150650000Y-58877969D02*
X150650000Y-71577969D01*
X160810000Y-34747969D02*
X160810000Y-36017969D01*
X155730000Y-76657969D02*
X158270000Y-76657969D01*
X163350000Y-58877969D02*
X150650000Y-58877969D01*
X148110000Y-96977969D02*
X148110000Y-36017969D01*
X158270000Y-80467969D02*
X155730000Y-80467969D01*
X157898026Y-78562969D02*
G75*
G03*
X157898026Y-78562969I-898026J0D01*
G01*
G36*
X158069000Y-67154969D02*
G01*
X157688000Y-67408969D01*
X157434000Y-67154969D01*
X157815000Y-66900969D01*
X158069000Y-67154969D01*
G37*
D13*
X158069000Y-67154969D02*
X157688000Y-67408969D01*
X157434000Y-67154969D01*
X157815000Y-66900969D01*
X158069000Y-67154969D01*
G36*
X156926000Y-68678969D02*
G01*
X156545000Y-68932969D01*
X156291000Y-68678969D01*
X156672000Y-68424969D01*
X156926000Y-68678969D01*
G37*
X156926000Y-68678969D02*
X156545000Y-68932969D01*
X156291000Y-68678969D01*
X156672000Y-68424969D01*
X156926000Y-68678969D01*
G36*
X157434000Y-68297969D02*
G01*
X157053000Y-68551969D01*
X156799000Y-68297969D01*
X157180000Y-68043969D01*
X157434000Y-68297969D01*
G37*
X157434000Y-68297969D02*
X157053000Y-68551969D01*
X156799000Y-68297969D01*
X157180000Y-68043969D01*
X157434000Y-68297969D01*
G36*
X157561000Y-67535969D02*
G01*
X157180000Y-67789969D01*
X156926000Y-67535969D01*
X157307000Y-67281969D01*
X157561000Y-67535969D01*
G37*
X157561000Y-67535969D02*
X157180000Y-67789969D01*
X156926000Y-67535969D01*
X157307000Y-67281969D01*
X157561000Y-67535969D01*
G36*
X157688000Y-69440969D02*
G01*
X157307000Y-69694969D01*
X157053000Y-69440969D01*
X157434000Y-69186969D01*
X157688000Y-69440969D01*
G37*
X157688000Y-69440969D02*
X157307000Y-69694969D01*
X157053000Y-69440969D01*
X157434000Y-69186969D01*
X157688000Y-69440969D01*
G36*
X157942000Y-67916969D02*
G01*
X157561000Y-68170969D01*
X157307000Y-67916969D01*
X157688000Y-67662969D01*
X157942000Y-67916969D01*
G37*
X157942000Y-67916969D02*
X157561000Y-68170969D01*
X157307000Y-67916969D01*
X157688000Y-67662969D01*
X157942000Y-67916969D01*
G36*
X157307000Y-69059969D02*
G01*
X156926000Y-69313969D01*
X156672000Y-69059969D01*
X157053000Y-68805969D01*
X157307000Y-69059969D01*
G37*
X157307000Y-69059969D02*
X156926000Y-69313969D01*
X156672000Y-69059969D01*
X157053000Y-68805969D01*
X157307000Y-69059969D01*
G36*
X157053000Y-67916969D02*
G01*
X156672000Y-68170969D01*
X156418000Y-67916969D01*
X156799000Y-67662969D01*
X157053000Y-67916969D01*
G37*
X157053000Y-67916969D02*
X156672000Y-68170969D01*
X156418000Y-67916969D01*
X156799000Y-67662969D01*
X157053000Y-67916969D01*
D12*
%TO.C,J27*%
X68030000Y-58700000D02*
X72500000Y-58700000D01*
D11*
X72500000Y-58700000D02*
X72510000Y-53500000D01*
D12*
X69530000Y-53500000D02*
X71010000Y-53500000D01*
D11*
X68030000Y-53500000D02*
X72510000Y-53500000D01*
X68030000Y-58700000D02*
X68030000Y-53500000D01*
D12*
%TO.C,J24*%
X133285000Y-74320000D02*
X130745000Y-74320000D01*
D11*
X127975000Y-80260000D02*
X136025000Y-80260000D01*
X136025000Y-80260000D02*
X136025000Y-74320000D01*
X136025000Y-74320000D02*
X127975000Y-74320000D01*
X127975000Y-74320000D02*
X127975000Y-80260000D01*
%TO.C,J37*%
X98030000Y-95500000D02*
X102510000Y-95500000D01*
X102500000Y-100700000D02*
X102510000Y-95500000D01*
D12*
X99530000Y-95500000D02*
X101010000Y-95500000D01*
D11*
X98030000Y-100700000D02*
X98030000Y-95500000D01*
D12*
X98030000Y-100700000D02*
X102500000Y-100700000D01*
D11*
%TO.C,J39*%
X47498849Y-121700000D02*
X47508849Y-116500000D01*
X43028849Y-116500000D02*
X47508849Y-116500000D01*
X43028849Y-121700000D02*
X43028849Y-116500000D01*
D12*
X44528849Y-116500000D02*
X46008849Y-116500000D01*
X43028849Y-121700000D02*
X47498849Y-121700000D01*
%TO.C,J2*%
X28810000Y-32220000D02*
X26270000Y-32220000D01*
D11*
X23500000Y-38160000D02*
X31550000Y-38160000D01*
X31550000Y-38160000D02*
X31550000Y-32220000D01*
X31550000Y-32220000D02*
X23500000Y-32220000D01*
X23500000Y-32220000D02*
X23500000Y-38160000D01*
%TO.C,J40*%
X141002500Y-104420000D02*
X141002500Y-122380000D01*
X156522500Y-104420000D02*
X141002500Y-104420000D01*
X141002500Y-122380000D02*
X156522500Y-122380000D01*
X156522500Y-104420000D02*
X156522500Y-122380000D01*
X140317500Y-107800000D02*
X140317500Y-108800000D01*
X140317500Y-108800000D02*
X140817500Y-108300000D01*
X140817500Y-108300000D02*
X140317500Y-107800000D01*
%TO.C,J38*%
X28630000Y-121700000D02*
X28640000Y-116500000D01*
X24160000Y-116500000D02*
X28640000Y-116500000D01*
D12*
X24160000Y-121700000D02*
X28630000Y-121700000D01*
D11*
X24160000Y-121700000D02*
X24160000Y-116500000D01*
D12*
X25660000Y-116500000D02*
X27140000Y-116500000D01*
%TO.C,J22*%
X133285000Y-32320000D02*
X130745000Y-32320000D01*
D11*
X127975000Y-38260000D02*
X136025000Y-38260000D01*
X136025000Y-38260000D02*
X136025000Y-32320000D01*
X136025000Y-32320000D02*
X127975000Y-32320000D01*
X127975000Y-32320000D02*
X127975000Y-38260000D01*
D12*
%TO.C,J5*%
X28810000Y-95220000D02*
X26270000Y-95220000D01*
D11*
X23500000Y-101160000D02*
X31550000Y-101160000D01*
X31550000Y-101160000D02*
X31550000Y-95220000D01*
X31550000Y-95220000D02*
X23500000Y-95220000D01*
X23500000Y-95220000D02*
X23500000Y-101160000D01*
D12*
%TO.C,J23*%
X133285000Y-53320000D02*
X130745000Y-53320000D01*
D11*
X127975000Y-59260000D02*
X136025000Y-59260000D01*
X136025000Y-59260000D02*
X136025000Y-53320000D01*
X136025000Y-53320000D02*
X127975000Y-53320000D01*
X127975000Y-53320000D02*
X127975000Y-59260000D01*
D12*
%TO.C,J15*%
X118810000Y-53220000D02*
X116270000Y-53220000D01*
D11*
X113500000Y-59160000D02*
X121550000Y-59160000D01*
X121550000Y-59160000D02*
X121550000Y-53220000D01*
X121550000Y-53220000D02*
X113500000Y-53220000D01*
X113500000Y-53220000D02*
X113500000Y-59160000D01*
%TO.C,J28*%
X68030000Y-79700000D02*
X68030000Y-74500000D01*
X72500000Y-79700000D02*
X72510000Y-74500000D01*
X68030000Y-74500000D02*
X72510000Y-74500000D01*
D12*
X69530000Y-74500000D02*
X71010000Y-74500000D01*
X68030000Y-79700000D02*
X72500000Y-79700000D01*
D10*
%TO.C,J1*%
X176976930Y-133275000D02*
X176976930Y-124275000D01*
X175526930Y-123275000D02*
X163026930Y-123275000D01*
X176976930Y-103275000D02*
X161576930Y-103275000D01*
X176976930Y-133125000D02*
X161576930Y-133125000D01*
X161576930Y-124275000D02*
X161576930Y-133275000D01*
X176976930Y-110025000D02*
X161576930Y-110025000D01*
X161576930Y-110025000D02*
X161576930Y-122275000D01*
X176976930Y-122275000D02*
X176976930Y-110025000D01*
X176976930Y-110025000D02*
X176976930Y-103275000D01*
X169276930Y-133025000D02*
X169276930Y-110025000D01*
X161576930Y-103275000D02*
X161576930Y-110025000D01*
D12*
%TO.C,J14*%
X118810000Y-32220000D02*
X116270000Y-32220000D01*
D11*
X113500000Y-38160000D02*
X121550000Y-38160000D01*
X121550000Y-38160000D02*
X121550000Y-32220000D01*
X121550000Y-32220000D02*
X113500000Y-32220000D01*
X113500000Y-32220000D02*
X113500000Y-38160000D01*
%TO.C,J21*%
X42500000Y-100700000D02*
X42510000Y-95500000D01*
D12*
X38030000Y-100700000D02*
X42500000Y-100700000D01*
X39530000Y-95500000D02*
X41010000Y-95500000D01*
D11*
X38030000Y-100700000D02*
X38030000Y-95500000D01*
X38030000Y-95500000D02*
X42510000Y-95500000D01*
D12*
%TO.C,J32*%
X110285000Y-116220000D02*
X107745000Y-116220000D01*
D11*
X104975000Y-122160000D02*
X113025000Y-122160000D01*
X113025000Y-122160000D02*
X113025000Y-116220000D01*
X113025000Y-116220000D02*
X104975000Y-116220000D01*
X104975000Y-116220000D02*
X104975000Y-122160000D01*
D12*
%TO.C,J9*%
X58810000Y-95220000D02*
X56270000Y-95220000D01*
D11*
X53500000Y-101160000D02*
X61550000Y-101160000D01*
X61550000Y-101160000D02*
X61550000Y-95220000D01*
X61550000Y-95220000D02*
X53500000Y-95220000D01*
X53500000Y-95220000D02*
X53500000Y-101160000D01*
D12*
%TO.C,J33*%
X133285000Y-116220000D02*
X130745000Y-116220000D01*
D11*
X127975000Y-122160000D02*
X136025000Y-122160000D01*
X136025000Y-122160000D02*
X136025000Y-116220000D01*
X136025000Y-116220000D02*
X127975000Y-116220000D01*
X127975000Y-116220000D02*
X127975000Y-122160000D01*
D12*
%TO.C,J36*%
X99530000Y-74500000D02*
X101010000Y-74500000D01*
D11*
X98030000Y-79700000D02*
X98030000Y-74500000D01*
D12*
X98030000Y-79700000D02*
X102500000Y-79700000D01*
D11*
X102500000Y-79700000D02*
X102510000Y-74500000D01*
X98030000Y-74500000D02*
X102510000Y-74500000D01*
D12*
%TO.C,J3*%
X28810000Y-53220000D02*
X26270000Y-53220000D01*
D11*
X23500000Y-59160000D02*
X31550000Y-59160000D01*
X31550000Y-59160000D02*
X31550000Y-53220000D01*
X31550000Y-53220000D02*
X23500000Y-53220000D01*
X23500000Y-53220000D02*
X23500000Y-59160000D01*
%TO.C,J18*%
X42500000Y-37700000D02*
X42510000Y-32500000D01*
D12*
X39530000Y-32500000D02*
X41010000Y-32500000D01*
D11*
X38030000Y-37700000D02*
X38030000Y-32500000D01*
X38030000Y-32500000D02*
X42510000Y-32500000D01*
D12*
X38030000Y-37700000D02*
X42500000Y-37700000D01*
D11*
%TO.C,D6*%
X172485000Y-51635000D02*
X172485000Y-50165000D01*
X172485000Y-50165000D02*
X170200000Y-50165000D01*
X170200000Y-51635000D02*
X172485000Y-51635000D01*
%TO.C,C5*%
X169639000Y-101990000D02*
X169639000Y-98541000D01*
X166839000Y-99146000D02*
X166839000Y-95454000D01*
X167679000Y-100554000D02*
X167679000Y-94046000D01*
X167199000Y-99879000D02*
X167199000Y-94721000D01*
X166679000Y-98678000D02*
X166679000Y-95922000D01*
X169679000Y-96059000D02*
X169679000Y-92593000D01*
X168159000Y-101053000D02*
X168159000Y-98541000D01*
X167239000Y-99945000D02*
X167239000Y-94655000D01*
X170960000Y-102340000D02*
X170960000Y-92260000D01*
X168399000Y-96059000D02*
X168399000Y-93343000D01*
X170079000Y-96059000D02*
X170079000Y-92450000D01*
X169759000Y-96059000D02*
X169759000Y-92562000D01*
X170639000Y-102290000D02*
X170639000Y-92310000D01*
X169639000Y-96059000D02*
X169639000Y-92610000D01*
X171520000Y-102380000D02*
X171520000Y-92220000D01*
X168359000Y-101225000D02*
X168359000Y-98541000D01*
X170559000Y-102274000D02*
X170559000Y-92326000D01*
X167439000Y-100245000D02*
X167439000Y-94355000D01*
X169519000Y-96059000D02*
X169519000Y-92661000D01*
X169599000Y-96059000D02*
X169599000Y-92626000D01*
X168999000Y-101671000D02*
X168999000Y-98541000D01*
X167719000Y-100601000D02*
X167719000Y-93999000D01*
X168439000Y-101289000D02*
X168439000Y-98541000D01*
X170719000Y-102304000D02*
X170719000Y-92296000D01*
X169399000Y-101884000D02*
X169399000Y-98541000D01*
X170519000Y-102265000D02*
X170519000Y-92335000D01*
X171360000Y-102375000D02*
X171360000Y-92225000D01*
X169439000Y-96059000D02*
X169439000Y-92697000D01*
X170319000Y-102218000D02*
X170319000Y-98541000D01*
X168919000Y-101623000D02*
X168919000Y-98541000D01*
X168559000Y-101380000D02*
X168559000Y-98541000D01*
X170759000Y-102311000D02*
X170759000Y-92289000D01*
X168799000Y-101547000D02*
X168799000Y-98541000D01*
X168239000Y-101124000D02*
X168239000Y-98541000D01*
X170439000Y-102247000D02*
X170439000Y-92353000D01*
X170679000Y-102297000D02*
X170679000Y-92303000D01*
X170239000Y-102197000D02*
X170239000Y-98541000D01*
X168519000Y-101350000D02*
X168519000Y-98541000D01*
X166799000Y-99042000D02*
X166799000Y-95558000D01*
X170039000Y-102137000D02*
X170039000Y-98541000D01*
X167999000Y-100901000D02*
X167999000Y-98541000D01*
X177079646Y-100175000D02*
X176079646Y-100175000D01*
X168519000Y-96059000D02*
X168519000Y-93250000D01*
X169839000Y-102068000D02*
X169839000Y-98541000D01*
X171400000Y-102377000D02*
X171400000Y-92223000D01*
X169919000Y-96059000D02*
X169919000Y-92503000D01*
X167119000Y-99739000D02*
X167119000Y-94861000D01*
X169319000Y-96059000D02*
X169319000Y-92755000D01*
X167599000Y-100456000D02*
X167599000Y-94144000D01*
X167959000Y-96059000D02*
X167959000Y-93739000D01*
X168799000Y-96059000D02*
X168799000Y-93053000D01*
X169879000Y-96059000D02*
X169879000Y-92517000D01*
X167879000Y-96059000D02*
X167879000Y-93822000D01*
X171440000Y-102378000D02*
X171440000Y-92222000D01*
X168199000Y-96059000D02*
X168199000Y-93511000D01*
X167639000Y-100506000D02*
X167639000Y-94094000D01*
X168559000Y-96059000D02*
X168559000Y-93220000D01*
X169279000Y-96059000D02*
X169279000Y-92775000D01*
X169319000Y-101845000D02*
X169319000Y-98541000D01*
X169399000Y-96059000D02*
X169399000Y-92716000D01*
X168879000Y-101598000D02*
X168879000Y-98541000D01*
X170239000Y-96059000D02*
X170239000Y-92403000D01*
X166719000Y-98810000D02*
X166719000Y-95790000D01*
X171000000Y-102345000D02*
X171000000Y-92255000D01*
X167999000Y-96059000D02*
X167999000Y-93699000D01*
X170199000Y-96059000D02*
X170199000Y-92415000D01*
X170359000Y-102228000D02*
X170359000Y-92372000D01*
X171200000Y-102365000D02*
X171200000Y-92235000D01*
X170119000Y-102162000D02*
X170119000Y-98541000D01*
X170479000Y-102256000D02*
X170479000Y-92344000D01*
X169079000Y-96059000D02*
X169079000Y-92883000D01*
X169959000Y-96059000D02*
X169959000Y-92489000D01*
X168479000Y-96059000D02*
X168479000Y-93280000D01*
X168639000Y-101438000D02*
X168639000Y-98541000D01*
X169479000Y-101921000D02*
X169479000Y-98541000D01*
X169999000Y-96059000D02*
X169999000Y-92476000D01*
X169599000Y-101974000D02*
X169599000Y-98541000D01*
X167479000Y-100300000D02*
X167479000Y-94300000D01*
X171040000Y-102350000D02*
X171040000Y-92250000D01*
X166999000Y-99509000D02*
X166999000Y-95091000D01*
X168679000Y-96059000D02*
X168679000Y-93134000D01*
X168919000Y-96059000D02*
X168919000Y-92977000D01*
X166639000Y-98530000D02*
X166639000Y-96070000D01*
X168199000Y-101089000D02*
X168199000Y-98541000D01*
X169199000Y-101783000D02*
X169199000Y-98541000D01*
X167839000Y-100736000D02*
X167839000Y-93864000D01*
X171240000Y-102368000D02*
X171240000Y-92232000D01*
X168679000Y-101466000D02*
X168679000Y-98541000D01*
X169799000Y-102054000D02*
X169799000Y-98541000D01*
X167759000Y-100647000D02*
X167759000Y-93953000D01*
X167919000Y-100820000D02*
X167919000Y-98541000D01*
X169199000Y-96059000D02*
X169199000Y-92817000D01*
X166959000Y-99425000D02*
X166959000Y-95175000D01*
X168839000Y-101573000D02*
X168839000Y-98541000D01*
X170119000Y-96059000D02*
X170119000Y-92438000D01*
X169159000Y-101762000D02*
X169159000Y-98541000D01*
X168599000Y-101410000D02*
X168599000Y-98541000D01*
X168719000Y-96059000D02*
X168719000Y-93106000D01*
X169559000Y-101957000D02*
X169559000Y-98541000D01*
X169759000Y-102038000D02*
X169759000Y-98541000D01*
X169719000Y-102023000D02*
X169719000Y-98541000D01*
X168999000Y-96059000D02*
X168999000Y-92929000D01*
X168039000Y-96059000D02*
X168039000Y-93660000D01*
X169519000Y-101939000D02*
X169519000Y-98541000D01*
X169279000Y-101825000D02*
X169279000Y-98541000D01*
X170159000Y-102174000D02*
X170159000Y-98541000D01*
X167919000Y-96059000D02*
X167919000Y-93780000D01*
X168959000Y-96059000D02*
X168959000Y-92953000D01*
X168079000Y-96059000D02*
X168079000Y-93621000D01*
X169999000Y-102124000D02*
X169999000Y-98541000D01*
X166919000Y-99337000D02*
X166919000Y-95263000D01*
X169439000Y-101903000D02*
X169439000Y-98541000D01*
X168279000Y-96059000D02*
X168279000Y-93442000D01*
X169359000Y-96059000D02*
X169359000Y-92736000D01*
X169679000Y-102007000D02*
X169679000Y-98541000D01*
X169039000Y-101695000D02*
X169039000Y-98541000D01*
X171600000Y-102380000D02*
X171600000Y-92220000D01*
X168439000Y-96059000D02*
X168439000Y-93311000D01*
X166519000Y-97899000D02*
X166519000Y-96701000D01*
X171320000Y-102373000D02*
X171320000Y-92227000D01*
X169719000Y-96059000D02*
X169719000Y-92577000D01*
X168319000Y-96059000D02*
X168319000Y-93408000D01*
X170279000Y-102207000D02*
X170279000Y-98541000D01*
X166879000Y-99244000D02*
X166879000Y-95356000D01*
X168319000Y-101192000D02*
X168319000Y-98541000D01*
X170799000Y-102318000D02*
X170799000Y-92282000D01*
X168759000Y-101521000D02*
X168759000Y-98541000D01*
X167879000Y-100778000D02*
X167879000Y-98541000D01*
X169239000Y-96059000D02*
X169239000Y-92796000D01*
X168039000Y-100940000D02*
X168039000Y-98541000D01*
X171560000Y-102380000D02*
X171560000Y-92220000D01*
X171080000Y-102354000D02*
X171080000Y-92246000D01*
X167159000Y-99810000D02*
X167159000Y-94790000D01*
X168839000Y-96059000D02*
X168839000Y-93027000D01*
X166599000Y-98362000D02*
X166599000Y-96238000D01*
X169159000Y-96059000D02*
X169159000Y-92838000D01*
X169119000Y-101740000D02*
X169119000Y-98541000D01*
X169039000Y-96059000D02*
X169039000Y-92905000D01*
X171480000Y-102379000D02*
X171480000Y-92221000D01*
X168159000Y-96059000D02*
X168159000Y-93547000D01*
X168239000Y-96059000D02*
X168239000Y-93476000D01*
X168879000Y-96059000D02*
X168879000Y-93002000D01*
X167799000Y-100692000D02*
X167799000Y-93908000D01*
X166559000Y-98162000D02*
X166559000Y-96438000D01*
X168359000Y-96059000D02*
X168359000Y-93375000D01*
X168959000Y-101647000D02*
X168959000Y-98541000D01*
X169239000Y-101804000D02*
X169239000Y-98541000D01*
X168079000Y-100979000D02*
X168079000Y-98541000D01*
X169559000Y-96059000D02*
X169559000Y-92643000D01*
X169079000Y-101717000D02*
X169079000Y-98541000D01*
X167279000Y-100009000D02*
X167279000Y-94591000D01*
X170920000Y-102335000D02*
X170920000Y-92265000D01*
X168759000Y-96059000D02*
X168759000Y-93079000D01*
X169839000Y-96059000D02*
X169839000Y-92532000D01*
X168639000Y-96059000D02*
X168639000Y-93162000D01*
X169479000Y-96059000D02*
X169479000Y-92679000D01*
X168599000Y-96059000D02*
X168599000Y-93190000D01*
X171280000Y-102370000D02*
X171280000Y-92230000D01*
X167359000Y-100130000D02*
X167359000Y-94470000D01*
X170599000Y-102282000D02*
X170599000Y-92318000D01*
X169919000Y-102097000D02*
X169919000Y-98541000D01*
X170279000Y-96059000D02*
X170279000Y-92393000D01*
X169119000Y-96059000D02*
X169119000Y-92860000D01*
X168479000Y-101320000D02*
X168479000Y-98541000D01*
X168279000Y-101158000D02*
X168279000Y-98541000D01*
X170159000Y-96059000D02*
X170159000Y-92426000D01*
X167079000Y-99665000D02*
X167079000Y-94935000D01*
X167319000Y-100070000D02*
X167319000Y-94530000D01*
X166759000Y-98930000D02*
X166759000Y-95670000D01*
X167519000Y-100354000D02*
X167519000Y-94246000D01*
X168399000Y-101257000D02*
X168399000Y-98541000D01*
X169879000Y-102083000D02*
X169879000Y-98541000D01*
X169359000Y-101864000D02*
X169359000Y-98541000D01*
X168119000Y-96059000D02*
X168119000Y-93584000D01*
X176579646Y-100675000D02*
X176579646Y-99675000D01*
X170319000Y-96059000D02*
X170319000Y-92382000D01*
X167559000Y-100406000D02*
X167559000Y-94194000D01*
X169959000Y-102111000D02*
X169959000Y-98541000D01*
X170879000Y-102330000D02*
X170879000Y-92270000D01*
X171120000Y-102358000D02*
X171120000Y-92242000D01*
X168719000Y-101494000D02*
X168719000Y-98541000D01*
X170839000Y-102324000D02*
X170839000Y-92276000D01*
X170079000Y-102150000D02*
X170079000Y-98541000D01*
X167039000Y-99589000D02*
X167039000Y-95011000D01*
X170399000Y-102238000D02*
X170399000Y-92362000D01*
X169799000Y-96059000D02*
X169799000Y-92546000D01*
X167959000Y-100861000D02*
X167959000Y-98541000D01*
X170039000Y-96059000D02*
X170039000Y-92463000D01*
X171160000Y-102362000D02*
X171160000Y-92238000D01*
X170199000Y-102185000D02*
X170199000Y-98541000D01*
X167399000Y-100189000D02*
X167399000Y-94411000D01*
X168119000Y-101016000D02*
X168119000Y-98541000D01*
X176720000Y-97300000D02*
G75*
G03*
X176720000Y-97300000I-5120000J0D01*
G01*
D12*
%TO.C,J34*%
X99530000Y-32500000D02*
X101010000Y-32500000D01*
D11*
X102500000Y-37700000D02*
X102510000Y-32500000D01*
X98030000Y-32500000D02*
X102510000Y-32500000D01*
X98030000Y-37700000D02*
X98030000Y-32500000D01*
D12*
X98030000Y-37700000D02*
X102500000Y-37700000D01*
%TO.C,J12*%
X88810000Y-74220000D02*
X86270000Y-74220000D01*
D11*
X83500000Y-80160000D02*
X91550000Y-80160000D01*
X91550000Y-80160000D02*
X91550000Y-74220000D01*
X91550000Y-74220000D02*
X83500000Y-74220000D01*
X83500000Y-74220000D02*
X83500000Y-80160000D01*
%TD*%
%LPC*%
D14*
%TO.C,C56*%
X169332323Y-59000000D03*
D15*
X174332323Y-59000000D03*
%TD*%
D16*
%TO.C,J8*%
X55000000Y-77000000D03*
D17*
X57540000Y-77000000D03*
X60080000Y-77000000D03*
%TD*%
D16*
%TO.C,J25*%
X129475000Y-98000000D03*
D17*
X132015000Y-98000000D03*
X134555000Y-98000000D03*
%TD*%
D16*
%TO.C,J29*%
X69000000Y-98000000D03*
D17*
X71540000Y-98000000D03*
%TD*%
D16*
%TO.C,J19*%
X39000000Y-56000000D03*
D17*
X41540000Y-56000000D03*
%TD*%
D16*
%TO.C,J13*%
X85000000Y-98000000D03*
D17*
X87540000Y-98000000D03*
X90080000Y-98000000D03*
%TD*%
D16*
%TO.C,J31*%
X85475000Y-119000000D03*
D17*
X88015000Y-119000000D03*
X90555000Y-119000000D03*
%TD*%
D18*
%TO.C,H4*%
X49000000Y-35000000D03*
%TD*%
D16*
%TO.C,J11*%
X85000000Y-56000000D03*
D17*
X87540000Y-56000000D03*
X90080000Y-56000000D03*
%TD*%
D16*
%TO.C,J35*%
X99000000Y-56000000D03*
D17*
X101540000Y-56000000D03*
%TD*%
D16*
%TO.C,J10*%
X85000000Y-35000000D03*
D17*
X87540000Y-35000000D03*
X90080000Y-35000000D03*
%TD*%
D16*
%TO.C,J6*%
X55000000Y-35000000D03*
D17*
X57540000Y-35000000D03*
X60080000Y-35000000D03*
%TD*%
D16*
%TO.C,J16*%
X115000000Y-77000000D03*
D17*
X117540000Y-77000000D03*
X120080000Y-77000000D03*
%TD*%
D16*
%TO.C,J26*%
X69000000Y-35000000D03*
D17*
X71540000Y-35000000D03*
%TD*%
D16*
%TO.C,J20*%
X39000000Y-77000000D03*
D17*
X41540000Y-77000000D03*
%TD*%
D16*
%TO.C,J30*%
X64000000Y-119000000D03*
D17*
X66540000Y-119000000D03*
X69080000Y-119000000D03*
%TD*%
D16*
%TO.C,J4*%
X25000000Y-77000000D03*
D17*
X27540000Y-77000000D03*
X30080000Y-77000000D03*
%TD*%
D16*
%TO.C,J17*%
X115000000Y-98000000D03*
D17*
X117540000Y-98000000D03*
X120080000Y-98000000D03*
%TD*%
D16*
%TO.C,J7*%
X55000000Y-56000000D03*
D17*
X57540000Y-56000000D03*
X60080000Y-56000000D03*
%TD*%
D19*
%TO.C,U3*%
X149380000Y-37287969D03*
D20*
X149380000Y-39827969D03*
X149380000Y-42367969D03*
X149380000Y-44907969D03*
X149380000Y-47447969D03*
X149380000Y-49987969D03*
X149380000Y-52527969D03*
X149380000Y-55067969D03*
X149380000Y-57607969D03*
X149380000Y-60147969D03*
X149380000Y-62687969D03*
X149380000Y-65227969D03*
X149380000Y-67767969D03*
X149380000Y-70307969D03*
X149380000Y-72847969D03*
X149380000Y-75387969D03*
X149380000Y-77927969D03*
X149380000Y-80467969D03*
X149380000Y-83007969D03*
X149380000Y-85547969D03*
X149380000Y-88087969D03*
X149380000Y-90627969D03*
X149380000Y-93167969D03*
X149380000Y-95707969D03*
X164620000Y-95707969D03*
X164620000Y-93167969D03*
X164620000Y-90627969D03*
X164620000Y-88087969D03*
X164620000Y-85547969D03*
X164620000Y-83007969D03*
X164620000Y-80467969D03*
X164620000Y-77927969D03*
X164620000Y-75387969D03*
X164620000Y-72847969D03*
X164620000Y-70307969D03*
X164620000Y-67767969D03*
X164620000Y-65227969D03*
X164620000Y-62687969D03*
X164620000Y-60147969D03*
X164620000Y-57607969D03*
X164620000Y-55067969D03*
X164620000Y-52527969D03*
X164620000Y-49987969D03*
X164620000Y-47447969D03*
X164620000Y-44907969D03*
X164620000Y-42367969D03*
X164620000Y-39827969D03*
X164620000Y-37287969D03*
X162080000Y-39827969D03*
X151920000Y-83007969D03*
%TD*%
D16*
%TO.C,J27*%
X69000000Y-56000000D03*
D17*
X71540000Y-56000000D03*
%TD*%
D18*
%TO.C,H2*%
X35000000Y-119000000D03*
%TD*%
D16*
%TO.C,J24*%
X129475000Y-77100000D03*
D17*
X132015000Y-77100000D03*
X134555000Y-77100000D03*
%TD*%
D16*
%TO.C,J37*%
X99000000Y-98000000D03*
D17*
X101540000Y-98000000D03*
%TD*%
D18*
%TO.C,H1*%
X142000000Y-35000000D03*
%TD*%
D16*
%TO.C,J39*%
X43998849Y-119000000D03*
D17*
X46538849Y-119000000D03*
%TD*%
D16*
%TO.C,J2*%
X25000000Y-35000000D03*
D17*
X27540000Y-35000000D03*
X30080000Y-35000000D03*
%TD*%
D18*
%TO.C,J40*%
X143047500Y-114650000D03*
X154477500Y-114650000D03*
D21*
X144317500Y-108300000D03*
D22*
X145587500Y-105760000D03*
X146857500Y-108300000D03*
X148127500Y-105760000D03*
X149397500Y-108300000D03*
X150667500Y-105760000D03*
X151937500Y-108300000D03*
X153207500Y-105760000D03*
%TD*%
D16*
%TO.C,J38*%
X25130000Y-119000000D03*
D17*
X27670000Y-119000000D03*
%TD*%
D16*
%TO.C,J22*%
X129475000Y-35100000D03*
D17*
X132015000Y-35100000D03*
X134555000Y-35100000D03*
%TD*%
D16*
%TO.C,J5*%
X25000000Y-98000000D03*
D17*
X27540000Y-98000000D03*
X30080000Y-98000000D03*
%TD*%
D16*
%TO.C,J23*%
X129475000Y-56100000D03*
D17*
X132015000Y-56100000D03*
X134555000Y-56100000D03*
%TD*%
D16*
%TO.C,J15*%
X115000000Y-56000000D03*
D17*
X117540000Y-56000000D03*
X120080000Y-56000000D03*
%TD*%
D16*
%TO.C,J28*%
X69000000Y-77000000D03*
D17*
X71540000Y-77000000D03*
%TD*%
D23*
%TO.C,J1*%
X173226930Y-105025000D03*
X165326930Y-105025000D03*
%TD*%
D16*
%TO.C,J14*%
X115000000Y-35000000D03*
D17*
X117540000Y-35000000D03*
X120080000Y-35000000D03*
%TD*%
D16*
%TO.C,J21*%
X39000000Y-98000000D03*
D17*
X41540000Y-98000000D03*
%TD*%
D16*
%TO.C,J32*%
X106475000Y-119000000D03*
D17*
X109015000Y-119000000D03*
X111555000Y-119000000D03*
%TD*%
D16*
%TO.C,J9*%
X55000000Y-98000000D03*
D17*
X57540000Y-98000000D03*
X60080000Y-98000000D03*
%TD*%
D16*
%TO.C,J33*%
X129475000Y-119000000D03*
D17*
X132015000Y-119000000D03*
X134555000Y-119000000D03*
%TD*%
D16*
%TO.C,J36*%
X99000000Y-77000000D03*
D17*
X101540000Y-77000000D03*
%TD*%
D16*
%TO.C,J3*%
X25000000Y-56000000D03*
D17*
X27540000Y-56000000D03*
X30080000Y-56000000D03*
%TD*%
D16*
%TO.C,J18*%
X39000000Y-35000000D03*
D17*
X41540000Y-35000000D03*
%TD*%
D24*
%TO.C,D6*%
X171787500Y-50900000D03*
X170212500Y-50900000D03*
%TD*%
D14*
%TO.C,C5*%
X174100000Y-97300000D03*
D15*
X169100000Y-97300000D03*
%TD*%
D18*
%TO.C,H3*%
X133000000Y-108400000D03*
%TD*%
D16*
%TO.C,J34*%
X99000000Y-35000000D03*
D17*
X101540000Y-35000000D03*
%TD*%
D16*
%TO.C,J12*%
X85000000Y-77000000D03*
D17*
X87540000Y-77000000D03*
X90080000Y-77000000D03*
%TD*%
M02*
