M48
; DRILL file {KiCad 6.0.4-6f826c9f35~116~ubuntu20.04.1} date Thu 28 Apr 2022 11:04:13 PM MDT
; FORMAT={-:-/ absolute / metric / decimal}
; #@! TF.CreationDate,2022-04-28T23:04:13-06:00
; #@! TF.GenerationSoftware,Kicad,Pcbnew,6.0.4-6f826c9f35~116~ubuntu20.04.1
; #@! TF.FileFunction,Plated,1,2,PTH
FMAT,2
METRIC
; #@! TA.AperFunction,Plated,PTH,ViaDrill
T1C0.400
; #@! TA.AperFunction,Plated,PTH,ComponentDrill
T2C1.000
; #@! TA.AperFunction,Plated,PTH,ComponentDrill
T3C1.100
%
G90
G05
T1
X24.4Y-29.7
X24.6Y-19.7
X24.7Y-104.5
X26.6Y-117.9
X26.8Y-60.2
X26.9Y-72.7
X27.6Y-45.1
X27.6Y-87.6
X27.6Y-88.4
X27.7Y-46.2
X28.7Y-41.3
X28.8Y-82.8
X28.8Y-89.7
X29.2Y-47.7
X35.0Y-101.5
X35.1Y-95.3
X39.0Y-49.1
X39.1Y-19.8
X40.7Y-30.5
X40.708Y-94.292
X40.8Y-73.0
X44.6Y-105.8
X45.8Y-115.4
X51.0Y-95.6
X51.0Y-101.1
X52.7Y-71.6
X52.8Y-50.7
X53.2Y-47.7
X53.5Y-19.7
X53.5Y-44.0
X57.3Y-71.6
X57.6Y-46.9
X57.6Y-87.0
X57.6Y-89.1
X57.7Y-44.5
X59.2Y-42.9
X59.2Y-48.0
X63.2Y-105.3
X66.5Y-101.1
X66.7Y-95.5
X67.4Y-19.5
X68.0Y-82.0
X69.1Y-50.1
X70.4Y-80.0
X70.6Y-93.4
X70.7Y-31.1
X78.2Y-100.9
X78.3Y-95.9
X80.9Y-71.6
X81.2Y-105.5
X83.1Y-43.1
X83.3Y-47.9
X85.3Y-19.2
X87.6Y-41.7
X87.6Y-47.8
X87.6Y-86.1
X87.6Y-90.0
X88.5Y-71.6
X91.4Y-52.0
X93.0Y-71.9
X94.8Y-101.3
X94.9Y-95.4
X95.2Y-53.3
X99.0Y-51.0
X100.4Y-91.0
X100.6Y-101.4
X101.3Y-105.3
X102.1Y-31.9
X105.3Y-19.7
X109.5Y-95.5
X109.5Y-100.5
X110.3Y-53.4
X110.8Y-80.8
X112.6Y-95.6
X112.6Y-100.4
X112.9Y-71.9
X115.0Y-43.1
X115.0Y-85.2
X115.0Y-103.7
X117.5Y-83.9
X117.6Y-92.71
X117.7Y-40.9
X117.8Y-50.5
X121.1Y-71.5
X121.4Y-19.4
X121.7Y-105.5
X124.6Y-39.5
X125.6Y-95.5
X125.7Y-100.6
X126.7Y-96.3
X126.7Y-120.9
X129.0Y-39.6
X129.1Y-100.3
X130.4Y-40.2
X130.5Y-71.6
X130.789Y-45.342
X130.875Y-84.575
X130.9Y-46.2
X131.542Y-45.074
X131.841Y-45.816
X132.0Y-82.2
X132.138Y-44.436
X132.2Y-46.9
X132.4Y-88.4
X132.6Y-46.2
X132.6Y-87.6
X133.0Y-78.2
X133.4Y-82.8
X133.4Y-87.6
X133.475Y-44.426
X133.5Y-41.7
X133.5Y-47.4
X133.6Y-57.3
X133.9Y-86.9
X133.9Y-89.1
X134.0Y-95.7
X134.4Y-46.8
X134.6Y-83.2
X134.8Y-41.0
X134.8Y-50.4
X134.8Y-54.6
X134.9Y-37.2
X135.0Y-88.6
X135.0Y-100.0
X135.2Y-86.8
X135.2Y-89.6
X136.0Y-86.6
X136.3Y-99.0
X136.4Y-60.0
X136.4Y-89.6
X136.5Y-83.9
X136.5Y-92.5
X136.7Y-61.6
X137.2Y-53.7
X137.4Y-20.1
X138.4Y-37.4
X138.6Y-43.0
X138.6Y-90.2
X138.6Y-103.0
X140.0Y-85.6
X145.1Y-74.4
X145.2Y-71.7
X145.4Y-81.4
X146.0Y-115.5
X146.1Y-93.6
X146.2Y-82.2
X146.4Y-53.8
X146.4Y-84.8
X147.0Y-79.6
X147.0Y-119.3
X147.4Y-87.0
X147.6Y-61.2
X147.6Y-73.0
X147.8Y-51.2
X148.147Y-83.418
X150.561Y-81.543
X150.7Y-29.901
X150.803Y-94.202
X151.4Y-30.301
X151.4Y-71.7
X151.9Y-78.1
X151.9Y-97.6
X152.1Y-84.7
X152.1Y-93.4
X153.0Y-70.3
X153.9Y-71.9
X153.9Y-78.1
X155.0Y-71.0
X155.5Y-19.2
X156.0Y-28.8
X156.1Y-77.9
X156.1Y-92.8
X156.1Y-98.6
X156.3Y-71.6
X157.3Y-67.9
X158.1Y-119.5
X158.6Y-65.3
X159.602Y-88.602
X159.8Y-86.8
X160.0Y-60.2
X160.0Y-85.8
X160.6Y-62.8
X161.083Y-92.017
X161.1Y-95.2
X161.1Y-98.8
X161.251Y-51.051
X161.386Y-87.416
X161.6Y-52.6
X161.6Y-58.6
X162.0Y-99.8
X162.0Y-118.2
X162.3Y-85.2
X162.6Y-47.4
X162.8Y-41.4
X162.8Y-107.1
X162.83Y-100.888
X163.4Y-47.0
X163.4Y-115.2
X163.441Y-39.124
X163.5Y-110.5
X164.1Y-34.4
X165.2Y-20.0
X165.2Y-101.0
X165.2Y-103.8
X165.3Y-121.9
X165.5Y-32.9
X165.7Y-29.5
X166.0Y-32.0
X166.0Y-86.9
X166.5Y-38.4
X166.5Y-102.6
T2
X25.0Y-35.0
X25.0Y-56.0
X25.0Y-77.0
X25.0Y-98.0
X25.13Y-119.0
X27.54Y-35.0
X27.54Y-56.0
X27.54Y-77.0
X27.54Y-98.0
X27.67Y-119.0
X30.08Y-35.0
X30.08Y-56.0
X30.08Y-77.0
X30.08Y-98.0
X39.0Y-35.0
X39.0Y-56.0
X39.0Y-77.0
X39.0Y-98.0
X41.54Y-35.0
X41.54Y-56.0
X41.54Y-77.0
X41.54Y-98.0
X43.999Y-119.0
X46.539Y-119.0
X55.0Y-35.0
X55.0Y-56.0
X55.0Y-77.0
X55.0Y-98.0
X57.54Y-35.0
X57.54Y-56.0
X57.54Y-77.0
X57.54Y-98.0
X60.08Y-35.0
X60.08Y-56.0
X60.08Y-77.0
X60.08Y-98.0
X64.0Y-119.0
X66.54Y-119.0
X69.0Y-35.0
X69.0Y-56.0
X69.0Y-77.0
X69.0Y-98.0
X69.08Y-119.0
X71.54Y-35.0
X71.54Y-56.0
X71.54Y-77.0
X71.54Y-98.0
X85.0Y-35.0
X85.0Y-56.0
X85.0Y-77.0
X85.0Y-98.0
X85.475Y-119.0
X87.54Y-35.0
X87.54Y-56.0
X87.54Y-77.0
X87.54Y-98.0
X88.015Y-119.0
X90.08Y-35.0
X90.08Y-56.0
X90.08Y-77.0
X90.08Y-98.0
X90.555Y-119.0
X99.0Y-35.0
X99.0Y-56.0
X99.0Y-77.0
X99.0Y-98.0
X101.54Y-35.0
X101.54Y-56.0
X101.54Y-77.0
X101.54Y-98.0
X106.475Y-119.0
X109.015Y-119.0
X111.555Y-119.0
X115.0Y-35.0
X115.0Y-56.0
X115.0Y-77.0
X115.0Y-98.0
X117.54Y-35.0
X117.54Y-56.0
X117.54Y-77.0
X117.54Y-98.0
X120.08Y-35.0
X120.08Y-56.0
X120.08Y-77.0
X120.08Y-98.0
X129.475Y-35.1
X129.475Y-56.1
X129.475Y-77.1
X129.475Y-98.0
X129.475Y-119.0
X132.015Y-35.1
X132.015Y-56.1
X132.015Y-77.1
X132.015Y-98.0
X132.015Y-119.0
X134.555Y-35.1
X134.555Y-56.1
X134.555Y-77.1
X134.555Y-98.0
X134.555Y-119.0
X149.68Y-102.81
X152.22Y-102.81
X153.0Y-114.0
X154.76Y-102.81
X157.3Y-102.81
X158.0Y-114.0
X159.84Y-102.81
X162.38Y-102.81
T3
X149.38Y-37.288
X149.38Y-39.828
X149.38Y-42.368
X149.38Y-44.908
X149.38Y-47.448
X149.38Y-49.988
X149.38Y-52.528
X149.38Y-55.068
X149.38Y-57.608
X149.38Y-60.148
X149.38Y-62.688
X149.38Y-65.228
X149.38Y-67.768
X149.38Y-70.308
X149.38Y-72.848
X149.38Y-75.388
X149.38Y-77.928
X149.38Y-80.468
X149.38Y-83.008
X149.38Y-85.548
X149.38Y-88.088
X149.38Y-90.628
X149.38Y-93.168
X149.38Y-95.708
X151.92Y-83.008
X162.08Y-39.828
X164.62Y-37.288
X164.62Y-39.828
X164.62Y-42.368
X164.62Y-44.908
X164.62Y-47.448
X164.62Y-49.988
X164.62Y-52.528
X164.62Y-55.068
X164.62Y-57.608
X164.62Y-60.148
X164.62Y-62.688
X164.62Y-65.228
X164.62Y-67.768
X164.62Y-70.308
X164.62Y-72.848
X164.62Y-75.388
X164.62Y-77.928
X164.62Y-80.468
X164.62Y-83.008
X164.62Y-85.548
X164.62Y-88.088
X164.62Y-90.628
X164.62Y-93.168
X164.62Y-95.708
T0
M30
