%TF.GenerationSoftware,KiCad,Pcbnew,6.0.5-a6ca702e91~116~ubuntu20.04.1*%
%TF.CreationDate,2022-06-23T19:27:38-06:00*%
%TF.ProjectId,interface-brain,696e7465-7266-4616-9365-2d627261696e,rev?*%
%TF.SameCoordinates,Original*%
%TF.FileFunction,Paste,Bot*%
%TF.FilePolarity,Positive*%
%FSLAX46Y46*%
G04 Gerber Fmt 4.6, Leading zero omitted, Abs format (unit mm)*
G04 Created by KiCad (PCBNEW 6.0.5-a6ca702e91~116~ubuntu20.04.1) date 2022-06-23 19:27:38*
%MOMM*%
%LPD*%
G01*
G04 APERTURE LIST*
G04 Aperture macros list*
%AMRoundRect*
0 Rectangle with rounded corners*
0 $1 Rounding radius*
0 $2 $3 $4 $5 $6 $7 $8 $9 X,Y pos of 4 corners*
0 Add a 4 corners polygon primitive as box body*
4,1,4,$2,$3,$4,$5,$6,$7,$8,$9,$2,$3,0*
0 Add four circle primitives for the rounded corners*
1,1,$1+$1,$2,$3*
1,1,$1+$1,$4,$5*
1,1,$1+$1,$6,$7*
1,1,$1+$1,$8,$9*
0 Add four rect primitives between the rounded corners*
20,1,$1+$1,$2,$3,$4,$5,0*
20,1,$1+$1,$4,$5,$6,$7,0*
20,1,$1+$1,$6,$7,$8,$9,0*
20,1,$1+$1,$8,$9,$2,$3,0*%
G04 Aperture macros list end*
%ADD10RoundRect,0.140000X0.140000X0.170000X-0.140000X0.170000X-0.140000X-0.170000X0.140000X-0.170000X0*%
%ADD11RoundRect,0.200000X0.275000X-0.200000X0.275000X0.200000X-0.275000X0.200000X-0.275000X-0.200000X0*%
%ADD12R,2.500000X2.300000*%
%ADD13RoundRect,0.200000X-0.275000X0.200000X-0.275000X-0.200000X0.275000X-0.200000X0.275000X0.200000X0*%
%ADD14RoundRect,0.140000X-0.170000X0.140000X-0.170000X-0.140000X0.170000X-0.140000X0.170000X0.140000X0*%
%ADD15RoundRect,0.140000X-0.140000X-0.170000X0.140000X-0.170000X0.140000X0.170000X-0.140000X0.170000X0*%
%ADD16R,1.800000X2.500000*%
%ADD17RoundRect,0.200000X-0.200000X-0.275000X0.200000X-0.275000X0.200000X0.275000X-0.200000X0.275000X0*%
%ADD18RoundRect,0.200000X0.200000X0.275000X-0.200000X0.275000X-0.200000X-0.275000X0.200000X-0.275000X0*%
%ADD19RoundRect,0.100000X0.100000X-0.637500X0.100000X0.637500X-0.100000X0.637500X-0.100000X-0.637500X0*%
%ADD20RoundRect,0.250000X0.650000X-0.325000X0.650000X0.325000X-0.650000X0.325000X-0.650000X-0.325000X0*%
%ADD21RoundRect,0.140000X0.170000X-0.140000X0.170000X0.140000X-0.170000X0.140000X-0.170000X-0.140000X0*%
%ADD22RoundRect,0.250000X0.250000X0.475000X-0.250000X0.475000X-0.250000X-0.475000X0.250000X-0.475000X0*%
%ADD23R,2.300000X2.500000*%
%ADD24R,5.700000X1.600000*%
%ADD25RoundRect,0.150000X-0.150000X0.512500X-0.150000X-0.512500X0.150000X-0.512500X0.150000X0.512500X0*%
%ADD26RoundRect,0.150000X-0.150000X0.825000X-0.150000X-0.825000X0.150000X-0.825000X0.150000X0.825000X0*%
%ADD27RoundRect,0.250000X0.475000X-0.250000X0.475000X0.250000X-0.475000X0.250000X-0.475000X-0.250000X0*%
G04 APERTURE END LIST*
D10*
%TO.C,C24*%
X147780000Y-44900000D03*
X146820000Y-44900000D03*
%TD*%
D11*
%TO.C,R18*%
X87600000Y-38825000D03*
X87600000Y-37175000D03*
%TD*%
D12*
%TO.C,D1*%
X171850000Y-109100000D03*
X167550000Y-109100000D03*
%TD*%
D13*
%TO.C,R5*%
X176400000Y-83675000D03*
X176400000Y-85325000D03*
%TD*%
D14*
%TO.C,C55*%
X152500000Y-96520000D03*
X152500000Y-97480000D03*
%TD*%
D11*
%TO.C,R9*%
X57600000Y-38625000D03*
X57600000Y-36975000D03*
%TD*%
D13*
%TO.C,R20*%
X87500000Y-52375000D03*
X87500000Y-54025000D03*
%TD*%
D10*
%TO.C,C21*%
X117980000Y-99900000D03*
X117020000Y-99900000D03*
%TD*%
D13*
%TO.C,R23*%
X27600000Y-94275000D03*
X27600000Y-95925000D03*
%TD*%
D15*
%TO.C,C50*%
X108620000Y-120800000D03*
X109580000Y-120800000D03*
%TD*%
%TO.C,C33*%
X131520000Y-54300000D03*
X132480000Y-54300000D03*
%TD*%
D10*
%TO.C,C3*%
X28080000Y-74900000D03*
X27120000Y-74900000D03*
%TD*%
D16*
%TO.C,D9*%
X168400000Y-79500000D03*
X168400000Y-75500000D03*
%TD*%
D17*
%TO.C,R25*%
X171775000Y-50900000D03*
X173425000Y-50900000D03*
%TD*%
%TO.C,R31*%
X131975000Y-58300000D03*
X133625000Y-58300000D03*
%TD*%
D18*
%TO.C,R6*%
X174825000Y-83600000D03*
X173175000Y-83600000D03*
%TD*%
D10*
%TO.C,C29*%
X161680000Y-53500000D03*
X160720000Y-53500000D03*
%TD*%
D19*
%TO.C,U2*%
X137825000Y-91062500D03*
X137175000Y-91062500D03*
X136525000Y-91062500D03*
X135875000Y-91062500D03*
X135225000Y-91062500D03*
X134575000Y-91062500D03*
X133925000Y-91062500D03*
X133275000Y-91062500D03*
X132625000Y-91062500D03*
X131975000Y-91062500D03*
X131975000Y-85337500D03*
X132625000Y-85337500D03*
X133275000Y-85337500D03*
X133925000Y-85337500D03*
X134575000Y-85337500D03*
X135225000Y-85337500D03*
X135875000Y-85337500D03*
X136525000Y-85337500D03*
X137175000Y-85337500D03*
X137825000Y-85337500D03*
%TD*%
D17*
%TO.C,R3*%
X136175000Y-41200000D03*
X137825000Y-41200000D03*
%TD*%
D10*
%TO.C,C18*%
X118080000Y-33000000D03*
X117120000Y-33000000D03*
%TD*%
D17*
%TO.C,R35*%
X131975000Y-60000000D03*
X133625000Y-60000000D03*
%TD*%
D14*
%TO.C,C7*%
X171300000Y-86020000D03*
X171300000Y-86980000D03*
%TD*%
D10*
%TO.C,C23*%
X151980000Y-72900000D03*
X151020000Y-72900000D03*
%TD*%
D20*
%TO.C,C54*%
X174100000Y-74175000D03*
X174100000Y-71225000D03*
%TD*%
D10*
%TO.C,C10*%
X58080000Y-75100000D03*
X57120000Y-75100000D03*
%TD*%
%TO.C,C15*%
X88080000Y-58000000D03*
X87120000Y-58000000D03*
%TD*%
D11*
%TO.C,R7*%
X143400000Y-106225000D03*
X143400000Y-104575000D03*
%TD*%
D17*
%TO.C,R52*%
X108975000Y-115000000D03*
X110625000Y-115000000D03*
%TD*%
D21*
%TO.C,C58*%
X176000000Y-87780000D03*
X176000000Y-86820000D03*
%TD*%
D14*
%TO.C,C12*%
X137500000Y-43120000D03*
X137500000Y-44080000D03*
%TD*%
%TO.C,C53*%
X162600000Y-93020000D03*
X162600000Y-93980000D03*
%TD*%
D22*
%TO.C,C61*%
X153350000Y-74600000D03*
X151450000Y-74600000D03*
%TD*%
D10*
%TO.C,C19*%
X117980000Y-57800000D03*
X117020000Y-57800000D03*
%TD*%
D17*
%TO.C,R29*%
X38975000Y-96000000D03*
X40625000Y-96000000D03*
%TD*%
D11*
%TO.C,R21*%
X27600000Y-80825000D03*
X27600000Y-79175000D03*
%TD*%
D15*
%TO.C,C49*%
X87520000Y-120800000D03*
X88480000Y-120800000D03*
%TD*%
D21*
%TO.C,C60*%
X175900000Y-74580000D03*
X175900000Y-73620000D03*
%TD*%
D12*
%TO.C,D8*%
X169350000Y-67500000D03*
X173650000Y-67500000D03*
%TD*%
D17*
%TO.C,R28*%
X38975000Y-74900000D03*
X40625000Y-74900000D03*
%TD*%
D14*
%TO.C,C13*%
X139000000Y-85700000D03*
X139000000Y-86660000D03*
%TD*%
D17*
%TO.C,R51*%
X87975000Y-115000000D03*
X89625000Y-115000000D03*
%TD*%
%TO.C,R2*%
X139400000Y-91000000D03*
X141050000Y-91000000D03*
%TD*%
D15*
%TO.C,C27*%
X151120000Y-67800000D03*
X152080000Y-67800000D03*
%TD*%
D14*
%TO.C,C46*%
X161100000Y-93020000D03*
X161100000Y-93980000D03*
%TD*%
%TO.C,C42*%
X162900000Y-80600000D03*
X162900000Y-81560000D03*
%TD*%
D21*
%TO.C,C30*%
X162800000Y-78100000D03*
X162800000Y-77140000D03*
%TD*%
D10*
%TO.C,C38*%
X147380000Y-85800000D03*
X146420000Y-85800000D03*
%TD*%
D12*
%TO.C,D5*%
X150950000Y-112400000D03*
X146650000Y-112400000D03*
%TD*%
D15*
%TO.C,C34*%
X131620000Y-75200000D03*
X132580000Y-75200000D03*
%TD*%
D23*
%TO.C,D3*%
X139800000Y-106150000D03*
X139800000Y-110450000D03*
%TD*%
D13*
%TO.C,R19*%
X27600000Y-52275000D03*
X27600000Y-53925000D03*
%TD*%
D17*
%TO.C,R48*%
X98975000Y-74900000D03*
X100625000Y-74900000D03*
%TD*%
D10*
%TO.C,C2*%
X28080000Y-57900000D03*
X27120000Y-57900000D03*
%TD*%
D17*
%TO.C,R36*%
X132075000Y-81100000D03*
X133725000Y-81100000D03*
%TD*%
D10*
%TO.C,C14*%
X87980000Y-32900000D03*
X87020000Y-32900000D03*
%TD*%
D12*
%TO.C,D4*%
X149650000Y-100700000D03*
X145350000Y-100700000D03*
%TD*%
D22*
%TO.C,C6*%
X173150000Y-90700000D03*
X171250000Y-90700000D03*
%TD*%
D10*
%TO.C,C17*%
X87980000Y-99800000D03*
X87020000Y-99800000D03*
%TD*%
D15*
%TO.C,C35*%
X131540000Y-96200000D03*
X132500000Y-96200000D03*
%TD*%
D21*
%TO.C,C31*%
X162600000Y-75860000D03*
X162600000Y-74900000D03*
%TD*%
D11*
%TO.C,R17*%
X27500000Y-38625000D03*
X27500000Y-36975000D03*
%TD*%
D13*
%TO.C,R11*%
X57600000Y-52375000D03*
X57600000Y-54025000D03*
%TD*%
D19*
%TO.C,U1*%
X136125000Y-48862500D03*
X135475000Y-48862500D03*
X134825000Y-48862500D03*
X134175000Y-48862500D03*
X133525000Y-48862500D03*
X132875000Y-48862500D03*
X132225000Y-48862500D03*
X131575000Y-48862500D03*
X130925000Y-48862500D03*
X130275000Y-48862500D03*
X130275000Y-43137500D03*
X130925000Y-43137500D03*
X131575000Y-43137500D03*
X132225000Y-43137500D03*
X132875000Y-43137500D03*
X133525000Y-43137500D03*
X134175000Y-43137500D03*
X134825000Y-43137500D03*
X135475000Y-43137500D03*
X136125000Y-43137500D03*
%TD*%
D17*
%TO.C,R37*%
X132175000Y-101800000D03*
X133825000Y-101800000D03*
%TD*%
D10*
%TO.C,C9*%
X58080000Y-57800000D03*
X57120000Y-57800000D03*
%TD*%
D11*
%TO.C,R47*%
X99000000Y-54025000D03*
X99000000Y-52375000D03*
%TD*%
D17*
%TO.C,R32*%
X132075000Y-79200000D03*
X133725000Y-79200000D03*
%TD*%
D10*
%TO.C,C43*%
X146180000Y-84100000D03*
X145220000Y-84100000D03*
%TD*%
%TO.C,C39*%
X146580000Y-92800000D03*
X145620000Y-92800000D03*
%TD*%
%TO.C,C41*%
X161680000Y-50200000D03*
X160720000Y-50200000D03*
%TD*%
D24*
%TO.C,L1*%
X173900000Y-81150000D03*
X173900000Y-76450000D03*
%TD*%
D11*
%TO.C,R14*%
X117500000Y-80725000D03*
X117500000Y-79075000D03*
%TD*%
D17*
%TO.C,R50*%
X66575000Y-115000000D03*
X68225000Y-115000000D03*
%TD*%
D15*
%TO.C,C51*%
X131520000Y-120800000D03*
X132480000Y-120800000D03*
%TD*%
D10*
%TO.C,C8*%
X57980000Y-33100000D03*
X57020000Y-33100000D03*
%TD*%
D14*
%TO.C,C28*%
X162900000Y-83000000D03*
X162900000Y-83960000D03*
%TD*%
D17*
%TO.C,R49*%
X98975000Y-100000000D03*
X100625000Y-100000000D03*
%TD*%
D10*
%TO.C,C16*%
X88080000Y-75000000D03*
X87120000Y-75000000D03*
%TD*%
%TO.C,C4*%
X28080000Y-100000000D03*
X27120000Y-100000000D03*
%TD*%
D17*
%TO.C,R53*%
X131975000Y-115000000D03*
X133625000Y-115000000D03*
%TD*%
%TO.C,R41*%
X68975000Y-96000000D03*
X70625000Y-96000000D03*
%TD*%
D10*
%TO.C,C1*%
X27980000Y-32500000D03*
X27020000Y-32500000D03*
%TD*%
D25*
%TO.C,U5*%
X172700000Y-85400000D03*
X173650000Y-85400000D03*
X174600000Y-85400000D03*
X174600000Y-87675000D03*
X173650000Y-87675000D03*
X172700000Y-87675000D03*
%TD*%
D17*
%TO.C,R34*%
X132075000Y-38900000D03*
X133725000Y-38900000D03*
%TD*%
%TO.C,R42*%
X66575000Y-116800000D03*
X68225000Y-116800000D03*
%TD*%
%TO.C,R30*%
X132050000Y-37200000D03*
X133700000Y-37200000D03*
%TD*%
D10*
%TO.C,C25*%
X147480000Y-47600000D03*
X146520000Y-47600000D03*
%TD*%
D15*
%TO.C,C36*%
X151100000Y-52500000D03*
X152060000Y-52500000D03*
%TD*%
D10*
%TO.C,C37*%
X146880000Y-50500000D03*
X145920000Y-50500000D03*
%TD*%
D17*
%TO.C,R44*%
X108975000Y-116800000D03*
X110625000Y-116800000D03*
%TD*%
D21*
%TO.C,C52*%
X162900000Y-85980000D03*
X162900000Y-85020000D03*
%TD*%
D17*
%TO.C,R55*%
X43975000Y-116800000D03*
X45625000Y-116800000D03*
%TD*%
D26*
%TO.C,U4*%
X154095000Y-96225000D03*
X155365000Y-96225000D03*
X156635000Y-96225000D03*
X157905000Y-96225000D03*
X157905000Y-101175000D03*
X156635000Y-101175000D03*
X155365000Y-101175000D03*
X154095000Y-101175000D03*
%TD*%
D15*
%TO.C,C44*%
X166420000Y-92100000D03*
X167380000Y-92100000D03*
%TD*%
D17*
%TO.C,R26*%
X39075000Y-32900000D03*
X40725000Y-32900000D03*
%TD*%
D11*
%TO.C,R27*%
X39000000Y-53925000D03*
X39000000Y-52275000D03*
%TD*%
D15*
%TO.C,C26*%
X151120000Y-65300000D03*
X152080000Y-65300000D03*
%TD*%
D17*
%TO.C,R38*%
X68975000Y-32800000D03*
X70625000Y-32800000D03*
%TD*%
D10*
%TO.C,C11*%
X57980000Y-100000000D03*
X57020000Y-100000000D03*
%TD*%
D21*
%TO.C,C40*%
X144300000Y-81680000D03*
X144300000Y-80720000D03*
%TD*%
D13*
%TO.C,R24*%
X87600000Y-94275000D03*
X87600000Y-95925000D03*
%TD*%
D17*
%TO.C,R40*%
X68975000Y-74900000D03*
X70625000Y-74900000D03*
%TD*%
%TO.C,R46*%
X98975000Y-32900000D03*
X100625000Y-32900000D03*
%TD*%
D23*
%TO.C,D7*%
X156800000Y-110950000D03*
X156800000Y-106650000D03*
%TD*%
D10*
%TO.C,C20*%
X118080000Y-75000000D03*
X117120000Y-75000000D03*
%TD*%
D17*
%TO.C,R1*%
X137575000Y-48900000D03*
X139225000Y-48900000D03*
%TD*%
%TO.C,R4*%
X139375000Y-84200000D03*
X141025000Y-84200000D03*
%TD*%
D13*
%TO.C,R12*%
X117600000Y-52275000D03*
X117600000Y-53925000D03*
%TD*%
D21*
%TO.C,C47*%
X162900000Y-89580000D03*
X162900000Y-88620000D03*
%TD*%
D17*
%TO.C,R45*%
X131975000Y-116800000D03*
X133625000Y-116800000D03*
%TD*%
D11*
%TO.C,R39*%
X69000000Y-53925000D03*
X69000000Y-52275000D03*
%TD*%
D13*
%TO.C,R16*%
X117600000Y-94275000D03*
X117600000Y-95925000D03*
%TD*%
D11*
%TO.C,R13*%
X57600000Y-80725000D03*
X57600000Y-79075000D03*
%TD*%
D17*
%TO.C,R54*%
X24975000Y-116800000D03*
X26625000Y-116800000D03*
%TD*%
%TO.C,R33*%
X132075000Y-100000000D03*
X133725000Y-100000000D03*
%TD*%
%TO.C,R43*%
X87975000Y-116800000D03*
X89625000Y-116800000D03*
%TD*%
D15*
%TO.C,C48*%
X66020000Y-120800000D03*
X66980000Y-120800000D03*
%TD*%
D13*
%TO.C,R15*%
X57600000Y-94275000D03*
X57600000Y-95925000D03*
%TD*%
D15*
%TO.C,C32*%
X131540000Y-33100000D03*
X132500000Y-33100000D03*
%TD*%
D21*
%TO.C,C22*%
X162700000Y-37200000D03*
X162700000Y-36240000D03*
%TD*%
D11*
%TO.C,R10*%
X117600000Y-38725000D03*
X117600000Y-37075000D03*
%TD*%
%TO.C,R22*%
X87500000Y-80925000D03*
X87500000Y-79275000D03*
%TD*%
D16*
%TO.C,D2*%
X168500000Y-87400000D03*
X168500000Y-83400000D03*
%TD*%
D15*
%TO.C,C45*%
X151020000Y-57600000D03*
X151980000Y-57600000D03*
%TD*%
D27*
%TO.C,C59*%
X171700000Y-74250000D03*
X171700000Y-72350000D03*
%TD*%
D15*
%TO.C,C57*%
X144920000Y-103900000D03*
X145880000Y-103900000D03*
%TD*%
M02*
