%TF.GenerationSoftware,KiCad,Pcbnew,6.0.4-6f826c9f35~116~ubuntu20.04.1*%
%TF.CreationDate,2022-04-28T23:04:08-06:00*%
%TF.ProjectId,interface-brain,696e7465-7266-4616-9365-2d627261696e,rev?*%
%TF.SameCoordinates,Original*%
%TF.FileFunction,Soldermask,Top*%
%TF.FilePolarity,Negative*%
%FSLAX46Y46*%
G04 Gerber Fmt 4.6, Leading zero omitted, Abs format (unit mm)*
G04 Created by KiCad (PCBNEW 6.0.4-6f826c9f35~116~ubuntu20.04.1) date 2022-04-28 23:04:08*
%MOMM*%
%LPD*%
G01*
G04 APERTURE LIST*
G04 Aperture macros list*
%AMRoundRect*
0 Rectangle with rounded corners*
0 $1 Rounding radius*
0 $2 $3 $4 $5 $6 $7 $8 $9 X,Y pos of 4 corners*
0 Add a 4 corners polygon primitive as box body*
4,1,4,$2,$3,$4,$5,$6,$7,$8,$9,$2,$3,0*
0 Add four circle primitives for the rounded corners*
1,1,$1+$1,$2,$3*
1,1,$1+$1,$4,$5*
1,1,$1+$1,$6,$7*
1,1,$1+$1,$8,$9*
0 Add four rect primitives between the rounded corners*
20,1,$1+$1,$2,$3,$4,$5,0*
20,1,$1+$1,$4,$5,$6,$7,0*
20,1,$1+$1,$6,$7,$8,$9,0*
20,1,$1+$1,$8,$9,$2,$3,0*%
G04 Aperture macros list end*
%ADD10R,1.700000X1.700000*%
%ADD11O,1.700000X1.700000*%
%ADD12C,3.200000*%
%ADD13R,2.000000X2.000000*%
%ADD14C,2.000000*%
%ADD15C,1.600000*%
%ADD16R,1.600000X1.600000*%
%ADD17RoundRect,0.218750X0.218750X0.256250X-0.218750X0.256250X-0.218750X-0.256250X0.218750X-0.256250X0*%
G04 APERTURE END LIST*
D10*
%TO.C,J8*%
X55000000Y-77000000D03*
D11*
X57540000Y-77000000D03*
X60080000Y-77000000D03*
%TD*%
D10*
%TO.C,J25*%
X129475000Y-98000000D03*
D11*
X132015000Y-98000000D03*
X134555000Y-98000000D03*
%TD*%
D10*
%TO.C,J29*%
X69000000Y-98000000D03*
D11*
X71540000Y-98000000D03*
%TD*%
D10*
%TO.C,J19*%
X39000000Y-56000000D03*
D11*
X41540000Y-56000000D03*
%TD*%
D10*
%TO.C,J13*%
X85000000Y-98000000D03*
D11*
X87540000Y-98000000D03*
X90080000Y-98000000D03*
%TD*%
D10*
%TO.C,J31*%
X85475000Y-119000000D03*
D11*
X88015000Y-119000000D03*
X90555000Y-119000000D03*
%TD*%
D12*
%TO.C,H4*%
X49000000Y-35000000D03*
%TD*%
D10*
%TO.C,J11*%
X85000000Y-56000000D03*
D11*
X87540000Y-56000000D03*
X90080000Y-56000000D03*
%TD*%
D13*
%TO.C,C7*%
X158000000Y-114000000D03*
D14*
X153000000Y-114000000D03*
%TD*%
D10*
%TO.C,J35*%
X99000000Y-56000000D03*
D11*
X101540000Y-56000000D03*
%TD*%
D10*
%TO.C,J10*%
X85000000Y-35000000D03*
D11*
X87540000Y-35000000D03*
X90080000Y-35000000D03*
%TD*%
D10*
%TO.C,J6*%
X55000000Y-35000000D03*
D11*
X57540000Y-35000000D03*
X60080000Y-35000000D03*
%TD*%
D10*
%TO.C,J16*%
X115000000Y-77000000D03*
D11*
X117540000Y-77000000D03*
X120080000Y-77000000D03*
%TD*%
D10*
%TO.C,J26*%
X69000000Y-35000000D03*
D11*
X71540000Y-35000000D03*
%TD*%
D10*
%TO.C,J20*%
X39000000Y-77000000D03*
D11*
X41540000Y-77000000D03*
%TD*%
D10*
%TO.C,J30*%
X64000000Y-119000000D03*
D11*
X66540000Y-119000000D03*
X69080000Y-119000000D03*
%TD*%
D10*
%TO.C,J4*%
X25000000Y-77000000D03*
D11*
X27540000Y-77000000D03*
X30080000Y-77000000D03*
%TD*%
D10*
%TO.C,J17*%
X115000000Y-98000000D03*
D11*
X117540000Y-98000000D03*
X120080000Y-98000000D03*
%TD*%
D10*
%TO.C,J7*%
X55000000Y-56000000D03*
D11*
X57540000Y-56000000D03*
X60080000Y-56000000D03*
%TD*%
D15*
%TO.C,U3*%
X151920000Y-83007969D03*
X162080000Y-39827969D03*
X164620000Y-37287969D03*
X164620000Y-39827969D03*
X164620000Y-42367969D03*
X164620000Y-44907969D03*
X164620000Y-47447969D03*
X164620000Y-49987969D03*
X164620000Y-52527969D03*
X164620000Y-55067969D03*
X164620000Y-57607969D03*
X164620000Y-60147969D03*
X164620000Y-62687969D03*
X164620000Y-65227969D03*
X164620000Y-67767969D03*
X164620000Y-70307969D03*
X164620000Y-72847969D03*
X164620000Y-75387969D03*
X164620000Y-77927969D03*
X164620000Y-80467969D03*
X164620000Y-83007969D03*
X164620000Y-85547969D03*
X164620000Y-88087969D03*
X164620000Y-90627969D03*
X164620000Y-93167969D03*
X164620000Y-95707969D03*
X149380000Y-95707969D03*
X149380000Y-93167969D03*
X149380000Y-90627969D03*
X149380000Y-88087969D03*
X149380000Y-85547969D03*
X149380000Y-83007969D03*
X149380000Y-80467969D03*
X149380000Y-77927969D03*
X149380000Y-75387969D03*
X149380000Y-72847969D03*
X149380000Y-70307969D03*
X149380000Y-67767969D03*
X149380000Y-65227969D03*
X149380000Y-62687969D03*
X149380000Y-60147969D03*
X149380000Y-57607969D03*
X149380000Y-55067969D03*
X149380000Y-52527969D03*
X149380000Y-49987969D03*
X149380000Y-47447969D03*
X149380000Y-44907969D03*
X149380000Y-42367969D03*
X149380000Y-39827969D03*
D16*
X149380000Y-37287969D03*
%TD*%
D10*
%TO.C,J27*%
X69000000Y-56000000D03*
D11*
X71540000Y-56000000D03*
%TD*%
D12*
%TO.C,H2*%
X35000000Y-119000000D03*
%TD*%
D10*
%TO.C,J24*%
X129475000Y-77100000D03*
D11*
X132015000Y-77100000D03*
X134555000Y-77100000D03*
%TD*%
D10*
%TO.C,J37*%
X99000000Y-98000000D03*
D11*
X101540000Y-98000000D03*
%TD*%
D12*
%TO.C,H1*%
X142000000Y-35000000D03*
%TD*%
D10*
%TO.C,J39*%
X43998849Y-119000000D03*
D11*
X46538849Y-119000000D03*
%TD*%
D10*
%TO.C,J2*%
X25000000Y-35000000D03*
D11*
X27540000Y-35000000D03*
X30080000Y-35000000D03*
%TD*%
D10*
%TO.C,J38*%
X25130000Y-119000000D03*
D11*
X27670000Y-119000000D03*
%TD*%
D10*
%TO.C,J22*%
X129475000Y-35100000D03*
D11*
X132015000Y-35100000D03*
X134555000Y-35100000D03*
%TD*%
D10*
%TO.C,J5*%
X25000000Y-98000000D03*
D11*
X27540000Y-98000000D03*
X30080000Y-98000000D03*
%TD*%
D10*
%TO.C,J23*%
X129475000Y-56100000D03*
D11*
X132015000Y-56100000D03*
X134555000Y-56100000D03*
%TD*%
D10*
%TO.C,J15*%
X115000000Y-56000000D03*
D11*
X117540000Y-56000000D03*
X120080000Y-56000000D03*
%TD*%
D10*
%TO.C,J28*%
X69000000Y-77000000D03*
D11*
X71540000Y-77000000D03*
%TD*%
D10*
%TO.C,J1*%
X149680000Y-102810000D03*
D11*
X152220000Y-102810000D03*
X154760000Y-102810000D03*
X157300000Y-102810000D03*
X159840000Y-102810000D03*
X162380000Y-102810000D03*
%TD*%
D10*
%TO.C,J14*%
X115000000Y-35000000D03*
D11*
X117540000Y-35000000D03*
X120080000Y-35000000D03*
%TD*%
D10*
%TO.C,J21*%
X39000000Y-98000000D03*
D11*
X41540000Y-98000000D03*
%TD*%
D10*
%TO.C,J32*%
X106475000Y-119000000D03*
D11*
X109015000Y-119000000D03*
X111555000Y-119000000D03*
%TD*%
D10*
%TO.C,J9*%
X55000000Y-98000000D03*
D11*
X57540000Y-98000000D03*
X60080000Y-98000000D03*
%TD*%
D10*
%TO.C,J33*%
X129475000Y-119000000D03*
D11*
X132015000Y-119000000D03*
X134555000Y-119000000D03*
%TD*%
D10*
%TO.C,J36*%
X99000000Y-77000000D03*
D11*
X101540000Y-77000000D03*
%TD*%
D10*
%TO.C,J3*%
X25000000Y-56000000D03*
D11*
X27540000Y-56000000D03*
X30080000Y-56000000D03*
%TD*%
D10*
%TO.C,J18*%
X39000000Y-35000000D03*
D11*
X41540000Y-35000000D03*
%TD*%
D17*
%TO.C,D6*%
X161987500Y-119400000D03*
X160412500Y-119400000D03*
%TD*%
D12*
%TO.C,H3*%
X142711346Y-119000000D03*
%TD*%
D10*
%TO.C,J34*%
X99000000Y-35000000D03*
D11*
X101540000Y-35000000D03*
%TD*%
D10*
%TO.C,J12*%
X85000000Y-77000000D03*
D11*
X87540000Y-77000000D03*
X90080000Y-77000000D03*
%TD*%
M02*
