%TF.GenerationSoftware,KiCad,Pcbnew,6.0.4-6f826c9f35~116~ubuntu20.04.1*%
%TF.CreationDate,2022-04-28T23:04:08-06:00*%
%TF.ProjectId,interface-brain,696e7465-7266-4616-9365-2d627261696e,rev?*%
%TF.SameCoordinates,Original*%
%TF.FileFunction,Legend,Bot*%
%TF.FilePolarity,Positive*%
%FSLAX46Y46*%
G04 Gerber Fmt 4.6, Leading zero omitted, Abs format (unit mm)*
G04 Created by KiCad (PCBNEW 6.0.4-6f826c9f35~116~ubuntu20.04.1) date 2022-04-28 23:04:08*
%MOMM*%
%LPD*%
G01*
G04 APERTURE LIST*
G04 Aperture macros list*
%AMRoundRect*
0 Rectangle with rounded corners*
0 $1 Rounding radius*
0 $2 $3 $4 $5 $6 $7 $8 $9 X,Y pos of 4 corners*
0 Add a 4 corners polygon primitive as box body*
4,1,4,$2,$3,$4,$5,$6,$7,$8,$9,$2,$3,0*
0 Add four circle primitives for the rounded corners*
1,1,$1+$1,$2,$3*
1,1,$1+$1,$4,$5*
1,1,$1+$1,$6,$7*
1,1,$1+$1,$8,$9*
0 Add four rect primitives between the rounded corners*
20,1,$1+$1,$2,$3,$4,$5,0*
20,1,$1+$1,$4,$5,$6,$7,0*
20,1,$1+$1,$6,$7,$8,$9,0*
20,1,$1+$1,$8,$9,$2,$3,0*%
G04 Aperture macros list end*
%ADD10C,0.120000*%
%ADD11R,1.700000X1.700000*%
%ADD12O,1.700000X1.700000*%
%ADD13C,3.200000*%
%ADD14R,2.000000X2.000000*%
%ADD15C,2.000000*%
%ADD16C,1.600000*%
%ADD17R,1.600000X1.600000*%
%ADD18RoundRect,0.140000X0.140000X0.170000X-0.140000X0.170000X-0.140000X-0.170000X0.140000X-0.170000X0*%
%ADD19RoundRect,0.200000X0.275000X-0.200000X0.275000X0.200000X-0.275000X0.200000X-0.275000X-0.200000X0*%
%ADD20R,0.450000X0.600000*%
%ADD21RoundRect,0.200000X-0.275000X0.200000X-0.275000X-0.200000X0.275000X-0.200000X0.275000X0.200000X0*%
%ADD22RoundRect,0.140000X-0.140000X-0.170000X0.140000X-0.170000X0.140000X0.170000X-0.140000X0.170000X0*%
%ADD23RoundRect,0.200000X-0.200000X-0.275000X0.200000X-0.275000X0.200000X0.275000X-0.200000X0.275000X0*%
%ADD24RoundRect,0.100000X0.100000X-0.637500X0.100000X0.637500X-0.100000X0.637500X-0.100000X-0.637500X0*%
%ADD25RoundRect,0.140000X-0.170000X0.140000X-0.170000X-0.140000X0.170000X-0.140000X0.170000X0.140000X0*%
%ADD26RoundRect,0.140000X0.170000X-0.140000X0.170000X0.140000X-0.170000X0.140000X-0.170000X-0.140000X0*%
%ADD27RoundRect,0.225000X-0.250000X0.225000X-0.250000X-0.225000X0.250000X-0.225000X0.250000X0.225000X0*%
G04 APERTURE END LIST*
D10*
%TO.C,C24*%
X147407836Y-45260000D02*
X147192164Y-45260000D01*
X147407836Y-44540000D02*
X147192164Y-44540000D01*
%TO.C,R18*%
X87077500Y-38237258D02*
X87077500Y-37762742D01*
X88122500Y-38237258D02*
X88122500Y-37762742D01*
%TO.C,R8*%
X159277500Y-100037258D02*
X159277500Y-99562742D01*
X160322500Y-100037258D02*
X160322500Y-99562742D01*
%TO.C,D1*%
X149950000Y-107300000D02*
X149950000Y-104750000D01*
X151650000Y-107300000D02*
X149950000Y-107300000D01*
X151650000Y-107300000D02*
X151650000Y-104750000D01*
%TO.C,R5*%
X151677500Y-100037258D02*
X151677500Y-99562742D01*
X152722500Y-100037258D02*
X152722500Y-99562742D01*
%TO.C,R9*%
X58122500Y-38037258D02*
X58122500Y-37562742D01*
X57077500Y-38037258D02*
X57077500Y-37562742D01*
%TO.C,R20*%
X88022500Y-52962742D02*
X88022500Y-53437258D01*
X86977500Y-52962742D02*
X86977500Y-53437258D01*
%TO.C,C21*%
X117607836Y-100260000D02*
X117392164Y-100260000D01*
X117607836Y-99540000D02*
X117392164Y-99540000D01*
%TO.C,R23*%
X27077500Y-94862742D02*
X27077500Y-95337258D01*
X28122500Y-94862742D02*
X28122500Y-95337258D01*
%TO.C,C50*%
X108992164Y-120440000D02*
X109207836Y-120440000D01*
X108992164Y-121160000D02*
X109207836Y-121160000D01*
%TO.C,C33*%
X131892164Y-54660000D02*
X132107836Y-54660000D01*
X131892164Y-53940000D02*
X132107836Y-53940000D01*
%TO.C,C3*%
X27707836Y-74540000D02*
X27492164Y-74540000D01*
X27707836Y-75260000D02*
X27492164Y-75260000D01*
%TO.C,R25*%
X162562742Y-119922500D02*
X163037258Y-119922500D01*
X162562742Y-118877500D02*
X163037258Y-118877500D01*
%TO.C,R31*%
X132562742Y-57777500D02*
X133037258Y-57777500D01*
X132562742Y-58822500D02*
X133037258Y-58822500D01*
%TO.C,R6*%
X154277500Y-100037258D02*
X154277500Y-99562742D01*
X155322500Y-100037258D02*
X155322500Y-99562742D01*
%TO.C,C29*%
X161307836Y-53140000D02*
X161092164Y-53140000D01*
X161307836Y-53860000D02*
X161092164Y-53860000D01*
%TO.C,U2*%
X138285000Y-88200000D02*
X138285000Y-86000000D01*
X131515000Y-88200000D02*
X131515000Y-90400000D01*
X138285000Y-88200000D02*
X138285000Y-91800000D01*
X131515000Y-88200000D02*
X131515000Y-86000000D01*
%TO.C,R3*%
X136762742Y-41722500D02*
X137237258Y-41722500D01*
X136762742Y-40677500D02*
X137237258Y-40677500D01*
%TO.C,C18*%
X117707836Y-33360000D02*
X117492164Y-33360000D01*
X117707836Y-32640000D02*
X117492164Y-32640000D01*
%TO.C,R35*%
X132562742Y-60522500D02*
X133037258Y-60522500D01*
X132562742Y-59477500D02*
X133037258Y-59477500D01*
%TO.C,C23*%
X151607836Y-72540000D02*
X151392164Y-72540000D01*
X151607836Y-73260000D02*
X151392164Y-73260000D01*
%TO.C,C10*%
X57707836Y-74740000D02*
X57492164Y-74740000D01*
X57707836Y-75460000D02*
X57492164Y-75460000D01*
%TO.C,C15*%
X87707836Y-58360000D02*
X87492164Y-58360000D01*
X87707836Y-57640000D02*
X87492164Y-57640000D01*
%TO.C,R7*%
X156877500Y-100037258D02*
X156877500Y-99562742D01*
X157922500Y-100037258D02*
X157922500Y-99562742D01*
%TO.C,R52*%
X109562742Y-115522500D02*
X110037258Y-115522500D01*
X109562742Y-114477500D02*
X110037258Y-114477500D01*
%TO.C,C12*%
X137140000Y-43492164D02*
X137140000Y-43707836D01*
X137860000Y-43492164D02*
X137860000Y-43707836D01*
%TO.C,C53*%
X164712164Y-99540000D02*
X164927836Y-99540000D01*
X164712164Y-100260000D02*
X164927836Y-100260000D01*
%TO.C,C19*%
X117607836Y-57440000D02*
X117392164Y-57440000D01*
X117607836Y-58160000D02*
X117392164Y-58160000D01*
%TO.C,R29*%
X39562742Y-95477500D02*
X40037258Y-95477500D01*
X39562742Y-96522500D02*
X40037258Y-96522500D01*
%TO.C,R21*%
X28122500Y-80237258D02*
X28122500Y-79762742D01*
X27077500Y-80237258D02*
X27077500Y-79762742D01*
%TO.C,C49*%
X87892164Y-121160000D02*
X88107836Y-121160000D01*
X87892164Y-120440000D02*
X88107836Y-120440000D01*
%TO.C,R28*%
X39562742Y-74377500D02*
X40037258Y-74377500D01*
X39562742Y-75422500D02*
X40037258Y-75422500D01*
%TO.C,C13*%
X139360000Y-86072164D02*
X139360000Y-86287836D01*
X138640000Y-86072164D02*
X138640000Y-86287836D01*
%TO.C,R51*%
X88562742Y-114477500D02*
X89037258Y-114477500D01*
X88562742Y-115522500D02*
X89037258Y-115522500D01*
%TO.C,R2*%
X139987742Y-91522500D02*
X140462258Y-91522500D01*
X139987742Y-90477500D02*
X140462258Y-90477500D01*
%TO.C,C27*%
X151492164Y-88460000D02*
X151707836Y-88460000D01*
X151492164Y-87740000D02*
X151707836Y-87740000D01*
%TO.C,C46*%
X161460000Y-93392164D02*
X161460000Y-93607836D01*
X160740000Y-93392164D02*
X160740000Y-93607836D01*
%TO.C,C42*%
X162540000Y-80972164D02*
X162540000Y-81187836D01*
X163260000Y-80972164D02*
X163260000Y-81187836D01*
%TO.C,C30*%
X163160000Y-77727836D02*
X163160000Y-77512164D01*
X162440000Y-77727836D02*
X162440000Y-77512164D01*
%TO.C,C38*%
X147007836Y-86160000D02*
X146792164Y-86160000D01*
X147007836Y-85440000D02*
X146792164Y-85440000D01*
%TO.C,D5*%
X156750000Y-107300000D02*
X156750000Y-104750000D01*
X158450000Y-107300000D02*
X156750000Y-107300000D01*
X158450000Y-107300000D02*
X158450000Y-104750000D01*
%TO.C,C34*%
X131992164Y-74840000D02*
X132207836Y-74840000D01*
X131992164Y-75560000D02*
X132207836Y-75560000D01*
%TO.C,D3*%
X154550000Y-107300000D02*
X154550000Y-104750000D01*
X156250000Y-107300000D02*
X156250000Y-104750000D01*
X156250000Y-107300000D02*
X154550000Y-107300000D01*
%TO.C,R19*%
X27077500Y-52862742D02*
X27077500Y-53337258D01*
X28122500Y-52862742D02*
X28122500Y-53337258D01*
%TO.C,R48*%
X99562742Y-75422500D02*
X100037258Y-75422500D01*
X99562742Y-74377500D02*
X100037258Y-74377500D01*
%TO.C,C2*%
X27707836Y-58260000D02*
X27492164Y-58260000D01*
X27707836Y-57540000D02*
X27492164Y-57540000D01*
%TO.C,R36*%
X132662742Y-81622500D02*
X133137258Y-81622500D01*
X132662742Y-80577500D02*
X133137258Y-80577500D01*
%TO.C,C14*%
X87607836Y-33260000D02*
X87392164Y-33260000D01*
X87607836Y-32540000D02*
X87392164Y-32540000D01*
%TO.C,D4*%
X158950000Y-107300000D02*
X158950000Y-104750000D01*
X160650000Y-107300000D02*
X158950000Y-107300000D01*
X160650000Y-107300000D02*
X160650000Y-104750000D01*
%TO.C,C6*%
X162210000Y-105459420D02*
X162210000Y-105740580D01*
X161190000Y-105459420D02*
X161190000Y-105740580D01*
%TO.C,C17*%
X87607836Y-99440000D02*
X87392164Y-99440000D01*
X87607836Y-100160000D02*
X87392164Y-100160000D01*
%TO.C,C35*%
X131912164Y-96560000D02*
X132127836Y-96560000D01*
X131912164Y-95840000D02*
X132127836Y-95840000D01*
%TO.C,C31*%
X162960000Y-75487836D02*
X162960000Y-75272164D01*
X162240000Y-75487836D02*
X162240000Y-75272164D01*
%TO.C,R17*%
X26977500Y-38037258D02*
X26977500Y-37562742D01*
X28022500Y-38037258D02*
X28022500Y-37562742D01*
%TO.C,R11*%
X57077500Y-52962742D02*
X57077500Y-53437258D01*
X58122500Y-52962742D02*
X58122500Y-53437258D01*
%TO.C,U1*%
X129815000Y-46000000D02*
X129815000Y-43800000D01*
X136585000Y-46000000D02*
X136585000Y-43800000D01*
X136585000Y-46000000D02*
X136585000Y-49600000D01*
X129815000Y-46000000D02*
X129815000Y-48200000D01*
%TO.C,R37*%
X132762742Y-102322500D02*
X133237258Y-102322500D01*
X132762742Y-101277500D02*
X133237258Y-101277500D01*
%TO.C,C9*%
X57707836Y-58160000D02*
X57492164Y-58160000D01*
X57707836Y-57440000D02*
X57492164Y-57440000D01*
%TO.C,R47*%
X99522500Y-53437258D02*
X99522500Y-52962742D01*
X98477500Y-53437258D02*
X98477500Y-52962742D01*
%TO.C,R32*%
X132662742Y-79722500D02*
X133137258Y-79722500D01*
X132662742Y-78677500D02*
X133137258Y-78677500D01*
%TO.C,C43*%
X145807836Y-83740000D02*
X145592164Y-83740000D01*
X145807836Y-84460000D02*
X145592164Y-84460000D01*
%TO.C,C39*%
X146207836Y-93160000D02*
X145992164Y-93160000D01*
X146207836Y-92440000D02*
X145992164Y-92440000D01*
%TO.C,C41*%
X161307836Y-49840000D02*
X161092164Y-49840000D01*
X161307836Y-50560000D02*
X161092164Y-50560000D01*
%TO.C,R14*%
X116977500Y-80137258D02*
X116977500Y-79662742D01*
X118022500Y-80137258D02*
X118022500Y-79662742D01*
%TO.C,R50*%
X67162742Y-114477500D02*
X67637258Y-114477500D01*
X67162742Y-115522500D02*
X67637258Y-115522500D01*
%TO.C,C51*%
X131892164Y-121160000D02*
X132107836Y-121160000D01*
X131892164Y-120440000D02*
X132107836Y-120440000D01*
%TO.C,C8*%
X57607836Y-32740000D02*
X57392164Y-32740000D01*
X57607836Y-33460000D02*
X57392164Y-33460000D01*
%TO.C,C28*%
X163260000Y-83372164D02*
X163260000Y-83587836D01*
X162540000Y-83372164D02*
X162540000Y-83587836D01*
%TO.C,R49*%
X99562742Y-100522500D02*
X100037258Y-100522500D01*
X99562742Y-99477500D02*
X100037258Y-99477500D01*
%TO.C,C16*%
X87707836Y-75360000D02*
X87492164Y-75360000D01*
X87707836Y-74640000D02*
X87492164Y-74640000D01*
%TO.C,C4*%
X27707836Y-99640000D02*
X27492164Y-99640000D01*
X27707836Y-100360000D02*
X27492164Y-100360000D01*
%TO.C,R53*%
X132562742Y-114477500D02*
X133037258Y-114477500D01*
X132562742Y-115522500D02*
X133037258Y-115522500D01*
%TO.C,R41*%
X69562742Y-95477500D02*
X70037258Y-95477500D01*
X69562742Y-96522500D02*
X70037258Y-96522500D01*
%TO.C,C1*%
X27607836Y-32860000D02*
X27392164Y-32860000D01*
X27607836Y-32140000D02*
X27392164Y-32140000D01*
%TO.C,R34*%
X132662742Y-39422500D02*
X133137258Y-39422500D01*
X132662742Y-38377500D02*
X133137258Y-38377500D01*
%TO.C,R42*%
X67162742Y-117322500D02*
X67637258Y-117322500D01*
X67162742Y-116277500D02*
X67637258Y-116277500D01*
%TO.C,R30*%
X132637742Y-36677500D02*
X133112258Y-36677500D01*
X132637742Y-37722500D02*
X133112258Y-37722500D01*
%TO.C,C25*%
X147107836Y-47960000D02*
X146892164Y-47960000D01*
X147107836Y-47240000D02*
X146892164Y-47240000D01*
%TO.C,C36*%
X151472164Y-52860000D02*
X151687836Y-52860000D01*
X151472164Y-52140000D02*
X151687836Y-52140000D01*
%TO.C,C37*%
X146507836Y-50860000D02*
X146292164Y-50860000D01*
X146507836Y-50140000D02*
X146292164Y-50140000D01*
%TO.C,R44*%
X109562742Y-117322500D02*
X110037258Y-117322500D01*
X109562742Y-116277500D02*
X110037258Y-116277500D01*
%TO.C,C52*%
X162540000Y-85607836D02*
X162540000Y-85392164D01*
X163260000Y-85607836D02*
X163260000Y-85392164D01*
%TO.C,R55*%
X44562742Y-116277500D02*
X45037258Y-116277500D01*
X44562742Y-117322500D02*
X45037258Y-117322500D01*
%TO.C,C44*%
X165040000Y-98092164D02*
X165040000Y-98307836D01*
X165760000Y-98092164D02*
X165760000Y-98307836D01*
%TO.C,R26*%
X39662742Y-32377500D02*
X40137258Y-32377500D01*
X39662742Y-33422500D02*
X40137258Y-33422500D01*
%TO.C,R27*%
X38477500Y-53337258D02*
X38477500Y-52862742D01*
X39522500Y-53337258D02*
X39522500Y-52862742D01*
%TO.C,C26*%
X151492164Y-85240000D02*
X151707836Y-85240000D01*
X151492164Y-85960000D02*
X151707836Y-85960000D01*
%TO.C,R38*%
X69562742Y-33322500D02*
X70037258Y-33322500D01*
X69562742Y-32277500D02*
X70037258Y-32277500D01*
%TO.C,C11*%
X57607836Y-100360000D02*
X57392164Y-100360000D01*
X57607836Y-99640000D02*
X57392164Y-99640000D01*
%TO.C,C40*%
X144660000Y-81307836D02*
X144660000Y-81092164D01*
X143940000Y-81307836D02*
X143940000Y-81092164D01*
%TO.C,R24*%
X88122500Y-94862742D02*
X88122500Y-95337258D01*
X87077500Y-94862742D02*
X87077500Y-95337258D01*
%TO.C,R40*%
X69562742Y-74377500D02*
X70037258Y-74377500D01*
X69562742Y-75422500D02*
X70037258Y-75422500D01*
%TO.C,R46*%
X99562742Y-32377500D02*
X100037258Y-32377500D01*
X99562742Y-33422500D02*
X100037258Y-33422500D01*
%TO.C,C20*%
X117707836Y-75360000D02*
X117492164Y-75360000D01*
X117707836Y-74640000D02*
X117492164Y-74640000D01*
%TO.C,R1*%
X138162742Y-49422500D02*
X138637258Y-49422500D01*
X138162742Y-48377500D02*
X138637258Y-48377500D01*
%TO.C,R4*%
X139962742Y-83677500D02*
X140437258Y-83677500D01*
X139962742Y-84722500D02*
X140437258Y-84722500D01*
%TO.C,R12*%
X117077500Y-52862742D02*
X117077500Y-53337258D01*
X118122500Y-52862742D02*
X118122500Y-53337258D01*
%TO.C,C47*%
X162540000Y-89207836D02*
X162540000Y-88992164D01*
X163260000Y-89207836D02*
X163260000Y-88992164D01*
%TO.C,R45*%
X132562742Y-117322500D02*
X133037258Y-117322500D01*
X132562742Y-116277500D02*
X133037258Y-116277500D01*
%TO.C,R39*%
X69522500Y-53337258D02*
X69522500Y-52862742D01*
X68477500Y-53337258D02*
X68477500Y-52862742D01*
%TO.C,R16*%
X117077500Y-94862742D02*
X117077500Y-95337258D01*
X118122500Y-94862742D02*
X118122500Y-95337258D01*
%TO.C,R13*%
X57077500Y-80137258D02*
X57077500Y-79662742D01*
X58122500Y-80137258D02*
X58122500Y-79662742D01*
%TO.C,C5*%
X162740000Y-104992164D02*
X162740000Y-105207836D01*
X163460000Y-104992164D02*
X163460000Y-105207836D01*
%TO.C,R54*%
X25562742Y-116277500D02*
X26037258Y-116277500D01*
X25562742Y-117322500D02*
X26037258Y-117322500D01*
%TO.C,R33*%
X132662742Y-100522500D02*
X133137258Y-100522500D01*
X132662742Y-99477500D02*
X133137258Y-99477500D01*
%TO.C,R43*%
X88562742Y-116277500D02*
X89037258Y-116277500D01*
X88562742Y-117322500D02*
X89037258Y-117322500D01*
%TO.C,C48*%
X66392164Y-120440000D02*
X66607836Y-120440000D01*
X66392164Y-121160000D02*
X66607836Y-121160000D01*
%TO.C,R15*%
X58122500Y-94862742D02*
X58122500Y-95337258D01*
X57077500Y-94862742D02*
X57077500Y-95337258D01*
%TO.C,C32*%
X131912164Y-32740000D02*
X132127836Y-32740000D01*
X131912164Y-33460000D02*
X132127836Y-33460000D01*
%TO.C,C22*%
X162340000Y-36827836D02*
X162340000Y-36612164D01*
X163060000Y-36827836D02*
X163060000Y-36612164D01*
%TO.C,R10*%
X118122500Y-38137258D02*
X118122500Y-37662742D01*
X117077500Y-38137258D02*
X117077500Y-37662742D01*
%TO.C,R22*%
X86977500Y-80337258D02*
X86977500Y-79862742D01*
X88022500Y-80337258D02*
X88022500Y-79862742D01*
%TO.C,D2*%
X152250000Y-107300000D02*
X152250000Y-104750000D01*
X153950000Y-107300000D02*
X152250000Y-107300000D01*
X153950000Y-107300000D02*
X153950000Y-104750000D01*
%TO.C,C45*%
X151392164Y-57240000D02*
X151607836Y-57240000D01*
X151392164Y-57960000D02*
X151607836Y-57960000D01*
%TD*%
%LPC*%
D11*
%TO.C,J8*%
X55000000Y-77000000D03*
D12*
X57540000Y-77000000D03*
X60080000Y-77000000D03*
%TD*%
D11*
%TO.C,J25*%
X129475000Y-98000000D03*
D12*
X132015000Y-98000000D03*
X134555000Y-98000000D03*
%TD*%
D11*
%TO.C,J29*%
X69000000Y-98000000D03*
D12*
X71540000Y-98000000D03*
%TD*%
D11*
%TO.C,J19*%
X39000000Y-56000000D03*
D12*
X41540000Y-56000000D03*
%TD*%
D11*
%TO.C,J13*%
X85000000Y-98000000D03*
D12*
X87540000Y-98000000D03*
X90080000Y-98000000D03*
%TD*%
D11*
%TO.C,J31*%
X85475000Y-119000000D03*
D12*
X88015000Y-119000000D03*
X90555000Y-119000000D03*
%TD*%
D13*
%TO.C,H4*%
X49000000Y-35000000D03*
%TD*%
D11*
%TO.C,J11*%
X85000000Y-56000000D03*
D12*
X87540000Y-56000000D03*
X90080000Y-56000000D03*
%TD*%
D14*
%TO.C,C7*%
X158000000Y-114000000D03*
D15*
X153000000Y-114000000D03*
%TD*%
D11*
%TO.C,J35*%
X99000000Y-56000000D03*
D12*
X101540000Y-56000000D03*
%TD*%
D11*
%TO.C,J10*%
X85000000Y-35000000D03*
D12*
X87540000Y-35000000D03*
X90080000Y-35000000D03*
%TD*%
D11*
%TO.C,J6*%
X55000000Y-35000000D03*
D12*
X57540000Y-35000000D03*
X60080000Y-35000000D03*
%TD*%
D11*
%TO.C,J16*%
X115000000Y-77000000D03*
D12*
X117540000Y-77000000D03*
X120080000Y-77000000D03*
%TD*%
D11*
%TO.C,J26*%
X69000000Y-35000000D03*
D12*
X71540000Y-35000000D03*
%TD*%
D11*
%TO.C,J20*%
X39000000Y-77000000D03*
D12*
X41540000Y-77000000D03*
%TD*%
D11*
%TO.C,J30*%
X64000000Y-119000000D03*
D12*
X66540000Y-119000000D03*
X69080000Y-119000000D03*
%TD*%
D11*
%TO.C,J4*%
X25000000Y-77000000D03*
D12*
X27540000Y-77000000D03*
X30080000Y-77000000D03*
%TD*%
D11*
%TO.C,J17*%
X115000000Y-98000000D03*
D12*
X117540000Y-98000000D03*
X120080000Y-98000000D03*
%TD*%
D11*
%TO.C,J7*%
X55000000Y-56000000D03*
D12*
X57540000Y-56000000D03*
X60080000Y-56000000D03*
%TD*%
D16*
%TO.C,U3*%
X151920000Y-83007969D03*
X162080000Y-39827969D03*
X164620000Y-37287969D03*
X164620000Y-39827969D03*
X164620000Y-42367969D03*
X164620000Y-44907969D03*
X164620000Y-47447969D03*
X164620000Y-49987969D03*
X164620000Y-52527969D03*
X164620000Y-55067969D03*
X164620000Y-57607969D03*
X164620000Y-60147969D03*
X164620000Y-62687969D03*
X164620000Y-65227969D03*
X164620000Y-67767969D03*
X164620000Y-70307969D03*
X164620000Y-72847969D03*
X164620000Y-75387969D03*
X164620000Y-77927969D03*
X164620000Y-80467969D03*
X164620000Y-83007969D03*
X164620000Y-85547969D03*
X164620000Y-88087969D03*
X164620000Y-90627969D03*
X164620000Y-93167969D03*
X164620000Y-95707969D03*
X149380000Y-95707969D03*
X149380000Y-93167969D03*
X149380000Y-90627969D03*
X149380000Y-88087969D03*
X149380000Y-85547969D03*
X149380000Y-83007969D03*
X149380000Y-80467969D03*
X149380000Y-77927969D03*
X149380000Y-75387969D03*
X149380000Y-72847969D03*
X149380000Y-70307969D03*
X149380000Y-67767969D03*
X149380000Y-65227969D03*
X149380000Y-62687969D03*
X149380000Y-60147969D03*
X149380000Y-57607969D03*
X149380000Y-55067969D03*
X149380000Y-52527969D03*
X149380000Y-49987969D03*
X149380000Y-47447969D03*
X149380000Y-44907969D03*
X149380000Y-42367969D03*
X149380000Y-39827969D03*
D17*
X149380000Y-37287969D03*
%TD*%
D11*
%TO.C,J27*%
X69000000Y-56000000D03*
D12*
X71540000Y-56000000D03*
%TD*%
D13*
%TO.C,H2*%
X35000000Y-119000000D03*
%TD*%
D11*
%TO.C,J24*%
X129475000Y-77100000D03*
D12*
X132015000Y-77100000D03*
X134555000Y-77100000D03*
%TD*%
D11*
%TO.C,J37*%
X99000000Y-98000000D03*
D12*
X101540000Y-98000000D03*
%TD*%
D13*
%TO.C,H1*%
X142000000Y-35000000D03*
%TD*%
D11*
%TO.C,J39*%
X43998849Y-119000000D03*
D12*
X46538849Y-119000000D03*
%TD*%
D11*
%TO.C,J2*%
X25000000Y-35000000D03*
D12*
X27540000Y-35000000D03*
X30080000Y-35000000D03*
%TD*%
D11*
%TO.C,J38*%
X25130000Y-119000000D03*
D12*
X27670000Y-119000000D03*
%TD*%
D11*
%TO.C,J22*%
X129475000Y-35100000D03*
D12*
X132015000Y-35100000D03*
X134555000Y-35100000D03*
%TD*%
D11*
%TO.C,J5*%
X25000000Y-98000000D03*
D12*
X27540000Y-98000000D03*
X30080000Y-98000000D03*
%TD*%
D11*
%TO.C,J23*%
X129475000Y-56100000D03*
D12*
X132015000Y-56100000D03*
X134555000Y-56100000D03*
%TD*%
D11*
%TO.C,J15*%
X115000000Y-56000000D03*
D12*
X117540000Y-56000000D03*
X120080000Y-56000000D03*
%TD*%
D11*
%TO.C,J28*%
X69000000Y-77000000D03*
D12*
X71540000Y-77000000D03*
%TD*%
D11*
%TO.C,J1*%
X149680000Y-102810000D03*
D12*
X152220000Y-102810000D03*
X154760000Y-102810000D03*
X157300000Y-102810000D03*
X159840000Y-102810000D03*
X162380000Y-102810000D03*
%TD*%
D11*
%TO.C,J14*%
X115000000Y-35000000D03*
D12*
X117540000Y-35000000D03*
X120080000Y-35000000D03*
%TD*%
D11*
%TO.C,J21*%
X39000000Y-98000000D03*
D12*
X41540000Y-98000000D03*
%TD*%
D11*
%TO.C,J32*%
X106475000Y-119000000D03*
D12*
X109015000Y-119000000D03*
X111555000Y-119000000D03*
%TD*%
D11*
%TO.C,J9*%
X55000000Y-98000000D03*
D12*
X57540000Y-98000000D03*
X60080000Y-98000000D03*
%TD*%
D11*
%TO.C,J33*%
X129475000Y-119000000D03*
D12*
X132015000Y-119000000D03*
X134555000Y-119000000D03*
%TD*%
D11*
%TO.C,J36*%
X99000000Y-77000000D03*
D12*
X101540000Y-77000000D03*
%TD*%
D11*
%TO.C,J3*%
X25000000Y-56000000D03*
D12*
X27540000Y-56000000D03*
X30080000Y-56000000D03*
%TD*%
D11*
%TO.C,J18*%
X39000000Y-35000000D03*
D12*
X41540000Y-35000000D03*
%TD*%
D13*
%TO.C,H3*%
X142711346Y-119000000D03*
%TD*%
D11*
%TO.C,J34*%
X99000000Y-35000000D03*
D12*
X101540000Y-35000000D03*
%TD*%
D11*
%TO.C,J12*%
X85000000Y-77000000D03*
D12*
X87540000Y-77000000D03*
X90080000Y-77000000D03*
%TD*%
D18*
%TO.C,C24*%
X147780000Y-44900000D03*
X146820000Y-44900000D03*
%TD*%
D19*
%TO.C,R18*%
X87600000Y-38825000D03*
X87600000Y-37175000D03*
%TD*%
%TO.C,R8*%
X159800000Y-100625000D03*
X159800000Y-98975000D03*
%TD*%
D20*
%TO.C,D1*%
X150800000Y-106850000D03*
X150800000Y-104750000D03*
%TD*%
D19*
%TO.C,R5*%
X152200000Y-100625000D03*
X152200000Y-98975000D03*
%TD*%
%TO.C,R9*%
X57600000Y-38625000D03*
X57600000Y-36975000D03*
%TD*%
D21*
%TO.C,R20*%
X87500000Y-52375000D03*
X87500000Y-54025000D03*
%TD*%
D18*
%TO.C,C21*%
X117980000Y-99900000D03*
X117020000Y-99900000D03*
%TD*%
D21*
%TO.C,R23*%
X27600000Y-94275000D03*
X27600000Y-95925000D03*
%TD*%
D22*
%TO.C,C50*%
X108620000Y-120800000D03*
X109580000Y-120800000D03*
%TD*%
%TO.C,C33*%
X131520000Y-54300000D03*
X132480000Y-54300000D03*
%TD*%
D18*
%TO.C,C3*%
X28080000Y-74900000D03*
X27120000Y-74900000D03*
%TD*%
D23*
%TO.C,R25*%
X161975000Y-119400000D03*
X163625000Y-119400000D03*
%TD*%
%TO.C,R31*%
X131975000Y-58300000D03*
X133625000Y-58300000D03*
%TD*%
D19*
%TO.C,R6*%
X154800000Y-100625000D03*
X154800000Y-98975000D03*
%TD*%
D18*
%TO.C,C29*%
X161680000Y-53500000D03*
X160720000Y-53500000D03*
%TD*%
D24*
%TO.C,U2*%
X137825000Y-91062500D03*
X137175000Y-91062500D03*
X136525000Y-91062500D03*
X135875000Y-91062500D03*
X135225000Y-91062500D03*
X134575000Y-91062500D03*
X133925000Y-91062500D03*
X133275000Y-91062500D03*
X132625000Y-91062500D03*
X131975000Y-91062500D03*
X131975000Y-85337500D03*
X132625000Y-85337500D03*
X133275000Y-85337500D03*
X133925000Y-85337500D03*
X134575000Y-85337500D03*
X135225000Y-85337500D03*
X135875000Y-85337500D03*
X136525000Y-85337500D03*
X137175000Y-85337500D03*
X137825000Y-85337500D03*
%TD*%
D23*
%TO.C,R3*%
X136175000Y-41200000D03*
X137825000Y-41200000D03*
%TD*%
D18*
%TO.C,C18*%
X118080000Y-33000000D03*
X117120000Y-33000000D03*
%TD*%
D23*
%TO.C,R35*%
X131975000Y-60000000D03*
X133625000Y-60000000D03*
%TD*%
D18*
%TO.C,C23*%
X151980000Y-72900000D03*
X151020000Y-72900000D03*
%TD*%
%TO.C,C10*%
X57120000Y-75100000D03*
X58080000Y-75100000D03*
%TD*%
%TO.C,C15*%
X88080000Y-58000000D03*
X87120000Y-58000000D03*
%TD*%
D19*
%TO.C,R7*%
X157400000Y-100625000D03*
X157400000Y-98975000D03*
%TD*%
D23*
%TO.C,R52*%
X108975000Y-115000000D03*
X110625000Y-115000000D03*
%TD*%
D25*
%TO.C,C12*%
X137500000Y-43120000D03*
X137500000Y-44080000D03*
%TD*%
D22*
%TO.C,C53*%
X164340000Y-99900000D03*
X165300000Y-99900000D03*
%TD*%
D18*
%TO.C,C19*%
X117980000Y-57800000D03*
X117020000Y-57800000D03*
%TD*%
D23*
%TO.C,R29*%
X38975000Y-96000000D03*
X40625000Y-96000000D03*
%TD*%
D19*
%TO.C,R21*%
X27600000Y-80825000D03*
X27600000Y-79175000D03*
%TD*%
D22*
%TO.C,C49*%
X87520000Y-120800000D03*
X88480000Y-120800000D03*
%TD*%
D23*
%TO.C,R28*%
X38975000Y-74900000D03*
X40625000Y-74900000D03*
%TD*%
D25*
%TO.C,C13*%
X139000000Y-85700000D03*
X139000000Y-86660000D03*
%TD*%
D23*
%TO.C,R51*%
X87975000Y-115000000D03*
X89625000Y-115000000D03*
%TD*%
%TO.C,R2*%
X139400000Y-91000000D03*
X141050000Y-91000000D03*
%TD*%
D22*
%TO.C,C27*%
X151120000Y-88100000D03*
X152080000Y-88100000D03*
%TD*%
D25*
%TO.C,C46*%
X161100000Y-93020000D03*
X161100000Y-93980000D03*
%TD*%
%TO.C,C42*%
X162900000Y-80600000D03*
X162900000Y-81560000D03*
%TD*%
D26*
%TO.C,C30*%
X162800000Y-78100000D03*
X162800000Y-77140000D03*
%TD*%
D18*
%TO.C,C38*%
X147380000Y-85800000D03*
X146420000Y-85800000D03*
%TD*%
D20*
%TO.C,D5*%
X157600000Y-106850000D03*
X157600000Y-104750000D03*
%TD*%
D22*
%TO.C,C34*%
X131620000Y-75200000D03*
X132580000Y-75200000D03*
%TD*%
D20*
%TO.C,D3*%
X155400000Y-106850000D03*
X155400000Y-104750000D03*
%TD*%
D21*
%TO.C,R19*%
X27600000Y-52275000D03*
X27600000Y-53925000D03*
%TD*%
D23*
%TO.C,R48*%
X98975000Y-74900000D03*
X100625000Y-74900000D03*
%TD*%
D18*
%TO.C,C2*%
X28080000Y-57900000D03*
X27120000Y-57900000D03*
%TD*%
D23*
%TO.C,R36*%
X132075000Y-81100000D03*
X133725000Y-81100000D03*
%TD*%
D18*
%TO.C,C14*%
X87980000Y-32900000D03*
X87020000Y-32900000D03*
%TD*%
D20*
%TO.C,D4*%
X159800000Y-106850000D03*
X159800000Y-104750000D03*
%TD*%
D27*
%TO.C,C6*%
X161700000Y-104825000D03*
X161700000Y-106375000D03*
%TD*%
D18*
%TO.C,C17*%
X87980000Y-99800000D03*
X87020000Y-99800000D03*
%TD*%
D22*
%TO.C,C35*%
X131540000Y-96200000D03*
X132500000Y-96200000D03*
%TD*%
D26*
%TO.C,C31*%
X162600000Y-75860000D03*
X162600000Y-74900000D03*
%TD*%
D19*
%TO.C,R17*%
X27500000Y-38625000D03*
X27500000Y-36975000D03*
%TD*%
D21*
%TO.C,R11*%
X57600000Y-52375000D03*
X57600000Y-54025000D03*
%TD*%
D24*
%TO.C,U1*%
X136125000Y-48862500D03*
X135475000Y-48862500D03*
X134825000Y-48862500D03*
X134175000Y-48862500D03*
X133525000Y-48862500D03*
X132875000Y-48862500D03*
X132225000Y-48862500D03*
X131575000Y-48862500D03*
X130925000Y-48862500D03*
X130275000Y-48862500D03*
X130275000Y-43137500D03*
X130925000Y-43137500D03*
X131575000Y-43137500D03*
X132225000Y-43137500D03*
X132875000Y-43137500D03*
X133525000Y-43137500D03*
X134175000Y-43137500D03*
X134825000Y-43137500D03*
X135475000Y-43137500D03*
X136125000Y-43137500D03*
%TD*%
D23*
%TO.C,R37*%
X132175000Y-101800000D03*
X133825000Y-101800000D03*
%TD*%
D18*
%TO.C,C9*%
X58080000Y-57800000D03*
X57120000Y-57800000D03*
%TD*%
D19*
%TO.C,R47*%
X99000000Y-54025000D03*
X99000000Y-52375000D03*
%TD*%
D23*
%TO.C,R32*%
X132075000Y-79200000D03*
X133725000Y-79200000D03*
%TD*%
D18*
%TO.C,C43*%
X146180000Y-84100000D03*
X145220000Y-84100000D03*
%TD*%
%TO.C,C39*%
X146580000Y-92800000D03*
X145620000Y-92800000D03*
%TD*%
%TO.C,C41*%
X161680000Y-50200000D03*
X160720000Y-50200000D03*
%TD*%
D19*
%TO.C,R14*%
X117500000Y-80725000D03*
X117500000Y-79075000D03*
%TD*%
D23*
%TO.C,R50*%
X66575000Y-115000000D03*
X68225000Y-115000000D03*
%TD*%
D22*
%TO.C,C51*%
X131520000Y-120800000D03*
X132480000Y-120800000D03*
%TD*%
D18*
%TO.C,C8*%
X57980000Y-33100000D03*
X57020000Y-33100000D03*
%TD*%
D25*
%TO.C,C28*%
X162900000Y-83000000D03*
X162900000Y-83960000D03*
%TD*%
D23*
%TO.C,R49*%
X98975000Y-100000000D03*
X100625000Y-100000000D03*
%TD*%
D18*
%TO.C,C16*%
X88080000Y-75000000D03*
X87120000Y-75000000D03*
%TD*%
%TO.C,C4*%
X28080000Y-100000000D03*
X27120000Y-100000000D03*
%TD*%
D23*
%TO.C,R53*%
X131975000Y-115000000D03*
X133625000Y-115000000D03*
%TD*%
%TO.C,R41*%
X68975000Y-96000000D03*
X70625000Y-96000000D03*
%TD*%
D18*
%TO.C,C1*%
X27980000Y-32500000D03*
X27020000Y-32500000D03*
%TD*%
D23*
%TO.C,R34*%
X132075000Y-38900000D03*
X133725000Y-38900000D03*
%TD*%
%TO.C,R42*%
X66575000Y-116800000D03*
X68225000Y-116800000D03*
%TD*%
%TO.C,R30*%
X132050000Y-37200000D03*
X133700000Y-37200000D03*
%TD*%
D18*
%TO.C,C25*%
X146520000Y-47600000D03*
X147480000Y-47600000D03*
%TD*%
D22*
%TO.C,C36*%
X151100000Y-52500000D03*
X152060000Y-52500000D03*
%TD*%
D18*
%TO.C,C37*%
X145920000Y-50500000D03*
X146880000Y-50500000D03*
%TD*%
D23*
%TO.C,R44*%
X108975000Y-116800000D03*
X110625000Y-116800000D03*
%TD*%
D26*
%TO.C,C52*%
X162900000Y-85980000D03*
X162900000Y-85020000D03*
%TD*%
D23*
%TO.C,R55*%
X43975000Y-116800000D03*
X45625000Y-116800000D03*
%TD*%
D25*
%TO.C,C44*%
X165400000Y-97720000D03*
X165400000Y-98680000D03*
%TD*%
D23*
%TO.C,R26*%
X39075000Y-32900000D03*
X40725000Y-32900000D03*
%TD*%
D19*
%TO.C,R27*%
X39000000Y-53925000D03*
X39000000Y-52275000D03*
%TD*%
D22*
%TO.C,C26*%
X151120000Y-85600000D03*
X152080000Y-85600000D03*
%TD*%
D23*
%TO.C,R38*%
X68975000Y-32800000D03*
X70625000Y-32800000D03*
%TD*%
D18*
%TO.C,C11*%
X57980000Y-100000000D03*
X57020000Y-100000000D03*
%TD*%
D26*
%TO.C,C40*%
X144300000Y-81680000D03*
X144300000Y-80720000D03*
%TD*%
D21*
%TO.C,R24*%
X87600000Y-94275000D03*
X87600000Y-95925000D03*
%TD*%
D23*
%TO.C,R40*%
X68975000Y-74900000D03*
X70625000Y-74900000D03*
%TD*%
%TO.C,R46*%
X98975000Y-32900000D03*
X100625000Y-32900000D03*
%TD*%
D18*
%TO.C,C20*%
X118080000Y-75000000D03*
X117120000Y-75000000D03*
%TD*%
D23*
%TO.C,R1*%
X137575000Y-48900000D03*
X139225000Y-48900000D03*
%TD*%
%TO.C,R4*%
X139375000Y-84200000D03*
X141025000Y-84200000D03*
%TD*%
D21*
%TO.C,R12*%
X117600000Y-52275000D03*
X117600000Y-53925000D03*
%TD*%
D26*
%TO.C,C47*%
X162900000Y-89580000D03*
X162900000Y-88620000D03*
%TD*%
D23*
%TO.C,R45*%
X131975000Y-116800000D03*
X133625000Y-116800000D03*
%TD*%
D19*
%TO.C,R39*%
X69000000Y-53925000D03*
X69000000Y-52275000D03*
%TD*%
D21*
%TO.C,R16*%
X117600000Y-94275000D03*
X117600000Y-95925000D03*
%TD*%
D19*
%TO.C,R13*%
X57600000Y-80725000D03*
X57600000Y-79075000D03*
%TD*%
D25*
%TO.C,C5*%
X163100000Y-104620000D03*
X163100000Y-105580000D03*
%TD*%
D23*
%TO.C,R54*%
X24975000Y-116800000D03*
X26625000Y-116800000D03*
%TD*%
%TO.C,R33*%
X132075000Y-100000000D03*
X133725000Y-100000000D03*
%TD*%
%TO.C,R43*%
X87975000Y-116800000D03*
X89625000Y-116800000D03*
%TD*%
D22*
%TO.C,C48*%
X66020000Y-120800000D03*
X66980000Y-120800000D03*
%TD*%
D21*
%TO.C,R15*%
X57600000Y-94275000D03*
X57600000Y-95925000D03*
%TD*%
D22*
%TO.C,C32*%
X131540000Y-33100000D03*
X132500000Y-33100000D03*
%TD*%
D26*
%TO.C,C22*%
X162700000Y-37200000D03*
X162700000Y-36240000D03*
%TD*%
D19*
%TO.C,R10*%
X117600000Y-38725000D03*
X117600000Y-37075000D03*
%TD*%
%TO.C,R22*%
X87500000Y-80925000D03*
X87500000Y-79275000D03*
%TD*%
D20*
%TO.C,D2*%
X153100000Y-104750000D03*
X153100000Y-106850000D03*
%TD*%
D22*
%TO.C,C45*%
X151020000Y-57600000D03*
X151980000Y-57600000D03*
%TD*%
M02*
