%FSLAX45Y45*%
G04 Gerber Fmt 4.5, Leading zero omitted, Abs format (unit mm)*
G04 Created by KiCad (PCBNEW 6.0.4-6f826c9f35~116~ubuntu20.04.1) date 2022-04-28 23:04:10*
%MOMM*%
%LPD*%
G01*
G04 APERTURE LIST*
%TA.AperFunction,Profile*%
%ADD10C,0.100000*%
%TD*%
%ADD11C,0.200000*%
%ADD12C,0.040000*%
%ADD13C,0.100000*%
%ADD14C,0.110000*%
G04 APERTURE END LIST*
D10*
X16500000Y-1800000D02*
X2500000Y-1800000D01*
X2300000Y-12100000D02*
G75*
G03*
X2500000Y-12300000I200000J0D01*
G01*
X2300000Y-12100000D02*
X2300000Y-2000000D01*
X16700000Y-12100000D02*
X16700000Y-2000000D01*
X2500000Y-12300000D02*
X16500000Y-12300000D01*
X16500000Y-12300000D02*
G75*
G03*
X16700000Y-12100000I0J200000D01*
G01*
X16700000Y-2000000D02*
G75*
G03*
X16500000Y-1800000I-200000J0D01*
G01*
X2500000Y-1800000D02*
G75*
G03*
X2300000Y-2000000I0J-200000D01*
G01*
D11*
D12*
X2420000Y-2950000D02*
X2460000Y-2990000D01*
X2460000Y-2950000D02*
X2420000Y-2990000D01*
X2440000Y-1950000D02*
X2480000Y-1990000D01*
X2480000Y-1950000D02*
X2440000Y-1990000D01*
X2450000Y-10430000D02*
X2490000Y-10470000D01*
X2490000Y-10430000D02*
X2450000Y-10470000D01*
X2640000Y-11770000D02*
X2680000Y-11810000D01*
X2680000Y-11770000D02*
X2640000Y-11810000D01*
X2660000Y-6000000D02*
X2700000Y-6040000D01*
X2700000Y-6000000D02*
X2660000Y-6040000D01*
X2670000Y-7250000D02*
X2710000Y-7290000D01*
X2710000Y-7250000D02*
X2670000Y-7290000D01*
X2740000Y-4490000D02*
X2780000Y-4530000D01*
X2780000Y-4490000D02*
X2740000Y-4530000D01*
X2740000Y-8740000D02*
X2780000Y-8780000D01*
X2780000Y-8740000D02*
X2740000Y-8780000D01*
X2740000Y-8820000D02*
X2780000Y-8860000D01*
X2780000Y-8820000D02*
X2740000Y-8860000D01*
X2750000Y-4600000D02*
X2790000Y-4640000D01*
X2790000Y-4600000D02*
X2750000Y-4640000D01*
X2850000Y-4110000D02*
X2890000Y-4150000D01*
X2890000Y-4110000D02*
X2850000Y-4150000D01*
X2860000Y-8260000D02*
X2900000Y-8300000D01*
X2900000Y-8260000D02*
X2860000Y-8300000D01*
X2860000Y-8950000D02*
X2900000Y-8990000D01*
X2900000Y-8950000D02*
X2860000Y-8990000D01*
X2900000Y-4750000D02*
X2940000Y-4790000D01*
X2940000Y-4750000D02*
X2900000Y-4790000D01*
X3480000Y-10130000D02*
X3520000Y-10170000D01*
X3520000Y-10130000D02*
X3480000Y-10170000D01*
X3490000Y-9510000D02*
X3530000Y-9550000D01*
X3530000Y-9510000D02*
X3490000Y-9550000D01*
X3880000Y-4890000D02*
X3920000Y-4930000D01*
X3920000Y-4890000D02*
X3880000Y-4930000D01*
X3890000Y-1960000D02*
X3930000Y-2000000D01*
X3930000Y-1960000D02*
X3890000Y-2000000D01*
X4050000Y-3030000D02*
X4090000Y-3070000D01*
X4090000Y-3030000D02*
X4050000Y-3070000D01*
X4050752Y-9409248D02*
X4090752Y-9449248D01*
X4090752Y-9409248D02*
X4050752Y-9449248D01*
X4060000Y-7280000D02*
X4100000Y-7320000D01*
X4100000Y-7280000D02*
X4060000Y-7320000D01*
X4440000Y-10560000D02*
X4480000Y-10600000D01*
X4480000Y-10560000D02*
X4440000Y-10600000D01*
X4560000Y-11520000D02*
X4600000Y-11560000D01*
X4600000Y-11520000D02*
X4560000Y-11560000D01*
X5080000Y-9540000D02*
X5120000Y-9580000D01*
X5120000Y-9540000D02*
X5080000Y-9580000D01*
X5080000Y-10090000D02*
X5120000Y-10130000D01*
X5120000Y-10090000D02*
X5080000Y-10130000D01*
X5250000Y-7140000D02*
X5290000Y-7180000D01*
X5290000Y-7140000D02*
X5250000Y-7180000D01*
X5260000Y-5050000D02*
X5300000Y-5090000D01*
X5300000Y-5050000D02*
X5260000Y-5090000D01*
X5300000Y-4750000D02*
X5340000Y-4790000D01*
X5340000Y-4750000D02*
X5300000Y-4790000D01*
X5330000Y-1950000D02*
X5370000Y-1990000D01*
X5370000Y-1950000D02*
X5330000Y-1990000D01*
X5330000Y-4380000D02*
X5370000Y-4420000D01*
X5370000Y-4380000D02*
X5330000Y-4420000D01*
X5710000Y-7140000D02*
X5750000Y-7180000D01*
X5750000Y-7140000D02*
X5710000Y-7180000D01*
X5740000Y-4670000D02*
X5780000Y-4710000D01*
X5780000Y-4670000D02*
X5740000Y-4710000D01*
X5740000Y-8680000D02*
X5780000Y-8720000D01*
X5780000Y-8680000D02*
X5740000Y-8720000D01*
X5740000Y-8890000D02*
X5780000Y-8930000D01*
X5780000Y-8890000D02*
X5740000Y-8930000D01*
X5750000Y-4430000D02*
X5790000Y-4470000D01*
X5790000Y-4430000D02*
X5750000Y-4470000D01*
X5900000Y-4270000D02*
X5940000Y-4310000D01*
X5940000Y-4270000D02*
X5900000Y-4310000D01*
X5900000Y-4780000D02*
X5940000Y-4820000D01*
X5940000Y-4780000D02*
X5900000Y-4820000D01*
X6300000Y-10510000D02*
X6340000Y-10550000D01*
X6340000Y-10510000D02*
X6300000Y-10550000D01*
X6630000Y-10090000D02*
X6670000Y-10130000D01*
X6670000Y-10090000D02*
X6630000Y-10130000D01*
X6650000Y-9530000D02*
X6690000Y-9570000D01*
X6690000Y-9530000D02*
X6650000Y-9570000D01*
X6720000Y-1930000D02*
X6760000Y-1970000D01*
X6760000Y-1930000D02*
X6720000Y-1970000D01*
X6780000Y-8180000D02*
X6820000Y-8220000D01*
X6820000Y-8180000D02*
X6780000Y-8220000D01*
X6890000Y-4990000D02*
X6930000Y-5030000D01*
X6930000Y-4990000D02*
X6890000Y-5030000D01*
X7020000Y-7980000D02*
X7060000Y-8020000D01*
X7060000Y-7980000D02*
X7020000Y-8020000D01*
X7040000Y-9320000D02*
X7080000Y-9360000D01*
X7080000Y-9320000D02*
X7040000Y-9360000D01*
X7050000Y-3090000D02*
X7090000Y-3130000D01*
X7090000Y-3090000D02*
X7050000Y-3130000D01*
X7800000Y-10070000D02*
X7840000Y-10110000D01*
X7840000Y-10070000D02*
X7800000Y-10110000D01*
X7810000Y-9570000D02*
X7850000Y-9610000D01*
X7850000Y-9570000D02*
X7810000Y-9610000D01*
X8070000Y-7140000D02*
X8110000Y-7180000D01*
X8110000Y-7140000D02*
X8070000Y-7180000D01*
X8100000Y-10530000D02*
X8140000Y-10570000D01*
X8140000Y-10530000D02*
X8100000Y-10570000D01*
X8290000Y-4290000D02*
X8330000Y-4330000D01*
X8330000Y-4290000D02*
X8290000Y-4330000D01*
X8310000Y-4770000D02*
X8350000Y-4810000D01*
X8350000Y-4770000D02*
X8310000Y-4810000D01*
X8510000Y-1900000D02*
X8550000Y-1940000D01*
X8550000Y-1900000D02*
X8510000Y-1940000D01*
X8740000Y-4150000D02*
X8780000Y-4190000D01*
X8780000Y-4150000D02*
X8740000Y-4190000D01*
X8740000Y-4760000D02*
X8780000Y-4800000D01*
X8780000Y-4760000D02*
X8740000Y-4800000D01*
X8740000Y-8590000D02*
X8780000Y-8630000D01*
X8780000Y-8590000D02*
X8740000Y-8630000D01*
X8740000Y-8980000D02*
X8780000Y-9020000D01*
X8780000Y-8980000D02*
X8740000Y-9020000D01*
X8830000Y-7140000D02*
X8870000Y-7180000D01*
X8870000Y-7140000D02*
X8830000Y-7180000D01*
X9120000Y-5180000D02*
X9160000Y-5220000D01*
X9160000Y-5180000D02*
X9120000Y-5220000D01*
X9280000Y-7170000D02*
X9320000Y-7210000D01*
X9320000Y-7170000D02*
X9280000Y-7210000D01*
X9460000Y-10110000D02*
X9500000Y-10150000D01*
X9500000Y-10110000D02*
X9460000Y-10150000D01*
X9470000Y-9520000D02*
X9510000Y-9560000D01*
X9510000Y-9520000D02*
X9470000Y-9560000D01*
X9500000Y-5310000D02*
X9540000Y-5350000D01*
X9540000Y-5310000D02*
X9500000Y-5350000D01*
X9880000Y-5080000D02*
X9920000Y-5120000D01*
X9920000Y-5080000D02*
X9880000Y-5120000D01*
X10020000Y-9080000D02*
X10060000Y-9120000D01*
X10060000Y-9080000D02*
X10020000Y-9120000D01*
X10040000Y-10120000D02*
X10080000Y-10160000D01*
X10080000Y-10120000D02*
X10040000Y-10160000D01*
X10110000Y-10510000D02*
X10150000Y-10550000D01*
X10150000Y-10510000D02*
X10110000Y-10550000D01*
X10190000Y-3170000D02*
X10230000Y-3210000D01*
X10230000Y-3170000D02*
X10190000Y-3210000D01*
X10510000Y-1950000D02*
X10550000Y-1990000D01*
X10550000Y-1950000D02*
X10510000Y-1990000D01*
X10930000Y-9530000D02*
X10970000Y-9570000D01*
X10970000Y-9530000D02*
X10930000Y-9570000D01*
X10930000Y-10030000D02*
X10970000Y-10070000D01*
X10970000Y-10030000D02*
X10930000Y-10070000D01*
X11010000Y-5320000D02*
X11050000Y-5360000D01*
X11050000Y-5320000D02*
X11010000Y-5360000D01*
X11060000Y-8060000D02*
X11100000Y-8100000D01*
X11100000Y-8060000D02*
X11060000Y-8100000D01*
X11240000Y-9540000D02*
X11280000Y-9580000D01*
X11280000Y-9540000D02*
X11240000Y-9580000D01*
X11240000Y-10020000D02*
X11280000Y-10060000D01*
X11280000Y-10020000D02*
X11240000Y-10060000D01*
X11270000Y-7170000D02*
X11310000Y-7210000D01*
X11310000Y-7170000D02*
X11270000Y-7210000D01*
X11480000Y-4290000D02*
X11520000Y-4330000D01*
X11520000Y-4290000D02*
X11480000Y-4330000D01*
X11480000Y-8500000D02*
X11520000Y-8540000D01*
X11520000Y-8500000D02*
X11480000Y-8540000D01*
X11480000Y-10350000D02*
X11520000Y-10390000D01*
X11520000Y-10350000D02*
X11480000Y-10390000D01*
X11730000Y-8370000D02*
X11770000Y-8410000D01*
X11770000Y-8370000D02*
X11730000Y-8410000D01*
X11740000Y-9251048D02*
X11780000Y-9291048D01*
X11780000Y-9251048D02*
X11740000Y-9291048D01*
X11750000Y-4070000D02*
X11790000Y-4110000D01*
X11790000Y-4070000D02*
X11750000Y-4110000D01*
X11760000Y-5030000D02*
X11800000Y-5070000D01*
X11800000Y-5030000D02*
X11760000Y-5070000D01*
X12090000Y-7130000D02*
X12130000Y-7170000D01*
X12130000Y-7130000D02*
X12090000Y-7170000D01*
X12120000Y-1920000D02*
X12160000Y-1960000D01*
X12160000Y-1920000D02*
X12120000Y-1960000D01*
X12150000Y-10530000D02*
X12190000Y-10570000D01*
X12190000Y-10530000D02*
X12150000Y-10570000D01*
X12440000Y-3930000D02*
X12480000Y-3970000D01*
X12480000Y-3930000D02*
X12440000Y-3970000D01*
X12540000Y-9530000D02*
X12580000Y-9570000D01*
X12580000Y-9530000D02*
X12540000Y-9570000D01*
X12550000Y-10040000D02*
X12590000Y-10080000D01*
X12590000Y-10040000D02*
X12550000Y-10080000D01*
X12650000Y-9610000D02*
X12690000Y-9650000D01*
X12690000Y-9610000D02*
X12650000Y-9650000D01*
X12650000Y-12070000D02*
X12690000Y-12110000D01*
X12690000Y-12070000D02*
X12650000Y-12110000D01*
X12880000Y-3940000D02*
X12920000Y-3980000D01*
X12920000Y-3940000D02*
X12880000Y-3980000D01*
X12890000Y-10010000D02*
X12930000Y-10050000D01*
X12930000Y-10010000D02*
X12890000Y-10050000D01*
X13020000Y-4000000D02*
X13060000Y-4040000D01*
X13060000Y-4000000D02*
X13020000Y-4040000D01*
X13030000Y-7140000D02*
X13070000Y-7180000D01*
X13070000Y-7140000D02*
X13030000Y-7180000D01*
X13058871Y-4514245D02*
X13098871Y-4554245D01*
X13098871Y-4514245D02*
X13058871Y-4554245D01*
X13067470Y-8437550D02*
X13107470Y-8477550D01*
X13107470Y-8437550D02*
X13067470Y-8477550D01*
X13070000Y-4600000D02*
X13110000Y-4640000D01*
X13110000Y-4600000D02*
X13070000Y-4640000D01*
X13134188Y-4487423D02*
X13174188Y-4527423D01*
X13174188Y-4487423D02*
X13134188Y-4527423D01*
X13164068Y-4561580D02*
X13204068Y-4601580D01*
X13204068Y-4561580D02*
X13164068Y-4601580D01*
X13180000Y-8200000D02*
X13220000Y-8240000D01*
X13220000Y-8200000D02*
X13180000Y-8240000D01*
X13193800Y-4423605D02*
X13233800Y-4463605D01*
X13233800Y-4423605D02*
X13193800Y-4463605D01*
X13200000Y-4670000D02*
X13240000Y-4710000D01*
X13240000Y-4670000D02*
X13200000Y-4710000D01*
X13220000Y-8820000D02*
X13260000Y-8860000D01*
X13260000Y-8820000D02*
X13220000Y-8860000D01*
X13240000Y-4600000D02*
X13280000Y-4640000D01*
X13280000Y-4600000D02*
X13240000Y-4640000D01*
X13240000Y-8740000D02*
X13280000Y-8780000D01*
X13280000Y-8740000D02*
X13240000Y-8780000D01*
X13280000Y-7800000D02*
X13320000Y-7840000D01*
X13320000Y-7800000D02*
X13280000Y-7840000D01*
X13320000Y-8260000D02*
X13360000Y-8300000D01*
X13360000Y-8260000D02*
X13320000Y-8300000D01*
X13320000Y-8740000D02*
X13360000Y-8780000D01*
X13360000Y-8740000D02*
X13320000Y-8780000D01*
X13327450Y-4422605D02*
X13367450Y-4462605D01*
X13367450Y-4422605D02*
X13327450Y-4462605D01*
X13330000Y-4150000D02*
X13370000Y-4190000D01*
X13370000Y-4150000D02*
X13330000Y-4190000D01*
X13330000Y-4720000D02*
X13370000Y-4760000D01*
X13370000Y-4720000D02*
X13330000Y-4760000D01*
X13340000Y-5710000D02*
X13380000Y-5750000D01*
X13380000Y-5710000D02*
X13340000Y-5750000D01*
X13370000Y-8670000D02*
X13410000Y-8710000D01*
X13410000Y-8670000D02*
X13370000Y-8710000D01*
X13370000Y-8890000D02*
X13410000Y-8930000D01*
X13410000Y-8890000D02*
X13370000Y-8930000D01*
X13380000Y-9550000D02*
X13420000Y-9590000D01*
X13420000Y-9550000D02*
X13380000Y-9590000D01*
X13420000Y-4660000D02*
X13460000Y-4700000D01*
X13460000Y-4660000D02*
X13420000Y-4700000D01*
X13440000Y-8300000D02*
X13480000Y-8340000D01*
X13480000Y-8300000D02*
X13440000Y-8340000D01*
X13460000Y-4080000D02*
X13500000Y-4120000D01*
X13500000Y-4080000D02*
X13460000Y-4120000D01*
X13460000Y-5020000D02*
X13500000Y-5060000D01*
X13500000Y-5020000D02*
X13460000Y-5060000D01*
X13460000Y-5440000D02*
X13500000Y-5480000D01*
X13500000Y-5440000D02*
X13460000Y-5480000D01*
X13470000Y-3700000D02*
X13510000Y-3740000D01*
X13510000Y-3700000D02*
X13470000Y-3740000D01*
X13480000Y-8840000D02*
X13520000Y-8880000D01*
X13520000Y-8840000D02*
X13480000Y-8880000D01*
X13480000Y-9980000D02*
X13520000Y-10020000D01*
X13520000Y-9980000D02*
X13480000Y-10020000D01*
X13500000Y-8660000D02*
X13540000Y-8700000D01*
X13540000Y-8660000D02*
X13500000Y-8700000D01*
X13500000Y-8940000D02*
X13540000Y-8980000D01*
X13540000Y-8940000D02*
X13500000Y-8980000D01*
X13580000Y-8640000D02*
X13620000Y-8680000D01*
X13620000Y-8640000D02*
X13580000Y-8680000D01*
X13610000Y-9880000D02*
X13650000Y-9920000D01*
X13650000Y-9880000D02*
X13610000Y-9920000D01*
X13620000Y-5980000D02*
X13660000Y-6020000D01*
X13660000Y-5980000D02*
X13620000Y-6020000D01*
X13620000Y-8940000D02*
X13660000Y-8980000D01*
X13660000Y-8940000D02*
X13620000Y-8980000D01*
X13630000Y-8370000D02*
X13670000Y-8410000D01*
X13670000Y-8370000D02*
X13630000Y-8410000D01*
X13630000Y-9230000D02*
X13670000Y-9270000D01*
X13670000Y-9230000D02*
X13630000Y-9270000D01*
X13650000Y-6140000D02*
X13690000Y-6180000D01*
X13690000Y-6140000D02*
X13650000Y-6180000D01*
X13700000Y-5350000D02*
X13740000Y-5390000D01*
X13740000Y-5350000D02*
X13700000Y-5390000D01*
X13720000Y-1990000D02*
X13760000Y-2030000D01*
X13760000Y-1990000D02*
X13720000Y-2030000D01*
X13820000Y-3720000D02*
X13860000Y-3760000D01*
X13860000Y-3720000D02*
X13820000Y-3760000D01*
X13840000Y-4280000D02*
X13880000Y-4320000D01*
X13880000Y-4280000D02*
X13840000Y-4320000D01*
X13840000Y-9000000D02*
X13880000Y-9040000D01*
X13880000Y-9000000D02*
X13840000Y-9040000D01*
X13840000Y-10280000D02*
X13880000Y-10320000D01*
X13880000Y-10280000D02*
X13840000Y-10320000D01*
X13980000Y-8540000D02*
X14020000Y-8580000D01*
X14020000Y-8540000D02*
X13980000Y-8580000D01*
X14490000Y-7420000D02*
X14530000Y-7460000D01*
X14530000Y-7420000D02*
X14490000Y-7460000D01*
X14500000Y-7150000D02*
X14540000Y-7190000D01*
X14540000Y-7150000D02*
X14500000Y-7190000D01*
X14520000Y-8120000D02*
X14560000Y-8160000D01*
X14560000Y-8120000D02*
X14520000Y-8160000D01*
X14580000Y-11530000D02*
X14620000Y-11570000D01*
X14620000Y-11530000D02*
X14580000Y-11570000D01*
X14590000Y-9340000D02*
X14630000Y-9380000D01*
X14630000Y-9340000D02*
X14590000Y-9380000D01*
X14600000Y-8200000D02*
X14640000Y-8240000D01*
X14640000Y-8200000D02*
X14600000Y-8240000D01*
X14620000Y-5360000D02*
X14660000Y-5400000D01*
X14660000Y-5360000D02*
X14620000Y-5400000D01*
X14620000Y-8460000D02*
X14660000Y-8500000D01*
X14660000Y-8460000D02*
X14620000Y-8500000D01*
X14680000Y-7940000D02*
X14720000Y-7980000D01*
X14720000Y-7940000D02*
X14680000Y-7980000D01*
X14680000Y-11910000D02*
X14720000Y-11950000D01*
X14720000Y-11910000D02*
X14680000Y-11950000D01*
X14720000Y-8680000D02*
X14760000Y-8720000D01*
X14760000Y-8680000D02*
X14720000Y-8720000D01*
X14740000Y-6100000D02*
X14780000Y-6140000D01*
X14780000Y-6100000D02*
X14740000Y-6140000D01*
X14740000Y-7280000D02*
X14780000Y-7320000D01*
X14780000Y-7280000D02*
X14740000Y-7320000D01*
X14760000Y-5100000D02*
X14800000Y-5140000D01*
X14800000Y-5100000D02*
X14760000Y-5140000D01*
X14794678Y-8321768D02*
X14834678Y-8361768D01*
X14834678Y-8321768D02*
X14794678Y-8361768D01*
X15036113Y-8134266D02*
X15076113Y-8174266D01*
X15076113Y-8134266D02*
X15036113Y-8174266D01*
X15050000Y-2970148D02*
X15090000Y-3010148D01*
X15090000Y-2970148D02*
X15050000Y-3010148D01*
X15060282Y-9400188D02*
X15100282Y-9440188D01*
X15100282Y-9400188D02*
X15060282Y-9440188D01*
X15120000Y-3010099D02*
X15160000Y-3050099D01*
X15160000Y-3010099D02*
X15120000Y-3050099D01*
X15120000Y-7150000D02*
X15160000Y-7190000D01*
X15160000Y-7150000D02*
X15120000Y-7190000D01*
X15170000Y-7790000D02*
X15210000Y-7830000D01*
X15210000Y-7790000D02*
X15170000Y-7830000D01*
X15170000Y-9740000D02*
X15210000Y-9780000D01*
X15210000Y-9740000D02*
X15170000Y-9780000D01*
X15190000Y-8450000D02*
X15230000Y-8490000D01*
X15230000Y-8450000D02*
X15190000Y-8490000D01*
X15190000Y-9320000D02*
X15230000Y-9360000D01*
X15230000Y-9320000D02*
X15190000Y-9360000D01*
X15280000Y-7010000D02*
X15320000Y-7050000D01*
X15320000Y-7010000D02*
X15280000Y-7050000D01*
X15370000Y-7170000D02*
X15410000Y-7210000D01*
X15410000Y-7170000D02*
X15370000Y-7210000D01*
X15370000Y-7790000D02*
X15410000Y-7830000D01*
X15410000Y-7790000D02*
X15370000Y-7830000D01*
X15480000Y-7080000D02*
X15520000Y-7120000D01*
X15520000Y-7080000D02*
X15480000Y-7120000D01*
X15530000Y-1900000D02*
X15570000Y-1940000D01*
X15570000Y-1900000D02*
X15530000Y-1940000D01*
X15580000Y-2860000D02*
X15620000Y-2900000D01*
X15620000Y-2860000D02*
X15580000Y-2900000D01*
X15590000Y-7770000D02*
X15630000Y-7810000D01*
X15630000Y-7770000D02*
X15590000Y-7810000D01*
X15590000Y-9260000D02*
X15630000Y-9300000D01*
X15630000Y-9260000D02*
X15590000Y-9300000D01*
X15590000Y-9840000D02*
X15630000Y-9880000D01*
X15630000Y-9840000D02*
X15590000Y-9880000D01*
X15610000Y-7140000D02*
X15650000Y-7180000D01*
X15650000Y-7140000D02*
X15610000Y-7180000D01*
X15710000Y-6770000D02*
X15750000Y-6810000D01*
X15750000Y-6770000D02*
X15710000Y-6810000D01*
X15790000Y-11930000D02*
X15830000Y-11970000D01*
X15830000Y-11930000D02*
X15790000Y-11970000D01*
X15840000Y-6510000D02*
X15880000Y-6550000D01*
X15880000Y-6510000D02*
X15840000Y-6550000D01*
X15940190Y-8840190D02*
X15980190Y-8880190D01*
X15980190Y-8840190D02*
X15940190Y-8880190D01*
X15960000Y-8660000D02*
X16000000Y-8700000D01*
X16000000Y-8660000D02*
X15960000Y-8700000D01*
X15980000Y-6000000D02*
X16020000Y-6040000D01*
X16020000Y-6000000D02*
X15980000Y-6040000D01*
X15980000Y-8560000D02*
X16020000Y-8600000D01*
X16020000Y-8560000D02*
X15980000Y-8600000D01*
X16040000Y-6260000D02*
X16080000Y-6300000D01*
X16080000Y-6260000D02*
X16040000Y-6300000D01*
X16088251Y-9181749D02*
X16128251Y-9221749D01*
X16128251Y-9181749D02*
X16088251Y-9221749D01*
X16090000Y-9500000D02*
X16130000Y-9540000D01*
X16130000Y-9500000D02*
X16090000Y-9540000D01*
X16090000Y-9860000D02*
X16130000Y-9900000D01*
X16130000Y-9860000D02*
X16090000Y-9900000D01*
X16105098Y-5085098D02*
X16145098Y-5125098D01*
X16145098Y-5085098D02*
X16105098Y-5125098D01*
X16118550Y-8721603D02*
X16158550Y-8761603D01*
X16158550Y-8721603D02*
X16118550Y-8761603D01*
X16140000Y-5240000D02*
X16180000Y-5280000D01*
X16180000Y-5240000D02*
X16140000Y-5280000D01*
X16140000Y-5840000D02*
X16180000Y-5880000D01*
X16180000Y-5840000D02*
X16140000Y-5880000D01*
X16180000Y-9960000D02*
X16220000Y-10000000D01*
X16220000Y-9960000D02*
X16180000Y-10000000D01*
X16180000Y-11800000D02*
X16220000Y-11840000D01*
X16220000Y-11800000D02*
X16180000Y-11840000D01*
X16210000Y-8500000D02*
X16250000Y-8540000D01*
X16250000Y-8500000D02*
X16210000Y-8540000D01*
X16240000Y-4720000D02*
X16280000Y-4760000D01*
X16280000Y-4720000D02*
X16240000Y-4760000D01*
X16260000Y-4120000D02*
X16300000Y-4160000D01*
X16300000Y-4120000D02*
X16260000Y-4160000D01*
X16260000Y-10690000D02*
X16300000Y-10730000D01*
X16300000Y-10690000D02*
X16260000Y-10730000D01*
X16263001Y-10068770D02*
X16303001Y-10108770D01*
X16303001Y-10068770D02*
X16263001Y-10108770D01*
X16320000Y-4680000D02*
X16360000Y-4720000D01*
X16360000Y-4680000D02*
X16320000Y-4720000D01*
X16320000Y-11500000D02*
X16360000Y-11540000D01*
X16360000Y-11500000D02*
X16320000Y-11540000D01*
X16324146Y-3892450D02*
X16364146Y-3932450D01*
X16364146Y-3892450D02*
X16324146Y-3932450D01*
X16330000Y-11030000D02*
X16370000Y-11070000D01*
X16370000Y-11030000D02*
X16330000Y-11070000D01*
X16390000Y-3420000D02*
X16430000Y-3460000D01*
X16430000Y-3420000D02*
X16390000Y-3460000D01*
X16500000Y-1980000D02*
X16540000Y-2020000D01*
X16540000Y-1980000D02*
X16500000Y-2020000D01*
X16500000Y-10080000D02*
X16540000Y-10120000D01*
X16540000Y-10080000D02*
X16500000Y-10120000D01*
X16500000Y-10360000D02*
X16540000Y-10400000D01*
X16540000Y-10360000D02*
X16500000Y-10400000D01*
X16510000Y-12170000D02*
X16550000Y-12210000D01*
X16550000Y-12170000D02*
X16510000Y-12210000D01*
X16530000Y-3270000D02*
X16570000Y-3310000D01*
X16570000Y-3270000D02*
X16530000Y-3310000D01*
X16550000Y-2930000D02*
X16590000Y-2970000D01*
X16590000Y-2930000D02*
X16550000Y-2970000D01*
X16580000Y-3180000D02*
X16620000Y-3220000D01*
X16620000Y-3180000D02*
X16580000Y-3220000D01*
X16580000Y-8670000D02*
X16620000Y-8710000D01*
X16620000Y-8670000D02*
X16580000Y-8710000D01*
X16630000Y-3820000D02*
X16670000Y-3860000D01*
X16670000Y-3820000D02*
X16630000Y-3860000D01*
X16630000Y-10240000D02*
X16670000Y-10280000D01*
X16670000Y-10240000D02*
X16630000Y-10280000D01*
D13*
X2550000Y-3500000D02*
G75*
G03*
X2550000Y-3500000I-50000J0D01*
G01*
X2550000Y-5600000D02*
G75*
G03*
X2550000Y-5600000I-50000J0D01*
G01*
X2550000Y-7700000D02*
G75*
G03*
X2550000Y-7700000I-50000J0D01*
G01*
X2550000Y-9800000D02*
G75*
G03*
X2550000Y-9800000I-50000J0D01*
G01*
X2563000Y-11900000D02*
G75*
G03*
X2563000Y-11900000I-50000J0D01*
G01*
X2804000Y-3500000D02*
G75*
G03*
X2804000Y-3500000I-50000J0D01*
G01*
X2804000Y-5600000D02*
G75*
G03*
X2804000Y-5600000I-50000J0D01*
G01*
X2804000Y-7700000D02*
G75*
G03*
X2804000Y-7700000I-50000J0D01*
G01*
X2804000Y-9800000D02*
G75*
G03*
X2804000Y-9800000I-50000J0D01*
G01*
X2817000Y-11900000D02*
G75*
G03*
X2817000Y-11900000I-50000J0D01*
G01*
X3058000Y-3500000D02*
G75*
G03*
X3058000Y-3500000I-50000J0D01*
G01*
X3058000Y-5600000D02*
G75*
G03*
X3058000Y-5600000I-50000J0D01*
G01*
X3058000Y-7700000D02*
G75*
G03*
X3058000Y-7700000I-50000J0D01*
G01*
X3058000Y-9800000D02*
G75*
G03*
X3058000Y-9800000I-50000J0D01*
G01*
X3950000Y-3500000D02*
G75*
G03*
X3950000Y-3500000I-50000J0D01*
G01*
X3950000Y-5600000D02*
G75*
G03*
X3950000Y-5600000I-50000J0D01*
G01*
X3950000Y-7700000D02*
G75*
G03*
X3950000Y-7700000I-50000J0D01*
G01*
X3950000Y-9800000D02*
G75*
G03*
X3950000Y-9800000I-50000J0D01*
G01*
X4204000Y-3500000D02*
G75*
G03*
X4204000Y-3500000I-50000J0D01*
G01*
X4204000Y-5600000D02*
G75*
G03*
X4204000Y-5600000I-50000J0D01*
G01*
X4204000Y-7700000D02*
G75*
G03*
X4204000Y-7700000I-50000J0D01*
G01*
X4204000Y-9800000D02*
G75*
G03*
X4204000Y-9800000I-50000J0D01*
G01*
X4449885Y-11900000D02*
G75*
G03*
X4449885Y-11900000I-50000J0D01*
G01*
X4703885Y-11900000D02*
G75*
G03*
X4703885Y-11900000I-50000J0D01*
G01*
X5550000Y-3500000D02*
G75*
G03*
X5550000Y-3500000I-50000J0D01*
G01*
X5550000Y-5600000D02*
G75*
G03*
X5550000Y-5600000I-50000J0D01*
G01*
X5550000Y-7700000D02*
G75*
G03*
X5550000Y-7700000I-50000J0D01*
G01*
X5550000Y-9800000D02*
G75*
G03*
X5550000Y-9800000I-50000J0D01*
G01*
X5804000Y-3500000D02*
G75*
G03*
X5804000Y-3500000I-50000J0D01*
G01*
X5804000Y-5600000D02*
G75*
G03*
X5804000Y-5600000I-50000J0D01*
G01*
X5804000Y-7700000D02*
G75*
G03*
X5804000Y-7700000I-50000J0D01*
G01*
X5804000Y-9800000D02*
G75*
G03*
X5804000Y-9800000I-50000J0D01*
G01*
X6058000Y-3500000D02*
G75*
G03*
X6058000Y-3500000I-50000J0D01*
G01*
X6058000Y-5600000D02*
G75*
G03*
X6058000Y-5600000I-50000J0D01*
G01*
X6058000Y-7700000D02*
G75*
G03*
X6058000Y-7700000I-50000J0D01*
G01*
X6058000Y-9800000D02*
G75*
G03*
X6058000Y-9800000I-50000J0D01*
G01*
X6450000Y-11900000D02*
G75*
G03*
X6450000Y-11900000I-50000J0D01*
G01*
X6704000Y-11900000D02*
G75*
G03*
X6704000Y-11900000I-50000J0D01*
G01*
X6950000Y-3500000D02*
G75*
G03*
X6950000Y-3500000I-50000J0D01*
G01*
X6950000Y-5600000D02*
G75*
G03*
X6950000Y-5600000I-50000J0D01*
G01*
X6950000Y-7700000D02*
G75*
G03*
X6950000Y-7700000I-50000J0D01*
G01*
X6950000Y-9800000D02*
G75*
G03*
X6950000Y-9800000I-50000J0D01*
G01*
X6958000Y-11900000D02*
G75*
G03*
X6958000Y-11900000I-50000J0D01*
G01*
X7204000Y-3500000D02*
G75*
G03*
X7204000Y-3500000I-50000J0D01*
G01*
X7204000Y-5600000D02*
G75*
G03*
X7204000Y-5600000I-50000J0D01*
G01*
X7204000Y-7700000D02*
G75*
G03*
X7204000Y-7700000I-50000J0D01*
G01*
X7204000Y-9800000D02*
G75*
G03*
X7204000Y-9800000I-50000J0D01*
G01*
X8550000Y-3500000D02*
G75*
G03*
X8550000Y-3500000I-50000J0D01*
G01*
X8550000Y-5600000D02*
G75*
G03*
X8550000Y-5600000I-50000J0D01*
G01*
X8550000Y-7700000D02*
G75*
G03*
X8550000Y-7700000I-50000J0D01*
G01*
X8550000Y-9800000D02*
G75*
G03*
X8550000Y-9800000I-50000J0D01*
G01*
X8597500Y-11900000D02*
G75*
G03*
X8597500Y-11900000I-50000J0D01*
G01*
X8804000Y-3500000D02*
G75*
G03*
X8804000Y-3500000I-50000J0D01*
G01*
X8804000Y-5600000D02*
G75*
G03*
X8804000Y-5600000I-50000J0D01*
G01*
X8804000Y-7700000D02*
G75*
G03*
X8804000Y-7700000I-50000J0D01*
G01*
X8804000Y-9800000D02*
G75*
G03*
X8804000Y-9800000I-50000J0D01*
G01*
X8851500Y-11900000D02*
G75*
G03*
X8851500Y-11900000I-50000J0D01*
G01*
X9058000Y-3500000D02*
G75*
G03*
X9058000Y-3500000I-50000J0D01*
G01*
X9058000Y-5600000D02*
G75*
G03*
X9058000Y-5600000I-50000J0D01*
G01*
X9058000Y-7700000D02*
G75*
G03*
X9058000Y-7700000I-50000J0D01*
G01*
X9058000Y-9800000D02*
G75*
G03*
X9058000Y-9800000I-50000J0D01*
G01*
X9105500Y-11900000D02*
G75*
G03*
X9105500Y-11900000I-50000J0D01*
G01*
X9950000Y-3500000D02*
G75*
G03*
X9950000Y-3500000I-50000J0D01*
G01*
X9950000Y-5600000D02*
G75*
G03*
X9950000Y-5600000I-50000J0D01*
G01*
X9950000Y-7700000D02*
G75*
G03*
X9950000Y-7700000I-50000J0D01*
G01*
X9950000Y-9800000D02*
G75*
G03*
X9950000Y-9800000I-50000J0D01*
G01*
X10204000Y-3500000D02*
G75*
G03*
X10204000Y-3500000I-50000J0D01*
G01*
X10204000Y-5600000D02*
G75*
G03*
X10204000Y-5600000I-50000J0D01*
G01*
X10204000Y-7700000D02*
G75*
G03*
X10204000Y-7700000I-50000J0D01*
G01*
X10204000Y-9800000D02*
G75*
G03*
X10204000Y-9800000I-50000J0D01*
G01*
X10697500Y-11900000D02*
G75*
G03*
X10697500Y-11900000I-50000J0D01*
G01*
X10951500Y-11900000D02*
G75*
G03*
X10951500Y-11900000I-50000J0D01*
G01*
X11205500Y-11900000D02*
G75*
G03*
X11205500Y-11900000I-50000J0D01*
G01*
X11550000Y-3500000D02*
G75*
G03*
X11550000Y-3500000I-50000J0D01*
G01*
X11550000Y-5600000D02*
G75*
G03*
X11550000Y-5600000I-50000J0D01*
G01*
X11550000Y-7700000D02*
G75*
G03*
X11550000Y-7700000I-50000J0D01*
G01*
X11550000Y-9800000D02*
G75*
G03*
X11550000Y-9800000I-50000J0D01*
G01*
X11804000Y-3500000D02*
G75*
G03*
X11804000Y-3500000I-50000J0D01*
G01*
X11804000Y-5600000D02*
G75*
G03*
X11804000Y-5600000I-50000J0D01*
G01*
X11804000Y-7700000D02*
G75*
G03*
X11804000Y-7700000I-50000J0D01*
G01*
X11804000Y-9800000D02*
G75*
G03*
X11804000Y-9800000I-50000J0D01*
G01*
X12058000Y-3500000D02*
G75*
G03*
X12058000Y-3500000I-50000J0D01*
G01*
X12058000Y-5600000D02*
G75*
G03*
X12058000Y-5600000I-50000J0D01*
G01*
X12058000Y-7700000D02*
G75*
G03*
X12058000Y-7700000I-50000J0D01*
G01*
X12058000Y-9800000D02*
G75*
G03*
X12058000Y-9800000I-50000J0D01*
G01*
X12997500Y-3510000D02*
G75*
G03*
X12997500Y-3510000I-50000J0D01*
G01*
X12997500Y-5610000D02*
G75*
G03*
X12997500Y-5610000I-50000J0D01*
G01*
X12997500Y-7710000D02*
G75*
G03*
X12997500Y-7710000I-50000J0D01*
G01*
X12997500Y-9800000D02*
G75*
G03*
X12997500Y-9800000I-50000J0D01*
G01*
X12997500Y-11900000D02*
G75*
G03*
X12997500Y-11900000I-50000J0D01*
G01*
X13251500Y-3510000D02*
G75*
G03*
X13251500Y-3510000I-50000J0D01*
G01*
X13251500Y-5610000D02*
G75*
G03*
X13251500Y-5610000I-50000J0D01*
G01*
X13251500Y-7710000D02*
G75*
G03*
X13251500Y-7710000I-50000J0D01*
G01*
X13251500Y-9800000D02*
G75*
G03*
X13251500Y-9800000I-50000J0D01*
G01*
X13251500Y-11900000D02*
G75*
G03*
X13251500Y-11900000I-50000J0D01*
G01*
X13505500Y-3510000D02*
G75*
G03*
X13505500Y-3510000I-50000J0D01*
G01*
X13505500Y-5610000D02*
G75*
G03*
X13505500Y-5610000I-50000J0D01*
G01*
X13505500Y-7710000D02*
G75*
G03*
X13505500Y-7710000I-50000J0D01*
G01*
X13505500Y-9800000D02*
G75*
G03*
X13505500Y-9800000I-50000J0D01*
G01*
X13505500Y-11900000D02*
G75*
G03*
X13505500Y-11900000I-50000J0D01*
G01*
X15018000Y-10281000D02*
G75*
G03*
X15018000Y-10281000I-50000J0D01*
G01*
X15272000Y-10281000D02*
G75*
G03*
X15272000Y-10281000I-50000J0D01*
G01*
X15350000Y-11400000D02*
G75*
G03*
X15350000Y-11400000I-50000J0D01*
G01*
X15526000Y-10281000D02*
G75*
G03*
X15526000Y-10281000I-50000J0D01*
G01*
X15780000Y-10281000D02*
G75*
G03*
X15780000Y-10281000I-50000J0D01*
G01*
X15850000Y-11400000D02*
G75*
G03*
X15850000Y-11400000I-50000J0D01*
G01*
X16034000Y-10281000D02*
G75*
G03*
X16034000Y-10281000I-50000J0D01*
G01*
X16288000Y-10281000D02*
G75*
G03*
X16288000Y-10281000I-50000J0D01*
G01*
D14*
X14938000Y-3673797D02*
X14938000Y-3783797D01*
X14883000Y-3728797D02*
X14993000Y-3728797D01*
X14938000Y-3927797D02*
X14938000Y-4037797D01*
X14883000Y-3982797D02*
X14993000Y-3982797D01*
X14938000Y-4181797D02*
X14938000Y-4291797D01*
X14883000Y-4236797D02*
X14993000Y-4236797D01*
X14938000Y-4435797D02*
X14938000Y-4545797D01*
X14883000Y-4490797D02*
X14993000Y-4490797D01*
X14938000Y-4689797D02*
X14938000Y-4799797D01*
X14883000Y-4744797D02*
X14993000Y-4744797D01*
X14938000Y-4943797D02*
X14938000Y-5053797D01*
X14883000Y-4998797D02*
X14993000Y-4998797D01*
X14938000Y-5197797D02*
X14938000Y-5307797D01*
X14883000Y-5252797D02*
X14993000Y-5252797D01*
X14938000Y-5451797D02*
X14938000Y-5561797D01*
X14883000Y-5506797D02*
X14993000Y-5506797D01*
X14938000Y-5705797D02*
X14938000Y-5815797D01*
X14883000Y-5760797D02*
X14993000Y-5760797D01*
X14938000Y-5959797D02*
X14938000Y-6069797D01*
X14883000Y-6014797D02*
X14993000Y-6014797D01*
X14938000Y-6213797D02*
X14938000Y-6323797D01*
X14883000Y-6268797D02*
X14993000Y-6268797D01*
X14938000Y-6467797D02*
X14938000Y-6577797D01*
X14883000Y-6522797D02*
X14993000Y-6522797D01*
X14938000Y-6721797D02*
X14938000Y-6831797D01*
X14883000Y-6776797D02*
X14993000Y-6776797D01*
X14938000Y-6975797D02*
X14938000Y-7085797D01*
X14883000Y-7030797D02*
X14993000Y-7030797D01*
X14938000Y-7229797D02*
X14938000Y-7339797D01*
X14883000Y-7284797D02*
X14993000Y-7284797D01*
X14938000Y-7483797D02*
X14938000Y-7593797D01*
X14883000Y-7538797D02*
X14993000Y-7538797D01*
X14938000Y-7737797D02*
X14938000Y-7847797D01*
X14883000Y-7792797D02*
X14993000Y-7792797D01*
X14938000Y-7991797D02*
X14938000Y-8101797D01*
X14883000Y-8046797D02*
X14993000Y-8046797D01*
X14938000Y-8245797D02*
X14938000Y-8355797D01*
X14883000Y-8300797D02*
X14993000Y-8300797D01*
X14938000Y-8499797D02*
X14938000Y-8609797D01*
X14883000Y-8554797D02*
X14993000Y-8554797D01*
X14938000Y-8753797D02*
X14938000Y-8863797D01*
X14883000Y-8808797D02*
X14993000Y-8808797D01*
X14938000Y-9007797D02*
X14938000Y-9117797D01*
X14883000Y-9062797D02*
X14993000Y-9062797D01*
X14938000Y-9261797D02*
X14938000Y-9371797D01*
X14883000Y-9316797D02*
X14993000Y-9316797D01*
X14938000Y-9515797D02*
X14938000Y-9625797D01*
X14883000Y-9570797D02*
X14993000Y-9570797D01*
X15192000Y-8245797D02*
X15192000Y-8355797D01*
X15137000Y-8300797D02*
X15247000Y-8300797D01*
X16208000Y-3927797D02*
X16208000Y-4037797D01*
X16153000Y-3982797D02*
X16263000Y-3982797D01*
X16462000Y-3673797D02*
X16462000Y-3783797D01*
X16407000Y-3728797D02*
X16517000Y-3728797D01*
X16462000Y-3927797D02*
X16462000Y-4037797D01*
X16407000Y-3982797D02*
X16517000Y-3982797D01*
X16462000Y-4181797D02*
X16462000Y-4291797D01*
X16407000Y-4236797D02*
X16517000Y-4236797D01*
X16462000Y-4435797D02*
X16462000Y-4545797D01*
X16407000Y-4490797D02*
X16517000Y-4490797D01*
X16462000Y-4689797D02*
X16462000Y-4799797D01*
X16407000Y-4744797D02*
X16517000Y-4744797D01*
X16462000Y-4943797D02*
X16462000Y-5053797D01*
X16407000Y-4998797D02*
X16517000Y-4998797D01*
X16462000Y-5197797D02*
X16462000Y-5307797D01*
X16407000Y-5252797D02*
X16517000Y-5252797D01*
X16462000Y-5451797D02*
X16462000Y-5561797D01*
X16407000Y-5506797D02*
X16517000Y-5506797D01*
X16462000Y-5705797D02*
X16462000Y-5815797D01*
X16407000Y-5760797D02*
X16517000Y-5760797D01*
X16462000Y-5959797D02*
X16462000Y-6069797D01*
X16407000Y-6014797D02*
X16517000Y-6014797D01*
X16462000Y-6213797D02*
X16462000Y-6323797D01*
X16407000Y-6268797D02*
X16517000Y-6268797D01*
X16462000Y-6467797D02*
X16462000Y-6577797D01*
X16407000Y-6522797D02*
X16517000Y-6522797D01*
X16462000Y-6721797D02*
X16462000Y-6831797D01*
X16407000Y-6776797D02*
X16517000Y-6776797D01*
X16462000Y-6975797D02*
X16462000Y-7085797D01*
X16407000Y-7030797D02*
X16517000Y-7030797D01*
X16462000Y-7229797D02*
X16462000Y-7339797D01*
X16407000Y-7284797D02*
X16517000Y-7284797D01*
X16462000Y-7483797D02*
X16462000Y-7593797D01*
X16407000Y-7538797D02*
X16517000Y-7538797D01*
X16462000Y-7737797D02*
X16462000Y-7847797D01*
X16407000Y-7792797D02*
X16517000Y-7792797D01*
X16462000Y-7991797D02*
X16462000Y-8101797D01*
X16407000Y-8046797D02*
X16517000Y-8046797D01*
X16462000Y-8245797D02*
X16462000Y-8355797D01*
X16407000Y-8300797D02*
X16517000Y-8300797D01*
X16462000Y-8499797D02*
X16462000Y-8609797D01*
X16407000Y-8554797D02*
X16517000Y-8554797D01*
X16462000Y-8753797D02*
X16462000Y-8863797D01*
X16407000Y-8808797D02*
X16517000Y-8808797D01*
X16462000Y-9007797D02*
X16462000Y-9117797D01*
X16407000Y-9062797D02*
X16517000Y-9062797D01*
X16462000Y-9261797D02*
X16462000Y-9371797D01*
X16407000Y-9316797D02*
X16517000Y-9316797D01*
X16462000Y-9515797D02*
X16462000Y-9625797D01*
X16407000Y-9570797D02*
X16517000Y-9570797D01*
D11*
X2552619Y-12615476D02*
X2552619Y-12415476D01*
X2600238Y-12415476D01*
X2628810Y-12425000D01*
X2647857Y-12444048D01*
X2657381Y-12463095D01*
X2666905Y-12501190D01*
X2666905Y-12529762D01*
X2657381Y-12567857D01*
X2647857Y-12586905D01*
X2628810Y-12605952D01*
X2600238Y-12615476D01*
X2552619Y-12615476D01*
X2752619Y-12615476D02*
X2752619Y-12482143D01*
X2752619Y-12520238D02*
X2762143Y-12501190D01*
X2771667Y-12491667D01*
X2790714Y-12482143D01*
X2809762Y-12482143D01*
X2876428Y-12615476D02*
X2876428Y-12482143D01*
X2876428Y-12415476D02*
X2866905Y-12425000D01*
X2876428Y-12434524D01*
X2885952Y-12425000D01*
X2876428Y-12415476D01*
X2876428Y-12434524D01*
X3000238Y-12615476D02*
X2981190Y-12605952D01*
X2971667Y-12586905D01*
X2971667Y-12415476D01*
X3105000Y-12615476D02*
X3085952Y-12605952D01*
X3076428Y-12586905D01*
X3076428Y-12415476D01*
X3333571Y-12615476D02*
X3333571Y-12415476D01*
X3400238Y-12558333D01*
X3466905Y-12415476D01*
X3466905Y-12615476D01*
X3647857Y-12615476D02*
X3647857Y-12510714D01*
X3638333Y-12491667D01*
X3619286Y-12482143D01*
X3581190Y-12482143D01*
X3562143Y-12491667D01*
X3647857Y-12605952D02*
X3628809Y-12615476D01*
X3581190Y-12615476D01*
X3562143Y-12605952D01*
X3552619Y-12586905D01*
X3552619Y-12567857D01*
X3562143Y-12548809D01*
X3581190Y-12539286D01*
X3628809Y-12539286D01*
X3647857Y-12529762D01*
X3743095Y-12482143D02*
X3743095Y-12682143D01*
X3743095Y-12491667D02*
X3762143Y-12482143D01*
X3800238Y-12482143D01*
X3819286Y-12491667D01*
X3828809Y-12501190D01*
X3838333Y-12520238D01*
X3838333Y-12577381D01*
X3828809Y-12596428D01*
X3819286Y-12605952D01*
X3800238Y-12615476D01*
X3762143Y-12615476D01*
X3743095Y-12605952D01*
X3924048Y-12596428D02*
X3933571Y-12605952D01*
X3924048Y-12615476D01*
X3914524Y-12605952D01*
X3924048Y-12596428D01*
X3924048Y-12615476D01*
X3924048Y-12491667D02*
X3933571Y-12501190D01*
X3924048Y-12510714D01*
X3914524Y-12501190D01*
X3924048Y-12491667D01*
X3924048Y-12510714D01*
D12*
X2255000Y-12925000D02*
X2295000Y-12965000D01*
X2295000Y-12925000D02*
X2255000Y-12965000D01*
D11*
X2590714Y-12835476D02*
X2609762Y-12835476D01*
X2628810Y-12845000D01*
X2638333Y-12854524D01*
X2647857Y-12873571D01*
X2657381Y-12911667D01*
X2657381Y-12959286D01*
X2647857Y-12997381D01*
X2638333Y-13016428D01*
X2628810Y-13025952D01*
X2609762Y-13035476D01*
X2590714Y-13035476D01*
X2571667Y-13025952D01*
X2562143Y-13016428D01*
X2552619Y-12997381D01*
X2543095Y-12959286D01*
X2543095Y-12911667D01*
X2552619Y-12873571D01*
X2562143Y-12854524D01*
X2571667Y-12845000D01*
X2590714Y-12835476D01*
X2743095Y-13016428D02*
X2752619Y-13025952D01*
X2743095Y-13035476D01*
X2733571Y-13025952D01*
X2743095Y-13016428D01*
X2743095Y-13035476D01*
X2924048Y-12902143D02*
X2924048Y-13035476D01*
X2876428Y-12825952D02*
X2828809Y-12968809D01*
X2952619Y-12968809D01*
X3066905Y-12835476D02*
X3085952Y-12835476D01*
X3105000Y-12845000D01*
X3114524Y-12854524D01*
X3124048Y-12873571D01*
X3133571Y-12911667D01*
X3133571Y-12959286D01*
X3124048Y-12997381D01*
X3114524Y-13016428D01*
X3105000Y-13025952D01*
X3085952Y-13035476D01*
X3066905Y-13035476D01*
X3047857Y-13025952D01*
X3038333Y-13016428D01*
X3028809Y-12997381D01*
X3019286Y-12959286D01*
X3019286Y-12911667D01*
X3028809Y-12873571D01*
X3038333Y-12854524D01*
X3047857Y-12845000D01*
X3066905Y-12835476D01*
X3257381Y-12835476D02*
X3276428Y-12835476D01*
X3295476Y-12845000D01*
X3305000Y-12854524D01*
X3314524Y-12873571D01*
X3324048Y-12911667D01*
X3324048Y-12959286D01*
X3314524Y-12997381D01*
X3305000Y-13016428D01*
X3295476Y-13025952D01*
X3276428Y-13035476D01*
X3257381Y-13035476D01*
X3238333Y-13025952D01*
X3228809Y-13016428D01*
X3219286Y-12997381D01*
X3209762Y-12959286D01*
X3209762Y-12911667D01*
X3219286Y-12873571D01*
X3228809Y-12854524D01*
X3238333Y-12845000D01*
X3257381Y-12835476D01*
X3409762Y-13035476D02*
X3409762Y-12902143D01*
X3409762Y-12921190D02*
X3419286Y-12911667D01*
X3438333Y-12902143D01*
X3466905Y-12902143D01*
X3485952Y-12911667D01*
X3495476Y-12930714D01*
X3495476Y-13035476D01*
X3495476Y-12930714D02*
X3505000Y-12911667D01*
X3524048Y-12902143D01*
X3552619Y-12902143D01*
X3571667Y-12911667D01*
X3581190Y-12930714D01*
X3581190Y-13035476D01*
X3676428Y-13035476D02*
X3676428Y-12902143D01*
X3676428Y-12921190D02*
X3685952Y-12911667D01*
X3705000Y-12902143D01*
X3733571Y-12902143D01*
X3752619Y-12911667D01*
X3762143Y-12930714D01*
X3762143Y-13035476D01*
X3762143Y-12930714D02*
X3771667Y-12911667D01*
X3790714Y-12902143D01*
X3819286Y-12902143D01*
X3838333Y-12911667D01*
X3847857Y-12930714D01*
X3847857Y-13035476D01*
X4238333Y-12825952D02*
X4066905Y-13083095D01*
X4495476Y-12835476D02*
X4514524Y-12835476D01*
X4533571Y-12845000D01*
X4543095Y-12854524D01*
X4552619Y-12873571D01*
X4562143Y-12911667D01*
X4562143Y-12959286D01*
X4552619Y-12997381D01*
X4543095Y-13016428D01*
X4533571Y-13025952D01*
X4514524Y-13035476D01*
X4495476Y-13035476D01*
X4476429Y-13025952D01*
X4466905Y-13016428D01*
X4457381Y-12997381D01*
X4447857Y-12959286D01*
X4447857Y-12911667D01*
X4457381Y-12873571D01*
X4466905Y-12854524D01*
X4476429Y-12845000D01*
X4495476Y-12835476D01*
X4647857Y-13016428D02*
X4657381Y-13025952D01*
X4647857Y-13035476D01*
X4638333Y-13025952D01*
X4647857Y-13016428D01*
X4647857Y-13035476D01*
X4781190Y-12835476D02*
X4800238Y-12835476D01*
X4819286Y-12845000D01*
X4828810Y-12854524D01*
X4838333Y-12873571D01*
X4847857Y-12911667D01*
X4847857Y-12959286D01*
X4838333Y-12997381D01*
X4828810Y-13016428D01*
X4819286Y-13025952D01*
X4800238Y-13035476D01*
X4781190Y-13035476D01*
X4762143Y-13025952D01*
X4752619Y-13016428D01*
X4743095Y-12997381D01*
X4733571Y-12959286D01*
X4733571Y-12911667D01*
X4743095Y-12873571D01*
X4752619Y-12854524D01*
X4762143Y-12845000D01*
X4781190Y-12835476D01*
X5038333Y-13035476D02*
X4924048Y-13035476D01*
X4981190Y-13035476D02*
X4981190Y-12835476D01*
X4962143Y-12864048D01*
X4943095Y-12883095D01*
X4924048Y-12892619D01*
X5219286Y-12835476D02*
X5124048Y-12835476D01*
X5114524Y-12930714D01*
X5124048Y-12921190D01*
X5143095Y-12911667D01*
X5190714Y-12911667D01*
X5209762Y-12921190D01*
X5219286Y-12930714D01*
X5228810Y-12949762D01*
X5228810Y-12997381D01*
X5219286Y-13016428D01*
X5209762Y-13025952D01*
X5190714Y-13035476D01*
X5143095Y-13035476D01*
X5124048Y-13025952D01*
X5114524Y-13016428D01*
X5295476Y-12835476D02*
X5428810Y-12835476D01*
X5343095Y-13035476D01*
X5495476Y-12835476D02*
X5495476Y-12873571D01*
X5571667Y-12835476D02*
X5571667Y-12873571D01*
X5866905Y-13111667D02*
X5857381Y-13102143D01*
X5838333Y-13073571D01*
X5828809Y-13054524D01*
X5819286Y-13025952D01*
X5809762Y-12978333D01*
X5809762Y-12940238D01*
X5819286Y-12892619D01*
X5828809Y-12864048D01*
X5838333Y-12845000D01*
X5857381Y-12816428D01*
X5866905Y-12806905D01*
X5933571Y-12854524D02*
X5943095Y-12845000D01*
X5962143Y-12835476D01*
X6009762Y-12835476D01*
X6028809Y-12845000D01*
X6038333Y-12854524D01*
X6047857Y-12873571D01*
X6047857Y-12892619D01*
X6038333Y-12921190D01*
X5924048Y-13035476D01*
X6047857Y-13035476D01*
X6238333Y-13035476D02*
X6124048Y-13035476D01*
X6181190Y-13035476D02*
X6181190Y-12835476D01*
X6162143Y-12864048D01*
X6143095Y-12883095D01*
X6124048Y-12892619D01*
X6428809Y-13035476D02*
X6314524Y-13035476D01*
X6371667Y-13035476D02*
X6371667Y-12835476D01*
X6352619Y-12864048D01*
X6333571Y-12883095D01*
X6314524Y-12892619D01*
X6666905Y-13035476D02*
X6666905Y-12835476D01*
X6752619Y-13035476D02*
X6752619Y-12930714D01*
X6743095Y-12911667D01*
X6724048Y-12902143D01*
X6695476Y-12902143D01*
X6676428Y-12911667D01*
X6666905Y-12921190D01*
X6876428Y-13035476D02*
X6857381Y-13025952D01*
X6847857Y-13016428D01*
X6838333Y-12997381D01*
X6838333Y-12940238D01*
X6847857Y-12921190D01*
X6857381Y-12911667D01*
X6876428Y-12902143D01*
X6905000Y-12902143D01*
X6924048Y-12911667D01*
X6933571Y-12921190D01*
X6943095Y-12940238D01*
X6943095Y-12997381D01*
X6933571Y-13016428D01*
X6924048Y-13025952D01*
X6905000Y-13035476D01*
X6876428Y-13035476D01*
X7057381Y-13035476D02*
X7038333Y-13025952D01*
X7028809Y-13006905D01*
X7028809Y-12835476D01*
X7209762Y-13025952D02*
X7190714Y-13035476D01*
X7152619Y-13035476D01*
X7133571Y-13025952D01*
X7124048Y-13006905D01*
X7124048Y-12930714D01*
X7133571Y-12911667D01*
X7152619Y-12902143D01*
X7190714Y-12902143D01*
X7209762Y-12911667D01*
X7219286Y-12930714D01*
X7219286Y-12949762D01*
X7124048Y-12968809D01*
X7295476Y-13025952D02*
X7314524Y-13035476D01*
X7352619Y-13035476D01*
X7371667Y-13025952D01*
X7381190Y-13006905D01*
X7381190Y-12997381D01*
X7371667Y-12978333D01*
X7352619Y-12968809D01*
X7324048Y-12968809D01*
X7305000Y-12959286D01*
X7295476Y-12940238D01*
X7295476Y-12930714D01*
X7305000Y-12911667D01*
X7324048Y-12902143D01*
X7352619Y-12902143D01*
X7371667Y-12911667D01*
X7447857Y-13111667D02*
X7457381Y-13102143D01*
X7476428Y-13073571D01*
X7485952Y-13054524D01*
X7495476Y-13025952D01*
X7505000Y-12978333D01*
X7505000Y-12940238D01*
X7495476Y-12892619D01*
X7485952Y-12864048D01*
X7476428Y-12845000D01*
X7457381Y-12816428D01*
X7447857Y-12806905D01*
D13*
X2295000Y-13209000D02*
G75*
G03*
X2295000Y-13209000I-50000J0D01*
G01*
D11*
X2657381Y-13299476D02*
X2543095Y-13299476D01*
X2600238Y-13299476D02*
X2600238Y-13099476D01*
X2581190Y-13128048D01*
X2562143Y-13147095D01*
X2543095Y-13156619D01*
X2743095Y-13280428D02*
X2752619Y-13289952D01*
X2743095Y-13299476D01*
X2733571Y-13289952D01*
X2743095Y-13280428D01*
X2743095Y-13299476D01*
X2876428Y-13099476D02*
X2895476Y-13099476D01*
X2914524Y-13109000D01*
X2924048Y-13118524D01*
X2933571Y-13137571D01*
X2943095Y-13175667D01*
X2943095Y-13223286D01*
X2933571Y-13261381D01*
X2924048Y-13280428D01*
X2914524Y-13289952D01*
X2895476Y-13299476D01*
X2876428Y-13299476D01*
X2857381Y-13289952D01*
X2847857Y-13280428D01*
X2838333Y-13261381D01*
X2828809Y-13223286D01*
X2828809Y-13175667D01*
X2838333Y-13137571D01*
X2847857Y-13118524D01*
X2857381Y-13109000D01*
X2876428Y-13099476D01*
X3066905Y-13099476D02*
X3085952Y-13099476D01*
X3105000Y-13109000D01*
X3114524Y-13118524D01*
X3124048Y-13137571D01*
X3133571Y-13175667D01*
X3133571Y-13223286D01*
X3124048Y-13261381D01*
X3114524Y-13280428D01*
X3105000Y-13289952D01*
X3085952Y-13299476D01*
X3066905Y-13299476D01*
X3047857Y-13289952D01*
X3038333Y-13280428D01*
X3028809Y-13261381D01*
X3019286Y-13223286D01*
X3019286Y-13175667D01*
X3028809Y-13137571D01*
X3038333Y-13118524D01*
X3047857Y-13109000D01*
X3066905Y-13099476D01*
X3257381Y-13099476D02*
X3276428Y-13099476D01*
X3295476Y-13109000D01*
X3305000Y-13118524D01*
X3314524Y-13137571D01*
X3324048Y-13175667D01*
X3324048Y-13223286D01*
X3314524Y-13261381D01*
X3305000Y-13280428D01*
X3295476Y-13289952D01*
X3276428Y-13299476D01*
X3257381Y-13299476D01*
X3238333Y-13289952D01*
X3228809Y-13280428D01*
X3219286Y-13261381D01*
X3209762Y-13223286D01*
X3209762Y-13175667D01*
X3219286Y-13137571D01*
X3228809Y-13118524D01*
X3238333Y-13109000D01*
X3257381Y-13099476D01*
X3409762Y-13299476D02*
X3409762Y-13166143D01*
X3409762Y-13185190D02*
X3419286Y-13175667D01*
X3438333Y-13166143D01*
X3466905Y-13166143D01*
X3485952Y-13175667D01*
X3495476Y-13194714D01*
X3495476Y-13299476D01*
X3495476Y-13194714D02*
X3505000Y-13175667D01*
X3524048Y-13166143D01*
X3552619Y-13166143D01*
X3571667Y-13175667D01*
X3581190Y-13194714D01*
X3581190Y-13299476D01*
X3676428Y-13299476D02*
X3676428Y-13166143D01*
X3676428Y-13185190D02*
X3685952Y-13175667D01*
X3705000Y-13166143D01*
X3733571Y-13166143D01*
X3752619Y-13175667D01*
X3762143Y-13194714D01*
X3762143Y-13299476D01*
X3762143Y-13194714D02*
X3771667Y-13175667D01*
X3790714Y-13166143D01*
X3819286Y-13166143D01*
X3838333Y-13175667D01*
X3847857Y-13194714D01*
X3847857Y-13299476D01*
X4238333Y-13089952D02*
X4066905Y-13347095D01*
X4495476Y-13099476D02*
X4514524Y-13099476D01*
X4533571Y-13109000D01*
X4543095Y-13118524D01*
X4552619Y-13137571D01*
X4562143Y-13175667D01*
X4562143Y-13223286D01*
X4552619Y-13261381D01*
X4543095Y-13280428D01*
X4533571Y-13289952D01*
X4514524Y-13299476D01*
X4495476Y-13299476D01*
X4476429Y-13289952D01*
X4466905Y-13280428D01*
X4457381Y-13261381D01*
X4447857Y-13223286D01*
X4447857Y-13175667D01*
X4457381Y-13137571D01*
X4466905Y-13118524D01*
X4476429Y-13109000D01*
X4495476Y-13099476D01*
X4647857Y-13280428D02*
X4657381Y-13289952D01*
X4647857Y-13299476D01*
X4638333Y-13289952D01*
X4647857Y-13280428D01*
X4647857Y-13299476D01*
X4781190Y-13099476D02*
X4800238Y-13099476D01*
X4819286Y-13109000D01*
X4828810Y-13118524D01*
X4838333Y-13137571D01*
X4847857Y-13175667D01*
X4847857Y-13223286D01*
X4838333Y-13261381D01*
X4828810Y-13280428D01*
X4819286Y-13289952D01*
X4800238Y-13299476D01*
X4781190Y-13299476D01*
X4762143Y-13289952D01*
X4752619Y-13280428D01*
X4743095Y-13261381D01*
X4733571Y-13223286D01*
X4733571Y-13175667D01*
X4743095Y-13137571D01*
X4752619Y-13118524D01*
X4762143Y-13109000D01*
X4781190Y-13099476D01*
X4914524Y-13099476D02*
X5038333Y-13099476D01*
X4971667Y-13175667D01*
X5000238Y-13175667D01*
X5019286Y-13185190D01*
X5028810Y-13194714D01*
X5038333Y-13213762D01*
X5038333Y-13261381D01*
X5028810Y-13280428D01*
X5019286Y-13289952D01*
X5000238Y-13299476D01*
X4943095Y-13299476D01*
X4924048Y-13289952D01*
X4914524Y-13280428D01*
X5133571Y-13299476D02*
X5171667Y-13299476D01*
X5190714Y-13289952D01*
X5200238Y-13280428D01*
X5219286Y-13251857D01*
X5228810Y-13213762D01*
X5228810Y-13137571D01*
X5219286Y-13118524D01*
X5209762Y-13109000D01*
X5190714Y-13099476D01*
X5152619Y-13099476D01*
X5133571Y-13109000D01*
X5124048Y-13118524D01*
X5114524Y-13137571D01*
X5114524Y-13185190D01*
X5124048Y-13204238D01*
X5133571Y-13213762D01*
X5152619Y-13223286D01*
X5190714Y-13223286D01*
X5209762Y-13213762D01*
X5219286Y-13204238D01*
X5228810Y-13185190D01*
X5400238Y-13166143D02*
X5400238Y-13299476D01*
X5352619Y-13089952D02*
X5305000Y-13232809D01*
X5428810Y-13232809D01*
X5495476Y-13099476D02*
X5495476Y-13137571D01*
X5571667Y-13099476D02*
X5571667Y-13137571D01*
X5866905Y-13375667D02*
X5857381Y-13366143D01*
X5838333Y-13337571D01*
X5828809Y-13318524D01*
X5819286Y-13289952D01*
X5809762Y-13242333D01*
X5809762Y-13204238D01*
X5819286Y-13156619D01*
X5828809Y-13128048D01*
X5838333Y-13109000D01*
X5857381Y-13080428D01*
X5866905Y-13070905D01*
X6047857Y-13299476D02*
X5933571Y-13299476D01*
X5990714Y-13299476D02*
X5990714Y-13099476D01*
X5971667Y-13128048D01*
X5952619Y-13147095D01*
X5933571Y-13156619D01*
X6171667Y-13099476D02*
X6190714Y-13099476D01*
X6209762Y-13109000D01*
X6219286Y-13118524D01*
X6228809Y-13137571D01*
X6238333Y-13175667D01*
X6238333Y-13223286D01*
X6228809Y-13261381D01*
X6219286Y-13280428D01*
X6209762Y-13289952D01*
X6190714Y-13299476D01*
X6171667Y-13299476D01*
X6152619Y-13289952D01*
X6143095Y-13280428D01*
X6133571Y-13261381D01*
X6124048Y-13223286D01*
X6124048Y-13175667D01*
X6133571Y-13137571D01*
X6143095Y-13118524D01*
X6152619Y-13109000D01*
X6171667Y-13099476D01*
X6352619Y-13185190D02*
X6333571Y-13175667D01*
X6324048Y-13166143D01*
X6314524Y-13147095D01*
X6314524Y-13137571D01*
X6324048Y-13118524D01*
X6333571Y-13109000D01*
X6352619Y-13099476D01*
X6390714Y-13099476D01*
X6409762Y-13109000D01*
X6419286Y-13118524D01*
X6428809Y-13137571D01*
X6428809Y-13147095D01*
X6419286Y-13166143D01*
X6409762Y-13175667D01*
X6390714Y-13185190D01*
X6352619Y-13185190D01*
X6333571Y-13194714D01*
X6324048Y-13204238D01*
X6314524Y-13223286D01*
X6314524Y-13261381D01*
X6324048Y-13280428D01*
X6333571Y-13289952D01*
X6352619Y-13299476D01*
X6390714Y-13299476D01*
X6409762Y-13289952D01*
X6419286Y-13280428D01*
X6428809Y-13261381D01*
X6428809Y-13223286D01*
X6419286Y-13204238D01*
X6409762Y-13194714D01*
X6390714Y-13185190D01*
X6666905Y-13299476D02*
X6666905Y-13099476D01*
X6752619Y-13299476D02*
X6752619Y-13194714D01*
X6743095Y-13175667D01*
X6724048Y-13166143D01*
X6695476Y-13166143D01*
X6676428Y-13175667D01*
X6666905Y-13185190D01*
X6876428Y-13299476D02*
X6857381Y-13289952D01*
X6847857Y-13280428D01*
X6838333Y-13261381D01*
X6838333Y-13204238D01*
X6847857Y-13185190D01*
X6857381Y-13175667D01*
X6876428Y-13166143D01*
X6905000Y-13166143D01*
X6924048Y-13175667D01*
X6933571Y-13185190D01*
X6943095Y-13204238D01*
X6943095Y-13261381D01*
X6933571Y-13280428D01*
X6924048Y-13289952D01*
X6905000Y-13299476D01*
X6876428Y-13299476D01*
X7057381Y-13299476D02*
X7038333Y-13289952D01*
X7028809Y-13270905D01*
X7028809Y-13099476D01*
X7209762Y-13289952D02*
X7190714Y-13299476D01*
X7152619Y-13299476D01*
X7133571Y-13289952D01*
X7124048Y-13270905D01*
X7124048Y-13194714D01*
X7133571Y-13175667D01*
X7152619Y-13166143D01*
X7190714Y-13166143D01*
X7209762Y-13175667D01*
X7219286Y-13194714D01*
X7219286Y-13213762D01*
X7124048Y-13232809D01*
X7295476Y-13289952D02*
X7314524Y-13299476D01*
X7352619Y-13299476D01*
X7371667Y-13289952D01*
X7381190Y-13270905D01*
X7381190Y-13261381D01*
X7371667Y-13242333D01*
X7352619Y-13232809D01*
X7324048Y-13232809D01*
X7305000Y-13223286D01*
X7295476Y-13204238D01*
X7295476Y-13194714D01*
X7305000Y-13175667D01*
X7324048Y-13166143D01*
X7352619Y-13166143D01*
X7371667Y-13175667D01*
X7447857Y-13375667D02*
X7457381Y-13366143D01*
X7476428Y-13337571D01*
X7485952Y-13318524D01*
X7495476Y-13289952D01*
X7505000Y-13242333D01*
X7505000Y-13204238D01*
X7495476Y-13156619D01*
X7485952Y-13128048D01*
X7476428Y-13109000D01*
X7457381Y-13080428D01*
X7447857Y-13070905D01*
D14*
X2240000Y-13418000D02*
X2240000Y-13528000D01*
X2185000Y-13473000D02*
X2295000Y-13473000D01*
D11*
X2657381Y-13563476D02*
X2543095Y-13563476D01*
X2600238Y-13563476D02*
X2600238Y-13363476D01*
X2581190Y-13392048D01*
X2562143Y-13411095D01*
X2543095Y-13420619D01*
X2743095Y-13544428D02*
X2752619Y-13553952D01*
X2743095Y-13563476D01*
X2733571Y-13553952D01*
X2743095Y-13544428D01*
X2743095Y-13563476D01*
X2943095Y-13563476D02*
X2828809Y-13563476D01*
X2885952Y-13563476D02*
X2885952Y-13363476D01*
X2866905Y-13392048D01*
X2847857Y-13411095D01*
X2828809Y-13420619D01*
X3066905Y-13363476D02*
X3085952Y-13363476D01*
X3105000Y-13373000D01*
X3114524Y-13382524D01*
X3124048Y-13401571D01*
X3133571Y-13439667D01*
X3133571Y-13487286D01*
X3124048Y-13525381D01*
X3114524Y-13544428D01*
X3105000Y-13553952D01*
X3085952Y-13563476D01*
X3066905Y-13563476D01*
X3047857Y-13553952D01*
X3038333Y-13544428D01*
X3028809Y-13525381D01*
X3019286Y-13487286D01*
X3019286Y-13439667D01*
X3028809Y-13401571D01*
X3038333Y-13382524D01*
X3047857Y-13373000D01*
X3066905Y-13363476D01*
X3257381Y-13363476D02*
X3276428Y-13363476D01*
X3295476Y-13373000D01*
X3305000Y-13382524D01*
X3314524Y-13401571D01*
X3324048Y-13439667D01*
X3324048Y-13487286D01*
X3314524Y-13525381D01*
X3305000Y-13544428D01*
X3295476Y-13553952D01*
X3276428Y-13563476D01*
X3257381Y-13563476D01*
X3238333Y-13553952D01*
X3228809Y-13544428D01*
X3219286Y-13525381D01*
X3209762Y-13487286D01*
X3209762Y-13439667D01*
X3219286Y-13401571D01*
X3228809Y-13382524D01*
X3238333Y-13373000D01*
X3257381Y-13363476D01*
X3409762Y-13563476D02*
X3409762Y-13430143D01*
X3409762Y-13449190D02*
X3419286Y-13439667D01*
X3438333Y-13430143D01*
X3466905Y-13430143D01*
X3485952Y-13439667D01*
X3495476Y-13458714D01*
X3495476Y-13563476D01*
X3495476Y-13458714D02*
X3505000Y-13439667D01*
X3524048Y-13430143D01*
X3552619Y-13430143D01*
X3571667Y-13439667D01*
X3581190Y-13458714D01*
X3581190Y-13563476D01*
X3676428Y-13563476D02*
X3676428Y-13430143D01*
X3676428Y-13449190D02*
X3685952Y-13439667D01*
X3705000Y-13430143D01*
X3733571Y-13430143D01*
X3752619Y-13439667D01*
X3762143Y-13458714D01*
X3762143Y-13563476D01*
X3762143Y-13458714D02*
X3771667Y-13439667D01*
X3790714Y-13430143D01*
X3819286Y-13430143D01*
X3838333Y-13439667D01*
X3847857Y-13458714D01*
X3847857Y-13563476D01*
X4238333Y-13353952D02*
X4066905Y-13611095D01*
X4495476Y-13363476D02*
X4514524Y-13363476D01*
X4533571Y-13373000D01*
X4543095Y-13382524D01*
X4552619Y-13401571D01*
X4562143Y-13439667D01*
X4562143Y-13487286D01*
X4552619Y-13525381D01*
X4543095Y-13544428D01*
X4533571Y-13553952D01*
X4514524Y-13563476D01*
X4495476Y-13563476D01*
X4476429Y-13553952D01*
X4466905Y-13544428D01*
X4457381Y-13525381D01*
X4447857Y-13487286D01*
X4447857Y-13439667D01*
X4457381Y-13401571D01*
X4466905Y-13382524D01*
X4476429Y-13373000D01*
X4495476Y-13363476D01*
X4647857Y-13544428D02*
X4657381Y-13553952D01*
X4647857Y-13563476D01*
X4638333Y-13553952D01*
X4647857Y-13544428D01*
X4647857Y-13563476D01*
X4781190Y-13363476D02*
X4800238Y-13363476D01*
X4819286Y-13373000D01*
X4828810Y-13382524D01*
X4838333Y-13401571D01*
X4847857Y-13439667D01*
X4847857Y-13487286D01*
X4838333Y-13525381D01*
X4828810Y-13544428D01*
X4819286Y-13553952D01*
X4800238Y-13563476D01*
X4781190Y-13563476D01*
X4762143Y-13553952D01*
X4752619Y-13544428D01*
X4743095Y-13525381D01*
X4733571Y-13487286D01*
X4733571Y-13439667D01*
X4743095Y-13401571D01*
X4752619Y-13382524D01*
X4762143Y-13373000D01*
X4781190Y-13363476D01*
X5019286Y-13430143D02*
X5019286Y-13563476D01*
X4971667Y-13353952D02*
X4924048Y-13496809D01*
X5047857Y-13496809D01*
X5105000Y-13363476D02*
X5228810Y-13363476D01*
X5162143Y-13439667D01*
X5190714Y-13439667D01*
X5209762Y-13449190D01*
X5219286Y-13458714D01*
X5228810Y-13477762D01*
X5228810Y-13525381D01*
X5219286Y-13544428D01*
X5209762Y-13553952D01*
X5190714Y-13563476D01*
X5133571Y-13563476D01*
X5114524Y-13553952D01*
X5105000Y-13544428D01*
X5295476Y-13363476D02*
X5419286Y-13363476D01*
X5352619Y-13439667D01*
X5381190Y-13439667D01*
X5400238Y-13449190D01*
X5409762Y-13458714D01*
X5419286Y-13477762D01*
X5419286Y-13525381D01*
X5409762Y-13544428D01*
X5400238Y-13553952D01*
X5381190Y-13563476D01*
X5324048Y-13563476D01*
X5305000Y-13553952D01*
X5295476Y-13544428D01*
X5495476Y-13363476D02*
X5495476Y-13401571D01*
X5571667Y-13363476D02*
X5571667Y-13401571D01*
X5866905Y-13639667D02*
X5857381Y-13630143D01*
X5838333Y-13601571D01*
X5828809Y-13582524D01*
X5819286Y-13553952D01*
X5809762Y-13506333D01*
X5809762Y-13468238D01*
X5819286Y-13420619D01*
X5828809Y-13392048D01*
X5838333Y-13373000D01*
X5857381Y-13344428D01*
X5866905Y-13334905D01*
X6038333Y-13363476D02*
X5943095Y-13363476D01*
X5933571Y-13458714D01*
X5943095Y-13449190D01*
X5962143Y-13439667D01*
X6009762Y-13439667D01*
X6028809Y-13449190D01*
X6038333Y-13458714D01*
X6047857Y-13477762D01*
X6047857Y-13525381D01*
X6038333Y-13544428D01*
X6028809Y-13553952D01*
X6009762Y-13563476D01*
X5962143Y-13563476D01*
X5943095Y-13553952D01*
X5933571Y-13544428D01*
X6171667Y-13363476D02*
X6190714Y-13363476D01*
X6209762Y-13373000D01*
X6219286Y-13382524D01*
X6228809Y-13401571D01*
X6238333Y-13439667D01*
X6238333Y-13487286D01*
X6228809Y-13525381D01*
X6219286Y-13544428D01*
X6209762Y-13553952D01*
X6190714Y-13563476D01*
X6171667Y-13563476D01*
X6152619Y-13553952D01*
X6143095Y-13544428D01*
X6133571Y-13525381D01*
X6124048Y-13487286D01*
X6124048Y-13439667D01*
X6133571Y-13401571D01*
X6143095Y-13382524D01*
X6152619Y-13373000D01*
X6171667Y-13363476D01*
X6476428Y-13563476D02*
X6476428Y-13363476D01*
X6562143Y-13563476D02*
X6562143Y-13458714D01*
X6552619Y-13439667D01*
X6533571Y-13430143D01*
X6505000Y-13430143D01*
X6485952Y-13439667D01*
X6476428Y-13449190D01*
X6685952Y-13563476D02*
X6666905Y-13553952D01*
X6657381Y-13544428D01*
X6647857Y-13525381D01*
X6647857Y-13468238D01*
X6657381Y-13449190D01*
X6666905Y-13439667D01*
X6685952Y-13430143D01*
X6714524Y-13430143D01*
X6733571Y-13439667D01*
X6743095Y-13449190D01*
X6752619Y-13468238D01*
X6752619Y-13525381D01*
X6743095Y-13544428D01*
X6733571Y-13553952D01*
X6714524Y-13563476D01*
X6685952Y-13563476D01*
X6866905Y-13563476D02*
X6847857Y-13553952D01*
X6838333Y-13534905D01*
X6838333Y-13363476D01*
X7019286Y-13553952D02*
X7000238Y-13563476D01*
X6962143Y-13563476D01*
X6943095Y-13553952D01*
X6933571Y-13534905D01*
X6933571Y-13458714D01*
X6943095Y-13439667D01*
X6962143Y-13430143D01*
X7000238Y-13430143D01*
X7019286Y-13439667D01*
X7028809Y-13458714D01*
X7028809Y-13477762D01*
X6933571Y-13496809D01*
X7105000Y-13553952D02*
X7124048Y-13563476D01*
X7162143Y-13563476D01*
X7181190Y-13553952D01*
X7190714Y-13534905D01*
X7190714Y-13525381D01*
X7181190Y-13506333D01*
X7162143Y-13496809D01*
X7133571Y-13496809D01*
X7114524Y-13487286D01*
X7105000Y-13468238D01*
X7105000Y-13458714D01*
X7114524Y-13439667D01*
X7133571Y-13430143D01*
X7162143Y-13430143D01*
X7181190Y-13439667D01*
X7257381Y-13639667D02*
X7266905Y-13630143D01*
X7285952Y-13601571D01*
X7295476Y-13582524D01*
X7305000Y-13553952D01*
X7314524Y-13506333D01*
X7314524Y-13468238D01*
X7305000Y-13420619D01*
X7295476Y-13392048D01*
X7285952Y-13373000D01*
X7266905Y-13344428D01*
X7257381Y-13334905D01*
M02*
