%FSLAX45Y45*%
G04 Gerber Fmt 4.5, Leading zero omitted, Abs format (unit mm)*
G04 Created by KiCad (PCBNEW 6.0.5-a6ca702e91~116~ubuntu20.04.1) date 2022-06-23 19:27:42*
%MOMM*%
%LPD*%
G01*
G04 APERTURE LIST*
%TA.AperFunction,Profile*%
%ADD10C,0.100000*%
%TD*%
%ADD11C,0.200000*%
%ADD12C,0.040000*%
%ADD13C,0.076000*%
%ADD14C,0.100000*%
%ADD15C,0.110000*%
%ADD16C,0.127000*%
G04 APERTURE END LIST*
D10*
X17546862Y-1800000D02*
X2500000Y-1800000D01*
X2300000Y-12100000D02*
G75*
G03*
X2500000Y-12300000I200000J0D01*
G01*
X2300000Y-12100000D02*
X2300000Y-2000000D01*
X17746862Y-12100000D02*
X17746862Y-2000000D01*
X2500000Y-12300000D02*
X17546862Y-12300000D01*
X17546862Y-12300002D02*
G75*
G03*
X17746862Y-12100000I-2J200002D01*
G01*
X17746860Y-2000000D02*
G75*
G03*
X17546862Y-1800000I-200000J0D01*
G01*
X2500000Y-1800000D02*
G75*
G03*
X2300000Y-2000000I0J-200000D01*
G01*
D11*
D12*
X2420000Y-2950000D02*
X2460000Y-2990000D01*
X2460000Y-2950000D02*
X2420000Y-2990000D01*
X2440000Y-1950000D02*
X2480000Y-1990000D01*
X2480000Y-1950000D02*
X2440000Y-1990000D01*
X2450000Y-10430000D02*
X2490000Y-10470000D01*
X2490000Y-10430000D02*
X2450000Y-10470000D01*
X2660000Y-6000000D02*
X2700000Y-6040000D01*
X2700000Y-6000000D02*
X2660000Y-6040000D01*
X2670000Y-7250000D02*
X2710000Y-7290000D01*
X2710000Y-7250000D02*
X2670000Y-7290000D01*
X2740000Y-4490000D02*
X2780000Y-4530000D01*
X2780000Y-4490000D02*
X2740000Y-4530000D01*
X2740000Y-8740000D02*
X2780000Y-8780000D01*
X2780000Y-8740000D02*
X2740000Y-8780000D01*
X2740000Y-8820000D02*
X2780000Y-8860000D01*
X2780000Y-8820000D02*
X2740000Y-8860000D01*
X2750000Y-4600000D02*
X2790000Y-4640000D01*
X2790000Y-4600000D02*
X2750000Y-4640000D01*
X2850000Y-4110000D02*
X2890000Y-4150000D01*
X2890000Y-4110000D02*
X2850000Y-4150000D01*
X2860000Y-8260000D02*
X2900000Y-8300000D01*
X2900000Y-8260000D02*
X2860000Y-8300000D01*
X2860000Y-8950000D02*
X2900000Y-8990000D01*
X2900000Y-8950000D02*
X2860000Y-8990000D01*
X2900000Y-4750000D02*
X2940000Y-4790000D01*
X2940000Y-4750000D02*
X2900000Y-4790000D01*
X3260000Y-8590000D02*
X3300000Y-8630000D01*
X3300000Y-8590000D02*
X3260000Y-8630000D01*
X3480000Y-10130000D02*
X3520000Y-10170000D01*
X3520000Y-10130000D02*
X3480000Y-10170000D01*
X3490000Y-9510000D02*
X3530000Y-9550000D01*
X3530000Y-9510000D02*
X3490000Y-9550000D01*
X3880000Y-4890000D02*
X3920000Y-4930000D01*
X3920000Y-4890000D02*
X3880000Y-4930000D01*
X3890000Y-1960000D02*
X3930000Y-2000000D01*
X3930000Y-1960000D02*
X3890000Y-2000000D01*
X4050000Y-3030000D02*
X4090000Y-3070000D01*
X4090000Y-3030000D02*
X4050000Y-3070000D01*
X4060000Y-6500000D02*
X4100000Y-6540000D01*
X4100000Y-6500000D02*
X4060000Y-6540000D01*
X4370000Y-6760000D02*
X4410000Y-6800000D01*
X4410000Y-6760000D02*
X4370000Y-6800000D01*
X4440000Y-10560000D02*
X4480000Y-10600000D01*
X4480000Y-10560000D02*
X4440000Y-10600000D01*
X4560000Y-11520000D02*
X4600000Y-11560000D01*
X4600000Y-11520000D02*
X4560000Y-11560000D01*
X5080000Y-9540000D02*
X5120000Y-9580000D01*
X5120000Y-9540000D02*
X5080000Y-9580000D01*
X5080000Y-10090000D02*
X5120000Y-10130000D01*
X5120000Y-10090000D02*
X5080000Y-10130000D01*
X5250000Y-7140000D02*
X5290000Y-7180000D01*
X5290000Y-7140000D02*
X5250000Y-7180000D01*
X5260000Y-5050000D02*
X5300000Y-5090000D01*
X5300000Y-5050000D02*
X5260000Y-5090000D01*
X5290000Y-6620000D02*
X5330000Y-6660000D01*
X5330000Y-6620000D02*
X5290000Y-6660000D01*
X5300000Y-4750000D02*
X5340000Y-4790000D01*
X5340000Y-4750000D02*
X5300000Y-4790000D01*
X5330000Y-1950000D02*
X5370000Y-1990000D01*
X5370000Y-1950000D02*
X5330000Y-1990000D01*
X5330000Y-4380000D02*
X5370000Y-4420000D01*
X5370000Y-4380000D02*
X5330000Y-4420000D01*
X5570000Y-2890000D02*
X5610000Y-2930000D01*
X5610000Y-2890000D02*
X5570000Y-2930000D01*
X5640000Y-6370000D02*
X5680000Y-6410000D01*
X5680000Y-6370000D02*
X5640000Y-6410000D01*
X5680000Y-6610000D02*
X5720000Y-6650000D01*
X5720000Y-6610000D02*
X5680000Y-6650000D01*
X5710000Y-7140000D02*
X5750000Y-7180000D01*
X5750000Y-7140000D02*
X5710000Y-7180000D01*
X5740000Y-4670000D02*
X5780000Y-4710000D01*
X5780000Y-4670000D02*
X5740000Y-4710000D01*
X5740000Y-8680000D02*
X5780000Y-8720000D01*
X5780000Y-8680000D02*
X5740000Y-8720000D01*
X5740000Y-8890000D02*
X5780000Y-8930000D01*
X5780000Y-8890000D02*
X5740000Y-8930000D01*
X5750000Y-4430000D02*
X5790000Y-4470000D01*
X5790000Y-4430000D02*
X5750000Y-4470000D01*
X5900000Y-4270000D02*
X5940000Y-4310000D01*
X5940000Y-4270000D02*
X5900000Y-4310000D01*
X5900000Y-4780000D02*
X5940000Y-4820000D01*
X5940000Y-4780000D02*
X5900000Y-4820000D01*
X6300000Y-10510000D02*
X6340000Y-10550000D01*
X6340000Y-10510000D02*
X6300000Y-10550000D01*
X6630000Y-10090000D02*
X6670000Y-10130000D01*
X6670000Y-10090000D02*
X6630000Y-10130000D01*
X6650000Y-9530000D02*
X6690000Y-9570000D01*
X6690000Y-9530000D02*
X6650000Y-9570000D01*
X6720000Y-1930000D02*
X6760000Y-1970000D01*
X6760000Y-1930000D02*
X6720000Y-1970000D01*
X6780000Y-8180000D02*
X6820000Y-8220000D01*
X6820000Y-8180000D02*
X6780000Y-8220000D01*
X6890000Y-4990000D02*
X6930000Y-5030000D01*
X6930000Y-4990000D02*
X6890000Y-5030000D01*
X7020000Y-7980000D02*
X7060000Y-8020000D01*
X7060000Y-7980000D02*
X7020000Y-8020000D01*
X7040000Y-9320000D02*
X7080000Y-9360000D01*
X7080000Y-9320000D02*
X7040000Y-9360000D01*
X7050000Y-3090000D02*
X7090000Y-3130000D01*
X7090000Y-3090000D02*
X7050000Y-3130000D01*
X7800000Y-10070000D02*
X7840000Y-10110000D01*
X7840000Y-10070000D02*
X7800000Y-10110000D01*
X7810000Y-9570000D02*
X7850000Y-9610000D01*
X7850000Y-9570000D02*
X7810000Y-9610000D01*
X8070000Y-7140000D02*
X8110000Y-7180000D01*
X8110000Y-7140000D02*
X8070000Y-7180000D01*
X8100000Y-10530000D02*
X8140000Y-10570000D01*
X8140000Y-10530000D02*
X8100000Y-10570000D01*
X8290000Y-4290000D02*
X8330000Y-4330000D01*
X8330000Y-4290000D02*
X8290000Y-4330000D01*
X8300000Y-6650000D02*
X8340000Y-6690000D01*
X8340000Y-6650000D02*
X8300000Y-6690000D01*
X8310000Y-4770000D02*
X8350000Y-4810000D01*
X8350000Y-4770000D02*
X8310000Y-4810000D01*
X8310000Y-6350000D02*
X8350000Y-6390000D01*
X8350000Y-6350000D02*
X8310000Y-6390000D01*
X8340000Y-5080000D02*
X8380000Y-5120000D01*
X8380000Y-5080000D02*
X8340000Y-5120000D01*
X8510000Y-1900000D02*
X8550000Y-1940000D01*
X8550000Y-1900000D02*
X8510000Y-1940000D01*
X8560000Y-2890000D02*
X8600000Y-2930000D01*
X8600000Y-2890000D02*
X8560000Y-2930000D01*
X8630000Y-4290000D02*
X8670000Y-4330000D01*
X8670000Y-4290000D02*
X8630000Y-4330000D01*
X8724969Y-8646300D02*
X8764969Y-8686300D01*
X8764969Y-8646300D02*
X8724969Y-8686300D01*
X8740000Y-4150000D02*
X8780000Y-4190000D01*
X8780000Y-4150000D02*
X8740000Y-4190000D01*
X8740000Y-4760000D02*
X8780000Y-4800000D01*
X8780000Y-4760000D02*
X8740000Y-4800000D01*
X8740000Y-8980000D02*
X8780000Y-9020000D01*
X8780000Y-8980000D02*
X8740000Y-9020000D01*
X8830000Y-7140000D02*
X8870000Y-7180000D01*
X8870000Y-7140000D02*
X8830000Y-7180000D01*
X8980000Y-6620000D02*
X9020000Y-6660000D01*
X9020000Y-6620000D02*
X8980000Y-6660000D01*
X9120000Y-5180000D02*
X9160000Y-5220000D01*
X9160000Y-5180000D02*
X9120000Y-5220000D01*
X9280000Y-7170000D02*
X9320000Y-7210000D01*
X9320000Y-7170000D02*
X9280000Y-7210000D01*
X9460000Y-10110000D02*
X9500000Y-10150000D01*
X9500000Y-10110000D02*
X9460000Y-10150000D01*
X9470000Y-9520000D02*
X9510000Y-9560000D01*
X9510000Y-9520000D02*
X9470000Y-9560000D01*
X9500000Y-5310000D02*
X9540000Y-5350000D01*
X9540000Y-5310000D02*
X9500000Y-5350000D01*
X9880000Y-5080000D02*
X9920000Y-5120000D01*
X9920000Y-5080000D02*
X9880000Y-5120000D01*
X10020000Y-9080000D02*
X10060000Y-9120000D01*
X10060000Y-9080000D02*
X10020000Y-9120000D01*
X10110000Y-10510000D02*
X10150000Y-10550000D01*
X10150000Y-10510000D02*
X10110000Y-10550000D01*
X10170000Y-9980000D02*
X10210000Y-10020000D01*
X10210000Y-9980000D02*
X10170000Y-10020000D01*
X10190000Y-3170000D02*
X10230000Y-3210000D01*
X10230000Y-3170000D02*
X10190000Y-3210000D01*
X10510000Y-1950000D02*
X10550000Y-1990000D01*
X10550000Y-1950000D02*
X10510000Y-1990000D01*
X10930000Y-9530000D02*
X10970000Y-9570000D01*
X10970000Y-9530000D02*
X10930000Y-9570000D01*
X10930000Y-10030000D02*
X10970000Y-10070000D01*
X10970000Y-10030000D02*
X10930000Y-10070000D01*
X11010000Y-5320000D02*
X11050000Y-5360000D01*
X11050000Y-5320000D02*
X11010000Y-5360000D01*
X11060000Y-8060000D02*
X11100000Y-8100000D01*
X11100000Y-8060000D02*
X11060000Y-8100000D01*
X11240000Y-9540000D02*
X11280000Y-9580000D01*
X11280000Y-9540000D02*
X11240000Y-9580000D01*
X11240000Y-10020000D02*
X11280000Y-10060000D01*
X11280000Y-10020000D02*
X11240000Y-10060000D01*
X11270000Y-7170000D02*
X11310000Y-7210000D01*
X11310000Y-7170000D02*
X11270000Y-7210000D01*
X11290000Y-6620000D02*
X11330000Y-6660000D01*
X11330000Y-6620000D02*
X11290000Y-6660000D01*
X11310000Y-4280000D02*
X11350000Y-4320000D01*
X11350000Y-4280000D02*
X11310000Y-4320000D01*
X11480000Y-4290000D02*
X11520000Y-4330000D01*
X11520000Y-4290000D02*
X11480000Y-4330000D01*
X11480000Y-8500000D02*
X11520000Y-8540000D01*
X11520000Y-8500000D02*
X11480000Y-8540000D01*
X11560000Y-2890000D02*
X11600000Y-2930000D01*
X11600000Y-2890000D02*
X11560000Y-2930000D01*
X11730000Y-8370000D02*
X11770000Y-8410000D01*
X11770000Y-8370000D02*
X11730000Y-8410000D01*
X11740000Y-9251048D02*
X11780000Y-9291048D01*
X11780000Y-9251048D02*
X11740000Y-9291048D01*
X11750000Y-4070000D02*
X11790000Y-4110000D01*
X11790000Y-4070000D02*
X11750000Y-4110000D01*
X11760000Y-5030000D02*
X11800000Y-5070000D01*
X11800000Y-5030000D02*
X11760000Y-5070000D01*
X12090000Y-7130000D02*
X12130000Y-7170000D01*
X12130000Y-7130000D02*
X12090000Y-7170000D01*
X12120000Y-1920000D02*
X12160000Y-1960000D01*
X12160000Y-1920000D02*
X12120000Y-1960000D01*
X12150000Y-10530000D02*
X12190000Y-10570000D01*
X12190000Y-10530000D02*
X12150000Y-10570000D01*
X12440000Y-3930000D02*
X12480000Y-3970000D01*
X12480000Y-3930000D02*
X12440000Y-3970000D01*
X12500000Y-6640000D02*
X12540000Y-6680000D01*
X12540000Y-6640000D02*
X12500000Y-6680000D01*
X12540000Y-9530000D02*
X12580000Y-9570000D01*
X12580000Y-9530000D02*
X12540000Y-9570000D01*
X12550000Y-10040000D02*
X12590000Y-10080000D01*
X12590000Y-10040000D02*
X12550000Y-10080000D01*
X12650000Y-9610000D02*
X12690000Y-9650000D01*
X12690000Y-9610000D02*
X12650000Y-9650000D01*
X12650000Y-12070000D02*
X12690000Y-12110000D01*
X12690000Y-12070000D02*
X12650000Y-12110000D01*
X12880000Y-3940000D02*
X12920000Y-3980000D01*
X12920000Y-3940000D02*
X12880000Y-3980000D01*
X12890000Y-10010000D02*
X12930000Y-10050000D01*
X12930000Y-10010000D02*
X12890000Y-10050000D01*
X13020000Y-4000000D02*
X13060000Y-4040000D01*
X13060000Y-4000000D02*
X13020000Y-4040000D01*
X13030000Y-7140000D02*
X13070000Y-7180000D01*
X13070000Y-7140000D02*
X13030000Y-7180000D01*
X13058871Y-4514245D02*
X13098871Y-4554245D01*
X13098871Y-4514245D02*
X13058871Y-4554245D01*
X13067470Y-8437550D02*
X13107470Y-8477550D01*
X13107470Y-8437550D02*
X13067470Y-8477550D01*
X13070000Y-4600000D02*
X13110000Y-4640000D01*
X13110000Y-4600000D02*
X13070000Y-4640000D01*
X13134188Y-4487423D02*
X13174188Y-4527423D01*
X13174188Y-4487423D02*
X13134188Y-4527423D01*
X13164068Y-4561580D02*
X13204068Y-4601580D01*
X13204068Y-4561580D02*
X13164068Y-4601580D01*
X13180000Y-8200000D02*
X13220000Y-8240000D01*
X13220000Y-8200000D02*
X13180000Y-8240000D01*
X13193800Y-4423605D02*
X13233800Y-4463605D01*
X13233800Y-4423605D02*
X13193800Y-4463605D01*
X13200000Y-4670000D02*
X13240000Y-4710000D01*
X13240000Y-4670000D02*
X13200000Y-4710000D01*
X13214737Y-8751602D02*
X13254737Y-8791602D01*
X13254737Y-8751602D02*
X13214737Y-8791602D01*
X13218567Y-8831464D02*
X13258567Y-8871464D01*
X13258567Y-8831464D02*
X13218567Y-8871464D01*
X13240000Y-4600000D02*
X13280000Y-4640000D01*
X13280000Y-4600000D02*
X13240000Y-4640000D01*
X13280000Y-7800000D02*
X13320000Y-7840000D01*
X13320000Y-7800000D02*
X13280000Y-7840000D01*
X13294070Y-8761517D02*
X13334070Y-8801517D01*
X13334070Y-8761517D02*
X13294070Y-8801517D01*
X13320000Y-8260000D02*
X13360000Y-8300000D01*
X13360000Y-8260000D02*
X13320000Y-8300000D01*
X13327450Y-4422605D02*
X13367450Y-4462605D01*
X13367450Y-4422605D02*
X13327450Y-4462605D01*
X13330000Y-4150000D02*
X13370000Y-4190000D01*
X13370000Y-4150000D02*
X13330000Y-4190000D01*
X13330000Y-4720000D02*
X13370000Y-4760000D01*
X13370000Y-4720000D02*
X13330000Y-4760000D01*
X13340000Y-5710000D02*
X13380000Y-5750000D01*
X13380000Y-5710000D02*
X13340000Y-5750000D01*
X13361747Y-8718951D02*
X13401747Y-8758951D01*
X13401747Y-8718951D02*
X13361747Y-8758951D01*
X13370000Y-8890000D02*
X13410000Y-8930000D01*
X13410000Y-8890000D02*
X13370000Y-8930000D01*
X13380000Y-9550000D02*
X13420000Y-9590000D01*
X13420000Y-9550000D02*
X13380000Y-9590000D01*
X13420000Y-4660000D02*
X13460000Y-4700000D01*
X13460000Y-4660000D02*
X13420000Y-4700000D01*
X13440000Y-8300000D02*
X13480000Y-8340000D01*
X13480000Y-8300000D02*
X13440000Y-8340000D01*
X13460000Y-4080000D02*
X13500000Y-4120000D01*
X13500000Y-4080000D02*
X13460000Y-4120000D01*
X13460000Y-5020000D02*
X13500000Y-5060000D01*
X13500000Y-5020000D02*
X13460000Y-5060000D01*
X13460000Y-5440000D02*
X13500000Y-5480000D01*
X13500000Y-5440000D02*
X13460000Y-5480000D01*
X13470000Y-3700000D02*
X13510000Y-3740000D01*
X13510000Y-3700000D02*
X13470000Y-3740000D01*
X13480000Y-8840000D02*
X13520000Y-8880000D01*
X13520000Y-8840000D02*
X13480000Y-8880000D01*
X13499096Y-8686300D02*
X13539096Y-8726300D01*
X13539096Y-8686300D02*
X13499096Y-8726300D01*
X13500000Y-8940000D02*
X13540000Y-8980000D01*
X13540000Y-8940000D02*
X13500000Y-8980000D01*
X13579046Y-8686300D02*
X13619046Y-8726300D01*
X13619046Y-8686300D02*
X13579046Y-8726300D01*
X13620000Y-5980000D02*
X13660000Y-6020000D01*
X13660000Y-5980000D02*
X13620000Y-6020000D01*
X13620000Y-8940000D02*
X13660000Y-8980000D01*
X13660000Y-8940000D02*
X13620000Y-8980000D01*
X13620000Y-9900000D02*
X13660000Y-9940000D01*
X13660000Y-9900000D02*
X13620000Y-9940000D01*
X13630000Y-8370000D02*
X13670000Y-8410000D01*
X13670000Y-8370000D02*
X13630000Y-8410000D01*
X13630000Y-9230000D02*
X13670000Y-9270000D01*
X13670000Y-9230000D02*
X13630000Y-9270000D01*
X13650000Y-6140000D02*
X13690000Y-6180000D01*
X13690000Y-6140000D02*
X13650000Y-6180000D01*
X13700000Y-5350000D02*
X13740000Y-5390000D01*
X13740000Y-5350000D02*
X13700000Y-5390000D01*
X13720000Y-1990000D02*
X13760000Y-2030000D01*
X13760000Y-1990000D02*
X13720000Y-2030000D01*
X13820000Y-3720000D02*
X13860000Y-3760000D01*
X13860000Y-3720000D02*
X13820000Y-3760000D01*
X13840000Y-4280000D02*
X13880000Y-4320000D01*
X13880000Y-4280000D02*
X13840000Y-4320000D01*
X13840000Y-9000000D02*
X13880000Y-9040000D01*
X13880000Y-9000000D02*
X13840000Y-9040000D01*
X13980000Y-8533700D02*
X14020000Y-8573700D01*
X14020000Y-8533700D02*
X13980000Y-8573700D01*
X14490000Y-6620000D02*
X14530000Y-6660000D01*
X14530000Y-6620000D02*
X14490000Y-6660000D01*
X14490000Y-7420000D02*
X14530000Y-7460000D01*
X14530000Y-7420000D02*
X14490000Y-7460000D01*
X14490000Y-7700000D02*
X14530000Y-7740000D01*
X14530000Y-7700000D02*
X14490000Y-7740000D01*
X14500000Y-7150000D02*
X14540000Y-7190000D01*
X14540000Y-7150000D02*
X14500000Y-7190000D01*
X14520000Y-8120000D02*
X14560000Y-8160000D01*
X14560000Y-8120000D02*
X14520000Y-8160000D01*
X14590000Y-9340000D02*
X14630000Y-9380000D01*
X14630000Y-9340000D02*
X14590000Y-9380000D01*
X14600000Y-8200000D02*
X14640000Y-8240000D01*
X14640000Y-8200000D02*
X14600000Y-8240000D01*
X14620000Y-5360000D02*
X14660000Y-5400000D01*
X14660000Y-5360000D02*
X14620000Y-5400000D01*
X14620000Y-8460000D02*
X14660000Y-8500000D01*
X14660000Y-8460000D02*
X14620000Y-8500000D01*
X14680000Y-7940000D02*
X14720000Y-7980000D01*
X14720000Y-7940000D02*
X14680000Y-7980000D01*
X14720000Y-8680000D02*
X14760000Y-8720000D01*
X14760000Y-8680000D02*
X14720000Y-8720000D01*
X14740000Y-6100000D02*
X14780000Y-6140000D01*
X14780000Y-6100000D02*
X14740000Y-6140000D01*
X14760000Y-5100000D02*
X14800000Y-5140000D01*
X14800000Y-5100000D02*
X14760000Y-5140000D01*
X14794678Y-8321768D02*
X14834678Y-8361768D01*
X14834678Y-8321768D02*
X14794678Y-8361768D01*
X14840000Y-12080000D02*
X14880000Y-12120000D01*
X14880000Y-12080000D02*
X14840000Y-12120000D01*
X14950000Y-10260000D02*
X14990000Y-10300000D01*
X14990000Y-10260000D02*
X14950000Y-10300000D01*
X15036113Y-8134266D02*
X15076113Y-8174266D01*
X15076113Y-8134266D02*
X15036113Y-8174266D01*
X15047097Y-2989950D02*
X15087097Y-3029950D01*
X15087097Y-2989950D02*
X15047097Y-3029950D01*
X15120000Y-7150000D02*
X15160000Y-7190000D01*
X15160000Y-7150000D02*
X15120000Y-7190000D01*
X15140000Y-3030000D02*
X15180000Y-3070000D01*
X15180000Y-3030000D02*
X15140000Y-3070000D01*
X15170000Y-7790000D02*
X15210000Y-7830000D01*
X15210000Y-7790000D02*
X15170000Y-7830000D01*
X15190000Y-8450000D02*
X15230000Y-8490000D01*
X15230000Y-8450000D02*
X15190000Y-8490000D01*
X15190000Y-9320000D02*
X15230000Y-9360000D01*
X15230000Y-9320000D02*
X15190000Y-9360000D01*
X15370000Y-7170000D02*
X15410000Y-7210000D01*
X15410000Y-7170000D02*
X15370000Y-7210000D01*
X15370000Y-7790000D02*
X15410000Y-7830000D01*
X15410000Y-7790000D02*
X15370000Y-7830000D01*
X15471513Y-8591097D02*
X15511513Y-8631097D01*
X15511513Y-8591097D02*
X15471513Y-8631097D01*
X15587200Y-9260000D02*
X15627200Y-9300000D01*
X15627200Y-9260000D02*
X15587200Y-9300000D01*
X15590000Y-7770000D02*
X15630000Y-7810000D01*
X15630000Y-7770000D02*
X15590000Y-7810000D01*
X15610000Y-7140000D02*
X15650000Y-7180000D01*
X15650000Y-7140000D02*
X15610000Y-7180000D01*
X15630000Y-8220000D02*
X15670000Y-8260000D01*
X15670000Y-8220000D02*
X15630000Y-8260000D01*
X15640000Y-8800000D02*
X15680000Y-8840000D01*
X15680000Y-8800000D02*
X15640000Y-8840000D01*
X15640000Y-10380000D02*
X15680000Y-10420000D01*
X15680000Y-10380000D02*
X15640000Y-10420000D01*
X15670000Y-3310000D02*
X15710000Y-3350000D01*
X15710000Y-3310000D02*
X15670000Y-3350000D01*
X15840000Y-10950000D02*
X15880000Y-10990000D01*
X15880000Y-10950000D02*
X15840000Y-10990000D01*
X15890000Y-9820000D02*
X15930000Y-9860000D01*
X15930000Y-9820000D02*
X15890000Y-9860000D01*
X15930000Y-9910000D02*
X15970000Y-9950000D01*
X15970000Y-9910000D02*
X15930000Y-9950000D01*
X15940190Y-8840190D02*
X15980190Y-8880190D01*
X15980190Y-8840190D02*
X15940190Y-8880190D01*
X15958922Y-8591097D02*
X15998922Y-8631097D01*
X15998922Y-8591097D02*
X15958922Y-8631097D01*
X15960164Y-8671038D02*
X16000164Y-8711038D01*
X16000164Y-8671038D02*
X15960164Y-8711038D01*
X15970000Y-11630000D02*
X16010000Y-11670000D01*
X16010000Y-11630000D02*
X15970000Y-11670000D01*
X15980000Y-6000000D02*
X16020000Y-6040000D01*
X16020000Y-6000000D02*
X15980000Y-6040000D01*
X16040000Y-6260000D02*
X16080000Y-6300000D01*
X16080000Y-6260000D02*
X16040000Y-6300000D01*
X16080000Y-9460000D02*
X16120000Y-9500000D01*
X16120000Y-9460000D02*
X16080000Y-9500000D01*
X16101626Y-9207630D02*
X16141626Y-9247630D01*
X16141626Y-9207630D02*
X16101626Y-9247630D01*
X16105098Y-5085098D02*
X16145098Y-5125098D01*
X16145098Y-5085098D02*
X16105098Y-5125098D01*
X16118140Y-8721603D02*
X16158140Y-8761603D01*
X16158140Y-8721603D02*
X16118140Y-8761603D01*
X16140000Y-5240000D02*
X16180000Y-5280000D01*
X16180000Y-5240000D02*
X16140000Y-5280000D01*
X16140000Y-5840000D02*
X16180000Y-5880000D01*
X16180000Y-5840000D02*
X16140000Y-5880000D01*
X16210000Y-8478497D02*
X16250000Y-8518497D01*
X16250000Y-8478497D02*
X16210000Y-8518497D01*
X16240000Y-4720000D02*
X16280000Y-4760000D01*
X16280000Y-4720000D02*
X16240000Y-4760000D01*
X16250000Y-9480000D02*
X16290000Y-9520000D01*
X16290000Y-9480000D02*
X16250000Y-9520000D01*
X16260000Y-4120000D02*
X16300000Y-4160000D01*
X16300000Y-4120000D02*
X16260000Y-4160000D01*
X16320000Y-4680000D02*
X16360000Y-4720000D01*
X16360000Y-4680000D02*
X16320000Y-4720000D01*
X16324146Y-3892450D02*
X16364146Y-3932450D01*
X16364146Y-3892450D02*
X16324146Y-3932450D01*
X16530000Y-3270000D02*
X16570000Y-3310000D01*
X16570000Y-3270000D02*
X16530000Y-3310000D01*
X16580000Y-3180000D02*
X16620000Y-3220000D01*
X16620000Y-3180000D02*
X16580000Y-3220000D01*
X16710000Y-5250000D02*
X16750000Y-5290000D01*
X16750000Y-5250000D02*
X16710000Y-5290000D01*
X16750000Y-3070000D02*
X16790000Y-3110000D01*
X16790000Y-3070000D02*
X16750000Y-3110000D01*
X16800000Y-7270000D02*
X16840000Y-7310000D01*
X16840000Y-7270000D02*
X16800000Y-7310000D01*
X16900000Y-2890000D02*
X16940000Y-2930000D01*
X16940000Y-2890000D02*
X16900000Y-2930000D01*
X16910000Y-3730000D02*
X16950000Y-3770000D01*
X16950000Y-3730000D02*
X16910000Y-3770000D01*
X16913232Y-5113232D02*
X16953232Y-5153232D01*
X16953232Y-5113232D02*
X16913232Y-5153232D01*
X17060000Y-8250000D02*
X17100000Y-8290000D01*
X17100000Y-8250000D02*
X17060000Y-8290000D01*
X17160000Y-4970000D02*
X17200000Y-5010000D01*
X17200000Y-4970000D02*
X17160000Y-5010000D01*
X17179500Y-8747500D02*
X17219500Y-8787500D01*
X17219500Y-8747500D02*
X17179500Y-8787500D01*
X17390000Y-7890000D02*
X17430000Y-7930000D01*
X17430000Y-7890000D02*
X17390000Y-7930000D01*
X17520000Y-1960000D02*
X17560000Y-2000000D01*
X17560000Y-1960000D02*
X17520000Y-2000000D01*
X17530000Y-12110000D02*
X17570000Y-12150000D01*
X17570000Y-12110000D02*
X17530000Y-12150000D01*
X17600000Y-8930000D02*
X17640000Y-8970000D01*
X17640000Y-8930000D02*
X17600000Y-8970000D01*
D13*
X14469750Y-10830000D02*
G75*
G03*
X14469750Y-10830000I-38000J0D01*
G01*
X14596750Y-10576000D02*
G75*
G03*
X14596750Y-10576000I-38000J0D01*
G01*
X14723750Y-10830000D02*
G75*
G03*
X14723750Y-10830000I-38000J0D01*
G01*
X14850750Y-10576000D02*
G75*
G03*
X14850750Y-10576000I-38000J0D01*
G01*
X14977750Y-10830000D02*
G75*
G03*
X14977750Y-10830000I-38000J0D01*
G01*
X15104750Y-10576000D02*
G75*
G03*
X15104750Y-10576000I-38000J0D01*
G01*
X15231750Y-10830000D02*
G75*
G03*
X15231750Y-10830000I-38000J0D01*
G01*
X15358750Y-10576000D02*
G75*
G03*
X15358750Y-10576000I-38000J0D01*
G01*
D14*
X2500000Y-3450000D02*
X2500000Y-3550000D01*
X2450000Y-3500000D02*
X2550000Y-3500000D01*
X2500000Y-5550000D02*
X2500000Y-5650000D01*
X2450000Y-5600000D02*
X2550000Y-5600000D01*
X2500000Y-7650000D02*
X2500000Y-7750000D01*
X2450000Y-7700000D02*
X2550000Y-7700000D01*
X2500000Y-9750000D02*
X2500000Y-9850000D01*
X2450000Y-9800000D02*
X2550000Y-9800000D01*
X2513000Y-11850000D02*
X2513000Y-11950000D01*
X2463000Y-11900000D02*
X2563000Y-11900000D01*
X2754000Y-3450000D02*
X2754000Y-3550000D01*
X2704000Y-3500000D02*
X2804000Y-3500000D01*
X2754000Y-5550000D02*
X2754000Y-5650000D01*
X2704000Y-5600000D02*
X2804000Y-5600000D01*
X2754000Y-7650000D02*
X2754000Y-7750000D01*
X2704000Y-7700000D02*
X2804000Y-7700000D01*
X2754000Y-9750000D02*
X2754000Y-9850000D01*
X2704000Y-9800000D02*
X2804000Y-9800000D01*
X2767000Y-11850000D02*
X2767000Y-11950000D01*
X2717000Y-11900000D02*
X2817000Y-11900000D01*
X3008000Y-3450000D02*
X3008000Y-3550000D01*
X2958000Y-3500000D02*
X3058000Y-3500000D01*
X3008000Y-5550000D02*
X3008000Y-5650000D01*
X2958000Y-5600000D02*
X3058000Y-5600000D01*
X3008000Y-7650000D02*
X3008000Y-7750000D01*
X2958000Y-7700000D02*
X3058000Y-7700000D01*
X3008000Y-9750000D02*
X3008000Y-9850000D01*
X2958000Y-9800000D02*
X3058000Y-9800000D01*
X3900000Y-3450000D02*
X3900000Y-3550000D01*
X3850000Y-3500000D02*
X3950000Y-3500000D01*
X3900000Y-5550000D02*
X3900000Y-5650000D01*
X3850000Y-5600000D02*
X3950000Y-5600000D01*
X3900000Y-7650000D02*
X3900000Y-7750000D01*
X3850000Y-7700000D02*
X3950000Y-7700000D01*
X3900000Y-9750000D02*
X3900000Y-9850000D01*
X3850000Y-9800000D02*
X3950000Y-9800000D01*
X4154000Y-3450000D02*
X4154000Y-3550000D01*
X4104000Y-3500000D02*
X4204000Y-3500000D01*
X4154000Y-5550000D02*
X4154000Y-5650000D01*
X4104000Y-5600000D02*
X4204000Y-5600000D01*
X4154000Y-7650000D02*
X4154000Y-7750000D01*
X4104000Y-7700000D02*
X4204000Y-7700000D01*
X4154000Y-9750000D02*
X4154000Y-9850000D01*
X4104000Y-9800000D02*
X4204000Y-9800000D01*
X4399885Y-11850000D02*
X4399885Y-11950000D01*
X4349885Y-11900000D02*
X4449885Y-11900000D01*
X4653885Y-11850000D02*
X4653885Y-11950000D01*
X4603885Y-11900000D02*
X4703885Y-11900000D01*
X5500000Y-3450000D02*
X5500000Y-3550000D01*
X5450000Y-3500000D02*
X5550000Y-3500000D01*
X5500000Y-5550000D02*
X5500000Y-5650000D01*
X5450000Y-5600000D02*
X5550000Y-5600000D01*
X5500000Y-7650000D02*
X5500000Y-7750000D01*
X5450000Y-7700000D02*
X5550000Y-7700000D01*
X5500000Y-9750000D02*
X5500000Y-9850000D01*
X5450000Y-9800000D02*
X5550000Y-9800000D01*
X5754000Y-3450000D02*
X5754000Y-3550000D01*
X5704000Y-3500000D02*
X5804000Y-3500000D01*
X5754000Y-5550000D02*
X5754000Y-5650000D01*
X5704000Y-5600000D02*
X5804000Y-5600000D01*
X5754000Y-7650000D02*
X5754000Y-7750000D01*
X5704000Y-7700000D02*
X5804000Y-7700000D01*
X5754000Y-9750000D02*
X5754000Y-9850000D01*
X5704000Y-9800000D02*
X5804000Y-9800000D01*
X6008000Y-3450000D02*
X6008000Y-3550000D01*
X5958000Y-3500000D02*
X6058000Y-3500000D01*
X6008000Y-5550000D02*
X6008000Y-5650000D01*
X5958000Y-5600000D02*
X6058000Y-5600000D01*
X6008000Y-7650000D02*
X6008000Y-7750000D01*
X5958000Y-7700000D02*
X6058000Y-7700000D01*
X6008000Y-9750000D02*
X6008000Y-9850000D01*
X5958000Y-9800000D02*
X6058000Y-9800000D01*
X6400000Y-11850000D02*
X6400000Y-11950000D01*
X6350000Y-11900000D02*
X6450000Y-11900000D01*
X6654000Y-11850000D02*
X6654000Y-11950000D01*
X6604000Y-11900000D02*
X6704000Y-11900000D01*
X6900000Y-3450000D02*
X6900000Y-3550000D01*
X6850000Y-3500000D02*
X6950000Y-3500000D01*
X6900000Y-5550000D02*
X6900000Y-5650000D01*
X6850000Y-5600000D02*
X6950000Y-5600000D01*
X6900000Y-7650000D02*
X6900000Y-7750000D01*
X6850000Y-7700000D02*
X6950000Y-7700000D01*
X6900000Y-9750000D02*
X6900000Y-9850000D01*
X6850000Y-9800000D02*
X6950000Y-9800000D01*
X6908000Y-11850000D02*
X6908000Y-11950000D01*
X6858000Y-11900000D02*
X6958000Y-11900000D01*
X7154000Y-3450000D02*
X7154000Y-3550000D01*
X7104000Y-3500000D02*
X7204000Y-3500000D01*
X7154000Y-5550000D02*
X7154000Y-5650000D01*
X7104000Y-5600000D02*
X7204000Y-5600000D01*
X7154000Y-7650000D02*
X7154000Y-7750000D01*
X7104000Y-7700000D02*
X7204000Y-7700000D01*
X7154000Y-9750000D02*
X7154000Y-9850000D01*
X7104000Y-9800000D02*
X7204000Y-9800000D01*
X8500000Y-3450000D02*
X8500000Y-3550000D01*
X8450000Y-3500000D02*
X8550000Y-3500000D01*
X8500000Y-5550000D02*
X8500000Y-5650000D01*
X8450000Y-5600000D02*
X8550000Y-5600000D01*
X8500000Y-7650000D02*
X8500000Y-7750000D01*
X8450000Y-7700000D02*
X8550000Y-7700000D01*
X8500000Y-9750000D02*
X8500000Y-9850000D01*
X8450000Y-9800000D02*
X8550000Y-9800000D01*
X8547500Y-11850000D02*
X8547500Y-11950000D01*
X8497500Y-11900000D02*
X8597500Y-11900000D01*
X8754000Y-3450000D02*
X8754000Y-3550000D01*
X8704000Y-3500000D02*
X8804000Y-3500000D01*
X8754000Y-5550000D02*
X8754000Y-5650000D01*
X8704000Y-5600000D02*
X8804000Y-5600000D01*
X8754000Y-7650000D02*
X8754000Y-7750000D01*
X8704000Y-7700000D02*
X8804000Y-7700000D01*
X8754000Y-9750000D02*
X8754000Y-9850000D01*
X8704000Y-9800000D02*
X8804000Y-9800000D01*
X8801500Y-11850000D02*
X8801500Y-11950000D01*
X8751500Y-11900000D02*
X8851500Y-11900000D01*
X9008000Y-3450000D02*
X9008000Y-3550000D01*
X8958000Y-3500000D02*
X9058000Y-3500000D01*
X9008000Y-5550000D02*
X9008000Y-5650000D01*
X8958000Y-5600000D02*
X9058000Y-5600000D01*
X9008000Y-7650000D02*
X9008000Y-7750000D01*
X8958000Y-7700000D02*
X9058000Y-7700000D01*
X9008000Y-9750000D02*
X9008000Y-9850000D01*
X8958000Y-9800000D02*
X9058000Y-9800000D01*
X9055500Y-11850000D02*
X9055500Y-11950000D01*
X9005500Y-11900000D02*
X9105500Y-11900000D01*
X9900000Y-3450000D02*
X9900000Y-3550000D01*
X9850000Y-3500000D02*
X9950000Y-3500000D01*
X9900000Y-5550000D02*
X9900000Y-5650000D01*
X9850000Y-5600000D02*
X9950000Y-5600000D01*
X9900000Y-7650000D02*
X9900000Y-7750000D01*
X9850000Y-7700000D02*
X9950000Y-7700000D01*
X9900000Y-9750000D02*
X9900000Y-9850000D01*
X9850000Y-9800000D02*
X9950000Y-9800000D01*
X10154000Y-3450000D02*
X10154000Y-3550000D01*
X10104000Y-3500000D02*
X10204000Y-3500000D01*
X10154000Y-5550000D02*
X10154000Y-5650000D01*
X10104000Y-5600000D02*
X10204000Y-5600000D01*
X10154000Y-7650000D02*
X10154000Y-7750000D01*
X10104000Y-7700000D02*
X10204000Y-7700000D01*
X10154000Y-9750000D02*
X10154000Y-9850000D01*
X10104000Y-9800000D02*
X10204000Y-9800000D01*
X10647500Y-11850000D02*
X10647500Y-11950000D01*
X10597500Y-11900000D02*
X10697500Y-11900000D01*
X10901500Y-11850000D02*
X10901500Y-11950000D01*
X10851500Y-11900000D02*
X10951500Y-11900000D01*
X11155500Y-11850000D02*
X11155500Y-11950000D01*
X11105500Y-11900000D02*
X11205500Y-11900000D01*
X11500000Y-3450000D02*
X11500000Y-3550000D01*
X11450000Y-3500000D02*
X11550000Y-3500000D01*
X11500000Y-5550000D02*
X11500000Y-5650000D01*
X11450000Y-5600000D02*
X11550000Y-5600000D01*
X11500000Y-7650000D02*
X11500000Y-7750000D01*
X11450000Y-7700000D02*
X11550000Y-7700000D01*
X11500000Y-9750000D02*
X11500000Y-9850000D01*
X11450000Y-9800000D02*
X11550000Y-9800000D01*
X11754000Y-3450000D02*
X11754000Y-3550000D01*
X11704000Y-3500000D02*
X11804000Y-3500000D01*
X11754000Y-5550000D02*
X11754000Y-5650000D01*
X11704000Y-5600000D02*
X11804000Y-5600000D01*
X11754000Y-7650000D02*
X11754000Y-7750000D01*
X11704000Y-7700000D02*
X11804000Y-7700000D01*
X11754000Y-9750000D02*
X11754000Y-9850000D01*
X11704000Y-9800000D02*
X11804000Y-9800000D01*
X12008000Y-3450000D02*
X12008000Y-3550000D01*
X11958000Y-3500000D02*
X12058000Y-3500000D01*
X12008000Y-5550000D02*
X12008000Y-5650000D01*
X11958000Y-5600000D02*
X12058000Y-5600000D01*
X12008000Y-7650000D02*
X12008000Y-7750000D01*
X11958000Y-7700000D02*
X12058000Y-7700000D01*
X12008000Y-9750000D02*
X12008000Y-9850000D01*
X11958000Y-9800000D02*
X12058000Y-9800000D01*
X12947500Y-3460000D02*
X12947500Y-3560000D01*
X12897500Y-3510000D02*
X12997500Y-3510000D01*
X12947500Y-5560000D02*
X12947500Y-5660000D01*
X12897500Y-5610000D02*
X12997500Y-5610000D01*
X12947500Y-7660000D02*
X12947500Y-7760000D01*
X12897500Y-7710000D02*
X12997500Y-7710000D01*
X12947500Y-9750000D02*
X12947500Y-9850000D01*
X12897500Y-9800000D02*
X12997500Y-9800000D01*
X12947500Y-11850000D02*
X12947500Y-11950000D01*
X12897500Y-11900000D02*
X12997500Y-11900000D01*
X13201500Y-3460000D02*
X13201500Y-3560000D01*
X13151500Y-3510000D02*
X13251500Y-3510000D01*
X13201500Y-5560000D02*
X13201500Y-5660000D01*
X13151500Y-5610000D02*
X13251500Y-5610000D01*
X13201500Y-7660000D02*
X13201500Y-7760000D01*
X13151500Y-7710000D02*
X13251500Y-7710000D01*
X13201500Y-9750000D02*
X13201500Y-9850000D01*
X13151500Y-9800000D02*
X13251500Y-9800000D01*
X13201500Y-11850000D02*
X13201500Y-11950000D01*
X13151500Y-11900000D02*
X13251500Y-11900000D01*
X13455500Y-3460000D02*
X13455500Y-3560000D01*
X13405500Y-3510000D02*
X13505500Y-3510000D01*
X13455500Y-5560000D02*
X13455500Y-5660000D01*
X13405500Y-5610000D02*
X13505500Y-5610000D01*
X13455500Y-7660000D02*
X13455500Y-7760000D01*
X13405500Y-7710000D02*
X13505500Y-7710000D01*
X13455500Y-9750000D02*
X13455500Y-9850000D01*
X13405500Y-9800000D02*
X13505500Y-9800000D01*
X13455500Y-11850000D02*
X13455500Y-11950000D01*
X13405500Y-11900000D02*
X13505500Y-11900000D01*
X16910000Y-9680000D02*
X16910000Y-9780000D01*
X16860000Y-9730000D02*
X16960000Y-9730000D01*
X16933232Y-5850000D02*
X16933232Y-5950000D01*
X16883232Y-5900000D02*
X16983232Y-5900000D01*
X17410000Y-9680000D02*
X17410000Y-9780000D01*
X17360000Y-9730000D02*
X17460000Y-9730000D01*
X17433232Y-5850000D02*
X17433232Y-5950000D01*
X17383232Y-5900000D02*
X17483232Y-5900000D01*
D15*
X14976891Y-3767688D02*
X14976891Y-3689906D01*
X14899109Y-3689906D01*
X14899109Y-3767688D01*
X14976891Y-3767688D01*
X14976891Y-4021688D02*
X14976891Y-3943906D01*
X14899109Y-3943906D01*
X14899109Y-4021688D01*
X14976891Y-4021688D01*
X14976891Y-4275688D02*
X14976891Y-4197906D01*
X14899109Y-4197906D01*
X14899109Y-4275688D01*
X14976891Y-4275688D01*
X14976891Y-4529688D02*
X14976891Y-4451906D01*
X14899109Y-4451906D01*
X14899109Y-4529688D01*
X14976891Y-4529688D01*
X14976891Y-4783688D02*
X14976891Y-4705906D01*
X14899109Y-4705906D01*
X14899109Y-4783688D01*
X14976891Y-4783688D01*
X14976891Y-5037688D02*
X14976891Y-4959906D01*
X14899109Y-4959906D01*
X14899109Y-5037688D01*
X14976891Y-5037688D01*
X14976891Y-5291688D02*
X14976891Y-5213906D01*
X14899109Y-5213906D01*
X14899109Y-5291688D01*
X14976891Y-5291688D01*
X14976891Y-5545688D02*
X14976891Y-5467906D01*
X14899109Y-5467906D01*
X14899109Y-5545688D01*
X14976891Y-5545688D01*
X14976891Y-5799688D02*
X14976891Y-5721906D01*
X14899109Y-5721906D01*
X14899109Y-5799688D01*
X14976891Y-5799688D01*
X14976891Y-6053688D02*
X14976891Y-5975906D01*
X14899109Y-5975906D01*
X14899109Y-6053688D01*
X14976891Y-6053688D01*
X14976891Y-6307688D02*
X14976891Y-6229906D01*
X14899109Y-6229906D01*
X14899109Y-6307688D01*
X14976891Y-6307688D01*
X14976891Y-6561688D02*
X14976891Y-6483906D01*
X14899109Y-6483906D01*
X14899109Y-6561688D01*
X14976891Y-6561688D01*
X14976891Y-6815688D02*
X14976891Y-6737906D01*
X14899109Y-6737906D01*
X14899109Y-6815688D01*
X14976891Y-6815688D01*
X14976891Y-7069688D02*
X14976891Y-6991906D01*
X14899109Y-6991906D01*
X14899109Y-7069688D01*
X14976891Y-7069688D01*
X14976891Y-7323688D02*
X14976891Y-7245906D01*
X14899109Y-7245906D01*
X14899109Y-7323688D01*
X14976891Y-7323688D01*
X14976891Y-7577688D02*
X14976891Y-7499906D01*
X14899109Y-7499906D01*
X14899109Y-7577688D01*
X14976891Y-7577688D01*
X14976891Y-7831688D02*
X14976891Y-7753906D01*
X14899109Y-7753906D01*
X14899109Y-7831688D01*
X14976891Y-7831688D01*
X14976891Y-8085688D02*
X14976891Y-8007906D01*
X14899109Y-8007906D01*
X14899109Y-8085688D01*
X14976891Y-8085688D01*
X14976891Y-8339688D02*
X14976891Y-8261906D01*
X14899109Y-8261906D01*
X14899109Y-8339688D01*
X14976891Y-8339688D01*
X14976891Y-8593688D02*
X14976891Y-8515906D01*
X14899109Y-8515906D01*
X14899109Y-8593688D01*
X14976891Y-8593688D01*
X14976891Y-8847688D02*
X14976891Y-8769906D01*
X14899109Y-8769906D01*
X14899109Y-8847688D01*
X14976891Y-8847688D01*
X14976891Y-9101688D02*
X14976891Y-9023906D01*
X14899109Y-9023906D01*
X14899109Y-9101688D01*
X14976891Y-9101688D01*
X14976891Y-9355688D02*
X14976891Y-9277906D01*
X14899109Y-9277906D01*
X14899109Y-9355688D01*
X14976891Y-9355688D01*
X14976891Y-9609688D02*
X14976891Y-9531906D01*
X14899109Y-9531906D01*
X14899109Y-9609688D01*
X14976891Y-9609688D01*
X15230891Y-8339688D02*
X15230891Y-8261906D01*
X15153109Y-8261906D01*
X15153109Y-8339688D01*
X15230891Y-8339688D01*
X16246891Y-4021688D02*
X16246891Y-3943906D01*
X16169109Y-3943906D01*
X16169109Y-4021688D01*
X16246891Y-4021688D01*
X16500891Y-3767688D02*
X16500891Y-3689906D01*
X16423109Y-3689906D01*
X16423109Y-3767688D01*
X16500891Y-3767688D01*
X16500891Y-4021688D02*
X16500891Y-3943906D01*
X16423109Y-3943906D01*
X16423109Y-4021688D01*
X16500891Y-4021688D01*
X16500891Y-4275688D02*
X16500891Y-4197906D01*
X16423109Y-4197906D01*
X16423109Y-4275688D01*
X16500891Y-4275688D01*
X16500891Y-4529688D02*
X16500891Y-4451906D01*
X16423109Y-4451906D01*
X16423109Y-4529688D01*
X16500891Y-4529688D01*
X16500891Y-4783688D02*
X16500891Y-4705906D01*
X16423109Y-4705906D01*
X16423109Y-4783688D01*
X16500891Y-4783688D01*
X16500891Y-5037688D02*
X16500891Y-4959906D01*
X16423109Y-4959906D01*
X16423109Y-5037688D01*
X16500891Y-5037688D01*
X16500891Y-5291688D02*
X16500891Y-5213906D01*
X16423109Y-5213906D01*
X16423109Y-5291688D01*
X16500891Y-5291688D01*
X16500891Y-5545688D02*
X16500891Y-5467906D01*
X16423109Y-5467906D01*
X16423109Y-5545688D01*
X16500891Y-5545688D01*
X16500891Y-5799688D02*
X16500891Y-5721906D01*
X16423109Y-5721906D01*
X16423109Y-5799688D01*
X16500891Y-5799688D01*
X16500891Y-6053688D02*
X16500891Y-5975906D01*
X16423109Y-5975906D01*
X16423109Y-6053688D01*
X16500891Y-6053688D01*
X16500891Y-6307688D02*
X16500891Y-6229906D01*
X16423109Y-6229906D01*
X16423109Y-6307688D01*
X16500891Y-6307688D01*
X16500891Y-6561688D02*
X16500891Y-6483906D01*
X16423109Y-6483906D01*
X16423109Y-6561688D01*
X16500891Y-6561688D01*
X16500891Y-6815688D02*
X16500891Y-6737906D01*
X16423109Y-6737906D01*
X16423109Y-6815688D01*
X16500891Y-6815688D01*
X16500891Y-7069688D02*
X16500891Y-6991906D01*
X16423109Y-6991906D01*
X16423109Y-7069688D01*
X16500891Y-7069688D01*
X16500891Y-7323688D02*
X16500891Y-7245906D01*
X16423109Y-7245906D01*
X16423109Y-7323688D01*
X16500891Y-7323688D01*
X16500891Y-7577688D02*
X16500891Y-7499906D01*
X16423109Y-7499906D01*
X16423109Y-7577688D01*
X16500891Y-7577688D01*
X16500891Y-7831688D02*
X16500891Y-7753906D01*
X16423109Y-7753906D01*
X16423109Y-7831688D01*
X16500891Y-7831688D01*
X16500891Y-8085688D02*
X16500891Y-8007906D01*
X16423109Y-8007906D01*
X16423109Y-8085688D01*
X16500891Y-8085688D01*
X16500891Y-8339688D02*
X16500891Y-8261906D01*
X16423109Y-8261906D01*
X16423109Y-8339688D01*
X16500891Y-8339688D01*
X16500891Y-8593688D02*
X16500891Y-8515906D01*
X16423109Y-8515906D01*
X16423109Y-8593688D01*
X16500891Y-8593688D01*
X16500891Y-8847688D02*
X16500891Y-8769906D01*
X16423109Y-8769906D01*
X16423109Y-8847688D01*
X16500891Y-8847688D01*
X16500891Y-9101688D02*
X16500891Y-9023906D01*
X16423109Y-9023906D01*
X16423109Y-9101688D01*
X16500891Y-9101688D01*
X16500891Y-9355688D02*
X16500891Y-9277906D01*
X16423109Y-9277906D01*
X16423109Y-9355688D01*
X16500891Y-9355688D01*
X16500891Y-9609688D02*
X16500891Y-9531906D01*
X16423109Y-9531906D01*
X16423109Y-9609688D01*
X16500891Y-9609688D01*
D16*
X16532693Y-10566000D02*
X16596193Y-10502500D01*
X16532693Y-10439000D01*
X16469193Y-10502500D01*
X16532693Y-10566000D01*
D11*
X16730693Y-10449000D02*
X16334693Y-10449000D01*
X16730693Y-10556000D02*
X16334693Y-10556000D01*
X16334693Y-10449000D02*
G75*
G03*
X16334693Y-10556000I0J-53500D01*
G01*
X16730693Y-10556000D02*
G75*
G03*
X16730693Y-10449000I0J53500D01*
G01*
D16*
X17322693Y-10566000D02*
X17386193Y-10502500D01*
X17322693Y-10439000D01*
X17259193Y-10502500D01*
X17322693Y-10566000D01*
D11*
X17520693Y-10449000D02*
X17124693Y-10449000D01*
X17520693Y-10556000D02*
X17124693Y-10556000D01*
X17124693Y-10449000D02*
G75*
G03*
X17124693Y-10556000I0J-53500D01*
G01*
X17520693Y-10556000D02*
G75*
G03*
X17520693Y-10449000I0J53500D01*
G01*
X2552619Y-12615476D02*
X2552619Y-12415476D01*
X2600238Y-12415476D01*
X2628810Y-12425000D01*
X2647857Y-12444048D01*
X2657381Y-12463095D01*
X2666905Y-12501190D01*
X2666905Y-12529762D01*
X2657381Y-12567857D01*
X2647857Y-12586905D01*
X2628810Y-12605952D01*
X2600238Y-12615476D01*
X2552619Y-12615476D01*
X2752619Y-12615476D02*
X2752619Y-12482143D01*
X2752619Y-12520238D02*
X2762143Y-12501190D01*
X2771667Y-12491667D01*
X2790714Y-12482143D01*
X2809762Y-12482143D01*
X2876428Y-12615476D02*
X2876428Y-12482143D01*
X2876428Y-12415476D02*
X2866905Y-12425000D01*
X2876428Y-12434524D01*
X2885952Y-12425000D01*
X2876428Y-12415476D01*
X2876428Y-12434524D01*
X3000238Y-12615476D02*
X2981190Y-12605952D01*
X2971667Y-12586905D01*
X2971667Y-12415476D01*
X3105000Y-12615476D02*
X3085952Y-12605952D01*
X3076428Y-12586905D01*
X3076428Y-12415476D01*
X3333571Y-12615476D02*
X3333571Y-12415476D01*
X3400238Y-12558333D01*
X3466905Y-12415476D01*
X3466905Y-12615476D01*
X3647857Y-12615476D02*
X3647857Y-12510714D01*
X3638333Y-12491667D01*
X3619286Y-12482143D01*
X3581190Y-12482143D01*
X3562143Y-12491667D01*
X3647857Y-12605952D02*
X3628809Y-12615476D01*
X3581190Y-12615476D01*
X3562143Y-12605952D01*
X3552619Y-12586905D01*
X3552619Y-12567857D01*
X3562143Y-12548809D01*
X3581190Y-12539286D01*
X3628809Y-12539286D01*
X3647857Y-12529762D01*
X3743095Y-12482143D02*
X3743095Y-12682143D01*
X3743095Y-12491667D02*
X3762143Y-12482143D01*
X3800238Y-12482143D01*
X3819286Y-12491667D01*
X3828809Y-12501190D01*
X3838333Y-12520238D01*
X3838333Y-12577381D01*
X3828809Y-12596428D01*
X3819286Y-12605952D01*
X3800238Y-12615476D01*
X3762143Y-12615476D01*
X3743095Y-12605952D01*
X3924048Y-12596428D02*
X3933571Y-12605952D01*
X3924048Y-12615476D01*
X3914524Y-12605952D01*
X3924048Y-12596428D01*
X3924048Y-12615476D01*
X3924048Y-12491667D02*
X3933571Y-12501190D01*
X3924048Y-12510714D01*
X3914524Y-12501190D01*
X3924048Y-12491667D01*
X3924048Y-12510714D01*
D12*
X2255000Y-12925000D02*
X2295000Y-12965000D01*
X2295000Y-12925000D02*
X2255000Y-12965000D01*
D11*
X2590714Y-12835476D02*
X2609762Y-12835476D01*
X2628810Y-12845000D01*
X2638333Y-12854524D01*
X2647857Y-12873571D01*
X2657381Y-12911667D01*
X2657381Y-12959286D01*
X2647857Y-12997381D01*
X2638333Y-13016428D01*
X2628810Y-13025952D01*
X2609762Y-13035476D01*
X2590714Y-13035476D01*
X2571667Y-13025952D01*
X2562143Y-13016428D01*
X2552619Y-12997381D01*
X2543095Y-12959286D01*
X2543095Y-12911667D01*
X2552619Y-12873571D01*
X2562143Y-12854524D01*
X2571667Y-12845000D01*
X2590714Y-12835476D01*
X2743095Y-13016428D02*
X2752619Y-13025952D01*
X2743095Y-13035476D01*
X2733571Y-13025952D01*
X2743095Y-13016428D01*
X2743095Y-13035476D01*
X2924048Y-12902143D02*
X2924048Y-13035476D01*
X2876428Y-12825952D02*
X2828809Y-12968809D01*
X2952619Y-12968809D01*
X3066905Y-12835476D02*
X3085952Y-12835476D01*
X3105000Y-12845000D01*
X3114524Y-12854524D01*
X3124048Y-12873571D01*
X3133571Y-12911667D01*
X3133571Y-12959286D01*
X3124048Y-12997381D01*
X3114524Y-13016428D01*
X3105000Y-13025952D01*
X3085952Y-13035476D01*
X3066905Y-13035476D01*
X3047857Y-13025952D01*
X3038333Y-13016428D01*
X3028809Y-12997381D01*
X3019286Y-12959286D01*
X3019286Y-12911667D01*
X3028809Y-12873571D01*
X3038333Y-12854524D01*
X3047857Y-12845000D01*
X3066905Y-12835476D01*
X3257381Y-12835476D02*
X3276428Y-12835476D01*
X3295476Y-12845000D01*
X3305000Y-12854524D01*
X3314524Y-12873571D01*
X3324048Y-12911667D01*
X3324048Y-12959286D01*
X3314524Y-12997381D01*
X3305000Y-13016428D01*
X3295476Y-13025952D01*
X3276428Y-13035476D01*
X3257381Y-13035476D01*
X3238333Y-13025952D01*
X3228809Y-13016428D01*
X3219286Y-12997381D01*
X3209762Y-12959286D01*
X3209762Y-12911667D01*
X3219286Y-12873571D01*
X3228809Y-12854524D01*
X3238333Y-12845000D01*
X3257381Y-12835476D01*
X3409762Y-13035476D02*
X3409762Y-12902143D01*
X3409762Y-12921190D02*
X3419286Y-12911667D01*
X3438333Y-12902143D01*
X3466905Y-12902143D01*
X3485952Y-12911667D01*
X3495476Y-12930714D01*
X3495476Y-13035476D01*
X3495476Y-12930714D02*
X3505000Y-12911667D01*
X3524048Y-12902143D01*
X3552619Y-12902143D01*
X3571667Y-12911667D01*
X3581190Y-12930714D01*
X3581190Y-13035476D01*
X3676428Y-13035476D02*
X3676428Y-12902143D01*
X3676428Y-12921190D02*
X3685952Y-12911667D01*
X3705000Y-12902143D01*
X3733571Y-12902143D01*
X3752619Y-12911667D01*
X3762143Y-12930714D01*
X3762143Y-13035476D01*
X3762143Y-12930714D02*
X3771667Y-12911667D01*
X3790714Y-12902143D01*
X3819286Y-12902143D01*
X3838333Y-12911667D01*
X3847857Y-12930714D01*
X3847857Y-13035476D01*
X4238333Y-12825952D02*
X4066905Y-13083095D01*
X4495476Y-12835476D02*
X4514524Y-12835476D01*
X4533571Y-12845000D01*
X4543095Y-12854524D01*
X4552619Y-12873571D01*
X4562143Y-12911667D01*
X4562143Y-12959286D01*
X4552619Y-12997381D01*
X4543095Y-13016428D01*
X4533571Y-13025952D01*
X4514524Y-13035476D01*
X4495476Y-13035476D01*
X4476429Y-13025952D01*
X4466905Y-13016428D01*
X4457381Y-12997381D01*
X4447857Y-12959286D01*
X4447857Y-12911667D01*
X4457381Y-12873571D01*
X4466905Y-12854524D01*
X4476429Y-12845000D01*
X4495476Y-12835476D01*
X4647857Y-13016428D02*
X4657381Y-13025952D01*
X4647857Y-13035476D01*
X4638333Y-13025952D01*
X4647857Y-13016428D01*
X4647857Y-13035476D01*
X4781190Y-12835476D02*
X4800238Y-12835476D01*
X4819286Y-12845000D01*
X4828810Y-12854524D01*
X4838333Y-12873571D01*
X4847857Y-12911667D01*
X4847857Y-12959286D01*
X4838333Y-12997381D01*
X4828810Y-13016428D01*
X4819286Y-13025952D01*
X4800238Y-13035476D01*
X4781190Y-13035476D01*
X4762143Y-13025952D01*
X4752619Y-13016428D01*
X4743095Y-12997381D01*
X4733571Y-12959286D01*
X4733571Y-12911667D01*
X4743095Y-12873571D01*
X4752619Y-12854524D01*
X4762143Y-12845000D01*
X4781190Y-12835476D01*
X5038333Y-13035476D02*
X4924048Y-13035476D01*
X4981190Y-13035476D02*
X4981190Y-12835476D01*
X4962143Y-12864048D01*
X4943095Y-12883095D01*
X4924048Y-12892619D01*
X5219286Y-12835476D02*
X5124048Y-12835476D01*
X5114524Y-12930714D01*
X5124048Y-12921190D01*
X5143095Y-12911667D01*
X5190714Y-12911667D01*
X5209762Y-12921190D01*
X5219286Y-12930714D01*
X5228810Y-12949762D01*
X5228810Y-12997381D01*
X5219286Y-13016428D01*
X5209762Y-13025952D01*
X5190714Y-13035476D01*
X5143095Y-13035476D01*
X5124048Y-13025952D01*
X5114524Y-13016428D01*
X5295476Y-12835476D02*
X5428810Y-12835476D01*
X5343095Y-13035476D01*
X5495476Y-12835476D02*
X5495476Y-12873571D01*
X5571667Y-12835476D02*
X5571667Y-12873571D01*
X5866905Y-13111667D02*
X5857381Y-13102143D01*
X5838333Y-13073571D01*
X5828809Y-13054524D01*
X5819286Y-13025952D01*
X5809762Y-12978333D01*
X5809762Y-12940238D01*
X5819286Y-12892619D01*
X5828809Y-12864048D01*
X5838333Y-12845000D01*
X5857381Y-12816428D01*
X5866905Y-12806905D01*
X5933571Y-12854524D02*
X5943095Y-12845000D01*
X5962143Y-12835476D01*
X6009762Y-12835476D01*
X6028809Y-12845000D01*
X6038333Y-12854524D01*
X6047857Y-12873571D01*
X6047857Y-12892619D01*
X6038333Y-12921190D01*
X5924048Y-13035476D01*
X6047857Y-13035476D01*
X6124048Y-12854524D02*
X6133571Y-12845000D01*
X6152619Y-12835476D01*
X6200238Y-12835476D01*
X6219286Y-12845000D01*
X6228809Y-12854524D01*
X6238333Y-12873571D01*
X6238333Y-12892619D01*
X6228809Y-12921190D01*
X6114524Y-13035476D01*
X6238333Y-13035476D01*
X6362143Y-12835476D02*
X6381190Y-12835476D01*
X6400238Y-12845000D01*
X6409762Y-12854524D01*
X6419286Y-12873571D01*
X6428809Y-12911667D01*
X6428809Y-12959286D01*
X6419286Y-12997381D01*
X6409762Y-13016428D01*
X6400238Y-13025952D01*
X6381190Y-13035476D01*
X6362143Y-13035476D01*
X6343095Y-13025952D01*
X6333571Y-13016428D01*
X6324048Y-12997381D01*
X6314524Y-12959286D01*
X6314524Y-12911667D01*
X6324048Y-12873571D01*
X6333571Y-12854524D01*
X6343095Y-12845000D01*
X6362143Y-12835476D01*
X6666905Y-13035476D02*
X6666905Y-12835476D01*
X6752619Y-13035476D02*
X6752619Y-12930714D01*
X6743095Y-12911667D01*
X6724048Y-12902143D01*
X6695476Y-12902143D01*
X6676428Y-12911667D01*
X6666905Y-12921190D01*
X6876428Y-13035476D02*
X6857381Y-13025952D01*
X6847857Y-13016428D01*
X6838333Y-12997381D01*
X6838333Y-12940238D01*
X6847857Y-12921190D01*
X6857381Y-12911667D01*
X6876428Y-12902143D01*
X6905000Y-12902143D01*
X6924048Y-12911667D01*
X6933571Y-12921190D01*
X6943095Y-12940238D01*
X6943095Y-12997381D01*
X6933571Y-13016428D01*
X6924048Y-13025952D01*
X6905000Y-13035476D01*
X6876428Y-13035476D01*
X7057381Y-13035476D02*
X7038333Y-13025952D01*
X7028809Y-13006905D01*
X7028809Y-12835476D01*
X7209762Y-13025952D02*
X7190714Y-13035476D01*
X7152619Y-13035476D01*
X7133571Y-13025952D01*
X7124048Y-13006905D01*
X7124048Y-12930714D01*
X7133571Y-12911667D01*
X7152619Y-12902143D01*
X7190714Y-12902143D01*
X7209762Y-12911667D01*
X7219286Y-12930714D01*
X7219286Y-12949762D01*
X7124048Y-12968809D01*
X7295476Y-13025952D02*
X7314524Y-13035476D01*
X7352619Y-13035476D01*
X7371667Y-13025952D01*
X7381190Y-13006905D01*
X7381190Y-12997381D01*
X7371667Y-12978333D01*
X7352619Y-12968809D01*
X7324048Y-12968809D01*
X7305000Y-12959286D01*
X7295476Y-12940238D01*
X7295476Y-12930714D01*
X7305000Y-12911667D01*
X7324048Y-12902143D01*
X7352619Y-12902143D01*
X7371667Y-12911667D01*
X7447857Y-13111667D02*
X7457381Y-13102143D01*
X7476428Y-13073571D01*
X7485952Y-13054524D01*
X7495476Y-13025952D01*
X7505000Y-12978333D01*
X7505000Y-12940238D01*
X7495476Y-12892619D01*
X7485952Y-12864048D01*
X7476428Y-12845000D01*
X7457381Y-12816428D01*
X7447857Y-12806905D01*
D13*
X2295000Y-13209000D02*
G75*
G03*
X2295000Y-13209000I-38000J0D01*
G01*
D11*
X2590714Y-13099476D02*
X2609762Y-13099476D01*
X2628810Y-13109000D01*
X2638333Y-13118524D01*
X2647857Y-13137571D01*
X2657381Y-13175667D01*
X2657381Y-13223286D01*
X2647857Y-13261381D01*
X2638333Y-13280428D01*
X2628810Y-13289952D01*
X2609762Y-13299476D01*
X2590714Y-13299476D01*
X2571667Y-13289952D01*
X2562143Y-13280428D01*
X2552619Y-13261381D01*
X2543095Y-13223286D01*
X2543095Y-13175667D01*
X2552619Y-13137571D01*
X2562143Y-13118524D01*
X2571667Y-13109000D01*
X2590714Y-13099476D01*
X2743095Y-13280428D02*
X2752619Y-13289952D01*
X2743095Y-13299476D01*
X2733571Y-13289952D01*
X2743095Y-13280428D01*
X2743095Y-13299476D01*
X2819286Y-13099476D02*
X2952619Y-13099476D01*
X2866905Y-13299476D01*
X3114524Y-13099476D02*
X3076428Y-13099476D01*
X3057381Y-13109000D01*
X3047857Y-13118524D01*
X3028809Y-13147095D01*
X3019286Y-13185190D01*
X3019286Y-13261381D01*
X3028809Y-13280428D01*
X3038333Y-13289952D01*
X3057381Y-13299476D01*
X3095476Y-13299476D01*
X3114524Y-13289952D01*
X3124048Y-13280428D01*
X3133571Y-13261381D01*
X3133571Y-13213762D01*
X3124048Y-13194714D01*
X3114524Y-13185190D01*
X3095476Y-13175667D01*
X3057381Y-13175667D01*
X3038333Y-13185190D01*
X3028809Y-13194714D01*
X3019286Y-13213762D01*
X3257381Y-13099476D02*
X3276428Y-13099476D01*
X3295476Y-13109000D01*
X3305000Y-13118524D01*
X3314524Y-13137571D01*
X3324048Y-13175667D01*
X3324048Y-13223286D01*
X3314524Y-13261381D01*
X3305000Y-13280428D01*
X3295476Y-13289952D01*
X3276428Y-13299476D01*
X3257381Y-13299476D01*
X3238333Y-13289952D01*
X3228809Y-13280428D01*
X3219286Y-13261381D01*
X3209762Y-13223286D01*
X3209762Y-13175667D01*
X3219286Y-13137571D01*
X3228809Y-13118524D01*
X3238333Y-13109000D01*
X3257381Y-13099476D01*
X3409762Y-13299476D02*
X3409762Y-13166143D01*
X3409762Y-13185190D02*
X3419286Y-13175667D01*
X3438333Y-13166143D01*
X3466905Y-13166143D01*
X3485952Y-13175667D01*
X3495476Y-13194714D01*
X3495476Y-13299476D01*
X3495476Y-13194714D02*
X3505000Y-13175667D01*
X3524048Y-13166143D01*
X3552619Y-13166143D01*
X3571667Y-13175667D01*
X3581190Y-13194714D01*
X3581190Y-13299476D01*
X3676428Y-13299476D02*
X3676428Y-13166143D01*
X3676428Y-13185190D02*
X3685952Y-13175667D01*
X3705000Y-13166143D01*
X3733571Y-13166143D01*
X3752619Y-13175667D01*
X3762143Y-13194714D01*
X3762143Y-13299476D01*
X3762143Y-13194714D02*
X3771667Y-13175667D01*
X3790714Y-13166143D01*
X3819286Y-13166143D01*
X3838333Y-13175667D01*
X3847857Y-13194714D01*
X3847857Y-13299476D01*
X4238333Y-13089952D02*
X4066905Y-13347095D01*
X4495476Y-13099476D02*
X4514524Y-13099476D01*
X4533571Y-13109000D01*
X4543095Y-13118524D01*
X4552619Y-13137571D01*
X4562143Y-13175667D01*
X4562143Y-13223286D01*
X4552619Y-13261381D01*
X4543095Y-13280428D01*
X4533571Y-13289952D01*
X4514524Y-13299476D01*
X4495476Y-13299476D01*
X4476429Y-13289952D01*
X4466905Y-13280428D01*
X4457381Y-13261381D01*
X4447857Y-13223286D01*
X4447857Y-13175667D01*
X4457381Y-13137571D01*
X4466905Y-13118524D01*
X4476429Y-13109000D01*
X4495476Y-13099476D01*
X4647857Y-13280428D02*
X4657381Y-13289952D01*
X4647857Y-13299476D01*
X4638333Y-13289952D01*
X4647857Y-13280428D01*
X4647857Y-13299476D01*
X4781190Y-13099476D02*
X4800238Y-13099476D01*
X4819286Y-13109000D01*
X4828810Y-13118524D01*
X4838333Y-13137571D01*
X4847857Y-13175667D01*
X4847857Y-13223286D01*
X4838333Y-13261381D01*
X4828810Y-13280428D01*
X4819286Y-13289952D01*
X4800238Y-13299476D01*
X4781190Y-13299476D01*
X4762143Y-13289952D01*
X4752619Y-13280428D01*
X4743095Y-13261381D01*
X4733571Y-13223286D01*
X4733571Y-13175667D01*
X4743095Y-13137571D01*
X4752619Y-13118524D01*
X4762143Y-13109000D01*
X4781190Y-13099476D01*
X4924048Y-13118524D02*
X4933571Y-13109000D01*
X4952619Y-13099476D01*
X5000238Y-13099476D01*
X5019286Y-13109000D01*
X5028810Y-13118524D01*
X5038333Y-13137571D01*
X5038333Y-13156619D01*
X5028810Y-13185190D01*
X4914524Y-13299476D01*
X5038333Y-13299476D01*
X5133571Y-13299476D02*
X5171667Y-13299476D01*
X5190714Y-13289952D01*
X5200238Y-13280428D01*
X5219286Y-13251857D01*
X5228810Y-13213762D01*
X5228810Y-13137571D01*
X5219286Y-13118524D01*
X5209762Y-13109000D01*
X5190714Y-13099476D01*
X5152619Y-13099476D01*
X5133571Y-13109000D01*
X5124048Y-13118524D01*
X5114524Y-13137571D01*
X5114524Y-13185190D01*
X5124048Y-13204238D01*
X5133571Y-13213762D01*
X5152619Y-13223286D01*
X5190714Y-13223286D01*
X5209762Y-13213762D01*
X5219286Y-13204238D01*
X5228810Y-13185190D01*
X5324048Y-13299476D02*
X5362143Y-13299476D01*
X5381190Y-13289952D01*
X5390714Y-13280428D01*
X5409762Y-13251857D01*
X5419286Y-13213762D01*
X5419286Y-13137571D01*
X5409762Y-13118524D01*
X5400238Y-13109000D01*
X5381190Y-13099476D01*
X5343095Y-13099476D01*
X5324048Y-13109000D01*
X5314524Y-13118524D01*
X5305000Y-13137571D01*
X5305000Y-13185190D01*
X5314524Y-13204238D01*
X5324048Y-13213762D01*
X5343095Y-13223286D01*
X5381190Y-13223286D01*
X5400238Y-13213762D01*
X5409762Y-13204238D01*
X5419286Y-13185190D01*
X5495476Y-13099476D02*
X5495476Y-13137571D01*
X5571667Y-13099476D02*
X5571667Y-13137571D01*
X5866905Y-13375667D02*
X5857381Y-13366143D01*
X5838333Y-13337571D01*
X5828809Y-13318524D01*
X5819286Y-13289952D01*
X5809762Y-13242333D01*
X5809762Y-13204238D01*
X5819286Y-13156619D01*
X5828809Y-13128048D01*
X5838333Y-13109000D01*
X5857381Y-13080428D01*
X5866905Y-13070905D01*
X5971667Y-13185190D02*
X5952619Y-13175667D01*
X5943095Y-13166143D01*
X5933571Y-13147095D01*
X5933571Y-13137571D01*
X5943095Y-13118524D01*
X5952619Y-13109000D01*
X5971667Y-13099476D01*
X6009762Y-13099476D01*
X6028809Y-13109000D01*
X6038333Y-13118524D01*
X6047857Y-13137571D01*
X6047857Y-13147095D01*
X6038333Y-13166143D01*
X6028809Y-13175667D01*
X6009762Y-13185190D01*
X5971667Y-13185190D01*
X5952619Y-13194714D01*
X5943095Y-13204238D01*
X5933571Y-13223286D01*
X5933571Y-13261381D01*
X5943095Y-13280428D01*
X5952619Y-13289952D01*
X5971667Y-13299476D01*
X6009762Y-13299476D01*
X6028809Y-13289952D01*
X6038333Y-13280428D01*
X6047857Y-13261381D01*
X6047857Y-13223286D01*
X6038333Y-13204238D01*
X6028809Y-13194714D01*
X6009762Y-13185190D01*
X6285952Y-13299476D02*
X6285952Y-13099476D01*
X6371667Y-13299476D02*
X6371667Y-13194714D01*
X6362143Y-13175667D01*
X6343095Y-13166143D01*
X6314524Y-13166143D01*
X6295476Y-13175667D01*
X6285952Y-13185190D01*
X6495476Y-13299476D02*
X6476428Y-13289952D01*
X6466905Y-13280428D01*
X6457381Y-13261381D01*
X6457381Y-13204238D01*
X6466905Y-13185190D01*
X6476428Y-13175667D01*
X6495476Y-13166143D01*
X6524048Y-13166143D01*
X6543095Y-13175667D01*
X6552619Y-13185190D01*
X6562143Y-13204238D01*
X6562143Y-13261381D01*
X6552619Y-13280428D01*
X6543095Y-13289952D01*
X6524048Y-13299476D01*
X6495476Y-13299476D01*
X6676428Y-13299476D02*
X6657381Y-13289952D01*
X6647857Y-13270905D01*
X6647857Y-13099476D01*
X6828809Y-13289952D02*
X6809762Y-13299476D01*
X6771667Y-13299476D01*
X6752619Y-13289952D01*
X6743095Y-13270905D01*
X6743095Y-13194714D01*
X6752619Y-13175667D01*
X6771667Y-13166143D01*
X6809762Y-13166143D01*
X6828809Y-13175667D01*
X6838333Y-13194714D01*
X6838333Y-13213762D01*
X6743095Y-13232809D01*
X6914524Y-13289952D02*
X6933571Y-13299476D01*
X6971667Y-13299476D01*
X6990714Y-13289952D01*
X7000238Y-13270905D01*
X7000238Y-13261381D01*
X6990714Y-13242333D01*
X6971667Y-13232809D01*
X6943095Y-13232809D01*
X6924048Y-13223286D01*
X6914524Y-13204238D01*
X6914524Y-13194714D01*
X6924048Y-13175667D01*
X6943095Y-13166143D01*
X6971667Y-13166143D01*
X6990714Y-13175667D01*
X7066905Y-13375667D02*
X7076428Y-13366143D01*
X7095476Y-13337571D01*
X7105000Y-13318524D01*
X7114524Y-13289952D01*
X7124048Y-13242333D01*
X7124048Y-13204238D01*
X7114524Y-13156619D01*
X7105000Y-13128048D01*
X7095476Y-13109000D01*
X7076428Y-13080428D01*
X7066905Y-13070905D01*
D14*
X2245000Y-13423000D02*
X2245000Y-13523000D01*
X2195000Y-13473000D02*
X2295000Y-13473000D01*
D11*
X2657381Y-13563476D02*
X2543095Y-13563476D01*
X2600238Y-13563476D02*
X2600238Y-13363476D01*
X2581190Y-13392048D01*
X2562143Y-13411095D01*
X2543095Y-13420619D01*
X2743095Y-13544428D02*
X2752619Y-13553952D01*
X2743095Y-13563476D01*
X2733571Y-13553952D01*
X2743095Y-13544428D01*
X2743095Y-13563476D01*
X2876428Y-13363476D02*
X2895476Y-13363476D01*
X2914524Y-13373000D01*
X2924048Y-13382524D01*
X2933571Y-13401571D01*
X2943095Y-13439667D01*
X2943095Y-13487286D01*
X2933571Y-13525381D01*
X2924048Y-13544428D01*
X2914524Y-13553952D01*
X2895476Y-13563476D01*
X2876428Y-13563476D01*
X2857381Y-13553952D01*
X2847857Y-13544428D01*
X2838333Y-13525381D01*
X2828809Y-13487286D01*
X2828809Y-13439667D01*
X2838333Y-13401571D01*
X2847857Y-13382524D01*
X2857381Y-13373000D01*
X2876428Y-13363476D01*
X3066905Y-13363476D02*
X3085952Y-13363476D01*
X3105000Y-13373000D01*
X3114524Y-13382524D01*
X3124048Y-13401571D01*
X3133571Y-13439667D01*
X3133571Y-13487286D01*
X3124048Y-13525381D01*
X3114524Y-13544428D01*
X3105000Y-13553952D01*
X3085952Y-13563476D01*
X3066905Y-13563476D01*
X3047857Y-13553952D01*
X3038333Y-13544428D01*
X3028809Y-13525381D01*
X3019286Y-13487286D01*
X3019286Y-13439667D01*
X3028809Y-13401571D01*
X3038333Y-13382524D01*
X3047857Y-13373000D01*
X3066905Y-13363476D01*
X3257381Y-13363476D02*
X3276428Y-13363476D01*
X3295476Y-13373000D01*
X3305000Y-13382524D01*
X3314524Y-13401571D01*
X3324048Y-13439667D01*
X3324048Y-13487286D01*
X3314524Y-13525381D01*
X3305000Y-13544428D01*
X3295476Y-13553952D01*
X3276428Y-13563476D01*
X3257381Y-13563476D01*
X3238333Y-13553952D01*
X3228809Y-13544428D01*
X3219286Y-13525381D01*
X3209762Y-13487286D01*
X3209762Y-13439667D01*
X3219286Y-13401571D01*
X3228809Y-13382524D01*
X3238333Y-13373000D01*
X3257381Y-13363476D01*
X3409762Y-13563476D02*
X3409762Y-13430143D01*
X3409762Y-13449190D02*
X3419286Y-13439667D01*
X3438333Y-13430143D01*
X3466905Y-13430143D01*
X3485952Y-13439667D01*
X3495476Y-13458714D01*
X3495476Y-13563476D01*
X3495476Y-13458714D02*
X3505000Y-13439667D01*
X3524048Y-13430143D01*
X3552619Y-13430143D01*
X3571667Y-13439667D01*
X3581190Y-13458714D01*
X3581190Y-13563476D01*
X3676428Y-13563476D02*
X3676428Y-13430143D01*
X3676428Y-13449190D02*
X3685952Y-13439667D01*
X3705000Y-13430143D01*
X3733571Y-13430143D01*
X3752619Y-13439667D01*
X3762143Y-13458714D01*
X3762143Y-13563476D01*
X3762143Y-13458714D02*
X3771667Y-13439667D01*
X3790714Y-13430143D01*
X3819286Y-13430143D01*
X3838333Y-13439667D01*
X3847857Y-13458714D01*
X3847857Y-13563476D01*
X4238333Y-13353952D02*
X4066905Y-13611095D01*
X4495476Y-13363476D02*
X4514524Y-13363476D01*
X4533571Y-13373000D01*
X4543095Y-13382524D01*
X4552619Y-13401571D01*
X4562143Y-13439667D01*
X4562143Y-13487286D01*
X4552619Y-13525381D01*
X4543095Y-13544428D01*
X4533571Y-13553952D01*
X4514524Y-13563476D01*
X4495476Y-13563476D01*
X4476429Y-13553952D01*
X4466905Y-13544428D01*
X4457381Y-13525381D01*
X4447857Y-13487286D01*
X4447857Y-13439667D01*
X4457381Y-13401571D01*
X4466905Y-13382524D01*
X4476429Y-13373000D01*
X4495476Y-13363476D01*
X4647857Y-13544428D02*
X4657381Y-13553952D01*
X4647857Y-13563476D01*
X4638333Y-13553952D01*
X4647857Y-13544428D01*
X4647857Y-13563476D01*
X4781190Y-13363476D02*
X4800238Y-13363476D01*
X4819286Y-13373000D01*
X4828810Y-13382524D01*
X4838333Y-13401571D01*
X4847857Y-13439667D01*
X4847857Y-13487286D01*
X4838333Y-13525381D01*
X4828810Y-13544428D01*
X4819286Y-13553952D01*
X4800238Y-13563476D01*
X4781190Y-13563476D01*
X4762143Y-13553952D01*
X4752619Y-13544428D01*
X4743095Y-13525381D01*
X4733571Y-13487286D01*
X4733571Y-13439667D01*
X4743095Y-13401571D01*
X4752619Y-13382524D01*
X4762143Y-13373000D01*
X4781190Y-13363476D01*
X4914524Y-13363476D02*
X5038333Y-13363476D01*
X4971667Y-13439667D01*
X5000238Y-13439667D01*
X5019286Y-13449190D01*
X5028810Y-13458714D01*
X5038333Y-13477762D01*
X5038333Y-13525381D01*
X5028810Y-13544428D01*
X5019286Y-13553952D01*
X5000238Y-13563476D01*
X4943095Y-13563476D01*
X4924048Y-13553952D01*
X4914524Y-13544428D01*
X5133571Y-13563476D02*
X5171667Y-13563476D01*
X5190714Y-13553952D01*
X5200238Y-13544428D01*
X5219286Y-13515857D01*
X5228810Y-13477762D01*
X5228810Y-13401571D01*
X5219286Y-13382524D01*
X5209762Y-13373000D01*
X5190714Y-13363476D01*
X5152619Y-13363476D01*
X5133571Y-13373000D01*
X5124048Y-13382524D01*
X5114524Y-13401571D01*
X5114524Y-13449190D01*
X5124048Y-13468238D01*
X5133571Y-13477762D01*
X5152619Y-13487286D01*
X5190714Y-13487286D01*
X5209762Y-13477762D01*
X5219286Y-13468238D01*
X5228810Y-13449190D01*
X5400238Y-13430143D02*
X5400238Y-13563476D01*
X5352619Y-13353952D02*
X5305000Y-13496809D01*
X5428810Y-13496809D01*
X5495476Y-13363476D02*
X5495476Y-13401571D01*
X5571667Y-13363476D02*
X5571667Y-13401571D01*
X5866905Y-13639667D02*
X5857381Y-13630143D01*
X5838333Y-13601571D01*
X5828809Y-13582524D01*
X5819286Y-13553952D01*
X5809762Y-13506333D01*
X5809762Y-13468238D01*
X5819286Y-13420619D01*
X5828809Y-13392048D01*
X5838333Y-13373000D01*
X5857381Y-13344428D01*
X5866905Y-13334905D01*
X6047857Y-13563476D02*
X5933571Y-13563476D01*
X5990714Y-13563476D02*
X5990714Y-13363476D01*
X5971667Y-13392048D01*
X5952619Y-13411095D01*
X5933571Y-13420619D01*
X6171667Y-13363476D02*
X6190714Y-13363476D01*
X6209762Y-13373000D01*
X6219286Y-13382524D01*
X6228809Y-13401571D01*
X6238333Y-13439667D01*
X6238333Y-13487286D01*
X6228809Y-13525381D01*
X6219286Y-13544428D01*
X6209762Y-13553952D01*
X6190714Y-13563476D01*
X6171667Y-13563476D01*
X6152619Y-13553952D01*
X6143095Y-13544428D01*
X6133571Y-13525381D01*
X6124048Y-13487286D01*
X6124048Y-13439667D01*
X6133571Y-13401571D01*
X6143095Y-13382524D01*
X6152619Y-13373000D01*
X6171667Y-13363476D01*
X6409762Y-13430143D02*
X6409762Y-13563476D01*
X6362143Y-13353952D02*
X6314524Y-13496809D01*
X6438333Y-13496809D01*
X6666905Y-13563476D02*
X6666905Y-13363476D01*
X6752619Y-13563476D02*
X6752619Y-13458714D01*
X6743095Y-13439667D01*
X6724048Y-13430143D01*
X6695476Y-13430143D01*
X6676428Y-13439667D01*
X6666905Y-13449190D01*
X6876428Y-13563476D02*
X6857381Y-13553952D01*
X6847857Y-13544428D01*
X6838333Y-13525381D01*
X6838333Y-13468238D01*
X6847857Y-13449190D01*
X6857381Y-13439667D01*
X6876428Y-13430143D01*
X6905000Y-13430143D01*
X6924048Y-13439667D01*
X6933571Y-13449190D01*
X6943095Y-13468238D01*
X6943095Y-13525381D01*
X6933571Y-13544428D01*
X6924048Y-13553952D01*
X6905000Y-13563476D01*
X6876428Y-13563476D01*
X7057381Y-13563476D02*
X7038333Y-13553952D01*
X7028809Y-13534905D01*
X7028809Y-13363476D01*
X7209762Y-13553952D02*
X7190714Y-13563476D01*
X7152619Y-13563476D01*
X7133571Y-13553952D01*
X7124048Y-13534905D01*
X7124048Y-13458714D01*
X7133571Y-13439667D01*
X7152619Y-13430143D01*
X7190714Y-13430143D01*
X7209762Y-13439667D01*
X7219286Y-13458714D01*
X7219286Y-13477762D01*
X7124048Y-13496809D01*
X7295476Y-13553952D02*
X7314524Y-13563476D01*
X7352619Y-13563476D01*
X7371667Y-13553952D01*
X7381190Y-13534905D01*
X7381190Y-13525381D01*
X7371667Y-13506333D01*
X7352619Y-13496809D01*
X7324048Y-13496809D01*
X7305000Y-13487286D01*
X7295476Y-13468238D01*
X7295476Y-13458714D01*
X7305000Y-13439667D01*
X7324048Y-13430143D01*
X7352619Y-13430143D01*
X7371667Y-13439667D01*
X7447857Y-13639667D02*
X7457381Y-13630143D01*
X7476428Y-13601571D01*
X7485952Y-13582524D01*
X7495476Y-13553952D01*
X7505000Y-13506333D01*
X7505000Y-13468238D01*
X7495476Y-13420619D01*
X7485952Y-13392048D01*
X7476428Y-13373000D01*
X7457381Y-13344428D01*
X7447857Y-13334905D01*
D15*
X2278891Y-13775891D02*
X2278891Y-13698109D01*
X2201109Y-13698109D01*
X2201109Y-13775891D01*
X2278891Y-13775891D01*
D11*
X2657381Y-13827476D02*
X2543095Y-13827476D01*
X2600238Y-13827476D02*
X2600238Y-13627476D01*
X2581190Y-13656048D01*
X2562143Y-13675095D01*
X2543095Y-13684619D01*
X2743095Y-13808428D02*
X2752619Y-13817952D01*
X2743095Y-13827476D01*
X2733571Y-13817952D01*
X2743095Y-13808428D01*
X2743095Y-13827476D01*
X2943095Y-13827476D02*
X2828809Y-13827476D01*
X2885952Y-13827476D02*
X2885952Y-13627476D01*
X2866905Y-13656048D01*
X2847857Y-13675095D01*
X2828809Y-13684619D01*
X3066905Y-13627476D02*
X3085952Y-13627476D01*
X3105000Y-13637000D01*
X3114524Y-13646524D01*
X3124048Y-13665571D01*
X3133571Y-13703667D01*
X3133571Y-13751286D01*
X3124048Y-13789381D01*
X3114524Y-13808428D01*
X3105000Y-13817952D01*
X3085952Y-13827476D01*
X3066905Y-13827476D01*
X3047857Y-13817952D01*
X3038333Y-13808428D01*
X3028809Y-13789381D01*
X3019286Y-13751286D01*
X3019286Y-13703667D01*
X3028809Y-13665571D01*
X3038333Y-13646524D01*
X3047857Y-13637000D01*
X3066905Y-13627476D01*
X3257381Y-13627476D02*
X3276428Y-13627476D01*
X3295476Y-13637000D01*
X3305000Y-13646524D01*
X3314524Y-13665571D01*
X3324048Y-13703667D01*
X3324048Y-13751286D01*
X3314524Y-13789381D01*
X3305000Y-13808428D01*
X3295476Y-13817952D01*
X3276428Y-13827476D01*
X3257381Y-13827476D01*
X3238333Y-13817952D01*
X3228809Y-13808428D01*
X3219286Y-13789381D01*
X3209762Y-13751286D01*
X3209762Y-13703667D01*
X3219286Y-13665571D01*
X3228809Y-13646524D01*
X3238333Y-13637000D01*
X3257381Y-13627476D01*
X3409762Y-13827476D02*
X3409762Y-13694143D01*
X3409762Y-13713190D02*
X3419286Y-13703667D01*
X3438333Y-13694143D01*
X3466905Y-13694143D01*
X3485952Y-13703667D01*
X3495476Y-13722714D01*
X3495476Y-13827476D01*
X3495476Y-13722714D02*
X3505000Y-13703667D01*
X3524048Y-13694143D01*
X3552619Y-13694143D01*
X3571667Y-13703667D01*
X3581190Y-13722714D01*
X3581190Y-13827476D01*
X3676428Y-13827476D02*
X3676428Y-13694143D01*
X3676428Y-13713190D02*
X3685952Y-13703667D01*
X3705000Y-13694143D01*
X3733571Y-13694143D01*
X3752619Y-13703667D01*
X3762143Y-13722714D01*
X3762143Y-13827476D01*
X3762143Y-13722714D02*
X3771667Y-13703667D01*
X3790714Y-13694143D01*
X3819286Y-13694143D01*
X3838333Y-13703667D01*
X3847857Y-13722714D01*
X3847857Y-13827476D01*
X4238333Y-13617952D02*
X4066905Y-13875095D01*
X4495476Y-13627476D02*
X4514524Y-13627476D01*
X4533571Y-13637000D01*
X4543095Y-13646524D01*
X4552619Y-13665571D01*
X4562143Y-13703667D01*
X4562143Y-13751286D01*
X4552619Y-13789381D01*
X4543095Y-13808428D01*
X4533571Y-13817952D01*
X4514524Y-13827476D01*
X4495476Y-13827476D01*
X4476429Y-13817952D01*
X4466905Y-13808428D01*
X4457381Y-13789381D01*
X4447857Y-13751286D01*
X4447857Y-13703667D01*
X4457381Y-13665571D01*
X4466905Y-13646524D01*
X4476429Y-13637000D01*
X4495476Y-13627476D01*
X4647857Y-13808428D02*
X4657381Y-13817952D01*
X4647857Y-13827476D01*
X4638333Y-13817952D01*
X4647857Y-13808428D01*
X4647857Y-13827476D01*
X4781190Y-13627476D02*
X4800238Y-13627476D01*
X4819286Y-13637000D01*
X4828810Y-13646524D01*
X4838333Y-13665571D01*
X4847857Y-13703667D01*
X4847857Y-13751286D01*
X4838333Y-13789381D01*
X4828810Y-13808428D01*
X4819286Y-13817952D01*
X4800238Y-13827476D01*
X4781190Y-13827476D01*
X4762143Y-13817952D01*
X4752619Y-13808428D01*
X4743095Y-13789381D01*
X4733571Y-13751286D01*
X4733571Y-13703667D01*
X4743095Y-13665571D01*
X4752619Y-13646524D01*
X4762143Y-13637000D01*
X4781190Y-13627476D01*
X5019286Y-13694143D02*
X5019286Y-13827476D01*
X4971667Y-13617952D02*
X4924048Y-13760809D01*
X5047857Y-13760809D01*
X5105000Y-13627476D02*
X5228810Y-13627476D01*
X5162143Y-13703667D01*
X5190714Y-13703667D01*
X5209762Y-13713190D01*
X5219286Y-13722714D01*
X5228810Y-13741762D01*
X5228810Y-13789381D01*
X5219286Y-13808428D01*
X5209762Y-13817952D01*
X5190714Y-13827476D01*
X5133571Y-13827476D01*
X5114524Y-13817952D01*
X5105000Y-13808428D01*
X5295476Y-13627476D02*
X5419286Y-13627476D01*
X5352619Y-13703667D01*
X5381190Y-13703667D01*
X5400238Y-13713190D01*
X5409762Y-13722714D01*
X5419286Y-13741762D01*
X5419286Y-13789381D01*
X5409762Y-13808428D01*
X5400238Y-13817952D01*
X5381190Y-13827476D01*
X5324048Y-13827476D01*
X5305000Y-13817952D01*
X5295476Y-13808428D01*
X5495476Y-13627476D02*
X5495476Y-13665571D01*
X5571667Y-13627476D02*
X5571667Y-13665571D01*
X5866905Y-13903667D02*
X5857381Y-13894143D01*
X5838333Y-13865571D01*
X5828809Y-13846524D01*
X5819286Y-13817952D01*
X5809762Y-13770333D01*
X5809762Y-13732238D01*
X5819286Y-13684619D01*
X5828809Y-13656048D01*
X5838333Y-13637000D01*
X5857381Y-13608428D01*
X5866905Y-13598905D01*
X6038333Y-13627476D02*
X5943095Y-13627476D01*
X5933571Y-13722714D01*
X5943095Y-13713190D01*
X5962143Y-13703667D01*
X6009762Y-13703667D01*
X6028809Y-13713190D01*
X6038333Y-13722714D01*
X6047857Y-13741762D01*
X6047857Y-13789381D01*
X6038333Y-13808428D01*
X6028809Y-13817952D01*
X6009762Y-13827476D01*
X5962143Y-13827476D01*
X5943095Y-13817952D01*
X5933571Y-13808428D01*
X6171667Y-13627476D02*
X6190714Y-13627476D01*
X6209762Y-13637000D01*
X6219286Y-13646524D01*
X6228809Y-13665571D01*
X6238333Y-13703667D01*
X6238333Y-13751286D01*
X6228809Y-13789381D01*
X6219286Y-13808428D01*
X6209762Y-13817952D01*
X6190714Y-13827476D01*
X6171667Y-13827476D01*
X6152619Y-13817952D01*
X6143095Y-13808428D01*
X6133571Y-13789381D01*
X6124048Y-13751286D01*
X6124048Y-13703667D01*
X6133571Y-13665571D01*
X6143095Y-13646524D01*
X6152619Y-13637000D01*
X6171667Y-13627476D01*
X6476428Y-13827476D02*
X6476428Y-13627476D01*
X6562143Y-13827476D02*
X6562143Y-13722714D01*
X6552619Y-13703667D01*
X6533571Y-13694143D01*
X6505000Y-13694143D01*
X6485952Y-13703667D01*
X6476428Y-13713190D01*
X6685952Y-13827476D02*
X6666905Y-13817952D01*
X6657381Y-13808428D01*
X6647857Y-13789381D01*
X6647857Y-13732238D01*
X6657381Y-13713190D01*
X6666905Y-13703667D01*
X6685952Y-13694143D01*
X6714524Y-13694143D01*
X6733571Y-13703667D01*
X6743095Y-13713190D01*
X6752619Y-13732238D01*
X6752619Y-13789381D01*
X6743095Y-13808428D01*
X6733571Y-13817952D01*
X6714524Y-13827476D01*
X6685952Y-13827476D01*
X6866905Y-13827476D02*
X6847857Y-13817952D01*
X6838333Y-13798905D01*
X6838333Y-13627476D01*
X7019286Y-13817952D02*
X7000238Y-13827476D01*
X6962143Y-13827476D01*
X6943095Y-13817952D01*
X6933571Y-13798905D01*
X6933571Y-13722714D01*
X6943095Y-13703667D01*
X6962143Y-13694143D01*
X7000238Y-13694143D01*
X7019286Y-13703667D01*
X7028809Y-13722714D01*
X7028809Y-13741762D01*
X6933571Y-13760809D01*
X7105000Y-13817952D02*
X7124048Y-13827476D01*
X7162143Y-13827476D01*
X7181190Y-13817952D01*
X7190714Y-13798905D01*
X7190714Y-13789381D01*
X7181190Y-13770333D01*
X7162143Y-13760809D01*
X7133571Y-13760809D01*
X7114524Y-13751286D01*
X7105000Y-13732238D01*
X7105000Y-13722714D01*
X7114524Y-13703667D01*
X7133571Y-13694143D01*
X7162143Y-13694143D01*
X7181190Y-13703667D01*
X7257381Y-13903667D02*
X7266905Y-13894143D01*
X7285952Y-13865571D01*
X7295476Y-13846524D01*
X7305000Y-13817952D01*
X7314524Y-13770333D01*
X7314524Y-13732238D01*
X7305000Y-13684619D01*
X7295476Y-13656048D01*
X7285952Y-13637000D01*
X7266905Y-13608428D01*
X7257381Y-13598905D01*
D16*
X2231500Y-14064500D02*
X2295000Y-14001000D01*
X2231500Y-13937500D01*
X2168000Y-14001000D01*
X2231500Y-14064500D01*
D11*
X2657381Y-14091476D02*
X2543095Y-14091476D01*
X2600238Y-14091476D02*
X2600238Y-13891476D01*
X2581190Y-13920048D01*
X2562143Y-13939095D01*
X2543095Y-13948619D01*
X2743095Y-14072428D02*
X2752619Y-14081952D01*
X2743095Y-14091476D01*
X2733571Y-14081952D01*
X2743095Y-14072428D01*
X2743095Y-14091476D01*
X2828809Y-13910524D02*
X2838333Y-13901000D01*
X2857381Y-13891476D01*
X2905000Y-13891476D01*
X2924048Y-13901000D01*
X2933571Y-13910524D01*
X2943095Y-13929571D01*
X2943095Y-13948619D01*
X2933571Y-13977190D01*
X2819286Y-14091476D01*
X2943095Y-14091476D01*
X3009762Y-13891476D02*
X3143095Y-13891476D01*
X3057381Y-14091476D01*
X3257381Y-13891476D02*
X3276428Y-13891476D01*
X3295476Y-13901000D01*
X3305000Y-13910524D01*
X3314524Y-13929571D01*
X3324048Y-13967667D01*
X3324048Y-14015286D01*
X3314524Y-14053381D01*
X3305000Y-14072428D01*
X3295476Y-14081952D01*
X3276428Y-14091476D01*
X3257381Y-14091476D01*
X3238333Y-14081952D01*
X3228809Y-14072428D01*
X3219286Y-14053381D01*
X3209762Y-14015286D01*
X3209762Y-13967667D01*
X3219286Y-13929571D01*
X3228809Y-13910524D01*
X3238333Y-13901000D01*
X3257381Y-13891476D01*
X3409762Y-14091476D02*
X3409762Y-13958143D01*
X3409762Y-13977190D02*
X3419286Y-13967667D01*
X3438333Y-13958143D01*
X3466905Y-13958143D01*
X3485952Y-13967667D01*
X3495476Y-13986714D01*
X3495476Y-14091476D01*
X3495476Y-13986714D02*
X3505000Y-13967667D01*
X3524048Y-13958143D01*
X3552619Y-13958143D01*
X3571667Y-13967667D01*
X3581190Y-13986714D01*
X3581190Y-14091476D01*
X3676428Y-14091476D02*
X3676428Y-13958143D01*
X3676428Y-13977190D02*
X3685952Y-13967667D01*
X3705000Y-13958143D01*
X3733571Y-13958143D01*
X3752619Y-13967667D01*
X3762143Y-13986714D01*
X3762143Y-14091476D01*
X3762143Y-13986714D02*
X3771667Y-13967667D01*
X3790714Y-13958143D01*
X3819286Y-13958143D01*
X3838333Y-13967667D01*
X3847857Y-13986714D01*
X3847857Y-14091476D01*
X4238333Y-13881952D02*
X4066905Y-14139095D01*
X4495476Y-13891476D02*
X4514524Y-13891476D01*
X4533571Y-13901000D01*
X4543095Y-13910524D01*
X4552619Y-13929571D01*
X4562143Y-13967667D01*
X4562143Y-14015286D01*
X4552619Y-14053381D01*
X4543095Y-14072428D01*
X4533571Y-14081952D01*
X4514524Y-14091476D01*
X4495476Y-14091476D01*
X4476429Y-14081952D01*
X4466905Y-14072428D01*
X4457381Y-14053381D01*
X4447857Y-14015286D01*
X4447857Y-13967667D01*
X4457381Y-13929571D01*
X4466905Y-13910524D01*
X4476429Y-13901000D01*
X4495476Y-13891476D01*
X4647857Y-14072428D02*
X4657381Y-14081952D01*
X4647857Y-14091476D01*
X4638333Y-14081952D01*
X4647857Y-14072428D01*
X4647857Y-14091476D01*
X4781190Y-13891476D02*
X4800238Y-13891476D01*
X4819286Y-13901000D01*
X4828810Y-13910524D01*
X4838333Y-13929571D01*
X4847857Y-13967667D01*
X4847857Y-14015286D01*
X4838333Y-14053381D01*
X4828810Y-14072428D01*
X4819286Y-14081952D01*
X4800238Y-14091476D01*
X4781190Y-14091476D01*
X4762143Y-14081952D01*
X4752619Y-14072428D01*
X4743095Y-14053381D01*
X4733571Y-14015286D01*
X4733571Y-13967667D01*
X4743095Y-13929571D01*
X4752619Y-13910524D01*
X4762143Y-13901000D01*
X4781190Y-13891476D01*
X5028810Y-13891476D02*
X4933571Y-13891476D01*
X4924048Y-13986714D01*
X4933571Y-13977190D01*
X4952619Y-13967667D01*
X5000238Y-13967667D01*
X5019286Y-13977190D01*
X5028810Y-13986714D01*
X5038333Y-14005762D01*
X5038333Y-14053381D01*
X5028810Y-14072428D01*
X5019286Y-14081952D01*
X5000238Y-14091476D01*
X4952619Y-14091476D01*
X4933571Y-14081952D01*
X4924048Y-14072428D01*
X5162143Y-13891476D02*
X5181190Y-13891476D01*
X5200238Y-13901000D01*
X5209762Y-13910524D01*
X5219286Y-13929571D01*
X5228810Y-13967667D01*
X5228810Y-14015286D01*
X5219286Y-14053381D01*
X5209762Y-14072428D01*
X5200238Y-14081952D01*
X5181190Y-14091476D01*
X5162143Y-14091476D01*
X5143095Y-14081952D01*
X5133571Y-14072428D01*
X5124048Y-14053381D01*
X5114524Y-14015286D01*
X5114524Y-13967667D01*
X5124048Y-13929571D01*
X5133571Y-13910524D01*
X5143095Y-13901000D01*
X5162143Y-13891476D01*
X5352619Y-13891476D02*
X5371667Y-13891476D01*
X5390714Y-13901000D01*
X5400238Y-13910524D01*
X5409762Y-13929571D01*
X5419286Y-13967667D01*
X5419286Y-14015286D01*
X5409762Y-14053381D01*
X5400238Y-14072428D01*
X5390714Y-14081952D01*
X5371667Y-14091476D01*
X5352619Y-14091476D01*
X5333571Y-14081952D01*
X5324048Y-14072428D01*
X5314524Y-14053381D01*
X5305000Y-14015286D01*
X5305000Y-13967667D01*
X5314524Y-13929571D01*
X5324048Y-13910524D01*
X5333571Y-13901000D01*
X5352619Y-13891476D01*
X5495476Y-13891476D02*
X5495476Y-13929571D01*
X5571667Y-13891476D02*
X5571667Y-13929571D01*
X5866905Y-14167667D02*
X5857381Y-14158143D01*
X5838333Y-14129571D01*
X5828809Y-14110524D01*
X5819286Y-14081952D01*
X5809762Y-14034333D01*
X5809762Y-13996238D01*
X5819286Y-13948619D01*
X5828809Y-13920048D01*
X5838333Y-13901000D01*
X5857381Y-13872428D01*
X5866905Y-13862905D01*
X5981190Y-13891476D02*
X6000238Y-13891476D01*
X6019286Y-13901000D01*
X6028809Y-13910524D01*
X6038333Y-13929571D01*
X6047857Y-13967667D01*
X6047857Y-14015286D01*
X6038333Y-14053381D01*
X6028809Y-14072428D01*
X6019286Y-14081952D01*
X6000238Y-14091476D01*
X5981190Y-14091476D01*
X5962143Y-14081952D01*
X5952619Y-14072428D01*
X5943095Y-14053381D01*
X5933571Y-14015286D01*
X5933571Y-13967667D01*
X5943095Y-13929571D01*
X5952619Y-13910524D01*
X5962143Y-13901000D01*
X5981190Y-13891476D01*
X6285952Y-14091476D02*
X6285952Y-13891476D01*
X6371667Y-14091476D02*
X6371667Y-13986714D01*
X6362143Y-13967667D01*
X6343095Y-13958143D01*
X6314524Y-13958143D01*
X6295476Y-13967667D01*
X6285952Y-13977190D01*
X6495476Y-14091476D02*
X6476428Y-14081952D01*
X6466905Y-14072428D01*
X6457381Y-14053381D01*
X6457381Y-13996238D01*
X6466905Y-13977190D01*
X6476428Y-13967667D01*
X6495476Y-13958143D01*
X6524048Y-13958143D01*
X6543095Y-13967667D01*
X6552619Y-13977190D01*
X6562143Y-13996238D01*
X6562143Y-14053381D01*
X6552619Y-14072428D01*
X6543095Y-14081952D01*
X6524048Y-14091476D01*
X6495476Y-14091476D01*
X6676428Y-14091476D02*
X6657381Y-14081952D01*
X6647857Y-14062905D01*
X6647857Y-13891476D01*
X6828809Y-14081952D02*
X6809762Y-14091476D01*
X6771667Y-14091476D01*
X6752619Y-14081952D01*
X6743095Y-14062905D01*
X6743095Y-13986714D01*
X6752619Y-13967667D01*
X6771667Y-13958143D01*
X6809762Y-13958143D01*
X6828809Y-13967667D01*
X6838333Y-13986714D01*
X6838333Y-14005762D01*
X6743095Y-14024809D01*
X6914524Y-14081952D02*
X6933571Y-14091476D01*
X6971667Y-14091476D01*
X6990714Y-14081952D01*
X7000238Y-14062905D01*
X7000238Y-14053381D01*
X6990714Y-14034333D01*
X6971667Y-14024809D01*
X6943095Y-14024809D01*
X6924048Y-14015286D01*
X6914524Y-13996238D01*
X6914524Y-13986714D01*
X6924048Y-13967667D01*
X6943095Y-13958143D01*
X6971667Y-13958143D01*
X6990714Y-13967667D01*
X7238333Y-14015286D02*
X7390714Y-14015286D01*
X7314524Y-14091476D02*
X7314524Y-13939095D01*
X7628809Y-13910524D02*
X7638333Y-13901000D01*
X7657381Y-13891476D01*
X7705000Y-13891476D01*
X7724048Y-13901000D01*
X7733571Y-13910524D01*
X7743095Y-13929571D01*
X7743095Y-13948619D01*
X7733571Y-13977190D01*
X7619286Y-14091476D01*
X7743095Y-14091476D01*
X7971667Y-14081952D02*
X7990714Y-14091476D01*
X8028809Y-14091476D01*
X8047857Y-14081952D01*
X8057381Y-14062905D01*
X8057381Y-14053381D01*
X8047857Y-14034333D01*
X8028809Y-14024809D01*
X8000238Y-14024809D01*
X7981190Y-14015286D01*
X7971667Y-13996238D01*
X7971667Y-13986714D01*
X7981190Y-13967667D01*
X8000238Y-13958143D01*
X8028809Y-13958143D01*
X8047857Y-13967667D01*
X8171667Y-14091476D02*
X8152619Y-14081952D01*
X8143095Y-14062905D01*
X8143095Y-13891476D01*
X8276428Y-14091476D02*
X8257381Y-14081952D01*
X8247857Y-14072428D01*
X8238333Y-14053381D01*
X8238333Y-13996238D01*
X8247857Y-13977190D01*
X8257381Y-13967667D01*
X8276428Y-13958143D01*
X8305000Y-13958143D01*
X8324048Y-13967667D01*
X8333571Y-13977190D01*
X8343095Y-13996238D01*
X8343095Y-14053381D01*
X8333571Y-14072428D01*
X8324048Y-14081952D01*
X8305000Y-14091476D01*
X8276428Y-14091476D01*
X8400238Y-13958143D02*
X8476429Y-13958143D01*
X8428810Y-13891476D02*
X8428810Y-14062905D01*
X8438333Y-14081952D01*
X8457381Y-14091476D01*
X8476429Y-14091476D01*
X8533571Y-14081952D02*
X8552619Y-14091476D01*
X8590714Y-14091476D01*
X8609762Y-14081952D01*
X8619286Y-14062905D01*
X8619286Y-14053381D01*
X8609762Y-14034333D01*
X8590714Y-14024809D01*
X8562143Y-14024809D01*
X8543095Y-14015286D01*
X8533571Y-13996238D01*
X8533571Y-13986714D01*
X8543095Y-13967667D01*
X8562143Y-13958143D01*
X8590714Y-13958143D01*
X8609762Y-13967667D01*
X8685952Y-14167667D02*
X8695476Y-14158143D01*
X8714524Y-14129571D01*
X8724048Y-14110524D01*
X8733571Y-14081952D01*
X8743095Y-14034333D01*
X8743095Y-13996238D01*
X8733571Y-13948619D01*
X8724048Y-13920048D01*
X8714524Y-13901000D01*
X8695476Y-13872428D01*
X8685952Y-13862905D01*
M02*
