%FSLAX45Y45*%
G04 Gerber Fmt 4.5, Leading zero omitted, Abs format (unit mm)*
G04 Created by KiCad (PCBNEW 6.0.4-6f826c9f35~116~ubuntu20.04.1) date 2022-04-28 23:04:10*
%MOMM*%
%LPD*%
G01*
G04 APERTURE LIST*
%TA.AperFunction,Profile*%
%ADD10C,0.100000*%
%TD*%
%ADD11C,0.200000*%
%ADD12C,0.320000*%
G04 APERTURE END LIST*
D10*
X16500000Y-1800000D02*
X2500000Y-1800000D01*
X2300000Y-12100000D02*
G75*
G03*
X2500000Y-12300000I200000J0D01*
G01*
X2300000Y-12100000D02*
X2300000Y-2000000D01*
X16700000Y-12100000D02*
X16700000Y-2000000D01*
X2500000Y-12300000D02*
X16500000Y-12300000D01*
X16500000Y-12300000D02*
G75*
G03*
X16700000Y-12100000I0J200000D01*
G01*
X16700000Y-2000000D02*
G75*
G03*
X16500000Y-1800000I-200000J0D01*
G01*
X2500000Y-1800000D02*
G75*
G03*
X2300000Y-2000000I0J-200000D01*
G01*
D11*
D12*
X3340000Y-11740000D02*
X3660000Y-12060000D01*
X3660000Y-11740000D02*
X3340000Y-12060000D01*
X4740000Y-3340000D02*
X5060000Y-3660000D01*
X5060000Y-3340000D02*
X4740000Y-3660000D01*
X14040000Y-3340000D02*
X14360000Y-3660000D01*
X14360000Y-3340000D02*
X14040000Y-3660000D01*
X14111135Y-11740000D02*
X14431135Y-12060000D01*
X14431135Y-11740000D02*
X14111135Y-12060000D01*
D11*
X2552619Y-12615476D02*
X2552619Y-12415476D01*
X2600238Y-12415476D01*
X2628810Y-12425000D01*
X2647857Y-12444048D01*
X2657381Y-12463095D01*
X2666905Y-12501190D01*
X2666905Y-12529762D01*
X2657381Y-12567857D01*
X2647857Y-12586905D01*
X2628810Y-12605952D01*
X2600238Y-12615476D01*
X2552619Y-12615476D01*
X2752619Y-12615476D02*
X2752619Y-12482143D01*
X2752619Y-12520238D02*
X2762143Y-12501190D01*
X2771667Y-12491667D01*
X2790714Y-12482143D01*
X2809762Y-12482143D01*
X2876428Y-12615476D02*
X2876428Y-12482143D01*
X2876428Y-12415476D02*
X2866905Y-12425000D01*
X2876428Y-12434524D01*
X2885952Y-12425000D01*
X2876428Y-12415476D01*
X2876428Y-12434524D01*
X3000238Y-12615476D02*
X2981190Y-12605952D01*
X2971667Y-12586905D01*
X2971667Y-12415476D01*
X3105000Y-12615476D02*
X3085952Y-12605952D01*
X3076428Y-12586905D01*
X3076428Y-12415476D01*
X3333571Y-12615476D02*
X3333571Y-12415476D01*
X3400238Y-12558333D01*
X3466905Y-12415476D01*
X3466905Y-12615476D01*
X3647857Y-12615476D02*
X3647857Y-12510714D01*
X3638333Y-12491667D01*
X3619286Y-12482143D01*
X3581190Y-12482143D01*
X3562143Y-12491667D01*
X3647857Y-12605952D02*
X3628809Y-12615476D01*
X3581190Y-12615476D01*
X3562143Y-12605952D01*
X3552619Y-12586905D01*
X3552619Y-12567857D01*
X3562143Y-12548809D01*
X3581190Y-12539286D01*
X3628809Y-12539286D01*
X3647857Y-12529762D01*
X3743095Y-12482143D02*
X3743095Y-12682143D01*
X3743095Y-12491667D02*
X3762143Y-12482143D01*
X3800238Y-12482143D01*
X3819286Y-12491667D01*
X3828809Y-12501190D01*
X3838333Y-12520238D01*
X3838333Y-12577381D01*
X3828809Y-12596428D01*
X3819286Y-12605952D01*
X3800238Y-12615476D01*
X3762143Y-12615476D01*
X3743095Y-12605952D01*
X3924048Y-12596428D02*
X3933571Y-12605952D01*
X3924048Y-12615476D01*
X3914524Y-12605952D01*
X3924048Y-12596428D01*
X3924048Y-12615476D01*
X3924048Y-12491667D02*
X3933571Y-12501190D01*
X3924048Y-12510714D01*
X3914524Y-12501190D01*
X3924048Y-12491667D01*
X3924048Y-12510714D01*
X2095000Y-12845000D02*
X2295000Y-13045000D01*
X2295000Y-12845000D02*
X2095000Y-13045000D01*
X2533571Y-12835476D02*
X2657381Y-12835476D01*
X2590714Y-12911667D01*
X2619286Y-12911667D01*
X2638333Y-12921190D01*
X2647857Y-12930714D01*
X2657381Y-12949762D01*
X2657381Y-12997381D01*
X2647857Y-13016428D01*
X2638333Y-13025952D01*
X2619286Y-13035476D01*
X2562143Y-13035476D01*
X2543095Y-13025952D01*
X2533571Y-13016428D01*
X2743095Y-13016428D02*
X2752619Y-13025952D01*
X2743095Y-13035476D01*
X2733571Y-13025952D01*
X2743095Y-13016428D01*
X2743095Y-13035476D01*
X2828809Y-12854524D02*
X2838333Y-12845000D01*
X2857381Y-12835476D01*
X2905000Y-12835476D01*
X2924048Y-12845000D01*
X2933571Y-12854524D01*
X2943095Y-12873571D01*
X2943095Y-12892619D01*
X2933571Y-12921190D01*
X2819286Y-13035476D01*
X2943095Y-13035476D01*
X3066905Y-12835476D02*
X3085952Y-12835476D01*
X3105000Y-12845000D01*
X3114524Y-12854524D01*
X3124048Y-12873571D01*
X3133571Y-12911667D01*
X3133571Y-12959286D01*
X3124048Y-12997381D01*
X3114524Y-13016428D01*
X3105000Y-13025952D01*
X3085952Y-13035476D01*
X3066905Y-13035476D01*
X3047857Y-13025952D01*
X3038333Y-13016428D01*
X3028809Y-12997381D01*
X3019286Y-12959286D01*
X3019286Y-12911667D01*
X3028809Y-12873571D01*
X3038333Y-12854524D01*
X3047857Y-12845000D01*
X3066905Y-12835476D01*
X3257381Y-12835476D02*
X3276428Y-12835476D01*
X3295476Y-12845000D01*
X3305000Y-12854524D01*
X3314524Y-12873571D01*
X3324048Y-12911667D01*
X3324048Y-12959286D01*
X3314524Y-12997381D01*
X3305000Y-13016428D01*
X3295476Y-13025952D01*
X3276428Y-13035476D01*
X3257381Y-13035476D01*
X3238333Y-13025952D01*
X3228809Y-13016428D01*
X3219286Y-12997381D01*
X3209762Y-12959286D01*
X3209762Y-12911667D01*
X3219286Y-12873571D01*
X3228809Y-12854524D01*
X3238333Y-12845000D01*
X3257381Y-12835476D01*
X3409762Y-13035476D02*
X3409762Y-12902143D01*
X3409762Y-12921190D02*
X3419286Y-12911667D01*
X3438333Y-12902143D01*
X3466905Y-12902143D01*
X3485952Y-12911667D01*
X3495476Y-12930714D01*
X3495476Y-13035476D01*
X3495476Y-12930714D02*
X3505000Y-12911667D01*
X3524048Y-12902143D01*
X3552619Y-12902143D01*
X3571667Y-12911667D01*
X3581190Y-12930714D01*
X3581190Y-13035476D01*
X3676428Y-13035476D02*
X3676428Y-12902143D01*
X3676428Y-12921190D02*
X3685952Y-12911667D01*
X3705000Y-12902143D01*
X3733571Y-12902143D01*
X3752619Y-12911667D01*
X3762143Y-12930714D01*
X3762143Y-13035476D01*
X3762143Y-12930714D02*
X3771667Y-12911667D01*
X3790714Y-12902143D01*
X3819286Y-12902143D01*
X3838333Y-12911667D01*
X3847857Y-12930714D01*
X3847857Y-13035476D01*
X4238333Y-12825952D02*
X4066905Y-13083095D01*
X4495476Y-12835476D02*
X4514524Y-12835476D01*
X4533571Y-12845000D01*
X4543095Y-12854524D01*
X4552619Y-12873571D01*
X4562143Y-12911667D01*
X4562143Y-12959286D01*
X4552619Y-12997381D01*
X4543095Y-13016428D01*
X4533571Y-13025952D01*
X4514524Y-13035476D01*
X4495476Y-13035476D01*
X4476429Y-13025952D01*
X4466905Y-13016428D01*
X4457381Y-12997381D01*
X4447857Y-12959286D01*
X4447857Y-12911667D01*
X4457381Y-12873571D01*
X4466905Y-12854524D01*
X4476429Y-12845000D01*
X4495476Y-12835476D01*
X4647857Y-13016428D02*
X4657381Y-13025952D01*
X4647857Y-13035476D01*
X4638333Y-13025952D01*
X4647857Y-13016428D01*
X4647857Y-13035476D01*
X4847857Y-13035476D02*
X4733571Y-13035476D01*
X4790714Y-13035476D02*
X4790714Y-12835476D01*
X4771667Y-12864048D01*
X4752619Y-12883095D01*
X4733571Y-12892619D01*
X4924048Y-12854524D02*
X4933571Y-12845000D01*
X4952619Y-12835476D01*
X5000238Y-12835476D01*
X5019286Y-12845000D01*
X5028810Y-12854524D01*
X5038333Y-12873571D01*
X5038333Y-12892619D01*
X5028810Y-12921190D01*
X4914524Y-13035476D01*
X5038333Y-13035476D01*
X5209762Y-12835476D02*
X5171667Y-12835476D01*
X5152619Y-12845000D01*
X5143095Y-12854524D01*
X5124048Y-12883095D01*
X5114524Y-12921190D01*
X5114524Y-12997381D01*
X5124048Y-13016428D01*
X5133571Y-13025952D01*
X5152619Y-13035476D01*
X5190714Y-13035476D01*
X5209762Y-13025952D01*
X5219286Y-13016428D01*
X5228810Y-12997381D01*
X5228810Y-12949762D01*
X5219286Y-12930714D01*
X5209762Y-12921190D01*
X5190714Y-12911667D01*
X5152619Y-12911667D01*
X5133571Y-12921190D01*
X5124048Y-12930714D01*
X5114524Y-12949762D01*
X5352619Y-12835476D02*
X5371667Y-12835476D01*
X5390714Y-12845000D01*
X5400238Y-12854524D01*
X5409762Y-12873571D01*
X5419286Y-12911667D01*
X5419286Y-12959286D01*
X5409762Y-12997381D01*
X5400238Y-13016428D01*
X5390714Y-13025952D01*
X5371667Y-13035476D01*
X5352619Y-13035476D01*
X5333571Y-13025952D01*
X5324048Y-13016428D01*
X5314524Y-12997381D01*
X5305000Y-12959286D01*
X5305000Y-12911667D01*
X5314524Y-12873571D01*
X5324048Y-12854524D01*
X5333571Y-12845000D01*
X5352619Y-12835476D01*
X5495476Y-12835476D02*
X5495476Y-12873571D01*
X5571667Y-12835476D02*
X5571667Y-12873571D01*
X5866905Y-13111667D02*
X5857381Y-13102143D01*
X5838333Y-13073571D01*
X5828809Y-13054524D01*
X5819286Y-13025952D01*
X5809762Y-12978333D01*
X5809762Y-12940238D01*
X5819286Y-12892619D01*
X5828809Y-12864048D01*
X5838333Y-12845000D01*
X5857381Y-12816428D01*
X5866905Y-12806905D01*
X6028809Y-12902143D02*
X6028809Y-13035476D01*
X5981190Y-12825952D02*
X5933571Y-12968809D01*
X6057381Y-12968809D01*
X6285952Y-13035476D02*
X6285952Y-12835476D01*
X6371667Y-13035476D02*
X6371667Y-12930714D01*
X6362143Y-12911667D01*
X6343095Y-12902143D01*
X6314524Y-12902143D01*
X6295476Y-12911667D01*
X6285952Y-12921190D01*
X6495476Y-13035476D02*
X6476428Y-13025952D01*
X6466905Y-13016428D01*
X6457381Y-12997381D01*
X6457381Y-12940238D01*
X6466905Y-12921190D01*
X6476428Y-12911667D01*
X6495476Y-12902143D01*
X6524048Y-12902143D01*
X6543095Y-12911667D01*
X6552619Y-12921190D01*
X6562143Y-12940238D01*
X6562143Y-12997381D01*
X6552619Y-13016428D01*
X6543095Y-13025952D01*
X6524048Y-13035476D01*
X6495476Y-13035476D01*
X6676428Y-13035476D02*
X6657381Y-13025952D01*
X6647857Y-13006905D01*
X6647857Y-12835476D01*
X6828809Y-13025952D02*
X6809762Y-13035476D01*
X6771667Y-13035476D01*
X6752619Y-13025952D01*
X6743095Y-13006905D01*
X6743095Y-12930714D01*
X6752619Y-12911667D01*
X6771667Y-12902143D01*
X6809762Y-12902143D01*
X6828809Y-12911667D01*
X6838333Y-12930714D01*
X6838333Y-12949762D01*
X6743095Y-12968809D01*
X6914524Y-13025952D02*
X6933571Y-13035476D01*
X6971667Y-13035476D01*
X6990714Y-13025952D01*
X7000238Y-13006905D01*
X7000238Y-12997381D01*
X6990714Y-12978333D01*
X6971667Y-12968809D01*
X6943095Y-12968809D01*
X6924048Y-12959286D01*
X6914524Y-12940238D01*
X6914524Y-12930714D01*
X6924048Y-12911667D01*
X6943095Y-12902143D01*
X6971667Y-12902143D01*
X6990714Y-12911667D01*
X7066905Y-13111667D02*
X7076428Y-13102143D01*
X7095476Y-13073571D01*
X7105000Y-13054524D01*
X7114524Y-13025952D01*
X7124048Y-12978333D01*
X7124048Y-12940238D01*
X7114524Y-12892619D01*
X7105000Y-12864048D01*
X7095476Y-12845000D01*
X7076428Y-12816428D01*
X7066905Y-12806905D01*
X7428809Y-13111667D02*
X7419286Y-13102143D01*
X7400238Y-13073571D01*
X7390714Y-13054524D01*
X7381190Y-13025952D01*
X7371667Y-12978333D01*
X7371667Y-12940238D01*
X7381190Y-12892619D01*
X7390714Y-12864048D01*
X7400238Y-12845000D01*
X7419286Y-12816428D01*
X7428809Y-12806905D01*
X7505000Y-12902143D02*
X7505000Y-13035476D01*
X7505000Y-12921190D02*
X7514524Y-12911667D01*
X7533571Y-12902143D01*
X7562143Y-12902143D01*
X7581190Y-12911667D01*
X7590714Y-12930714D01*
X7590714Y-13035476D01*
X7714524Y-13035476D02*
X7695476Y-13025952D01*
X7685952Y-13016428D01*
X7676428Y-12997381D01*
X7676428Y-12940238D01*
X7685952Y-12921190D01*
X7695476Y-12911667D01*
X7714524Y-12902143D01*
X7743095Y-12902143D01*
X7762143Y-12911667D01*
X7771667Y-12921190D01*
X7781190Y-12940238D01*
X7781190Y-12997381D01*
X7771667Y-13016428D01*
X7762143Y-13025952D01*
X7743095Y-13035476D01*
X7714524Y-13035476D01*
X7838333Y-12902143D02*
X7914524Y-12902143D01*
X7866905Y-12835476D02*
X7866905Y-13006905D01*
X7876428Y-13025952D01*
X7895476Y-13035476D01*
X7914524Y-13035476D01*
X8133571Y-12902143D02*
X8133571Y-13102143D01*
X8133571Y-12911667D02*
X8152619Y-12902143D01*
X8190714Y-12902143D01*
X8209762Y-12911667D01*
X8219286Y-12921190D01*
X8228809Y-12940238D01*
X8228809Y-12997381D01*
X8219286Y-13016428D01*
X8209762Y-13025952D01*
X8190714Y-13035476D01*
X8152619Y-13035476D01*
X8133571Y-13025952D01*
X8343095Y-13035476D02*
X8324048Y-13025952D01*
X8314524Y-13006905D01*
X8314524Y-12835476D01*
X8505000Y-13035476D02*
X8505000Y-12930714D01*
X8495476Y-12911667D01*
X8476429Y-12902143D01*
X8438333Y-12902143D01*
X8419286Y-12911667D01*
X8505000Y-13025952D02*
X8485952Y-13035476D01*
X8438333Y-13035476D01*
X8419286Y-13025952D01*
X8409762Y-13006905D01*
X8409762Y-12987857D01*
X8419286Y-12968809D01*
X8438333Y-12959286D01*
X8485952Y-12959286D01*
X8505000Y-12949762D01*
X8571667Y-12902143D02*
X8647857Y-12902143D01*
X8600238Y-12835476D02*
X8600238Y-13006905D01*
X8609762Y-13025952D01*
X8628810Y-13035476D01*
X8647857Y-13035476D01*
X8790714Y-13025952D02*
X8771667Y-13035476D01*
X8733571Y-13035476D01*
X8714524Y-13025952D01*
X8705000Y-13006905D01*
X8705000Y-12930714D01*
X8714524Y-12911667D01*
X8733571Y-12902143D01*
X8771667Y-12902143D01*
X8790714Y-12911667D01*
X8800238Y-12930714D01*
X8800238Y-12949762D01*
X8705000Y-12968809D01*
X8971667Y-13035476D02*
X8971667Y-12835476D01*
X8971667Y-13025952D02*
X8952619Y-13035476D01*
X8914524Y-13035476D01*
X8895476Y-13025952D01*
X8885952Y-13016428D01*
X8876429Y-12997381D01*
X8876429Y-12940238D01*
X8885952Y-12921190D01*
X8895476Y-12911667D01*
X8914524Y-12902143D01*
X8952619Y-12902143D01*
X8971667Y-12911667D01*
X9047857Y-13111667D02*
X9057381Y-13102143D01*
X9076429Y-13073571D01*
X9085952Y-13054524D01*
X9095476Y-13025952D01*
X9105000Y-12978333D01*
X9105000Y-12940238D01*
X9095476Y-12892619D01*
X9085952Y-12864048D01*
X9076429Y-12845000D01*
X9057381Y-12816428D01*
X9047857Y-12806905D01*
M02*
