%TF.GenerationSoftware,KiCad,Pcbnew,5.1.10-88a1d61d58~88~ubuntu20.04.1*%
%TF.CreationDate,2021-05-20T14:16:26-06:00*%
%TF.ProjectId,colordance-brain,636f6c6f-7264-4616-9e63-652d62726169,rev?*%
%TF.SameCoordinates,Original*%
%TF.FileFunction,Legend,Bot*%
%TF.FilePolarity,Positive*%
%FSLAX46Y46*%
G04 Gerber Fmt 4.6, Leading zero omitted, Abs format (unit mm)*
G04 Created by KiCad (PCBNEW 5.1.10-88a1d61d58~88~ubuntu20.04.1) date 2021-05-20 14:16:26*
%MOMM*%
%LPD*%
G01*
G04 APERTURE LIST*
%ADD10C,0.150000*%
%ADD11C,0.120000*%
G04 APERTURE END LIST*
D10*
X33461904Y-110447619D02*
X33414285Y-110400000D01*
X33319047Y-110352380D01*
X33080952Y-110352380D01*
X32985714Y-110400000D01*
X32938095Y-110447619D01*
X32890476Y-110542857D01*
X32890476Y-110638095D01*
X32938095Y-110780952D01*
X33509523Y-111352380D01*
X32890476Y-111352380D01*
X32557142Y-110352380D02*
X31890476Y-110352380D01*
X32557142Y-111352380D01*
X31890476Y-111352380D01*
X35038095Y-110400000D02*
X35133333Y-110352380D01*
X35276190Y-110352380D01*
X35419047Y-110400000D01*
X35514285Y-110495238D01*
X35561904Y-110590476D01*
X35609523Y-110780952D01*
X35609523Y-110923809D01*
X35561904Y-111114285D01*
X35514285Y-111209523D01*
X35419047Y-111304761D01*
X35276190Y-111352380D01*
X35180952Y-111352380D01*
X35038095Y-111304761D01*
X34990476Y-111257142D01*
X34990476Y-110923809D01*
X35180952Y-110923809D01*
X38438095Y-111452380D02*
X38438095Y-110452380D01*
X38057142Y-110452380D01*
X37961904Y-110500000D01*
X37914285Y-110547619D01*
X37866666Y-110642857D01*
X37866666Y-110785714D01*
X37914285Y-110880952D01*
X37961904Y-110928571D01*
X38057142Y-110976190D01*
X38438095Y-110976190D01*
X37247619Y-110452380D02*
X37152380Y-110452380D01*
X37057142Y-110500000D01*
X37009523Y-110547619D01*
X36961904Y-110642857D01*
X36914285Y-110833333D01*
X36914285Y-111071428D01*
X36961904Y-111261904D01*
X37009523Y-111357142D01*
X37057142Y-111404761D01*
X37152380Y-111452380D01*
X37247619Y-111452380D01*
X37342857Y-111404761D01*
X37390476Y-111357142D01*
X37438095Y-111261904D01*
X37485714Y-111071428D01*
X37485714Y-110833333D01*
X37438095Y-110642857D01*
X37390476Y-110547619D01*
X37342857Y-110500000D01*
X37247619Y-110452380D01*
X40490476Y-111252380D02*
X41061904Y-111252380D01*
X40776190Y-111252380D02*
X40776190Y-110252380D01*
X40871428Y-110395238D01*
X40966666Y-110490476D01*
X41061904Y-110538095D01*
X40157142Y-110252380D02*
X39490476Y-110252380D01*
X40157142Y-111252380D01*
X39490476Y-111252380D01*
X39142857Y-117152380D02*
X39714285Y-117152380D01*
X39428571Y-117152380D02*
X39428571Y-116152380D01*
X39523809Y-116295238D01*
X39619047Y-116390476D01*
X39714285Y-116438095D01*
X38523809Y-116676190D02*
X38523809Y-117152380D01*
X38857142Y-116152380D02*
X38523809Y-116676190D01*
X38190476Y-116152380D01*
X37238095Y-117252380D02*
X37238095Y-116252380D01*
X36857142Y-116252380D01*
X36761904Y-116300000D01*
X36714285Y-116347619D01*
X36666666Y-116442857D01*
X36666666Y-116585714D01*
X36714285Y-116680952D01*
X36761904Y-116728571D01*
X36857142Y-116776190D01*
X37238095Y-116776190D01*
X35714285Y-117252380D02*
X36285714Y-117252380D01*
X36000000Y-117252380D02*
X36000000Y-116252380D01*
X36095238Y-116395238D01*
X36190476Y-116490476D01*
X36285714Y-116538095D01*
X33738095Y-116300000D02*
X33833333Y-116252380D01*
X33976190Y-116252380D01*
X34119047Y-116300000D01*
X34214285Y-116395238D01*
X34261904Y-116490476D01*
X34309523Y-116680952D01*
X34309523Y-116823809D01*
X34261904Y-117014285D01*
X34214285Y-117109523D01*
X34119047Y-117204761D01*
X33976190Y-117252380D01*
X33880952Y-117252380D01*
X33738095Y-117204761D01*
X33690476Y-117157142D01*
X33690476Y-116823809D01*
X33880952Y-116823809D01*
X32114285Y-116347619D02*
X32066666Y-116300000D01*
X31971428Y-116252380D01*
X31733333Y-116252380D01*
X31638095Y-116300000D01*
X31590476Y-116347619D01*
X31542857Y-116442857D01*
X31542857Y-116538095D01*
X31590476Y-116680952D01*
X32161904Y-117252380D01*
X31542857Y-117252380D01*
X30923809Y-116776190D02*
X30923809Y-117252380D01*
X31257142Y-116252380D02*
X30923809Y-116776190D01*
X30590476Y-116252380D01*
D11*
%TO.C,U7*%
X63700000Y-62960000D02*
X62300000Y-62960000D01*
X62300000Y-60640000D02*
X64200000Y-60640000D01*
%TO.C,U6*%
X53300000Y-63160000D02*
X51900000Y-63160000D01*
X51900000Y-60840000D02*
X53800000Y-60840000D01*
%TO.C,D17*%
X103050000Y-54450000D02*
X98750000Y-54450000D01*
X98750000Y-54450000D02*
X98750000Y-48750000D01*
X103050000Y-54450000D02*
X103050000Y-48750000D01*
%TO.C,D16*%
X79550000Y-54450000D02*
X75250000Y-54450000D01*
X75250000Y-54450000D02*
X75250000Y-48750000D01*
X79550000Y-54450000D02*
X79550000Y-48750000D01*
%TO.C,D15*%
X93650000Y-54450000D02*
X89350000Y-54450000D01*
X89350000Y-54450000D02*
X89350000Y-48750000D01*
X93650000Y-54450000D02*
X93650000Y-48750000D01*
%TO.C,D14*%
X33750000Y-81850000D02*
X38050000Y-81850000D01*
X38050000Y-81850000D02*
X38050000Y-87550000D01*
X33750000Y-81850000D02*
X33750000Y-87550000D01*
%TO.C,D13*%
X70150000Y-54450000D02*
X65850000Y-54450000D01*
X65850000Y-54450000D02*
X65850000Y-48750000D01*
X70150000Y-54450000D02*
X70150000Y-48750000D01*
%TO.C,D12*%
X121750000Y-54450000D02*
X117450000Y-54450000D01*
X117450000Y-54450000D02*
X117450000Y-48750000D01*
X121750000Y-54450000D02*
X121750000Y-48750000D01*
%TO.C,D10*%
X63150000Y-54350000D02*
X58850000Y-54350000D01*
X58850000Y-54350000D02*
X58850000Y-48650000D01*
X63150000Y-54350000D02*
X63150000Y-48650000D01*
%TO.C,D8*%
X84250000Y-54450000D02*
X79950000Y-54450000D01*
X79950000Y-54450000D02*
X79950000Y-48750000D01*
X84250000Y-54450000D02*
X84250000Y-48750000D01*
%TO.C,D7*%
X98350000Y-54450000D02*
X94050000Y-54450000D01*
X94050000Y-54450000D02*
X94050000Y-48750000D01*
X98350000Y-54450000D02*
X98350000Y-48750000D01*
%TO.C,D6*%
X74850000Y-54450000D02*
X70550000Y-54450000D01*
X70550000Y-54450000D02*
X70550000Y-48750000D01*
X74850000Y-54450000D02*
X74850000Y-48750000D01*
%TO.C,D5*%
X110850000Y-54450000D02*
X106550000Y-54450000D01*
X106550000Y-54450000D02*
X106550000Y-48750000D01*
X110850000Y-54450000D02*
X110850000Y-48750000D01*
%TO.C,D4*%
X52550000Y-54450000D02*
X48250000Y-54450000D01*
X48250000Y-54450000D02*
X48250000Y-48750000D01*
X52550000Y-54450000D02*
X52550000Y-48750000D01*
%TO.C,D3*%
X88950000Y-54450000D02*
X84650000Y-54450000D01*
X84650000Y-54450000D02*
X84650000Y-48750000D01*
X88950000Y-54450000D02*
X88950000Y-48750000D01*
%TO.C,C33*%
X45140580Y-69110000D02*
X44859420Y-69110000D01*
X45140580Y-68090000D02*
X44859420Y-68090000D01*
D10*
%TO.C,H4*%
X26000000Y-124000000D02*
G75*
G03*
X26000000Y-124000000I-5000000J0D01*
G01*
%TO.C,H3*%
X143500000Y-52500000D02*
G75*
G03*
X143500000Y-52500000I-5000000J0D01*
G01*
%TO.C,H2*%
X143500000Y-124000000D02*
G75*
G03*
X143500000Y-124000000I-5000000J0D01*
G01*
%TO.C,H1*%
X26000000Y-52500000D02*
G75*
G03*
X26000000Y-52500000I-5000000J0D01*
G01*
D11*
%TO.C,U5*%
X79000000Y-108060000D02*
X75550000Y-108060000D01*
X79000000Y-108060000D02*
X80950000Y-108060000D01*
X79000000Y-97940000D02*
X77050000Y-97940000D01*
X79000000Y-97940000D02*
X80950000Y-97940000D01*
%TO.C,U4*%
X115000000Y-97940000D02*
X118450000Y-97940000D01*
X115000000Y-97940000D02*
X113050000Y-97940000D01*
X115000000Y-108060000D02*
X116950000Y-108060000D01*
X115000000Y-108060000D02*
X113050000Y-108060000D01*
%TO.C,U3*%
X44000000Y-97940000D02*
X47450000Y-97940000D01*
X44000000Y-97940000D02*
X42050000Y-97940000D01*
X44000000Y-108060000D02*
X45950000Y-108060000D01*
X44000000Y-108060000D02*
X42050000Y-108060000D01*
%TO.C,U1*%
X24610000Y-78600000D02*
X24610000Y-81050000D01*
X21390000Y-80400000D02*
X21390000Y-78600000D01*
%TO.C,R5*%
X20337258Y-83122500D02*
X19862742Y-83122500D01*
X20337258Y-82077500D02*
X19862742Y-82077500D01*
%TO.C,R4*%
X23637258Y-83122500D02*
X23162742Y-83122500D01*
X23637258Y-82077500D02*
X23162742Y-82077500D01*
%TO.C,R3*%
X45237258Y-70922500D02*
X44762742Y-70922500D01*
X45237258Y-69877500D02*
X44762742Y-69877500D01*
%TO.C,R2*%
X44872936Y-72065000D02*
X45327064Y-72065000D01*
X44872936Y-73535000D02*
X45327064Y-73535000D01*
%TO.C,R1*%
X27862742Y-87277500D02*
X28337258Y-87277500D01*
X27862742Y-88322500D02*
X28337258Y-88322500D01*
%TO.C,L1*%
X33600000Y-74850000D02*
X33600000Y-81150000D01*
X27400000Y-74850000D02*
X27400000Y-81150000D01*
%TO.C,D53*%
X96150000Y-101550000D02*
X96150000Y-95850000D01*
X91850000Y-101550000D02*
X91850000Y-95850000D01*
X96150000Y-101550000D02*
X91850000Y-101550000D01*
%TO.C,D52*%
X91850000Y-102450000D02*
X91850000Y-108150000D01*
X96150000Y-102450000D02*
X96150000Y-108150000D01*
X91850000Y-102450000D02*
X96150000Y-102450000D01*
%TO.C,D51*%
X90150000Y-109550000D02*
X90150000Y-103850000D01*
X85850000Y-109550000D02*
X85850000Y-103850000D01*
X90150000Y-109550000D02*
X85850000Y-109550000D01*
%TO.C,D50*%
X90150000Y-101550000D02*
X90150000Y-95850000D01*
X85850000Y-101550000D02*
X85850000Y-95850000D01*
X90150000Y-101550000D02*
X85850000Y-101550000D01*
%TO.C,D49*%
X88550000Y-123850000D02*
X82850000Y-123850000D01*
X88550000Y-128150000D02*
X82850000Y-128150000D01*
X88550000Y-123850000D02*
X88550000Y-128150000D01*
%TO.C,D48*%
X89450000Y-128150000D02*
X95150000Y-128150000D01*
X89450000Y-123850000D02*
X95150000Y-123850000D01*
X89450000Y-128150000D02*
X89450000Y-123850000D01*
%TO.C,D47*%
X73150000Y-101550000D02*
X73150000Y-95850000D01*
X68850000Y-101550000D02*
X68850000Y-95850000D01*
X73150000Y-101550000D02*
X68850000Y-101550000D01*
%TO.C,D46*%
X68850000Y-102450000D02*
X68850000Y-108150000D01*
X73150000Y-102450000D02*
X73150000Y-108150000D01*
X68850000Y-102450000D02*
X73150000Y-102450000D01*
%TO.C,D45*%
X67150000Y-109550000D02*
X67150000Y-103850000D01*
X62850000Y-109550000D02*
X62850000Y-103850000D01*
X67150000Y-109550000D02*
X62850000Y-109550000D01*
%TO.C,D44*%
X67150000Y-101550000D02*
X67150000Y-95850000D01*
X62850000Y-101550000D02*
X62850000Y-95850000D01*
X67150000Y-101550000D02*
X62850000Y-101550000D01*
%TO.C,D43*%
X70550000Y-123850000D02*
X64850000Y-123850000D01*
X70550000Y-128150000D02*
X64850000Y-128150000D01*
X70550000Y-123850000D02*
X70550000Y-128150000D01*
%TO.C,D42*%
X71450000Y-128150000D02*
X77150000Y-128150000D01*
X71450000Y-123850000D02*
X77150000Y-123850000D01*
X71450000Y-128150000D02*
X71450000Y-123850000D01*
%TO.C,D41*%
X109150000Y-101550000D02*
X109150000Y-95850000D01*
X104850000Y-101550000D02*
X104850000Y-95850000D01*
X109150000Y-101550000D02*
X104850000Y-101550000D01*
%TO.C,D40*%
X104850000Y-102450000D02*
X104850000Y-108150000D01*
X109150000Y-102450000D02*
X109150000Y-108150000D01*
X104850000Y-102450000D02*
X109150000Y-102450000D01*
%TO.C,D39*%
X98850000Y-94450000D02*
X98850000Y-100150000D01*
X103150000Y-94450000D02*
X103150000Y-100150000D01*
X98850000Y-94450000D02*
X103150000Y-94450000D01*
%TO.C,D38*%
X98850000Y-102450000D02*
X98850000Y-108150000D01*
X103150000Y-102450000D02*
X103150000Y-108150000D01*
X98850000Y-102450000D02*
X103150000Y-102450000D01*
%TO.C,D37*%
X105550000Y-123850000D02*
X99850000Y-123850000D01*
X105550000Y-128150000D02*
X99850000Y-128150000D01*
X105550000Y-123850000D02*
X105550000Y-128150000D01*
%TO.C,D36*%
X106450000Y-128150000D02*
X112150000Y-128150000D01*
X106450000Y-123850000D02*
X112150000Y-123850000D01*
X106450000Y-128150000D02*
X106450000Y-123850000D01*
%TO.C,D35*%
X126850000Y-102450000D02*
X126850000Y-108150000D01*
X131150000Y-102450000D02*
X131150000Y-108150000D01*
X126850000Y-102450000D02*
X131150000Y-102450000D01*
%TO.C,D34*%
X131150000Y-101550000D02*
X131150000Y-95850000D01*
X126850000Y-101550000D02*
X126850000Y-95850000D01*
X131150000Y-101550000D02*
X126850000Y-101550000D01*
%TO.C,D33*%
X120850000Y-94500000D02*
X120850000Y-100200000D01*
X125150000Y-94500000D02*
X125150000Y-100200000D01*
X120850000Y-94500000D02*
X125150000Y-94500000D01*
%TO.C,D32*%
X120850000Y-102450000D02*
X120850000Y-108150000D01*
X125150000Y-102450000D02*
X125150000Y-108150000D01*
X120850000Y-102450000D02*
X125150000Y-102450000D01*
%TO.C,D31*%
X122550000Y-123850000D02*
X116850000Y-123850000D01*
X122550000Y-128150000D02*
X116850000Y-128150000D01*
X122550000Y-123850000D02*
X122550000Y-128150000D01*
%TO.C,D30*%
X123450000Y-128150000D02*
X129150000Y-128150000D01*
X123450000Y-123850000D02*
X129150000Y-123850000D01*
X123450000Y-128150000D02*
X123450000Y-123850000D01*
%TO.C,D29*%
X33850000Y-102450000D02*
X33850000Y-108150000D01*
X38150000Y-102450000D02*
X38150000Y-108150000D01*
X33850000Y-102450000D02*
X38150000Y-102450000D01*
%TO.C,D28*%
X38150000Y-101550000D02*
X38150000Y-95850000D01*
X33850000Y-101550000D02*
X33850000Y-95850000D01*
X38150000Y-101550000D02*
X33850000Y-101550000D01*
%TO.C,D27*%
X27850000Y-94450000D02*
X27850000Y-100150000D01*
X32150000Y-94450000D02*
X32150000Y-100150000D01*
X27850000Y-94450000D02*
X32150000Y-94450000D01*
%TO.C,D26*%
X27850000Y-102450000D02*
X27850000Y-108150000D01*
X32150000Y-102450000D02*
X32150000Y-108150000D01*
X27850000Y-102450000D02*
X32150000Y-102450000D01*
%TO.C,D25*%
X35550000Y-123850000D02*
X29850000Y-123850000D01*
X35550000Y-128150000D02*
X29850000Y-128150000D01*
X35550000Y-123850000D02*
X35550000Y-128150000D01*
%TO.C,D24*%
X36450000Y-128150000D02*
X42150000Y-128150000D01*
X36450000Y-123850000D02*
X42150000Y-123850000D01*
X36450000Y-128150000D02*
X36450000Y-123850000D01*
%TO.C,D23*%
X60150000Y-101550000D02*
X60150000Y-95850000D01*
X55850000Y-101550000D02*
X55850000Y-95850000D01*
X60150000Y-101550000D02*
X55850000Y-101550000D01*
%TO.C,D22*%
X55850000Y-102450000D02*
X55850000Y-108150000D01*
X60150000Y-102450000D02*
X60150000Y-108150000D01*
X55850000Y-102450000D02*
X60150000Y-102450000D01*
%TO.C,D21*%
X54150000Y-109550000D02*
X54150000Y-103850000D01*
X49850000Y-109550000D02*
X49850000Y-103850000D01*
X54150000Y-109550000D02*
X49850000Y-109550000D01*
%TO.C,D20*%
X54150000Y-101550000D02*
X54150000Y-95850000D01*
X49850000Y-101550000D02*
X49850000Y-95850000D01*
X54150000Y-101550000D02*
X49850000Y-101550000D01*
%TO.C,D19*%
X53550000Y-123850000D02*
X47850000Y-123850000D01*
X53550000Y-128150000D02*
X47850000Y-128150000D01*
X53550000Y-123850000D02*
X53550000Y-128150000D01*
%TO.C,D18*%
X54450000Y-128150000D02*
X60150000Y-128150000D01*
X54450000Y-123850000D02*
X60150000Y-123850000D01*
X54450000Y-128150000D02*
X54450000Y-123850000D01*
%TO.C,D11*%
X25600000Y-83650000D02*
X28150000Y-83650000D01*
X25600000Y-81950000D02*
X28150000Y-81950000D01*
X25600000Y-83650000D02*
X25600000Y-81950000D01*
%TO.C,D9*%
X24450000Y-74800000D02*
X20550000Y-74800000D01*
X24450000Y-76800000D02*
X20550000Y-76800000D01*
X24450000Y-74800000D02*
X24450000Y-76800000D01*
%TO.C,D2*%
X31450000Y-72650000D02*
X37150000Y-72650000D01*
X31450000Y-68350000D02*
X37150000Y-68350000D01*
X31450000Y-72650000D02*
X31450000Y-68350000D01*
%TO.C,C32*%
X86859420Y-121490000D02*
X87140580Y-121490000D01*
X86859420Y-122510000D02*
X87140580Y-122510000D01*
%TO.C,C31*%
X91140580Y-122510000D02*
X90859420Y-122510000D01*
X91140580Y-121490000D02*
X90859420Y-121490000D01*
%TO.C,C30*%
X68859420Y-121490000D02*
X69140580Y-121490000D01*
X68859420Y-122510000D02*
X69140580Y-122510000D01*
%TO.C,C29*%
X73140580Y-122510000D02*
X72859420Y-122510000D01*
X73140580Y-121490000D02*
X72859420Y-121490000D01*
%TO.C,C28*%
X79140580Y-110010000D02*
X78859420Y-110010000D01*
X79140580Y-108990000D02*
X78859420Y-108990000D01*
%TO.C,C27*%
X103859420Y-121490000D02*
X104140580Y-121490000D01*
X103859420Y-122510000D02*
X104140580Y-122510000D01*
%TO.C,C26*%
X108140580Y-122510000D02*
X107859420Y-122510000D01*
X108140580Y-121490000D02*
X107859420Y-121490000D01*
%TO.C,C25*%
X121359420Y-121490000D02*
X121640580Y-121490000D01*
X121359420Y-122510000D02*
X121640580Y-122510000D01*
%TO.C,C24*%
X125640580Y-122510000D02*
X125359420Y-122510000D01*
X125640580Y-121490000D02*
X125359420Y-121490000D01*
%TO.C,C23*%
X114859420Y-95890000D02*
X115140580Y-95890000D01*
X114859420Y-96910000D02*
X115140580Y-96910000D01*
%TO.C,C22*%
X33859420Y-121490000D02*
X34140580Y-121490000D01*
X33859420Y-122510000D02*
X34140580Y-122510000D01*
%TO.C,C21*%
X38140580Y-122510000D02*
X37859420Y-122510000D01*
X38140580Y-121490000D02*
X37859420Y-121490000D01*
%TO.C,C20*%
X51859420Y-121490000D02*
X52140580Y-121490000D01*
X51859420Y-122510000D02*
X52140580Y-122510000D01*
%TO.C,C19*%
X55640580Y-122510000D02*
X55359420Y-122510000D01*
X55640580Y-121490000D02*
X55359420Y-121490000D01*
%TO.C,C18*%
X43859420Y-95990000D02*
X44140580Y-95990000D01*
X43859420Y-97010000D02*
X44140580Y-97010000D01*
%TO.C,C17*%
X116259420Y-79990000D02*
X116540580Y-79990000D01*
X116259420Y-81010000D02*
X116540580Y-81010000D01*
%TO.C,C16*%
X120540580Y-85810000D02*
X120259420Y-85810000D01*
X120540580Y-84790000D02*
X120259420Y-84790000D01*
%TO.C,C15*%
X78510000Y-70559420D02*
X78510000Y-70840580D01*
X77490000Y-70559420D02*
X77490000Y-70840580D01*
%TO.C,C13*%
X102959420Y-55490000D02*
X103240580Y-55490000D01*
X102959420Y-56510000D02*
X103240580Y-56510000D01*
%TO.C,C12*%
X30410000Y-83659420D02*
X30410000Y-83940580D01*
X29390000Y-83659420D02*
X29390000Y-83940580D01*
%TO.C,C11*%
X116910000Y-52859420D02*
X116910000Y-53140580D01*
X115890000Y-52859420D02*
X115890000Y-53140580D01*
%TO.C,C10*%
X32935000Y-83538748D02*
X32935000Y-84061252D01*
X31465000Y-83538748D02*
X31465000Y-84061252D01*
%TO.C,C9*%
X111390000Y-53240580D02*
X111390000Y-52959420D01*
X112410000Y-53240580D02*
X112410000Y-52959420D01*
%TO.C,C8*%
X63790000Y-53040580D02*
X63790000Y-52759420D01*
X64810000Y-53040580D02*
X64810000Y-52759420D01*
%TO.C,C7*%
X25490000Y-80140580D02*
X25490000Y-79859420D01*
X26510000Y-80140580D02*
X26510000Y-79859420D01*
%TO.C,C6*%
X106010000Y-52859420D02*
X106010000Y-53140580D01*
X104990000Y-52859420D02*
X104990000Y-53140580D01*
%TO.C,C5*%
X19361252Y-79135000D02*
X18838748Y-79135000D01*
X19361252Y-77665000D02*
X18838748Y-77665000D01*
%TO.C,C4*%
X84359420Y-55490000D02*
X84640580Y-55490000D01*
X84359420Y-56510000D02*
X84640580Y-56510000D01*
%TO.C,C3*%
X122290000Y-53140580D02*
X122290000Y-52859420D01*
X123310000Y-53140580D02*
X123310000Y-52859420D01*
%TO.C,C2*%
X53190000Y-53040580D02*
X53190000Y-52759420D01*
X54210000Y-53040580D02*
X54210000Y-52759420D01*
%TD*%
M02*
