G04 #@! TF.GenerationSoftware,KiCad,Pcbnew,7.0.2-6a45011f42~172~ubuntu22.04.1*
G04 #@! TF.CreationDate,2023-05-14T21:05:51-06:00*
G04 #@! TF.ProjectId,colordance-brain,636f6c6f-7264-4616-9e63-652d62726169,rev?*
G04 #@! TF.SameCoordinates,Original*
G04 #@! TF.FileFunction,Legend,Bot*
G04 #@! TF.FilePolarity,Positive*
%FSLAX46Y46*%
G04 Gerber Fmt 4.6, Leading zero omitted, Abs format (unit mm)*
G04 Created by KiCad (PCBNEW 7.0.2-6a45011f42~172~ubuntu22.04.1) date 2023-05-14 21:05:51*
%MOMM*%
%LPD*%
G01*
G04 APERTURE LIST*
G04 Aperture macros list*
%AMRoundRect*
0 Rectangle with rounded corners*
0 $1 Rounding radius*
0 $2 $3 $4 $5 $6 $7 $8 $9 X,Y pos of 4 corners*
0 Add a 4 corners polygon primitive as box body*
4,1,4,$2,$3,$4,$5,$6,$7,$8,$9,$2,$3,0*
0 Add four circle primitives for the rounded corners*
1,1,$1+$1,$2,$3*
1,1,$1+$1,$4,$5*
1,1,$1+$1,$6,$7*
1,1,$1+$1,$8,$9*
0 Add four rect primitives between the rounded corners*
20,1,$1+$1,$2,$3,$4,$5,0*
20,1,$1+$1,$4,$5,$6,$7,0*
20,1,$1+$1,$6,$7,$8,$9,0*
20,1,$1+$1,$8,$9,$2,$3,0*%
G04 Aperture macros list end*
%ADD10C,0.150000*%
%ADD11C,0.250000*%
%ADD12C,0.120000*%
%ADD13RoundRect,0.150000X0.825000X0.150000X-0.825000X0.150000X-0.825000X-0.150000X0.825000X-0.150000X0*%
%ADD14R,1.700000X1.700000*%
%ADD15O,1.700000X1.700000*%
%ADD16C,3.200000*%
%ADD17R,1.500000X1.500000*%
%ADD18C,1.500000*%
%ADD19R,1.600000X1.600000*%
%ADD20C,1.600000*%
%ADD21C,5.200000*%
%ADD22R,2.000000X2.000000*%
%ADD23C,2.000000*%
%ADD24O,6.030000X2.070000*%
%ADD25RoundRect,0.140000X-0.140000X-0.170000X0.140000X-0.170000X0.140000X0.170000X-0.140000X0.170000X0*%
%ADD26RoundRect,0.140000X0.170000X-0.140000X0.170000X0.140000X-0.170000X0.140000X-0.170000X-0.140000X0*%
%ADD27RoundRect,0.225000X-0.250000X0.225000X-0.250000X-0.225000X0.250000X-0.225000X0.250000X0.225000X0*%
%ADD28RoundRect,0.140000X-0.170000X0.140000X-0.170000X-0.140000X0.170000X-0.140000X0.170000X0.140000X0*%
%ADD29RoundRect,0.140000X0.140000X0.170000X-0.140000X0.170000X-0.140000X-0.170000X0.140000X-0.170000X0*%
%ADD30RoundRect,0.225000X0.225000X0.250000X-0.225000X0.250000X-0.225000X-0.250000X0.225000X-0.250000X0*%
%ADD31RoundRect,0.225000X-0.225000X-0.250000X0.225000X-0.250000X0.225000X0.250000X-0.225000X0.250000X0*%
%ADD32R,2.300000X2.500000*%
%ADD33RoundRect,0.200000X-0.200000X-0.275000X0.200000X-0.275000X0.200000X0.275000X-0.200000X0.275000X0*%
%ADD34RoundRect,0.200000X0.200000X0.275000X-0.200000X0.275000X-0.200000X-0.275000X0.200000X-0.275000X0*%
%ADD35RoundRect,0.150000X-0.825000X-0.150000X0.825000X-0.150000X0.825000X0.150000X-0.825000X0.150000X0*%
%ADD36RoundRect,0.150000X0.512500X0.150000X-0.512500X0.150000X-0.512500X-0.150000X0.512500X-0.150000X0*%
%ADD37RoundRect,0.250000X1.000000X0.650000X-1.000000X0.650000X-1.000000X-0.650000X1.000000X-0.650000X0*%
%ADD38R,2.500000X2.300000*%
%ADD39RoundRect,0.250000X0.250000X0.475000X-0.250000X0.475000X-0.250000X-0.475000X0.250000X-0.475000X0*%
%ADD40RoundRect,0.200000X-0.275000X0.200000X-0.275000X-0.200000X0.275000X-0.200000X0.275000X0.200000X0*%
%ADD41RoundRect,0.200000X0.275000X-0.200000X0.275000X0.200000X-0.275000X0.200000X-0.275000X-0.200000X0*%
%ADD42R,3.500000X2.400000*%
%ADD43RoundRect,0.250000X1.450000X-0.312500X1.450000X0.312500X-1.450000X0.312500X-1.450000X-0.312500X0*%
G04 APERTURE END LIST*
D10*
X32114285Y-116357857D02*
X32066666Y-116310238D01*
X32066666Y-116310238D02*
X31971428Y-116262619D01*
X31971428Y-116262619D02*
X31733333Y-116262619D01*
X31733333Y-116262619D02*
X31638095Y-116310238D01*
X31638095Y-116310238D02*
X31590476Y-116357857D01*
X31590476Y-116357857D02*
X31542857Y-116453095D01*
X31542857Y-116453095D02*
X31542857Y-116548333D01*
X31542857Y-116548333D02*
X31590476Y-116691190D01*
X31590476Y-116691190D02*
X32161904Y-117262619D01*
X32161904Y-117262619D02*
X31542857Y-117262619D01*
X30923809Y-116786428D02*
X30923809Y-117262619D01*
X31257142Y-116262619D02*
X30923809Y-116786428D01*
X30923809Y-116786428D02*
X30590476Y-116262619D01*
X38438094Y-111462619D02*
X38438094Y-110462619D01*
X38438094Y-110462619D02*
X38057142Y-110462619D01*
X38057142Y-110462619D02*
X37961904Y-110510238D01*
X37961904Y-110510238D02*
X37914285Y-110557857D01*
X37914285Y-110557857D02*
X37866666Y-110653095D01*
X37866666Y-110653095D02*
X37866666Y-110795952D01*
X37866666Y-110795952D02*
X37914285Y-110891190D01*
X37914285Y-110891190D02*
X37961904Y-110938809D01*
X37961904Y-110938809D02*
X38057142Y-110986428D01*
X38057142Y-110986428D02*
X38438094Y-110986428D01*
X37247618Y-110462619D02*
X37152380Y-110462619D01*
X37152380Y-110462619D02*
X37057142Y-110510238D01*
X37057142Y-110510238D02*
X37009523Y-110557857D01*
X37009523Y-110557857D02*
X36961904Y-110653095D01*
X36961904Y-110653095D02*
X36914285Y-110843571D01*
X36914285Y-110843571D02*
X36914285Y-111081666D01*
X36914285Y-111081666D02*
X36961904Y-111272142D01*
X36961904Y-111272142D02*
X37009523Y-111367380D01*
X37009523Y-111367380D02*
X37057142Y-111415000D01*
X37057142Y-111415000D02*
X37152380Y-111462619D01*
X37152380Y-111462619D02*
X37247618Y-111462619D01*
X37247618Y-111462619D02*
X37342856Y-111415000D01*
X37342856Y-111415000D02*
X37390475Y-111367380D01*
X37390475Y-111367380D02*
X37438094Y-111272142D01*
X37438094Y-111272142D02*
X37485713Y-111081666D01*
X37485713Y-111081666D02*
X37485713Y-110843571D01*
X37485713Y-110843571D02*
X37438094Y-110653095D01*
X37438094Y-110653095D02*
X37390475Y-110557857D01*
X37390475Y-110557857D02*
X37342856Y-110510238D01*
X37342856Y-110510238D02*
X37247618Y-110462619D01*
X40490476Y-111262619D02*
X41061904Y-111262619D01*
X40776190Y-111262619D02*
X40776190Y-110262619D01*
X40776190Y-110262619D02*
X40871428Y-110405476D01*
X40871428Y-110405476D02*
X40966666Y-110500714D01*
X40966666Y-110500714D02*
X41061904Y-110548333D01*
X40157142Y-110262619D02*
X39490476Y-110262619D01*
X39490476Y-110262619D02*
X40157142Y-111262619D01*
X40157142Y-111262619D02*
X39490476Y-111262619D01*
X33461904Y-110457857D02*
X33414285Y-110410238D01*
X33414285Y-110410238D02*
X33319047Y-110362619D01*
X33319047Y-110362619D02*
X33080952Y-110362619D01*
X33080952Y-110362619D02*
X32985714Y-110410238D01*
X32985714Y-110410238D02*
X32938095Y-110457857D01*
X32938095Y-110457857D02*
X32890476Y-110553095D01*
X32890476Y-110553095D02*
X32890476Y-110648333D01*
X32890476Y-110648333D02*
X32938095Y-110791190D01*
X32938095Y-110791190D02*
X33509523Y-111362619D01*
X33509523Y-111362619D02*
X32890476Y-111362619D01*
X32557142Y-110362619D02*
X31890476Y-110362619D01*
X31890476Y-110362619D02*
X32557142Y-111362619D01*
X32557142Y-111362619D02*
X31890476Y-111362619D01*
X33738095Y-116210238D02*
X33833333Y-116162619D01*
X33833333Y-116162619D02*
X33976190Y-116162619D01*
X33976190Y-116162619D02*
X34119047Y-116210238D01*
X34119047Y-116210238D02*
X34214285Y-116305476D01*
X34214285Y-116305476D02*
X34261904Y-116400714D01*
X34261904Y-116400714D02*
X34309523Y-116591190D01*
X34309523Y-116591190D02*
X34309523Y-116734047D01*
X34309523Y-116734047D02*
X34261904Y-116924523D01*
X34261904Y-116924523D02*
X34214285Y-117019761D01*
X34214285Y-117019761D02*
X34119047Y-117115000D01*
X34119047Y-117115000D02*
X33976190Y-117162619D01*
X33976190Y-117162619D02*
X33880952Y-117162619D01*
X33880952Y-117162619D02*
X33738095Y-117115000D01*
X33738095Y-117115000D02*
X33690476Y-117067380D01*
X33690476Y-117067380D02*
X33690476Y-116734047D01*
X33690476Y-116734047D02*
X33880952Y-116734047D01*
X92838095Y-61310238D02*
X92933333Y-61262619D01*
X92933333Y-61262619D02*
X93076190Y-61262619D01*
X93076190Y-61262619D02*
X93219047Y-61310238D01*
X93219047Y-61310238D02*
X93314285Y-61405476D01*
X93314285Y-61405476D02*
X93361904Y-61500714D01*
X93361904Y-61500714D02*
X93409523Y-61691190D01*
X93409523Y-61691190D02*
X93409523Y-61834047D01*
X93409523Y-61834047D02*
X93361904Y-62024523D01*
X93361904Y-62024523D02*
X93314285Y-62119761D01*
X93314285Y-62119761D02*
X93219047Y-62215000D01*
X93219047Y-62215000D02*
X93076190Y-62262619D01*
X93076190Y-62262619D02*
X92980952Y-62262619D01*
X92980952Y-62262619D02*
X92838095Y-62215000D01*
X92838095Y-62215000D02*
X92790476Y-62167380D01*
X92790476Y-62167380D02*
X92790476Y-61834047D01*
X92790476Y-61834047D02*
X92980952Y-61834047D01*
D11*
X32323809Y-69293333D02*
X30800000Y-69293333D01*
X31561904Y-70055238D02*
X31561904Y-68531428D01*
D10*
X35038095Y-110410238D02*
X35133333Y-110362619D01*
X35133333Y-110362619D02*
X35276190Y-110362619D01*
X35276190Y-110362619D02*
X35419047Y-110410238D01*
X35419047Y-110410238D02*
X35514285Y-110505476D01*
X35514285Y-110505476D02*
X35561904Y-110600714D01*
X35561904Y-110600714D02*
X35609523Y-110791190D01*
X35609523Y-110791190D02*
X35609523Y-110934047D01*
X35609523Y-110934047D02*
X35561904Y-111124523D01*
X35561904Y-111124523D02*
X35514285Y-111219761D01*
X35514285Y-111219761D02*
X35419047Y-111315000D01*
X35419047Y-111315000D02*
X35276190Y-111362619D01*
X35276190Y-111362619D02*
X35180952Y-111362619D01*
X35180952Y-111362619D02*
X35038095Y-111315000D01*
X35038095Y-111315000D02*
X34990476Y-111267380D01*
X34990476Y-111267380D02*
X34990476Y-110934047D01*
X34990476Y-110934047D02*
X35180952Y-110934047D01*
X87199999Y-62286428D02*
X87199999Y-62762619D01*
X87533332Y-61762619D02*
X87199999Y-62286428D01*
X87199999Y-62286428D02*
X86866666Y-61762619D01*
X97238094Y-59576904D02*
X96761904Y-59576904D01*
X97333332Y-59862619D02*
X96999999Y-58862619D01*
X96999999Y-58862619D02*
X96666666Y-59862619D01*
X39142857Y-117162619D02*
X39714285Y-117162619D01*
X39428571Y-117162619D02*
X39428571Y-116162619D01*
X39428571Y-116162619D02*
X39523809Y-116305476D01*
X39523809Y-116305476D02*
X39619047Y-116400714D01*
X39619047Y-116400714D02*
X39714285Y-116448333D01*
X38523809Y-116686428D02*
X38523809Y-117162619D01*
X38857142Y-116162619D02*
X38523809Y-116686428D01*
X38523809Y-116686428D02*
X38190476Y-116162619D01*
X95528571Y-65138809D02*
X95385714Y-65186428D01*
X95385714Y-65186428D02*
X95338095Y-65234047D01*
X95338095Y-65234047D02*
X95290476Y-65329285D01*
X95290476Y-65329285D02*
X95290476Y-65472142D01*
X95290476Y-65472142D02*
X95338095Y-65567380D01*
X95338095Y-65567380D02*
X95385714Y-65615000D01*
X95385714Y-65615000D02*
X95480952Y-65662619D01*
X95480952Y-65662619D02*
X95861904Y-65662619D01*
X95861904Y-65662619D02*
X95861904Y-64662619D01*
X95861904Y-64662619D02*
X95528571Y-64662619D01*
X95528571Y-64662619D02*
X95433333Y-64710238D01*
X95433333Y-64710238D02*
X95385714Y-64757857D01*
X95385714Y-64757857D02*
X95338095Y-64853095D01*
X95338095Y-64853095D02*
X95338095Y-64948333D01*
X95338095Y-64948333D02*
X95385714Y-65043571D01*
X95385714Y-65043571D02*
X95433333Y-65091190D01*
X95433333Y-65091190D02*
X95528571Y-65138809D01*
X95528571Y-65138809D02*
X95861904Y-65138809D01*
X37238094Y-117162619D02*
X37238094Y-116162619D01*
X37238094Y-116162619D02*
X36857142Y-116162619D01*
X36857142Y-116162619D02*
X36761904Y-116210238D01*
X36761904Y-116210238D02*
X36714285Y-116257857D01*
X36714285Y-116257857D02*
X36666666Y-116353095D01*
X36666666Y-116353095D02*
X36666666Y-116495952D01*
X36666666Y-116495952D02*
X36714285Y-116591190D01*
X36714285Y-116591190D02*
X36761904Y-116638809D01*
X36761904Y-116638809D02*
X36857142Y-116686428D01*
X36857142Y-116686428D02*
X37238094Y-116686428D01*
X35714285Y-117162619D02*
X36285713Y-117162619D01*
X35999999Y-117162619D02*
X35999999Y-116162619D01*
X35999999Y-116162619D02*
X36095237Y-116305476D01*
X36095237Y-116305476D02*
X36190475Y-116400714D01*
X36190475Y-116400714D02*
X36285713Y-116448333D01*
D11*
X40523809Y-69293333D02*
X39000000Y-69293333D01*
D10*
X88333332Y-59362619D02*
X87666666Y-59362619D01*
X87666666Y-59362619D02*
X88333332Y-60362619D01*
X88333332Y-60362619D02*
X87666666Y-60362619D01*
D12*
G04 #@! TO.C,U8*
X21900000Y-78740000D02*
X19950000Y-78740000D01*
X21900000Y-83860000D02*
X19950000Y-83860000D01*
X21900000Y-78740000D02*
X25350000Y-78740000D01*
X21900000Y-83860000D02*
X23850000Y-83860000D01*
D10*
G04 #@! TO.C,H1*
X26000000Y-52500000D02*
G75*
G03*
X26000000Y-52500000I-5000000J0D01*
G01*
G04 #@! TO.C,H2*
X143500000Y-124000000D02*
G75*
G03*
X143500000Y-124000000I-5000000J0D01*
G01*
G04 #@! TO.C,H3*
X143500000Y-52500000D02*
G75*
G03*
X143500000Y-52500000I-5000000J0D01*
G01*
G04 #@! TO.C,H4*
X26000000Y-124000000D02*
G75*
G03*
X26000000Y-124000000I-5000000J0D01*
G01*
D12*
G04 #@! TO.C,C2*
X53092164Y-64140000D02*
X53307836Y-64140000D01*
X53092164Y-64860000D02*
X53307836Y-64860000D01*
G04 #@! TO.C,C3*
X121560000Y-53107836D02*
X121560000Y-52892164D01*
X122280000Y-53107836D02*
X122280000Y-52892164D01*
G04 #@! TO.C,C4*
X106010000Y-52859420D02*
X106010000Y-53140580D01*
X104990000Y-52859420D02*
X104990000Y-53140580D01*
G04 #@! TO.C,C8*
X63592164Y-63840000D02*
X63807836Y-63840000D01*
X63592164Y-64560000D02*
X63807836Y-64560000D01*
G04 #@! TO.C,C6*
X111540000Y-53207836D02*
X111540000Y-52992164D01*
X112260000Y-53207836D02*
X112260000Y-52992164D01*
G04 #@! TO.C,C7*
X116030000Y-52859420D02*
X116030000Y-53140580D01*
X115010000Y-52859420D02*
X115010000Y-53140580D01*
G04 #@! TO.C,C10*
X78360000Y-70592164D02*
X78360000Y-70807836D01*
X77640000Y-70592164D02*
X77640000Y-70807836D01*
G04 #@! TO.C,C11*
X120507836Y-85660000D02*
X120292164Y-85660000D01*
X120507836Y-84940000D02*
X120292164Y-84940000D01*
G04 #@! TO.C,C12*
X116292164Y-80140000D02*
X116507836Y-80140000D01*
X116292164Y-80860000D02*
X116507836Y-80860000D01*
G04 #@! TO.C,C15*
X43892164Y-96140000D02*
X44107836Y-96140000D01*
X43892164Y-96860000D02*
X44107836Y-96860000D01*
G04 #@! TO.C,C16*
X55440580Y-120110000D02*
X55159420Y-120110000D01*
X55440580Y-119090000D02*
X55159420Y-119090000D01*
G04 #@! TO.C,C17*
X51659420Y-119090000D02*
X51940580Y-119090000D01*
X51659420Y-120110000D02*
X51940580Y-120110000D01*
G04 #@! TO.C,C20*
X114892164Y-96040000D02*
X115107836Y-96040000D01*
X114892164Y-96760000D02*
X115107836Y-96760000D01*
G04 #@! TO.C,C21*
X125440580Y-120110000D02*
X125159420Y-120110000D01*
X125440580Y-119090000D02*
X125159420Y-119090000D01*
G04 #@! TO.C,C22*
X121659420Y-119090000D02*
X121940580Y-119090000D01*
X121659420Y-120110000D02*
X121940580Y-120110000D01*
G04 #@! TO.C,C25*
X79107836Y-109860000D02*
X78892164Y-109860000D01*
X79107836Y-109140000D02*
X78892164Y-109140000D01*
G04 #@! TO.C,C26*
X73040580Y-120110000D02*
X72759420Y-120110000D01*
X73040580Y-119090000D02*
X72759420Y-119090000D01*
G04 #@! TO.C,C27*
X68759420Y-119090000D02*
X69040580Y-119090000D01*
X68759420Y-120110000D02*
X69040580Y-120110000D01*
G04 #@! TO.C,D9*
X49850000Y-109550000D02*
X49850000Y-103850000D01*
X54150000Y-109550000D02*
X49850000Y-109550000D01*
X54150000Y-109550000D02*
X54150000Y-103850000D01*
G04 #@! TO.C,D10*
X60150000Y-102450000D02*
X60150000Y-108150000D01*
X55850000Y-102450000D02*
X60150000Y-102450000D01*
X55850000Y-102450000D02*
X55850000Y-108150000D01*
G04 #@! TO.C,D11*
X55850000Y-101550000D02*
X55850000Y-95850000D01*
X60150000Y-101550000D02*
X55850000Y-101550000D01*
X60150000Y-101550000D02*
X60150000Y-95850000D01*
G04 #@! TO.C,D12*
X32150000Y-102450000D02*
X32150000Y-108150000D01*
X27850000Y-102450000D02*
X32150000Y-102450000D01*
X27850000Y-102450000D02*
X27850000Y-108150000D01*
G04 #@! TO.C,D13*
X32150000Y-94450000D02*
X32150000Y-100150000D01*
X27850000Y-94450000D02*
X32150000Y-94450000D01*
X27850000Y-94450000D02*
X27850000Y-100150000D01*
G04 #@! TO.C,D14*
X33850000Y-101550000D02*
X33850000Y-95850000D01*
X38150000Y-101550000D02*
X33850000Y-101550000D01*
X38150000Y-101550000D02*
X38150000Y-95850000D01*
G04 #@! TO.C,D15*
X38150000Y-102450000D02*
X38150000Y-108150000D01*
X33850000Y-102450000D02*
X38150000Y-102450000D01*
X33850000Y-102450000D02*
X33850000Y-108150000D01*
G04 #@! TO.C,D16*
X125150000Y-102450000D02*
X125150000Y-108150000D01*
X120850000Y-102450000D02*
X125150000Y-102450000D01*
X120850000Y-102450000D02*
X120850000Y-108150000D01*
G04 #@! TO.C,D17*
X125150000Y-94500000D02*
X125150000Y-100200000D01*
X120850000Y-94500000D02*
X125150000Y-94500000D01*
X120850000Y-94500000D02*
X120850000Y-100200000D01*
G04 #@! TO.C,D18*
X126850000Y-101550000D02*
X126850000Y-95850000D01*
X131150000Y-101550000D02*
X126850000Y-101550000D01*
X131150000Y-101550000D02*
X131150000Y-95850000D01*
G04 #@! TO.C,D19*
X131150000Y-102450000D02*
X131150000Y-108150000D01*
X126850000Y-102450000D02*
X131150000Y-102450000D01*
X126850000Y-102450000D02*
X126850000Y-108150000D01*
G04 #@! TO.C,D20*
X103150000Y-102450000D02*
X103150000Y-108150000D01*
X98850000Y-102450000D02*
X103150000Y-102450000D01*
X98850000Y-102450000D02*
X98850000Y-108150000D01*
G04 #@! TO.C,D22*
X109150000Y-102450000D02*
X109150000Y-108150000D01*
X104850000Y-102450000D02*
X109150000Y-102450000D01*
X104850000Y-102450000D02*
X104850000Y-108150000D01*
G04 #@! TO.C,D24*
X62850000Y-101550000D02*
X62850000Y-95850000D01*
X67150000Y-101550000D02*
X62850000Y-101550000D01*
X67150000Y-101550000D02*
X67150000Y-95850000D01*
G04 #@! TO.C,D26*
X73150000Y-102450000D02*
X73150000Y-108150000D01*
X68850000Y-102450000D02*
X73150000Y-102450000D01*
X68850000Y-102450000D02*
X68850000Y-108150000D01*
G04 #@! TO.C,D27*
X68850000Y-101550000D02*
X68850000Y-95850000D01*
X73150000Y-101550000D02*
X68850000Y-101550000D01*
X73150000Y-101550000D02*
X73150000Y-95850000D01*
G04 #@! TO.C,D28*
X85850000Y-101550000D02*
X85850000Y-95850000D01*
X90150000Y-101550000D02*
X85850000Y-101550000D01*
X90150000Y-101550000D02*
X90150000Y-95850000D01*
G04 #@! TO.C,D29*
X85850000Y-109550000D02*
X85850000Y-103850000D01*
X90150000Y-109550000D02*
X85850000Y-109550000D01*
X90150000Y-109550000D02*
X90150000Y-103850000D01*
G04 #@! TO.C,D31*
X91850000Y-101550000D02*
X91850000Y-95850000D01*
X96150000Y-101550000D02*
X91850000Y-101550000D01*
X96150000Y-101550000D02*
X96150000Y-95850000D01*
G04 #@! TO.C,R1*
X29537742Y-91677500D02*
X30012258Y-91677500D01*
X29537742Y-92722500D02*
X30012258Y-92722500D01*
G04 #@! TO.C,R2*
X44862742Y-72277500D02*
X45337258Y-72277500D01*
X44862742Y-73322500D02*
X45337258Y-73322500D01*
G04 #@! TO.C,R3*
X45237258Y-70922500D02*
X44762742Y-70922500D01*
X45237258Y-69877500D02*
X44762742Y-69877500D01*
G04 #@! TO.C,U7*
X79000000Y-97940000D02*
X77050000Y-97940000D01*
X79000000Y-97940000D02*
X80950000Y-97940000D01*
X79000000Y-108060000D02*
X75550000Y-108060000D01*
X79000000Y-108060000D02*
X80950000Y-108060000D01*
G04 #@! TO.C,U5*
X44000000Y-108060000D02*
X45950000Y-108060000D01*
X44000000Y-108060000D02*
X42050000Y-108060000D01*
X44000000Y-97940000D02*
X47450000Y-97940000D01*
X44000000Y-97940000D02*
X42050000Y-97940000D01*
G04 #@! TO.C,U6*
X115000000Y-108060000D02*
X116950000Y-108060000D01*
X115000000Y-108060000D02*
X113050000Y-108060000D01*
X115000000Y-97940000D02*
X118450000Y-97940000D01*
X115000000Y-97940000D02*
X113050000Y-97940000D01*
G04 #@! TO.C,D25*
X62850000Y-109550000D02*
X62850000Y-103850000D01*
X67150000Y-109550000D02*
X62850000Y-109550000D01*
X67150000Y-109550000D02*
X67150000Y-103850000D01*
G04 #@! TO.C,D30*
X96150000Y-102450000D02*
X96150000Y-108150000D01*
X91850000Y-102450000D02*
X96150000Y-102450000D01*
X91850000Y-102450000D02*
X91850000Y-108150000D01*
G04 #@! TO.C,D23*
X104850000Y-101550000D02*
X104850000Y-95850000D01*
X109150000Y-101550000D02*
X104850000Y-101550000D01*
X109150000Y-101550000D02*
X109150000Y-95850000D01*
G04 #@! TO.C,D21*
X103150000Y-94450000D02*
X103150000Y-100150000D01*
X98850000Y-94450000D02*
X103150000Y-94450000D01*
X98850000Y-94450000D02*
X98850000Y-100150000D01*
G04 #@! TO.C,C5*
X45107836Y-68960000D02*
X44892164Y-68960000D01*
X45107836Y-68240000D02*
X44892164Y-68240000D01*
G04 #@! TO.C,D8*
X49850000Y-101550000D02*
X49850000Y-95850000D01*
X54150000Y-101550000D02*
X49850000Y-101550000D01*
X54150000Y-101550000D02*
X54150000Y-95850000D01*
G04 #@! TO.C,U1*
X52600000Y-63560000D02*
X53400000Y-63560000D01*
X52600000Y-63560000D02*
X51800000Y-63560000D01*
X52600000Y-60440000D02*
X54400000Y-60440000D01*
X52600000Y-60440000D02*
X51800000Y-60440000D01*
G04 #@! TO.C,U2*
X63000000Y-63360000D02*
X63800000Y-63360000D01*
X63000000Y-63360000D02*
X62200000Y-63360000D01*
X63000000Y-60240000D02*
X64800000Y-60240000D01*
X63000000Y-60240000D02*
X62200000Y-60240000D01*
G04 #@! TO.C,C19*
X33859420Y-119090000D02*
X34140580Y-119090000D01*
X33859420Y-120110000D02*
X34140580Y-120110000D01*
G04 #@! TO.C,D34*
X30310000Y-78050000D02*
X24800000Y-78050000D01*
X30310000Y-74750000D02*
X30310000Y-78050000D01*
X30310000Y-74750000D02*
X24800000Y-74750000D01*
G04 #@! TO.C,D32*
X23000000Y-67150000D02*
X17300000Y-67150000D01*
X23000000Y-62850000D02*
X23000000Y-67150000D01*
X23000000Y-62850000D02*
X17300000Y-62850000D01*
G04 #@! TO.C,R4*
X102637258Y-58122500D02*
X102162742Y-58122500D01*
X102637258Y-57077500D02*
X102162742Y-57077500D01*
G04 #@! TO.C,R17*
X125537258Y-118422500D02*
X125062742Y-118422500D01*
X125537258Y-117377500D02*
X125062742Y-117377500D01*
G04 #@! TO.C,C31*
X21761252Y-76935000D02*
X21238748Y-76935000D01*
X21761252Y-75465000D02*
X21238748Y-75465000D01*
G04 #@! TO.C,D35*
X24450000Y-96750000D02*
X18750000Y-96750000D01*
X24450000Y-92450000D02*
X24450000Y-96750000D01*
X24450000Y-92450000D02*
X18750000Y-92450000D01*
G04 #@! TO.C,R15*
X37737258Y-118422500D02*
X37262742Y-118422500D01*
X37737258Y-117377500D02*
X37262742Y-117377500D01*
G04 #@! TO.C,R25*
X70412258Y-63122500D02*
X69937742Y-63122500D01*
X70412258Y-62077500D02*
X69937742Y-62077500D01*
G04 #@! TO.C,C14*
X98440580Y-64610000D02*
X98159420Y-64610000D01*
X98440580Y-63590000D02*
X98159420Y-63590000D01*
G04 #@! TO.C,D4*
X103550000Y-52650000D02*
X97850000Y-52650000D01*
X103550000Y-48350000D02*
X103550000Y-52650000D01*
X103550000Y-48350000D02*
X97850000Y-48350000D01*
G04 #@! TO.C,C32*
X22107836Y-78160000D02*
X21892164Y-78160000D01*
X22107836Y-77440000D02*
X21892164Y-77440000D01*
G04 #@! TO.C,R27*
X128422500Y-52562742D02*
X128422500Y-53037258D01*
X127377500Y-52562742D02*
X127377500Y-53037258D01*
G04 #@! TO.C,C13*
X74507836Y-58760000D02*
X74292164Y-58760000D01*
X74507836Y-58040000D02*
X74292164Y-58040000D01*
G04 #@! TO.C,C37*
X126710000Y-52659420D02*
X126710000Y-52940580D01*
X125690000Y-52659420D02*
X125690000Y-52940580D01*
G04 #@! TO.C,R26*
X69937742Y-63677500D02*
X70412258Y-63677500D01*
X69937742Y-64722500D02*
X70412258Y-64722500D01*
G04 #@! TO.C,R23*
X90337258Y-118422500D02*
X89862742Y-118422500D01*
X90337258Y-117377500D02*
X89862742Y-117377500D01*
G04 #@! TO.C,D7*
X86550000Y-56350000D02*
X86550000Y-62050000D01*
X82250000Y-56350000D02*
X86550000Y-56350000D01*
X82250000Y-56350000D02*
X82250000Y-62050000D01*
G04 #@! TO.C,R9*
X24262742Y-108777500D02*
X24737258Y-108777500D01*
X24262742Y-109822500D02*
X24737258Y-109822500D01*
G04 #@! TO.C,R13*
X55537258Y-118422500D02*
X55062742Y-118422500D01*
X55537258Y-117377500D02*
X55062742Y-117377500D01*
G04 #@! TO.C,C18*
X37640580Y-120110000D02*
X37359420Y-120110000D01*
X37640580Y-119090000D02*
X37359420Y-119090000D01*
G04 #@! TO.C,R11*
X59577500Y-59637258D02*
X59577500Y-59162742D01*
X60622500Y-59637258D02*
X60622500Y-59162742D01*
G04 #@! TO.C,R12*
X99522500Y-61562742D02*
X99522500Y-62037258D01*
X98477500Y-61562742D02*
X98477500Y-62037258D01*
G04 #@! TO.C,C9*
X86892164Y-64940000D02*
X87107836Y-64940000D01*
X86892164Y-65660000D02*
X87107836Y-65660000D01*
G04 #@! TO.C,U4*
X75700000Y-59440000D02*
X73750000Y-59440000D01*
X75700000Y-59440000D02*
X77650000Y-59440000D01*
X75700000Y-64560000D02*
X72250000Y-64560000D01*
X75700000Y-64560000D02*
X77650000Y-64560000D01*
G04 #@! TO.C,R19*
X107837258Y-118422500D02*
X107362742Y-118422500D01*
X107837258Y-117377500D02*
X107362742Y-117377500D01*
D10*
G04 #@! TO.C,L1*
X26900000Y-78600000D02*
X35500000Y-78600000D01*
X35500000Y-78600000D02*
X35500000Y-88200000D01*
X35500000Y-88200000D02*
X26900000Y-88200000D01*
X26900000Y-88200000D02*
X26900000Y-78600000D01*
D12*
G04 #@! TO.C,R22*
X68662742Y-117377500D02*
X69137258Y-117377500D01*
X68662742Y-118422500D02*
X69137258Y-118422500D01*
G04 #@! TO.C,R18*
X121562742Y-117377500D02*
X122037258Y-117377500D01*
X121562742Y-118422500D02*
X122037258Y-118422500D01*
G04 #@! TO.C,C33*
X22061252Y-87135000D02*
X21538748Y-87135000D01*
X22061252Y-85665000D02*
X21538748Y-85665000D01*
G04 #@! TO.C,C23*
X107740580Y-120110000D02*
X107459420Y-120110000D01*
X107740580Y-119090000D02*
X107459420Y-119090000D01*
G04 #@! TO.C,R8*
X72322500Y-52862742D02*
X72322500Y-53337258D01*
X71277500Y-52862742D02*
X71277500Y-53337258D01*
G04 #@! TO.C,R14*
X51562742Y-117377500D02*
X52037258Y-117377500D01*
X51562742Y-118422500D02*
X52037258Y-118422500D01*
G04 #@! TO.C,C28*
X90240580Y-120110000D02*
X89959420Y-120110000D01*
X90240580Y-119090000D02*
X89959420Y-119090000D01*
G04 #@! TO.C,R7*
X48837258Y-73322500D02*
X48362742Y-73322500D01*
X48837258Y-72277500D02*
X48362742Y-72277500D01*
G04 #@! TO.C,C34*
X21927836Y-85160000D02*
X21712164Y-85160000D01*
X21927836Y-84440000D02*
X21712164Y-84440000D01*
G04 #@! TO.C,R20*
X103862742Y-117377500D02*
X104337258Y-117377500D01*
X103862742Y-118422500D02*
X104337258Y-118422500D01*
G04 #@! TO.C,D33*
X22810000Y-62250000D02*
X17300000Y-62250000D01*
X22810000Y-58950000D02*
X22810000Y-62250000D01*
X22810000Y-58950000D02*
X17300000Y-58950000D01*
G04 #@! TO.C,R5*
X49177500Y-60037258D02*
X49177500Y-59562742D01*
X50222500Y-60037258D02*
X50222500Y-59562742D01*
G04 #@! TO.C,C24*
X103959420Y-119090000D02*
X104240580Y-119090000D01*
X103959420Y-120110000D02*
X104240580Y-120110000D01*
G04 #@! TO.C,R6*
X107822500Y-52762742D02*
X107822500Y-53237258D01*
X106777500Y-52762742D02*
X106777500Y-53237258D01*
G04 #@! TO.C,C29*
X86559420Y-119090000D02*
X86840580Y-119090000D01*
X86559420Y-120110000D02*
X86840580Y-120110000D01*
G04 #@! TO.C,R24*
X86462742Y-117377500D02*
X86937258Y-117377500D01*
X86462742Y-118422500D02*
X86937258Y-118422500D01*
G04 #@! TO.C,R21*
X73137258Y-118422500D02*
X72662742Y-118422500D01*
X73137258Y-117377500D02*
X72662742Y-117377500D01*
G04 #@! TO.C,C1*
X81240000Y-52807836D02*
X81240000Y-52592164D01*
X81960000Y-52807836D02*
X81960000Y-52592164D01*
G04 #@! TO.C,D2*
X109050000Y-63150000D02*
X103350000Y-63150000D01*
X109050000Y-58850000D02*
X109050000Y-63150000D01*
X109050000Y-58850000D02*
X103350000Y-58850000D01*
G04 #@! TO.C,R10*
X117742500Y-52762742D02*
X117742500Y-53237258D01*
X116697500Y-52762742D02*
X116697500Y-53237258D01*
G04 #@! TO.C,D5*
X95950000Y-54750000D02*
X90250000Y-54750000D01*
X95950000Y-50450000D02*
X95950000Y-54750000D01*
X95950000Y-50450000D02*
X90250000Y-50450000D01*
G04 #@! TO.C,R16*
X33762742Y-117377500D02*
X34237258Y-117377500D01*
X33762742Y-118422500D02*
X34237258Y-118422500D01*
G04 #@! TO.C,D3*
X79950000Y-54250000D02*
X74250000Y-54250000D01*
X79950000Y-49950000D02*
X79950000Y-54250000D01*
X79950000Y-49950000D02*
X74250000Y-49950000D01*
G04 #@! TO.C,D6*
X88850000Y-55250000D02*
X94550000Y-55250000D01*
X88850000Y-59550000D02*
X88850000Y-55250000D01*
X88850000Y-59550000D02*
X94550000Y-59550000D01*
G04 #@! TO.C,C36*
X130840000Y-53307836D02*
X130840000Y-53092164D01*
X131560000Y-53307836D02*
X131560000Y-53092164D01*
G04 #@! TO.C,TH1*
X23890000Y-65586252D02*
X23890000Y-62813748D01*
X27310000Y-65586252D02*
X27310000Y-62813748D01*
G04 #@! TD*
%LPC*%
D13*
G04 #@! TO.C,U8*
X24375000Y-79395000D03*
X24375000Y-80665000D03*
X24375000Y-81935000D03*
X24375000Y-83205000D03*
X19425000Y-83205000D03*
X19425000Y-81935000D03*
X19425000Y-80665000D03*
X19425000Y-79395000D03*
G04 #@! TD*
D14*
G04 #@! TO.C,J2*
X48000000Y-56000000D03*
D15*
X50540000Y-56000000D03*
X53080000Y-56000000D03*
G04 #@! TD*
D14*
G04 #@! TO.C,J5*
X58500000Y-56000000D03*
D15*
X61040000Y-56000000D03*
X63580000Y-56000000D03*
G04 #@! TD*
D14*
G04 #@! TO.C,J4*
X116120000Y-56000000D03*
D15*
X118660000Y-56000000D03*
X121200000Y-56000000D03*
G04 #@! TD*
D14*
G04 #@! TO.C,J6*
X135000000Y-69000000D03*
D15*
X135000000Y-71540000D03*
X135000000Y-74080000D03*
X135000000Y-76620000D03*
X135000000Y-79160000D03*
G04 #@! TD*
D16*
G04 #@! TO.C,J10*
X117875000Y-121381924D03*
X129305000Y-121381924D03*
D17*
X119145000Y-115031924D03*
D18*
X120415000Y-112491924D03*
X121685000Y-115031924D03*
X122955000Y-112491924D03*
X124225000Y-115031924D03*
X125495000Y-112491924D03*
X126765000Y-115031924D03*
X128035000Y-112491924D03*
G04 #@! TD*
D16*
G04 #@! TO.C,J12*
X65185000Y-121391924D03*
X76615000Y-121391924D03*
D17*
X66455000Y-115041924D03*
D18*
X67725000Y-112501924D03*
X68995000Y-115041924D03*
X70265000Y-112501924D03*
X71535000Y-115041924D03*
X72805000Y-112501924D03*
X74075000Y-115041924D03*
X75345000Y-112501924D03*
G04 #@! TD*
D19*
G04 #@! TO.C,U3*
X121710000Y-67380000D03*
D20*
X119170000Y-67380000D03*
X116630000Y-67380000D03*
X114090000Y-67380000D03*
X111550000Y-67380000D03*
X109010000Y-67380000D03*
X106470000Y-67380000D03*
X103930000Y-67380000D03*
X101390000Y-67380000D03*
X98850000Y-67380000D03*
X96310000Y-67380000D03*
X93770000Y-67380000D03*
X91230000Y-67380000D03*
X88690000Y-67380000D03*
X86150000Y-67380000D03*
X83610000Y-67380000D03*
X81070000Y-67380000D03*
X78530000Y-67380000D03*
X75990000Y-67380000D03*
X73450000Y-67380000D03*
X70910000Y-67380000D03*
X68370000Y-67380000D03*
X65830000Y-67380000D03*
X63290000Y-67380000D03*
X63290000Y-82620000D03*
X65830000Y-82620000D03*
X68370000Y-82620000D03*
X70910000Y-82620000D03*
X73450000Y-82620000D03*
X75990000Y-82620000D03*
X78530000Y-82620000D03*
X81070000Y-82620000D03*
X83610000Y-82620000D03*
X86150000Y-82620000D03*
X88690000Y-82620000D03*
X91230000Y-82620000D03*
X93770000Y-82620000D03*
X96310000Y-82620000D03*
X98850000Y-82620000D03*
X101390000Y-82620000D03*
X103930000Y-82620000D03*
X106470000Y-82620000D03*
X109010000Y-82620000D03*
X111550000Y-82620000D03*
X114090000Y-82620000D03*
X116630000Y-82620000D03*
X119170000Y-82620000D03*
X121710000Y-82620000D03*
X119170000Y-80080000D03*
X75990000Y-69920000D03*
G04 #@! TD*
D16*
G04 #@! TO.C,J11*
X100195000Y-121381924D03*
X111625000Y-121381924D03*
D17*
X101465000Y-115031924D03*
D18*
X102735000Y-112491924D03*
X104005000Y-115031924D03*
X105275000Y-112491924D03*
X106545000Y-115031924D03*
X107815000Y-112491924D03*
X109085000Y-115031924D03*
X110355000Y-112491924D03*
G04 #@! TD*
D16*
G04 #@! TO.C,J8*
X47815000Y-121381924D03*
X59245000Y-121381924D03*
D17*
X49085000Y-115031924D03*
D18*
X50355000Y-112491924D03*
X51625000Y-115031924D03*
X52895000Y-112491924D03*
X54165000Y-115031924D03*
X55435000Y-112491924D03*
X56705000Y-115031924D03*
X57975000Y-112491924D03*
G04 #@! TD*
D16*
G04 #@! TO.C,J9*
X30135000Y-121381924D03*
X41565000Y-121381924D03*
D17*
X31405000Y-115031924D03*
D18*
X32675000Y-112491924D03*
X33945000Y-115031924D03*
X35215000Y-112491924D03*
X36485000Y-115031924D03*
X37755000Y-112491924D03*
X39025000Y-115031924D03*
X40295000Y-112491924D03*
G04 #@! TD*
D16*
G04 #@! TO.C,J13*
X82865000Y-121391924D03*
X94295000Y-121391924D03*
D17*
X84135000Y-115041924D03*
D18*
X85405000Y-112501924D03*
X86675000Y-115041924D03*
X87945000Y-112501924D03*
X89215000Y-115041924D03*
X90485000Y-112501924D03*
X91755000Y-115041924D03*
X93025000Y-112501924D03*
G04 #@! TD*
D21*
G04 #@! TO.C,H1*
X21000000Y-52500000D03*
G04 #@! TD*
G04 #@! TO.C,H2*
X138500000Y-124000000D03*
G04 #@! TD*
G04 #@! TO.C,H3*
X138500000Y-52500000D03*
G04 #@! TD*
G04 #@! TO.C,H4*
X21000000Y-124000000D03*
G04 #@! TD*
D14*
G04 #@! TO.C,J3*
X106000000Y-56000000D03*
D15*
X108540000Y-56000000D03*
X111080000Y-56000000D03*
G04 #@! TD*
D14*
G04 #@! TO.C,J15*
X126175000Y-55975000D03*
D15*
X128715000Y-55975000D03*
X131255000Y-55975000D03*
G04 #@! TD*
D16*
G04 #@! TO.C,J7*
X98170000Y-54550000D03*
X86740000Y-54550000D03*
D17*
X96900000Y-60900000D03*
D18*
X95630000Y-63440000D03*
X94360000Y-60900000D03*
X93090000Y-63440000D03*
X91820000Y-60900000D03*
X90550000Y-63440000D03*
X89280000Y-60900000D03*
X88010000Y-63440000D03*
G04 #@! TD*
D22*
G04 #@! TO.C,C35*
X23467677Y-90500000D03*
D23*
X18467677Y-90500000D03*
G04 #@! TD*
D24*
G04 #@! TO.C,J14*
X31650000Y-66400000D03*
X39550000Y-66400000D03*
G04 #@! TD*
D22*
G04 #@! TO.C,C30*
X23500000Y-72900000D03*
D23*
X18500000Y-72900000D03*
G04 #@! TD*
D14*
G04 #@! TO.C,J1*
X70500000Y-55975000D03*
D15*
X73040000Y-55975000D03*
X75580000Y-55975000D03*
X78120000Y-55975000D03*
G04 #@! TD*
D23*
G04 #@! TO.C,SW1*
X23650000Y-100350000D03*
X23650000Y-106850000D03*
X19150000Y-100350000D03*
X19150000Y-106850000D03*
G04 #@! TD*
D22*
G04 #@! TO.C,C38*
X117900000Y-90032323D03*
D23*
X117900000Y-95032323D03*
G04 #@! TD*
D25*
G04 #@! TO.C,C2*
X52720000Y-64500000D03*
X53680000Y-64500000D03*
G04 #@! TD*
D26*
G04 #@! TO.C,C3*
X121920000Y-53480000D03*
X121920000Y-52520000D03*
G04 #@! TD*
D27*
G04 #@! TO.C,C4*
X105500000Y-52225000D03*
X105500000Y-53775000D03*
G04 #@! TD*
D25*
G04 #@! TO.C,C8*
X63220000Y-64200000D03*
X64180000Y-64200000D03*
G04 #@! TD*
D26*
G04 #@! TO.C,C6*
X111900000Y-53580000D03*
X111900000Y-52620000D03*
G04 #@! TD*
D27*
G04 #@! TO.C,C7*
X115520000Y-52225000D03*
X115520000Y-53775000D03*
G04 #@! TD*
D28*
G04 #@! TO.C,C10*
X78000000Y-70220000D03*
X78000000Y-71180000D03*
G04 #@! TD*
D29*
G04 #@! TO.C,C11*
X120880000Y-85300000D03*
X119920000Y-85300000D03*
G04 #@! TD*
D25*
G04 #@! TO.C,C12*
X115920000Y-80500000D03*
X116880000Y-80500000D03*
G04 #@! TD*
G04 #@! TO.C,C15*
X43520000Y-96500000D03*
X44480000Y-96500000D03*
G04 #@! TD*
D30*
G04 #@! TO.C,C16*
X56075000Y-119600000D03*
X54525000Y-119600000D03*
G04 #@! TD*
D31*
G04 #@! TO.C,C17*
X51025000Y-119600000D03*
X52575000Y-119600000D03*
G04 #@! TD*
D25*
G04 #@! TO.C,C20*
X114520000Y-96400000D03*
X115480000Y-96400000D03*
G04 #@! TD*
D30*
G04 #@! TO.C,C21*
X126075000Y-119600000D03*
X124525000Y-119600000D03*
G04 #@! TD*
D31*
G04 #@! TO.C,C22*
X121025000Y-119600000D03*
X122575000Y-119600000D03*
G04 #@! TD*
D29*
G04 #@! TO.C,C25*
X79480000Y-109500000D03*
X78520000Y-109500000D03*
G04 #@! TD*
D30*
G04 #@! TO.C,C26*
X73675000Y-119600000D03*
X72125000Y-119600000D03*
G04 #@! TD*
D31*
G04 #@! TO.C,C27*
X68125000Y-119600000D03*
X69675000Y-119600000D03*
G04 #@! TD*
D32*
G04 #@! TO.C,D9*
X52000000Y-108150000D03*
X52000000Y-103850000D03*
G04 #@! TD*
G04 #@! TO.C,D10*
X58000000Y-103850000D03*
X58000000Y-108150000D03*
G04 #@! TD*
G04 #@! TO.C,D11*
X58000000Y-100150000D03*
X58000000Y-95850000D03*
G04 #@! TD*
G04 #@! TO.C,D12*
X30000000Y-103850000D03*
X30000000Y-108150000D03*
G04 #@! TD*
G04 #@! TO.C,D13*
X30000000Y-95850000D03*
X30000000Y-100150000D03*
G04 #@! TD*
G04 #@! TO.C,D14*
X36000000Y-100150000D03*
X36000000Y-95850000D03*
G04 #@! TD*
G04 #@! TO.C,D15*
X36000000Y-103850000D03*
X36000000Y-108150000D03*
G04 #@! TD*
G04 #@! TO.C,D16*
X123000000Y-103850000D03*
X123000000Y-108150000D03*
G04 #@! TD*
G04 #@! TO.C,D17*
X123000000Y-95900000D03*
X123000000Y-100200000D03*
G04 #@! TD*
G04 #@! TO.C,D18*
X129000000Y-100150000D03*
X129000000Y-95850000D03*
G04 #@! TD*
G04 #@! TO.C,D19*
X129000000Y-103850000D03*
X129000000Y-108150000D03*
G04 #@! TD*
G04 #@! TO.C,D20*
X101000000Y-103850000D03*
X101000000Y-108150000D03*
G04 #@! TD*
G04 #@! TO.C,D22*
X107000000Y-103850000D03*
X107000000Y-108150000D03*
G04 #@! TD*
G04 #@! TO.C,D24*
X65000000Y-100150000D03*
X65000000Y-95850000D03*
G04 #@! TD*
G04 #@! TO.C,D26*
X71000000Y-103850000D03*
X71000000Y-108150000D03*
G04 #@! TD*
G04 #@! TO.C,D27*
X71000000Y-100150000D03*
X71000000Y-95850000D03*
G04 #@! TD*
G04 #@! TO.C,D28*
X88000000Y-100150000D03*
X88000000Y-95850000D03*
G04 #@! TD*
G04 #@! TO.C,D29*
X88000000Y-108150000D03*
X88000000Y-103850000D03*
G04 #@! TD*
G04 #@! TO.C,D31*
X94000000Y-100150000D03*
X94000000Y-95850000D03*
G04 #@! TD*
D33*
G04 #@! TO.C,R1*
X28950000Y-92200000D03*
X30600000Y-92200000D03*
G04 #@! TD*
G04 #@! TO.C,R2*
X44275000Y-72800000D03*
X45925000Y-72800000D03*
G04 #@! TD*
D34*
G04 #@! TO.C,R3*
X45825000Y-70400000D03*
X44175000Y-70400000D03*
G04 #@! TD*
D35*
G04 #@! TO.C,U7*
X76525000Y-107445000D03*
X76525000Y-106175000D03*
X76525000Y-104905000D03*
X76525000Y-103635000D03*
X76525000Y-102365000D03*
X76525000Y-101095000D03*
X76525000Y-99825000D03*
X76525000Y-98555000D03*
X81475000Y-98555000D03*
X81475000Y-99825000D03*
X81475000Y-101095000D03*
X81475000Y-102365000D03*
X81475000Y-103635000D03*
X81475000Y-104905000D03*
X81475000Y-106175000D03*
X81475000Y-107445000D03*
G04 #@! TD*
D13*
G04 #@! TO.C,U5*
X46475000Y-98555000D03*
X46475000Y-99825000D03*
X46475000Y-101095000D03*
X46475000Y-102365000D03*
X46475000Y-103635000D03*
X46475000Y-104905000D03*
X46475000Y-106175000D03*
X46475000Y-107445000D03*
X41525000Y-107445000D03*
X41525000Y-106175000D03*
X41525000Y-104905000D03*
X41525000Y-103635000D03*
X41525000Y-102365000D03*
X41525000Y-101095000D03*
X41525000Y-99825000D03*
X41525000Y-98555000D03*
G04 #@! TD*
G04 #@! TO.C,U6*
X117475000Y-98555000D03*
X117475000Y-99825000D03*
X117475000Y-101095000D03*
X117475000Y-102365000D03*
X117475000Y-103635000D03*
X117475000Y-104905000D03*
X117475000Y-106175000D03*
X117475000Y-107445000D03*
X112525000Y-107445000D03*
X112525000Y-106175000D03*
X112525000Y-104905000D03*
X112525000Y-103635000D03*
X112525000Y-102365000D03*
X112525000Y-101095000D03*
X112525000Y-99825000D03*
X112525000Y-98555000D03*
G04 #@! TD*
D32*
G04 #@! TO.C,D25*
X65000000Y-108150000D03*
X65000000Y-103850000D03*
G04 #@! TD*
G04 #@! TO.C,D30*
X94000000Y-103850000D03*
X94000000Y-108150000D03*
G04 #@! TD*
G04 #@! TO.C,D23*
X107000000Y-100150000D03*
X107000000Y-95850000D03*
G04 #@! TD*
G04 #@! TO.C,D21*
X101000000Y-95850000D03*
X101000000Y-100150000D03*
G04 #@! TD*
D29*
G04 #@! TO.C,C5*
X45480000Y-68600000D03*
X44520000Y-68600000D03*
G04 #@! TD*
D32*
G04 #@! TO.C,D8*
X52000000Y-100150000D03*
X52000000Y-95850000D03*
G04 #@! TD*
D36*
G04 #@! TO.C,U1*
X53737500Y-61050000D03*
X53737500Y-62000000D03*
X53737500Y-62950000D03*
X51462500Y-62950000D03*
X51462500Y-61050000D03*
G04 #@! TD*
G04 #@! TO.C,U2*
X64137500Y-60850000D03*
X64137500Y-61800000D03*
X64137500Y-62750000D03*
X61862500Y-62750000D03*
X61862500Y-60850000D03*
G04 #@! TD*
D31*
G04 #@! TO.C,C19*
X33225000Y-119600000D03*
X34775000Y-119600000D03*
G04 #@! TD*
D37*
G04 #@! TO.C,D34*
X28800000Y-76400000D03*
X24800000Y-76400000D03*
G04 #@! TD*
D38*
G04 #@! TO.C,D32*
X21600000Y-65000000D03*
X17300000Y-65000000D03*
G04 #@! TD*
D34*
G04 #@! TO.C,R4*
X103225000Y-57600000D03*
X101575000Y-57600000D03*
G04 #@! TD*
G04 #@! TO.C,R17*
X126125000Y-117900000D03*
X124475000Y-117900000D03*
G04 #@! TD*
D39*
G04 #@! TO.C,C31*
X22450000Y-76200000D03*
X20550000Y-76200000D03*
G04 #@! TD*
D38*
G04 #@! TO.C,D35*
X23050000Y-94600000D03*
X18750000Y-94600000D03*
G04 #@! TD*
D34*
G04 #@! TO.C,R15*
X38325000Y-117900000D03*
X36675000Y-117900000D03*
G04 #@! TD*
G04 #@! TO.C,R25*
X71000000Y-62600000D03*
X69350000Y-62600000D03*
G04 #@! TD*
D30*
G04 #@! TO.C,C14*
X99075000Y-64100000D03*
X97525000Y-64100000D03*
G04 #@! TD*
D38*
G04 #@! TO.C,D4*
X102150000Y-50500000D03*
X97850000Y-50500000D03*
G04 #@! TD*
D29*
G04 #@! TO.C,C32*
X22480000Y-77800000D03*
X21520000Y-77800000D03*
G04 #@! TD*
D40*
G04 #@! TO.C,R27*
X127900000Y-51975000D03*
X127900000Y-53625000D03*
G04 #@! TD*
D29*
G04 #@! TO.C,C13*
X74880000Y-58400000D03*
X73920000Y-58400000D03*
G04 #@! TD*
D27*
G04 #@! TO.C,C37*
X126200000Y-52025000D03*
X126200000Y-53575000D03*
G04 #@! TD*
D33*
G04 #@! TO.C,R26*
X69350000Y-64200000D03*
X71000000Y-64200000D03*
G04 #@! TD*
D34*
G04 #@! TO.C,R23*
X90925000Y-117900000D03*
X89275000Y-117900000D03*
G04 #@! TD*
D32*
G04 #@! TO.C,D7*
X84400000Y-57750000D03*
X84400000Y-62050000D03*
G04 #@! TD*
D33*
G04 #@! TO.C,R9*
X23675000Y-109300000D03*
X25325000Y-109300000D03*
G04 #@! TD*
D34*
G04 #@! TO.C,R13*
X56125000Y-117900000D03*
X54475000Y-117900000D03*
G04 #@! TD*
D30*
G04 #@! TO.C,C18*
X38275000Y-119600000D03*
X36725000Y-119600000D03*
G04 #@! TD*
D41*
G04 #@! TO.C,R11*
X60100000Y-60225000D03*
X60100000Y-58575000D03*
G04 #@! TD*
D40*
G04 #@! TO.C,R12*
X99000000Y-60975000D03*
X99000000Y-62625000D03*
G04 #@! TD*
D25*
G04 #@! TO.C,C9*
X86520000Y-65300000D03*
X87480000Y-65300000D03*
G04 #@! TD*
D35*
G04 #@! TO.C,U4*
X73225000Y-63905000D03*
X73225000Y-62635000D03*
X73225000Y-61365000D03*
X73225000Y-60095000D03*
X78175000Y-60095000D03*
X78175000Y-61365000D03*
X78175000Y-62635000D03*
X78175000Y-63905000D03*
G04 #@! TD*
D34*
G04 #@! TO.C,R19*
X108425000Y-117900000D03*
X106775000Y-117900000D03*
G04 #@! TD*
D42*
G04 #@! TO.C,L1*
X31200000Y-79950000D03*
X31200000Y-86850000D03*
G04 #@! TD*
D33*
G04 #@! TO.C,R22*
X68075000Y-117900000D03*
X69725000Y-117900000D03*
G04 #@! TD*
G04 #@! TO.C,R18*
X120975000Y-117900000D03*
X122625000Y-117900000D03*
G04 #@! TD*
D39*
G04 #@! TO.C,C33*
X22750000Y-86400000D03*
X20850000Y-86400000D03*
G04 #@! TD*
D30*
G04 #@! TO.C,C23*
X108375000Y-119600000D03*
X106825000Y-119600000D03*
G04 #@! TD*
D40*
G04 #@! TO.C,R8*
X71800000Y-52275000D03*
X71800000Y-53925000D03*
G04 #@! TD*
D33*
G04 #@! TO.C,R14*
X50975000Y-117900000D03*
X52625000Y-117900000D03*
G04 #@! TD*
D30*
G04 #@! TO.C,C28*
X90875000Y-119600000D03*
X89325000Y-119600000D03*
G04 #@! TD*
D34*
G04 #@! TO.C,R7*
X49425000Y-72800000D03*
X47775000Y-72800000D03*
G04 #@! TD*
D29*
G04 #@! TO.C,C34*
X22300000Y-84800000D03*
X21340000Y-84800000D03*
G04 #@! TD*
D33*
G04 #@! TO.C,R20*
X103275000Y-117900000D03*
X104925000Y-117900000D03*
G04 #@! TD*
D37*
G04 #@! TO.C,D33*
X21300000Y-60600000D03*
X17300000Y-60600000D03*
G04 #@! TD*
D41*
G04 #@! TO.C,R5*
X49700000Y-60625000D03*
X49700000Y-58975000D03*
G04 #@! TD*
D31*
G04 #@! TO.C,C24*
X103325000Y-119600000D03*
X104875000Y-119600000D03*
G04 #@! TD*
D40*
G04 #@! TO.C,R6*
X107300000Y-52175000D03*
X107300000Y-53825000D03*
G04 #@! TD*
D31*
G04 #@! TO.C,C29*
X85925000Y-119600000D03*
X87475000Y-119600000D03*
G04 #@! TD*
D33*
G04 #@! TO.C,R24*
X85875000Y-117900000D03*
X87525000Y-117900000D03*
G04 #@! TD*
D34*
G04 #@! TO.C,R21*
X73725000Y-117900000D03*
X72075000Y-117900000D03*
G04 #@! TD*
D26*
G04 #@! TO.C,C1*
X81600000Y-53180000D03*
X81600000Y-52220000D03*
G04 #@! TD*
D38*
G04 #@! TO.C,D2*
X107650000Y-61000000D03*
X103350000Y-61000000D03*
G04 #@! TD*
D40*
G04 #@! TO.C,R10*
X117220000Y-52175000D03*
X117220000Y-53825000D03*
G04 #@! TD*
D38*
G04 #@! TO.C,D5*
X94550000Y-52600000D03*
X90250000Y-52600000D03*
G04 #@! TD*
D33*
G04 #@! TO.C,R16*
X33175000Y-117900000D03*
X34825000Y-117900000D03*
G04 #@! TD*
D38*
G04 #@! TO.C,D3*
X78550000Y-52100000D03*
X74250000Y-52100000D03*
G04 #@! TD*
G04 #@! TO.C,D6*
X90250000Y-57400000D03*
X94550000Y-57400000D03*
G04 #@! TD*
D26*
G04 #@! TO.C,C36*
X131200000Y-53680000D03*
X131200000Y-52720000D03*
G04 #@! TD*
D43*
G04 #@! TO.C,TH1*
X25600000Y-66337500D03*
X25600000Y-62062500D03*
G04 #@! TD*
%LPD*%
M02*
