G04 #@! TF.GenerationSoftware,KiCad,Pcbnew,6.0.6-3a73a75311~116~ubuntu20.04.1*
G04 #@! TF.CreationDate,2022-07-27T20:26:18-06:00*
G04 #@! TF.ProjectId,colordance-brain,636f6c6f-7264-4616-9e63-652d62726169,rev?*
G04 #@! TF.SameCoordinates,Original*
G04 #@! TF.FileFunction,Legend,Bot*
G04 #@! TF.FilePolarity,Positive*
%FSLAX46Y46*%
G04 Gerber Fmt 4.6, Leading zero omitted, Abs format (unit mm)*
G04 Created by KiCad (PCBNEW 6.0.6-3a73a75311~116~ubuntu20.04.1) date 2022-07-27 20:26:18*
%MOMM*%
%LPD*%
G01*
G04 APERTURE LIST*
G04 Aperture macros list*
%AMRoundRect*
0 Rectangle with rounded corners*
0 $1 Rounding radius*
0 $2 $3 $4 $5 $6 $7 $8 $9 X,Y pos of 4 corners*
0 Add a 4 corners polygon primitive as box body*
4,1,4,$2,$3,$4,$5,$6,$7,$8,$9,$2,$3,0*
0 Add four circle primitives for the rounded corners*
1,1,$1+$1,$2,$3*
1,1,$1+$1,$4,$5*
1,1,$1+$1,$6,$7*
1,1,$1+$1,$8,$9*
0 Add four rect primitives between the rounded corners*
20,1,$1+$1,$2,$3,$4,$5,0*
20,1,$1+$1,$4,$5,$6,$7,0*
20,1,$1+$1,$6,$7,$8,$9,0*
20,1,$1+$1,$8,$9,$2,$3,0*%
G04 Aperture macros list end*
%ADD10C,0.150000*%
%ADD11C,0.120000*%
%ADD12R,1.700000X1.700000*%
%ADD13O,1.700000X1.700000*%
%ADD14C,3.200000*%
%ADD15R,1.500000X1.500000*%
%ADD16C,1.500000*%
%ADD17R,1.600000X1.600000*%
%ADD18C,1.600000*%
%ADD19C,5.200000*%
%ADD20R,2.000000X2.000000*%
%ADD21C,2.000000*%
%ADD22O,6.030000X2.070000*%
%ADD23RoundRect,0.225000X-0.225000X-0.250000X0.225000X-0.250000X0.225000X0.250000X-0.225000X0.250000X0*%
%ADD24RoundRect,0.225000X0.250000X-0.225000X0.250000X0.225000X-0.250000X0.225000X-0.250000X-0.225000X0*%
%ADD25RoundRect,0.225000X-0.250000X0.225000X-0.250000X-0.225000X0.250000X-0.225000X0.250000X0.225000X0*%
%ADD26RoundRect,0.225000X0.225000X0.250000X-0.225000X0.250000X-0.225000X-0.250000X0.225000X-0.250000X0*%
%ADD27R,2.300000X2.500000*%
%ADD28RoundRect,0.200000X-0.200000X-0.275000X0.200000X-0.275000X0.200000X0.275000X-0.200000X0.275000X0*%
%ADD29RoundRect,0.249999X-0.262501X-0.450001X0.262501X-0.450001X0.262501X0.450001X-0.262501X0.450001X0*%
%ADD30RoundRect,0.200000X0.200000X0.275000X-0.200000X0.275000X-0.200000X-0.275000X0.200000X-0.275000X0*%
%ADD31RoundRect,0.150000X-0.825000X-0.150000X0.825000X-0.150000X0.825000X0.150000X-0.825000X0.150000X0*%
%ADD32RoundRect,0.150000X0.825000X0.150000X-0.825000X0.150000X-0.825000X-0.150000X0.825000X-0.150000X0*%
%ADD33R,0.650000X0.400000*%
%ADD34R,0.600000X0.450000*%
%ADD35R,2.500000X2.300000*%
%ADD36RoundRect,0.250000X0.250000X0.475000X-0.250000X0.475000X-0.250000X-0.475000X0.250000X-0.475000X0*%
%ADD37RoundRect,0.150000X0.150000X-0.512500X0.150000X0.512500X-0.150000X0.512500X-0.150000X-0.512500X0*%
%ADD38RoundRect,0.200000X-0.275000X0.200000X-0.275000X-0.200000X0.275000X-0.200000X0.275000X0.200000X0*%
%ADD39RoundRect,0.200000X0.275000X-0.200000X0.275000X0.200000X-0.275000X0.200000X-0.275000X-0.200000X0*%
%ADD40R,5.700000X1.600000*%
%ADD41RoundRect,0.250000X-0.475000X0.250000X-0.475000X-0.250000X0.475000X-0.250000X0.475000X0.250000X0*%
%ADD42R,0.900000X1.200000*%
G04 APERTURE END LIST*
D10*
X32114285Y-116347619D02*
X32066666Y-116300000D01*
X31971428Y-116252380D01*
X31733333Y-116252380D01*
X31638095Y-116300000D01*
X31590476Y-116347619D01*
X31542857Y-116442857D01*
X31542857Y-116538095D01*
X31590476Y-116680952D01*
X32161904Y-117252380D01*
X31542857Y-117252380D01*
X30923809Y-116776190D02*
X30923809Y-117252380D01*
X31257142Y-116252380D02*
X30923809Y-116776190D01*
X30590476Y-116252380D01*
X38438095Y-111452380D02*
X38438095Y-110452380D01*
X38057142Y-110452380D01*
X37961904Y-110500000D01*
X37914285Y-110547619D01*
X37866666Y-110642857D01*
X37866666Y-110785714D01*
X37914285Y-110880952D01*
X37961904Y-110928571D01*
X38057142Y-110976190D01*
X38438095Y-110976190D01*
X37247619Y-110452380D02*
X37152380Y-110452380D01*
X37057142Y-110500000D01*
X37009523Y-110547619D01*
X36961904Y-110642857D01*
X36914285Y-110833333D01*
X36914285Y-111071428D01*
X36961904Y-111261904D01*
X37009523Y-111357142D01*
X37057142Y-111404761D01*
X37152380Y-111452380D01*
X37247619Y-111452380D01*
X37342857Y-111404761D01*
X37390476Y-111357142D01*
X37438095Y-111261904D01*
X37485714Y-111071428D01*
X37485714Y-110833333D01*
X37438095Y-110642857D01*
X37390476Y-110547619D01*
X37342857Y-110500000D01*
X37247619Y-110452380D01*
X40490476Y-111252380D02*
X41061904Y-111252380D01*
X40776190Y-111252380D02*
X40776190Y-110252380D01*
X40871428Y-110395238D01*
X40966666Y-110490476D01*
X41061904Y-110538095D01*
X40157142Y-110252380D02*
X39490476Y-110252380D01*
X40157142Y-111252380D01*
X39490476Y-111252380D01*
X33461904Y-110447619D02*
X33414285Y-110400000D01*
X33319047Y-110352380D01*
X33080952Y-110352380D01*
X32985714Y-110400000D01*
X32938095Y-110447619D01*
X32890476Y-110542857D01*
X32890476Y-110638095D01*
X32938095Y-110780952D01*
X33509523Y-111352380D01*
X32890476Y-111352380D01*
X32557142Y-110352380D02*
X31890476Y-110352380D01*
X32557142Y-111352380D01*
X31890476Y-111352380D01*
X33738095Y-116300000D02*
X33833333Y-116252380D01*
X33976190Y-116252380D01*
X34119047Y-116300000D01*
X34214285Y-116395238D01*
X34261904Y-116490476D01*
X34309523Y-116680952D01*
X34309523Y-116823809D01*
X34261904Y-117014285D01*
X34214285Y-117109523D01*
X34119047Y-117204761D01*
X33976190Y-117252380D01*
X33880952Y-117252380D01*
X33738095Y-117204761D01*
X33690476Y-117157142D01*
X33690476Y-116823809D01*
X33880952Y-116823809D01*
X92838095Y-61300000D02*
X92933333Y-61252380D01*
X93076190Y-61252380D01*
X93219047Y-61300000D01*
X93314285Y-61395238D01*
X93361904Y-61490476D01*
X93409523Y-61680952D01*
X93409523Y-61823809D01*
X93361904Y-62014285D01*
X93314285Y-62109523D01*
X93219047Y-62204761D01*
X93076190Y-62252380D01*
X92980952Y-62252380D01*
X92838095Y-62204761D01*
X92790476Y-62157142D01*
X92790476Y-61823809D01*
X92980952Y-61823809D01*
X35038095Y-110400000D02*
X35133333Y-110352380D01*
X35276190Y-110352380D01*
X35419047Y-110400000D01*
X35514285Y-110495238D01*
X35561904Y-110590476D01*
X35609523Y-110780952D01*
X35609523Y-110923809D01*
X35561904Y-111114285D01*
X35514285Y-111209523D01*
X35419047Y-111304761D01*
X35276190Y-111352380D01*
X35180952Y-111352380D01*
X35038095Y-111304761D01*
X34990476Y-111257142D01*
X34990476Y-110923809D01*
X35180952Y-110923809D01*
X87200000Y-62276190D02*
X87200000Y-62752380D01*
X87533333Y-61752380D02*
X87200000Y-62276190D01*
X86866666Y-61752380D01*
X97238095Y-59566666D02*
X96761904Y-59566666D01*
X97333333Y-59852380D02*
X97000000Y-58852380D01*
X96666666Y-59852380D01*
X39142857Y-117152380D02*
X39714285Y-117152380D01*
X39428571Y-117152380D02*
X39428571Y-116152380D01*
X39523809Y-116295238D01*
X39619047Y-116390476D01*
X39714285Y-116438095D01*
X38523809Y-116676190D02*
X38523809Y-117152380D01*
X38857142Y-116152380D02*
X38523809Y-116676190D01*
X38190476Y-116152380D01*
X95528571Y-65128571D02*
X95385714Y-65176190D01*
X95338095Y-65223809D01*
X95290476Y-65319047D01*
X95290476Y-65461904D01*
X95338095Y-65557142D01*
X95385714Y-65604761D01*
X95480952Y-65652380D01*
X95861904Y-65652380D01*
X95861904Y-64652380D01*
X95528571Y-64652380D01*
X95433333Y-64700000D01*
X95385714Y-64747619D01*
X95338095Y-64842857D01*
X95338095Y-64938095D01*
X95385714Y-65033333D01*
X95433333Y-65080952D01*
X95528571Y-65128571D01*
X95861904Y-65128571D01*
X37238095Y-117252380D02*
X37238095Y-116252380D01*
X36857142Y-116252380D01*
X36761904Y-116300000D01*
X36714285Y-116347619D01*
X36666666Y-116442857D01*
X36666666Y-116585714D01*
X36714285Y-116680952D01*
X36761904Y-116728571D01*
X36857142Y-116776190D01*
X37238095Y-116776190D01*
X35714285Y-117252380D02*
X36285714Y-117252380D01*
X36000000Y-117252380D02*
X36000000Y-116252380D01*
X36095238Y-116395238D01*
X36190476Y-116490476D01*
X36285714Y-116538095D01*
X88333333Y-59352380D02*
X87666666Y-59352380D01*
X88333333Y-60352380D01*
X87666666Y-60352380D01*
G04 #@! TO.C,H1*
X26000000Y-52500000D02*
G75*
G03*
X26000000Y-52500000I-5000000J0D01*
G01*
G04 #@! TO.C,H2*
X143500000Y-124000000D02*
G75*
G03*
X143500000Y-124000000I-5000000J0D01*
G01*
G04 #@! TO.C,H3*
X143500000Y-52500000D02*
G75*
G03*
X143500000Y-52500000I-5000000J0D01*
G01*
G04 #@! TO.C,H4*
X26000000Y-124000000D02*
G75*
G03*
X26000000Y-124000000I-5000000J0D01*
G01*
D11*
G04 #@! TO.C,C2*
X53059420Y-63990000D02*
X53340580Y-63990000D01*
X53059420Y-65010000D02*
X53340580Y-65010000D01*
G04 #@! TO.C,C3*
X121410000Y-53140580D02*
X121410000Y-52859420D01*
X122430000Y-53140580D02*
X122430000Y-52859420D01*
G04 #@! TO.C,C4*
X104990000Y-52859420D02*
X104990000Y-53140580D01*
X106010000Y-52859420D02*
X106010000Y-53140580D01*
G04 #@! TO.C,C8*
X63559420Y-63690000D02*
X63840580Y-63690000D01*
X63559420Y-64710000D02*
X63840580Y-64710000D01*
G04 #@! TO.C,C6*
X111390000Y-53240580D02*
X111390000Y-52959420D01*
X112410000Y-53240580D02*
X112410000Y-52959420D01*
G04 #@! TO.C,C7*
X115010000Y-52859420D02*
X115010000Y-53140580D01*
X116030000Y-52859420D02*
X116030000Y-53140580D01*
G04 #@! TO.C,C10*
X78510000Y-70559420D02*
X78510000Y-70840580D01*
X77490000Y-70559420D02*
X77490000Y-70840580D01*
G04 #@! TO.C,C11*
X120540580Y-85810000D02*
X120259420Y-85810000D01*
X120540580Y-84790000D02*
X120259420Y-84790000D01*
G04 #@! TO.C,C12*
X116259420Y-81010000D02*
X116540580Y-81010000D01*
X116259420Y-79990000D02*
X116540580Y-79990000D01*
G04 #@! TO.C,C15*
X43859420Y-95990000D02*
X44140580Y-95990000D01*
X43859420Y-97010000D02*
X44140580Y-97010000D01*
G04 #@! TO.C,C16*
X55440580Y-119090000D02*
X55159420Y-119090000D01*
X55440580Y-120110000D02*
X55159420Y-120110000D01*
G04 #@! TO.C,C17*
X51659420Y-119090000D02*
X51940580Y-119090000D01*
X51659420Y-120110000D02*
X51940580Y-120110000D01*
G04 #@! TO.C,C20*
X114859420Y-95890000D02*
X115140580Y-95890000D01*
X114859420Y-96910000D02*
X115140580Y-96910000D01*
G04 #@! TO.C,C21*
X125440580Y-120110000D02*
X125159420Y-120110000D01*
X125440580Y-119090000D02*
X125159420Y-119090000D01*
G04 #@! TO.C,C22*
X121659420Y-119090000D02*
X121940580Y-119090000D01*
X121659420Y-120110000D02*
X121940580Y-120110000D01*
G04 #@! TO.C,C25*
X79140580Y-110010000D02*
X78859420Y-110010000D01*
X79140580Y-108990000D02*
X78859420Y-108990000D01*
G04 #@! TO.C,C26*
X73040580Y-119090000D02*
X72759420Y-119090000D01*
X73040580Y-120110000D02*
X72759420Y-120110000D01*
G04 #@! TO.C,C27*
X68759420Y-119090000D02*
X69040580Y-119090000D01*
X68759420Y-120110000D02*
X69040580Y-120110000D01*
G04 #@! TO.C,D9*
X49850000Y-109550000D02*
X49850000Y-103850000D01*
X54150000Y-109550000D02*
X54150000Y-103850000D01*
X54150000Y-109550000D02*
X49850000Y-109550000D01*
G04 #@! TO.C,D10*
X55850000Y-102450000D02*
X60150000Y-102450000D01*
X55850000Y-102450000D02*
X55850000Y-108150000D01*
X60150000Y-102450000D02*
X60150000Y-108150000D01*
G04 #@! TO.C,D11*
X55850000Y-101550000D02*
X55850000Y-95850000D01*
X60150000Y-101550000D02*
X55850000Y-101550000D01*
X60150000Y-101550000D02*
X60150000Y-95850000D01*
G04 #@! TO.C,D12*
X27850000Y-102450000D02*
X32150000Y-102450000D01*
X27850000Y-102450000D02*
X27850000Y-108150000D01*
X32150000Y-102450000D02*
X32150000Y-108150000D01*
G04 #@! TO.C,D13*
X27850000Y-94450000D02*
X27850000Y-100150000D01*
X27850000Y-94450000D02*
X32150000Y-94450000D01*
X32150000Y-94450000D02*
X32150000Y-100150000D01*
G04 #@! TO.C,D14*
X33850000Y-101550000D02*
X33850000Y-95850000D01*
X38150000Y-101550000D02*
X33850000Y-101550000D01*
X38150000Y-101550000D02*
X38150000Y-95850000D01*
G04 #@! TO.C,D15*
X33850000Y-102450000D02*
X33850000Y-108150000D01*
X38150000Y-102450000D02*
X38150000Y-108150000D01*
X33850000Y-102450000D02*
X38150000Y-102450000D01*
G04 #@! TO.C,D16*
X120850000Y-102450000D02*
X125150000Y-102450000D01*
X125150000Y-102450000D02*
X125150000Y-108150000D01*
X120850000Y-102450000D02*
X120850000Y-108150000D01*
G04 #@! TO.C,D17*
X120850000Y-94500000D02*
X120850000Y-100200000D01*
X125150000Y-94500000D02*
X125150000Y-100200000D01*
X120850000Y-94500000D02*
X125150000Y-94500000D01*
G04 #@! TO.C,D18*
X126850000Y-101550000D02*
X126850000Y-95850000D01*
X131150000Y-101550000D02*
X131150000Y-95850000D01*
X131150000Y-101550000D02*
X126850000Y-101550000D01*
G04 #@! TO.C,D19*
X126850000Y-102450000D02*
X126850000Y-108150000D01*
X126850000Y-102450000D02*
X131150000Y-102450000D01*
X131150000Y-102450000D02*
X131150000Y-108150000D01*
G04 #@! TO.C,D20*
X103150000Y-102450000D02*
X103150000Y-108150000D01*
X98850000Y-102450000D02*
X103150000Y-102450000D01*
X98850000Y-102450000D02*
X98850000Y-108150000D01*
G04 #@! TO.C,D22*
X104850000Y-102450000D02*
X104850000Y-108150000D01*
X104850000Y-102450000D02*
X109150000Y-102450000D01*
X109150000Y-102450000D02*
X109150000Y-108150000D01*
G04 #@! TO.C,D24*
X67150000Y-101550000D02*
X62850000Y-101550000D01*
X67150000Y-101550000D02*
X67150000Y-95850000D01*
X62850000Y-101550000D02*
X62850000Y-95850000D01*
G04 #@! TO.C,D26*
X68850000Y-102450000D02*
X73150000Y-102450000D01*
X73150000Y-102450000D02*
X73150000Y-108150000D01*
X68850000Y-102450000D02*
X68850000Y-108150000D01*
G04 #@! TO.C,D27*
X73150000Y-101550000D02*
X68850000Y-101550000D01*
X68850000Y-101550000D02*
X68850000Y-95850000D01*
X73150000Y-101550000D02*
X73150000Y-95850000D01*
G04 #@! TO.C,D28*
X85850000Y-101550000D02*
X85850000Y-95850000D01*
X90150000Y-101550000D02*
X90150000Y-95850000D01*
X90150000Y-101550000D02*
X85850000Y-101550000D01*
G04 #@! TO.C,D29*
X90150000Y-109550000D02*
X85850000Y-109550000D01*
X90150000Y-109550000D02*
X90150000Y-103850000D01*
X85850000Y-109550000D02*
X85850000Y-103850000D01*
G04 #@! TO.C,D31*
X91850000Y-101550000D02*
X91850000Y-95850000D01*
X96150000Y-101550000D02*
X96150000Y-95850000D01*
X96150000Y-101550000D02*
X91850000Y-101550000D01*
G04 #@! TO.C,R1*
X27862742Y-87277500D02*
X28337258Y-87277500D01*
X27862742Y-88322500D02*
X28337258Y-88322500D01*
G04 #@! TO.C,R2*
X44872936Y-73535000D02*
X45327064Y-73535000D01*
X44872936Y-72065000D02*
X45327064Y-72065000D01*
G04 #@! TO.C,R3*
X45237258Y-69877500D02*
X44762742Y-69877500D01*
X45237258Y-70922500D02*
X44762742Y-70922500D01*
G04 #@! TO.C,U7*
X79000000Y-97940000D02*
X77050000Y-97940000D01*
X79000000Y-108060000D02*
X75550000Y-108060000D01*
X79000000Y-108060000D02*
X80950000Y-108060000D01*
X79000000Y-97940000D02*
X80950000Y-97940000D01*
G04 #@! TO.C,U5*
X44000000Y-97940000D02*
X42050000Y-97940000D01*
X44000000Y-97940000D02*
X47450000Y-97940000D01*
X44000000Y-108060000D02*
X42050000Y-108060000D01*
X44000000Y-108060000D02*
X45950000Y-108060000D01*
G04 #@! TO.C,U6*
X115000000Y-97940000D02*
X113050000Y-97940000D01*
X115000000Y-108060000D02*
X116950000Y-108060000D01*
X115000000Y-97940000D02*
X118450000Y-97940000D01*
X115000000Y-108060000D02*
X113050000Y-108060000D01*
G04 #@! TO.C,D25*
X62850000Y-109550000D02*
X62850000Y-103850000D01*
X67150000Y-109550000D02*
X62850000Y-109550000D01*
X67150000Y-109550000D02*
X67150000Y-103850000D01*
G04 #@! TO.C,D30*
X91850000Y-102450000D02*
X91850000Y-108150000D01*
X96150000Y-102450000D02*
X96150000Y-108150000D01*
X91850000Y-102450000D02*
X96150000Y-102450000D01*
G04 #@! TO.C,D23*
X109150000Y-101550000D02*
X109150000Y-95850000D01*
X104850000Y-101550000D02*
X104850000Y-95850000D01*
X109150000Y-101550000D02*
X104850000Y-101550000D01*
G04 #@! TO.C,D21*
X98850000Y-94450000D02*
X103150000Y-94450000D01*
X103150000Y-94450000D02*
X103150000Y-100150000D01*
X98850000Y-94450000D02*
X98850000Y-100150000D01*
G04 #@! TO.C,C5*
X45140580Y-68090000D02*
X44859420Y-68090000D01*
X45140580Y-69110000D02*
X44859420Y-69110000D01*
G04 #@! TO.C,D8*
X49850000Y-101550000D02*
X49850000Y-95850000D01*
X54150000Y-101550000D02*
X54150000Y-95850000D01*
X54150000Y-101550000D02*
X49850000Y-101550000D01*
G04 #@! TO.C,U1*
X53300000Y-63160000D02*
X51900000Y-63160000D01*
X51900000Y-60840000D02*
X53800000Y-60840000D01*
G04 #@! TO.C,U2*
X62300000Y-60640000D02*
X64200000Y-60640000D01*
X63700000Y-62960000D02*
X62300000Y-62960000D01*
G04 #@! TO.C,C19*
X33859420Y-120110000D02*
X34140580Y-120110000D01*
X33859420Y-119090000D02*
X34140580Y-119090000D01*
G04 #@! TO.C,D34*
X25600000Y-83550000D02*
X28150000Y-83550000D01*
X25600000Y-83550000D02*
X25600000Y-81850000D01*
X25600000Y-81850000D02*
X28150000Y-81850000D01*
G04 #@! TO.C,D32*
X31950000Y-72750000D02*
X31950000Y-68450000D01*
X31950000Y-72750000D02*
X37650000Y-72750000D01*
X31950000Y-68450000D02*
X37650000Y-68450000D01*
G04 #@! TO.C,R4*
X102637258Y-57077500D02*
X102162742Y-57077500D01*
X102637258Y-58122500D02*
X102162742Y-58122500D01*
G04 #@! TO.C,R17*
X125537258Y-117377500D02*
X125062742Y-117377500D01*
X125537258Y-118422500D02*
X125062742Y-118422500D01*
G04 #@! TO.C,C31*
X19361252Y-79135000D02*
X18838748Y-79135000D01*
X19361252Y-77665000D02*
X18838748Y-77665000D01*
G04 #@! TO.C,D35*
X37950000Y-81850000D02*
X37950000Y-87550000D01*
X33650000Y-81850000D02*
X33650000Y-87550000D01*
X33650000Y-81850000D02*
X37950000Y-81850000D01*
G04 #@! TO.C,R15*
X37737258Y-118422500D02*
X37262742Y-118422500D01*
X37737258Y-117377500D02*
X37262742Y-117377500D01*
G04 #@! TO.C,R25*
X23637258Y-83122500D02*
X23162742Y-83122500D01*
X23637258Y-82077500D02*
X23162742Y-82077500D01*
G04 #@! TO.C,C14*
X98440580Y-63590000D02*
X98159420Y-63590000D01*
X98440580Y-64610000D02*
X98159420Y-64610000D01*
G04 #@! TO.C,D4*
X103550000Y-52650000D02*
X97850000Y-52650000D01*
X103550000Y-48350000D02*
X97850000Y-48350000D01*
X103550000Y-48350000D02*
X103550000Y-52650000D01*
G04 #@! TO.C,U8*
X21440000Y-79500000D02*
X21440000Y-80300000D01*
X24560000Y-79500000D02*
X24560000Y-81300000D01*
X21440000Y-79500000D02*
X21440000Y-78700000D01*
X24560000Y-79500000D02*
X24560000Y-78700000D01*
G04 #@! TO.C,C32*
X26410000Y-80140580D02*
X26410000Y-79859420D01*
X25390000Y-80140580D02*
X25390000Y-79859420D01*
G04 #@! TO.C,R27*
X127377500Y-52562742D02*
X127377500Y-53037258D01*
X128422500Y-52562742D02*
X128422500Y-53037258D01*
G04 #@! TO.C,C13*
X74540580Y-58910000D02*
X74259420Y-58910000D01*
X74540580Y-57890000D02*
X74259420Y-57890000D01*
G04 #@! TO.C,C37*
X125690000Y-52659420D02*
X125690000Y-52940580D01*
X126710000Y-52659420D02*
X126710000Y-52940580D01*
G04 #@! TO.C,R26*
X20437258Y-82077500D02*
X19962742Y-82077500D01*
X20437258Y-83122500D02*
X19962742Y-83122500D01*
G04 #@! TO.C,R23*
X90337258Y-117377500D02*
X89862742Y-117377500D01*
X90337258Y-118422500D02*
X89862742Y-118422500D01*
G04 #@! TO.C,D7*
X86550000Y-56350000D02*
X86550000Y-62050000D01*
X82250000Y-56350000D02*
X82250000Y-62050000D01*
X82250000Y-56350000D02*
X86550000Y-56350000D01*
G04 #@! TO.C,R9*
X24262742Y-108777500D02*
X24737258Y-108777500D01*
X24262742Y-109822500D02*
X24737258Y-109822500D01*
G04 #@! TO.C,R13*
X55537258Y-117377500D02*
X55062742Y-117377500D01*
X55537258Y-118422500D02*
X55062742Y-118422500D01*
G04 #@! TO.C,C18*
X37640580Y-119090000D02*
X37359420Y-119090000D01*
X37640580Y-120110000D02*
X37359420Y-120110000D01*
G04 #@! TO.C,R11*
X59677500Y-59637258D02*
X59677500Y-59162742D01*
X60722500Y-59637258D02*
X60722500Y-59162742D01*
G04 #@! TO.C,R12*
X98477500Y-61562742D02*
X98477500Y-62037258D01*
X99522500Y-61562742D02*
X99522500Y-62037258D01*
G04 #@! TO.C,C9*
X86859420Y-64790000D02*
X87140580Y-64790000D01*
X86859420Y-65810000D02*
X87140580Y-65810000D01*
G04 #@! TO.C,U4*
X75700000Y-64560000D02*
X77650000Y-64560000D01*
X75700000Y-64560000D02*
X72250000Y-64560000D01*
X75700000Y-59440000D02*
X77650000Y-59440000D01*
X75700000Y-59440000D02*
X73750000Y-59440000D01*
G04 #@! TO.C,R19*
X107837258Y-117377500D02*
X107362742Y-117377500D01*
X107837258Y-118422500D02*
X107362742Y-118422500D01*
G04 #@! TO.C,L1*
X27400000Y-74750000D02*
X27400000Y-81050000D01*
X33600000Y-74750000D02*
X33600000Y-81050000D01*
G04 #@! TO.C,R22*
X68662742Y-118422500D02*
X69137258Y-118422500D01*
X68662742Y-117377500D02*
X69137258Y-117377500D01*
G04 #@! TO.C,R18*
X121562742Y-118422500D02*
X122037258Y-118422500D01*
X121562742Y-117377500D02*
X122037258Y-117377500D01*
G04 #@! TO.C,C33*
X32935000Y-83538748D02*
X32935000Y-84061252D01*
X31465000Y-83538748D02*
X31465000Y-84061252D01*
G04 #@! TO.C,C23*
X107740580Y-119090000D02*
X107459420Y-119090000D01*
X107740580Y-120110000D02*
X107459420Y-120110000D01*
G04 #@! TO.C,R8*
X72322500Y-52862742D02*
X72322500Y-53337258D01*
X71277500Y-52862742D02*
X71277500Y-53337258D01*
G04 #@! TO.C,R14*
X51562742Y-118422500D02*
X52037258Y-118422500D01*
X51562742Y-117377500D02*
X52037258Y-117377500D01*
G04 #@! TO.C,C28*
X90240580Y-119090000D02*
X89959420Y-119090000D01*
X90240580Y-120110000D02*
X89959420Y-120110000D01*
G04 #@! TO.C,R7*
X48837258Y-72277500D02*
X48362742Y-72277500D01*
X48837258Y-73322500D02*
X48362742Y-73322500D01*
G04 #@! TO.C,C34*
X30510000Y-83659420D02*
X30510000Y-83940580D01*
X29490000Y-83659420D02*
X29490000Y-83940580D01*
G04 #@! TO.C,R20*
X103862742Y-117377500D02*
X104337258Y-117377500D01*
X103862742Y-118422500D02*
X104337258Y-118422500D01*
G04 #@! TO.C,D33*
X24500000Y-76900000D02*
X20600000Y-76900000D01*
X24500000Y-74900000D02*
X20600000Y-74900000D01*
X24500000Y-74900000D02*
X24500000Y-76900000D01*
G04 #@! TO.C,R5*
X49477500Y-60037258D02*
X49477500Y-59562742D01*
X50522500Y-60037258D02*
X50522500Y-59562742D01*
G04 #@! TO.C,C24*
X103959420Y-120110000D02*
X104240580Y-120110000D01*
X103959420Y-119090000D02*
X104240580Y-119090000D01*
G04 #@! TO.C,R6*
X106777500Y-52762742D02*
X106777500Y-53237258D01*
X107822500Y-52762742D02*
X107822500Y-53237258D01*
G04 #@! TO.C,C29*
X86559420Y-119090000D02*
X86840580Y-119090000D01*
X86559420Y-120110000D02*
X86840580Y-120110000D01*
G04 #@! TO.C,R24*
X86462742Y-118422500D02*
X86937258Y-118422500D01*
X86462742Y-117377500D02*
X86937258Y-117377500D01*
G04 #@! TO.C,R21*
X73137258Y-117377500D02*
X72662742Y-117377500D01*
X73137258Y-118422500D02*
X72662742Y-118422500D01*
G04 #@! TO.C,C1*
X81090000Y-52840580D02*
X81090000Y-52559420D01*
X82110000Y-52840580D02*
X82110000Y-52559420D01*
G04 #@! TO.C,D2*
X109050000Y-58850000D02*
X103350000Y-58850000D01*
X109050000Y-58850000D02*
X109050000Y-63150000D01*
X109050000Y-63150000D02*
X103350000Y-63150000D01*
G04 #@! TO.C,R10*
X117742500Y-52762742D02*
X117742500Y-53237258D01*
X116697500Y-52762742D02*
X116697500Y-53237258D01*
G04 #@! TO.C,D5*
X95950000Y-50450000D02*
X90250000Y-50450000D01*
X95950000Y-50450000D02*
X95950000Y-54750000D01*
X95950000Y-54750000D02*
X90250000Y-54750000D01*
G04 #@! TO.C,R16*
X33762742Y-117377500D02*
X34237258Y-117377500D01*
X33762742Y-118422500D02*
X34237258Y-118422500D01*
G04 #@! TO.C,D3*
X79950000Y-49950000D02*
X74250000Y-49950000D01*
X79950000Y-49950000D02*
X79950000Y-54250000D01*
X79950000Y-54250000D02*
X74250000Y-54250000D01*
G04 #@! TO.C,D6*
X88850000Y-59550000D02*
X94550000Y-59550000D01*
X88850000Y-59550000D02*
X88850000Y-55250000D01*
X88850000Y-55250000D02*
X94550000Y-55250000D01*
G04 #@! TO.C,C36*
X130690000Y-53340580D02*
X130690000Y-53059420D01*
X131710000Y-53340580D02*
X131710000Y-53059420D01*
G04 #@! TD*
%LPC*%
D12*
G04 #@! TO.C,J2*
X48000000Y-56000000D03*
D13*
X50540000Y-56000000D03*
X53080000Y-56000000D03*
G04 #@! TD*
D12*
G04 #@! TO.C,J5*
X58500000Y-56000000D03*
D13*
X61040000Y-56000000D03*
X63580000Y-56000000D03*
G04 #@! TD*
G04 #@! TO.C,J4*
X121200000Y-56000000D03*
X118660000Y-56000000D03*
D12*
X116120000Y-56000000D03*
G04 #@! TD*
G04 #@! TO.C,J6*
X135000000Y-69000000D03*
D13*
X135000000Y-71540000D03*
X135000000Y-74080000D03*
X135000000Y-76620000D03*
X135000000Y-79160000D03*
G04 #@! TD*
D14*
G04 #@! TO.C,J10*
X117875000Y-121381924D03*
X129305000Y-121381924D03*
D15*
X119145000Y-115031924D03*
D16*
X120415000Y-112491924D03*
X121685000Y-115031924D03*
X122955000Y-112491924D03*
X124225000Y-115031924D03*
X125495000Y-112491924D03*
X126765000Y-115031924D03*
X128035000Y-112491924D03*
G04 #@! TD*
D14*
G04 #@! TO.C,J12*
X65185000Y-121391924D03*
X76615000Y-121391924D03*
D15*
X66455000Y-115041924D03*
D16*
X67725000Y-112501924D03*
X68995000Y-115041924D03*
X70265000Y-112501924D03*
X71535000Y-115041924D03*
X72805000Y-112501924D03*
X74075000Y-115041924D03*
X75345000Y-112501924D03*
G04 #@! TD*
D17*
G04 #@! TO.C,U3*
X121710000Y-67380000D03*
D18*
X119170000Y-67380000D03*
X116630000Y-67380000D03*
X114090000Y-67380000D03*
X111550000Y-67380000D03*
X109010000Y-67380000D03*
X106470000Y-67380000D03*
X103930000Y-67380000D03*
X101390000Y-67380000D03*
X98850000Y-67380000D03*
X96310000Y-67380000D03*
X93770000Y-67380000D03*
X91230000Y-67380000D03*
X88690000Y-67380000D03*
X86150000Y-67380000D03*
X83610000Y-67380000D03*
X81070000Y-67380000D03*
X78530000Y-67380000D03*
X75990000Y-67380000D03*
X73450000Y-67380000D03*
X70910000Y-67380000D03*
X68370000Y-67380000D03*
X65830000Y-67380000D03*
X63290000Y-67380000D03*
X63290000Y-82620000D03*
X65830000Y-82620000D03*
X68370000Y-82620000D03*
X70910000Y-82620000D03*
X73450000Y-82620000D03*
X75990000Y-82620000D03*
X78530000Y-82620000D03*
X81070000Y-82620000D03*
X83610000Y-82620000D03*
X86150000Y-82620000D03*
X88690000Y-82620000D03*
X91230000Y-82620000D03*
X93770000Y-82620000D03*
X96310000Y-82620000D03*
X98850000Y-82620000D03*
X101390000Y-82620000D03*
X103930000Y-82620000D03*
X106470000Y-82620000D03*
X109010000Y-82620000D03*
X111550000Y-82620000D03*
X114090000Y-82620000D03*
X116630000Y-82620000D03*
X119170000Y-82620000D03*
X121710000Y-82620000D03*
X119170000Y-80080000D03*
X75990000Y-69920000D03*
G04 #@! TD*
D14*
G04 #@! TO.C,J11*
X100195000Y-121381924D03*
X111625000Y-121381924D03*
D15*
X101465000Y-115031924D03*
D16*
X102735000Y-112491924D03*
X104005000Y-115031924D03*
X105275000Y-112491924D03*
X106545000Y-115031924D03*
X107815000Y-112491924D03*
X109085000Y-115031924D03*
X110355000Y-112491924D03*
G04 #@! TD*
D14*
G04 #@! TO.C,J8*
X59245000Y-121381924D03*
X47815000Y-121381924D03*
D15*
X49085000Y-115031924D03*
D16*
X50355000Y-112491924D03*
X51625000Y-115031924D03*
X52895000Y-112491924D03*
X54165000Y-115031924D03*
X55435000Y-112491924D03*
X56705000Y-115031924D03*
X57975000Y-112491924D03*
G04 #@! TD*
D14*
G04 #@! TO.C,J9*
X30135000Y-121381924D03*
X41565000Y-121381924D03*
D15*
X31405000Y-115031924D03*
D16*
X32675000Y-112491924D03*
X33945000Y-115031924D03*
X35215000Y-112491924D03*
X36485000Y-115031924D03*
X37755000Y-112491924D03*
X39025000Y-115031924D03*
X40295000Y-112491924D03*
G04 #@! TD*
D14*
G04 #@! TO.C,J13*
X94295000Y-121391924D03*
X82865000Y-121391924D03*
D15*
X84135000Y-115041924D03*
D16*
X85405000Y-112501924D03*
X86675000Y-115041924D03*
X87945000Y-112501924D03*
X89215000Y-115041924D03*
X90485000Y-112501924D03*
X91755000Y-115041924D03*
X93025000Y-112501924D03*
G04 #@! TD*
D19*
G04 #@! TO.C,H1*
X21000000Y-52500000D03*
G04 #@! TD*
G04 #@! TO.C,H2*
X138500000Y-124000000D03*
G04 #@! TD*
G04 #@! TO.C,H3*
X138500000Y-52500000D03*
G04 #@! TD*
G04 #@! TO.C,H4*
X21000000Y-124000000D03*
G04 #@! TD*
D12*
G04 #@! TO.C,J3*
X106000000Y-56000000D03*
D13*
X108540000Y-56000000D03*
X111080000Y-56000000D03*
G04 #@! TD*
D12*
G04 #@! TO.C,J15*
X126175000Y-55975000D03*
D13*
X128715000Y-55975000D03*
X131255000Y-55975000D03*
G04 #@! TD*
D14*
G04 #@! TO.C,J7*
X98170000Y-54550000D03*
X86740000Y-54550000D03*
D15*
X96900000Y-60900000D03*
D16*
X95630000Y-63440000D03*
X94360000Y-60900000D03*
X93090000Y-63440000D03*
X91820000Y-60900000D03*
X90550000Y-63440000D03*
X89280000Y-60900000D03*
X88010000Y-63440000D03*
G04 #@! TD*
D20*
G04 #@! TO.C,C35*
X23467677Y-90500000D03*
D21*
X18467677Y-90500000D03*
G04 #@! TD*
D22*
G04 #@! TO.C,J14*
X39550000Y-66400000D03*
X31650000Y-66400000D03*
G04 #@! TD*
D20*
G04 #@! TO.C,C30*
X21200000Y-66967677D03*
D21*
X21200000Y-61967677D03*
G04 #@! TD*
D12*
G04 #@! TO.C,J1*
X70500000Y-55975000D03*
D13*
X73040000Y-55975000D03*
X75580000Y-55975000D03*
X78120000Y-55975000D03*
G04 #@! TD*
D21*
G04 #@! TO.C,SW1*
X23650000Y-100350000D03*
X23650000Y-106850000D03*
X19150000Y-100350000D03*
X19150000Y-106850000D03*
G04 #@! TD*
D20*
G04 #@! TO.C,C38*
X117900000Y-90032323D03*
D21*
X117900000Y-95032323D03*
G04 #@! TD*
D23*
G04 #@! TO.C,C2*
X52425000Y-64500000D03*
X53975000Y-64500000D03*
G04 #@! TD*
D24*
G04 #@! TO.C,C3*
X121920000Y-53775000D03*
X121920000Y-52225000D03*
G04 #@! TD*
D25*
G04 #@! TO.C,C4*
X105500000Y-52225000D03*
X105500000Y-53775000D03*
G04 #@! TD*
D23*
G04 #@! TO.C,C8*
X62925000Y-64200000D03*
X64475000Y-64200000D03*
G04 #@! TD*
D24*
G04 #@! TO.C,C6*
X111900000Y-53875000D03*
X111900000Y-52325000D03*
G04 #@! TD*
D25*
G04 #@! TO.C,C7*
X115520000Y-52225000D03*
X115520000Y-53775000D03*
G04 #@! TD*
G04 #@! TO.C,C10*
X78000000Y-69925000D03*
X78000000Y-71475000D03*
G04 #@! TD*
D26*
G04 #@! TO.C,C11*
X121175000Y-85300000D03*
X119625000Y-85300000D03*
G04 #@! TD*
D23*
G04 #@! TO.C,C12*
X115625000Y-80500000D03*
X117175000Y-80500000D03*
G04 #@! TD*
G04 #@! TO.C,C15*
X43225000Y-96500000D03*
X44775000Y-96500000D03*
G04 #@! TD*
D26*
G04 #@! TO.C,C16*
X56075000Y-119600000D03*
X54525000Y-119600000D03*
G04 #@! TD*
D23*
G04 #@! TO.C,C17*
X51025000Y-119600000D03*
X52575000Y-119600000D03*
G04 #@! TD*
G04 #@! TO.C,C20*
X114225000Y-96400000D03*
X115775000Y-96400000D03*
G04 #@! TD*
D26*
G04 #@! TO.C,C21*
X126075000Y-119600000D03*
X124525000Y-119600000D03*
G04 #@! TD*
D23*
G04 #@! TO.C,C22*
X121025000Y-119600000D03*
X122575000Y-119600000D03*
G04 #@! TD*
D26*
G04 #@! TO.C,C25*
X79775000Y-109500000D03*
X78225000Y-109500000D03*
G04 #@! TD*
G04 #@! TO.C,C26*
X73675000Y-119600000D03*
X72125000Y-119600000D03*
G04 #@! TD*
D23*
G04 #@! TO.C,C27*
X68125000Y-119600000D03*
X69675000Y-119600000D03*
G04 #@! TD*
D27*
G04 #@! TO.C,D9*
X52000000Y-108150000D03*
X52000000Y-103850000D03*
G04 #@! TD*
G04 #@! TO.C,D10*
X58000000Y-103850000D03*
X58000000Y-108150000D03*
G04 #@! TD*
G04 #@! TO.C,D11*
X58000000Y-100150000D03*
X58000000Y-95850000D03*
G04 #@! TD*
G04 #@! TO.C,D12*
X30000000Y-103850000D03*
X30000000Y-108150000D03*
G04 #@! TD*
G04 #@! TO.C,D13*
X30000000Y-95850000D03*
X30000000Y-100150000D03*
G04 #@! TD*
G04 #@! TO.C,D14*
X36000000Y-100150000D03*
X36000000Y-95850000D03*
G04 #@! TD*
G04 #@! TO.C,D15*
X36000000Y-103850000D03*
X36000000Y-108150000D03*
G04 #@! TD*
G04 #@! TO.C,D16*
X123000000Y-103850000D03*
X123000000Y-108150000D03*
G04 #@! TD*
G04 #@! TO.C,D17*
X123000000Y-95900000D03*
X123000000Y-100200000D03*
G04 #@! TD*
G04 #@! TO.C,D18*
X129000000Y-100150000D03*
X129000000Y-95850000D03*
G04 #@! TD*
G04 #@! TO.C,D19*
X129000000Y-103850000D03*
X129000000Y-108150000D03*
G04 #@! TD*
G04 #@! TO.C,D20*
X101000000Y-103850000D03*
X101000000Y-108150000D03*
G04 #@! TD*
G04 #@! TO.C,D22*
X107000000Y-103850000D03*
X107000000Y-108150000D03*
G04 #@! TD*
G04 #@! TO.C,D24*
X65000000Y-100150000D03*
X65000000Y-95850000D03*
G04 #@! TD*
G04 #@! TO.C,D26*
X71000000Y-103850000D03*
X71000000Y-108150000D03*
G04 #@! TD*
G04 #@! TO.C,D27*
X71000000Y-100150000D03*
X71000000Y-95850000D03*
G04 #@! TD*
G04 #@! TO.C,D28*
X88000000Y-100150000D03*
X88000000Y-95850000D03*
G04 #@! TD*
G04 #@! TO.C,D29*
X88000000Y-108150000D03*
X88000000Y-103850000D03*
G04 #@! TD*
G04 #@! TO.C,D31*
X94000000Y-100150000D03*
X94000000Y-95850000D03*
G04 #@! TD*
D28*
G04 #@! TO.C,R1*
X27275000Y-87800000D03*
X28925000Y-87800000D03*
G04 #@! TD*
D29*
G04 #@! TO.C,R2*
X44187500Y-72800000D03*
X46012500Y-72800000D03*
G04 #@! TD*
D30*
G04 #@! TO.C,R3*
X45825000Y-70400000D03*
X44175000Y-70400000D03*
G04 #@! TD*
D31*
G04 #@! TO.C,U7*
X76525000Y-107445000D03*
X76525000Y-106175000D03*
X76525000Y-104905000D03*
X76525000Y-103635000D03*
X76525000Y-102365000D03*
X76525000Y-101095000D03*
X76525000Y-99825000D03*
X76525000Y-98555000D03*
X81475000Y-98555000D03*
X81475000Y-99825000D03*
X81475000Y-101095000D03*
X81475000Y-102365000D03*
X81475000Y-103635000D03*
X81475000Y-104905000D03*
X81475000Y-106175000D03*
X81475000Y-107445000D03*
G04 #@! TD*
D32*
G04 #@! TO.C,U5*
X46475000Y-98555000D03*
X46475000Y-99825000D03*
X46475000Y-101095000D03*
X46475000Y-102365000D03*
X46475000Y-103635000D03*
X46475000Y-104905000D03*
X46475000Y-106175000D03*
X46475000Y-107445000D03*
X41525000Y-107445000D03*
X41525000Y-106175000D03*
X41525000Y-104905000D03*
X41525000Y-103635000D03*
X41525000Y-102365000D03*
X41525000Y-101095000D03*
X41525000Y-99825000D03*
X41525000Y-98555000D03*
G04 #@! TD*
G04 #@! TO.C,U6*
X117475000Y-98555000D03*
X117475000Y-99825000D03*
X117475000Y-101095000D03*
X117475000Y-102365000D03*
X117475000Y-103635000D03*
X117475000Y-104905000D03*
X117475000Y-106175000D03*
X117475000Y-107445000D03*
X112525000Y-107445000D03*
X112525000Y-106175000D03*
X112525000Y-104905000D03*
X112525000Y-103635000D03*
X112525000Y-102365000D03*
X112525000Y-101095000D03*
X112525000Y-99825000D03*
X112525000Y-98555000D03*
G04 #@! TD*
D27*
G04 #@! TO.C,D25*
X65000000Y-108150000D03*
X65000000Y-103850000D03*
G04 #@! TD*
G04 #@! TO.C,D30*
X94000000Y-103850000D03*
X94000000Y-108150000D03*
G04 #@! TD*
G04 #@! TO.C,D23*
X107000000Y-100150000D03*
X107000000Y-95850000D03*
G04 #@! TD*
G04 #@! TO.C,D21*
X101000000Y-95850000D03*
X101000000Y-100150000D03*
G04 #@! TD*
D26*
G04 #@! TO.C,C5*
X45775000Y-68600000D03*
X44225000Y-68600000D03*
G04 #@! TD*
D27*
G04 #@! TO.C,D8*
X52000000Y-100150000D03*
X52000000Y-95850000D03*
G04 #@! TD*
D33*
G04 #@! TO.C,U1*
X53550000Y-61350000D03*
X53550000Y-62000000D03*
X53550000Y-62650000D03*
X51650000Y-62650000D03*
X51650000Y-61350000D03*
G04 #@! TD*
G04 #@! TO.C,U2*
X63950000Y-61150000D03*
X63950000Y-61800000D03*
X63950000Y-62450000D03*
X62050000Y-62450000D03*
X62050000Y-61150000D03*
G04 #@! TD*
D23*
G04 #@! TO.C,C19*
X33225000Y-119600000D03*
X34775000Y-119600000D03*
G04 #@! TD*
D34*
G04 #@! TO.C,D34*
X26050000Y-82700000D03*
X28150000Y-82700000D03*
G04 #@! TD*
D35*
G04 #@! TO.C,D32*
X33350000Y-70600000D03*
X37650000Y-70600000D03*
G04 #@! TD*
D30*
G04 #@! TO.C,R4*
X103225000Y-57600000D03*
X101575000Y-57600000D03*
G04 #@! TD*
G04 #@! TO.C,R17*
X126125000Y-117900000D03*
X124475000Y-117900000D03*
G04 #@! TD*
D36*
G04 #@! TO.C,C31*
X20050000Y-78400000D03*
X18150000Y-78400000D03*
G04 #@! TD*
D27*
G04 #@! TO.C,D35*
X35800000Y-83250000D03*
X35800000Y-87550000D03*
G04 #@! TD*
D30*
G04 #@! TO.C,R15*
X38325000Y-117900000D03*
X36675000Y-117900000D03*
G04 #@! TD*
G04 #@! TO.C,R25*
X24225000Y-82600000D03*
X22575000Y-82600000D03*
G04 #@! TD*
D26*
G04 #@! TO.C,C14*
X99075000Y-64100000D03*
X97525000Y-64100000D03*
G04 #@! TD*
D35*
G04 #@! TO.C,D4*
X102150000Y-50500000D03*
X97850000Y-50500000D03*
G04 #@! TD*
D37*
G04 #@! TO.C,U8*
X23950000Y-80637500D03*
X23000000Y-80637500D03*
X22050000Y-80637500D03*
X22050000Y-78362500D03*
X23000000Y-78362500D03*
X23950000Y-78362500D03*
G04 #@! TD*
D24*
G04 #@! TO.C,C32*
X25900000Y-80775000D03*
X25900000Y-79225000D03*
G04 #@! TD*
D38*
G04 #@! TO.C,R27*
X127900000Y-51975000D03*
X127900000Y-53625000D03*
G04 #@! TD*
D26*
G04 #@! TO.C,C13*
X75175000Y-58400000D03*
X73625000Y-58400000D03*
G04 #@! TD*
D25*
G04 #@! TO.C,C37*
X126200000Y-52025000D03*
X126200000Y-53575000D03*
G04 #@! TD*
D30*
G04 #@! TO.C,R26*
X21025000Y-82600000D03*
X19375000Y-82600000D03*
G04 #@! TD*
G04 #@! TO.C,R23*
X90925000Y-117900000D03*
X89275000Y-117900000D03*
G04 #@! TD*
D27*
G04 #@! TO.C,D7*
X84400000Y-57750000D03*
X84400000Y-62050000D03*
G04 #@! TD*
D28*
G04 #@! TO.C,R9*
X23675000Y-109300000D03*
X25325000Y-109300000D03*
G04 #@! TD*
D30*
G04 #@! TO.C,R13*
X56125000Y-117900000D03*
X54475000Y-117900000D03*
G04 #@! TD*
D26*
G04 #@! TO.C,C18*
X38275000Y-119600000D03*
X36725000Y-119600000D03*
G04 #@! TD*
D39*
G04 #@! TO.C,R11*
X60200000Y-60225000D03*
X60200000Y-58575000D03*
G04 #@! TD*
D38*
G04 #@! TO.C,R12*
X99000000Y-60975000D03*
X99000000Y-62625000D03*
G04 #@! TD*
D23*
G04 #@! TO.C,C9*
X86225000Y-65300000D03*
X87775000Y-65300000D03*
G04 #@! TD*
D31*
G04 #@! TO.C,U4*
X73225000Y-63905000D03*
X73225000Y-62635000D03*
X73225000Y-61365000D03*
X73225000Y-60095000D03*
X78175000Y-60095000D03*
X78175000Y-61365000D03*
X78175000Y-62635000D03*
X78175000Y-63905000D03*
G04 #@! TD*
D30*
G04 #@! TO.C,R19*
X108425000Y-117900000D03*
X106775000Y-117900000D03*
G04 #@! TD*
D40*
G04 #@! TO.C,L1*
X30500000Y-75550000D03*
X30500000Y-80250000D03*
G04 #@! TD*
D28*
G04 #@! TO.C,R22*
X68075000Y-117900000D03*
X69725000Y-117900000D03*
G04 #@! TD*
G04 #@! TO.C,R18*
X120975000Y-117900000D03*
X122625000Y-117900000D03*
G04 #@! TD*
D41*
G04 #@! TO.C,C33*
X32200000Y-82850000D03*
X32200000Y-84750000D03*
G04 #@! TD*
D26*
G04 #@! TO.C,C23*
X108375000Y-119600000D03*
X106825000Y-119600000D03*
G04 #@! TD*
D38*
G04 #@! TO.C,R8*
X71800000Y-52275000D03*
X71800000Y-53925000D03*
G04 #@! TD*
D28*
G04 #@! TO.C,R14*
X50975000Y-117900000D03*
X52625000Y-117900000D03*
G04 #@! TD*
D26*
G04 #@! TO.C,C28*
X90875000Y-119600000D03*
X89325000Y-119600000D03*
G04 #@! TD*
D30*
G04 #@! TO.C,R7*
X49425000Y-72800000D03*
X47775000Y-72800000D03*
G04 #@! TD*
D25*
G04 #@! TO.C,C34*
X30000000Y-83025000D03*
X30000000Y-84575000D03*
G04 #@! TD*
D28*
G04 #@! TO.C,R20*
X103275000Y-117900000D03*
X104925000Y-117900000D03*
G04 #@! TD*
D42*
G04 #@! TO.C,D33*
X23900000Y-75900000D03*
X20600000Y-75900000D03*
G04 #@! TD*
D39*
G04 #@! TO.C,R5*
X50000000Y-60625000D03*
X50000000Y-58975000D03*
G04 #@! TD*
D23*
G04 #@! TO.C,C24*
X103325000Y-119600000D03*
X104875000Y-119600000D03*
G04 #@! TD*
D38*
G04 #@! TO.C,R6*
X107300000Y-52175000D03*
X107300000Y-53825000D03*
G04 #@! TD*
D23*
G04 #@! TO.C,C29*
X85925000Y-119600000D03*
X87475000Y-119600000D03*
G04 #@! TD*
D28*
G04 #@! TO.C,R24*
X85875000Y-117900000D03*
X87525000Y-117900000D03*
G04 #@! TD*
D30*
G04 #@! TO.C,R21*
X73725000Y-117900000D03*
X72075000Y-117900000D03*
G04 #@! TD*
D24*
G04 #@! TO.C,C1*
X81600000Y-53475000D03*
X81600000Y-51925000D03*
G04 #@! TD*
D35*
G04 #@! TO.C,D2*
X107650000Y-61000000D03*
X103350000Y-61000000D03*
G04 #@! TD*
D38*
G04 #@! TO.C,R10*
X117220000Y-52175000D03*
X117220000Y-53825000D03*
G04 #@! TD*
D35*
G04 #@! TO.C,D5*
X94550000Y-52600000D03*
X90250000Y-52600000D03*
G04 #@! TD*
D28*
G04 #@! TO.C,R16*
X33175000Y-117900000D03*
X34825000Y-117900000D03*
G04 #@! TD*
D35*
G04 #@! TO.C,D3*
X78550000Y-52100000D03*
X74250000Y-52100000D03*
G04 #@! TD*
G04 #@! TO.C,D6*
X90250000Y-57400000D03*
X94550000Y-57400000D03*
G04 #@! TD*
D24*
G04 #@! TO.C,C36*
X131200000Y-53975000D03*
X131200000Y-52425000D03*
G04 #@! TD*
M02*
