G04 #@! TF.GenerationSoftware,KiCad,Pcbnew,7.0.2-6a45011f42~172~ubuntu22.04.1*
G04 #@! TF.CreationDate,2023-05-14T21:05:51-06:00*
G04 #@! TF.ProjectId,colordance-brain,636f6c6f-7264-4616-9e63-652d62726169,rev?*
G04 #@! TF.SameCoordinates,Original*
G04 #@! TF.FileFunction,Legend,Top*
G04 #@! TF.FilePolarity,Positive*
%FSLAX46Y46*%
G04 Gerber Fmt 4.6, Leading zero omitted, Abs format (unit mm)*
G04 Created by KiCad (PCBNEW 7.0.2-6a45011f42~172~ubuntu22.04.1) date 2023-05-14 21:05:51*
%MOMM*%
%LPD*%
G01*
G04 APERTURE LIST*
G04 Aperture macros list*
%AMRoundRect*
0 Rectangle with rounded corners*
0 $1 Rounding radius*
0 $2 $3 $4 $5 $6 $7 $8 $9 X,Y pos of 4 corners*
0 Add a 4 corners polygon primitive as box body*
4,1,4,$2,$3,$4,$5,$6,$7,$8,$9,$2,$3,0*
0 Add four circle primitives for the rounded corners*
1,1,$1+$1,$2,$3*
1,1,$1+$1,$4,$5*
1,1,$1+$1,$6,$7*
1,1,$1+$1,$8,$9*
0 Add four rect primitives between the rounded corners*
20,1,$1+$1,$2,$3,$4,$5,0*
20,1,$1+$1,$4,$5,$6,$7,0*
20,1,$1+$1,$6,$7,$8,$9,0*
20,1,$1+$1,$8,$9,$2,$3,0*%
G04 Aperture macros list end*
%ADD10C,0.120000*%
%ADD11C,0.200000*%
%ADD12C,0.150000*%
%ADD13C,0.250000*%
%ADD14C,0.100000*%
%ADD15RoundRect,0.218750X-0.218750X-0.256250X0.218750X-0.256250X0.218750X0.256250X-0.218750X0.256250X0*%
%ADD16R,1.700000X1.700000*%
%ADD17O,1.700000X1.700000*%
%ADD18C,3.200000*%
%ADD19R,1.500000X1.500000*%
%ADD20C,1.500000*%
%ADD21R,1.600000X1.600000*%
%ADD22C,1.600000*%
%ADD23C,5.200000*%
%ADD24R,5.080000X1.270000*%
%ADD25C,17.800000*%
%ADD26R,2.000000X2.000000*%
%ADD27C,2.000000*%
%ADD28O,6.030000X2.070000*%
G04 APERTURE END LIST*
D10*
X71700000Y-57900000D02*
X72400000Y-57000000D01*
X77400000Y-57900000D02*
X76300000Y-57000000D01*
D11*
X34523809Y-108925238D02*
X34523809Y-106925238D01*
X34523809Y-106925238D02*
X35285714Y-106925238D01*
X35285714Y-106925238D02*
X35476190Y-107020476D01*
X35476190Y-107020476D02*
X35571428Y-107115714D01*
X35571428Y-107115714D02*
X35666666Y-107306190D01*
X35666666Y-107306190D02*
X35666666Y-107591904D01*
X35666666Y-107591904D02*
X35571428Y-107782380D01*
X35571428Y-107782380D02*
X35476190Y-107877619D01*
X35476190Y-107877619D02*
X35285714Y-107972857D01*
X35285714Y-107972857D02*
X34523809Y-107972857D01*
X36904761Y-106925238D02*
X37095238Y-106925238D01*
X37095238Y-106925238D02*
X37285714Y-107020476D01*
X37285714Y-107020476D02*
X37380952Y-107115714D01*
X37380952Y-107115714D02*
X37476190Y-107306190D01*
X37476190Y-107306190D02*
X37571428Y-107687142D01*
X37571428Y-107687142D02*
X37571428Y-108163333D01*
X37571428Y-108163333D02*
X37476190Y-108544285D01*
X37476190Y-108544285D02*
X37380952Y-108734761D01*
X37380952Y-108734761D02*
X37285714Y-108830000D01*
X37285714Y-108830000D02*
X37095238Y-108925238D01*
X37095238Y-108925238D02*
X36904761Y-108925238D01*
X36904761Y-108925238D02*
X36714285Y-108830000D01*
X36714285Y-108830000D02*
X36619047Y-108734761D01*
X36619047Y-108734761D02*
X36523809Y-108544285D01*
X36523809Y-108544285D02*
X36428571Y-108163333D01*
X36428571Y-108163333D02*
X36428571Y-107687142D01*
X36428571Y-107687142D02*
X36523809Y-107306190D01*
X36523809Y-107306190D02*
X36619047Y-107115714D01*
X36619047Y-107115714D02*
X36714285Y-107020476D01*
X36714285Y-107020476D02*
X36904761Y-106925238D01*
X52523809Y-108925238D02*
X52523809Y-106925238D01*
X52523809Y-106925238D02*
X53285714Y-106925238D01*
X53285714Y-106925238D02*
X53476190Y-107020476D01*
X53476190Y-107020476D02*
X53571428Y-107115714D01*
X53571428Y-107115714D02*
X53666666Y-107306190D01*
X53666666Y-107306190D02*
X53666666Y-107591904D01*
X53666666Y-107591904D02*
X53571428Y-107782380D01*
X53571428Y-107782380D02*
X53476190Y-107877619D01*
X53476190Y-107877619D02*
X53285714Y-107972857D01*
X53285714Y-107972857D02*
X52523809Y-107972857D01*
X55571428Y-108925238D02*
X54428571Y-108925238D01*
X54999999Y-108925238D02*
X54999999Y-106925238D01*
X54999999Y-106925238D02*
X54809523Y-107210952D01*
X54809523Y-107210952D02*
X54619047Y-107401428D01*
X54619047Y-107401428D02*
X54428571Y-107496666D01*
X69523809Y-108925238D02*
X69523809Y-106925238D01*
X69523809Y-106925238D02*
X70285714Y-106925238D01*
X70285714Y-106925238D02*
X70476190Y-107020476D01*
X70476190Y-107020476D02*
X70571428Y-107115714D01*
X70571428Y-107115714D02*
X70666666Y-107306190D01*
X70666666Y-107306190D02*
X70666666Y-107591904D01*
X70666666Y-107591904D02*
X70571428Y-107782380D01*
X70571428Y-107782380D02*
X70476190Y-107877619D01*
X70476190Y-107877619D02*
X70285714Y-107972857D01*
X70285714Y-107972857D02*
X69523809Y-107972857D01*
X71428571Y-107115714D02*
X71523809Y-107020476D01*
X71523809Y-107020476D02*
X71714285Y-106925238D01*
X71714285Y-106925238D02*
X72190476Y-106925238D01*
X72190476Y-106925238D02*
X72380952Y-107020476D01*
X72380952Y-107020476D02*
X72476190Y-107115714D01*
X72476190Y-107115714D02*
X72571428Y-107306190D01*
X72571428Y-107306190D02*
X72571428Y-107496666D01*
X72571428Y-107496666D02*
X72476190Y-107782380D01*
X72476190Y-107782380D02*
X71333333Y-108925238D01*
X71333333Y-108925238D02*
X72571428Y-108925238D01*
X87523809Y-108925238D02*
X87523809Y-106925238D01*
X87523809Y-106925238D02*
X88285714Y-106925238D01*
X88285714Y-106925238D02*
X88476190Y-107020476D01*
X88476190Y-107020476D02*
X88571428Y-107115714D01*
X88571428Y-107115714D02*
X88666666Y-107306190D01*
X88666666Y-107306190D02*
X88666666Y-107591904D01*
X88666666Y-107591904D02*
X88571428Y-107782380D01*
X88571428Y-107782380D02*
X88476190Y-107877619D01*
X88476190Y-107877619D02*
X88285714Y-107972857D01*
X88285714Y-107972857D02*
X87523809Y-107972857D01*
X89333333Y-106925238D02*
X90571428Y-106925238D01*
X90571428Y-106925238D02*
X89904761Y-107687142D01*
X89904761Y-107687142D02*
X90190476Y-107687142D01*
X90190476Y-107687142D02*
X90380952Y-107782380D01*
X90380952Y-107782380D02*
X90476190Y-107877619D01*
X90476190Y-107877619D02*
X90571428Y-108068095D01*
X90571428Y-108068095D02*
X90571428Y-108544285D01*
X90571428Y-108544285D02*
X90476190Y-108734761D01*
X90476190Y-108734761D02*
X90380952Y-108830000D01*
X90380952Y-108830000D02*
X90190476Y-108925238D01*
X90190476Y-108925238D02*
X89619047Y-108925238D01*
X89619047Y-108925238D02*
X89428571Y-108830000D01*
X89428571Y-108830000D02*
X89333333Y-108734761D01*
X104523809Y-108925238D02*
X104523809Y-106925238D01*
X104523809Y-106925238D02*
X105285714Y-106925238D01*
X105285714Y-106925238D02*
X105476190Y-107020476D01*
X105476190Y-107020476D02*
X105571428Y-107115714D01*
X105571428Y-107115714D02*
X105666666Y-107306190D01*
X105666666Y-107306190D02*
X105666666Y-107591904D01*
X105666666Y-107591904D02*
X105571428Y-107782380D01*
X105571428Y-107782380D02*
X105476190Y-107877619D01*
X105476190Y-107877619D02*
X105285714Y-107972857D01*
X105285714Y-107972857D02*
X104523809Y-107972857D01*
X107380952Y-107591904D02*
X107380952Y-108925238D01*
X106904761Y-106830000D02*
X106428571Y-108258571D01*
X106428571Y-108258571D02*
X107666666Y-108258571D01*
X120523809Y-108925238D02*
X120523809Y-106925238D01*
X120523809Y-106925238D02*
X121285714Y-106925238D01*
X121285714Y-106925238D02*
X121476190Y-107020476D01*
X121476190Y-107020476D02*
X121571428Y-107115714D01*
X121571428Y-107115714D02*
X121666666Y-107306190D01*
X121666666Y-107306190D02*
X121666666Y-107591904D01*
X121666666Y-107591904D02*
X121571428Y-107782380D01*
X121571428Y-107782380D02*
X121476190Y-107877619D01*
X121476190Y-107877619D02*
X121285714Y-107972857D01*
X121285714Y-107972857D02*
X120523809Y-107972857D01*
X123476190Y-106925238D02*
X122523809Y-106925238D01*
X122523809Y-106925238D02*
X122428571Y-107877619D01*
X122428571Y-107877619D02*
X122523809Y-107782380D01*
X122523809Y-107782380D02*
X122714285Y-107687142D01*
X122714285Y-107687142D02*
X123190476Y-107687142D01*
X123190476Y-107687142D02*
X123380952Y-107782380D01*
X123380952Y-107782380D02*
X123476190Y-107877619D01*
X123476190Y-107877619D02*
X123571428Y-108068095D01*
X123571428Y-108068095D02*
X123571428Y-108544285D01*
X123571428Y-108544285D02*
X123476190Y-108734761D01*
X123476190Y-108734761D02*
X123380952Y-108830000D01*
X123380952Y-108830000D02*
X123190476Y-108925238D01*
X123190476Y-108925238D02*
X122714285Y-108925238D01*
X122714285Y-108925238D02*
X122523809Y-108830000D01*
X122523809Y-108830000D02*
X122428571Y-108734761D01*
D12*
X56462619Y-57142857D02*
X56462619Y-57619047D01*
X56462619Y-57619047D02*
X55462619Y-57619047D01*
X55462619Y-56619047D02*
X55462619Y-56428571D01*
X55462619Y-56428571D02*
X55510238Y-56333333D01*
X55510238Y-56333333D02*
X55605476Y-56238095D01*
X55605476Y-56238095D02*
X55795952Y-56190476D01*
X55795952Y-56190476D02*
X56129285Y-56190476D01*
X56129285Y-56190476D02*
X56319761Y-56238095D01*
X56319761Y-56238095D02*
X56415000Y-56333333D01*
X56415000Y-56333333D02*
X56462619Y-56428571D01*
X56462619Y-56428571D02*
X56462619Y-56619047D01*
X56462619Y-56619047D02*
X56415000Y-56714285D01*
X56415000Y-56714285D02*
X56319761Y-56809523D01*
X56319761Y-56809523D02*
X56129285Y-56857142D01*
X56129285Y-56857142D02*
X55795952Y-56857142D01*
X55795952Y-56857142D02*
X55605476Y-56809523D01*
X55605476Y-56809523D02*
X55510238Y-56714285D01*
X55510238Y-56714285D02*
X55462619Y-56619047D01*
X56367380Y-55190476D02*
X56415000Y-55238095D01*
X56415000Y-55238095D02*
X56462619Y-55380952D01*
X56462619Y-55380952D02*
X56462619Y-55476190D01*
X56462619Y-55476190D02*
X56415000Y-55619047D01*
X56415000Y-55619047D02*
X56319761Y-55714285D01*
X56319761Y-55714285D02*
X56224523Y-55761904D01*
X56224523Y-55761904D02*
X56034047Y-55809523D01*
X56034047Y-55809523D02*
X55891190Y-55809523D01*
X55891190Y-55809523D02*
X55700714Y-55761904D01*
X55700714Y-55761904D02*
X55605476Y-55714285D01*
X55605476Y-55714285D02*
X55510238Y-55619047D01*
X55510238Y-55619047D02*
X55462619Y-55476190D01*
X55462619Y-55476190D02*
X55462619Y-55380952D01*
X55462619Y-55380952D02*
X55510238Y-55238095D01*
X55510238Y-55238095D02*
X55557857Y-55190476D01*
X56176904Y-54809523D02*
X56176904Y-54333333D01*
X56462619Y-54904761D02*
X55462619Y-54571428D01*
X55462619Y-54571428D02*
X56462619Y-54238095D01*
X56462619Y-53428571D02*
X56462619Y-53904761D01*
X56462619Y-53904761D02*
X55462619Y-53904761D01*
X56557857Y-53333333D02*
X56557857Y-52571428D01*
X56462619Y-51857142D02*
X56462619Y-52333332D01*
X56462619Y-52333332D02*
X55462619Y-52333332D01*
X55938809Y-51523808D02*
X55938809Y-51190475D01*
X56462619Y-51047618D02*
X56462619Y-51523808D01*
X56462619Y-51523808D02*
X55462619Y-51523808D01*
X55462619Y-51523808D02*
X55462619Y-51047618D01*
X56462619Y-50619046D02*
X55462619Y-50619046D01*
X55462619Y-50619046D02*
X55462619Y-50380951D01*
X55462619Y-50380951D02*
X55510238Y-50238094D01*
X55510238Y-50238094D02*
X55605476Y-50142856D01*
X55605476Y-50142856D02*
X55700714Y-50095237D01*
X55700714Y-50095237D02*
X55891190Y-50047618D01*
X55891190Y-50047618D02*
X56034047Y-50047618D01*
X56034047Y-50047618D02*
X56224523Y-50095237D01*
X56224523Y-50095237D02*
X56319761Y-50142856D01*
X56319761Y-50142856D02*
X56415000Y-50238094D01*
X56415000Y-50238094D02*
X56462619Y-50380951D01*
X56462619Y-50380951D02*
X56462619Y-50619046D01*
X56557857Y-49857142D02*
X56557857Y-49095237D01*
X56462619Y-48333332D02*
X56462619Y-48904760D01*
X56462619Y-48619046D02*
X55462619Y-48619046D01*
X55462619Y-48619046D02*
X55605476Y-48714284D01*
X55605476Y-48714284D02*
X55700714Y-48809522D01*
X55700714Y-48809522D02*
X55748333Y-48904760D01*
X58761904Y-58010238D02*
X58666666Y-57962619D01*
X58666666Y-57962619D02*
X58523809Y-57962619D01*
X58523809Y-57962619D02*
X58380952Y-58010238D01*
X58380952Y-58010238D02*
X58285714Y-58105476D01*
X58285714Y-58105476D02*
X58238095Y-58200714D01*
X58238095Y-58200714D02*
X58190476Y-58391190D01*
X58190476Y-58391190D02*
X58190476Y-58534047D01*
X58190476Y-58534047D02*
X58238095Y-58724523D01*
X58238095Y-58724523D02*
X58285714Y-58819761D01*
X58285714Y-58819761D02*
X58380952Y-58915000D01*
X58380952Y-58915000D02*
X58523809Y-58962619D01*
X58523809Y-58962619D02*
X58619047Y-58962619D01*
X58619047Y-58962619D02*
X58761904Y-58915000D01*
X58761904Y-58915000D02*
X58809523Y-58867380D01*
X58809523Y-58867380D02*
X58809523Y-58534047D01*
X58809523Y-58534047D02*
X58619047Y-58534047D01*
X63309523Y-57962619D02*
X62833333Y-57962619D01*
X62833333Y-57962619D02*
X62785714Y-58438809D01*
X62785714Y-58438809D02*
X62833333Y-58391190D01*
X62833333Y-58391190D02*
X62928571Y-58343571D01*
X62928571Y-58343571D02*
X63166666Y-58343571D01*
X63166666Y-58343571D02*
X63261904Y-58391190D01*
X63261904Y-58391190D02*
X63309523Y-58438809D01*
X63309523Y-58438809D02*
X63357142Y-58534047D01*
X63357142Y-58534047D02*
X63357142Y-58772142D01*
X63357142Y-58772142D02*
X63309523Y-58867380D01*
X63309523Y-58867380D02*
X63261904Y-58915000D01*
X63261904Y-58915000D02*
X63166666Y-58962619D01*
X63166666Y-58962619D02*
X62928571Y-58962619D01*
X62928571Y-58962619D02*
X62833333Y-58915000D01*
X62833333Y-58915000D02*
X62785714Y-58867380D01*
X63642857Y-57962619D02*
X63976190Y-58962619D01*
X63976190Y-58962619D02*
X64309523Y-57962619D01*
X106261904Y-58010238D02*
X106166666Y-57962619D01*
X106166666Y-57962619D02*
X106023809Y-57962619D01*
X106023809Y-57962619D02*
X105880952Y-58010238D01*
X105880952Y-58010238D02*
X105785714Y-58105476D01*
X105785714Y-58105476D02*
X105738095Y-58200714D01*
X105738095Y-58200714D02*
X105690476Y-58391190D01*
X105690476Y-58391190D02*
X105690476Y-58534047D01*
X105690476Y-58534047D02*
X105738095Y-58724523D01*
X105738095Y-58724523D02*
X105785714Y-58819761D01*
X105785714Y-58819761D02*
X105880952Y-58915000D01*
X105880952Y-58915000D02*
X106023809Y-58962619D01*
X106023809Y-58962619D02*
X106119047Y-58962619D01*
X106119047Y-58962619D02*
X106261904Y-58915000D01*
X106261904Y-58915000D02*
X106309523Y-58867380D01*
X106309523Y-58867380D02*
X106309523Y-58534047D01*
X106309523Y-58534047D02*
X106119047Y-58534047D01*
X126461904Y-58010238D02*
X126366666Y-57962619D01*
X126366666Y-57962619D02*
X126223809Y-57962619D01*
X126223809Y-57962619D02*
X126080952Y-58010238D01*
X126080952Y-58010238D02*
X125985714Y-58105476D01*
X125985714Y-58105476D02*
X125938095Y-58200714D01*
X125938095Y-58200714D02*
X125890476Y-58391190D01*
X125890476Y-58391190D02*
X125890476Y-58534047D01*
X125890476Y-58534047D02*
X125938095Y-58724523D01*
X125938095Y-58724523D02*
X125985714Y-58819761D01*
X125985714Y-58819761D02*
X126080952Y-58915000D01*
X126080952Y-58915000D02*
X126223809Y-58962619D01*
X126223809Y-58962619D02*
X126319047Y-58962619D01*
X126319047Y-58962619D02*
X126461904Y-58915000D01*
X126461904Y-58915000D02*
X126509523Y-58867380D01*
X126509523Y-58867380D02*
X126509523Y-58534047D01*
X126509523Y-58534047D02*
X126319047Y-58534047D01*
X110809523Y-57962619D02*
X110333333Y-57962619D01*
X110333333Y-57962619D02*
X110285714Y-58438809D01*
X110285714Y-58438809D02*
X110333333Y-58391190D01*
X110333333Y-58391190D02*
X110428571Y-58343571D01*
X110428571Y-58343571D02*
X110666666Y-58343571D01*
X110666666Y-58343571D02*
X110761904Y-58391190D01*
X110761904Y-58391190D02*
X110809523Y-58438809D01*
X110809523Y-58438809D02*
X110857142Y-58534047D01*
X110857142Y-58534047D02*
X110857142Y-58772142D01*
X110857142Y-58772142D02*
X110809523Y-58867380D01*
X110809523Y-58867380D02*
X110761904Y-58915000D01*
X110761904Y-58915000D02*
X110666666Y-58962619D01*
X110666666Y-58962619D02*
X110428571Y-58962619D01*
X110428571Y-58962619D02*
X110333333Y-58915000D01*
X110333333Y-58915000D02*
X110285714Y-58867380D01*
X111142857Y-57962619D02*
X111476190Y-58962619D01*
X111476190Y-58962619D02*
X111809523Y-57962619D01*
X131109523Y-57962619D02*
X130633333Y-57962619D01*
X130633333Y-57962619D02*
X130585714Y-58438809D01*
X130585714Y-58438809D02*
X130633333Y-58391190D01*
X130633333Y-58391190D02*
X130728571Y-58343571D01*
X130728571Y-58343571D02*
X130966666Y-58343571D01*
X130966666Y-58343571D02*
X131061904Y-58391190D01*
X131061904Y-58391190D02*
X131109523Y-58438809D01*
X131109523Y-58438809D02*
X131157142Y-58534047D01*
X131157142Y-58534047D02*
X131157142Y-58772142D01*
X131157142Y-58772142D02*
X131109523Y-58867380D01*
X131109523Y-58867380D02*
X131061904Y-58915000D01*
X131061904Y-58915000D02*
X130966666Y-58962619D01*
X130966666Y-58962619D02*
X130728571Y-58962619D01*
X130728571Y-58962619D02*
X130633333Y-58915000D01*
X130633333Y-58915000D02*
X130585714Y-58867380D01*
X131442857Y-57962619D02*
X131776190Y-58962619D01*
X131776190Y-58962619D02*
X132109523Y-57962619D01*
X131809523Y-78962619D02*
X131333333Y-78962619D01*
X131333333Y-78962619D02*
X131285714Y-79438809D01*
X131285714Y-79438809D02*
X131333333Y-79391190D01*
X131333333Y-79391190D02*
X131428571Y-79343571D01*
X131428571Y-79343571D02*
X131666666Y-79343571D01*
X131666666Y-79343571D02*
X131761904Y-79391190D01*
X131761904Y-79391190D02*
X131809523Y-79438809D01*
X131809523Y-79438809D02*
X131857142Y-79534047D01*
X131857142Y-79534047D02*
X131857142Y-79772142D01*
X131857142Y-79772142D02*
X131809523Y-79867380D01*
X131809523Y-79867380D02*
X131761904Y-79915000D01*
X131761904Y-79915000D02*
X131666666Y-79962619D01*
X131666666Y-79962619D02*
X131428571Y-79962619D01*
X131428571Y-79962619D02*
X131333333Y-79915000D01*
X131333333Y-79915000D02*
X131285714Y-79867380D01*
X132142857Y-78962619D02*
X132476190Y-79962619D01*
X132476190Y-79962619D02*
X132809523Y-78962619D01*
X132761904Y-68510238D02*
X132666666Y-68462619D01*
X132666666Y-68462619D02*
X132523809Y-68462619D01*
X132523809Y-68462619D02*
X132380952Y-68510238D01*
X132380952Y-68510238D02*
X132285714Y-68605476D01*
X132285714Y-68605476D02*
X132238095Y-68700714D01*
X132238095Y-68700714D02*
X132190476Y-68891190D01*
X132190476Y-68891190D02*
X132190476Y-69034047D01*
X132190476Y-69034047D02*
X132238095Y-69224523D01*
X132238095Y-69224523D02*
X132285714Y-69319761D01*
X132285714Y-69319761D02*
X132380952Y-69415000D01*
X132380952Y-69415000D02*
X132523809Y-69462619D01*
X132523809Y-69462619D02*
X132619047Y-69462619D01*
X132619047Y-69462619D02*
X132761904Y-69415000D01*
X132761904Y-69415000D02*
X132809523Y-69367380D01*
X132809523Y-69367380D02*
X132809523Y-69034047D01*
X132809523Y-69034047D02*
X132619047Y-69034047D01*
X133761905Y-66676904D02*
X134238095Y-66676904D01*
X133666667Y-66962619D02*
X134000000Y-65962619D01*
X134000000Y-65962619D02*
X134333333Y-66962619D01*
X134666667Y-65962619D02*
X134666667Y-66772142D01*
X134666667Y-66772142D02*
X134714286Y-66867380D01*
X134714286Y-66867380D02*
X134761905Y-66915000D01*
X134761905Y-66915000D02*
X134857143Y-66962619D01*
X134857143Y-66962619D02*
X135047619Y-66962619D01*
X135047619Y-66962619D02*
X135142857Y-66915000D01*
X135142857Y-66915000D02*
X135190476Y-66867380D01*
X135190476Y-66867380D02*
X135238095Y-66772142D01*
X135238095Y-66772142D02*
X135238095Y-65962619D01*
X135619048Y-65962619D02*
X136285714Y-66962619D01*
X136285714Y-65962619D02*
X135619048Y-66962619D01*
X80609523Y-55662619D02*
X80133333Y-55662619D01*
X80133333Y-55662619D02*
X80085714Y-56138809D01*
X80085714Y-56138809D02*
X80133333Y-56091190D01*
X80133333Y-56091190D02*
X80228571Y-56043571D01*
X80228571Y-56043571D02*
X80466666Y-56043571D01*
X80466666Y-56043571D02*
X80561904Y-56091190D01*
X80561904Y-56091190D02*
X80609523Y-56138809D01*
X80609523Y-56138809D02*
X80657142Y-56234047D01*
X80657142Y-56234047D02*
X80657142Y-56472142D01*
X80657142Y-56472142D02*
X80609523Y-56567380D01*
X80609523Y-56567380D02*
X80561904Y-56615000D01*
X80561904Y-56615000D02*
X80466666Y-56662619D01*
X80466666Y-56662619D02*
X80228571Y-56662619D01*
X80228571Y-56662619D02*
X80133333Y-56615000D01*
X80133333Y-56615000D02*
X80085714Y-56567380D01*
X80942857Y-55662619D02*
X81276190Y-56662619D01*
X81276190Y-56662619D02*
X81609523Y-55662619D01*
X103195238Y-74877619D02*
X103766666Y-74877619D01*
X103480952Y-75877619D02*
X103480952Y-74877619D01*
X104100000Y-75353809D02*
X104433333Y-75353809D01*
X104576190Y-75877619D02*
X104100000Y-75877619D01*
X104100000Y-75877619D02*
X104100000Y-74877619D01*
X104100000Y-74877619D02*
X104576190Y-74877619D01*
X105004762Y-75353809D02*
X105338095Y-75353809D01*
X105480952Y-75877619D02*
X105004762Y-75877619D01*
X105004762Y-75877619D02*
X105004762Y-74877619D01*
X105004762Y-74877619D02*
X105480952Y-74877619D01*
X105909524Y-75877619D02*
X105909524Y-74877619D01*
X105909524Y-74877619D02*
X106480952Y-75877619D01*
X106480952Y-75877619D02*
X106480952Y-74877619D01*
X106909524Y-75830000D02*
X107052381Y-75877619D01*
X107052381Y-75877619D02*
X107290476Y-75877619D01*
X107290476Y-75877619D02*
X107385714Y-75830000D01*
X107385714Y-75830000D02*
X107433333Y-75782380D01*
X107433333Y-75782380D02*
X107480952Y-75687142D01*
X107480952Y-75687142D02*
X107480952Y-75591904D01*
X107480952Y-75591904D02*
X107433333Y-75496666D01*
X107433333Y-75496666D02*
X107385714Y-75449047D01*
X107385714Y-75449047D02*
X107290476Y-75401428D01*
X107290476Y-75401428D02*
X107100000Y-75353809D01*
X107100000Y-75353809D02*
X107004762Y-75306190D01*
X107004762Y-75306190D02*
X106957143Y-75258571D01*
X106957143Y-75258571D02*
X106909524Y-75163333D01*
X106909524Y-75163333D02*
X106909524Y-75068095D01*
X106909524Y-75068095D02*
X106957143Y-74972857D01*
X106957143Y-74972857D02*
X107004762Y-74925238D01*
X107004762Y-74925238D02*
X107100000Y-74877619D01*
X107100000Y-74877619D02*
X107338095Y-74877619D01*
X107338095Y-74877619D02*
X107480952Y-74925238D01*
X108100000Y-75401428D02*
X108100000Y-75877619D01*
X107766667Y-74877619D02*
X108100000Y-75401428D01*
X108100000Y-75401428D02*
X108433333Y-74877619D01*
X109957143Y-75210952D02*
X109957143Y-75877619D01*
X109719048Y-74830000D02*
X109480953Y-75544285D01*
X109480953Y-75544285D02*
X110100000Y-75544285D01*
X110480953Y-75782380D02*
X110528572Y-75830000D01*
X110528572Y-75830000D02*
X110480953Y-75877619D01*
X110480953Y-75877619D02*
X110433334Y-75830000D01*
X110433334Y-75830000D02*
X110480953Y-75782380D01*
X110480953Y-75782380D02*
X110480953Y-75877619D01*
X111480952Y-75877619D02*
X110909524Y-75877619D01*
X111195238Y-75877619D02*
X111195238Y-74877619D01*
X111195238Y-74877619D02*
X111100000Y-75020476D01*
X111100000Y-75020476D02*
X111004762Y-75115714D01*
X111004762Y-75115714D02*
X110909524Y-75163333D01*
X129285714Y-71676904D02*
X129761904Y-71676904D01*
X129190476Y-71962619D02*
X129523809Y-70962619D01*
X129523809Y-70962619D02*
X129857142Y-71962619D01*
X130190476Y-70962619D02*
X130190476Y-71772142D01*
X130190476Y-71772142D02*
X130238095Y-71867380D01*
X130238095Y-71867380D02*
X130285714Y-71915000D01*
X130285714Y-71915000D02*
X130380952Y-71962619D01*
X130380952Y-71962619D02*
X130571428Y-71962619D01*
X130571428Y-71962619D02*
X130666666Y-71915000D01*
X130666666Y-71915000D02*
X130714285Y-71867380D01*
X130714285Y-71867380D02*
X130761904Y-71772142D01*
X130761904Y-71772142D02*
X130761904Y-70962619D01*
X131142857Y-70962619D02*
X131809523Y-71962619D01*
X131809523Y-70962619D02*
X131142857Y-71962619D01*
X132380952Y-70962619D02*
X132476190Y-70962619D01*
X132476190Y-70962619D02*
X132571428Y-71010238D01*
X132571428Y-71010238D02*
X132619047Y-71057857D01*
X132619047Y-71057857D02*
X132666666Y-71153095D01*
X132666666Y-71153095D02*
X132714285Y-71343571D01*
X132714285Y-71343571D02*
X132714285Y-71581666D01*
X132714285Y-71581666D02*
X132666666Y-71772142D01*
X132666666Y-71772142D02*
X132619047Y-71867380D01*
X132619047Y-71867380D02*
X132571428Y-71915000D01*
X132571428Y-71915000D02*
X132476190Y-71962619D01*
X132476190Y-71962619D02*
X132380952Y-71962619D01*
X132380952Y-71962619D02*
X132285714Y-71915000D01*
X132285714Y-71915000D02*
X132238095Y-71867380D01*
X132238095Y-71867380D02*
X132190476Y-71772142D01*
X132190476Y-71772142D02*
X132142857Y-71581666D01*
X132142857Y-71581666D02*
X132142857Y-71343571D01*
X132142857Y-71343571D02*
X132190476Y-71153095D01*
X132190476Y-71153095D02*
X132238095Y-71057857D01*
X132238095Y-71057857D02*
X132285714Y-71010238D01*
X132285714Y-71010238D02*
X132380952Y-70962619D01*
X124262619Y-57376189D02*
X123262619Y-57376189D01*
X123262619Y-57376189D02*
X123262619Y-56995237D01*
X123262619Y-56995237D02*
X123310238Y-56899999D01*
X123310238Y-56899999D02*
X123357857Y-56852380D01*
X123357857Y-56852380D02*
X123453095Y-56804761D01*
X123453095Y-56804761D02*
X123595952Y-56804761D01*
X123595952Y-56804761D02*
X123691190Y-56852380D01*
X123691190Y-56852380D02*
X123738809Y-56899999D01*
X123738809Y-56899999D02*
X123786428Y-56995237D01*
X123786428Y-56995237D02*
X123786428Y-57376189D01*
X124262619Y-56376189D02*
X123262619Y-56376189D01*
X124262619Y-55328571D02*
X123786428Y-55661904D01*
X124262619Y-55899999D02*
X123262619Y-55899999D01*
X123262619Y-55899999D02*
X123262619Y-55519047D01*
X123262619Y-55519047D02*
X123310238Y-55423809D01*
X123310238Y-55423809D02*
X123357857Y-55376190D01*
X123357857Y-55376190D02*
X123453095Y-55328571D01*
X123453095Y-55328571D02*
X123595952Y-55328571D01*
X123595952Y-55328571D02*
X123691190Y-55376190D01*
X123691190Y-55376190D02*
X123738809Y-55423809D01*
X123738809Y-55423809D02*
X123786428Y-55519047D01*
X123786428Y-55519047D02*
X123786428Y-55899999D01*
X123357857Y-54947618D02*
X123310238Y-54899999D01*
X123310238Y-54899999D02*
X123262619Y-54804761D01*
X123262619Y-54804761D02*
X123262619Y-54566666D01*
X123262619Y-54566666D02*
X123310238Y-54471428D01*
X123310238Y-54471428D02*
X123357857Y-54423809D01*
X123357857Y-54423809D02*
X123453095Y-54376190D01*
X123453095Y-54376190D02*
X123548333Y-54376190D01*
X123548333Y-54376190D02*
X123691190Y-54423809D01*
X123691190Y-54423809D02*
X124262619Y-54995237D01*
X124262619Y-54995237D02*
X124262619Y-54376190D01*
X129285714Y-74176904D02*
X129761904Y-74176904D01*
X129190476Y-74462619D02*
X129523809Y-73462619D01*
X129523809Y-73462619D02*
X129857142Y-74462619D01*
X130190476Y-73462619D02*
X130190476Y-74272142D01*
X130190476Y-74272142D02*
X130238095Y-74367380D01*
X130238095Y-74367380D02*
X130285714Y-74415000D01*
X130285714Y-74415000D02*
X130380952Y-74462619D01*
X130380952Y-74462619D02*
X130571428Y-74462619D01*
X130571428Y-74462619D02*
X130666666Y-74415000D01*
X130666666Y-74415000D02*
X130714285Y-74367380D01*
X130714285Y-74367380D02*
X130761904Y-74272142D01*
X130761904Y-74272142D02*
X130761904Y-73462619D01*
X131142857Y-73462619D02*
X131809523Y-74462619D01*
X131809523Y-73462619D02*
X131142857Y-74462619D01*
X132714285Y-74462619D02*
X132142857Y-74462619D01*
X132428571Y-74462619D02*
X132428571Y-73462619D01*
X132428571Y-73462619D02*
X132333333Y-73605476D01*
X132333333Y-73605476D02*
X132238095Y-73700714D01*
X132238095Y-73700714D02*
X132142857Y-73748333D01*
X48261904Y-58010238D02*
X48166666Y-57962619D01*
X48166666Y-57962619D02*
X48023809Y-57962619D01*
X48023809Y-57962619D02*
X47880952Y-58010238D01*
X47880952Y-58010238D02*
X47785714Y-58105476D01*
X47785714Y-58105476D02*
X47738095Y-58200714D01*
X47738095Y-58200714D02*
X47690476Y-58391190D01*
X47690476Y-58391190D02*
X47690476Y-58534047D01*
X47690476Y-58534047D02*
X47738095Y-58724523D01*
X47738095Y-58724523D02*
X47785714Y-58819761D01*
X47785714Y-58819761D02*
X47880952Y-58915000D01*
X47880952Y-58915000D02*
X48023809Y-58962619D01*
X48023809Y-58962619D02*
X48119047Y-58962619D01*
X48119047Y-58962619D02*
X48261904Y-58915000D01*
X48261904Y-58915000D02*
X48309523Y-58867380D01*
X48309523Y-58867380D02*
X48309523Y-58534047D01*
X48309523Y-58534047D02*
X48119047Y-58534047D01*
X116361904Y-58010238D02*
X116266666Y-57962619D01*
X116266666Y-57962619D02*
X116123809Y-57962619D01*
X116123809Y-57962619D02*
X115980952Y-58010238D01*
X115980952Y-58010238D02*
X115885714Y-58105476D01*
X115885714Y-58105476D02*
X115838095Y-58200714D01*
X115838095Y-58200714D02*
X115790476Y-58391190D01*
X115790476Y-58391190D02*
X115790476Y-58534047D01*
X115790476Y-58534047D02*
X115838095Y-58724523D01*
X115838095Y-58724523D02*
X115885714Y-58819761D01*
X115885714Y-58819761D02*
X115980952Y-58915000D01*
X115980952Y-58915000D02*
X116123809Y-58962619D01*
X116123809Y-58962619D02*
X116219047Y-58962619D01*
X116219047Y-58962619D02*
X116361904Y-58915000D01*
X116361904Y-58915000D02*
X116409523Y-58867380D01*
X116409523Y-58867380D02*
X116409523Y-58534047D01*
X116409523Y-58534047D02*
X116219047Y-58534047D01*
X114162619Y-57376189D02*
X113162619Y-57376189D01*
X113162619Y-57376189D02*
X113162619Y-56995237D01*
X113162619Y-56995237D02*
X113210238Y-56899999D01*
X113210238Y-56899999D02*
X113257857Y-56852380D01*
X113257857Y-56852380D02*
X113353095Y-56804761D01*
X113353095Y-56804761D02*
X113495952Y-56804761D01*
X113495952Y-56804761D02*
X113591190Y-56852380D01*
X113591190Y-56852380D02*
X113638809Y-56899999D01*
X113638809Y-56899999D02*
X113686428Y-56995237D01*
X113686428Y-56995237D02*
X113686428Y-57376189D01*
X114162619Y-56376189D02*
X113162619Y-56376189D01*
X114162619Y-55328571D02*
X113686428Y-55661904D01*
X114162619Y-55899999D02*
X113162619Y-55899999D01*
X113162619Y-55899999D02*
X113162619Y-55519047D01*
X113162619Y-55519047D02*
X113210238Y-55423809D01*
X113210238Y-55423809D02*
X113257857Y-55376190D01*
X113257857Y-55376190D02*
X113353095Y-55328571D01*
X113353095Y-55328571D02*
X113495952Y-55328571D01*
X113495952Y-55328571D02*
X113591190Y-55376190D01*
X113591190Y-55376190D02*
X113638809Y-55423809D01*
X113638809Y-55423809D02*
X113686428Y-55519047D01*
X113686428Y-55519047D02*
X113686428Y-55899999D01*
X114162619Y-54376190D02*
X114162619Y-54947618D01*
X114162619Y-54661904D02*
X113162619Y-54661904D01*
X113162619Y-54661904D02*
X113305476Y-54757142D01*
X113305476Y-54757142D02*
X113400714Y-54852380D01*
X113400714Y-54852380D02*
X113448333Y-54947618D01*
X16362619Y-105295237D02*
X16362619Y-104723809D01*
X17362619Y-105009523D02*
X16362619Y-105009523D01*
X16838809Y-104390475D02*
X16838809Y-104057142D01*
X17362619Y-103914285D02*
X17362619Y-104390475D01*
X17362619Y-104390475D02*
X16362619Y-104390475D01*
X16362619Y-104390475D02*
X16362619Y-103914285D01*
X17315000Y-103533332D02*
X17362619Y-103390475D01*
X17362619Y-103390475D02*
X17362619Y-103152380D01*
X17362619Y-103152380D02*
X17315000Y-103057142D01*
X17315000Y-103057142D02*
X17267380Y-103009523D01*
X17267380Y-103009523D02*
X17172142Y-102961904D01*
X17172142Y-102961904D02*
X17076904Y-102961904D01*
X17076904Y-102961904D02*
X16981666Y-103009523D01*
X16981666Y-103009523D02*
X16934047Y-103057142D01*
X16934047Y-103057142D02*
X16886428Y-103152380D01*
X16886428Y-103152380D02*
X16838809Y-103342856D01*
X16838809Y-103342856D02*
X16791190Y-103438094D01*
X16791190Y-103438094D02*
X16743571Y-103485713D01*
X16743571Y-103485713D02*
X16648333Y-103533332D01*
X16648333Y-103533332D02*
X16553095Y-103533332D01*
X16553095Y-103533332D02*
X16457857Y-103485713D01*
X16457857Y-103485713D02*
X16410238Y-103438094D01*
X16410238Y-103438094D02*
X16362619Y-103342856D01*
X16362619Y-103342856D02*
X16362619Y-103104761D01*
X16362619Y-103104761D02*
X16410238Y-102961904D01*
X16362619Y-102676189D02*
X16362619Y-102104761D01*
X17362619Y-102390475D02*
X16362619Y-102390475D01*
D11*
X31633333Y-91525238D02*
X31633333Y-89525238D01*
X31633333Y-89525238D02*
X32395238Y-89525238D01*
X32395238Y-89525238D02*
X32585714Y-89620476D01*
X32585714Y-89620476D02*
X32680952Y-89715714D01*
X32680952Y-89715714D02*
X32776190Y-89906190D01*
X32776190Y-89906190D02*
X32776190Y-90191904D01*
X32776190Y-90191904D02*
X32680952Y-90382380D01*
X32680952Y-90382380D02*
X32585714Y-90477619D01*
X32585714Y-90477619D02*
X32395238Y-90572857D01*
X32395238Y-90572857D02*
X31633333Y-90572857D01*
X33442857Y-89525238D02*
X33919047Y-91525238D01*
X33919047Y-91525238D02*
X34300000Y-90096666D01*
X34300000Y-90096666D02*
X34680952Y-91525238D01*
X34680952Y-91525238D02*
X35157143Y-89525238D01*
X37061904Y-91525238D02*
X36395237Y-90572857D01*
X35919047Y-91525238D02*
X35919047Y-89525238D01*
X35919047Y-89525238D02*
X36680952Y-89525238D01*
X36680952Y-89525238D02*
X36871428Y-89620476D01*
X36871428Y-89620476D02*
X36966666Y-89715714D01*
X36966666Y-89715714D02*
X37061904Y-89906190D01*
X37061904Y-89906190D02*
X37061904Y-90191904D01*
X37061904Y-90191904D02*
X36966666Y-90382380D01*
X36966666Y-90382380D02*
X36871428Y-90477619D01*
X36871428Y-90477619D02*
X36680952Y-90572857D01*
X36680952Y-90572857D02*
X35919047Y-90572857D01*
D12*
X70161904Y-58110238D02*
X70066666Y-58062619D01*
X70066666Y-58062619D02*
X69923809Y-58062619D01*
X69923809Y-58062619D02*
X69780952Y-58110238D01*
X69780952Y-58110238D02*
X69685714Y-58205476D01*
X69685714Y-58205476D02*
X69638095Y-58300714D01*
X69638095Y-58300714D02*
X69590476Y-58491190D01*
X69590476Y-58491190D02*
X69590476Y-58634047D01*
X69590476Y-58634047D02*
X69638095Y-58824523D01*
X69638095Y-58824523D02*
X69685714Y-58919761D01*
X69685714Y-58919761D02*
X69780952Y-59015000D01*
X69780952Y-59015000D02*
X69923809Y-59062619D01*
X69923809Y-59062619D02*
X70019047Y-59062619D01*
X70019047Y-59062619D02*
X70161904Y-59015000D01*
X70161904Y-59015000D02*
X70209523Y-58967380D01*
X70209523Y-58967380D02*
X70209523Y-58634047D01*
X70209523Y-58634047D02*
X70019047Y-58634047D01*
D13*
X38976190Y-69293333D02*
X40500000Y-69293333D01*
D12*
X68176904Y-57609523D02*
X68176904Y-57133333D01*
X68462619Y-57704761D02*
X67462619Y-57371428D01*
X67462619Y-57371428D02*
X68462619Y-57038095D01*
X67462619Y-56704761D02*
X68272142Y-56704761D01*
X68272142Y-56704761D02*
X68367380Y-56657142D01*
X68367380Y-56657142D02*
X68415000Y-56609523D01*
X68415000Y-56609523D02*
X68462619Y-56514285D01*
X68462619Y-56514285D02*
X68462619Y-56323809D01*
X68462619Y-56323809D02*
X68415000Y-56228571D01*
X68415000Y-56228571D02*
X68367380Y-56180952D01*
X68367380Y-56180952D02*
X68272142Y-56133333D01*
X68272142Y-56133333D02*
X67462619Y-56133333D01*
X67462619Y-55752380D02*
X68462619Y-55085714D01*
X67462619Y-55085714D02*
X68462619Y-55752380D01*
X68557857Y-54942857D02*
X68557857Y-54180952D01*
X68415000Y-53990475D02*
X68462619Y-53847618D01*
X68462619Y-53847618D02*
X68462619Y-53609523D01*
X68462619Y-53609523D02*
X68415000Y-53514285D01*
X68415000Y-53514285D02*
X68367380Y-53466666D01*
X68367380Y-53466666D02*
X68272142Y-53419047D01*
X68272142Y-53419047D02*
X68176904Y-53419047D01*
X68176904Y-53419047D02*
X68081666Y-53466666D01*
X68081666Y-53466666D02*
X68034047Y-53514285D01*
X68034047Y-53514285D02*
X67986428Y-53609523D01*
X67986428Y-53609523D02*
X67938809Y-53799999D01*
X67938809Y-53799999D02*
X67891190Y-53895237D01*
X67891190Y-53895237D02*
X67843571Y-53942856D01*
X67843571Y-53942856D02*
X67748333Y-53990475D01*
X67748333Y-53990475D02*
X67653095Y-53990475D01*
X67653095Y-53990475D02*
X67557857Y-53942856D01*
X67557857Y-53942856D02*
X67510238Y-53895237D01*
X67510238Y-53895237D02*
X67462619Y-53799999D01*
X67462619Y-53799999D02*
X67462619Y-53561904D01*
X67462619Y-53561904D02*
X67510238Y-53419047D01*
X67938809Y-52990475D02*
X67938809Y-52657142D01*
X68462619Y-52514285D02*
X68462619Y-52990475D01*
X68462619Y-52990475D02*
X67462619Y-52990475D01*
X67462619Y-52990475D02*
X67462619Y-52514285D01*
X68462619Y-51514285D02*
X67986428Y-51847618D01*
X68462619Y-52085713D02*
X67462619Y-52085713D01*
X67462619Y-52085713D02*
X67462619Y-51704761D01*
X67462619Y-51704761D02*
X67510238Y-51609523D01*
X67510238Y-51609523D02*
X67557857Y-51561904D01*
X67557857Y-51561904D02*
X67653095Y-51514285D01*
X67653095Y-51514285D02*
X67795952Y-51514285D01*
X67795952Y-51514285D02*
X67891190Y-51561904D01*
X67891190Y-51561904D02*
X67938809Y-51609523D01*
X67938809Y-51609523D02*
X67986428Y-51704761D01*
X67986428Y-51704761D02*
X67986428Y-52085713D01*
X68462619Y-51085713D02*
X67462619Y-51085713D01*
X68176904Y-50657142D02*
X68176904Y-50180952D01*
X68462619Y-50752380D02*
X67462619Y-50419047D01*
X67462619Y-50419047D02*
X68462619Y-50085714D01*
X68462619Y-49276190D02*
X68462619Y-49752380D01*
X68462619Y-49752380D02*
X67462619Y-49752380D01*
X130261905Y-75962619D02*
X130880952Y-75962619D01*
X130880952Y-75962619D02*
X130547619Y-76343571D01*
X130547619Y-76343571D02*
X130690476Y-76343571D01*
X130690476Y-76343571D02*
X130785714Y-76391190D01*
X130785714Y-76391190D02*
X130833333Y-76438809D01*
X130833333Y-76438809D02*
X130880952Y-76534047D01*
X130880952Y-76534047D02*
X130880952Y-76772142D01*
X130880952Y-76772142D02*
X130833333Y-76867380D01*
X130833333Y-76867380D02*
X130785714Y-76915000D01*
X130785714Y-76915000D02*
X130690476Y-76962619D01*
X130690476Y-76962619D02*
X130404762Y-76962619D01*
X130404762Y-76962619D02*
X130309524Y-76915000D01*
X130309524Y-76915000D02*
X130261905Y-76867380D01*
X131166667Y-75962619D02*
X131500000Y-76962619D01*
X131500000Y-76962619D02*
X131833333Y-75962619D01*
X132071429Y-75962619D02*
X132690476Y-75962619D01*
X132690476Y-75962619D02*
X132357143Y-76343571D01*
X132357143Y-76343571D02*
X132500000Y-76343571D01*
X132500000Y-76343571D02*
X132595238Y-76391190D01*
X132595238Y-76391190D02*
X132642857Y-76438809D01*
X132642857Y-76438809D02*
X132690476Y-76534047D01*
X132690476Y-76534047D02*
X132690476Y-76772142D01*
X132690476Y-76772142D02*
X132642857Y-76867380D01*
X132642857Y-76867380D02*
X132595238Y-76915000D01*
X132595238Y-76915000D02*
X132500000Y-76962619D01*
X132500000Y-76962619D02*
X132214286Y-76962619D01*
X132214286Y-76962619D02*
X132119048Y-76915000D01*
X132119048Y-76915000D02*
X132071429Y-76867380D01*
D11*
X52842856Y-100230000D02*
X52652380Y-100325238D01*
X52652380Y-100325238D02*
X52271427Y-100325238D01*
X52271427Y-100325238D02*
X52080951Y-100230000D01*
X52080951Y-100230000D02*
X51985713Y-100134761D01*
X51985713Y-100134761D02*
X51890475Y-99944285D01*
X51890475Y-99944285D02*
X51890475Y-99372857D01*
X51890475Y-99372857D02*
X51985713Y-99182380D01*
X51985713Y-99182380D02*
X52080951Y-99087142D01*
X52080951Y-99087142D02*
X52271427Y-98991904D01*
X52271427Y-98991904D02*
X52652380Y-98991904D01*
X52652380Y-98991904D02*
X52842856Y-99087142D01*
X53985713Y-100325238D02*
X53795237Y-100230000D01*
X53795237Y-100230000D02*
X53699999Y-100134761D01*
X53699999Y-100134761D02*
X53604761Y-99944285D01*
X53604761Y-99944285D02*
X53604761Y-99372857D01*
X53604761Y-99372857D02*
X53699999Y-99182380D01*
X53699999Y-99182380D02*
X53795237Y-99087142D01*
X53795237Y-99087142D02*
X53985713Y-98991904D01*
X53985713Y-98991904D02*
X54271428Y-98991904D01*
X54271428Y-98991904D02*
X54461904Y-99087142D01*
X54461904Y-99087142D02*
X54557142Y-99182380D01*
X54557142Y-99182380D02*
X54652380Y-99372857D01*
X54652380Y-99372857D02*
X54652380Y-99944285D01*
X54652380Y-99944285D02*
X54557142Y-100134761D01*
X54557142Y-100134761D02*
X54461904Y-100230000D01*
X54461904Y-100230000D02*
X54271428Y-100325238D01*
X54271428Y-100325238D02*
X53985713Y-100325238D01*
X55795237Y-100325238D02*
X55604761Y-100230000D01*
X55604761Y-100230000D02*
X55509523Y-100039523D01*
X55509523Y-100039523D02*
X55509523Y-98325238D01*
X56842856Y-100325238D02*
X56652380Y-100230000D01*
X56652380Y-100230000D02*
X56557142Y-100134761D01*
X56557142Y-100134761D02*
X56461904Y-99944285D01*
X56461904Y-99944285D02*
X56461904Y-99372857D01*
X56461904Y-99372857D02*
X56557142Y-99182380D01*
X56557142Y-99182380D02*
X56652380Y-99087142D01*
X56652380Y-99087142D02*
X56842856Y-98991904D01*
X56842856Y-98991904D02*
X57128571Y-98991904D01*
X57128571Y-98991904D02*
X57319047Y-99087142D01*
X57319047Y-99087142D02*
X57414285Y-99182380D01*
X57414285Y-99182380D02*
X57509523Y-99372857D01*
X57509523Y-99372857D02*
X57509523Y-99944285D01*
X57509523Y-99944285D02*
X57414285Y-100134761D01*
X57414285Y-100134761D02*
X57319047Y-100230000D01*
X57319047Y-100230000D02*
X57128571Y-100325238D01*
X57128571Y-100325238D02*
X56842856Y-100325238D01*
X58366666Y-100325238D02*
X58366666Y-98991904D01*
X58366666Y-99372857D02*
X58461904Y-99182380D01*
X58461904Y-99182380D02*
X58557142Y-99087142D01*
X58557142Y-99087142D02*
X58747618Y-98991904D01*
X58747618Y-98991904D02*
X58938095Y-98991904D01*
X60461904Y-100325238D02*
X60461904Y-98325238D01*
X60461904Y-100230000D02*
X60271428Y-100325238D01*
X60271428Y-100325238D02*
X59890475Y-100325238D01*
X59890475Y-100325238D02*
X59699999Y-100230000D01*
X59699999Y-100230000D02*
X59604761Y-100134761D01*
X59604761Y-100134761D02*
X59509523Y-99944285D01*
X59509523Y-99944285D02*
X59509523Y-99372857D01*
X59509523Y-99372857D02*
X59604761Y-99182380D01*
X59604761Y-99182380D02*
X59699999Y-99087142D01*
X59699999Y-99087142D02*
X59890475Y-98991904D01*
X59890475Y-98991904D02*
X60271428Y-98991904D01*
X60271428Y-98991904D02*
X60461904Y-99087142D01*
X62271428Y-100325238D02*
X62271428Y-99277619D01*
X62271428Y-99277619D02*
X62176190Y-99087142D01*
X62176190Y-99087142D02*
X61985714Y-98991904D01*
X61985714Y-98991904D02*
X61604761Y-98991904D01*
X61604761Y-98991904D02*
X61414285Y-99087142D01*
X62271428Y-100230000D02*
X62080952Y-100325238D01*
X62080952Y-100325238D02*
X61604761Y-100325238D01*
X61604761Y-100325238D02*
X61414285Y-100230000D01*
X61414285Y-100230000D02*
X61319047Y-100039523D01*
X61319047Y-100039523D02*
X61319047Y-99849047D01*
X61319047Y-99849047D02*
X61414285Y-99658571D01*
X61414285Y-99658571D02*
X61604761Y-99563333D01*
X61604761Y-99563333D02*
X62080952Y-99563333D01*
X62080952Y-99563333D02*
X62271428Y-99468095D01*
X63223809Y-98991904D02*
X63223809Y-100325238D01*
X63223809Y-99182380D02*
X63319047Y-99087142D01*
X63319047Y-99087142D02*
X63509523Y-98991904D01*
X63509523Y-98991904D02*
X63795238Y-98991904D01*
X63795238Y-98991904D02*
X63985714Y-99087142D01*
X63985714Y-99087142D02*
X64080952Y-99277619D01*
X64080952Y-99277619D02*
X64080952Y-100325238D01*
X65890476Y-100230000D02*
X65700000Y-100325238D01*
X65700000Y-100325238D02*
X65319047Y-100325238D01*
X65319047Y-100325238D02*
X65128571Y-100230000D01*
X65128571Y-100230000D02*
X65033333Y-100134761D01*
X65033333Y-100134761D02*
X64938095Y-99944285D01*
X64938095Y-99944285D02*
X64938095Y-99372857D01*
X64938095Y-99372857D02*
X65033333Y-99182380D01*
X65033333Y-99182380D02*
X65128571Y-99087142D01*
X65128571Y-99087142D02*
X65319047Y-98991904D01*
X65319047Y-98991904D02*
X65700000Y-98991904D01*
X65700000Y-98991904D02*
X65890476Y-99087142D01*
X67509524Y-100230000D02*
X67319048Y-100325238D01*
X67319048Y-100325238D02*
X66938095Y-100325238D01*
X66938095Y-100325238D02*
X66747619Y-100230000D01*
X66747619Y-100230000D02*
X66652381Y-100039523D01*
X66652381Y-100039523D02*
X66652381Y-99277619D01*
X66652381Y-99277619D02*
X66747619Y-99087142D01*
X66747619Y-99087142D02*
X66938095Y-98991904D01*
X66938095Y-98991904D02*
X67319048Y-98991904D01*
X67319048Y-98991904D02*
X67509524Y-99087142D01*
X67509524Y-99087142D02*
X67604762Y-99277619D01*
X67604762Y-99277619D02*
X67604762Y-99468095D01*
X67604762Y-99468095D02*
X66652381Y-99658571D01*
X68461905Y-99563333D02*
X69985715Y-99563333D01*
X70938095Y-100325238D02*
X70938095Y-98325238D01*
X70938095Y-99087142D02*
X71128571Y-98991904D01*
X71128571Y-98991904D02*
X71509524Y-98991904D01*
X71509524Y-98991904D02*
X71700000Y-99087142D01*
X71700000Y-99087142D02*
X71795238Y-99182380D01*
X71795238Y-99182380D02*
X71890476Y-99372857D01*
X71890476Y-99372857D02*
X71890476Y-99944285D01*
X71890476Y-99944285D02*
X71795238Y-100134761D01*
X71795238Y-100134761D02*
X71700000Y-100230000D01*
X71700000Y-100230000D02*
X71509524Y-100325238D01*
X71509524Y-100325238D02*
X71128571Y-100325238D01*
X71128571Y-100325238D02*
X70938095Y-100230000D01*
X72747619Y-100325238D02*
X72747619Y-98991904D01*
X72747619Y-99372857D02*
X72842857Y-99182380D01*
X72842857Y-99182380D02*
X72938095Y-99087142D01*
X72938095Y-99087142D02*
X73128571Y-98991904D01*
X73128571Y-98991904D02*
X73319048Y-98991904D01*
X74842857Y-100325238D02*
X74842857Y-99277619D01*
X74842857Y-99277619D02*
X74747619Y-99087142D01*
X74747619Y-99087142D02*
X74557143Y-98991904D01*
X74557143Y-98991904D02*
X74176190Y-98991904D01*
X74176190Y-98991904D02*
X73985714Y-99087142D01*
X74842857Y-100230000D02*
X74652381Y-100325238D01*
X74652381Y-100325238D02*
X74176190Y-100325238D01*
X74176190Y-100325238D02*
X73985714Y-100230000D01*
X73985714Y-100230000D02*
X73890476Y-100039523D01*
X73890476Y-100039523D02*
X73890476Y-99849047D01*
X73890476Y-99849047D02*
X73985714Y-99658571D01*
X73985714Y-99658571D02*
X74176190Y-99563333D01*
X74176190Y-99563333D02*
X74652381Y-99563333D01*
X74652381Y-99563333D02*
X74842857Y-99468095D01*
X75795238Y-100325238D02*
X75795238Y-98991904D01*
X75795238Y-98325238D02*
X75700000Y-98420476D01*
X75700000Y-98420476D02*
X75795238Y-98515714D01*
X75795238Y-98515714D02*
X75890476Y-98420476D01*
X75890476Y-98420476D02*
X75795238Y-98325238D01*
X75795238Y-98325238D02*
X75795238Y-98515714D01*
X76747619Y-98991904D02*
X76747619Y-100325238D01*
X76747619Y-99182380D02*
X76842857Y-99087142D01*
X76842857Y-99087142D02*
X77033333Y-98991904D01*
X77033333Y-98991904D02*
X77319048Y-98991904D01*
X77319048Y-98991904D02*
X77509524Y-99087142D01*
X77509524Y-99087142D02*
X77604762Y-99277619D01*
X77604762Y-99277619D02*
X77604762Y-100325238D01*
X79890477Y-98991904D02*
X80366667Y-100325238D01*
X80366667Y-100325238D02*
X80842858Y-98991904D01*
X82652382Y-100325238D02*
X81509525Y-100325238D01*
X82080953Y-100325238D02*
X82080953Y-98325238D01*
X82080953Y-98325238D02*
X81890477Y-98610952D01*
X81890477Y-98610952D02*
X81700001Y-98801428D01*
X81700001Y-98801428D02*
X81509525Y-98896666D01*
X83509525Y-100134761D02*
X83604763Y-100230000D01*
X83604763Y-100230000D02*
X83509525Y-100325238D01*
X83509525Y-100325238D02*
X83414287Y-100230000D01*
X83414287Y-100230000D02*
X83509525Y-100134761D01*
X83509525Y-100134761D02*
X83509525Y-100325238D01*
X84271430Y-98325238D02*
X85509525Y-98325238D01*
X85509525Y-98325238D02*
X84842858Y-99087142D01*
X84842858Y-99087142D02*
X85128573Y-99087142D01*
X85128573Y-99087142D02*
X85319049Y-99182380D01*
X85319049Y-99182380D02*
X85414287Y-99277619D01*
X85414287Y-99277619D02*
X85509525Y-99468095D01*
X85509525Y-99468095D02*
X85509525Y-99944285D01*
X85509525Y-99944285D02*
X85414287Y-100134761D01*
X85414287Y-100134761D02*
X85319049Y-100230000D01*
X85319049Y-100230000D02*
X85128573Y-100325238D01*
X85128573Y-100325238D02*
X84557144Y-100325238D01*
X84557144Y-100325238D02*
X84366668Y-100230000D01*
X84366668Y-100230000D02*
X84271430Y-100134761D01*
D12*
X76400000Y-58062619D02*
X76590476Y-58062619D01*
X76590476Y-58062619D02*
X76685714Y-58110238D01*
X76685714Y-58110238D02*
X76780952Y-58205476D01*
X76780952Y-58205476D02*
X76828571Y-58395952D01*
X76828571Y-58395952D02*
X76828571Y-58729285D01*
X76828571Y-58729285D02*
X76780952Y-58919761D01*
X76780952Y-58919761D02*
X76685714Y-59015000D01*
X76685714Y-59015000D02*
X76590476Y-59062619D01*
X76590476Y-59062619D02*
X76400000Y-59062619D01*
X76400000Y-59062619D02*
X76304762Y-59015000D01*
X76304762Y-59015000D02*
X76209524Y-58919761D01*
X76209524Y-58919761D02*
X76161905Y-58729285D01*
X76161905Y-58729285D02*
X76161905Y-58395952D01*
X76161905Y-58395952D02*
X76209524Y-58205476D01*
X76209524Y-58205476D02*
X76304762Y-58110238D01*
X76304762Y-58110238D02*
X76400000Y-58062619D01*
X77257143Y-58062619D02*
X77257143Y-58872142D01*
X77257143Y-58872142D02*
X77304762Y-58967380D01*
X77304762Y-58967380D02*
X77352381Y-59015000D01*
X77352381Y-59015000D02*
X77447619Y-59062619D01*
X77447619Y-59062619D02*
X77638095Y-59062619D01*
X77638095Y-59062619D02*
X77733333Y-59015000D01*
X77733333Y-59015000D02*
X77780952Y-58967380D01*
X77780952Y-58967380D02*
X77828571Y-58872142D01*
X77828571Y-58872142D02*
X77828571Y-58062619D01*
X78161905Y-58062619D02*
X78733333Y-58062619D01*
X78447619Y-59062619D02*
X78447619Y-58062619D01*
X52809523Y-57962619D02*
X52333333Y-57962619D01*
X52333333Y-57962619D02*
X52285714Y-58438809D01*
X52285714Y-58438809D02*
X52333333Y-58391190D01*
X52333333Y-58391190D02*
X52428571Y-58343571D01*
X52428571Y-58343571D02*
X52666666Y-58343571D01*
X52666666Y-58343571D02*
X52761904Y-58391190D01*
X52761904Y-58391190D02*
X52809523Y-58438809D01*
X52809523Y-58438809D02*
X52857142Y-58534047D01*
X52857142Y-58534047D02*
X52857142Y-58772142D01*
X52857142Y-58772142D02*
X52809523Y-58867380D01*
X52809523Y-58867380D02*
X52761904Y-58915000D01*
X52761904Y-58915000D02*
X52666666Y-58962619D01*
X52666666Y-58962619D02*
X52428571Y-58962619D01*
X52428571Y-58962619D02*
X52333333Y-58915000D01*
X52333333Y-58915000D02*
X52285714Y-58867380D01*
X53142857Y-57962619D02*
X53476190Y-58962619D01*
X53476190Y-58962619D02*
X53809523Y-57962619D01*
D11*
X84425238Y-63233333D02*
X82425238Y-63233333D01*
X84425238Y-62280952D02*
X82425238Y-62280952D01*
X82425238Y-62280952D02*
X84425238Y-61138095D01*
X84425238Y-61138095D02*
X82425238Y-61138095D01*
X82425238Y-60471428D02*
X82425238Y-59328571D01*
X84425238Y-59900000D02*
X82425238Y-59900000D01*
X83377619Y-58661904D02*
X83377619Y-57995237D01*
X84425238Y-57709523D02*
X84425238Y-58661904D01*
X84425238Y-58661904D02*
X82425238Y-58661904D01*
X82425238Y-58661904D02*
X82425238Y-57709523D01*
X84425238Y-55709523D02*
X83472857Y-56376190D01*
X84425238Y-56852380D02*
X82425238Y-56852380D01*
X82425238Y-56852380D02*
X82425238Y-56090475D01*
X82425238Y-56090475D02*
X82520476Y-55899999D01*
X82520476Y-55899999D02*
X82615714Y-55804761D01*
X82615714Y-55804761D02*
X82806190Y-55709523D01*
X82806190Y-55709523D02*
X83091904Y-55709523D01*
X83091904Y-55709523D02*
X83282380Y-55804761D01*
X83282380Y-55804761D02*
X83377619Y-55899999D01*
X83377619Y-55899999D02*
X83472857Y-56090475D01*
X83472857Y-56090475D02*
X83472857Y-56852380D01*
X83377619Y-54185713D02*
X83377619Y-54852380D01*
X84425238Y-54852380D02*
X82425238Y-54852380D01*
X82425238Y-54852380D02*
X82425238Y-53899999D01*
X83853809Y-53233332D02*
X83853809Y-52280951D01*
X84425238Y-53423808D02*
X82425238Y-52757142D01*
X82425238Y-52757142D02*
X84425238Y-52090475D01*
X84234761Y-50280951D02*
X84330000Y-50376189D01*
X84330000Y-50376189D02*
X84425238Y-50661903D01*
X84425238Y-50661903D02*
X84425238Y-50852379D01*
X84425238Y-50852379D02*
X84330000Y-51138094D01*
X84330000Y-51138094D02*
X84139523Y-51328570D01*
X84139523Y-51328570D02*
X83949047Y-51423808D01*
X83949047Y-51423808D02*
X83568095Y-51519046D01*
X83568095Y-51519046D02*
X83282380Y-51519046D01*
X83282380Y-51519046D02*
X82901428Y-51423808D01*
X82901428Y-51423808D02*
X82710952Y-51328570D01*
X82710952Y-51328570D02*
X82520476Y-51138094D01*
X82520476Y-51138094D02*
X82425238Y-50852379D01*
X82425238Y-50852379D02*
X82425238Y-50661903D01*
X82425238Y-50661903D02*
X82520476Y-50376189D01*
X82520476Y-50376189D02*
X82615714Y-50280951D01*
X83377619Y-49423808D02*
X83377619Y-48757141D01*
X84425238Y-48471427D02*
X84425238Y-49423808D01*
X84425238Y-49423808D02*
X82425238Y-49423808D01*
X82425238Y-49423808D02*
X82425238Y-48471427D01*
D12*
X71176191Y-59062619D02*
X71176191Y-58062619D01*
X71652381Y-59062619D02*
X71652381Y-58062619D01*
X71652381Y-58062619D02*
X72223809Y-59062619D01*
X72223809Y-59062619D02*
X72223809Y-58062619D01*
X121109523Y-57962619D02*
X120633333Y-57962619D01*
X120633333Y-57962619D02*
X120585714Y-58438809D01*
X120585714Y-58438809D02*
X120633333Y-58391190D01*
X120633333Y-58391190D02*
X120728571Y-58343571D01*
X120728571Y-58343571D02*
X120966666Y-58343571D01*
X120966666Y-58343571D02*
X121061904Y-58391190D01*
X121061904Y-58391190D02*
X121109523Y-58438809D01*
X121109523Y-58438809D02*
X121157142Y-58534047D01*
X121157142Y-58534047D02*
X121157142Y-58772142D01*
X121157142Y-58772142D02*
X121109523Y-58867380D01*
X121109523Y-58867380D02*
X121061904Y-58915000D01*
X121061904Y-58915000D02*
X120966666Y-58962619D01*
X120966666Y-58962619D02*
X120728571Y-58962619D01*
X120728571Y-58962619D02*
X120633333Y-58915000D01*
X120633333Y-58915000D02*
X120585714Y-58867380D01*
X121442857Y-57962619D02*
X121776190Y-58962619D01*
X121776190Y-58962619D02*
X122109523Y-57962619D01*
X103962619Y-57476189D02*
X102962619Y-57476189D01*
X102962619Y-57476189D02*
X102962619Y-57095237D01*
X102962619Y-57095237D02*
X103010238Y-56999999D01*
X103010238Y-56999999D02*
X103057857Y-56952380D01*
X103057857Y-56952380D02*
X103153095Y-56904761D01*
X103153095Y-56904761D02*
X103295952Y-56904761D01*
X103295952Y-56904761D02*
X103391190Y-56952380D01*
X103391190Y-56952380D02*
X103438809Y-56999999D01*
X103438809Y-56999999D02*
X103486428Y-57095237D01*
X103486428Y-57095237D02*
X103486428Y-57476189D01*
X103962619Y-56476189D02*
X102962619Y-56476189D01*
X103962619Y-55428571D02*
X103486428Y-55761904D01*
X103962619Y-55999999D02*
X102962619Y-55999999D01*
X102962619Y-55999999D02*
X102962619Y-55619047D01*
X102962619Y-55619047D02*
X103010238Y-55523809D01*
X103010238Y-55523809D02*
X103057857Y-55476190D01*
X103057857Y-55476190D02*
X103153095Y-55428571D01*
X103153095Y-55428571D02*
X103295952Y-55428571D01*
X103295952Y-55428571D02*
X103391190Y-55476190D01*
X103391190Y-55476190D02*
X103438809Y-55523809D01*
X103438809Y-55523809D02*
X103486428Y-55619047D01*
X103486428Y-55619047D02*
X103486428Y-55999999D01*
X102962619Y-54809523D02*
X102962619Y-54714285D01*
X102962619Y-54714285D02*
X103010238Y-54619047D01*
X103010238Y-54619047D02*
X103057857Y-54571428D01*
X103057857Y-54571428D02*
X103153095Y-54523809D01*
X103153095Y-54523809D02*
X103343571Y-54476190D01*
X103343571Y-54476190D02*
X103581666Y-54476190D01*
X103581666Y-54476190D02*
X103772142Y-54523809D01*
X103772142Y-54523809D02*
X103867380Y-54571428D01*
X103867380Y-54571428D02*
X103915000Y-54619047D01*
X103915000Y-54619047D02*
X103962619Y-54714285D01*
X103962619Y-54714285D02*
X103962619Y-54809523D01*
X103962619Y-54809523D02*
X103915000Y-54904761D01*
X103915000Y-54904761D02*
X103867380Y-54952380D01*
X103867380Y-54952380D02*
X103772142Y-54999999D01*
X103772142Y-54999999D02*
X103581666Y-55047618D01*
X103581666Y-55047618D02*
X103343571Y-55047618D01*
X103343571Y-55047618D02*
X103153095Y-54999999D01*
X103153095Y-54999999D02*
X103057857Y-54952380D01*
X103057857Y-54952380D02*
X103010238Y-54904761D01*
X103010238Y-54904761D02*
X102962619Y-54809523D01*
X45962619Y-57242857D02*
X45962619Y-57719047D01*
X45962619Y-57719047D02*
X44962619Y-57719047D01*
X44962619Y-56719047D02*
X44962619Y-56528571D01*
X44962619Y-56528571D02*
X45010238Y-56433333D01*
X45010238Y-56433333D02*
X45105476Y-56338095D01*
X45105476Y-56338095D02*
X45295952Y-56290476D01*
X45295952Y-56290476D02*
X45629285Y-56290476D01*
X45629285Y-56290476D02*
X45819761Y-56338095D01*
X45819761Y-56338095D02*
X45915000Y-56433333D01*
X45915000Y-56433333D02*
X45962619Y-56528571D01*
X45962619Y-56528571D02*
X45962619Y-56719047D01*
X45962619Y-56719047D02*
X45915000Y-56814285D01*
X45915000Y-56814285D02*
X45819761Y-56909523D01*
X45819761Y-56909523D02*
X45629285Y-56957142D01*
X45629285Y-56957142D02*
X45295952Y-56957142D01*
X45295952Y-56957142D02*
X45105476Y-56909523D01*
X45105476Y-56909523D02*
X45010238Y-56814285D01*
X45010238Y-56814285D02*
X44962619Y-56719047D01*
X45867380Y-55290476D02*
X45915000Y-55338095D01*
X45915000Y-55338095D02*
X45962619Y-55480952D01*
X45962619Y-55480952D02*
X45962619Y-55576190D01*
X45962619Y-55576190D02*
X45915000Y-55719047D01*
X45915000Y-55719047D02*
X45819761Y-55814285D01*
X45819761Y-55814285D02*
X45724523Y-55861904D01*
X45724523Y-55861904D02*
X45534047Y-55909523D01*
X45534047Y-55909523D02*
X45391190Y-55909523D01*
X45391190Y-55909523D02*
X45200714Y-55861904D01*
X45200714Y-55861904D02*
X45105476Y-55814285D01*
X45105476Y-55814285D02*
X45010238Y-55719047D01*
X45010238Y-55719047D02*
X44962619Y-55576190D01*
X44962619Y-55576190D02*
X44962619Y-55480952D01*
X44962619Y-55480952D02*
X45010238Y-55338095D01*
X45010238Y-55338095D02*
X45057857Y-55290476D01*
X45676904Y-54909523D02*
X45676904Y-54433333D01*
X45962619Y-55004761D02*
X44962619Y-54671428D01*
X44962619Y-54671428D02*
X45962619Y-54338095D01*
X45962619Y-53528571D02*
X45962619Y-54004761D01*
X45962619Y-54004761D02*
X44962619Y-54004761D01*
X46057857Y-53433333D02*
X46057857Y-52671428D01*
X45962619Y-51957142D02*
X45962619Y-52433332D01*
X45962619Y-52433332D02*
X44962619Y-52433332D01*
X45438809Y-51623808D02*
X45438809Y-51290475D01*
X45962619Y-51147618D02*
X45962619Y-51623808D01*
X45962619Y-51623808D02*
X44962619Y-51623808D01*
X44962619Y-51623808D02*
X44962619Y-51147618D01*
X45962619Y-50719046D02*
X44962619Y-50719046D01*
X44962619Y-50719046D02*
X44962619Y-50480951D01*
X44962619Y-50480951D02*
X45010238Y-50338094D01*
X45010238Y-50338094D02*
X45105476Y-50242856D01*
X45105476Y-50242856D02*
X45200714Y-50195237D01*
X45200714Y-50195237D02*
X45391190Y-50147618D01*
X45391190Y-50147618D02*
X45534047Y-50147618D01*
X45534047Y-50147618D02*
X45724523Y-50195237D01*
X45724523Y-50195237D02*
X45819761Y-50242856D01*
X45819761Y-50242856D02*
X45915000Y-50338094D01*
X45915000Y-50338094D02*
X45962619Y-50480951D01*
X45962619Y-50480951D02*
X45962619Y-50719046D01*
X46057857Y-49957142D02*
X46057857Y-49195237D01*
X44962619Y-48766665D02*
X44962619Y-48671427D01*
X44962619Y-48671427D02*
X45010238Y-48576189D01*
X45010238Y-48576189D02*
X45057857Y-48528570D01*
X45057857Y-48528570D02*
X45153095Y-48480951D01*
X45153095Y-48480951D02*
X45343571Y-48433332D01*
X45343571Y-48433332D02*
X45581666Y-48433332D01*
X45581666Y-48433332D02*
X45772142Y-48480951D01*
X45772142Y-48480951D02*
X45867380Y-48528570D01*
X45867380Y-48528570D02*
X45915000Y-48576189D01*
X45915000Y-48576189D02*
X45962619Y-48671427D01*
X45962619Y-48671427D02*
X45962619Y-48766665D01*
X45962619Y-48766665D02*
X45915000Y-48861903D01*
X45915000Y-48861903D02*
X45867380Y-48909522D01*
X45867380Y-48909522D02*
X45772142Y-48957141D01*
X45772142Y-48957141D02*
X45581666Y-49004760D01*
X45581666Y-49004760D02*
X45343571Y-49004760D01*
X45343571Y-49004760D02*
X45153095Y-48957141D01*
X45153095Y-48957141D02*
X45057857Y-48909522D01*
X45057857Y-48909522D02*
X45010238Y-48861903D01*
X45010238Y-48861903D02*
X44962619Y-48766665D01*
D13*
X30776190Y-69293333D02*
X32300000Y-69293333D01*
X31538095Y-70055238D02*
X31538095Y-68531428D01*
D12*
G04 #@! TO.C,U3*
X65250952Y-75462619D02*
X65250952Y-74462619D01*
X65250952Y-74462619D02*
X65584285Y-75176904D01*
X65584285Y-75176904D02*
X65917618Y-74462619D01*
X65917618Y-74462619D02*
X65917618Y-75462619D01*
X66393809Y-75462619D02*
X66393809Y-74795952D01*
X66393809Y-74462619D02*
X66346190Y-74510238D01*
X66346190Y-74510238D02*
X66393809Y-74557857D01*
X66393809Y-74557857D02*
X66441428Y-74510238D01*
X66441428Y-74510238D02*
X66393809Y-74462619D01*
X66393809Y-74462619D02*
X66393809Y-74557857D01*
X67298570Y-75415000D02*
X67203332Y-75462619D01*
X67203332Y-75462619D02*
X67012856Y-75462619D01*
X67012856Y-75462619D02*
X66917618Y-75415000D01*
X66917618Y-75415000D02*
X66869999Y-75367380D01*
X66869999Y-75367380D02*
X66822380Y-75272142D01*
X66822380Y-75272142D02*
X66822380Y-74986428D01*
X66822380Y-74986428D02*
X66869999Y-74891190D01*
X66869999Y-74891190D02*
X66917618Y-74843571D01*
X66917618Y-74843571D02*
X67012856Y-74795952D01*
X67012856Y-74795952D02*
X67203332Y-74795952D01*
X67203332Y-74795952D02*
X67298570Y-74843571D01*
X67727142Y-75462619D02*
X67727142Y-74795952D01*
X67727142Y-74986428D02*
X67774761Y-74891190D01*
X67774761Y-74891190D02*
X67822380Y-74843571D01*
X67822380Y-74843571D02*
X67917618Y-74795952D01*
X67917618Y-74795952D02*
X68012856Y-74795952D01*
X68489047Y-75462619D02*
X68393809Y-75415000D01*
X68393809Y-75415000D02*
X68346190Y-75367380D01*
X68346190Y-75367380D02*
X68298571Y-75272142D01*
X68298571Y-75272142D02*
X68298571Y-74986428D01*
X68298571Y-74986428D02*
X68346190Y-74891190D01*
X68346190Y-74891190D02*
X68393809Y-74843571D01*
X68393809Y-74843571D02*
X68489047Y-74795952D01*
X68489047Y-74795952D02*
X68631904Y-74795952D01*
X68631904Y-74795952D02*
X68727142Y-74843571D01*
X68727142Y-74843571D02*
X68774761Y-74891190D01*
X68774761Y-74891190D02*
X68822380Y-74986428D01*
X68822380Y-74986428D02*
X68822380Y-75272142D01*
X68822380Y-75272142D02*
X68774761Y-75367380D01*
X68774761Y-75367380D02*
X68727142Y-75415000D01*
X68727142Y-75415000D02*
X68631904Y-75462619D01*
X68631904Y-75462619D02*
X68489047Y-75462619D01*
X69965238Y-75415000D02*
X70108095Y-75462619D01*
X70108095Y-75462619D02*
X70346190Y-75462619D01*
X70346190Y-75462619D02*
X70441428Y-75415000D01*
X70441428Y-75415000D02*
X70489047Y-75367380D01*
X70489047Y-75367380D02*
X70536666Y-75272142D01*
X70536666Y-75272142D02*
X70536666Y-75176904D01*
X70536666Y-75176904D02*
X70489047Y-75081666D01*
X70489047Y-75081666D02*
X70441428Y-75034047D01*
X70441428Y-75034047D02*
X70346190Y-74986428D01*
X70346190Y-74986428D02*
X70155714Y-74938809D01*
X70155714Y-74938809D02*
X70060476Y-74891190D01*
X70060476Y-74891190D02*
X70012857Y-74843571D01*
X70012857Y-74843571D02*
X69965238Y-74748333D01*
X69965238Y-74748333D02*
X69965238Y-74653095D01*
X69965238Y-74653095D02*
X70012857Y-74557857D01*
X70012857Y-74557857D02*
X70060476Y-74510238D01*
X70060476Y-74510238D02*
X70155714Y-74462619D01*
X70155714Y-74462619D02*
X70393809Y-74462619D01*
X70393809Y-74462619D02*
X70536666Y-74510238D01*
X70965238Y-75462619D02*
X70965238Y-74462619D01*
X70965238Y-74462619D02*
X71203333Y-74462619D01*
X71203333Y-74462619D02*
X71346190Y-74510238D01*
X71346190Y-74510238D02*
X71441428Y-74605476D01*
X71441428Y-74605476D02*
X71489047Y-74700714D01*
X71489047Y-74700714D02*
X71536666Y-74891190D01*
X71536666Y-74891190D02*
X71536666Y-75034047D01*
X71536666Y-75034047D02*
X71489047Y-75224523D01*
X71489047Y-75224523D02*
X71441428Y-75319761D01*
X71441428Y-75319761D02*
X71346190Y-75415000D01*
X71346190Y-75415000D02*
X71203333Y-75462619D01*
X71203333Y-75462619D02*
X70965238Y-75462619D01*
X118632619Y-76261904D02*
X119442142Y-76261904D01*
X119442142Y-76261904D02*
X119537380Y-76214285D01*
X119537380Y-76214285D02*
X119585000Y-76166666D01*
X119585000Y-76166666D02*
X119632619Y-76071428D01*
X119632619Y-76071428D02*
X119632619Y-75880952D01*
X119632619Y-75880952D02*
X119585000Y-75785714D01*
X119585000Y-75785714D02*
X119537380Y-75738095D01*
X119537380Y-75738095D02*
X119442142Y-75690476D01*
X119442142Y-75690476D02*
X118632619Y-75690476D01*
X119585000Y-75261904D02*
X119632619Y-75119047D01*
X119632619Y-75119047D02*
X119632619Y-74880952D01*
X119632619Y-74880952D02*
X119585000Y-74785714D01*
X119585000Y-74785714D02*
X119537380Y-74738095D01*
X119537380Y-74738095D02*
X119442142Y-74690476D01*
X119442142Y-74690476D02*
X119346904Y-74690476D01*
X119346904Y-74690476D02*
X119251666Y-74738095D01*
X119251666Y-74738095D02*
X119204047Y-74785714D01*
X119204047Y-74785714D02*
X119156428Y-74880952D01*
X119156428Y-74880952D02*
X119108809Y-75071428D01*
X119108809Y-75071428D02*
X119061190Y-75166666D01*
X119061190Y-75166666D02*
X119013571Y-75214285D01*
X119013571Y-75214285D02*
X118918333Y-75261904D01*
X118918333Y-75261904D02*
X118823095Y-75261904D01*
X118823095Y-75261904D02*
X118727857Y-75214285D01*
X118727857Y-75214285D02*
X118680238Y-75166666D01*
X118680238Y-75166666D02*
X118632619Y-75071428D01*
X118632619Y-75071428D02*
X118632619Y-74833333D01*
X118632619Y-74833333D02*
X118680238Y-74690476D01*
X119108809Y-73928571D02*
X119156428Y-73785714D01*
X119156428Y-73785714D02*
X119204047Y-73738095D01*
X119204047Y-73738095D02*
X119299285Y-73690476D01*
X119299285Y-73690476D02*
X119442142Y-73690476D01*
X119442142Y-73690476D02*
X119537380Y-73738095D01*
X119537380Y-73738095D02*
X119585000Y-73785714D01*
X119585000Y-73785714D02*
X119632619Y-73880952D01*
X119632619Y-73880952D02*
X119632619Y-74261904D01*
X119632619Y-74261904D02*
X118632619Y-74261904D01*
X118632619Y-74261904D02*
X118632619Y-73928571D01*
X118632619Y-73928571D02*
X118680238Y-73833333D01*
X118680238Y-73833333D02*
X118727857Y-73785714D01*
X118727857Y-73785714D02*
X118823095Y-73738095D01*
X118823095Y-73738095D02*
X118918333Y-73738095D01*
X118918333Y-73738095D02*
X119013571Y-73785714D01*
X119013571Y-73785714D02*
X119061190Y-73833333D01*
X119061190Y-73833333D02*
X119108809Y-73928571D01*
X119108809Y-73928571D02*
X119108809Y-74261904D01*
G04 #@! TO.C,J14*
X32159523Y-63362619D02*
X31826190Y-62886428D01*
X31588095Y-63362619D02*
X31588095Y-62362619D01*
X31588095Y-62362619D02*
X31969047Y-62362619D01*
X31969047Y-62362619D02*
X32064285Y-62410238D01*
X32064285Y-62410238D02*
X32111904Y-62457857D01*
X32111904Y-62457857D02*
X32159523Y-62553095D01*
X32159523Y-62553095D02*
X32159523Y-62695952D01*
X32159523Y-62695952D02*
X32111904Y-62791190D01*
X32111904Y-62791190D02*
X32064285Y-62838809D01*
X32064285Y-62838809D02*
X31969047Y-62886428D01*
X31969047Y-62886428D02*
X31588095Y-62886428D01*
X39421428Y-62838809D02*
X39564285Y-62886428D01*
X39564285Y-62886428D02*
X39611904Y-62934047D01*
X39611904Y-62934047D02*
X39659523Y-63029285D01*
X39659523Y-63029285D02*
X39659523Y-63172142D01*
X39659523Y-63172142D02*
X39611904Y-63267380D01*
X39611904Y-63267380D02*
X39564285Y-63315000D01*
X39564285Y-63315000D02*
X39469047Y-63362619D01*
X39469047Y-63362619D02*
X39088095Y-63362619D01*
X39088095Y-63362619D02*
X39088095Y-62362619D01*
X39088095Y-62362619D02*
X39421428Y-62362619D01*
X39421428Y-62362619D02*
X39516666Y-62410238D01*
X39516666Y-62410238D02*
X39564285Y-62457857D01*
X39564285Y-62457857D02*
X39611904Y-62553095D01*
X39611904Y-62553095D02*
X39611904Y-62648333D01*
X39611904Y-62648333D02*
X39564285Y-62743571D01*
X39564285Y-62743571D02*
X39516666Y-62791190D01*
X39516666Y-62791190D02*
X39421428Y-62838809D01*
X39421428Y-62838809D02*
X39088095Y-62838809D01*
D10*
G04 #@! TO.C,D1*
X28302500Y-89765000D02*
X28302500Y-91235000D01*
X28302500Y-91235000D02*
X30587500Y-91235000D01*
X30587500Y-89765000D02*
X28302500Y-89765000D01*
G04 #@! TO.C,J2*
X46730000Y-57270000D02*
X46730000Y-56000000D01*
X48000000Y-57270000D02*
X46730000Y-57270000D01*
X50160000Y-54957071D02*
X50160000Y-54560000D01*
X50920000Y-54957071D02*
X50920000Y-54560000D01*
X52700000Y-54957071D02*
X52700000Y-54560000D01*
X53460000Y-54957071D02*
X53460000Y-54560000D01*
X47620000Y-54890000D02*
X47620000Y-54560000D01*
X48380000Y-54890000D02*
X48380000Y-54560000D01*
X46670000Y-54560000D02*
X54410000Y-54560000D01*
X49270000Y-54560000D02*
X49270000Y-51900000D01*
X51810000Y-54560000D02*
X51810000Y-51900000D01*
X54410000Y-54560000D02*
X54410000Y-51900000D01*
X46670000Y-51900000D02*
X46670000Y-54560000D01*
X47620000Y-51900000D02*
X47620000Y-45900000D01*
X47680000Y-51900000D02*
X47680000Y-45900000D01*
X47800000Y-51900000D02*
X47800000Y-45900000D01*
X47920000Y-51900000D02*
X47920000Y-45900000D01*
X48040000Y-51900000D02*
X48040000Y-45900000D01*
X48160000Y-51900000D02*
X48160000Y-45900000D01*
X48280000Y-51900000D02*
X48280000Y-45900000D01*
X50160000Y-51900000D02*
X50160000Y-45900000D01*
X52700000Y-51900000D02*
X52700000Y-45900000D01*
X54410000Y-51900000D02*
X46670000Y-51900000D01*
X47620000Y-45900000D02*
X48380000Y-45900000D01*
X48380000Y-45900000D02*
X48380000Y-51900000D01*
X50160000Y-45900000D02*
X50920000Y-45900000D01*
X50920000Y-45900000D02*
X50920000Y-51900000D01*
X52700000Y-45900000D02*
X53460000Y-45900000D01*
X53460000Y-45900000D02*
X53460000Y-51900000D01*
G04 #@! TO.C,J5*
X57230000Y-57270000D02*
X57230000Y-56000000D01*
X58500000Y-57270000D02*
X57230000Y-57270000D01*
X60660000Y-54957071D02*
X60660000Y-54560000D01*
X61420000Y-54957071D02*
X61420000Y-54560000D01*
X63200000Y-54957071D02*
X63200000Y-54560000D01*
X63960000Y-54957071D02*
X63960000Y-54560000D01*
X58120000Y-54890000D02*
X58120000Y-54560000D01*
X58880000Y-54890000D02*
X58880000Y-54560000D01*
X57170000Y-54560000D02*
X64910000Y-54560000D01*
X59770000Y-54560000D02*
X59770000Y-51900000D01*
X62310000Y-54560000D02*
X62310000Y-51900000D01*
X64910000Y-54560000D02*
X64910000Y-51900000D01*
X57170000Y-51900000D02*
X57170000Y-54560000D01*
X58120000Y-51900000D02*
X58120000Y-45900000D01*
X58180000Y-51900000D02*
X58180000Y-45900000D01*
X58300000Y-51900000D02*
X58300000Y-45900000D01*
X58420000Y-51900000D02*
X58420000Y-45900000D01*
X58540000Y-51900000D02*
X58540000Y-45900000D01*
X58660000Y-51900000D02*
X58660000Y-45900000D01*
X58780000Y-51900000D02*
X58780000Y-45900000D01*
X60660000Y-51900000D02*
X60660000Y-45900000D01*
X63200000Y-51900000D02*
X63200000Y-45900000D01*
X64910000Y-51900000D02*
X57170000Y-51900000D01*
X58120000Y-45900000D02*
X58880000Y-45900000D01*
X58880000Y-45900000D02*
X58880000Y-51900000D01*
X60660000Y-45900000D02*
X61420000Y-45900000D01*
X61420000Y-45900000D02*
X61420000Y-51900000D01*
X63200000Y-45900000D02*
X63960000Y-45900000D01*
X63960000Y-45900000D02*
X63960000Y-51900000D01*
G04 #@! TO.C,J4*
X114850000Y-57270000D02*
X114850000Y-56000000D01*
X116120000Y-57270000D02*
X114850000Y-57270000D01*
X118280000Y-54957071D02*
X118280000Y-54560000D01*
X119040000Y-54957071D02*
X119040000Y-54560000D01*
X120820000Y-54957071D02*
X120820000Y-54560000D01*
X121580000Y-54957071D02*
X121580000Y-54560000D01*
X115740000Y-54890000D02*
X115740000Y-54560000D01*
X116500000Y-54890000D02*
X116500000Y-54560000D01*
X114790000Y-54560000D02*
X122530000Y-54560000D01*
X117390000Y-54560000D02*
X117390000Y-51900000D01*
X119930000Y-54560000D02*
X119930000Y-51900000D01*
X122530000Y-54560000D02*
X122530000Y-51900000D01*
X114790000Y-51900000D02*
X114790000Y-54560000D01*
X115740000Y-51900000D02*
X115740000Y-45900000D01*
X115800000Y-51900000D02*
X115800000Y-45900000D01*
X115920000Y-51900000D02*
X115920000Y-45900000D01*
X116040000Y-51900000D02*
X116040000Y-45900000D01*
X116160000Y-51900000D02*
X116160000Y-45900000D01*
X116280000Y-51900000D02*
X116280000Y-45900000D01*
X116400000Y-51900000D02*
X116400000Y-45900000D01*
X118280000Y-51900000D02*
X118280000Y-45900000D01*
X120820000Y-51900000D02*
X120820000Y-45900000D01*
X122530000Y-51900000D02*
X114790000Y-51900000D01*
X115740000Y-45900000D02*
X116500000Y-45900000D01*
X116500000Y-45900000D02*
X116500000Y-51900000D01*
X118280000Y-45900000D02*
X119040000Y-45900000D01*
X119040000Y-45900000D02*
X119040000Y-51900000D01*
X120820000Y-45900000D02*
X121580000Y-45900000D01*
X121580000Y-45900000D02*
X121580000Y-51900000D01*
G04 #@! TO.C,J6*
X133730000Y-67730000D02*
X135000000Y-67730000D01*
X133730000Y-69000000D02*
X133730000Y-67730000D01*
X136042929Y-71160000D02*
X136440000Y-71160000D01*
X136042929Y-71920000D02*
X136440000Y-71920000D01*
X136042929Y-73700000D02*
X136440000Y-73700000D01*
X136042929Y-74460000D02*
X136440000Y-74460000D01*
X136042929Y-76240000D02*
X136440000Y-76240000D01*
X136042929Y-77000000D02*
X136440000Y-77000000D01*
X136042929Y-78780000D02*
X136440000Y-78780000D01*
X136042929Y-79540000D02*
X136440000Y-79540000D01*
X136110000Y-68620000D02*
X136440000Y-68620000D01*
X136110000Y-69380000D02*
X136440000Y-69380000D01*
X136440000Y-67670000D02*
X136440000Y-80490000D01*
X136440000Y-70270000D02*
X139100000Y-70270000D01*
X136440000Y-72810000D02*
X139100000Y-72810000D01*
X136440000Y-75350000D02*
X139100000Y-75350000D01*
X136440000Y-77890000D02*
X139100000Y-77890000D01*
X136440000Y-80490000D02*
X139100000Y-80490000D01*
X139100000Y-67670000D02*
X136440000Y-67670000D01*
X139100000Y-68620000D02*
X145100000Y-68620000D01*
X139100000Y-68680000D02*
X145100000Y-68680000D01*
X139100000Y-68800000D02*
X145100000Y-68800000D01*
X139100000Y-68920000D02*
X145100000Y-68920000D01*
X139100000Y-69040000D02*
X145100000Y-69040000D01*
X139100000Y-69160000D02*
X145100000Y-69160000D01*
X139100000Y-69280000D02*
X145100000Y-69280000D01*
X139100000Y-71160000D02*
X145100000Y-71160000D01*
X139100000Y-73700000D02*
X145100000Y-73700000D01*
X139100000Y-76240000D02*
X145100000Y-76240000D01*
X139100000Y-78780000D02*
X145100000Y-78780000D01*
X139100000Y-80490000D02*
X139100000Y-67670000D01*
X145100000Y-68620000D02*
X145100000Y-69380000D01*
X145100000Y-69380000D02*
X139100000Y-69380000D01*
X145100000Y-71160000D02*
X145100000Y-71920000D01*
X145100000Y-71920000D02*
X139100000Y-71920000D01*
X145100000Y-73700000D02*
X145100000Y-74460000D01*
X145100000Y-74460000D02*
X139100000Y-74460000D01*
X145100000Y-76240000D02*
X145100000Y-77000000D01*
X145100000Y-77000000D02*
X139100000Y-77000000D01*
X145100000Y-78780000D02*
X145100000Y-79540000D01*
X145100000Y-79540000D02*
X139100000Y-79540000D01*
G04 #@! TO.C,J10*
X115145000Y-114531924D02*
X115145000Y-115531924D01*
X115145000Y-115531924D02*
X115645000Y-115031924D01*
X115645000Y-115031924D02*
X115145000Y-114531924D01*
X115830000Y-111151924D02*
X115830000Y-129111924D01*
X115830000Y-129111924D02*
X131350000Y-129111924D01*
X131350000Y-111151924D02*
X115830000Y-111151924D01*
X131350000Y-111151924D02*
X131350000Y-129111924D01*
G04 #@! TO.C,J12*
X62455000Y-114541924D02*
X62455000Y-115541924D01*
X62455000Y-115541924D02*
X62955000Y-115041924D01*
X62955000Y-115041924D02*
X62455000Y-114541924D01*
X63140000Y-111161924D02*
X63140000Y-129121924D01*
X63140000Y-129121924D02*
X78660000Y-129121924D01*
X78660000Y-111161924D02*
X63140000Y-111161924D01*
X78660000Y-111161924D02*
X78660000Y-129121924D01*
D12*
G04 #@! TO.C,U3*
X124250000Y-78810000D02*
X122980000Y-78810000D01*
X124250000Y-71190000D02*
X124250000Y-78810000D01*
X122980000Y-83890000D02*
X62020000Y-83890000D01*
X122980000Y-71190000D02*
X124250000Y-71190000D01*
X122980000Y-66110000D02*
X122980000Y-83890000D01*
X117900000Y-78810000D02*
X122980000Y-78810000D01*
X117900000Y-71190000D02*
X122980000Y-71190000D01*
X117900000Y-71190000D02*
X117900000Y-78810000D01*
X100120000Y-81350000D02*
X100120000Y-68650000D01*
X100120000Y-68650000D02*
X87420000Y-68650000D01*
X87420000Y-81350000D02*
X100120000Y-81350000D01*
X87420000Y-68650000D02*
X87420000Y-81350000D01*
X82340000Y-76270000D02*
X78530000Y-76270000D01*
X82340000Y-73730000D02*
X82340000Y-76270000D01*
X78530000Y-76270000D02*
X78530000Y-73730000D01*
X78530000Y-73730000D02*
X82340000Y-73730000D01*
X74720000Y-81350000D02*
X74720000Y-68650000D01*
X74720000Y-68650000D02*
X62020000Y-68650000D01*
X63290000Y-80080000D02*
X63290000Y-69920000D01*
X63290000Y-69920000D02*
X62020000Y-69920000D01*
X62020000Y-83890000D02*
X62020000Y-66110000D01*
X62020000Y-81350000D02*
X74720000Y-81350000D01*
X62020000Y-80080000D02*
X63290000Y-80080000D01*
X62020000Y-66110000D02*
X122980000Y-66110000D01*
X81333026Y-75000000D02*
G75*
G03*
X81333026Y-75000000I-898026J0D01*
G01*
D14*
X92097000Y-75815000D02*
X91843000Y-76069000D01*
X91589000Y-75688000D01*
X91843000Y-75434000D01*
X92097000Y-75815000D01*
G36*
X92097000Y-75815000D02*
G01*
X91843000Y-76069000D01*
X91589000Y-75688000D01*
X91843000Y-75434000D01*
X92097000Y-75815000D01*
G37*
X91716000Y-75307000D02*
X91462000Y-75561000D01*
X91208000Y-75180000D01*
X91462000Y-74926000D01*
X91716000Y-75307000D01*
G36*
X91716000Y-75307000D02*
G01*
X91462000Y-75561000D01*
X91208000Y-75180000D01*
X91462000Y-74926000D01*
X91716000Y-75307000D01*
G37*
X91335000Y-75688000D02*
X91081000Y-75942000D01*
X90827000Y-75561000D01*
X91081000Y-75307000D01*
X91335000Y-75688000D01*
G36*
X91335000Y-75688000D02*
G01*
X91081000Y-75942000D01*
X90827000Y-75561000D01*
X91081000Y-75307000D01*
X91335000Y-75688000D01*
G37*
X91335000Y-74799000D02*
X91081000Y-75053000D01*
X90827000Y-74672000D01*
X91081000Y-74418000D01*
X91335000Y-74799000D01*
G36*
X91335000Y-74799000D02*
G01*
X91081000Y-75053000D01*
X90827000Y-74672000D01*
X91081000Y-74418000D01*
X91335000Y-74799000D01*
G37*
X90954000Y-75180000D02*
X90700000Y-75434000D01*
X90446000Y-75053000D01*
X90700000Y-74799000D01*
X90954000Y-75180000D01*
G36*
X90954000Y-75180000D02*
G01*
X90700000Y-75434000D01*
X90446000Y-75053000D01*
X90700000Y-74799000D01*
X90954000Y-75180000D01*
G37*
X90573000Y-74672000D02*
X90319000Y-74926000D01*
X90065000Y-74545000D01*
X90319000Y-74291000D01*
X90573000Y-74672000D01*
G36*
X90573000Y-74672000D02*
G01*
X90319000Y-74926000D01*
X90065000Y-74545000D01*
X90319000Y-74291000D01*
X90573000Y-74672000D01*
G37*
X90192000Y-75053000D02*
X89938000Y-75307000D01*
X89684000Y-74926000D01*
X89938000Y-74672000D01*
X90192000Y-75053000D01*
G36*
X90192000Y-75053000D02*
G01*
X89938000Y-75307000D01*
X89684000Y-74926000D01*
X89938000Y-74672000D01*
X90192000Y-75053000D01*
G37*
X89811000Y-75434000D02*
X89557000Y-75688000D01*
X89303000Y-75307000D01*
X89557000Y-75053000D01*
X89811000Y-75434000D01*
G36*
X89811000Y-75434000D02*
G01*
X89557000Y-75688000D01*
X89303000Y-75307000D01*
X89557000Y-75053000D01*
X89811000Y-75434000D01*
G37*
D10*
G04 #@! TO.C,J11*
X97465000Y-114531924D02*
X97465000Y-115531924D01*
X97465000Y-115531924D02*
X97965000Y-115031924D01*
X97965000Y-115031924D02*
X97465000Y-114531924D01*
X98150000Y-111151924D02*
X98150000Y-129111924D01*
X98150000Y-129111924D02*
X113670000Y-129111924D01*
X113670000Y-111151924D02*
X98150000Y-111151924D01*
X113670000Y-111151924D02*
X113670000Y-129111924D01*
G04 #@! TO.C,J8*
X45085000Y-114531924D02*
X45085000Y-115531924D01*
X45085000Y-115531924D02*
X45585000Y-115031924D01*
X45585000Y-115031924D02*
X45085000Y-114531924D01*
X45770000Y-111151924D02*
X45770000Y-129111924D01*
X45770000Y-129111924D02*
X61290000Y-129111924D01*
X61290000Y-111151924D02*
X45770000Y-111151924D01*
X61290000Y-111151924D02*
X61290000Y-129111924D01*
G04 #@! TO.C,J9*
X27405000Y-114531924D02*
X27405000Y-115531924D01*
X27405000Y-115531924D02*
X27905000Y-115031924D01*
X27905000Y-115031924D02*
X27405000Y-114531924D01*
X28090000Y-111151924D02*
X28090000Y-129111924D01*
X28090000Y-129111924D02*
X43610000Y-129111924D01*
X43610000Y-111151924D02*
X28090000Y-111151924D01*
X43610000Y-111151924D02*
X43610000Y-129111924D01*
G04 #@! TO.C,J13*
X80135000Y-114541924D02*
X80135000Y-115541924D01*
X80135000Y-115541924D02*
X80635000Y-115041924D01*
X80635000Y-115041924D02*
X80135000Y-114541924D01*
X80820000Y-111161924D02*
X80820000Y-129121924D01*
X80820000Y-129121924D02*
X96340000Y-129121924D01*
X96340000Y-111161924D02*
X80820000Y-111161924D01*
X96340000Y-111161924D02*
X96340000Y-129121924D01*
D12*
G04 #@! TO.C,H1*
X26000000Y-52500000D02*
G75*
G03*
X26000000Y-52500000I-5000000J0D01*
G01*
G04 #@! TO.C,H2*
X143500000Y-124000000D02*
G75*
G03*
X143500000Y-124000000I-5000000J0D01*
G01*
G04 #@! TO.C,H3*
X143500000Y-52500000D02*
G75*
G03*
X143500000Y-52500000I-5000000J0D01*
G01*
G04 #@! TO.C,H4*
X26000000Y-124000000D02*
G75*
G03*
X26000000Y-124000000I-5000000J0D01*
G01*
D10*
G04 #@! TO.C,J3*
X104730000Y-57270000D02*
X104730000Y-56000000D01*
X106000000Y-57270000D02*
X104730000Y-57270000D01*
X108160000Y-54957071D02*
X108160000Y-54560000D01*
X108920000Y-54957071D02*
X108920000Y-54560000D01*
X110700000Y-54957071D02*
X110700000Y-54560000D01*
X111460000Y-54957071D02*
X111460000Y-54560000D01*
X105620000Y-54890000D02*
X105620000Y-54560000D01*
X106380000Y-54890000D02*
X106380000Y-54560000D01*
X104670000Y-54560000D02*
X112410000Y-54560000D01*
X107270000Y-54560000D02*
X107270000Y-51900000D01*
X109810000Y-54560000D02*
X109810000Y-51900000D01*
X112410000Y-54560000D02*
X112410000Y-51900000D01*
X104670000Y-51900000D02*
X104670000Y-54560000D01*
X105620000Y-51900000D02*
X105620000Y-45900000D01*
X105680000Y-51900000D02*
X105680000Y-45900000D01*
X105800000Y-51900000D02*
X105800000Y-45900000D01*
X105920000Y-51900000D02*
X105920000Y-45900000D01*
X106040000Y-51900000D02*
X106040000Y-45900000D01*
X106160000Y-51900000D02*
X106160000Y-45900000D01*
X106280000Y-51900000D02*
X106280000Y-45900000D01*
X108160000Y-51900000D02*
X108160000Y-45900000D01*
X110700000Y-51900000D02*
X110700000Y-45900000D01*
X112410000Y-51900000D02*
X104670000Y-51900000D01*
X105620000Y-45900000D02*
X106380000Y-45900000D01*
X106380000Y-45900000D02*
X106380000Y-51900000D01*
X108160000Y-45900000D02*
X108920000Y-45900000D01*
X108920000Y-45900000D02*
X108920000Y-51900000D01*
X110700000Y-45900000D02*
X111460000Y-45900000D01*
X111460000Y-45900000D02*
X111460000Y-51900000D01*
G04 #@! TO.C,BT1*
X128040000Y-107880000D02*
X130500000Y-107880000D01*
X136500000Y-107880000D02*
X137130000Y-107880000D01*
X137130000Y-107880000D02*
X141080000Y-106440000D01*
X125960000Y-105800000D02*
X128040000Y-107880000D01*
X125960000Y-102300000D02*
X125960000Y-105800000D01*
X125960000Y-88400000D02*
X125960000Y-91900000D01*
X125960000Y-88400000D02*
X128040000Y-86320000D01*
X128040000Y-86320000D02*
X130500000Y-86320000D01*
X136500000Y-86320000D02*
X137130000Y-86320000D01*
X137130000Y-86320000D02*
X141080000Y-87760000D01*
X141080000Y-106440000D02*
G75*
G03*
X142066530Y-103103354I-730001J2030000D01*
G01*
X142049999Y-91100000D02*
G75*
G03*
X141088169Y-87774757I-1699999J1310000D01*
G01*
G04 #@! TO.C,J15*
X124905000Y-57245000D02*
X124905000Y-55975000D01*
X126175000Y-57245000D02*
X124905000Y-57245000D01*
X128335000Y-54932071D02*
X128335000Y-54535000D01*
X129095000Y-54932071D02*
X129095000Y-54535000D01*
X130875000Y-54932071D02*
X130875000Y-54535000D01*
X131635000Y-54932071D02*
X131635000Y-54535000D01*
X125795000Y-54865000D02*
X125795000Y-54535000D01*
X126555000Y-54865000D02*
X126555000Y-54535000D01*
X124845000Y-54535000D02*
X132585000Y-54535000D01*
X127445000Y-54535000D02*
X127445000Y-51875000D01*
X129985000Y-54535000D02*
X129985000Y-51875000D01*
X132585000Y-54535000D02*
X132585000Y-51875000D01*
X124845000Y-51875000D02*
X124845000Y-54535000D01*
X125795000Y-51875000D02*
X125795000Y-45875000D01*
X125855000Y-51875000D02*
X125855000Y-45875000D01*
X125975000Y-51875000D02*
X125975000Y-45875000D01*
X126095000Y-51875000D02*
X126095000Y-45875000D01*
X126215000Y-51875000D02*
X126215000Y-45875000D01*
X126335000Y-51875000D02*
X126335000Y-45875000D01*
X126455000Y-51875000D02*
X126455000Y-45875000D01*
X128335000Y-51875000D02*
X128335000Y-45875000D01*
X130875000Y-51875000D02*
X130875000Y-45875000D01*
X132585000Y-51875000D02*
X124845000Y-51875000D01*
X125795000Y-45875000D02*
X126555000Y-45875000D01*
X126555000Y-45875000D02*
X126555000Y-51875000D01*
X128335000Y-45875000D02*
X129095000Y-45875000D01*
X129095000Y-45875000D02*
X129095000Y-51875000D01*
X130875000Y-45875000D02*
X131635000Y-45875000D01*
X131635000Y-45875000D02*
X131635000Y-51875000D01*
G04 #@! TO.C,J7*
X100900000Y-61400000D02*
X100900000Y-60400000D01*
X100900000Y-60400000D02*
X100400000Y-60900000D01*
X100400000Y-60900000D02*
X100900000Y-61400000D01*
X100215000Y-64780000D02*
X100215000Y-46820000D01*
X100215000Y-46820000D02*
X84695000Y-46820000D01*
X84695000Y-64780000D02*
X100215000Y-64780000D01*
X84695000Y-64780000D02*
X84695000Y-46820000D01*
G04 #@! TO.C,C35*
X26447323Y-93375000D02*
X25447323Y-93375000D01*
X25947323Y-93875000D02*
X25947323Y-92875000D01*
X20967677Y-95580000D02*
X20967677Y-85420000D01*
X20927677Y-95580000D02*
X20927677Y-85420000D01*
X20887677Y-95580000D02*
X20887677Y-85420000D01*
X20847677Y-95579000D02*
X20847677Y-85421000D01*
X20807677Y-95578000D02*
X20807677Y-85422000D01*
X20767677Y-95577000D02*
X20767677Y-85423000D01*
X20727677Y-95575000D02*
X20727677Y-85425000D01*
X20687677Y-95573000D02*
X20687677Y-85427000D01*
X20647677Y-95570000D02*
X20647677Y-85430000D01*
X20607677Y-95568000D02*
X20607677Y-85432000D01*
X20567677Y-95565000D02*
X20567677Y-85435000D01*
X20527677Y-95562000D02*
X20527677Y-85438000D01*
X20487677Y-95558000D02*
X20487677Y-85442000D01*
X20447677Y-95554000D02*
X20447677Y-85446000D01*
X20407677Y-95550000D02*
X20407677Y-85450000D01*
X20367677Y-95545000D02*
X20367677Y-85455000D01*
X20327677Y-95540000D02*
X20327677Y-85460000D01*
X20287677Y-95535000D02*
X20287677Y-85465000D01*
X20246677Y-95530000D02*
X20246677Y-85470000D01*
X20206677Y-95524000D02*
X20206677Y-85476000D01*
X20166677Y-95518000D02*
X20166677Y-85482000D01*
X20126677Y-95511000D02*
X20126677Y-85489000D01*
X20086677Y-95504000D02*
X20086677Y-85496000D01*
X20046677Y-95497000D02*
X20046677Y-85503000D01*
X20006677Y-95490000D02*
X20006677Y-85510000D01*
X19966677Y-95482000D02*
X19966677Y-85518000D01*
X19926677Y-95474000D02*
X19926677Y-85526000D01*
X19886677Y-95465000D02*
X19886677Y-85535000D01*
X19846677Y-95456000D02*
X19846677Y-85544000D01*
X19806677Y-95447000D02*
X19806677Y-85553000D01*
X19766677Y-95438000D02*
X19766677Y-85562000D01*
X19726677Y-95428000D02*
X19726677Y-85572000D01*
X19686677Y-95418000D02*
X19686677Y-91741000D01*
X19686677Y-89259000D02*
X19686677Y-85582000D01*
X19646677Y-95407000D02*
X19646677Y-91741000D01*
X19646677Y-89259000D02*
X19646677Y-85593000D01*
X19606677Y-95397000D02*
X19606677Y-91741000D01*
X19606677Y-89259000D02*
X19606677Y-85603000D01*
X19566677Y-95385000D02*
X19566677Y-91741000D01*
X19566677Y-89259000D02*
X19566677Y-85615000D01*
X19526677Y-95374000D02*
X19526677Y-91741000D01*
X19526677Y-89259000D02*
X19526677Y-85626000D01*
X19486677Y-95362000D02*
X19486677Y-91741000D01*
X19486677Y-89259000D02*
X19486677Y-85638000D01*
X19446677Y-95350000D02*
X19446677Y-91741000D01*
X19446677Y-89259000D02*
X19446677Y-85650000D01*
X19406677Y-95337000D02*
X19406677Y-91741000D01*
X19406677Y-89259000D02*
X19406677Y-85663000D01*
X19366677Y-95324000D02*
X19366677Y-91741000D01*
X19366677Y-89259000D02*
X19366677Y-85676000D01*
X19326677Y-95311000D02*
X19326677Y-91741000D01*
X19326677Y-89259000D02*
X19326677Y-85689000D01*
X19286677Y-95297000D02*
X19286677Y-91741000D01*
X19286677Y-89259000D02*
X19286677Y-85703000D01*
X19246677Y-95283000D02*
X19246677Y-91741000D01*
X19246677Y-89259000D02*
X19246677Y-85717000D01*
X19206677Y-95268000D02*
X19206677Y-91741000D01*
X19206677Y-89259000D02*
X19206677Y-85732000D01*
X19166677Y-95254000D02*
X19166677Y-91741000D01*
X19166677Y-89259000D02*
X19166677Y-85746000D01*
X19126677Y-95238000D02*
X19126677Y-91741000D01*
X19126677Y-89259000D02*
X19126677Y-85762000D01*
X19086677Y-95223000D02*
X19086677Y-91741000D01*
X19086677Y-89259000D02*
X19086677Y-85777000D01*
X19046677Y-95207000D02*
X19046677Y-91741000D01*
X19046677Y-89259000D02*
X19046677Y-85793000D01*
X19006677Y-95190000D02*
X19006677Y-91741000D01*
X19006677Y-89259000D02*
X19006677Y-85810000D01*
X18966677Y-95174000D02*
X18966677Y-91741000D01*
X18966677Y-89259000D02*
X18966677Y-85826000D01*
X18926677Y-95157000D02*
X18926677Y-91741000D01*
X18926677Y-89259000D02*
X18926677Y-85843000D01*
X18886677Y-95139000D02*
X18886677Y-91741000D01*
X18886677Y-89259000D02*
X18886677Y-85861000D01*
X18846677Y-95121000D02*
X18846677Y-91741000D01*
X18846677Y-89259000D02*
X18846677Y-85879000D01*
X18806677Y-95103000D02*
X18806677Y-91741000D01*
X18806677Y-89259000D02*
X18806677Y-85897000D01*
X18766677Y-95084000D02*
X18766677Y-91741000D01*
X18766677Y-89259000D02*
X18766677Y-85916000D01*
X18726677Y-95064000D02*
X18726677Y-91741000D01*
X18726677Y-89259000D02*
X18726677Y-85936000D01*
X18686677Y-95045000D02*
X18686677Y-91741000D01*
X18686677Y-89259000D02*
X18686677Y-85955000D01*
X18646677Y-95025000D02*
X18646677Y-91741000D01*
X18646677Y-89259000D02*
X18646677Y-85975000D01*
X18606677Y-95004000D02*
X18606677Y-91741000D01*
X18606677Y-89259000D02*
X18606677Y-85996000D01*
X18566677Y-94983000D02*
X18566677Y-91741000D01*
X18566677Y-89259000D02*
X18566677Y-86017000D01*
X18526677Y-94962000D02*
X18526677Y-91741000D01*
X18526677Y-89259000D02*
X18526677Y-86038000D01*
X18486677Y-94940000D02*
X18486677Y-91741000D01*
X18486677Y-89259000D02*
X18486677Y-86060000D01*
X18446677Y-94917000D02*
X18446677Y-91741000D01*
X18446677Y-89259000D02*
X18446677Y-86083000D01*
X18406677Y-94895000D02*
X18406677Y-91741000D01*
X18406677Y-89259000D02*
X18406677Y-86105000D01*
X18366677Y-94871000D02*
X18366677Y-91741000D01*
X18366677Y-89259000D02*
X18366677Y-86129000D01*
X18326677Y-94847000D02*
X18326677Y-91741000D01*
X18326677Y-89259000D02*
X18326677Y-86153000D01*
X18286677Y-94823000D02*
X18286677Y-91741000D01*
X18286677Y-89259000D02*
X18286677Y-86177000D01*
X18246677Y-94798000D02*
X18246677Y-91741000D01*
X18246677Y-89259000D02*
X18246677Y-86202000D01*
X18206677Y-94773000D02*
X18206677Y-91741000D01*
X18206677Y-89259000D02*
X18206677Y-86227000D01*
X18166677Y-94747000D02*
X18166677Y-91741000D01*
X18166677Y-89259000D02*
X18166677Y-86253000D01*
X18126677Y-94721000D02*
X18126677Y-91741000D01*
X18126677Y-89259000D02*
X18126677Y-86279000D01*
X18086677Y-94694000D02*
X18086677Y-91741000D01*
X18086677Y-89259000D02*
X18086677Y-86306000D01*
X18046677Y-94666000D02*
X18046677Y-91741000D01*
X18046677Y-89259000D02*
X18046677Y-86334000D01*
X18006677Y-94638000D02*
X18006677Y-91741000D01*
X18006677Y-89259000D02*
X18006677Y-86362000D01*
X17966677Y-94610000D02*
X17966677Y-91741000D01*
X17966677Y-89259000D02*
X17966677Y-86390000D01*
X17926677Y-94580000D02*
X17926677Y-91741000D01*
X17926677Y-89259000D02*
X17926677Y-86420000D01*
X17886677Y-94550000D02*
X17886677Y-91741000D01*
X17886677Y-89259000D02*
X17886677Y-86450000D01*
X17846677Y-94520000D02*
X17846677Y-91741000D01*
X17846677Y-89259000D02*
X17846677Y-86480000D01*
X17806677Y-94489000D02*
X17806677Y-91741000D01*
X17806677Y-89259000D02*
X17806677Y-86511000D01*
X17766677Y-94457000D02*
X17766677Y-91741000D01*
X17766677Y-89259000D02*
X17766677Y-86543000D01*
X17726677Y-94425000D02*
X17726677Y-91741000D01*
X17726677Y-89259000D02*
X17726677Y-86575000D01*
X17686677Y-94392000D02*
X17686677Y-91741000D01*
X17686677Y-89259000D02*
X17686677Y-86608000D01*
X17646677Y-94358000D02*
X17646677Y-91741000D01*
X17646677Y-89259000D02*
X17646677Y-86642000D01*
X17606677Y-94324000D02*
X17606677Y-91741000D01*
X17606677Y-89259000D02*
X17606677Y-86676000D01*
X17566677Y-94289000D02*
X17566677Y-91741000D01*
X17566677Y-89259000D02*
X17566677Y-86711000D01*
X17526677Y-94253000D02*
X17526677Y-91741000D01*
X17526677Y-89259000D02*
X17526677Y-86747000D01*
X17486677Y-94216000D02*
X17486677Y-91741000D01*
X17486677Y-89259000D02*
X17486677Y-86784000D01*
X17446677Y-94179000D02*
X17446677Y-91741000D01*
X17446677Y-89259000D02*
X17446677Y-86821000D01*
X17406677Y-94140000D02*
X17406677Y-91741000D01*
X17406677Y-89259000D02*
X17406677Y-86860000D01*
X17366677Y-94101000D02*
X17366677Y-91741000D01*
X17366677Y-89259000D02*
X17366677Y-86899000D01*
X17326677Y-94061000D02*
X17326677Y-91741000D01*
X17326677Y-89259000D02*
X17326677Y-86939000D01*
X17286677Y-94020000D02*
X17286677Y-91741000D01*
X17286677Y-89259000D02*
X17286677Y-86980000D01*
X17246677Y-93978000D02*
X17246677Y-91741000D01*
X17246677Y-89259000D02*
X17246677Y-87022000D01*
X17206677Y-93936000D02*
X17206677Y-87064000D01*
X17166677Y-93892000D02*
X17166677Y-87108000D01*
X17126677Y-93847000D02*
X17126677Y-87153000D01*
X17086677Y-93801000D02*
X17086677Y-87199000D01*
X17046677Y-93754000D02*
X17046677Y-87246000D01*
X17006677Y-93706000D02*
X17006677Y-87294000D01*
X16966677Y-93656000D02*
X16966677Y-87344000D01*
X16926677Y-93606000D02*
X16926677Y-87394000D01*
X16886677Y-93554000D02*
X16886677Y-87446000D01*
X16846677Y-93500000D02*
X16846677Y-87500000D01*
X16806677Y-93445000D02*
X16806677Y-87555000D01*
X16766677Y-93389000D02*
X16766677Y-87611000D01*
X16726677Y-93330000D02*
X16726677Y-87670000D01*
X16686677Y-93270000D02*
X16686677Y-87730000D01*
X16646677Y-93209000D02*
X16646677Y-87791000D01*
X16606677Y-93145000D02*
X16606677Y-87855000D01*
X16566677Y-93079000D02*
X16566677Y-87921000D01*
X16526677Y-93010000D02*
X16526677Y-87990000D01*
X16486677Y-92939000D02*
X16486677Y-88061000D01*
X16446677Y-92865000D02*
X16446677Y-88135000D01*
X16406677Y-92789000D02*
X16406677Y-88211000D01*
X16366677Y-92709000D02*
X16366677Y-88291000D01*
X16326677Y-92625000D02*
X16326677Y-88375000D01*
X16286677Y-92537000D02*
X16286677Y-88463000D01*
X16246677Y-92444000D02*
X16246677Y-88556000D01*
X16206677Y-92346000D02*
X16206677Y-88654000D01*
X16166677Y-92242000D02*
X16166677Y-88758000D01*
X16126677Y-92130000D02*
X16126677Y-88870000D01*
X16086677Y-92010000D02*
X16086677Y-88990000D01*
X16046677Y-91878000D02*
X16046677Y-89122000D01*
X16006677Y-91730000D02*
X16006677Y-89270000D01*
X15966677Y-91562000D02*
X15966677Y-89438000D01*
X15926677Y-91362000D02*
X15926677Y-89638000D01*
X15886677Y-91099000D02*
X15886677Y-89901000D01*
X26087677Y-90500000D02*
G75*
G03*
X26087677Y-90500000I-5120000J0D01*
G01*
D12*
G04 #@! TO.C,J14*
X27900000Y-38150000D02*
X27900000Y-47150000D01*
X27900000Y-38300000D02*
X43300000Y-38300000D01*
X27900000Y-49150000D02*
X27900000Y-61400000D01*
X27900000Y-61400000D02*
X27900000Y-68150000D01*
X27900000Y-61400000D02*
X43300000Y-61400000D01*
X27900000Y-68150000D02*
X43300000Y-68150000D01*
X29350000Y-48150000D02*
X41850000Y-48150000D01*
X35600000Y-38400000D02*
X35600000Y-61400000D01*
X43300000Y-47150000D02*
X43300000Y-38150000D01*
X43300000Y-61400000D02*
X43300000Y-49150000D01*
X43300000Y-68150000D02*
X43300000Y-61400000D01*
D10*
G04 #@! TO.C,C30*
X26479646Y-75775000D02*
X25479646Y-75775000D01*
X25979646Y-76275000D02*
X25979646Y-75275000D01*
X21000000Y-77980000D02*
X21000000Y-67820000D01*
X20960000Y-77980000D02*
X20960000Y-67820000D01*
X20920000Y-77980000D02*
X20920000Y-67820000D01*
X20880000Y-77979000D02*
X20880000Y-67821000D01*
X20840000Y-77978000D02*
X20840000Y-67822000D01*
X20800000Y-77977000D02*
X20800000Y-67823000D01*
X20760000Y-77975000D02*
X20760000Y-67825000D01*
X20720000Y-77973000D02*
X20720000Y-67827000D01*
X20680000Y-77970000D02*
X20680000Y-67830000D01*
X20640000Y-77968000D02*
X20640000Y-67832000D01*
X20600000Y-77965000D02*
X20600000Y-67835000D01*
X20560000Y-77962000D02*
X20560000Y-67838000D01*
X20520000Y-77958000D02*
X20520000Y-67842000D01*
X20480000Y-77954000D02*
X20480000Y-67846000D01*
X20440000Y-77950000D02*
X20440000Y-67850000D01*
X20400000Y-77945000D02*
X20400000Y-67855000D01*
X20360000Y-77940000D02*
X20360000Y-67860000D01*
X20320000Y-77935000D02*
X20320000Y-67865000D01*
X20279000Y-77930000D02*
X20279000Y-67870000D01*
X20239000Y-77924000D02*
X20239000Y-67876000D01*
X20199000Y-77918000D02*
X20199000Y-67882000D01*
X20159000Y-77911000D02*
X20159000Y-67889000D01*
X20119000Y-77904000D02*
X20119000Y-67896000D01*
X20079000Y-77897000D02*
X20079000Y-67903000D01*
X20039000Y-77890000D02*
X20039000Y-67910000D01*
X19999000Y-77882000D02*
X19999000Y-67918000D01*
X19959000Y-77874000D02*
X19959000Y-67926000D01*
X19919000Y-77865000D02*
X19919000Y-67935000D01*
X19879000Y-77856000D02*
X19879000Y-67944000D01*
X19839000Y-77847000D02*
X19839000Y-67953000D01*
X19799000Y-77838000D02*
X19799000Y-67962000D01*
X19759000Y-77828000D02*
X19759000Y-67972000D01*
X19719000Y-77818000D02*
X19719000Y-74141000D01*
X19719000Y-71659000D02*
X19719000Y-67982000D01*
X19679000Y-77807000D02*
X19679000Y-74141000D01*
X19679000Y-71659000D02*
X19679000Y-67993000D01*
X19639000Y-77797000D02*
X19639000Y-74141000D01*
X19639000Y-71659000D02*
X19639000Y-68003000D01*
X19599000Y-77785000D02*
X19599000Y-74141000D01*
X19599000Y-71659000D02*
X19599000Y-68015000D01*
X19559000Y-77774000D02*
X19559000Y-74141000D01*
X19559000Y-71659000D02*
X19559000Y-68026000D01*
X19519000Y-77762000D02*
X19519000Y-74141000D01*
X19519000Y-71659000D02*
X19519000Y-68038000D01*
X19479000Y-77750000D02*
X19479000Y-74141000D01*
X19479000Y-71659000D02*
X19479000Y-68050000D01*
X19439000Y-77737000D02*
X19439000Y-74141000D01*
X19439000Y-71659000D02*
X19439000Y-68063000D01*
X19399000Y-77724000D02*
X19399000Y-74141000D01*
X19399000Y-71659000D02*
X19399000Y-68076000D01*
X19359000Y-77711000D02*
X19359000Y-74141000D01*
X19359000Y-71659000D02*
X19359000Y-68089000D01*
X19319000Y-77697000D02*
X19319000Y-74141000D01*
X19319000Y-71659000D02*
X19319000Y-68103000D01*
X19279000Y-77683000D02*
X19279000Y-74141000D01*
X19279000Y-71659000D02*
X19279000Y-68117000D01*
X19239000Y-77668000D02*
X19239000Y-74141000D01*
X19239000Y-71659000D02*
X19239000Y-68132000D01*
X19199000Y-77654000D02*
X19199000Y-74141000D01*
X19199000Y-71659000D02*
X19199000Y-68146000D01*
X19159000Y-77638000D02*
X19159000Y-74141000D01*
X19159000Y-71659000D02*
X19159000Y-68162000D01*
X19119000Y-77623000D02*
X19119000Y-74141000D01*
X19119000Y-71659000D02*
X19119000Y-68177000D01*
X19079000Y-77607000D02*
X19079000Y-74141000D01*
X19079000Y-71659000D02*
X19079000Y-68193000D01*
X19039000Y-77590000D02*
X19039000Y-74141000D01*
X19039000Y-71659000D02*
X19039000Y-68210000D01*
X18999000Y-77574000D02*
X18999000Y-74141000D01*
X18999000Y-71659000D02*
X18999000Y-68226000D01*
X18959000Y-77557000D02*
X18959000Y-74141000D01*
X18959000Y-71659000D02*
X18959000Y-68243000D01*
X18919000Y-77539000D02*
X18919000Y-74141000D01*
X18919000Y-71659000D02*
X18919000Y-68261000D01*
X18879000Y-77521000D02*
X18879000Y-74141000D01*
X18879000Y-71659000D02*
X18879000Y-68279000D01*
X18839000Y-77503000D02*
X18839000Y-74141000D01*
X18839000Y-71659000D02*
X18839000Y-68297000D01*
X18799000Y-77484000D02*
X18799000Y-74141000D01*
X18799000Y-71659000D02*
X18799000Y-68316000D01*
X18759000Y-77464000D02*
X18759000Y-74141000D01*
X18759000Y-71659000D02*
X18759000Y-68336000D01*
X18719000Y-77445000D02*
X18719000Y-74141000D01*
X18719000Y-71659000D02*
X18719000Y-68355000D01*
X18679000Y-77425000D02*
X18679000Y-74141000D01*
X18679000Y-71659000D02*
X18679000Y-68375000D01*
X18639000Y-77404000D02*
X18639000Y-74141000D01*
X18639000Y-71659000D02*
X18639000Y-68396000D01*
X18599000Y-77383000D02*
X18599000Y-74141000D01*
X18599000Y-71659000D02*
X18599000Y-68417000D01*
X18559000Y-77362000D02*
X18559000Y-74141000D01*
X18559000Y-71659000D02*
X18559000Y-68438000D01*
X18519000Y-77340000D02*
X18519000Y-74141000D01*
X18519000Y-71659000D02*
X18519000Y-68460000D01*
X18479000Y-77317000D02*
X18479000Y-74141000D01*
X18479000Y-71659000D02*
X18479000Y-68483000D01*
X18439000Y-77295000D02*
X18439000Y-74141000D01*
X18439000Y-71659000D02*
X18439000Y-68505000D01*
X18399000Y-77271000D02*
X18399000Y-74141000D01*
X18399000Y-71659000D02*
X18399000Y-68529000D01*
X18359000Y-77247000D02*
X18359000Y-74141000D01*
X18359000Y-71659000D02*
X18359000Y-68553000D01*
X18319000Y-77223000D02*
X18319000Y-74141000D01*
X18319000Y-71659000D02*
X18319000Y-68577000D01*
X18279000Y-77198000D02*
X18279000Y-74141000D01*
X18279000Y-71659000D02*
X18279000Y-68602000D01*
X18239000Y-77173000D02*
X18239000Y-74141000D01*
X18239000Y-71659000D02*
X18239000Y-68627000D01*
X18199000Y-77147000D02*
X18199000Y-74141000D01*
X18199000Y-71659000D02*
X18199000Y-68653000D01*
X18159000Y-77121000D02*
X18159000Y-74141000D01*
X18159000Y-71659000D02*
X18159000Y-68679000D01*
X18119000Y-77094000D02*
X18119000Y-74141000D01*
X18119000Y-71659000D02*
X18119000Y-68706000D01*
X18079000Y-77066000D02*
X18079000Y-74141000D01*
X18079000Y-71659000D02*
X18079000Y-68734000D01*
X18039000Y-77038000D02*
X18039000Y-74141000D01*
X18039000Y-71659000D02*
X18039000Y-68762000D01*
X17999000Y-77010000D02*
X17999000Y-74141000D01*
X17999000Y-71659000D02*
X17999000Y-68790000D01*
X17959000Y-76980000D02*
X17959000Y-74141000D01*
X17959000Y-71659000D02*
X17959000Y-68820000D01*
X17919000Y-76950000D02*
X17919000Y-74141000D01*
X17919000Y-71659000D02*
X17919000Y-68850000D01*
X17879000Y-76920000D02*
X17879000Y-74141000D01*
X17879000Y-71659000D02*
X17879000Y-68880000D01*
X17839000Y-76889000D02*
X17839000Y-74141000D01*
X17839000Y-71659000D02*
X17839000Y-68911000D01*
X17799000Y-76857000D02*
X17799000Y-74141000D01*
X17799000Y-71659000D02*
X17799000Y-68943000D01*
X17759000Y-76825000D02*
X17759000Y-74141000D01*
X17759000Y-71659000D02*
X17759000Y-68975000D01*
X17719000Y-76792000D02*
X17719000Y-74141000D01*
X17719000Y-71659000D02*
X17719000Y-69008000D01*
X17679000Y-76758000D02*
X17679000Y-74141000D01*
X17679000Y-71659000D02*
X17679000Y-69042000D01*
X17639000Y-76724000D02*
X17639000Y-74141000D01*
X17639000Y-71659000D02*
X17639000Y-69076000D01*
X17599000Y-76689000D02*
X17599000Y-74141000D01*
X17599000Y-71659000D02*
X17599000Y-69111000D01*
X17559000Y-76653000D02*
X17559000Y-74141000D01*
X17559000Y-71659000D02*
X17559000Y-69147000D01*
X17519000Y-76616000D02*
X17519000Y-74141000D01*
X17519000Y-71659000D02*
X17519000Y-69184000D01*
X17479000Y-76579000D02*
X17479000Y-74141000D01*
X17479000Y-71659000D02*
X17479000Y-69221000D01*
X17439000Y-76540000D02*
X17439000Y-74141000D01*
X17439000Y-71659000D02*
X17439000Y-69260000D01*
X17399000Y-76501000D02*
X17399000Y-74141000D01*
X17399000Y-71659000D02*
X17399000Y-69299000D01*
X17359000Y-76461000D02*
X17359000Y-74141000D01*
X17359000Y-71659000D02*
X17359000Y-69339000D01*
X17319000Y-76420000D02*
X17319000Y-74141000D01*
X17319000Y-71659000D02*
X17319000Y-69380000D01*
X17279000Y-76378000D02*
X17279000Y-74141000D01*
X17279000Y-71659000D02*
X17279000Y-69422000D01*
X17239000Y-76336000D02*
X17239000Y-69464000D01*
X17199000Y-76292000D02*
X17199000Y-69508000D01*
X17159000Y-76247000D02*
X17159000Y-69553000D01*
X17119000Y-76201000D02*
X17119000Y-69599000D01*
X17079000Y-76154000D02*
X17079000Y-69646000D01*
X17039000Y-76106000D02*
X17039000Y-69694000D01*
X16999000Y-76056000D02*
X16999000Y-69744000D01*
X16959000Y-76006000D02*
X16959000Y-69794000D01*
X16919000Y-75954000D02*
X16919000Y-69846000D01*
X16879000Y-75900000D02*
X16879000Y-69900000D01*
X16839000Y-75845000D02*
X16839000Y-69955000D01*
X16799000Y-75789000D02*
X16799000Y-70011000D01*
X16759000Y-75730000D02*
X16759000Y-70070000D01*
X16719000Y-75670000D02*
X16719000Y-70130000D01*
X16679000Y-75609000D02*
X16679000Y-70191000D01*
X16639000Y-75545000D02*
X16639000Y-70255000D01*
X16599000Y-75479000D02*
X16599000Y-70321000D01*
X16559000Y-75410000D02*
X16559000Y-70390000D01*
X16519000Y-75339000D02*
X16519000Y-70461000D01*
X16479000Y-75265000D02*
X16479000Y-70535000D01*
X16439000Y-75189000D02*
X16439000Y-70611000D01*
X16399000Y-75109000D02*
X16399000Y-70691000D01*
X16359000Y-75025000D02*
X16359000Y-70775000D01*
X16319000Y-74937000D02*
X16319000Y-70863000D01*
X16279000Y-74844000D02*
X16279000Y-70956000D01*
X16239000Y-74746000D02*
X16239000Y-71054000D01*
X16199000Y-74642000D02*
X16199000Y-71158000D01*
X16159000Y-74530000D02*
X16159000Y-71270000D01*
X16119000Y-74410000D02*
X16119000Y-71390000D01*
X16079000Y-74278000D02*
X16079000Y-71522000D01*
X16039000Y-74130000D02*
X16039000Y-71670000D01*
X15999000Y-73962000D02*
X15999000Y-71838000D01*
X15959000Y-73762000D02*
X15959000Y-72038000D01*
X15919000Y-73499000D02*
X15919000Y-72301000D01*
X26120000Y-72900000D02*
G75*
G03*
X26120000Y-72900000I-5120000J0D01*
G01*
G04 #@! TO.C,J1*
X69230000Y-57245000D02*
X69230000Y-55975000D01*
X70500000Y-57245000D02*
X69230000Y-57245000D01*
X72660000Y-54932071D02*
X72660000Y-54535000D01*
X73420000Y-54932071D02*
X73420000Y-54535000D01*
X75200000Y-54932071D02*
X75200000Y-54535000D01*
X75960000Y-54932071D02*
X75960000Y-54535000D01*
X77740000Y-54932071D02*
X77740000Y-54535000D01*
X78500000Y-54932071D02*
X78500000Y-54535000D01*
X70120000Y-54865000D02*
X70120000Y-54535000D01*
X70880000Y-54865000D02*
X70880000Y-54535000D01*
X69170000Y-54535000D02*
X79450000Y-54535000D01*
X71770000Y-54535000D02*
X71770000Y-51875000D01*
X74310000Y-54535000D02*
X74310000Y-51875000D01*
X76850000Y-54535000D02*
X76850000Y-51875000D01*
X79450000Y-54535000D02*
X79450000Y-51875000D01*
X69170000Y-51875000D02*
X69170000Y-54535000D01*
X70120000Y-51875000D02*
X70120000Y-45875000D01*
X70180000Y-51875000D02*
X70180000Y-45875000D01*
X70300000Y-51875000D02*
X70300000Y-45875000D01*
X70420000Y-51875000D02*
X70420000Y-45875000D01*
X70540000Y-51875000D02*
X70540000Y-45875000D01*
X70660000Y-51875000D02*
X70660000Y-45875000D01*
X70780000Y-51875000D02*
X70780000Y-45875000D01*
X72660000Y-51875000D02*
X72660000Y-45875000D01*
X75200000Y-51875000D02*
X75200000Y-45875000D01*
X77740000Y-51875000D02*
X77740000Y-45875000D01*
X79450000Y-51875000D02*
X69170000Y-51875000D01*
X70120000Y-45875000D02*
X70880000Y-45875000D01*
X70880000Y-45875000D02*
X70880000Y-51875000D01*
X72660000Y-45875000D02*
X73420000Y-45875000D01*
X73420000Y-45875000D02*
X73420000Y-51875000D01*
X75200000Y-45875000D02*
X75960000Y-45875000D01*
X75960000Y-45875000D02*
X75960000Y-51875000D01*
X77740000Y-45875000D02*
X78500000Y-45875000D01*
X78500000Y-45875000D02*
X78500000Y-51875000D01*
G04 #@! TO.C,SW1*
X22150000Y-100100000D02*
X20650000Y-100100000D01*
X18150000Y-101350000D02*
X18150000Y-105850000D01*
X24650000Y-105850000D02*
X24650000Y-101350000D01*
X20650000Y-107100000D02*
X22150000Y-107100000D01*
G04 #@! TO.C,C38*
X120775000Y-87052677D02*
X120775000Y-88052677D01*
X121275000Y-87552677D02*
X120275000Y-87552677D01*
X122980000Y-92532323D02*
X112820000Y-92532323D01*
X122980000Y-92572323D02*
X112820000Y-92572323D01*
X122980000Y-92612323D02*
X112820000Y-92612323D01*
X122979000Y-92652323D02*
X112821000Y-92652323D01*
X122978000Y-92692323D02*
X112822000Y-92692323D01*
X122977000Y-92732323D02*
X112823000Y-92732323D01*
X122975000Y-92772323D02*
X112825000Y-92772323D01*
X122973000Y-92812323D02*
X112827000Y-92812323D01*
X122970000Y-92852323D02*
X112830000Y-92852323D01*
X122968000Y-92892323D02*
X112832000Y-92892323D01*
X122965000Y-92932323D02*
X112835000Y-92932323D01*
X122962000Y-92972323D02*
X112838000Y-92972323D01*
X122958000Y-93012323D02*
X112842000Y-93012323D01*
X122954000Y-93052323D02*
X112846000Y-93052323D01*
X122950000Y-93092323D02*
X112850000Y-93092323D01*
X122945000Y-93132323D02*
X112855000Y-93132323D01*
X122940000Y-93172323D02*
X112860000Y-93172323D01*
X122935000Y-93212323D02*
X112865000Y-93212323D01*
X122930000Y-93253323D02*
X112870000Y-93253323D01*
X122924000Y-93293323D02*
X112876000Y-93293323D01*
X122918000Y-93333323D02*
X112882000Y-93333323D01*
X122911000Y-93373323D02*
X112889000Y-93373323D01*
X122904000Y-93413323D02*
X112896000Y-93413323D01*
X122897000Y-93453323D02*
X112903000Y-93453323D01*
X122890000Y-93493323D02*
X112910000Y-93493323D01*
X122882000Y-93533323D02*
X112918000Y-93533323D01*
X122874000Y-93573323D02*
X112926000Y-93573323D01*
X122865000Y-93613323D02*
X112935000Y-93613323D01*
X122856000Y-93653323D02*
X112944000Y-93653323D01*
X122847000Y-93693323D02*
X112953000Y-93693323D01*
X122838000Y-93733323D02*
X112962000Y-93733323D01*
X122828000Y-93773323D02*
X112972000Y-93773323D01*
X122818000Y-93813323D02*
X119141000Y-93813323D01*
X116659000Y-93813323D02*
X112982000Y-93813323D01*
X122807000Y-93853323D02*
X119141000Y-93853323D01*
X116659000Y-93853323D02*
X112993000Y-93853323D01*
X122797000Y-93893323D02*
X119141000Y-93893323D01*
X116659000Y-93893323D02*
X113003000Y-93893323D01*
X122785000Y-93933323D02*
X119141000Y-93933323D01*
X116659000Y-93933323D02*
X113015000Y-93933323D01*
X122774000Y-93973323D02*
X119141000Y-93973323D01*
X116659000Y-93973323D02*
X113026000Y-93973323D01*
X122762000Y-94013323D02*
X119141000Y-94013323D01*
X116659000Y-94013323D02*
X113038000Y-94013323D01*
X122750000Y-94053323D02*
X119141000Y-94053323D01*
X116659000Y-94053323D02*
X113050000Y-94053323D01*
X122737000Y-94093323D02*
X119141000Y-94093323D01*
X116659000Y-94093323D02*
X113063000Y-94093323D01*
X122724000Y-94133323D02*
X119141000Y-94133323D01*
X116659000Y-94133323D02*
X113076000Y-94133323D01*
X122711000Y-94173323D02*
X119141000Y-94173323D01*
X116659000Y-94173323D02*
X113089000Y-94173323D01*
X122697000Y-94213323D02*
X119141000Y-94213323D01*
X116659000Y-94213323D02*
X113103000Y-94213323D01*
X122683000Y-94253323D02*
X119141000Y-94253323D01*
X116659000Y-94253323D02*
X113117000Y-94253323D01*
X122668000Y-94293323D02*
X119141000Y-94293323D01*
X116659000Y-94293323D02*
X113132000Y-94293323D01*
X122654000Y-94333323D02*
X119141000Y-94333323D01*
X116659000Y-94333323D02*
X113146000Y-94333323D01*
X122638000Y-94373323D02*
X119141000Y-94373323D01*
X116659000Y-94373323D02*
X113162000Y-94373323D01*
X122623000Y-94413323D02*
X119141000Y-94413323D01*
X116659000Y-94413323D02*
X113177000Y-94413323D01*
X122607000Y-94453323D02*
X119141000Y-94453323D01*
X116659000Y-94453323D02*
X113193000Y-94453323D01*
X122590000Y-94493323D02*
X119141000Y-94493323D01*
X116659000Y-94493323D02*
X113210000Y-94493323D01*
X122574000Y-94533323D02*
X119141000Y-94533323D01*
X116659000Y-94533323D02*
X113226000Y-94533323D01*
X122557000Y-94573323D02*
X119141000Y-94573323D01*
X116659000Y-94573323D02*
X113243000Y-94573323D01*
X122539000Y-94613323D02*
X119141000Y-94613323D01*
X116659000Y-94613323D02*
X113261000Y-94613323D01*
X122521000Y-94653323D02*
X119141000Y-94653323D01*
X116659000Y-94653323D02*
X113279000Y-94653323D01*
X122503000Y-94693323D02*
X119141000Y-94693323D01*
X116659000Y-94693323D02*
X113297000Y-94693323D01*
X122484000Y-94733323D02*
X119141000Y-94733323D01*
X116659000Y-94733323D02*
X113316000Y-94733323D01*
X122464000Y-94773323D02*
X119141000Y-94773323D01*
X116659000Y-94773323D02*
X113336000Y-94773323D01*
X122445000Y-94813323D02*
X119141000Y-94813323D01*
X116659000Y-94813323D02*
X113355000Y-94813323D01*
X122425000Y-94853323D02*
X119141000Y-94853323D01*
X116659000Y-94853323D02*
X113375000Y-94853323D01*
X122404000Y-94893323D02*
X119141000Y-94893323D01*
X116659000Y-94893323D02*
X113396000Y-94893323D01*
X122383000Y-94933323D02*
X119141000Y-94933323D01*
X116659000Y-94933323D02*
X113417000Y-94933323D01*
X122362000Y-94973323D02*
X119141000Y-94973323D01*
X116659000Y-94973323D02*
X113438000Y-94973323D01*
X122340000Y-95013323D02*
X119141000Y-95013323D01*
X116659000Y-95013323D02*
X113460000Y-95013323D01*
X122317000Y-95053323D02*
X119141000Y-95053323D01*
X116659000Y-95053323D02*
X113483000Y-95053323D01*
X122295000Y-95093323D02*
X119141000Y-95093323D01*
X116659000Y-95093323D02*
X113505000Y-95093323D01*
X122271000Y-95133323D02*
X119141000Y-95133323D01*
X116659000Y-95133323D02*
X113529000Y-95133323D01*
X122247000Y-95173323D02*
X119141000Y-95173323D01*
X116659000Y-95173323D02*
X113553000Y-95173323D01*
X122223000Y-95213323D02*
X119141000Y-95213323D01*
X116659000Y-95213323D02*
X113577000Y-95213323D01*
X122198000Y-95253323D02*
X119141000Y-95253323D01*
X116659000Y-95253323D02*
X113602000Y-95253323D01*
X122173000Y-95293323D02*
X119141000Y-95293323D01*
X116659000Y-95293323D02*
X113627000Y-95293323D01*
X122147000Y-95333323D02*
X119141000Y-95333323D01*
X116659000Y-95333323D02*
X113653000Y-95333323D01*
X122121000Y-95373323D02*
X119141000Y-95373323D01*
X116659000Y-95373323D02*
X113679000Y-95373323D01*
X122094000Y-95413323D02*
X119141000Y-95413323D01*
X116659000Y-95413323D02*
X113706000Y-95413323D01*
X122066000Y-95453323D02*
X119141000Y-95453323D01*
X116659000Y-95453323D02*
X113734000Y-95453323D01*
X122038000Y-95493323D02*
X119141000Y-95493323D01*
X116659000Y-95493323D02*
X113762000Y-95493323D01*
X122010000Y-95533323D02*
X119141000Y-95533323D01*
X116659000Y-95533323D02*
X113790000Y-95533323D01*
X121980000Y-95573323D02*
X119141000Y-95573323D01*
X116659000Y-95573323D02*
X113820000Y-95573323D01*
X121950000Y-95613323D02*
X119141000Y-95613323D01*
X116659000Y-95613323D02*
X113850000Y-95613323D01*
X121920000Y-95653323D02*
X119141000Y-95653323D01*
X116659000Y-95653323D02*
X113880000Y-95653323D01*
X121889000Y-95693323D02*
X119141000Y-95693323D01*
X116659000Y-95693323D02*
X113911000Y-95693323D01*
X121857000Y-95733323D02*
X119141000Y-95733323D01*
X116659000Y-95733323D02*
X113943000Y-95733323D01*
X121825000Y-95773323D02*
X119141000Y-95773323D01*
X116659000Y-95773323D02*
X113975000Y-95773323D01*
X121792000Y-95813323D02*
X119141000Y-95813323D01*
X116659000Y-95813323D02*
X114008000Y-95813323D01*
X121758000Y-95853323D02*
X119141000Y-95853323D01*
X116659000Y-95853323D02*
X114042000Y-95853323D01*
X121724000Y-95893323D02*
X119141000Y-95893323D01*
X116659000Y-95893323D02*
X114076000Y-95893323D01*
X121689000Y-95933323D02*
X119141000Y-95933323D01*
X116659000Y-95933323D02*
X114111000Y-95933323D01*
X121653000Y-95973323D02*
X119141000Y-95973323D01*
X116659000Y-95973323D02*
X114147000Y-95973323D01*
X121616000Y-96013323D02*
X119141000Y-96013323D01*
X116659000Y-96013323D02*
X114184000Y-96013323D01*
X121579000Y-96053323D02*
X119141000Y-96053323D01*
X116659000Y-96053323D02*
X114221000Y-96053323D01*
X121540000Y-96093323D02*
X119141000Y-96093323D01*
X116659000Y-96093323D02*
X114260000Y-96093323D01*
X121501000Y-96133323D02*
X119141000Y-96133323D01*
X116659000Y-96133323D02*
X114299000Y-96133323D01*
X121461000Y-96173323D02*
X119141000Y-96173323D01*
X116659000Y-96173323D02*
X114339000Y-96173323D01*
X121420000Y-96213323D02*
X119141000Y-96213323D01*
X116659000Y-96213323D02*
X114380000Y-96213323D01*
X121378000Y-96253323D02*
X119141000Y-96253323D01*
X116659000Y-96253323D02*
X114422000Y-96253323D01*
X121336000Y-96293323D02*
X114464000Y-96293323D01*
X121292000Y-96333323D02*
X114508000Y-96333323D01*
X121247000Y-96373323D02*
X114553000Y-96373323D01*
X121201000Y-96413323D02*
X114599000Y-96413323D01*
X121154000Y-96453323D02*
X114646000Y-96453323D01*
X121106000Y-96493323D02*
X114694000Y-96493323D01*
X121056000Y-96533323D02*
X114744000Y-96533323D01*
X121006000Y-96573323D02*
X114794000Y-96573323D01*
X120954000Y-96613323D02*
X114846000Y-96613323D01*
X120900000Y-96653323D02*
X114900000Y-96653323D01*
X120845000Y-96693323D02*
X114955000Y-96693323D01*
X120789000Y-96733323D02*
X115011000Y-96733323D01*
X120730000Y-96773323D02*
X115070000Y-96773323D01*
X120670000Y-96813323D02*
X115130000Y-96813323D01*
X120609000Y-96853323D02*
X115191000Y-96853323D01*
X120545000Y-96893323D02*
X115255000Y-96893323D01*
X120479000Y-96933323D02*
X115321000Y-96933323D01*
X120410000Y-96973323D02*
X115390000Y-96973323D01*
X120339000Y-97013323D02*
X115461000Y-97013323D01*
X120265000Y-97053323D02*
X115535000Y-97053323D01*
X120189000Y-97093323D02*
X115611000Y-97093323D01*
X120109000Y-97133323D02*
X115691000Y-97133323D01*
X120025000Y-97173323D02*
X115775000Y-97173323D01*
X119937000Y-97213323D02*
X115863000Y-97213323D01*
X119844000Y-97253323D02*
X115956000Y-97253323D01*
X119746000Y-97293323D02*
X116054000Y-97293323D01*
X119642000Y-97333323D02*
X116158000Y-97333323D01*
X119530000Y-97373323D02*
X116270000Y-97373323D01*
X119410000Y-97413323D02*
X116390000Y-97413323D01*
X119278000Y-97453323D02*
X116522000Y-97453323D01*
X119130000Y-97493323D02*
X116670000Y-97493323D01*
X118962000Y-97533323D02*
X116838000Y-97533323D01*
X118762000Y-97573323D02*
X117038000Y-97573323D01*
X118499000Y-97613323D02*
X117301000Y-97613323D01*
X123020000Y-92532323D02*
G75*
G03*
X123020000Y-92532323I-5120000J0D01*
G01*
G04 #@! TD*
%LPC*%
D15*
G04 #@! TO.C,D1*
X29000000Y-90500000D03*
X30575000Y-90500000D03*
G04 #@! TD*
D16*
G04 #@! TO.C,J2*
X48000000Y-56000000D03*
D17*
X50540000Y-56000000D03*
X53080000Y-56000000D03*
G04 #@! TD*
D16*
G04 #@! TO.C,J5*
X58500000Y-56000000D03*
D17*
X61040000Y-56000000D03*
X63580000Y-56000000D03*
G04 #@! TD*
D16*
G04 #@! TO.C,J4*
X116120000Y-56000000D03*
D17*
X118660000Y-56000000D03*
X121200000Y-56000000D03*
G04 #@! TD*
D16*
G04 #@! TO.C,J6*
X135000000Y-69000000D03*
D17*
X135000000Y-71540000D03*
X135000000Y-74080000D03*
X135000000Y-76620000D03*
X135000000Y-79160000D03*
G04 #@! TD*
D18*
G04 #@! TO.C,J10*
X117875000Y-121381924D03*
X129305000Y-121381924D03*
D19*
X119145000Y-115031924D03*
D20*
X120415000Y-112491924D03*
X121685000Y-115031924D03*
X122955000Y-112491924D03*
X124225000Y-115031924D03*
X125495000Y-112491924D03*
X126765000Y-115031924D03*
X128035000Y-112491924D03*
G04 #@! TD*
D18*
G04 #@! TO.C,J12*
X65185000Y-121391924D03*
X76615000Y-121391924D03*
D19*
X66455000Y-115041924D03*
D20*
X67725000Y-112501924D03*
X68995000Y-115041924D03*
X70265000Y-112501924D03*
X71535000Y-115041924D03*
X72805000Y-112501924D03*
X74075000Y-115041924D03*
X75345000Y-112501924D03*
G04 #@! TD*
D21*
G04 #@! TO.C,U3*
X121710000Y-67380000D03*
D22*
X119170000Y-67380000D03*
X116630000Y-67380000D03*
X114090000Y-67380000D03*
X111550000Y-67380000D03*
X109010000Y-67380000D03*
X106470000Y-67380000D03*
X103930000Y-67380000D03*
X101390000Y-67380000D03*
X98850000Y-67380000D03*
X96310000Y-67380000D03*
X93770000Y-67380000D03*
X91230000Y-67380000D03*
X88690000Y-67380000D03*
X86150000Y-67380000D03*
X83610000Y-67380000D03*
X81070000Y-67380000D03*
X78530000Y-67380000D03*
X75990000Y-67380000D03*
X73450000Y-67380000D03*
X70910000Y-67380000D03*
X68370000Y-67380000D03*
X65830000Y-67380000D03*
X63290000Y-67380000D03*
X63290000Y-82620000D03*
X65830000Y-82620000D03*
X68370000Y-82620000D03*
X70910000Y-82620000D03*
X73450000Y-82620000D03*
X75990000Y-82620000D03*
X78530000Y-82620000D03*
X81070000Y-82620000D03*
X83610000Y-82620000D03*
X86150000Y-82620000D03*
X88690000Y-82620000D03*
X91230000Y-82620000D03*
X93770000Y-82620000D03*
X96310000Y-82620000D03*
X98850000Y-82620000D03*
X101390000Y-82620000D03*
X103930000Y-82620000D03*
X106470000Y-82620000D03*
X109010000Y-82620000D03*
X111550000Y-82620000D03*
X114090000Y-82620000D03*
X116630000Y-82620000D03*
X119170000Y-82620000D03*
X121710000Y-82620000D03*
X119170000Y-80080000D03*
X75990000Y-69920000D03*
G04 #@! TD*
D18*
G04 #@! TO.C,J11*
X100195000Y-121381924D03*
X111625000Y-121381924D03*
D19*
X101465000Y-115031924D03*
D20*
X102735000Y-112491924D03*
X104005000Y-115031924D03*
X105275000Y-112491924D03*
X106545000Y-115031924D03*
X107815000Y-112491924D03*
X109085000Y-115031924D03*
X110355000Y-112491924D03*
G04 #@! TD*
D18*
G04 #@! TO.C,J8*
X47815000Y-121381924D03*
X59245000Y-121381924D03*
D19*
X49085000Y-115031924D03*
D20*
X50355000Y-112491924D03*
X51625000Y-115031924D03*
X52895000Y-112491924D03*
X54165000Y-115031924D03*
X55435000Y-112491924D03*
X56705000Y-115031924D03*
X57975000Y-112491924D03*
G04 #@! TD*
D18*
G04 #@! TO.C,J9*
X30135000Y-121381924D03*
X41565000Y-121381924D03*
D19*
X31405000Y-115031924D03*
D20*
X32675000Y-112491924D03*
X33945000Y-115031924D03*
X35215000Y-112491924D03*
X36485000Y-115031924D03*
X37755000Y-112491924D03*
X39025000Y-115031924D03*
X40295000Y-112491924D03*
G04 #@! TD*
D18*
G04 #@! TO.C,J13*
X82865000Y-121391924D03*
X94295000Y-121391924D03*
D19*
X84135000Y-115041924D03*
D20*
X85405000Y-112501924D03*
X86675000Y-115041924D03*
X87945000Y-112501924D03*
X89215000Y-115041924D03*
X90485000Y-112501924D03*
X91755000Y-115041924D03*
X93025000Y-112501924D03*
G04 #@! TD*
D23*
G04 #@! TO.C,H1*
X21000000Y-52500000D03*
G04 #@! TD*
G04 #@! TO.C,H2*
X138500000Y-124000000D03*
G04 #@! TD*
G04 #@! TO.C,H3*
X138500000Y-52500000D03*
G04 #@! TD*
G04 #@! TO.C,H4*
X21000000Y-124000000D03*
G04 #@! TD*
D16*
G04 #@! TO.C,J3*
X106000000Y-56000000D03*
D17*
X108540000Y-56000000D03*
X111080000Y-56000000D03*
G04 #@! TD*
D24*
G04 #@! TO.C,BT1*
X133500000Y-108085000D03*
X133500000Y-86115000D03*
D25*
X133500000Y-97100000D03*
G04 #@! TD*
D16*
G04 #@! TO.C,J15*
X126175000Y-55975000D03*
D17*
X128715000Y-55975000D03*
X131255000Y-55975000D03*
G04 #@! TD*
D18*
G04 #@! TO.C,J7*
X98170000Y-54550000D03*
X86740000Y-54550000D03*
D19*
X96900000Y-60900000D03*
D20*
X95630000Y-63440000D03*
X94360000Y-60900000D03*
X93090000Y-63440000D03*
X91820000Y-60900000D03*
X90550000Y-63440000D03*
X89280000Y-60900000D03*
X88010000Y-63440000D03*
G04 #@! TD*
D26*
G04 #@! TO.C,C35*
X23467677Y-90500000D03*
D27*
X18467677Y-90500000D03*
G04 #@! TD*
D28*
G04 #@! TO.C,J14*
X31650000Y-66400000D03*
X39550000Y-66400000D03*
G04 #@! TD*
D26*
G04 #@! TO.C,C30*
X23500000Y-72900000D03*
D27*
X18500000Y-72900000D03*
G04 #@! TD*
D16*
G04 #@! TO.C,J1*
X70500000Y-55975000D03*
D17*
X73040000Y-55975000D03*
X75580000Y-55975000D03*
X78120000Y-55975000D03*
G04 #@! TD*
D27*
G04 #@! TO.C,SW1*
X23650000Y-100350000D03*
X23650000Y-106850000D03*
X19150000Y-100350000D03*
X19150000Y-106850000D03*
G04 #@! TD*
D26*
G04 #@! TO.C,C38*
X117900000Y-90032323D03*
D27*
X117900000Y-95032323D03*
G04 #@! TD*
%LPD*%
M02*
