M48
; DRILL file {KiCad 5.1.10-88a1d61d58~88~ubuntu20.04.1} date Thu May 20 14:16:29 2021
; FORMAT={-:-/ absolute / inch / decimal}
; #@! TF.CreationDate,2021-05-20T14:16:29-06:00
; #@! TF.GenerationSoftware,Kicad,Pcbnew,5.1.10-88a1d61d58~88~ubuntu20.04.1
; #@! TF.FileFunction,Plated,1,2,PTH
FMAT,2
INCH
T1C0.0157
T2C0.0299
T3C0.0394
T4C0.0433
T5C0.0500
T6C0.1969
%
G90
G05
T1
X0.6791Y-2.0669
X0.6791Y-4.8819
X0.7224Y-1.9626
X0.7224Y-2.1713
X0.7224Y-4.7776
X0.7224Y-4.9862
X0.8268Y-1.9193
X0.8268Y-2.2146
X0.8268Y-4.7343
X0.8268Y-5.0295
X0.9311Y-1.9626
X0.9311Y-2.1713
X0.9311Y-4.7776
X0.9311Y-4.9862
X0.9744Y-2.0669
X0.9744Y-4.8819
X1.1142Y-3.3819
X1.2992Y-3.937
X1.2992Y-4.0945
X1.563Y-3.315
X1.5669Y-3.8661
X1.5748Y-3.3622
X1.7087Y-3.2835
X1.7165Y-4.2323
X1.7559Y-3.2835
X1.7598Y-3.878
X1.7638Y-3.1142
X1.7677Y-2.9252
X1.7874Y-4.5669
X1.7992Y-3.374
X1.8465Y-3.7835
X1.8898Y-4.1772
X1.8937Y-3.3976
X1.9183Y-4.0827
X1.9961Y-2.3898
X2.1417Y-2.4921
X2.1654Y-3.937
X2.1654Y-4.0157
X2.2047Y-4.0906
X2.2362Y-3.3543
X2.2835Y-3.3661
X2.4055Y-2.378
X2.5591Y-2.4724
X2.6772Y-3.937
X2.6772Y-4.0945
X2.8622Y-4.0984
X2.8829Y-4.2644
X2.9488Y-4.248
X2.9567Y-3.4173
X3.0079Y-3.7756
X3.0787Y-3.9291
X3.0827Y-3.4331
X3.1693Y-4.3504
X3.189Y-2.56
X3.1969Y-3.0709
X3.2756Y-4.1811
X3.2795Y-3.4606
X3.2835Y-2.5354
X3.2874Y-4.2323
X3.2913Y-3.1171
X3.3071Y-3.8819
X3.311Y-3.4882
X3.3465Y-2.7047
X3.4055Y-1.9911
X3.5827Y-3.937
X3.5827Y-4.0945
X3.5866Y-3.1417
X3.5984Y-2.0157
X3.6929Y-3.1693
X3.8465Y-2.7283
X3.9252Y-2.7165
X4.0945Y-3.9567
X4.0945Y-4.0945
X4.1024Y-4.2677
X4.2953Y-2.9173
X4.3386Y-2.748
X4.3632Y-4.2283
X4.3898Y-4.5827
X4.4449Y-2.7205
X4.4882Y-3.9291
X4.5128Y-3.878
X4.563Y-3.8661
X4.5945Y-3.0118
X4.685Y-4.0354
X4.689Y-4.1969
X4.689Y-4.2677
X4.9606Y-3.9567
X4.9606Y-4.0945
X5.248Y-2.7874
X5.3051Y-2.0669
X5.3051Y-4.8819
X5.3484Y-1.9626
X5.3484Y-2.1713
X5.3484Y-4.7776
X5.3484Y-4.9862
X5.4528Y-1.9193
X5.4528Y-2.2146
X5.4528Y-4.7343
X5.4528Y-5.0295
X5.5571Y-1.9626
X5.5571Y-2.1713
X5.5571Y-4.7776
X5.5571Y-4.9862
X5.6004Y-2.0669
X5.6004Y-4.8819
T2
X1.2364Y-4.5288
X1.2864Y-4.4288
X1.3364Y-4.5288
X1.3864Y-4.4288
X1.4364Y-4.5288
X1.4864Y-4.4288
X1.5364Y-4.5288
X1.5864Y-4.4288
X1.9325Y-4.5288
X1.9825Y-4.4288
X2.0325Y-4.5288
X2.0825Y-4.4288
X2.1325Y-4.5288
X2.1825Y-4.4288
X2.2325Y-4.5288
X2.2825Y-4.4288
X2.6163Y-4.5292
X2.6663Y-4.4292
X2.7163Y-4.5292
X2.7663Y-4.4292
X2.8163Y-4.5292
X2.8663Y-4.4292
X2.9163Y-4.5292
X2.9663Y-4.4292
X3.3124Y-4.5292
X3.3624Y-4.4292
X3.4124Y-4.5292
X3.4624Y-4.4292
X3.5124Y-4.5292
X3.5624Y-4.4292
X3.6124Y-4.5292
X3.6624Y-4.4292
X3.9947Y-4.5288
X4.0447Y-4.4288
X4.0947Y-4.5288
X4.1447Y-4.4288
X4.1947Y-4.5288
X4.2447Y-4.4288
X4.2947Y-4.5288
X4.3447Y-4.4288
X4.6907Y-4.5288
X4.7407Y-4.4288
X4.7907Y-4.5288
X4.8407Y-4.4288
X4.8907Y-4.5288
X4.9407Y-4.4288
X4.9907Y-4.5288
X5.0407Y-4.4288
T3
X0.7283Y-3.5787
X0.8268Y-2.4409
X0.8268Y-2.6378
X0.9252Y-3.5787
X1.8898Y-2.2047
X1.9898Y-2.2047
X2.0898Y-2.2047
X2.3031Y-2.2047
X2.4031Y-2.2047
X2.5031Y-2.2047
X2.7165Y-2.2047
X2.8165Y-2.2047
X2.9165Y-2.2047
X3.0165Y-2.2047
X3.1165Y-2.2047
X3.2165Y-2.2047
X3.4449Y-2.2047
X3.5449Y-2.2047
X3.6449Y-2.2047
X3.7449Y-2.2047
X3.8449Y-2.2047
X3.9449Y-2.2047
X4.1732Y-2.2047
X4.2732Y-2.2047
X4.3732Y-2.2047
X4.6063Y-2.2047
X4.7063Y-2.2047
X4.8063Y-2.2047
X5.315Y-2.7165
X5.315Y-2.8165
X5.315Y-2.9165
X5.315Y-3.0165
X5.315Y-3.1165
T4
X2.4917Y-2.6528
X2.4917Y-3.2528
X2.5917Y-2.6528
X2.5917Y-3.2528
X2.6917Y-2.6528
X2.6917Y-3.2528
X2.7917Y-2.6528
X2.7917Y-3.2528
X2.8917Y-2.6528
X2.8917Y-3.2528
X2.9917Y-2.6528
X2.9917Y-2.7528
X2.9917Y-3.2528
X3.0917Y-2.6528
X3.0917Y-3.2528
X3.1917Y-2.6528
X3.1917Y-3.2528
X3.2917Y-2.6528
X3.2917Y-3.2528
X3.3917Y-2.6528
X3.3917Y-3.2528
X3.4917Y-2.6528
X3.4917Y-3.2528
X3.5917Y-2.6528
X3.5917Y-3.2528
X3.6917Y-2.6528
X3.6917Y-3.2528
X3.7917Y-2.6528
X3.7917Y-3.2528
X3.8917Y-2.6528
X3.8917Y-3.2528
X3.9917Y-2.6528
X3.9917Y-3.2528
X4.0917Y-2.6528
X4.0917Y-3.2528
X4.1917Y-2.6528
X4.1917Y-3.2528
X4.2917Y-2.6528
X4.2917Y-3.2528
X4.3917Y-2.6528
X4.3917Y-3.2528
X4.4917Y-2.6528
X4.4917Y-3.2528
X4.5917Y-2.6528
X4.5917Y-3.2528
X4.6917Y-2.6528
X4.6917Y-3.1528
X4.6917Y-3.2528
X4.7917Y-2.6528
X4.7917Y-3.2528
T6
X0.8268Y-2.0669
X0.8268Y-4.8819
X5.4528Y-2.0669
X5.4528Y-4.8819
T5
G00X1.1642Y-2.5984
M15
G01X1.3201Y-2.5984
M16
G05
G00X1.4752Y-2.5984
M15
G01X1.6311Y-2.5984
M16
G05
T0
M30
