%TF.GenerationSoftware,KiCad,Pcbnew,5.1.10-88a1d61d58~88~ubuntu20.04.1*%
%TF.CreationDate,2021-05-20T14:16:26-06:00*%
%TF.ProjectId,colordance-brain,636f6c6f-7264-4616-9e63-652d62726169,rev?*%
%TF.SameCoordinates,Original*%
%TF.FileFunction,Legend,Top*%
%TF.FilePolarity,Positive*%
%FSLAX46Y46*%
G04 Gerber Fmt 4.6, Leading zero omitted, Abs format (unit mm)*
G04 Created by KiCad (PCBNEW 5.1.10-88a1d61d58~88~ubuntu20.04.1) date 2021-05-20 14:16:26*
%MOMM*%
%LPD*%
G01*
G04 APERTURE LIST*
%ADD10C,0.150000*%
%ADD11C,0.200000*%
%ADD12C,0.100000*%
%ADD13C,0.120000*%
G04 APERTURE END LIST*
D10*
X130261904Y-75952380D02*
X130880952Y-75952380D01*
X130547619Y-76333333D01*
X130690476Y-76333333D01*
X130785714Y-76380952D01*
X130833333Y-76428571D01*
X130880952Y-76523809D01*
X130880952Y-76761904D01*
X130833333Y-76857142D01*
X130785714Y-76904761D01*
X130690476Y-76952380D01*
X130404761Y-76952380D01*
X130309523Y-76904761D01*
X130261904Y-76857142D01*
X131166666Y-75952380D02*
X131500000Y-76952380D01*
X131833333Y-75952380D01*
X132071428Y-75952380D02*
X132690476Y-75952380D01*
X132357142Y-76333333D01*
X132500000Y-76333333D01*
X132595238Y-76380952D01*
X132642857Y-76428571D01*
X132690476Y-76523809D01*
X132690476Y-76761904D01*
X132642857Y-76857142D01*
X132595238Y-76904761D01*
X132500000Y-76952380D01*
X132214285Y-76952380D01*
X132119047Y-76904761D01*
X132071428Y-76857142D01*
X129285714Y-74166666D02*
X129761904Y-74166666D01*
X129190476Y-74452380D02*
X129523809Y-73452380D01*
X129857142Y-74452380D01*
X130190476Y-73452380D02*
X130190476Y-74261904D01*
X130238095Y-74357142D01*
X130285714Y-74404761D01*
X130380952Y-74452380D01*
X130571428Y-74452380D01*
X130666666Y-74404761D01*
X130714285Y-74357142D01*
X130761904Y-74261904D01*
X130761904Y-73452380D01*
X131142857Y-73452380D02*
X131809523Y-74452380D01*
X131809523Y-73452380D02*
X131142857Y-74452380D01*
X132714285Y-74452380D02*
X132142857Y-74452380D01*
X132428571Y-74452380D02*
X132428571Y-73452380D01*
X132333333Y-73595238D01*
X132238095Y-73690476D01*
X132142857Y-73738095D01*
X129285714Y-71666666D02*
X129761904Y-71666666D01*
X129190476Y-71952380D02*
X129523809Y-70952380D01*
X129857142Y-71952380D01*
X130190476Y-70952380D02*
X130190476Y-71761904D01*
X130238095Y-71857142D01*
X130285714Y-71904761D01*
X130380952Y-71952380D01*
X130571428Y-71952380D01*
X130666666Y-71904761D01*
X130714285Y-71857142D01*
X130761904Y-71761904D01*
X130761904Y-70952380D01*
X131142857Y-70952380D02*
X131809523Y-71952380D01*
X131809523Y-70952380D02*
X131142857Y-71952380D01*
X132380952Y-70952380D02*
X132476190Y-70952380D01*
X132571428Y-71000000D01*
X132619047Y-71047619D01*
X132666666Y-71142857D01*
X132714285Y-71333333D01*
X132714285Y-71571428D01*
X132666666Y-71761904D01*
X132619047Y-71857142D01*
X132571428Y-71904761D01*
X132476190Y-71952380D01*
X132380952Y-71952380D01*
X132285714Y-71904761D01*
X132238095Y-71857142D01*
X132190476Y-71761904D01*
X132142857Y-71571428D01*
X132142857Y-71333333D01*
X132190476Y-71142857D01*
X132238095Y-71047619D01*
X132285714Y-71000000D01*
X132380952Y-70952380D01*
X132761904Y-68500000D02*
X132666666Y-68452380D01*
X132523809Y-68452380D01*
X132380952Y-68500000D01*
X132285714Y-68595238D01*
X132238095Y-68690476D01*
X132190476Y-68880952D01*
X132190476Y-69023809D01*
X132238095Y-69214285D01*
X132285714Y-69309523D01*
X132380952Y-69404761D01*
X132523809Y-69452380D01*
X132619047Y-69452380D01*
X132761904Y-69404761D01*
X132809523Y-69357142D01*
X132809523Y-69023809D01*
X132619047Y-69023809D01*
X131809523Y-78952380D02*
X131333333Y-78952380D01*
X131285714Y-79428571D01*
X131333333Y-79380952D01*
X131428571Y-79333333D01*
X131666666Y-79333333D01*
X131761904Y-79380952D01*
X131809523Y-79428571D01*
X131857142Y-79523809D01*
X131857142Y-79761904D01*
X131809523Y-79857142D01*
X131761904Y-79904761D01*
X131666666Y-79952380D01*
X131428571Y-79952380D01*
X131333333Y-79904761D01*
X131285714Y-79857142D01*
X132142857Y-78952380D02*
X132476190Y-79952380D01*
X132809523Y-78952380D01*
X121809523Y-57952380D02*
X121333333Y-57952380D01*
X121285714Y-58428571D01*
X121333333Y-58380952D01*
X121428571Y-58333333D01*
X121666666Y-58333333D01*
X121761904Y-58380952D01*
X121809523Y-58428571D01*
X121857142Y-58523809D01*
X121857142Y-58761904D01*
X121809523Y-58857142D01*
X121761904Y-58904761D01*
X121666666Y-58952380D01*
X121428571Y-58952380D01*
X121333333Y-58904761D01*
X121285714Y-58857142D01*
X122142857Y-57952380D02*
X122476190Y-58952380D01*
X122809523Y-57952380D01*
X110809523Y-57952380D02*
X110333333Y-57952380D01*
X110285714Y-58428571D01*
X110333333Y-58380952D01*
X110428571Y-58333333D01*
X110666666Y-58333333D01*
X110761904Y-58380952D01*
X110809523Y-58428571D01*
X110857142Y-58523809D01*
X110857142Y-58761904D01*
X110809523Y-58857142D01*
X110761904Y-58904761D01*
X110666666Y-58952380D01*
X110428571Y-58952380D01*
X110333333Y-58904761D01*
X110285714Y-58857142D01*
X111142857Y-57952380D02*
X111476190Y-58952380D01*
X111809523Y-57952380D01*
X117261904Y-58000000D02*
X117166666Y-57952380D01*
X117023809Y-57952380D01*
X116880952Y-58000000D01*
X116785714Y-58095238D01*
X116738095Y-58190476D01*
X116690476Y-58380952D01*
X116690476Y-58523809D01*
X116738095Y-58714285D01*
X116785714Y-58809523D01*
X116880952Y-58904761D01*
X117023809Y-58952380D01*
X117119047Y-58952380D01*
X117261904Y-58904761D01*
X117309523Y-58857142D01*
X117309523Y-58523809D01*
X117119047Y-58523809D01*
X106261904Y-58000000D02*
X106166666Y-57952380D01*
X106023809Y-57952380D01*
X105880952Y-58000000D01*
X105785714Y-58095238D01*
X105738095Y-58190476D01*
X105690476Y-58380952D01*
X105690476Y-58523809D01*
X105738095Y-58714285D01*
X105785714Y-58809523D01*
X105880952Y-58904761D01*
X106023809Y-58952380D01*
X106119047Y-58952380D01*
X106261904Y-58904761D01*
X106309523Y-58857142D01*
X106309523Y-58523809D01*
X106119047Y-58523809D01*
X99809523Y-57952380D02*
X99333333Y-57952380D01*
X99285714Y-58428571D01*
X99333333Y-58380952D01*
X99428571Y-58333333D01*
X99666666Y-58333333D01*
X99761904Y-58380952D01*
X99809523Y-58428571D01*
X99857142Y-58523809D01*
X99857142Y-58761904D01*
X99809523Y-58857142D01*
X99761904Y-58904761D01*
X99666666Y-58952380D01*
X99428571Y-58952380D01*
X99333333Y-58904761D01*
X99285714Y-58857142D01*
X100142857Y-57952380D02*
X100476190Y-58952380D01*
X100809523Y-57952380D01*
X97333333Y-58857142D02*
X97285714Y-58904761D01*
X97142857Y-58952380D01*
X97047619Y-58952380D01*
X96904761Y-58904761D01*
X96809523Y-58809523D01*
X96761904Y-58714285D01*
X96714285Y-58523809D01*
X96714285Y-58380952D01*
X96761904Y-58190476D01*
X96809523Y-58095238D01*
X96904761Y-58000000D01*
X97047619Y-57952380D01*
X97142857Y-57952380D01*
X97285714Y-58000000D01*
X97333333Y-58047619D01*
X97714285Y-58904761D02*
X97857142Y-58952380D01*
X98095238Y-58952380D01*
X98190476Y-58904761D01*
X98238095Y-58857142D01*
X98285714Y-58761904D01*
X98285714Y-58666666D01*
X98238095Y-58571428D01*
X98190476Y-58523809D01*
X98095238Y-58476190D01*
X97904761Y-58428571D01*
X97809523Y-58380952D01*
X97761904Y-58333333D01*
X97714285Y-58238095D01*
X97714285Y-58142857D01*
X97761904Y-58047619D01*
X97809523Y-58000000D01*
X97904761Y-57952380D01*
X98142857Y-57952380D01*
X98285714Y-58000000D01*
X91928571Y-58952380D02*
X91928571Y-57952380D01*
X92261904Y-58666666D01*
X92595238Y-57952380D01*
X92595238Y-58952380D01*
X93071428Y-58952380D02*
X93071428Y-57952380D01*
X89809523Y-58857142D02*
X89761904Y-58904761D01*
X89619047Y-58952380D01*
X89523809Y-58952380D01*
X89380952Y-58904761D01*
X89285714Y-58809523D01*
X89238095Y-58714285D01*
X89190476Y-58523809D01*
X89190476Y-58380952D01*
X89238095Y-58190476D01*
X89285714Y-58095238D01*
X89380952Y-58000000D01*
X89523809Y-57952380D01*
X89619047Y-57952380D01*
X89761904Y-58000000D01*
X89809523Y-58047619D01*
X90238095Y-58952380D02*
X90238095Y-57952380D01*
X90809523Y-58952380D02*
X90380952Y-58380952D01*
X90809523Y-57952380D02*
X90238095Y-58523809D01*
X94142857Y-58952380D02*
X94142857Y-57952380D01*
X94476190Y-58666666D01*
X94809523Y-57952380D01*
X94809523Y-58952380D01*
X95476190Y-57952380D02*
X95666666Y-57952380D01*
X95761904Y-58000000D01*
X95857142Y-58095238D01*
X95904761Y-58285714D01*
X95904761Y-58619047D01*
X95857142Y-58809523D01*
X95761904Y-58904761D01*
X95666666Y-58952380D01*
X95476190Y-58952380D01*
X95380952Y-58904761D01*
X95285714Y-58809523D01*
X95238095Y-58619047D01*
X95238095Y-58285714D01*
X95285714Y-58095238D01*
X95380952Y-58000000D01*
X95476190Y-57952380D01*
X87761904Y-58000000D02*
X87666666Y-57952380D01*
X87523809Y-57952380D01*
X87380952Y-58000000D01*
X87285714Y-58095238D01*
X87238095Y-58190476D01*
X87190476Y-58380952D01*
X87190476Y-58523809D01*
X87238095Y-58714285D01*
X87285714Y-58809523D01*
X87380952Y-58904761D01*
X87523809Y-58952380D01*
X87619047Y-58952380D01*
X87761904Y-58904761D01*
X87809523Y-58857142D01*
X87809523Y-58523809D01*
X87619047Y-58523809D01*
X78833333Y-58857142D02*
X78785714Y-58904761D01*
X78642857Y-58952380D01*
X78547619Y-58952380D01*
X78404761Y-58904761D01*
X78309523Y-58809523D01*
X78261904Y-58714285D01*
X78214285Y-58523809D01*
X78214285Y-58380952D01*
X78261904Y-58190476D01*
X78309523Y-58095238D01*
X78404761Y-58000000D01*
X78547619Y-57952380D01*
X78642857Y-57952380D01*
X78785714Y-58000000D01*
X78833333Y-58047619D01*
X79214285Y-58904761D02*
X79357142Y-58952380D01*
X79595238Y-58952380D01*
X79690476Y-58904761D01*
X79738095Y-58857142D01*
X79785714Y-58761904D01*
X79785714Y-58666666D01*
X79738095Y-58571428D01*
X79690476Y-58523809D01*
X79595238Y-58476190D01*
X79404761Y-58428571D01*
X79309523Y-58380952D01*
X79261904Y-58333333D01*
X79214285Y-58238095D01*
X79214285Y-58142857D01*
X79261904Y-58047619D01*
X79309523Y-58000000D01*
X79404761Y-57952380D01*
X79642857Y-57952380D01*
X79785714Y-58000000D01*
X75642857Y-58952380D02*
X75642857Y-57952380D01*
X75976190Y-58666666D01*
X76309523Y-57952380D01*
X76309523Y-58952380D01*
X76976190Y-57952380D02*
X77166666Y-57952380D01*
X77261904Y-58000000D01*
X77357142Y-58095238D01*
X77404761Y-58285714D01*
X77404761Y-58619047D01*
X77357142Y-58809523D01*
X77261904Y-58904761D01*
X77166666Y-58952380D01*
X76976190Y-58952380D01*
X76880952Y-58904761D01*
X76785714Y-58809523D01*
X76738095Y-58619047D01*
X76738095Y-58285714D01*
X76785714Y-58095238D01*
X76880952Y-58000000D01*
X76976190Y-57952380D01*
X73428571Y-58952380D02*
X73428571Y-57952380D01*
X73761904Y-58666666D01*
X74095238Y-57952380D01*
X74095238Y-58952380D01*
X74571428Y-58952380D02*
X74571428Y-57952380D01*
X71309523Y-58857142D02*
X71261904Y-58904761D01*
X71119047Y-58952380D01*
X71023809Y-58952380D01*
X70880952Y-58904761D01*
X70785714Y-58809523D01*
X70738095Y-58714285D01*
X70690476Y-58523809D01*
X70690476Y-58380952D01*
X70738095Y-58190476D01*
X70785714Y-58095238D01*
X70880952Y-58000000D01*
X71023809Y-57952380D01*
X71119047Y-57952380D01*
X71261904Y-58000000D01*
X71309523Y-58047619D01*
X71738095Y-58952380D02*
X71738095Y-57952380D01*
X72309523Y-58952380D02*
X71880952Y-58380952D01*
X72309523Y-57952380D02*
X71738095Y-58523809D01*
X81309523Y-57952380D02*
X80833333Y-57952380D01*
X80785714Y-58428571D01*
X80833333Y-58380952D01*
X80928571Y-58333333D01*
X81166666Y-58333333D01*
X81261904Y-58380952D01*
X81309523Y-58428571D01*
X81357142Y-58523809D01*
X81357142Y-58761904D01*
X81309523Y-58857142D01*
X81261904Y-58904761D01*
X81166666Y-58952380D01*
X80928571Y-58952380D01*
X80833333Y-58904761D01*
X80785714Y-58857142D01*
X81642857Y-57952380D02*
X81976190Y-58952380D01*
X82309523Y-57952380D01*
X69261904Y-58000000D02*
X69166666Y-57952380D01*
X69023809Y-57952380D01*
X68880952Y-58000000D01*
X68785714Y-58095238D01*
X68738095Y-58190476D01*
X68690476Y-58380952D01*
X68690476Y-58523809D01*
X68738095Y-58714285D01*
X68785714Y-58809523D01*
X68880952Y-58904761D01*
X69023809Y-58952380D01*
X69119047Y-58952380D01*
X69261904Y-58904761D01*
X69309523Y-58857142D01*
X69309523Y-58523809D01*
X69119047Y-58523809D01*
X63309523Y-57952380D02*
X62833333Y-57952380D01*
X62785714Y-58428571D01*
X62833333Y-58380952D01*
X62928571Y-58333333D01*
X63166666Y-58333333D01*
X63261904Y-58380952D01*
X63309523Y-58428571D01*
X63357142Y-58523809D01*
X63357142Y-58761904D01*
X63309523Y-58857142D01*
X63261904Y-58904761D01*
X63166666Y-58952380D01*
X62928571Y-58952380D01*
X62833333Y-58904761D01*
X62785714Y-58857142D01*
X63642857Y-57952380D02*
X63976190Y-58952380D01*
X64309523Y-57952380D01*
X58761904Y-58000000D02*
X58666666Y-57952380D01*
X58523809Y-57952380D01*
X58380952Y-58000000D01*
X58285714Y-58095238D01*
X58238095Y-58190476D01*
X58190476Y-58380952D01*
X58190476Y-58523809D01*
X58238095Y-58714285D01*
X58285714Y-58809523D01*
X58380952Y-58904761D01*
X58523809Y-58952380D01*
X58619047Y-58952380D01*
X58761904Y-58904761D01*
X58809523Y-58857142D01*
X58809523Y-58523809D01*
X58619047Y-58523809D01*
X52809523Y-57952380D02*
X52333333Y-57952380D01*
X52285714Y-58428571D01*
X52333333Y-58380952D01*
X52428571Y-58333333D01*
X52666666Y-58333333D01*
X52761904Y-58380952D01*
X52809523Y-58428571D01*
X52857142Y-58523809D01*
X52857142Y-58761904D01*
X52809523Y-58857142D01*
X52761904Y-58904761D01*
X52666666Y-58952380D01*
X52428571Y-58952380D01*
X52333333Y-58904761D01*
X52285714Y-58857142D01*
X53142857Y-57952380D02*
X53476190Y-58952380D01*
X53809523Y-57952380D01*
X48261904Y-58000000D02*
X48166666Y-57952380D01*
X48023809Y-57952380D01*
X47880952Y-58000000D01*
X47785714Y-58095238D01*
X47738095Y-58190476D01*
X47690476Y-58380952D01*
X47690476Y-58523809D01*
X47738095Y-58714285D01*
X47785714Y-58809523D01*
X47880952Y-58904761D01*
X48023809Y-58952380D01*
X48119047Y-58952380D01*
X48261904Y-58904761D01*
X48309523Y-58857142D01*
X48309523Y-58523809D01*
X48119047Y-58523809D01*
X133761904Y-66666666D02*
X134238095Y-66666666D01*
X133666666Y-66952380D02*
X134000000Y-65952380D01*
X134333333Y-66952380D01*
X134666666Y-65952380D02*
X134666666Y-66761904D01*
X134714285Y-66857142D01*
X134761904Y-66904761D01*
X134857142Y-66952380D01*
X135047619Y-66952380D01*
X135142857Y-66904761D01*
X135190476Y-66857142D01*
X135238095Y-66761904D01*
X135238095Y-65952380D01*
X135619047Y-65952380D02*
X136285714Y-66952380D01*
X136285714Y-65952380D02*
X135619047Y-66952380D01*
X114952380Y-57476190D02*
X113952380Y-57476190D01*
X113952380Y-57095238D01*
X114000000Y-57000000D01*
X114047619Y-56952380D01*
X114142857Y-56904761D01*
X114285714Y-56904761D01*
X114380952Y-56952380D01*
X114428571Y-57000000D01*
X114476190Y-57095238D01*
X114476190Y-57476190D01*
X114952380Y-56476190D02*
X113952380Y-56476190D01*
X114952380Y-55428571D02*
X114476190Y-55761904D01*
X114952380Y-56000000D02*
X113952380Y-56000000D01*
X113952380Y-55619047D01*
X114000000Y-55523809D01*
X114047619Y-55476190D01*
X114142857Y-55428571D01*
X114285714Y-55428571D01*
X114380952Y-55476190D01*
X114428571Y-55523809D01*
X114476190Y-55619047D01*
X114476190Y-56000000D01*
X114952380Y-54476190D02*
X114952380Y-55047619D01*
X114952380Y-54761904D02*
X113952380Y-54761904D01*
X114095238Y-54857142D01*
X114190476Y-54952380D01*
X114238095Y-55047619D01*
X103952380Y-57476190D02*
X102952380Y-57476190D01*
X102952380Y-57095238D01*
X103000000Y-57000000D01*
X103047619Y-56952380D01*
X103142857Y-56904761D01*
X103285714Y-56904761D01*
X103380952Y-56952380D01*
X103428571Y-57000000D01*
X103476190Y-57095238D01*
X103476190Y-57476190D01*
X103952380Y-56476190D02*
X102952380Y-56476190D01*
X103952380Y-55428571D02*
X103476190Y-55761904D01*
X103952380Y-56000000D02*
X102952380Y-56000000D01*
X102952380Y-55619047D01*
X103000000Y-55523809D01*
X103047619Y-55476190D01*
X103142857Y-55428571D01*
X103285714Y-55428571D01*
X103380952Y-55476190D01*
X103428571Y-55523809D01*
X103476190Y-55619047D01*
X103476190Y-56000000D01*
X102952380Y-54809523D02*
X102952380Y-54714285D01*
X103000000Y-54619047D01*
X103047619Y-54571428D01*
X103142857Y-54523809D01*
X103333333Y-54476190D01*
X103571428Y-54476190D01*
X103761904Y-54523809D01*
X103857142Y-54571428D01*
X103904761Y-54619047D01*
X103952380Y-54714285D01*
X103952380Y-54809523D01*
X103904761Y-54904761D01*
X103857142Y-54952380D01*
X103761904Y-55000000D01*
X103571428Y-55047619D01*
X103333333Y-55047619D01*
X103142857Y-55000000D01*
X103047619Y-54952380D01*
X103000000Y-54904761D01*
X102952380Y-54809523D01*
X85357142Y-58142857D02*
X85404761Y-58190476D01*
X85452380Y-58333333D01*
X85452380Y-58428571D01*
X85404761Y-58571428D01*
X85309523Y-58666666D01*
X85214285Y-58714285D01*
X85023809Y-58761904D01*
X84880952Y-58761904D01*
X84690476Y-58714285D01*
X84595238Y-58666666D01*
X84500000Y-58571428D01*
X84452380Y-58428571D01*
X84452380Y-58333333D01*
X84500000Y-58190476D01*
X84547619Y-58142857D01*
X84452380Y-57523809D02*
X84452380Y-57333333D01*
X84500000Y-57238095D01*
X84595238Y-57142857D01*
X84785714Y-57095238D01*
X85119047Y-57095238D01*
X85309523Y-57142857D01*
X85404761Y-57238095D01*
X85452380Y-57333333D01*
X85452380Y-57523809D01*
X85404761Y-57619047D01*
X85309523Y-57714285D01*
X85119047Y-57761904D01*
X84785714Y-57761904D01*
X84595238Y-57714285D01*
X84500000Y-57619047D01*
X84452380Y-57523809D01*
X85452380Y-56666666D02*
X84452380Y-56666666D01*
X85452380Y-56095238D01*
X84452380Y-56095238D01*
X84452380Y-55761904D02*
X84452380Y-55190476D01*
X85452380Y-55476190D02*
X84452380Y-55476190D01*
X85452380Y-54285714D02*
X84976190Y-54619047D01*
X85452380Y-54857142D02*
X84452380Y-54857142D01*
X84452380Y-54476190D01*
X84500000Y-54380952D01*
X84547619Y-54333333D01*
X84642857Y-54285714D01*
X84785714Y-54285714D01*
X84880952Y-54333333D01*
X84928571Y-54380952D01*
X84976190Y-54476190D01*
X84976190Y-54857142D01*
X84452380Y-53666666D02*
X84452380Y-53476190D01*
X84500000Y-53380952D01*
X84595238Y-53285714D01*
X84785714Y-53238095D01*
X85119047Y-53238095D01*
X85309523Y-53285714D01*
X85404761Y-53380952D01*
X85452380Y-53476190D01*
X85452380Y-53666666D01*
X85404761Y-53761904D01*
X85309523Y-53857142D01*
X85119047Y-53904761D01*
X84785714Y-53904761D01*
X84595238Y-53857142D01*
X84500000Y-53761904D01*
X84452380Y-53666666D01*
X85452380Y-52333333D02*
X85452380Y-52809523D01*
X84452380Y-52809523D01*
X85547619Y-52238095D02*
X85547619Y-51476190D01*
X85166666Y-51285714D02*
X85166666Y-50809523D01*
X85452380Y-51380952D02*
X84452380Y-51047619D01*
X85452380Y-50714285D01*
X84452380Y-50380952D02*
X85261904Y-50380952D01*
X85357142Y-50333333D01*
X85404761Y-50285714D01*
X85452380Y-50190476D01*
X85452380Y-50000000D01*
X85404761Y-49904761D01*
X85357142Y-49857142D01*
X85261904Y-49809523D01*
X84452380Y-49809523D01*
X85452380Y-49333333D02*
X84452380Y-49333333D01*
X84452380Y-49095238D01*
X84500000Y-48952380D01*
X84595238Y-48857142D01*
X84690476Y-48809523D01*
X84880952Y-48761904D01*
X85023809Y-48761904D01*
X85214285Y-48809523D01*
X85309523Y-48857142D01*
X85404761Y-48952380D01*
X85452380Y-49095238D01*
X85452380Y-49333333D01*
X85452380Y-48333333D02*
X84452380Y-48333333D01*
X84452380Y-47666666D02*
X84452380Y-47476190D01*
X84500000Y-47380952D01*
X84595238Y-47285714D01*
X84785714Y-47238095D01*
X85119047Y-47238095D01*
X85309523Y-47285714D01*
X85404761Y-47380952D01*
X85452380Y-47476190D01*
X85452380Y-47666666D01*
X85404761Y-47761904D01*
X85309523Y-47857142D01*
X85119047Y-47904761D01*
X84785714Y-47904761D01*
X84595238Y-47857142D01*
X84500000Y-47761904D01*
X84452380Y-47666666D01*
X66857142Y-57142857D02*
X66904761Y-57190476D01*
X66952380Y-57333333D01*
X66952380Y-57428571D01*
X66904761Y-57571428D01*
X66809523Y-57666666D01*
X66714285Y-57714285D01*
X66523809Y-57761904D01*
X66380952Y-57761904D01*
X66190476Y-57714285D01*
X66095238Y-57666666D01*
X66000000Y-57571428D01*
X65952380Y-57428571D01*
X65952380Y-57333333D01*
X66000000Y-57190476D01*
X66047619Y-57142857D01*
X65952380Y-56523809D02*
X65952380Y-56333333D01*
X66000000Y-56238095D01*
X66095238Y-56142857D01*
X66285714Y-56095238D01*
X66619047Y-56095238D01*
X66809523Y-56142857D01*
X66904761Y-56238095D01*
X66952380Y-56333333D01*
X66952380Y-56523809D01*
X66904761Y-56619047D01*
X66809523Y-56714285D01*
X66619047Y-56761904D01*
X66285714Y-56761904D01*
X66095238Y-56714285D01*
X66000000Y-56619047D01*
X65952380Y-56523809D01*
X66952380Y-55666666D02*
X65952380Y-55666666D01*
X66952380Y-55095238D01*
X65952380Y-55095238D01*
X65952380Y-54761904D02*
X65952380Y-54190476D01*
X66952380Y-54476190D02*
X65952380Y-54476190D01*
X66952380Y-53285714D02*
X66476190Y-53619047D01*
X66952380Y-53857142D02*
X65952380Y-53857142D01*
X65952380Y-53476190D01*
X66000000Y-53380952D01*
X66047619Y-53333333D01*
X66142857Y-53285714D01*
X66285714Y-53285714D01*
X66380952Y-53333333D01*
X66428571Y-53380952D01*
X66476190Y-53476190D01*
X66476190Y-53857142D01*
X65952380Y-52666666D02*
X65952380Y-52476190D01*
X66000000Y-52380952D01*
X66095238Y-52285714D01*
X66285714Y-52238095D01*
X66619047Y-52238095D01*
X66809523Y-52285714D01*
X66904761Y-52380952D01*
X66952380Y-52476190D01*
X66952380Y-52666666D01*
X66904761Y-52761904D01*
X66809523Y-52857142D01*
X66619047Y-52904761D01*
X66285714Y-52904761D01*
X66095238Y-52857142D01*
X66000000Y-52761904D01*
X65952380Y-52666666D01*
X66952380Y-51333333D02*
X66952380Y-51809523D01*
X65952380Y-51809523D01*
X67047619Y-51238095D02*
X67047619Y-50476190D01*
X66904761Y-50285714D02*
X66952380Y-50142857D01*
X66952380Y-49904761D01*
X66904761Y-49809523D01*
X66857142Y-49761904D01*
X66761904Y-49714285D01*
X66666666Y-49714285D01*
X66571428Y-49761904D01*
X66523809Y-49809523D01*
X66476190Y-49904761D01*
X66428571Y-50095238D01*
X66380952Y-50190476D01*
X66333333Y-50238095D01*
X66238095Y-50285714D01*
X66142857Y-50285714D01*
X66047619Y-50238095D01*
X66000000Y-50190476D01*
X65952380Y-50095238D01*
X65952380Y-49857142D01*
X66000000Y-49714285D01*
X66952380Y-49285714D02*
X65952380Y-49285714D01*
X65952380Y-48904761D01*
X66000000Y-48809523D01*
X66047619Y-48761904D01*
X66142857Y-48714285D01*
X66285714Y-48714285D01*
X66380952Y-48761904D01*
X66428571Y-48809523D01*
X66476190Y-48904761D01*
X66476190Y-49285714D01*
X66952380Y-48285714D02*
X65952380Y-48285714D01*
X56357142Y-57285714D02*
X56404761Y-57333333D01*
X56452380Y-57476190D01*
X56452380Y-57571428D01*
X56404761Y-57714285D01*
X56309523Y-57809523D01*
X56214285Y-57857142D01*
X56023809Y-57904761D01*
X55880952Y-57904761D01*
X55690476Y-57857142D01*
X55595238Y-57809523D01*
X55500000Y-57714285D01*
X55452380Y-57571428D01*
X55452380Y-57476190D01*
X55500000Y-57333333D01*
X55547619Y-57285714D01*
X55452380Y-56666666D02*
X55452380Y-56476190D01*
X55500000Y-56380952D01*
X55595238Y-56285714D01*
X55785714Y-56238095D01*
X56119047Y-56238095D01*
X56309523Y-56285714D01*
X56404761Y-56380952D01*
X56452380Y-56476190D01*
X56452380Y-56666666D01*
X56404761Y-56761904D01*
X56309523Y-56857142D01*
X56119047Y-56904761D01*
X55785714Y-56904761D01*
X55595238Y-56857142D01*
X55500000Y-56761904D01*
X55452380Y-56666666D01*
X56452380Y-55809523D02*
X55452380Y-55809523D01*
X56452380Y-55238095D01*
X55452380Y-55238095D01*
X55452380Y-54904761D02*
X55452380Y-54333333D01*
X56452380Y-54619047D02*
X55452380Y-54619047D01*
X56452380Y-53428571D02*
X55976190Y-53761904D01*
X56452380Y-54000000D02*
X55452380Y-54000000D01*
X55452380Y-53619047D01*
X55500000Y-53523809D01*
X55547619Y-53476190D01*
X55642857Y-53428571D01*
X55785714Y-53428571D01*
X55880952Y-53476190D01*
X55928571Y-53523809D01*
X55976190Y-53619047D01*
X55976190Y-54000000D01*
X55452380Y-52809523D02*
X55452380Y-52619047D01*
X55500000Y-52523809D01*
X55595238Y-52428571D01*
X55785714Y-52380952D01*
X56119047Y-52380952D01*
X56309523Y-52428571D01*
X56404761Y-52523809D01*
X56452380Y-52619047D01*
X56452380Y-52809523D01*
X56404761Y-52904761D01*
X56309523Y-53000000D01*
X56119047Y-53047619D01*
X55785714Y-53047619D01*
X55595238Y-53000000D01*
X55500000Y-52904761D01*
X55452380Y-52809523D01*
X56452380Y-51476190D02*
X56452380Y-51952380D01*
X55452380Y-51952380D01*
X56547619Y-51380952D02*
X56547619Y-50619047D01*
X56452380Y-49904761D02*
X56452380Y-50380952D01*
X55452380Y-50380952D01*
X55928571Y-49571428D02*
X55928571Y-49238095D01*
X56452380Y-49095238D02*
X56452380Y-49571428D01*
X55452380Y-49571428D01*
X55452380Y-49095238D01*
X56452380Y-48666666D02*
X55452380Y-48666666D01*
X55452380Y-48428571D01*
X55500000Y-48285714D01*
X55595238Y-48190476D01*
X55690476Y-48142857D01*
X55880952Y-48095238D01*
X56023809Y-48095238D01*
X56214285Y-48142857D01*
X56309523Y-48190476D01*
X56404761Y-48285714D01*
X56452380Y-48428571D01*
X56452380Y-48666666D01*
X45952380Y-57619047D02*
X44952380Y-57619047D01*
X44952380Y-57238095D01*
X45000000Y-57142857D01*
X45047619Y-57095238D01*
X45142857Y-57047619D01*
X45285714Y-57047619D01*
X45380952Y-57095238D01*
X45428571Y-57142857D01*
X45476190Y-57238095D01*
X45476190Y-57619047D01*
X44952380Y-56428571D02*
X44952380Y-56238095D01*
X45000000Y-56142857D01*
X45095238Y-56047619D01*
X45285714Y-56000000D01*
X45619047Y-56000000D01*
X45809523Y-56047619D01*
X45904761Y-56142857D01*
X45952380Y-56238095D01*
X45952380Y-56428571D01*
X45904761Y-56523809D01*
X45809523Y-56619047D01*
X45619047Y-56666666D01*
X45285714Y-56666666D01*
X45095238Y-56619047D01*
X45000000Y-56523809D01*
X44952380Y-56428571D01*
X45952380Y-55571428D02*
X44952380Y-55571428D01*
X44952380Y-55333333D01*
X45000000Y-55190476D01*
X45095238Y-55095238D01*
X45190476Y-55047619D01*
X45380952Y-55000000D01*
X45523809Y-55000000D01*
X45714285Y-55047619D01*
X45809523Y-55095238D01*
X45904761Y-55190476D01*
X45952380Y-55333333D01*
X45952380Y-55571428D01*
X45952380Y-54571428D02*
X44952380Y-54571428D01*
X44952380Y-54095238D02*
X45761904Y-54095238D01*
X45857142Y-54047619D01*
X45904761Y-54000000D01*
X45952380Y-53904761D01*
X45952380Y-53714285D01*
X45904761Y-53619047D01*
X45857142Y-53571428D01*
X45761904Y-53523809D01*
X44952380Y-53523809D01*
X45952380Y-53047619D02*
X44952380Y-53047619D01*
X45666666Y-52714285D01*
X44952380Y-52380952D01*
X45952380Y-52380952D01*
D11*
X23333333Y-83904761D02*
X23333333Y-81904761D01*
X24095238Y-81904761D01*
X24285714Y-82000000D01*
X24380952Y-82095238D01*
X24476190Y-82285714D01*
X24476190Y-82571428D01*
X24380952Y-82761904D01*
X24285714Y-82857142D01*
X24095238Y-82952380D01*
X23333333Y-82952380D01*
X25142857Y-81904761D02*
X25619047Y-83904761D01*
X26000000Y-82476190D01*
X26380952Y-83904761D01*
X26857142Y-81904761D01*
X28761904Y-83904761D02*
X28095238Y-82952380D01*
X27619047Y-83904761D02*
X27619047Y-81904761D01*
X28380952Y-81904761D01*
X28571428Y-82000000D01*
X28666666Y-82095238D01*
X28761904Y-82285714D01*
X28761904Y-82571428D01*
X28666666Y-82761904D01*
X28571428Y-82857142D01*
X28380952Y-82952380D01*
X27619047Y-82952380D01*
X120523809Y-108904761D02*
X120523809Y-106904761D01*
X121285714Y-106904761D01*
X121476190Y-107000000D01*
X121571428Y-107095238D01*
X121666666Y-107285714D01*
X121666666Y-107571428D01*
X121571428Y-107761904D01*
X121476190Y-107857142D01*
X121285714Y-107952380D01*
X120523809Y-107952380D01*
X123476190Y-106904761D02*
X122523809Y-106904761D01*
X122428571Y-107857142D01*
X122523809Y-107761904D01*
X122714285Y-107666666D01*
X123190476Y-107666666D01*
X123380952Y-107761904D01*
X123476190Y-107857142D01*
X123571428Y-108047619D01*
X123571428Y-108523809D01*
X123476190Y-108714285D01*
X123380952Y-108809523D01*
X123190476Y-108904761D01*
X122714285Y-108904761D01*
X122523809Y-108809523D01*
X122428571Y-108714285D01*
X104523809Y-108904761D02*
X104523809Y-106904761D01*
X105285714Y-106904761D01*
X105476190Y-107000000D01*
X105571428Y-107095238D01*
X105666666Y-107285714D01*
X105666666Y-107571428D01*
X105571428Y-107761904D01*
X105476190Y-107857142D01*
X105285714Y-107952380D01*
X104523809Y-107952380D01*
X107380952Y-107571428D02*
X107380952Y-108904761D01*
X106904761Y-106809523D02*
X106428571Y-108238095D01*
X107666666Y-108238095D01*
X87523809Y-108904761D02*
X87523809Y-106904761D01*
X88285714Y-106904761D01*
X88476190Y-107000000D01*
X88571428Y-107095238D01*
X88666666Y-107285714D01*
X88666666Y-107571428D01*
X88571428Y-107761904D01*
X88476190Y-107857142D01*
X88285714Y-107952380D01*
X87523809Y-107952380D01*
X89333333Y-106904761D02*
X90571428Y-106904761D01*
X89904761Y-107666666D01*
X90190476Y-107666666D01*
X90380952Y-107761904D01*
X90476190Y-107857142D01*
X90571428Y-108047619D01*
X90571428Y-108523809D01*
X90476190Y-108714285D01*
X90380952Y-108809523D01*
X90190476Y-108904761D01*
X89619047Y-108904761D01*
X89428571Y-108809523D01*
X89333333Y-108714285D01*
X69523809Y-108904761D02*
X69523809Y-106904761D01*
X70285714Y-106904761D01*
X70476190Y-107000000D01*
X70571428Y-107095238D01*
X70666666Y-107285714D01*
X70666666Y-107571428D01*
X70571428Y-107761904D01*
X70476190Y-107857142D01*
X70285714Y-107952380D01*
X69523809Y-107952380D01*
X71428571Y-107095238D02*
X71523809Y-107000000D01*
X71714285Y-106904761D01*
X72190476Y-106904761D01*
X72380952Y-107000000D01*
X72476190Y-107095238D01*
X72571428Y-107285714D01*
X72571428Y-107476190D01*
X72476190Y-107761904D01*
X71333333Y-108904761D01*
X72571428Y-108904761D01*
X52523809Y-108904761D02*
X52523809Y-106904761D01*
X53285714Y-106904761D01*
X53476190Y-107000000D01*
X53571428Y-107095238D01*
X53666666Y-107285714D01*
X53666666Y-107571428D01*
X53571428Y-107761904D01*
X53476190Y-107857142D01*
X53285714Y-107952380D01*
X52523809Y-107952380D01*
X55571428Y-108904761D02*
X54428571Y-108904761D01*
X55000000Y-108904761D02*
X55000000Y-106904761D01*
X54809523Y-107190476D01*
X54619047Y-107380952D01*
X54428571Y-107476190D01*
X34523809Y-108904761D02*
X34523809Y-106904761D01*
X35285714Y-106904761D01*
X35476190Y-107000000D01*
X35571428Y-107095238D01*
X35666666Y-107285714D01*
X35666666Y-107571428D01*
X35571428Y-107761904D01*
X35476190Y-107857142D01*
X35285714Y-107952380D01*
X34523809Y-107952380D01*
X36904761Y-106904761D02*
X37095238Y-106904761D01*
X37285714Y-107000000D01*
X37380952Y-107095238D01*
X37476190Y-107285714D01*
X37571428Y-107666666D01*
X37571428Y-108142857D01*
X37476190Y-108523809D01*
X37380952Y-108714285D01*
X37285714Y-108809523D01*
X37095238Y-108904761D01*
X36904761Y-108904761D01*
X36714285Y-108809523D01*
X36619047Y-108714285D01*
X36523809Y-108523809D01*
X36428571Y-108142857D01*
X36428571Y-107666666D01*
X36523809Y-107285714D01*
X36619047Y-107095238D01*
X36714285Y-107000000D01*
X36904761Y-106904761D01*
X52842857Y-100209523D02*
X52652380Y-100304761D01*
X52271428Y-100304761D01*
X52080952Y-100209523D01*
X51985714Y-100114285D01*
X51890476Y-99923809D01*
X51890476Y-99352380D01*
X51985714Y-99161904D01*
X52080952Y-99066666D01*
X52271428Y-98971428D01*
X52652380Y-98971428D01*
X52842857Y-99066666D01*
X53985714Y-100304761D02*
X53795238Y-100209523D01*
X53700000Y-100114285D01*
X53604761Y-99923809D01*
X53604761Y-99352380D01*
X53700000Y-99161904D01*
X53795238Y-99066666D01*
X53985714Y-98971428D01*
X54271428Y-98971428D01*
X54461904Y-99066666D01*
X54557142Y-99161904D01*
X54652380Y-99352380D01*
X54652380Y-99923809D01*
X54557142Y-100114285D01*
X54461904Y-100209523D01*
X54271428Y-100304761D01*
X53985714Y-100304761D01*
X55795238Y-100304761D02*
X55604761Y-100209523D01*
X55509523Y-100019047D01*
X55509523Y-98304761D01*
X56842857Y-100304761D02*
X56652380Y-100209523D01*
X56557142Y-100114285D01*
X56461904Y-99923809D01*
X56461904Y-99352380D01*
X56557142Y-99161904D01*
X56652380Y-99066666D01*
X56842857Y-98971428D01*
X57128571Y-98971428D01*
X57319047Y-99066666D01*
X57414285Y-99161904D01*
X57509523Y-99352380D01*
X57509523Y-99923809D01*
X57414285Y-100114285D01*
X57319047Y-100209523D01*
X57128571Y-100304761D01*
X56842857Y-100304761D01*
X58366666Y-100304761D02*
X58366666Y-98971428D01*
X58366666Y-99352380D02*
X58461904Y-99161904D01*
X58557142Y-99066666D01*
X58747619Y-98971428D01*
X58938095Y-98971428D01*
X60461904Y-100304761D02*
X60461904Y-98304761D01*
X60461904Y-100209523D02*
X60271428Y-100304761D01*
X59890476Y-100304761D01*
X59700000Y-100209523D01*
X59604761Y-100114285D01*
X59509523Y-99923809D01*
X59509523Y-99352380D01*
X59604761Y-99161904D01*
X59700000Y-99066666D01*
X59890476Y-98971428D01*
X60271428Y-98971428D01*
X60461904Y-99066666D01*
X62271428Y-100304761D02*
X62271428Y-99257142D01*
X62176190Y-99066666D01*
X61985714Y-98971428D01*
X61604761Y-98971428D01*
X61414285Y-99066666D01*
X62271428Y-100209523D02*
X62080952Y-100304761D01*
X61604761Y-100304761D01*
X61414285Y-100209523D01*
X61319047Y-100019047D01*
X61319047Y-99828571D01*
X61414285Y-99638095D01*
X61604761Y-99542857D01*
X62080952Y-99542857D01*
X62271428Y-99447619D01*
X63223809Y-98971428D02*
X63223809Y-100304761D01*
X63223809Y-99161904D02*
X63319047Y-99066666D01*
X63509523Y-98971428D01*
X63795238Y-98971428D01*
X63985714Y-99066666D01*
X64080952Y-99257142D01*
X64080952Y-100304761D01*
X65890476Y-100209523D02*
X65700000Y-100304761D01*
X65319047Y-100304761D01*
X65128571Y-100209523D01*
X65033333Y-100114285D01*
X64938095Y-99923809D01*
X64938095Y-99352380D01*
X65033333Y-99161904D01*
X65128571Y-99066666D01*
X65319047Y-98971428D01*
X65700000Y-98971428D01*
X65890476Y-99066666D01*
X67509523Y-100209523D02*
X67319047Y-100304761D01*
X66938095Y-100304761D01*
X66747619Y-100209523D01*
X66652380Y-100019047D01*
X66652380Y-99257142D01*
X66747619Y-99066666D01*
X66938095Y-98971428D01*
X67319047Y-98971428D01*
X67509523Y-99066666D01*
X67604761Y-99257142D01*
X67604761Y-99447619D01*
X66652380Y-99638095D01*
X68461904Y-99542857D02*
X69985714Y-99542857D01*
X70938095Y-100304761D02*
X70938095Y-98304761D01*
X70938095Y-99066666D02*
X71128571Y-98971428D01*
X71509523Y-98971428D01*
X71700000Y-99066666D01*
X71795238Y-99161904D01*
X71890476Y-99352380D01*
X71890476Y-99923809D01*
X71795238Y-100114285D01*
X71700000Y-100209523D01*
X71509523Y-100304761D01*
X71128571Y-100304761D01*
X70938095Y-100209523D01*
X72747619Y-100304761D02*
X72747619Y-98971428D01*
X72747619Y-99352380D02*
X72842857Y-99161904D01*
X72938095Y-99066666D01*
X73128571Y-98971428D01*
X73319047Y-98971428D01*
X74842857Y-100304761D02*
X74842857Y-99257142D01*
X74747619Y-99066666D01*
X74557142Y-98971428D01*
X74176190Y-98971428D01*
X73985714Y-99066666D01*
X74842857Y-100209523D02*
X74652380Y-100304761D01*
X74176190Y-100304761D01*
X73985714Y-100209523D01*
X73890476Y-100019047D01*
X73890476Y-99828571D01*
X73985714Y-99638095D01*
X74176190Y-99542857D01*
X74652380Y-99542857D01*
X74842857Y-99447619D01*
X75795238Y-100304761D02*
X75795238Y-98971428D01*
X75795238Y-98304761D02*
X75700000Y-98400000D01*
X75795238Y-98495238D01*
X75890476Y-98400000D01*
X75795238Y-98304761D01*
X75795238Y-98495238D01*
X76747619Y-98971428D02*
X76747619Y-100304761D01*
X76747619Y-99161904D02*
X76842857Y-99066666D01*
X77033333Y-98971428D01*
X77319047Y-98971428D01*
X77509523Y-99066666D01*
X77604761Y-99257142D01*
X77604761Y-100304761D01*
X79890476Y-98971428D02*
X80366666Y-100304761D01*
X80842857Y-98971428D01*
X82652380Y-100304761D02*
X81509523Y-100304761D01*
X82080952Y-100304761D02*
X82080952Y-98304761D01*
X81890476Y-98590476D01*
X81700000Y-98780952D01*
X81509523Y-98876190D01*
X83509523Y-100114285D02*
X83604761Y-100209523D01*
X83509523Y-100304761D01*
X83414285Y-100209523D01*
X83509523Y-100114285D01*
X83509523Y-100304761D01*
X84842857Y-98304761D02*
X85033333Y-98304761D01*
X85223809Y-98400000D01*
X85319047Y-98495238D01*
X85414285Y-98685714D01*
X85509523Y-99066666D01*
X85509523Y-99542857D01*
X85414285Y-99923809D01*
X85319047Y-100114285D01*
X85223809Y-100209523D01*
X85033333Y-100304761D01*
X84842857Y-100304761D01*
X84652380Y-100209523D01*
X84557142Y-100114285D01*
X84461904Y-99923809D01*
X84366666Y-99542857D01*
X84366666Y-99066666D01*
X84461904Y-98685714D01*
X84557142Y-98495238D01*
X84652380Y-98400000D01*
X84842857Y-98304761D01*
D10*
%TO.C,U2*%
X81333026Y-75000000D02*
G75*
G03*
X81333026Y-75000000I-898026J0D01*
G01*
X100120000Y-81350000D02*
X100120000Y-68650000D01*
X87420000Y-81350000D02*
X100120000Y-81350000D01*
X87420000Y-68650000D02*
X87420000Y-81350000D01*
X100120000Y-68650000D02*
X87420000Y-68650000D01*
X82340000Y-76270000D02*
X78530000Y-76270000D01*
X82340000Y-73730000D02*
X82340000Y-76270000D01*
X78530000Y-73730000D02*
X82340000Y-73730000D01*
X78530000Y-76270000D02*
X78530000Y-73730000D01*
X63290000Y-69920000D02*
X62020000Y-69920000D01*
X63290000Y-80080000D02*
X63290000Y-69920000D01*
X62020000Y-80080000D02*
X63290000Y-80080000D01*
X74720000Y-68650000D02*
X62020000Y-68650000D01*
X74720000Y-81350000D02*
X74720000Y-68650000D01*
X62020000Y-81350000D02*
X74720000Y-81350000D01*
X122980000Y-71190000D02*
X124250000Y-71190000D01*
X124250000Y-71190000D02*
X124250000Y-78810000D01*
X124250000Y-78810000D02*
X122980000Y-78810000D01*
X117900000Y-71190000D02*
X117900000Y-78810000D01*
X117900000Y-78810000D02*
X122980000Y-78810000D01*
X117900000Y-71190000D02*
X122980000Y-71190000D01*
X122980000Y-83890000D02*
X62020000Y-83890000D01*
X62020000Y-83890000D02*
X62020000Y-66110000D01*
X62020000Y-66110000D02*
X122980000Y-66110000D01*
X122980000Y-66110000D02*
X122980000Y-83890000D01*
D12*
G36*
X90065000Y-74545000D02*
G01*
X90319000Y-74291000D01*
X90573000Y-74672000D01*
X90319000Y-74926000D01*
X90065000Y-74545000D01*
G37*
X90065000Y-74545000D02*
X90319000Y-74291000D01*
X90573000Y-74672000D01*
X90319000Y-74926000D01*
X90065000Y-74545000D01*
G36*
X90446000Y-75053000D02*
G01*
X90700000Y-74799000D01*
X90954000Y-75180000D01*
X90700000Y-75434000D01*
X90446000Y-75053000D01*
G37*
X90446000Y-75053000D02*
X90700000Y-74799000D01*
X90954000Y-75180000D01*
X90700000Y-75434000D01*
X90446000Y-75053000D01*
G36*
X90827000Y-75561000D02*
G01*
X91081000Y-75307000D01*
X91335000Y-75688000D01*
X91081000Y-75942000D01*
X90827000Y-75561000D01*
G37*
X90827000Y-75561000D02*
X91081000Y-75307000D01*
X91335000Y-75688000D01*
X91081000Y-75942000D01*
X90827000Y-75561000D01*
G36*
X90827000Y-74672000D02*
G01*
X91081000Y-74418000D01*
X91335000Y-74799000D01*
X91081000Y-75053000D01*
X90827000Y-74672000D01*
G37*
X90827000Y-74672000D02*
X91081000Y-74418000D01*
X91335000Y-74799000D01*
X91081000Y-75053000D01*
X90827000Y-74672000D01*
G36*
X91208000Y-75180000D02*
G01*
X91462000Y-74926000D01*
X91716000Y-75307000D01*
X91462000Y-75561000D01*
X91208000Y-75180000D01*
G37*
X91208000Y-75180000D02*
X91462000Y-74926000D01*
X91716000Y-75307000D01*
X91462000Y-75561000D01*
X91208000Y-75180000D01*
G36*
X91589000Y-75688000D02*
G01*
X91843000Y-75434000D01*
X92097000Y-75815000D01*
X91843000Y-76069000D01*
X91589000Y-75688000D01*
G37*
X91589000Y-75688000D02*
X91843000Y-75434000D01*
X92097000Y-75815000D01*
X91843000Y-76069000D01*
X91589000Y-75688000D01*
G36*
X89684000Y-74926000D02*
G01*
X89938000Y-74672000D01*
X90192000Y-75053000D01*
X89938000Y-75307000D01*
X89684000Y-74926000D01*
G37*
X89684000Y-74926000D02*
X89938000Y-74672000D01*
X90192000Y-75053000D01*
X89938000Y-75307000D01*
X89684000Y-74926000D01*
G36*
X89303000Y-75307000D02*
G01*
X89557000Y-75053000D01*
X89811000Y-75434000D01*
X89557000Y-75688000D01*
X89303000Y-75307000D01*
G37*
X89303000Y-75307000D02*
X89557000Y-75053000D01*
X89811000Y-75434000D01*
X89557000Y-75688000D01*
X89303000Y-75307000D01*
D10*
%TO.C,H4*%
X26000000Y-124000000D02*
G75*
G03*
X26000000Y-124000000I-5000000J0D01*
G01*
%TO.C,H3*%
X143500000Y-52500000D02*
G75*
G03*
X143500000Y-52500000I-5000000J0D01*
G01*
%TO.C,H2*%
X143500000Y-124000000D02*
G75*
G03*
X143500000Y-124000000I-5000000J0D01*
G01*
%TO.C,H1*%
X26000000Y-52500000D02*
G75*
G03*
X26000000Y-52500000I-5000000J0D01*
G01*
D13*
%TO.C,J14*%
X80820000Y-111161924D02*
X80820000Y-129121924D01*
X96340000Y-111161924D02*
X80820000Y-111161924D01*
X96340000Y-111161924D02*
X96340000Y-129121924D01*
X80820000Y-129121924D02*
X96340000Y-129121924D01*
X80635000Y-115041924D02*
X80135000Y-114541924D01*
X80135000Y-114541924D02*
X80135000Y-115541924D01*
X80135000Y-115541924D02*
X80635000Y-115041924D01*
%TO.C,J13*%
X63140000Y-111161924D02*
X63140000Y-129121924D01*
X78660000Y-111161924D02*
X63140000Y-111161924D01*
X78660000Y-111161924D02*
X78660000Y-129121924D01*
X63140000Y-129121924D02*
X78660000Y-129121924D01*
X62955000Y-115041924D02*
X62455000Y-114541924D01*
X62455000Y-114541924D02*
X62455000Y-115541924D01*
X62455000Y-115541924D02*
X62955000Y-115041924D01*
%TO.C,J12*%
X98150000Y-111151924D02*
X98150000Y-129111924D01*
X113670000Y-111151924D02*
X98150000Y-111151924D01*
X113670000Y-111151924D02*
X113670000Y-129111924D01*
X98150000Y-129111924D02*
X113670000Y-129111924D01*
X97965000Y-115031924D02*
X97465000Y-114531924D01*
X97465000Y-114531924D02*
X97465000Y-115531924D01*
X97465000Y-115531924D02*
X97965000Y-115031924D01*
%TO.C,J11*%
X115830000Y-111151924D02*
X115830000Y-129111924D01*
X131350000Y-111151924D02*
X115830000Y-111151924D01*
X131350000Y-111151924D02*
X131350000Y-129111924D01*
X115830000Y-129111924D02*
X131350000Y-129111924D01*
X115645000Y-115031924D02*
X115145000Y-114531924D01*
X115145000Y-114531924D02*
X115145000Y-115531924D01*
X115145000Y-115531924D02*
X115645000Y-115031924D01*
%TO.C,J10*%
X28090000Y-111151924D02*
X28090000Y-129111924D01*
X43610000Y-111151924D02*
X28090000Y-111151924D01*
X43610000Y-111151924D02*
X43610000Y-129111924D01*
X28090000Y-129111924D02*
X43610000Y-129111924D01*
X27905000Y-115031924D02*
X27405000Y-114531924D01*
X27405000Y-114531924D02*
X27405000Y-115531924D01*
X27405000Y-115531924D02*
X27905000Y-115031924D01*
%TO.C,J9*%
X45770000Y-111151924D02*
X45770000Y-129111924D01*
X61290000Y-111151924D02*
X45770000Y-111151924D01*
X61290000Y-111151924D02*
X61290000Y-129111924D01*
X45770000Y-129111924D02*
X61290000Y-129111924D01*
X45585000Y-115031924D02*
X45085000Y-114531924D01*
X45085000Y-114531924D02*
X45085000Y-115531924D01*
X45085000Y-115531924D02*
X45585000Y-115031924D01*
%TO.C,J8*%
X133730000Y-67730000D02*
X135000000Y-67730000D01*
X133730000Y-69000000D02*
X133730000Y-67730000D01*
X136042929Y-79540000D02*
X136440000Y-79540000D01*
X136042929Y-78780000D02*
X136440000Y-78780000D01*
X145100000Y-79540000D02*
X139100000Y-79540000D01*
X145100000Y-78780000D02*
X145100000Y-79540000D01*
X139100000Y-78780000D02*
X145100000Y-78780000D01*
X136440000Y-77890000D02*
X139100000Y-77890000D01*
X136042929Y-77000000D02*
X136440000Y-77000000D01*
X136042929Y-76240000D02*
X136440000Y-76240000D01*
X145100000Y-77000000D02*
X139100000Y-77000000D01*
X145100000Y-76240000D02*
X145100000Y-77000000D01*
X139100000Y-76240000D02*
X145100000Y-76240000D01*
X136440000Y-75350000D02*
X139100000Y-75350000D01*
X136042929Y-74460000D02*
X136440000Y-74460000D01*
X136042929Y-73700000D02*
X136440000Y-73700000D01*
X145100000Y-74460000D02*
X139100000Y-74460000D01*
X145100000Y-73700000D02*
X145100000Y-74460000D01*
X139100000Y-73700000D02*
X145100000Y-73700000D01*
X136440000Y-72810000D02*
X139100000Y-72810000D01*
X136042929Y-71920000D02*
X136440000Y-71920000D01*
X136042929Y-71160000D02*
X136440000Y-71160000D01*
X145100000Y-71920000D02*
X139100000Y-71920000D01*
X145100000Y-71160000D02*
X145100000Y-71920000D01*
X139100000Y-71160000D02*
X145100000Y-71160000D01*
X136440000Y-70270000D02*
X139100000Y-70270000D01*
X136110000Y-69380000D02*
X136440000Y-69380000D01*
X136110000Y-68620000D02*
X136440000Y-68620000D01*
X139100000Y-69280000D02*
X145100000Y-69280000D01*
X139100000Y-69160000D02*
X145100000Y-69160000D01*
X139100000Y-69040000D02*
X145100000Y-69040000D01*
X139100000Y-68920000D02*
X145100000Y-68920000D01*
X139100000Y-68800000D02*
X145100000Y-68800000D01*
X139100000Y-68680000D02*
X145100000Y-68680000D01*
X145100000Y-69380000D02*
X139100000Y-69380000D01*
X145100000Y-68620000D02*
X145100000Y-69380000D01*
X139100000Y-68620000D02*
X145100000Y-68620000D01*
X139100000Y-67670000D02*
X136440000Y-67670000D01*
X139100000Y-80490000D02*
X139100000Y-67670000D01*
X136440000Y-80490000D02*
X139100000Y-80490000D01*
X136440000Y-67670000D02*
X136440000Y-80490000D01*
%TO.C,J7*%
X86230000Y-57270000D02*
X86230000Y-56000000D01*
X87500000Y-57270000D02*
X86230000Y-57270000D01*
X100580000Y-54957071D02*
X100580000Y-54560000D01*
X99820000Y-54957071D02*
X99820000Y-54560000D01*
X100580000Y-45900000D02*
X100580000Y-51900000D01*
X99820000Y-45900000D02*
X100580000Y-45900000D01*
X99820000Y-51900000D02*
X99820000Y-45900000D01*
X98930000Y-54560000D02*
X98930000Y-51900000D01*
X98040000Y-54957071D02*
X98040000Y-54560000D01*
X97280000Y-54957071D02*
X97280000Y-54560000D01*
X98040000Y-45900000D02*
X98040000Y-51900000D01*
X97280000Y-45900000D02*
X98040000Y-45900000D01*
X97280000Y-51900000D02*
X97280000Y-45900000D01*
X96390000Y-54560000D02*
X96390000Y-51900000D01*
X95500000Y-54957071D02*
X95500000Y-54560000D01*
X94740000Y-54957071D02*
X94740000Y-54560000D01*
X95500000Y-45900000D02*
X95500000Y-51900000D01*
X94740000Y-45900000D02*
X95500000Y-45900000D01*
X94740000Y-51900000D02*
X94740000Y-45900000D01*
X93850000Y-54560000D02*
X93850000Y-51900000D01*
X92960000Y-54957071D02*
X92960000Y-54560000D01*
X92200000Y-54957071D02*
X92200000Y-54560000D01*
X92960000Y-45900000D02*
X92960000Y-51900000D01*
X92200000Y-45900000D02*
X92960000Y-45900000D01*
X92200000Y-51900000D02*
X92200000Y-45900000D01*
X91310000Y-54560000D02*
X91310000Y-51900000D01*
X90420000Y-54957071D02*
X90420000Y-54560000D01*
X89660000Y-54957071D02*
X89660000Y-54560000D01*
X90420000Y-45900000D02*
X90420000Y-51900000D01*
X89660000Y-45900000D02*
X90420000Y-45900000D01*
X89660000Y-51900000D02*
X89660000Y-45900000D01*
X88770000Y-54560000D02*
X88770000Y-51900000D01*
X87880000Y-54890000D02*
X87880000Y-54560000D01*
X87120000Y-54890000D02*
X87120000Y-54560000D01*
X87780000Y-51900000D02*
X87780000Y-45900000D01*
X87660000Y-51900000D02*
X87660000Y-45900000D01*
X87540000Y-51900000D02*
X87540000Y-45900000D01*
X87420000Y-51900000D02*
X87420000Y-45900000D01*
X87300000Y-51900000D02*
X87300000Y-45900000D01*
X87180000Y-51900000D02*
X87180000Y-45900000D01*
X87880000Y-45900000D02*
X87880000Y-51900000D01*
X87120000Y-45900000D02*
X87880000Y-45900000D01*
X87120000Y-51900000D02*
X87120000Y-45900000D01*
X86170000Y-51900000D02*
X86170000Y-54560000D01*
X101530000Y-51900000D02*
X86170000Y-51900000D01*
X101530000Y-54560000D02*
X101530000Y-51900000D01*
X86170000Y-54560000D02*
X101530000Y-54560000D01*
%TO.C,J6*%
X115730000Y-57270000D02*
X115730000Y-56000000D01*
X117000000Y-57270000D02*
X115730000Y-57270000D01*
X122460000Y-54957071D02*
X122460000Y-54560000D01*
X121700000Y-54957071D02*
X121700000Y-54560000D01*
X122460000Y-45900000D02*
X122460000Y-51900000D01*
X121700000Y-45900000D02*
X122460000Y-45900000D01*
X121700000Y-51900000D02*
X121700000Y-45900000D01*
X120810000Y-54560000D02*
X120810000Y-51900000D01*
X119920000Y-54957071D02*
X119920000Y-54560000D01*
X119160000Y-54957071D02*
X119160000Y-54560000D01*
X119920000Y-45900000D02*
X119920000Y-51900000D01*
X119160000Y-45900000D02*
X119920000Y-45900000D01*
X119160000Y-51900000D02*
X119160000Y-45900000D01*
X118270000Y-54560000D02*
X118270000Y-51900000D01*
X117380000Y-54890000D02*
X117380000Y-54560000D01*
X116620000Y-54890000D02*
X116620000Y-54560000D01*
X117280000Y-51900000D02*
X117280000Y-45900000D01*
X117160000Y-51900000D02*
X117160000Y-45900000D01*
X117040000Y-51900000D02*
X117040000Y-45900000D01*
X116920000Y-51900000D02*
X116920000Y-45900000D01*
X116800000Y-51900000D02*
X116800000Y-45900000D01*
X116680000Y-51900000D02*
X116680000Y-45900000D01*
X117380000Y-45900000D02*
X117380000Y-51900000D01*
X116620000Y-45900000D02*
X117380000Y-45900000D01*
X116620000Y-51900000D02*
X116620000Y-45900000D01*
X115670000Y-51900000D02*
X115670000Y-54560000D01*
X123410000Y-51900000D02*
X115670000Y-51900000D01*
X123410000Y-54560000D02*
X123410000Y-51900000D01*
X115670000Y-54560000D02*
X123410000Y-54560000D01*
%TO.C,J5*%
X57230000Y-57270000D02*
X57230000Y-56000000D01*
X58500000Y-57270000D02*
X57230000Y-57270000D01*
X63960000Y-54957071D02*
X63960000Y-54560000D01*
X63200000Y-54957071D02*
X63200000Y-54560000D01*
X63960000Y-45900000D02*
X63960000Y-51900000D01*
X63200000Y-45900000D02*
X63960000Y-45900000D01*
X63200000Y-51900000D02*
X63200000Y-45900000D01*
X62310000Y-54560000D02*
X62310000Y-51900000D01*
X61420000Y-54957071D02*
X61420000Y-54560000D01*
X60660000Y-54957071D02*
X60660000Y-54560000D01*
X61420000Y-45900000D02*
X61420000Y-51900000D01*
X60660000Y-45900000D02*
X61420000Y-45900000D01*
X60660000Y-51900000D02*
X60660000Y-45900000D01*
X59770000Y-54560000D02*
X59770000Y-51900000D01*
X58880000Y-54890000D02*
X58880000Y-54560000D01*
X58120000Y-54890000D02*
X58120000Y-54560000D01*
X58780000Y-51900000D02*
X58780000Y-45900000D01*
X58660000Y-51900000D02*
X58660000Y-45900000D01*
X58540000Y-51900000D02*
X58540000Y-45900000D01*
X58420000Y-51900000D02*
X58420000Y-45900000D01*
X58300000Y-51900000D02*
X58300000Y-45900000D01*
X58180000Y-51900000D02*
X58180000Y-45900000D01*
X58880000Y-45900000D02*
X58880000Y-51900000D01*
X58120000Y-45900000D02*
X58880000Y-45900000D01*
X58120000Y-51900000D02*
X58120000Y-45900000D01*
X57170000Y-51900000D02*
X57170000Y-54560000D01*
X64910000Y-51900000D02*
X57170000Y-51900000D01*
X64910000Y-54560000D02*
X64910000Y-51900000D01*
X57170000Y-54560000D02*
X64910000Y-54560000D01*
%TO.C,J4*%
X104730000Y-57270000D02*
X104730000Y-56000000D01*
X106000000Y-57270000D02*
X104730000Y-57270000D01*
X111460000Y-54957071D02*
X111460000Y-54560000D01*
X110700000Y-54957071D02*
X110700000Y-54560000D01*
X111460000Y-45900000D02*
X111460000Y-51900000D01*
X110700000Y-45900000D02*
X111460000Y-45900000D01*
X110700000Y-51900000D02*
X110700000Y-45900000D01*
X109810000Y-54560000D02*
X109810000Y-51900000D01*
X108920000Y-54957071D02*
X108920000Y-54560000D01*
X108160000Y-54957071D02*
X108160000Y-54560000D01*
X108920000Y-45900000D02*
X108920000Y-51900000D01*
X108160000Y-45900000D02*
X108920000Y-45900000D01*
X108160000Y-51900000D02*
X108160000Y-45900000D01*
X107270000Y-54560000D02*
X107270000Y-51900000D01*
X106380000Y-54890000D02*
X106380000Y-54560000D01*
X105620000Y-54890000D02*
X105620000Y-54560000D01*
X106280000Y-51900000D02*
X106280000Y-45900000D01*
X106160000Y-51900000D02*
X106160000Y-45900000D01*
X106040000Y-51900000D02*
X106040000Y-45900000D01*
X105920000Y-51900000D02*
X105920000Y-45900000D01*
X105800000Y-51900000D02*
X105800000Y-45900000D01*
X105680000Y-51900000D02*
X105680000Y-45900000D01*
X106380000Y-45900000D02*
X106380000Y-51900000D01*
X105620000Y-45900000D02*
X106380000Y-45900000D01*
X105620000Y-51900000D02*
X105620000Y-45900000D01*
X104670000Y-51900000D02*
X104670000Y-54560000D01*
X112410000Y-51900000D02*
X104670000Y-51900000D01*
X112410000Y-54560000D02*
X112410000Y-51900000D01*
X104670000Y-54560000D02*
X112410000Y-54560000D01*
%TO.C,J3*%
X46730000Y-57270000D02*
X46730000Y-56000000D01*
X48000000Y-57270000D02*
X46730000Y-57270000D01*
X53460000Y-54957071D02*
X53460000Y-54560000D01*
X52700000Y-54957071D02*
X52700000Y-54560000D01*
X53460000Y-45900000D02*
X53460000Y-51900000D01*
X52700000Y-45900000D02*
X53460000Y-45900000D01*
X52700000Y-51900000D02*
X52700000Y-45900000D01*
X51810000Y-54560000D02*
X51810000Y-51900000D01*
X50920000Y-54957071D02*
X50920000Y-54560000D01*
X50160000Y-54957071D02*
X50160000Y-54560000D01*
X50920000Y-45900000D02*
X50920000Y-51900000D01*
X50160000Y-45900000D02*
X50920000Y-45900000D01*
X50160000Y-51900000D02*
X50160000Y-45900000D01*
X49270000Y-54560000D02*
X49270000Y-51900000D01*
X48380000Y-54890000D02*
X48380000Y-54560000D01*
X47620000Y-54890000D02*
X47620000Y-54560000D01*
X48280000Y-51900000D02*
X48280000Y-45900000D01*
X48160000Y-51900000D02*
X48160000Y-45900000D01*
X48040000Y-51900000D02*
X48040000Y-45900000D01*
X47920000Y-51900000D02*
X47920000Y-45900000D01*
X47800000Y-51900000D02*
X47800000Y-45900000D01*
X47680000Y-51900000D02*
X47680000Y-45900000D01*
X48380000Y-45900000D02*
X48380000Y-51900000D01*
X47620000Y-45900000D02*
X48380000Y-45900000D01*
X47620000Y-51900000D02*
X47620000Y-45900000D01*
X46670000Y-51900000D02*
X46670000Y-54560000D01*
X54410000Y-51900000D02*
X46670000Y-51900000D01*
X54410000Y-54560000D02*
X54410000Y-51900000D01*
X46670000Y-54560000D02*
X54410000Y-54560000D01*
%TO.C,J2*%
X67730000Y-57270000D02*
X67730000Y-56000000D01*
X69000000Y-57270000D02*
X67730000Y-57270000D01*
X82080000Y-54957071D02*
X82080000Y-54560000D01*
X81320000Y-54957071D02*
X81320000Y-54560000D01*
X82080000Y-45900000D02*
X82080000Y-51900000D01*
X81320000Y-45900000D02*
X82080000Y-45900000D01*
X81320000Y-51900000D02*
X81320000Y-45900000D01*
X80430000Y-54560000D02*
X80430000Y-51900000D01*
X79540000Y-54957071D02*
X79540000Y-54560000D01*
X78780000Y-54957071D02*
X78780000Y-54560000D01*
X79540000Y-45900000D02*
X79540000Y-51900000D01*
X78780000Y-45900000D02*
X79540000Y-45900000D01*
X78780000Y-51900000D02*
X78780000Y-45900000D01*
X77890000Y-54560000D02*
X77890000Y-51900000D01*
X77000000Y-54957071D02*
X77000000Y-54560000D01*
X76240000Y-54957071D02*
X76240000Y-54560000D01*
X77000000Y-45900000D02*
X77000000Y-51900000D01*
X76240000Y-45900000D02*
X77000000Y-45900000D01*
X76240000Y-51900000D02*
X76240000Y-45900000D01*
X75350000Y-54560000D02*
X75350000Y-51900000D01*
X74460000Y-54957071D02*
X74460000Y-54560000D01*
X73700000Y-54957071D02*
X73700000Y-54560000D01*
X74460000Y-45900000D02*
X74460000Y-51900000D01*
X73700000Y-45900000D02*
X74460000Y-45900000D01*
X73700000Y-51900000D02*
X73700000Y-45900000D01*
X72810000Y-54560000D02*
X72810000Y-51900000D01*
X71920000Y-54957071D02*
X71920000Y-54560000D01*
X71160000Y-54957071D02*
X71160000Y-54560000D01*
X71920000Y-45900000D02*
X71920000Y-51900000D01*
X71160000Y-45900000D02*
X71920000Y-45900000D01*
X71160000Y-51900000D02*
X71160000Y-45900000D01*
X70270000Y-54560000D02*
X70270000Y-51900000D01*
X69380000Y-54890000D02*
X69380000Y-54560000D01*
X68620000Y-54890000D02*
X68620000Y-54560000D01*
X69280000Y-51900000D02*
X69280000Y-45900000D01*
X69160000Y-51900000D02*
X69160000Y-45900000D01*
X69040000Y-51900000D02*
X69040000Y-45900000D01*
X68920000Y-51900000D02*
X68920000Y-45900000D01*
X68800000Y-51900000D02*
X68800000Y-45900000D01*
X68680000Y-51900000D02*
X68680000Y-45900000D01*
X69380000Y-45900000D02*
X69380000Y-51900000D01*
X68620000Y-45900000D02*
X69380000Y-45900000D01*
X68620000Y-51900000D02*
X68620000Y-45900000D01*
X67670000Y-51900000D02*
X67670000Y-54560000D01*
X83030000Y-51900000D02*
X67670000Y-51900000D01*
X83030000Y-54560000D02*
X83030000Y-51900000D01*
X67670000Y-54560000D02*
X83030000Y-54560000D01*
D10*
%TO.C,J1*%
X29250000Y-47750000D02*
X41750000Y-47750000D01*
X27800000Y-37900000D02*
X43200000Y-37900000D01*
X27800000Y-37750000D02*
X27800000Y-46750000D01*
X27800000Y-61000000D02*
X43200000Y-61000000D01*
X43200000Y-61000000D02*
X43200000Y-48750000D01*
X35500000Y-38000000D02*
X35500000Y-61000000D01*
X27800000Y-48750000D02*
X27800000Y-61000000D01*
X43200000Y-46750000D02*
X43200000Y-37750000D01*
X27800000Y-61000000D02*
X27800000Y-67750000D01*
X27800000Y-67750000D02*
X43200000Y-67750000D01*
X43200000Y-67750000D02*
X43200000Y-61000000D01*
D13*
%TO.C,D1*%
X27885000Y-85165000D02*
X25600000Y-85165000D01*
X27885000Y-86635000D02*
X27885000Y-85165000D01*
X25600000Y-86635000D02*
X27885000Y-86635000D01*
%TO.C,C14*%
X25979646Y-94275000D02*
X25979646Y-93275000D01*
X26479646Y-93775000D02*
X25479646Y-93775000D01*
X15919000Y-91499000D02*
X15919000Y-90301000D01*
X15959000Y-91762000D02*
X15959000Y-90038000D01*
X15999000Y-91962000D02*
X15999000Y-89838000D01*
X16039000Y-92130000D02*
X16039000Y-89670000D01*
X16079000Y-92278000D02*
X16079000Y-89522000D01*
X16119000Y-92410000D02*
X16119000Y-89390000D01*
X16159000Y-92530000D02*
X16159000Y-89270000D01*
X16199000Y-92642000D02*
X16199000Y-89158000D01*
X16239000Y-92746000D02*
X16239000Y-89054000D01*
X16279000Y-92844000D02*
X16279000Y-88956000D01*
X16319000Y-92937000D02*
X16319000Y-88863000D01*
X16359000Y-93025000D02*
X16359000Y-88775000D01*
X16399000Y-93109000D02*
X16399000Y-88691000D01*
X16439000Y-93189000D02*
X16439000Y-88611000D01*
X16479000Y-93265000D02*
X16479000Y-88535000D01*
X16519000Y-93339000D02*
X16519000Y-88461000D01*
X16559000Y-93410000D02*
X16559000Y-88390000D01*
X16599000Y-93479000D02*
X16599000Y-88321000D01*
X16639000Y-93545000D02*
X16639000Y-88255000D01*
X16679000Y-93609000D02*
X16679000Y-88191000D01*
X16719000Y-93670000D02*
X16719000Y-88130000D01*
X16759000Y-93730000D02*
X16759000Y-88070000D01*
X16799000Y-93789000D02*
X16799000Y-88011000D01*
X16839000Y-93845000D02*
X16839000Y-87955000D01*
X16879000Y-93900000D02*
X16879000Y-87900000D01*
X16919000Y-93954000D02*
X16919000Y-87846000D01*
X16959000Y-94006000D02*
X16959000Y-87794000D01*
X16999000Y-94056000D02*
X16999000Y-87744000D01*
X17039000Y-94106000D02*
X17039000Y-87694000D01*
X17079000Y-94154000D02*
X17079000Y-87646000D01*
X17119000Y-94201000D02*
X17119000Y-87599000D01*
X17159000Y-94247000D02*
X17159000Y-87553000D01*
X17199000Y-94292000D02*
X17199000Y-87508000D01*
X17239000Y-94336000D02*
X17239000Y-87464000D01*
X17279000Y-89659000D02*
X17279000Y-87422000D01*
X17279000Y-94378000D02*
X17279000Y-92141000D01*
X17319000Y-89659000D02*
X17319000Y-87380000D01*
X17319000Y-94420000D02*
X17319000Y-92141000D01*
X17359000Y-89659000D02*
X17359000Y-87339000D01*
X17359000Y-94461000D02*
X17359000Y-92141000D01*
X17399000Y-89659000D02*
X17399000Y-87299000D01*
X17399000Y-94501000D02*
X17399000Y-92141000D01*
X17439000Y-89659000D02*
X17439000Y-87260000D01*
X17439000Y-94540000D02*
X17439000Y-92141000D01*
X17479000Y-89659000D02*
X17479000Y-87221000D01*
X17479000Y-94579000D02*
X17479000Y-92141000D01*
X17519000Y-89659000D02*
X17519000Y-87184000D01*
X17519000Y-94616000D02*
X17519000Y-92141000D01*
X17559000Y-89659000D02*
X17559000Y-87147000D01*
X17559000Y-94653000D02*
X17559000Y-92141000D01*
X17599000Y-89659000D02*
X17599000Y-87111000D01*
X17599000Y-94689000D02*
X17599000Y-92141000D01*
X17639000Y-89659000D02*
X17639000Y-87076000D01*
X17639000Y-94724000D02*
X17639000Y-92141000D01*
X17679000Y-89659000D02*
X17679000Y-87042000D01*
X17679000Y-94758000D02*
X17679000Y-92141000D01*
X17719000Y-89659000D02*
X17719000Y-87008000D01*
X17719000Y-94792000D02*
X17719000Y-92141000D01*
X17759000Y-89659000D02*
X17759000Y-86975000D01*
X17759000Y-94825000D02*
X17759000Y-92141000D01*
X17799000Y-89659000D02*
X17799000Y-86943000D01*
X17799000Y-94857000D02*
X17799000Y-92141000D01*
X17839000Y-89659000D02*
X17839000Y-86911000D01*
X17839000Y-94889000D02*
X17839000Y-92141000D01*
X17879000Y-89659000D02*
X17879000Y-86880000D01*
X17879000Y-94920000D02*
X17879000Y-92141000D01*
X17919000Y-89659000D02*
X17919000Y-86850000D01*
X17919000Y-94950000D02*
X17919000Y-92141000D01*
X17959000Y-89659000D02*
X17959000Y-86820000D01*
X17959000Y-94980000D02*
X17959000Y-92141000D01*
X17999000Y-89659000D02*
X17999000Y-86790000D01*
X17999000Y-95010000D02*
X17999000Y-92141000D01*
X18039000Y-89659000D02*
X18039000Y-86762000D01*
X18039000Y-95038000D02*
X18039000Y-92141000D01*
X18079000Y-89659000D02*
X18079000Y-86734000D01*
X18079000Y-95066000D02*
X18079000Y-92141000D01*
X18119000Y-89659000D02*
X18119000Y-86706000D01*
X18119000Y-95094000D02*
X18119000Y-92141000D01*
X18159000Y-89659000D02*
X18159000Y-86679000D01*
X18159000Y-95121000D02*
X18159000Y-92141000D01*
X18199000Y-89659000D02*
X18199000Y-86653000D01*
X18199000Y-95147000D02*
X18199000Y-92141000D01*
X18239000Y-89659000D02*
X18239000Y-86627000D01*
X18239000Y-95173000D02*
X18239000Y-92141000D01*
X18279000Y-89659000D02*
X18279000Y-86602000D01*
X18279000Y-95198000D02*
X18279000Y-92141000D01*
X18319000Y-89659000D02*
X18319000Y-86577000D01*
X18319000Y-95223000D02*
X18319000Y-92141000D01*
X18359000Y-89659000D02*
X18359000Y-86553000D01*
X18359000Y-95247000D02*
X18359000Y-92141000D01*
X18399000Y-89659000D02*
X18399000Y-86529000D01*
X18399000Y-95271000D02*
X18399000Y-92141000D01*
X18439000Y-89659000D02*
X18439000Y-86505000D01*
X18439000Y-95295000D02*
X18439000Y-92141000D01*
X18479000Y-89659000D02*
X18479000Y-86483000D01*
X18479000Y-95317000D02*
X18479000Y-92141000D01*
X18519000Y-89659000D02*
X18519000Y-86460000D01*
X18519000Y-95340000D02*
X18519000Y-92141000D01*
X18559000Y-89659000D02*
X18559000Y-86438000D01*
X18559000Y-95362000D02*
X18559000Y-92141000D01*
X18599000Y-89659000D02*
X18599000Y-86417000D01*
X18599000Y-95383000D02*
X18599000Y-92141000D01*
X18639000Y-89659000D02*
X18639000Y-86396000D01*
X18639000Y-95404000D02*
X18639000Y-92141000D01*
X18679000Y-89659000D02*
X18679000Y-86375000D01*
X18679000Y-95425000D02*
X18679000Y-92141000D01*
X18719000Y-89659000D02*
X18719000Y-86355000D01*
X18719000Y-95445000D02*
X18719000Y-92141000D01*
X18759000Y-89659000D02*
X18759000Y-86336000D01*
X18759000Y-95464000D02*
X18759000Y-92141000D01*
X18799000Y-89659000D02*
X18799000Y-86316000D01*
X18799000Y-95484000D02*
X18799000Y-92141000D01*
X18839000Y-89659000D02*
X18839000Y-86297000D01*
X18839000Y-95503000D02*
X18839000Y-92141000D01*
X18879000Y-89659000D02*
X18879000Y-86279000D01*
X18879000Y-95521000D02*
X18879000Y-92141000D01*
X18919000Y-89659000D02*
X18919000Y-86261000D01*
X18919000Y-95539000D02*
X18919000Y-92141000D01*
X18959000Y-89659000D02*
X18959000Y-86243000D01*
X18959000Y-95557000D02*
X18959000Y-92141000D01*
X18999000Y-89659000D02*
X18999000Y-86226000D01*
X18999000Y-95574000D02*
X18999000Y-92141000D01*
X19039000Y-89659000D02*
X19039000Y-86210000D01*
X19039000Y-95590000D02*
X19039000Y-92141000D01*
X19079000Y-89659000D02*
X19079000Y-86193000D01*
X19079000Y-95607000D02*
X19079000Y-92141000D01*
X19119000Y-89659000D02*
X19119000Y-86177000D01*
X19119000Y-95623000D02*
X19119000Y-92141000D01*
X19159000Y-89659000D02*
X19159000Y-86162000D01*
X19159000Y-95638000D02*
X19159000Y-92141000D01*
X19199000Y-89659000D02*
X19199000Y-86146000D01*
X19199000Y-95654000D02*
X19199000Y-92141000D01*
X19239000Y-89659000D02*
X19239000Y-86132000D01*
X19239000Y-95668000D02*
X19239000Y-92141000D01*
X19279000Y-89659000D02*
X19279000Y-86117000D01*
X19279000Y-95683000D02*
X19279000Y-92141000D01*
X19319000Y-89659000D02*
X19319000Y-86103000D01*
X19319000Y-95697000D02*
X19319000Y-92141000D01*
X19359000Y-89659000D02*
X19359000Y-86089000D01*
X19359000Y-95711000D02*
X19359000Y-92141000D01*
X19399000Y-89659000D02*
X19399000Y-86076000D01*
X19399000Y-95724000D02*
X19399000Y-92141000D01*
X19439000Y-89659000D02*
X19439000Y-86063000D01*
X19439000Y-95737000D02*
X19439000Y-92141000D01*
X19479000Y-89659000D02*
X19479000Y-86050000D01*
X19479000Y-95750000D02*
X19479000Y-92141000D01*
X19519000Y-89659000D02*
X19519000Y-86038000D01*
X19519000Y-95762000D02*
X19519000Y-92141000D01*
X19559000Y-89659000D02*
X19559000Y-86026000D01*
X19559000Y-95774000D02*
X19559000Y-92141000D01*
X19599000Y-89659000D02*
X19599000Y-86015000D01*
X19599000Y-95785000D02*
X19599000Y-92141000D01*
X19639000Y-89659000D02*
X19639000Y-86003000D01*
X19639000Y-95797000D02*
X19639000Y-92141000D01*
X19679000Y-89659000D02*
X19679000Y-85993000D01*
X19679000Y-95807000D02*
X19679000Y-92141000D01*
X19719000Y-89659000D02*
X19719000Y-85982000D01*
X19719000Y-95818000D02*
X19719000Y-92141000D01*
X19759000Y-95828000D02*
X19759000Y-85972000D01*
X19799000Y-95838000D02*
X19799000Y-85962000D01*
X19839000Y-95847000D02*
X19839000Y-85953000D01*
X19879000Y-95856000D02*
X19879000Y-85944000D01*
X19919000Y-95865000D02*
X19919000Y-85935000D01*
X19959000Y-95874000D02*
X19959000Y-85926000D01*
X19999000Y-95882000D02*
X19999000Y-85918000D01*
X20039000Y-95890000D02*
X20039000Y-85910000D01*
X20079000Y-95897000D02*
X20079000Y-85903000D01*
X20119000Y-95904000D02*
X20119000Y-85896000D01*
X20159000Y-95911000D02*
X20159000Y-85889000D01*
X20199000Y-95918000D02*
X20199000Y-85882000D01*
X20239000Y-95924000D02*
X20239000Y-85876000D01*
X20279000Y-95930000D02*
X20279000Y-85870000D01*
X20320000Y-95935000D02*
X20320000Y-85865000D01*
X20360000Y-95940000D02*
X20360000Y-85860000D01*
X20400000Y-95945000D02*
X20400000Y-85855000D01*
X20440000Y-95950000D02*
X20440000Y-85850000D01*
X20480000Y-95954000D02*
X20480000Y-85846000D01*
X20520000Y-95958000D02*
X20520000Y-85842000D01*
X20560000Y-95962000D02*
X20560000Y-85838000D01*
X20600000Y-95965000D02*
X20600000Y-85835000D01*
X20640000Y-95968000D02*
X20640000Y-85832000D01*
X20680000Y-95970000D02*
X20680000Y-85830000D01*
X20720000Y-95973000D02*
X20720000Y-85827000D01*
X20760000Y-95975000D02*
X20760000Y-85825000D01*
X20800000Y-95977000D02*
X20800000Y-85823000D01*
X20840000Y-95978000D02*
X20840000Y-85822000D01*
X20880000Y-95979000D02*
X20880000Y-85821000D01*
X20920000Y-95980000D02*
X20920000Y-85820000D01*
X20960000Y-95980000D02*
X20960000Y-85820000D01*
X21000000Y-95980000D02*
X21000000Y-85820000D01*
X26120000Y-90900000D02*
G75*
G03*
X26120000Y-90900000I-5120000J0D01*
G01*
%TO.C,C1*%
X17625000Y-69479646D02*
X18625000Y-69479646D01*
X18125000Y-69979646D02*
X18125000Y-68979646D01*
X20401000Y-59419000D02*
X21599000Y-59419000D01*
X20138000Y-59459000D02*
X21862000Y-59459000D01*
X19938000Y-59499000D02*
X22062000Y-59499000D01*
X19770000Y-59539000D02*
X22230000Y-59539000D01*
X19622000Y-59579000D02*
X22378000Y-59579000D01*
X19490000Y-59619000D02*
X22510000Y-59619000D01*
X19370000Y-59659000D02*
X22630000Y-59659000D01*
X19258000Y-59699000D02*
X22742000Y-59699000D01*
X19154000Y-59739000D02*
X22846000Y-59739000D01*
X19056000Y-59779000D02*
X22944000Y-59779000D01*
X18963000Y-59819000D02*
X23037000Y-59819000D01*
X18875000Y-59859000D02*
X23125000Y-59859000D01*
X18791000Y-59899000D02*
X23209000Y-59899000D01*
X18711000Y-59939000D02*
X23289000Y-59939000D01*
X18635000Y-59979000D02*
X23365000Y-59979000D01*
X18561000Y-60019000D02*
X23439000Y-60019000D01*
X18490000Y-60059000D02*
X23510000Y-60059000D01*
X18421000Y-60099000D02*
X23579000Y-60099000D01*
X18355000Y-60139000D02*
X23645000Y-60139000D01*
X18291000Y-60179000D02*
X23709000Y-60179000D01*
X18230000Y-60219000D02*
X23770000Y-60219000D01*
X18170000Y-60259000D02*
X23830000Y-60259000D01*
X18111000Y-60299000D02*
X23889000Y-60299000D01*
X18055000Y-60339000D02*
X23945000Y-60339000D01*
X18000000Y-60379000D02*
X24000000Y-60379000D01*
X17946000Y-60419000D02*
X24054000Y-60419000D01*
X17894000Y-60459000D02*
X24106000Y-60459000D01*
X17844000Y-60499000D02*
X24156000Y-60499000D01*
X17794000Y-60539000D02*
X24206000Y-60539000D01*
X17746000Y-60579000D02*
X24254000Y-60579000D01*
X17699000Y-60619000D02*
X24301000Y-60619000D01*
X17653000Y-60659000D02*
X24347000Y-60659000D01*
X17608000Y-60699000D02*
X24392000Y-60699000D01*
X17564000Y-60739000D02*
X24436000Y-60739000D01*
X22241000Y-60779000D02*
X24478000Y-60779000D01*
X17522000Y-60779000D02*
X19759000Y-60779000D01*
X22241000Y-60819000D02*
X24520000Y-60819000D01*
X17480000Y-60819000D02*
X19759000Y-60819000D01*
X22241000Y-60859000D02*
X24561000Y-60859000D01*
X17439000Y-60859000D02*
X19759000Y-60859000D01*
X22241000Y-60899000D02*
X24601000Y-60899000D01*
X17399000Y-60899000D02*
X19759000Y-60899000D01*
X22241000Y-60939000D02*
X24640000Y-60939000D01*
X17360000Y-60939000D02*
X19759000Y-60939000D01*
X22241000Y-60979000D02*
X24679000Y-60979000D01*
X17321000Y-60979000D02*
X19759000Y-60979000D01*
X22241000Y-61019000D02*
X24716000Y-61019000D01*
X17284000Y-61019000D02*
X19759000Y-61019000D01*
X22241000Y-61059000D02*
X24753000Y-61059000D01*
X17247000Y-61059000D02*
X19759000Y-61059000D01*
X22241000Y-61099000D02*
X24789000Y-61099000D01*
X17211000Y-61099000D02*
X19759000Y-61099000D01*
X22241000Y-61139000D02*
X24824000Y-61139000D01*
X17176000Y-61139000D02*
X19759000Y-61139000D01*
X22241000Y-61179000D02*
X24858000Y-61179000D01*
X17142000Y-61179000D02*
X19759000Y-61179000D01*
X22241000Y-61219000D02*
X24892000Y-61219000D01*
X17108000Y-61219000D02*
X19759000Y-61219000D01*
X22241000Y-61259000D02*
X24925000Y-61259000D01*
X17075000Y-61259000D02*
X19759000Y-61259000D01*
X22241000Y-61299000D02*
X24957000Y-61299000D01*
X17043000Y-61299000D02*
X19759000Y-61299000D01*
X22241000Y-61339000D02*
X24989000Y-61339000D01*
X17011000Y-61339000D02*
X19759000Y-61339000D01*
X22241000Y-61379000D02*
X25020000Y-61379000D01*
X16980000Y-61379000D02*
X19759000Y-61379000D01*
X22241000Y-61419000D02*
X25050000Y-61419000D01*
X16950000Y-61419000D02*
X19759000Y-61419000D01*
X22241000Y-61459000D02*
X25080000Y-61459000D01*
X16920000Y-61459000D02*
X19759000Y-61459000D01*
X22241000Y-61499000D02*
X25110000Y-61499000D01*
X16890000Y-61499000D02*
X19759000Y-61499000D01*
X22241000Y-61539000D02*
X25138000Y-61539000D01*
X16862000Y-61539000D02*
X19759000Y-61539000D01*
X22241000Y-61579000D02*
X25166000Y-61579000D01*
X16834000Y-61579000D02*
X19759000Y-61579000D01*
X22241000Y-61619000D02*
X25194000Y-61619000D01*
X16806000Y-61619000D02*
X19759000Y-61619000D01*
X22241000Y-61659000D02*
X25221000Y-61659000D01*
X16779000Y-61659000D02*
X19759000Y-61659000D01*
X22241000Y-61699000D02*
X25247000Y-61699000D01*
X16753000Y-61699000D02*
X19759000Y-61699000D01*
X22241000Y-61739000D02*
X25273000Y-61739000D01*
X16727000Y-61739000D02*
X19759000Y-61739000D01*
X22241000Y-61779000D02*
X25298000Y-61779000D01*
X16702000Y-61779000D02*
X19759000Y-61779000D01*
X22241000Y-61819000D02*
X25323000Y-61819000D01*
X16677000Y-61819000D02*
X19759000Y-61819000D01*
X22241000Y-61859000D02*
X25347000Y-61859000D01*
X16653000Y-61859000D02*
X19759000Y-61859000D01*
X22241000Y-61899000D02*
X25371000Y-61899000D01*
X16629000Y-61899000D02*
X19759000Y-61899000D01*
X22241000Y-61939000D02*
X25395000Y-61939000D01*
X16605000Y-61939000D02*
X19759000Y-61939000D01*
X22241000Y-61979000D02*
X25417000Y-61979000D01*
X16583000Y-61979000D02*
X19759000Y-61979000D01*
X22241000Y-62019000D02*
X25440000Y-62019000D01*
X16560000Y-62019000D02*
X19759000Y-62019000D01*
X22241000Y-62059000D02*
X25462000Y-62059000D01*
X16538000Y-62059000D02*
X19759000Y-62059000D01*
X22241000Y-62099000D02*
X25483000Y-62099000D01*
X16517000Y-62099000D02*
X19759000Y-62099000D01*
X22241000Y-62139000D02*
X25504000Y-62139000D01*
X16496000Y-62139000D02*
X19759000Y-62139000D01*
X22241000Y-62179000D02*
X25525000Y-62179000D01*
X16475000Y-62179000D02*
X19759000Y-62179000D01*
X22241000Y-62219000D02*
X25545000Y-62219000D01*
X16455000Y-62219000D02*
X19759000Y-62219000D01*
X22241000Y-62259000D02*
X25564000Y-62259000D01*
X16436000Y-62259000D02*
X19759000Y-62259000D01*
X22241000Y-62299000D02*
X25584000Y-62299000D01*
X16416000Y-62299000D02*
X19759000Y-62299000D01*
X22241000Y-62339000D02*
X25603000Y-62339000D01*
X16397000Y-62339000D02*
X19759000Y-62339000D01*
X22241000Y-62379000D02*
X25621000Y-62379000D01*
X16379000Y-62379000D02*
X19759000Y-62379000D01*
X22241000Y-62419000D02*
X25639000Y-62419000D01*
X16361000Y-62419000D02*
X19759000Y-62419000D01*
X22241000Y-62459000D02*
X25657000Y-62459000D01*
X16343000Y-62459000D02*
X19759000Y-62459000D01*
X22241000Y-62499000D02*
X25674000Y-62499000D01*
X16326000Y-62499000D02*
X19759000Y-62499000D01*
X22241000Y-62539000D02*
X25690000Y-62539000D01*
X16310000Y-62539000D02*
X19759000Y-62539000D01*
X22241000Y-62579000D02*
X25707000Y-62579000D01*
X16293000Y-62579000D02*
X19759000Y-62579000D01*
X22241000Y-62619000D02*
X25723000Y-62619000D01*
X16277000Y-62619000D02*
X19759000Y-62619000D01*
X22241000Y-62659000D02*
X25738000Y-62659000D01*
X16262000Y-62659000D02*
X19759000Y-62659000D01*
X22241000Y-62699000D02*
X25754000Y-62699000D01*
X16246000Y-62699000D02*
X19759000Y-62699000D01*
X22241000Y-62739000D02*
X25768000Y-62739000D01*
X16232000Y-62739000D02*
X19759000Y-62739000D01*
X22241000Y-62779000D02*
X25783000Y-62779000D01*
X16217000Y-62779000D02*
X19759000Y-62779000D01*
X22241000Y-62819000D02*
X25797000Y-62819000D01*
X16203000Y-62819000D02*
X19759000Y-62819000D01*
X22241000Y-62859000D02*
X25811000Y-62859000D01*
X16189000Y-62859000D02*
X19759000Y-62859000D01*
X22241000Y-62899000D02*
X25824000Y-62899000D01*
X16176000Y-62899000D02*
X19759000Y-62899000D01*
X22241000Y-62939000D02*
X25837000Y-62939000D01*
X16163000Y-62939000D02*
X19759000Y-62939000D01*
X22241000Y-62979000D02*
X25850000Y-62979000D01*
X16150000Y-62979000D02*
X19759000Y-62979000D01*
X22241000Y-63019000D02*
X25862000Y-63019000D01*
X16138000Y-63019000D02*
X19759000Y-63019000D01*
X22241000Y-63059000D02*
X25874000Y-63059000D01*
X16126000Y-63059000D02*
X19759000Y-63059000D01*
X22241000Y-63099000D02*
X25885000Y-63099000D01*
X16115000Y-63099000D02*
X19759000Y-63099000D01*
X22241000Y-63139000D02*
X25897000Y-63139000D01*
X16103000Y-63139000D02*
X19759000Y-63139000D01*
X22241000Y-63179000D02*
X25907000Y-63179000D01*
X16093000Y-63179000D02*
X19759000Y-63179000D01*
X22241000Y-63219000D02*
X25918000Y-63219000D01*
X16082000Y-63219000D02*
X19759000Y-63219000D01*
X16072000Y-63259000D02*
X25928000Y-63259000D01*
X16062000Y-63299000D02*
X25938000Y-63299000D01*
X16053000Y-63339000D02*
X25947000Y-63339000D01*
X16044000Y-63379000D02*
X25956000Y-63379000D01*
X16035000Y-63419000D02*
X25965000Y-63419000D01*
X16026000Y-63459000D02*
X25974000Y-63459000D01*
X16018000Y-63499000D02*
X25982000Y-63499000D01*
X16010000Y-63539000D02*
X25990000Y-63539000D01*
X16003000Y-63579000D02*
X25997000Y-63579000D01*
X15996000Y-63619000D02*
X26004000Y-63619000D01*
X15989000Y-63659000D02*
X26011000Y-63659000D01*
X15982000Y-63699000D02*
X26018000Y-63699000D01*
X15976000Y-63739000D02*
X26024000Y-63739000D01*
X15970000Y-63779000D02*
X26030000Y-63779000D01*
X15965000Y-63820000D02*
X26035000Y-63820000D01*
X15960000Y-63860000D02*
X26040000Y-63860000D01*
X15955000Y-63900000D02*
X26045000Y-63900000D01*
X15950000Y-63940000D02*
X26050000Y-63940000D01*
X15946000Y-63980000D02*
X26054000Y-63980000D01*
X15942000Y-64020000D02*
X26058000Y-64020000D01*
X15938000Y-64060000D02*
X26062000Y-64060000D01*
X15935000Y-64100000D02*
X26065000Y-64100000D01*
X15932000Y-64140000D02*
X26068000Y-64140000D01*
X15930000Y-64180000D02*
X26070000Y-64180000D01*
X15927000Y-64220000D02*
X26073000Y-64220000D01*
X15925000Y-64260000D02*
X26075000Y-64260000D01*
X15923000Y-64300000D02*
X26077000Y-64300000D01*
X15922000Y-64340000D02*
X26078000Y-64340000D01*
X15921000Y-64380000D02*
X26079000Y-64380000D01*
X15920000Y-64420000D02*
X26080000Y-64420000D01*
X15920000Y-64460000D02*
X26080000Y-64460000D01*
X15920000Y-64500000D02*
X26080000Y-64500000D01*
X26120000Y-64500000D02*
G75*
G03*
X26120000Y-64500000I-5120000J0D01*
G01*
%TO.C,BT1*%
X125960000Y-88400000D02*
X125960000Y-91900000D01*
X136500000Y-86320000D02*
X137130000Y-86320000D01*
X128040000Y-86320000D02*
X130500000Y-86320000D01*
X136500000Y-107880000D02*
X137130000Y-107880000D01*
X128040000Y-107880000D02*
X130500000Y-107880000D01*
X137130000Y-86320000D02*
X141080000Y-87760000D01*
X125960000Y-88400000D02*
X128040000Y-86320000D01*
X125960000Y-102300000D02*
X125960000Y-105800000D01*
X125960000Y-105800000D02*
X128040000Y-107880000D01*
X137130000Y-107880000D02*
X141080000Y-106440000D01*
X142066530Y-103103354D02*
G75*
G02*
X141080000Y-106440000I-1716530J-1306646D01*
G01*
X141088169Y-87774756D02*
G75*
G02*
X142050000Y-91100000I-738169J-2015244D01*
G01*
%TO.C,U2*%
D10*
X107656276Y-71963180D02*
X107656276Y-72772704D01*
X107703895Y-72867942D01*
X107751514Y-72915561D01*
X107846752Y-72963180D01*
X108037228Y-72963180D01*
X108132466Y-72915561D01*
X108180085Y-72867942D01*
X108227704Y-72772704D01*
X108227704Y-71963180D01*
X108656276Y-72915561D02*
X108799133Y-72963180D01*
X109037228Y-72963180D01*
X109132466Y-72915561D01*
X109180085Y-72867942D01*
X109227704Y-72772704D01*
X109227704Y-72677466D01*
X109180085Y-72582228D01*
X109132466Y-72534609D01*
X109037228Y-72486990D01*
X108846752Y-72439371D01*
X108751514Y-72391752D01*
X108703895Y-72344133D01*
X108656276Y-72248895D01*
X108656276Y-72153657D01*
X108703895Y-72058419D01*
X108751514Y-72010800D01*
X108846752Y-71963180D01*
X109084847Y-71963180D01*
X109227704Y-72010800D01*
X109989609Y-72439371D02*
X110132466Y-72486990D01*
X110180085Y-72534609D01*
X110227704Y-72629847D01*
X110227704Y-72772704D01*
X110180085Y-72867942D01*
X110132466Y-72915561D01*
X110037228Y-72963180D01*
X109656276Y-72963180D01*
X109656276Y-71963180D01*
X109989609Y-71963180D01*
X110084847Y-72010800D01*
X110132466Y-72058419D01*
X110180085Y-72153657D01*
X110180085Y-72248895D01*
X110132466Y-72344133D01*
X110084847Y-72391752D01*
X109989609Y-72439371D01*
X109656276Y-72439371D01*
X111418180Y-72963180D02*
X111418180Y-71963180D01*
X111418180Y-72439371D02*
X111989609Y-72439371D01*
X111989609Y-72963180D02*
X111989609Y-71963180D01*
X112608657Y-72963180D02*
X112513419Y-72915561D01*
X112465800Y-72867942D01*
X112418180Y-72772704D01*
X112418180Y-72486990D01*
X112465800Y-72391752D01*
X112513419Y-72344133D01*
X112608657Y-72296514D01*
X112751514Y-72296514D01*
X112846752Y-72344133D01*
X112894371Y-72391752D01*
X112941990Y-72486990D01*
X112941990Y-72772704D01*
X112894371Y-72867942D01*
X112846752Y-72915561D01*
X112751514Y-72963180D01*
X112608657Y-72963180D01*
X113322942Y-72915561D02*
X113418180Y-72963180D01*
X113608657Y-72963180D01*
X113703895Y-72915561D01*
X113751514Y-72820323D01*
X113751514Y-72772704D01*
X113703895Y-72677466D01*
X113608657Y-72629847D01*
X113465800Y-72629847D01*
X113370561Y-72582228D01*
X113322942Y-72486990D01*
X113322942Y-72439371D01*
X113370561Y-72344133D01*
X113465800Y-72296514D01*
X113608657Y-72296514D01*
X113703895Y-72344133D01*
X114037228Y-72296514D02*
X114418180Y-72296514D01*
X114180085Y-71963180D02*
X114180085Y-72820323D01*
X114227704Y-72915561D01*
X114322942Y-72963180D01*
X114418180Y-72963180D01*
X104493571Y-81133742D02*
X104493571Y-80800409D01*
X105017380Y-80657552D02*
X105017380Y-81133742D01*
X104017380Y-81133742D01*
X104017380Y-80657552D01*
X104350714Y-80371838D02*
X104350714Y-79990885D01*
X104017380Y-80228980D02*
X104874523Y-80228980D01*
X104969761Y-80181361D01*
X105017380Y-80086123D01*
X105017380Y-79990885D01*
X105017380Y-79657552D02*
X104017380Y-79657552D01*
X105017380Y-79228980D02*
X104493571Y-79228980D01*
X104398333Y-79276600D01*
X104350714Y-79371838D01*
X104350714Y-79514695D01*
X104398333Y-79609933D01*
X104445952Y-79657552D01*
X104969761Y-78371838D02*
X105017380Y-78467076D01*
X105017380Y-78657552D01*
X104969761Y-78752790D01*
X104874523Y-78800409D01*
X104493571Y-78800409D01*
X104398333Y-78752790D01*
X104350714Y-78657552D01*
X104350714Y-78467076D01*
X104398333Y-78371838D01*
X104493571Y-78324219D01*
X104588809Y-78324219D01*
X104684047Y-78800409D01*
X105017380Y-77895647D02*
X104350714Y-77895647D01*
X104541190Y-77895647D02*
X104445952Y-77848028D01*
X104398333Y-77800409D01*
X104350714Y-77705171D01*
X104350714Y-77609933D01*
X104350714Y-77276600D02*
X105017380Y-77276600D01*
X104445952Y-77276600D02*
X104398333Y-77228980D01*
X104350714Y-77133742D01*
X104350714Y-76990885D01*
X104398333Y-76895647D01*
X104493571Y-76848028D01*
X105017380Y-76848028D01*
X104969761Y-75990885D02*
X105017380Y-76086123D01*
X105017380Y-76276600D01*
X104969761Y-76371838D01*
X104874523Y-76419457D01*
X104493571Y-76419457D01*
X104398333Y-76371838D01*
X104350714Y-76276600D01*
X104350714Y-76086123D01*
X104398333Y-75990885D01*
X104493571Y-75943266D01*
X104588809Y-75943266D01*
X104684047Y-76419457D01*
X104350714Y-75657552D02*
X104350714Y-75276600D01*
X104017380Y-75514695D02*
X104874523Y-75514695D01*
X104969761Y-75467076D01*
X105017380Y-75371838D01*
X105017380Y-75276600D01*
X95356666Y-76563333D02*
X94656666Y-76563333D01*
X94656666Y-76396666D01*
X94690000Y-76296666D01*
X94756666Y-76230000D01*
X94823333Y-76196666D01*
X94956666Y-76163333D01*
X95056666Y-76163333D01*
X95190000Y-76196666D01*
X95256666Y-76230000D01*
X95323333Y-76296666D01*
X95356666Y-76396666D01*
X95356666Y-76563333D01*
X94656666Y-75963333D02*
X95356666Y-75730000D01*
X94656666Y-75496666D01*
X94656666Y-75063333D02*
X95156666Y-75063333D01*
X95256666Y-75096666D01*
X95323333Y-75163333D01*
X95356666Y-75263333D01*
X95356666Y-75330000D01*
X94656666Y-74430000D02*
X94656666Y-74563333D01*
X94690000Y-74630000D01*
X94723333Y-74663333D01*
X94823333Y-74730000D01*
X94956666Y-74763333D01*
X95223333Y-74763333D01*
X95290000Y-74730000D01*
X95323333Y-74696666D01*
X95356666Y-74630000D01*
X95356666Y-74496666D01*
X95323333Y-74430000D01*
X95290000Y-74396666D01*
X95223333Y-74363333D01*
X95056666Y-74363333D01*
X94990000Y-74396666D01*
X94956666Y-74430000D01*
X94923333Y-74496666D01*
X94923333Y-74630000D01*
X94956666Y-74696666D01*
X94990000Y-74730000D01*
X95056666Y-74763333D01*
X95156666Y-74096666D02*
X95156666Y-73763333D01*
X95356666Y-74163333D02*
X94656666Y-73930000D01*
X95356666Y-73696666D01*
X94086666Y-78083333D02*
X93386666Y-78083333D01*
X93886666Y-77850000D01*
X93386666Y-77616666D01*
X94086666Y-77616666D01*
X94086666Y-77283333D02*
X93386666Y-77283333D01*
X94086666Y-76950000D02*
X93386666Y-76950000D01*
X93886666Y-76716666D01*
X93386666Y-76483333D01*
X94086666Y-76483333D01*
X93386666Y-76216666D02*
X94086666Y-75750000D01*
X93386666Y-75750000D02*
X94086666Y-76216666D01*
X94086666Y-75083333D02*
X93753333Y-75316666D01*
X94086666Y-75483333D02*
X93386666Y-75483333D01*
X93386666Y-75216666D01*
X93420000Y-75150000D01*
X93453333Y-75116666D01*
X93520000Y-75083333D01*
X93620000Y-75083333D01*
X93686666Y-75116666D01*
X93720000Y-75150000D01*
X93753333Y-75216666D01*
X93753333Y-75483333D01*
X93386666Y-74883333D02*
X93386666Y-74483333D01*
X94086666Y-74683333D02*
X93386666Y-74683333D01*
X94086666Y-73883333D02*
X94086666Y-74283333D01*
X94086666Y-74083333D02*
X93386666Y-74083333D01*
X93486666Y-74150000D01*
X93553333Y-74216666D01*
X93586666Y-74283333D01*
X93386666Y-73450000D02*
X93386666Y-73383333D01*
X93420000Y-73316666D01*
X93453333Y-73283333D01*
X93520000Y-73250000D01*
X93653333Y-73216666D01*
X93820000Y-73216666D01*
X93953333Y-73250000D01*
X94020000Y-73283333D01*
X94053333Y-73316666D01*
X94086666Y-73383333D01*
X94086666Y-73450000D01*
X94053333Y-73516666D01*
X94020000Y-73550000D01*
X93953333Y-73583333D01*
X93820000Y-73616666D01*
X93653333Y-73616666D01*
X93520000Y-73583333D01*
X93453333Y-73550000D01*
X93420000Y-73516666D01*
X93386666Y-73450000D01*
X93386666Y-72616666D02*
X93386666Y-72750000D01*
X93420000Y-72816666D01*
X93453333Y-72850000D01*
X93553333Y-72916666D01*
X93686666Y-72950000D01*
X93953333Y-72950000D01*
X94020000Y-72916666D01*
X94053333Y-72883333D01*
X94086666Y-72816666D01*
X94086666Y-72683333D01*
X94053333Y-72616666D01*
X94020000Y-72583333D01*
X93953333Y-72550000D01*
X93786666Y-72550000D01*
X93720000Y-72583333D01*
X93686666Y-72616666D01*
X93653333Y-72683333D01*
X93653333Y-72816666D01*
X93686666Y-72883333D01*
X93720000Y-72916666D01*
X93786666Y-72950000D01*
X93453333Y-72283333D02*
X93420000Y-72250000D01*
X93386666Y-72183333D01*
X93386666Y-72016666D01*
X93420000Y-71950000D01*
X93453333Y-71916666D01*
X93520000Y-71883333D01*
X93586666Y-71883333D01*
X93686666Y-71916666D01*
X94086666Y-72316666D01*
X94086666Y-71883333D01*
X65250952Y-75452380D02*
X65250952Y-74452380D01*
X65584285Y-75166666D01*
X65917619Y-74452380D01*
X65917619Y-75452380D01*
X66393809Y-75452380D02*
X66393809Y-74785714D01*
X66393809Y-74452380D02*
X66346190Y-74500000D01*
X66393809Y-74547619D01*
X66441428Y-74500000D01*
X66393809Y-74452380D01*
X66393809Y-74547619D01*
X67298571Y-75404761D02*
X67203333Y-75452380D01*
X67012857Y-75452380D01*
X66917619Y-75404761D01*
X66870000Y-75357142D01*
X66822380Y-75261904D01*
X66822380Y-74976190D01*
X66870000Y-74880952D01*
X66917619Y-74833333D01*
X67012857Y-74785714D01*
X67203333Y-74785714D01*
X67298571Y-74833333D01*
X67727142Y-75452380D02*
X67727142Y-74785714D01*
X67727142Y-74976190D02*
X67774761Y-74880952D01*
X67822380Y-74833333D01*
X67917619Y-74785714D01*
X68012857Y-74785714D01*
X68489047Y-75452380D02*
X68393809Y-75404761D01*
X68346190Y-75357142D01*
X68298571Y-75261904D01*
X68298571Y-74976190D01*
X68346190Y-74880952D01*
X68393809Y-74833333D01*
X68489047Y-74785714D01*
X68631904Y-74785714D01*
X68727142Y-74833333D01*
X68774761Y-74880952D01*
X68822380Y-74976190D01*
X68822380Y-75261904D01*
X68774761Y-75357142D01*
X68727142Y-75404761D01*
X68631904Y-75452380D01*
X68489047Y-75452380D01*
X69965238Y-75404761D02*
X70108095Y-75452380D01*
X70346190Y-75452380D01*
X70441428Y-75404761D01*
X70489047Y-75357142D01*
X70536666Y-75261904D01*
X70536666Y-75166666D01*
X70489047Y-75071428D01*
X70441428Y-75023809D01*
X70346190Y-74976190D01*
X70155714Y-74928571D01*
X70060476Y-74880952D01*
X70012857Y-74833333D01*
X69965238Y-74738095D01*
X69965238Y-74642857D01*
X70012857Y-74547619D01*
X70060476Y-74500000D01*
X70155714Y-74452380D01*
X70393809Y-74452380D01*
X70536666Y-74500000D01*
X70965238Y-75452380D02*
X70965238Y-74452380D01*
X71203333Y-74452380D01*
X71346190Y-74500000D01*
X71441428Y-74595238D01*
X71489047Y-74690476D01*
X71536666Y-74880952D01*
X71536666Y-75023809D01*
X71489047Y-75214285D01*
X71441428Y-75309523D01*
X71346190Y-75404761D01*
X71203333Y-75452380D01*
X70965238Y-75452380D01*
X118622380Y-76261904D02*
X119431904Y-76261904D01*
X119527142Y-76214285D01*
X119574761Y-76166666D01*
X119622380Y-76071428D01*
X119622380Y-75880952D01*
X119574761Y-75785714D01*
X119527142Y-75738095D01*
X119431904Y-75690476D01*
X118622380Y-75690476D01*
X119574761Y-75261904D02*
X119622380Y-75119047D01*
X119622380Y-74880952D01*
X119574761Y-74785714D01*
X119527142Y-74738095D01*
X119431904Y-74690476D01*
X119336666Y-74690476D01*
X119241428Y-74738095D01*
X119193809Y-74785714D01*
X119146190Y-74880952D01*
X119098571Y-75071428D01*
X119050952Y-75166666D01*
X119003333Y-75214285D01*
X118908095Y-75261904D01*
X118812857Y-75261904D01*
X118717619Y-75214285D01*
X118670000Y-75166666D01*
X118622380Y-75071428D01*
X118622380Y-74833333D01*
X118670000Y-74690476D01*
X119098571Y-73928571D02*
X119146190Y-73785714D01*
X119193809Y-73738095D01*
X119289047Y-73690476D01*
X119431904Y-73690476D01*
X119527142Y-73738095D01*
X119574761Y-73785714D01*
X119622380Y-73880952D01*
X119622380Y-74261904D01*
X118622380Y-74261904D01*
X118622380Y-73928571D01*
X118670000Y-73833333D01*
X118717619Y-73785714D01*
X118812857Y-73738095D01*
X118908095Y-73738095D01*
X119003333Y-73785714D01*
X119050952Y-73833333D01*
X119098571Y-73928571D01*
X119098571Y-74261904D01*
%TO.C,J1*%
X39321428Y-62428571D02*
X39464285Y-62476190D01*
X39511904Y-62523809D01*
X39559523Y-62619047D01*
X39559523Y-62761904D01*
X39511904Y-62857142D01*
X39464285Y-62904761D01*
X39369047Y-62952380D01*
X38988095Y-62952380D01*
X38988095Y-61952380D01*
X39321428Y-61952380D01*
X39416666Y-62000000D01*
X39464285Y-62047619D01*
X39511904Y-62142857D01*
X39511904Y-62238095D01*
X39464285Y-62333333D01*
X39416666Y-62380952D01*
X39321428Y-62428571D01*
X38988095Y-62428571D01*
X32059523Y-62952380D02*
X31726190Y-62476190D01*
X31488095Y-62952380D02*
X31488095Y-61952380D01*
X31869047Y-61952380D01*
X31964285Y-62000000D01*
X32011904Y-62047619D01*
X32059523Y-62142857D01*
X32059523Y-62285714D01*
X32011904Y-62380952D01*
X31964285Y-62428571D01*
X31869047Y-62476190D01*
X31488095Y-62476190D01*
%TD*%
M02*
