M48
; DRILL file {KiCad 6.0.5-a6ca702e91~116~ubuntu20.04.1} date Mon 20 Jun 2022 03:40:12 PM MDT
; FORMAT={-:-/ absolute / metric / decimal}
; #@! TF.CreationDate,2022-06-20T15:40:12-06:00
; #@! TF.GenerationSoftware,Kicad,Pcbnew,6.0.5-a6ca702e91~116~ubuntu20.04.1
; #@! TF.FileFunction,Plated,1,2,PTH
FMAT,2
METRIC
; #@! TA.AperFunction,Plated,PTH,ViaDrill
T1C0.400
; #@! TA.AperFunction,Plated,PTH,ComponentDrill
T2C0.400
; #@! TA.AperFunction,Plated,PTH,ViaDrill
T3C0.600
; #@! TA.AperFunction,Plated,PTH,ComponentDrill
T4C0.760
; #@! TA.AperFunction,Plated,PTH,ComponentDrill
T5C1.000
; #@! TA.AperFunction,Plated,PTH,ComponentDrill
T6C1.100
; #@! TA.AperFunction,Plated,PTH,ComponentDrill
T7C1.270
; #@! TA.AperFunction,Plated,PTH,ComponentDrill
T8C5.000
%
G90
G05
T1
X28.3Y-85.9
X33.0Y-100.0
X33.0Y-104.0
X33.0Y-116.5
X38.8Y-84.4
X39.5Y-117.9
X39.7Y-85.1
X39.8Y-98.2
X43.4Y-83.4
X43.6Y-107.5
X44.6Y-77.3
X44.6Y-83.4
X44.7Y-98.5
X45.4Y-116.0
X45.7Y-85.7
X46.9Y-96.1
X48.0Y-106.1
X48.1Y-86.3
X48.725Y-103.7
X50.425Y-115.38
X54.4Y-63.3
X55.0Y-100.0
X55.0Y-102.0
X56.0Y-103.9
X57.6Y-85.6
X59.3Y-117.8
X60.7Y-85.8
X65.0Y-62.8
X65.9Y-61.3
X68.0Y-100.0
X68.0Y-104.0
X68.3Y-62.6
X68.3Y-116.6
X72.7Y-104.1
X73.225Y-108.315
X74.9Y-107.9
X75.1Y-86.8
X76.3Y-114.5
X76.4Y-95.9
X78.2Y-99.8
X78.3Y-87.2
X79.1Y-58.6
X79.8Y-68.8
X79.8Y-117.9
X80.369Y-63.879
X80.5Y-110.5
X80.6Y-50.3
X81.2Y-78.0
X81.4Y-58.6
X83.2Y-106.2
X83.3Y-87.9
X83.5Y-107.5
X83.6Y-72.8
X84.0Y-98.6
X84.1Y-88.6
X84.759Y-59.899
X91.0Y-100.0
X91.0Y-104.0
X91.1Y-79.8
X91.1Y-116.6
X93.8Y-80.5
X96.3Y-77.3
X96.5Y-59.6
X97.3Y-117.7
X97.336Y-69.079
X98.8Y-64.5
X100.8Y-59.0
X101.4Y-61.9
X104.0Y-100.5
X104.0Y-104.0
X104.2Y-108.4
X107.5Y-70.3
X108.6Y-116.7
X109.1Y-74.1
X110.0Y-52.2
X110.2Y-69.8
X110.825Y-107.4
X112.5Y-119.2
X112.9Y-69.0
X114.0Y-99.8
X114.0Y-124.0
X114.625Y-98.5
X115.049Y-52.17
X115.9Y-98.2
X116.7Y-76.5
X119.0Y-102.5
X119.1Y-106.6
X119.1Y-108.4
X126.0Y-100.5
X126.0Y-104.0
X133.3Y-70.8
T2
X17.25Y-52.5
X17.25Y-124.0
X18.35Y-49.85
X18.35Y-55.15
X18.35Y-121.35
X18.35Y-126.65
X21.0Y-48.75
X21.0Y-56.25
X21.0Y-120.25
X21.0Y-127.75
X23.65Y-49.85
X23.65Y-55.15
X23.65Y-121.35
X23.65Y-126.65
X24.75Y-52.5
X24.75Y-124.0
X134.75Y-52.5
X134.75Y-124.0
X135.85Y-49.85
X135.85Y-55.15
X135.85Y-121.35
X135.85Y-126.65
X138.5Y-48.75
X138.5Y-56.25
X138.5Y-120.25
X138.5Y-127.75
X141.15Y-49.85
X141.15Y-55.15
X141.15Y-121.35
X141.15Y-126.65
X142.25Y-52.5
X142.25Y-124.0
T3
X16.9Y-115.6
X32.1Y-127.5
X34.3Y-48.9
X35.9Y-81.0
X41.0Y-78.5
X41.3Y-92.9
X42.3Y-87.1
X47.5Y-75.6
X49.5Y-127.5
X52.4Y-89.7
X63.9Y-90.0
X66.6Y-50.1
X67.1Y-128.1
X67.2Y-59.5
X71.5Y-89.9
X76.6Y-90.1
X81.2Y-90.7
X82.2Y-49.3
X82.8Y-56.6
X83.0Y-63.0
X85.5Y-90.9
X86.1Y-76.5
X86.5Y-127.8
X92.7Y-90.9
X98.2Y-61.6
X101.7Y-127.3
X104.0Y-90.9
X105.5Y-64.6
X111.8Y-62.9
X117.8Y-69.5
X118.1Y-91.1
X118.4Y-62.2
X123.9Y-87.7
X126.6Y-128.1
X128.3Y-68.3
X132.4Y-48.2
X142.4Y-115.6
X142.6Y-62.5
T4
X31.405Y-115.032
X32.675Y-112.492
X33.945Y-115.032
X35.215Y-112.492
X36.485Y-115.032
X37.755Y-112.492
X39.025Y-115.032
X40.295Y-112.492
X49.085Y-115.032
X50.355Y-112.492
X51.625Y-115.032
X52.895Y-112.492
X54.165Y-115.032
X55.435Y-112.492
X56.705Y-115.032
X57.975Y-112.492
X66.455Y-115.042
X67.725Y-112.502
X68.995Y-115.042
X70.265Y-112.502
X71.535Y-115.042
X72.805Y-112.502
X74.075Y-115.042
X75.345Y-112.502
X84.135Y-115.042
X85.405Y-112.502
X86.675Y-115.042
X87.945Y-112.502
X88.117Y-51.0
X89.215Y-115.042
X89.388Y-48.46
X90.485Y-112.502
X90.657Y-51.0
X91.755Y-115.042
X91.927Y-48.46
X93.025Y-112.502
X93.197Y-51.0
X94.468Y-48.46
X95.737Y-51.0
X97.007Y-48.46
X101.465Y-115.032
X102.735Y-112.492
X104.005Y-115.032
X105.275Y-112.492
X106.545Y-115.032
X107.815Y-112.492
X109.085Y-115.032
X110.355Y-112.492
X119.145Y-115.032
X120.415Y-112.492
X121.685Y-115.032
X122.955Y-112.492
X124.225Y-115.032
X125.495Y-112.492
X126.765Y-115.032
X128.035Y-112.492
T5
X18.5Y-90.9
X21.0Y-62.0
X21.0Y-67.0
X23.5Y-90.9
X48.0Y-56.0
X50.54Y-56.0
X53.08Y-56.0
X58.5Y-56.0
X61.04Y-56.0
X63.58Y-56.0
X70.5Y-55.975
X73.04Y-55.975
X75.58Y-55.975
X78.12Y-55.975
X106.0Y-56.0
X108.54Y-56.0
X111.08Y-56.0
X117.0Y-56.0
X119.54Y-56.0
X122.08Y-56.0
X135.0Y-69.0
X135.0Y-71.54
X135.0Y-74.08
X135.0Y-76.62
X135.0Y-79.16
T6
X19.15Y-100.35
X19.15Y-106.85
X23.65Y-100.35
X23.65Y-106.85
X63.29Y-67.38
X63.29Y-82.62
X65.83Y-67.38
X65.83Y-82.62
X68.37Y-67.38
X68.37Y-82.62
X70.91Y-67.38
X70.91Y-82.62
X73.45Y-67.38
X73.45Y-82.62
X75.99Y-67.38
X75.99Y-69.92
X75.99Y-82.62
X78.53Y-67.38
X78.53Y-82.62
X81.07Y-67.38
X81.07Y-82.62
X83.61Y-67.38
X83.61Y-82.62
X86.15Y-67.38
X86.15Y-82.62
X88.69Y-67.38
X88.69Y-82.62
X91.23Y-67.38
X91.23Y-82.62
X93.77Y-67.38
X93.77Y-82.62
X96.31Y-67.38
X96.31Y-82.62
X98.85Y-67.38
X98.85Y-82.62
X101.39Y-67.38
X101.39Y-82.62
X103.93Y-67.38
X103.93Y-82.62
X106.47Y-67.38
X106.47Y-82.62
X109.01Y-67.38
X109.01Y-82.62
X111.55Y-67.38
X111.55Y-82.62
X114.09Y-67.38
X114.09Y-82.62
X116.63Y-67.38
X116.63Y-82.62
X119.17Y-67.38
X119.17Y-80.08
X119.17Y-82.62
X121.71Y-67.38
X121.71Y-82.62
T8
X21.0Y-52.5
X21.0Y-124.0
X138.5Y-52.5
X138.5Y-124.0
T7
X29.57Y-66.0G85X33.53Y-66.0
G05
X37.47Y-66.0G85X41.43Y-66.0
G05
T0
M30
