%TF.GenerationSoftware,KiCad,Pcbnew,7.0.2-6a45011f42~172~ubuntu22.04.1*%
%TF.CreationDate,2023-05-13T08:30:57-06:00*%
%TF.ProjectId,colordance-brain,636f6c6f-7264-4616-9e63-652d62726169,rev?*%
%TF.SameCoordinates,Original*%
%TF.FileFunction,Drillmap*%
%TF.FilePolarity,Positive*%
%FSLAX45Y45*%
G04 Gerber Fmt 4.5, Leading zero omitted, Abs format (unit mm)*
G04 Created by KiCad (PCBNEW 7.0.2-6a45011f42~172~ubuntu22.04.1) date 2023-05-13 08:30:57*
%MOMM*%
%LPD*%
G01*
G04 APERTURE LIST*
%ADD10C,0.050000*%
%ADD11C,0.200000*%
%ADD12C,0.040000*%
%ADD13C,0.060000*%
%ADD14C,0.076000*%
%ADD15C,0.100000*%
%ADD16C,0.110000*%
%ADD17C,0.127000*%
%ADD18C,0.500000*%
G04 APERTURE END LIST*
D10*
X14450000Y-12900000D02*
X14450000Y-4750000D01*
X1500000Y-12900000D02*
G75*
G03*
X1600000Y-13000000I100000J0D01*
G01*
X1600000Y-13000000D02*
X14350000Y-13000000D01*
X14450000Y-4750000D02*
G75*
G03*
X14350000Y-4650000I-100000J0D01*
G01*
X14350000Y-13000000D02*
G75*
G03*
X14450000Y-12900000I0J100000D01*
G01*
X1500000Y-12900000D02*
X1500000Y-4750000D01*
X1600000Y-4650000D02*
G75*
G03*
X1500000Y-4750000I0J-100000D01*
G01*
X1600000Y-4650000D02*
X14350000Y-4650000D01*
D11*
D12*
X1570000Y-8150000D02*
X1610000Y-8190000D01*
X1610000Y-8150000D02*
X1570000Y-8190000D01*
X1580000Y-9800000D02*
X1620000Y-9840000D01*
X1620000Y-9800000D02*
X1580000Y-9840000D01*
X1610000Y-4790000D02*
X1650000Y-4830000D01*
X1650000Y-4790000D02*
X1610000Y-4830000D01*
X1610000Y-12890000D02*
X1650000Y-12930000D01*
X1650000Y-12890000D02*
X1610000Y-12930000D01*
X1700000Y-5660000D02*
X1740000Y-5700000D01*
X1740000Y-5660000D02*
X1700000Y-5700000D01*
X2265000Y-7855000D02*
X2305000Y-7895000D01*
X2305000Y-7855000D02*
X2265000Y-7895000D01*
X2500000Y-6950000D02*
X2540000Y-6990000D01*
X2540000Y-6950000D02*
X2500000Y-6990000D01*
X2580000Y-12870000D02*
X2620000Y-12910000D01*
X2620000Y-12870000D02*
X2580000Y-12910000D01*
X2590000Y-9670000D02*
X2630000Y-9710000D01*
X2630000Y-9670000D02*
X2590000Y-9710000D01*
X2620000Y-11580000D02*
X2660000Y-11620000D01*
X2660000Y-11580000D02*
X2620000Y-11620000D01*
X2640000Y-4760000D02*
X2680000Y-4800000D01*
X2680000Y-4760000D02*
X2640000Y-4800000D01*
X2680000Y-8930000D02*
X2720000Y-8970000D01*
X2720000Y-8930000D02*
X2680000Y-8970000D01*
X2790000Y-9140000D02*
X2830000Y-9180000D01*
X2830000Y-9140000D02*
X2790000Y-9180000D01*
X3140000Y-9050000D02*
X3180000Y-9090000D01*
X3180000Y-9050000D02*
X3140000Y-9090000D01*
X3280000Y-9980000D02*
X3320000Y-10020000D01*
X3320000Y-9980000D02*
X3280000Y-10020000D01*
X3280000Y-10380000D02*
X3320000Y-10420000D01*
X3320000Y-10380000D02*
X3280000Y-10420000D01*
X3280000Y-11630000D02*
X3320000Y-11670000D01*
X3320000Y-11630000D02*
X3280000Y-11670000D01*
X3400000Y-7580000D02*
X3440000Y-7620000D01*
X3440000Y-7580000D02*
X3400000Y-7620000D01*
X3480000Y-8890000D02*
X3520000Y-8930000D01*
X3520000Y-8890000D02*
X3480000Y-8930000D01*
X3860000Y-8420000D02*
X3900000Y-8460000D01*
X3900000Y-8420000D02*
X3860000Y-8460000D01*
X3930000Y-11770000D02*
X3970000Y-11810000D01*
X3970000Y-11770000D02*
X3930000Y-11810000D01*
X3950000Y-8490000D02*
X3990000Y-8530000D01*
X3990000Y-8490000D02*
X3950000Y-8530000D01*
X3960000Y-9800000D02*
X4000000Y-9840000D01*
X4000000Y-9800000D02*
X3960000Y-9840000D01*
X4090000Y-4780000D02*
X4130000Y-4820000D01*
X4130000Y-4780000D02*
X4090000Y-4820000D01*
X4160000Y-7050000D02*
X4200000Y-7090000D01*
X4200000Y-7050000D02*
X4160000Y-7090000D01*
X4290000Y-8070000D02*
X4330000Y-8110000D01*
X4330000Y-8070000D02*
X4290000Y-8110000D01*
X4320000Y-8320000D02*
X4360000Y-8360000D01*
X4360000Y-8320000D02*
X4320000Y-8360000D01*
X4340000Y-10730000D02*
X4380000Y-10770000D01*
X4380000Y-10730000D02*
X4340000Y-10770000D01*
X4440000Y-7710000D02*
X4480000Y-7750000D01*
X4480000Y-7710000D02*
X4440000Y-7750000D01*
X4440000Y-8320000D02*
X4480000Y-8360000D01*
X4480000Y-8320000D02*
X4440000Y-8360000D01*
X4450000Y-9830000D02*
X4490000Y-9870000D01*
X4490000Y-9830000D02*
X4450000Y-9870000D01*
X4520000Y-11580000D02*
X4560000Y-11620000D01*
X4560000Y-11580000D02*
X4520000Y-11620000D01*
X4550000Y-8550000D02*
X4590000Y-8590000D01*
X4590000Y-8550000D02*
X4550000Y-8590000D01*
X4670000Y-9590000D02*
X4710000Y-9630000D01*
X4710000Y-9590000D02*
X4670000Y-9630000D01*
X4780000Y-10590000D02*
X4820000Y-10630000D01*
X4820000Y-10590000D02*
X4780000Y-10630000D01*
X4790000Y-8610000D02*
X4830000Y-8650000D01*
X4830000Y-8610000D02*
X4790000Y-8650000D01*
X4852501Y-10350000D02*
X4892501Y-10390000D01*
X4892501Y-10350000D02*
X4852501Y-10390000D01*
X4930000Y-4990000D02*
X4970000Y-5030000D01*
X4970000Y-4990000D02*
X4930000Y-5030000D01*
X5022488Y-11517973D02*
X5062488Y-11557973D01*
X5062488Y-11517973D02*
X5022488Y-11557973D01*
X5320000Y-7840000D02*
X5360000Y-7880000D01*
X5360000Y-7840000D02*
X5320000Y-7880000D01*
X5350000Y-7050000D02*
X5390000Y-7090000D01*
X5390000Y-7050000D02*
X5350000Y-7090000D01*
X5420000Y-6380000D02*
X5460000Y-6420000D01*
X5460000Y-6380000D02*
X5420000Y-6420000D01*
X5480000Y-9980000D02*
X5520000Y-10020000D01*
X5520000Y-9980000D02*
X5480000Y-10020000D01*
X5480000Y-10180000D02*
X5520000Y-10220000D01*
X5520000Y-10180000D02*
X5480000Y-10220000D01*
X5580000Y-10370000D02*
X5620000Y-10410000D01*
X5620000Y-10370000D02*
X5580000Y-10410000D01*
X5730000Y-7500000D02*
X5770000Y-7540000D01*
X5770000Y-7500000D02*
X5730000Y-7540000D01*
X5740000Y-8540000D02*
X5780000Y-8580000D01*
X5780000Y-8540000D02*
X5740000Y-8580000D01*
X5860000Y-7110000D02*
X5900000Y-7150000D01*
X5900000Y-7110000D02*
X5860000Y-7150000D01*
X5870000Y-7840000D02*
X5910000Y-7880000D01*
X5910000Y-7840000D02*
X5870000Y-7880000D01*
X5910000Y-11760000D02*
X5950000Y-11800000D01*
X5950000Y-11760000D02*
X5910000Y-11800000D01*
X6050000Y-8560000D02*
X6090000Y-8600000D01*
X6090000Y-8560000D02*
X6050000Y-8600000D01*
X6480000Y-6340000D02*
X6520000Y-6380000D01*
X6520000Y-6340000D02*
X6480000Y-6380000D01*
X6480000Y-6520000D02*
X6520000Y-6560000D01*
X6520000Y-6520000D02*
X6480000Y-6560000D01*
X6740000Y-7820000D02*
X6780000Y-7860000D01*
X6780000Y-7820000D02*
X6740000Y-7860000D01*
X6750000Y-7080000D02*
X6790000Y-7120000D01*
X6790000Y-7080000D02*
X6750000Y-7120000D01*
X6780000Y-9980000D02*
X6820000Y-10020000D01*
X6820000Y-9980000D02*
X6780000Y-10020000D01*
X6780000Y-10380000D02*
X6820000Y-10420000D01*
X6820000Y-10380000D02*
X6780000Y-10420000D01*
X6800000Y-6170000D02*
X6840000Y-6210000D01*
X6840000Y-6170000D02*
X6800000Y-6210000D01*
X6800000Y-7500000D02*
X6840000Y-7540000D01*
X6840000Y-7500000D02*
X6800000Y-7540000D01*
X6810000Y-11640000D02*
X6850000Y-11680000D01*
X6850000Y-11640000D02*
X6810000Y-11680000D01*
X7110000Y-6120000D02*
X7150000Y-6160000D01*
X7150000Y-6120000D02*
X7110000Y-6160000D01*
X7120000Y-6520000D02*
X7160000Y-6560000D01*
X7160000Y-6520000D02*
X7120000Y-6560000D01*
X7250000Y-10390000D02*
X7290000Y-10430000D01*
X7290000Y-10390000D02*
X7250000Y-10430000D01*
X7302501Y-10811525D02*
X7342501Y-10851525D01*
X7342501Y-10811525D02*
X7302501Y-10851525D01*
X7470000Y-10770000D02*
X7510000Y-10810000D01*
X7510000Y-10770000D02*
X7470000Y-10810000D01*
X7490000Y-8660000D02*
X7530000Y-8700000D01*
X7530000Y-8660000D02*
X7490000Y-8700000D01*
X7497500Y-5990000D02*
X7537500Y-6030000D01*
X7537500Y-5990000D02*
X7497500Y-6030000D01*
X7610000Y-11430000D02*
X7650000Y-11470000D01*
X7650000Y-11430000D02*
X7610000Y-11470000D01*
X7620000Y-9570000D02*
X7660000Y-9610000D01*
X7660000Y-9570000D02*
X7620000Y-9610000D01*
X7627038Y-5837038D02*
X7667038Y-5877038D01*
X7667038Y-5837038D02*
X7627038Y-5877038D01*
X7800000Y-9960000D02*
X7840000Y-10000000D01*
X7840000Y-9960000D02*
X7800000Y-10000000D01*
X7810000Y-8700000D02*
X7850000Y-8740000D01*
X7850000Y-8700000D02*
X7810000Y-8740000D01*
X7900000Y-6920000D02*
X7940000Y-6960000D01*
X7940000Y-6920000D02*
X7900000Y-6960000D01*
X7960000Y-6860000D02*
X8000000Y-6900000D01*
X8000000Y-6860000D02*
X7960000Y-6900000D01*
X7960000Y-11770000D02*
X8000000Y-11810000D01*
X8000000Y-11770000D02*
X7960000Y-11810000D01*
X8030000Y-11030000D02*
X8070000Y-11070000D01*
X8070000Y-11030000D02*
X8030000Y-11070000D01*
X8040000Y-5010000D02*
X8080000Y-5050000D01*
X8080000Y-5010000D02*
X8040000Y-5050000D01*
X8085974Y-6399950D02*
X8125974Y-6439950D01*
X8125974Y-6399950D02*
X8085974Y-6439950D01*
X8100000Y-7780000D02*
X8140000Y-7820000D01*
X8140000Y-7780000D02*
X8100000Y-7820000D01*
X8110000Y-6060000D02*
X8150000Y-6100000D01*
X8150000Y-6060000D02*
X8110000Y-6100000D01*
X8120000Y-5840000D02*
X8160000Y-5880000D01*
X8160000Y-5840000D02*
X8120000Y-5880000D01*
X8160000Y-5690000D02*
X8200000Y-5730000D01*
X8200000Y-5690000D02*
X8160000Y-5730000D01*
X8188638Y-6183550D02*
X8228638Y-6223550D01*
X8228638Y-6183550D02*
X8188638Y-6223550D01*
X8300000Y-10600000D02*
X8340000Y-10640000D01*
X8340000Y-10600000D02*
X8300000Y-10640000D01*
X8310000Y-8770000D02*
X8350000Y-8810000D01*
X8350000Y-8770000D02*
X8310000Y-8810000D01*
X8330000Y-10730000D02*
X8370000Y-10770000D01*
X8370000Y-10730000D02*
X8330000Y-10770000D01*
X8340000Y-7260000D02*
X8380000Y-7300000D01*
X8380000Y-7260000D02*
X8340000Y-7300000D01*
X8380000Y-9840000D02*
X8420000Y-9880000D01*
X8420000Y-9840000D02*
X8380000Y-9880000D01*
X8390000Y-8840000D02*
X8430000Y-8880000D01*
X8430000Y-8840000D02*
X8390000Y-8880000D01*
X8720000Y-5720000D02*
X8760000Y-5760000D01*
X8760000Y-5720000D02*
X8720000Y-5760000D01*
X8740000Y-4930000D02*
X8780000Y-4970000D01*
X8780000Y-4930000D02*
X8740000Y-4970000D01*
X8740000Y-5970000D02*
X8780000Y-6010000D01*
X8780000Y-5970000D02*
X8740000Y-6010000D01*
X8781000Y-6119100D02*
X8821000Y-6159100D01*
X8821000Y-6119100D02*
X8781000Y-6159100D01*
X8870000Y-6530000D02*
X8910000Y-6570000D01*
X8910000Y-6530000D02*
X8870000Y-6570000D01*
X9080000Y-9980000D02*
X9120000Y-10020000D01*
X9120000Y-9980000D02*
X9080000Y-10020000D01*
X9080000Y-10380000D02*
X9120000Y-10420000D01*
X9120000Y-10380000D02*
X9080000Y-10420000D01*
X9090000Y-7960000D02*
X9130000Y-8000000D01*
X9130000Y-7960000D02*
X9090000Y-8000000D01*
X9090000Y-11640000D02*
X9130000Y-11680000D01*
X9130000Y-11640000D02*
X9090000Y-11680000D01*
X9360000Y-8030000D02*
X9400000Y-8070000D01*
X9400000Y-8030000D02*
X9360000Y-8070000D01*
X9543000Y-6123000D02*
X9583000Y-6163000D01*
X9583000Y-6123000D02*
X9543000Y-6163000D01*
X9610000Y-7710000D02*
X9650000Y-7750000D01*
X9650000Y-7710000D02*
X9610000Y-7750000D01*
X9710000Y-11750000D02*
X9750000Y-11790000D01*
X9750000Y-11750000D02*
X9710000Y-11790000D01*
X9713602Y-6887901D02*
X9753602Y-6927901D01*
X9753602Y-6887901D02*
X9713602Y-6927901D01*
X9840000Y-6570000D02*
X9880000Y-6610000D01*
X9880000Y-6570000D02*
X9840000Y-6610000D01*
X10060000Y-5880000D02*
X10100000Y-5920000D01*
X10100000Y-5880000D02*
X10060000Y-5920000D01*
X10120000Y-6170000D02*
X10160000Y-6210000D01*
X10160000Y-6170000D02*
X10120000Y-6210000D01*
X10380000Y-10030000D02*
X10420000Y-10070000D01*
X10420000Y-10030000D02*
X10380000Y-10070000D01*
X10380000Y-10380000D02*
X10420000Y-10420000D01*
X10420000Y-10380000D02*
X10380000Y-10420000D01*
X10400000Y-10820000D02*
X10440000Y-10860000D01*
X10440000Y-10820000D02*
X10400000Y-10860000D01*
X10660000Y-4930000D02*
X10700000Y-4970000D01*
X10700000Y-4930000D02*
X10660000Y-4970000D01*
X10661769Y-6950050D02*
X10701769Y-6990050D01*
X10701769Y-6950050D02*
X10661769Y-6990050D01*
X10840000Y-11650000D02*
X10880000Y-11690000D01*
X10880000Y-11650000D02*
X10840000Y-11690000D01*
X10890000Y-7390000D02*
X10930000Y-7430000D01*
X10930000Y-7390000D02*
X10890000Y-7430000D01*
X10980000Y-5200000D02*
X11020000Y-5240000D01*
X11020000Y-5200000D02*
X10980000Y-5240000D01*
X10997563Y-6950050D02*
X11037563Y-6990050D01*
X11037563Y-6950050D02*
X10997563Y-6990050D01*
X11062501Y-10720000D02*
X11102501Y-10760000D01*
X11102501Y-10720000D02*
X11062501Y-10760000D01*
X11230000Y-11900000D02*
X11270000Y-11940000D01*
X11270000Y-11900000D02*
X11230000Y-11940000D01*
X11270000Y-6880000D02*
X11310000Y-6920000D01*
X11310000Y-6880000D02*
X11270000Y-6920000D01*
X11380000Y-9960000D02*
X11420000Y-10000000D01*
X11420000Y-9960000D02*
X11380000Y-10000000D01*
X11380000Y-12380000D02*
X11420000Y-12420000D01*
X11420000Y-12380000D02*
X11380000Y-12420000D01*
X11396950Y-5197002D02*
X11436950Y-5237002D01*
X11436950Y-5197002D02*
X11396950Y-5237002D01*
X11442501Y-9830000D02*
X11482501Y-9870000D01*
X11482501Y-9830000D02*
X11442501Y-9870000D01*
X11570000Y-9800000D02*
X11610000Y-9840000D01*
X11610000Y-9800000D02*
X11570000Y-9840000D01*
X11640000Y-9160000D02*
X11680000Y-9200000D01*
X11680000Y-9160000D02*
X11640000Y-9200000D01*
X11650000Y-7630000D02*
X11690000Y-7670000D01*
X11690000Y-7630000D02*
X11650000Y-7670000D01*
X11720000Y-4930000D02*
X11760000Y-4970000D01*
X11760000Y-4930000D02*
X11720000Y-4970000D01*
X11880000Y-10230000D02*
X11920000Y-10270000D01*
X11920000Y-10230000D02*
X11880000Y-10270000D01*
X11890000Y-10640000D02*
X11930000Y-10680000D01*
X11930000Y-10640000D02*
X11890000Y-10680000D01*
X11890000Y-10820000D02*
X11930000Y-10860000D01*
X11930000Y-10820000D02*
X11890000Y-10860000D01*
X11910000Y-9160000D02*
X11950000Y-9200000D01*
X11950000Y-9160000D02*
X11910000Y-9200000D01*
X12490000Y-5750000D02*
X12530000Y-5790000D01*
X12530000Y-5750000D02*
X12490000Y-5790000D01*
X12580000Y-10030000D02*
X12620000Y-10070000D01*
X12620000Y-10030000D02*
X12580000Y-10070000D01*
X12580000Y-10380000D02*
X12620000Y-10420000D01*
X12620000Y-10380000D02*
X12580000Y-10420000D01*
X12870000Y-5240000D02*
X12910000Y-5280000D01*
X12910000Y-5240000D02*
X12870000Y-5280000D01*
X12940000Y-7010000D02*
X12980000Y-7050000D01*
X12980000Y-7010000D02*
X12940000Y-7050000D01*
X13310000Y-7060000D02*
X13350000Y-7100000D01*
X13350000Y-7060000D02*
X13310000Y-7100000D01*
X14280000Y-4790000D02*
X14320000Y-4830000D01*
X14320000Y-4790000D02*
X14280000Y-4830000D01*
X14280000Y-8440000D02*
X14320000Y-8480000D01*
X14320000Y-8440000D02*
X14280000Y-8480000D01*
X1745000Y-5250000D02*
G75*
G03*
X1745000Y-5250000I-20000J0D01*
G01*
X1745000Y-12400000D02*
G75*
G03*
X1745000Y-12400000I-20000J0D01*
G01*
X1855000Y-4985000D02*
G75*
G03*
X1855000Y-4985000I-20000J0D01*
G01*
X1855000Y-5515000D02*
G75*
G03*
X1855000Y-5515000I-20000J0D01*
G01*
X1855000Y-12135000D02*
G75*
G03*
X1855000Y-12135000I-20000J0D01*
G01*
X1855000Y-12665000D02*
G75*
G03*
X1855000Y-12665000I-20000J0D01*
G01*
X2120000Y-4875000D02*
G75*
G03*
X2120000Y-4875000I-20000J0D01*
G01*
X2120000Y-5625000D02*
G75*
G03*
X2120000Y-5625000I-20000J0D01*
G01*
X2120000Y-12025000D02*
G75*
G03*
X2120000Y-12025000I-20000J0D01*
G01*
X2120000Y-12775000D02*
G75*
G03*
X2120000Y-12775000I-20000J0D01*
G01*
X2385000Y-4985000D02*
G75*
G03*
X2385000Y-4985000I-20000J0D01*
G01*
X2385000Y-5515000D02*
G75*
G03*
X2385000Y-5515000I-20000J0D01*
G01*
X2385000Y-12135000D02*
G75*
G03*
X2385000Y-12135000I-20000J0D01*
G01*
X2385000Y-12665000D02*
G75*
G03*
X2385000Y-12665000I-20000J0D01*
G01*
X2495000Y-5250000D02*
G75*
G03*
X2495000Y-5250000I-20000J0D01*
G01*
X2495000Y-12400000D02*
G75*
G03*
X2495000Y-12400000I-20000J0D01*
G01*
X13495000Y-5250000D02*
G75*
G03*
X13495000Y-5250000I-20000J0D01*
G01*
X13495000Y-12400000D02*
G75*
G03*
X13495000Y-12400000I-20000J0D01*
G01*
X13605000Y-4985000D02*
G75*
G03*
X13605000Y-4985000I-20000J0D01*
G01*
X13605000Y-5515000D02*
G75*
G03*
X13605000Y-5515000I-20000J0D01*
G01*
X13605000Y-12135000D02*
G75*
G03*
X13605000Y-12135000I-20000J0D01*
G01*
X13605000Y-12665000D02*
G75*
G03*
X13605000Y-12665000I-20000J0D01*
G01*
X13870000Y-4875000D02*
G75*
G03*
X13870000Y-4875000I-20000J0D01*
G01*
X13870000Y-5625000D02*
G75*
G03*
X13870000Y-5625000I-20000J0D01*
G01*
X13870000Y-12025000D02*
G75*
G03*
X13870000Y-12025000I-20000J0D01*
G01*
X13870000Y-12775000D02*
G75*
G03*
X13870000Y-12775000I-20000J0D01*
G01*
X14135000Y-4985000D02*
G75*
G03*
X14135000Y-4985000I-20000J0D01*
G01*
X14135000Y-5515000D02*
G75*
G03*
X14135000Y-5515000I-20000J0D01*
G01*
X14135000Y-12135000D02*
G75*
G03*
X14135000Y-12135000I-20000J0D01*
G01*
X14135000Y-12665000D02*
G75*
G03*
X14135000Y-12665000I-20000J0D01*
G01*
X14245000Y-5250000D02*
G75*
G03*
X14245000Y-5250000I-20000J0D01*
G01*
X14245000Y-12400000D02*
G75*
G03*
X14245000Y-12400000I-20000J0D01*
G01*
D13*
X1690000Y-11530000D02*
X1690000Y-11590000D01*
X1660000Y-11560000D02*
X1720000Y-11560000D01*
X3210000Y-12720000D02*
X3210000Y-12780000D01*
X3180000Y-12750000D02*
X3240000Y-12750000D01*
X3430000Y-4860000D02*
X3430000Y-4920000D01*
X3400000Y-4890000D02*
X3460000Y-4890000D01*
X4230000Y-8680000D02*
X4230000Y-8740000D01*
X4200000Y-8710000D02*
X4260000Y-8710000D01*
X4950000Y-12720000D02*
X4950000Y-12780000D01*
X4920000Y-12750000D02*
X4980000Y-12750000D01*
X5240000Y-8940000D02*
X5240000Y-9000000D01*
X5210000Y-8970000D02*
X5270000Y-8970000D01*
X5570000Y-9292500D02*
X5570000Y-9352500D01*
X5540000Y-9322500D02*
X5600000Y-9322500D01*
X6390000Y-8970000D02*
X6390000Y-9030000D01*
X6360000Y-9000000D02*
X6420000Y-9000000D01*
X6660000Y-4980000D02*
X6660000Y-5040000D01*
X6630000Y-5010000D02*
X6690000Y-5010000D01*
X6710000Y-12780000D02*
X6710000Y-12840000D01*
X6680000Y-12810000D02*
X6740000Y-12810000D01*
X6720000Y-5920000D02*
X6720000Y-5980000D01*
X6690000Y-5950000D02*
X6750000Y-5950000D01*
X7150000Y-8960000D02*
X7150000Y-9020000D01*
X7120000Y-8990000D02*
X7180000Y-8990000D01*
X7660000Y-8980000D02*
X7660000Y-9040000D01*
X7630000Y-9010000D02*
X7690000Y-9010000D01*
X8120000Y-9040000D02*
X8120000Y-9100000D01*
X8090000Y-9070000D02*
X8150000Y-9070000D01*
X8550000Y-9060000D02*
X8550000Y-9120000D01*
X8520000Y-9090000D02*
X8580000Y-9090000D01*
X8610000Y-7620000D02*
X8610000Y-7680000D01*
X8580000Y-7650000D02*
X8640000Y-7650000D01*
X8650000Y-12750000D02*
X8650000Y-12810000D01*
X8620000Y-12780000D02*
X8680000Y-12780000D01*
X9270000Y-9060000D02*
X9270000Y-9120000D01*
X9240000Y-9090000D02*
X9300000Y-9090000D01*
X10170000Y-12700000D02*
X10170000Y-12760000D01*
X10140000Y-12730000D02*
X10200000Y-12730000D01*
X10400000Y-9060000D02*
X10400000Y-9120000D01*
X10370000Y-9090000D02*
X10430000Y-9090000D01*
X10550000Y-6430000D02*
X10550000Y-6490000D01*
X10520000Y-6460000D02*
X10580000Y-6460000D01*
X11180000Y-6260000D02*
X11180000Y-6320000D01*
X11150000Y-6290000D02*
X11210000Y-6290000D01*
X11780000Y-6920000D02*
X11780000Y-6980000D01*
X11750000Y-6950000D02*
X11810000Y-6950000D01*
X11840000Y-6190000D02*
X11840000Y-6250000D01*
X11810000Y-6220000D02*
X11870000Y-6220000D01*
X12210000Y-9290000D02*
X12210000Y-9350000D01*
X12180000Y-9320000D02*
X12240000Y-9320000D01*
X12390000Y-8740000D02*
X12390000Y-8800000D01*
X12360000Y-8770000D02*
X12420000Y-8770000D01*
X12660000Y-12780000D02*
X12660000Y-12840000D01*
X12630000Y-12810000D02*
X12690000Y-12810000D01*
X12830000Y-6800000D02*
X12830000Y-6860000D01*
X12800000Y-6830000D02*
X12860000Y-6830000D01*
X14240000Y-11530000D02*
X14240000Y-11590000D01*
X14210000Y-11560000D02*
X14270000Y-11560000D01*
X14260000Y-6220000D02*
X14260000Y-6280000D01*
X14230000Y-6250000D02*
X14290000Y-6250000D01*
D14*
X3167370Y-11530063D02*
X3167370Y-11476322D01*
X3113630Y-11476322D01*
X3113630Y-11530063D01*
X3167370Y-11530063D01*
X3294370Y-11276063D02*
X3294370Y-11222322D01*
X3240630Y-11222322D01*
X3240630Y-11276063D01*
X3294370Y-11276063D01*
X3421370Y-11530063D02*
X3421370Y-11476322D01*
X3367630Y-11476322D01*
X3367630Y-11530063D01*
X3421370Y-11530063D01*
X3548370Y-11276063D02*
X3548370Y-11222322D01*
X3494630Y-11222322D01*
X3494630Y-11276063D01*
X3548370Y-11276063D01*
X3675370Y-11530063D02*
X3675370Y-11476322D01*
X3621630Y-11476322D01*
X3621630Y-11530063D01*
X3675370Y-11530063D01*
X3802370Y-11276063D02*
X3802370Y-11222322D01*
X3748630Y-11222322D01*
X3748630Y-11276063D01*
X3802370Y-11276063D01*
X3929370Y-11530063D02*
X3929370Y-11476322D01*
X3875630Y-11476322D01*
X3875630Y-11530063D01*
X3929370Y-11530063D01*
X4056370Y-11276063D02*
X4056370Y-11222322D01*
X4002630Y-11222322D01*
X4002630Y-11276063D01*
X4056370Y-11276063D01*
X4935370Y-11530063D02*
X4935370Y-11476322D01*
X4881630Y-11476322D01*
X4881630Y-11530063D01*
X4935370Y-11530063D01*
X5062370Y-11276063D02*
X5062370Y-11222322D01*
X5008630Y-11222322D01*
X5008630Y-11276063D01*
X5062370Y-11276063D01*
X5189370Y-11530063D02*
X5189370Y-11476322D01*
X5135630Y-11476322D01*
X5135630Y-11530063D01*
X5189370Y-11530063D01*
X5316370Y-11276063D02*
X5316370Y-11222322D01*
X5262630Y-11222322D01*
X5262630Y-11276063D01*
X5316370Y-11276063D01*
X5443370Y-11530063D02*
X5443370Y-11476322D01*
X5389630Y-11476322D01*
X5389630Y-11530063D01*
X5443370Y-11530063D01*
X5570370Y-11276063D02*
X5570370Y-11222322D01*
X5516630Y-11222322D01*
X5516630Y-11276063D01*
X5570370Y-11276063D01*
X5697370Y-11530063D02*
X5697370Y-11476322D01*
X5643630Y-11476322D01*
X5643630Y-11530063D01*
X5697370Y-11530063D01*
X5824370Y-11276063D02*
X5824370Y-11222322D01*
X5770630Y-11222322D01*
X5770630Y-11276063D01*
X5824370Y-11276063D01*
X6672370Y-11531063D02*
X6672370Y-11477322D01*
X6618630Y-11477322D01*
X6618630Y-11531063D01*
X6672370Y-11531063D01*
X6799370Y-11277063D02*
X6799370Y-11223322D01*
X6745630Y-11223322D01*
X6745630Y-11277063D01*
X6799370Y-11277063D01*
X6926370Y-11531063D02*
X6926370Y-11477322D01*
X6872630Y-11477322D01*
X6872630Y-11531063D01*
X6926370Y-11531063D01*
X7053370Y-11277063D02*
X7053370Y-11223322D01*
X6999630Y-11223322D01*
X6999630Y-11277063D01*
X7053370Y-11277063D01*
X7180370Y-11531063D02*
X7180370Y-11477322D01*
X7126630Y-11477322D01*
X7126630Y-11531063D01*
X7180370Y-11531063D01*
X7307370Y-11277063D02*
X7307370Y-11223322D01*
X7253630Y-11223322D01*
X7253630Y-11277063D01*
X7307370Y-11277063D01*
X7434370Y-11531063D02*
X7434370Y-11477322D01*
X7380630Y-11477322D01*
X7380630Y-11531063D01*
X7434370Y-11531063D01*
X7561370Y-11277063D02*
X7561370Y-11223322D01*
X7507630Y-11223322D01*
X7507630Y-11277063D01*
X7561370Y-11277063D01*
X8440370Y-11531063D02*
X8440370Y-11477322D01*
X8386630Y-11477322D01*
X8386630Y-11531063D01*
X8440370Y-11531063D01*
X8567370Y-11277063D02*
X8567370Y-11223322D01*
X8513630Y-11223322D01*
X8513630Y-11277063D01*
X8567370Y-11277063D01*
X8694370Y-11531063D02*
X8694370Y-11477322D01*
X8640630Y-11477322D01*
X8640630Y-11531063D01*
X8694370Y-11531063D01*
X8821370Y-11277063D02*
X8821370Y-11223322D01*
X8767630Y-11223322D01*
X8767630Y-11277063D01*
X8821370Y-11277063D01*
X8827870Y-6370870D02*
X8827870Y-6317130D01*
X8774130Y-6317130D01*
X8774130Y-6370870D01*
X8827870Y-6370870D01*
X8948370Y-11531063D02*
X8948370Y-11477322D01*
X8894630Y-11477322D01*
X8894630Y-11531063D01*
X8948370Y-11531063D01*
X8954870Y-6116870D02*
X8954870Y-6063130D01*
X8901130Y-6063130D01*
X8901130Y-6116870D01*
X8954870Y-6116870D01*
X9075370Y-11277063D02*
X9075370Y-11223322D01*
X9021630Y-11223322D01*
X9021630Y-11277063D01*
X9075370Y-11277063D01*
X9081870Y-6370870D02*
X9081870Y-6317130D01*
X9028130Y-6317130D01*
X9028130Y-6370870D01*
X9081870Y-6370870D01*
X9202370Y-11531063D02*
X9202370Y-11477322D01*
X9148630Y-11477322D01*
X9148630Y-11531063D01*
X9202370Y-11531063D01*
X9208870Y-6116870D02*
X9208870Y-6063130D01*
X9155130Y-6063130D01*
X9155130Y-6116870D01*
X9208870Y-6116870D01*
X9329370Y-11277063D02*
X9329370Y-11223322D01*
X9275630Y-11223322D01*
X9275630Y-11277063D01*
X9329370Y-11277063D01*
X9335870Y-6370870D02*
X9335870Y-6317130D01*
X9282130Y-6317130D01*
X9282130Y-6370870D01*
X9335870Y-6370870D01*
X9462870Y-6116870D02*
X9462870Y-6063130D01*
X9409130Y-6063130D01*
X9409130Y-6116870D01*
X9462870Y-6116870D01*
X9589870Y-6370870D02*
X9589870Y-6317130D01*
X9536130Y-6317130D01*
X9536130Y-6370870D01*
X9589870Y-6370870D01*
X9716870Y-6116870D02*
X9716870Y-6063130D01*
X9663130Y-6063130D01*
X9663130Y-6116870D01*
X9716870Y-6116870D01*
X10173370Y-11530063D02*
X10173370Y-11476322D01*
X10119630Y-11476322D01*
X10119630Y-11530063D01*
X10173370Y-11530063D01*
X10300370Y-11276063D02*
X10300370Y-11222322D01*
X10246630Y-11222322D01*
X10246630Y-11276063D01*
X10300370Y-11276063D01*
X10427370Y-11530063D02*
X10427370Y-11476322D01*
X10373630Y-11476322D01*
X10373630Y-11530063D01*
X10427370Y-11530063D01*
X10554370Y-11276063D02*
X10554370Y-11222322D01*
X10500630Y-11222322D01*
X10500630Y-11276063D01*
X10554370Y-11276063D01*
X10681370Y-11530063D02*
X10681370Y-11476322D01*
X10627630Y-11476322D01*
X10627630Y-11530063D01*
X10681370Y-11530063D01*
X10808370Y-11276063D02*
X10808370Y-11222322D01*
X10754630Y-11222322D01*
X10754630Y-11276063D01*
X10808370Y-11276063D01*
X10935370Y-11530063D02*
X10935370Y-11476322D01*
X10881630Y-11476322D01*
X10881630Y-11530063D01*
X10935370Y-11530063D01*
X11062370Y-11276063D02*
X11062370Y-11222322D01*
X11008630Y-11222322D01*
X11008630Y-11276063D01*
X11062370Y-11276063D01*
X11941370Y-11530063D02*
X11941370Y-11476322D01*
X11887630Y-11476322D01*
X11887630Y-11530063D01*
X11941370Y-11530063D01*
X12068370Y-11276063D02*
X12068370Y-11222322D01*
X12014630Y-11222322D01*
X12014630Y-11276063D01*
X12068370Y-11276063D01*
X12195370Y-11530063D02*
X12195370Y-11476322D01*
X12141630Y-11476322D01*
X12141630Y-11530063D01*
X12195370Y-11530063D01*
X12322370Y-11276063D02*
X12322370Y-11222322D01*
X12268630Y-11222322D01*
X12268630Y-11276063D01*
X12322370Y-11276063D01*
X12449370Y-11530063D02*
X12449370Y-11476322D01*
X12395630Y-11476322D01*
X12395630Y-11530063D01*
X12449370Y-11530063D01*
X12576370Y-11276063D02*
X12576370Y-11222322D01*
X12522630Y-11222322D01*
X12522630Y-11276063D01*
X12576370Y-11276063D01*
X12703370Y-11530063D02*
X12703370Y-11476322D01*
X12649630Y-11476322D01*
X12649630Y-11530063D01*
X12703370Y-11530063D01*
X12830370Y-11276063D02*
X12830370Y-11222322D01*
X12776630Y-11222322D01*
X12776630Y-11276063D01*
X12830370Y-11276063D01*
D15*
X1846768Y-9100000D02*
X1896768Y-9050000D01*
X1846768Y-9000000D01*
X1796768Y-9050000D01*
X1846768Y-9100000D01*
X1850000Y-7340000D02*
X1900000Y-7290000D01*
X1850000Y-7240000D01*
X1800000Y-7290000D01*
X1850000Y-7340000D01*
X2346768Y-9100000D02*
X2396768Y-9050000D01*
X2346768Y-9000000D01*
X2296768Y-9050000D01*
X2346768Y-9100000D01*
X2350000Y-7340000D02*
X2400000Y-7290000D01*
X2350000Y-7240000D01*
X2300000Y-7290000D01*
X2350000Y-7340000D01*
X4800000Y-5650000D02*
X4850000Y-5600000D01*
X4800000Y-5550000D01*
X4750000Y-5600000D01*
X4800000Y-5650000D01*
X5054000Y-5650000D02*
X5104000Y-5600000D01*
X5054000Y-5550000D01*
X5004000Y-5600000D01*
X5054000Y-5650000D01*
X5308000Y-5650000D02*
X5358000Y-5600000D01*
X5308000Y-5550000D01*
X5258000Y-5600000D01*
X5308000Y-5650000D01*
X5850000Y-5650000D02*
X5900000Y-5600000D01*
X5850000Y-5550000D01*
X5800000Y-5600000D01*
X5850000Y-5650000D01*
X6104000Y-5650000D02*
X6154000Y-5600000D01*
X6104000Y-5550000D01*
X6054000Y-5600000D01*
X6104000Y-5650000D01*
X6358000Y-5650000D02*
X6408000Y-5600000D01*
X6358000Y-5550000D01*
X6308000Y-5600000D01*
X6358000Y-5650000D01*
X7050000Y-5647500D02*
X7100000Y-5597500D01*
X7050000Y-5547500D01*
X7000000Y-5597500D01*
X7050000Y-5647500D01*
X7304000Y-5647500D02*
X7354000Y-5597500D01*
X7304000Y-5547500D01*
X7254000Y-5597500D01*
X7304000Y-5647500D01*
X7558000Y-5647500D02*
X7608000Y-5597500D01*
X7558000Y-5547500D01*
X7508000Y-5597500D01*
X7558000Y-5647500D01*
X7812000Y-5647500D02*
X7862000Y-5597500D01*
X7812000Y-5547500D01*
X7762000Y-5597500D01*
X7812000Y-5647500D01*
X10600000Y-5650000D02*
X10650000Y-5600000D01*
X10600000Y-5550000D01*
X10550000Y-5600000D01*
X10600000Y-5650000D01*
X10854000Y-5650000D02*
X10904000Y-5600000D01*
X10854000Y-5550000D01*
X10804000Y-5600000D01*
X10854000Y-5650000D01*
X11108000Y-5650000D02*
X11158000Y-5600000D01*
X11108000Y-5550000D01*
X11058000Y-5600000D01*
X11108000Y-5650000D01*
X11612000Y-5650000D02*
X11662000Y-5600000D01*
X11612000Y-5550000D01*
X11562000Y-5600000D01*
X11612000Y-5650000D01*
X11790000Y-9053232D02*
X11840000Y-9003232D01*
X11790000Y-8953232D01*
X11740000Y-9003232D01*
X11790000Y-9053232D01*
X11790000Y-9553232D02*
X11840000Y-9503232D01*
X11790000Y-9453232D01*
X11740000Y-9503232D01*
X11790000Y-9553232D01*
X11866000Y-5650000D02*
X11916000Y-5600000D01*
X11866000Y-5550000D01*
X11816000Y-5600000D01*
X11866000Y-5650000D01*
X12120000Y-5650000D02*
X12170000Y-5600000D01*
X12120000Y-5550000D01*
X12070000Y-5600000D01*
X12120000Y-5650000D01*
X12617500Y-5647500D02*
X12667500Y-5597500D01*
X12617500Y-5547500D01*
X12567500Y-5597500D01*
X12617500Y-5647500D01*
X12871500Y-5647500D02*
X12921500Y-5597500D01*
X12871500Y-5547500D01*
X12821500Y-5597500D01*
X12871500Y-5647500D01*
X13125500Y-5647500D02*
X13175500Y-5597500D01*
X13125500Y-5547500D01*
X13075500Y-5597500D01*
X13125500Y-5647500D01*
X13500000Y-6950000D02*
X13550000Y-6900000D01*
X13500000Y-6850000D01*
X13450000Y-6900000D01*
X13500000Y-6950000D01*
X13500000Y-7204000D02*
X13550000Y-7154000D01*
X13500000Y-7104000D01*
X13450000Y-7154000D01*
X13500000Y-7204000D01*
X13500000Y-7458000D02*
X13550000Y-7408000D01*
X13500000Y-7358000D01*
X13450000Y-7408000D01*
X13500000Y-7458000D01*
X13500000Y-7712000D02*
X13550000Y-7662000D01*
X13500000Y-7612000D01*
X13450000Y-7662000D01*
X13500000Y-7712000D01*
X13500000Y-7966000D02*
X13550000Y-7916000D01*
X13500000Y-7866000D01*
X13450000Y-7916000D01*
X13500000Y-7966000D01*
D16*
X1860000Y-9980000D02*
X1970000Y-10090000D01*
X1970000Y-9980000D02*
X1860000Y-10090000D01*
X1970000Y-10035000D02*
G75*
G03*
X1970000Y-10035000I-55000J0D01*
G01*
X1860000Y-10630000D02*
X1970000Y-10740000D01*
X1970000Y-10630000D02*
X1860000Y-10740000D01*
X1970000Y-10685000D02*
G75*
G03*
X1970000Y-10685000I-55000J0D01*
G01*
X2310000Y-9980000D02*
X2420000Y-10090000D01*
X2420000Y-9980000D02*
X2310000Y-10090000D01*
X2420000Y-10035000D02*
G75*
G03*
X2420000Y-10035000I-55000J0D01*
G01*
X2310000Y-10630000D02*
X2420000Y-10740000D01*
X2420000Y-10630000D02*
X2310000Y-10740000D01*
X2420000Y-10685000D02*
G75*
G03*
X2420000Y-10685000I-55000J0D01*
G01*
X6274000Y-6683000D02*
X6384000Y-6793000D01*
X6384000Y-6683000D02*
X6274000Y-6793000D01*
X6384000Y-6738000D02*
G75*
G03*
X6384000Y-6738000I-55000J0D01*
G01*
X6274000Y-8207000D02*
X6384000Y-8317000D01*
X6384000Y-8207000D02*
X6274000Y-8317000D01*
X6384000Y-8262000D02*
G75*
G03*
X6384000Y-8262000I-55000J0D01*
G01*
X6528000Y-6683000D02*
X6638000Y-6793000D01*
X6638000Y-6683000D02*
X6528000Y-6793000D01*
X6638000Y-6738000D02*
G75*
G03*
X6638000Y-6738000I-55000J0D01*
G01*
X6528000Y-8207000D02*
X6638000Y-8317000D01*
X6638000Y-8207000D02*
X6528000Y-8317000D01*
X6638000Y-8262000D02*
G75*
G03*
X6638000Y-8262000I-55000J0D01*
G01*
X6782000Y-6683000D02*
X6892000Y-6793000D01*
X6892000Y-6683000D02*
X6782000Y-6793000D01*
X6892000Y-6738000D02*
G75*
G03*
X6892000Y-6738000I-55000J0D01*
G01*
X6782000Y-8207000D02*
X6892000Y-8317000D01*
X6892000Y-8207000D02*
X6782000Y-8317000D01*
X6892000Y-8262000D02*
G75*
G03*
X6892000Y-8262000I-55000J0D01*
G01*
X7036000Y-6683000D02*
X7146000Y-6793000D01*
X7146000Y-6683000D02*
X7036000Y-6793000D01*
X7146000Y-6738000D02*
G75*
G03*
X7146000Y-6738000I-55000J0D01*
G01*
X7036000Y-8207000D02*
X7146000Y-8317000D01*
X7146000Y-8207000D02*
X7036000Y-8317000D01*
X7146000Y-8262000D02*
G75*
G03*
X7146000Y-8262000I-55000J0D01*
G01*
X7290000Y-6683000D02*
X7400000Y-6793000D01*
X7400000Y-6683000D02*
X7290000Y-6793000D01*
X7400000Y-6738000D02*
G75*
G03*
X7400000Y-6738000I-55000J0D01*
G01*
X7290000Y-8207000D02*
X7400000Y-8317000D01*
X7400000Y-8207000D02*
X7290000Y-8317000D01*
X7400000Y-8262000D02*
G75*
G03*
X7400000Y-8262000I-55000J0D01*
G01*
X7544000Y-6683000D02*
X7654000Y-6793000D01*
X7654000Y-6683000D02*
X7544000Y-6793000D01*
X7654000Y-6738000D02*
G75*
G03*
X7654000Y-6738000I-55000J0D01*
G01*
X7544000Y-6937000D02*
X7654000Y-7047000D01*
X7654000Y-6937000D02*
X7544000Y-7047000D01*
X7654000Y-6992000D02*
G75*
G03*
X7654000Y-6992000I-55000J0D01*
G01*
X7544000Y-8207000D02*
X7654000Y-8317000D01*
X7654000Y-8207000D02*
X7544000Y-8317000D01*
X7654000Y-8262000D02*
G75*
G03*
X7654000Y-8262000I-55000J0D01*
G01*
X7798000Y-6683000D02*
X7908000Y-6793000D01*
X7908000Y-6683000D02*
X7798000Y-6793000D01*
X7908000Y-6738000D02*
G75*
G03*
X7908000Y-6738000I-55000J0D01*
G01*
X7798000Y-8207000D02*
X7908000Y-8317000D01*
X7908000Y-8207000D02*
X7798000Y-8317000D01*
X7908000Y-8262000D02*
G75*
G03*
X7908000Y-8262000I-55000J0D01*
G01*
X8052000Y-6683000D02*
X8162000Y-6793000D01*
X8162000Y-6683000D02*
X8052000Y-6793000D01*
X8162000Y-6738000D02*
G75*
G03*
X8162000Y-6738000I-55000J0D01*
G01*
X8052000Y-8207000D02*
X8162000Y-8317000D01*
X8162000Y-8207000D02*
X8052000Y-8317000D01*
X8162000Y-8262000D02*
G75*
G03*
X8162000Y-8262000I-55000J0D01*
G01*
X8306000Y-6683000D02*
X8416000Y-6793000D01*
X8416000Y-6683000D02*
X8306000Y-6793000D01*
X8416000Y-6738000D02*
G75*
G03*
X8416000Y-6738000I-55000J0D01*
G01*
X8306000Y-8207000D02*
X8416000Y-8317000D01*
X8416000Y-8207000D02*
X8306000Y-8317000D01*
X8416000Y-8262000D02*
G75*
G03*
X8416000Y-8262000I-55000J0D01*
G01*
X8560000Y-6683000D02*
X8670000Y-6793000D01*
X8670000Y-6683000D02*
X8560000Y-6793000D01*
X8670000Y-6738000D02*
G75*
G03*
X8670000Y-6738000I-55000J0D01*
G01*
X8560000Y-8207000D02*
X8670000Y-8317000D01*
X8670000Y-8207000D02*
X8560000Y-8317000D01*
X8670000Y-8262000D02*
G75*
G03*
X8670000Y-8262000I-55000J0D01*
G01*
X8814000Y-6683000D02*
X8924000Y-6793000D01*
X8924000Y-6683000D02*
X8814000Y-6793000D01*
X8924000Y-6738000D02*
G75*
G03*
X8924000Y-6738000I-55000J0D01*
G01*
X8814000Y-8207000D02*
X8924000Y-8317000D01*
X8924000Y-8207000D02*
X8814000Y-8317000D01*
X8924000Y-8262000D02*
G75*
G03*
X8924000Y-8262000I-55000J0D01*
G01*
X9068000Y-6683000D02*
X9178000Y-6793000D01*
X9178000Y-6683000D02*
X9068000Y-6793000D01*
X9178000Y-6738000D02*
G75*
G03*
X9178000Y-6738000I-55000J0D01*
G01*
X9068000Y-8207000D02*
X9178000Y-8317000D01*
X9178000Y-8207000D02*
X9068000Y-8317000D01*
X9178000Y-8262000D02*
G75*
G03*
X9178000Y-8262000I-55000J0D01*
G01*
X9322000Y-6683000D02*
X9432000Y-6793000D01*
X9432000Y-6683000D02*
X9322000Y-6793000D01*
X9432000Y-6738000D02*
G75*
G03*
X9432000Y-6738000I-55000J0D01*
G01*
X9322000Y-8207000D02*
X9432000Y-8317000D01*
X9432000Y-8207000D02*
X9322000Y-8317000D01*
X9432000Y-8262000D02*
G75*
G03*
X9432000Y-8262000I-55000J0D01*
G01*
X9576000Y-6683000D02*
X9686000Y-6793000D01*
X9686000Y-6683000D02*
X9576000Y-6793000D01*
X9686000Y-6738000D02*
G75*
G03*
X9686000Y-6738000I-55000J0D01*
G01*
X9576000Y-8207000D02*
X9686000Y-8317000D01*
X9686000Y-8207000D02*
X9576000Y-8317000D01*
X9686000Y-8262000D02*
G75*
G03*
X9686000Y-8262000I-55000J0D01*
G01*
X9830000Y-6683000D02*
X9940000Y-6793000D01*
X9940000Y-6683000D02*
X9830000Y-6793000D01*
X9940000Y-6738000D02*
G75*
G03*
X9940000Y-6738000I-55000J0D01*
G01*
X9830000Y-8207000D02*
X9940000Y-8317000D01*
X9940000Y-8207000D02*
X9830000Y-8317000D01*
X9940000Y-8262000D02*
G75*
G03*
X9940000Y-8262000I-55000J0D01*
G01*
X10084000Y-6683000D02*
X10194000Y-6793000D01*
X10194000Y-6683000D02*
X10084000Y-6793000D01*
X10194000Y-6738000D02*
G75*
G03*
X10194000Y-6738000I-55000J0D01*
G01*
X10084000Y-8207000D02*
X10194000Y-8317000D01*
X10194000Y-8207000D02*
X10084000Y-8317000D01*
X10194000Y-8262000D02*
G75*
G03*
X10194000Y-8262000I-55000J0D01*
G01*
X10338000Y-6683000D02*
X10448000Y-6793000D01*
X10448000Y-6683000D02*
X10338000Y-6793000D01*
X10448000Y-6738000D02*
G75*
G03*
X10448000Y-6738000I-55000J0D01*
G01*
X10338000Y-8207000D02*
X10448000Y-8317000D01*
X10448000Y-8207000D02*
X10338000Y-8317000D01*
X10448000Y-8262000D02*
G75*
G03*
X10448000Y-8262000I-55000J0D01*
G01*
X10592000Y-6683000D02*
X10702000Y-6793000D01*
X10702000Y-6683000D02*
X10592000Y-6793000D01*
X10702000Y-6738000D02*
G75*
G03*
X10702000Y-6738000I-55000J0D01*
G01*
X10592000Y-8207000D02*
X10702000Y-8317000D01*
X10702000Y-8207000D02*
X10592000Y-8317000D01*
X10702000Y-8262000D02*
G75*
G03*
X10702000Y-8262000I-55000J0D01*
G01*
X10846000Y-6683000D02*
X10956000Y-6793000D01*
X10956000Y-6683000D02*
X10846000Y-6793000D01*
X10956000Y-6738000D02*
G75*
G03*
X10956000Y-6738000I-55000J0D01*
G01*
X10846000Y-8207000D02*
X10956000Y-8317000D01*
X10956000Y-8207000D02*
X10846000Y-8317000D01*
X10956000Y-8262000D02*
G75*
G03*
X10956000Y-8262000I-55000J0D01*
G01*
X11100000Y-6683000D02*
X11210000Y-6793000D01*
X11210000Y-6683000D02*
X11100000Y-6793000D01*
X11210000Y-6738000D02*
G75*
G03*
X11210000Y-6738000I-55000J0D01*
G01*
X11100000Y-8207000D02*
X11210000Y-8317000D01*
X11210000Y-8207000D02*
X11100000Y-8317000D01*
X11210000Y-8262000D02*
G75*
G03*
X11210000Y-8262000I-55000J0D01*
G01*
X11354000Y-6683000D02*
X11464000Y-6793000D01*
X11464000Y-6683000D02*
X11354000Y-6793000D01*
X11464000Y-6738000D02*
G75*
G03*
X11464000Y-6738000I-55000J0D01*
G01*
X11354000Y-8207000D02*
X11464000Y-8317000D01*
X11464000Y-8207000D02*
X11354000Y-8317000D01*
X11464000Y-8262000D02*
G75*
G03*
X11464000Y-8262000I-55000J0D01*
G01*
X11608000Y-6683000D02*
X11718000Y-6793000D01*
X11718000Y-6683000D02*
X11608000Y-6793000D01*
X11718000Y-6738000D02*
G75*
G03*
X11718000Y-6738000I-55000J0D01*
G01*
X11608000Y-8207000D02*
X11718000Y-8317000D01*
X11718000Y-8207000D02*
X11608000Y-8317000D01*
X11718000Y-8262000D02*
G75*
G03*
X11718000Y-8262000I-55000J0D01*
G01*
X11862000Y-6683000D02*
X11972000Y-6793000D01*
X11972000Y-6683000D02*
X11862000Y-6793000D01*
X11972000Y-6738000D02*
G75*
G03*
X11972000Y-6738000I-55000J0D01*
G01*
X11862000Y-7953000D02*
X11972000Y-8063000D01*
X11972000Y-7953000D02*
X11862000Y-8063000D01*
X11972000Y-8008000D02*
G75*
G03*
X11972000Y-8008000I-55000J0D01*
G01*
X11862000Y-8207000D02*
X11972000Y-8317000D01*
X11972000Y-8207000D02*
X11862000Y-8317000D01*
X11972000Y-8262000D02*
G75*
G03*
X11972000Y-8262000I-55000J0D01*
G01*
X12116000Y-6683000D02*
X12226000Y-6793000D01*
X12226000Y-6683000D02*
X12116000Y-6793000D01*
X12226000Y-6738000D02*
G75*
G03*
X12226000Y-6738000I-55000J0D01*
G01*
X12116000Y-8207000D02*
X12226000Y-8317000D01*
X12226000Y-8207000D02*
X12116000Y-8317000D01*
X12226000Y-8262000D02*
G75*
G03*
X12226000Y-8262000I-55000J0D01*
G01*
D17*
X3101500Y-6576500D02*
X3228500Y-6703500D01*
X3228500Y-6576500D02*
X3101500Y-6703500D01*
X3165000Y-6576500D02*
X3165000Y-6703500D01*
X3101500Y-6640000D02*
X3228500Y-6640000D01*
D11*
X2967000Y-6703500D02*
X3363000Y-6703500D01*
X3363000Y-6703500D02*
G75*
G03*
X3363000Y-6576500I0J63500D01*
G01*
X3363000Y-6576500D02*
X2967000Y-6576500D01*
X2967000Y-6576500D02*
G75*
G03*
X2967000Y-6703500I0J-63500D01*
G01*
D17*
X3891500Y-6576500D02*
X4018500Y-6703500D01*
X4018500Y-6576500D02*
X3891500Y-6703500D01*
X3955000Y-6576500D02*
X3955000Y-6703500D01*
X3891500Y-6640000D02*
X4018500Y-6640000D01*
D11*
X3757000Y-6703500D02*
X4153000Y-6703500D01*
X4153000Y-6703500D02*
G75*
G03*
X4153000Y-6576500I0J63500D01*
G01*
X4153000Y-6576500D02*
X3757000Y-6576500D01*
X3757000Y-6576500D02*
G75*
G03*
X3757000Y-6703500I0J-63500D01*
G01*
D18*
X1850000Y-5000000D02*
X2350000Y-5500000D01*
X2350000Y-5000000D02*
X1850000Y-5500000D01*
X2276778Y-5426778D02*
X2276778Y-5073222D01*
X1923222Y-5073222D01*
X1923222Y-5426778D01*
X2276778Y-5426778D01*
X1850000Y-12150000D02*
X2350000Y-12650000D01*
X2350000Y-12150000D02*
X1850000Y-12650000D01*
X2276778Y-12576778D02*
X2276778Y-12223222D01*
X1923222Y-12223222D01*
X1923222Y-12576778D01*
X2276778Y-12576778D01*
X13600000Y-5000000D02*
X14100000Y-5500000D01*
X14100000Y-5000000D02*
X13600000Y-5500000D01*
X14026778Y-5426778D02*
X14026778Y-5073222D01*
X13673222Y-5073222D01*
X13673222Y-5426778D01*
X14026778Y-5426778D01*
X13600000Y-12150000D02*
X14100000Y-12650000D01*
X14100000Y-12150000D02*
X13600000Y-12650000D01*
X14026778Y-12576778D02*
X14026778Y-12223222D01*
X13673222Y-12223222D01*
X13673222Y-12576778D01*
X14026778Y-12576778D01*
D11*
X1745119Y-13315024D02*
X1745119Y-13115024D01*
X1745119Y-13115024D02*
X1792738Y-13115024D01*
X1792738Y-13115024D02*
X1821309Y-13124548D01*
X1821309Y-13124548D02*
X1840357Y-13143595D01*
X1840357Y-13143595D02*
X1849881Y-13162643D01*
X1849881Y-13162643D02*
X1859405Y-13200738D01*
X1859405Y-13200738D02*
X1859405Y-13229309D01*
X1859405Y-13229309D02*
X1849881Y-13267405D01*
X1849881Y-13267405D02*
X1840357Y-13286452D01*
X1840357Y-13286452D02*
X1821309Y-13305500D01*
X1821309Y-13305500D02*
X1792738Y-13315024D01*
X1792738Y-13315024D02*
X1745119Y-13315024D01*
X1945119Y-13315024D02*
X1945119Y-13181690D01*
X1945119Y-13219786D02*
X1954643Y-13200738D01*
X1954643Y-13200738D02*
X1964167Y-13191214D01*
X1964167Y-13191214D02*
X1983214Y-13181690D01*
X1983214Y-13181690D02*
X2002262Y-13181690D01*
X2068928Y-13315024D02*
X2068928Y-13181690D01*
X2068928Y-13115024D02*
X2059405Y-13124548D01*
X2059405Y-13124548D02*
X2068928Y-13134071D01*
X2068928Y-13134071D02*
X2078452Y-13124548D01*
X2078452Y-13124548D02*
X2068928Y-13115024D01*
X2068928Y-13115024D02*
X2068928Y-13134071D01*
X2192738Y-13315024D02*
X2173690Y-13305500D01*
X2173690Y-13305500D02*
X2164167Y-13286452D01*
X2164167Y-13286452D02*
X2164167Y-13115024D01*
X2297500Y-13315024D02*
X2278452Y-13305500D01*
X2278452Y-13305500D02*
X2268929Y-13286452D01*
X2268929Y-13286452D02*
X2268929Y-13115024D01*
X2526071Y-13315024D02*
X2526071Y-13115024D01*
X2526071Y-13115024D02*
X2592738Y-13257881D01*
X2592738Y-13257881D02*
X2659405Y-13115024D01*
X2659405Y-13115024D02*
X2659405Y-13315024D01*
X2840357Y-13315024D02*
X2840357Y-13210262D01*
X2840357Y-13210262D02*
X2830833Y-13191214D01*
X2830833Y-13191214D02*
X2811786Y-13181690D01*
X2811786Y-13181690D02*
X2773690Y-13181690D01*
X2773690Y-13181690D02*
X2754643Y-13191214D01*
X2840357Y-13305500D02*
X2821309Y-13315024D01*
X2821309Y-13315024D02*
X2773690Y-13315024D01*
X2773690Y-13315024D02*
X2754643Y-13305500D01*
X2754643Y-13305500D02*
X2745119Y-13286452D01*
X2745119Y-13286452D02*
X2745119Y-13267405D01*
X2745119Y-13267405D02*
X2754643Y-13248357D01*
X2754643Y-13248357D02*
X2773690Y-13238833D01*
X2773690Y-13238833D02*
X2821309Y-13238833D01*
X2821309Y-13238833D02*
X2840357Y-13229309D01*
X2935595Y-13181690D02*
X2935595Y-13381690D01*
X2935595Y-13191214D02*
X2954643Y-13181690D01*
X2954643Y-13181690D02*
X2992738Y-13181690D01*
X2992738Y-13181690D02*
X3011786Y-13191214D01*
X3011786Y-13191214D02*
X3021309Y-13200738D01*
X3021309Y-13200738D02*
X3030833Y-13219786D01*
X3030833Y-13219786D02*
X3030833Y-13276928D01*
X3030833Y-13276928D02*
X3021309Y-13295976D01*
X3021309Y-13295976D02*
X3011786Y-13305500D01*
X3011786Y-13305500D02*
X2992738Y-13315024D01*
X2992738Y-13315024D02*
X2954643Y-13315024D01*
X2954643Y-13315024D02*
X2935595Y-13305500D01*
X3116548Y-13295976D02*
X3126071Y-13305500D01*
X3126071Y-13305500D02*
X3116548Y-13315024D01*
X3116548Y-13315024D02*
X3107024Y-13305500D01*
X3107024Y-13305500D02*
X3116548Y-13295976D01*
X3116548Y-13295976D02*
X3116548Y-13315024D01*
X3116548Y-13191214D02*
X3126071Y-13200738D01*
X3126071Y-13200738D02*
X3116548Y-13210262D01*
X3116548Y-13210262D02*
X3107024Y-13200738D01*
X3107024Y-13200738D02*
X3116548Y-13191214D01*
X3116548Y-13191214D02*
X3116548Y-13210262D01*
D12*
X1457500Y-13622500D02*
X1497500Y-13662500D01*
X1497500Y-13622500D02*
X1457500Y-13662500D01*
D11*
X1783214Y-13535024D02*
X1802262Y-13535024D01*
X1802262Y-13535024D02*
X1821309Y-13544548D01*
X1821309Y-13544548D02*
X1830833Y-13554071D01*
X1830833Y-13554071D02*
X1840357Y-13573119D01*
X1840357Y-13573119D02*
X1849881Y-13611214D01*
X1849881Y-13611214D02*
X1849881Y-13658833D01*
X1849881Y-13658833D02*
X1840357Y-13696928D01*
X1840357Y-13696928D02*
X1830833Y-13715976D01*
X1830833Y-13715976D02*
X1821309Y-13725500D01*
X1821309Y-13725500D02*
X1802262Y-13735024D01*
X1802262Y-13735024D02*
X1783214Y-13735024D01*
X1783214Y-13735024D02*
X1764167Y-13725500D01*
X1764167Y-13725500D02*
X1754643Y-13715976D01*
X1754643Y-13715976D02*
X1745119Y-13696928D01*
X1745119Y-13696928D02*
X1735595Y-13658833D01*
X1735595Y-13658833D02*
X1735595Y-13611214D01*
X1735595Y-13611214D02*
X1745119Y-13573119D01*
X1745119Y-13573119D02*
X1754643Y-13554071D01*
X1754643Y-13554071D02*
X1764167Y-13544548D01*
X1764167Y-13544548D02*
X1783214Y-13535024D01*
X1935595Y-13715976D02*
X1945119Y-13725500D01*
X1945119Y-13725500D02*
X1935595Y-13735024D01*
X1935595Y-13735024D02*
X1926071Y-13725500D01*
X1926071Y-13725500D02*
X1935595Y-13715976D01*
X1935595Y-13715976D02*
X1935595Y-13735024D01*
X2116548Y-13601690D02*
X2116548Y-13735024D01*
X2068928Y-13525500D02*
X2021309Y-13668357D01*
X2021309Y-13668357D02*
X2145119Y-13668357D01*
X2259405Y-13535024D02*
X2278452Y-13535024D01*
X2278452Y-13535024D02*
X2297500Y-13544548D01*
X2297500Y-13544548D02*
X2307024Y-13554071D01*
X2307024Y-13554071D02*
X2316548Y-13573119D01*
X2316548Y-13573119D02*
X2326071Y-13611214D01*
X2326071Y-13611214D02*
X2326071Y-13658833D01*
X2326071Y-13658833D02*
X2316548Y-13696928D01*
X2316548Y-13696928D02*
X2307024Y-13715976D01*
X2307024Y-13715976D02*
X2297500Y-13725500D01*
X2297500Y-13725500D02*
X2278452Y-13735024D01*
X2278452Y-13735024D02*
X2259405Y-13735024D01*
X2259405Y-13735024D02*
X2240357Y-13725500D01*
X2240357Y-13725500D02*
X2230833Y-13715976D01*
X2230833Y-13715976D02*
X2221310Y-13696928D01*
X2221310Y-13696928D02*
X2211786Y-13658833D01*
X2211786Y-13658833D02*
X2211786Y-13611214D01*
X2211786Y-13611214D02*
X2221310Y-13573119D01*
X2221310Y-13573119D02*
X2230833Y-13554071D01*
X2230833Y-13554071D02*
X2240357Y-13544548D01*
X2240357Y-13544548D02*
X2259405Y-13535024D01*
X2449881Y-13535024D02*
X2468929Y-13535024D01*
X2468929Y-13535024D02*
X2487976Y-13544548D01*
X2487976Y-13544548D02*
X2497500Y-13554071D01*
X2497500Y-13554071D02*
X2507024Y-13573119D01*
X2507024Y-13573119D02*
X2516548Y-13611214D01*
X2516548Y-13611214D02*
X2516548Y-13658833D01*
X2516548Y-13658833D02*
X2507024Y-13696928D01*
X2507024Y-13696928D02*
X2497500Y-13715976D01*
X2497500Y-13715976D02*
X2487976Y-13725500D01*
X2487976Y-13725500D02*
X2468929Y-13735024D01*
X2468929Y-13735024D02*
X2449881Y-13735024D01*
X2449881Y-13735024D02*
X2430833Y-13725500D01*
X2430833Y-13725500D02*
X2421310Y-13715976D01*
X2421310Y-13715976D02*
X2411786Y-13696928D01*
X2411786Y-13696928D02*
X2402262Y-13658833D01*
X2402262Y-13658833D02*
X2402262Y-13611214D01*
X2402262Y-13611214D02*
X2411786Y-13573119D01*
X2411786Y-13573119D02*
X2421310Y-13554071D01*
X2421310Y-13554071D02*
X2430833Y-13544548D01*
X2430833Y-13544548D02*
X2449881Y-13535024D01*
X2602262Y-13735024D02*
X2602262Y-13601690D01*
X2602262Y-13620738D02*
X2611786Y-13611214D01*
X2611786Y-13611214D02*
X2630833Y-13601690D01*
X2630833Y-13601690D02*
X2659405Y-13601690D01*
X2659405Y-13601690D02*
X2678452Y-13611214D01*
X2678452Y-13611214D02*
X2687976Y-13630262D01*
X2687976Y-13630262D02*
X2687976Y-13735024D01*
X2687976Y-13630262D02*
X2697500Y-13611214D01*
X2697500Y-13611214D02*
X2716548Y-13601690D01*
X2716548Y-13601690D02*
X2745119Y-13601690D01*
X2745119Y-13601690D02*
X2764167Y-13611214D01*
X2764167Y-13611214D02*
X2773691Y-13630262D01*
X2773691Y-13630262D02*
X2773691Y-13735024D01*
X2868929Y-13735024D02*
X2868929Y-13601690D01*
X2868929Y-13620738D02*
X2878452Y-13611214D01*
X2878452Y-13611214D02*
X2897500Y-13601690D01*
X2897500Y-13601690D02*
X2926071Y-13601690D01*
X2926071Y-13601690D02*
X2945119Y-13611214D01*
X2945119Y-13611214D02*
X2954643Y-13630262D01*
X2954643Y-13630262D02*
X2954643Y-13735024D01*
X2954643Y-13630262D02*
X2964167Y-13611214D01*
X2964167Y-13611214D02*
X2983214Y-13601690D01*
X2983214Y-13601690D02*
X3011786Y-13601690D01*
X3011786Y-13601690D02*
X3030833Y-13611214D01*
X3030833Y-13611214D02*
X3040357Y-13630262D01*
X3040357Y-13630262D02*
X3040357Y-13735024D01*
X3430833Y-13525500D02*
X3259405Y-13782643D01*
X3687976Y-13535024D02*
X3707024Y-13535024D01*
X3707024Y-13535024D02*
X3726072Y-13544548D01*
X3726072Y-13544548D02*
X3735595Y-13554071D01*
X3735595Y-13554071D02*
X3745119Y-13573119D01*
X3745119Y-13573119D02*
X3754643Y-13611214D01*
X3754643Y-13611214D02*
X3754643Y-13658833D01*
X3754643Y-13658833D02*
X3745119Y-13696928D01*
X3745119Y-13696928D02*
X3735595Y-13715976D01*
X3735595Y-13715976D02*
X3726072Y-13725500D01*
X3726072Y-13725500D02*
X3707024Y-13735024D01*
X3707024Y-13735024D02*
X3687976Y-13735024D01*
X3687976Y-13735024D02*
X3668929Y-13725500D01*
X3668929Y-13725500D02*
X3659405Y-13715976D01*
X3659405Y-13715976D02*
X3649881Y-13696928D01*
X3649881Y-13696928D02*
X3640357Y-13658833D01*
X3640357Y-13658833D02*
X3640357Y-13611214D01*
X3640357Y-13611214D02*
X3649881Y-13573119D01*
X3649881Y-13573119D02*
X3659405Y-13554071D01*
X3659405Y-13554071D02*
X3668929Y-13544548D01*
X3668929Y-13544548D02*
X3687976Y-13535024D01*
X3840357Y-13715976D02*
X3849881Y-13725500D01*
X3849881Y-13725500D02*
X3840357Y-13735024D01*
X3840357Y-13735024D02*
X3830833Y-13725500D01*
X3830833Y-13725500D02*
X3840357Y-13715976D01*
X3840357Y-13715976D02*
X3840357Y-13735024D01*
X3973691Y-13535024D02*
X3992738Y-13535024D01*
X3992738Y-13535024D02*
X4011786Y-13544548D01*
X4011786Y-13544548D02*
X4021310Y-13554071D01*
X4021310Y-13554071D02*
X4030833Y-13573119D01*
X4030833Y-13573119D02*
X4040357Y-13611214D01*
X4040357Y-13611214D02*
X4040357Y-13658833D01*
X4040357Y-13658833D02*
X4030833Y-13696928D01*
X4030833Y-13696928D02*
X4021310Y-13715976D01*
X4021310Y-13715976D02*
X4011786Y-13725500D01*
X4011786Y-13725500D02*
X3992738Y-13735024D01*
X3992738Y-13735024D02*
X3973691Y-13735024D01*
X3973691Y-13735024D02*
X3954643Y-13725500D01*
X3954643Y-13725500D02*
X3945119Y-13715976D01*
X3945119Y-13715976D02*
X3935595Y-13696928D01*
X3935595Y-13696928D02*
X3926072Y-13658833D01*
X3926072Y-13658833D02*
X3926072Y-13611214D01*
X3926072Y-13611214D02*
X3935595Y-13573119D01*
X3935595Y-13573119D02*
X3945119Y-13554071D01*
X3945119Y-13554071D02*
X3954643Y-13544548D01*
X3954643Y-13544548D02*
X3973691Y-13535024D01*
X4230834Y-13735024D02*
X4116548Y-13735024D01*
X4173691Y-13735024D02*
X4173691Y-13535024D01*
X4173691Y-13535024D02*
X4154643Y-13563595D01*
X4154643Y-13563595D02*
X4135595Y-13582643D01*
X4135595Y-13582643D02*
X4116548Y-13592167D01*
X4411786Y-13535024D02*
X4316548Y-13535024D01*
X4316548Y-13535024D02*
X4307024Y-13630262D01*
X4307024Y-13630262D02*
X4316548Y-13620738D01*
X4316548Y-13620738D02*
X4335595Y-13611214D01*
X4335595Y-13611214D02*
X4383215Y-13611214D01*
X4383215Y-13611214D02*
X4402262Y-13620738D01*
X4402262Y-13620738D02*
X4411786Y-13630262D01*
X4411786Y-13630262D02*
X4421310Y-13649309D01*
X4421310Y-13649309D02*
X4421310Y-13696928D01*
X4421310Y-13696928D02*
X4411786Y-13715976D01*
X4411786Y-13715976D02*
X4402262Y-13725500D01*
X4402262Y-13725500D02*
X4383215Y-13735024D01*
X4383215Y-13735024D02*
X4335595Y-13735024D01*
X4335595Y-13735024D02*
X4316548Y-13725500D01*
X4316548Y-13725500D02*
X4307024Y-13715976D01*
X4487976Y-13535024D02*
X4621310Y-13535024D01*
X4621310Y-13535024D02*
X4535595Y-13735024D01*
X4687976Y-13535024D02*
X4687976Y-13573119D01*
X4764167Y-13535024D02*
X4764167Y-13573119D01*
X5059405Y-13811214D02*
X5049881Y-13801690D01*
X5049881Y-13801690D02*
X5030834Y-13773119D01*
X5030834Y-13773119D02*
X5021310Y-13754071D01*
X5021310Y-13754071D02*
X5011786Y-13725500D01*
X5011786Y-13725500D02*
X5002262Y-13677881D01*
X5002262Y-13677881D02*
X5002262Y-13639786D01*
X5002262Y-13639786D02*
X5011786Y-13592167D01*
X5011786Y-13592167D02*
X5021310Y-13563595D01*
X5021310Y-13563595D02*
X5030834Y-13544548D01*
X5030834Y-13544548D02*
X5049881Y-13515976D01*
X5049881Y-13515976D02*
X5059405Y-13506452D01*
X5240357Y-13735024D02*
X5126072Y-13735024D01*
X5183215Y-13735024D02*
X5183215Y-13535024D01*
X5183215Y-13535024D02*
X5164167Y-13563595D01*
X5164167Y-13563595D02*
X5145119Y-13582643D01*
X5145119Y-13582643D02*
X5126072Y-13592167D01*
X5307024Y-13535024D02*
X5430834Y-13535024D01*
X5430834Y-13535024D02*
X5364167Y-13611214D01*
X5364167Y-13611214D02*
X5392738Y-13611214D01*
X5392738Y-13611214D02*
X5411786Y-13620738D01*
X5411786Y-13620738D02*
X5421310Y-13630262D01*
X5421310Y-13630262D02*
X5430834Y-13649309D01*
X5430834Y-13649309D02*
X5430834Y-13696928D01*
X5430834Y-13696928D02*
X5421310Y-13715976D01*
X5421310Y-13715976D02*
X5411786Y-13725500D01*
X5411786Y-13725500D02*
X5392738Y-13735024D01*
X5392738Y-13735024D02*
X5335596Y-13735024D01*
X5335596Y-13735024D02*
X5316548Y-13725500D01*
X5316548Y-13725500D02*
X5307024Y-13715976D01*
X5545119Y-13620738D02*
X5526072Y-13611214D01*
X5526072Y-13611214D02*
X5516548Y-13601690D01*
X5516548Y-13601690D02*
X5507024Y-13582643D01*
X5507024Y-13582643D02*
X5507024Y-13573119D01*
X5507024Y-13573119D02*
X5516548Y-13554071D01*
X5516548Y-13554071D02*
X5526072Y-13544548D01*
X5526072Y-13544548D02*
X5545119Y-13535024D01*
X5545119Y-13535024D02*
X5583215Y-13535024D01*
X5583215Y-13535024D02*
X5602262Y-13544548D01*
X5602262Y-13544548D02*
X5611786Y-13554071D01*
X5611786Y-13554071D02*
X5621310Y-13573119D01*
X5621310Y-13573119D02*
X5621310Y-13582643D01*
X5621310Y-13582643D02*
X5611786Y-13601690D01*
X5611786Y-13601690D02*
X5602262Y-13611214D01*
X5602262Y-13611214D02*
X5583215Y-13620738D01*
X5583215Y-13620738D02*
X5545119Y-13620738D01*
X5545119Y-13620738D02*
X5526072Y-13630262D01*
X5526072Y-13630262D02*
X5516548Y-13639786D01*
X5516548Y-13639786D02*
X5507024Y-13658833D01*
X5507024Y-13658833D02*
X5507024Y-13696928D01*
X5507024Y-13696928D02*
X5516548Y-13715976D01*
X5516548Y-13715976D02*
X5526072Y-13725500D01*
X5526072Y-13725500D02*
X5545119Y-13735024D01*
X5545119Y-13735024D02*
X5583215Y-13735024D01*
X5583215Y-13735024D02*
X5602262Y-13725500D01*
X5602262Y-13725500D02*
X5611786Y-13715976D01*
X5611786Y-13715976D02*
X5621310Y-13696928D01*
X5621310Y-13696928D02*
X5621310Y-13658833D01*
X5621310Y-13658833D02*
X5611786Y-13639786D01*
X5611786Y-13639786D02*
X5602262Y-13630262D01*
X5602262Y-13630262D02*
X5583215Y-13620738D01*
X5859405Y-13735024D02*
X5859405Y-13535024D01*
X5945119Y-13735024D02*
X5945119Y-13630262D01*
X5945119Y-13630262D02*
X5935596Y-13611214D01*
X5935596Y-13611214D02*
X5916548Y-13601690D01*
X5916548Y-13601690D02*
X5887976Y-13601690D01*
X5887976Y-13601690D02*
X5868929Y-13611214D01*
X5868929Y-13611214D02*
X5859405Y-13620738D01*
X6068929Y-13735024D02*
X6049881Y-13725500D01*
X6049881Y-13725500D02*
X6040357Y-13715976D01*
X6040357Y-13715976D02*
X6030834Y-13696928D01*
X6030834Y-13696928D02*
X6030834Y-13639786D01*
X6030834Y-13639786D02*
X6040357Y-13620738D01*
X6040357Y-13620738D02*
X6049881Y-13611214D01*
X6049881Y-13611214D02*
X6068929Y-13601690D01*
X6068929Y-13601690D02*
X6097500Y-13601690D01*
X6097500Y-13601690D02*
X6116548Y-13611214D01*
X6116548Y-13611214D02*
X6126072Y-13620738D01*
X6126072Y-13620738D02*
X6135596Y-13639786D01*
X6135596Y-13639786D02*
X6135596Y-13696928D01*
X6135596Y-13696928D02*
X6126072Y-13715976D01*
X6126072Y-13715976D02*
X6116548Y-13725500D01*
X6116548Y-13725500D02*
X6097500Y-13735024D01*
X6097500Y-13735024D02*
X6068929Y-13735024D01*
X6249881Y-13735024D02*
X6230834Y-13725500D01*
X6230834Y-13725500D02*
X6221310Y-13706452D01*
X6221310Y-13706452D02*
X6221310Y-13535024D01*
X6402262Y-13725500D02*
X6383215Y-13735024D01*
X6383215Y-13735024D02*
X6345119Y-13735024D01*
X6345119Y-13735024D02*
X6326072Y-13725500D01*
X6326072Y-13725500D02*
X6316548Y-13706452D01*
X6316548Y-13706452D02*
X6316548Y-13630262D01*
X6316548Y-13630262D02*
X6326072Y-13611214D01*
X6326072Y-13611214D02*
X6345119Y-13601690D01*
X6345119Y-13601690D02*
X6383215Y-13601690D01*
X6383215Y-13601690D02*
X6402262Y-13611214D01*
X6402262Y-13611214D02*
X6411786Y-13630262D01*
X6411786Y-13630262D02*
X6411786Y-13649309D01*
X6411786Y-13649309D02*
X6316548Y-13668357D01*
X6487977Y-13725500D02*
X6507024Y-13735024D01*
X6507024Y-13735024D02*
X6545119Y-13735024D01*
X6545119Y-13735024D02*
X6564167Y-13725500D01*
X6564167Y-13725500D02*
X6573691Y-13706452D01*
X6573691Y-13706452D02*
X6573691Y-13696928D01*
X6573691Y-13696928D02*
X6564167Y-13677881D01*
X6564167Y-13677881D02*
X6545119Y-13668357D01*
X6545119Y-13668357D02*
X6516548Y-13668357D01*
X6516548Y-13668357D02*
X6497500Y-13658833D01*
X6497500Y-13658833D02*
X6487977Y-13639786D01*
X6487977Y-13639786D02*
X6487977Y-13630262D01*
X6487977Y-13630262D02*
X6497500Y-13611214D01*
X6497500Y-13611214D02*
X6516548Y-13601690D01*
X6516548Y-13601690D02*
X6545119Y-13601690D01*
X6545119Y-13601690D02*
X6564167Y-13611214D01*
X6640358Y-13811214D02*
X6649881Y-13801690D01*
X6649881Y-13801690D02*
X6668929Y-13773119D01*
X6668929Y-13773119D02*
X6678453Y-13754071D01*
X6678453Y-13754071D02*
X6687977Y-13725500D01*
X6687977Y-13725500D02*
X6697500Y-13677881D01*
X6697500Y-13677881D02*
X6697500Y-13639786D01*
X6697500Y-13639786D02*
X6687977Y-13592167D01*
X6687977Y-13592167D02*
X6678453Y-13563595D01*
X6678453Y-13563595D02*
X6668929Y-13544548D01*
X6668929Y-13544548D02*
X6649881Y-13515976D01*
X6649881Y-13515976D02*
X6640358Y-13506452D01*
D12*
X1497500Y-13906500D02*
G75*
G03*
X1497500Y-13906500I-20000J0D01*
G01*
D11*
X1783214Y-13799024D02*
X1802262Y-13799024D01*
X1802262Y-13799024D02*
X1821309Y-13808548D01*
X1821309Y-13808548D02*
X1830833Y-13818071D01*
X1830833Y-13818071D02*
X1840357Y-13837119D01*
X1840357Y-13837119D02*
X1849881Y-13875214D01*
X1849881Y-13875214D02*
X1849881Y-13922833D01*
X1849881Y-13922833D02*
X1840357Y-13960928D01*
X1840357Y-13960928D02*
X1830833Y-13979976D01*
X1830833Y-13979976D02*
X1821309Y-13989500D01*
X1821309Y-13989500D02*
X1802262Y-13999024D01*
X1802262Y-13999024D02*
X1783214Y-13999024D01*
X1783214Y-13999024D02*
X1764167Y-13989500D01*
X1764167Y-13989500D02*
X1754643Y-13979976D01*
X1754643Y-13979976D02*
X1745119Y-13960928D01*
X1745119Y-13960928D02*
X1735595Y-13922833D01*
X1735595Y-13922833D02*
X1735595Y-13875214D01*
X1735595Y-13875214D02*
X1745119Y-13837119D01*
X1745119Y-13837119D02*
X1754643Y-13818071D01*
X1754643Y-13818071D02*
X1764167Y-13808548D01*
X1764167Y-13808548D02*
X1783214Y-13799024D01*
X1935595Y-13979976D02*
X1945119Y-13989500D01*
X1945119Y-13989500D02*
X1935595Y-13999024D01*
X1935595Y-13999024D02*
X1926071Y-13989500D01*
X1926071Y-13989500D02*
X1935595Y-13979976D01*
X1935595Y-13979976D02*
X1935595Y-13999024D01*
X2116548Y-13865690D02*
X2116548Y-13999024D01*
X2068928Y-13789500D02*
X2021309Y-13932357D01*
X2021309Y-13932357D02*
X2145119Y-13932357D01*
X2259405Y-13799024D02*
X2278452Y-13799024D01*
X2278452Y-13799024D02*
X2297500Y-13808548D01*
X2297500Y-13808548D02*
X2307024Y-13818071D01*
X2307024Y-13818071D02*
X2316548Y-13837119D01*
X2316548Y-13837119D02*
X2326071Y-13875214D01*
X2326071Y-13875214D02*
X2326071Y-13922833D01*
X2326071Y-13922833D02*
X2316548Y-13960928D01*
X2316548Y-13960928D02*
X2307024Y-13979976D01*
X2307024Y-13979976D02*
X2297500Y-13989500D01*
X2297500Y-13989500D02*
X2278452Y-13999024D01*
X2278452Y-13999024D02*
X2259405Y-13999024D01*
X2259405Y-13999024D02*
X2240357Y-13989500D01*
X2240357Y-13989500D02*
X2230833Y-13979976D01*
X2230833Y-13979976D02*
X2221310Y-13960928D01*
X2221310Y-13960928D02*
X2211786Y-13922833D01*
X2211786Y-13922833D02*
X2211786Y-13875214D01*
X2211786Y-13875214D02*
X2221310Y-13837119D01*
X2221310Y-13837119D02*
X2230833Y-13818071D01*
X2230833Y-13818071D02*
X2240357Y-13808548D01*
X2240357Y-13808548D02*
X2259405Y-13799024D01*
X2449881Y-13799024D02*
X2468929Y-13799024D01*
X2468929Y-13799024D02*
X2487976Y-13808548D01*
X2487976Y-13808548D02*
X2497500Y-13818071D01*
X2497500Y-13818071D02*
X2507024Y-13837119D01*
X2507024Y-13837119D02*
X2516548Y-13875214D01*
X2516548Y-13875214D02*
X2516548Y-13922833D01*
X2516548Y-13922833D02*
X2507024Y-13960928D01*
X2507024Y-13960928D02*
X2497500Y-13979976D01*
X2497500Y-13979976D02*
X2487976Y-13989500D01*
X2487976Y-13989500D02*
X2468929Y-13999024D01*
X2468929Y-13999024D02*
X2449881Y-13999024D01*
X2449881Y-13999024D02*
X2430833Y-13989500D01*
X2430833Y-13989500D02*
X2421310Y-13979976D01*
X2421310Y-13979976D02*
X2411786Y-13960928D01*
X2411786Y-13960928D02*
X2402262Y-13922833D01*
X2402262Y-13922833D02*
X2402262Y-13875214D01*
X2402262Y-13875214D02*
X2411786Y-13837119D01*
X2411786Y-13837119D02*
X2421310Y-13818071D01*
X2421310Y-13818071D02*
X2430833Y-13808548D01*
X2430833Y-13808548D02*
X2449881Y-13799024D01*
X2602262Y-13999024D02*
X2602262Y-13865690D01*
X2602262Y-13884738D02*
X2611786Y-13875214D01*
X2611786Y-13875214D02*
X2630833Y-13865690D01*
X2630833Y-13865690D02*
X2659405Y-13865690D01*
X2659405Y-13865690D02*
X2678452Y-13875214D01*
X2678452Y-13875214D02*
X2687976Y-13894262D01*
X2687976Y-13894262D02*
X2687976Y-13999024D01*
X2687976Y-13894262D02*
X2697500Y-13875214D01*
X2697500Y-13875214D02*
X2716548Y-13865690D01*
X2716548Y-13865690D02*
X2745119Y-13865690D01*
X2745119Y-13865690D02*
X2764167Y-13875214D01*
X2764167Y-13875214D02*
X2773691Y-13894262D01*
X2773691Y-13894262D02*
X2773691Y-13999024D01*
X2868929Y-13999024D02*
X2868929Y-13865690D01*
X2868929Y-13884738D02*
X2878452Y-13875214D01*
X2878452Y-13875214D02*
X2897500Y-13865690D01*
X2897500Y-13865690D02*
X2926071Y-13865690D01*
X2926071Y-13865690D02*
X2945119Y-13875214D01*
X2945119Y-13875214D02*
X2954643Y-13894262D01*
X2954643Y-13894262D02*
X2954643Y-13999024D01*
X2954643Y-13894262D02*
X2964167Y-13875214D01*
X2964167Y-13875214D02*
X2983214Y-13865690D01*
X2983214Y-13865690D02*
X3011786Y-13865690D01*
X3011786Y-13865690D02*
X3030833Y-13875214D01*
X3030833Y-13875214D02*
X3040357Y-13894262D01*
X3040357Y-13894262D02*
X3040357Y-13999024D01*
X3430833Y-13789500D02*
X3259405Y-14046643D01*
X3687976Y-13799024D02*
X3707024Y-13799024D01*
X3707024Y-13799024D02*
X3726072Y-13808548D01*
X3726072Y-13808548D02*
X3735595Y-13818071D01*
X3735595Y-13818071D02*
X3745119Y-13837119D01*
X3745119Y-13837119D02*
X3754643Y-13875214D01*
X3754643Y-13875214D02*
X3754643Y-13922833D01*
X3754643Y-13922833D02*
X3745119Y-13960928D01*
X3745119Y-13960928D02*
X3735595Y-13979976D01*
X3735595Y-13979976D02*
X3726072Y-13989500D01*
X3726072Y-13989500D02*
X3707024Y-13999024D01*
X3707024Y-13999024D02*
X3687976Y-13999024D01*
X3687976Y-13999024D02*
X3668929Y-13989500D01*
X3668929Y-13989500D02*
X3659405Y-13979976D01*
X3659405Y-13979976D02*
X3649881Y-13960928D01*
X3649881Y-13960928D02*
X3640357Y-13922833D01*
X3640357Y-13922833D02*
X3640357Y-13875214D01*
X3640357Y-13875214D02*
X3649881Y-13837119D01*
X3649881Y-13837119D02*
X3659405Y-13818071D01*
X3659405Y-13818071D02*
X3668929Y-13808548D01*
X3668929Y-13808548D02*
X3687976Y-13799024D01*
X3840357Y-13979976D02*
X3849881Y-13989500D01*
X3849881Y-13989500D02*
X3840357Y-13999024D01*
X3840357Y-13999024D02*
X3830833Y-13989500D01*
X3830833Y-13989500D02*
X3840357Y-13979976D01*
X3840357Y-13979976D02*
X3840357Y-13999024D01*
X3973691Y-13799024D02*
X3992738Y-13799024D01*
X3992738Y-13799024D02*
X4011786Y-13808548D01*
X4011786Y-13808548D02*
X4021310Y-13818071D01*
X4021310Y-13818071D02*
X4030833Y-13837119D01*
X4030833Y-13837119D02*
X4040357Y-13875214D01*
X4040357Y-13875214D02*
X4040357Y-13922833D01*
X4040357Y-13922833D02*
X4030833Y-13960928D01*
X4030833Y-13960928D02*
X4021310Y-13979976D01*
X4021310Y-13979976D02*
X4011786Y-13989500D01*
X4011786Y-13989500D02*
X3992738Y-13999024D01*
X3992738Y-13999024D02*
X3973691Y-13999024D01*
X3973691Y-13999024D02*
X3954643Y-13989500D01*
X3954643Y-13989500D02*
X3945119Y-13979976D01*
X3945119Y-13979976D02*
X3935595Y-13960928D01*
X3935595Y-13960928D02*
X3926072Y-13922833D01*
X3926072Y-13922833D02*
X3926072Y-13875214D01*
X3926072Y-13875214D02*
X3935595Y-13837119D01*
X3935595Y-13837119D02*
X3945119Y-13818071D01*
X3945119Y-13818071D02*
X3954643Y-13808548D01*
X3954643Y-13808548D02*
X3973691Y-13799024D01*
X4230834Y-13999024D02*
X4116548Y-13999024D01*
X4173691Y-13999024D02*
X4173691Y-13799024D01*
X4173691Y-13799024D02*
X4154643Y-13827595D01*
X4154643Y-13827595D02*
X4135595Y-13846643D01*
X4135595Y-13846643D02*
X4116548Y-13856167D01*
X4411786Y-13799024D02*
X4316548Y-13799024D01*
X4316548Y-13799024D02*
X4307024Y-13894262D01*
X4307024Y-13894262D02*
X4316548Y-13884738D01*
X4316548Y-13884738D02*
X4335595Y-13875214D01*
X4335595Y-13875214D02*
X4383215Y-13875214D01*
X4383215Y-13875214D02*
X4402262Y-13884738D01*
X4402262Y-13884738D02*
X4411786Y-13894262D01*
X4411786Y-13894262D02*
X4421310Y-13913309D01*
X4421310Y-13913309D02*
X4421310Y-13960928D01*
X4421310Y-13960928D02*
X4411786Y-13979976D01*
X4411786Y-13979976D02*
X4402262Y-13989500D01*
X4402262Y-13989500D02*
X4383215Y-13999024D01*
X4383215Y-13999024D02*
X4335595Y-13999024D01*
X4335595Y-13999024D02*
X4316548Y-13989500D01*
X4316548Y-13989500D02*
X4307024Y-13979976D01*
X4487976Y-13799024D02*
X4621310Y-13799024D01*
X4621310Y-13799024D02*
X4535595Y-13999024D01*
X4687976Y-13799024D02*
X4687976Y-13837119D01*
X4764167Y-13799024D02*
X4764167Y-13837119D01*
X5059405Y-14075214D02*
X5049881Y-14065690D01*
X5049881Y-14065690D02*
X5030834Y-14037119D01*
X5030834Y-14037119D02*
X5021310Y-14018071D01*
X5021310Y-14018071D02*
X5011786Y-13989500D01*
X5011786Y-13989500D02*
X5002262Y-13941881D01*
X5002262Y-13941881D02*
X5002262Y-13903786D01*
X5002262Y-13903786D02*
X5011786Y-13856167D01*
X5011786Y-13856167D02*
X5021310Y-13827595D01*
X5021310Y-13827595D02*
X5030834Y-13808548D01*
X5030834Y-13808548D02*
X5049881Y-13779976D01*
X5049881Y-13779976D02*
X5059405Y-13770452D01*
X5116548Y-13799024D02*
X5240357Y-13799024D01*
X5240357Y-13799024D02*
X5173691Y-13875214D01*
X5173691Y-13875214D02*
X5202262Y-13875214D01*
X5202262Y-13875214D02*
X5221310Y-13884738D01*
X5221310Y-13884738D02*
X5230834Y-13894262D01*
X5230834Y-13894262D02*
X5240357Y-13913309D01*
X5240357Y-13913309D02*
X5240357Y-13960928D01*
X5240357Y-13960928D02*
X5230834Y-13979976D01*
X5230834Y-13979976D02*
X5221310Y-13989500D01*
X5221310Y-13989500D02*
X5202262Y-13999024D01*
X5202262Y-13999024D02*
X5145119Y-13999024D01*
X5145119Y-13999024D02*
X5126072Y-13989500D01*
X5126072Y-13989500D02*
X5116548Y-13979976D01*
X5316548Y-13818071D02*
X5326072Y-13808548D01*
X5326072Y-13808548D02*
X5345119Y-13799024D01*
X5345119Y-13799024D02*
X5392738Y-13799024D01*
X5392738Y-13799024D02*
X5411786Y-13808548D01*
X5411786Y-13808548D02*
X5421310Y-13818071D01*
X5421310Y-13818071D02*
X5430834Y-13837119D01*
X5430834Y-13837119D02*
X5430834Y-13856167D01*
X5430834Y-13856167D02*
X5421310Y-13884738D01*
X5421310Y-13884738D02*
X5307024Y-13999024D01*
X5307024Y-13999024D02*
X5430834Y-13999024D01*
X5668929Y-13999024D02*
X5668929Y-13799024D01*
X5754643Y-13999024D02*
X5754643Y-13894262D01*
X5754643Y-13894262D02*
X5745119Y-13875214D01*
X5745119Y-13875214D02*
X5726072Y-13865690D01*
X5726072Y-13865690D02*
X5697500Y-13865690D01*
X5697500Y-13865690D02*
X5678453Y-13875214D01*
X5678453Y-13875214D02*
X5668929Y-13884738D01*
X5878453Y-13999024D02*
X5859405Y-13989500D01*
X5859405Y-13989500D02*
X5849881Y-13979976D01*
X5849881Y-13979976D02*
X5840357Y-13960928D01*
X5840357Y-13960928D02*
X5840357Y-13903786D01*
X5840357Y-13903786D02*
X5849881Y-13884738D01*
X5849881Y-13884738D02*
X5859405Y-13875214D01*
X5859405Y-13875214D02*
X5878453Y-13865690D01*
X5878453Y-13865690D02*
X5907024Y-13865690D01*
X5907024Y-13865690D02*
X5926072Y-13875214D01*
X5926072Y-13875214D02*
X5935596Y-13884738D01*
X5935596Y-13884738D02*
X5945119Y-13903786D01*
X5945119Y-13903786D02*
X5945119Y-13960928D01*
X5945119Y-13960928D02*
X5935596Y-13979976D01*
X5935596Y-13979976D02*
X5926072Y-13989500D01*
X5926072Y-13989500D02*
X5907024Y-13999024D01*
X5907024Y-13999024D02*
X5878453Y-13999024D01*
X6059405Y-13999024D02*
X6040357Y-13989500D01*
X6040357Y-13989500D02*
X6030834Y-13970452D01*
X6030834Y-13970452D02*
X6030834Y-13799024D01*
X6211786Y-13989500D02*
X6192738Y-13999024D01*
X6192738Y-13999024D02*
X6154643Y-13999024D01*
X6154643Y-13999024D02*
X6135596Y-13989500D01*
X6135596Y-13989500D02*
X6126072Y-13970452D01*
X6126072Y-13970452D02*
X6126072Y-13894262D01*
X6126072Y-13894262D02*
X6135596Y-13875214D01*
X6135596Y-13875214D02*
X6154643Y-13865690D01*
X6154643Y-13865690D02*
X6192738Y-13865690D01*
X6192738Y-13865690D02*
X6211786Y-13875214D01*
X6211786Y-13875214D02*
X6221310Y-13894262D01*
X6221310Y-13894262D02*
X6221310Y-13913309D01*
X6221310Y-13913309D02*
X6126072Y-13932357D01*
X6297500Y-13989500D02*
X6316548Y-13999024D01*
X6316548Y-13999024D02*
X6354643Y-13999024D01*
X6354643Y-13999024D02*
X6373691Y-13989500D01*
X6373691Y-13989500D02*
X6383215Y-13970452D01*
X6383215Y-13970452D02*
X6383215Y-13960928D01*
X6383215Y-13960928D02*
X6373691Y-13941881D01*
X6373691Y-13941881D02*
X6354643Y-13932357D01*
X6354643Y-13932357D02*
X6326072Y-13932357D01*
X6326072Y-13932357D02*
X6307024Y-13922833D01*
X6307024Y-13922833D02*
X6297500Y-13903786D01*
X6297500Y-13903786D02*
X6297500Y-13894262D01*
X6297500Y-13894262D02*
X6307024Y-13875214D01*
X6307024Y-13875214D02*
X6326072Y-13865690D01*
X6326072Y-13865690D02*
X6354643Y-13865690D01*
X6354643Y-13865690D02*
X6373691Y-13875214D01*
X6449881Y-14075214D02*
X6459405Y-14065690D01*
X6459405Y-14065690D02*
X6478453Y-14037119D01*
X6478453Y-14037119D02*
X6487977Y-14018071D01*
X6487977Y-14018071D02*
X6497500Y-13989500D01*
X6497500Y-13989500D02*
X6507024Y-13941881D01*
X6507024Y-13941881D02*
X6507024Y-13903786D01*
X6507024Y-13903786D02*
X6497500Y-13856167D01*
X6497500Y-13856167D02*
X6487977Y-13827595D01*
X6487977Y-13827595D02*
X6478453Y-13808548D01*
X6478453Y-13808548D02*
X6459405Y-13779976D01*
X6459405Y-13779976D02*
X6449881Y-13770452D01*
D13*
X1467500Y-14140500D02*
X1467500Y-14200500D01*
X1437500Y-14170500D02*
X1497500Y-14170500D01*
D11*
X1783214Y-14063024D02*
X1802262Y-14063024D01*
X1802262Y-14063024D02*
X1821309Y-14072548D01*
X1821309Y-14072548D02*
X1830833Y-14082071D01*
X1830833Y-14082071D02*
X1840357Y-14101119D01*
X1840357Y-14101119D02*
X1849881Y-14139214D01*
X1849881Y-14139214D02*
X1849881Y-14186833D01*
X1849881Y-14186833D02*
X1840357Y-14224928D01*
X1840357Y-14224928D02*
X1830833Y-14243976D01*
X1830833Y-14243976D02*
X1821309Y-14253500D01*
X1821309Y-14253500D02*
X1802262Y-14263024D01*
X1802262Y-14263024D02*
X1783214Y-14263024D01*
X1783214Y-14263024D02*
X1764167Y-14253500D01*
X1764167Y-14253500D02*
X1754643Y-14243976D01*
X1754643Y-14243976D02*
X1745119Y-14224928D01*
X1745119Y-14224928D02*
X1735595Y-14186833D01*
X1735595Y-14186833D02*
X1735595Y-14139214D01*
X1735595Y-14139214D02*
X1745119Y-14101119D01*
X1745119Y-14101119D02*
X1754643Y-14082071D01*
X1754643Y-14082071D02*
X1764167Y-14072548D01*
X1764167Y-14072548D02*
X1783214Y-14063024D01*
X1935595Y-14243976D02*
X1945119Y-14253500D01*
X1945119Y-14253500D02*
X1935595Y-14263024D01*
X1935595Y-14263024D02*
X1926071Y-14253500D01*
X1926071Y-14253500D02*
X1935595Y-14243976D01*
X1935595Y-14243976D02*
X1935595Y-14263024D01*
X2116548Y-14063024D02*
X2078452Y-14063024D01*
X2078452Y-14063024D02*
X2059405Y-14072548D01*
X2059405Y-14072548D02*
X2049881Y-14082071D01*
X2049881Y-14082071D02*
X2030833Y-14110643D01*
X2030833Y-14110643D02*
X2021309Y-14148738D01*
X2021309Y-14148738D02*
X2021309Y-14224928D01*
X2021309Y-14224928D02*
X2030833Y-14243976D01*
X2030833Y-14243976D02*
X2040357Y-14253500D01*
X2040357Y-14253500D02*
X2059405Y-14263024D01*
X2059405Y-14263024D02*
X2097500Y-14263024D01*
X2097500Y-14263024D02*
X2116548Y-14253500D01*
X2116548Y-14253500D02*
X2126071Y-14243976D01*
X2126071Y-14243976D02*
X2135595Y-14224928D01*
X2135595Y-14224928D02*
X2135595Y-14177309D01*
X2135595Y-14177309D02*
X2126071Y-14158262D01*
X2126071Y-14158262D02*
X2116548Y-14148738D01*
X2116548Y-14148738D02*
X2097500Y-14139214D01*
X2097500Y-14139214D02*
X2059405Y-14139214D01*
X2059405Y-14139214D02*
X2040357Y-14148738D01*
X2040357Y-14148738D02*
X2030833Y-14158262D01*
X2030833Y-14158262D02*
X2021309Y-14177309D01*
X2259405Y-14063024D02*
X2278452Y-14063024D01*
X2278452Y-14063024D02*
X2297500Y-14072548D01*
X2297500Y-14072548D02*
X2307024Y-14082071D01*
X2307024Y-14082071D02*
X2316548Y-14101119D01*
X2316548Y-14101119D02*
X2326071Y-14139214D01*
X2326071Y-14139214D02*
X2326071Y-14186833D01*
X2326071Y-14186833D02*
X2316548Y-14224928D01*
X2316548Y-14224928D02*
X2307024Y-14243976D01*
X2307024Y-14243976D02*
X2297500Y-14253500D01*
X2297500Y-14253500D02*
X2278452Y-14263024D01*
X2278452Y-14263024D02*
X2259405Y-14263024D01*
X2259405Y-14263024D02*
X2240357Y-14253500D01*
X2240357Y-14253500D02*
X2230833Y-14243976D01*
X2230833Y-14243976D02*
X2221310Y-14224928D01*
X2221310Y-14224928D02*
X2211786Y-14186833D01*
X2211786Y-14186833D02*
X2211786Y-14139214D01*
X2211786Y-14139214D02*
X2221310Y-14101119D01*
X2221310Y-14101119D02*
X2230833Y-14082071D01*
X2230833Y-14082071D02*
X2240357Y-14072548D01*
X2240357Y-14072548D02*
X2259405Y-14063024D01*
X2449881Y-14063024D02*
X2468929Y-14063024D01*
X2468929Y-14063024D02*
X2487976Y-14072548D01*
X2487976Y-14072548D02*
X2497500Y-14082071D01*
X2497500Y-14082071D02*
X2507024Y-14101119D01*
X2507024Y-14101119D02*
X2516548Y-14139214D01*
X2516548Y-14139214D02*
X2516548Y-14186833D01*
X2516548Y-14186833D02*
X2507024Y-14224928D01*
X2507024Y-14224928D02*
X2497500Y-14243976D01*
X2497500Y-14243976D02*
X2487976Y-14253500D01*
X2487976Y-14253500D02*
X2468929Y-14263024D01*
X2468929Y-14263024D02*
X2449881Y-14263024D01*
X2449881Y-14263024D02*
X2430833Y-14253500D01*
X2430833Y-14253500D02*
X2421310Y-14243976D01*
X2421310Y-14243976D02*
X2411786Y-14224928D01*
X2411786Y-14224928D02*
X2402262Y-14186833D01*
X2402262Y-14186833D02*
X2402262Y-14139214D01*
X2402262Y-14139214D02*
X2411786Y-14101119D01*
X2411786Y-14101119D02*
X2421310Y-14082071D01*
X2421310Y-14082071D02*
X2430833Y-14072548D01*
X2430833Y-14072548D02*
X2449881Y-14063024D01*
X2602262Y-14263024D02*
X2602262Y-14129690D01*
X2602262Y-14148738D02*
X2611786Y-14139214D01*
X2611786Y-14139214D02*
X2630833Y-14129690D01*
X2630833Y-14129690D02*
X2659405Y-14129690D01*
X2659405Y-14129690D02*
X2678452Y-14139214D01*
X2678452Y-14139214D02*
X2687976Y-14158262D01*
X2687976Y-14158262D02*
X2687976Y-14263024D01*
X2687976Y-14158262D02*
X2697500Y-14139214D01*
X2697500Y-14139214D02*
X2716548Y-14129690D01*
X2716548Y-14129690D02*
X2745119Y-14129690D01*
X2745119Y-14129690D02*
X2764167Y-14139214D01*
X2764167Y-14139214D02*
X2773691Y-14158262D01*
X2773691Y-14158262D02*
X2773691Y-14263024D01*
X2868929Y-14263024D02*
X2868929Y-14129690D01*
X2868929Y-14148738D02*
X2878452Y-14139214D01*
X2878452Y-14139214D02*
X2897500Y-14129690D01*
X2897500Y-14129690D02*
X2926071Y-14129690D01*
X2926071Y-14129690D02*
X2945119Y-14139214D01*
X2945119Y-14139214D02*
X2954643Y-14158262D01*
X2954643Y-14158262D02*
X2954643Y-14263024D01*
X2954643Y-14158262D02*
X2964167Y-14139214D01*
X2964167Y-14139214D02*
X2983214Y-14129690D01*
X2983214Y-14129690D02*
X3011786Y-14129690D01*
X3011786Y-14129690D02*
X3030833Y-14139214D01*
X3030833Y-14139214D02*
X3040357Y-14158262D01*
X3040357Y-14158262D02*
X3040357Y-14263024D01*
X3430833Y-14053500D02*
X3259405Y-14310643D01*
X3687976Y-14063024D02*
X3707024Y-14063024D01*
X3707024Y-14063024D02*
X3726072Y-14072548D01*
X3726072Y-14072548D02*
X3735595Y-14082071D01*
X3735595Y-14082071D02*
X3745119Y-14101119D01*
X3745119Y-14101119D02*
X3754643Y-14139214D01*
X3754643Y-14139214D02*
X3754643Y-14186833D01*
X3754643Y-14186833D02*
X3745119Y-14224928D01*
X3745119Y-14224928D02*
X3735595Y-14243976D01*
X3735595Y-14243976D02*
X3726072Y-14253500D01*
X3726072Y-14253500D02*
X3707024Y-14263024D01*
X3707024Y-14263024D02*
X3687976Y-14263024D01*
X3687976Y-14263024D02*
X3668929Y-14253500D01*
X3668929Y-14253500D02*
X3659405Y-14243976D01*
X3659405Y-14243976D02*
X3649881Y-14224928D01*
X3649881Y-14224928D02*
X3640357Y-14186833D01*
X3640357Y-14186833D02*
X3640357Y-14139214D01*
X3640357Y-14139214D02*
X3649881Y-14101119D01*
X3649881Y-14101119D02*
X3659405Y-14082071D01*
X3659405Y-14082071D02*
X3668929Y-14072548D01*
X3668929Y-14072548D02*
X3687976Y-14063024D01*
X3840357Y-14243976D02*
X3849881Y-14253500D01*
X3849881Y-14253500D02*
X3840357Y-14263024D01*
X3840357Y-14263024D02*
X3830833Y-14253500D01*
X3830833Y-14253500D02*
X3840357Y-14243976D01*
X3840357Y-14243976D02*
X3840357Y-14263024D01*
X3973691Y-14063024D02*
X3992738Y-14063024D01*
X3992738Y-14063024D02*
X4011786Y-14072548D01*
X4011786Y-14072548D02*
X4021310Y-14082071D01*
X4021310Y-14082071D02*
X4030833Y-14101119D01*
X4030833Y-14101119D02*
X4040357Y-14139214D01*
X4040357Y-14139214D02*
X4040357Y-14186833D01*
X4040357Y-14186833D02*
X4030833Y-14224928D01*
X4030833Y-14224928D02*
X4021310Y-14243976D01*
X4021310Y-14243976D02*
X4011786Y-14253500D01*
X4011786Y-14253500D02*
X3992738Y-14263024D01*
X3992738Y-14263024D02*
X3973691Y-14263024D01*
X3973691Y-14263024D02*
X3954643Y-14253500D01*
X3954643Y-14253500D02*
X3945119Y-14243976D01*
X3945119Y-14243976D02*
X3935595Y-14224928D01*
X3935595Y-14224928D02*
X3926072Y-14186833D01*
X3926072Y-14186833D02*
X3926072Y-14139214D01*
X3926072Y-14139214D02*
X3935595Y-14101119D01*
X3935595Y-14101119D02*
X3945119Y-14082071D01*
X3945119Y-14082071D02*
X3954643Y-14072548D01*
X3954643Y-14072548D02*
X3973691Y-14063024D01*
X4116548Y-14082071D02*
X4126072Y-14072548D01*
X4126072Y-14072548D02*
X4145119Y-14063024D01*
X4145119Y-14063024D02*
X4192738Y-14063024D01*
X4192738Y-14063024D02*
X4211786Y-14072548D01*
X4211786Y-14072548D02*
X4221310Y-14082071D01*
X4221310Y-14082071D02*
X4230834Y-14101119D01*
X4230834Y-14101119D02*
X4230834Y-14120167D01*
X4230834Y-14120167D02*
X4221310Y-14148738D01*
X4221310Y-14148738D02*
X4107024Y-14263024D01*
X4107024Y-14263024D02*
X4230834Y-14263024D01*
X4297500Y-14063024D02*
X4421310Y-14063024D01*
X4421310Y-14063024D02*
X4354643Y-14139214D01*
X4354643Y-14139214D02*
X4383215Y-14139214D01*
X4383215Y-14139214D02*
X4402262Y-14148738D01*
X4402262Y-14148738D02*
X4411786Y-14158262D01*
X4411786Y-14158262D02*
X4421310Y-14177309D01*
X4421310Y-14177309D02*
X4421310Y-14224928D01*
X4421310Y-14224928D02*
X4411786Y-14243976D01*
X4411786Y-14243976D02*
X4402262Y-14253500D01*
X4402262Y-14253500D02*
X4383215Y-14263024D01*
X4383215Y-14263024D02*
X4326072Y-14263024D01*
X4326072Y-14263024D02*
X4307024Y-14253500D01*
X4307024Y-14253500D02*
X4297500Y-14243976D01*
X4592738Y-14063024D02*
X4554643Y-14063024D01*
X4554643Y-14063024D02*
X4535595Y-14072548D01*
X4535595Y-14072548D02*
X4526072Y-14082071D01*
X4526072Y-14082071D02*
X4507024Y-14110643D01*
X4507024Y-14110643D02*
X4497500Y-14148738D01*
X4497500Y-14148738D02*
X4497500Y-14224928D01*
X4497500Y-14224928D02*
X4507024Y-14243976D01*
X4507024Y-14243976D02*
X4516548Y-14253500D01*
X4516548Y-14253500D02*
X4535595Y-14263024D01*
X4535595Y-14263024D02*
X4573691Y-14263024D01*
X4573691Y-14263024D02*
X4592738Y-14253500D01*
X4592738Y-14253500D02*
X4602262Y-14243976D01*
X4602262Y-14243976D02*
X4611786Y-14224928D01*
X4611786Y-14224928D02*
X4611786Y-14177309D01*
X4611786Y-14177309D02*
X4602262Y-14158262D01*
X4602262Y-14158262D02*
X4592738Y-14148738D01*
X4592738Y-14148738D02*
X4573691Y-14139214D01*
X4573691Y-14139214D02*
X4535595Y-14139214D01*
X4535595Y-14139214D02*
X4516548Y-14148738D01*
X4516548Y-14148738D02*
X4507024Y-14158262D01*
X4507024Y-14158262D02*
X4497500Y-14177309D01*
X4687976Y-14063024D02*
X4687976Y-14101119D01*
X4764167Y-14063024D02*
X4764167Y-14101119D01*
X5059405Y-14339214D02*
X5049881Y-14329690D01*
X5049881Y-14329690D02*
X5030834Y-14301119D01*
X5030834Y-14301119D02*
X5021310Y-14282071D01*
X5021310Y-14282071D02*
X5011786Y-14253500D01*
X5011786Y-14253500D02*
X5002262Y-14205881D01*
X5002262Y-14205881D02*
X5002262Y-14167786D01*
X5002262Y-14167786D02*
X5011786Y-14120167D01*
X5011786Y-14120167D02*
X5021310Y-14091595D01*
X5021310Y-14091595D02*
X5030834Y-14072548D01*
X5030834Y-14072548D02*
X5049881Y-14043976D01*
X5049881Y-14043976D02*
X5059405Y-14034452D01*
X5116548Y-14063024D02*
X5240357Y-14063024D01*
X5240357Y-14063024D02*
X5173691Y-14139214D01*
X5173691Y-14139214D02*
X5202262Y-14139214D01*
X5202262Y-14139214D02*
X5221310Y-14148738D01*
X5221310Y-14148738D02*
X5230834Y-14158262D01*
X5230834Y-14158262D02*
X5240357Y-14177309D01*
X5240357Y-14177309D02*
X5240357Y-14224928D01*
X5240357Y-14224928D02*
X5230834Y-14243976D01*
X5230834Y-14243976D02*
X5221310Y-14253500D01*
X5221310Y-14253500D02*
X5202262Y-14263024D01*
X5202262Y-14263024D02*
X5145119Y-14263024D01*
X5145119Y-14263024D02*
X5126072Y-14253500D01*
X5126072Y-14253500D02*
X5116548Y-14243976D01*
X5364167Y-14063024D02*
X5383215Y-14063024D01*
X5383215Y-14063024D02*
X5402262Y-14072548D01*
X5402262Y-14072548D02*
X5411786Y-14082071D01*
X5411786Y-14082071D02*
X5421310Y-14101119D01*
X5421310Y-14101119D02*
X5430834Y-14139214D01*
X5430834Y-14139214D02*
X5430834Y-14186833D01*
X5430834Y-14186833D02*
X5421310Y-14224928D01*
X5421310Y-14224928D02*
X5411786Y-14243976D01*
X5411786Y-14243976D02*
X5402262Y-14253500D01*
X5402262Y-14253500D02*
X5383215Y-14263024D01*
X5383215Y-14263024D02*
X5364167Y-14263024D01*
X5364167Y-14263024D02*
X5345119Y-14253500D01*
X5345119Y-14253500D02*
X5335596Y-14243976D01*
X5335596Y-14243976D02*
X5326072Y-14224928D01*
X5326072Y-14224928D02*
X5316548Y-14186833D01*
X5316548Y-14186833D02*
X5316548Y-14139214D01*
X5316548Y-14139214D02*
X5326072Y-14101119D01*
X5326072Y-14101119D02*
X5335596Y-14082071D01*
X5335596Y-14082071D02*
X5345119Y-14072548D01*
X5345119Y-14072548D02*
X5364167Y-14063024D01*
X5668929Y-14263024D02*
X5668929Y-14063024D01*
X5754643Y-14263024D02*
X5754643Y-14158262D01*
X5754643Y-14158262D02*
X5745119Y-14139214D01*
X5745119Y-14139214D02*
X5726072Y-14129690D01*
X5726072Y-14129690D02*
X5697500Y-14129690D01*
X5697500Y-14129690D02*
X5678453Y-14139214D01*
X5678453Y-14139214D02*
X5668929Y-14148738D01*
X5878453Y-14263024D02*
X5859405Y-14253500D01*
X5859405Y-14253500D02*
X5849881Y-14243976D01*
X5849881Y-14243976D02*
X5840357Y-14224928D01*
X5840357Y-14224928D02*
X5840357Y-14167786D01*
X5840357Y-14167786D02*
X5849881Y-14148738D01*
X5849881Y-14148738D02*
X5859405Y-14139214D01*
X5859405Y-14139214D02*
X5878453Y-14129690D01*
X5878453Y-14129690D02*
X5907024Y-14129690D01*
X5907024Y-14129690D02*
X5926072Y-14139214D01*
X5926072Y-14139214D02*
X5935596Y-14148738D01*
X5935596Y-14148738D02*
X5945119Y-14167786D01*
X5945119Y-14167786D02*
X5945119Y-14224928D01*
X5945119Y-14224928D02*
X5935596Y-14243976D01*
X5935596Y-14243976D02*
X5926072Y-14253500D01*
X5926072Y-14253500D02*
X5907024Y-14263024D01*
X5907024Y-14263024D02*
X5878453Y-14263024D01*
X6059405Y-14263024D02*
X6040357Y-14253500D01*
X6040357Y-14253500D02*
X6030834Y-14234452D01*
X6030834Y-14234452D02*
X6030834Y-14063024D01*
X6211786Y-14253500D02*
X6192738Y-14263024D01*
X6192738Y-14263024D02*
X6154643Y-14263024D01*
X6154643Y-14263024D02*
X6135596Y-14253500D01*
X6135596Y-14253500D02*
X6126072Y-14234452D01*
X6126072Y-14234452D02*
X6126072Y-14158262D01*
X6126072Y-14158262D02*
X6135596Y-14139214D01*
X6135596Y-14139214D02*
X6154643Y-14129690D01*
X6154643Y-14129690D02*
X6192738Y-14129690D01*
X6192738Y-14129690D02*
X6211786Y-14139214D01*
X6211786Y-14139214D02*
X6221310Y-14158262D01*
X6221310Y-14158262D02*
X6221310Y-14177309D01*
X6221310Y-14177309D02*
X6126072Y-14196357D01*
X6297500Y-14253500D02*
X6316548Y-14263024D01*
X6316548Y-14263024D02*
X6354643Y-14263024D01*
X6354643Y-14263024D02*
X6373691Y-14253500D01*
X6373691Y-14253500D02*
X6383215Y-14234452D01*
X6383215Y-14234452D02*
X6383215Y-14224928D01*
X6383215Y-14224928D02*
X6373691Y-14205881D01*
X6373691Y-14205881D02*
X6354643Y-14196357D01*
X6354643Y-14196357D02*
X6326072Y-14196357D01*
X6326072Y-14196357D02*
X6307024Y-14186833D01*
X6307024Y-14186833D02*
X6297500Y-14167786D01*
X6297500Y-14167786D02*
X6297500Y-14158262D01*
X6297500Y-14158262D02*
X6307024Y-14139214D01*
X6307024Y-14139214D02*
X6326072Y-14129690D01*
X6326072Y-14129690D02*
X6354643Y-14129690D01*
X6354643Y-14129690D02*
X6373691Y-14139214D01*
X6449881Y-14339214D02*
X6459405Y-14329690D01*
X6459405Y-14329690D02*
X6478453Y-14301119D01*
X6478453Y-14301119D02*
X6487977Y-14282071D01*
X6487977Y-14282071D02*
X6497500Y-14253500D01*
X6497500Y-14253500D02*
X6507024Y-14205881D01*
X6507024Y-14205881D02*
X6507024Y-14167786D01*
X6507024Y-14167786D02*
X6497500Y-14120167D01*
X6497500Y-14120167D02*
X6487977Y-14091595D01*
X6487977Y-14091595D02*
X6478453Y-14072548D01*
X6478453Y-14072548D02*
X6459405Y-14043976D01*
X6459405Y-14043976D02*
X6449881Y-14034452D01*
D14*
X1486370Y-14461370D02*
X1486370Y-14407630D01*
X1432630Y-14407630D01*
X1432630Y-14461370D01*
X1486370Y-14461370D01*
D11*
X1783214Y-14327024D02*
X1802262Y-14327024D01*
X1802262Y-14327024D02*
X1821309Y-14336548D01*
X1821309Y-14336548D02*
X1830833Y-14346071D01*
X1830833Y-14346071D02*
X1840357Y-14365119D01*
X1840357Y-14365119D02*
X1849881Y-14403214D01*
X1849881Y-14403214D02*
X1849881Y-14450833D01*
X1849881Y-14450833D02*
X1840357Y-14488928D01*
X1840357Y-14488928D02*
X1830833Y-14507976D01*
X1830833Y-14507976D02*
X1821309Y-14517500D01*
X1821309Y-14517500D02*
X1802262Y-14527024D01*
X1802262Y-14527024D02*
X1783214Y-14527024D01*
X1783214Y-14527024D02*
X1764167Y-14517500D01*
X1764167Y-14517500D02*
X1754643Y-14507976D01*
X1754643Y-14507976D02*
X1745119Y-14488928D01*
X1745119Y-14488928D02*
X1735595Y-14450833D01*
X1735595Y-14450833D02*
X1735595Y-14403214D01*
X1735595Y-14403214D02*
X1745119Y-14365119D01*
X1745119Y-14365119D02*
X1754643Y-14346071D01*
X1754643Y-14346071D02*
X1764167Y-14336548D01*
X1764167Y-14336548D02*
X1783214Y-14327024D01*
X1935595Y-14507976D02*
X1945119Y-14517500D01*
X1945119Y-14517500D02*
X1935595Y-14527024D01*
X1935595Y-14527024D02*
X1926071Y-14517500D01*
X1926071Y-14517500D02*
X1935595Y-14507976D01*
X1935595Y-14507976D02*
X1935595Y-14527024D01*
X2011786Y-14327024D02*
X2145119Y-14327024D01*
X2145119Y-14327024D02*
X2059405Y-14527024D01*
X2307024Y-14327024D02*
X2268929Y-14327024D01*
X2268929Y-14327024D02*
X2249881Y-14336548D01*
X2249881Y-14336548D02*
X2240357Y-14346071D01*
X2240357Y-14346071D02*
X2221310Y-14374643D01*
X2221310Y-14374643D02*
X2211786Y-14412738D01*
X2211786Y-14412738D02*
X2211786Y-14488928D01*
X2211786Y-14488928D02*
X2221310Y-14507976D01*
X2221310Y-14507976D02*
X2230833Y-14517500D01*
X2230833Y-14517500D02*
X2249881Y-14527024D01*
X2249881Y-14527024D02*
X2287976Y-14527024D01*
X2287976Y-14527024D02*
X2307024Y-14517500D01*
X2307024Y-14517500D02*
X2316548Y-14507976D01*
X2316548Y-14507976D02*
X2326071Y-14488928D01*
X2326071Y-14488928D02*
X2326071Y-14441309D01*
X2326071Y-14441309D02*
X2316548Y-14422262D01*
X2316548Y-14422262D02*
X2307024Y-14412738D01*
X2307024Y-14412738D02*
X2287976Y-14403214D01*
X2287976Y-14403214D02*
X2249881Y-14403214D01*
X2249881Y-14403214D02*
X2230833Y-14412738D01*
X2230833Y-14412738D02*
X2221310Y-14422262D01*
X2221310Y-14422262D02*
X2211786Y-14441309D01*
X2449881Y-14327024D02*
X2468929Y-14327024D01*
X2468929Y-14327024D02*
X2487976Y-14336548D01*
X2487976Y-14336548D02*
X2497500Y-14346071D01*
X2497500Y-14346071D02*
X2507024Y-14365119D01*
X2507024Y-14365119D02*
X2516548Y-14403214D01*
X2516548Y-14403214D02*
X2516548Y-14450833D01*
X2516548Y-14450833D02*
X2507024Y-14488928D01*
X2507024Y-14488928D02*
X2497500Y-14507976D01*
X2497500Y-14507976D02*
X2487976Y-14517500D01*
X2487976Y-14517500D02*
X2468929Y-14527024D01*
X2468929Y-14527024D02*
X2449881Y-14527024D01*
X2449881Y-14527024D02*
X2430833Y-14517500D01*
X2430833Y-14517500D02*
X2421310Y-14507976D01*
X2421310Y-14507976D02*
X2411786Y-14488928D01*
X2411786Y-14488928D02*
X2402262Y-14450833D01*
X2402262Y-14450833D02*
X2402262Y-14403214D01*
X2402262Y-14403214D02*
X2411786Y-14365119D01*
X2411786Y-14365119D02*
X2421310Y-14346071D01*
X2421310Y-14346071D02*
X2430833Y-14336548D01*
X2430833Y-14336548D02*
X2449881Y-14327024D01*
X2602262Y-14527024D02*
X2602262Y-14393690D01*
X2602262Y-14412738D02*
X2611786Y-14403214D01*
X2611786Y-14403214D02*
X2630833Y-14393690D01*
X2630833Y-14393690D02*
X2659405Y-14393690D01*
X2659405Y-14393690D02*
X2678452Y-14403214D01*
X2678452Y-14403214D02*
X2687976Y-14422262D01*
X2687976Y-14422262D02*
X2687976Y-14527024D01*
X2687976Y-14422262D02*
X2697500Y-14403214D01*
X2697500Y-14403214D02*
X2716548Y-14393690D01*
X2716548Y-14393690D02*
X2745119Y-14393690D01*
X2745119Y-14393690D02*
X2764167Y-14403214D01*
X2764167Y-14403214D02*
X2773691Y-14422262D01*
X2773691Y-14422262D02*
X2773691Y-14527024D01*
X2868929Y-14527024D02*
X2868929Y-14393690D01*
X2868929Y-14412738D02*
X2878452Y-14403214D01*
X2878452Y-14403214D02*
X2897500Y-14393690D01*
X2897500Y-14393690D02*
X2926071Y-14393690D01*
X2926071Y-14393690D02*
X2945119Y-14403214D01*
X2945119Y-14403214D02*
X2954643Y-14422262D01*
X2954643Y-14422262D02*
X2954643Y-14527024D01*
X2954643Y-14422262D02*
X2964167Y-14403214D01*
X2964167Y-14403214D02*
X2983214Y-14393690D01*
X2983214Y-14393690D02*
X3011786Y-14393690D01*
X3011786Y-14393690D02*
X3030833Y-14403214D01*
X3030833Y-14403214D02*
X3040357Y-14422262D01*
X3040357Y-14422262D02*
X3040357Y-14527024D01*
X3430833Y-14317500D02*
X3259405Y-14574643D01*
X3687976Y-14327024D02*
X3707024Y-14327024D01*
X3707024Y-14327024D02*
X3726072Y-14336548D01*
X3726072Y-14336548D02*
X3735595Y-14346071D01*
X3735595Y-14346071D02*
X3745119Y-14365119D01*
X3745119Y-14365119D02*
X3754643Y-14403214D01*
X3754643Y-14403214D02*
X3754643Y-14450833D01*
X3754643Y-14450833D02*
X3745119Y-14488928D01*
X3745119Y-14488928D02*
X3735595Y-14507976D01*
X3735595Y-14507976D02*
X3726072Y-14517500D01*
X3726072Y-14517500D02*
X3707024Y-14527024D01*
X3707024Y-14527024D02*
X3687976Y-14527024D01*
X3687976Y-14527024D02*
X3668929Y-14517500D01*
X3668929Y-14517500D02*
X3659405Y-14507976D01*
X3659405Y-14507976D02*
X3649881Y-14488928D01*
X3649881Y-14488928D02*
X3640357Y-14450833D01*
X3640357Y-14450833D02*
X3640357Y-14403214D01*
X3640357Y-14403214D02*
X3649881Y-14365119D01*
X3649881Y-14365119D02*
X3659405Y-14346071D01*
X3659405Y-14346071D02*
X3668929Y-14336548D01*
X3668929Y-14336548D02*
X3687976Y-14327024D01*
X3840357Y-14507976D02*
X3849881Y-14517500D01*
X3849881Y-14517500D02*
X3840357Y-14527024D01*
X3840357Y-14527024D02*
X3830833Y-14517500D01*
X3830833Y-14517500D02*
X3840357Y-14507976D01*
X3840357Y-14507976D02*
X3840357Y-14527024D01*
X3973691Y-14327024D02*
X3992738Y-14327024D01*
X3992738Y-14327024D02*
X4011786Y-14336548D01*
X4011786Y-14336548D02*
X4021310Y-14346071D01*
X4021310Y-14346071D02*
X4030833Y-14365119D01*
X4030833Y-14365119D02*
X4040357Y-14403214D01*
X4040357Y-14403214D02*
X4040357Y-14450833D01*
X4040357Y-14450833D02*
X4030833Y-14488928D01*
X4030833Y-14488928D02*
X4021310Y-14507976D01*
X4021310Y-14507976D02*
X4011786Y-14517500D01*
X4011786Y-14517500D02*
X3992738Y-14527024D01*
X3992738Y-14527024D02*
X3973691Y-14527024D01*
X3973691Y-14527024D02*
X3954643Y-14517500D01*
X3954643Y-14517500D02*
X3945119Y-14507976D01*
X3945119Y-14507976D02*
X3935595Y-14488928D01*
X3935595Y-14488928D02*
X3926072Y-14450833D01*
X3926072Y-14450833D02*
X3926072Y-14403214D01*
X3926072Y-14403214D02*
X3935595Y-14365119D01*
X3935595Y-14365119D02*
X3945119Y-14346071D01*
X3945119Y-14346071D02*
X3954643Y-14336548D01*
X3954643Y-14336548D02*
X3973691Y-14327024D01*
X4116548Y-14346071D02*
X4126072Y-14336548D01*
X4126072Y-14336548D02*
X4145119Y-14327024D01*
X4145119Y-14327024D02*
X4192738Y-14327024D01*
X4192738Y-14327024D02*
X4211786Y-14336548D01*
X4211786Y-14336548D02*
X4221310Y-14346071D01*
X4221310Y-14346071D02*
X4230834Y-14365119D01*
X4230834Y-14365119D02*
X4230834Y-14384167D01*
X4230834Y-14384167D02*
X4221310Y-14412738D01*
X4221310Y-14412738D02*
X4107024Y-14527024D01*
X4107024Y-14527024D02*
X4230834Y-14527024D01*
X4326072Y-14527024D02*
X4364167Y-14527024D01*
X4364167Y-14527024D02*
X4383215Y-14517500D01*
X4383215Y-14517500D02*
X4392738Y-14507976D01*
X4392738Y-14507976D02*
X4411786Y-14479405D01*
X4411786Y-14479405D02*
X4421310Y-14441309D01*
X4421310Y-14441309D02*
X4421310Y-14365119D01*
X4421310Y-14365119D02*
X4411786Y-14346071D01*
X4411786Y-14346071D02*
X4402262Y-14336548D01*
X4402262Y-14336548D02*
X4383215Y-14327024D01*
X4383215Y-14327024D02*
X4345119Y-14327024D01*
X4345119Y-14327024D02*
X4326072Y-14336548D01*
X4326072Y-14336548D02*
X4316548Y-14346071D01*
X4316548Y-14346071D02*
X4307024Y-14365119D01*
X4307024Y-14365119D02*
X4307024Y-14412738D01*
X4307024Y-14412738D02*
X4316548Y-14431786D01*
X4316548Y-14431786D02*
X4326072Y-14441309D01*
X4326072Y-14441309D02*
X4345119Y-14450833D01*
X4345119Y-14450833D02*
X4383215Y-14450833D01*
X4383215Y-14450833D02*
X4402262Y-14441309D01*
X4402262Y-14441309D02*
X4411786Y-14431786D01*
X4411786Y-14431786D02*
X4421310Y-14412738D01*
X4516548Y-14527024D02*
X4554643Y-14527024D01*
X4554643Y-14527024D02*
X4573691Y-14517500D01*
X4573691Y-14517500D02*
X4583215Y-14507976D01*
X4583215Y-14507976D02*
X4602262Y-14479405D01*
X4602262Y-14479405D02*
X4611786Y-14441309D01*
X4611786Y-14441309D02*
X4611786Y-14365119D01*
X4611786Y-14365119D02*
X4602262Y-14346071D01*
X4602262Y-14346071D02*
X4592738Y-14336548D01*
X4592738Y-14336548D02*
X4573691Y-14327024D01*
X4573691Y-14327024D02*
X4535595Y-14327024D01*
X4535595Y-14327024D02*
X4516548Y-14336548D01*
X4516548Y-14336548D02*
X4507024Y-14346071D01*
X4507024Y-14346071D02*
X4497500Y-14365119D01*
X4497500Y-14365119D02*
X4497500Y-14412738D01*
X4497500Y-14412738D02*
X4507024Y-14431786D01*
X4507024Y-14431786D02*
X4516548Y-14441309D01*
X4516548Y-14441309D02*
X4535595Y-14450833D01*
X4535595Y-14450833D02*
X4573691Y-14450833D01*
X4573691Y-14450833D02*
X4592738Y-14441309D01*
X4592738Y-14441309D02*
X4602262Y-14431786D01*
X4602262Y-14431786D02*
X4611786Y-14412738D01*
X4687976Y-14327024D02*
X4687976Y-14365119D01*
X4764167Y-14327024D02*
X4764167Y-14365119D01*
X5059405Y-14603214D02*
X5049881Y-14593690D01*
X5049881Y-14593690D02*
X5030834Y-14565119D01*
X5030834Y-14565119D02*
X5021310Y-14546071D01*
X5021310Y-14546071D02*
X5011786Y-14517500D01*
X5011786Y-14517500D02*
X5002262Y-14469881D01*
X5002262Y-14469881D02*
X5002262Y-14431786D01*
X5002262Y-14431786D02*
X5011786Y-14384167D01*
X5011786Y-14384167D02*
X5021310Y-14355595D01*
X5021310Y-14355595D02*
X5030834Y-14336548D01*
X5030834Y-14336548D02*
X5049881Y-14307976D01*
X5049881Y-14307976D02*
X5059405Y-14298452D01*
X5230834Y-14327024D02*
X5135596Y-14327024D01*
X5135596Y-14327024D02*
X5126072Y-14422262D01*
X5126072Y-14422262D02*
X5135596Y-14412738D01*
X5135596Y-14412738D02*
X5154643Y-14403214D01*
X5154643Y-14403214D02*
X5202262Y-14403214D01*
X5202262Y-14403214D02*
X5221310Y-14412738D01*
X5221310Y-14412738D02*
X5230834Y-14422262D01*
X5230834Y-14422262D02*
X5240357Y-14441309D01*
X5240357Y-14441309D02*
X5240357Y-14488928D01*
X5240357Y-14488928D02*
X5230834Y-14507976D01*
X5230834Y-14507976D02*
X5221310Y-14517500D01*
X5221310Y-14517500D02*
X5202262Y-14527024D01*
X5202262Y-14527024D02*
X5154643Y-14527024D01*
X5154643Y-14527024D02*
X5135596Y-14517500D01*
X5135596Y-14517500D02*
X5126072Y-14507976D01*
X5411786Y-14327024D02*
X5373691Y-14327024D01*
X5373691Y-14327024D02*
X5354643Y-14336548D01*
X5354643Y-14336548D02*
X5345119Y-14346071D01*
X5345119Y-14346071D02*
X5326072Y-14374643D01*
X5326072Y-14374643D02*
X5316548Y-14412738D01*
X5316548Y-14412738D02*
X5316548Y-14488928D01*
X5316548Y-14488928D02*
X5326072Y-14507976D01*
X5326072Y-14507976D02*
X5335596Y-14517500D01*
X5335596Y-14517500D02*
X5354643Y-14527024D01*
X5354643Y-14527024D02*
X5392738Y-14527024D01*
X5392738Y-14527024D02*
X5411786Y-14517500D01*
X5411786Y-14517500D02*
X5421310Y-14507976D01*
X5421310Y-14507976D02*
X5430834Y-14488928D01*
X5430834Y-14488928D02*
X5430834Y-14441309D01*
X5430834Y-14441309D02*
X5421310Y-14422262D01*
X5421310Y-14422262D02*
X5411786Y-14412738D01*
X5411786Y-14412738D02*
X5392738Y-14403214D01*
X5392738Y-14403214D02*
X5354643Y-14403214D01*
X5354643Y-14403214D02*
X5335596Y-14412738D01*
X5335596Y-14412738D02*
X5326072Y-14422262D01*
X5326072Y-14422262D02*
X5316548Y-14441309D01*
X5668929Y-14527024D02*
X5668929Y-14327024D01*
X5754643Y-14527024D02*
X5754643Y-14422262D01*
X5754643Y-14422262D02*
X5745119Y-14403214D01*
X5745119Y-14403214D02*
X5726072Y-14393690D01*
X5726072Y-14393690D02*
X5697500Y-14393690D01*
X5697500Y-14393690D02*
X5678453Y-14403214D01*
X5678453Y-14403214D02*
X5668929Y-14412738D01*
X5878453Y-14527024D02*
X5859405Y-14517500D01*
X5859405Y-14517500D02*
X5849881Y-14507976D01*
X5849881Y-14507976D02*
X5840357Y-14488928D01*
X5840357Y-14488928D02*
X5840357Y-14431786D01*
X5840357Y-14431786D02*
X5849881Y-14412738D01*
X5849881Y-14412738D02*
X5859405Y-14403214D01*
X5859405Y-14403214D02*
X5878453Y-14393690D01*
X5878453Y-14393690D02*
X5907024Y-14393690D01*
X5907024Y-14393690D02*
X5926072Y-14403214D01*
X5926072Y-14403214D02*
X5935596Y-14412738D01*
X5935596Y-14412738D02*
X5945119Y-14431786D01*
X5945119Y-14431786D02*
X5945119Y-14488928D01*
X5945119Y-14488928D02*
X5935596Y-14507976D01*
X5935596Y-14507976D02*
X5926072Y-14517500D01*
X5926072Y-14517500D02*
X5907024Y-14527024D01*
X5907024Y-14527024D02*
X5878453Y-14527024D01*
X6059405Y-14527024D02*
X6040357Y-14517500D01*
X6040357Y-14517500D02*
X6030834Y-14498452D01*
X6030834Y-14498452D02*
X6030834Y-14327024D01*
X6211786Y-14517500D02*
X6192738Y-14527024D01*
X6192738Y-14527024D02*
X6154643Y-14527024D01*
X6154643Y-14527024D02*
X6135596Y-14517500D01*
X6135596Y-14517500D02*
X6126072Y-14498452D01*
X6126072Y-14498452D02*
X6126072Y-14422262D01*
X6126072Y-14422262D02*
X6135596Y-14403214D01*
X6135596Y-14403214D02*
X6154643Y-14393690D01*
X6154643Y-14393690D02*
X6192738Y-14393690D01*
X6192738Y-14393690D02*
X6211786Y-14403214D01*
X6211786Y-14403214D02*
X6221310Y-14422262D01*
X6221310Y-14422262D02*
X6221310Y-14441309D01*
X6221310Y-14441309D02*
X6126072Y-14460357D01*
X6297500Y-14517500D02*
X6316548Y-14527024D01*
X6316548Y-14527024D02*
X6354643Y-14527024D01*
X6354643Y-14527024D02*
X6373691Y-14517500D01*
X6373691Y-14517500D02*
X6383215Y-14498452D01*
X6383215Y-14498452D02*
X6383215Y-14488928D01*
X6383215Y-14488928D02*
X6373691Y-14469881D01*
X6373691Y-14469881D02*
X6354643Y-14460357D01*
X6354643Y-14460357D02*
X6326072Y-14460357D01*
X6326072Y-14460357D02*
X6307024Y-14450833D01*
X6307024Y-14450833D02*
X6297500Y-14431786D01*
X6297500Y-14431786D02*
X6297500Y-14422262D01*
X6297500Y-14422262D02*
X6307024Y-14403214D01*
X6307024Y-14403214D02*
X6326072Y-14393690D01*
X6326072Y-14393690D02*
X6354643Y-14393690D01*
X6354643Y-14393690D02*
X6373691Y-14403214D01*
X6449881Y-14603214D02*
X6459405Y-14593690D01*
X6459405Y-14593690D02*
X6478453Y-14565119D01*
X6478453Y-14565119D02*
X6487977Y-14546071D01*
X6487977Y-14546071D02*
X6497500Y-14517500D01*
X6497500Y-14517500D02*
X6507024Y-14469881D01*
X6507024Y-14469881D02*
X6507024Y-14431786D01*
X6507024Y-14431786D02*
X6497500Y-14384167D01*
X6497500Y-14384167D02*
X6487977Y-14355595D01*
X6487977Y-14355595D02*
X6478453Y-14336548D01*
X6478453Y-14336548D02*
X6459405Y-14307976D01*
X6459405Y-14307976D02*
X6449881Y-14298452D01*
D15*
X1447500Y-14748500D02*
X1497500Y-14698500D01*
X1447500Y-14648500D01*
X1397500Y-14698500D01*
X1447500Y-14748500D01*
D11*
X1849881Y-14791024D02*
X1735595Y-14791024D01*
X1792738Y-14791024D02*
X1792738Y-14591024D01*
X1792738Y-14591024D02*
X1773690Y-14619595D01*
X1773690Y-14619595D02*
X1754643Y-14638643D01*
X1754643Y-14638643D02*
X1735595Y-14648167D01*
X1935595Y-14771976D02*
X1945119Y-14781500D01*
X1945119Y-14781500D02*
X1935595Y-14791024D01*
X1935595Y-14791024D02*
X1926071Y-14781500D01*
X1926071Y-14781500D02*
X1935595Y-14771976D01*
X1935595Y-14771976D02*
X1935595Y-14791024D01*
X2068928Y-14591024D02*
X2087976Y-14591024D01*
X2087976Y-14591024D02*
X2107024Y-14600548D01*
X2107024Y-14600548D02*
X2116548Y-14610071D01*
X2116548Y-14610071D02*
X2126071Y-14629119D01*
X2126071Y-14629119D02*
X2135595Y-14667214D01*
X2135595Y-14667214D02*
X2135595Y-14714833D01*
X2135595Y-14714833D02*
X2126071Y-14752928D01*
X2126071Y-14752928D02*
X2116548Y-14771976D01*
X2116548Y-14771976D02*
X2107024Y-14781500D01*
X2107024Y-14781500D02*
X2087976Y-14791024D01*
X2087976Y-14791024D02*
X2068928Y-14791024D01*
X2068928Y-14791024D02*
X2049881Y-14781500D01*
X2049881Y-14781500D02*
X2040357Y-14771976D01*
X2040357Y-14771976D02*
X2030833Y-14752928D01*
X2030833Y-14752928D02*
X2021309Y-14714833D01*
X2021309Y-14714833D02*
X2021309Y-14667214D01*
X2021309Y-14667214D02*
X2030833Y-14629119D01*
X2030833Y-14629119D02*
X2040357Y-14610071D01*
X2040357Y-14610071D02*
X2049881Y-14600548D01*
X2049881Y-14600548D02*
X2068928Y-14591024D01*
X2259405Y-14591024D02*
X2278452Y-14591024D01*
X2278452Y-14591024D02*
X2297500Y-14600548D01*
X2297500Y-14600548D02*
X2307024Y-14610071D01*
X2307024Y-14610071D02*
X2316548Y-14629119D01*
X2316548Y-14629119D02*
X2326071Y-14667214D01*
X2326071Y-14667214D02*
X2326071Y-14714833D01*
X2326071Y-14714833D02*
X2316548Y-14752928D01*
X2316548Y-14752928D02*
X2307024Y-14771976D01*
X2307024Y-14771976D02*
X2297500Y-14781500D01*
X2297500Y-14781500D02*
X2278452Y-14791024D01*
X2278452Y-14791024D02*
X2259405Y-14791024D01*
X2259405Y-14791024D02*
X2240357Y-14781500D01*
X2240357Y-14781500D02*
X2230833Y-14771976D01*
X2230833Y-14771976D02*
X2221310Y-14752928D01*
X2221310Y-14752928D02*
X2211786Y-14714833D01*
X2211786Y-14714833D02*
X2211786Y-14667214D01*
X2211786Y-14667214D02*
X2221310Y-14629119D01*
X2221310Y-14629119D02*
X2230833Y-14610071D01*
X2230833Y-14610071D02*
X2240357Y-14600548D01*
X2240357Y-14600548D02*
X2259405Y-14591024D01*
X2449881Y-14591024D02*
X2468929Y-14591024D01*
X2468929Y-14591024D02*
X2487976Y-14600548D01*
X2487976Y-14600548D02*
X2497500Y-14610071D01*
X2497500Y-14610071D02*
X2507024Y-14629119D01*
X2507024Y-14629119D02*
X2516548Y-14667214D01*
X2516548Y-14667214D02*
X2516548Y-14714833D01*
X2516548Y-14714833D02*
X2507024Y-14752928D01*
X2507024Y-14752928D02*
X2497500Y-14771976D01*
X2497500Y-14771976D02*
X2487976Y-14781500D01*
X2487976Y-14781500D02*
X2468929Y-14791024D01*
X2468929Y-14791024D02*
X2449881Y-14791024D01*
X2449881Y-14791024D02*
X2430833Y-14781500D01*
X2430833Y-14781500D02*
X2421310Y-14771976D01*
X2421310Y-14771976D02*
X2411786Y-14752928D01*
X2411786Y-14752928D02*
X2402262Y-14714833D01*
X2402262Y-14714833D02*
X2402262Y-14667214D01*
X2402262Y-14667214D02*
X2411786Y-14629119D01*
X2411786Y-14629119D02*
X2421310Y-14610071D01*
X2421310Y-14610071D02*
X2430833Y-14600548D01*
X2430833Y-14600548D02*
X2449881Y-14591024D01*
X2602262Y-14791024D02*
X2602262Y-14657690D01*
X2602262Y-14676738D02*
X2611786Y-14667214D01*
X2611786Y-14667214D02*
X2630833Y-14657690D01*
X2630833Y-14657690D02*
X2659405Y-14657690D01*
X2659405Y-14657690D02*
X2678452Y-14667214D01*
X2678452Y-14667214D02*
X2687976Y-14686262D01*
X2687976Y-14686262D02*
X2687976Y-14791024D01*
X2687976Y-14686262D02*
X2697500Y-14667214D01*
X2697500Y-14667214D02*
X2716548Y-14657690D01*
X2716548Y-14657690D02*
X2745119Y-14657690D01*
X2745119Y-14657690D02*
X2764167Y-14667214D01*
X2764167Y-14667214D02*
X2773691Y-14686262D01*
X2773691Y-14686262D02*
X2773691Y-14791024D01*
X2868929Y-14791024D02*
X2868929Y-14657690D01*
X2868929Y-14676738D02*
X2878452Y-14667214D01*
X2878452Y-14667214D02*
X2897500Y-14657690D01*
X2897500Y-14657690D02*
X2926071Y-14657690D01*
X2926071Y-14657690D02*
X2945119Y-14667214D01*
X2945119Y-14667214D02*
X2954643Y-14686262D01*
X2954643Y-14686262D02*
X2954643Y-14791024D01*
X2954643Y-14686262D02*
X2964167Y-14667214D01*
X2964167Y-14667214D02*
X2983214Y-14657690D01*
X2983214Y-14657690D02*
X3011786Y-14657690D01*
X3011786Y-14657690D02*
X3030833Y-14667214D01*
X3030833Y-14667214D02*
X3040357Y-14686262D01*
X3040357Y-14686262D02*
X3040357Y-14791024D01*
X3430833Y-14581500D02*
X3259405Y-14838643D01*
X3687976Y-14591024D02*
X3707024Y-14591024D01*
X3707024Y-14591024D02*
X3726072Y-14600548D01*
X3726072Y-14600548D02*
X3735595Y-14610071D01*
X3735595Y-14610071D02*
X3745119Y-14629119D01*
X3745119Y-14629119D02*
X3754643Y-14667214D01*
X3754643Y-14667214D02*
X3754643Y-14714833D01*
X3754643Y-14714833D02*
X3745119Y-14752928D01*
X3745119Y-14752928D02*
X3735595Y-14771976D01*
X3735595Y-14771976D02*
X3726072Y-14781500D01*
X3726072Y-14781500D02*
X3707024Y-14791024D01*
X3707024Y-14791024D02*
X3687976Y-14791024D01*
X3687976Y-14791024D02*
X3668929Y-14781500D01*
X3668929Y-14781500D02*
X3659405Y-14771976D01*
X3659405Y-14771976D02*
X3649881Y-14752928D01*
X3649881Y-14752928D02*
X3640357Y-14714833D01*
X3640357Y-14714833D02*
X3640357Y-14667214D01*
X3640357Y-14667214D02*
X3649881Y-14629119D01*
X3649881Y-14629119D02*
X3659405Y-14610071D01*
X3659405Y-14610071D02*
X3668929Y-14600548D01*
X3668929Y-14600548D02*
X3687976Y-14591024D01*
X3840357Y-14771976D02*
X3849881Y-14781500D01*
X3849881Y-14781500D02*
X3840357Y-14791024D01*
X3840357Y-14791024D02*
X3830833Y-14781500D01*
X3830833Y-14781500D02*
X3840357Y-14771976D01*
X3840357Y-14771976D02*
X3840357Y-14791024D01*
X3973691Y-14591024D02*
X3992738Y-14591024D01*
X3992738Y-14591024D02*
X4011786Y-14600548D01*
X4011786Y-14600548D02*
X4021310Y-14610071D01*
X4021310Y-14610071D02*
X4030833Y-14629119D01*
X4030833Y-14629119D02*
X4040357Y-14667214D01*
X4040357Y-14667214D02*
X4040357Y-14714833D01*
X4040357Y-14714833D02*
X4030833Y-14752928D01*
X4030833Y-14752928D02*
X4021310Y-14771976D01*
X4021310Y-14771976D02*
X4011786Y-14781500D01*
X4011786Y-14781500D02*
X3992738Y-14791024D01*
X3992738Y-14791024D02*
X3973691Y-14791024D01*
X3973691Y-14791024D02*
X3954643Y-14781500D01*
X3954643Y-14781500D02*
X3945119Y-14771976D01*
X3945119Y-14771976D02*
X3935595Y-14752928D01*
X3935595Y-14752928D02*
X3926072Y-14714833D01*
X3926072Y-14714833D02*
X3926072Y-14667214D01*
X3926072Y-14667214D02*
X3935595Y-14629119D01*
X3935595Y-14629119D02*
X3945119Y-14610071D01*
X3945119Y-14610071D02*
X3954643Y-14600548D01*
X3954643Y-14600548D02*
X3973691Y-14591024D01*
X4107024Y-14591024D02*
X4230834Y-14591024D01*
X4230834Y-14591024D02*
X4164167Y-14667214D01*
X4164167Y-14667214D02*
X4192738Y-14667214D01*
X4192738Y-14667214D02*
X4211786Y-14676738D01*
X4211786Y-14676738D02*
X4221310Y-14686262D01*
X4221310Y-14686262D02*
X4230834Y-14705309D01*
X4230834Y-14705309D02*
X4230834Y-14752928D01*
X4230834Y-14752928D02*
X4221310Y-14771976D01*
X4221310Y-14771976D02*
X4211786Y-14781500D01*
X4211786Y-14781500D02*
X4192738Y-14791024D01*
X4192738Y-14791024D02*
X4135595Y-14791024D01*
X4135595Y-14791024D02*
X4116548Y-14781500D01*
X4116548Y-14781500D02*
X4107024Y-14771976D01*
X4326072Y-14791024D02*
X4364167Y-14791024D01*
X4364167Y-14791024D02*
X4383215Y-14781500D01*
X4383215Y-14781500D02*
X4392738Y-14771976D01*
X4392738Y-14771976D02*
X4411786Y-14743405D01*
X4411786Y-14743405D02*
X4421310Y-14705309D01*
X4421310Y-14705309D02*
X4421310Y-14629119D01*
X4421310Y-14629119D02*
X4411786Y-14610071D01*
X4411786Y-14610071D02*
X4402262Y-14600548D01*
X4402262Y-14600548D02*
X4383215Y-14591024D01*
X4383215Y-14591024D02*
X4345119Y-14591024D01*
X4345119Y-14591024D02*
X4326072Y-14600548D01*
X4326072Y-14600548D02*
X4316548Y-14610071D01*
X4316548Y-14610071D02*
X4307024Y-14629119D01*
X4307024Y-14629119D02*
X4307024Y-14676738D01*
X4307024Y-14676738D02*
X4316548Y-14695786D01*
X4316548Y-14695786D02*
X4326072Y-14705309D01*
X4326072Y-14705309D02*
X4345119Y-14714833D01*
X4345119Y-14714833D02*
X4383215Y-14714833D01*
X4383215Y-14714833D02*
X4402262Y-14705309D01*
X4402262Y-14705309D02*
X4411786Y-14695786D01*
X4411786Y-14695786D02*
X4421310Y-14676738D01*
X4592738Y-14657690D02*
X4592738Y-14791024D01*
X4545119Y-14581500D02*
X4497500Y-14724357D01*
X4497500Y-14724357D02*
X4621310Y-14724357D01*
X4687976Y-14591024D02*
X4687976Y-14629119D01*
X4764167Y-14591024D02*
X4764167Y-14629119D01*
X5059405Y-14867214D02*
X5049881Y-14857690D01*
X5049881Y-14857690D02*
X5030834Y-14829119D01*
X5030834Y-14829119D02*
X5021310Y-14810071D01*
X5021310Y-14810071D02*
X5011786Y-14781500D01*
X5011786Y-14781500D02*
X5002262Y-14733881D01*
X5002262Y-14733881D02*
X5002262Y-14695786D01*
X5002262Y-14695786D02*
X5011786Y-14648167D01*
X5011786Y-14648167D02*
X5021310Y-14619595D01*
X5021310Y-14619595D02*
X5030834Y-14600548D01*
X5030834Y-14600548D02*
X5049881Y-14571976D01*
X5049881Y-14571976D02*
X5059405Y-14562452D01*
X5116548Y-14591024D02*
X5240357Y-14591024D01*
X5240357Y-14591024D02*
X5173691Y-14667214D01*
X5173691Y-14667214D02*
X5202262Y-14667214D01*
X5202262Y-14667214D02*
X5221310Y-14676738D01*
X5221310Y-14676738D02*
X5230834Y-14686262D01*
X5230834Y-14686262D02*
X5240357Y-14705309D01*
X5240357Y-14705309D02*
X5240357Y-14752928D01*
X5240357Y-14752928D02*
X5230834Y-14771976D01*
X5230834Y-14771976D02*
X5221310Y-14781500D01*
X5221310Y-14781500D02*
X5202262Y-14791024D01*
X5202262Y-14791024D02*
X5145119Y-14791024D01*
X5145119Y-14791024D02*
X5126072Y-14781500D01*
X5126072Y-14781500D02*
X5116548Y-14771976D01*
X5364167Y-14591024D02*
X5383215Y-14591024D01*
X5383215Y-14591024D02*
X5402262Y-14600548D01*
X5402262Y-14600548D02*
X5411786Y-14610071D01*
X5411786Y-14610071D02*
X5421310Y-14629119D01*
X5421310Y-14629119D02*
X5430834Y-14667214D01*
X5430834Y-14667214D02*
X5430834Y-14714833D01*
X5430834Y-14714833D02*
X5421310Y-14752928D01*
X5421310Y-14752928D02*
X5411786Y-14771976D01*
X5411786Y-14771976D02*
X5402262Y-14781500D01*
X5402262Y-14781500D02*
X5383215Y-14791024D01*
X5383215Y-14791024D02*
X5364167Y-14791024D01*
X5364167Y-14791024D02*
X5345119Y-14781500D01*
X5345119Y-14781500D02*
X5335596Y-14771976D01*
X5335596Y-14771976D02*
X5326072Y-14752928D01*
X5326072Y-14752928D02*
X5316548Y-14714833D01*
X5316548Y-14714833D02*
X5316548Y-14667214D01*
X5316548Y-14667214D02*
X5326072Y-14629119D01*
X5326072Y-14629119D02*
X5335596Y-14610071D01*
X5335596Y-14610071D02*
X5345119Y-14600548D01*
X5345119Y-14600548D02*
X5364167Y-14591024D01*
X5668929Y-14791024D02*
X5668929Y-14591024D01*
X5754643Y-14791024D02*
X5754643Y-14686262D01*
X5754643Y-14686262D02*
X5745119Y-14667214D01*
X5745119Y-14667214D02*
X5726072Y-14657690D01*
X5726072Y-14657690D02*
X5697500Y-14657690D01*
X5697500Y-14657690D02*
X5678453Y-14667214D01*
X5678453Y-14667214D02*
X5668929Y-14676738D01*
X5878453Y-14791024D02*
X5859405Y-14781500D01*
X5859405Y-14781500D02*
X5849881Y-14771976D01*
X5849881Y-14771976D02*
X5840357Y-14752928D01*
X5840357Y-14752928D02*
X5840357Y-14695786D01*
X5840357Y-14695786D02*
X5849881Y-14676738D01*
X5849881Y-14676738D02*
X5859405Y-14667214D01*
X5859405Y-14667214D02*
X5878453Y-14657690D01*
X5878453Y-14657690D02*
X5907024Y-14657690D01*
X5907024Y-14657690D02*
X5926072Y-14667214D01*
X5926072Y-14667214D02*
X5935596Y-14676738D01*
X5935596Y-14676738D02*
X5945119Y-14695786D01*
X5945119Y-14695786D02*
X5945119Y-14752928D01*
X5945119Y-14752928D02*
X5935596Y-14771976D01*
X5935596Y-14771976D02*
X5926072Y-14781500D01*
X5926072Y-14781500D02*
X5907024Y-14791024D01*
X5907024Y-14791024D02*
X5878453Y-14791024D01*
X6059405Y-14791024D02*
X6040357Y-14781500D01*
X6040357Y-14781500D02*
X6030834Y-14762452D01*
X6030834Y-14762452D02*
X6030834Y-14591024D01*
X6211786Y-14781500D02*
X6192738Y-14791024D01*
X6192738Y-14791024D02*
X6154643Y-14791024D01*
X6154643Y-14791024D02*
X6135596Y-14781500D01*
X6135596Y-14781500D02*
X6126072Y-14762452D01*
X6126072Y-14762452D02*
X6126072Y-14686262D01*
X6126072Y-14686262D02*
X6135596Y-14667214D01*
X6135596Y-14667214D02*
X6154643Y-14657690D01*
X6154643Y-14657690D02*
X6192738Y-14657690D01*
X6192738Y-14657690D02*
X6211786Y-14667214D01*
X6211786Y-14667214D02*
X6221310Y-14686262D01*
X6221310Y-14686262D02*
X6221310Y-14705309D01*
X6221310Y-14705309D02*
X6126072Y-14724357D01*
X6297500Y-14781500D02*
X6316548Y-14791024D01*
X6316548Y-14791024D02*
X6354643Y-14791024D01*
X6354643Y-14791024D02*
X6373691Y-14781500D01*
X6373691Y-14781500D02*
X6383215Y-14762452D01*
X6383215Y-14762452D02*
X6383215Y-14752928D01*
X6383215Y-14752928D02*
X6373691Y-14733881D01*
X6373691Y-14733881D02*
X6354643Y-14724357D01*
X6354643Y-14724357D02*
X6326072Y-14724357D01*
X6326072Y-14724357D02*
X6307024Y-14714833D01*
X6307024Y-14714833D02*
X6297500Y-14695786D01*
X6297500Y-14695786D02*
X6297500Y-14686262D01*
X6297500Y-14686262D02*
X6307024Y-14667214D01*
X6307024Y-14667214D02*
X6326072Y-14657690D01*
X6326072Y-14657690D02*
X6354643Y-14657690D01*
X6354643Y-14657690D02*
X6373691Y-14667214D01*
X6449881Y-14867214D02*
X6459405Y-14857690D01*
X6459405Y-14857690D02*
X6478453Y-14829119D01*
X6478453Y-14829119D02*
X6487977Y-14810071D01*
X6487977Y-14810071D02*
X6497500Y-14781500D01*
X6497500Y-14781500D02*
X6507024Y-14733881D01*
X6507024Y-14733881D02*
X6507024Y-14695786D01*
X6507024Y-14695786D02*
X6497500Y-14648167D01*
X6497500Y-14648167D02*
X6487977Y-14619595D01*
X6487977Y-14619595D02*
X6478453Y-14600548D01*
X6478453Y-14600548D02*
X6459405Y-14571976D01*
X6459405Y-14571976D02*
X6449881Y-14562452D01*
D16*
X1387500Y-14907500D02*
X1497500Y-15017500D01*
X1497500Y-14907500D02*
X1387500Y-15017500D01*
X1497500Y-14962500D02*
G75*
G03*
X1497500Y-14962500I-55000J0D01*
G01*
D11*
X1849881Y-15055024D02*
X1735595Y-15055024D01*
X1792738Y-15055024D02*
X1792738Y-14855024D01*
X1792738Y-14855024D02*
X1773690Y-14883595D01*
X1773690Y-14883595D02*
X1754643Y-14902643D01*
X1754643Y-14902643D02*
X1735595Y-14912167D01*
X1935595Y-15035976D02*
X1945119Y-15045500D01*
X1945119Y-15045500D02*
X1935595Y-15055024D01*
X1935595Y-15055024D02*
X1926071Y-15045500D01*
X1926071Y-15045500D02*
X1935595Y-15035976D01*
X1935595Y-15035976D02*
X1935595Y-15055024D01*
X2135595Y-15055024D02*
X2021309Y-15055024D01*
X2078452Y-15055024D02*
X2078452Y-14855024D01*
X2078452Y-14855024D02*
X2059405Y-14883595D01*
X2059405Y-14883595D02*
X2040357Y-14902643D01*
X2040357Y-14902643D02*
X2021309Y-14912167D01*
X2259405Y-14855024D02*
X2278452Y-14855024D01*
X2278452Y-14855024D02*
X2297500Y-14864548D01*
X2297500Y-14864548D02*
X2307024Y-14874071D01*
X2307024Y-14874071D02*
X2316548Y-14893119D01*
X2316548Y-14893119D02*
X2326071Y-14931214D01*
X2326071Y-14931214D02*
X2326071Y-14978833D01*
X2326071Y-14978833D02*
X2316548Y-15016928D01*
X2316548Y-15016928D02*
X2307024Y-15035976D01*
X2307024Y-15035976D02*
X2297500Y-15045500D01*
X2297500Y-15045500D02*
X2278452Y-15055024D01*
X2278452Y-15055024D02*
X2259405Y-15055024D01*
X2259405Y-15055024D02*
X2240357Y-15045500D01*
X2240357Y-15045500D02*
X2230833Y-15035976D01*
X2230833Y-15035976D02*
X2221310Y-15016928D01*
X2221310Y-15016928D02*
X2211786Y-14978833D01*
X2211786Y-14978833D02*
X2211786Y-14931214D01*
X2211786Y-14931214D02*
X2221310Y-14893119D01*
X2221310Y-14893119D02*
X2230833Y-14874071D01*
X2230833Y-14874071D02*
X2240357Y-14864548D01*
X2240357Y-14864548D02*
X2259405Y-14855024D01*
X2449881Y-14855024D02*
X2468929Y-14855024D01*
X2468929Y-14855024D02*
X2487976Y-14864548D01*
X2487976Y-14864548D02*
X2497500Y-14874071D01*
X2497500Y-14874071D02*
X2507024Y-14893119D01*
X2507024Y-14893119D02*
X2516548Y-14931214D01*
X2516548Y-14931214D02*
X2516548Y-14978833D01*
X2516548Y-14978833D02*
X2507024Y-15016928D01*
X2507024Y-15016928D02*
X2497500Y-15035976D01*
X2497500Y-15035976D02*
X2487976Y-15045500D01*
X2487976Y-15045500D02*
X2468929Y-15055024D01*
X2468929Y-15055024D02*
X2449881Y-15055024D01*
X2449881Y-15055024D02*
X2430833Y-15045500D01*
X2430833Y-15045500D02*
X2421310Y-15035976D01*
X2421310Y-15035976D02*
X2411786Y-15016928D01*
X2411786Y-15016928D02*
X2402262Y-14978833D01*
X2402262Y-14978833D02*
X2402262Y-14931214D01*
X2402262Y-14931214D02*
X2411786Y-14893119D01*
X2411786Y-14893119D02*
X2421310Y-14874071D01*
X2421310Y-14874071D02*
X2430833Y-14864548D01*
X2430833Y-14864548D02*
X2449881Y-14855024D01*
X2602262Y-15055024D02*
X2602262Y-14921690D01*
X2602262Y-14940738D02*
X2611786Y-14931214D01*
X2611786Y-14931214D02*
X2630833Y-14921690D01*
X2630833Y-14921690D02*
X2659405Y-14921690D01*
X2659405Y-14921690D02*
X2678452Y-14931214D01*
X2678452Y-14931214D02*
X2687976Y-14950262D01*
X2687976Y-14950262D02*
X2687976Y-15055024D01*
X2687976Y-14950262D02*
X2697500Y-14931214D01*
X2697500Y-14931214D02*
X2716548Y-14921690D01*
X2716548Y-14921690D02*
X2745119Y-14921690D01*
X2745119Y-14921690D02*
X2764167Y-14931214D01*
X2764167Y-14931214D02*
X2773691Y-14950262D01*
X2773691Y-14950262D02*
X2773691Y-15055024D01*
X2868929Y-15055024D02*
X2868929Y-14921690D01*
X2868929Y-14940738D02*
X2878452Y-14931214D01*
X2878452Y-14931214D02*
X2897500Y-14921690D01*
X2897500Y-14921690D02*
X2926071Y-14921690D01*
X2926071Y-14921690D02*
X2945119Y-14931214D01*
X2945119Y-14931214D02*
X2954643Y-14950262D01*
X2954643Y-14950262D02*
X2954643Y-15055024D01*
X2954643Y-14950262D02*
X2964167Y-14931214D01*
X2964167Y-14931214D02*
X2983214Y-14921690D01*
X2983214Y-14921690D02*
X3011786Y-14921690D01*
X3011786Y-14921690D02*
X3030833Y-14931214D01*
X3030833Y-14931214D02*
X3040357Y-14950262D01*
X3040357Y-14950262D02*
X3040357Y-15055024D01*
X3430833Y-14845500D02*
X3259405Y-15102643D01*
X3687976Y-14855024D02*
X3707024Y-14855024D01*
X3707024Y-14855024D02*
X3726072Y-14864548D01*
X3726072Y-14864548D02*
X3735595Y-14874071D01*
X3735595Y-14874071D02*
X3745119Y-14893119D01*
X3745119Y-14893119D02*
X3754643Y-14931214D01*
X3754643Y-14931214D02*
X3754643Y-14978833D01*
X3754643Y-14978833D02*
X3745119Y-15016928D01*
X3745119Y-15016928D02*
X3735595Y-15035976D01*
X3735595Y-15035976D02*
X3726072Y-15045500D01*
X3726072Y-15045500D02*
X3707024Y-15055024D01*
X3707024Y-15055024D02*
X3687976Y-15055024D01*
X3687976Y-15055024D02*
X3668929Y-15045500D01*
X3668929Y-15045500D02*
X3659405Y-15035976D01*
X3659405Y-15035976D02*
X3649881Y-15016928D01*
X3649881Y-15016928D02*
X3640357Y-14978833D01*
X3640357Y-14978833D02*
X3640357Y-14931214D01*
X3640357Y-14931214D02*
X3649881Y-14893119D01*
X3649881Y-14893119D02*
X3659405Y-14874071D01*
X3659405Y-14874071D02*
X3668929Y-14864548D01*
X3668929Y-14864548D02*
X3687976Y-14855024D01*
X3840357Y-15035976D02*
X3849881Y-15045500D01*
X3849881Y-15045500D02*
X3840357Y-15055024D01*
X3840357Y-15055024D02*
X3830833Y-15045500D01*
X3830833Y-15045500D02*
X3840357Y-15035976D01*
X3840357Y-15035976D02*
X3840357Y-15055024D01*
X3973691Y-14855024D02*
X3992738Y-14855024D01*
X3992738Y-14855024D02*
X4011786Y-14864548D01*
X4011786Y-14864548D02*
X4021310Y-14874071D01*
X4021310Y-14874071D02*
X4030833Y-14893119D01*
X4030833Y-14893119D02*
X4040357Y-14931214D01*
X4040357Y-14931214D02*
X4040357Y-14978833D01*
X4040357Y-14978833D02*
X4030833Y-15016928D01*
X4030833Y-15016928D02*
X4021310Y-15035976D01*
X4021310Y-15035976D02*
X4011786Y-15045500D01*
X4011786Y-15045500D02*
X3992738Y-15055024D01*
X3992738Y-15055024D02*
X3973691Y-15055024D01*
X3973691Y-15055024D02*
X3954643Y-15045500D01*
X3954643Y-15045500D02*
X3945119Y-15035976D01*
X3945119Y-15035976D02*
X3935595Y-15016928D01*
X3935595Y-15016928D02*
X3926072Y-14978833D01*
X3926072Y-14978833D02*
X3926072Y-14931214D01*
X3926072Y-14931214D02*
X3935595Y-14893119D01*
X3935595Y-14893119D02*
X3945119Y-14874071D01*
X3945119Y-14874071D02*
X3954643Y-14864548D01*
X3954643Y-14864548D02*
X3973691Y-14855024D01*
X4211786Y-14921690D02*
X4211786Y-15055024D01*
X4164167Y-14845500D02*
X4116548Y-14988357D01*
X4116548Y-14988357D02*
X4240357Y-14988357D01*
X4297500Y-14855024D02*
X4421310Y-14855024D01*
X4421310Y-14855024D02*
X4354643Y-14931214D01*
X4354643Y-14931214D02*
X4383215Y-14931214D01*
X4383215Y-14931214D02*
X4402262Y-14940738D01*
X4402262Y-14940738D02*
X4411786Y-14950262D01*
X4411786Y-14950262D02*
X4421310Y-14969309D01*
X4421310Y-14969309D02*
X4421310Y-15016928D01*
X4421310Y-15016928D02*
X4411786Y-15035976D01*
X4411786Y-15035976D02*
X4402262Y-15045500D01*
X4402262Y-15045500D02*
X4383215Y-15055024D01*
X4383215Y-15055024D02*
X4326072Y-15055024D01*
X4326072Y-15055024D02*
X4307024Y-15045500D01*
X4307024Y-15045500D02*
X4297500Y-15035976D01*
X4487976Y-14855024D02*
X4611786Y-14855024D01*
X4611786Y-14855024D02*
X4545119Y-14931214D01*
X4545119Y-14931214D02*
X4573691Y-14931214D01*
X4573691Y-14931214D02*
X4592738Y-14940738D01*
X4592738Y-14940738D02*
X4602262Y-14950262D01*
X4602262Y-14950262D02*
X4611786Y-14969309D01*
X4611786Y-14969309D02*
X4611786Y-15016928D01*
X4611786Y-15016928D02*
X4602262Y-15035976D01*
X4602262Y-15035976D02*
X4592738Y-15045500D01*
X4592738Y-15045500D02*
X4573691Y-15055024D01*
X4573691Y-15055024D02*
X4516548Y-15055024D01*
X4516548Y-15055024D02*
X4497500Y-15045500D01*
X4497500Y-15045500D02*
X4487976Y-15035976D01*
X4687976Y-14855024D02*
X4687976Y-14893119D01*
X4764167Y-14855024D02*
X4764167Y-14893119D01*
X5059405Y-15131214D02*
X5049881Y-15121690D01*
X5049881Y-15121690D02*
X5030834Y-15093119D01*
X5030834Y-15093119D02*
X5021310Y-15074071D01*
X5021310Y-15074071D02*
X5011786Y-15045500D01*
X5011786Y-15045500D02*
X5002262Y-14997881D01*
X5002262Y-14997881D02*
X5002262Y-14959786D01*
X5002262Y-14959786D02*
X5011786Y-14912167D01*
X5011786Y-14912167D02*
X5021310Y-14883595D01*
X5021310Y-14883595D02*
X5030834Y-14864548D01*
X5030834Y-14864548D02*
X5049881Y-14835976D01*
X5049881Y-14835976D02*
X5059405Y-14826452D01*
X5230834Y-14855024D02*
X5135596Y-14855024D01*
X5135596Y-14855024D02*
X5126072Y-14950262D01*
X5126072Y-14950262D02*
X5135596Y-14940738D01*
X5135596Y-14940738D02*
X5154643Y-14931214D01*
X5154643Y-14931214D02*
X5202262Y-14931214D01*
X5202262Y-14931214D02*
X5221310Y-14940738D01*
X5221310Y-14940738D02*
X5230834Y-14950262D01*
X5230834Y-14950262D02*
X5240357Y-14969309D01*
X5240357Y-14969309D02*
X5240357Y-15016928D01*
X5240357Y-15016928D02*
X5230834Y-15035976D01*
X5230834Y-15035976D02*
X5221310Y-15045500D01*
X5221310Y-15045500D02*
X5202262Y-15055024D01*
X5202262Y-15055024D02*
X5154643Y-15055024D01*
X5154643Y-15055024D02*
X5135596Y-15045500D01*
X5135596Y-15045500D02*
X5126072Y-15035976D01*
X5411786Y-14921690D02*
X5411786Y-15055024D01*
X5364167Y-14845500D02*
X5316548Y-14988357D01*
X5316548Y-14988357D02*
X5440357Y-14988357D01*
X5668929Y-15055024D02*
X5668929Y-14855024D01*
X5754643Y-15055024D02*
X5754643Y-14950262D01*
X5754643Y-14950262D02*
X5745119Y-14931214D01*
X5745119Y-14931214D02*
X5726072Y-14921690D01*
X5726072Y-14921690D02*
X5697500Y-14921690D01*
X5697500Y-14921690D02*
X5678453Y-14931214D01*
X5678453Y-14931214D02*
X5668929Y-14940738D01*
X5878453Y-15055024D02*
X5859405Y-15045500D01*
X5859405Y-15045500D02*
X5849881Y-15035976D01*
X5849881Y-15035976D02*
X5840357Y-15016928D01*
X5840357Y-15016928D02*
X5840357Y-14959786D01*
X5840357Y-14959786D02*
X5849881Y-14940738D01*
X5849881Y-14940738D02*
X5859405Y-14931214D01*
X5859405Y-14931214D02*
X5878453Y-14921690D01*
X5878453Y-14921690D02*
X5907024Y-14921690D01*
X5907024Y-14921690D02*
X5926072Y-14931214D01*
X5926072Y-14931214D02*
X5935596Y-14940738D01*
X5935596Y-14940738D02*
X5945119Y-14959786D01*
X5945119Y-14959786D02*
X5945119Y-15016928D01*
X5945119Y-15016928D02*
X5935596Y-15035976D01*
X5935596Y-15035976D02*
X5926072Y-15045500D01*
X5926072Y-15045500D02*
X5907024Y-15055024D01*
X5907024Y-15055024D02*
X5878453Y-15055024D01*
X6059405Y-15055024D02*
X6040357Y-15045500D01*
X6040357Y-15045500D02*
X6030834Y-15026452D01*
X6030834Y-15026452D02*
X6030834Y-14855024D01*
X6211786Y-15045500D02*
X6192738Y-15055024D01*
X6192738Y-15055024D02*
X6154643Y-15055024D01*
X6154643Y-15055024D02*
X6135596Y-15045500D01*
X6135596Y-15045500D02*
X6126072Y-15026452D01*
X6126072Y-15026452D02*
X6126072Y-14950262D01*
X6126072Y-14950262D02*
X6135596Y-14931214D01*
X6135596Y-14931214D02*
X6154643Y-14921690D01*
X6154643Y-14921690D02*
X6192738Y-14921690D01*
X6192738Y-14921690D02*
X6211786Y-14931214D01*
X6211786Y-14931214D02*
X6221310Y-14950262D01*
X6221310Y-14950262D02*
X6221310Y-14969309D01*
X6221310Y-14969309D02*
X6126072Y-14988357D01*
X6297500Y-15045500D02*
X6316548Y-15055024D01*
X6316548Y-15055024D02*
X6354643Y-15055024D01*
X6354643Y-15055024D02*
X6373691Y-15045500D01*
X6373691Y-15045500D02*
X6383215Y-15026452D01*
X6383215Y-15026452D02*
X6383215Y-15016928D01*
X6383215Y-15016928D02*
X6373691Y-14997881D01*
X6373691Y-14997881D02*
X6354643Y-14988357D01*
X6354643Y-14988357D02*
X6326072Y-14988357D01*
X6326072Y-14988357D02*
X6307024Y-14978833D01*
X6307024Y-14978833D02*
X6297500Y-14959786D01*
X6297500Y-14959786D02*
X6297500Y-14950262D01*
X6297500Y-14950262D02*
X6307024Y-14931214D01*
X6307024Y-14931214D02*
X6326072Y-14921690D01*
X6326072Y-14921690D02*
X6354643Y-14921690D01*
X6354643Y-14921690D02*
X6373691Y-14931214D01*
X6449881Y-15131214D02*
X6459405Y-15121690D01*
X6459405Y-15121690D02*
X6478453Y-15093119D01*
X6478453Y-15093119D02*
X6487977Y-15074071D01*
X6487977Y-15074071D02*
X6497500Y-15045500D01*
X6497500Y-15045500D02*
X6507024Y-14997881D01*
X6507024Y-14997881D02*
X6507024Y-14959786D01*
X6507024Y-14959786D02*
X6497500Y-14912167D01*
X6497500Y-14912167D02*
X6487977Y-14883595D01*
X6487977Y-14883595D02*
X6478453Y-14864548D01*
X6478453Y-14864548D02*
X6459405Y-14835976D01*
X6459405Y-14835976D02*
X6449881Y-14826452D01*
D17*
X1370500Y-15163000D02*
X1497500Y-15290000D01*
X1497500Y-15163000D02*
X1370500Y-15290000D01*
X1434000Y-15163000D02*
X1434000Y-15290000D01*
X1370500Y-15226500D02*
X1497500Y-15226500D01*
D11*
X1849881Y-15319024D02*
X1735595Y-15319024D01*
X1792738Y-15319024D02*
X1792738Y-15119024D01*
X1792738Y-15119024D02*
X1773690Y-15147595D01*
X1773690Y-15147595D02*
X1754643Y-15166643D01*
X1754643Y-15166643D02*
X1735595Y-15176167D01*
X1935595Y-15299976D02*
X1945119Y-15309500D01*
X1945119Y-15309500D02*
X1935595Y-15319024D01*
X1935595Y-15319024D02*
X1926071Y-15309500D01*
X1926071Y-15309500D02*
X1935595Y-15299976D01*
X1935595Y-15299976D02*
X1935595Y-15319024D01*
X2021309Y-15138071D02*
X2030833Y-15128548D01*
X2030833Y-15128548D02*
X2049881Y-15119024D01*
X2049881Y-15119024D02*
X2097500Y-15119024D01*
X2097500Y-15119024D02*
X2116548Y-15128548D01*
X2116548Y-15128548D02*
X2126071Y-15138071D01*
X2126071Y-15138071D02*
X2135595Y-15157119D01*
X2135595Y-15157119D02*
X2135595Y-15176167D01*
X2135595Y-15176167D02*
X2126071Y-15204738D01*
X2126071Y-15204738D02*
X2011786Y-15319024D01*
X2011786Y-15319024D02*
X2135595Y-15319024D01*
X2202262Y-15119024D02*
X2335595Y-15119024D01*
X2335595Y-15119024D02*
X2249881Y-15319024D01*
X2449881Y-15119024D02*
X2468929Y-15119024D01*
X2468929Y-15119024D02*
X2487976Y-15128548D01*
X2487976Y-15128548D02*
X2497500Y-15138071D01*
X2497500Y-15138071D02*
X2507024Y-15157119D01*
X2507024Y-15157119D02*
X2516548Y-15195214D01*
X2516548Y-15195214D02*
X2516548Y-15242833D01*
X2516548Y-15242833D02*
X2507024Y-15280928D01*
X2507024Y-15280928D02*
X2497500Y-15299976D01*
X2497500Y-15299976D02*
X2487976Y-15309500D01*
X2487976Y-15309500D02*
X2468929Y-15319024D01*
X2468929Y-15319024D02*
X2449881Y-15319024D01*
X2449881Y-15319024D02*
X2430833Y-15309500D01*
X2430833Y-15309500D02*
X2421310Y-15299976D01*
X2421310Y-15299976D02*
X2411786Y-15280928D01*
X2411786Y-15280928D02*
X2402262Y-15242833D01*
X2402262Y-15242833D02*
X2402262Y-15195214D01*
X2402262Y-15195214D02*
X2411786Y-15157119D01*
X2411786Y-15157119D02*
X2421310Y-15138071D01*
X2421310Y-15138071D02*
X2430833Y-15128548D01*
X2430833Y-15128548D02*
X2449881Y-15119024D01*
X2602262Y-15319024D02*
X2602262Y-15185690D01*
X2602262Y-15204738D02*
X2611786Y-15195214D01*
X2611786Y-15195214D02*
X2630833Y-15185690D01*
X2630833Y-15185690D02*
X2659405Y-15185690D01*
X2659405Y-15185690D02*
X2678452Y-15195214D01*
X2678452Y-15195214D02*
X2687976Y-15214262D01*
X2687976Y-15214262D02*
X2687976Y-15319024D01*
X2687976Y-15214262D02*
X2697500Y-15195214D01*
X2697500Y-15195214D02*
X2716548Y-15185690D01*
X2716548Y-15185690D02*
X2745119Y-15185690D01*
X2745119Y-15185690D02*
X2764167Y-15195214D01*
X2764167Y-15195214D02*
X2773691Y-15214262D01*
X2773691Y-15214262D02*
X2773691Y-15319024D01*
X2868929Y-15319024D02*
X2868929Y-15185690D01*
X2868929Y-15204738D02*
X2878452Y-15195214D01*
X2878452Y-15195214D02*
X2897500Y-15185690D01*
X2897500Y-15185690D02*
X2926071Y-15185690D01*
X2926071Y-15185690D02*
X2945119Y-15195214D01*
X2945119Y-15195214D02*
X2954643Y-15214262D01*
X2954643Y-15214262D02*
X2954643Y-15319024D01*
X2954643Y-15214262D02*
X2964167Y-15195214D01*
X2964167Y-15195214D02*
X2983214Y-15185690D01*
X2983214Y-15185690D02*
X3011786Y-15185690D01*
X3011786Y-15185690D02*
X3030833Y-15195214D01*
X3030833Y-15195214D02*
X3040357Y-15214262D01*
X3040357Y-15214262D02*
X3040357Y-15319024D01*
X3430833Y-15109500D02*
X3259405Y-15366643D01*
X3687976Y-15119024D02*
X3707024Y-15119024D01*
X3707024Y-15119024D02*
X3726072Y-15128548D01*
X3726072Y-15128548D02*
X3735595Y-15138071D01*
X3735595Y-15138071D02*
X3745119Y-15157119D01*
X3745119Y-15157119D02*
X3754643Y-15195214D01*
X3754643Y-15195214D02*
X3754643Y-15242833D01*
X3754643Y-15242833D02*
X3745119Y-15280928D01*
X3745119Y-15280928D02*
X3735595Y-15299976D01*
X3735595Y-15299976D02*
X3726072Y-15309500D01*
X3726072Y-15309500D02*
X3707024Y-15319024D01*
X3707024Y-15319024D02*
X3687976Y-15319024D01*
X3687976Y-15319024D02*
X3668929Y-15309500D01*
X3668929Y-15309500D02*
X3659405Y-15299976D01*
X3659405Y-15299976D02*
X3649881Y-15280928D01*
X3649881Y-15280928D02*
X3640357Y-15242833D01*
X3640357Y-15242833D02*
X3640357Y-15195214D01*
X3640357Y-15195214D02*
X3649881Y-15157119D01*
X3649881Y-15157119D02*
X3659405Y-15138071D01*
X3659405Y-15138071D02*
X3668929Y-15128548D01*
X3668929Y-15128548D02*
X3687976Y-15119024D01*
X3840357Y-15299976D02*
X3849881Y-15309500D01*
X3849881Y-15309500D02*
X3840357Y-15319024D01*
X3840357Y-15319024D02*
X3830833Y-15309500D01*
X3830833Y-15309500D02*
X3840357Y-15299976D01*
X3840357Y-15299976D02*
X3840357Y-15319024D01*
X3973691Y-15119024D02*
X3992738Y-15119024D01*
X3992738Y-15119024D02*
X4011786Y-15128548D01*
X4011786Y-15128548D02*
X4021310Y-15138071D01*
X4021310Y-15138071D02*
X4030833Y-15157119D01*
X4030833Y-15157119D02*
X4040357Y-15195214D01*
X4040357Y-15195214D02*
X4040357Y-15242833D01*
X4040357Y-15242833D02*
X4030833Y-15280928D01*
X4030833Y-15280928D02*
X4021310Y-15299976D01*
X4021310Y-15299976D02*
X4011786Y-15309500D01*
X4011786Y-15309500D02*
X3992738Y-15319024D01*
X3992738Y-15319024D02*
X3973691Y-15319024D01*
X3973691Y-15319024D02*
X3954643Y-15309500D01*
X3954643Y-15309500D02*
X3945119Y-15299976D01*
X3945119Y-15299976D02*
X3935595Y-15280928D01*
X3935595Y-15280928D02*
X3926072Y-15242833D01*
X3926072Y-15242833D02*
X3926072Y-15195214D01*
X3926072Y-15195214D02*
X3935595Y-15157119D01*
X3935595Y-15157119D02*
X3945119Y-15138071D01*
X3945119Y-15138071D02*
X3954643Y-15128548D01*
X3954643Y-15128548D02*
X3973691Y-15119024D01*
X4221310Y-15119024D02*
X4126072Y-15119024D01*
X4126072Y-15119024D02*
X4116548Y-15214262D01*
X4116548Y-15214262D02*
X4126072Y-15204738D01*
X4126072Y-15204738D02*
X4145119Y-15195214D01*
X4145119Y-15195214D02*
X4192738Y-15195214D01*
X4192738Y-15195214D02*
X4211786Y-15204738D01*
X4211786Y-15204738D02*
X4221310Y-15214262D01*
X4221310Y-15214262D02*
X4230834Y-15233309D01*
X4230834Y-15233309D02*
X4230834Y-15280928D01*
X4230834Y-15280928D02*
X4221310Y-15299976D01*
X4221310Y-15299976D02*
X4211786Y-15309500D01*
X4211786Y-15309500D02*
X4192738Y-15319024D01*
X4192738Y-15319024D02*
X4145119Y-15319024D01*
X4145119Y-15319024D02*
X4126072Y-15309500D01*
X4126072Y-15309500D02*
X4116548Y-15299976D01*
X4354643Y-15119024D02*
X4373691Y-15119024D01*
X4373691Y-15119024D02*
X4392738Y-15128548D01*
X4392738Y-15128548D02*
X4402262Y-15138071D01*
X4402262Y-15138071D02*
X4411786Y-15157119D01*
X4411786Y-15157119D02*
X4421310Y-15195214D01*
X4421310Y-15195214D02*
X4421310Y-15242833D01*
X4421310Y-15242833D02*
X4411786Y-15280928D01*
X4411786Y-15280928D02*
X4402262Y-15299976D01*
X4402262Y-15299976D02*
X4392738Y-15309500D01*
X4392738Y-15309500D02*
X4373691Y-15319024D01*
X4373691Y-15319024D02*
X4354643Y-15319024D01*
X4354643Y-15319024D02*
X4335595Y-15309500D01*
X4335595Y-15309500D02*
X4326072Y-15299976D01*
X4326072Y-15299976D02*
X4316548Y-15280928D01*
X4316548Y-15280928D02*
X4307024Y-15242833D01*
X4307024Y-15242833D02*
X4307024Y-15195214D01*
X4307024Y-15195214D02*
X4316548Y-15157119D01*
X4316548Y-15157119D02*
X4326072Y-15138071D01*
X4326072Y-15138071D02*
X4335595Y-15128548D01*
X4335595Y-15128548D02*
X4354643Y-15119024D01*
X4545119Y-15119024D02*
X4564167Y-15119024D01*
X4564167Y-15119024D02*
X4583215Y-15128548D01*
X4583215Y-15128548D02*
X4592738Y-15138071D01*
X4592738Y-15138071D02*
X4602262Y-15157119D01*
X4602262Y-15157119D02*
X4611786Y-15195214D01*
X4611786Y-15195214D02*
X4611786Y-15242833D01*
X4611786Y-15242833D02*
X4602262Y-15280928D01*
X4602262Y-15280928D02*
X4592738Y-15299976D01*
X4592738Y-15299976D02*
X4583215Y-15309500D01*
X4583215Y-15309500D02*
X4564167Y-15319024D01*
X4564167Y-15319024D02*
X4545119Y-15319024D01*
X4545119Y-15319024D02*
X4526072Y-15309500D01*
X4526072Y-15309500D02*
X4516548Y-15299976D01*
X4516548Y-15299976D02*
X4507024Y-15280928D01*
X4507024Y-15280928D02*
X4497500Y-15242833D01*
X4497500Y-15242833D02*
X4497500Y-15195214D01*
X4497500Y-15195214D02*
X4507024Y-15157119D01*
X4507024Y-15157119D02*
X4516548Y-15138071D01*
X4516548Y-15138071D02*
X4526072Y-15128548D01*
X4526072Y-15128548D02*
X4545119Y-15119024D01*
X4687976Y-15119024D02*
X4687976Y-15157119D01*
X4764167Y-15119024D02*
X4764167Y-15157119D01*
X5059405Y-15395214D02*
X5049881Y-15385690D01*
X5049881Y-15385690D02*
X5030834Y-15357119D01*
X5030834Y-15357119D02*
X5021310Y-15338071D01*
X5021310Y-15338071D02*
X5011786Y-15309500D01*
X5011786Y-15309500D02*
X5002262Y-15261881D01*
X5002262Y-15261881D02*
X5002262Y-15223786D01*
X5002262Y-15223786D02*
X5011786Y-15176167D01*
X5011786Y-15176167D02*
X5021310Y-15147595D01*
X5021310Y-15147595D02*
X5030834Y-15128548D01*
X5030834Y-15128548D02*
X5049881Y-15099976D01*
X5049881Y-15099976D02*
X5059405Y-15090452D01*
X5173691Y-15119024D02*
X5192738Y-15119024D01*
X5192738Y-15119024D02*
X5211786Y-15128548D01*
X5211786Y-15128548D02*
X5221310Y-15138071D01*
X5221310Y-15138071D02*
X5230834Y-15157119D01*
X5230834Y-15157119D02*
X5240357Y-15195214D01*
X5240357Y-15195214D02*
X5240357Y-15242833D01*
X5240357Y-15242833D02*
X5230834Y-15280928D01*
X5230834Y-15280928D02*
X5221310Y-15299976D01*
X5221310Y-15299976D02*
X5211786Y-15309500D01*
X5211786Y-15309500D02*
X5192738Y-15319024D01*
X5192738Y-15319024D02*
X5173691Y-15319024D01*
X5173691Y-15319024D02*
X5154643Y-15309500D01*
X5154643Y-15309500D02*
X5145119Y-15299976D01*
X5145119Y-15299976D02*
X5135596Y-15280928D01*
X5135596Y-15280928D02*
X5126072Y-15242833D01*
X5126072Y-15242833D02*
X5126072Y-15195214D01*
X5126072Y-15195214D02*
X5135596Y-15157119D01*
X5135596Y-15157119D02*
X5145119Y-15138071D01*
X5145119Y-15138071D02*
X5154643Y-15128548D01*
X5154643Y-15128548D02*
X5173691Y-15119024D01*
X5478453Y-15319024D02*
X5478453Y-15119024D01*
X5564167Y-15319024D02*
X5564167Y-15214262D01*
X5564167Y-15214262D02*
X5554643Y-15195214D01*
X5554643Y-15195214D02*
X5535596Y-15185690D01*
X5535596Y-15185690D02*
X5507024Y-15185690D01*
X5507024Y-15185690D02*
X5487977Y-15195214D01*
X5487977Y-15195214D02*
X5478453Y-15204738D01*
X5687976Y-15319024D02*
X5668929Y-15309500D01*
X5668929Y-15309500D02*
X5659405Y-15299976D01*
X5659405Y-15299976D02*
X5649881Y-15280928D01*
X5649881Y-15280928D02*
X5649881Y-15223786D01*
X5649881Y-15223786D02*
X5659405Y-15204738D01*
X5659405Y-15204738D02*
X5668929Y-15195214D01*
X5668929Y-15195214D02*
X5687976Y-15185690D01*
X5687976Y-15185690D02*
X5716548Y-15185690D01*
X5716548Y-15185690D02*
X5735596Y-15195214D01*
X5735596Y-15195214D02*
X5745119Y-15204738D01*
X5745119Y-15204738D02*
X5754643Y-15223786D01*
X5754643Y-15223786D02*
X5754643Y-15280928D01*
X5754643Y-15280928D02*
X5745119Y-15299976D01*
X5745119Y-15299976D02*
X5735596Y-15309500D01*
X5735596Y-15309500D02*
X5716548Y-15319024D01*
X5716548Y-15319024D02*
X5687976Y-15319024D01*
X5868929Y-15319024D02*
X5849881Y-15309500D01*
X5849881Y-15309500D02*
X5840357Y-15290452D01*
X5840357Y-15290452D02*
X5840357Y-15119024D01*
X6021310Y-15309500D02*
X6002262Y-15319024D01*
X6002262Y-15319024D02*
X5964167Y-15319024D01*
X5964167Y-15319024D02*
X5945119Y-15309500D01*
X5945119Y-15309500D02*
X5935596Y-15290452D01*
X5935596Y-15290452D02*
X5935596Y-15214262D01*
X5935596Y-15214262D02*
X5945119Y-15195214D01*
X5945119Y-15195214D02*
X5964167Y-15185690D01*
X5964167Y-15185690D02*
X6002262Y-15185690D01*
X6002262Y-15185690D02*
X6021310Y-15195214D01*
X6021310Y-15195214D02*
X6030834Y-15214262D01*
X6030834Y-15214262D02*
X6030834Y-15233309D01*
X6030834Y-15233309D02*
X5935596Y-15252357D01*
X6107024Y-15309500D02*
X6126072Y-15319024D01*
X6126072Y-15319024D02*
X6164167Y-15319024D01*
X6164167Y-15319024D02*
X6183215Y-15309500D01*
X6183215Y-15309500D02*
X6192738Y-15290452D01*
X6192738Y-15290452D02*
X6192738Y-15280928D01*
X6192738Y-15280928D02*
X6183215Y-15261881D01*
X6183215Y-15261881D02*
X6164167Y-15252357D01*
X6164167Y-15252357D02*
X6135596Y-15252357D01*
X6135596Y-15252357D02*
X6116548Y-15242833D01*
X6116548Y-15242833D02*
X6107024Y-15223786D01*
X6107024Y-15223786D02*
X6107024Y-15214262D01*
X6107024Y-15214262D02*
X6116548Y-15195214D01*
X6116548Y-15195214D02*
X6135596Y-15185690D01*
X6135596Y-15185690D02*
X6164167Y-15185690D01*
X6164167Y-15185690D02*
X6183215Y-15195214D01*
X6430834Y-15242833D02*
X6583215Y-15242833D01*
X6507024Y-15319024D02*
X6507024Y-15166643D01*
X6821310Y-15138071D02*
X6830834Y-15128548D01*
X6830834Y-15128548D02*
X6849881Y-15119024D01*
X6849881Y-15119024D02*
X6897500Y-15119024D01*
X6897500Y-15119024D02*
X6916548Y-15128548D01*
X6916548Y-15128548D02*
X6926072Y-15138071D01*
X6926072Y-15138071D02*
X6935596Y-15157119D01*
X6935596Y-15157119D02*
X6935596Y-15176167D01*
X6935596Y-15176167D02*
X6926072Y-15204738D01*
X6926072Y-15204738D02*
X6811786Y-15319024D01*
X6811786Y-15319024D02*
X6935596Y-15319024D01*
X7164167Y-15309500D02*
X7183215Y-15319024D01*
X7183215Y-15319024D02*
X7221310Y-15319024D01*
X7221310Y-15319024D02*
X7240358Y-15309500D01*
X7240358Y-15309500D02*
X7249881Y-15290452D01*
X7249881Y-15290452D02*
X7249881Y-15280928D01*
X7249881Y-15280928D02*
X7240358Y-15261881D01*
X7240358Y-15261881D02*
X7221310Y-15252357D01*
X7221310Y-15252357D02*
X7192739Y-15252357D01*
X7192739Y-15252357D02*
X7173691Y-15242833D01*
X7173691Y-15242833D02*
X7164167Y-15223786D01*
X7164167Y-15223786D02*
X7164167Y-15214262D01*
X7164167Y-15214262D02*
X7173691Y-15195214D01*
X7173691Y-15195214D02*
X7192739Y-15185690D01*
X7192739Y-15185690D02*
X7221310Y-15185690D01*
X7221310Y-15185690D02*
X7240358Y-15195214D01*
X7364167Y-15319024D02*
X7345120Y-15309500D01*
X7345120Y-15309500D02*
X7335596Y-15290452D01*
X7335596Y-15290452D02*
X7335596Y-15119024D01*
X7468929Y-15319024D02*
X7449881Y-15309500D01*
X7449881Y-15309500D02*
X7440358Y-15299976D01*
X7440358Y-15299976D02*
X7430834Y-15280928D01*
X7430834Y-15280928D02*
X7430834Y-15223786D01*
X7430834Y-15223786D02*
X7440358Y-15204738D01*
X7440358Y-15204738D02*
X7449881Y-15195214D01*
X7449881Y-15195214D02*
X7468929Y-15185690D01*
X7468929Y-15185690D02*
X7497501Y-15185690D01*
X7497501Y-15185690D02*
X7516548Y-15195214D01*
X7516548Y-15195214D02*
X7526072Y-15204738D01*
X7526072Y-15204738D02*
X7535596Y-15223786D01*
X7535596Y-15223786D02*
X7535596Y-15280928D01*
X7535596Y-15280928D02*
X7526072Y-15299976D01*
X7526072Y-15299976D02*
X7516548Y-15309500D01*
X7516548Y-15309500D02*
X7497501Y-15319024D01*
X7497501Y-15319024D02*
X7468929Y-15319024D01*
X7592739Y-15185690D02*
X7668929Y-15185690D01*
X7621310Y-15119024D02*
X7621310Y-15290452D01*
X7621310Y-15290452D02*
X7630834Y-15309500D01*
X7630834Y-15309500D02*
X7649881Y-15319024D01*
X7649881Y-15319024D02*
X7668929Y-15319024D01*
X7726072Y-15309500D02*
X7745120Y-15319024D01*
X7745120Y-15319024D02*
X7783215Y-15319024D01*
X7783215Y-15319024D02*
X7802262Y-15309500D01*
X7802262Y-15309500D02*
X7811786Y-15290452D01*
X7811786Y-15290452D02*
X7811786Y-15280928D01*
X7811786Y-15280928D02*
X7802262Y-15261881D01*
X7802262Y-15261881D02*
X7783215Y-15252357D01*
X7783215Y-15252357D02*
X7754643Y-15252357D01*
X7754643Y-15252357D02*
X7735596Y-15242833D01*
X7735596Y-15242833D02*
X7726072Y-15223786D01*
X7726072Y-15223786D02*
X7726072Y-15214262D01*
X7726072Y-15214262D02*
X7735596Y-15195214D01*
X7735596Y-15195214D02*
X7754643Y-15185690D01*
X7754643Y-15185690D02*
X7783215Y-15185690D01*
X7783215Y-15185690D02*
X7802262Y-15195214D01*
X7878453Y-15395214D02*
X7887977Y-15385690D01*
X7887977Y-15385690D02*
X7907024Y-15357119D01*
X7907024Y-15357119D02*
X7916548Y-15338071D01*
X7916548Y-15338071D02*
X7926072Y-15309500D01*
X7926072Y-15309500D02*
X7935596Y-15261881D01*
X7935596Y-15261881D02*
X7935596Y-15223786D01*
X7935596Y-15223786D02*
X7926072Y-15176167D01*
X7926072Y-15176167D02*
X7916548Y-15147595D01*
X7916548Y-15147595D02*
X7907024Y-15128548D01*
X7907024Y-15128548D02*
X7887977Y-15099976D01*
X7887977Y-15099976D02*
X7878453Y-15090452D01*
X1297500Y-15390500D02*
X1497500Y-15590500D01*
X1497500Y-15390500D02*
X1297500Y-15590500D01*
X1468211Y-15561211D02*
X1468211Y-15419789D01*
X1326789Y-15419789D01*
X1326789Y-15561211D01*
X1468211Y-15561211D01*
X1840357Y-15383024D02*
X1745119Y-15383024D01*
X1745119Y-15383024D02*
X1735595Y-15478262D01*
X1735595Y-15478262D02*
X1745119Y-15468738D01*
X1745119Y-15468738D02*
X1764167Y-15459214D01*
X1764167Y-15459214D02*
X1811786Y-15459214D01*
X1811786Y-15459214D02*
X1830833Y-15468738D01*
X1830833Y-15468738D02*
X1840357Y-15478262D01*
X1840357Y-15478262D02*
X1849881Y-15497309D01*
X1849881Y-15497309D02*
X1849881Y-15544928D01*
X1849881Y-15544928D02*
X1840357Y-15563976D01*
X1840357Y-15563976D02*
X1830833Y-15573500D01*
X1830833Y-15573500D02*
X1811786Y-15583024D01*
X1811786Y-15583024D02*
X1764167Y-15583024D01*
X1764167Y-15583024D02*
X1745119Y-15573500D01*
X1745119Y-15573500D02*
X1735595Y-15563976D01*
X1935595Y-15563976D02*
X1945119Y-15573500D01*
X1945119Y-15573500D02*
X1935595Y-15583024D01*
X1935595Y-15583024D02*
X1926071Y-15573500D01*
X1926071Y-15573500D02*
X1935595Y-15563976D01*
X1935595Y-15563976D02*
X1935595Y-15583024D01*
X2068928Y-15383024D02*
X2087976Y-15383024D01*
X2087976Y-15383024D02*
X2107024Y-15392548D01*
X2107024Y-15392548D02*
X2116548Y-15402071D01*
X2116548Y-15402071D02*
X2126071Y-15421119D01*
X2126071Y-15421119D02*
X2135595Y-15459214D01*
X2135595Y-15459214D02*
X2135595Y-15506833D01*
X2135595Y-15506833D02*
X2126071Y-15544928D01*
X2126071Y-15544928D02*
X2116548Y-15563976D01*
X2116548Y-15563976D02*
X2107024Y-15573500D01*
X2107024Y-15573500D02*
X2087976Y-15583024D01*
X2087976Y-15583024D02*
X2068928Y-15583024D01*
X2068928Y-15583024D02*
X2049881Y-15573500D01*
X2049881Y-15573500D02*
X2040357Y-15563976D01*
X2040357Y-15563976D02*
X2030833Y-15544928D01*
X2030833Y-15544928D02*
X2021309Y-15506833D01*
X2021309Y-15506833D02*
X2021309Y-15459214D01*
X2021309Y-15459214D02*
X2030833Y-15421119D01*
X2030833Y-15421119D02*
X2040357Y-15402071D01*
X2040357Y-15402071D02*
X2049881Y-15392548D01*
X2049881Y-15392548D02*
X2068928Y-15383024D01*
X2259405Y-15383024D02*
X2278452Y-15383024D01*
X2278452Y-15383024D02*
X2297500Y-15392548D01*
X2297500Y-15392548D02*
X2307024Y-15402071D01*
X2307024Y-15402071D02*
X2316548Y-15421119D01*
X2316548Y-15421119D02*
X2326071Y-15459214D01*
X2326071Y-15459214D02*
X2326071Y-15506833D01*
X2326071Y-15506833D02*
X2316548Y-15544928D01*
X2316548Y-15544928D02*
X2307024Y-15563976D01*
X2307024Y-15563976D02*
X2297500Y-15573500D01*
X2297500Y-15573500D02*
X2278452Y-15583024D01*
X2278452Y-15583024D02*
X2259405Y-15583024D01*
X2259405Y-15583024D02*
X2240357Y-15573500D01*
X2240357Y-15573500D02*
X2230833Y-15563976D01*
X2230833Y-15563976D02*
X2221310Y-15544928D01*
X2221310Y-15544928D02*
X2211786Y-15506833D01*
X2211786Y-15506833D02*
X2211786Y-15459214D01*
X2211786Y-15459214D02*
X2221310Y-15421119D01*
X2221310Y-15421119D02*
X2230833Y-15402071D01*
X2230833Y-15402071D02*
X2240357Y-15392548D01*
X2240357Y-15392548D02*
X2259405Y-15383024D01*
X2449881Y-15383024D02*
X2468929Y-15383024D01*
X2468929Y-15383024D02*
X2487976Y-15392548D01*
X2487976Y-15392548D02*
X2497500Y-15402071D01*
X2497500Y-15402071D02*
X2507024Y-15421119D01*
X2507024Y-15421119D02*
X2516548Y-15459214D01*
X2516548Y-15459214D02*
X2516548Y-15506833D01*
X2516548Y-15506833D02*
X2507024Y-15544928D01*
X2507024Y-15544928D02*
X2497500Y-15563976D01*
X2497500Y-15563976D02*
X2487976Y-15573500D01*
X2487976Y-15573500D02*
X2468929Y-15583024D01*
X2468929Y-15583024D02*
X2449881Y-15583024D01*
X2449881Y-15583024D02*
X2430833Y-15573500D01*
X2430833Y-15573500D02*
X2421310Y-15563976D01*
X2421310Y-15563976D02*
X2411786Y-15544928D01*
X2411786Y-15544928D02*
X2402262Y-15506833D01*
X2402262Y-15506833D02*
X2402262Y-15459214D01*
X2402262Y-15459214D02*
X2411786Y-15421119D01*
X2411786Y-15421119D02*
X2421310Y-15402071D01*
X2421310Y-15402071D02*
X2430833Y-15392548D01*
X2430833Y-15392548D02*
X2449881Y-15383024D01*
X2602262Y-15583024D02*
X2602262Y-15449690D01*
X2602262Y-15468738D02*
X2611786Y-15459214D01*
X2611786Y-15459214D02*
X2630833Y-15449690D01*
X2630833Y-15449690D02*
X2659405Y-15449690D01*
X2659405Y-15449690D02*
X2678452Y-15459214D01*
X2678452Y-15459214D02*
X2687976Y-15478262D01*
X2687976Y-15478262D02*
X2687976Y-15583024D01*
X2687976Y-15478262D02*
X2697500Y-15459214D01*
X2697500Y-15459214D02*
X2716548Y-15449690D01*
X2716548Y-15449690D02*
X2745119Y-15449690D01*
X2745119Y-15449690D02*
X2764167Y-15459214D01*
X2764167Y-15459214D02*
X2773691Y-15478262D01*
X2773691Y-15478262D02*
X2773691Y-15583024D01*
X2868929Y-15583024D02*
X2868929Y-15449690D01*
X2868929Y-15468738D02*
X2878452Y-15459214D01*
X2878452Y-15459214D02*
X2897500Y-15449690D01*
X2897500Y-15449690D02*
X2926071Y-15449690D01*
X2926071Y-15449690D02*
X2945119Y-15459214D01*
X2945119Y-15459214D02*
X2954643Y-15478262D01*
X2954643Y-15478262D02*
X2954643Y-15583024D01*
X2954643Y-15478262D02*
X2964167Y-15459214D01*
X2964167Y-15459214D02*
X2983214Y-15449690D01*
X2983214Y-15449690D02*
X3011786Y-15449690D01*
X3011786Y-15449690D02*
X3030833Y-15459214D01*
X3030833Y-15459214D02*
X3040357Y-15478262D01*
X3040357Y-15478262D02*
X3040357Y-15583024D01*
X3430833Y-15373500D02*
X3259405Y-15630643D01*
X3687976Y-15383024D02*
X3707024Y-15383024D01*
X3707024Y-15383024D02*
X3726072Y-15392548D01*
X3726072Y-15392548D02*
X3735595Y-15402071D01*
X3735595Y-15402071D02*
X3745119Y-15421119D01*
X3745119Y-15421119D02*
X3754643Y-15459214D01*
X3754643Y-15459214D02*
X3754643Y-15506833D01*
X3754643Y-15506833D02*
X3745119Y-15544928D01*
X3745119Y-15544928D02*
X3735595Y-15563976D01*
X3735595Y-15563976D02*
X3726072Y-15573500D01*
X3726072Y-15573500D02*
X3707024Y-15583024D01*
X3707024Y-15583024D02*
X3687976Y-15583024D01*
X3687976Y-15583024D02*
X3668929Y-15573500D01*
X3668929Y-15573500D02*
X3659405Y-15563976D01*
X3659405Y-15563976D02*
X3649881Y-15544928D01*
X3649881Y-15544928D02*
X3640357Y-15506833D01*
X3640357Y-15506833D02*
X3640357Y-15459214D01*
X3640357Y-15459214D02*
X3649881Y-15421119D01*
X3649881Y-15421119D02*
X3659405Y-15402071D01*
X3659405Y-15402071D02*
X3668929Y-15392548D01*
X3668929Y-15392548D02*
X3687976Y-15383024D01*
X3840357Y-15563976D02*
X3849881Y-15573500D01*
X3849881Y-15573500D02*
X3840357Y-15583024D01*
X3840357Y-15583024D02*
X3830833Y-15573500D01*
X3830833Y-15573500D02*
X3840357Y-15563976D01*
X3840357Y-15563976D02*
X3840357Y-15583024D01*
X4040357Y-15583024D02*
X3926072Y-15583024D01*
X3983214Y-15583024D02*
X3983214Y-15383024D01*
X3983214Y-15383024D02*
X3964167Y-15411595D01*
X3964167Y-15411595D02*
X3945119Y-15430643D01*
X3945119Y-15430643D02*
X3926072Y-15440167D01*
X4135595Y-15583024D02*
X4173691Y-15583024D01*
X4173691Y-15583024D02*
X4192738Y-15573500D01*
X4192738Y-15573500D02*
X4202262Y-15563976D01*
X4202262Y-15563976D02*
X4221310Y-15535405D01*
X4221310Y-15535405D02*
X4230834Y-15497309D01*
X4230834Y-15497309D02*
X4230834Y-15421119D01*
X4230834Y-15421119D02*
X4221310Y-15402071D01*
X4221310Y-15402071D02*
X4211786Y-15392548D01*
X4211786Y-15392548D02*
X4192738Y-15383024D01*
X4192738Y-15383024D02*
X4154643Y-15383024D01*
X4154643Y-15383024D02*
X4135595Y-15392548D01*
X4135595Y-15392548D02*
X4126072Y-15402071D01*
X4126072Y-15402071D02*
X4116548Y-15421119D01*
X4116548Y-15421119D02*
X4116548Y-15468738D01*
X4116548Y-15468738D02*
X4126072Y-15487786D01*
X4126072Y-15487786D02*
X4135595Y-15497309D01*
X4135595Y-15497309D02*
X4154643Y-15506833D01*
X4154643Y-15506833D02*
X4192738Y-15506833D01*
X4192738Y-15506833D02*
X4211786Y-15497309D01*
X4211786Y-15497309D02*
X4221310Y-15487786D01*
X4221310Y-15487786D02*
X4230834Y-15468738D01*
X4402262Y-15383024D02*
X4364167Y-15383024D01*
X4364167Y-15383024D02*
X4345119Y-15392548D01*
X4345119Y-15392548D02*
X4335595Y-15402071D01*
X4335595Y-15402071D02*
X4316548Y-15430643D01*
X4316548Y-15430643D02*
X4307024Y-15468738D01*
X4307024Y-15468738D02*
X4307024Y-15544928D01*
X4307024Y-15544928D02*
X4316548Y-15563976D01*
X4316548Y-15563976D02*
X4326072Y-15573500D01*
X4326072Y-15573500D02*
X4345119Y-15583024D01*
X4345119Y-15583024D02*
X4383215Y-15583024D01*
X4383215Y-15583024D02*
X4402262Y-15573500D01*
X4402262Y-15573500D02*
X4411786Y-15563976D01*
X4411786Y-15563976D02*
X4421310Y-15544928D01*
X4421310Y-15544928D02*
X4421310Y-15497309D01*
X4421310Y-15497309D02*
X4411786Y-15478262D01*
X4411786Y-15478262D02*
X4402262Y-15468738D01*
X4402262Y-15468738D02*
X4383215Y-15459214D01*
X4383215Y-15459214D02*
X4345119Y-15459214D01*
X4345119Y-15459214D02*
X4326072Y-15468738D01*
X4326072Y-15468738D02*
X4316548Y-15478262D01*
X4316548Y-15478262D02*
X4307024Y-15497309D01*
X4516548Y-15583024D02*
X4554643Y-15583024D01*
X4554643Y-15583024D02*
X4573691Y-15573500D01*
X4573691Y-15573500D02*
X4583215Y-15563976D01*
X4583215Y-15563976D02*
X4602262Y-15535405D01*
X4602262Y-15535405D02*
X4611786Y-15497309D01*
X4611786Y-15497309D02*
X4611786Y-15421119D01*
X4611786Y-15421119D02*
X4602262Y-15402071D01*
X4602262Y-15402071D02*
X4592738Y-15392548D01*
X4592738Y-15392548D02*
X4573691Y-15383024D01*
X4573691Y-15383024D02*
X4535595Y-15383024D01*
X4535595Y-15383024D02*
X4516548Y-15392548D01*
X4516548Y-15392548D02*
X4507024Y-15402071D01*
X4507024Y-15402071D02*
X4497500Y-15421119D01*
X4497500Y-15421119D02*
X4497500Y-15468738D01*
X4497500Y-15468738D02*
X4507024Y-15487786D01*
X4507024Y-15487786D02*
X4516548Y-15497309D01*
X4516548Y-15497309D02*
X4535595Y-15506833D01*
X4535595Y-15506833D02*
X4573691Y-15506833D01*
X4573691Y-15506833D02*
X4592738Y-15497309D01*
X4592738Y-15497309D02*
X4602262Y-15487786D01*
X4602262Y-15487786D02*
X4611786Y-15468738D01*
X4687976Y-15383024D02*
X4687976Y-15421119D01*
X4764167Y-15383024D02*
X4764167Y-15421119D01*
X5059405Y-15659214D02*
X5049881Y-15649690D01*
X5049881Y-15649690D02*
X5030834Y-15621119D01*
X5030834Y-15621119D02*
X5021310Y-15602071D01*
X5021310Y-15602071D02*
X5011786Y-15573500D01*
X5011786Y-15573500D02*
X5002262Y-15525881D01*
X5002262Y-15525881D02*
X5002262Y-15487786D01*
X5002262Y-15487786D02*
X5011786Y-15440167D01*
X5011786Y-15440167D02*
X5021310Y-15411595D01*
X5021310Y-15411595D02*
X5030834Y-15392548D01*
X5030834Y-15392548D02*
X5049881Y-15363976D01*
X5049881Y-15363976D02*
X5059405Y-15354452D01*
X5221310Y-15449690D02*
X5221310Y-15583024D01*
X5173691Y-15373500D02*
X5126072Y-15516357D01*
X5126072Y-15516357D02*
X5249881Y-15516357D01*
X5478453Y-15583024D02*
X5478453Y-15383024D01*
X5564167Y-15583024D02*
X5564167Y-15478262D01*
X5564167Y-15478262D02*
X5554643Y-15459214D01*
X5554643Y-15459214D02*
X5535596Y-15449690D01*
X5535596Y-15449690D02*
X5507024Y-15449690D01*
X5507024Y-15449690D02*
X5487977Y-15459214D01*
X5487977Y-15459214D02*
X5478453Y-15468738D01*
X5687976Y-15583024D02*
X5668929Y-15573500D01*
X5668929Y-15573500D02*
X5659405Y-15563976D01*
X5659405Y-15563976D02*
X5649881Y-15544928D01*
X5649881Y-15544928D02*
X5649881Y-15487786D01*
X5649881Y-15487786D02*
X5659405Y-15468738D01*
X5659405Y-15468738D02*
X5668929Y-15459214D01*
X5668929Y-15459214D02*
X5687976Y-15449690D01*
X5687976Y-15449690D02*
X5716548Y-15449690D01*
X5716548Y-15449690D02*
X5735596Y-15459214D01*
X5735596Y-15459214D02*
X5745119Y-15468738D01*
X5745119Y-15468738D02*
X5754643Y-15487786D01*
X5754643Y-15487786D02*
X5754643Y-15544928D01*
X5754643Y-15544928D02*
X5745119Y-15563976D01*
X5745119Y-15563976D02*
X5735596Y-15573500D01*
X5735596Y-15573500D02*
X5716548Y-15583024D01*
X5716548Y-15583024D02*
X5687976Y-15583024D01*
X5868929Y-15583024D02*
X5849881Y-15573500D01*
X5849881Y-15573500D02*
X5840357Y-15554452D01*
X5840357Y-15554452D02*
X5840357Y-15383024D01*
X6021310Y-15573500D02*
X6002262Y-15583024D01*
X6002262Y-15583024D02*
X5964167Y-15583024D01*
X5964167Y-15583024D02*
X5945119Y-15573500D01*
X5945119Y-15573500D02*
X5935596Y-15554452D01*
X5935596Y-15554452D02*
X5935596Y-15478262D01*
X5935596Y-15478262D02*
X5945119Y-15459214D01*
X5945119Y-15459214D02*
X5964167Y-15449690D01*
X5964167Y-15449690D02*
X6002262Y-15449690D01*
X6002262Y-15449690D02*
X6021310Y-15459214D01*
X6021310Y-15459214D02*
X6030834Y-15478262D01*
X6030834Y-15478262D02*
X6030834Y-15497309D01*
X6030834Y-15497309D02*
X5935596Y-15516357D01*
X6107024Y-15573500D02*
X6126072Y-15583024D01*
X6126072Y-15583024D02*
X6164167Y-15583024D01*
X6164167Y-15583024D02*
X6183215Y-15573500D01*
X6183215Y-15573500D02*
X6192738Y-15554452D01*
X6192738Y-15554452D02*
X6192738Y-15544928D01*
X6192738Y-15544928D02*
X6183215Y-15525881D01*
X6183215Y-15525881D02*
X6164167Y-15516357D01*
X6164167Y-15516357D02*
X6135596Y-15516357D01*
X6135596Y-15516357D02*
X6116548Y-15506833D01*
X6116548Y-15506833D02*
X6107024Y-15487786D01*
X6107024Y-15487786D02*
X6107024Y-15478262D01*
X6107024Y-15478262D02*
X6116548Y-15459214D01*
X6116548Y-15459214D02*
X6135596Y-15449690D01*
X6135596Y-15449690D02*
X6164167Y-15449690D01*
X6164167Y-15449690D02*
X6183215Y-15459214D01*
X6259405Y-15659214D02*
X6268929Y-15649690D01*
X6268929Y-15649690D02*
X6287977Y-15621119D01*
X6287977Y-15621119D02*
X6297500Y-15602071D01*
X6297500Y-15602071D02*
X6307024Y-15573500D01*
X6307024Y-15573500D02*
X6316548Y-15525881D01*
X6316548Y-15525881D02*
X6316548Y-15487786D01*
X6316548Y-15487786D02*
X6307024Y-15440167D01*
X6307024Y-15440167D02*
X6297500Y-15411595D01*
X6297500Y-15411595D02*
X6287977Y-15392548D01*
X6287977Y-15392548D02*
X6268929Y-15363976D01*
X6268929Y-15363976D02*
X6259405Y-15354452D01*
M02*
