G04 #@! TF.GenerationSoftware,KiCad,Pcbnew,6.0.5-a6ca702e91~116~ubuntu20.04.1*
G04 #@! TF.CreationDate,2022-06-20T15:39:49-06:00*
G04 #@! TF.ProjectId,colordance-brain,636f6c6f-7264-4616-9e63-652d62726169,rev?*
G04 #@! TF.SameCoordinates,Original*
G04 #@! TF.FileFunction,Paste,Bot*
G04 #@! TF.FilePolarity,Positive*
%FSLAX46Y46*%
G04 Gerber Fmt 4.6, Leading zero omitted, Abs format (unit mm)*
G04 Created by KiCad (PCBNEW 6.0.5-a6ca702e91~116~ubuntu20.04.1) date 2022-06-20 15:39:49*
%MOMM*%
%LPD*%
G01*
G04 APERTURE LIST*
G04 Aperture macros list*
%AMRoundRect*
0 Rectangle with rounded corners*
0 $1 Rounding radius*
0 $2 $3 $4 $5 $6 $7 $8 $9 X,Y pos of 4 corners*
0 Add a 4 corners polygon primitive as box body*
4,1,4,$2,$3,$4,$5,$6,$7,$8,$9,$2,$3,0*
0 Add four circle primitives for the rounded corners*
1,1,$1+$1,$2,$3*
1,1,$1+$1,$4,$5*
1,1,$1+$1,$6,$7*
1,1,$1+$1,$8,$9*
0 Add four rect primitives between the rounded corners*
20,1,$1+$1,$2,$3,$4,$5,0*
20,1,$1+$1,$4,$5,$6,$7,0*
20,1,$1+$1,$6,$7,$8,$9,0*
20,1,$1+$1,$8,$9,$2,$3,0*%
G04 Aperture macros list end*
%ADD10RoundRect,0.225000X-0.225000X-0.250000X0.225000X-0.250000X0.225000X0.250000X-0.225000X0.250000X0*%
%ADD11RoundRect,0.150000X-0.825000X-0.150000X0.825000X-0.150000X0.825000X0.150000X-0.825000X0.150000X0*%
%ADD12RoundRect,0.200000X-0.200000X-0.275000X0.200000X-0.275000X0.200000X0.275000X-0.200000X0.275000X0*%
%ADD13RoundRect,0.200000X0.200000X0.275000X-0.200000X0.275000X-0.200000X-0.275000X0.200000X-0.275000X0*%
%ADD14RoundRect,0.200000X-0.275000X0.200000X-0.275000X-0.200000X0.275000X-0.200000X0.275000X0.200000X0*%
%ADD15RoundRect,0.200000X0.275000X-0.200000X0.275000X0.200000X-0.275000X0.200000X-0.275000X-0.200000X0*%
%ADD16R,2.300000X2.500000*%
%ADD17R,2.500000X2.300000*%
%ADD18RoundRect,0.225000X0.225000X0.250000X-0.225000X0.250000X-0.225000X-0.250000X0.225000X-0.250000X0*%
%ADD19RoundRect,0.225000X0.250000X-0.225000X0.250000X0.225000X-0.250000X0.225000X-0.250000X-0.225000X0*%
%ADD20RoundRect,0.250000X0.250000X0.475000X-0.250000X0.475000X-0.250000X-0.475000X0.250000X-0.475000X0*%
%ADD21RoundRect,0.225000X-0.250000X0.225000X-0.250000X-0.225000X0.250000X-0.225000X0.250000X0.225000X0*%
%ADD22RoundRect,0.250000X-0.475000X0.250000X-0.475000X-0.250000X0.475000X-0.250000X0.475000X0.250000X0*%
%ADD23R,0.900000X1.200000*%
%ADD24RoundRect,0.249999X-0.262501X-0.450001X0.262501X-0.450001X0.262501X0.450001X-0.262501X0.450001X0*%
%ADD25R,0.650000X1.060000*%
%ADD26RoundRect,0.150000X0.825000X0.150000X-0.825000X0.150000X-0.825000X-0.150000X0.825000X-0.150000X0*%
%ADD27R,5.900000X1.600000*%
%ADD28R,0.600000X0.450000*%
%ADD29R,0.650000X0.400000*%
G04 APERTURE END LIST*
D10*
G04 #@! TO.C,C15*
X86225000Y-65300000D03*
X87775000Y-65300000D03*
G04 #@! TD*
D11*
G04 #@! TO.C,U5*
X73225000Y-63905000D03*
X73225000Y-62635000D03*
X73225000Y-61365000D03*
X73225000Y-60095000D03*
X78175000Y-60095000D03*
X78175000Y-61365000D03*
X78175000Y-62635000D03*
X78175000Y-63905000D03*
G04 #@! TD*
D12*
G04 #@! TO.C,R26*
X85875000Y-117900000D03*
X87525000Y-117900000D03*
G04 #@! TD*
D13*
G04 #@! TO.C,R25*
X90925000Y-117900000D03*
X89275000Y-117900000D03*
G04 #@! TD*
D12*
G04 #@! TO.C,R24*
X69725000Y-117900000D03*
X68075000Y-117900000D03*
G04 #@! TD*
D13*
G04 #@! TO.C,R23*
X73725000Y-117900000D03*
X72075000Y-117900000D03*
G04 #@! TD*
D12*
G04 #@! TO.C,R22*
X103275000Y-117900000D03*
X104925000Y-117900000D03*
G04 #@! TD*
D13*
G04 #@! TO.C,R21*
X108425000Y-117900000D03*
X106775000Y-117900000D03*
G04 #@! TD*
D12*
G04 #@! TO.C,R20*
X120975000Y-117900000D03*
X122625000Y-117900000D03*
G04 #@! TD*
D13*
G04 #@! TO.C,R19*
X124475000Y-117900000D03*
X126125000Y-117900000D03*
G04 #@! TD*
D12*
G04 #@! TO.C,R18*
X33175000Y-117900000D03*
X34825000Y-117900000D03*
G04 #@! TD*
D13*
G04 #@! TO.C,R17*
X38325000Y-117900000D03*
X36675000Y-117900000D03*
G04 #@! TD*
D12*
G04 #@! TO.C,R16*
X50975000Y-117900000D03*
X52625000Y-117900000D03*
G04 #@! TD*
D13*
G04 #@! TO.C,R15*
X56125000Y-117900000D03*
X54475000Y-117900000D03*
G04 #@! TD*
D14*
G04 #@! TO.C,R14*
X87900000Y-52975000D03*
X87900000Y-54625000D03*
G04 #@! TD*
D15*
G04 #@! TO.C,R13*
X60200000Y-58575000D03*
X60200000Y-60225000D03*
G04 #@! TD*
D14*
G04 #@! TO.C,R12*
X118100000Y-52175000D03*
X118100000Y-53825000D03*
G04 #@! TD*
D12*
G04 #@! TO.C,R9*
X23675000Y-109300000D03*
X25325000Y-109300000D03*
G04 #@! TD*
D14*
G04 #@! TO.C,R8*
X71800000Y-53925000D03*
X71800000Y-52275000D03*
G04 #@! TD*
D13*
G04 #@! TO.C,R7*
X49425000Y-72800000D03*
X47775000Y-72800000D03*
G04 #@! TD*
D14*
G04 #@! TO.C,R6*
X107300000Y-52175000D03*
X107300000Y-53825000D03*
G04 #@! TD*
D15*
G04 #@! TO.C,R5*
X50000000Y-60625000D03*
X50000000Y-58975000D03*
G04 #@! TD*
D13*
G04 #@! TO.C,R4*
X103225000Y-57600000D03*
X101575000Y-57600000D03*
G04 #@! TD*
D16*
G04 #@! TO.C,D11*
X100600000Y-53050000D03*
X100600000Y-48750000D03*
G04 #@! TD*
D17*
G04 #@! TO.C,D10*
X94650000Y-60200000D03*
X90350000Y-60200000D03*
G04 #@! TD*
G04 #@! TO.C,D9*
X94650000Y-55000000D03*
X90350000Y-55000000D03*
G04 #@! TD*
D16*
G04 #@! TO.C,D8*
X84600000Y-48750000D03*
X84600000Y-53050000D03*
G04 #@! TD*
D17*
G04 #@! TO.C,D4*
X74250000Y-52100000D03*
X78550000Y-52100000D03*
G04 #@! TD*
G04 #@! TO.C,D3*
X107650000Y-61000000D03*
X103350000Y-61000000D03*
G04 #@! TD*
D10*
G04 #@! TO.C,C35*
X85925000Y-119600000D03*
X87475000Y-119600000D03*
G04 #@! TD*
D18*
G04 #@! TO.C,C34*
X90875000Y-119600000D03*
X89325000Y-119600000D03*
G04 #@! TD*
D10*
G04 #@! TO.C,C30*
X103325000Y-119600000D03*
X104875000Y-119600000D03*
G04 #@! TD*
D18*
G04 #@! TO.C,C29*
X108375000Y-119600000D03*
X106825000Y-119600000D03*
G04 #@! TD*
D10*
G04 #@! TO.C,C25*
X34775000Y-119600000D03*
X33225000Y-119600000D03*
G04 #@! TD*
D18*
G04 #@! TO.C,C24*
X38275000Y-119600000D03*
X36725000Y-119600000D03*
G04 #@! TD*
D10*
G04 #@! TO.C,C20*
X86325000Y-60700000D03*
X87875000Y-60700000D03*
G04 #@! TD*
D18*
G04 #@! TO.C,C19*
X75175000Y-58400000D03*
X73625000Y-58400000D03*
G04 #@! TD*
D19*
G04 #@! TO.C,C1*
X81600000Y-53475000D03*
X81600000Y-51925000D03*
G04 #@! TD*
D10*
G04 #@! TO.C,C3*
X53975000Y-64500000D03*
X52425000Y-64500000D03*
G04 #@! TD*
D19*
G04 #@! TO.C,C4*
X122800000Y-53775000D03*
X122800000Y-52225000D03*
G04 #@! TD*
D20*
G04 #@! TO.C,C5*
X20050000Y-78400000D03*
X18150000Y-78400000D03*
G04 #@! TD*
D21*
G04 #@! TO.C,C6*
X105500000Y-52225000D03*
X105500000Y-53775000D03*
G04 #@! TD*
D19*
G04 #@! TO.C,C8*
X26000000Y-80775000D03*
X26000000Y-79225000D03*
G04 #@! TD*
D10*
G04 #@! TO.C,C13*
X62925000Y-64200000D03*
X64475000Y-64200000D03*
G04 #@! TD*
D19*
G04 #@! TO.C,C9*
X111900000Y-53875000D03*
X111900000Y-52325000D03*
G04 #@! TD*
D22*
G04 #@! TO.C,C11*
X32200000Y-82850000D03*
X32200000Y-84750000D03*
G04 #@! TD*
D21*
G04 #@! TO.C,C10*
X116400000Y-52225000D03*
X116400000Y-53775000D03*
G04 #@! TD*
G04 #@! TO.C,C12*
X29900000Y-83025000D03*
X29900000Y-84575000D03*
G04 #@! TD*
G04 #@! TO.C,C16*
X78000000Y-69925000D03*
X78000000Y-71475000D03*
G04 #@! TD*
D18*
G04 #@! TO.C,C17*
X121175000Y-85300000D03*
X119625000Y-85300000D03*
G04 #@! TD*
D10*
G04 #@! TO.C,C18*
X115625000Y-80500000D03*
X117175000Y-80500000D03*
G04 #@! TD*
G04 #@! TO.C,C21*
X43225000Y-96500000D03*
X44775000Y-96500000D03*
G04 #@! TD*
D18*
G04 #@! TO.C,C22*
X56075000Y-119600000D03*
X54525000Y-119600000D03*
G04 #@! TD*
D10*
G04 #@! TO.C,C23*
X51025000Y-119600000D03*
X52575000Y-119600000D03*
G04 #@! TD*
G04 #@! TO.C,C26*
X114225000Y-96400000D03*
X115775000Y-96400000D03*
G04 #@! TD*
D18*
G04 #@! TO.C,C27*
X124525000Y-119600000D03*
X126075000Y-119600000D03*
G04 #@! TD*
D10*
G04 #@! TO.C,C28*
X121025000Y-119600000D03*
X122575000Y-119600000D03*
G04 #@! TD*
D18*
G04 #@! TO.C,C31*
X79775000Y-109500000D03*
X78225000Y-109500000D03*
G04 #@! TD*
G04 #@! TO.C,C32*
X73675000Y-119600000D03*
X72125000Y-119600000D03*
G04 #@! TD*
D10*
G04 #@! TO.C,C33*
X68125000Y-119600000D03*
X69675000Y-119600000D03*
G04 #@! TD*
D23*
G04 #@! TO.C,D5*
X23850000Y-75800000D03*
X20550000Y-75800000D03*
G04 #@! TD*
D16*
G04 #@! TO.C,D7*
X35900000Y-83250000D03*
X35900000Y-87550000D03*
G04 #@! TD*
G04 #@! TO.C,D13*
X52000000Y-108150000D03*
X52000000Y-103850000D03*
G04 #@! TD*
G04 #@! TO.C,D14*
X58000000Y-103850000D03*
X58000000Y-108150000D03*
G04 #@! TD*
G04 #@! TO.C,D15*
X58000000Y-100150000D03*
X58000000Y-95850000D03*
G04 #@! TD*
G04 #@! TO.C,D16*
X30000000Y-103850000D03*
X30000000Y-108150000D03*
G04 #@! TD*
G04 #@! TO.C,D17*
X30000000Y-95850000D03*
X30000000Y-100150000D03*
G04 #@! TD*
G04 #@! TO.C,D18*
X36000000Y-100150000D03*
X36000000Y-95850000D03*
G04 #@! TD*
G04 #@! TO.C,D19*
X36000000Y-103850000D03*
X36000000Y-108150000D03*
G04 #@! TD*
G04 #@! TO.C,D20*
X123000000Y-103850000D03*
X123000000Y-108150000D03*
G04 #@! TD*
G04 #@! TO.C,D21*
X123000000Y-95900000D03*
X123000000Y-100200000D03*
G04 #@! TD*
G04 #@! TO.C,D22*
X129000000Y-100150000D03*
X129000000Y-95850000D03*
G04 #@! TD*
G04 #@! TO.C,D23*
X129000000Y-103850000D03*
X129000000Y-108150000D03*
G04 #@! TD*
G04 #@! TO.C,D24*
X101000000Y-103850000D03*
X101000000Y-108150000D03*
G04 #@! TD*
G04 #@! TO.C,D26*
X107000000Y-103850000D03*
X107000000Y-108150000D03*
G04 #@! TD*
G04 #@! TO.C,D28*
X65000000Y-100150000D03*
X65000000Y-95850000D03*
G04 #@! TD*
G04 #@! TO.C,D30*
X71000000Y-103850000D03*
X71000000Y-108150000D03*
G04 #@! TD*
G04 #@! TO.C,D31*
X71000000Y-100150000D03*
X71000000Y-95850000D03*
G04 #@! TD*
G04 #@! TO.C,D32*
X88000000Y-100150000D03*
X88000000Y-95850000D03*
G04 #@! TD*
G04 #@! TO.C,D33*
X88000000Y-108150000D03*
X88000000Y-103850000D03*
G04 #@! TD*
G04 #@! TO.C,D35*
X94000000Y-100150000D03*
X94000000Y-95850000D03*
G04 #@! TD*
D12*
G04 #@! TO.C,R1*
X27275000Y-87800000D03*
X28925000Y-87800000D03*
G04 #@! TD*
D24*
G04 #@! TO.C,R2*
X44187500Y-72800000D03*
X46012500Y-72800000D03*
G04 #@! TD*
D13*
G04 #@! TO.C,R3*
X45825000Y-70400000D03*
X44175000Y-70400000D03*
G04 #@! TD*
G04 #@! TO.C,R10*
X24225000Y-82600000D03*
X22575000Y-82600000D03*
G04 #@! TD*
G04 #@! TO.C,R11*
X20925000Y-82600000D03*
X19275000Y-82600000D03*
G04 #@! TD*
D25*
G04 #@! TO.C,U2*
X23950000Y-80600000D03*
X23000000Y-80600000D03*
X22050000Y-80600000D03*
X22050000Y-78400000D03*
X23000000Y-78400000D03*
X23950000Y-78400000D03*
G04 #@! TD*
D11*
G04 #@! TO.C,U8*
X76525000Y-107445000D03*
X76525000Y-106175000D03*
X76525000Y-104905000D03*
X76525000Y-103635000D03*
X76525000Y-102365000D03*
X76525000Y-101095000D03*
X76525000Y-99825000D03*
X76525000Y-98555000D03*
X81475000Y-98555000D03*
X81475000Y-99825000D03*
X81475000Y-101095000D03*
X81475000Y-102365000D03*
X81475000Y-103635000D03*
X81475000Y-104905000D03*
X81475000Y-106175000D03*
X81475000Y-107445000D03*
G04 #@! TD*
D26*
G04 #@! TO.C,U6*
X46475000Y-98555000D03*
X46475000Y-99825000D03*
X46475000Y-101095000D03*
X46475000Y-102365000D03*
X46475000Y-103635000D03*
X46475000Y-104905000D03*
X46475000Y-106175000D03*
X46475000Y-107445000D03*
X41525000Y-107445000D03*
X41525000Y-106175000D03*
X41525000Y-104905000D03*
X41525000Y-103635000D03*
X41525000Y-102365000D03*
X41525000Y-101095000D03*
X41525000Y-99825000D03*
X41525000Y-98555000D03*
G04 #@! TD*
G04 #@! TO.C,U7*
X117475000Y-98555000D03*
X117475000Y-99825000D03*
X117475000Y-101095000D03*
X117475000Y-102365000D03*
X117475000Y-103635000D03*
X117475000Y-104905000D03*
X117475000Y-106175000D03*
X117475000Y-107445000D03*
X112525000Y-107445000D03*
X112525000Y-106175000D03*
X112525000Y-104905000D03*
X112525000Y-103635000D03*
X112525000Y-102365000D03*
X112525000Y-101095000D03*
X112525000Y-99825000D03*
X112525000Y-98555000D03*
G04 #@! TD*
D17*
G04 #@! TO.C,D2*
X32850000Y-70500000D03*
X37150000Y-70500000D03*
G04 #@! TD*
D16*
G04 #@! TO.C,D29*
X65000000Y-108150000D03*
X65000000Y-103850000D03*
G04 #@! TD*
G04 #@! TO.C,D34*
X94000000Y-103850000D03*
X94000000Y-108150000D03*
G04 #@! TD*
G04 #@! TO.C,D27*
X107000000Y-100150000D03*
X107000000Y-95850000D03*
G04 #@! TD*
G04 #@! TO.C,D25*
X101000000Y-95850000D03*
X101000000Y-100150000D03*
G04 #@! TD*
D27*
G04 #@! TO.C,L1*
X30500000Y-75650000D03*
X30500000Y-80350000D03*
G04 #@! TD*
D28*
G04 #@! TO.C,D6*
X26050000Y-82800000D03*
X28150000Y-82800000D03*
G04 #@! TD*
D18*
G04 #@! TO.C,C7*
X45775000Y-68600000D03*
X44225000Y-68600000D03*
G04 #@! TD*
D16*
G04 #@! TO.C,D12*
X52000000Y-100150000D03*
X52000000Y-95850000D03*
G04 #@! TD*
D29*
G04 #@! TO.C,U1*
X53550000Y-61350000D03*
X53550000Y-62000000D03*
X53550000Y-62650000D03*
X51650000Y-62650000D03*
X51650000Y-61350000D03*
G04 #@! TD*
G04 #@! TO.C,U3*
X63950000Y-61150000D03*
X63950000Y-61800000D03*
X63950000Y-62450000D03*
X62050000Y-62450000D03*
X62050000Y-61150000D03*
G04 #@! TD*
M02*
