<?xml version="1.0" encoding="utf-8"?>
<!-- Generator: Adobe Illustrator 23.0.4, SVG Export Plug-In . SVG Version: 6.00 Build 0)  -->
<svg version="1.1" id="Leds" xmlns="http://www.w3.org/2000/svg" xmlns:xlink="http://www.w3.org/1999/xlink" x="0px" y="0px"
	 viewBox="0 0 2160 2160" style="enable-background:new 0 0 2160 2160;" xml:space="preserve">
<style type="text/css">
	.st0{fill:none;stroke:#000000;stroke-miterlimit:10;}
	.st1{fill:none;}
</style>
<g>
	<rect x="726.2" y="1466.4" width="5.7" height="5.7"/>
</g>
<circle class="st0" cx="729" cy="1469.3" r="103.5"/>
<circle class="st0" cx="729" cy="1469.3" r="103.5"/>
<g>
	<rect x="798.1" y="1499.3" transform="matrix(0.4153 -0.9097 0.9097 0.4153 -898.1647 1606.7833)" width="5.7" height="5.7"/>
</g>
<circle class="st0" cx="729" cy="1469.3" r="103.5"/>
<g>
	<rect x="804.4" y="1455.2" transform="matrix(0.9898 -0.1425 0.1425 0.9898 -199.4718 129.8639)" width="5.7" height="5.7"/>
</g>
<circle class="st0" cx="729" cy="1469.3" r="103.5"/>
<g>
	<rect x="785.9" y="1414.7" transform="matrix(0.7556 -0.655 0.655 0.7556 -735.7393 863.0182)" width="5.7" height="5.7"/>
</g>
<circle class="st0" cx="729" cy="1469.3" r="103.5"/>
<g>
	<rect x="748.4" y="1390.6" transform="matrix(0.2815 -0.9596 0.9596 0.2815 -797.3325 1722.0547)" width="5.7" height="5.7"/>
</g>
<circle class="st0" cx="729" cy="1469.3" r="103.5"/>
<g>
	<rect x="703.9" y="1390.6" transform="matrix(0.9594 -0.282 0.282 0.9594 -364.2819 255.8552)" width="5.7" height="5.7"/>
</g>
<circle class="st0" cx="729" cy="1469.3" r="103.5"/>
<g>
	<rect x="666.4" y="1414.7" transform="matrix(0.6546 -0.756 0.756 0.6546 -840.4666 995.5469)" width="5.7" height="5.7"/>
</g>
<circle class="st0" cx="729" cy="1469.3" r="103.5"/>
<g>
	<rect x="647.9" y="1455.2" transform="matrix(0.1419 -0.9899 0.9899 0.1419 -884.8994 1895.2949)" width="5.7" height="5.7"/>
</g>
<circle class="st0" cx="729" cy="1469.3" r="103.5"/>
<g>
	<rect x="654.3" y="1499.3" transform="matrix(0.9095 -0.4158 0.4158 0.9095 -565.0972 409.2502)" width="5.7" height="5.7"/>
</g>
<circle class="st0" cx="729" cy="1469.3" r="103.5"/>
<circle class="st0" cx="603" cy="1352.3" r="32.9"/>
<g>
	<rect x="726.2" y="1430.5" width="5.7" height="5.7"/>
</g>
<g>
	<rect x="690.2" y="1466.4" width="5.7" height="5.7"/>
</g>
<g>
	<rect x="726.2" y="1502.4" width="5.7" height="5.7"/>
</g>
<g>
	<rect x="762.1" y="1466.4" width="5.7" height="5.7"/>
</g>
<g>
	<rect x="600.2" y="1349.4" width="5.7" height="5.7"/>
</g>
<path class="st0" d="M1065.8,1362.5c7.6,8.5,20.8,8.5,28.4,0c48.7-54.6,123.7-35.3,153,18.1c31.8,56.8,9.6,167.8-158.7,226.7
	c-5.5,1.9-11.5,1.9-17,0c-168.3-58.9-190.5-169.9-158.7-226.7C942.1,1327.2,1017.1,1307.9,1065.8,1362.5z"/>
<g>
	<rect x="1437.2" y="1466.4" width="5.7" height="5.7"/>
</g>
<circle class="st0" cx="1440" cy="1469.3" r="103.5"/>
<circle class="st0" cx="1440" cy="1469.3" r="103.5"/>
<circle class="st0" cx="1440" cy="1469.3" r="103.5"/>
<circle class="st0" cx="1440" cy="1469.3" r="103.5"/>
<circle class="st0" cx="1440" cy="1469.3" r="103.5"/>
<circle class="st0" cx="1440" cy="1469.3" r="103.5"/>
<circle class="st0" cx="1440" cy="1469.3" r="103.5"/>
<circle class="st0" cx="1440" cy="1469.3" r="103.5"/>
<circle class="st0" cx="1440" cy="1469.3" r="103.5"/>
<circle class="st0" cx="1440" cy="1469.3" r="103.5"/>
<g>
	<rect x="1437.2" y="1418.5" width="5.7" height="5.7"/>
</g>
<g>
	<rect x="1389.2" y="1466.4" width="5.7" height="5.7"/>
</g>
<g>
	<rect x="1437.2" y="1514.4" width="5.7" height="5.7"/>
</g>
<g>
	<rect x="1485.1" y="1466.4" width="5.7" height="5.7"/>
</g>
<g>
	<rect x="611.6" y="942.6" transform="matrix(0.5407 -0.8412 0.8412 0.5407 -513.0796 951.1744)" width="5.7" height="5.7"/>
</g>
<g>
	<rect x="678.7" y="942.6" transform="matrix(0.8412 -0.5407 0.5407 0.8412 -402.9706 518.5917)" width="5.7" height="5.7"/>
</g>
<g>
	<rect x="706.5" y="881.6" transform="matrix(0.9898 -0.1423 0.1423 0.9898 -118.6515 109.9551)" width="5.7" height="5.7"/>
</g>
<g>
	<rect x="692" y="849.9" transform="matrix(0.7557 -0.6549 0.6549 0.7557 -388.6732 663.2991)" width="5.7" height="5.7"/>
</g>
<g>
	<rect x="662.6" y="831" transform="matrix(0.2817 -0.9595 0.9595 0.2817 -322.0448 1237.4016)" width="5.7" height="5.7"/>
</g>
<g>
	<rect x="627.7" y="831" transform="matrix(0.9595 -0.2817 0.2817 0.9595 -209.3679 211.417)" width="5.7" height="5.7"/>
</g>
<g>
	<rect x="598.3" y="849.9" transform="matrix(0.6549 -0.7557 0.7557 0.6549 -436.9368 748.6142)" width="5.7" height="5.7"/>
</g>
<g>
	<rect x="583.8" y="881.6" transform="matrix(0.1423 -0.9898 0.9898 0.1423 -372.3055 1339.2562)" width="5.7" height="5.7"/>
</g>
<g>
	<rect x="645.2" y="890.4" width="5.7" height="5.7"/>
</g>
<circle class="st0" cx="648" cy="893.3" r="90"/>
<g>
	<g>
		<rect x="870.2" y="1203.4" width="5.7" height="5.7"/>
	</g>
	<g>
		<rect x="870.2" y="1135.4" width="5.7" height="5.7"/>
	</g>
	<g>
		<rect x="870.2" y="1169.4" width="5.7" height="5.7"/>
	</g>
</g>
<path class="st0" d="M884.3,1221.6h-22.5c-2.9,0-5.2-2.3-5.2-5.2v-88.3c0-2.9,2.3-5.2,5.2-5.2h22.5c2.9,0,5.2,2.3,5.2,5.2v88.3
	C889.5,1219.3,887.1,1221.6,884.3,1221.6z"/>
<g>
	<rect x="510.6" y="1196" transform="matrix(0.7071 -0.7071 0.7071 0.7071 -697.2828 714.2076)" width="5.7" height="5.7"/>
</g>
<g>
	<rect x="563.7" y="1142.9" transform="matrix(0.7071 -0.7071 0.7071 0.7071 -644.2498 736.1747)" width="5.7" height="5.7"/>
</g>
<g>
	<rect x="510.6" y="1142.9" transform="matrix(0.7071 -0.7071 0.7071 0.7071 -659.7828 698.6746)" width="5.7" height="5.7"/>
</g>
<g>
	<rect x="563.7" y="1196" transform="matrix(0.7071 -0.7071 0.7071 0.7071 -681.7498 751.7077)" width="5.7" height="5.7"/>
</g>
<path class="st0" d="M567,1109.3h-54c-19.9,0-36,16.1-36,36v54c0,19.9,16.1,36,36,36h54c19.9,0,36-16.1,36-36v-54
	C603,1125.4,586.9,1109.3,567,1109.3z"/>
<g>
	<path class="st1" d="M1080,1562.5"/>
</g>
<rect x="1011.5" y="1527.6" transform="matrix(0.5447 -0.8386 0.8386 0.5447 -821.6486 1547.4417)" width="5.7" height="5.7"/>
<rect x="966.3" y="1487.8" transform="matrix(0.7837 -0.6211 0.6211 0.7837 -716.2543 924.3597)" width="5.7" height="5.7"/>
<rect x="943.2" y="1436.2" transform="matrix(0.993 -0.1183 0.1183 0.993 -163.6268 122.0507)" width="5.7" height="5.7"/>
<rect x="965.1" y="1381.6" transform="matrix(0.81 -0.5865 0.5865 0.81 -628.0161 830.7481)" width="5.7" height="5.7"/>
<rect x="1022.2" y="1382.7" transform="matrix(0.6335 -0.7737 0.7737 0.6335 -696.3432 1300.8221)" width="5.7" height="5.7"/>
<rect x="1077.2" y="1411" width="5.7" height="5.7"/>
<g>
	<rect x="1077.2" y="1559.7" width="5.7" height="5.7"/>
</g>
<rect x="1142.9" y="1527.6" transform="matrix(0.8386 -0.5447 0.5447 0.8386 -648.7216 870.9999)" width="5.7" height="5.7"/>
<rect x="1188.1" y="1487.8" transform="matrix(0.6211 -0.7837 0.7837 0.6211 -716.991 1498.0392)" width="5.7" height="5.7"/>
<rect x="1211.1" y="1436.2" transform="matrix(0.1183 -0.993 0.993 0.1183 -358.6106 2474.1765)" width="5.7" height="5.7"/>
<rect x="1189.3" y="1381.6" transform="matrix(0.5865 -0.81 0.81 0.5865 -628.4019 1538.0594)" width="5.7" height="5.7"/>
<rect x="1132.1" y="1382.7" transform="matrix(0.7737 -0.6335 0.6335 0.7737 -620.9304 1032.5553)" width="5.7" height="5.7"/>
<rect x="1040.5" y="1472.7" width="5.7" height="5.7"/>
<rect x="1011.5" y="1454.8" width="5.7" height="5.7"/>
<rect x="1113.8" y="1472.7" width="5.7" height="5.7"/>
<rect x="1142.8" y="1454.8" width="5.7" height="5.7"/>
<rect x="1077.2" y="1485.8" width="5.7" height="5.7"/>
</svg>
