%FSLAX45Y45*%
G04 Gerber Fmt 4.5, Leading zero omitted, Abs format (unit mm)*
G04 Created by KiCad (PCBNEW 6.0.5-a6ca702e91~116~ubuntu20.04.1) date 2022-05-17 22:14:23*
%MOMM*%
%LPD*%
G01*
G04 APERTURE LIST*
%TA.AperFunction,Profile*%
%ADD10C,0.100000*%
%TD*%
%ADD11C,0.200000*%
%ADD12C,0.320000*%
G04 APERTURE END LIST*
D10*
X10600000Y-6900000D02*
X8300000Y-6900000D01*
X10800000Y-4300000D02*
G75*
G03*
X10600000Y-4100000I-200000J0D01*
G01*
X10800000Y-4300000D02*
X10800000Y-6700000D01*
X8100000Y-6700000D02*
X8100000Y-4300000D01*
X8100000Y-6700000D02*
G75*
G03*
X8300000Y-6900000I200000J0D01*
G01*
X8300000Y-4100000D02*
G75*
G03*
X8100000Y-4300000I0J-200000D01*
G01*
X10600000Y-6900000D02*
G75*
G03*
X10800000Y-6700000I0J200000D01*
G01*
X8300000Y-4100000D02*
X10600000Y-4100000D01*
D11*
D12*
X8340000Y-4340000D02*
X8660000Y-4660000D01*
X8660000Y-4340000D02*
X8340000Y-4660000D01*
X8340000Y-6340000D02*
X8660000Y-6660000D01*
X8660000Y-6340000D02*
X8340000Y-6660000D01*
X10240000Y-4340000D02*
X10560000Y-4660000D01*
X10560000Y-4340000D02*
X10240000Y-4660000D01*
X10240000Y-6340000D02*
X10560000Y-6660000D01*
X10560000Y-6340000D02*
X10240000Y-6660000D01*
D11*
X8352619Y-7215476D02*
X8352619Y-7015476D01*
X8400238Y-7015476D01*
X8428810Y-7025000D01*
X8447857Y-7044048D01*
X8457381Y-7063095D01*
X8466905Y-7101190D01*
X8466905Y-7129762D01*
X8457381Y-7167857D01*
X8447857Y-7186905D01*
X8428810Y-7205952D01*
X8400238Y-7215476D01*
X8352619Y-7215476D01*
X8552619Y-7215476D02*
X8552619Y-7082143D01*
X8552619Y-7120238D02*
X8562143Y-7101190D01*
X8571667Y-7091667D01*
X8590714Y-7082143D01*
X8609762Y-7082143D01*
X8676429Y-7215476D02*
X8676429Y-7082143D01*
X8676429Y-7015476D02*
X8666905Y-7025000D01*
X8676429Y-7034524D01*
X8685952Y-7025000D01*
X8676429Y-7015476D01*
X8676429Y-7034524D01*
X8800238Y-7215476D02*
X8781190Y-7205952D01*
X8771667Y-7186905D01*
X8771667Y-7015476D01*
X8905000Y-7215476D02*
X8885952Y-7205952D01*
X8876429Y-7186905D01*
X8876429Y-7015476D01*
X9133571Y-7215476D02*
X9133571Y-7015476D01*
X9200238Y-7158333D01*
X9266905Y-7015476D01*
X9266905Y-7215476D01*
X9447857Y-7215476D02*
X9447857Y-7110714D01*
X9438333Y-7091667D01*
X9419286Y-7082143D01*
X9381190Y-7082143D01*
X9362143Y-7091667D01*
X9447857Y-7205952D02*
X9428810Y-7215476D01*
X9381190Y-7215476D01*
X9362143Y-7205952D01*
X9352619Y-7186905D01*
X9352619Y-7167857D01*
X9362143Y-7148809D01*
X9381190Y-7139286D01*
X9428810Y-7139286D01*
X9447857Y-7129762D01*
X9543095Y-7082143D02*
X9543095Y-7282143D01*
X9543095Y-7091667D02*
X9562143Y-7082143D01*
X9600238Y-7082143D01*
X9619286Y-7091667D01*
X9628810Y-7101190D01*
X9638333Y-7120238D01*
X9638333Y-7177381D01*
X9628810Y-7196428D01*
X9619286Y-7205952D01*
X9600238Y-7215476D01*
X9562143Y-7215476D01*
X9543095Y-7205952D01*
X9724048Y-7196428D02*
X9733571Y-7205952D01*
X9724048Y-7215476D01*
X9714524Y-7205952D01*
X9724048Y-7196428D01*
X9724048Y-7215476D01*
X9724048Y-7091667D02*
X9733571Y-7101190D01*
X9724048Y-7110714D01*
X9714524Y-7101190D01*
X9724048Y-7091667D01*
X9724048Y-7110714D01*
X7895000Y-7445000D02*
X8095000Y-7645000D01*
X8095000Y-7445000D02*
X7895000Y-7645000D01*
X8333571Y-7435476D02*
X8457381Y-7435476D01*
X8390714Y-7511667D01*
X8419286Y-7511667D01*
X8438333Y-7521190D01*
X8447857Y-7530714D01*
X8457381Y-7549762D01*
X8457381Y-7597381D01*
X8447857Y-7616428D01*
X8438333Y-7625952D01*
X8419286Y-7635476D01*
X8362143Y-7635476D01*
X8343095Y-7625952D01*
X8333571Y-7616428D01*
X8543095Y-7616428D02*
X8552619Y-7625952D01*
X8543095Y-7635476D01*
X8533571Y-7625952D01*
X8543095Y-7616428D01*
X8543095Y-7635476D01*
X8628810Y-7454524D02*
X8638333Y-7445000D01*
X8657381Y-7435476D01*
X8705000Y-7435476D01*
X8724048Y-7445000D01*
X8733571Y-7454524D01*
X8743095Y-7473571D01*
X8743095Y-7492619D01*
X8733571Y-7521190D01*
X8619286Y-7635476D01*
X8743095Y-7635476D01*
X8866905Y-7435476D02*
X8885952Y-7435476D01*
X8905000Y-7445000D01*
X8914524Y-7454524D01*
X8924048Y-7473571D01*
X8933571Y-7511667D01*
X8933571Y-7559286D01*
X8924048Y-7597381D01*
X8914524Y-7616428D01*
X8905000Y-7625952D01*
X8885952Y-7635476D01*
X8866905Y-7635476D01*
X8847857Y-7625952D01*
X8838333Y-7616428D01*
X8828810Y-7597381D01*
X8819286Y-7559286D01*
X8819286Y-7511667D01*
X8828810Y-7473571D01*
X8838333Y-7454524D01*
X8847857Y-7445000D01*
X8866905Y-7435476D01*
X9057381Y-7435476D02*
X9076429Y-7435476D01*
X9095476Y-7445000D01*
X9105000Y-7454524D01*
X9114524Y-7473571D01*
X9124048Y-7511667D01*
X9124048Y-7559286D01*
X9114524Y-7597381D01*
X9105000Y-7616428D01*
X9095476Y-7625952D01*
X9076429Y-7635476D01*
X9057381Y-7635476D01*
X9038333Y-7625952D01*
X9028810Y-7616428D01*
X9019286Y-7597381D01*
X9009762Y-7559286D01*
X9009762Y-7511667D01*
X9019286Y-7473571D01*
X9028810Y-7454524D01*
X9038333Y-7445000D01*
X9057381Y-7435476D01*
X9209762Y-7635476D02*
X9209762Y-7502143D01*
X9209762Y-7521190D02*
X9219286Y-7511667D01*
X9238333Y-7502143D01*
X9266905Y-7502143D01*
X9285952Y-7511667D01*
X9295476Y-7530714D01*
X9295476Y-7635476D01*
X9295476Y-7530714D02*
X9305000Y-7511667D01*
X9324048Y-7502143D01*
X9352619Y-7502143D01*
X9371667Y-7511667D01*
X9381190Y-7530714D01*
X9381190Y-7635476D01*
X9476429Y-7635476D02*
X9476429Y-7502143D01*
X9476429Y-7521190D02*
X9485952Y-7511667D01*
X9505000Y-7502143D01*
X9533571Y-7502143D01*
X9552619Y-7511667D01*
X9562143Y-7530714D01*
X9562143Y-7635476D01*
X9562143Y-7530714D02*
X9571667Y-7511667D01*
X9590714Y-7502143D01*
X9619286Y-7502143D01*
X9638333Y-7511667D01*
X9647857Y-7530714D01*
X9647857Y-7635476D01*
X10038333Y-7425952D02*
X9866905Y-7683095D01*
X10295476Y-7435476D02*
X10314524Y-7435476D01*
X10333571Y-7445000D01*
X10343095Y-7454524D01*
X10352619Y-7473571D01*
X10362143Y-7511667D01*
X10362143Y-7559286D01*
X10352619Y-7597381D01*
X10343095Y-7616428D01*
X10333571Y-7625952D01*
X10314524Y-7635476D01*
X10295476Y-7635476D01*
X10276429Y-7625952D01*
X10266905Y-7616428D01*
X10257381Y-7597381D01*
X10247857Y-7559286D01*
X10247857Y-7511667D01*
X10257381Y-7473571D01*
X10266905Y-7454524D01*
X10276429Y-7445000D01*
X10295476Y-7435476D01*
X10447857Y-7616428D02*
X10457381Y-7625952D01*
X10447857Y-7635476D01*
X10438333Y-7625952D01*
X10447857Y-7616428D01*
X10447857Y-7635476D01*
X10647857Y-7635476D02*
X10533571Y-7635476D01*
X10590714Y-7635476D02*
X10590714Y-7435476D01*
X10571667Y-7464048D01*
X10552619Y-7483095D01*
X10533571Y-7492619D01*
X10724048Y-7454524D02*
X10733571Y-7445000D01*
X10752619Y-7435476D01*
X10800238Y-7435476D01*
X10819286Y-7445000D01*
X10828810Y-7454524D01*
X10838333Y-7473571D01*
X10838333Y-7492619D01*
X10828810Y-7521190D01*
X10714524Y-7635476D01*
X10838333Y-7635476D01*
X11009762Y-7435476D02*
X10971667Y-7435476D01*
X10952619Y-7445000D01*
X10943095Y-7454524D01*
X10924048Y-7483095D01*
X10914524Y-7521190D01*
X10914524Y-7597381D01*
X10924048Y-7616428D01*
X10933571Y-7625952D01*
X10952619Y-7635476D01*
X10990714Y-7635476D01*
X11009762Y-7625952D01*
X11019286Y-7616428D01*
X11028810Y-7597381D01*
X11028810Y-7549762D01*
X11019286Y-7530714D01*
X11009762Y-7521190D01*
X10990714Y-7511667D01*
X10952619Y-7511667D01*
X10933571Y-7521190D01*
X10924048Y-7530714D01*
X10914524Y-7549762D01*
X11152619Y-7435476D02*
X11171667Y-7435476D01*
X11190714Y-7445000D01*
X11200238Y-7454524D01*
X11209762Y-7473571D01*
X11219286Y-7511667D01*
X11219286Y-7559286D01*
X11209762Y-7597381D01*
X11200238Y-7616428D01*
X11190714Y-7625952D01*
X11171667Y-7635476D01*
X11152619Y-7635476D01*
X11133571Y-7625952D01*
X11124048Y-7616428D01*
X11114524Y-7597381D01*
X11105000Y-7559286D01*
X11105000Y-7511667D01*
X11114524Y-7473571D01*
X11124048Y-7454524D01*
X11133571Y-7445000D01*
X11152619Y-7435476D01*
X11295476Y-7435476D02*
X11295476Y-7473571D01*
X11371667Y-7435476D02*
X11371667Y-7473571D01*
X11666905Y-7711667D02*
X11657381Y-7702143D01*
X11638333Y-7673571D01*
X11628809Y-7654524D01*
X11619286Y-7625952D01*
X11609762Y-7578333D01*
X11609762Y-7540238D01*
X11619286Y-7492619D01*
X11628809Y-7464048D01*
X11638333Y-7445000D01*
X11657381Y-7416428D01*
X11666905Y-7406905D01*
X11828809Y-7502143D02*
X11828809Y-7635476D01*
X11781190Y-7425952D02*
X11733571Y-7568809D01*
X11857381Y-7568809D01*
X12085952Y-7635476D02*
X12085952Y-7435476D01*
X12171667Y-7635476D02*
X12171667Y-7530714D01*
X12162143Y-7511667D01*
X12143095Y-7502143D01*
X12114524Y-7502143D01*
X12095476Y-7511667D01*
X12085952Y-7521190D01*
X12295476Y-7635476D02*
X12276428Y-7625952D01*
X12266905Y-7616428D01*
X12257381Y-7597381D01*
X12257381Y-7540238D01*
X12266905Y-7521190D01*
X12276428Y-7511667D01*
X12295476Y-7502143D01*
X12324048Y-7502143D01*
X12343095Y-7511667D01*
X12352619Y-7521190D01*
X12362143Y-7540238D01*
X12362143Y-7597381D01*
X12352619Y-7616428D01*
X12343095Y-7625952D01*
X12324048Y-7635476D01*
X12295476Y-7635476D01*
X12476428Y-7635476D02*
X12457381Y-7625952D01*
X12447857Y-7606905D01*
X12447857Y-7435476D01*
X12628809Y-7625952D02*
X12609762Y-7635476D01*
X12571667Y-7635476D01*
X12552619Y-7625952D01*
X12543095Y-7606905D01*
X12543095Y-7530714D01*
X12552619Y-7511667D01*
X12571667Y-7502143D01*
X12609762Y-7502143D01*
X12628809Y-7511667D01*
X12638333Y-7530714D01*
X12638333Y-7549762D01*
X12543095Y-7568809D01*
X12714524Y-7625952D02*
X12733571Y-7635476D01*
X12771667Y-7635476D01*
X12790714Y-7625952D01*
X12800238Y-7606905D01*
X12800238Y-7597381D01*
X12790714Y-7578333D01*
X12771667Y-7568809D01*
X12743095Y-7568809D01*
X12724048Y-7559286D01*
X12714524Y-7540238D01*
X12714524Y-7530714D01*
X12724048Y-7511667D01*
X12743095Y-7502143D01*
X12771667Y-7502143D01*
X12790714Y-7511667D01*
X12866905Y-7711667D02*
X12876428Y-7702143D01*
X12895476Y-7673571D01*
X12905000Y-7654524D01*
X12914524Y-7625952D01*
X12924048Y-7578333D01*
X12924048Y-7540238D01*
X12914524Y-7492619D01*
X12905000Y-7464048D01*
X12895476Y-7445000D01*
X12876428Y-7416428D01*
X12866905Y-7406905D01*
X13228809Y-7711667D02*
X13219286Y-7702143D01*
X13200238Y-7673571D01*
X13190714Y-7654524D01*
X13181190Y-7625952D01*
X13171667Y-7578333D01*
X13171667Y-7540238D01*
X13181190Y-7492619D01*
X13190714Y-7464048D01*
X13200238Y-7445000D01*
X13219286Y-7416428D01*
X13228809Y-7406905D01*
X13305000Y-7502143D02*
X13305000Y-7635476D01*
X13305000Y-7521190D02*
X13314524Y-7511667D01*
X13333571Y-7502143D01*
X13362143Y-7502143D01*
X13381190Y-7511667D01*
X13390714Y-7530714D01*
X13390714Y-7635476D01*
X13514524Y-7635476D02*
X13495476Y-7625952D01*
X13485952Y-7616428D01*
X13476428Y-7597381D01*
X13476428Y-7540238D01*
X13485952Y-7521190D01*
X13495476Y-7511667D01*
X13514524Y-7502143D01*
X13543095Y-7502143D01*
X13562143Y-7511667D01*
X13571667Y-7521190D01*
X13581190Y-7540238D01*
X13581190Y-7597381D01*
X13571667Y-7616428D01*
X13562143Y-7625952D01*
X13543095Y-7635476D01*
X13514524Y-7635476D01*
X13638333Y-7502143D02*
X13714524Y-7502143D01*
X13666905Y-7435476D02*
X13666905Y-7606905D01*
X13676428Y-7625952D01*
X13695476Y-7635476D01*
X13714524Y-7635476D01*
X13933571Y-7502143D02*
X13933571Y-7702143D01*
X13933571Y-7511667D02*
X13952619Y-7502143D01*
X13990714Y-7502143D01*
X14009762Y-7511667D01*
X14019286Y-7521190D01*
X14028809Y-7540238D01*
X14028809Y-7597381D01*
X14019286Y-7616428D01*
X14009762Y-7625952D01*
X13990714Y-7635476D01*
X13952619Y-7635476D01*
X13933571Y-7625952D01*
X14143095Y-7635476D02*
X14124048Y-7625952D01*
X14114524Y-7606905D01*
X14114524Y-7435476D01*
X14305000Y-7635476D02*
X14305000Y-7530714D01*
X14295476Y-7511667D01*
X14276428Y-7502143D01*
X14238333Y-7502143D01*
X14219286Y-7511667D01*
X14305000Y-7625952D02*
X14285952Y-7635476D01*
X14238333Y-7635476D01*
X14219286Y-7625952D01*
X14209762Y-7606905D01*
X14209762Y-7587857D01*
X14219286Y-7568809D01*
X14238333Y-7559286D01*
X14285952Y-7559286D01*
X14305000Y-7549762D01*
X14371667Y-7502143D02*
X14447857Y-7502143D01*
X14400238Y-7435476D02*
X14400238Y-7606905D01*
X14409762Y-7625952D01*
X14428809Y-7635476D01*
X14447857Y-7635476D01*
X14590714Y-7625952D02*
X14571667Y-7635476D01*
X14533571Y-7635476D01*
X14514524Y-7625952D01*
X14505000Y-7606905D01*
X14505000Y-7530714D01*
X14514524Y-7511667D01*
X14533571Y-7502143D01*
X14571667Y-7502143D01*
X14590714Y-7511667D01*
X14600238Y-7530714D01*
X14600238Y-7549762D01*
X14505000Y-7568809D01*
X14771667Y-7635476D02*
X14771667Y-7435476D01*
X14771667Y-7625952D02*
X14752619Y-7635476D01*
X14714524Y-7635476D01*
X14695476Y-7625952D01*
X14685952Y-7616428D01*
X14676428Y-7597381D01*
X14676428Y-7540238D01*
X14685952Y-7521190D01*
X14695476Y-7511667D01*
X14714524Y-7502143D01*
X14752619Y-7502143D01*
X14771667Y-7511667D01*
X14847857Y-7711667D02*
X14857381Y-7702143D01*
X14876428Y-7673571D01*
X14885952Y-7654524D01*
X14895476Y-7625952D01*
X14905000Y-7578333D01*
X14905000Y-7540238D01*
X14895476Y-7492619D01*
X14885952Y-7464048D01*
X14876428Y-7445000D01*
X14857381Y-7416428D01*
X14847857Y-7406905D01*
M02*
