%TF.GenerationSoftware,KiCad,Pcbnew,6.0.5-a6ca702e91~116~ubuntu20.04.1*%
%TF.CreationDate,2022-05-17T22:14:20-06:00*%
%TF.ProjectId,button-holder,62757474-6f6e-42d6-986f-6c6465722e6b,rev?*%
%TF.SameCoordinates,Original*%
%TF.FileFunction,Legend,Top*%
%TF.FilePolarity,Positive*%
%FSLAX46Y46*%
G04 Gerber Fmt 4.6, Leading zero omitted, Abs format (unit mm)*
G04 Created by KiCad (PCBNEW 6.0.5-a6ca702e91~116~ubuntu20.04.1) date 2022-05-17 22:14:20*
%MOMM*%
%LPD*%
G01*
G04 APERTURE LIST*
%ADD10C,0.150000*%
%ADD11C,0.120000*%
%ADD12C,2.100000*%
%ADD13C,2.600000*%
%ADD14R,1.700000X1.700000*%
%ADD15O,1.700000X1.700000*%
%ADD16C,3.200000*%
G04 APERTURE END LIST*
D10*
X88880952Y-43647380D02*
X88880952Y-42647380D01*
X88880952Y-43028333D02*
X88976190Y-42980714D01*
X89166666Y-42980714D01*
X89261904Y-43028333D01*
X89309523Y-43075952D01*
X89357142Y-43171190D01*
X89357142Y-43456904D01*
X89309523Y-43552142D01*
X89261904Y-43599761D01*
X89166666Y-43647380D01*
X88976190Y-43647380D01*
X88880952Y-43599761D01*
X90214285Y-42980714D02*
X90214285Y-43647380D01*
X89785714Y-42980714D02*
X89785714Y-43504523D01*
X89833333Y-43599761D01*
X89928571Y-43647380D01*
X90071428Y-43647380D01*
X90166666Y-43599761D01*
X90214285Y-43552142D01*
X90547619Y-42980714D02*
X90928571Y-42980714D01*
X90690476Y-42647380D02*
X90690476Y-43504523D01*
X90738095Y-43599761D01*
X90833333Y-43647380D01*
X90928571Y-43647380D01*
X91119047Y-42980714D02*
X91500000Y-42980714D01*
X91261904Y-42647380D02*
X91261904Y-43504523D01*
X91309523Y-43599761D01*
X91404761Y-43647380D01*
X91500000Y-43647380D01*
X91976190Y-43647380D02*
X91880952Y-43599761D01*
X91833333Y-43552142D01*
X91785714Y-43456904D01*
X91785714Y-43171190D01*
X91833333Y-43075952D01*
X91880952Y-43028333D01*
X91976190Y-42980714D01*
X92119047Y-42980714D01*
X92214285Y-43028333D01*
X92261904Y-43075952D01*
X92309523Y-43171190D01*
X92309523Y-43456904D01*
X92261904Y-43552142D01*
X92214285Y-43599761D01*
X92119047Y-43647380D01*
X91976190Y-43647380D01*
X92738095Y-42980714D02*
X92738095Y-43647380D01*
X92738095Y-43075952D02*
X92785714Y-43028333D01*
X92880952Y-42980714D01*
X93023809Y-42980714D01*
X93119047Y-43028333D01*
X93166666Y-43123571D01*
X93166666Y-43647380D01*
X93642857Y-43266428D02*
X94404761Y-43266428D01*
X94880952Y-43647380D02*
X94880952Y-42647380D01*
X95309523Y-43647380D02*
X95309523Y-43123571D01*
X95261904Y-43028333D01*
X95166666Y-42980714D01*
X95023809Y-42980714D01*
X94928571Y-43028333D01*
X94880952Y-43075952D01*
X95928571Y-43647380D02*
X95833333Y-43599761D01*
X95785714Y-43552142D01*
X95738095Y-43456904D01*
X95738095Y-43171190D01*
X95785714Y-43075952D01*
X95833333Y-43028333D01*
X95928571Y-42980714D01*
X96071428Y-42980714D01*
X96166666Y-43028333D01*
X96214285Y-43075952D01*
X96261904Y-43171190D01*
X96261904Y-43456904D01*
X96214285Y-43552142D01*
X96166666Y-43599761D01*
X96071428Y-43647380D01*
X95928571Y-43647380D01*
X96833333Y-43647380D02*
X96738095Y-43599761D01*
X96690476Y-43504523D01*
X96690476Y-42647380D01*
X97642857Y-43647380D02*
X97642857Y-42647380D01*
X97642857Y-43599761D02*
X97547619Y-43647380D01*
X97357142Y-43647380D01*
X97261904Y-43599761D01*
X97214285Y-43552142D01*
X97166666Y-43456904D01*
X97166666Y-43171190D01*
X97214285Y-43075952D01*
X97261904Y-43028333D01*
X97357142Y-42980714D01*
X97547619Y-42980714D01*
X97642857Y-43028333D01*
X98500000Y-43599761D02*
X98404761Y-43647380D01*
X98214285Y-43647380D01*
X98119047Y-43599761D01*
X98071428Y-43504523D01*
X98071428Y-43123571D01*
X98119047Y-43028333D01*
X98214285Y-42980714D01*
X98404761Y-42980714D01*
X98500000Y-43028333D01*
X98547619Y-43123571D01*
X98547619Y-43218809D01*
X98071428Y-43314047D01*
X98976190Y-43647380D02*
X98976190Y-42980714D01*
X98976190Y-43171190D02*
X99023809Y-43075952D01*
X99071428Y-43028333D01*
X99166666Y-42980714D01*
X99261904Y-42980714D01*
X92571428Y-44590714D02*
X92809523Y-45257380D01*
X93047619Y-44590714D01*
X93952380Y-45257380D02*
X93380952Y-45257380D01*
X93666666Y-45257380D02*
X93666666Y-44257380D01*
X93571428Y-44400238D01*
X93476190Y-44495476D01*
X93380952Y-44543095D01*
X94380952Y-45162142D02*
X94428571Y-45209761D01*
X94380952Y-45257380D01*
X94333333Y-45209761D01*
X94380952Y-45162142D01*
X94380952Y-45257380D01*
X95380952Y-45257380D02*
X94809523Y-45257380D01*
X95095238Y-45257380D02*
X95095238Y-44257380D01*
X95000000Y-44400238D01*
X94904761Y-44495476D01*
X94809523Y-44543095D01*
D11*
%TO.C,SW1*%
X98100000Y-48800000D02*
X100600000Y-48800000D01*
X88200000Y-61200000D02*
X88200000Y-48800000D01*
X93100000Y-48800000D02*
X95700000Y-48800000D01*
X95700000Y-61200000D02*
X93100000Y-61200000D01*
X88200000Y-48800000D02*
X90700000Y-48800000D01*
X100600000Y-61200000D02*
X98100000Y-61200000D01*
X100600000Y-48800000D02*
X100600000Y-61200000D01*
X90700000Y-61200000D02*
X88200000Y-61200000D01*
%TO.C,J1*%
X102370000Y-53725000D02*
X102370000Y-52395000D01*
X105030000Y-54995000D02*
X105030000Y-57595000D01*
X102370000Y-52395000D02*
X103700000Y-52395000D01*
X102370000Y-54995000D02*
X102370000Y-57595000D01*
X102370000Y-54995000D02*
X105030000Y-54995000D01*
X102370000Y-57595000D02*
X105030000Y-57595000D01*
%TD*%
%LPC*%
D12*
%TO.C,SW1*%
X96900000Y-61250000D03*
X96900000Y-48750000D03*
X91900000Y-48750000D03*
X91900000Y-61250000D03*
D13*
X98900000Y-55000000D03*
X89900000Y-55000000D03*
%TD*%
D14*
%TO.C,J1*%
X103700000Y-53725000D03*
D15*
X103700000Y-56265000D03*
%TD*%
D16*
%TO.C,H1*%
X104000000Y-45000000D03*
%TD*%
%TO.C,H2*%
X85000000Y-45000000D03*
%TD*%
%TO.C,H4*%
X104000000Y-65000000D03*
%TD*%
%TO.C,H3*%
X85000000Y-65000000D03*
%TD*%
M02*
