%TF.GenerationSoftware,KiCad,Pcbnew,6.0.4-6f826c9f35~116~ubuntu20.04.1*%
%TF.CreationDate,2022-04-29T21:51:39-06:00*%
%TF.ProjectId,circle-small,63697263-6c65-42d7-936d-616c6c2e6b69,rev?*%
%TF.SameCoordinates,Original*%
%TF.FileFunction,Legend,Top*%
%TF.FilePolarity,Positive*%
%FSLAX46Y46*%
G04 Gerber Fmt 4.6, Leading zero omitted, Abs format (unit mm)*
G04 Created by KiCad (PCBNEW 6.0.4-6f826c9f35~116~ubuntu20.04.1) date 2022-04-29 21:51:39*
%MOMM*%
%LPD*%
G01*
G04 APERTURE LIST*
G04 Aperture macros list*
%AMRoundRect*
0 Rectangle with rounded corners*
0 $1 Rounding radius*
0 $2 $3 $4 $5 $6 $7 $8 $9 X,Y pos of 4 corners*
0 Add a 4 corners polygon primitive as box body*
4,1,4,$2,$3,$4,$5,$6,$7,$8,$9,$2,$3,0*
0 Add four circle primitives for the rounded corners*
1,1,$1+$1,$2,$3*
1,1,$1+$1,$4,$5*
1,1,$1+$1,$6,$7*
1,1,$1+$1,$8,$9*
0 Add four rect primitives between the rounded corners*
20,1,$1+$1,$2,$3,$4,$5,0*
20,1,$1+$1,$4,$5,$6,$7,0*
20,1,$1+$1,$6,$7,$8,$9,0*
20,1,$1+$1,$8,$9,$2,$3,0*%
G04 Aperture macros list end*
%ADD10C,0.150000*%
%ADD11C,0.120000*%
%ADD12R,1.000000X1.500000*%
%ADD13RoundRect,0.200000X-0.200000X-0.275000X0.200000X-0.275000X0.200000X0.275000X-0.200000X0.275000X0*%
%ADD14R,1.700000X1.700000*%
%ADD15O,1.700000X1.700000*%
%ADD16RoundRect,0.225000X-0.225000X-0.250000X0.225000X-0.250000X0.225000X0.250000X-0.225000X0.250000X0*%
%ADD17RoundRect,0.200000X0.275000X-0.200000X0.275000X0.200000X-0.275000X0.200000X-0.275000X-0.200000X0*%
%ADD18C,3.200000*%
%ADD19RoundRect,0.140000X-0.140000X-0.170000X0.140000X-0.170000X0.140000X0.170000X-0.140000X0.170000X0*%
G04 APERTURE END LIST*
D10*
X36314285Y-30347619D02*
X36361904Y-30300000D01*
X36457142Y-30252380D01*
X36695238Y-30252380D01*
X36790476Y-30300000D01*
X36838095Y-30347619D01*
X36885714Y-30442857D01*
X36885714Y-30538095D01*
X36838095Y-30680952D01*
X36266666Y-31252380D01*
X36885714Y-31252380D01*
X64166666Y-62152380D02*
X64833333Y-62152380D01*
X64404761Y-63152380D01*
X61090476Y-32685714D02*
X61090476Y-33352380D01*
X60852380Y-32304761D02*
X60614285Y-33019047D01*
X61233333Y-33019047D01*
X68738095Y-29952380D02*
X68261904Y-29952380D01*
X68214285Y-30428571D01*
X68261904Y-30380952D01*
X68357142Y-30333333D01*
X68595238Y-30333333D01*
X68690476Y-30380952D01*
X68738095Y-30428571D01*
X68785714Y-30523809D01*
X68785714Y-30761904D01*
X68738095Y-30857142D01*
X68690476Y-30904761D01*
X68595238Y-30952380D01*
X68357142Y-30952380D01*
X68261904Y-30904761D01*
X68214285Y-30857142D01*
X52904761Y-44580952D02*
X52809523Y-44533333D01*
X52761904Y-44485714D01*
X52714285Y-44390476D01*
X52714285Y-44342857D01*
X52761904Y-44247619D01*
X52809523Y-44200000D01*
X52904761Y-44152380D01*
X53095238Y-44152380D01*
X53190476Y-44200000D01*
X53238095Y-44247619D01*
X53285714Y-44342857D01*
X53285714Y-44390476D01*
X53238095Y-44485714D01*
X53190476Y-44533333D01*
X53095238Y-44580952D01*
X52904761Y-44580952D01*
X52809523Y-44628571D01*
X52761904Y-44676190D01*
X52714285Y-44771428D01*
X52714285Y-44961904D01*
X52761904Y-45057142D01*
X52809523Y-45104761D01*
X52904761Y-45152380D01*
X53095238Y-45152380D01*
X53190476Y-45104761D01*
X53238095Y-45057142D01*
X53285714Y-44961904D01*
X53285714Y-44771428D01*
X53238095Y-44676190D01*
X53190476Y-44628571D01*
X53095238Y-44580952D01*
X46252380Y-41804761D02*
X46157142Y-41852380D01*
X45966666Y-41852380D01*
X45871428Y-41804761D01*
X45823809Y-41757142D01*
X45776190Y-41661904D01*
X45776190Y-41376190D01*
X45823809Y-41280952D01*
X45871428Y-41233333D01*
X45966666Y-41185714D01*
X46157142Y-41185714D01*
X46252380Y-41233333D01*
X46680952Y-41852380D02*
X46680952Y-41185714D01*
X46680952Y-40852380D02*
X46633333Y-40900000D01*
X46680952Y-40947619D01*
X46728571Y-40900000D01*
X46680952Y-40852380D01*
X46680952Y-40947619D01*
X47157142Y-41852380D02*
X47157142Y-41185714D01*
X47157142Y-41376190D02*
X47204761Y-41280952D01*
X47252380Y-41233333D01*
X47347619Y-41185714D01*
X47442857Y-41185714D01*
X48204761Y-41804761D02*
X48109523Y-41852380D01*
X47919047Y-41852380D01*
X47823809Y-41804761D01*
X47776190Y-41757142D01*
X47728571Y-41661904D01*
X47728571Y-41376190D01*
X47776190Y-41280952D01*
X47823809Y-41233333D01*
X47919047Y-41185714D01*
X48109523Y-41185714D01*
X48204761Y-41233333D01*
X48776190Y-41852380D02*
X48680952Y-41804761D01*
X48633333Y-41709523D01*
X48633333Y-40852380D01*
X49538095Y-41804761D02*
X49442857Y-41852380D01*
X49252380Y-41852380D01*
X49157142Y-41804761D01*
X49109523Y-41709523D01*
X49109523Y-41328571D01*
X49157142Y-41233333D01*
X49252380Y-41185714D01*
X49442857Y-41185714D01*
X49538095Y-41233333D01*
X49585714Y-41328571D01*
X49585714Y-41423809D01*
X49109523Y-41519047D01*
X50014285Y-41471428D02*
X50776190Y-41471428D01*
X51204761Y-41804761D02*
X51300000Y-41852380D01*
X51490476Y-41852380D01*
X51585714Y-41804761D01*
X51633333Y-41709523D01*
X51633333Y-41661904D01*
X51585714Y-41566666D01*
X51490476Y-41519047D01*
X51347619Y-41519047D01*
X51252380Y-41471428D01*
X51204761Y-41376190D01*
X51204761Y-41328571D01*
X51252380Y-41233333D01*
X51347619Y-41185714D01*
X51490476Y-41185714D01*
X51585714Y-41233333D01*
X52061904Y-41852380D02*
X52061904Y-41185714D01*
X52061904Y-41280952D02*
X52109523Y-41233333D01*
X52204761Y-41185714D01*
X52347619Y-41185714D01*
X52442857Y-41233333D01*
X52490476Y-41328571D01*
X52490476Y-41852380D01*
X52490476Y-41328571D02*
X52538095Y-41233333D01*
X52633333Y-41185714D01*
X52776190Y-41185714D01*
X52871428Y-41233333D01*
X52919047Y-41328571D01*
X52919047Y-41852380D01*
X53823809Y-41852380D02*
X53823809Y-41328571D01*
X53776190Y-41233333D01*
X53680952Y-41185714D01*
X53490476Y-41185714D01*
X53395238Y-41233333D01*
X53823809Y-41804761D02*
X53728571Y-41852380D01*
X53490476Y-41852380D01*
X53395238Y-41804761D01*
X53347619Y-41709523D01*
X53347619Y-41614285D01*
X53395238Y-41519047D01*
X53490476Y-41471428D01*
X53728571Y-41471428D01*
X53823809Y-41423809D01*
X54442857Y-41852380D02*
X54347619Y-41804761D01*
X54300000Y-41709523D01*
X54300000Y-40852380D01*
X54966666Y-41852380D02*
X54871428Y-41804761D01*
X54823809Y-41709523D01*
X54823809Y-40852380D01*
X55109523Y-41947619D02*
X55871428Y-41947619D01*
X56014285Y-41185714D02*
X56252380Y-41852380D01*
X56490476Y-41185714D01*
X57395238Y-41852380D02*
X56823809Y-41852380D01*
X57109523Y-41852380D02*
X57109523Y-40852380D01*
X57014285Y-40995238D01*
X56919047Y-41090476D01*
X56823809Y-41138095D01*
X57823809Y-41757142D02*
X57871428Y-41804761D01*
X57823809Y-41852380D01*
X57776190Y-41804761D01*
X57823809Y-41757142D01*
X57823809Y-41852380D01*
X58490476Y-40852380D02*
X58585714Y-40852380D01*
X58680952Y-40900000D01*
X58728571Y-40947619D01*
X58776190Y-41042857D01*
X58823809Y-41233333D01*
X58823809Y-41471428D01*
X58776190Y-41661904D01*
X58728571Y-41757142D01*
X58680952Y-41804761D01*
X58585714Y-41852380D01*
X58490476Y-41852380D01*
X58395238Y-41804761D01*
X58347619Y-41757142D01*
X58300000Y-41661904D01*
X58252380Y-41471428D01*
X58252380Y-41233333D01*
X58300000Y-41042857D01*
X58347619Y-40947619D01*
X58395238Y-40900000D01*
X58490476Y-40852380D01*
X74290476Y-40952380D02*
X74100000Y-40952380D01*
X74004761Y-41000000D01*
X73957142Y-41047619D01*
X73861904Y-41190476D01*
X73814285Y-41380952D01*
X73814285Y-41761904D01*
X73861904Y-41857142D01*
X73909523Y-41904761D01*
X74004761Y-41952380D01*
X74195238Y-41952380D01*
X74290476Y-41904761D01*
X74338095Y-41857142D01*
X74385714Y-41761904D01*
X74385714Y-41523809D01*
X74338095Y-41428571D01*
X74290476Y-41380952D01*
X74195238Y-41333333D01*
X74004761Y-41333333D01*
X73909523Y-41380952D01*
X73861904Y-41428571D01*
X73814285Y-41523809D01*
X41209523Y-63152380D02*
X41400000Y-63152380D01*
X41495238Y-63104761D01*
X41542857Y-63057142D01*
X41638095Y-62914285D01*
X41685714Y-62723809D01*
X41685714Y-62342857D01*
X41638095Y-62247619D01*
X41590476Y-62200000D01*
X41495238Y-62152380D01*
X41304761Y-62152380D01*
X41209523Y-62200000D01*
X41161904Y-62247619D01*
X41114285Y-62342857D01*
X41114285Y-62580952D01*
X41161904Y-62676190D01*
X41209523Y-62723809D01*
X41304761Y-62771428D01*
X41495238Y-62771428D01*
X41590476Y-62723809D01*
X41638095Y-62676190D01*
X41685714Y-62580952D01*
X31685714Y-42052380D02*
X31114285Y-42052380D01*
X31400000Y-42052380D02*
X31400000Y-41052380D01*
X31304761Y-41195238D01*
X31209523Y-41290476D01*
X31114285Y-41338095D01*
X47766666Y-32252380D02*
X48385714Y-32252380D01*
X48052380Y-32633333D01*
X48195238Y-32633333D01*
X48290476Y-32680952D01*
X48338095Y-32728571D01*
X48385714Y-32823809D01*
X48385714Y-33061904D01*
X48338095Y-33157142D01*
X48290476Y-33204761D01*
X48195238Y-33252380D01*
X47909523Y-33252380D01*
X47814285Y-33204761D01*
X47766666Y-33157142D01*
%TO.C,D1*%
X30452380Y-49764285D02*
X30452380Y-50335714D01*
X30452380Y-50050000D02*
X29452380Y-50050000D01*
X29595238Y-50145238D01*
X29690476Y-50240476D01*
X29738095Y-50335714D01*
%TO.C,D7*%
X63452380Y-70864285D02*
X63452380Y-71435714D01*
X63452380Y-71150000D02*
X62452380Y-71150000D01*
X62595238Y-71245238D01*
X62690476Y-71340476D01*
X62738095Y-71435714D01*
%TO.C,D9*%
X40152380Y-70864285D02*
X40152380Y-71435714D01*
X40152380Y-71150000D02*
X39152380Y-71150000D01*
X39295238Y-71245238D01*
X39390476Y-71340476D01*
X39438095Y-71435714D01*
%TO.C,D8*%
X51852380Y-52764285D02*
X51852380Y-53335714D01*
X51852380Y-53050000D02*
X50852380Y-53050000D01*
X50995238Y-53145238D01*
X51090476Y-53240476D01*
X51138095Y-53335714D01*
%TO.C,D6*%
X73052380Y-49664285D02*
X73052380Y-50235714D01*
X73052380Y-49950000D02*
X72052380Y-49950000D01*
X72195238Y-50045238D01*
X72290476Y-50140476D01*
X72338095Y-50235714D01*
%TO.C,D2*%
X35552380Y-38764285D02*
X35552380Y-39335714D01*
X35552380Y-39050000D02*
X34552380Y-39050000D01*
X34695238Y-39145238D01*
X34790476Y-39240476D01*
X34838095Y-39335714D01*
%TO.C,D3*%
X45752380Y-32164285D02*
X45752380Y-32735714D01*
X45752380Y-32450000D02*
X44752380Y-32450000D01*
X44895238Y-32545238D01*
X44990476Y-32640476D01*
X45038095Y-32735714D01*
%TO.C,D4*%
X57952380Y-32164285D02*
X57952380Y-32735714D01*
X57952380Y-32450000D02*
X56952380Y-32450000D01*
X57095238Y-32545238D01*
X57190476Y-32640476D01*
X57238095Y-32735714D01*
%TO.C,D5*%
X68052380Y-38664285D02*
X68052380Y-39235714D01*
X68052380Y-38950000D02*
X67052380Y-38950000D01*
X67195238Y-39045238D01*
X67290476Y-39140476D01*
X67338095Y-39235714D01*
D11*
%TO.C,D1*%
X28850000Y-49550000D02*
X28850000Y-42250000D01*
X34350000Y-42250000D02*
X33200000Y-42250000D01*
X34350000Y-49550000D02*
X34350000Y-42250000D01*
%TO.C,D7*%
X67350000Y-70650000D02*
X67350000Y-63350000D01*
X61850000Y-70650000D02*
X61850000Y-63350000D01*
X67350000Y-63350000D02*
X66200000Y-63350000D01*
%TO.C,D9*%
X44050000Y-70650000D02*
X44050000Y-63350000D01*
X38550000Y-70650000D02*
X38550000Y-63350000D01*
X44050000Y-63350000D02*
X42900000Y-63350000D01*
%TO.C,D8*%
X50250000Y-52550000D02*
X50250000Y-45250000D01*
X55750000Y-45250000D02*
X54600000Y-45250000D01*
X55750000Y-52550000D02*
X55750000Y-45250000D01*
%TO.C,D6*%
X71450000Y-49450000D02*
X71450000Y-42150000D01*
X76950000Y-42150000D02*
X75800000Y-42150000D01*
X76950000Y-49450000D02*
X76950000Y-42150000D01*
%TO.C,R2*%
X56337742Y-65677500D02*
X56812258Y-65677500D01*
X56337742Y-66722500D02*
X56812258Y-66722500D01*
%TO.C,D2*%
X39450000Y-31250000D02*
X38300000Y-31250000D01*
X39450000Y-38550000D02*
X39450000Y-31250000D01*
X33950000Y-38550000D02*
X33950000Y-31250000D01*
%TO.C,J2*%
X58630000Y-67670000D02*
X58630000Y-70330000D01*
X58630000Y-67670000D02*
X53490000Y-67670000D01*
X59900000Y-67670000D02*
X61230000Y-67670000D01*
X61230000Y-67670000D02*
X61230000Y-69000000D01*
X53490000Y-67670000D02*
X53490000Y-70330000D01*
X58630000Y-70330000D02*
X53490000Y-70330000D01*
%TO.C,C1*%
X46344420Y-65710000D02*
X46625580Y-65710000D01*
X46344420Y-64690000D02*
X46625580Y-64690000D01*
%TO.C,R1*%
X48462500Y-65337258D02*
X48462500Y-64862742D01*
X49507500Y-65337258D02*
X49507500Y-64862742D01*
%TO.C,D3*%
X49650000Y-24650000D02*
X48500000Y-24650000D01*
X44150000Y-31950000D02*
X44150000Y-24650000D01*
X49650000Y-31950000D02*
X49650000Y-24650000D01*
%TO.C,C2*%
X46477164Y-66960000D02*
X46692836Y-66960000D01*
X46477164Y-66240000D02*
X46692836Y-66240000D01*
%TO.C,D4*%
X61850000Y-31950000D02*
X61850000Y-24650000D01*
X56350000Y-31950000D02*
X56350000Y-24650000D01*
X61850000Y-24650000D02*
X60700000Y-24650000D01*
%TO.C,J1*%
X49830000Y-67670000D02*
X44690000Y-67670000D01*
X51100000Y-67670000D02*
X52430000Y-67670000D01*
X49830000Y-70330000D02*
X44690000Y-70330000D01*
X44690000Y-67670000D02*
X44690000Y-70330000D01*
X49830000Y-67670000D02*
X49830000Y-70330000D01*
X52430000Y-67670000D02*
X52430000Y-69000000D01*
%TO.C,D5*%
X71950000Y-38450000D02*
X71950000Y-31150000D01*
X66450000Y-38450000D02*
X66450000Y-31150000D01*
X71950000Y-31150000D02*
X70800000Y-31150000D01*
%TD*%
%LPC*%
D12*
%TO.C,D1*%
X30000000Y-48350000D03*
X33200000Y-48350000D03*
X33200000Y-43450000D03*
X30000000Y-43450000D03*
%TD*%
%TO.C,D7*%
X63000000Y-69450000D03*
X66200000Y-69450000D03*
X66200000Y-64550000D03*
X63000000Y-64550000D03*
%TD*%
%TO.C,D9*%
X39700000Y-69450000D03*
X42900000Y-69450000D03*
X42900000Y-64550000D03*
X39700000Y-64550000D03*
%TD*%
%TO.C,D8*%
X51400000Y-51350000D03*
X54600000Y-51350000D03*
X54600000Y-46450000D03*
X51400000Y-46450000D03*
%TD*%
%TO.C,D6*%
X72600000Y-48250000D03*
X75800000Y-48250000D03*
X75800000Y-43350000D03*
X72600000Y-43350000D03*
%TD*%
D13*
%TO.C,R2*%
X55750000Y-66200000D03*
X57400000Y-66200000D03*
%TD*%
D12*
%TO.C,D2*%
X35100000Y-37350000D03*
X38300000Y-37350000D03*
X38300000Y-32450000D03*
X35100000Y-32450000D03*
%TD*%
D14*
%TO.C,J2*%
X59900000Y-69000000D03*
D15*
X57360000Y-69000000D03*
X54820000Y-69000000D03*
%TD*%
D16*
%TO.C,C1*%
X45710000Y-65200000D03*
X47260000Y-65200000D03*
%TD*%
D17*
%TO.C,R1*%
X48985000Y-65925000D03*
X48985000Y-64275000D03*
%TD*%
D18*
%TO.C,H1*%
X53100000Y-60500000D03*
%TD*%
%TO.C,H3*%
X39100000Y-44000000D03*
%TD*%
D12*
%TO.C,D3*%
X45300000Y-30750000D03*
X48500000Y-30750000D03*
X48500000Y-25850000D03*
X45300000Y-25850000D03*
%TD*%
D19*
%TO.C,C2*%
X46105000Y-66600000D03*
X47065000Y-66600000D03*
%TD*%
D12*
%TO.C,D4*%
X57500000Y-30750000D03*
X60700000Y-30750000D03*
X60700000Y-25850000D03*
X57500000Y-25850000D03*
%TD*%
D14*
%TO.C,J1*%
X51100000Y-69000000D03*
D15*
X48560000Y-69000000D03*
X46020000Y-69000000D03*
%TD*%
D12*
%TO.C,D5*%
X67600000Y-37250000D03*
X70800000Y-37250000D03*
X70800000Y-32350000D03*
X67600000Y-32350000D03*
%TD*%
D18*
%TO.C,H2*%
X66800000Y-44000000D03*
%TD*%
M02*
