%TF.GenerationSoftware,KiCad,Pcbnew,6.0.4-6f826c9f35~116~ubuntu20.04.1*%
%TF.CreationDate,2022-04-29T21:51:39-06:00*%
%TF.ProjectId,circle-small,63697263-6c65-42d7-936d-616c6c2e6b69,rev?*%
%TF.SameCoordinates,Original*%
%TF.FileFunction,Legend,Bot*%
%TF.FilePolarity,Positive*%
%FSLAX46Y46*%
G04 Gerber Fmt 4.6, Leading zero omitted, Abs format (unit mm)*
G04 Created by KiCad (PCBNEW 6.0.4-6f826c9f35~116~ubuntu20.04.1) date 2022-04-29 21:51:39*
%MOMM*%
%LPD*%
G01*
G04 APERTURE LIST*
%ADD10C,0.150000*%
%ADD11R,1.700000X1.700000*%
%ADD12O,1.700000X1.700000*%
%ADD13C,3.200000*%
G04 APERTURE END LIST*
D10*
X56895238Y-67233333D02*
X56847619Y-67090476D01*
X56847619Y-66852380D01*
X56895238Y-66757142D01*
X56942857Y-66709523D01*
X57038095Y-66661904D01*
X57133333Y-66661904D01*
X57228571Y-66709523D01*
X57276190Y-66757142D01*
X57323809Y-66852380D01*
X57371428Y-67042857D01*
X57419047Y-67138095D01*
X57466666Y-67185714D01*
X57561904Y-67233333D01*
X57657142Y-67233333D01*
X57752380Y-67185714D01*
X57800000Y-67138095D01*
X57847619Y-67042857D01*
X57847619Y-66804761D01*
X57800000Y-66661904D01*
X56847619Y-66233333D02*
X57847619Y-66233333D01*
X57800000Y-65233333D02*
X57847619Y-65328571D01*
X57847619Y-65471428D01*
X57800000Y-65614285D01*
X57704761Y-65709523D01*
X57609523Y-65757142D01*
X57419047Y-65804761D01*
X57276190Y-65804761D01*
X57085714Y-65757142D01*
X56990476Y-65709523D01*
X56895238Y-65614285D01*
X56847619Y-65471428D01*
X56847619Y-65376190D01*
X56895238Y-65233333D01*
X56942857Y-65185714D01*
X57276190Y-65185714D01*
X57276190Y-65376190D01*
X56752380Y-64995238D02*
X56752380Y-64233333D01*
X57847619Y-63804761D02*
X57847619Y-63614285D01*
X57800000Y-63519047D01*
X57704761Y-63423809D01*
X57514285Y-63376190D01*
X57180952Y-63376190D01*
X56990476Y-63423809D01*
X56895238Y-63519047D01*
X56847619Y-63614285D01*
X56847619Y-63804761D01*
X56895238Y-63900000D01*
X56990476Y-63995238D01*
X57180952Y-64042857D01*
X57514285Y-64042857D01*
X57704761Y-63995238D01*
X57800000Y-63900000D01*
X57847619Y-63804761D01*
X57847619Y-62947619D02*
X57038095Y-62947619D01*
X56942857Y-62900000D01*
X56895238Y-62852380D01*
X56847619Y-62757142D01*
X56847619Y-62566666D01*
X56895238Y-62471428D01*
X56942857Y-62423809D01*
X57038095Y-62376190D01*
X57847619Y-62376190D01*
X57847619Y-62042857D02*
X57847619Y-61471428D01*
X56847619Y-61757142D02*
X57847619Y-61757142D01*
X48989761Y-62633333D02*
X49037380Y-62776190D01*
X49037380Y-63014285D01*
X48989761Y-63109523D01*
X48942142Y-63157142D01*
X48846904Y-63204761D01*
X48751666Y-63204761D01*
X48656428Y-63157142D01*
X48608809Y-63109523D01*
X48561190Y-63014285D01*
X48513571Y-62823809D01*
X48465952Y-62728571D01*
X48418333Y-62680952D01*
X48323095Y-62633333D01*
X48227857Y-62633333D01*
X48132619Y-62680952D01*
X48085000Y-62728571D01*
X48037380Y-62823809D01*
X48037380Y-63061904D01*
X48085000Y-63204761D01*
X49037380Y-63633333D02*
X48037380Y-63633333D01*
X48085000Y-64633333D02*
X48037380Y-64538095D01*
X48037380Y-64395238D01*
X48085000Y-64252380D01*
X48180238Y-64157142D01*
X48275476Y-64109523D01*
X48465952Y-64061904D01*
X48608809Y-64061904D01*
X48799285Y-64109523D01*
X48894523Y-64157142D01*
X48989761Y-64252380D01*
X49037380Y-64395238D01*
X49037380Y-64490476D01*
X48989761Y-64633333D01*
X48942142Y-64680952D01*
X48608809Y-64680952D01*
X48608809Y-64490476D01*
X49132619Y-64871428D02*
X49132619Y-65633333D01*
X49037380Y-65871428D02*
X48037380Y-65871428D01*
X49037380Y-66347619D02*
X48037380Y-66347619D01*
X49037380Y-66919047D01*
X48037380Y-66919047D01*
X50685000Y-64938095D02*
X50637380Y-64842857D01*
X50637380Y-64700000D01*
X50685000Y-64557142D01*
X50780238Y-64461904D01*
X50875476Y-64414285D01*
X51065952Y-64366666D01*
X51208809Y-64366666D01*
X51399285Y-64414285D01*
X51494523Y-64461904D01*
X51589761Y-64557142D01*
X51637380Y-64700000D01*
X51637380Y-64795238D01*
X51589761Y-64938095D01*
X51542142Y-64985714D01*
X51208809Y-64985714D01*
X51208809Y-64795238D01*
X51637380Y-65414285D02*
X50637380Y-65414285D01*
X51637380Y-65985714D01*
X50637380Y-65985714D01*
X51637380Y-66461904D02*
X50637380Y-66461904D01*
X50637380Y-66700000D01*
X50685000Y-66842857D01*
X50780238Y-66938095D01*
X50875476Y-66985714D01*
X51065952Y-67033333D01*
X51208809Y-67033333D01*
X51399285Y-66985714D01*
X51494523Y-66938095D01*
X51589761Y-66842857D01*
X51637380Y-66700000D01*
X51637380Y-66461904D01*
X58347619Y-41804761D02*
X58442857Y-41852380D01*
X58633333Y-41852380D01*
X58728571Y-41804761D01*
X58776190Y-41757142D01*
X58823809Y-41661904D01*
X58823809Y-41376190D01*
X58776190Y-41280952D01*
X58728571Y-41233333D01*
X58633333Y-41185714D01*
X58442857Y-41185714D01*
X58347619Y-41233333D01*
X57919047Y-41852380D02*
X57919047Y-41185714D01*
X57919047Y-40852380D02*
X57966666Y-40900000D01*
X57919047Y-40947619D01*
X57871428Y-40900000D01*
X57919047Y-40852380D01*
X57919047Y-40947619D01*
X57442857Y-41852380D02*
X57442857Y-41185714D01*
X57442857Y-41376190D02*
X57395238Y-41280952D01*
X57347619Y-41233333D01*
X57252380Y-41185714D01*
X57157142Y-41185714D01*
X56395238Y-41804761D02*
X56490476Y-41852380D01*
X56680952Y-41852380D01*
X56776190Y-41804761D01*
X56823809Y-41757142D01*
X56871428Y-41661904D01*
X56871428Y-41376190D01*
X56823809Y-41280952D01*
X56776190Y-41233333D01*
X56680952Y-41185714D01*
X56490476Y-41185714D01*
X56395238Y-41233333D01*
X55823809Y-41852380D02*
X55919047Y-41804761D01*
X55966666Y-41709523D01*
X55966666Y-40852380D01*
X55061904Y-41804761D02*
X55157142Y-41852380D01*
X55347619Y-41852380D01*
X55442857Y-41804761D01*
X55490476Y-41709523D01*
X55490476Y-41328571D01*
X55442857Y-41233333D01*
X55347619Y-41185714D01*
X55157142Y-41185714D01*
X55061904Y-41233333D01*
X55014285Y-41328571D01*
X55014285Y-41423809D01*
X55490476Y-41519047D01*
X54585714Y-41471428D02*
X53823809Y-41471428D01*
X53395238Y-41804761D02*
X53300000Y-41852380D01*
X53109523Y-41852380D01*
X53014285Y-41804761D01*
X52966666Y-41709523D01*
X52966666Y-41661904D01*
X53014285Y-41566666D01*
X53109523Y-41519047D01*
X53252380Y-41519047D01*
X53347619Y-41471428D01*
X53395238Y-41376190D01*
X53395238Y-41328571D01*
X53347619Y-41233333D01*
X53252380Y-41185714D01*
X53109523Y-41185714D01*
X53014285Y-41233333D01*
X52538095Y-41852380D02*
X52538095Y-41185714D01*
X52538095Y-41280952D02*
X52490476Y-41233333D01*
X52395238Y-41185714D01*
X52252380Y-41185714D01*
X52157142Y-41233333D01*
X52109523Y-41328571D01*
X52109523Y-41852380D01*
X52109523Y-41328571D02*
X52061904Y-41233333D01*
X51966666Y-41185714D01*
X51823809Y-41185714D01*
X51728571Y-41233333D01*
X51680952Y-41328571D01*
X51680952Y-41852380D01*
X50776190Y-41852380D02*
X50776190Y-41328571D01*
X50823809Y-41233333D01*
X50919047Y-41185714D01*
X51109523Y-41185714D01*
X51204761Y-41233333D01*
X50776190Y-41804761D02*
X50871428Y-41852380D01*
X51109523Y-41852380D01*
X51204761Y-41804761D01*
X51252380Y-41709523D01*
X51252380Y-41614285D01*
X51204761Y-41519047D01*
X51109523Y-41471428D01*
X50871428Y-41471428D01*
X50776190Y-41423809D01*
X50157142Y-41852380D02*
X50252380Y-41804761D01*
X50300000Y-41709523D01*
X50300000Y-40852380D01*
X49633333Y-41852380D02*
X49728571Y-41804761D01*
X49776190Y-41709523D01*
X49776190Y-40852380D01*
X49490476Y-41947619D02*
X48728571Y-41947619D01*
X48585714Y-41185714D02*
X48347619Y-41852380D01*
X48109523Y-41185714D01*
X47204761Y-41852380D02*
X47776190Y-41852380D01*
X47490476Y-41852380D02*
X47490476Y-40852380D01*
X47585714Y-40995238D01*
X47680952Y-41090476D01*
X47776190Y-41138095D01*
X46776190Y-41757142D02*
X46728571Y-41804761D01*
X46776190Y-41852380D01*
X46823809Y-41804761D01*
X46776190Y-41757142D01*
X46776190Y-41852380D01*
X46109523Y-40852380D02*
X46014285Y-40852380D01*
X45919047Y-40900000D01*
X45871428Y-40947619D01*
X45823809Y-41042857D01*
X45776190Y-41233333D01*
X45776190Y-41471428D01*
X45823809Y-41661904D01*
X45871428Y-41757142D01*
X45919047Y-41804761D01*
X46014285Y-41852380D01*
X46109523Y-41852380D01*
X46204761Y-41804761D01*
X46252380Y-41757142D01*
X46300000Y-41661904D01*
X46347619Y-41471428D01*
X46347619Y-41233333D01*
X46300000Y-41042857D01*
X46252380Y-40947619D01*
X46204761Y-40900000D01*
X46109523Y-40852380D01*
X45537380Y-65909523D02*
X45537380Y-65433333D01*
X46013571Y-65385714D01*
X45965952Y-65433333D01*
X45918333Y-65528571D01*
X45918333Y-65766666D01*
X45965952Y-65861904D01*
X46013571Y-65909523D01*
X46108809Y-65957142D01*
X46346904Y-65957142D01*
X46442142Y-65909523D01*
X46489761Y-65861904D01*
X46537380Y-65766666D01*
X46537380Y-65528571D01*
X46489761Y-65433333D01*
X46442142Y-65385714D01*
X45537380Y-66242857D02*
X46537380Y-66576190D01*
X45537380Y-66909523D01*
X55322619Y-66590476D02*
X55322619Y-67066666D01*
X54846428Y-67114285D01*
X54894047Y-67066666D01*
X54941666Y-66971428D01*
X54941666Y-66733333D01*
X54894047Y-66638095D01*
X54846428Y-66590476D01*
X54751190Y-66542857D01*
X54513095Y-66542857D01*
X54417857Y-66590476D01*
X54370238Y-66638095D01*
X54322619Y-66733333D01*
X54322619Y-66971428D01*
X54370238Y-67066666D01*
X54417857Y-67114285D01*
X55322619Y-66257142D02*
X54322619Y-65923809D01*
X55322619Y-65590476D01*
X60475000Y-66761904D02*
X60522619Y-66857142D01*
X60522619Y-67000000D01*
X60475000Y-67142857D01*
X60379761Y-67238095D01*
X60284523Y-67285714D01*
X60094047Y-67333333D01*
X59951190Y-67333333D01*
X59760714Y-67285714D01*
X59665476Y-67238095D01*
X59570238Y-67142857D01*
X59522619Y-67000000D01*
X59522619Y-66904761D01*
X59570238Y-66761904D01*
X59617857Y-66714285D01*
X59951190Y-66714285D01*
X59951190Y-66904761D01*
X59522619Y-66285714D02*
X60522619Y-66285714D01*
X59522619Y-65714285D01*
X60522619Y-65714285D01*
X59522619Y-65238095D02*
X60522619Y-65238095D01*
X60522619Y-65000000D01*
X60475000Y-64857142D01*
X60379761Y-64761904D01*
X60284523Y-64714285D01*
X60094047Y-64666666D01*
X59951190Y-64666666D01*
X59760714Y-64714285D01*
X59665476Y-64761904D01*
X59570238Y-64857142D01*
X59522619Y-65000000D01*
X59522619Y-65238095D01*
%LPC*%
D11*
%TO.C,J2*%
X59900000Y-69000000D03*
D12*
X57360000Y-69000000D03*
X54820000Y-69000000D03*
%TD*%
D13*
%TO.C,H1*%
X53100000Y-60500000D03*
%TD*%
%TO.C,H3*%
X39100000Y-44000000D03*
%TD*%
D11*
%TO.C,J1*%
X51100000Y-69000000D03*
D12*
X48560000Y-69000000D03*
X46020000Y-69000000D03*
%TD*%
D13*
%TO.C,H2*%
X66800000Y-44000000D03*
%TD*%
M02*
