%TF.GenerationSoftware,KiCad,Pcbnew,6.0.4-6f826c9f35~116~ubuntu20.04.1*%
%TF.CreationDate,2022-04-29T21:51:39-06:00*%
%TF.ProjectId,circle-small,63697263-6c65-42d7-936d-616c6c2e6b69,rev?*%
%TF.SameCoordinates,Original*%
%TF.FileFunction,Copper,L2,Bot*%
%TF.FilePolarity,Positive*%
%FSLAX46Y46*%
G04 Gerber Fmt 4.6, Leading zero omitted, Abs format (unit mm)*
G04 Created by KiCad (PCBNEW 6.0.4-6f826c9f35~116~ubuntu20.04.1) date 2022-04-29 21:51:39*
%MOMM*%
%LPD*%
G01*
G04 APERTURE LIST*
%TA.AperFunction,ComponentPad*%
%ADD10R,1.700000X1.700000*%
%TD*%
%TA.AperFunction,ComponentPad*%
%ADD11O,1.700000X1.700000*%
%TD*%
%TA.AperFunction,ViaPad*%
%ADD12C,0.800000*%
%TD*%
%TA.AperFunction,Conductor*%
%ADD13C,0.500000*%
%TD*%
%TA.AperFunction,Conductor*%
%ADD14C,0.200000*%
%TD*%
G04 APERTURE END LIST*
D10*
%TO.P,J2,1,Pin_1*%
%TO.N,GND*%
X59900000Y-69000000D03*
D11*
%TO.P,J2,2,Pin_2*%
%TO.N,/SIG_OUT*%
X57360000Y-69000000D03*
%TO.P,J2,3,Pin_3*%
%TO.N,VCC*%
X54820000Y-69000000D03*
%TD*%
D10*
%TO.P,J1,1,Pin_1*%
%TO.N,GND*%
X51100000Y-69000000D03*
D11*
%TO.P,J1,2,Pin_2*%
%TO.N,/SIG_IN*%
X48560000Y-69000000D03*
%TO.P,J1,3,Pin_3*%
%TO.N,VCC*%
X46020000Y-69000000D03*
%TD*%
D12*
%TO.N,GND*%
X60700000Y-47100000D03*
X69500000Y-55300000D03*
X64000000Y-27900000D03*
X53900000Y-25700000D03*
X40200000Y-28500000D03*
X64000000Y-61400000D03*
X50500000Y-55000000D03*
X44300000Y-54600000D03*
X44400000Y-67400000D03*
X31200000Y-41800000D03*
X30500000Y-50900000D03*
X41400000Y-67700000D03*
X54500000Y-44700000D03*
X47260000Y-44760000D03*
%TO.N,VCC*%
X50100000Y-51300000D03*
X45710000Y-51290000D03*
%TO.N,/SIG_OUT*%
X58700000Y-66100000D03*
%TO.N,Net-(D9-Pad2)*%
X41400000Y-65300000D03*
X55800000Y-65000000D03*
%TO.N,Net-(D8-Pad2)*%
X54600000Y-53200000D03*
X39700000Y-53300000D03*
%TO.N,Net-(D7-Pad2)*%
X64300000Y-58100000D03*
X67300000Y-62500000D03*
%TO.N,VCC*%
X66200000Y-38700000D03*
X32200978Y-39100000D03*
%TO.N,Net-(D1-Pad4)*%
X49000000Y-48300000D03*
X30400000Y-46900000D03*
%TO.N,/SIG_IN*%
X50625270Y-65999500D03*
%TO.N,GND*%
X43200000Y-66100000D03*
X48123553Y-66668397D03*
%TO.N,VCC*%
X57400000Y-38700000D03*
X70800000Y-38900000D03*
X45700000Y-38700000D03*
%TO.N,GND*%
X37500000Y-39900000D03*
X59600000Y-40100000D03*
X69800000Y-40100000D03*
X47300000Y-40100000D03*
X75800000Y-40200000D03*
%TD*%
D13*
%TO.N,GND*%
X54500000Y-44700000D02*
X47320000Y-44700000D01*
X47320000Y-44700000D02*
X47260000Y-44760000D01*
%TO.N,VCC*%
X50100000Y-51300000D02*
X45720000Y-51300000D01*
X45720000Y-51300000D02*
X45710000Y-51290000D01*
D14*
%TO.N,/SIG_OUT*%
X58700000Y-66100000D02*
X58700000Y-67660000D01*
X58700000Y-67660000D02*
X57360000Y-69000000D01*
%TO.N,/SIG_IN*%
X50625270Y-66934730D02*
X50625270Y-65999500D01*
X48560000Y-69000000D02*
X50625270Y-66934730D01*
%TO.N,Net-(D9-Pad2)*%
X41400000Y-65300000D02*
X55500000Y-65300000D01*
X55500000Y-65300000D02*
X55800000Y-65000000D01*
%TO.N,Net-(D8-Pad2)*%
X54600000Y-53200000D02*
X39800000Y-53200000D01*
X39800000Y-53200000D02*
X39700000Y-53300000D01*
%TO.N,Net-(D7-Pad2)*%
X67300000Y-62500000D02*
X64300000Y-59500000D01*
X64300000Y-59500000D02*
X64300000Y-58100000D01*
D13*
%TO.N,VCC*%
X57400000Y-38700000D02*
X66200000Y-38700000D01*
X66200000Y-38700000D02*
X70600000Y-38700000D01*
X35000000Y-39100000D02*
X32200978Y-39100000D01*
D14*
%TO.N,Net-(D1-Pad4)*%
X49000000Y-48300000D02*
X31800000Y-48300000D01*
X31800000Y-48300000D02*
X30400000Y-46900000D01*
D13*
%TO.N,GND*%
X43200000Y-66100000D02*
X47555156Y-66100000D01*
X47555156Y-66100000D02*
X48123553Y-66668397D01*
%TO.N,VCC*%
X45700000Y-38700000D02*
X57400000Y-38700000D01*
X70600000Y-38700000D02*
X70800000Y-38900000D01*
%TO.N,GND*%
X46998623Y-39798623D02*
X47300000Y-40100000D01*
X37601377Y-39798623D02*
X46998623Y-39798623D01*
%TO.N,VCC*%
X45700000Y-38700000D02*
X35400000Y-38700000D01*
%TO.N,GND*%
X37500000Y-39900000D02*
X37601377Y-39798623D01*
%TO.N,VCC*%
X35400000Y-38700000D02*
X35000000Y-39100000D01*
%TO.N,GND*%
X47300000Y-40100000D02*
X59600000Y-40100000D01*
X59600000Y-40100000D02*
X69800000Y-40100000D01*
X69800000Y-40100000D02*
X75700000Y-40100000D01*
X75700000Y-40100000D02*
X75800000Y-40200000D01*
%TD*%
%TA.AperFunction,Conductor*%
%TO.N,GND*%
G36*
X61830495Y-24728880D02*
G01*
X71825098Y-31230224D01*
X71869708Y-31280746D01*
X77028815Y-41890985D01*
X77041500Y-41946083D01*
X77041500Y-49462913D01*
X77030261Y-49514931D01*
X72242272Y-60078124D01*
X67613172Y-70290778D01*
X67555724Y-70417518D01*
X67509383Y-70471305D01*
X67440963Y-70491500D01*
X61119392Y-70491500D01*
X61051271Y-70471498D01*
X61004778Y-70417842D01*
X60994674Y-70347568D01*
X61024168Y-70282988D01*
X61043827Y-70264674D01*
X61105724Y-70218285D01*
X61118285Y-70205724D01*
X61194786Y-70103649D01*
X61203324Y-70088054D01*
X61248478Y-69967606D01*
X61252105Y-69952351D01*
X61257631Y-69901486D01*
X61258000Y-69894672D01*
X61258000Y-69272115D01*
X61253525Y-69256876D01*
X61252135Y-69255671D01*
X61244452Y-69254000D01*
X59772000Y-69254000D01*
X59703879Y-69233998D01*
X59657386Y-69180342D01*
X59646000Y-69128000D01*
X59646000Y-68727885D01*
X60154000Y-68727885D01*
X60158475Y-68743124D01*
X60159865Y-68744329D01*
X60167548Y-68746000D01*
X61239884Y-68746000D01*
X61255123Y-68741525D01*
X61256328Y-68740135D01*
X61257999Y-68732452D01*
X61257999Y-68105331D01*
X61257629Y-68098510D01*
X61252105Y-68047648D01*
X61248479Y-68032396D01*
X61203324Y-67911946D01*
X61194786Y-67896351D01*
X61118285Y-67794276D01*
X61105724Y-67781715D01*
X61003649Y-67705214D01*
X60988054Y-67696676D01*
X60867606Y-67651522D01*
X60852351Y-67647895D01*
X60801486Y-67642369D01*
X60794672Y-67642000D01*
X60172115Y-67642000D01*
X60156876Y-67646475D01*
X60155671Y-67647865D01*
X60154000Y-67655548D01*
X60154000Y-68727885D01*
X59646000Y-68727885D01*
X59646000Y-67660116D01*
X59641525Y-67644877D01*
X59640135Y-67643672D01*
X59632452Y-67642001D01*
X59434500Y-67642001D01*
X59366379Y-67621999D01*
X59319886Y-67568343D01*
X59308500Y-67516001D01*
X59308500Y-66830290D01*
X59328502Y-66762169D01*
X59340864Y-66745980D01*
X59434621Y-66641852D01*
X59434622Y-66641851D01*
X59439040Y-66636944D01*
X59534527Y-66471556D01*
X59593542Y-66289928D01*
X59613504Y-66100000D01*
X59612163Y-66087237D01*
X59594232Y-65916635D01*
X59594232Y-65916633D01*
X59593542Y-65910072D01*
X59534527Y-65728444D01*
X59439040Y-65563056D01*
X59311253Y-65421134D01*
X59156752Y-65308882D01*
X59150724Y-65306198D01*
X59150722Y-65306197D01*
X58988319Y-65233891D01*
X58988318Y-65233891D01*
X58982288Y-65231206D01*
X58888887Y-65211353D01*
X58801944Y-65192872D01*
X58801939Y-65192872D01*
X58795487Y-65191500D01*
X58604513Y-65191500D01*
X58598061Y-65192872D01*
X58598056Y-65192872D01*
X58511113Y-65211353D01*
X58417712Y-65231206D01*
X58411682Y-65233891D01*
X58411681Y-65233891D01*
X58249278Y-65306197D01*
X58249276Y-65306198D01*
X58243248Y-65308882D01*
X58088747Y-65421134D01*
X57960960Y-65563056D01*
X57865473Y-65728444D01*
X57806458Y-65910072D01*
X57805768Y-65916633D01*
X57805768Y-65916635D01*
X57787837Y-66087237D01*
X57786496Y-66100000D01*
X57806458Y-66289928D01*
X57865473Y-66471556D01*
X57960960Y-66636944D01*
X57965378Y-66641851D01*
X57965379Y-66641852D01*
X58059136Y-66745980D01*
X58089854Y-66809987D01*
X58091500Y-66830290D01*
X58091500Y-67355761D01*
X58071498Y-67423882D01*
X58054595Y-67444856D01*
X57845048Y-67654403D01*
X57782736Y-67688429D01*
X57718287Y-67684358D01*
X57718087Y-67685116D01*
X57714256Y-67684104D01*
X57713895Y-67684081D01*
X57713089Y-67683796D01*
X57708212Y-67682069D01*
X57703123Y-67681162D01*
X57703121Y-67681162D01*
X57493373Y-67643800D01*
X57493367Y-67643799D01*
X57488284Y-67642894D01*
X57414452Y-67641992D01*
X57270081Y-67640228D01*
X57270079Y-67640228D01*
X57264911Y-67640165D01*
X57044091Y-67673955D01*
X56831756Y-67743357D01*
X56801443Y-67759137D01*
X56686736Y-67818850D01*
X56633607Y-67846507D01*
X56629474Y-67849610D01*
X56629471Y-67849612D01*
X56554953Y-67905562D01*
X56454965Y-67980635D01*
X56300629Y-68142138D01*
X56193201Y-68299621D01*
X56138293Y-68344621D01*
X56067768Y-68352792D01*
X56004021Y-68321538D01*
X55983324Y-68297054D01*
X55902822Y-68172617D01*
X55902820Y-68172614D01*
X55900014Y-68168277D01*
X55749670Y-68003051D01*
X55745619Y-67999852D01*
X55745615Y-67999848D01*
X55578414Y-67867800D01*
X55578410Y-67867798D01*
X55574359Y-67864598D01*
X55378789Y-67756638D01*
X55373920Y-67754914D01*
X55373916Y-67754912D01*
X55173087Y-67683795D01*
X55173083Y-67683794D01*
X55168212Y-67682069D01*
X55163119Y-67681162D01*
X55163116Y-67681161D01*
X54953373Y-67643800D01*
X54953367Y-67643799D01*
X54948284Y-67642894D01*
X54874452Y-67641992D01*
X54730081Y-67640228D01*
X54730079Y-67640228D01*
X54724911Y-67640165D01*
X54504091Y-67673955D01*
X54291756Y-67743357D01*
X54261443Y-67759137D01*
X54146736Y-67818850D01*
X54093607Y-67846507D01*
X54089474Y-67849610D01*
X54089471Y-67849612D01*
X54014953Y-67905562D01*
X53914965Y-67980635D01*
X53760629Y-68142138D01*
X53634743Y-68326680D01*
X53540688Y-68529305D01*
X53480989Y-68744570D01*
X53457251Y-68966695D01*
X53470110Y-69189715D01*
X53471247Y-69194761D01*
X53471248Y-69194767D01*
X53488680Y-69272115D01*
X53519222Y-69407639D01*
X53603266Y-69614616D01*
X53654942Y-69698944D01*
X53717291Y-69800688D01*
X53719987Y-69805088D01*
X53866250Y-69973938D01*
X54038126Y-70116632D01*
X54231000Y-70229338D01*
X54235825Y-70231180D01*
X54235826Y-70231181D01*
X54279321Y-70247790D01*
X54335824Y-70290778D01*
X54360117Y-70357489D01*
X54344487Y-70426743D01*
X54293896Y-70476554D01*
X54234372Y-70491500D01*
X52319392Y-70491500D01*
X52251271Y-70471498D01*
X52204778Y-70417842D01*
X52194674Y-70347568D01*
X52224168Y-70282988D01*
X52243827Y-70264674D01*
X52305724Y-70218285D01*
X52318285Y-70205724D01*
X52394786Y-70103649D01*
X52403324Y-70088054D01*
X52448478Y-69967606D01*
X52452105Y-69952351D01*
X52457631Y-69901486D01*
X52458000Y-69894672D01*
X52458000Y-69272115D01*
X52453525Y-69256876D01*
X52452135Y-69255671D01*
X52444452Y-69254000D01*
X50972000Y-69254000D01*
X50903879Y-69233998D01*
X50857386Y-69180342D01*
X50846000Y-69128000D01*
X50846000Y-68727885D01*
X51354000Y-68727885D01*
X51358475Y-68743124D01*
X51359865Y-68744329D01*
X51367548Y-68746000D01*
X52439884Y-68746000D01*
X52455123Y-68741525D01*
X52456328Y-68740135D01*
X52457999Y-68732452D01*
X52457999Y-68105331D01*
X52457629Y-68098510D01*
X52452105Y-68047648D01*
X52448479Y-68032396D01*
X52403324Y-67911946D01*
X52394786Y-67896351D01*
X52318285Y-67794276D01*
X52305724Y-67781715D01*
X52203649Y-67705214D01*
X52188054Y-67696676D01*
X52067606Y-67651522D01*
X52052351Y-67647895D01*
X52001486Y-67642369D01*
X51994672Y-67642000D01*
X51372115Y-67642000D01*
X51356876Y-67646475D01*
X51355671Y-67647865D01*
X51354000Y-67655548D01*
X51354000Y-68727885D01*
X50846000Y-68727885D01*
X50846000Y-67642001D01*
X50847639Y-67642001D01*
X50847640Y-67594703D01*
X50879441Y-67541108D01*
X51021504Y-67399045D01*
X51033895Y-67388178D01*
X51052707Y-67373743D01*
X51059257Y-67368717D01*
X51083744Y-67336805D01*
X51083748Y-67336801D01*
X51156794Y-67241606D01*
X51218108Y-67093581D01*
X51229309Y-67008500D01*
X51233770Y-66974615D01*
X51233770Y-66974610D01*
X51239020Y-66934730D01*
X51234848Y-66903037D01*
X51233770Y-66886594D01*
X51233770Y-66729790D01*
X51253772Y-66661669D01*
X51266134Y-66645480D01*
X51359891Y-66541352D01*
X51359895Y-66541347D01*
X51364310Y-66536444D01*
X51459797Y-66371056D01*
X51518812Y-66189428D01*
X51519502Y-66182865D01*
X51536480Y-66021329D01*
X51563493Y-65955673D01*
X51621715Y-65915043D01*
X51661790Y-65908500D01*
X55451864Y-65908500D01*
X55468307Y-65909578D01*
X55500000Y-65913750D01*
X55508189Y-65912672D01*
X55539874Y-65908501D01*
X55539884Y-65908500D01*
X55539885Y-65908500D01*
X55550307Y-65907128D01*
X55620080Y-65897942D01*
X55662724Y-65899618D01*
X55698049Y-65907127D01*
X55698058Y-65907128D01*
X55704513Y-65908500D01*
X55895487Y-65908500D01*
X55901939Y-65907128D01*
X55901944Y-65907128D01*
X55988888Y-65888647D01*
X56082288Y-65868794D01*
X56166668Y-65831226D01*
X56250722Y-65793803D01*
X56250724Y-65793802D01*
X56256752Y-65791118D01*
X56411253Y-65678866D01*
X56539040Y-65536944D01*
X56634527Y-65371556D01*
X56693542Y-65189928D01*
X56713504Y-65000000D01*
X56693542Y-64810072D01*
X56634527Y-64628444D01*
X56539040Y-64463056D01*
X56411253Y-64321134D01*
X56256752Y-64208882D01*
X56250724Y-64206198D01*
X56250722Y-64206197D01*
X56088319Y-64133891D01*
X56088318Y-64133891D01*
X56082288Y-64131206D01*
X55988888Y-64111353D01*
X55901944Y-64092872D01*
X55901939Y-64092872D01*
X55895487Y-64091500D01*
X55704513Y-64091500D01*
X55698061Y-64092872D01*
X55698056Y-64092872D01*
X55611112Y-64111353D01*
X55517712Y-64131206D01*
X55511682Y-64133891D01*
X55511681Y-64133891D01*
X55349278Y-64206197D01*
X55349276Y-64206198D01*
X55343248Y-64208882D01*
X55188747Y-64321134D01*
X55060960Y-64463056D01*
X54965473Y-64628444D01*
X54962824Y-64626915D01*
X54925350Y-64670914D01*
X54856329Y-64691500D01*
X42130710Y-64691500D01*
X42062589Y-64671498D01*
X42037074Y-64649811D01*
X42015668Y-64626037D01*
X42015666Y-64626036D01*
X42011253Y-64621134D01*
X41856752Y-64508882D01*
X41850724Y-64506198D01*
X41850722Y-64506197D01*
X41688319Y-64433891D01*
X41688318Y-64433891D01*
X41682288Y-64431206D01*
X41588887Y-64411353D01*
X41501944Y-64392872D01*
X41501939Y-64392872D01*
X41495487Y-64391500D01*
X41304513Y-64391500D01*
X41298061Y-64392872D01*
X41298056Y-64392872D01*
X41211113Y-64411353D01*
X41117712Y-64431206D01*
X41111682Y-64433891D01*
X41111681Y-64433891D01*
X40949278Y-64506197D01*
X40949276Y-64506198D01*
X40943248Y-64508882D01*
X40788747Y-64621134D01*
X40660960Y-64763056D01*
X40565473Y-64928444D01*
X40506458Y-65110072D01*
X40486496Y-65300000D01*
X40487186Y-65306565D01*
X40499228Y-65421134D01*
X40506458Y-65489928D01*
X40565473Y-65671556D01*
X40660960Y-65836944D01*
X40665378Y-65841851D01*
X40665379Y-65841852D01*
X40732714Y-65916635D01*
X40788747Y-65978866D01*
X40943248Y-66091118D01*
X40949276Y-66093802D01*
X40949278Y-66093803D01*
X41111681Y-66166109D01*
X41117712Y-66168794D01*
X41211113Y-66188647D01*
X41298056Y-66207128D01*
X41298061Y-66207128D01*
X41304513Y-66208500D01*
X41495487Y-66208500D01*
X41501939Y-66207128D01*
X41501944Y-66207128D01*
X41588887Y-66188647D01*
X41682288Y-66168794D01*
X41688319Y-66166109D01*
X41850722Y-66093803D01*
X41850724Y-66093802D01*
X41856752Y-66091118D01*
X42011253Y-65978866D01*
X42037074Y-65950189D01*
X42097520Y-65912950D01*
X42130710Y-65908500D01*
X49588750Y-65908500D01*
X49656871Y-65928502D01*
X49703364Y-65982158D01*
X49714060Y-66021329D01*
X49731038Y-66182865D01*
X49731728Y-66189428D01*
X49790743Y-66371056D01*
X49886230Y-66536444D01*
X49937361Y-66593230D01*
X49968076Y-66657235D01*
X49959313Y-66727688D01*
X49932818Y-66766633D01*
X49045048Y-67654403D01*
X48982736Y-67688429D01*
X48918287Y-67684358D01*
X48918087Y-67685116D01*
X48914256Y-67684104D01*
X48913895Y-67684081D01*
X48913089Y-67683796D01*
X48908212Y-67682069D01*
X48903123Y-67681162D01*
X48903121Y-67681162D01*
X48693373Y-67643800D01*
X48693367Y-67643799D01*
X48688284Y-67642894D01*
X48614452Y-67641992D01*
X48470081Y-67640228D01*
X48470079Y-67640228D01*
X48464911Y-67640165D01*
X48244091Y-67673955D01*
X48031756Y-67743357D01*
X48001443Y-67759137D01*
X47886736Y-67818850D01*
X47833607Y-67846507D01*
X47829474Y-67849610D01*
X47829471Y-67849612D01*
X47754953Y-67905562D01*
X47654965Y-67980635D01*
X47500629Y-68142138D01*
X47393201Y-68299621D01*
X47338293Y-68344621D01*
X47267768Y-68352792D01*
X47204021Y-68321538D01*
X47183324Y-68297054D01*
X47102822Y-68172617D01*
X47102820Y-68172614D01*
X47100014Y-68168277D01*
X46949670Y-68003051D01*
X46945619Y-67999852D01*
X46945615Y-67999848D01*
X46778414Y-67867800D01*
X46778410Y-67867798D01*
X46774359Y-67864598D01*
X46578789Y-67756638D01*
X46573920Y-67754914D01*
X46573916Y-67754912D01*
X46373087Y-67683795D01*
X46373083Y-67683794D01*
X46368212Y-67682069D01*
X46363119Y-67681162D01*
X46363116Y-67681161D01*
X46153373Y-67643800D01*
X46153367Y-67643799D01*
X46148284Y-67642894D01*
X46074452Y-67641992D01*
X45930081Y-67640228D01*
X45930079Y-67640228D01*
X45924911Y-67640165D01*
X45704091Y-67673955D01*
X45491756Y-67743357D01*
X45461443Y-67759137D01*
X45346736Y-67818850D01*
X45293607Y-67846507D01*
X45289474Y-67849610D01*
X45289471Y-67849612D01*
X45214953Y-67905562D01*
X45114965Y-67980635D01*
X44960629Y-68142138D01*
X44834743Y-68326680D01*
X44740688Y-68529305D01*
X44680989Y-68744570D01*
X44657251Y-68966695D01*
X44670110Y-69189715D01*
X44671247Y-69194761D01*
X44671248Y-69194767D01*
X44688680Y-69272115D01*
X44719222Y-69407639D01*
X44803266Y-69614616D01*
X44854942Y-69698944D01*
X44917291Y-69800688D01*
X44919987Y-69805088D01*
X45066250Y-69973938D01*
X45238126Y-70116632D01*
X45431000Y-70229338D01*
X45435825Y-70231180D01*
X45435826Y-70231181D01*
X45479321Y-70247790D01*
X45535824Y-70290778D01*
X45560117Y-70357489D01*
X45544487Y-70426743D01*
X45493896Y-70476554D01*
X45434372Y-70491500D01*
X38509037Y-70491500D01*
X38440916Y-70471498D01*
X38394276Y-70417518D01*
X38336829Y-70290778D01*
X33959103Y-60632703D01*
X50990743Y-60632703D01*
X51028268Y-60917734D01*
X51104129Y-61195036D01*
X51216923Y-61459476D01*
X51364561Y-61706161D01*
X51544313Y-61930528D01*
X51752851Y-62128423D01*
X51986317Y-62296186D01*
X51990112Y-62298195D01*
X51990113Y-62298196D01*
X52011869Y-62309715D01*
X52240392Y-62430712D01*
X52510373Y-62529511D01*
X52791264Y-62590755D01*
X52819841Y-62593004D01*
X53014282Y-62608307D01*
X53014291Y-62608307D01*
X53016739Y-62608500D01*
X53172271Y-62608500D01*
X53174407Y-62608354D01*
X53174418Y-62608354D01*
X53382548Y-62594165D01*
X53382554Y-62594164D01*
X53386825Y-62593873D01*
X53391020Y-62593004D01*
X53391022Y-62593004D01*
X53527583Y-62564724D01*
X53668342Y-62535574D01*
X53939343Y-62439607D01*
X54194812Y-62307750D01*
X54198313Y-62305289D01*
X54198317Y-62305287D01*
X54312417Y-62225096D01*
X54430023Y-62142441D01*
X54640622Y-61946740D01*
X54822713Y-61724268D01*
X54972927Y-61479142D01*
X55088483Y-61215898D01*
X55167244Y-60939406D01*
X55207751Y-60654784D01*
X55207845Y-60636951D01*
X55209235Y-60371583D01*
X55209235Y-60371576D01*
X55209257Y-60367297D01*
X55171732Y-60082266D01*
X55095871Y-59804964D01*
X54983077Y-59540524D01*
X54835439Y-59293839D01*
X54655687Y-59069472D01*
X54447149Y-58871577D01*
X54213683Y-58703814D01*
X54191843Y-58692250D01*
X54096657Y-58641852D01*
X53959608Y-58569288D01*
X53689627Y-58470489D01*
X53408736Y-58409245D01*
X53377685Y-58406801D01*
X53185718Y-58391693D01*
X53185709Y-58391693D01*
X53183261Y-58391500D01*
X53027729Y-58391500D01*
X53025593Y-58391646D01*
X53025582Y-58391646D01*
X52817452Y-58405835D01*
X52817446Y-58405836D01*
X52813175Y-58406127D01*
X52808980Y-58406996D01*
X52808978Y-58406996D01*
X52672417Y-58435276D01*
X52531658Y-58464426D01*
X52260657Y-58560393D01*
X52005188Y-58692250D01*
X52001687Y-58694711D01*
X52001683Y-58694713D01*
X51991594Y-58701804D01*
X51769977Y-58857559D01*
X51559378Y-59053260D01*
X51377287Y-59275732D01*
X51227073Y-59520858D01*
X51111517Y-59784102D01*
X51032756Y-60060594D01*
X50992249Y-60345216D01*
X50992227Y-60349505D01*
X50992226Y-60349512D01*
X50990765Y-60628417D01*
X50990743Y-60632703D01*
X33959103Y-60632703D01*
X33707728Y-60078124D01*
X32811102Y-58100000D01*
X63386496Y-58100000D01*
X63406458Y-58289928D01*
X63465473Y-58471556D01*
X63560960Y-58636944D01*
X63565378Y-58641851D01*
X63565379Y-58641852D01*
X63659136Y-58745980D01*
X63689854Y-58809987D01*
X63691500Y-58830290D01*
X63691500Y-59451864D01*
X63690422Y-59468307D01*
X63686250Y-59500000D01*
X63691500Y-59539880D01*
X63691500Y-59539885D01*
X63704609Y-59639457D01*
X63707162Y-59658851D01*
X63768476Y-59806876D01*
X63773503Y-59813427D01*
X63773504Y-59813429D01*
X63841520Y-59902069D01*
X63841526Y-59902075D01*
X63866013Y-59933987D01*
X63872568Y-59939017D01*
X63891379Y-59953452D01*
X63903770Y-59964319D01*
X66350281Y-62410830D01*
X66384307Y-62473142D01*
X66386841Y-62496716D01*
X66386496Y-62500000D01*
X66406458Y-62689928D01*
X66465473Y-62871556D01*
X66560960Y-63036944D01*
X66688747Y-63178866D01*
X66843248Y-63291118D01*
X66849276Y-63293802D01*
X66849278Y-63293803D01*
X67011681Y-63366109D01*
X67017712Y-63368794D01*
X67111113Y-63388647D01*
X67198056Y-63407128D01*
X67198061Y-63407128D01*
X67204513Y-63408500D01*
X67395487Y-63408500D01*
X67401939Y-63407128D01*
X67401944Y-63407128D01*
X67488887Y-63388647D01*
X67582288Y-63368794D01*
X67588319Y-63366109D01*
X67750722Y-63293803D01*
X67750724Y-63293802D01*
X67756752Y-63291118D01*
X67911253Y-63178866D01*
X68039040Y-63036944D01*
X68134527Y-62871556D01*
X68193542Y-62689928D01*
X68213504Y-62500000D01*
X68193542Y-62310072D01*
X68134527Y-62128444D01*
X68039040Y-61963056D01*
X67911253Y-61821134D01*
X67756752Y-61708882D01*
X67750724Y-61706198D01*
X67750722Y-61706197D01*
X67588319Y-61633891D01*
X67588318Y-61633891D01*
X67582288Y-61631206D01*
X67488888Y-61611353D01*
X67401944Y-61592872D01*
X67401939Y-61592872D01*
X67395487Y-61591500D01*
X67304239Y-61591500D01*
X67236118Y-61571498D01*
X67215144Y-61554595D01*
X64945405Y-59284856D01*
X64911379Y-59222544D01*
X64908500Y-59195761D01*
X64908500Y-58830290D01*
X64928502Y-58762169D01*
X64940864Y-58745980D01*
X65034621Y-58641852D01*
X65034622Y-58641851D01*
X65039040Y-58636944D01*
X65134527Y-58471556D01*
X65193542Y-58289928D01*
X65213504Y-58100000D01*
X65193542Y-57910072D01*
X65134527Y-57728444D01*
X65039040Y-57563056D01*
X64911253Y-57421134D01*
X64756752Y-57308882D01*
X64750724Y-57306198D01*
X64750722Y-57306197D01*
X64588319Y-57233891D01*
X64588318Y-57233891D01*
X64582288Y-57231206D01*
X64488887Y-57211353D01*
X64401944Y-57192872D01*
X64401939Y-57192872D01*
X64395487Y-57191500D01*
X64204513Y-57191500D01*
X64198061Y-57192872D01*
X64198056Y-57192872D01*
X64111113Y-57211353D01*
X64017712Y-57231206D01*
X64011682Y-57233891D01*
X64011681Y-57233891D01*
X63849278Y-57306197D01*
X63849276Y-57306198D01*
X63843248Y-57308882D01*
X63688747Y-57421134D01*
X63560960Y-57563056D01*
X63465473Y-57728444D01*
X63406458Y-57910072D01*
X63386496Y-58100000D01*
X32811102Y-58100000D01*
X30635401Y-53300000D01*
X38786496Y-53300000D01*
X38787186Y-53306565D01*
X38796608Y-53396206D01*
X38806458Y-53489928D01*
X38865473Y-53671556D01*
X38960960Y-53836944D01*
X39088747Y-53978866D01*
X39243248Y-54091118D01*
X39249276Y-54093802D01*
X39249278Y-54093803D01*
X39411681Y-54166109D01*
X39417712Y-54168794D01*
X39511112Y-54188647D01*
X39598056Y-54207128D01*
X39598061Y-54207128D01*
X39604513Y-54208500D01*
X39795487Y-54208500D01*
X39801939Y-54207128D01*
X39801944Y-54207128D01*
X39888888Y-54188647D01*
X39982288Y-54168794D01*
X39988319Y-54166109D01*
X40150722Y-54093803D01*
X40150724Y-54093802D01*
X40156752Y-54091118D01*
X40311253Y-53978866D01*
X40427114Y-53850190D01*
X40487559Y-53812950D01*
X40520749Y-53808500D01*
X53869290Y-53808500D01*
X53937411Y-53828502D01*
X53962926Y-53850189D01*
X53988747Y-53878866D01*
X54010329Y-53894546D01*
X54126385Y-53978866D01*
X54143248Y-53991118D01*
X54149276Y-53993802D01*
X54149278Y-53993803D01*
X54311681Y-54066109D01*
X54317712Y-54068794D01*
X54404479Y-54087237D01*
X54498056Y-54107128D01*
X54498061Y-54107128D01*
X54504513Y-54108500D01*
X54695487Y-54108500D01*
X54701939Y-54107128D01*
X54701944Y-54107128D01*
X54795521Y-54087237D01*
X54882288Y-54068794D01*
X54888319Y-54066109D01*
X55050722Y-53993803D01*
X55050724Y-53993802D01*
X55056752Y-53991118D01*
X55073616Y-53978866D01*
X55112157Y-53950864D01*
X55211253Y-53878866D01*
X55339040Y-53736944D01*
X55434527Y-53571556D01*
X55493542Y-53389928D01*
X55513504Y-53200000D01*
X55504052Y-53110072D01*
X55494232Y-53016635D01*
X55494232Y-53016633D01*
X55493542Y-53010072D01*
X55434527Y-52828444D01*
X55339040Y-52663056D01*
X55252944Y-52567436D01*
X55215675Y-52526045D01*
X55215674Y-52526044D01*
X55211253Y-52521134D01*
X55056752Y-52408882D01*
X55050724Y-52406198D01*
X55050722Y-52406197D01*
X54888319Y-52333891D01*
X54888318Y-52333891D01*
X54882288Y-52331206D01*
X54788888Y-52311353D01*
X54701944Y-52292872D01*
X54701939Y-52292872D01*
X54695487Y-52291500D01*
X54504513Y-52291500D01*
X54498061Y-52292872D01*
X54498056Y-52292872D01*
X54411112Y-52311353D01*
X54317712Y-52331206D01*
X54311682Y-52333891D01*
X54311681Y-52333891D01*
X54149278Y-52406197D01*
X54149276Y-52406198D01*
X54143248Y-52408882D01*
X53988747Y-52521134D01*
X53984334Y-52526036D01*
X53984332Y-52526037D01*
X53962926Y-52549811D01*
X53902480Y-52587050D01*
X53869290Y-52591500D01*
X40311405Y-52591500D01*
X40243284Y-52571498D01*
X40237344Y-52567436D01*
X40162094Y-52512763D01*
X40162093Y-52512762D01*
X40156752Y-52508882D01*
X40150724Y-52506198D01*
X40150722Y-52506197D01*
X39988319Y-52433891D01*
X39988318Y-52433891D01*
X39982288Y-52431206D01*
X39888887Y-52411353D01*
X39801944Y-52392872D01*
X39801939Y-52392872D01*
X39795487Y-52391500D01*
X39604513Y-52391500D01*
X39598061Y-52392872D01*
X39598056Y-52392872D01*
X39511113Y-52411353D01*
X39417712Y-52431206D01*
X39411682Y-52433891D01*
X39411681Y-52433891D01*
X39249278Y-52506197D01*
X39249276Y-52506198D01*
X39243248Y-52508882D01*
X39237907Y-52512762D01*
X39237906Y-52512763D01*
X39219636Y-52526037D01*
X39088747Y-52621134D01*
X38960960Y-52763056D01*
X38865473Y-52928444D01*
X38806458Y-53110072D01*
X38786496Y-53300000D01*
X30635401Y-53300000D01*
X29724326Y-51290000D01*
X44796496Y-51290000D01*
X44816458Y-51479928D01*
X44875473Y-51661556D01*
X44878776Y-51667278D01*
X44878777Y-51667279D01*
X44884551Y-51677279D01*
X44970960Y-51826944D01*
X45098747Y-51968866D01*
X45197843Y-52040864D01*
X45245352Y-52075381D01*
X45253248Y-52081118D01*
X45259276Y-52083802D01*
X45259278Y-52083803D01*
X45275708Y-52091118D01*
X45427712Y-52158794D01*
X45521113Y-52178647D01*
X45608056Y-52197128D01*
X45608061Y-52197128D01*
X45614513Y-52198500D01*
X45805487Y-52198500D01*
X45811939Y-52197128D01*
X45811944Y-52197128D01*
X45898887Y-52178647D01*
X45992288Y-52158794D01*
X46166752Y-52081118D01*
X46172095Y-52077236D01*
X46175308Y-52075381D01*
X46238309Y-52058500D01*
X49557413Y-52058500D01*
X49631472Y-52082563D01*
X49637902Y-52087235D01*
X49637909Y-52087239D01*
X49643248Y-52091118D01*
X49649276Y-52093802D01*
X49649278Y-52093803D01*
X49798333Y-52160166D01*
X49817712Y-52168794D01*
X49911112Y-52188647D01*
X49998056Y-52207128D01*
X49998061Y-52207128D01*
X50004513Y-52208500D01*
X50195487Y-52208500D01*
X50201939Y-52207128D01*
X50201944Y-52207128D01*
X50288887Y-52188647D01*
X50382288Y-52168794D01*
X50401667Y-52160166D01*
X50550722Y-52093803D01*
X50550724Y-52093802D01*
X50556752Y-52091118D01*
X50562097Y-52087235D01*
X50612157Y-52050864D01*
X50711253Y-51978866D01*
X50839040Y-51836944D01*
X50934527Y-51671556D01*
X50993542Y-51489928D01*
X51013504Y-51300000D01*
X50993542Y-51110072D01*
X50934527Y-50928444D01*
X50928754Y-50918444D01*
X50842341Y-50768774D01*
X50839040Y-50763056D01*
X50711253Y-50621134D01*
X50601647Y-50541500D01*
X50562094Y-50512763D01*
X50562093Y-50512762D01*
X50556752Y-50508882D01*
X50550724Y-50506198D01*
X50550722Y-50506197D01*
X50388319Y-50433891D01*
X50388318Y-50433891D01*
X50382288Y-50431206D01*
X50288887Y-50411353D01*
X50201944Y-50392872D01*
X50201939Y-50392872D01*
X50195487Y-50391500D01*
X50004513Y-50391500D01*
X49998061Y-50392872D01*
X49998056Y-50392872D01*
X49911113Y-50411353D01*
X49817712Y-50431206D01*
X49811682Y-50433891D01*
X49811681Y-50433891D01*
X49649278Y-50506197D01*
X49649276Y-50506198D01*
X49643248Y-50508882D01*
X49637909Y-50512761D01*
X49637902Y-50512765D01*
X49631472Y-50517437D01*
X49557413Y-50541500D01*
X46266350Y-50541500D01*
X46198229Y-50521498D01*
X46192307Y-50517449D01*
X46166752Y-50498882D01*
X46160724Y-50496198D01*
X46160722Y-50496197D01*
X45998319Y-50423891D01*
X45998318Y-50423891D01*
X45992288Y-50421206D01*
X45898887Y-50401353D01*
X45811944Y-50382872D01*
X45811939Y-50382872D01*
X45805487Y-50381500D01*
X45614513Y-50381500D01*
X45608061Y-50382872D01*
X45608056Y-50382872D01*
X45521113Y-50401353D01*
X45427712Y-50421206D01*
X45421682Y-50423891D01*
X45421681Y-50423891D01*
X45259278Y-50496197D01*
X45259276Y-50496198D01*
X45253248Y-50498882D01*
X45247907Y-50502762D01*
X45247906Y-50502763D01*
X45234140Y-50512765D01*
X45098747Y-50611134D01*
X44970960Y-50753056D01*
X44875473Y-50918444D01*
X44816458Y-51100072D01*
X44796496Y-51290000D01*
X29724326Y-51290000D01*
X28919739Y-49514931D01*
X28908500Y-49462913D01*
X28908500Y-46900000D01*
X29486496Y-46900000D01*
X29506458Y-47089928D01*
X29565473Y-47271556D01*
X29660960Y-47436944D01*
X29665378Y-47441851D01*
X29665379Y-47441852D01*
X29725733Y-47508882D01*
X29788747Y-47578866D01*
X29943248Y-47691118D01*
X29949276Y-47693802D01*
X29949278Y-47693803D01*
X30104824Y-47763056D01*
X30117712Y-47768794D01*
X30211113Y-47788647D01*
X30298056Y-47807128D01*
X30298061Y-47807128D01*
X30304513Y-47808500D01*
X30395761Y-47808500D01*
X30463882Y-47828502D01*
X30484856Y-47845405D01*
X31335685Y-48696234D01*
X31346552Y-48708625D01*
X31366013Y-48733987D01*
X31397925Y-48758474D01*
X31397928Y-48758477D01*
X31493124Y-48831524D01*
X31641149Y-48892838D01*
X31649336Y-48893916D01*
X31649337Y-48893916D01*
X31660542Y-48895391D01*
X31691738Y-48899498D01*
X31760115Y-48908500D01*
X31760118Y-48908500D01*
X31760126Y-48908501D01*
X31791811Y-48912672D01*
X31800000Y-48913750D01*
X31831693Y-48909578D01*
X31848136Y-48908500D01*
X48269290Y-48908500D01*
X48337411Y-48928502D01*
X48362926Y-48950189D01*
X48388747Y-48978866D01*
X48543248Y-49091118D01*
X48549276Y-49093802D01*
X48549278Y-49093803D01*
X48711681Y-49166109D01*
X48717712Y-49168794D01*
X48811113Y-49188647D01*
X48898056Y-49207128D01*
X48898061Y-49207128D01*
X48904513Y-49208500D01*
X49095487Y-49208500D01*
X49101939Y-49207128D01*
X49101944Y-49207128D01*
X49188887Y-49188647D01*
X49282288Y-49168794D01*
X49288319Y-49166109D01*
X49450722Y-49093803D01*
X49450724Y-49093802D01*
X49456752Y-49091118D01*
X49611253Y-48978866D01*
X49739040Y-48836944D01*
X49834527Y-48671556D01*
X49893542Y-48489928D01*
X49913504Y-48300000D01*
X49893542Y-48110072D01*
X49834527Y-47928444D01*
X49739040Y-47763056D01*
X49676685Y-47693803D01*
X49615675Y-47626045D01*
X49615674Y-47626044D01*
X49611253Y-47621134D01*
X49456752Y-47508882D01*
X49450724Y-47506198D01*
X49450722Y-47506197D01*
X49288319Y-47433891D01*
X49288318Y-47433891D01*
X49282288Y-47431206D01*
X49188887Y-47411353D01*
X49101944Y-47392872D01*
X49101939Y-47392872D01*
X49095487Y-47391500D01*
X48904513Y-47391500D01*
X48898061Y-47392872D01*
X48898056Y-47392872D01*
X48811113Y-47411353D01*
X48717712Y-47431206D01*
X48711682Y-47433891D01*
X48711681Y-47433891D01*
X48549278Y-47506197D01*
X48549276Y-47506198D01*
X48543248Y-47508882D01*
X48388747Y-47621134D01*
X48384334Y-47626036D01*
X48384332Y-47626037D01*
X48362926Y-47649811D01*
X48302480Y-47687050D01*
X48269290Y-47691500D01*
X32104239Y-47691500D01*
X32036118Y-47671498D01*
X32015144Y-47654595D01*
X31349719Y-46989170D01*
X31315693Y-46926858D01*
X31313159Y-46903284D01*
X31313504Y-46900000D01*
X31293542Y-46710072D01*
X31234527Y-46528444D01*
X31139040Y-46363056D01*
X31011253Y-46221134D01*
X30856752Y-46108882D01*
X30850724Y-46106198D01*
X30850722Y-46106197D01*
X30688319Y-46033891D01*
X30688318Y-46033891D01*
X30682288Y-46031206D01*
X30588888Y-46011353D01*
X30501944Y-45992872D01*
X30501939Y-45992872D01*
X30495487Y-45991500D01*
X30304513Y-45991500D01*
X30298061Y-45992872D01*
X30298056Y-45992872D01*
X30211112Y-46011353D01*
X30117712Y-46031206D01*
X30111682Y-46033891D01*
X30111681Y-46033891D01*
X29949278Y-46106197D01*
X29949276Y-46106198D01*
X29943248Y-46108882D01*
X29788747Y-46221134D01*
X29660960Y-46363056D01*
X29565473Y-46528444D01*
X29506458Y-46710072D01*
X29486496Y-46900000D01*
X28908500Y-46900000D01*
X28908500Y-44132703D01*
X36990743Y-44132703D01*
X37028268Y-44417734D01*
X37104129Y-44695036D01*
X37216923Y-44959476D01*
X37364561Y-45206161D01*
X37544313Y-45430528D01*
X37752851Y-45628423D01*
X37986317Y-45796186D01*
X37990112Y-45798195D01*
X37990113Y-45798196D01*
X38011869Y-45809715D01*
X38240392Y-45930712D01*
X38510373Y-46029511D01*
X38791264Y-46090755D01*
X38819841Y-46093004D01*
X39014282Y-46108307D01*
X39014291Y-46108307D01*
X39016739Y-46108500D01*
X39172271Y-46108500D01*
X39174407Y-46108354D01*
X39174418Y-46108354D01*
X39382548Y-46094165D01*
X39382554Y-46094164D01*
X39386825Y-46093873D01*
X39391020Y-46093004D01*
X39391022Y-46093004D01*
X39527583Y-46064724D01*
X39668342Y-46035574D01*
X39939343Y-45939607D01*
X40194812Y-45807750D01*
X40198313Y-45805289D01*
X40198317Y-45805287D01*
X40312418Y-45725095D01*
X40430023Y-45642441D01*
X40640622Y-45446740D01*
X40822713Y-45224268D01*
X40972927Y-44979142D01*
X41088483Y-44715898D01*
X41167244Y-44439406D01*
X41207751Y-44154784D01*
X41207845Y-44136951D01*
X41207867Y-44132703D01*
X64690743Y-44132703D01*
X64728268Y-44417734D01*
X64804129Y-44695036D01*
X64916923Y-44959476D01*
X65064561Y-45206161D01*
X65244313Y-45430528D01*
X65452851Y-45628423D01*
X65686317Y-45796186D01*
X65690112Y-45798195D01*
X65690113Y-45798196D01*
X65711869Y-45809715D01*
X65940392Y-45930712D01*
X66210373Y-46029511D01*
X66491264Y-46090755D01*
X66519841Y-46093004D01*
X66714282Y-46108307D01*
X66714291Y-46108307D01*
X66716739Y-46108500D01*
X66872271Y-46108500D01*
X66874407Y-46108354D01*
X66874418Y-46108354D01*
X67082548Y-46094165D01*
X67082554Y-46094164D01*
X67086825Y-46093873D01*
X67091020Y-46093004D01*
X67091022Y-46093004D01*
X67227584Y-46064723D01*
X67368342Y-46035574D01*
X67639343Y-45939607D01*
X67894812Y-45807750D01*
X67898313Y-45805289D01*
X67898317Y-45805287D01*
X68012418Y-45725095D01*
X68130023Y-45642441D01*
X68340622Y-45446740D01*
X68522713Y-45224268D01*
X68672927Y-44979142D01*
X68788483Y-44715898D01*
X68867244Y-44439406D01*
X68907751Y-44154784D01*
X68907845Y-44136951D01*
X68909235Y-43871583D01*
X68909235Y-43871576D01*
X68909257Y-43867297D01*
X68871732Y-43582266D01*
X68795871Y-43304964D01*
X68683077Y-43040524D01*
X68535439Y-42793839D01*
X68355687Y-42569472D01*
X68147149Y-42371577D01*
X67913683Y-42203814D01*
X67891843Y-42192250D01*
X67868654Y-42179972D01*
X67659608Y-42069288D01*
X67389627Y-41970489D01*
X67108736Y-41909245D01*
X67077685Y-41906801D01*
X66885718Y-41891693D01*
X66885709Y-41891693D01*
X66883261Y-41891500D01*
X66727729Y-41891500D01*
X66725593Y-41891646D01*
X66725582Y-41891646D01*
X66517452Y-41905835D01*
X66517446Y-41905836D01*
X66513175Y-41906127D01*
X66508980Y-41906996D01*
X66508978Y-41906996D01*
X66460318Y-41917073D01*
X66231658Y-41964426D01*
X65960657Y-42060393D01*
X65705188Y-42192250D01*
X65701687Y-42194711D01*
X65701683Y-42194713D01*
X65691594Y-42201804D01*
X65469977Y-42357559D01*
X65259378Y-42553260D01*
X65077287Y-42775732D01*
X64927073Y-43020858D01*
X64811517Y-43284102D01*
X64732756Y-43560594D01*
X64692249Y-43845216D01*
X64692227Y-43849505D01*
X64692226Y-43849512D01*
X64690765Y-44128417D01*
X64690743Y-44132703D01*
X41207867Y-44132703D01*
X41209235Y-43871583D01*
X41209235Y-43871576D01*
X41209257Y-43867297D01*
X41171732Y-43582266D01*
X41095871Y-43304964D01*
X40983077Y-43040524D01*
X40835439Y-42793839D01*
X40655687Y-42569472D01*
X40447149Y-42371577D01*
X40213683Y-42203814D01*
X40191843Y-42192250D01*
X40168654Y-42179972D01*
X39959608Y-42069288D01*
X39689627Y-41970489D01*
X39408736Y-41909245D01*
X39377685Y-41906801D01*
X39185718Y-41891693D01*
X39185709Y-41891693D01*
X39183261Y-41891500D01*
X39027729Y-41891500D01*
X39025593Y-41891646D01*
X39025582Y-41891646D01*
X38817452Y-41905835D01*
X38817446Y-41905836D01*
X38813175Y-41906127D01*
X38808980Y-41906996D01*
X38808978Y-41906996D01*
X38760318Y-41917073D01*
X38531658Y-41964426D01*
X38260657Y-42060393D01*
X38005188Y-42192250D01*
X38001687Y-42194711D01*
X38001683Y-42194713D01*
X37991594Y-42201804D01*
X37769977Y-42357559D01*
X37559378Y-42553260D01*
X37377287Y-42775732D01*
X37227073Y-43020858D01*
X37111517Y-43284102D01*
X37032756Y-43560594D01*
X36992249Y-43845216D01*
X36992227Y-43849505D01*
X36992226Y-43849512D01*
X36990765Y-44128417D01*
X36990743Y-44132703D01*
X28908500Y-44132703D01*
X28908500Y-41946083D01*
X28921185Y-41890985D01*
X30278270Y-39100000D01*
X31287474Y-39100000D01*
X31288164Y-39106565D01*
X31306107Y-39277279D01*
X31307436Y-39289928D01*
X31366451Y-39471556D01*
X31461938Y-39636944D01*
X31466356Y-39641851D01*
X31466357Y-39641852D01*
X31580656Y-39768794D01*
X31589725Y-39778866D01*
X31628624Y-39807128D01*
X31738882Y-39887235D01*
X31744226Y-39891118D01*
X31750254Y-39893802D01*
X31750256Y-39893803D01*
X31912659Y-39966109D01*
X31918690Y-39968794D01*
X32012090Y-39988647D01*
X32099034Y-40007128D01*
X32099039Y-40007128D01*
X32105491Y-40008500D01*
X32296465Y-40008500D01*
X32302917Y-40007128D01*
X32302922Y-40007128D01*
X32389866Y-39988647D01*
X32483266Y-39968794D01*
X32489297Y-39966109D01*
X32651700Y-39893803D01*
X32651702Y-39893802D01*
X32657730Y-39891118D01*
X32663069Y-39887239D01*
X32663076Y-39887235D01*
X32669506Y-39882563D01*
X32743565Y-39858500D01*
X34932930Y-39858500D01*
X34951880Y-39859933D01*
X34966115Y-39862099D01*
X34966119Y-39862099D01*
X34973349Y-39863199D01*
X34980641Y-39862606D01*
X34980644Y-39862606D01*
X35026018Y-39858915D01*
X35036233Y-39858500D01*
X35044293Y-39858500D01*
X35057583Y-39856951D01*
X35072507Y-39855211D01*
X35076882Y-39854778D01*
X35142339Y-39849454D01*
X35142342Y-39849453D01*
X35149637Y-39848860D01*
X35156601Y-39846604D01*
X35162560Y-39845413D01*
X35168415Y-39844029D01*
X35175681Y-39843182D01*
X35244327Y-39818265D01*
X35248455Y-39816848D01*
X35310936Y-39796607D01*
X35310938Y-39796606D01*
X35317899Y-39794351D01*
X35324154Y-39790555D01*
X35329628Y-39788049D01*
X35335058Y-39785330D01*
X35341937Y-39782833D01*
X35402976Y-39742814D01*
X35406680Y-39740477D01*
X35469107Y-39702595D01*
X35477484Y-39695197D01*
X35477508Y-39695224D01*
X35480500Y-39692571D01*
X35483733Y-39689868D01*
X35489852Y-39685856D01*
X35543128Y-39629617D01*
X35545506Y-39627175D01*
X35677276Y-39495405D01*
X35739588Y-39461379D01*
X35766371Y-39458500D01*
X45157413Y-39458500D01*
X45231472Y-39482563D01*
X45237902Y-39487235D01*
X45237909Y-39487239D01*
X45243248Y-39491118D01*
X45249276Y-39493802D01*
X45249278Y-39493803D01*
X45263624Y-39500190D01*
X45417712Y-39568794D01*
X45483365Y-39582749D01*
X45598056Y-39607128D01*
X45598061Y-39607128D01*
X45604513Y-39608500D01*
X45795487Y-39608500D01*
X45801939Y-39607128D01*
X45801944Y-39607128D01*
X45916635Y-39582749D01*
X45982288Y-39568794D01*
X46136376Y-39500190D01*
X46150722Y-39493803D01*
X46150724Y-39493802D01*
X46156752Y-39491118D01*
X46162091Y-39487239D01*
X46162098Y-39487235D01*
X46168528Y-39482563D01*
X46242587Y-39458500D01*
X56857413Y-39458500D01*
X56931472Y-39482563D01*
X56937902Y-39487235D01*
X56937909Y-39487239D01*
X56943248Y-39491118D01*
X56949276Y-39493802D01*
X56949278Y-39493803D01*
X56963624Y-39500190D01*
X57117712Y-39568794D01*
X57183365Y-39582749D01*
X57298056Y-39607128D01*
X57298061Y-39607128D01*
X57304513Y-39608500D01*
X57495487Y-39608500D01*
X57501939Y-39607128D01*
X57501944Y-39607128D01*
X57616635Y-39582749D01*
X57682288Y-39568794D01*
X57836376Y-39500190D01*
X57850722Y-39493803D01*
X57850724Y-39493802D01*
X57856752Y-39491118D01*
X57862091Y-39487239D01*
X57862098Y-39487235D01*
X57868528Y-39482563D01*
X57942587Y-39458500D01*
X65657413Y-39458500D01*
X65731472Y-39482563D01*
X65737902Y-39487235D01*
X65737909Y-39487239D01*
X65743248Y-39491118D01*
X65749276Y-39493802D01*
X65749278Y-39493803D01*
X65763624Y-39500190D01*
X65917712Y-39568794D01*
X65983365Y-39582749D01*
X66098056Y-39607128D01*
X66098061Y-39607128D01*
X66104513Y-39608500D01*
X66295487Y-39608500D01*
X66301939Y-39607128D01*
X66301944Y-39607128D01*
X66416635Y-39582749D01*
X66482288Y-39568794D01*
X66636376Y-39500190D01*
X66650722Y-39493803D01*
X66650724Y-39493802D01*
X66656752Y-39491118D01*
X66662091Y-39487239D01*
X66662098Y-39487235D01*
X66668528Y-39482563D01*
X66742587Y-39458500D01*
X70024271Y-39458500D01*
X70092392Y-39478502D01*
X70117907Y-39500190D01*
X70177261Y-39566109D01*
X70188747Y-39578866D01*
X70287843Y-39650864D01*
X70336006Y-39685856D01*
X70343248Y-39691118D01*
X70349276Y-39693802D01*
X70349278Y-39693803D01*
X70511681Y-39766109D01*
X70517712Y-39768794D01*
X70605251Y-39787401D01*
X70698056Y-39807128D01*
X70698061Y-39807128D01*
X70704513Y-39808500D01*
X70895487Y-39808500D01*
X70901939Y-39807128D01*
X70901944Y-39807128D01*
X70994749Y-39787401D01*
X71082288Y-39768794D01*
X71088319Y-39766109D01*
X71250722Y-39693803D01*
X71250724Y-39693802D01*
X71256752Y-39691118D01*
X71263995Y-39685856D01*
X71312157Y-39650864D01*
X71411253Y-39578866D01*
X71420322Y-39568794D01*
X71534621Y-39441852D01*
X71534622Y-39441851D01*
X71539040Y-39436944D01*
X71634527Y-39271556D01*
X71693542Y-39089928D01*
X71713504Y-38900000D01*
X71695473Y-38728444D01*
X71694232Y-38716635D01*
X71694232Y-38716633D01*
X71693542Y-38710072D01*
X71634527Y-38528444D01*
X71539040Y-38363056D01*
X71422740Y-38233891D01*
X71415675Y-38226045D01*
X71415674Y-38226044D01*
X71411253Y-38221134D01*
X71271303Y-38119454D01*
X71262094Y-38112763D01*
X71262093Y-38112762D01*
X71256752Y-38108882D01*
X71250724Y-38106198D01*
X71250722Y-38106197D01*
X71088319Y-38033891D01*
X71088318Y-38033891D01*
X71082288Y-38031206D01*
X70895487Y-37991500D01*
X70893331Y-37991500D01*
X70869467Y-37985903D01*
X70866192Y-37984231D01*
X70859084Y-37982492D01*
X70853435Y-37980391D01*
X70847678Y-37978476D01*
X70841050Y-37975378D01*
X70769583Y-37960513D01*
X70765299Y-37959543D01*
X70730958Y-37951140D01*
X70694390Y-37942192D01*
X70688788Y-37941844D01*
X70688785Y-37941844D01*
X70683236Y-37941500D01*
X70683238Y-37941464D01*
X70679245Y-37941225D01*
X70675053Y-37940851D01*
X70667885Y-37939360D01*
X70604120Y-37941085D01*
X70590479Y-37941454D01*
X70587072Y-37941500D01*
X66742587Y-37941500D01*
X66668528Y-37917437D01*
X66662098Y-37912765D01*
X66662091Y-37912761D01*
X66656752Y-37908882D01*
X66650724Y-37906198D01*
X66650722Y-37906197D01*
X66488319Y-37833891D01*
X66488318Y-37833891D01*
X66482288Y-37831206D01*
X66388888Y-37811353D01*
X66301944Y-37792872D01*
X66301939Y-37792872D01*
X66295487Y-37791500D01*
X66104513Y-37791500D01*
X66098061Y-37792872D01*
X66098056Y-37792872D01*
X66011112Y-37811353D01*
X65917712Y-37831206D01*
X65911682Y-37833891D01*
X65911681Y-37833891D01*
X65749278Y-37906197D01*
X65749276Y-37906198D01*
X65743248Y-37908882D01*
X65737909Y-37912761D01*
X65737902Y-37912765D01*
X65731472Y-37917437D01*
X65657413Y-37941500D01*
X57942587Y-37941500D01*
X57868528Y-37917437D01*
X57862098Y-37912765D01*
X57862091Y-37912761D01*
X57856752Y-37908882D01*
X57850724Y-37906198D01*
X57850722Y-37906197D01*
X57688319Y-37833891D01*
X57688318Y-37833891D01*
X57682288Y-37831206D01*
X57588888Y-37811353D01*
X57501944Y-37792872D01*
X57501939Y-37792872D01*
X57495487Y-37791500D01*
X57304513Y-37791500D01*
X57298061Y-37792872D01*
X57298056Y-37792872D01*
X57211112Y-37811353D01*
X57117712Y-37831206D01*
X57111682Y-37833891D01*
X57111681Y-37833891D01*
X56949278Y-37906197D01*
X56949276Y-37906198D01*
X56943248Y-37908882D01*
X56937909Y-37912761D01*
X56937902Y-37912765D01*
X56931472Y-37917437D01*
X56857413Y-37941500D01*
X46242587Y-37941500D01*
X46168528Y-37917437D01*
X46162098Y-37912765D01*
X46162091Y-37912761D01*
X46156752Y-37908882D01*
X46150724Y-37906198D01*
X46150722Y-37906197D01*
X45988319Y-37833891D01*
X45988318Y-37833891D01*
X45982288Y-37831206D01*
X45888888Y-37811353D01*
X45801944Y-37792872D01*
X45801939Y-37792872D01*
X45795487Y-37791500D01*
X45604513Y-37791500D01*
X45598061Y-37792872D01*
X45598056Y-37792872D01*
X45511112Y-37811353D01*
X45417712Y-37831206D01*
X45411682Y-37833891D01*
X45411681Y-37833891D01*
X45249278Y-37906197D01*
X45249276Y-37906198D01*
X45243248Y-37908882D01*
X45237909Y-37912761D01*
X45237902Y-37912765D01*
X45231472Y-37917437D01*
X45157413Y-37941500D01*
X35467063Y-37941500D01*
X35448114Y-37940067D01*
X35447907Y-37940036D01*
X35426651Y-37936802D01*
X35419359Y-37937395D01*
X35419356Y-37937395D01*
X35373991Y-37941085D01*
X35363777Y-37941500D01*
X35355707Y-37941500D01*
X35352087Y-37941922D01*
X35352069Y-37941923D01*
X35327461Y-37944792D01*
X35323100Y-37945224D01*
X35297981Y-37947267D01*
X35257661Y-37950546D01*
X35257658Y-37950547D01*
X35250363Y-37951140D01*
X35243399Y-37953396D01*
X35237440Y-37954587D01*
X35231585Y-37955971D01*
X35224319Y-37956818D01*
X35155673Y-37981735D01*
X35151545Y-37983152D01*
X35089064Y-38003393D01*
X35089062Y-38003394D01*
X35082101Y-38005649D01*
X35075846Y-38009445D01*
X35070372Y-38011951D01*
X35064942Y-38014670D01*
X35058063Y-38017167D01*
X34997016Y-38057191D01*
X34993327Y-38059518D01*
X34973135Y-38071771D01*
X34935693Y-38094491D01*
X34935688Y-38094495D01*
X34930892Y-38097405D01*
X34922516Y-38104803D01*
X34922493Y-38104777D01*
X34919503Y-38107426D01*
X34916264Y-38110134D01*
X34910148Y-38114144D01*
X34905121Y-38119451D01*
X34905117Y-38119454D01*
X34856872Y-38170383D01*
X34854494Y-38172825D01*
X34722724Y-38304595D01*
X34660412Y-38338621D01*
X34633629Y-38341500D01*
X32743565Y-38341500D01*
X32669506Y-38317437D01*
X32663076Y-38312765D01*
X32663069Y-38312761D01*
X32657730Y-38308882D01*
X32651702Y-38306198D01*
X32651700Y-38306197D01*
X32489297Y-38233891D01*
X32489296Y-38233891D01*
X32483266Y-38231206D01*
X32389865Y-38211353D01*
X32302922Y-38192872D01*
X32302917Y-38192872D01*
X32296465Y-38191500D01*
X32105491Y-38191500D01*
X32099039Y-38192872D01*
X32099034Y-38192872D01*
X32012091Y-38211353D01*
X31918690Y-38231206D01*
X31912660Y-38233891D01*
X31912659Y-38233891D01*
X31750256Y-38306197D01*
X31750254Y-38306198D01*
X31744226Y-38308882D01*
X31738885Y-38312762D01*
X31738884Y-38312763D01*
X31732451Y-38317437D01*
X31589725Y-38421134D01*
X31461938Y-38563056D01*
X31366451Y-38728444D01*
X31307436Y-38910072D01*
X31287474Y-39100000D01*
X30278270Y-39100000D01*
X34080293Y-31280745D01*
X34124903Y-31230223D01*
X44119503Y-24728880D01*
X44188208Y-24708500D01*
X61761790Y-24708500D01*
X61830495Y-24728880D01*
G37*
%TD.AperFunction*%
%TD*%
M02*
