%TF.GenerationSoftware,KiCad,Pcbnew,6.0.4-6f826c9f35~116~ubuntu20.04.1*%
%TF.CreationDate,2022-04-29T21:51:39-06:00*%
%TF.ProjectId,circle-small,63697263-6c65-42d7-936d-616c6c2e6b69,rev?*%
%TF.SameCoordinates,Original*%
%TF.FileFunction,Copper,L1,Top*%
%TF.FilePolarity,Positive*%
%FSLAX46Y46*%
G04 Gerber Fmt 4.6, Leading zero omitted, Abs format (unit mm)*
G04 Created by KiCad (PCBNEW 6.0.4-6f826c9f35~116~ubuntu20.04.1) date 2022-04-29 21:51:39*
%MOMM*%
%LPD*%
G01*
G04 APERTURE LIST*
G04 Aperture macros list*
%AMRoundRect*
0 Rectangle with rounded corners*
0 $1 Rounding radius*
0 $2 $3 $4 $5 $6 $7 $8 $9 X,Y pos of 4 corners*
0 Add a 4 corners polygon primitive as box body*
4,1,4,$2,$3,$4,$5,$6,$7,$8,$9,$2,$3,0*
0 Add four circle primitives for the rounded corners*
1,1,$1+$1,$2,$3*
1,1,$1+$1,$4,$5*
1,1,$1+$1,$6,$7*
1,1,$1+$1,$8,$9*
0 Add four rect primitives between the rounded corners*
20,1,$1+$1,$2,$3,$4,$5,0*
20,1,$1+$1,$4,$5,$6,$7,0*
20,1,$1+$1,$6,$7,$8,$9,0*
20,1,$1+$1,$8,$9,$2,$3,0*%
G04 Aperture macros list end*
%TA.AperFunction,SMDPad,CuDef*%
%ADD10R,1.000000X1.500000*%
%TD*%
%TA.AperFunction,SMDPad,CuDef*%
%ADD11RoundRect,0.200000X-0.200000X-0.275000X0.200000X-0.275000X0.200000X0.275000X-0.200000X0.275000X0*%
%TD*%
%TA.AperFunction,ComponentPad*%
%ADD12R,1.700000X1.700000*%
%TD*%
%TA.AperFunction,ComponentPad*%
%ADD13O,1.700000X1.700000*%
%TD*%
%TA.AperFunction,SMDPad,CuDef*%
%ADD14RoundRect,0.225000X-0.225000X-0.250000X0.225000X-0.250000X0.225000X0.250000X-0.225000X0.250000X0*%
%TD*%
%TA.AperFunction,SMDPad,CuDef*%
%ADD15RoundRect,0.200000X0.275000X-0.200000X0.275000X0.200000X-0.275000X0.200000X-0.275000X-0.200000X0*%
%TD*%
%TA.AperFunction,SMDPad,CuDef*%
%ADD16RoundRect,0.140000X-0.140000X-0.170000X0.140000X-0.170000X0.140000X0.170000X-0.140000X0.170000X0*%
%TD*%
%TA.AperFunction,ViaPad*%
%ADD17C,0.800000*%
%TD*%
%TA.AperFunction,Conductor*%
%ADD18C,0.500000*%
%TD*%
%TA.AperFunction,Conductor*%
%ADD19C,0.200000*%
%TD*%
G04 APERTURE END LIST*
D10*
%TO.P,D1,1,VDD*%
%TO.N,VCC*%
X30000000Y-48350000D03*
%TO.P,D1,2,DOUT*%
%TO.N,Net-(D1-Pad2)*%
X33200000Y-48350000D03*
%TO.P,D1,3,VSS*%
%TO.N,GND*%
X33200000Y-43450000D03*
%TO.P,D1,4,DIN*%
%TO.N,Net-(D1-Pad4)*%
X30000000Y-43450000D03*
%TD*%
%TO.P,D7,1,VDD*%
%TO.N,VCC*%
X63000000Y-69450000D03*
%TO.P,D7,2,DOUT*%
%TO.N,Net-(D7-Pad2)*%
X66200000Y-69450000D03*
%TO.P,D7,3,VSS*%
%TO.N,GND*%
X66200000Y-64550000D03*
%TO.P,D7,4,DIN*%
%TO.N,Net-(D6-Pad2)*%
X63000000Y-64550000D03*
%TD*%
%TO.P,D9,1,VDD*%
%TO.N,VCC*%
X39700000Y-69450000D03*
%TO.P,D9,2,DOUT*%
%TO.N,Net-(D9-Pad2)*%
X42900000Y-69450000D03*
%TO.P,D9,3,VSS*%
%TO.N,GND*%
X42900000Y-64550000D03*
%TO.P,D9,4,DIN*%
%TO.N,Net-(D8-Pad2)*%
X39700000Y-64550000D03*
%TD*%
%TO.P,D8,1,VDD*%
%TO.N,VCC*%
X51400000Y-51350000D03*
%TO.P,D8,2,DOUT*%
%TO.N,Net-(D8-Pad2)*%
X54600000Y-51350000D03*
%TO.P,D8,3,VSS*%
%TO.N,GND*%
X54600000Y-46450000D03*
%TO.P,D8,4,DIN*%
%TO.N,Net-(D7-Pad2)*%
X51400000Y-46450000D03*
%TD*%
%TO.P,D6,1,VDD*%
%TO.N,VCC*%
X72600000Y-48250000D03*
%TO.P,D6,2,DOUT*%
%TO.N,Net-(D6-Pad2)*%
X75800000Y-48250000D03*
%TO.P,D6,3,VSS*%
%TO.N,GND*%
X75800000Y-43350000D03*
%TO.P,D6,4,DIN*%
%TO.N,Net-(D5-Pad2)*%
X72600000Y-43350000D03*
%TD*%
D11*
%TO.P,R2,1*%
%TO.N,Net-(D9-Pad2)*%
X55750000Y-66200000D03*
%TO.P,R2,2*%
%TO.N,/SIG_OUT*%
X57400000Y-66200000D03*
%TD*%
D10*
%TO.P,D2,1,VDD*%
%TO.N,VCC*%
X35100000Y-37350000D03*
%TO.P,D2,2,DOUT*%
%TO.N,Net-(D2-Pad2)*%
X38300000Y-37350000D03*
%TO.P,D2,3,VSS*%
%TO.N,GND*%
X38300000Y-32450000D03*
%TO.P,D2,4,DIN*%
%TO.N,Net-(D1-Pad2)*%
X35100000Y-32450000D03*
%TD*%
D12*
%TO.P,J2,1,Pin_1*%
%TO.N,GND*%
X59900000Y-69000000D03*
D13*
%TO.P,J2,2,Pin_2*%
%TO.N,/SIG_OUT*%
X57360000Y-69000000D03*
%TO.P,J2,3,Pin_3*%
%TO.N,VCC*%
X54820000Y-69000000D03*
%TD*%
D14*
%TO.P,C1,1*%
%TO.N,VCC*%
X45710000Y-65200000D03*
%TO.P,C1,2*%
%TO.N,GND*%
X47260000Y-65200000D03*
%TD*%
D15*
%TO.P,R1,1*%
%TO.N,/SIG_IN*%
X48985000Y-65925000D03*
%TO.P,R1,2*%
%TO.N,Net-(D1-Pad4)*%
X48985000Y-64275000D03*
%TD*%
D10*
%TO.P,D3,1,VDD*%
%TO.N,VCC*%
X45300000Y-30750000D03*
%TO.P,D3,2,DOUT*%
%TO.N,Net-(D3-Pad2)*%
X48500000Y-30750000D03*
%TO.P,D3,3,VSS*%
%TO.N,GND*%
X48500000Y-25850000D03*
%TO.P,D3,4,DIN*%
%TO.N,Net-(D2-Pad2)*%
X45300000Y-25850000D03*
%TD*%
D16*
%TO.P,C2,1*%
%TO.N,VCC*%
X46105000Y-66600000D03*
%TO.P,C2,2*%
%TO.N,GND*%
X47065000Y-66600000D03*
%TD*%
D10*
%TO.P,D4,1,VDD*%
%TO.N,VCC*%
X57500000Y-30750000D03*
%TO.P,D4,2,DOUT*%
%TO.N,Net-(D4-Pad2)*%
X60700000Y-30750000D03*
%TO.P,D4,3,VSS*%
%TO.N,GND*%
X60700000Y-25850000D03*
%TO.P,D4,4,DIN*%
%TO.N,Net-(D3-Pad2)*%
X57500000Y-25850000D03*
%TD*%
D12*
%TO.P,J1,1,Pin_1*%
%TO.N,GND*%
X51100000Y-69000000D03*
D13*
%TO.P,J1,2,Pin_2*%
%TO.N,/SIG_IN*%
X48560000Y-69000000D03*
%TO.P,J1,3,Pin_3*%
%TO.N,VCC*%
X46020000Y-69000000D03*
%TD*%
D10*
%TO.P,D5,1,VDD*%
%TO.N,VCC*%
X67600000Y-37250000D03*
%TO.P,D5,2,DOUT*%
%TO.N,Net-(D5-Pad2)*%
X70800000Y-37250000D03*
%TO.P,D5,3,VSS*%
%TO.N,GND*%
X70800000Y-32350000D03*
%TO.P,D5,4,DIN*%
%TO.N,Net-(D4-Pad2)*%
X67600000Y-32350000D03*
%TD*%
D17*
%TO.N,GND*%
X60700000Y-47100000D03*
X69500000Y-55300000D03*
X64000000Y-27900000D03*
X53900000Y-25700000D03*
X40200000Y-28500000D03*
X64000000Y-61400000D03*
X50500000Y-55000000D03*
X44300000Y-54600000D03*
X44400000Y-67400000D03*
X31200000Y-41800000D03*
X30500000Y-50900000D03*
X41400000Y-67700000D03*
X54500000Y-44700000D03*
X47260000Y-44760000D03*
%TO.N,VCC*%
X50100000Y-51300000D03*
X45710000Y-51290000D03*
%TO.N,/SIG_OUT*%
X58700000Y-66100000D03*
%TO.N,Net-(D9-Pad2)*%
X41400000Y-65300000D03*
X55800000Y-65000000D03*
%TO.N,Net-(D8-Pad2)*%
X54600000Y-53200000D03*
X39700000Y-53300000D03*
%TO.N,Net-(D7-Pad2)*%
X64300000Y-58100000D03*
X67300000Y-62500000D03*
%TO.N,VCC*%
X66200000Y-38700000D03*
X32200978Y-39100000D03*
%TO.N,Net-(D1-Pad4)*%
X49000000Y-48300000D03*
X30400000Y-46900000D03*
%TO.N,/SIG_IN*%
X50625270Y-65999500D03*
%TO.N,GND*%
X43200000Y-66100000D03*
X48123553Y-66668397D03*
%TO.N,VCC*%
X57400000Y-38700000D03*
X70800000Y-38900000D03*
X45700000Y-38700000D03*
%TO.N,GND*%
X37500000Y-39900000D03*
X59600000Y-40100000D03*
X69800000Y-40100000D03*
X47300000Y-40100000D03*
X75800000Y-40200000D03*
%TD*%
D18*
%TO.N,GND*%
X54600000Y-46450000D02*
X54600000Y-44800000D01*
X54600000Y-44800000D02*
X54500000Y-44700000D01*
%TO.N,VCC*%
X51400000Y-51350000D02*
X50150000Y-51350000D01*
X50150000Y-51350000D02*
X50100000Y-51300000D01*
X53399511Y-70299511D02*
X62150489Y-70299511D01*
X47319511Y-70299511D02*
X53399511Y-70299511D01*
X53399511Y-70299511D02*
X53520489Y-70299511D01*
X53520489Y-70299511D02*
X54820000Y-69000000D01*
D19*
%TO.N,/SIG_OUT*%
X57400000Y-66200000D02*
X58600000Y-66200000D01*
X58600000Y-66200000D02*
X58700000Y-66100000D01*
%TO.N,/SIG_IN*%
X50550770Y-65925000D02*
X50625270Y-65999500D01*
%TO.N,Net-(D9-Pad2)*%
X55800000Y-66150000D02*
X55750000Y-66200000D01*
%TO.N,/SIG_IN*%
X48985000Y-65925000D02*
X50550770Y-65925000D01*
%TO.N,Net-(D9-Pad2)*%
X42900000Y-66800000D02*
X41400000Y-65300000D01*
X42900000Y-69450000D02*
X42900000Y-66800000D01*
X55800000Y-65000000D02*
X55800000Y-66150000D01*
%TO.N,Net-(D8-Pad2)*%
X54600000Y-51350000D02*
X54600000Y-53200000D01*
X39700000Y-53300000D02*
X39700000Y-64550000D01*
%TO.N,Net-(D7-Pad2)*%
X64300000Y-58100000D02*
X52650000Y-46450000D01*
X52650000Y-46450000D02*
X51400000Y-46450000D01*
X66200000Y-69450000D02*
X67300000Y-68350000D01*
X67300000Y-68350000D02*
X67300000Y-62500000D01*
%TO.N,Net-(D6-Pad2)*%
X75800000Y-48250000D02*
X75800000Y-51750000D01*
X75800000Y-51750000D02*
X63000000Y-64550000D01*
%TO.N,Net-(D5-Pad2)*%
X70800000Y-37250000D02*
X72600000Y-39050000D01*
X72600000Y-39050000D02*
X72600000Y-43350000D01*
D18*
%TO.N,VCC*%
X67600000Y-37250000D02*
X67600000Y-37300000D01*
X67600000Y-37300000D02*
X66200000Y-38700000D01*
D19*
%TO.N,Net-(D4-Pad2)*%
X60700000Y-30750000D02*
X66000000Y-30750000D01*
X66000000Y-30750000D02*
X67600000Y-32350000D01*
%TO.N,Net-(D3-Pad2)*%
X48500000Y-30750000D02*
X52600000Y-30750000D01*
X52600000Y-30750000D02*
X57500000Y-25850000D01*
%TO.N,Net-(D2-Pad2)*%
X38300000Y-37350000D02*
X39099511Y-36550489D01*
X39099511Y-36550489D02*
X39099511Y-32050489D01*
X39099511Y-32050489D02*
X45300000Y-25850000D01*
%TO.N,Net-(D1-Pad2)*%
X33200000Y-48350000D02*
X32400489Y-47550489D01*
X32400489Y-47550489D02*
X32400489Y-41200489D01*
X32400489Y-41200489D02*
X34900978Y-38700000D01*
X34900978Y-38700000D02*
X35599022Y-38700000D01*
X35599022Y-38700000D02*
X35899511Y-38399511D01*
X35899511Y-38399511D02*
X35899511Y-33249511D01*
X35899511Y-33249511D02*
X35100000Y-32450000D01*
D18*
%TO.N,VCC*%
X32200978Y-39100000D02*
X33350000Y-39100000D01*
X33350000Y-39100000D02*
X35100000Y-37350000D01*
D19*
%TO.N,Net-(D1-Pad4)*%
X48985000Y-64275000D02*
X48985000Y-48315000D01*
X48985000Y-48315000D02*
X49000000Y-48300000D01*
X30000000Y-46500000D02*
X30000000Y-43450000D01*
X30400000Y-46900000D02*
X30000000Y-46500000D01*
D18*
%TO.N,GND*%
X42900000Y-64550000D02*
X42900000Y-65800000D01*
X42900000Y-65800000D02*
X43200000Y-66100000D01*
X59900000Y-69000000D02*
X61250000Y-69000000D01*
X65700000Y-64550000D02*
X66200000Y-64550000D01*
X61250000Y-69000000D02*
X65700000Y-64550000D01*
%TO.N,VCC*%
X46020000Y-69000000D02*
X47319511Y-70299511D01*
X62150489Y-70299511D02*
X63000000Y-69450000D01*
%TO.N,GND*%
X51100000Y-69000000D02*
X52399511Y-67700489D01*
X52399511Y-67700489D02*
X58600489Y-67700489D01*
X58600489Y-67700489D02*
X59900000Y-69000000D01*
%TO.N,VCC*%
X57500000Y-30750000D02*
X57500000Y-38600000D01*
X57500000Y-38600000D02*
X57400000Y-38700000D01*
X70800000Y-38900000D02*
X70800000Y-46450000D01*
X70800000Y-46450000D02*
X72600000Y-48250000D01*
X45300000Y-30750000D02*
X45300000Y-38300000D01*
X45300000Y-38300000D02*
X45700000Y-38700000D01*
X32200978Y-39100000D02*
X29000000Y-42300978D01*
X29000000Y-42300978D02*
X29000000Y-47350000D01*
X29000000Y-47350000D02*
X30000000Y-48350000D01*
X45710000Y-65200000D02*
X45710000Y-38710000D01*
X45710000Y-38710000D02*
X45700000Y-38700000D01*
%TO.N,GND*%
X37500000Y-39900000D02*
X36750000Y-39900000D01*
X36750000Y-39900000D02*
X33200000Y-43450000D01*
X38300000Y-32450000D02*
X37350489Y-33399511D01*
X37350489Y-33399511D02*
X37350489Y-39750489D01*
X37350489Y-39750489D02*
X37500000Y-39900000D01*
X48500000Y-25850000D02*
X47550489Y-26799511D01*
X47550489Y-26799511D02*
X47550489Y-39849511D01*
X47550489Y-39849511D02*
X47300000Y-40100000D01*
X60700000Y-25850000D02*
X59600000Y-26950000D01*
X59600000Y-26950000D02*
X59600000Y-40100000D01*
X69850489Y-33299511D02*
X69850489Y-40050489D01*
X69850489Y-40050489D02*
X69800978Y-40100000D01*
X70800000Y-32350000D02*
X69850489Y-33299511D01*
X69800978Y-40100000D02*
X69800000Y-40100000D01*
X47260000Y-65200000D02*
X47260000Y-40140000D01*
X47260000Y-40140000D02*
X47300000Y-40100000D01*
X75800000Y-40200000D02*
X75800000Y-43350000D01*
%TO.N,VCC*%
X46020000Y-69000000D02*
X44370489Y-70649511D01*
X44370489Y-70649511D02*
X40149511Y-70649511D01*
X40149511Y-70649511D02*
X39700000Y-70200000D01*
X39700000Y-70200000D02*
X39700000Y-69450000D01*
%TO.N,GND*%
X47260000Y-65200000D02*
X47260000Y-66405000D01*
X47260000Y-66405000D02*
X47065000Y-66600000D01*
X51100000Y-69000000D02*
X50666441Y-69000000D01*
X50666441Y-69000000D02*
X47260000Y-65593559D01*
X47260000Y-65593559D02*
X47260000Y-65200000D01*
%TO.N,VCC*%
X46020000Y-69000000D02*
X46020000Y-65510000D01*
X46020000Y-65510000D02*
X45710000Y-65200000D01*
%TD*%
%TA.AperFunction,Conductor*%
%TO.N,GND*%
G36*
X44289989Y-24728502D02*
G01*
X44336482Y-24782158D01*
X44346586Y-24852432D01*
X44339850Y-24878729D01*
X44298255Y-24989684D01*
X44291500Y-25051866D01*
X44291500Y-25945761D01*
X44271498Y-26013882D01*
X44254595Y-26034856D01*
X39098851Y-31190600D01*
X39036539Y-31224626D01*
X38965526Y-31219487D01*
X38917598Y-31201519D01*
X38902357Y-31197895D01*
X38851486Y-31192369D01*
X38844672Y-31192000D01*
X38572115Y-31192000D01*
X38556876Y-31196475D01*
X38555671Y-31197865D01*
X38554000Y-31205548D01*
X38554000Y-31752318D01*
X38544409Y-31800535D01*
X38506673Y-31891638D01*
X38506673Y-31891639D01*
X38504925Y-31904915D01*
X38492177Y-32001745D01*
X38491011Y-32010604D01*
X38491011Y-32010609D01*
X38485761Y-32050489D01*
X38486839Y-32058677D01*
X38489933Y-32082179D01*
X38491011Y-32098625D01*
X38491011Y-35965500D01*
X38471009Y-36033621D01*
X38417353Y-36080114D01*
X38365011Y-36091500D01*
X37751866Y-36091500D01*
X37689684Y-36098255D01*
X37553295Y-36149385D01*
X37436739Y-36236739D01*
X37349385Y-36353295D01*
X37298255Y-36489684D01*
X37291500Y-36551866D01*
X37291500Y-38148134D01*
X37298255Y-38210316D01*
X37349385Y-38346705D01*
X37436739Y-38463261D01*
X37553295Y-38550615D01*
X37689684Y-38601745D01*
X37751866Y-38608500D01*
X38848134Y-38608500D01*
X38910316Y-38601745D01*
X39046705Y-38550615D01*
X39163261Y-38463261D01*
X39250615Y-38346705D01*
X39301745Y-38210316D01*
X39308500Y-38148134D01*
X39308500Y-37254239D01*
X39328502Y-37186118D01*
X39345405Y-37165144D01*
X39495745Y-37014804D01*
X39508136Y-37003937D01*
X39526948Y-36989502D01*
X39533498Y-36984476D01*
X39557985Y-36952564D01*
X39557991Y-36952558D01*
X39611233Y-36883171D01*
X39626006Y-36863919D01*
X39626008Y-36863915D01*
X39631035Y-36857364D01*
X39692349Y-36709339D01*
X39708011Y-36590374D01*
X39708011Y-36590367D01*
X39713261Y-36550489D01*
X39709089Y-36518796D01*
X39708011Y-36502353D01*
X39708011Y-32354728D01*
X39728013Y-32286607D01*
X39744916Y-32265633D01*
X44865144Y-27145405D01*
X44927456Y-27111379D01*
X44954239Y-27108500D01*
X45848134Y-27108500D01*
X45910316Y-27101745D01*
X46046705Y-27050615D01*
X46163261Y-26963261D01*
X46250615Y-26846705D01*
X46301745Y-26710316D01*
X46308500Y-26648134D01*
X46308500Y-26644669D01*
X47492001Y-26644669D01*
X47492371Y-26651490D01*
X47497895Y-26702352D01*
X47501521Y-26717604D01*
X47546676Y-26838054D01*
X47555214Y-26853649D01*
X47631715Y-26955724D01*
X47644276Y-26968285D01*
X47746351Y-27044786D01*
X47761946Y-27053324D01*
X47882394Y-27098478D01*
X47897649Y-27102105D01*
X47948514Y-27107631D01*
X47955328Y-27108000D01*
X48227885Y-27108000D01*
X48243124Y-27103525D01*
X48244329Y-27102135D01*
X48246000Y-27094452D01*
X48246000Y-27089884D01*
X48754000Y-27089884D01*
X48758475Y-27105123D01*
X48759865Y-27106328D01*
X48767548Y-27107999D01*
X49044669Y-27107999D01*
X49051490Y-27107629D01*
X49102352Y-27102105D01*
X49117604Y-27098479D01*
X49238054Y-27053324D01*
X49253649Y-27044786D01*
X49355724Y-26968285D01*
X49368285Y-26955724D01*
X49444786Y-26853649D01*
X49453324Y-26838054D01*
X49498478Y-26717606D01*
X49502105Y-26702351D01*
X49507631Y-26651486D01*
X49508000Y-26644672D01*
X49508000Y-26122115D01*
X49503525Y-26106876D01*
X49502135Y-26105671D01*
X49494452Y-26104000D01*
X48772115Y-26104000D01*
X48756876Y-26108475D01*
X48755671Y-26109865D01*
X48754000Y-26117548D01*
X48754000Y-27089884D01*
X48246000Y-27089884D01*
X48246000Y-26122115D01*
X48241525Y-26106876D01*
X48240135Y-26105671D01*
X48232452Y-26104000D01*
X47510116Y-26104000D01*
X47494877Y-26108475D01*
X47493672Y-26109865D01*
X47492001Y-26117548D01*
X47492001Y-26644669D01*
X46308500Y-26644669D01*
X46308500Y-25051866D01*
X46301745Y-24989684D01*
X46260150Y-24878729D01*
X46254967Y-24807923D01*
X46288888Y-24745554D01*
X46351143Y-24711424D01*
X46378132Y-24708500D01*
X47422402Y-24708500D01*
X47490523Y-24728502D01*
X47537016Y-24782158D01*
X47547120Y-24852432D01*
X47540384Y-24878730D01*
X47501522Y-24982394D01*
X47497895Y-24997649D01*
X47492369Y-25048514D01*
X47492000Y-25055328D01*
X47492000Y-25577885D01*
X47496475Y-25593124D01*
X47497865Y-25594329D01*
X47505548Y-25596000D01*
X49489884Y-25596000D01*
X49505123Y-25591525D01*
X49506328Y-25590135D01*
X49507999Y-25582452D01*
X49507999Y-25055331D01*
X49507629Y-25048510D01*
X49502105Y-24997648D01*
X49498479Y-24982397D01*
X49459616Y-24878730D01*
X49454433Y-24807923D01*
X49488354Y-24745554D01*
X49550609Y-24711424D01*
X49577598Y-24708500D01*
X56421868Y-24708500D01*
X56489989Y-24728502D01*
X56536482Y-24782158D01*
X56546586Y-24852432D01*
X56539850Y-24878729D01*
X56498255Y-24989684D01*
X56491500Y-25051866D01*
X56491500Y-25945761D01*
X56471498Y-26013882D01*
X56454595Y-26034856D01*
X52384856Y-30104595D01*
X52322544Y-30138621D01*
X52295761Y-30141500D01*
X49634500Y-30141500D01*
X49566379Y-30121498D01*
X49519886Y-30067842D01*
X49508500Y-30015500D01*
X49508500Y-29951866D01*
X49501745Y-29889684D01*
X49450615Y-29753295D01*
X49363261Y-29636739D01*
X49246705Y-29549385D01*
X49110316Y-29498255D01*
X49048134Y-29491500D01*
X47951866Y-29491500D01*
X47889684Y-29498255D01*
X47753295Y-29549385D01*
X47636739Y-29636739D01*
X47549385Y-29753295D01*
X47498255Y-29889684D01*
X47491500Y-29951866D01*
X47491500Y-31548134D01*
X47498255Y-31610316D01*
X47549385Y-31746705D01*
X47636739Y-31863261D01*
X47753295Y-31950615D01*
X47889684Y-32001745D01*
X47951866Y-32008500D01*
X49048134Y-32008500D01*
X49110316Y-32001745D01*
X49246705Y-31950615D01*
X49363261Y-31863261D01*
X49450615Y-31746705D01*
X49501745Y-31610316D01*
X49508500Y-31548134D01*
X49508500Y-31484500D01*
X49528502Y-31416379D01*
X49582158Y-31369886D01*
X49634500Y-31358500D01*
X52551864Y-31358500D01*
X52568307Y-31359578D01*
X52600000Y-31363750D01*
X52608189Y-31362672D01*
X52639874Y-31358501D01*
X52639884Y-31358500D01*
X52639885Y-31358500D01*
X52739457Y-31345391D01*
X52750664Y-31343916D01*
X52750666Y-31343915D01*
X52758851Y-31342838D01*
X52906876Y-31281524D01*
X52952291Y-31246676D01*
X53002072Y-31208477D01*
X53002075Y-31208474D01*
X53027437Y-31189013D01*
X53033987Y-31183987D01*
X53053458Y-31158613D01*
X53064316Y-31146233D01*
X57065144Y-27145405D01*
X57127456Y-27111379D01*
X57154239Y-27108500D01*
X58048134Y-27108500D01*
X58110316Y-27101745D01*
X58246705Y-27050615D01*
X58363261Y-26963261D01*
X58450615Y-26846705D01*
X58501745Y-26710316D01*
X58508500Y-26648134D01*
X58508500Y-26644669D01*
X59692001Y-26644669D01*
X59692371Y-26651490D01*
X59697895Y-26702352D01*
X59701521Y-26717604D01*
X59746676Y-26838054D01*
X59755214Y-26853649D01*
X59831715Y-26955724D01*
X59844276Y-26968285D01*
X59946351Y-27044786D01*
X59961946Y-27053324D01*
X60082394Y-27098478D01*
X60097649Y-27102105D01*
X60148514Y-27107631D01*
X60155328Y-27108000D01*
X60427885Y-27108000D01*
X60443124Y-27103525D01*
X60444329Y-27102135D01*
X60446000Y-27094452D01*
X60446000Y-27089884D01*
X60954000Y-27089884D01*
X60958475Y-27105123D01*
X60959865Y-27106328D01*
X60967548Y-27107999D01*
X61244669Y-27107999D01*
X61251490Y-27107629D01*
X61302352Y-27102105D01*
X61317604Y-27098479D01*
X61438054Y-27053324D01*
X61453649Y-27044786D01*
X61555724Y-26968285D01*
X61568285Y-26955724D01*
X61644786Y-26853649D01*
X61653324Y-26838054D01*
X61698478Y-26717606D01*
X61702105Y-26702351D01*
X61707631Y-26651486D01*
X61708000Y-26644672D01*
X61708000Y-26122115D01*
X61703525Y-26106876D01*
X61702135Y-26105671D01*
X61694452Y-26104000D01*
X60972115Y-26104000D01*
X60956876Y-26108475D01*
X60955671Y-26109865D01*
X60954000Y-26117548D01*
X60954000Y-27089884D01*
X60446000Y-27089884D01*
X60446000Y-26122115D01*
X60441525Y-26106876D01*
X60440135Y-26105671D01*
X60432452Y-26104000D01*
X59710116Y-26104000D01*
X59694877Y-26108475D01*
X59693672Y-26109865D01*
X59692001Y-26117548D01*
X59692001Y-26644669D01*
X58508500Y-26644669D01*
X58508500Y-25051866D01*
X58501745Y-24989684D01*
X58460150Y-24878729D01*
X58454967Y-24807923D01*
X58488888Y-24745554D01*
X58551143Y-24711424D01*
X58578132Y-24708500D01*
X59622402Y-24708500D01*
X59690523Y-24728502D01*
X59737016Y-24782158D01*
X59747120Y-24852432D01*
X59740384Y-24878730D01*
X59701522Y-24982394D01*
X59697895Y-24997649D01*
X59692369Y-25048514D01*
X59692000Y-25055328D01*
X59692000Y-25577885D01*
X59696475Y-25593124D01*
X59697865Y-25594329D01*
X59705548Y-25596000D01*
X61689884Y-25596000D01*
X61705123Y-25591525D01*
X61706328Y-25590135D01*
X61707999Y-25582452D01*
X61707999Y-25055331D01*
X61707629Y-25048510D01*
X61702105Y-24997648D01*
X61698479Y-24982397D01*
X61664714Y-24892329D01*
X61659531Y-24821522D01*
X61693452Y-24759153D01*
X61755707Y-24725023D01*
X61826531Y-24729970D01*
X61851401Y-24742479D01*
X71256532Y-30860380D01*
X71302728Y-30914291D01*
X71312444Y-30984620D01*
X71282595Y-31049037D01*
X71222658Y-31087090D01*
X71187827Y-31092000D01*
X71072115Y-31092000D01*
X71056876Y-31096475D01*
X71055671Y-31097865D01*
X71054000Y-31105548D01*
X71054000Y-32077885D01*
X71058475Y-32093124D01*
X71059865Y-32094329D01*
X71067548Y-32096000D01*
X71789884Y-32096000D01*
X71805123Y-32091525D01*
X71806328Y-32090135D01*
X71807999Y-32082452D01*
X71807999Y-31701109D01*
X71828001Y-31632988D01*
X71881657Y-31586495D01*
X71951931Y-31576391D01*
X72016511Y-31605885D01*
X72047314Y-31646011D01*
X77028815Y-41890985D01*
X77041500Y-41946083D01*
X77041500Y-42435603D01*
X77021498Y-42503724D01*
X76967842Y-42550217D01*
X76897568Y-42560321D01*
X76832988Y-42530827D01*
X76797518Y-42479833D01*
X76753324Y-42361946D01*
X76744786Y-42346351D01*
X76668285Y-42244276D01*
X76655724Y-42231715D01*
X76553649Y-42155214D01*
X76538054Y-42146676D01*
X76417606Y-42101522D01*
X76402351Y-42097895D01*
X76351486Y-42092369D01*
X76344672Y-42092000D01*
X76072115Y-42092000D01*
X76056876Y-42096475D01*
X76055671Y-42097865D01*
X76054000Y-42105548D01*
X76054000Y-44589884D01*
X76058475Y-44605123D01*
X76059865Y-44606328D01*
X76067548Y-44607999D01*
X76344669Y-44607999D01*
X76351490Y-44607629D01*
X76402352Y-44602105D01*
X76417604Y-44598479D01*
X76538054Y-44553324D01*
X76553649Y-44544786D01*
X76655724Y-44468285D01*
X76668285Y-44455724D01*
X76744786Y-44353649D01*
X76753324Y-44338054D01*
X76797518Y-44220167D01*
X76840160Y-44163403D01*
X76906721Y-44138703D01*
X76976070Y-44153910D01*
X77026188Y-44204196D01*
X77041500Y-44264397D01*
X77041500Y-47334179D01*
X77021498Y-47402300D01*
X76967842Y-47448793D01*
X76897568Y-47458897D01*
X76832988Y-47429403D01*
X76797518Y-47378408D01*
X76753768Y-47261705D01*
X76753767Y-47261703D01*
X76750615Y-47253295D01*
X76663261Y-47136739D01*
X76546705Y-47049385D01*
X76410316Y-46998255D01*
X76348134Y-46991500D01*
X75251866Y-46991500D01*
X75189684Y-46998255D01*
X75053295Y-47049385D01*
X74936739Y-47136739D01*
X74849385Y-47253295D01*
X74798255Y-47389684D01*
X74791500Y-47451866D01*
X74791500Y-49048134D01*
X74798255Y-49110316D01*
X74849385Y-49246705D01*
X74936739Y-49363261D01*
X75053295Y-49450615D01*
X75061703Y-49453767D01*
X75109730Y-49471772D01*
X75166495Y-49514414D01*
X75191194Y-49580976D01*
X75191500Y-49589754D01*
X75191500Y-51445761D01*
X75171498Y-51513882D01*
X75154595Y-51534856D01*
X63434856Y-63254595D01*
X63372544Y-63288621D01*
X63345761Y-63291500D01*
X62451866Y-63291500D01*
X62389684Y-63298255D01*
X62253295Y-63349385D01*
X62136739Y-63436739D01*
X62049385Y-63553295D01*
X61998255Y-63689684D01*
X61991500Y-63751866D01*
X61991500Y-65348134D01*
X61998255Y-65410316D01*
X62049385Y-65546705D01*
X62136739Y-65663261D01*
X62253295Y-65750615D01*
X62389684Y-65801745D01*
X62451866Y-65808500D01*
X63548134Y-65808500D01*
X63610316Y-65801745D01*
X63746705Y-65750615D01*
X63863261Y-65663261D01*
X63950615Y-65546705D01*
X64001745Y-65410316D01*
X64008500Y-65348134D01*
X64008500Y-65344669D01*
X65192001Y-65344669D01*
X65192371Y-65351490D01*
X65197895Y-65402352D01*
X65201521Y-65417604D01*
X65246676Y-65538054D01*
X65255214Y-65553649D01*
X65331715Y-65655724D01*
X65344276Y-65668285D01*
X65446351Y-65744786D01*
X65461946Y-65753324D01*
X65582394Y-65798478D01*
X65597649Y-65802105D01*
X65648514Y-65807631D01*
X65655328Y-65808000D01*
X65927885Y-65808000D01*
X65943124Y-65803525D01*
X65944329Y-65802135D01*
X65946000Y-65794452D01*
X65946000Y-64822115D01*
X65941525Y-64806876D01*
X65940135Y-64805671D01*
X65932452Y-64804000D01*
X65210116Y-64804000D01*
X65194877Y-64808475D01*
X65193672Y-64809865D01*
X65192001Y-64817548D01*
X65192001Y-65344669D01*
X64008500Y-65344669D01*
X64008500Y-64454239D01*
X64028502Y-64386118D01*
X64045405Y-64365144D01*
X64132664Y-64277885D01*
X65192000Y-64277885D01*
X65196475Y-64293124D01*
X65197865Y-64294329D01*
X65205548Y-64296000D01*
X65927885Y-64296000D01*
X65943124Y-64291525D01*
X65944329Y-64290135D01*
X65946000Y-64282452D01*
X65946000Y-63310116D01*
X65941525Y-63294877D01*
X65940135Y-63293672D01*
X65932452Y-63292001D01*
X65655331Y-63292001D01*
X65648510Y-63292371D01*
X65597648Y-63297895D01*
X65582396Y-63301521D01*
X65461946Y-63346676D01*
X65446351Y-63355214D01*
X65344276Y-63431715D01*
X65331715Y-63444276D01*
X65255214Y-63546351D01*
X65246676Y-63561946D01*
X65201522Y-63682394D01*
X65197895Y-63697649D01*
X65192369Y-63748514D01*
X65192000Y-63755328D01*
X65192000Y-64277885D01*
X64132664Y-64277885D01*
X66190798Y-62219751D01*
X66253110Y-62185725D01*
X66323925Y-62190790D01*
X66380761Y-62233337D01*
X66405572Y-62299857D01*
X66405203Y-62322012D01*
X66386496Y-62500000D01*
X66406458Y-62689928D01*
X66465473Y-62871556D01*
X66560960Y-63036944D01*
X66601251Y-63081691D01*
X66631967Y-63145698D01*
X66623202Y-63216151D01*
X66577739Y-63270682D01*
X66507613Y-63292000D01*
X66472115Y-63292000D01*
X66456876Y-63296475D01*
X66455671Y-63297865D01*
X66454000Y-63305548D01*
X66454000Y-65789884D01*
X66458475Y-65805123D01*
X66459865Y-65806328D01*
X66467548Y-65807999D01*
X66565500Y-65807999D01*
X66633621Y-65828001D01*
X66680114Y-65881657D01*
X66691500Y-65933999D01*
X66691500Y-68045762D01*
X66671498Y-68113883D01*
X66654595Y-68134857D01*
X66634857Y-68154595D01*
X66572545Y-68188621D01*
X66545762Y-68191500D01*
X65651866Y-68191500D01*
X65589684Y-68198255D01*
X65453295Y-68249385D01*
X65336739Y-68336739D01*
X65249385Y-68453295D01*
X65198255Y-68589684D01*
X65191500Y-68651866D01*
X65191500Y-70248134D01*
X65198255Y-70310316D01*
X65201029Y-70317715D01*
X65201029Y-70317716D01*
X65202363Y-70321275D01*
X65202580Y-70324238D01*
X65202856Y-70325400D01*
X65202668Y-70325445D01*
X65207543Y-70392082D01*
X65173620Y-70454450D01*
X65111363Y-70488577D01*
X65084379Y-70491500D01*
X64115621Y-70491500D01*
X64047500Y-70471498D01*
X64001007Y-70417842D01*
X63990903Y-70347568D01*
X63997637Y-70321275D01*
X63998971Y-70317716D01*
X63998971Y-70317715D01*
X64001745Y-70310316D01*
X64008500Y-70248134D01*
X64008500Y-68651866D01*
X64001745Y-68589684D01*
X63950615Y-68453295D01*
X63863261Y-68336739D01*
X63746705Y-68249385D01*
X63610316Y-68198255D01*
X63548134Y-68191500D01*
X62451866Y-68191500D01*
X62389684Y-68198255D01*
X62253295Y-68249385D01*
X62136739Y-68336739D01*
X62049385Y-68453295D01*
X61998255Y-68589684D01*
X61991500Y-68651866D01*
X61991500Y-69333629D01*
X61971498Y-69401750D01*
X61954595Y-69422724D01*
X61873213Y-69504106D01*
X61810901Y-69538132D01*
X61784118Y-69541011D01*
X61384000Y-69541011D01*
X61315879Y-69521009D01*
X61269386Y-69467353D01*
X61258000Y-69415011D01*
X61258000Y-69272115D01*
X61253525Y-69256876D01*
X61252135Y-69255671D01*
X61244452Y-69254000D01*
X59772000Y-69254000D01*
X59703879Y-69233998D01*
X59657386Y-69180342D01*
X59646000Y-69128000D01*
X59646000Y-68727885D01*
X60154000Y-68727885D01*
X60158475Y-68743124D01*
X60159865Y-68744329D01*
X60167548Y-68746000D01*
X61239884Y-68746000D01*
X61255123Y-68741525D01*
X61256328Y-68740135D01*
X61257999Y-68732452D01*
X61257999Y-68105331D01*
X61257629Y-68098510D01*
X61252105Y-68047648D01*
X61248479Y-68032396D01*
X61203324Y-67911946D01*
X61194786Y-67896351D01*
X61118285Y-67794276D01*
X61105724Y-67781715D01*
X61003649Y-67705214D01*
X60988054Y-67696676D01*
X60867606Y-67651522D01*
X60852351Y-67647895D01*
X60801486Y-67642369D01*
X60794672Y-67642000D01*
X60172115Y-67642000D01*
X60156876Y-67646475D01*
X60155671Y-67647865D01*
X60154000Y-67655548D01*
X60154000Y-68727885D01*
X59646000Y-68727885D01*
X59646000Y-67660116D01*
X59641525Y-67644877D01*
X59640135Y-67643672D01*
X59632452Y-67642001D01*
X59005331Y-67642001D01*
X58998510Y-67642371D01*
X58947648Y-67647895D01*
X58932396Y-67651521D01*
X58811946Y-67696676D01*
X58796351Y-67705214D01*
X58694276Y-67781715D01*
X58681715Y-67794276D01*
X58605214Y-67896351D01*
X58596676Y-67911946D01*
X58555297Y-68022322D01*
X58512655Y-68079087D01*
X58446093Y-68103786D01*
X58376744Y-68088578D01*
X58344121Y-68062891D01*
X58293151Y-68006876D01*
X58293145Y-68006870D01*
X58289670Y-68003051D01*
X58285619Y-67999852D01*
X58285615Y-67999848D01*
X58118414Y-67867800D01*
X58118410Y-67867798D01*
X58114359Y-67864598D01*
X57918789Y-67756638D01*
X57913920Y-67754914D01*
X57913916Y-67754912D01*
X57713087Y-67683795D01*
X57713083Y-67683794D01*
X57708212Y-67682069D01*
X57703119Y-67681162D01*
X57703116Y-67681161D01*
X57493373Y-67643800D01*
X57493367Y-67643799D01*
X57488284Y-67642894D01*
X57414452Y-67641992D01*
X57270081Y-67640228D01*
X57270079Y-67640228D01*
X57264911Y-67640165D01*
X57044091Y-67673955D01*
X56831756Y-67743357D01*
X56633607Y-67846507D01*
X56629474Y-67849610D01*
X56629471Y-67849612D01*
X56554765Y-67905703D01*
X56454965Y-67980635D01*
X56300629Y-68142138D01*
X56193201Y-68299621D01*
X56138293Y-68344621D01*
X56067768Y-68352792D01*
X56004021Y-68321538D01*
X55983324Y-68297054D01*
X55902822Y-68172617D01*
X55902820Y-68172614D01*
X55900014Y-68168277D01*
X55749670Y-68003051D01*
X55745619Y-67999852D01*
X55745615Y-67999848D01*
X55578414Y-67867800D01*
X55578410Y-67867798D01*
X55574359Y-67864598D01*
X55378789Y-67756638D01*
X55373920Y-67754914D01*
X55373916Y-67754912D01*
X55173087Y-67683795D01*
X55173083Y-67683794D01*
X55168212Y-67682069D01*
X55163119Y-67681162D01*
X55163116Y-67681161D01*
X54953373Y-67643800D01*
X54953367Y-67643799D01*
X54948284Y-67642894D01*
X54874452Y-67641992D01*
X54730081Y-67640228D01*
X54730079Y-67640228D01*
X54724911Y-67640165D01*
X54504091Y-67673955D01*
X54291756Y-67743357D01*
X54093607Y-67846507D01*
X54089474Y-67849610D01*
X54089471Y-67849612D01*
X54014765Y-67905703D01*
X53914965Y-67980635D01*
X53760629Y-68142138D01*
X53757720Y-68146403D01*
X53757714Y-68146411D01*
X53720456Y-68201029D01*
X53634743Y-68326680D01*
X53620117Y-68358189D01*
X53575971Y-68453295D01*
X53540688Y-68529305D01*
X53480989Y-68744570D01*
X53457251Y-68966695D01*
X53470110Y-69189715D01*
X53471247Y-69194760D01*
X53471966Y-69199877D01*
X53470518Y-69200081D01*
X53466398Y-69264274D01*
X53437119Y-69310200D01*
X53243213Y-69504106D01*
X53180901Y-69538132D01*
X53154118Y-69541011D01*
X52584000Y-69541011D01*
X52515879Y-69521009D01*
X52469386Y-69467353D01*
X52458000Y-69415011D01*
X52458000Y-69272115D01*
X52453525Y-69256876D01*
X52452135Y-69255671D01*
X52444452Y-69254000D01*
X50972000Y-69254000D01*
X50903879Y-69233998D01*
X50857386Y-69180342D01*
X50846000Y-69128000D01*
X50846000Y-68727885D01*
X51354000Y-68727885D01*
X51358475Y-68743124D01*
X51359865Y-68744329D01*
X51367548Y-68746000D01*
X52439884Y-68746000D01*
X52455123Y-68741525D01*
X52456328Y-68740135D01*
X52457999Y-68732452D01*
X52457999Y-68105331D01*
X52457629Y-68098510D01*
X52452105Y-68047648D01*
X52448479Y-68032396D01*
X52403324Y-67911946D01*
X52394786Y-67896351D01*
X52318285Y-67794276D01*
X52305724Y-67781715D01*
X52203649Y-67705214D01*
X52188054Y-67696676D01*
X52067606Y-67651522D01*
X52052351Y-67647895D01*
X52001486Y-67642369D01*
X51994672Y-67642000D01*
X51372115Y-67642000D01*
X51356876Y-67646475D01*
X51355671Y-67647865D01*
X51354000Y-67655548D01*
X51354000Y-68727885D01*
X50846000Y-68727885D01*
X50846000Y-67660116D01*
X50841525Y-67644877D01*
X50840135Y-67643672D01*
X50832452Y-67642001D01*
X50205331Y-67642001D01*
X50198510Y-67642371D01*
X50147648Y-67647895D01*
X50132396Y-67651521D01*
X50011946Y-67696676D01*
X49996351Y-67705214D01*
X49894276Y-67781715D01*
X49881715Y-67794276D01*
X49805214Y-67896351D01*
X49796676Y-67911946D01*
X49755297Y-68022322D01*
X49712655Y-68079087D01*
X49646093Y-68103786D01*
X49576744Y-68088578D01*
X49544121Y-68062891D01*
X49493151Y-68006876D01*
X49493145Y-68006870D01*
X49489670Y-68003051D01*
X49485619Y-67999852D01*
X49485615Y-67999848D01*
X49318414Y-67867800D01*
X49318410Y-67867798D01*
X49314359Y-67864598D01*
X49118789Y-67756638D01*
X49113920Y-67754914D01*
X49113916Y-67754912D01*
X48913087Y-67683795D01*
X48913083Y-67683794D01*
X48908212Y-67682069D01*
X48903119Y-67681162D01*
X48903116Y-67681161D01*
X48693373Y-67643800D01*
X48693367Y-67643799D01*
X48688284Y-67642894D01*
X48614452Y-67641992D01*
X48470081Y-67640228D01*
X48470079Y-67640228D01*
X48464911Y-67640165D01*
X48244091Y-67673955D01*
X48031756Y-67743357D01*
X47833607Y-67846507D01*
X47829474Y-67849610D01*
X47829471Y-67849612D01*
X47754765Y-67905703D01*
X47654965Y-67980635D01*
X47500629Y-68142138D01*
X47393201Y-68299621D01*
X47338293Y-68344621D01*
X47267768Y-68352792D01*
X47204021Y-68321538D01*
X47183324Y-68297054D01*
X47102822Y-68172617D01*
X47102820Y-68172614D01*
X47100014Y-68168277D01*
X46949670Y-68003051D01*
X46945615Y-67999848D01*
X46826407Y-67905703D01*
X46785345Y-67847785D01*
X46778500Y-67806821D01*
X46778500Y-67495181D01*
X46793857Y-67442878D01*
X46791697Y-67441899D01*
X46811000Y-67399309D01*
X46811000Y-67393558D01*
X47319000Y-67393558D01*
X47322973Y-67407089D01*
X47330871Y-67408224D01*
X47456784Y-67371643D01*
X47471220Y-67365396D01*
X47598499Y-67290124D01*
X47610926Y-67280484D01*
X47715484Y-67175926D01*
X47725124Y-67163499D01*
X47800396Y-67036220D01*
X47806643Y-67021784D01*
X47848312Y-66878359D01*
X47849768Y-66870391D01*
X47846948Y-66856969D01*
X47835487Y-66854000D01*
X47337115Y-66854000D01*
X47321876Y-66858475D01*
X47320671Y-66859865D01*
X47319000Y-66867548D01*
X47319000Y-67393558D01*
X46811000Y-67393558D01*
X46811000Y-67121379D01*
X46828546Y-67057240D01*
X46840859Y-67036420D01*
X46840859Y-67036419D01*
X46844894Y-67029597D01*
X46890606Y-66872254D01*
X46891582Y-66859865D01*
X46893307Y-66837940D01*
X46893307Y-66837932D01*
X46893500Y-66835484D01*
X46893500Y-66364516D01*
X46892043Y-66346000D01*
X46891111Y-66334156D01*
X46891110Y-66334151D01*
X46890617Y-66327885D01*
X47319000Y-66327885D01*
X47323475Y-66343124D01*
X47324865Y-66344329D01*
X47332548Y-66346000D01*
X47833424Y-66346000D01*
X47864512Y-66336872D01*
X47897573Y-66315625D01*
X47968570Y-66315625D01*
X48028296Y-66354009D01*
X48053305Y-66398840D01*
X48059528Y-66418699D01*
X48148361Y-66565381D01*
X48269619Y-66686639D01*
X48416301Y-66775472D01*
X48423548Y-66777743D01*
X48423550Y-66777744D01*
X48473199Y-66793303D01*
X48579938Y-66826753D01*
X48653365Y-66833500D01*
X48656263Y-66833500D01*
X48985860Y-66833499D01*
X49316634Y-66833499D01*
X49319492Y-66833236D01*
X49319501Y-66833236D01*
X49355004Y-66829974D01*
X49390062Y-66826753D01*
X49449303Y-66808188D01*
X49546450Y-66777744D01*
X49546452Y-66777743D01*
X49553699Y-66775472D01*
X49700381Y-66686639D01*
X49775451Y-66611569D01*
X49837763Y-66577543D01*
X49908578Y-66582608D01*
X49958178Y-66616351D01*
X50014017Y-66678366D01*
X50025404Y-66686639D01*
X50150799Y-66777744D01*
X50168518Y-66790618D01*
X50174546Y-66793302D01*
X50174548Y-66793303D01*
X50318417Y-66857357D01*
X50342982Y-66868294D01*
X50432101Y-66887237D01*
X50523326Y-66906628D01*
X50523331Y-66906628D01*
X50529783Y-66908000D01*
X50720757Y-66908000D01*
X50727209Y-66906628D01*
X50727214Y-66906628D01*
X50818439Y-66887237D01*
X50907558Y-66868294D01*
X50932123Y-66857357D01*
X51075992Y-66793303D01*
X51075994Y-66793302D01*
X51082022Y-66790618D01*
X51099742Y-66777744D01*
X51225136Y-66686639D01*
X51236523Y-66678366D01*
X51269400Y-66641852D01*
X51359891Y-66541352D01*
X51359892Y-66541351D01*
X51364310Y-66536444D01*
X51444278Y-66397936D01*
X51456493Y-66376779D01*
X51456494Y-66376778D01*
X51459797Y-66371056D01*
X51518812Y-66189428D01*
X51520012Y-66178016D01*
X51538084Y-66006065D01*
X51538774Y-65999500D01*
X51528715Y-65903794D01*
X51524991Y-65868365D01*
X54841500Y-65868365D01*
X54841501Y-66531634D01*
X54841764Y-66534492D01*
X54841764Y-66534501D01*
X54844004Y-66558880D01*
X54848247Y-66605062D01*
X54850246Y-66611440D01*
X54850246Y-66611441D01*
X54875046Y-66690576D01*
X54899528Y-66768699D01*
X54988361Y-66915381D01*
X55109619Y-67036639D01*
X55256301Y-67125472D01*
X55263548Y-67127743D01*
X55263550Y-67127744D01*
X55308604Y-67141863D01*
X55419938Y-67176753D01*
X55493365Y-67183500D01*
X55496263Y-67183500D01*
X55750665Y-67183499D01*
X56006634Y-67183499D01*
X56009492Y-67183236D01*
X56009501Y-67183236D01*
X56045004Y-67179974D01*
X56080062Y-67176753D01*
X56086447Y-67174752D01*
X56236450Y-67127744D01*
X56236452Y-67127743D01*
X56243699Y-67125472D01*
X56390381Y-67036639D01*
X56485905Y-66941115D01*
X56548217Y-66907089D01*
X56619032Y-66912154D01*
X56664095Y-66941115D01*
X56759619Y-67036639D01*
X56906301Y-67125472D01*
X56913548Y-67127743D01*
X56913550Y-67127744D01*
X56958604Y-67141863D01*
X57069938Y-67176753D01*
X57143365Y-67183500D01*
X57146263Y-67183500D01*
X57400665Y-67183499D01*
X57656634Y-67183499D01*
X57659492Y-67183236D01*
X57659501Y-67183236D01*
X57695004Y-67179974D01*
X57730062Y-67176753D01*
X57736447Y-67174752D01*
X57886450Y-67127744D01*
X57886452Y-67127743D01*
X57893699Y-67125472D01*
X58040381Y-67036639D01*
X58142334Y-66934686D01*
X58204646Y-66900660D01*
X58275461Y-66905725D01*
X58282677Y-66908674D01*
X58411677Y-66966108D01*
X58411685Y-66966111D01*
X58417712Y-66968794D01*
X58511113Y-66988647D01*
X58598056Y-67007128D01*
X58598061Y-67007128D01*
X58604513Y-67008500D01*
X58795487Y-67008500D01*
X58801939Y-67007128D01*
X58801944Y-67007128D01*
X58888887Y-66988647D01*
X58982288Y-66968794D01*
X58988321Y-66966108D01*
X59150722Y-66893803D01*
X59150724Y-66893802D01*
X59156752Y-66891118D01*
X59188167Y-66868294D01*
X59215911Y-66848136D01*
X59311253Y-66778866D01*
X59317852Y-66771537D01*
X59434621Y-66641852D01*
X59434622Y-66641851D01*
X59439040Y-66636944D01*
X59522074Y-66493125D01*
X59531223Y-66477279D01*
X59531224Y-66477278D01*
X59534527Y-66471556D01*
X59593542Y-66289928D01*
X59599153Y-66236548D01*
X59612814Y-66106565D01*
X59613504Y-66100000D01*
X59601181Y-65982749D01*
X59594232Y-65916635D01*
X59594232Y-65916633D01*
X59593542Y-65910072D01*
X59534527Y-65728444D01*
X59439040Y-65563056D01*
X59381123Y-65498732D01*
X59315675Y-65426045D01*
X59315674Y-65426044D01*
X59311253Y-65421134D01*
X59156752Y-65308882D01*
X59150724Y-65306198D01*
X59150722Y-65306197D01*
X58988319Y-65233891D01*
X58988318Y-65233891D01*
X58982288Y-65231206D01*
X58874910Y-65208382D01*
X58801944Y-65192872D01*
X58801939Y-65192872D01*
X58795487Y-65191500D01*
X58604513Y-65191500D01*
X58598061Y-65192872D01*
X58598056Y-65192872D01*
X58525090Y-65208382D01*
X58417712Y-65231206D01*
X58411682Y-65233891D01*
X58411681Y-65233891D01*
X58249278Y-65306197D01*
X58249276Y-65306198D01*
X58243248Y-65308882D01*
X58237907Y-65312762D01*
X58237906Y-65312763D01*
X58177853Y-65356394D01*
X58110985Y-65380253D01*
X58038521Y-65362234D01*
X57900197Y-65278463D01*
X57900195Y-65278462D01*
X57893699Y-65274528D01*
X57886452Y-65272257D01*
X57886450Y-65272256D01*
X57820164Y-65251483D01*
X57730062Y-65223247D01*
X57656635Y-65216500D01*
X57653737Y-65216500D01*
X57399335Y-65216501D01*
X57143366Y-65216501D01*
X57140508Y-65216764D01*
X57140499Y-65216764D01*
X57104996Y-65220026D01*
X57069938Y-65223247D01*
X57063560Y-65225246D01*
X57063559Y-65225246D01*
X56913550Y-65272256D01*
X56913548Y-65272257D01*
X56906301Y-65274528D01*
X56899801Y-65278464D01*
X56899802Y-65278464D01*
X56886696Y-65286401D01*
X56818067Y-65304581D01*
X56750503Y-65282771D01*
X56705456Y-65227896D01*
X56696114Y-65165456D01*
X56712814Y-65006565D01*
X56713504Y-65000000D01*
X56693542Y-64810072D01*
X56634527Y-64628444D01*
X56617181Y-64598399D01*
X56565498Y-64508882D01*
X56539040Y-64463056D01*
X56532030Y-64455270D01*
X56415675Y-64326045D01*
X56415674Y-64326044D01*
X56411253Y-64321134D01*
X56312157Y-64249136D01*
X56262094Y-64212763D01*
X56262093Y-64212762D01*
X56256752Y-64208882D01*
X56250724Y-64206198D01*
X56250722Y-64206197D01*
X56088319Y-64133891D01*
X56088318Y-64133891D01*
X56082288Y-64131206D01*
X55988888Y-64111353D01*
X55901944Y-64092872D01*
X55901939Y-64092872D01*
X55895487Y-64091500D01*
X55704513Y-64091500D01*
X55698061Y-64092872D01*
X55698056Y-64092872D01*
X55611112Y-64111353D01*
X55517712Y-64131206D01*
X55511682Y-64133891D01*
X55511681Y-64133891D01*
X55349278Y-64206197D01*
X55349276Y-64206198D01*
X55343248Y-64208882D01*
X55337907Y-64212762D01*
X55337906Y-64212763D01*
X55287843Y-64249136D01*
X55188747Y-64321134D01*
X55184326Y-64326044D01*
X55184325Y-64326045D01*
X55067971Y-64455270D01*
X55060960Y-64463056D01*
X55034502Y-64508882D01*
X54982820Y-64598399D01*
X54965473Y-64628444D01*
X54906458Y-64810072D01*
X54886496Y-65000000D01*
X54887186Y-65006565D01*
X54905483Y-65180648D01*
X54906458Y-65189928D01*
X54965473Y-65371556D01*
X54968773Y-65377271D01*
X54972803Y-65384252D01*
X54989542Y-65453246D01*
X54971461Y-65512524D01*
X54899528Y-65631301D01*
X54848247Y-65794938D01*
X54841500Y-65868365D01*
X51524991Y-65868365D01*
X51519502Y-65816135D01*
X51519502Y-65816133D01*
X51518812Y-65809572D01*
X51459797Y-65627944D01*
X51440294Y-65594163D01*
X51416903Y-65553649D01*
X51364310Y-65462556D01*
X51331436Y-65426045D01*
X51240945Y-65325545D01*
X51240944Y-65325544D01*
X51236523Y-65320634D01*
X51117132Y-65233891D01*
X51087364Y-65212263D01*
X51087363Y-65212262D01*
X51082022Y-65208382D01*
X51075994Y-65205698D01*
X51075992Y-65205697D01*
X50913589Y-65133391D01*
X50913588Y-65133391D01*
X50907558Y-65130706D01*
X50810483Y-65110072D01*
X50727214Y-65092372D01*
X50727209Y-65092372D01*
X50720757Y-65091000D01*
X50529783Y-65091000D01*
X50523331Y-65092372D01*
X50523326Y-65092372D01*
X50440057Y-65110072D01*
X50342982Y-65130706D01*
X50336952Y-65133391D01*
X50336951Y-65133391D01*
X50174548Y-65205697D01*
X50174546Y-65205698D01*
X50168518Y-65208382D01*
X50163177Y-65212262D01*
X50163176Y-65212263D01*
X50052828Y-65292436D01*
X49985960Y-65316294D01*
X49978767Y-65316500D01*
X49905710Y-65316500D01*
X49837589Y-65296498D01*
X49816615Y-65279595D01*
X49726115Y-65189095D01*
X49692089Y-65126783D01*
X49697154Y-65055968D01*
X49726115Y-65010905D01*
X49821639Y-64915381D01*
X49910472Y-64768699D01*
X49922493Y-64730342D01*
X49959752Y-64611446D01*
X49961753Y-64605062D01*
X49968500Y-64531635D01*
X49968499Y-64018366D01*
X49968234Y-64015474D01*
X49962364Y-63951592D01*
X49961753Y-63944938D01*
X49910472Y-63781301D01*
X49821639Y-63634619D01*
X49700381Y-63513361D01*
X49654228Y-63485410D01*
X49606323Y-63433015D01*
X49593500Y-63377635D01*
X49593500Y-60632703D01*
X50990743Y-60632703D01*
X51028268Y-60917734D01*
X51104129Y-61195036D01*
X51105813Y-61198984D01*
X51189323Y-61394768D01*
X51216923Y-61459476D01*
X51364561Y-61706161D01*
X51544313Y-61930528D01*
X51752851Y-62128423D01*
X51986317Y-62296186D01*
X51990112Y-62298195D01*
X51990113Y-62298196D01*
X52011869Y-62309715D01*
X52240392Y-62430712D01*
X52510373Y-62529511D01*
X52791264Y-62590755D01*
X52819841Y-62593004D01*
X53014282Y-62608307D01*
X53014291Y-62608307D01*
X53016739Y-62608500D01*
X53172271Y-62608500D01*
X53174407Y-62608354D01*
X53174418Y-62608354D01*
X53382548Y-62594165D01*
X53382554Y-62594164D01*
X53386825Y-62593873D01*
X53391020Y-62593004D01*
X53391022Y-62593004D01*
X53527583Y-62564724D01*
X53668342Y-62535574D01*
X53939343Y-62439607D01*
X54194812Y-62307750D01*
X54198313Y-62305289D01*
X54198317Y-62305287D01*
X54368436Y-62185725D01*
X54430023Y-62142441D01*
X54640622Y-61946740D01*
X54822713Y-61724268D01*
X54972927Y-61479142D01*
X55088483Y-61215898D01*
X55167244Y-60939406D01*
X55207751Y-60654784D01*
X55207845Y-60636951D01*
X55209235Y-60371583D01*
X55209235Y-60371576D01*
X55209257Y-60367297D01*
X55171732Y-60082266D01*
X55095871Y-59804964D01*
X54983077Y-59540524D01*
X54835439Y-59293839D01*
X54655687Y-59069472D01*
X54532289Y-58952372D01*
X54450258Y-58874527D01*
X54450255Y-58874525D01*
X54447149Y-58871577D01*
X54213683Y-58703814D01*
X54191843Y-58692250D01*
X54096657Y-58641852D01*
X53959608Y-58569288D01*
X53689627Y-58470489D01*
X53408736Y-58409245D01*
X53377685Y-58406801D01*
X53185718Y-58391693D01*
X53185709Y-58391693D01*
X53183261Y-58391500D01*
X53027729Y-58391500D01*
X53025593Y-58391646D01*
X53025582Y-58391646D01*
X52817452Y-58405835D01*
X52817446Y-58405836D01*
X52813175Y-58406127D01*
X52808980Y-58406996D01*
X52808978Y-58406996D01*
X52672417Y-58435276D01*
X52531658Y-58464426D01*
X52260657Y-58560393D01*
X52005188Y-58692250D01*
X52001687Y-58694711D01*
X52001683Y-58694713D01*
X51887583Y-58774904D01*
X51769977Y-58857559D01*
X51559378Y-59053260D01*
X51377287Y-59275732D01*
X51227073Y-59520858D01*
X51111517Y-59784102D01*
X51032756Y-60060594D01*
X50992249Y-60345216D01*
X50992227Y-60349505D01*
X50992226Y-60349512D01*
X50990765Y-60628417D01*
X50990743Y-60632703D01*
X49593500Y-60632703D01*
X49593500Y-52262992D01*
X49613502Y-52194871D01*
X49667158Y-52148378D01*
X49737432Y-52138274D01*
X49770748Y-52147885D01*
X49811677Y-52166108D01*
X49811685Y-52166111D01*
X49817712Y-52168794D01*
X49911112Y-52188647D01*
X49998056Y-52207128D01*
X49998061Y-52207128D01*
X50004513Y-52208500D01*
X50195487Y-52208500D01*
X50201939Y-52207128D01*
X50201944Y-52207128D01*
X50276557Y-52191268D01*
X50347348Y-52196670D01*
X50403980Y-52239487D01*
X50420736Y-52270285D01*
X50449385Y-52346705D01*
X50536739Y-52463261D01*
X50653295Y-52550615D01*
X50789684Y-52601745D01*
X50851866Y-52608500D01*
X51948134Y-52608500D01*
X52010316Y-52601745D01*
X52146705Y-52550615D01*
X52263261Y-52463261D01*
X52350615Y-52346705D01*
X52401745Y-52210316D01*
X52408500Y-52148134D01*
X52408500Y-50551866D01*
X52401745Y-50489684D01*
X52350615Y-50353295D01*
X52263261Y-50236739D01*
X52146705Y-50149385D01*
X52010316Y-50098255D01*
X51948134Y-50091500D01*
X50851866Y-50091500D01*
X50789684Y-50098255D01*
X50653295Y-50149385D01*
X50536739Y-50236739D01*
X50531358Y-50243919D01*
X50454767Y-50346113D01*
X50454765Y-50346116D01*
X50449385Y-50353295D01*
X50448352Y-50356050D01*
X50400243Y-50404053D01*
X50330853Y-50419067D01*
X50313784Y-50416645D01*
X50201944Y-50392872D01*
X50201939Y-50392872D01*
X50195487Y-50391500D01*
X50004513Y-50391500D01*
X49998061Y-50392872D01*
X49998056Y-50392872D01*
X49919077Y-50409660D01*
X49817712Y-50431206D01*
X49811685Y-50433889D01*
X49811677Y-50433892D01*
X49770748Y-50452115D01*
X49700381Y-50461549D01*
X49636084Y-50431442D01*
X49598271Y-50371353D01*
X49593500Y-50337008D01*
X49593500Y-49046949D01*
X49613502Y-48978828D01*
X49625864Y-48962639D01*
X49734621Y-48841852D01*
X49734622Y-48841851D01*
X49739040Y-48836944D01*
X49834527Y-48671556D01*
X49893542Y-48489928D01*
X49913504Y-48300000D01*
X49893542Y-48110072D01*
X49834527Y-47928444D01*
X49739040Y-47763056D01*
X49712096Y-47733131D01*
X49615675Y-47626045D01*
X49615674Y-47626044D01*
X49611253Y-47621134D01*
X49456752Y-47508882D01*
X49450724Y-47506198D01*
X49450722Y-47506197D01*
X49288319Y-47433891D01*
X49288318Y-47433891D01*
X49282288Y-47431206D01*
X49188887Y-47411353D01*
X49101944Y-47392872D01*
X49101939Y-47392872D01*
X49095487Y-47391500D01*
X48904513Y-47391500D01*
X48898061Y-47392872D01*
X48898056Y-47392872D01*
X48811113Y-47411353D01*
X48717712Y-47431206D01*
X48711682Y-47433891D01*
X48711681Y-47433891D01*
X48549278Y-47506197D01*
X48549276Y-47506198D01*
X48543248Y-47508882D01*
X48388747Y-47621134D01*
X48384326Y-47626044D01*
X48384325Y-47626045D01*
X48287905Y-47733131D01*
X48260960Y-47763056D01*
X48165473Y-47928444D01*
X48106458Y-48110072D01*
X48086496Y-48300000D01*
X48106458Y-48489928D01*
X48165473Y-48671556D01*
X48260960Y-48836944D01*
X48265378Y-48841851D01*
X48265379Y-48841852D01*
X48344136Y-48929320D01*
X48374853Y-48993328D01*
X48376500Y-49013631D01*
X48376500Y-63377635D01*
X48356498Y-63445756D01*
X48315772Y-63485410D01*
X48269619Y-63513361D01*
X48148361Y-63634619D01*
X48059528Y-63781301D01*
X48008247Y-63944938D01*
X48001500Y-64018365D01*
X48001500Y-64181597D01*
X47981498Y-64249718D01*
X47927842Y-64296211D01*
X47857568Y-64306315D01*
X47809382Y-64288856D01*
X47803117Y-64284994D01*
X47789939Y-64278849D01*
X47641186Y-64229509D01*
X47627810Y-64226642D01*
X47536903Y-64217328D01*
X47531874Y-64217071D01*
X47516876Y-64221475D01*
X47515671Y-64222865D01*
X47514000Y-64230548D01*
X47514000Y-66097000D01*
X47493998Y-66165121D01*
X47440342Y-66211614D01*
X47388000Y-66223000D01*
X47337115Y-66223000D01*
X47321876Y-66227475D01*
X47320671Y-66228865D01*
X47319000Y-66236548D01*
X47319000Y-66327885D01*
X46890617Y-66327885D01*
X46890606Y-66327746D01*
X46844894Y-66170403D01*
X46828546Y-66142760D01*
X46811000Y-66078621D01*
X46811000Y-65868000D01*
X46831002Y-65799879D01*
X46884658Y-65753386D01*
X46937000Y-65742000D01*
X46987885Y-65742000D01*
X47003124Y-65737525D01*
X47004329Y-65736135D01*
X47006000Y-65728452D01*
X47006000Y-64235115D01*
X47001525Y-64219876D01*
X47000135Y-64218671D01*
X46992452Y-64217000D01*
X46989562Y-64217000D01*
X46983047Y-64217337D01*
X46890943Y-64226894D01*
X46877544Y-64229788D01*
X46728893Y-64279381D01*
X46715715Y-64285555D01*
X46660803Y-64319535D01*
X46592351Y-64338373D01*
X46524582Y-64317212D01*
X46479010Y-64262771D01*
X46468500Y-64212391D01*
X46468500Y-51826999D01*
X46485381Y-51763999D01*
X46541223Y-51667279D01*
X46541224Y-51667278D01*
X46544527Y-51661556D01*
X46603542Y-51479928D01*
X46623504Y-51290000D01*
X46603542Y-51100072D01*
X46544527Y-50918444D01*
X46485381Y-50816000D01*
X46468500Y-50753001D01*
X46468500Y-47248134D01*
X50391500Y-47248134D01*
X50398255Y-47310316D01*
X50449385Y-47446705D01*
X50536739Y-47563261D01*
X50653295Y-47650615D01*
X50789684Y-47701745D01*
X50851866Y-47708500D01*
X51948134Y-47708500D01*
X52010316Y-47701745D01*
X52146705Y-47650615D01*
X52263261Y-47563261D01*
X52350615Y-47446705D01*
X52356426Y-47431206D01*
X52400676Y-47313168D01*
X52443317Y-47256403D01*
X52509879Y-47231703D01*
X52579228Y-47246910D01*
X52607753Y-47268302D01*
X55215856Y-49876405D01*
X55249882Y-49938717D01*
X55244817Y-50009532D01*
X55202270Y-50066368D01*
X55135750Y-50091179D01*
X55126761Y-50091500D01*
X54051866Y-50091500D01*
X53989684Y-50098255D01*
X53853295Y-50149385D01*
X53736739Y-50236739D01*
X53649385Y-50353295D01*
X53598255Y-50489684D01*
X53591500Y-50551866D01*
X53591500Y-52148134D01*
X53598255Y-52210316D01*
X53649385Y-52346705D01*
X53736739Y-52463261D01*
X53802790Y-52512763D01*
X53814518Y-52521553D01*
X53857033Y-52578412D01*
X53862059Y-52649231D01*
X53848072Y-52685378D01*
X53765473Y-52828444D01*
X53706458Y-53010072D01*
X53705768Y-53016633D01*
X53705768Y-53016635D01*
X53695948Y-53110072D01*
X53686496Y-53200000D01*
X53706458Y-53389928D01*
X53765473Y-53571556D01*
X53860960Y-53736944D01*
X53988747Y-53878866D01*
X54081121Y-53945980D01*
X54126385Y-53978866D01*
X54143248Y-53991118D01*
X54149276Y-53993802D01*
X54149278Y-53993803D01*
X54231230Y-54030290D01*
X54317712Y-54068794D01*
X54411113Y-54088647D01*
X54498056Y-54107128D01*
X54498061Y-54107128D01*
X54504513Y-54108500D01*
X54695487Y-54108500D01*
X54701939Y-54107128D01*
X54701944Y-54107128D01*
X54788887Y-54088647D01*
X54882288Y-54068794D01*
X54968770Y-54030290D01*
X55050722Y-53993803D01*
X55050724Y-53993802D01*
X55056752Y-53991118D01*
X55073616Y-53978866D01*
X55118879Y-53945980D01*
X55211253Y-53878866D01*
X55339040Y-53736944D01*
X55434527Y-53571556D01*
X55493542Y-53389928D01*
X55513504Y-53200000D01*
X55504052Y-53110072D01*
X55494232Y-53016635D01*
X55494232Y-53016633D01*
X55493542Y-53010072D01*
X55434527Y-52828444D01*
X55351928Y-52685378D01*
X55335190Y-52616384D01*
X55358410Y-52549292D01*
X55385482Y-52521553D01*
X55397211Y-52512763D01*
X55463261Y-52463261D01*
X55550615Y-52346705D01*
X55601745Y-52210316D01*
X55608500Y-52148134D01*
X55608500Y-50573239D01*
X55628502Y-50505118D01*
X55682158Y-50458625D01*
X55752432Y-50448521D01*
X55817012Y-50478015D01*
X55823595Y-50484144D01*
X63350281Y-58010830D01*
X63384307Y-58073142D01*
X63386841Y-58096716D01*
X63386496Y-58100000D01*
X63406458Y-58289928D01*
X63465473Y-58471556D01*
X63560960Y-58636944D01*
X63688747Y-58778866D01*
X63787843Y-58850864D01*
X63820413Y-58874527D01*
X63843248Y-58891118D01*
X63849276Y-58893802D01*
X63849278Y-58893803D01*
X64011681Y-58966109D01*
X64017712Y-58968794D01*
X64111113Y-58988647D01*
X64198056Y-59007128D01*
X64198061Y-59007128D01*
X64204513Y-59008500D01*
X64395487Y-59008500D01*
X64401939Y-59007128D01*
X64401944Y-59007128D01*
X64488887Y-58988647D01*
X64582288Y-58968794D01*
X64588319Y-58966109D01*
X64750722Y-58893803D01*
X64750724Y-58893802D01*
X64756752Y-58891118D01*
X64779588Y-58874527D01*
X64812157Y-58850864D01*
X64911253Y-58778866D01*
X65039040Y-58636944D01*
X65134527Y-58471556D01*
X65193542Y-58289928D01*
X65213504Y-58100000D01*
X65193542Y-57910072D01*
X65134527Y-57728444D01*
X65039040Y-57563056D01*
X64911253Y-57421134D01*
X64756752Y-57308882D01*
X64750724Y-57306198D01*
X64750722Y-57306197D01*
X64588319Y-57233891D01*
X64588318Y-57233891D01*
X64582288Y-57231206D01*
X64488887Y-57211353D01*
X64401944Y-57192872D01*
X64401939Y-57192872D01*
X64395487Y-57191500D01*
X64304239Y-57191500D01*
X64236118Y-57171498D01*
X64215144Y-57154595D01*
X54983643Y-47923094D01*
X54949617Y-47860782D01*
X54954682Y-47789967D01*
X54997229Y-47733131D01*
X55063749Y-47708320D01*
X55072738Y-47707999D01*
X55144669Y-47707999D01*
X55151490Y-47707629D01*
X55202352Y-47702105D01*
X55217604Y-47698479D01*
X55338054Y-47653324D01*
X55353649Y-47644786D01*
X55455724Y-47568285D01*
X55468285Y-47555724D01*
X55544786Y-47453649D01*
X55553324Y-47438054D01*
X55598478Y-47317606D01*
X55602105Y-47302351D01*
X55607631Y-47251486D01*
X55608000Y-47244672D01*
X55608000Y-46722115D01*
X55603525Y-46706876D01*
X55602135Y-46705671D01*
X55594452Y-46704000D01*
X54472000Y-46704000D01*
X54403879Y-46683998D01*
X54357386Y-46630342D01*
X54346000Y-46578000D01*
X54346000Y-46177885D01*
X54854000Y-46177885D01*
X54858475Y-46193124D01*
X54859865Y-46194329D01*
X54867548Y-46196000D01*
X55589884Y-46196000D01*
X55605123Y-46191525D01*
X55606328Y-46190135D01*
X55607999Y-46182452D01*
X55607999Y-45655331D01*
X55607629Y-45648510D01*
X55602105Y-45597648D01*
X55598479Y-45582396D01*
X55553324Y-45461946D01*
X55544786Y-45446351D01*
X55468285Y-45344276D01*
X55455724Y-45331715D01*
X55353649Y-45255214D01*
X55338054Y-45246676D01*
X55217606Y-45201522D01*
X55202351Y-45197895D01*
X55151486Y-45192369D01*
X55144672Y-45192000D01*
X54872115Y-45192000D01*
X54856876Y-45196475D01*
X54855671Y-45197865D01*
X54854000Y-45205548D01*
X54854000Y-46177885D01*
X54346000Y-46177885D01*
X54346000Y-45210116D01*
X54341525Y-45194877D01*
X54340135Y-45193672D01*
X54332452Y-45192001D01*
X54055331Y-45192001D01*
X54048510Y-45192371D01*
X53997648Y-45197895D01*
X53982396Y-45201521D01*
X53861946Y-45246676D01*
X53846351Y-45255214D01*
X53744276Y-45331715D01*
X53731715Y-45344276D01*
X53655214Y-45446351D01*
X53646676Y-45461946D01*
X53601522Y-45582394D01*
X53597895Y-45597649D01*
X53592369Y-45648514D01*
X53592000Y-45655328D01*
X53592001Y-46227262D01*
X53571999Y-46295383D01*
X53518343Y-46341876D01*
X53448070Y-46351980D01*
X53383489Y-46322487D01*
X53376906Y-46316357D01*
X53114315Y-46053766D01*
X53103448Y-46041375D01*
X53089013Y-46022563D01*
X53083987Y-46016013D01*
X53052075Y-45991526D01*
X53052072Y-45991523D01*
X52986279Y-45941038D01*
X52963429Y-45923504D01*
X52963427Y-45923503D01*
X52956876Y-45918476D01*
X52808851Y-45857162D01*
X52800664Y-45856084D01*
X52800663Y-45856084D01*
X52789458Y-45854609D01*
X52758262Y-45850502D01*
X52689885Y-45841500D01*
X52689882Y-45841500D01*
X52689874Y-45841499D01*
X52658189Y-45837328D01*
X52650000Y-45836250D01*
X52618307Y-45840422D01*
X52601864Y-45841500D01*
X52534500Y-45841500D01*
X52466379Y-45821498D01*
X52419886Y-45767842D01*
X52408500Y-45715500D01*
X52408500Y-45651866D01*
X52401745Y-45589684D01*
X52350615Y-45453295D01*
X52263261Y-45336739D01*
X52146705Y-45249385D01*
X52010316Y-45198255D01*
X51948134Y-45191500D01*
X50851866Y-45191500D01*
X50789684Y-45198255D01*
X50653295Y-45249385D01*
X50536739Y-45336739D01*
X50449385Y-45453295D01*
X50398255Y-45589684D01*
X50391500Y-45651866D01*
X50391500Y-47248134D01*
X46468500Y-47248134D01*
X46468500Y-44132703D01*
X64690743Y-44132703D01*
X64691302Y-44136947D01*
X64691302Y-44136951D01*
X64693084Y-44150488D01*
X64728268Y-44417734D01*
X64729401Y-44421874D01*
X64729401Y-44421876D01*
X64738969Y-44456851D01*
X64804129Y-44695036D01*
X64916923Y-44959476D01*
X64928693Y-44979142D01*
X65061785Y-45201522D01*
X65064561Y-45206161D01*
X65244313Y-45430528D01*
X65277165Y-45461703D01*
X65412029Y-45589684D01*
X65452851Y-45628423D01*
X65686317Y-45796186D01*
X65690112Y-45798195D01*
X65690113Y-45798196D01*
X65711869Y-45809715D01*
X65940392Y-45930712D01*
X65964699Y-45939607D01*
X66191387Y-46022563D01*
X66210373Y-46029511D01*
X66491264Y-46090755D01*
X66519841Y-46093004D01*
X66714282Y-46108307D01*
X66714291Y-46108307D01*
X66716739Y-46108500D01*
X66872271Y-46108500D01*
X66874407Y-46108354D01*
X66874418Y-46108354D01*
X67082548Y-46094165D01*
X67082554Y-46094164D01*
X67086825Y-46093873D01*
X67091020Y-46093004D01*
X67091022Y-46093004D01*
X67227584Y-46064723D01*
X67368342Y-46035574D01*
X67639343Y-45939607D01*
X67894812Y-45807750D01*
X67898313Y-45805289D01*
X67898317Y-45805287D01*
X68012418Y-45725095D01*
X68130023Y-45642441D01*
X68208403Y-45569606D01*
X68337479Y-45449661D01*
X68337481Y-45449658D01*
X68340622Y-45446740D01*
X68522713Y-45224268D01*
X68672927Y-44979142D01*
X68756063Y-44789754D01*
X68786757Y-44719830D01*
X68788483Y-44715898D01*
X68790839Y-44707629D01*
X68837226Y-44544786D01*
X68867244Y-44439406D01*
X68907751Y-44154784D01*
X68907836Y-44138703D01*
X68909235Y-43871583D01*
X68909235Y-43871576D01*
X68909257Y-43867297D01*
X68871732Y-43582266D01*
X68795871Y-43304964D01*
X68683077Y-43040524D01*
X68535439Y-42793839D01*
X68355687Y-42569472D01*
X68147149Y-42371577D01*
X67913683Y-42203814D01*
X67891843Y-42192250D01*
X67852649Y-42171498D01*
X67659608Y-42069288D01*
X67423782Y-41982988D01*
X67393658Y-41971964D01*
X67393656Y-41971963D01*
X67389627Y-41970489D01*
X67108736Y-41909245D01*
X67077685Y-41906801D01*
X66885718Y-41891693D01*
X66885709Y-41891693D01*
X66883261Y-41891500D01*
X66727729Y-41891500D01*
X66725593Y-41891646D01*
X66725582Y-41891646D01*
X66517452Y-41905835D01*
X66517446Y-41905836D01*
X66513175Y-41906127D01*
X66508980Y-41906996D01*
X66508978Y-41906996D01*
X66460318Y-41917073D01*
X66231658Y-41964426D01*
X65960657Y-42060393D01*
X65705188Y-42192250D01*
X65701687Y-42194711D01*
X65701683Y-42194713D01*
X65615599Y-42255214D01*
X65469977Y-42357559D01*
X65454892Y-42371577D01*
X65262653Y-42550217D01*
X65259378Y-42553260D01*
X65077287Y-42775732D01*
X64927073Y-43020858D01*
X64925347Y-43024791D01*
X64925346Y-43024792D01*
X64850925Y-43194329D01*
X64811517Y-43284102D01*
X64732756Y-43560594D01*
X64692249Y-43845216D01*
X64692227Y-43849505D01*
X64692226Y-43849512D01*
X64690765Y-44128417D01*
X64690743Y-44132703D01*
X46468500Y-44132703D01*
X46468500Y-39219679D01*
X46485381Y-39156679D01*
X46531223Y-39077279D01*
X46531224Y-39077278D01*
X46534527Y-39071556D01*
X46593542Y-38889928D01*
X46596286Y-38863826D01*
X46612814Y-38706565D01*
X46613504Y-38700000D01*
X56486496Y-38700000D01*
X56487186Y-38706565D01*
X56503715Y-38863826D01*
X56506458Y-38889928D01*
X56565473Y-39071556D01*
X56660960Y-39236944D01*
X56665378Y-39241851D01*
X56665379Y-39241852D01*
X56766573Y-39354239D01*
X56788747Y-39378866D01*
X56943248Y-39491118D01*
X56949276Y-39493802D01*
X56949278Y-39493803D01*
X57111681Y-39566109D01*
X57117712Y-39568794D01*
X57211113Y-39588647D01*
X57298056Y-39607128D01*
X57298061Y-39607128D01*
X57304513Y-39608500D01*
X57495487Y-39608500D01*
X57501939Y-39607128D01*
X57501944Y-39607128D01*
X57588887Y-39588647D01*
X57682288Y-39568794D01*
X57688319Y-39566109D01*
X57850722Y-39493803D01*
X57850724Y-39493802D01*
X57856752Y-39491118D01*
X58011253Y-39378866D01*
X58033427Y-39354239D01*
X58134621Y-39241852D01*
X58134622Y-39241851D01*
X58139040Y-39236944D01*
X58234527Y-39071556D01*
X58293542Y-38889928D01*
X58296286Y-38863826D01*
X58312814Y-38706565D01*
X58313504Y-38700000D01*
X65286496Y-38700000D01*
X65287186Y-38706565D01*
X65303715Y-38863826D01*
X65306458Y-38889928D01*
X65365473Y-39071556D01*
X65460960Y-39236944D01*
X65465378Y-39241851D01*
X65465379Y-39241852D01*
X65566573Y-39354239D01*
X65588747Y-39378866D01*
X65743248Y-39491118D01*
X65749276Y-39493802D01*
X65749278Y-39493803D01*
X65911681Y-39566109D01*
X65917712Y-39568794D01*
X66011113Y-39588647D01*
X66098056Y-39607128D01*
X66098061Y-39607128D01*
X66104513Y-39608500D01*
X66295487Y-39608500D01*
X66301939Y-39607128D01*
X66301944Y-39607128D01*
X66388887Y-39588647D01*
X66482288Y-39568794D01*
X66488319Y-39566109D01*
X66650722Y-39493803D01*
X66650724Y-39493802D01*
X66656752Y-39491118D01*
X66811253Y-39378866D01*
X66833427Y-39354239D01*
X66934621Y-39241852D01*
X66934622Y-39241851D01*
X66939040Y-39236944D01*
X67034527Y-39071556D01*
X67089387Y-38902714D01*
X67120125Y-38852556D01*
X67427276Y-38545405D01*
X67489588Y-38511379D01*
X67516371Y-38508500D01*
X68148134Y-38508500D01*
X68210316Y-38501745D01*
X68346705Y-38450615D01*
X68463261Y-38363261D01*
X68550615Y-38246705D01*
X68601745Y-38110316D01*
X68608500Y-38048134D01*
X69791500Y-38048134D01*
X69798255Y-38110316D01*
X69849385Y-38246705D01*
X69936739Y-38363261D01*
X69943919Y-38368642D01*
X69947710Y-38372433D01*
X69981736Y-38434745D01*
X69976671Y-38505560D01*
X69971432Y-38516680D01*
X69971461Y-38516693D01*
X69968777Y-38522721D01*
X69965473Y-38528444D01*
X69906458Y-38710072D01*
X69905768Y-38716633D01*
X69905768Y-38716635D01*
X69891440Y-38852959D01*
X69886496Y-38900000D01*
X69887186Y-38906565D01*
X69905129Y-39077279D01*
X69906458Y-39089928D01*
X69965473Y-39271556D01*
X69968776Y-39277278D01*
X69968777Y-39277279D01*
X69979122Y-39295197D01*
X70024594Y-39373955D01*
X70024619Y-39373999D01*
X70041500Y-39436999D01*
X70041500Y-46382930D01*
X70040067Y-46401880D01*
X70036801Y-46423349D01*
X70037394Y-46430641D01*
X70037394Y-46430644D01*
X70041085Y-46476018D01*
X70041500Y-46486233D01*
X70041500Y-46494293D01*
X70041925Y-46497937D01*
X70044789Y-46522507D01*
X70045222Y-46526882D01*
X70051140Y-46599637D01*
X70053396Y-46606601D01*
X70054587Y-46612560D01*
X70055971Y-46618415D01*
X70056818Y-46625681D01*
X70081735Y-46694327D01*
X70083152Y-46698455D01*
X70089042Y-46716635D01*
X70105649Y-46767899D01*
X70109445Y-46774154D01*
X70111951Y-46779628D01*
X70114670Y-46785058D01*
X70117167Y-46791937D01*
X70121180Y-46798057D01*
X70121180Y-46798058D01*
X70157186Y-46852976D01*
X70159523Y-46856680D01*
X70197405Y-46919107D01*
X70201121Y-46923315D01*
X70201122Y-46923316D01*
X70204803Y-46927484D01*
X70204776Y-46927508D01*
X70207429Y-46930500D01*
X70210132Y-46933733D01*
X70214144Y-46939852D01*
X70247550Y-46971498D01*
X70270383Y-46993128D01*
X70272825Y-46995506D01*
X71554595Y-48277276D01*
X71588621Y-48339588D01*
X71591500Y-48366371D01*
X71591500Y-49048134D01*
X71598255Y-49110316D01*
X71649385Y-49246705D01*
X71736739Y-49363261D01*
X71853295Y-49450615D01*
X71989684Y-49501745D01*
X72051866Y-49508500D01*
X73148134Y-49508500D01*
X73210316Y-49501745D01*
X73346705Y-49450615D01*
X73463261Y-49363261D01*
X73550615Y-49246705D01*
X73601745Y-49110316D01*
X73608500Y-49048134D01*
X73608500Y-47451866D01*
X73601745Y-47389684D01*
X73550615Y-47253295D01*
X73463261Y-47136739D01*
X73346705Y-47049385D01*
X73210316Y-46998255D01*
X73148134Y-46991500D01*
X72466371Y-46991500D01*
X72398250Y-46971498D01*
X72377276Y-46954595D01*
X71595405Y-46172724D01*
X71561379Y-46110412D01*
X71558500Y-46083629D01*
X71558500Y-44581569D01*
X71578502Y-44513448D01*
X71632158Y-44466955D01*
X71702432Y-44456851D01*
X71760065Y-44480743D01*
X71853295Y-44550615D01*
X71989684Y-44601745D01*
X72051866Y-44608500D01*
X73148134Y-44608500D01*
X73210316Y-44601745D01*
X73346705Y-44550615D01*
X73463261Y-44463261D01*
X73550615Y-44346705D01*
X73601745Y-44210316D01*
X73608500Y-44148134D01*
X73608500Y-44144669D01*
X74792001Y-44144669D01*
X74792371Y-44151490D01*
X74797895Y-44202352D01*
X74801521Y-44217604D01*
X74846676Y-44338054D01*
X74855214Y-44353649D01*
X74931715Y-44455724D01*
X74944276Y-44468285D01*
X75046351Y-44544786D01*
X75061946Y-44553324D01*
X75182394Y-44598478D01*
X75197649Y-44602105D01*
X75248514Y-44607631D01*
X75255328Y-44608000D01*
X75527885Y-44608000D01*
X75543124Y-44603525D01*
X75544329Y-44602135D01*
X75546000Y-44594452D01*
X75546000Y-43622115D01*
X75541525Y-43606876D01*
X75540135Y-43605671D01*
X75532452Y-43604000D01*
X74810116Y-43604000D01*
X74794877Y-43608475D01*
X74793672Y-43609865D01*
X74792001Y-43617548D01*
X74792001Y-44144669D01*
X73608500Y-44144669D01*
X73608500Y-43077885D01*
X74792000Y-43077885D01*
X74796475Y-43093124D01*
X74797865Y-43094329D01*
X74805548Y-43096000D01*
X75527885Y-43096000D01*
X75543124Y-43091525D01*
X75544329Y-43090135D01*
X75546000Y-43082452D01*
X75546000Y-42110116D01*
X75541525Y-42094877D01*
X75540135Y-42093672D01*
X75532452Y-42092001D01*
X75255331Y-42092001D01*
X75248510Y-42092371D01*
X75197648Y-42097895D01*
X75182396Y-42101521D01*
X75061946Y-42146676D01*
X75046351Y-42155214D01*
X74944276Y-42231715D01*
X74931715Y-42244276D01*
X74855214Y-42346351D01*
X74846676Y-42361946D01*
X74801522Y-42482394D01*
X74797895Y-42497649D01*
X74792369Y-42548514D01*
X74792000Y-42555328D01*
X74792000Y-43077885D01*
X73608500Y-43077885D01*
X73608500Y-42551866D01*
X73601745Y-42489684D01*
X73550615Y-42353295D01*
X73463261Y-42236739D01*
X73346705Y-42149385D01*
X73336092Y-42145406D01*
X73290270Y-42128228D01*
X73233505Y-42085586D01*
X73208806Y-42019024D01*
X73208500Y-42010246D01*
X73208500Y-39098136D01*
X73209578Y-39081690D01*
X73212672Y-39058188D01*
X73213750Y-39050000D01*
X73208500Y-39010122D01*
X73208500Y-39010115D01*
X73192838Y-38891150D01*
X73131524Y-38743125D01*
X73125082Y-38734729D01*
X73094128Y-38694390D01*
X73094127Y-38694389D01*
X73058477Y-38647928D01*
X73058471Y-38647921D01*
X73039016Y-38622566D01*
X73039013Y-38622563D01*
X73033987Y-38616013D01*
X73023715Y-38608131D01*
X73008621Y-38596548D01*
X72996230Y-38585681D01*
X71845405Y-37434856D01*
X71811379Y-37372544D01*
X71808500Y-37345761D01*
X71808500Y-36451866D01*
X71801745Y-36389684D01*
X71750615Y-36253295D01*
X71663261Y-36136739D01*
X71546705Y-36049385D01*
X71410316Y-35998255D01*
X71348134Y-35991500D01*
X70251866Y-35991500D01*
X70189684Y-35998255D01*
X70053295Y-36049385D01*
X69936739Y-36136739D01*
X69849385Y-36253295D01*
X69798255Y-36389684D01*
X69791500Y-36451866D01*
X69791500Y-38048134D01*
X68608500Y-38048134D01*
X68608500Y-36451866D01*
X68601745Y-36389684D01*
X68550615Y-36253295D01*
X68463261Y-36136739D01*
X68346705Y-36049385D01*
X68210316Y-35998255D01*
X68148134Y-35991500D01*
X67051866Y-35991500D01*
X66989684Y-35998255D01*
X66853295Y-36049385D01*
X66736739Y-36136739D01*
X66649385Y-36253295D01*
X66598255Y-36389684D01*
X66591500Y-36451866D01*
X66591500Y-37183629D01*
X66571498Y-37251750D01*
X66554595Y-37272724D01*
X66043669Y-37783650D01*
X65980772Y-37817801D01*
X65924176Y-37829831D01*
X65924167Y-37829834D01*
X65917712Y-37831206D01*
X65911682Y-37833891D01*
X65911681Y-37833891D01*
X65749278Y-37906197D01*
X65749276Y-37906198D01*
X65743248Y-37908882D01*
X65588747Y-38021134D01*
X65460960Y-38163056D01*
X65365473Y-38328444D01*
X65306458Y-38510072D01*
X65305768Y-38516633D01*
X65305768Y-38516635D01*
X65293921Y-38629352D01*
X65286496Y-38700000D01*
X58313504Y-38700000D01*
X58308030Y-38647921D01*
X58294233Y-38516642D01*
X58294232Y-38516635D01*
X58293542Y-38510072D01*
X58264667Y-38421205D01*
X58258500Y-38382268D01*
X58258500Y-32004802D01*
X58278502Y-31936681D01*
X58308935Y-31903976D01*
X58363261Y-31863261D01*
X58450615Y-31746705D01*
X58501745Y-31610316D01*
X58508500Y-31548134D01*
X59691500Y-31548134D01*
X59698255Y-31610316D01*
X59749385Y-31746705D01*
X59836739Y-31863261D01*
X59953295Y-31950615D01*
X60089684Y-32001745D01*
X60151866Y-32008500D01*
X61248134Y-32008500D01*
X61310316Y-32001745D01*
X61446705Y-31950615D01*
X61563261Y-31863261D01*
X61650615Y-31746705D01*
X61701745Y-31610316D01*
X61708500Y-31548134D01*
X61708500Y-31484500D01*
X61728502Y-31416379D01*
X61782158Y-31369886D01*
X61834500Y-31358500D01*
X65695761Y-31358500D01*
X65763882Y-31378502D01*
X65784856Y-31395405D01*
X66554595Y-32165144D01*
X66588621Y-32227456D01*
X66591500Y-32254239D01*
X66591500Y-33148134D01*
X66598255Y-33210316D01*
X66649385Y-33346705D01*
X66736739Y-33463261D01*
X66853295Y-33550615D01*
X66989684Y-33601745D01*
X67051866Y-33608500D01*
X68148134Y-33608500D01*
X68210316Y-33601745D01*
X68346705Y-33550615D01*
X68463261Y-33463261D01*
X68550615Y-33346705D01*
X68601745Y-33210316D01*
X68608500Y-33148134D01*
X68608500Y-33144669D01*
X69792001Y-33144669D01*
X69792371Y-33151490D01*
X69797895Y-33202352D01*
X69801521Y-33217604D01*
X69846676Y-33338054D01*
X69855214Y-33353649D01*
X69931715Y-33455724D01*
X69944276Y-33468285D01*
X70046351Y-33544786D01*
X70061946Y-33553324D01*
X70182394Y-33598478D01*
X70197649Y-33602105D01*
X70248514Y-33607631D01*
X70255328Y-33608000D01*
X70527885Y-33608000D01*
X70543124Y-33603525D01*
X70544329Y-33602135D01*
X70546000Y-33594452D01*
X70546000Y-33589884D01*
X71054000Y-33589884D01*
X71058475Y-33605123D01*
X71059865Y-33606328D01*
X71067548Y-33607999D01*
X71344669Y-33607999D01*
X71351490Y-33607629D01*
X71402352Y-33602105D01*
X71417604Y-33598479D01*
X71538054Y-33553324D01*
X71553649Y-33544786D01*
X71655724Y-33468285D01*
X71668285Y-33455724D01*
X71744786Y-33353649D01*
X71753324Y-33338054D01*
X71798478Y-33217606D01*
X71802105Y-33202351D01*
X71807631Y-33151486D01*
X71808000Y-33144672D01*
X71808000Y-32622115D01*
X71803525Y-32606876D01*
X71802135Y-32605671D01*
X71794452Y-32604000D01*
X71072115Y-32604000D01*
X71056876Y-32608475D01*
X71055671Y-32609865D01*
X71054000Y-32617548D01*
X71054000Y-33589884D01*
X70546000Y-33589884D01*
X70546000Y-32622115D01*
X70541525Y-32606876D01*
X70540135Y-32605671D01*
X70532452Y-32604000D01*
X69810116Y-32604000D01*
X69794877Y-32608475D01*
X69793672Y-32609865D01*
X69792001Y-32617548D01*
X69792001Y-33144669D01*
X68608500Y-33144669D01*
X68608500Y-32077885D01*
X69792000Y-32077885D01*
X69796475Y-32093124D01*
X69797865Y-32094329D01*
X69805548Y-32096000D01*
X70527885Y-32096000D01*
X70543124Y-32091525D01*
X70544329Y-32090135D01*
X70546000Y-32082452D01*
X70546000Y-31110116D01*
X70541525Y-31094877D01*
X70540135Y-31093672D01*
X70532452Y-31092001D01*
X70255331Y-31092001D01*
X70248510Y-31092371D01*
X70197648Y-31097895D01*
X70182396Y-31101521D01*
X70061946Y-31146676D01*
X70046351Y-31155214D01*
X69944276Y-31231715D01*
X69931715Y-31244276D01*
X69855214Y-31346351D01*
X69846676Y-31361946D01*
X69801522Y-31482394D01*
X69797895Y-31497649D01*
X69792369Y-31548514D01*
X69792000Y-31555328D01*
X69792000Y-32077885D01*
X68608500Y-32077885D01*
X68608500Y-31551866D01*
X68601745Y-31489684D01*
X68550615Y-31353295D01*
X68463261Y-31236739D01*
X68346705Y-31149385D01*
X68210316Y-31098255D01*
X68148134Y-31091500D01*
X67254239Y-31091500D01*
X67186118Y-31071498D01*
X67165144Y-31054595D01*
X66464315Y-30353766D01*
X66453448Y-30341375D01*
X66439013Y-30322563D01*
X66433987Y-30316013D01*
X66402075Y-30291526D01*
X66402072Y-30291523D01*
X66306876Y-30218476D01*
X66158851Y-30157162D01*
X66150664Y-30156084D01*
X66150663Y-30156084D01*
X66139458Y-30154609D01*
X66108262Y-30150502D01*
X66039885Y-30141500D01*
X66039882Y-30141500D01*
X66039874Y-30141499D01*
X66008189Y-30137328D01*
X66000000Y-30136250D01*
X65968307Y-30140422D01*
X65951864Y-30141500D01*
X61834500Y-30141500D01*
X61766379Y-30121498D01*
X61719886Y-30067842D01*
X61708500Y-30015500D01*
X61708500Y-29951866D01*
X61701745Y-29889684D01*
X61650615Y-29753295D01*
X61563261Y-29636739D01*
X61446705Y-29549385D01*
X61310316Y-29498255D01*
X61248134Y-29491500D01*
X60151866Y-29491500D01*
X60089684Y-29498255D01*
X59953295Y-29549385D01*
X59836739Y-29636739D01*
X59749385Y-29753295D01*
X59698255Y-29889684D01*
X59691500Y-29951866D01*
X59691500Y-31548134D01*
X58508500Y-31548134D01*
X58508500Y-29951866D01*
X58501745Y-29889684D01*
X58450615Y-29753295D01*
X58363261Y-29636739D01*
X58246705Y-29549385D01*
X58110316Y-29498255D01*
X58048134Y-29491500D01*
X56951866Y-29491500D01*
X56889684Y-29498255D01*
X56753295Y-29549385D01*
X56636739Y-29636739D01*
X56549385Y-29753295D01*
X56498255Y-29889684D01*
X56491500Y-29951866D01*
X56491500Y-31548134D01*
X56498255Y-31610316D01*
X56549385Y-31746705D01*
X56636739Y-31863261D01*
X56691065Y-31903976D01*
X56733580Y-31960835D01*
X56741500Y-32004802D01*
X56741500Y-38025241D01*
X56721498Y-38093362D01*
X56709136Y-38109551D01*
X56660960Y-38163056D01*
X56565473Y-38328444D01*
X56506458Y-38510072D01*
X56505768Y-38516633D01*
X56505768Y-38516635D01*
X56493921Y-38629352D01*
X56486496Y-38700000D01*
X46613504Y-38700000D01*
X46606079Y-38629352D01*
X46594232Y-38516635D01*
X46594232Y-38516633D01*
X46593542Y-38510072D01*
X46534527Y-38328444D01*
X46439040Y-38163056D01*
X46311253Y-38021134D01*
X46156752Y-37908882D01*
X46150715Y-37906194D01*
X46133251Y-37898418D01*
X46079155Y-37852438D01*
X46058500Y-37783312D01*
X46058500Y-32004802D01*
X46078502Y-31936681D01*
X46108935Y-31903976D01*
X46163261Y-31863261D01*
X46250615Y-31746705D01*
X46301745Y-31610316D01*
X46308500Y-31548134D01*
X46308500Y-29951866D01*
X46301745Y-29889684D01*
X46250615Y-29753295D01*
X46163261Y-29636739D01*
X46046705Y-29549385D01*
X45910316Y-29498255D01*
X45848134Y-29491500D01*
X44751866Y-29491500D01*
X44689684Y-29498255D01*
X44553295Y-29549385D01*
X44436739Y-29636739D01*
X44349385Y-29753295D01*
X44298255Y-29889684D01*
X44291500Y-29951866D01*
X44291500Y-31548134D01*
X44298255Y-31610316D01*
X44349385Y-31746705D01*
X44436739Y-31863261D01*
X44491065Y-31903976D01*
X44533580Y-31960835D01*
X44541500Y-32004802D01*
X44541500Y-38232930D01*
X44540067Y-38251880D01*
X44536801Y-38273349D01*
X44537394Y-38280641D01*
X44537394Y-38280644D01*
X44541085Y-38326018D01*
X44541500Y-38336233D01*
X44541500Y-38344293D01*
X44541925Y-38347937D01*
X44544789Y-38372507D01*
X44545222Y-38376882D01*
X44549929Y-38434745D01*
X44551140Y-38449637D01*
X44553396Y-38456601D01*
X44554587Y-38462560D01*
X44555971Y-38468415D01*
X44556818Y-38475681D01*
X44581735Y-38544327D01*
X44583152Y-38548455D01*
X44602485Y-38608131D01*
X44605649Y-38617899D01*
X44609445Y-38624154D01*
X44611951Y-38629628D01*
X44614670Y-38635058D01*
X44617167Y-38641937D01*
X44621180Y-38648057D01*
X44621180Y-38648058D01*
X44657186Y-38702976D01*
X44659523Y-38706680D01*
X44697405Y-38769107D01*
X44701121Y-38773315D01*
X44701122Y-38773316D01*
X44704803Y-38777484D01*
X44704776Y-38777508D01*
X44707429Y-38780500D01*
X44710132Y-38783733D01*
X44714144Y-38789852D01*
X44719456Y-38794884D01*
X44770383Y-38843128D01*
X44772825Y-38845506D01*
X44779875Y-38852556D01*
X44810613Y-38902714D01*
X44865473Y-39071556D01*
X44868776Y-39077278D01*
X44868777Y-39077279D01*
X44934619Y-39191320D01*
X44951500Y-39254320D01*
X44951500Y-50753001D01*
X44934619Y-50816000D01*
X44875473Y-50918444D01*
X44816458Y-51100072D01*
X44796496Y-51290000D01*
X44816458Y-51479928D01*
X44875473Y-51661556D01*
X44878776Y-51667278D01*
X44878777Y-51667279D01*
X44934619Y-51763999D01*
X44951500Y-51826999D01*
X44951500Y-64394039D01*
X44931498Y-64462160D01*
X44914673Y-64483057D01*
X44905448Y-64492298D01*
X44901608Y-64498528D01*
X44901607Y-64498529D01*
X44879691Y-64534084D01*
X44815698Y-64637899D01*
X44761851Y-64800243D01*
X44761151Y-64807080D01*
X44761150Y-64807082D01*
X44760865Y-64809865D01*
X44751500Y-64901268D01*
X44751500Y-65498732D01*
X44762113Y-65601019D01*
X44764295Y-65607559D01*
X44812023Y-65750615D01*
X44816244Y-65763268D01*
X44820096Y-65769492D01*
X44820096Y-65769493D01*
X44840582Y-65802598D01*
X44906248Y-65908713D01*
X45027298Y-66029552D01*
X45172899Y-66119302D01*
X45179849Y-66121607D01*
X45186481Y-66124700D01*
X45185357Y-66127109D01*
X45233540Y-66160501D01*
X45260766Y-66226070D01*
X45261500Y-66239648D01*
X45261500Y-67807655D01*
X45241498Y-67875776D01*
X45211153Y-67908415D01*
X45119100Y-67977530D01*
X45114965Y-67980635D01*
X44960629Y-68142138D01*
X44957720Y-68146403D01*
X44957714Y-68146411D01*
X44920456Y-68201029D01*
X44834743Y-68326680D01*
X44820117Y-68358189D01*
X44775971Y-68453295D01*
X44740688Y-68529305D01*
X44680989Y-68744570D01*
X44657251Y-68966695D01*
X44670110Y-69189715D01*
X44671247Y-69194760D01*
X44671966Y-69199877D01*
X44670518Y-69200081D01*
X44666398Y-69264274D01*
X44637119Y-69310200D01*
X44123595Y-69823724D01*
X44061283Y-69857750D01*
X43990468Y-69852685D01*
X43933632Y-69810138D01*
X43908821Y-69743618D01*
X43908500Y-69734629D01*
X43908500Y-68651866D01*
X43901745Y-68589684D01*
X43850615Y-68453295D01*
X43763261Y-68336739D01*
X43646705Y-68249385D01*
X43636092Y-68245406D01*
X43590270Y-68228228D01*
X43533505Y-68185586D01*
X43508806Y-68119024D01*
X43508500Y-68110246D01*
X43508500Y-66848136D01*
X43509578Y-66831690D01*
X43512672Y-66808188D01*
X43513750Y-66800000D01*
X43508500Y-66760122D01*
X43508500Y-66760115D01*
X43492838Y-66641150D01*
X43431524Y-66493125D01*
X43403439Y-66456524D01*
X43358477Y-66397928D01*
X43358474Y-66397925D01*
X43333987Y-66366013D01*
X43327432Y-66360983D01*
X43308621Y-66346548D01*
X43296230Y-66335681D01*
X42983644Y-66023095D01*
X42949618Y-65960783D01*
X42954683Y-65889968D01*
X42997230Y-65833132D01*
X43063750Y-65808321D01*
X43072739Y-65808000D01*
X43444668Y-65807999D01*
X43451490Y-65807629D01*
X43502352Y-65802105D01*
X43517604Y-65798479D01*
X43638054Y-65753324D01*
X43653649Y-65744786D01*
X43755724Y-65668285D01*
X43768285Y-65655724D01*
X43844786Y-65553649D01*
X43853324Y-65538054D01*
X43898478Y-65417606D01*
X43902105Y-65402351D01*
X43907631Y-65351486D01*
X43908000Y-65344672D01*
X43908000Y-64822115D01*
X43903525Y-64806876D01*
X43902135Y-64805671D01*
X43894452Y-64804000D01*
X42772000Y-64804000D01*
X42703879Y-64783998D01*
X42657386Y-64730342D01*
X42646000Y-64678000D01*
X42646000Y-64277885D01*
X43154000Y-64277885D01*
X43158475Y-64293124D01*
X43159865Y-64294329D01*
X43167548Y-64296000D01*
X43889884Y-64296000D01*
X43905123Y-64291525D01*
X43906328Y-64290135D01*
X43907999Y-64282452D01*
X43907999Y-63755331D01*
X43907629Y-63748510D01*
X43902105Y-63697648D01*
X43898479Y-63682396D01*
X43853324Y-63561946D01*
X43844786Y-63546351D01*
X43768285Y-63444276D01*
X43755724Y-63431715D01*
X43653649Y-63355214D01*
X43638054Y-63346676D01*
X43517606Y-63301522D01*
X43502351Y-63297895D01*
X43451486Y-63292369D01*
X43444672Y-63292000D01*
X43172115Y-63292000D01*
X43156876Y-63296475D01*
X43155671Y-63297865D01*
X43154000Y-63305548D01*
X43154000Y-64277885D01*
X42646000Y-64277885D01*
X42646000Y-63310116D01*
X42641525Y-63294877D01*
X42640135Y-63293672D01*
X42632452Y-63292001D01*
X42355331Y-63292001D01*
X42348510Y-63292371D01*
X42297648Y-63297895D01*
X42282396Y-63301521D01*
X42161946Y-63346676D01*
X42146351Y-63355214D01*
X42044276Y-63431715D01*
X42031715Y-63444276D01*
X41955214Y-63546351D01*
X41946676Y-63561946D01*
X41901522Y-63682394D01*
X41897895Y-63697649D01*
X41892369Y-63748514D01*
X41892000Y-63755328D01*
X41892000Y-64330552D01*
X41871998Y-64398673D01*
X41818342Y-64445166D01*
X41748068Y-64455270D01*
X41714753Y-64445659D01*
X41688327Y-64433894D01*
X41688321Y-64433892D01*
X41682288Y-64431206D01*
X41588887Y-64411353D01*
X41501944Y-64392872D01*
X41501939Y-64392872D01*
X41495487Y-64391500D01*
X41304513Y-64391500D01*
X41298061Y-64392872D01*
X41298056Y-64392872D01*
X41211113Y-64411353D01*
X41117712Y-64431206D01*
X41111682Y-64433891D01*
X41111681Y-64433891D01*
X40949278Y-64506197D01*
X40949276Y-64506198D01*
X40943248Y-64508882D01*
X40908559Y-64534085D01*
X40841694Y-64557942D01*
X40772543Y-64541862D01*
X40723062Y-64490949D01*
X40708500Y-64432148D01*
X40708500Y-63751866D01*
X40701745Y-63689684D01*
X40650615Y-63553295D01*
X40563261Y-63436739D01*
X40446705Y-63349385D01*
X40436092Y-63345406D01*
X40390270Y-63328228D01*
X40333505Y-63285586D01*
X40308806Y-63219024D01*
X40308500Y-63210246D01*
X40308500Y-54030290D01*
X40328502Y-53962169D01*
X40340864Y-53945980D01*
X40434621Y-53841852D01*
X40434622Y-53841851D01*
X40439040Y-53836944D01*
X40534527Y-53671556D01*
X40593542Y-53489928D01*
X40603393Y-53396206D01*
X40612814Y-53306565D01*
X40613504Y-53300000D01*
X40593542Y-53110072D01*
X40534527Y-52928444D01*
X40439040Y-52763056D01*
X40369100Y-52685379D01*
X40315675Y-52626045D01*
X40315674Y-52626044D01*
X40311253Y-52621134D01*
X40156752Y-52508882D01*
X40150724Y-52506198D01*
X40150722Y-52506197D01*
X39988319Y-52433891D01*
X39988318Y-52433891D01*
X39982288Y-52431206D01*
X39888887Y-52411353D01*
X39801944Y-52392872D01*
X39801939Y-52392872D01*
X39795487Y-52391500D01*
X39604513Y-52391500D01*
X39598061Y-52392872D01*
X39598056Y-52392872D01*
X39511113Y-52411353D01*
X39417712Y-52431206D01*
X39411682Y-52433891D01*
X39411681Y-52433891D01*
X39249278Y-52506197D01*
X39249276Y-52506198D01*
X39243248Y-52508882D01*
X39088747Y-52621134D01*
X39084326Y-52626044D01*
X39084325Y-52626045D01*
X39030901Y-52685379D01*
X38960960Y-52763056D01*
X38865473Y-52928444D01*
X38806458Y-53110072D01*
X38786496Y-53300000D01*
X38787186Y-53306565D01*
X38796608Y-53396206D01*
X38806458Y-53489928D01*
X38865473Y-53671556D01*
X38960960Y-53836944D01*
X38965378Y-53841851D01*
X38965379Y-53841852D01*
X39059136Y-53945980D01*
X39089854Y-54009987D01*
X39091500Y-54030290D01*
X39091500Y-63210246D01*
X39071498Y-63278367D01*
X39017842Y-63324860D01*
X39009730Y-63328228D01*
X38963908Y-63345406D01*
X38953295Y-63349385D01*
X38836739Y-63436739D01*
X38749385Y-63553295D01*
X38698255Y-63689684D01*
X38691500Y-63751866D01*
X38691500Y-65348134D01*
X38698255Y-65410316D01*
X38749385Y-65546705D01*
X38836739Y-65663261D01*
X38953295Y-65750615D01*
X39089684Y-65801745D01*
X39151866Y-65808500D01*
X40248134Y-65808500D01*
X40310316Y-65801745D01*
X40446705Y-65750615D01*
X40453891Y-65745229D01*
X40461760Y-65740921D01*
X40463423Y-65743959D01*
X40514299Y-65724948D01*
X40583682Y-65739997D01*
X40632482Y-65787619D01*
X40660960Y-65836944D01*
X40665378Y-65841851D01*
X40665379Y-65841852D01*
X40772465Y-65960783D01*
X40788747Y-65978866D01*
X40943248Y-66091118D01*
X40949276Y-66093802D01*
X40949278Y-66093803D01*
X41106001Y-66163580D01*
X41117712Y-66168794D01*
X41211113Y-66188647D01*
X41298056Y-66207128D01*
X41298061Y-66207128D01*
X41304513Y-66208500D01*
X41395761Y-66208500D01*
X41463882Y-66228502D01*
X41484856Y-66245405D01*
X42254595Y-67015144D01*
X42288621Y-67077456D01*
X42291500Y-67104239D01*
X42291500Y-68110246D01*
X42271498Y-68178367D01*
X42217842Y-68224860D01*
X42209730Y-68228228D01*
X42163908Y-68245406D01*
X42153295Y-68249385D01*
X42036739Y-68336739D01*
X41949385Y-68453295D01*
X41898255Y-68589684D01*
X41891500Y-68651866D01*
X41891500Y-69765011D01*
X41871498Y-69833132D01*
X41817842Y-69879625D01*
X41765500Y-69891011D01*
X40834500Y-69891011D01*
X40766379Y-69871009D01*
X40719886Y-69817353D01*
X40708500Y-69765011D01*
X40708500Y-68651866D01*
X40701745Y-68589684D01*
X40650615Y-68453295D01*
X40563261Y-68336739D01*
X40446705Y-68249385D01*
X40310316Y-68198255D01*
X40248134Y-68191500D01*
X39151866Y-68191500D01*
X39089684Y-68198255D01*
X38953295Y-68249385D01*
X38836739Y-68336739D01*
X38749385Y-68453295D01*
X38698255Y-68589684D01*
X38691500Y-68651866D01*
X38691500Y-70248134D01*
X38698255Y-70310316D01*
X38701029Y-70317715D01*
X38701029Y-70317716D01*
X38702363Y-70321275D01*
X38702580Y-70324238D01*
X38702856Y-70325400D01*
X38702668Y-70325445D01*
X38707543Y-70392082D01*
X38673620Y-70454450D01*
X38611363Y-70488577D01*
X38584379Y-70491500D01*
X38509037Y-70491500D01*
X38440916Y-70471498D01*
X38394276Y-70417518D01*
X38349039Y-70317716D01*
X28975468Y-49637879D01*
X28965563Y-49567579D01*
X28995238Y-49503082D01*
X29055073Y-49464867D01*
X29126069Y-49465068D01*
X29165794Y-49485037D01*
X29214624Y-49521633D01*
X29253295Y-49550615D01*
X29389684Y-49601745D01*
X29451866Y-49608500D01*
X30548134Y-49608500D01*
X30610316Y-49601745D01*
X30746705Y-49550615D01*
X30863261Y-49463261D01*
X30950615Y-49346705D01*
X31001745Y-49210316D01*
X31008500Y-49148134D01*
X31008500Y-47630290D01*
X31028502Y-47562169D01*
X31040864Y-47545980D01*
X31134621Y-47441852D01*
X31134622Y-47441851D01*
X31139040Y-47436944D01*
X31216685Y-47302460D01*
X31231223Y-47277279D01*
X31231224Y-47277278D01*
X31234527Y-47271556D01*
X31293542Y-47089928D01*
X31295737Y-47069049D01*
X31312814Y-46906565D01*
X31313504Y-46900000D01*
X31293542Y-46710072D01*
X31234527Y-46528444D01*
X31139040Y-46363056D01*
X31119970Y-46341876D01*
X31015675Y-46226045D01*
X31015674Y-46226044D01*
X31011253Y-46221134D01*
X30912157Y-46149136D01*
X30862094Y-46112763D01*
X30862093Y-46112762D01*
X30856752Y-46108882D01*
X30850726Y-46106199D01*
X30850719Y-46106195D01*
X30683252Y-46031635D01*
X30629156Y-45985655D01*
X30608500Y-45916528D01*
X30608500Y-44789754D01*
X30628502Y-44721633D01*
X30682158Y-44675140D01*
X30690270Y-44671772D01*
X30738297Y-44653767D01*
X30746705Y-44650615D01*
X30863261Y-44563261D01*
X30950615Y-44446705D01*
X31001745Y-44310316D01*
X31008500Y-44248134D01*
X31008500Y-42651866D01*
X31001745Y-42589684D01*
X30950615Y-42453295D01*
X30863261Y-42336739D01*
X30746705Y-42249385D01*
X30610316Y-42198255D01*
X30548134Y-42191500D01*
X30486349Y-42191500D01*
X30418228Y-42171498D01*
X30371735Y-42117842D01*
X30361631Y-42047568D01*
X30391125Y-41982988D01*
X30397254Y-41976405D01*
X32357309Y-40016350D01*
X32420204Y-39982199D01*
X32433399Y-39979394D01*
X32504190Y-39984794D01*
X32560824Y-40027610D01*
X32585319Y-40094247D01*
X32569899Y-40163549D01*
X32548694Y-40191735D01*
X32004255Y-40736174D01*
X31991864Y-40747041D01*
X31966502Y-40766502D01*
X31942015Y-40798414D01*
X31942012Y-40798417D01*
X31868965Y-40893613D01*
X31868965Y-40893614D01*
X31807651Y-41041639D01*
X31791989Y-41160604D01*
X31791989Y-41160609D01*
X31786739Y-41200489D01*
X31787817Y-41208677D01*
X31790911Y-41232179D01*
X31791989Y-41248625D01*
X31791989Y-47502353D01*
X31790911Y-47518796D01*
X31786739Y-47550489D01*
X31791989Y-47590369D01*
X31791989Y-47590374D01*
X31799920Y-47650615D01*
X31807651Y-47709340D01*
X31868965Y-47857365D01*
X31873992Y-47863916D01*
X31873993Y-47863918D01*
X31942009Y-47952558D01*
X31942015Y-47952564D01*
X31966502Y-47984476D01*
X31973057Y-47989506D01*
X31991868Y-48003941D01*
X32004259Y-48014808D01*
X32154595Y-48165144D01*
X32188621Y-48227456D01*
X32191500Y-48254239D01*
X32191500Y-49148134D01*
X32198255Y-49210316D01*
X32249385Y-49346705D01*
X32336739Y-49463261D01*
X32453295Y-49550615D01*
X32589684Y-49601745D01*
X32651866Y-49608500D01*
X33748134Y-49608500D01*
X33810316Y-49601745D01*
X33946705Y-49550615D01*
X34063261Y-49463261D01*
X34150615Y-49346705D01*
X34201745Y-49210316D01*
X34208500Y-49148134D01*
X34208500Y-47551866D01*
X34201745Y-47489684D01*
X34150615Y-47353295D01*
X34063261Y-47236739D01*
X33946705Y-47149385D01*
X33810316Y-47098255D01*
X33748134Y-47091500D01*
X33134989Y-47091500D01*
X33066868Y-47071498D01*
X33020375Y-47017842D01*
X33008989Y-46965500D01*
X33008989Y-44689884D01*
X33454000Y-44689884D01*
X33458475Y-44705123D01*
X33459865Y-44706328D01*
X33467548Y-44707999D01*
X33744669Y-44707999D01*
X33751490Y-44707629D01*
X33802352Y-44702105D01*
X33817604Y-44698479D01*
X33938054Y-44653324D01*
X33953649Y-44644786D01*
X34055724Y-44568285D01*
X34068285Y-44555724D01*
X34144786Y-44453649D01*
X34153324Y-44438054D01*
X34198478Y-44317606D01*
X34202105Y-44302351D01*
X34207631Y-44251486D01*
X34208000Y-44244672D01*
X34208000Y-44132703D01*
X36990743Y-44132703D01*
X36991302Y-44136947D01*
X36991302Y-44136951D01*
X36993084Y-44150488D01*
X37028268Y-44417734D01*
X37029401Y-44421874D01*
X37029401Y-44421876D01*
X37038969Y-44456851D01*
X37104129Y-44695036D01*
X37216923Y-44959476D01*
X37228693Y-44979142D01*
X37361785Y-45201522D01*
X37364561Y-45206161D01*
X37544313Y-45430528D01*
X37577165Y-45461703D01*
X37712029Y-45589684D01*
X37752851Y-45628423D01*
X37986317Y-45796186D01*
X37990112Y-45798195D01*
X37990113Y-45798196D01*
X38011869Y-45809715D01*
X38240392Y-45930712D01*
X38264699Y-45939607D01*
X38491387Y-46022563D01*
X38510373Y-46029511D01*
X38791264Y-46090755D01*
X38819841Y-46093004D01*
X39014282Y-46108307D01*
X39014291Y-46108307D01*
X39016739Y-46108500D01*
X39172271Y-46108500D01*
X39174407Y-46108354D01*
X39174418Y-46108354D01*
X39382548Y-46094165D01*
X39382554Y-46094164D01*
X39386825Y-46093873D01*
X39391020Y-46093004D01*
X39391022Y-46093004D01*
X39527583Y-46064724D01*
X39668342Y-46035574D01*
X39939343Y-45939607D01*
X40194812Y-45807750D01*
X40198313Y-45805289D01*
X40198317Y-45805287D01*
X40312418Y-45725095D01*
X40430023Y-45642441D01*
X40508403Y-45569606D01*
X40637479Y-45449661D01*
X40637481Y-45449658D01*
X40640622Y-45446740D01*
X40822713Y-45224268D01*
X40972927Y-44979142D01*
X41056063Y-44789754D01*
X41086757Y-44719830D01*
X41088483Y-44715898D01*
X41090839Y-44707629D01*
X41137226Y-44544786D01*
X41167244Y-44439406D01*
X41207751Y-44154784D01*
X41207836Y-44138703D01*
X41209235Y-43871583D01*
X41209235Y-43871576D01*
X41209257Y-43867297D01*
X41171732Y-43582266D01*
X41095871Y-43304964D01*
X40983077Y-43040524D01*
X40835439Y-42793839D01*
X40655687Y-42569472D01*
X40447149Y-42371577D01*
X40213683Y-42203814D01*
X40191843Y-42192250D01*
X40152649Y-42171498D01*
X39959608Y-42069288D01*
X39723782Y-41982988D01*
X39693658Y-41971964D01*
X39693656Y-41971963D01*
X39689627Y-41970489D01*
X39408736Y-41909245D01*
X39377685Y-41906801D01*
X39185718Y-41891693D01*
X39185709Y-41891693D01*
X39183261Y-41891500D01*
X39027729Y-41891500D01*
X39025593Y-41891646D01*
X39025582Y-41891646D01*
X38817452Y-41905835D01*
X38817446Y-41905836D01*
X38813175Y-41906127D01*
X38808980Y-41906996D01*
X38808978Y-41906996D01*
X38760318Y-41917073D01*
X38531658Y-41964426D01*
X38260657Y-42060393D01*
X38005188Y-42192250D01*
X38001687Y-42194711D01*
X38001683Y-42194713D01*
X37915599Y-42255214D01*
X37769977Y-42357559D01*
X37754892Y-42371577D01*
X37562653Y-42550217D01*
X37559378Y-42553260D01*
X37377287Y-42775732D01*
X37227073Y-43020858D01*
X37225347Y-43024791D01*
X37225346Y-43024792D01*
X37150925Y-43194329D01*
X37111517Y-43284102D01*
X37032756Y-43560594D01*
X36992249Y-43845216D01*
X36992227Y-43849505D01*
X36992226Y-43849512D01*
X36990765Y-44128417D01*
X36990743Y-44132703D01*
X34208000Y-44132703D01*
X34208000Y-43722115D01*
X34203525Y-43706876D01*
X34202135Y-43705671D01*
X34194452Y-43704000D01*
X33472115Y-43704000D01*
X33456876Y-43708475D01*
X33455671Y-43709865D01*
X33454000Y-43717548D01*
X33454000Y-44689884D01*
X33008989Y-44689884D01*
X33008989Y-43177885D01*
X33454000Y-43177885D01*
X33458475Y-43193124D01*
X33459865Y-43194329D01*
X33467548Y-43196000D01*
X34189884Y-43196000D01*
X34205123Y-43191525D01*
X34206328Y-43190135D01*
X34207999Y-43182452D01*
X34207999Y-42655331D01*
X34207629Y-42648510D01*
X34202105Y-42597648D01*
X34198479Y-42582396D01*
X34153324Y-42461946D01*
X34144786Y-42446351D01*
X34068285Y-42344276D01*
X34055724Y-42331715D01*
X33953649Y-42255214D01*
X33938054Y-42246676D01*
X33817606Y-42201522D01*
X33802351Y-42197895D01*
X33751486Y-42192369D01*
X33744672Y-42192000D01*
X33472115Y-42192000D01*
X33456876Y-42196475D01*
X33455671Y-42197865D01*
X33454000Y-42205548D01*
X33454000Y-43177885D01*
X33008989Y-43177885D01*
X33008989Y-41504728D01*
X33028991Y-41436607D01*
X33045894Y-41415633D01*
X35116122Y-39345405D01*
X35178434Y-39311379D01*
X35205217Y-39308500D01*
X35550886Y-39308500D01*
X35567329Y-39309578D01*
X35599022Y-39313750D01*
X35607211Y-39312672D01*
X35638896Y-39308501D01*
X35638906Y-39308500D01*
X35638907Y-39308500D01*
X35739954Y-39295197D01*
X35749685Y-39293916D01*
X35757873Y-39292838D01*
X35905898Y-39231524D01*
X35958293Y-39191320D01*
X36001094Y-39158477D01*
X36001097Y-39158474D01*
X36026459Y-39139013D01*
X36033009Y-39133987D01*
X36052480Y-39108613D01*
X36063338Y-39096233D01*
X36295745Y-38863826D01*
X36308136Y-38852959D01*
X36326948Y-38838524D01*
X36333498Y-38833498D01*
X36357985Y-38801586D01*
X36357989Y-38801582D01*
X36431035Y-38706387D01*
X36492349Y-38558362D01*
X36513262Y-38399511D01*
X36509089Y-38367812D01*
X36508011Y-38351367D01*
X36508011Y-33297647D01*
X36509089Y-33281201D01*
X36512183Y-33257699D01*
X36513261Y-33249511D01*
X36512624Y-33244669D01*
X37292001Y-33244669D01*
X37292371Y-33251490D01*
X37297895Y-33302352D01*
X37301521Y-33317604D01*
X37346676Y-33438054D01*
X37355214Y-33453649D01*
X37431715Y-33555724D01*
X37444276Y-33568285D01*
X37546351Y-33644786D01*
X37561946Y-33653324D01*
X37682394Y-33698478D01*
X37697649Y-33702105D01*
X37748514Y-33707631D01*
X37755328Y-33708000D01*
X38027885Y-33708000D01*
X38043124Y-33703525D01*
X38044329Y-33702135D01*
X38046000Y-33694452D01*
X38046000Y-32722115D01*
X38041525Y-32706876D01*
X38040135Y-32705671D01*
X38032452Y-32704000D01*
X37310116Y-32704000D01*
X37294877Y-32708475D01*
X37293672Y-32709865D01*
X37292001Y-32717548D01*
X37292001Y-33244669D01*
X36512624Y-33244669D01*
X36508011Y-33209633D01*
X36508011Y-33209626D01*
X36492349Y-33090661D01*
X36431035Y-32942636D01*
X36384142Y-32881524D01*
X36357988Y-32847439D01*
X36357985Y-32847436D01*
X36333498Y-32815524D01*
X36326943Y-32810494D01*
X36308132Y-32796059D01*
X36295741Y-32785192D01*
X36145405Y-32634856D01*
X36111379Y-32572544D01*
X36108500Y-32545761D01*
X36108500Y-32177885D01*
X37292000Y-32177885D01*
X37296475Y-32193124D01*
X37297865Y-32194329D01*
X37305548Y-32196000D01*
X38027885Y-32196000D01*
X38043124Y-32191525D01*
X38044329Y-32190135D01*
X38046000Y-32182452D01*
X38046000Y-31210116D01*
X38041525Y-31194877D01*
X38040135Y-31193672D01*
X38032452Y-31192001D01*
X37755331Y-31192001D01*
X37748510Y-31192371D01*
X37697648Y-31197895D01*
X37682396Y-31201521D01*
X37561946Y-31246676D01*
X37546351Y-31255214D01*
X37444276Y-31331715D01*
X37431715Y-31344276D01*
X37355214Y-31446351D01*
X37346676Y-31461946D01*
X37301522Y-31582394D01*
X37297895Y-31597649D01*
X37292369Y-31648514D01*
X37292000Y-31655328D01*
X37292000Y-32177885D01*
X36108500Y-32177885D01*
X36108500Y-31651866D01*
X36101745Y-31589684D01*
X36050615Y-31453295D01*
X35963261Y-31336739D01*
X35846705Y-31249385D01*
X35710316Y-31198255D01*
X35648134Y-31191500D01*
X34609209Y-31191500D01*
X34541088Y-31171498D01*
X34494595Y-31117842D01*
X34484491Y-31047568D01*
X34513985Y-30982988D01*
X34540504Y-30959880D01*
X34909958Y-30719556D01*
X40456856Y-27111379D01*
X44119503Y-24728880D01*
X44188208Y-24708500D01*
X44221868Y-24708500D01*
X44289989Y-24728502D01*
G37*
%TD.AperFunction*%
%TD*%
M02*
