%FSLAX45Y45*%
G04 Gerber Fmt 4.5, Leading zero omitted, Abs format (unit mm)*
G04 Created by KiCad (PCBNEW 6.0.4-6f826c9f35~116~ubuntu20.04.1) date 2022-04-29 21:51:41*
%MOMM*%
%LPD*%
G01*
G04 APERTURE LIST*
%TA.AperFunction,Profile*%
%ADD10C,0.100000*%
%TD*%
%ADD11C,0.200000*%
%ADD12C,0.040000*%
%ADD13C,0.100000*%
G04 APERTURE END LIST*
D10*
X6195000Y-2420000D02*
X7225000Y-3090000D01*
X7225000Y-3090000D02*
X7755000Y-4180000D01*
X7755000Y-4180000D02*
X7755000Y-4960000D01*
X7755000Y-4960000D02*
X6785000Y-7100000D01*
X4400000Y-2420000D02*
X6195000Y-2420000D01*
X3370000Y-3090000D02*
X4400000Y-2420000D01*
X2840000Y-4180000D02*
X3370000Y-3090000D01*
X2840000Y-4960000D02*
X2840000Y-4180000D01*
X3810000Y-7100000D02*
X2840000Y-4960000D01*
X6785000Y-7100000D02*
X3810000Y-7100000D01*
D11*
D12*
X3020000Y-4670000D02*
X3060000Y-4710000D01*
X3060000Y-4670000D02*
X3020000Y-4710000D01*
X3030000Y-5070000D02*
X3070000Y-5110000D01*
X3070000Y-5070000D02*
X3030000Y-5110000D01*
X3100000Y-4160000D02*
X3140000Y-4200000D01*
X3140000Y-4160000D02*
X3100000Y-4200000D01*
X3200098Y-3890000D02*
X3240098Y-3930000D01*
X3240098Y-3890000D02*
X3200098Y-3930000D01*
X3730000Y-3970000D02*
X3770000Y-4010000D01*
X3770000Y-3970000D02*
X3730000Y-4010000D01*
X3950000Y-5310000D02*
X3990000Y-5350000D01*
X3990000Y-5310000D02*
X3950000Y-5350000D01*
X4000000Y-2830000D02*
X4040000Y-2870000D01*
X4040000Y-2830000D02*
X4000000Y-2870000D01*
X4120000Y-6510000D02*
X4160000Y-6550000D01*
X4160000Y-6510000D02*
X4120000Y-6550000D01*
X4120000Y-6750000D02*
X4160000Y-6790000D01*
X4160000Y-6750000D02*
X4120000Y-6790000D01*
X4300000Y-6590000D02*
X4340000Y-6630000D01*
X4340000Y-6590000D02*
X4300000Y-6630000D01*
X4410000Y-5440000D02*
X4450000Y-5480000D01*
X4450000Y-5440000D02*
X4410000Y-5480000D01*
X4420000Y-6720000D02*
X4460000Y-6760000D01*
X4460000Y-6720000D02*
X4420000Y-6760000D01*
X4550000Y-3850000D02*
X4590000Y-3890000D01*
X4590000Y-3850000D02*
X4550000Y-3890000D01*
X4551000Y-5109000D02*
X4591000Y-5149000D01*
X4591000Y-5109000D02*
X4551000Y-5149000D01*
X4706000Y-4456000D02*
X4746000Y-4496000D01*
X4746000Y-4456000D02*
X4706000Y-4496000D01*
X4710000Y-3990000D02*
X4750000Y-4030000D01*
X4750000Y-3990000D02*
X4710000Y-4030000D01*
X4792355Y-6646840D02*
X4832355Y-6686840D01*
X4832355Y-6646840D02*
X4792355Y-6686840D01*
X4880000Y-4810000D02*
X4920000Y-4850000D01*
X4920000Y-4810000D02*
X4880000Y-4850000D01*
X4990000Y-5110000D02*
X5030000Y-5150000D01*
X5030000Y-5110000D02*
X4990000Y-5150000D01*
X5030000Y-5480000D02*
X5070000Y-5520000D01*
X5070000Y-5480000D02*
X5030000Y-5520000D01*
X5042527Y-6579950D02*
X5082527Y-6619950D01*
X5082527Y-6579950D02*
X5042527Y-6619950D01*
X5370000Y-2550000D02*
X5410000Y-2590000D01*
X5410000Y-2550000D02*
X5370000Y-2590000D01*
X5430000Y-4450000D02*
X5470000Y-4490000D01*
X5470000Y-4450000D02*
X5430000Y-4490000D01*
X5440000Y-5300000D02*
X5480000Y-5340000D01*
X5480000Y-5300000D02*
X5440000Y-5340000D01*
X5560000Y-6480000D02*
X5600000Y-6520000D01*
X5600000Y-6480000D02*
X5560000Y-6520000D01*
X5720000Y-3850000D02*
X5760000Y-3890000D01*
X5760000Y-3850000D02*
X5720000Y-3890000D01*
X5850000Y-6590000D02*
X5890000Y-6630000D01*
X5890000Y-6590000D02*
X5850000Y-6630000D01*
X5940000Y-3990000D02*
X5980000Y-4030000D01*
X5980000Y-3990000D02*
X5940000Y-4030000D01*
X6050000Y-4690000D02*
X6090000Y-4730000D01*
X6090000Y-4690000D02*
X6050000Y-4730000D01*
X6380000Y-2770000D02*
X6420000Y-2810000D01*
X6420000Y-2770000D02*
X6380000Y-2810000D01*
X6380000Y-6120000D02*
X6420000Y-6160000D01*
X6420000Y-6120000D02*
X6380000Y-6160000D01*
X6410000Y-5790000D02*
X6450000Y-5830000D01*
X6450000Y-5790000D02*
X6410000Y-5830000D01*
X6600000Y-3850000D02*
X6640000Y-3890000D01*
X6640000Y-3850000D02*
X6600000Y-3890000D01*
X6710000Y-6230000D02*
X6750000Y-6270000D01*
X6750000Y-6230000D02*
X6710000Y-6270000D01*
X6930000Y-5510000D02*
X6970000Y-5550000D01*
X6970000Y-5510000D02*
X6930000Y-5550000D01*
X6960000Y-3990000D02*
X7000000Y-4030000D01*
X7000000Y-3990000D02*
X6960000Y-4030000D01*
X7060000Y-3870000D02*
X7100000Y-3910000D01*
X7100000Y-3870000D02*
X7060000Y-3910000D01*
X7560000Y-4000000D02*
X7600000Y-4040000D01*
X7600000Y-4000000D02*
X7560000Y-4040000D01*
D13*
X4652000Y-6900000D02*
G75*
G03*
X4652000Y-6900000I-50000J0D01*
G01*
X4906000Y-6900000D02*
G75*
G03*
X4906000Y-6900000I-50000J0D01*
G01*
X5160000Y-6900000D02*
G75*
G03*
X5160000Y-6900000I-50000J0D01*
G01*
X5532000Y-6900000D02*
G75*
G03*
X5532000Y-6900000I-50000J0D01*
G01*
X5786000Y-6900000D02*
G75*
G03*
X5786000Y-6900000I-50000J0D01*
G01*
X6040000Y-6900000D02*
G75*
G03*
X6040000Y-6900000I-50000J0D01*
G01*
D11*
X3092619Y-7415476D02*
X3092619Y-7215476D01*
X3140238Y-7215476D01*
X3168809Y-7225000D01*
X3187857Y-7244048D01*
X3197381Y-7263095D01*
X3206905Y-7301190D01*
X3206905Y-7329762D01*
X3197381Y-7367857D01*
X3187857Y-7386905D01*
X3168809Y-7405952D01*
X3140238Y-7415476D01*
X3092619Y-7415476D01*
X3292619Y-7415476D02*
X3292619Y-7282143D01*
X3292619Y-7320238D02*
X3302143Y-7301190D01*
X3311667Y-7291667D01*
X3330714Y-7282143D01*
X3349762Y-7282143D01*
X3416428Y-7415476D02*
X3416428Y-7282143D01*
X3416428Y-7215476D02*
X3406905Y-7225000D01*
X3416428Y-7234524D01*
X3425952Y-7225000D01*
X3416428Y-7215476D01*
X3416428Y-7234524D01*
X3540238Y-7415476D02*
X3521190Y-7405952D01*
X3511667Y-7386905D01*
X3511667Y-7215476D01*
X3645000Y-7415476D02*
X3625952Y-7405952D01*
X3616428Y-7386905D01*
X3616428Y-7215476D01*
X3873571Y-7415476D02*
X3873571Y-7215476D01*
X3940238Y-7358333D01*
X4006905Y-7215476D01*
X4006905Y-7415476D01*
X4187857Y-7415476D02*
X4187857Y-7310714D01*
X4178333Y-7291667D01*
X4159286Y-7282143D01*
X4121190Y-7282143D01*
X4102143Y-7291667D01*
X4187857Y-7405952D02*
X4168809Y-7415476D01*
X4121190Y-7415476D01*
X4102143Y-7405952D01*
X4092619Y-7386905D01*
X4092619Y-7367857D01*
X4102143Y-7348809D01*
X4121190Y-7339286D01*
X4168809Y-7339286D01*
X4187857Y-7329762D01*
X4283095Y-7282143D02*
X4283095Y-7482143D01*
X4283095Y-7291667D02*
X4302143Y-7282143D01*
X4340238Y-7282143D01*
X4359286Y-7291667D01*
X4368810Y-7301190D01*
X4378333Y-7320238D01*
X4378333Y-7377381D01*
X4368810Y-7396428D01*
X4359286Y-7405952D01*
X4340238Y-7415476D01*
X4302143Y-7415476D01*
X4283095Y-7405952D01*
X4464048Y-7396428D02*
X4473571Y-7405952D01*
X4464048Y-7415476D01*
X4454524Y-7405952D01*
X4464048Y-7396428D01*
X4464048Y-7415476D01*
X4464048Y-7291667D02*
X4473571Y-7301190D01*
X4464048Y-7310714D01*
X4454524Y-7301190D01*
X4464048Y-7291667D01*
X4464048Y-7310714D01*
D12*
X2795000Y-7725000D02*
X2835000Y-7765000D01*
X2835000Y-7725000D02*
X2795000Y-7765000D01*
D11*
X3130714Y-7635476D02*
X3149762Y-7635476D01*
X3168809Y-7645000D01*
X3178333Y-7654524D01*
X3187857Y-7673571D01*
X3197381Y-7711667D01*
X3197381Y-7759286D01*
X3187857Y-7797381D01*
X3178333Y-7816428D01*
X3168809Y-7825952D01*
X3149762Y-7835476D01*
X3130714Y-7835476D01*
X3111667Y-7825952D01*
X3102143Y-7816428D01*
X3092619Y-7797381D01*
X3083095Y-7759286D01*
X3083095Y-7711667D01*
X3092619Y-7673571D01*
X3102143Y-7654524D01*
X3111667Y-7645000D01*
X3130714Y-7635476D01*
X3283095Y-7816428D02*
X3292619Y-7825952D01*
X3283095Y-7835476D01*
X3273571Y-7825952D01*
X3283095Y-7816428D01*
X3283095Y-7835476D01*
X3464048Y-7702143D02*
X3464048Y-7835476D01*
X3416428Y-7625952D02*
X3368809Y-7768809D01*
X3492619Y-7768809D01*
X3606905Y-7635476D02*
X3625952Y-7635476D01*
X3645000Y-7645000D01*
X3654524Y-7654524D01*
X3664048Y-7673571D01*
X3673571Y-7711667D01*
X3673571Y-7759286D01*
X3664048Y-7797381D01*
X3654524Y-7816428D01*
X3645000Y-7825952D01*
X3625952Y-7835476D01*
X3606905Y-7835476D01*
X3587857Y-7825952D01*
X3578333Y-7816428D01*
X3568809Y-7797381D01*
X3559286Y-7759286D01*
X3559286Y-7711667D01*
X3568809Y-7673571D01*
X3578333Y-7654524D01*
X3587857Y-7645000D01*
X3606905Y-7635476D01*
X3797381Y-7635476D02*
X3816428Y-7635476D01*
X3835476Y-7645000D01*
X3845000Y-7654524D01*
X3854524Y-7673571D01*
X3864048Y-7711667D01*
X3864048Y-7759286D01*
X3854524Y-7797381D01*
X3845000Y-7816428D01*
X3835476Y-7825952D01*
X3816428Y-7835476D01*
X3797381Y-7835476D01*
X3778333Y-7825952D01*
X3768809Y-7816428D01*
X3759286Y-7797381D01*
X3749762Y-7759286D01*
X3749762Y-7711667D01*
X3759286Y-7673571D01*
X3768809Y-7654524D01*
X3778333Y-7645000D01*
X3797381Y-7635476D01*
X3949762Y-7835476D02*
X3949762Y-7702143D01*
X3949762Y-7721190D02*
X3959286Y-7711667D01*
X3978333Y-7702143D01*
X4006905Y-7702143D01*
X4025952Y-7711667D01*
X4035476Y-7730714D01*
X4035476Y-7835476D01*
X4035476Y-7730714D02*
X4045000Y-7711667D01*
X4064048Y-7702143D01*
X4092619Y-7702143D01*
X4111667Y-7711667D01*
X4121190Y-7730714D01*
X4121190Y-7835476D01*
X4216429Y-7835476D02*
X4216429Y-7702143D01*
X4216429Y-7721190D02*
X4225952Y-7711667D01*
X4245000Y-7702143D01*
X4273571Y-7702143D01*
X4292619Y-7711667D01*
X4302143Y-7730714D01*
X4302143Y-7835476D01*
X4302143Y-7730714D02*
X4311667Y-7711667D01*
X4330714Y-7702143D01*
X4359286Y-7702143D01*
X4378333Y-7711667D01*
X4387857Y-7730714D01*
X4387857Y-7835476D01*
X4778333Y-7625952D02*
X4606905Y-7883095D01*
X5035476Y-7635476D02*
X5054524Y-7635476D01*
X5073571Y-7645000D01*
X5083095Y-7654524D01*
X5092619Y-7673571D01*
X5102143Y-7711667D01*
X5102143Y-7759286D01*
X5092619Y-7797381D01*
X5083095Y-7816428D01*
X5073571Y-7825952D01*
X5054524Y-7835476D01*
X5035476Y-7835476D01*
X5016429Y-7825952D01*
X5006905Y-7816428D01*
X4997381Y-7797381D01*
X4987857Y-7759286D01*
X4987857Y-7711667D01*
X4997381Y-7673571D01*
X5006905Y-7654524D01*
X5016429Y-7645000D01*
X5035476Y-7635476D01*
X5187857Y-7816428D02*
X5197381Y-7825952D01*
X5187857Y-7835476D01*
X5178333Y-7825952D01*
X5187857Y-7816428D01*
X5187857Y-7835476D01*
X5321190Y-7635476D02*
X5340238Y-7635476D01*
X5359286Y-7645000D01*
X5368810Y-7654524D01*
X5378333Y-7673571D01*
X5387857Y-7711667D01*
X5387857Y-7759286D01*
X5378333Y-7797381D01*
X5368810Y-7816428D01*
X5359286Y-7825952D01*
X5340238Y-7835476D01*
X5321190Y-7835476D01*
X5302143Y-7825952D01*
X5292619Y-7816428D01*
X5283095Y-7797381D01*
X5273571Y-7759286D01*
X5273571Y-7711667D01*
X5283095Y-7673571D01*
X5292619Y-7654524D01*
X5302143Y-7645000D01*
X5321190Y-7635476D01*
X5578333Y-7835476D02*
X5464048Y-7835476D01*
X5521190Y-7835476D02*
X5521190Y-7635476D01*
X5502143Y-7664048D01*
X5483095Y-7683095D01*
X5464048Y-7692619D01*
X5759286Y-7635476D02*
X5664048Y-7635476D01*
X5654524Y-7730714D01*
X5664048Y-7721190D01*
X5683095Y-7711667D01*
X5730714Y-7711667D01*
X5749762Y-7721190D01*
X5759286Y-7730714D01*
X5768809Y-7749762D01*
X5768809Y-7797381D01*
X5759286Y-7816428D01*
X5749762Y-7825952D01*
X5730714Y-7835476D01*
X5683095Y-7835476D01*
X5664048Y-7825952D01*
X5654524Y-7816428D01*
X5835476Y-7635476D02*
X5968809Y-7635476D01*
X5883095Y-7835476D01*
X6035476Y-7635476D02*
X6035476Y-7673571D01*
X6111667Y-7635476D02*
X6111667Y-7673571D01*
X6406905Y-7911667D02*
X6397381Y-7902143D01*
X6378333Y-7873571D01*
X6368809Y-7854524D01*
X6359286Y-7825952D01*
X6349762Y-7778333D01*
X6349762Y-7740238D01*
X6359286Y-7692619D01*
X6368809Y-7664048D01*
X6378333Y-7645000D01*
X6397381Y-7616428D01*
X6406905Y-7606905D01*
X6464048Y-7635476D02*
X6587857Y-7635476D01*
X6521190Y-7711667D01*
X6549762Y-7711667D01*
X6568809Y-7721190D01*
X6578333Y-7730714D01*
X6587857Y-7749762D01*
X6587857Y-7797381D01*
X6578333Y-7816428D01*
X6568809Y-7825952D01*
X6549762Y-7835476D01*
X6492619Y-7835476D01*
X6473571Y-7825952D01*
X6464048Y-7816428D01*
X6702143Y-7721190D02*
X6683095Y-7711667D01*
X6673571Y-7702143D01*
X6664048Y-7683095D01*
X6664048Y-7673571D01*
X6673571Y-7654524D01*
X6683095Y-7645000D01*
X6702143Y-7635476D01*
X6740238Y-7635476D01*
X6759286Y-7645000D01*
X6768809Y-7654524D01*
X6778333Y-7673571D01*
X6778333Y-7683095D01*
X6768809Y-7702143D01*
X6759286Y-7711667D01*
X6740238Y-7721190D01*
X6702143Y-7721190D01*
X6683095Y-7730714D01*
X6673571Y-7740238D01*
X6664048Y-7759286D01*
X6664048Y-7797381D01*
X6673571Y-7816428D01*
X6683095Y-7825952D01*
X6702143Y-7835476D01*
X6740238Y-7835476D01*
X6759286Y-7825952D01*
X6768809Y-7816428D01*
X6778333Y-7797381D01*
X6778333Y-7759286D01*
X6768809Y-7740238D01*
X6759286Y-7730714D01*
X6740238Y-7721190D01*
X7016428Y-7835476D02*
X7016428Y-7635476D01*
X7102143Y-7835476D02*
X7102143Y-7730714D01*
X7092619Y-7711667D01*
X7073571Y-7702143D01*
X7045000Y-7702143D01*
X7025952Y-7711667D01*
X7016428Y-7721190D01*
X7225952Y-7835476D02*
X7206905Y-7825952D01*
X7197381Y-7816428D01*
X7187857Y-7797381D01*
X7187857Y-7740238D01*
X7197381Y-7721190D01*
X7206905Y-7711667D01*
X7225952Y-7702143D01*
X7254524Y-7702143D01*
X7273571Y-7711667D01*
X7283095Y-7721190D01*
X7292619Y-7740238D01*
X7292619Y-7797381D01*
X7283095Y-7816428D01*
X7273571Y-7825952D01*
X7254524Y-7835476D01*
X7225952Y-7835476D01*
X7406905Y-7835476D02*
X7387857Y-7825952D01*
X7378333Y-7806905D01*
X7378333Y-7635476D01*
X7559286Y-7825952D02*
X7540238Y-7835476D01*
X7502143Y-7835476D01*
X7483095Y-7825952D01*
X7473571Y-7806905D01*
X7473571Y-7730714D01*
X7483095Y-7711667D01*
X7502143Y-7702143D01*
X7540238Y-7702143D01*
X7559286Y-7711667D01*
X7568809Y-7730714D01*
X7568809Y-7749762D01*
X7473571Y-7768809D01*
X7645000Y-7825952D02*
X7664048Y-7835476D01*
X7702143Y-7835476D01*
X7721190Y-7825952D01*
X7730714Y-7806905D01*
X7730714Y-7797381D01*
X7721190Y-7778333D01*
X7702143Y-7768809D01*
X7673571Y-7768809D01*
X7654524Y-7759286D01*
X7645000Y-7740238D01*
X7645000Y-7730714D01*
X7654524Y-7711667D01*
X7673571Y-7702143D01*
X7702143Y-7702143D01*
X7721190Y-7711667D01*
X7797381Y-7911667D02*
X7806905Y-7902143D01*
X7825952Y-7873571D01*
X7835476Y-7854524D01*
X7845000Y-7825952D01*
X7854524Y-7778333D01*
X7854524Y-7740238D01*
X7845000Y-7692619D01*
X7835476Y-7664048D01*
X7825952Y-7645000D01*
X7806905Y-7616428D01*
X7797381Y-7606905D01*
D13*
X2835000Y-8009000D02*
G75*
G03*
X2835000Y-8009000I-50000J0D01*
G01*
D11*
X3197381Y-8099476D02*
X3083095Y-8099476D01*
X3140238Y-8099476D02*
X3140238Y-7899476D01*
X3121190Y-7928048D01*
X3102143Y-7947095D01*
X3083095Y-7956619D01*
X3283095Y-8080428D02*
X3292619Y-8089952D01*
X3283095Y-8099476D01*
X3273571Y-8089952D01*
X3283095Y-8080428D01*
X3283095Y-8099476D01*
X3416428Y-7899476D02*
X3435476Y-7899476D01*
X3454524Y-7909000D01*
X3464048Y-7918524D01*
X3473571Y-7937571D01*
X3483095Y-7975667D01*
X3483095Y-8023286D01*
X3473571Y-8061381D01*
X3464048Y-8080428D01*
X3454524Y-8089952D01*
X3435476Y-8099476D01*
X3416428Y-8099476D01*
X3397381Y-8089952D01*
X3387857Y-8080428D01*
X3378333Y-8061381D01*
X3368809Y-8023286D01*
X3368809Y-7975667D01*
X3378333Y-7937571D01*
X3387857Y-7918524D01*
X3397381Y-7909000D01*
X3416428Y-7899476D01*
X3606905Y-7899476D02*
X3625952Y-7899476D01*
X3645000Y-7909000D01*
X3654524Y-7918524D01*
X3664048Y-7937571D01*
X3673571Y-7975667D01*
X3673571Y-8023286D01*
X3664048Y-8061381D01*
X3654524Y-8080428D01*
X3645000Y-8089952D01*
X3625952Y-8099476D01*
X3606905Y-8099476D01*
X3587857Y-8089952D01*
X3578333Y-8080428D01*
X3568809Y-8061381D01*
X3559286Y-8023286D01*
X3559286Y-7975667D01*
X3568809Y-7937571D01*
X3578333Y-7918524D01*
X3587857Y-7909000D01*
X3606905Y-7899476D01*
X3797381Y-7899476D02*
X3816428Y-7899476D01*
X3835476Y-7909000D01*
X3845000Y-7918524D01*
X3854524Y-7937571D01*
X3864048Y-7975667D01*
X3864048Y-8023286D01*
X3854524Y-8061381D01*
X3845000Y-8080428D01*
X3835476Y-8089952D01*
X3816428Y-8099476D01*
X3797381Y-8099476D01*
X3778333Y-8089952D01*
X3768809Y-8080428D01*
X3759286Y-8061381D01*
X3749762Y-8023286D01*
X3749762Y-7975667D01*
X3759286Y-7937571D01*
X3768809Y-7918524D01*
X3778333Y-7909000D01*
X3797381Y-7899476D01*
X3949762Y-8099476D02*
X3949762Y-7966143D01*
X3949762Y-7985190D02*
X3959286Y-7975667D01*
X3978333Y-7966143D01*
X4006905Y-7966143D01*
X4025952Y-7975667D01*
X4035476Y-7994714D01*
X4035476Y-8099476D01*
X4035476Y-7994714D02*
X4045000Y-7975667D01*
X4064048Y-7966143D01*
X4092619Y-7966143D01*
X4111667Y-7975667D01*
X4121190Y-7994714D01*
X4121190Y-8099476D01*
X4216429Y-8099476D02*
X4216429Y-7966143D01*
X4216429Y-7985190D02*
X4225952Y-7975667D01*
X4245000Y-7966143D01*
X4273571Y-7966143D01*
X4292619Y-7975667D01*
X4302143Y-7994714D01*
X4302143Y-8099476D01*
X4302143Y-7994714D02*
X4311667Y-7975667D01*
X4330714Y-7966143D01*
X4359286Y-7966143D01*
X4378333Y-7975667D01*
X4387857Y-7994714D01*
X4387857Y-8099476D01*
X4778333Y-7889952D02*
X4606905Y-8147095D01*
X5035476Y-7899476D02*
X5054524Y-7899476D01*
X5073571Y-7909000D01*
X5083095Y-7918524D01*
X5092619Y-7937571D01*
X5102143Y-7975667D01*
X5102143Y-8023286D01*
X5092619Y-8061381D01*
X5083095Y-8080428D01*
X5073571Y-8089952D01*
X5054524Y-8099476D01*
X5035476Y-8099476D01*
X5016429Y-8089952D01*
X5006905Y-8080428D01*
X4997381Y-8061381D01*
X4987857Y-8023286D01*
X4987857Y-7975667D01*
X4997381Y-7937571D01*
X5006905Y-7918524D01*
X5016429Y-7909000D01*
X5035476Y-7899476D01*
X5187857Y-8080428D02*
X5197381Y-8089952D01*
X5187857Y-8099476D01*
X5178333Y-8089952D01*
X5187857Y-8080428D01*
X5187857Y-8099476D01*
X5321190Y-7899476D02*
X5340238Y-7899476D01*
X5359286Y-7909000D01*
X5368810Y-7918524D01*
X5378333Y-7937571D01*
X5387857Y-7975667D01*
X5387857Y-8023286D01*
X5378333Y-8061381D01*
X5368810Y-8080428D01*
X5359286Y-8089952D01*
X5340238Y-8099476D01*
X5321190Y-8099476D01*
X5302143Y-8089952D01*
X5292619Y-8080428D01*
X5283095Y-8061381D01*
X5273571Y-8023286D01*
X5273571Y-7975667D01*
X5283095Y-7937571D01*
X5292619Y-7918524D01*
X5302143Y-7909000D01*
X5321190Y-7899476D01*
X5454524Y-7899476D02*
X5578333Y-7899476D01*
X5511667Y-7975667D01*
X5540238Y-7975667D01*
X5559286Y-7985190D01*
X5568810Y-7994714D01*
X5578333Y-8013762D01*
X5578333Y-8061381D01*
X5568810Y-8080428D01*
X5559286Y-8089952D01*
X5540238Y-8099476D01*
X5483095Y-8099476D01*
X5464048Y-8089952D01*
X5454524Y-8080428D01*
X5673571Y-8099476D02*
X5711667Y-8099476D01*
X5730714Y-8089952D01*
X5740238Y-8080428D01*
X5759286Y-8051857D01*
X5768809Y-8013762D01*
X5768809Y-7937571D01*
X5759286Y-7918524D01*
X5749762Y-7909000D01*
X5730714Y-7899476D01*
X5692619Y-7899476D01*
X5673571Y-7909000D01*
X5664048Y-7918524D01*
X5654524Y-7937571D01*
X5654524Y-7985190D01*
X5664048Y-8004238D01*
X5673571Y-8013762D01*
X5692619Y-8023286D01*
X5730714Y-8023286D01*
X5749762Y-8013762D01*
X5759286Y-8004238D01*
X5768809Y-7985190D01*
X5940238Y-7966143D02*
X5940238Y-8099476D01*
X5892619Y-7889952D02*
X5845000Y-8032809D01*
X5968809Y-8032809D01*
X6035476Y-7899476D02*
X6035476Y-7937571D01*
X6111667Y-7899476D02*
X6111667Y-7937571D01*
X6406905Y-8175667D02*
X6397381Y-8166143D01*
X6378333Y-8137571D01*
X6368809Y-8118524D01*
X6359286Y-8089952D01*
X6349762Y-8042333D01*
X6349762Y-8004238D01*
X6359286Y-7956619D01*
X6368809Y-7928048D01*
X6378333Y-7909000D01*
X6397381Y-7880428D01*
X6406905Y-7870905D01*
X6568809Y-7899476D02*
X6530714Y-7899476D01*
X6511667Y-7909000D01*
X6502143Y-7918524D01*
X6483095Y-7947095D01*
X6473571Y-7985190D01*
X6473571Y-8061381D01*
X6483095Y-8080428D01*
X6492619Y-8089952D01*
X6511667Y-8099476D01*
X6549762Y-8099476D01*
X6568809Y-8089952D01*
X6578333Y-8080428D01*
X6587857Y-8061381D01*
X6587857Y-8013762D01*
X6578333Y-7994714D01*
X6568809Y-7985190D01*
X6549762Y-7975667D01*
X6511667Y-7975667D01*
X6492619Y-7985190D01*
X6483095Y-7994714D01*
X6473571Y-8013762D01*
X6825952Y-8099476D02*
X6825952Y-7899476D01*
X6911667Y-8099476D02*
X6911667Y-7994714D01*
X6902143Y-7975667D01*
X6883095Y-7966143D01*
X6854524Y-7966143D01*
X6835476Y-7975667D01*
X6825952Y-7985190D01*
X7035476Y-8099476D02*
X7016428Y-8089952D01*
X7006905Y-8080428D01*
X6997381Y-8061381D01*
X6997381Y-8004238D01*
X7006905Y-7985190D01*
X7016428Y-7975667D01*
X7035476Y-7966143D01*
X7064048Y-7966143D01*
X7083095Y-7975667D01*
X7092619Y-7985190D01*
X7102143Y-8004238D01*
X7102143Y-8061381D01*
X7092619Y-8080428D01*
X7083095Y-8089952D01*
X7064048Y-8099476D01*
X7035476Y-8099476D01*
X7216428Y-8099476D02*
X7197381Y-8089952D01*
X7187857Y-8070905D01*
X7187857Y-7899476D01*
X7368809Y-8089952D02*
X7349762Y-8099476D01*
X7311667Y-8099476D01*
X7292619Y-8089952D01*
X7283095Y-8070905D01*
X7283095Y-7994714D01*
X7292619Y-7975667D01*
X7311667Y-7966143D01*
X7349762Y-7966143D01*
X7368809Y-7975667D01*
X7378333Y-7994714D01*
X7378333Y-8013762D01*
X7283095Y-8032809D01*
X7454524Y-8089952D02*
X7473571Y-8099476D01*
X7511667Y-8099476D01*
X7530714Y-8089952D01*
X7540238Y-8070905D01*
X7540238Y-8061381D01*
X7530714Y-8042333D01*
X7511667Y-8032809D01*
X7483095Y-8032809D01*
X7464048Y-8023286D01*
X7454524Y-8004238D01*
X7454524Y-7994714D01*
X7464048Y-7975667D01*
X7483095Y-7966143D01*
X7511667Y-7966143D01*
X7530714Y-7975667D01*
X7606905Y-8175667D02*
X7616428Y-8166143D01*
X7635476Y-8137571D01*
X7645000Y-8118524D01*
X7654524Y-8089952D01*
X7664048Y-8042333D01*
X7664048Y-8004238D01*
X7654524Y-7956619D01*
X7645000Y-7928048D01*
X7635476Y-7909000D01*
X7616428Y-7880428D01*
X7606905Y-7870905D01*
M02*
