M48
; DRILL file {KiCad 6.0.4-6f826c9f35~116~ubuntu20.04.1} date Fri 29 Apr 2022 09:51:41 PM MDT
; FORMAT={-:-/ absolute / metric / decimal}
; #@! TF.CreationDate,2022-04-29T21:51:41-06:00
; #@! TF.GenerationSoftware,Kicad,Pcbnew,6.0.4-6f826c9f35~116~ubuntu20.04.1
; #@! TF.FileFunction,Plated,1,2,PTH
FMAT,2
METRIC
; #@! TA.AperFunction,Plated,PTH,ViaDrill
T1C0.400
; #@! TA.AperFunction,Plated,PTH,ComponentDrill
T2C1.000
%
G90
G05
T1
X30.4Y-46.9
X30.5Y-50.9
X31.2Y-41.8
X32.201Y-39.1
X37.5Y-39.9
X39.7Y-53.3
X40.2Y-28.5
X41.4Y-65.3
X41.4Y-67.7
X43.2Y-66.1
X44.3Y-54.6
X44.4Y-67.4
X45.7Y-38.7
X45.71Y-51.29
X47.26Y-44.76
X47.3Y-40.1
X48.124Y-66.668
X49.0Y-48.3
X50.1Y-51.3
X50.5Y-55.0
X50.625Y-65.999
X53.9Y-25.7
X54.5Y-44.7
X54.6Y-53.2
X55.8Y-65.0
X57.4Y-38.7
X58.7Y-66.1
X59.6Y-40.1
X60.7Y-47.1
X64.0Y-27.9
X64.0Y-61.4
X64.3Y-58.1
X66.2Y-38.7
X67.3Y-62.5
X69.5Y-55.3
X69.8Y-40.1
X70.8Y-38.9
X75.8Y-40.2
T2
X46.02Y-69.0
X48.56Y-69.0
X51.1Y-69.0
X54.82Y-69.0
X57.36Y-69.0
X59.9Y-69.0
T0
M30
