%FSLAX45Y45*%
G04 Gerber Fmt 4.5, Leading zero omitted, Abs format (unit mm)*
G04 Created by KiCad (PCBNEW 6.0.4-6f826c9f35~116~ubuntu20.04.1) date 2022-04-29 21:51:41*
%MOMM*%
%LPD*%
G01*
G04 APERTURE LIST*
%TA.AperFunction,Profile*%
%ADD10C,0.100000*%
%TD*%
%ADD11C,0.200000*%
%ADD12C,0.320000*%
G04 APERTURE END LIST*
D10*
X6195000Y-2420000D02*
X7225000Y-3090000D01*
X7225000Y-3090000D02*
X7755000Y-4180000D01*
X7755000Y-4180000D02*
X7755000Y-4960000D01*
X7755000Y-4960000D02*
X6785000Y-7100000D01*
X4400000Y-2420000D02*
X6195000Y-2420000D01*
X3370000Y-3090000D02*
X4400000Y-2420000D01*
X2840000Y-4180000D02*
X3370000Y-3090000D01*
X2840000Y-4960000D02*
X2840000Y-4180000D01*
X3810000Y-7100000D02*
X2840000Y-4960000D01*
X6785000Y-7100000D02*
X3810000Y-7100000D01*
D11*
D12*
X3750000Y-4240000D02*
X4070000Y-4560000D01*
X4070000Y-4240000D02*
X3750000Y-4560000D01*
X5150000Y-5890000D02*
X5470000Y-6210000D01*
X5470000Y-5890000D02*
X5150000Y-6210000D01*
X6520000Y-4240000D02*
X6840000Y-4560000D01*
X6840000Y-4240000D02*
X6520000Y-4560000D01*
D11*
X3092619Y-7415476D02*
X3092619Y-7215476D01*
X3140238Y-7215476D01*
X3168809Y-7225000D01*
X3187857Y-7244048D01*
X3197381Y-7263095D01*
X3206905Y-7301190D01*
X3206905Y-7329762D01*
X3197381Y-7367857D01*
X3187857Y-7386905D01*
X3168809Y-7405952D01*
X3140238Y-7415476D01*
X3092619Y-7415476D01*
X3292619Y-7415476D02*
X3292619Y-7282143D01*
X3292619Y-7320238D02*
X3302143Y-7301190D01*
X3311667Y-7291667D01*
X3330714Y-7282143D01*
X3349762Y-7282143D01*
X3416428Y-7415476D02*
X3416428Y-7282143D01*
X3416428Y-7215476D02*
X3406905Y-7225000D01*
X3416428Y-7234524D01*
X3425952Y-7225000D01*
X3416428Y-7215476D01*
X3416428Y-7234524D01*
X3540238Y-7415476D02*
X3521190Y-7405952D01*
X3511667Y-7386905D01*
X3511667Y-7215476D01*
X3645000Y-7415476D02*
X3625952Y-7405952D01*
X3616428Y-7386905D01*
X3616428Y-7215476D01*
X3873571Y-7415476D02*
X3873571Y-7215476D01*
X3940238Y-7358333D01*
X4006905Y-7215476D01*
X4006905Y-7415476D01*
X4187857Y-7415476D02*
X4187857Y-7310714D01*
X4178333Y-7291667D01*
X4159286Y-7282143D01*
X4121190Y-7282143D01*
X4102143Y-7291667D01*
X4187857Y-7405952D02*
X4168809Y-7415476D01*
X4121190Y-7415476D01*
X4102143Y-7405952D01*
X4092619Y-7386905D01*
X4092619Y-7367857D01*
X4102143Y-7348809D01*
X4121190Y-7339286D01*
X4168809Y-7339286D01*
X4187857Y-7329762D01*
X4283095Y-7282143D02*
X4283095Y-7482143D01*
X4283095Y-7291667D02*
X4302143Y-7282143D01*
X4340238Y-7282143D01*
X4359286Y-7291667D01*
X4368810Y-7301190D01*
X4378333Y-7320238D01*
X4378333Y-7377381D01*
X4368810Y-7396428D01*
X4359286Y-7405952D01*
X4340238Y-7415476D01*
X4302143Y-7415476D01*
X4283095Y-7405952D01*
X4464048Y-7396428D02*
X4473571Y-7405952D01*
X4464048Y-7415476D01*
X4454524Y-7405952D01*
X4464048Y-7396428D01*
X4464048Y-7415476D01*
X4464048Y-7291667D02*
X4473571Y-7301190D01*
X4464048Y-7310714D01*
X4454524Y-7301190D01*
X4464048Y-7291667D01*
X4464048Y-7310714D01*
X2635000Y-7645000D02*
X2835000Y-7845000D01*
X2835000Y-7645000D02*
X2635000Y-7845000D01*
X3073571Y-7635476D02*
X3197381Y-7635476D01*
X3130714Y-7711667D01*
X3159286Y-7711667D01*
X3178333Y-7721190D01*
X3187857Y-7730714D01*
X3197381Y-7749762D01*
X3197381Y-7797381D01*
X3187857Y-7816428D01*
X3178333Y-7825952D01*
X3159286Y-7835476D01*
X3102143Y-7835476D01*
X3083095Y-7825952D01*
X3073571Y-7816428D01*
X3283095Y-7816428D02*
X3292619Y-7825952D01*
X3283095Y-7835476D01*
X3273571Y-7825952D01*
X3283095Y-7816428D01*
X3283095Y-7835476D01*
X3368809Y-7654524D02*
X3378333Y-7645000D01*
X3397381Y-7635476D01*
X3445000Y-7635476D01*
X3464048Y-7645000D01*
X3473571Y-7654524D01*
X3483095Y-7673571D01*
X3483095Y-7692619D01*
X3473571Y-7721190D01*
X3359286Y-7835476D01*
X3483095Y-7835476D01*
X3606905Y-7635476D02*
X3625952Y-7635476D01*
X3645000Y-7645000D01*
X3654524Y-7654524D01*
X3664048Y-7673571D01*
X3673571Y-7711667D01*
X3673571Y-7759286D01*
X3664048Y-7797381D01*
X3654524Y-7816428D01*
X3645000Y-7825952D01*
X3625952Y-7835476D01*
X3606905Y-7835476D01*
X3587857Y-7825952D01*
X3578333Y-7816428D01*
X3568809Y-7797381D01*
X3559286Y-7759286D01*
X3559286Y-7711667D01*
X3568809Y-7673571D01*
X3578333Y-7654524D01*
X3587857Y-7645000D01*
X3606905Y-7635476D01*
X3797381Y-7635476D02*
X3816428Y-7635476D01*
X3835476Y-7645000D01*
X3845000Y-7654524D01*
X3854524Y-7673571D01*
X3864048Y-7711667D01*
X3864048Y-7759286D01*
X3854524Y-7797381D01*
X3845000Y-7816428D01*
X3835476Y-7825952D01*
X3816428Y-7835476D01*
X3797381Y-7835476D01*
X3778333Y-7825952D01*
X3768809Y-7816428D01*
X3759286Y-7797381D01*
X3749762Y-7759286D01*
X3749762Y-7711667D01*
X3759286Y-7673571D01*
X3768809Y-7654524D01*
X3778333Y-7645000D01*
X3797381Y-7635476D01*
X3949762Y-7835476D02*
X3949762Y-7702143D01*
X3949762Y-7721190D02*
X3959286Y-7711667D01*
X3978333Y-7702143D01*
X4006905Y-7702143D01*
X4025952Y-7711667D01*
X4035476Y-7730714D01*
X4035476Y-7835476D01*
X4035476Y-7730714D02*
X4045000Y-7711667D01*
X4064048Y-7702143D01*
X4092619Y-7702143D01*
X4111667Y-7711667D01*
X4121190Y-7730714D01*
X4121190Y-7835476D01*
X4216429Y-7835476D02*
X4216429Y-7702143D01*
X4216429Y-7721190D02*
X4225952Y-7711667D01*
X4245000Y-7702143D01*
X4273571Y-7702143D01*
X4292619Y-7711667D01*
X4302143Y-7730714D01*
X4302143Y-7835476D01*
X4302143Y-7730714D02*
X4311667Y-7711667D01*
X4330714Y-7702143D01*
X4359286Y-7702143D01*
X4378333Y-7711667D01*
X4387857Y-7730714D01*
X4387857Y-7835476D01*
X4778333Y-7625952D02*
X4606905Y-7883095D01*
X5035476Y-7635476D02*
X5054524Y-7635476D01*
X5073571Y-7645000D01*
X5083095Y-7654524D01*
X5092619Y-7673571D01*
X5102143Y-7711667D01*
X5102143Y-7759286D01*
X5092619Y-7797381D01*
X5083095Y-7816428D01*
X5073571Y-7825952D01*
X5054524Y-7835476D01*
X5035476Y-7835476D01*
X5016429Y-7825952D01*
X5006905Y-7816428D01*
X4997381Y-7797381D01*
X4987857Y-7759286D01*
X4987857Y-7711667D01*
X4997381Y-7673571D01*
X5006905Y-7654524D01*
X5016429Y-7645000D01*
X5035476Y-7635476D01*
X5187857Y-7816428D02*
X5197381Y-7825952D01*
X5187857Y-7835476D01*
X5178333Y-7825952D01*
X5187857Y-7816428D01*
X5187857Y-7835476D01*
X5387857Y-7835476D02*
X5273571Y-7835476D01*
X5330714Y-7835476D02*
X5330714Y-7635476D01*
X5311667Y-7664048D01*
X5292619Y-7683095D01*
X5273571Y-7692619D01*
X5464048Y-7654524D02*
X5473571Y-7645000D01*
X5492619Y-7635476D01*
X5540238Y-7635476D01*
X5559286Y-7645000D01*
X5568810Y-7654524D01*
X5578333Y-7673571D01*
X5578333Y-7692619D01*
X5568810Y-7721190D01*
X5454524Y-7835476D01*
X5578333Y-7835476D01*
X5749762Y-7635476D02*
X5711667Y-7635476D01*
X5692619Y-7645000D01*
X5683095Y-7654524D01*
X5664048Y-7683095D01*
X5654524Y-7721190D01*
X5654524Y-7797381D01*
X5664048Y-7816428D01*
X5673571Y-7825952D01*
X5692619Y-7835476D01*
X5730714Y-7835476D01*
X5749762Y-7825952D01*
X5759286Y-7816428D01*
X5768809Y-7797381D01*
X5768809Y-7749762D01*
X5759286Y-7730714D01*
X5749762Y-7721190D01*
X5730714Y-7711667D01*
X5692619Y-7711667D01*
X5673571Y-7721190D01*
X5664048Y-7730714D01*
X5654524Y-7749762D01*
X5892619Y-7635476D02*
X5911667Y-7635476D01*
X5930714Y-7645000D01*
X5940238Y-7654524D01*
X5949762Y-7673571D01*
X5959286Y-7711667D01*
X5959286Y-7759286D01*
X5949762Y-7797381D01*
X5940238Y-7816428D01*
X5930714Y-7825952D01*
X5911667Y-7835476D01*
X5892619Y-7835476D01*
X5873571Y-7825952D01*
X5864048Y-7816428D01*
X5854524Y-7797381D01*
X5845000Y-7759286D01*
X5845000Y-7711667D01*
X5854524Y-7673571D01*
X5864048Y-7654524D01*
X5873571Y-7645000D01*
X5892619Y-7635476D01*
X6035476Y-7635476D02*
X6035476Y-7673571D01*
X6111667Y-7635476D02*
X6111667Y-7673571D01*
X6406905Y-7911667D02*
X6397381Y-7902143D01*
X6378333Y-7873571D01*
X6368809Y-7854524D01*
X6359286Y-7825952D01*
X6349762Y-7778333D01*
X6349762Y-7740238D01*
X6359286Y-7692619D01*
X6368809Y-7664048D01*
X6378333Y-7645000D01*
X6397381Y-7616428D01*
X6406905Y-7606905D01*
X6464048Y-7635476D02*
X6587857Y-7635476D01*
X6521190Y-7711667D01*
X6549762Y-7711667D01*
X6568809Y-7721190D01*
X6578333Y-7730714D01*
X6587857Y-7749762D01*
X6587857Y-7797381D01*
X6578333Y-7816428D01*
X6568809Y-7825952D01*
X6549762Y-7835476D01*
X6492619Y-7835476D01*
X6473571Y-7825952D01*
X6464048Y-7816428D01*
X6825952Y-7835476D02*
X6825952Y-7635476D01*
X6911667Y-7835476D02*
X6911667Y-7730714D01*
X6902143Y-7711667D01*
X6883095Y-7702143D01*
X6854524Y-7702143D01*
X6835476Y-7711667D01*
X6825952Y-7721190D01*
X7035476Y-7835476D02*
X7016428Y-7825952D01*
X7006905Y-7816428D01*
X6997381Y-7797381D01*
X6997381Y-7740238D01*
X7006905Y-7721190D01*
X7016428Y-7711667D01*
X7035476Y-7702143D01*
X7064048Y-7702143D01*
X7083095Y-7711667D01*
X7092619Y-7721190D01*
X7102143Y-7740238D01*
X7102143Y-7797381D01*
X7092619Y-7816428D01*
X7083095Y-7825952D01*
X7064048Y-7835476D01*
X7035476Y-7835476D01*
X7216428Y-7835476D02*
X7197381Y-7825952D01*
X7187857Y-7806905D01*
X7187857Y-7635476D01*
X7368809Y-7825952D02*
X7349762Y-7835476D01*
X7311667Y-7835476D01*
X7292619Y-7825952D01*
X7283095Y-7806905D01*
X7283095Y-7730714D01*
X7292619Y-7711667D01*
X7311667Y-7702143D01*
X7349762Y-7702143D01*
X7368809Y-7711667D01*
X7378333Y-7730714D01*
X7378333Y-7749762D01*
X7283095Y-7768809D01*
X7454524Y-7825952D02*
X7473571Y-7835476D01*
X7511667Y-7835476D01*
X7530714Y-7825952D01*
X7540238Y-7806905D01*
X7540238Y-7797381D01*
X7530714Y-7778333D01*
X7511667Y-7768809D01*
X7483095Y-7768809D01*
X7464048Y-7759286D01*
X7454524Y-7740238D01*
X7454524Y-7730714D01*
X7464048Y-7711667D01*
X7483095Y-7702143D01*
X7511667Y-7702143D01*
X7530714Y-7711667D01*
X7606905Y-7911667D02*
X7616428Y-7902143D01*
X7635476Y-7873571D01*
X7645000Y-7854524D01*
X7654524Y-7825952D01*
X7664048Y-7778333D01*
X7664048Y-7740238D01*
X7654524Y-7692619D01*
X7645000Y-7664048D01*
X7635476Y-7645000D01*
X7616428Y-7616428D01*
X7606905Y-7606905D01*
X7968809Y-7911667D02*
X7959286Y-7902143D01*
X7940238Y-7873571D01*
X7930714Y-7854524D01*
X7921190Y-7825952D01*
X7911667Y-7778333D01*
X7911667Y-7740238D01*
X7921190Y-7692619D01*
X7930714Y-7664048D01*
X7940238Y-7645000D01*
X7959286Y-7616428D01*
X7968809Y-7606905D01*
X8045000Y-7702143D02*
X8045000Y-7835476D01*
X8045000Y-7721190D02*
X8054524Y-7711667D01*
X8073571Y-7702143D01*
X8102143Y-7702143D01*
X8121190Y-7711667D01*
X8130714Y-7730714D01*
X8130714Y-7835476D01*
X8254524Y-7835476D02*
X8235476Y-7825952D01*
X8225952Y-7816428D01*
X8216428Y-7797381D01*
X8216428Y-7740238D01*
X8225952Y-7721190D01*
X8235476Y-7711667D01*
X8254524Y-7702143D01*
X8283095Y-7702143D01*
X8302143Y-7711667D01*
X8311667Y-7721190D01*
X8321190Y-7740238D01*
X8321190Y-7797381D01*
X8311667Y-7816428D01*
X8302143Y-7825952D01*
X8283095Y-7835476D01*
X8254524Y-7835476D01*
X8378333Y-7702143D02*
X8454524Y-7702143D01*
X8406905Y-7635476D02*
X8406905Y-7806905D01*
X8416429Y-7825952D01*
X8435476Y-7835476D01*
X8454524Y-7835476D01*
X8673571Y-7702143D02*
X8673571Y-7902143D01*
X8673571Y-7711667D02*
X8692619Y-7702143D01*
X8730714Y-7702143D01*
X8749762Y-7711667D01*
X8759286Y-7721190D01*
X8768810Y-7740238D01*
X8768810Y-7797381D01*
X8759286Y-7816428D01*
X8749762Y-7825952D01*
X8730714Y-7835476D01*
X8692619Y-7835476D01*
X8673571Y-7825952D01*
X8883095Y-7835476D02*
X8864048Y-7825952D01*
X8854524Y-7806905D01*
X8854524Y-7635476D01*
X9045000Y-7835476D02*
X9045000Y-7730714D01*
X9035476Y-7711667D01*
X9016429Y-7702143D01*
X8978333Y-7702143D01*
X8959286Y-7711667D01*
X9045000Y-7825952D02*
X9025952Y-7835476D01*
X8978333Y-7835476D01*
X8959286Y-7825952D01*
X8949762Y-7806905D01*
X8949762Y-7787857D01*
X8959286Y-7768809D01*
X8978333Y-7759286D01*
X9025952Y-7759286D01*
X9045000Y-7749762D01*
X9111667Y-7702143D02*
X9187857Y-7702143D01*
X9140238Y-7635476D02*
X9140238Y-7806905D01*
X9149762Y-7825952D01*
X9168810Y-7835476D01*
X9187857Y-7835476D01*
X9330714Y-7825952D02*
X9311667Y-7835476D01*
X9273571Y-7835476D01*
X9254524Y-7825952D01*
X9245000Y-7806905D01*
X9245000Y-7730714D01*
X9254524Y-7711667D01*
X9273571Y-7702143D01*
X9311667Y-7702143D01*
X9330714Y-7711667D01*
X9340238Y-7730714D01*
X9340238Y-7749762D01*
X9245000Y-7768809D01*
X9511667Y-7835476D02*
X9511667Y-7635476D01*
X9511667Y-7825952D02*
X9492619Y-7835476D01*
X9454524Y-7835476D01*
X9435476Y-7825952D01*
X9425952Y-7816428D01*
X9416429Y-7797381D01*
X9416429Y-7740238D01*
X9425952Y-7721190D01*
X9435476Y-7711667D01*
X9454524Y-7702143D01*
X9492619Y-7702143D01*
X9511667Y-7711667D01*
X9587857Y-7911667D02*
X9597381Y-7902143D01*
X9616429Y-7873571D01*
X9625952Y-7854524D01*
X9635476Y-7825952D01*
X9645000Y-7778333D01*
X9645000Y-7740238D01*
X9635476Y-7692619D01*
X9625952Y-7664048D01*
X9616429Y-7645000D01*
X9597381Y-7616428D01*
X9587857Y-7606905D01*
M02*
