G04 #@! TF.GenerationSoftware,KiCad,Pcbnew,5.1.5-52549c5~84~ubuntu18.04.1*
G04 #@! TF.CreationDate,2020-03-03T19:20:35-07:00*
G04 #@! TF.ProjectId,transmitter-test,7472616e-736d-4697-9474-65722d746573,rev?*
G04 #@! TF.SameCoordinates,Original*
G04 #@! TF.FileFunction,Soldermask,Top*
G04 #@! TF.FilePolarity,Negative*
%FSLAX46Y46*%
G04 Gerber Fmt 4.6, Leading zero omitted, Abs format (unit mm)*
G04 Created by KiCad (PCBNEW 5.1.5-52549c5~84~ubuntu18.04.1) date 2020-03-03 19:20:35*
%MOMM*%
%LPD*%
G04 APERTURE LIST*
%ADD10C,0.100000*%
G04 APERTURE END LIST*
D10*
G36*
X88113512Y-94643927D02*
G01*
X88262812Y-94673624D01*
X88426784Y-94741544D01*
X88574354Y-94840147D01*
X88699853Y-94965646D01*
X88798456Y-95113216D01*
X88866376Y-95277188D01*
X88896073Y-95426488D01*
X88900949Y-95451000D01*
X88901000Y-95451259D01*
X88901000Y-95628741D01*
X88866376Y-95802812D01*
X88798456Y-95966784D01*
X88699853Y-96114354D01*
X88574354Y-96239853D01*
X88426784Y-96338456D01*
X88262812Y-96406376D01*
X88113512Y-96436073D01*
X88088742Y-96441000D01*
X87911258Y-96441000D01*
X87886488Y-96436073D01*
X87737188Y-96406376D01*
X87573216Y-96338456D01*
X87425646Y-96239853D01*
X87300147Y-96114354D01*
X87201544Y-95966784D01*
X87133624Y-95802812D01*
X87099000Y-95628741D01*
X87099000Y-95451259D01*
X87099052Y-95451000D01*
X87103927Y-95426488D01*
X87133624Y-95277188D01*
X87201544Y-95113216D01*
X87300147Y-94965646D01*
X87425646Y-94840147D01*
X87573216Y-94741544D01*
X87737188Y-94673624D01*
X87886488Y-94643927D01*
X87911258Y-94639000D01*
X88088742Y-94639000D01*
X88113512Y-94643927D01*
G37*
G36*
X133364499Y-94303445D02*
G01*
X133401995Y-94314820D01*
X133436554Y-94333292D01*
X133466847Y-94358153D01*
X133491708Y-94388446D01*
X133510180Y-94423005D01*
X133521555Y-94460501D01*
X133526000Y-94505638D01*
X133526000Y-95244362D01*
X133521555Y-95289499D01*
X133510180Y-95326995D01*
X133491708Y-95361554D01*
X133466847Y-95391847D01*
X133436554Y-95416708D01*
X133401995Y-95435180D01*
X133364499Y-95446555D01*
X133319362Y-95451000D01*
X132680638Y-95451000D01*
X132635501Y-95446555D01*
X132598005Y-95435180D01*
X132563446Y-95416708D01*
X132533153Y-95391847D01*
X132508292Y-95361554D01*
X132489820Y-95326995D01*
X132478445Y-95289499D01*
X132474000Y-95244362D01*
X132474000Y-94505638D01*
X132478445Y-94460501D01*
X132489820Y-94423005D01*
X132508292Y-94388446D01*
X132533153Y-94358153D01*
X132563446Y-94333292D01*
X132598005Y-94314820D01*
X132635501Y-94303445D01*
X132680638Y-94299000D01*
X133319362Y-94299000D01*
X133364499Y-94303445D01*
G37*
G36*
X137113512Y-93643927D02*
G01*
X137262812Y-93673624D01*
X137426784Y-93741544D01*
X137574354Y-93840147D01*
X137699853Y-93965646D01*
X137798456Y-94113216D01*
X137866376Y-94277188D01*
X137888506Y-94388446D01*
X137901000Y-94451258D01*
X137901000Y-94628742D01*
X137896073Y-94653512D01*
X137866376Y-94802812D01*
X137798456Y-94966784D01*
X137699853Y-95114354D01*
X137574354Y-95239853D01*
X137426784Y-95338456D01*
X137262812Y-95406376D01*
X137118001Y-95435180D01*
X137088742Y-95441000D01*
X136911258Y-95441000D01*
X136881999Y-95435180D01*
X136737188Y-95406376D01*
X136573216Y-95338456D01*
X136425646Y-95239853D01*
X136300147Y-95114354D01*
X136201544Y-94966784D01*
X136133624Y-94802812D01*
X136103927Y-94653512D01*
X136099000Y-94628742D01*
X136099000Y-94451258D01*
X136111494Y-94388446D01*
X136133624Y-94277188D01*
X136201544Y-94113216D01*
X136300147Y-93965646D01*
X136425646Y-93840147D01*
X136573216Y-93741544D01*
X136737188Y-93673624D01*
X136886488Y-93643927D01*
X136911258Y-93639000D01*
X137088742Y-93639000D01*
X137113512Y-93643927D01*
G37*
G36*
X88901000Y-93901000D02*
G01*
X87099000Y-93901000D01*
X87099000Y-92099000D01*
X88901000Y-92099000D01*
X88901000Y-93901000D01*
G37*
G36*
X133364499Y-92553445D02*
G01*
X133401995Y-92564820D01*
X133436554Y-92583292D01*
X133466847Y-92608153D01*
X133491708Y-92638446D01*
X133510180Y-92673005D01*
X133521555Y-92710501D01*
X133526000Y-92755638D01*
X133526000Y-93494362D01*
X133521555Y-93539499D01*
X133510180Y-93576995D01*
X133491708Y-93611554D01*
X133466847Y-93641847D01*
X133436554Y-93666708D01*
X133401995Y-93685180D01*
X133364499Y-93696555D01*
X133319362Y-93701000D01*
X132680638Y-93701000D01*
X132635501Y-93696555D01*
X132598005Y-93685180D01*
X132563446Y-93666708D01*
X132533153Y-93641847D01*
X132508292Y-93611554D01*
X132489820Y-93576995D01*
X132478445Y-93539499D01*
X132474000Y-93494362D01*
X132474000Y-92755638D01*
X132478445Y-92710501D01*
X132489820Y-92673005D01*
X132508292Y-92638446D01*
X132533153Y-92608153D01*
X132563446Y-92583292D01*
X132598005Y-92564820D01*
X132635501Y-92553445D01*
X132680638Y-92549000D01*
X133319362Y-92549000D01*
X133364499Y-92553445D01*
G37*
G36*
X137901000Y-92901000D02*
G01*
X136099000Y-92901000D01*
X136099000Y-91099000D01*
X137901000Y-91099000D01*
X137901000Y-92901000D01*
G37*
G36*
X97084593Y-87737188D02*
G01*
X97211579Y-87762447D01*
X97512042Y-87886903D01*
X97782451Y-88067585D01*
X98012415Y-88297549D01*
X98193097Y-88567958D01*
X98317553Y-88868421D01*
X98381000Y-89187391D01*
X98381000Y-89512609D01*
X98317553Y-89831579D01*
X98193097Y-90132042D01*
X98012415Y-90402451D01*
X97782451Y-90632415D01*
X97512042Y-90813097D01*
X97211579Y-90937553D01*
X97105256Y-90958702D01*
X96892611Y-91001000D01*
X96567389Y-91001000D01*
X96354744Y-90958702D01*
X96248421Y-90937553D01*
X95947958Y-90813097D01*
X95677549Y-90632415D01*
X95447585Y-90402451D01*
X95266903Y-90132042D01*
X95142447Y-89831579D01*
X95079000Y-89512609D01*
X95079000Y-89187391D01*
X95142447Y-88868421D01*
X95266903Y-88567958D01*
X95447585Y-88297549D01*
X95677549Y-88067585D01*
X95947958Y-87886903D01*
X96248421Y-87762447D01*
X96375407Y-87737188D01*
X96567389Y-87699000D01*
X96892611Y-87699000D01*
X97084593Y-87737188D01*
G37*
G36*
X116084593Y-87737188D02*
G01*
X116211579Y-87762447D01*
X116512042Y-87886903D01*
X116782451Y-88067585D01*
X117012415Y-88297549D01*
X117193097Y-88567958D01*
X117317553Y-88868421D01*
X117381000Y-89187391D01*
X117381000Y-89512609D01*
X117317553Y-89831579D01*
X117193097Y-90132042D01*
X117012415Y-90402451D01*
X116782451Y-90632415D01*
X116512042Y-90813097D01*
X116211579Y-90937553D01*
X116105256Y-90958702D01*
X115892611Y-91001000D01*
X115567389Y-91001000D01*
X115354744Y-90958702D01*
X115248421Y-90937553D01*
X114947958Y-90813097D01*
X114677549Y-90632415D01*
X114447585Y-90402451D01*
X114266903Y-90132042D01*
X114142447Y-89831579D01*
X114079000Y-89512609D01*
X114079000Y-89187391D01*
X114142447Y-88868421D01*
X114266903Y-88567958D01*
X114447585Y-88297549D01*
X114677549Y-88067585D01*
X114947958Y-87886903D01*
X115248421Y-87762447D01*
X115375407Y-87737188D01*
X115567389Y-87699000D01*
X115892611Y-87699000D01*
X116084593Y-87737188D01*
G37*
G36*
X127514593Y-87737188D02*
G01*
X127641579Y-87762447D01*
X127942042Y-87886903D01*
X128212451Y-88067585D01*
X128442415Y-88297549D01*
X128623097Y-88567958D01*
X128747553Y-88868421D01*
X128811000Y-89187391D01*
X128811000Y-89512609D01*
X128747553Y-89831579D01*
X128623097Y-90132042D01*
X128442415Y-90402451D01*
X128212451Y-90632415D01*
X127942042Y-90813097D01*
X127641579Y-90937553D01*
X127535256Y-90958702D01*
X127322611Y-91001000D01*
X126997389Y-91001000D01*
X126784744Y-90958702D01*
X126678421Y-90937553D01*
X126377958Y-90813097D01*
X126107549Y-90632415D01*
X125877585Y-90402451D01*
X125696903Y-90132042D01*
X125572447Y-89831579D01*
X125509000Y-89512609D01*
X125509000Y-89187391D01*
X125572447Y-88868421D01*
X125696903Y-88567958D01*
X125877585Y-88297549D01*
X126107549Y-88067585D01*
X126377958Y-87886903D01*
X126678421Y-87762447D01*
X126805407Y-87737188D01*
X126997389Y-87699000D01*
X127322611Y-87699000D01*
X127514593Y-87737188D01*
G37*
G36*
X108514593Y-87737188D02*
G01*
X108641579Y-87762447D01*
X108942042Y-87886903D01*
X109212451Y-88067585D01*
X109442415Y-88297549D01*
X109623097Y-88567958D01*
X109747553Y-88868421D01*
X109811000Y-89187391D01*
X109811000Y-89512609D01*
X109747553Y-89831579D01*
X109623097Y-90132042D01*
X109442415Y-90402451D01*
X109212451Y-90632415D01*
X108942042Y-90813097D01*
X108641579Y-90937553D01*
X108535256Y-90958702D01*
X108322611Y-91001000D01*
X107997389Y-91001000D01*
X107784744Y-90958702D01*
X107678421Y-90937553D01*
X107377958Y-90813097D01*
X107107549Y-90632415D01*
X106877585Y-90402451D01*
X106696903Y-90132042D01*
X106572447Y-89831579D01*
X106509000Y-89512609D01*
X106509000Y-89187391D01*
X106572447Y-88868421D01*
X106696903Y-88567958D01*
X106877585Y-88297549D01*
X107107549Y-88067585D01*
X107377958Y-87886903D01*
X107678421Y-87762447D01*
X107805407Y-87737188D01*
X107997389Y-87699000D01*
X108322611Y-87699000D01*
X108514593Y-87737188D01*
G37*
G36*
X88113512Y-87103927D02*
G01*
X88262812Y-87133624D01*
X88426784Y-87201544D01*
X88574354Y-87300147D01*
X88699853Y-87425646D01*
X88798456Y-87573216D01*
X88866376Y-87737188D01*
X88901000Y-87911259D01*
X88901000Y-88088741D01*
X88866376Y-88262812D01*
X88798456Y-88426784D01*
X88699853Y-88574354D01*
X88574354Y-88699853D01*
X88426784Y-88798456D01*
X88262812Y-88866376D01*
X88113512Y-88896073D01*
X88088742Y-88901000D01*
X87911258Y-88901000D01*
X87886488Y-88896073D01*
X87737188Y-88866376D01*
X87573216Y-88798456D01*
X87425646Y-88699853D01*
X87300147Y-88574354D01*
X87201544Y-88426784D01*
X87133624Y-88262812D01*
X87099000Y-88088741D01*
X87099000Y-87911259D01*
X87133624Y-87737188D01*
X87201544Y-87573216D01*
X87300147Y-87425646D01*
X87425646Y-87300147D01*
X87573216Y-87201544D01*
X87737188Y-87133624D01*
X87886488Y-87103927D01*
X87911258Y-87099000D01*
X88088742Y-87099000D01*
X88113512Y-87103927D01*
G37*
G36*
X133364499Y-86303445D02*
G01*
X133401995Y-86314820D01*
X133436554Y-86333292D01*
X133466847Y-86358153D01*
X133491708Y-86388446D01*
X133510180Y-86423005D01*
X133521555Y-86460501D01*
X133526000Y-86505638D01*
X133526000Y-87244362D01*
X133521555Y-87289499D01*
X133510180Y-87326995D01*
X133491708Y-87361554D01*
X133466847Y-87391847D01*
X133436554Y-87416708D01*
X133401995Y-87435180D01*
X133364499Y-87446555D01*
X133319362Y-87451000D01*
X132680638Y-87451000D01*
X132635501Y-87446555D01*
X132598005Y-87435180D01*
X132563446Y-87416708D01*
X132533153Y-87391847D01*
X132508292Y-87361554D01*
X132489820Y-87326995D01*
X132478445Y-87289499D01*
X132474000Y-87244362D01*
X132474000Y-86505638D01*
X132478445Y-86460501D01*
X132489820Y-86423005D01*
X132508292Y-86388446D01*
X132533153Y-86358153D01*
X132563446Y-86333292D01*
X132598005Y-86314820D01*
X132635501Y-86303445D01*
X132680638Y-86299000D01*
X133319362Y-86299000D01*
X133364499Y-86303445D01*
G37*
G36*
X137113512Y-85643927D02*
G01*
X137262812Y-85673624D01*
X137426784Y-85741544D01*
X137574354Y-85840147D01*
X137699853Y-85965646D01*
X137798456Y-86113216D01*
X137866376Y-86277188D01*
X137901000Y-86451259D01*
X137901000Y-86628741D01*
X137866376Y-86802812D01*
X137798456Y-86966784D01*
X137699853Y-87114354D01*
X137574354Y-87239853D01*
X137426784Y-87338456D01*
X137262812Y-87406376D01*
X137118001Y-87435180D01*
X137088742Y-87441000D01*
X136911258Y-87441000D01*
X136881999Y-87435180D01*
X136737188Y-87406376D01*
X136573216Y-87338456D01*
X136425646Y-87239853D01*
X136300147Y-87114354D01*
X136201544Y-86966784D01*
X136133624Y-86802812D01*
X136099000Y-86628741D01*
X136099000Y-86451259D01*
X136133624Y-86277188D01*
X136201544Y-86113216D01*
X136300147Y-85965646D01*
X136425646Y-85840147D01*
X136573216Y-85741544D01*
X136737188Y-85673624D01*
X136886488Y-85643927D01*
X136911258Y-85639000D01*
X137088742Y-85639000D01*
X137113512Y-85643927D01*
G37*
G36*
X88901000Y-86361000D02*
G01*
X87099000Y-86361000D01*
X87099000Y-84559000D01*
X88901000Y-84559000D01*
X88901000Y-86361000D01*
G37*
G36*
X133364499Y-84553445D02*
G01*
X133401995Y-84564820D01*
X133436554Y-84583292D01*
X133466847Y-84608153D01*
X133491708Y-84638446D01*
X133510180Y-84673005D01*
X133521555Y-84710501D01*
X133526000Y-84755638D01*
X133526000Y-85494362D01*
X133521555Y-85539499D01*
X133510180Y-85576995D01*
X133491708Y-85611554D01*
X133466847Y-85641847D01*
X133436554Y-85666708D01*
X133401995Y-85685180D01*
X133364499Y-85696555D01*
X133319362Y-85701000D01*
X132680638Y-85701000D01*
X132635501Y-85696555D01*
X132598005Y-85685180D01*
X132563446Y-85666708D01*
X132533153Y-85641847D01*
X132508292Y-85611554D01*
X132489820Y-85576995D01*
X132478445Y-85539499D01*
X132474000Y-85494362D01*
X132474000Y-84755638D01*
X132478445Y-84710501D01*
X132489820Y-84673005D01*
X132508292Y-84638446D01*
X132533153Y-84608153D01*
X132563446Y-84583292D01*
X132598005Y-84564820D01*
X132635501Y-84553445D01*
X132680638Y-84549000D01*
X133319362Y-84549000D01*
X133364499Y-84553445D01*
G37*
G36*
X137901000Y-84901000D02*
G01*
X136099000Y-84901000D01*
X136099000Y-83099000D01*
X137901000Y-83099000D01*
X137901000Y-84901000D01*
G37*
G36*
X105853642Y-82229781D02*
G01*
X105999414Y-82290162D01*
X105999416Y-82290163D01*
X106130608Y-82377822D01*
X106242178Y-82489392D01*
X106329837Y-82620584D01*
X106329838Y-82620586D01*
X106390219Y-82766358D01*
X106421000Y-82921107D01*
X106421000Y-83078893D01*
X106390219Y-83233642D01*
X106329838Y-83379414D01*
X106329837Y-83379416D01*
X106242178Y-83510608D01*
X106130608Y-83622178D01*
X105999416Y-83709837D01*
X105999415Y-83709838D01*
X105999414Y-83709838D01*
X105853642Y-83770219D01*
X105698893Y-83801000D01*
X105541107Y-83801000D01*
X105386358Y-83770219D01*
X105240586Y-83709838D01*
X105240585Y-83709838D01*
X105240584Y-83709837D01*
X105109392Y-83622178D01*
X104997822Y-83510608D01*
X104910163Y-83379416D01*
X104910162Y-83379414D01*
X104849781Y-83233642D01*
X104819000Y-83078893D01*
X104819000Y-82921107D01*
X104849781Y-82766358D01*
X104910162Y-82620586D01*
X104910163Y-82620584D01*
X104997822Y-82489392D01*
X105109392Y-82377822D01*
X105240584Y-82290163D01*
X105240586Y-82290162D01*
X105386358Y-82229781D01*
X105541107Y-82199000D01*
X105698893Y-82199000D01*
X105853642Y-82229781D01*
G37*
G36*
X117801000Y-83801000D02*
G01*
X116199000Y-83801000D01*
X116199000Y-82199000D01*
X117801000Y-82199000D01*
X117801000Y-83801000D01*
G37*
G36*
X103313642Y-82229781D02*
G01*
X103459414Y-82290162D01*
X103459416Y-82290163D01*
X103590608Y-82377822D01*
X103702178Y-82489392D01*
X103789837Y-82620584D01*
X103789838Y-82620586D01*
X103850219Y-82766358D01*
X103881000Y-82921107D01*
X103881000Y-83078893D01*
X103850219Y-83233642D01*
X103789838Y-83379414D01*
X103789837Y-83379416D01*
X103702178Y-83510608D01*
X103590608Y-83622178D01*
X103459416Y-83709837D01*
X103459415Y-83709838D01*
X103459414Y-83709838D01*
X103313642Y-83770219D01*
X103158893Y-83801000D01*
X103001107Y-83801000D01*
X102846358Y-83770219D01*
X102700586Y-83709838D01*
X102700585Y-83709838D01*
X102700584Y-83709837D01*
X102569392Y-83622178D01*
X102457822Y-83510608D01*
X102370163Y-83379416D01*
X102370162Y-83379414D01*
X102309781Y-83233642D01*
X102279000Y-83078893D01*
X102279000Y-82921107D01*
X102309781Y-82766358D01*
X102370162Y-82620586D01*
X102370163Y-82620584D01*
X102457822Y-82489392D01*
X102569392Y-82377822D01*
X102700584Y-82290163D01*
X102700586Y-82290162D01*
X102846358Y-82229781D01*
X103001107Y-82199000D01*
X103158893Y-82199000D01*
X103313642Y-82229781D01*
G37*
G36*
X119773642Y-82229781D02*
G01*
X119919414Y-82290162D01*
X119919416Y-82290163D01*
X120050608Y-82377822D01*
X120162178Y-82489392D01*
X120249837Y-82620584D01*
X120249838Y-82620586D01*
X120310219Y-82766358D01*
X120341000Y-82921107D01*
X120341000Y-83078893D01*
X120310219Y-83233642D01*
X120249838Y-83379414D01*
X120249837Y-83379416D01*
X120162178Y-83510608D01*
X120050608Y-83622178D01*
X119919416Y-83709837D01*
X119919415Y-83709838D01*
X119919414Y-83709838D01*
X119773642Y-83770219D01*
X119618893Y-83801000D01*
X119461107Y-83801000D01*
X119306358Y-83770219D01*
X119160586Y-83709838D01*
X119160585Y-83709838D01*
X119160584Y-83709837D01*
X119029392Y-83622178D01*
X118917822Y-83510608D01*
X118830163Y-83379416D01*
X118830162Y-83379414D01*
X118769781Y-83233642D01*
X118739000Y-83078893D01*
X118739000Y-82921107D01*
X118769781Y-82766358D01*
X118830162Y-82620586D01*
X118830163Y-82620584D01*
X118917822Y-82489392D01*
X119029392Y-82377822D01*
X119160584Y-82290163D01*
X119160586Y-82290162D01*
X119306358Y-82229781D01*
X119461107Y-82199000D01*
X119618893Y-82199000D01*
X119773642Y-82229781D01*
G37*
G36*
X100773642Y-82229781D02*
G01*
X100919414Y-82290162D01*
X100919416Y-82290163D01*
X101050608Y-82377822D01*
X101162178Y-82489392D01*
X101249837Y-82620584D01*
X101249838Y-82620586D01*
X101310219Y-82766358D01*
X101341000Y-82921107D01*
X101341000Y-83078893D01*
X101310219Y-83233642D01*
X101249838Y-83379414D01*
X101249837Y-83379416D01*
X101162178Y-83510608D01*
X101050608Y-83622178D01*
X100919416Y-83709837D01*
X100919415Y-83709838D01*
X100919414Y-83709838D01*
X100773642Y-83770219D01*
X100618893Y-83801000D01*
X100461107Y-83801000D01*
X100306358Y-83770219D01*
X100160586Y-83709838D01*
X100160585Y-83709838D01*
X100160584Y-83709837D01*
X100029392Y-83622178D01*
X99917822Y-83510608D01*
X99830163Y-83379416D01*
X99830162Y-83379414D01*
X99769781Y-83233642D01*
X99739000Y-83078893D01*
X99739000Y-82921107D01*
X99769781Y-82766358D01*
X99830162Y-82620586D01*
X99830163Y-82620584D01*
X99917822Y-82489392D01*
X100029392Y-82377822D01*
X100160584Y-82290163D01*
X100160586Y-82290162D01*
X100306358Y-82229781D01*
X100461107Y-82199000D01*
X100618893Y-82199000D01*
X100773642Y-82229781D01*
G37*
G36*
X98801000Y-83801000D02*
G01*
X97199000Y-83801000D01*
X97199000Y-82199000D01*
X98801000Y-82199000D01*
X98801000Y-83801000D01*
G37*
G36*
X122313642Y-82229781D02*
G01*
X122459414Y-82290162D01*
X122459416Y-82290163D01*
X122590608Y-82377822D01*
X122702178Y-82489392D01*
X122789837Y-82620584D01*
X122789838Y-82620586D01*
X122850219Y-82766358D01*
X122881000Y-82921107D01*
X122881000Y-83078893D01*
X122850219Y-83233642D01*
X122789838Y-83379414D01*
X122789837Y-83379416D01*
X122702178Y-83510608D01*
X122590608Y-83622178D01*
X122459416Y-83709837D01*
X122459415Y-83709838D01*
X122459414Y-83709838D01*
X122313642Y-83770219D01*
X122158893Y-83801000D01*
X122001107Y-83801000D01*
X121846358Y-83770219D01*
X121700586Y-83709838D01*
X121700585Y-83709838D01*
X121700584Y-83709837D01*
X121569392Y-83622178D01*
X121457822Y-83510608D01*
X121370163Y-83379416D01*
X121370162Y-83379414D01*
X121309781Y-83233642D01*
X121279000Y-83078893D01*
X121279000Y-82921107D01*
X121309781Y-82766358D01*
X121370162Y-82620586D01*
X121370163Y-82620584D01*
X121457822Y-82489392D01*
X121569392Y-82377822D01*
X121700584Y-82290163D01*
X121700586Y-82290162D01*
X121846358Y-82229781D01*
X122001107Y-82199000D01*
X122158893Y-82199000D01*
X122313642Y-82229781D01*
G37*
G36*
X124853642Y-82229781D02*
G01*
X124999414Y-82290162D01*
X124999416Y-82290163D01*
X125130608Y-82377822D01*
X125242178Y-82489392D01*
X125329837Y-82620584D01*
X125329838Y-82620586D01*
X125390219Y-82766358D01*
X125421000Y-82921107D01*
X125421000Y-83078893D01*
X125390219Y-83233642D01*
X125329838Y-83379414D01*
X125329837Y-83379416D01*
X125242178Y-83510608D01*
X125130608Y-83622178D01*
X124999416Y-83709837D01*
X124999415Y-83709838D01*
X124999414Y-83709838D01*
X124853642Y-83770219D01*
X124698893Y-83801000D01*
X124541107Y-83801000D01*
X124386358Y-83770219D01*
X124240586Y-83709838D01*
X124240585Y-83709838D01*
X124240584Y-83709837D01*
X124109392Y-83622178D01*
X123997822Y-83510608D01*
X123910163Y-83379416D01*
X123910162Y-83379414D01*
X123849781Y-83233642D01*
X123819000Y-83078893D01*
X123819000Y-82921107D01*
X123849781Y-82766358D01*
X123910162Y-82620586D01*
X123910163Y-82620584D01*
X123997822Y-82489392D01*
X124109392Y-82377822D01*
X124240584Y-82290163D01*
X124240586Y-82290162D01*
X124386358Y-82229781D01*
X124541107Y-82199000D01*
X124698893Y-82199000D01*
X124853642Y-82229781D01*
G37*
G36*
X88113512Y-79643927D02*
G01*
X88262812Y-79673624D01*
X88426784Y-79741544D01*
X88574354Y-79840147D01*
X88699853Y-79965646D01*
X88798456Y-80113216D01*
X88866376Y-80277188D01*
X88901000Y-80451259D01*
X88901000Y-80628741D01*
X88866376Y-80802812D01*
X88798456Y-80966784D01*
X88699853Y-81114354D01*
X88574354Y-81239853D01*
X88426784Y-81338456D01*
X88262812Y-81406376D01*
X88113512Y-81436073D01*
X88088742Y-81441000D01*
X87911258Y-81441000D01*
X87886488Y-81436073D01*
X87737188Y-81406376D01*
X87573216Y-81338456D01*
X87425646Y-81239853D01*
X87300147Y-81114354D01*
X87201544Y-80966784D01*
X87133624Y-80802812D01*
X87099000Y-80628741D01*
X87099000Y-80451259D01*
X87133624Y-80277188D01*
X87201544Y-80113216D01*
X87300147Y-79965646D01*
X87425646Y-79840147D01*
X87573216Y-79741544D01*
X87737188Y-79673624D01*
X87886488Y-79643927D01*
X87911258Y-79639000D01*
X88088742Y-79639000D01*
X88113512Y-79643927D01*
G37*
G36*
X99503642Y-79689781D02*
G01*
X99628608Y-79741544D01*
X99649416Y-79750163D01*
X99780608Y-79837822D01*
X99892178Y-79949392D01*
X99903038Y-79965646D01*
X99979838Y-80080586D01*
X100040219Y-80226358D01*
X100071000Y-80381107D01*
X100071000Y-80538893D01*
X100040219Y-80693642D01*
X99994999Y-80802812D01*
X99979837Y-80839416D01*
X99892178Y-80970608D01*
X99780608Y-81082178D01*
X99649416Y-81169837D01*
X99649415Y-81169838D01*
X99649414Y-81169838D01*
X99503642Y-81230219D01*
X99348893Y-81261000D01*
X99191107Y-81261000D01*
X99036358Y-81230219D01*
X98890586Y-81169838D01*
X98890585Y-81169838D01*
X98890584Y-81169837D01*
X98759392Y-81082178D01*
X98647822Y-80970608D01*
X98560163Y-80839416D01*
X98545001Y-80802812D01*
X98499781Y-80693642D01*
X98469000Y-80538893D01*
X98469000Y-80381107D01*
X98499781Y-80226358D01*
X98560162Y-80080586D01*
X98636962Y-79965646D01*
X98647822Y-79949392D01*
X98759392Y-79837822D01*
X98890584Y-79750163D01*
X98911392Y-79741544D01*
X99036358Y-79689781D01*
X99191107Y-79659000D01*
X99348893Y-79659000D01*
X99503642Y-79689781D01*
G37*
G36*
X102043642Y-79689781D02*
G01*
X102168608Y-79741544D01*
X102189416Y-79750163D01*
X102320608Y-79837822D01*
X102432178Y-79949392D01*
X102443038Y-79965646D01*
X102519838Y-80080586D01*
X102580219Y-80226358D01*
X102611000Y-80381107D01*
X102611000Y-80538893D01*
X102580219Y-80693642D01*
X102534999Y-80802812D01*
X102519837Y-80839416D01*
X102432178Y-80970608D01*
X102320608Y-81082178D01*
X102189416Y-81169837D01*
X102189415Y-81169838D01*
X102189414Y-81169838D01*
X102043642Y-81230219D01*
X101888893Y-81261000D01*
X101731107Y-81261000D01*
X101576358Y-81230219D01*
X101430586Y-81169838D01*
X101430585Y-81169838D01*
X101430584Y-81169837D01*
X101299392Y-81082178D01*
X101187822Y-80970608D01*
X101100163Y-80839416D01*
X101085001Y-80802812D01*
X101039781Y-80693642D01*
X101009000Y-80538893D01*
X101009000Y-80381107D01*
X101039781Y-80226358D01*
X101100162Y-80080586D01*
X101176962Y-79965646D01*
X101187822Y-79949392D01*
X101299392Y-79837822D01*
X101430584Y-79750163D01*
X101451392Y-79741544D01*
X101576358Y-79689781D01*
X101731107Y-79659000D01*
X101888893Y-79659000D01*
X102043642Y-79689781D01*
G37*
G36*
X107123642Y-79689781D02*
G01*
X107248608Y-79741544D01*
X107269416Y-79750163D01*
X107400608Y-79837822D01*
X107512178Y-79949392D01*
X107523038Y-79965646D01*
X107599838Y-80080586D01*
X107660219Y-80226358D01*
X107691000Y-80381107D01*
X107691000Y-80538893D01*
X107660219Y-80693642D01*
X107614999Y-80802812D01*
X107599837Y-80839416D01*
X107512178Y-80970608D01*
X107400608Y-81082178D01*
X107269416Y-81169837D01*
X107269415Y-81169838D01*
X107269414Y-81169838D01*
X107123642Y-81230219D01*
X106968893Y-81261000D01*
X106811107Y-81261000D01*
X106656358Y-81230219D01*
X106510586Y-81169838D01*
X106510585Y-81169838D01*
X106510584Y-81169837D01*
X106379392Y-81082178D01*
X106267822Y-80970608D01*
X106180163Y-80839416D01*
X106165001Y-80802812D01*
X106119781Y-80693642D01*
X106089000Y-80538893D01*
X106089000Y-80381107D01*
X106119781Y-80226358D01*
X106180162Y-80080586D01*
X106256962Y-79965646D01*
X106267822Y-79949392D01*
X106379392Y-79837822D01*
X106510584Y-79750163D01*
X106531392Y-79741544D01*
X106656358Y-79689781D01*
X106811107Y-79659000D01*
X106968893Y-79659000D01*
X107123642Y-79689781D01*
G37*
G36*
X104583642Y-79689781D02*
G01*
X104708608Y-79741544D01*
X104729416Y-79750163D01*
X104860608Y-79837822D01*
X104972178Y-79949392D01*
X104983038Y-79965646D01*
X105059838Y-80080586D01*
X105120219Y-80226358D01*
X105151000Y-80381107D01*
X105151000Y-80538893D01*
X105120219Y-80693642D01*
X105074999Y-80802812D01*
X105059837Y-80839416D01*
X104972178Y-80970608D01*
X104860608Y-81082178D01*
X104729416Y-81169837D01*
X104729415Y-81169838D01*
X104729414Y-81169838D01*
X104583642Y-81230219D01*
X104428893Y-81261000D01*
X104271107Y-81261000D01*
X104116358Y-81230219D01*
X103970586Y-81169838D01*
X103970585Y-81169838D01*
X103970584Y-81169837D01*
X103839392Y-81082178D01*
X103727822Y-80970608D01*
X103640163Y-80839416D01*
X103625001Y-80802812D01*
X103579781Y-80693642D01*
X103549000Y-80538893D01*
X103549000Y-80381107D01*
X103579781Y-80226358D01*
X103640162Y-80080586D01*
X103716962Y-79965646D01*
X103727822Y-79949392D01*
X103839392Y-79837822D01*
X103970584Y-79750163D01*
X103991392Y-79741544D01*
X104116358Y-79689781D01*
X104271107Y-79659000D01*
X104428893Y-79659000D01*
X104583642Y-79689781D01*
G37*
G36*
X123583642Y-79689781D02*
G01*
X123708608Y-79741544D01*
X123729416Y-79750163D01*
X123860608Y-79837822D01*
X123972178Y-79949392D01*
X123983038Y-79965646D01*
X124059838Y-80080586D01*
X124120219Y-80226358D01*
X124151000Y-80381107D01*
X124151000Y-80538893D01*
X124120219Y-80693642D01*
X124074999Y-80802812D01*
X124059837Y-80839416D01*
X123972178Y-80970608D01*
X123860608Y-81082178D01*
X123729416Y-81169837D01*
X123729415Y-81169838D01*
X123729414Y-81169838D01*
X123583642Y-81230219D01*
X123428893Y-81261000D01*
X123271107Y-81261000D01*
X123116358Y-81230219D01*
X122970586Y-81169838D01*
X122970585Y-81169838D01*
X122970584Y-81169837D01*
X122839392Y-81082178D01*
X122727822Y-80970608D01*
X122640163Y-80839416D01*
X122625001Y-80802812D01*
X122579781Y-80693642D01*
X122549000Y-80538893D01*
X122549000Y-80381107D01*
X122579781Y-80226358D01*
X122640162Y-80080586D01*
X122716962Y-79965646D01*
X122727822Y-79949392D01*
X122839392Y-79837822D01*
X122970584Y-79750163D01*
X122991392Y-79741544D01*
X123116358Y-79689781D01*
X123271107Y-79659000D01*
X123428893Y-79659000D01*
X123583642Y-79689781D01*
G37*
G36*
X126123642Y-79689781D02*
G01*
X126248608Y-79741544D01*
X126269416Y-79750163D01*
X126400608Y-79837822D01*
X126512178Y-79949392D01*
X126523038Y-79965646D01*
X126599838Y-80080586D01*
X126660219Y-80226358D01*
X126691000Y-80381107D01*
X126691000Y-80538893D01*
X126660219Y-80693642D01*
X126614999Y-80802812D01*
X126599837Y-80839416D01*
X126512178Y-80970608D01*
X126400608Y-81082178D01*
X126269416Y-81169837D01*
X126269415Y-81169838D01*
X126269414Y-81169838D01*
X126123642Y-81230219D01*
X125968893Y-81261000D01*
X125811107Y-81261000D01*
X125656358Y-81230219D01*
X125510586Y-81169838D01*
X125510585Y-81169838D01*
X125510584Y-81169837D01*
X125379392Y-81082178D01*
X125267822Y-80970608D01*
X125180163Y-80839416D01*
X125165001Y-80802812D01*
X125119781Y-80693642D01*
X125089000Y-80538893D01*
X125089000Y-80381107D01*
X125119781Y-80226358D01*
X125180162Y-80080586D01*
X125256962Y-79965646D01*
X125267822Y-79949392D01*
X125379392Y-79837822D01*
X125510584Y-79750163D01*
X125531392Y-79741544D01*
X125656358Y-79689781D01*
X125811107Y-79659000D01*
X125968893Y-79659000D01*
X126123642Y-79689781D01*
G37*
G36*
X118503642Y-79689781D02*
G01*
X118628608Y-79741544D01*
X118649416Y-79750163D01*
X118780608Y-79837822D01*
X118892178Y-79949392D01*
X118903038Y-79965646D01*
X118979838Y-80080586D01*
X119040219Y-80226358D01*
X119071000Y-80381107D01*
X119071000Y-80538893D01*
X119040219Y-80693642D01*
X118994999Y-80802812D01*
X118979837Y-80839416D01*
X118892178Y-80970608D01*
X118780608Y-81082178D01*
X118649416Y-81169837D01*
X118649415Y-81169838D01*
X118649414Y-81169838D01*
X118503642Y-81230219D01*
X118348893Y-81261000D01*
X118191107Y-81261000D01*
X118036358Y-81230219D01*
X117890586Y-81169838D01*
X117890585Y-81169838D01*
X117890584Y-81169837D01*
X117759392Y-81082178D01*
X117647822Y-80970608D01*
X117560163Y-80839416D01*
X117545001Y-80802812D01*
X117499781Y-80693642D01*
X117469000Y-80538893D01*
X117469000Y-80381107D01*
X117499781Y-80226358D01*
X117560162Y-80080586D01*
X117636962Y-79965646D01*
X117647822Y-79949392D01*
X117759392Y-79837822D01*
X117890584Y-79750163D01*
X117911392Y-79741544D01*
X118036358Y-79689781D01*
X118191107Y-79659000D01*
X118348893Y-79659000D01*
X118503642Y-79689781D01*
G37*
G36*
X121043642Y-79689781D02*
G01*
X121168608Y-79741544D01*
X121189416Y-79750163D01*
X121320608Y-79837822D01*
X121432178Y-79949392D01*
X121443038Y-79965646D01*
X121519838Y-80080586D01*
X121580219Y-80226358D01*
X121611000Y-80381107D01*
X121611000Y-80538893D01*
X121580219Y-80693642D01*
X121534999Y-80802812D01*
X121519837Y-80839416D01*
X121432178Y-80970608D01*
X121320608Y-81082178D01*
X121189416Y-81169837D01*
X121189415Y-81169838D01*
X121189414Y-81169838D01*
X121043642Y-81230219D01*
X120888893Y-81261000D01*
X120731107Y-81261000D01*
X120576358Y-81230219D01*
X120430586Y-81169838D01*
X120430585Y-81169838D01*
X120430584Y-81169837D01*
X120299392Y-81082178D01*
X120187822Y-80970608D01*
X120100163Y-80839416D01*
X120085001Y-80802812D01*
X120039781Y-80693642D01*
X120009000Y-80538893D01*
X120009000Y-80381107D01*
X120039781Y-80226358D01*
X120100162Y-80080586D01*
X120176962Y-79965646D01*
X120187822Y-79949392D01*
X120299392Y-79837822D01*
X120430584Y-79750163D01*
X120451392Y-79741544D01*
X120576358Y-79689781D01*
X120731107Y-79659000D01*
X120888893Y-79659000D01*
X121043642Y-79689781D01*
G37*
G36*
X137113512Y-77643927D02*
G01*
X137262812Y-77673624D01*
X137426784Y-77741544D01*
X137574354Y-77840147D01*
X137699853Y-77965646D01*
X137798456Y-78113216D01*
X137866376Y-78277188D01*
X137901000Y-78451259D01*
X137901000Y-78628741D01*
X137866376Y-78802812D01*
X137798456Y-78966784D01*
X137699853Y-79114354D01*
X137574354Y-79239853D01*
X137426784Y-79338456D01*
X137262812Y-79406376D01*
X137113512Y-79436073D01*
X137088742Y-79441000D01*
X136911258Y-79441000D01*
X136886488Y-79436073D01*
X136737188Y-79406376D01*
X136573216Y-79338456D01*
X136425646Y-79239853D01*
X136300147Y-79114354D01*
X136201544Y-78966784D01*
X136133624Y-78802812D01*
X136099000Y-78628741D01*
X136099000Y-78451259D01*
X136133624Y-78277188D01*
X136201544Y-78113216D01*
X136300147Y-77965646D01*
X136425646Y-77840147D01*
X136573216Y-77741544D01*
X136737188Y-77673624D01*
X136886488Y-77643927D01*
X136911258Y-77639000D01*
X137088742Y-77639000D01*
X137113512Y-77643927D01*
G37*
G36*
X133364499Y-78178445D02*
G01*
X133401995Y-78189820D01*
X133436554Y-78208292D01*
X133466847Y-78233153D01*
X133491708Y-78263446D01*
X133510180Y-78298005D01*
X133521555Y-78335501D01*
X133526000Y-78380638D01*
X133526000Y-79119362D01*
X133521555Y-79164499D01*
X133510180Y-79201995D01*
X133491708Y-79236554D01*
X133466847Y-79266847D01*
X133436554Y-79291708D01*
X133401995Y-79310180D01*
X133364499Y-79321555D01*
X133319362Y-79326000D01*
X132680638Y-79326000D01*
X132635501Y-79321555D01*
X132598005Y-79310180D01*
X132563446Y-79291708D01*
X132533153Y-79266847D01*
X132508292Y-79236554D01*
X132489820Y-79201995D01*
X132478445Y-79164499D01*
X132474000Y-79119362D01*
X132474000Y-78380638D01*
X132478445Y-78335501D01*
X132489820Y-78298005D01*
X132508292Y-78263446D01*
X132533153Y-78233153D01*
X132563446Y-78208292D01*
X132598005Y-78189820D01*
X132635501Y-78178445D01*
X132680638Y-78174000D01*
X133319362Y-78174000D01*
X133364499Y-78178445D01*
G37*
G36*
X88901000Y-78901000D02*
G01*
X87099000Y-78901000D01*
X87099000Y-77099000D01*
X88901000Y-77099000D01*
X88901000Y-78901000D01*
G37*
G36*
X133364499Y-76428445D02*
G01*
X133401995Y-76439820D01*
X133436554Y-76458292D01*
X133466847Y-76483153D01*
X133491708Y-76513446D01*
X133510180Y-76548005D01*
X133521555Y-76585501D01*
X133526000Y-76630638D01*
X133526000Y-77369362D01*
X133521555Y-77414499D01*
X133510180Y-77451995D01*
X133491708Y-77486554D01*
X133466847Y-77516847D01*
X133436554Y-77541708D01*
X133401995Y-77560180D01*
X133364499Y-77571555D01*
X133319362Y-77576000D01*
X132680638Y-77576000D01*
X132635501Y-77571555D01*
X132598005Y-77560180D01*
X132563446Y-77541708D01*
X132533153Y-77516847D01*
X132508292Y-77486554D01*
X132489820Y-77451995D01*
X132478445Y-77414499D01*
X132474000Y-77369362D01*
X132474000Y-76630638D01*
X132478445Y-76585501D01*
X132489820Y-76548005D01*
X132508292Y-76513446D01*
X132533153Y-76483153D01*
X132563446Y-76458292D01*
X132598005Y-76439820D01*
X132635501Y-76428445D01*
X132680638Y-76424000D01*
X133319362Y-76424000D01*
X133364499Y-76428445D01*
G37*
G36*
X137901000Y-76901000D02*
G01*
X136099000Y-76901000D01*
X136099000Y-75099000D01*
X137901000Y-75099000D01*
X137901000Y-76901000D01*
G37*
G36*
X115409928Y-76096764D02*
G01*
X115431009Y-76103160D01*
X115450445Y-76113548D01*
X115467476Y-76127524D01*
X115481452Y-76144555D01*
X115491840Y-76163991D01*
X115498236Y-76185072D01*
X115501000Y-76213140D01*
X115501000Y-76676860D01*
X115498236Y-76704928D01*
X115491840Y-76726009D01*
X115481452Y-76745445D01*
X115467476Y-76762476D01*
X115450445Y-76776452D01*
X115431009Y-76786840D01*
X115409928Y-76793236D01*
X115381860Y-76796000D01*
X113568140Y-76796000D01*
X113540072Y-76793236D01*
X113518991Y-76786840D01*
X113499555Y-76776452D01*
X113482524Y-76762476D01*
X113468548Y-76745445D01*
X113458160Y-76726009D01*
X113451764Y-76704928D01*
X113449000Y-76676860D01*
X113449000Y-76213140D01*
X113451764Y-76185072D01*
X113458160Y-76163991D01*
X113468548Y-76144555D01*
X113482524Y-76127524D01*
X113499555Y-76113548D01*
X113518991Y-76103160D01*
X113540072Y-76096764D01*
X113568140Y-76094000D01*
X115381860Y-76094000D01*
X115409928Y-76096764D01*
G37*
G36*
X110459928Y-76096764D02*
G01*
X110481009Y-76103160D01*
X110500445Y-76113548D01*
X110517476Y-76127524D01*
X110531452Y-76144555D01*
X110541840Y-76163991D01*
X110548236Y-76185072D01*
X110551000Y-76213140D01*
X110551000Y-76676860D01*
X110548236Y-76704928D01*
X110541840Y-76726009D01*
X110531452Y-76745445D01*
X110517476Y-76762476D01*
X110500445Y-76776452D01*
X110481009Y-76786840D01*
X110459928Y-76793236D01*
X110431860Y-76796000D01*
X108618140Y-76796000D01*
X108590072Y-76793236D01*
X108568991Y-76786840D01*
X108549555Y-76776452D01*
X108532524Y-76762476D01*
X108518548Y-76745445D01*
X108508160Y-76726009D01*
X108501764Y-76704928D01*
X108499000Y-76676860D01*
X108499000Y-76213140D01*
X108501764Y-76185072D01*
X108508160Y-76163991D01*
X108518548Y-76144555D01*
X108532524Y-76127524D01*
X108549555Y-76113548D01*
X108568991Y-76103160D01*
X108590072Y-76096764D01*
X108618140Y-76094000D01*
X110431860Y-76094000D01*
X110459928Y-76096764D01*
G37*
G36*
X110459928Y-74826764D02*
G01*
X110481009Y-74833160D01*
X110500445Y-74843548D01*
X110517476Y-74857524D01*
X110531452Y-74874555D01*
X110541840Y-74893991D01*
X110548236Y-74915072D01*
X110551000Y-74943140D01*
X110551000Y-75406860D01*
X110548236Y-75434928D01*
X110541840Y-75456009D01*
X110531452Y-75475445D01*
X110517476Y-75492476D01*
X110500445Y-75506452D01*
X110481009Y-75516840D01*
X110459928Y-75523236D01*
X110431860Y-75526000D01*
X108618140Y-75526000D01*
X108590072Y-75523236D01*
X108568991Y-75516840D01*
X108549555Y-75506452D01*
X108532524Y-75492476D01*
X108518548Y-75475445D01*
X108508160Y-75456009D01*
X108501764Y-75434928D01*
X108499000Y-75406860D01*
X108499000Y-74943140D01*
X108501764Y-74915072D01*
X108508160Y-74893991D01*
X108518548Y-74874555D01*
X108532524Y-74857524D01*
X108549555Y-74843548D01*
X108568991Y-74833160D01*
X108590072Y-74826764D01*
X108618140Y-74824000D01*
X110431860Y-74824000D01*
X110459928Y-74826764D01*
G37*
G36*
X115409928Y-74826764D02*
G01*
X115431009Y-74833160D01*
X115450445Y-74843548D01*
X115467476Y-74857524D01*
X115481452Y-74874555D01*
X115491840Y-74893991D01*
X115498236Y-74915072D01*
X115501000Y-74943140D01*
X115501000Y-75406860D01*
X115498236Y-75434928D01*
X115491840Y-75456009D01*
X115481452Y-75475445D01*
X115467476Y-75492476D01*
X115450445Y-75506452D01*
X115431009Y-75516840D01*
X115409928Y-75523236D01*
X115381860Y-75526000D01*
X113568140Y-75526000D01*
X113540072Y-75523236D01*
X113518991Y-75516840D01*
X113499555Y-75506452D01*
X113482524Y-75492476D01*
X113468548Y-75475445D01*
X113458160Y-75456009D01*
X113451764Y-75434928D01*
X113449000Y-75406860D01*
X113449000Y-74943140D01*
X113451764Y-74915072D01*
X113458160Y-74893991D01*
X113468548Y-74874555D01*
X113482524Y-74857524D01*
X113499555Y-74843548D01*
X113518991Y-74833160D01*
X113540072Y-74826764D01*
X113568140Y-74824000D01*
X115381860Y-74824000D01*
X115409928Y-74826764D01*
G37*
G36*
X110459928Y-73556764D02*
G01*
X110481009Y-73563160D01*
X110500445Y-73573548D01*
X110517476Y-73587524D01*
X110531452Y-73604555D01*
X110541840Y-73623991D01*
X110548236Y-73645072D01*
X110551000Y-73673140D01*
X110551000Y-74136860D01*
X110548236Y-74164928D01*
X110541840Y-74186009D01*
X110531452Y-74205445D01*
X110517476Y-74222476D01*
X110500445Y-74236452D01*
X110481009Y-74246840D01*
X110459928Y-74253236D01*
X110431860Y-74256000D01*
X108618140Y-74256000D01*
X108590072Y-74253236D01*
X108568991Y-74246840D01*
X108549555Y-74236452D01*
X108532524Y-74222476D01*
X108518548Y-74205445D01*
X108508160Y-74186009D01*
X108501764Y-74164928D01*
X108499000Y-74136860D01*
X108499000Y-73673140D01*
X108501764Y-73645072D01*
X108508160Y-73623991D01*
X108518548Y-73604555D01*
X108532524Y-73587524D01*
X108549555Y-73573548D01*
X108568991Y-73563160D01*
X108590072Y-73556764D01*
X108618140Y-73554000D01*
X110431860Y-73554000D01*
X110459928Y-73556764D01*
G37*
G36*
X115409928Y-73556764D02*
G01*
X115431009Y-73563160D01*
X115450445Y-73573548D01*
X115467476Y-73587524D01*
X115481452Y-73604555D01*
X115491840Y-73623991D01*
X115498236Y-73645072D01*
X115501000Y-73673140D01*
X115501000Y-74136860D01*
X115498236Y-74164928D01*
X115491840Y-74186009D01*
X115481452Y-74205445D01*
X115467476Y-74222476D01*
X115450445Y-74236452D01*
X115431009Y-74246840D01*
X115409928Y-74253236D01*
X115381860Y-74256000D01*
X113568140Y-74256000D01*
X113540072Y-74253236D01*
X113518991Y-74246840D01*
X113499555Y-74236452D01*
X113482524Y-74222476D01*
X113468548Y-74205445D01*
X113458160Y-74186009D01*
X113451764Y-74164928D01*
X113449000Y-74136860D01*
X113449000Y-73673140D01*
X113451764Y-73645072D01*
X113458160Y-73623991D01*
X113468548Y-73604555D01*
X113482524Y-73587524D01*
X113499555Y-73573548D01*
X113518991Y-73563160D01*
X113540072Y-73556764D01*
X113568140Y-73554000D01*
X115381860Y-73554000D01*
X115409928Y-73556764D01*
G37*
G36*
X88113512Y-72183927D02*
G01*
X88262812Y-72213624D01*
X88426784Y-72281544D01*
X88574354Y-72380147D01*
X88699853Y-72505646D01*
X88798456Y-72653216D01*
X88866376Y-72817188D01*
X88901000Y-72991259D01*
X88901000Y-73168741D01*
X88866376Y-73342812D01*
X88798456Y-73506784D01*
X88699853Y-73654354D01*
X88574354Y-73779853D01*
X88426784Y-73878456D01*
X88262812Y-73946376D01*
X88113512Y-73976073D01*
X88088742Y-73981000D01*
X87911258Y-73981000D01*
X87886488Y-73976073D01*
X87737188Y-73946376D01*
X87573216Y-73878456D01*
X87425646Y-73779853D01*
X87300147Y-73654354D01*
X87201544Y-73506784D01*
X87133624Y-73342812D01*
X87099000Y-73168741D01*
X87099000Y-72991259D01*
X87133624Y-72817188D01*
X87201544Y-72653216D01*
X87300147Y-72505646D01*
X87425646Y-72380147D01*
X87573216Y-72281544D01*
X87737188Y-72213624D01*
X87886488Y-72183927D01*
X87911258Y-72179000D01*
X88088742Y-72179000D01*
X88113512Y-72183927D01*
G37*
G36*
X115409928Y-72286764D02*
G01*
X115431009Y-72293160D01*
X115450445Y-72303548D01*
X115467476Y-72317524D01*
X115481452Y-72334555D01*
X115491840Y-72353991D01*
X115498236Y-72375072D01*
X115501000Y-72403140D01*
X115501000Y-72866860D01*
X115498236Y-72894928D01*
X115491840Y-72916009D01*
X115481452Y-72935445D01*
X115467476Y-72952476D01*
X115450445Y-72966452D01*
X115431009Y-72976840D01*
X115409928Y-72983236D01*
X115381860Y-72986000D01*
X113568140Y-72986000D01*
X113540072Y-72983236D01*
X113518991Y-72976840D01*
X113499555Y-72966452D01*
X113482524Y-72952476D01*
X113468548Y-72935445D01*
X113458160Y-72916009D01*
X113451764Y-72894928D01*
X113449000Y-72866860D01*
X113449000Y-72403140D01*
X113451764Y-72375072D01*
X113458160Y-72353991D01*
X113468548Y-72334555D01*
X113482524Y-72317524D01*
X113499555Y-72303548D01*
X113518991Y-72293160D01*
X113540072Y-72286764D01*
X113568140Y-72284000D01*
X115381860Y-72284000D01*
X115409928Y-72286764D01*
G37*
G36*
X110459928Y-72286764D02*
G01*
X110481009Y-72293160D01*
X110500445Y-72303548D01*
X110517476Y-72317524D01*
X110531452Y-72334555D01*
X110541840Y-72353991D01*
X110548236Y-72375072D01*
X110551000Y-72403140D01*
X110551000Y-72866860D01*
X110548236Y-72894928D01*
X110541840Y-72916009D01*
X110531452Y-72935445D01*
X110517476Y-72952476D01*
X110500445Y-72966452D01*
X110481009Y-72976840D01*
X110459928Y-72983236D01*
X110431860Y-72986000D01*
X108618140Y-72986000D01*
X108590072Y-72983236D01*
X108568991Y-72976840D01*
X108549555Y-72966452D01*
X108532524Y-72952476D01*
X108518548Y-72935445D01*
X108508160Y-72916009D01*
X108501764Y-72894928D01*
X108499000Y-72866860D01*
X108499000Y-72403140D01*
X108501764Y-72375072D01*
X108508160Y-72353991D01*
X108518548Y-72334555D01*
X108532524Y-72317524D01*
X108549555Y-72303548D01*
X108568991Y-72293160D01*
X108590072Y-72286764D01*
X108618140Y-72284000D01*
X110431860Y-72284000D01*
X110459928Y-72286764D01*
G37*
G36*
X110459928Y-71016764D02*
G01*
X110481009Y-71023160D01*
X110500445Y-71033548D01*
X110517476Y-71047524D01*
X110531452Y-71064555D01*
X110541840Y-71083991D01*
X110548236Y-71105072D01*
X110551000Y-71133140D01*
X110551000Y-71596860D01*
X110548236Y-71624928D01*
X110541840Y-71646009D01*
X110531452Y-71665445D01*
X110517476Y-71682476D01*
X110500445Y-71696452D01*
X110481009Y-71706840D01*
X110459928Y-71713236D01*
X110431860Y-71716000D01*
X108618140Y-71716000D01*
X108590072Y-71713236D01*
X108568991Y-71706840D01*
X108549555Y-71696452D01*
X108532524Y-71682476D01*
X108518548Y-71665445D01*
X108508160Y-71646009D01*
X108501764Y-71624928D01*
X108499000Y-71596860D01*
X108499000Y-71133140D01*
X108501764Y-71105072D01*
X108508160Y-71083991D01*
X108518548Y-71064555D01*
X108532524Y-71047524D01*
X108549555Y-71033548D01*
X108568991Y-71023160D01*
X108590072Y-71016764D01*
X108618140Y-71014000D01*
X110431860Y-71014000D01*
X110459928Y-71016764D01*
G37*
G36*
X115409928Y-71016764D02*
G01*
X115431009Y-71023160D01*
X115450445Y-71033548D01*
X115467476Y-71047524D01*
X115481452Y-71064555D01*
X115491840Y-71083991D01*
X115498236Y-71105072D01*
X115501000Y-71133140D01*
X115501000Y-71596860D01*
X115498236Y-71624928D01*
X115491840Y-71646009D01*
X115481452Y-71665445D01*
X115467476Y-71682476D01*
X115450445Y-71696452D01*
X115431009Y-71706840D01*
X115409928Y-71713236D01*
X115381860Y-71716000D01*
X113568140Y-71716000D01*
X113540072Y-71713236D01*
X113518991Y-71706840D01*
X113499555Y-71696452D01*
X113482524Y-71682476D01*
X113468548Y-71665445D01*
X113458160Y-71646009D01*
X113451764Y-71624928D01*
X113449000Y-71596860D01*
X113449000Y-71133140D01*
X113451764Y-71105072D01*
X113458160Y-71083991D01*
X113468548Y-71064555D01*
X113482524Y-71047524D01*
X113499555Y-71033548D01*
X113518991Y-71023160D01*
X113540072Y-71016764D01*
X113568140Y-71014000D01*
X115381860Y-71014000D01*
X115409928Y-71016764D01*
G37*
G36*
X88113512Y-69643927D02*
G01*
X88262812Y-69673624D01*
X88426784Y-69741544D01*
X88574354Y-69840147D01*
X88699853Y-69965646D01*
X88798456Y-70113216D01*
X88866376Y-70277188D01*
X88896066Y-70426452D01*
X88900949Y-70451000D01*
X88901000Y-70451259D01*
X88901000Y-70628741D01*
X88866376Y-70802812D01*
X88798456Y-70966784D01*
X88699853Y-71114354D01*
X88574354Y-71239853D01*
X88426784Y-71338456D01*
X88262812Y-71406376D01*
X88113512Y-71436073D01*
X88088742Y-71441000D01*
X87911258Y-71441000D01*
X87886488Y-71436073D01*
X87737188Y-71406376D01*
X87573216Y-71338456D01*
X87425646Y-71239853D01*
X87300147Y-71114354D01*
X87201544Y-70966784D01*
X87133624Y-70802812D01*
X87099000Y-70628741D01*
X87099000Y-70451259D01*
X87099052Y-70451000D01*
X87103934Y-70426452D01*
X87133624Y-70277188D01*
X87201544Y-70113216D01*
X87300147Y-69965646D01*
X87425646Y-69840147D01*
X87573216Y-69741544D01*
X87737188Y-69673624D01*
X87886488Y-69643927D01*
X87911258Y-69639000D01*
X88088742Y-69639000D01*
X88113512Y-69643927D01*
G37*
G36*
X137113512Y-69643927D02*
G01*
X137262812Y-69673624D01*
X137426784Y-69741544D01*
X137574354Y-69840147D01*
X137699853Y-69965646D01*
X137798456Y-70113216D01*
X137866376Y-70277188D01*
X137896066Y-70426452D01*
X137900949Y-70451000D01*
X137901000Y-70451259D01*
X137901000Y-70628741D01*
X137866376Y-70802812D01*
X137798456Y-70966784D01*
X137699853Y-71114354D01*
X137574354Y-71239853D01*
X137426784Y-71338456D01*
X137262812Y-71406376D01*
X137113512Y-71436073D01*
X137088742Y-71441000D01*
X136911258Y-71441000D01*
X136886488Y-71436073D01*
X136737188Y-71406376D01*
X136573216Y-71338456D01*
X136425646Y-71239853D01*
X136300147Y-71114354D01*
X136201544Y-70966784D01*
X136133624Y-70802812D01*
X136099000Y-70628741D01*
X136099000Y-70451259D01*
X136099052Y-70451000D01*
X136103934Y-70426452D01*
X136133624Y-70277188D01*
X136201544Y-70113216D01*
X136300147Y-69965646D01*
X136425646Y-69840147D01*
X136573216Y-69741544D01*
X136737188Y-69673624D01*
X136886488Y-69643927D01*
X136911258Y-69639000D01*
X137088742Y-69639000D01*
X137113512Y-69643927D01*
G37*
G36*
X133364499Y-70178445D02*
G01*
X133401995Y-70189820D01*
X133436554Y-70208292D01*
X133466847Y-70233153D01*
X133491708Y-70263446D01*
X133510180Y-70298005D01*
X133521555Y-70335501D01*
X133526000Y-70380638D01*
X133526000Y-71119362D01*
X133521555Y-71164499D01*
X133510180Y-71201995D01*
X133491708Y-71236554D01*
X133466847Y-71266847D01*
X133436554Y-71291708D01*
X133401995Y-71310180D01*
X133364499Y-71321555D01*
X133319362Y-71326000D01*
X132680638Y-71326000D01*
X132635501Y-71321555D01*
X132598005Y-71310180D01*
X132563446Y-71291708D01*
X132533153Y-71266847D01*
X132508292Y-71236554D01*
X132489820Y-71201995D01*
X132478445Y-71164499D01*
X132474000Y-71119362D01*
X132474000Y-70380638D01*
X132478445Y-70335501D01*
X132489820Y-70298005D01*
X132508292Y-70263446D01*
X132533153Y-70233153D01*
X132563446Y-70208292D01*
X132598005Y-70189820D01*
X132635501Y-70178445D01*
X132680638Y-70174000D01*
X133319362Y-70174000D01*
X133364499Y-70178445D01*
G37*
G36*
X119364499Y-69303445D02*
G01*
X119401995Y-69314820D01*
X119436554Y-69333292D01*
X119466847Y-69358153D01*
X119491708Y-69388446D01*
X119510180Y-69423005D01*
X119521555Y-69460501D01*
X119526000Y-69505638D01*
X119526000Y-70244362D01*
X119521555Y-70289499D01*
X119510180Y-70326995D01*
X119491708Y-70361554D01*
X119466847Y-70391847D01*
X119436554Y-70416708D01*
X119401995Y-70435180D01*
X119364499Y-70446555D01*
X119319362Y-70451000D01*
X118680638Y-70451000D01*
X118635501Y-70446555D01*
X118598005Y-70435180D01*
X118563446Y-70416708D01*
X118533153Y-70391847D01*
X118508292Y-70361554D01*
X118489820Y-70326995D01*
X118478445Y-70289499D01*
X118474000Y-70244362D01*
X118474000Y-69505638D01*
X118478445Y-69460501D01*
X118489820Y-69423005D01*
X118508292Y-69388446D01*
X118533153Y-69358153D01*
X118563446Y-69333292D01*
X118598005Y-69314820D01*
X118635501Y-69303445D01*
X118680638Y-69299000D01*
X119319362Y-69299000D01*
X119364499Y-69303445D01*
G37*
G36*
X110459928Y-69746764D02*
G01*
X110481009Y-69753160D01*
X110500445Y-69763548D01*
X110517476Y-69777524D01*
X110531452Y-69794555D01*
X110541840Y-69813991D01*
X110548236Y-69835072D01*
X110551000Y-69863140D01*
X110551000Y-70326860D01*
X110548236Y-70354928D01*
X110541840Y-70376009D01*
X110531452Y-70395445D01*
X110517476Y-70412476D01*
X110500445Y-70426452D01*
X110481009Y-70436840D01*
X110459928Y-70443236D01*
X110431860Y-70446000D01*
X108618140Y-70446000D01*
X108590072Y-70443236D01*
X108568991Y-70436840D01*
X108549555Y-70426452D01*
X108532524Y-70412476D01*
X108518548Y-70395445D01*
X108508160Y-70376009D01*
X108501764Y-70354928D01*
X108499000Y-70326860D01*
X108499000Y-69863140D01*
X108501764Y-69835072D01*
X108508160Y-69813991D01*
X108518548Y-69794555D01*
X108532524Y-69777524D01*
X108549555Y-69763548D01*
X108568991Y-69753160D01*
X108590072Y-69746764D01*
X108618140Y-69744000D01*
X110431860Y-69744000D01*
X110459928Y-69746764D01*
G37*
G36*
X115409928Y-69746764D02*
G01*
X115431009Y-69753160D01*
X115450445Y-69763548D01*
X115467476Y-69777524D01*
X115481452Y-69794555D01*
X115491840Y-69813991D01*
X115498236Y-69835072D01*
X115501000Y-69863140D01*
X115501000Y-70326860D01*
X115498236Y-70354928D01*
X115491840Y-70376009D01*
X115481452Y-70395445D01*
X115467476Y-70412476D01*
X115450445Y-70426452D01*
X115431009Y-70436840D01*
X115409928Y-70443236D01*
X115381860Y-70446000D01*
X113568140Y-70446000D01*
X113540072Y-70443236D01*
X113518991Y-70436840D01*
X113499555Y-70426452D01*
X113482524Y-70412476D01*
X113468548Y-70395445D01*
X113458160Y-70376009D01*
X113451764Y-70354928D01*
X113449000Y-70326860D01*
X113449000Y-69863140D01*
X113451764Y-69835072D01*
X113458160Y-69813991D01*
X113468548Y-69794555D01*
X113482524Y-69777524D01*
X113499555Y-69763548D01*
X113518991Y-69753160D01*
X113540072Y-69746764D01*
X113568140Y-69744000D01*
X115381860Y-69744000D01*
X115409928Y-69746764D01*
G37*
G36*
X133364499Y-68428445D02*
G01*
X133401995Y-68439820D01*
X133436554Y-68458292D01*
X133466847Y-68483153D01*
X133491708Y-68513446D01*
X133510180Y-68548005D01*
X133521555Y-68585501D01*
X133526000Y-68630638D01*
X133526000Y-69369362D01*
X133521555Y-69414499D01*
X133510180Y-69451995D01*
X133491708Y-69486554D01*
X133466847Y-69516847D01*
X133436554Y-69541708D01*
X133401995Y-69560180D01*
X133364499Y-69571555D01*
X133319362Y-69576000D01*
X132680638Y-69576000D01*
X132635501Y-69571555D01*
X132598005Y-69560180D01*
X132563446Y-69541708D01*
X132533153Y-69516847D01*
X132508292Y-69486554D01*
X132489820Y-69451995D01*
X132478445Y-69414499D01*
X132474000Y-69369362D01*
X132474000Y-68630638D01*
X132478445Y-68585501D01*
X132489820Y-68548005D01*
X132508292Y-68513446D01*
X132533153Y-68483153D01*
X132563446Y-68458292D01*
X132598005Y-68439820D01*
X132635501Y-68428445D01*
X132680638Y-68424000D01*
X133319362Y-68424000D01*
X133364499Y-68428445D01*
G37*
G36*
X115409928Y-68476764D02*
G01*
X115431009Y-68483160D01*
X115450445Y-68493548D01*
X115467476Y-68507524D01*
X115481452Y-68524555D01*
X115491840Y-68543991D01*
X115498236Y-68565072D01*
X115501000Y-68593140D01*
X115501000Y-69056860D01*
X115498236Y-69084928D01*
X115491840Y-69106009D01*
X115481452Y-69125445D01*
X115467476Y-69142476D01*
X115450445Y-69156452D01*
X115431009Y-69166840D01*
X115409928Y-69173236D01*
X115381860Y-69176000D01*
X113568140Y-69176000D01*
X113540072Y-69173236D01*
X113518991Y-69166840D01*
X113499555Y-69156452D01*
X113482524Y-69142476D01*
X113468548Y-69125445D01*
X113458160Y-69106009D01*
X113451764Y-69084928D01*
X113449000Y-69056860D01*
X113449000Y-68593140D01*
X113451764Y-68565072D01*
X113458160Y-68543991D01*
X113468548Y-68524555D01*
X113482524Y-68507524D01*
X113499555Y-68493548D01*
X113518991Y-68483160D01*
X113540072Y-68476764D01*
X113568140Y-68474000D01*
X115381860Y-68474000D01*
X115409928Y-68476764D01*
G37*
G36*
X110459928Y-68476764D02*
G01*
X110481009Y-68483160D01*
X110500445Y-68493548D01*
X110517476Y-68507524D01*
X110531452Y-68524555D01*
X110541840Y-68543991D01*
X110548236Y-68565072D01*
X110551000Y-68593140D01*
X110551000Y-69056860D01*
X110548236Y-69084928D01*
X110541840Y-69106009D01*
X110531452Y-69125445D01*
X110517476Y-69142476D01*
X110500445Y-69156452D01*
X110481009Y-69166840D01*
X110459928Y-69173236D01*
X110431860Y-69176000D01*
X108618140Y-69176000D01*
X108590072Y-69173236D01*
X108568991Y-69166840D01*
X108549555Y-69156452D01*
X108532524Y-69142476D01*
X108518548Y-69125445D01*
X108508160Y-69106009D01*
X108501764Y-69084928D01*
X108499000Y-69056860D01*
X108499000Y-68593140D01*
X108501764Y-68565072D01*
X108508160Y-68543991D01*
X108518548Y-68524555D01*
X108532524Y-68507524D01*
X108549555Y-68493548D01*
X108568991Y-68483160D01*
X108590072Y-68476764D01*
X108618140Y-68474000D01*
X110431860Y-68474000D01*
X110459928Y-68476764D01*
G37*
G36*
X137901000Y-68901000D02*
G01*
X136099000Y-68901000D01*
X136099000Y-67099000D01*
X137901000Y-67099000D01*
X137901000Y-68901000D01*
G37*
G36*
X88901000Y-68901000D02*
G01*
X87099000Y-68901000D01*
X87099000Y-67099000D01*
X88901000Y-67099000D01*
X88901000Y-68901000D01*
G37*
G36*
X119364499Y-67553445D02*
G01*
X119401995Y-67564820D01*
X119436554Y-67583292D01*
X119466847Y-67608153D01*
X119491708Y-67638446D01*
X119510180Y-67673005D01*
X119521555Y-67710501D01*
X119526000Y-67755638D01*
X119526000Y-68494362D01*
X119521555Y-68539499D01*
X119510180Y-68576995D01*
X119491708Y-68611554D01*
X119466847Y-68641847D01*
X119436554Y-68666708D01*
X119401995Y-68685180D01*
X119364499Y-68696555D01*
X119319362Y-68701000D01*
X118680638Y-68701000D01*
X118635501Y-68696555D01*
X118598005Y-68685180D01*
X118563446Y-68666708D01*
X118533153Y-68641847D01*
X118508292Y-68611554D01*
X118489820Y-68576995D01*
X118478445Y-68539499D01*
X118474000Y-68494362D01*
X118474000Y-67755638D01*
X118478445Y-67710501D01*
X118489820Y-67673005D01*
X118508292Y-67638446D01*
X118533153Y-67608153D01*
X118563446Y-67583292D01*
X118598005Y-67564820D01*
X118635501Y-67553445D01*
X118680638Y-67549000D01*
X119319362Y-67549000D01*
X119364499Y-67553445D01*
G37*
G36*
X110459928Y-67206764D02*
G01*
X110481009Y-67213160D01*
X110500445Y-67223548D01*
X110517476Y-67237524D01*
X110531452Y-67254555D01*
X110541840Y-67273991D01*
X110548236Y-67295072D01*
X110551000Y-67323140D01*
X110551000Y-67786860D01*
X110548236Y-67814928D01*
X110541840Y-67836009D01*
X110531452Y-67855445D01*
X110517476Y-67872476D01*
X110500445Y-67886452D01*
X110481009Y-67896840D01*
X110459928Y-67903236D01*
X110431860Y-67906000D01*
X108618140Y-67906000D01*
X108590072Y-67903236D01*
X108568991Y-67896840D01*
X108549555Y-67886452D01*
X108532524Y-67872476D01*
X108518548Y-67855445D01*
X108508160Y-67836009D01*
X108501764Y-67814928D01*
X108499000Y-67786860D01*
X108499000Y-67323140D01*
X108501764Y-67295072D01*
X108508160Y-67273991D01*
X108518548Y-67254555D01*
X108532524Y-67237524D01*
X108549555Y-67223548D01*
X108568991Y-67213160D01*
X108590072Y-67206764D01*
X108618140Y-67204000D01*
X110431860Y-67204000D01*
X110459928Y-67206764D01*
G37*
G36*
X115409928Y-67206764D02*
G01*
X115431009Y-67213160D01*
X115450445Y-67223548D01*
X115467476Y-67237524D01*
X115481452Y-67254555D01*
X115491840Y-67273991D01*
X115498236Y-67295072D01*
X115501000Y-67323140D01*
X115501000Y-67786860D01*
X115498236Y-67814928D01*
X115491840Y-67836009D01*
X115481452Y-67855445D01*
X115467476Y-67872476D01*
X115450445Y-67886452D01*
X115431009Y-67896840D01*
X115409928Y-67903236D01*
X115381860Y-67906000D01*
X113568140Y-67906000D01*
X113540072Y-67903236D01*
X113518991Y-67896840D01*
X113499555Y-67886452D01*
X113482524Y-67872476D01*
X113468548Y-67855445D01*
X113458160Y-67836009D01*
X113451764Y-67814928D01*
X113449000Y-67786860D01*
X113449000Y-67323140D01*
X113451764Y-67295072D01*
X113458160Y-67273991D01*
X113468548Y-67254555D01*
X113482524Y-67237524D01*
X113499555Y-67223548D01*
X113518991Y-67213160D01*
X113540072Y-67206764D01*
X113568140Y-67204000D01*
X115381860Y-67204000D01*
X115409928Y-67206764D01*
G37*
M02*
