G04 #@! TF.GenerationSoftware,KiCad,Pcbnew,5.1.5-52549c5~84~ubuntu18.04.1*
G04 #@! TF.CreationDate,2020-03-03T19:20:35-07:00*
G04 #@! TF.ProjectId,transmitter-test,7472616e-736d-4697-9474-65722d746573,rev?*
G04 #@! TF.SameCoordinates,Original*
G04 #@! TF.FileFunction,Paste,Top*
G04 #@! TF.FilePolarity,Positive*
%FSLAX46Y46*%
G04 Gerber Fmt 4.6, Leading zero omitted, Abs format (unit mm)*
G04 Created by KiCad (PCBNEW 5.1.5-52549c5~84~ubuntu18.04.1) date 2020-03-03 19:20:35*
%MOMM*%
%LPD*%
G04 APERTURE LIST*
%ADD10C,0.100000*%
G04 APERTURE END LIST*
D10*
G36*
X115314703Y-67255722D02*
G01*
X115329264Y-67257882D01*
X115343543Y-67261459D01*
X115357403Y-67266418D01*
X115370710Y-67272712D01*
X115383336Y-67280280D01*
X115395159Y-67289048D01*
X115406066Y-67298934D01*
X115415952Y-67309841D01*
X115424720Y-67321664D01*
X115432288Y-67334290D01*
X115438582Y-67347597D01*
X115443541Y-67361457D01*
X115447118Y-67375736D01*
X115449278Y-67390297D01*
X115450000Y-67405000D01*
X115450000Y-67705000D01*
X115449278Y-67719703D01*
X115447118Y-67734264D01*
X115443541Y-67748543D01*
X115438582Y-67762403D01*
X115432288Y-67775710D01*
X115424720Y-67788336D01*
X115415952Y-67800159D01*
X115406066Y-67811066D01*
X115395159Y-67820952D01*
X115383336Y-67829720D01*
X115370710Y-67837288D01*
X115357403Y-67843582D01*
X115343543Y-67848541D01*
X115329264Y-67852118D01*
X115314703Y-67854278D01*
X115300000Y-67855000D01*
X113650000Y-67855000D01*
X113635297Y-67854278D01*
X113620736Y-67852118D01*
X113606457Y-67848541D01*
X113592597Y-67843582D01*
X113579290Y-67837288D01*
X113566664Y-67829720D01*
X113554841Y-67820952D01*
X113543934Y-67811066D01*
X113534048Y-67800159D01*
X113525280Y-67788336D01*
X113517712Y-67775710D01*
X113511418Y-67762403D01*
X113506459Y-67748543D01*
X113502882Y-67734264D01*
X113500722Y-67719703D01*
X113500000Y-67705000D01*
X113500000Y-67405000D01*
X113500722Y-67390297D01*
X113502882Y-67375736D01*
X113506459Y-67361457D01*
X113511418Y-67347597D01*
X113517712Y-67334290D01*
X113525280Y-67321664D01*
X113534048Y-67309841D01*
X113543934Y-67298934D01*
X113554841Y-67289048D01*
X113566664Y-67280280D01*
X113579290Y-67272712D01*
X113592597Y-67266418D01*
X113606457Y-67261459D01*
X113620736Y-67257882D01*
X113635297Y-67255722D01*
X113650000Y-67255000D01*
X115300000Y-67255000D01*
X115314703Y-67255722D01*
G37*
G36*
X115314703Y-68525722D02*
G01*
X115329264Y-68527882D01*
X115343543Y-68531459D01*
X115357403Y-68536418D01*
X115370710Y-68542712D01*
X115383336Y-68550280D01*
X115395159Y-68559048D01*
X115406066Y-68568934D01*
X115415952Y-68579841D01*
X115424720Y-68591664D01*
X115432288Y-68604290D01*
X115438582Y-68617597D01*
X115443541Y-68631457D01*
X115447118Y-68645736D01*
X115449278Y-68660297D01*
X115450000Y-68675000D01*
X115450000Y-68975000D01*
X115449278Y-68989703D01*
X115447118Y-69004264D01*
X115443541Y-69018543D01*
X115438582Y-69032403D01*
X115432288Y-69045710D01*
X115424720Y-69058336D01*
X115415952Y-69070159D01*
X115406066Y-69081066D01*
X115395159Y-69090952D01*
X115383336Y-69099720D01*
X115370710Y-69107288D01*
X115357403Y-69113582D01*
X115343543Y-69118541D01*
X115329264Y-69122118D01*
X115314703Y-69124278D01*
X115300000Y-69125000D01*
X113650000Y-69125000D01*
X113635297Y-69124278D01*
X113620736Y-69122118D01*
X113606457Y-69118541D01*
X113592597Y-69113582D01*
X113579290Y-69107288D01*
X113566664Y-69099720D01*
X113554841Y-69090952D01*
X113543934Y-69081066D01*
X113534048Y-69070159D01*
X113525280Y-69058336D01*
X113517712Y-69045710D01*
X113511418Y-69032403D01*
X113506459Y-69018543D01*
X113502882Y-69004264D01*
X113500722Y-68989703D01*
X113500000Y-68975000D01*
X113500000Y-68675000D01*
X113500722Y-68660297D01*
X113502882Y-68645736D01*
X113506459Y-68631457D01*
X113511418Y-68617597D01*
X113517712Y-68604290D01*
X113525280Y-68591664D01*
X113534048Y-68579841D01*
X113543934Y-68568934D01*
X113554841Y-68559048D01*
X113566664Y-68550280D01*
X113579290Y-68542712D01*
X113592597Y-68536418D01*
X113606457Y-68531459D01*
X113620736Y-68527882D01*
X113635297Y-68525722D01*
X113650000Y-68525000D01*
X115300000Y-68525000D01*
X115314703Y-68525722D01*
G37*
G36*
X115314703Y-69795722D02*
G01*
X115329264Y-69797882D01*
X115343543Y-69801459D01*
X115357403Y-69806418D01*
X115370710Y-69812712D01*
X115383336Y-69820280D01*
X115395159Y-69829048D01*
X115406066Y-69838934D01*
X115415952Y-69849841D01*
X115424720Y-69861664D01*
X115432288Y-69874290D01*
X115438582Y-69887597D01*
X115443541Y-69901457D01*
X115447118Y-69915736D01*
X115449278Y-69930297D01*
X115450000Y-69945000D01*
X115450000Y-70245000D01*
X115449278Y-70259703D01*
X115447118Y-70274264D01*
X115443541Y-70288543D01*
X115438582Y-70302403D01*
X115432288Y-70315710D01*
X115424720Y-70328336D01*
X115415952Y-70340159D01*
X115406066Y-70351066D01*
X115395159Y-70360952D01*
X115383336Y-70369720D01*
X115370710Y-70377288D01*
X115357403Y-70383582D01*
X115343543Y-70388541D01*
X115329264Y-70392118D01*
X115314703Y-70394278D01*
X115300000Y-70395000D01*
X113650000Y-70395000D01*
X113635297Y-70394278D01*
X113620736Y-70392118D01*
X113606457Y-70388541D01*
X113592597Y-70383582D01*
X113579290Y-70377288D01*
X113566664Y-70369720D01*
X113554841Y-70360952D01*
X113543934Y-70351066D01*
X113534048Y-70340159D01*
X113525280Y-70328336D01*
X113517712Y-70315710D01*
X113511418Y-70302403D01*
X113506459Y-70288543D01*
X113502882Y-70274264D01*
X113500722Y-70259703D01*
X113500000Y-70245000D01*
X113500000Y-69945000D01*
X113500722Y-69930297D01*
X113502882Y-69915736D01*
X113506459Y-69901457D01*
X113511418Y-69887597D01*
X113517712Y-69874290D01*
X113525280Y-69861664D01*
X113534048Y-69849841D01*
X113543934Y-69838934D01*
X113554841Y-69829048D01*
X113566664Y-69820280D01*
X113579290Y-69812712D01*
X113592597Y-69806418D01*
X113606457Y-69801459D01*
X113620736Y-69797882D01*
X113635297Y-69795722D01*
X113650000Y-69795000D01*
X115300000Y-69795000D01*
X115314703Y-69795722D01*
G37*
G36*
X115314703Y-71065722D02*
G01*
X115329264Y-71067882D01*
X115343543Y-71071459D01*
X115357403Y-71076418D01*
X115370710Y-71082712D01*
X115383336Y-71090280D01*
X115395159Y-71099048D01*
X115406066Y-71108934D01*
X115415952Y-71119841D01*
X115424720Y-71131664D01*
X115432288Y-71144290D01*
X115438582Y-71157597D01*
X115443541Y-71171457D01*
X115447118Y-71185736D01*
X115449278Y-71200297D01*
X115450000Y-71215000D01*
X115450000Y-71515000D01*
X115449278Y-71529703D01*
X115447118Y-71544264D01*
X115443541Y-71558543D01*
X115438582Y-71572403D01*
X115432288Y-71585710D01*
X115424720Y-71598336D01*
X115415952Y-71610159D01*
X115406066Y-71621066D01*
X115395159Y-71630952D01*
X115383336Y-71639720D01*
X115370710Y-71647288D01*
X115357403Y-71653582D01*
X115343543Y-71658541D01*
X115329264Y-71662118D01*
X115314703Y-71664278D01*
X115300000Y-71665000D01*
X113650000Y-71665000D01*
X113635297Y-71664278D01*
X113620736Y-71662118D01*
X113606457Y-71658541D01*
X113592597Y-71653582D01*
X113579290Y-71647288D01*
X113566664Y-71639720D01*
X113554841Y-71630952D01*
X113543934Y-71621066D01*
X113534048Y-71610159D01*
X113525280Y-71598336D01*
X113517712Y-71585710D01*
X113511418Y-71572403D01*
X113506459Y-71558543D01*
X113502882Y-71544264D01*
X113500722Y-71529703D01*
X113500000Y-71515000D01*
X113500000Y-71215000D01*
X113500722Y-71200297D01*
X113502882Y-71185736D01*
X113506459Y-71171457D01*
X113511418Y-71157597D01*
X113517712Y-71144290D01*
X113525280Y-71131664D01*
X113534048Y-71119841D01*
X113543934Y-71108934D01*
X113554841Y-71099048D01*
X113566664Y-71090280D01*
X113579290Y-71082712D01*
X113592597Y-71076418D01*
X113606457Y-71071459D01*
X113620736Y-71067882D01*
X113635297Y-71065722D01*
X113650000Y-71065000D01*
X115300000Y-71065000D01*
X115314703Y-71065722D01*
G37*
G36*
X115314703Y-72335722D02*
G01*
X115329264Y-72337882D01*
X115343543Y-72341459D01*
X115357403Y-72346418D01*
X115370710Y-72352712D01*
X115383336Y-72360280D01*
X115395159Y-72369048D01*
X115406066Y-72378934D01*
X115415952Y-72389841D01*
X115424720Y-72401664D01*
X115432288Y-72414290D01*
X115438582Y-72427597D01*
X115443541Y-72441457D01*
X115447118Y-72455736D01*
X115449278Y-72470297D01*
X115450000Y-72485000D01*
X115450000Y-72785000D01*
X115449278Y-72799703D01*
X115447118Y-72814264D01*
X115443541Y-72828543D01*
X115438582Y-72842403D01*
X115432288Y-72855710D01*
X115424720Y-72868336D01*
X115415952Y-72880159D01*
X115406066Y-72891066D01*
X115395159Y-72900952D01*
X115383336Y-72909720D01*
X115370710Y-72917288D01*
X115357403Y-72923582D01*
X115343543Y-72928541D01*
X115329264Y-72932118D01*
X115314703Y-72934278D01*
X115300000Y-72935000D01*
X113650000Y-72935000D01*
X113635297Y-72934278D01*
X113620736Y-72932118D01*
X113606457Y-72928541D01*
X113592597Y-72923582D01*
X113579290Y-72917288D01*
X113566664Y-72909720D01*
X113554841Y-72900952D01*
X113543934Y-72891066D01*
X113534048Y-72880159D01*
X113525280Y-72868336D01*
X113517712Y-72855710D01*
X113511418Y-72842403D01*
X113506459Y-72828543D01*
X113502882Y-72814264D01*
X113500722Y-72799703D01*
X113500000Y-72785000D01*
X113500000Y-72485000D01*
X113500722Y-72470297D01*
X113502882Y-72455736D01*
X113506459Y-72441457D01*
X113511418Y-72427597D01*
X113517712Y-72414290D01*
X113525280Y-72401664D01*
X113534048Y-72389841D01*
X113543934Y-72378934D01*
X113554841Y-72369048D01*
X113566664Y-72360280D01*
X113579290Y-72352712D01*
X113592597Y-72346418D01*
X113606457Y-72341459D01*
X113620736Y-72337882D01*
X113635297Y-72335722D01*
X113650000Y-72335000D01*
X115300000Y-72335000D01*
X115314703Y-72335722D01*
G37*
G36*
X115314703Y-73605722D02*
G01*
X115329264Y-73607882D01*
X115343543Y-73611459D01*
X115357403Y-73616418D01*
X115370710Y-73622712D01*
X115383336Y-73630280D01*
X115395159Y-73639048D01*
X115406066Y-73648934D01*
X115415952Y-73659841D01*
X115424720Y-73671664D01*
X115432288Y-73684290D01*
X115438582Y-73697597D01*
X115443541Y-73711457D01*
X115447118Y-73725736D01*
X115449278Y-73740297D01*
X115450000Y-73755000D01*
X115450000Y-74055000D01*
X115449278Y-74069703D01*
X115447118Y-74084264D01*
X115443541Y-74098543D01*
X115438582Y-74112403D01*
X115432288Y-74125710D01*
X115424720Y-74138336D01*
X115415952Y-74150159D01*
X115406066Y-74161066D01*
X115395159Y-74170952D01*
X115383336Y-74179720D01*
X115370710Y-74187288D01*
X115357403Y-74193582D01*
X115343543Y-74198541D01*
X115329264Y-74202118D01*
X115314703Y-74204278D01*
X115300000Y-74205000D01*
X113650000Y-74205000D01*
X113635297Y-74204278D01*
X113620736Y-74202118D01*
X113606457Y-74198541D01*
X113592597Y-74193582D01*
X113579290Y-74187288D01*
X113566664Y-74179720D01*
X113554841Y-74170952D01*
X113543934Y-74161066D01*
X113534048Y-74150159D01*
X113525280Y-74138336D01*
X113517712Y-74125710D01*
X113511418Y-74112403D01*
X113506459Y-74098543D01*
X113502882Y-74084264D01*
X113500722Y-74069703D01*
X113500000Y-74055000D01*
X113500000Y-73755000D01*
X113500722Y-73740297D01*
X113502882Y-73725736D01*
X113506459Y-73711457D01*
X113511418Y-73697597D01*
X113517712Y-73684290D01*
X113525280Y-73671664D01*
X113534048Y-73659841D01*
X113543934Y-73648934D01*
X113554841Y-73639048D01*
X113566664Y-73630280D01*
X113579290Y-73622712D01*
X113592597Y-73616418D01*
X113606457Y-73611459D01*
X113620736Y-73607882D01*
X113635297Y-73605722D01*
X113650000Y-73605000D01*
X115300000Y-73605000D01*
X115314703Y-73605722D01*
G37*
G36*
X115314703Y-74875722D02*
G01*
X115329264Y-74877882D01*
X115343543Y-74881459D01*
X115357403Y-74886418D01*
X115370710Y-74892712D01*
X115383336Y-74900280D01*
X115395159Y-74909048D01*
X115406066Y-74918934D01*
X115415952Y-74929841D01*
X115424720Y-74941664D01*
X115432288Y-74954290D01*
X115438582Y-74967597D01*
X115443541Y-74981457D01*
X115447118Y-74995736D01*
X115449278Y-75010297D01*
X115450000Y-75025000D01*
X115450000Y-75325000D01*
X115449278Y-75339703D01*
X115447118Y-75354264D01*
X115443541Y-75368543D01*
X115438582Y-75382403D01*
X115432288Y-75395710D01*
X115424720Y-75408336D01*
X115415952Y-75420159D01*
X115406066Y-75431066D01*
X115395159Y-75440952D01*
X115383336Y-75449720D01*
X115370710Y-75457288D01*
X115357403Y-75463582D01*
X115343543Y-75468541D01*
X115329264Y-75472118D01*
X115314703Y-75474278D01*
X115300000Y-75475000D01*
X113650000Y-75475000D01*
X113635297Y-75474278D01*
X113620736Y-75472118D01*
X113606457Y-75468541D01*
X113592597Y-75463582D01*
X113579290Y-75457288D01*
X113566664Y-75449720D01*
X113554841Y-75440952D01*
X113543934Y-75431066D01*
X113534048Y-75420159D01*
X113525280Y-75408336D01*
X113517712Y-75395710D01*
X113511418Y-75382403D01*
X113506459Y-75368543D01*
X113502882Y-75354264D01*
X113500722Y-75339703D01*
X113500000Y-75325000D01*
X113500000Y-75025000D01*
X113500722Y-75010297D01*
X113502882Y-74995736D01*
X113506459Y-74981457D01*
X113511418Y-74967597D01*
X113517712Y-74954290D01*
X113525280Y-74941664D01*
X113534048Y-74929841D01*
X113543934Y-74918934D01*
X113554841Y-74909048D01*
X113566664Y-74900280D01*
X113579290Y-74892712D01*
X113592597Y-74886418D01*
X113606457Y-74881459D01*
X113620736Y-74877882D01*
X113635297Y-74875722D01*
X113650000Y-74875000D01*
X115300000Y-74875000D01*
X115314703Y-74875722D01*
G37*
G36*
X115314703Y-76145722D02*
G01*
X115329264Y-76147882D01*
X115343543Y-76151459D01*
X115357403Y-76156418D01*
X115370710Y-76162712D01*
X115383336Y-76170280D01*
X115395159Y-76179048D01*
X115406066Y-76188934D01*
X115415952Y-76199841D01*
X115424720Y-76211664D01*
X115432288Y-76224290D01*
X115438582Y-76237597D01*
X115443541Y-76251457D01*
X115447118Y-76265736D01*
X115449278Y-76280297D01*
X115450000Y-76295000D01*
X115450000Y-76595000D01*
X115449278Y-76609703D01*
X115447118Y-76624264D01*
X115443541Y-76638543D01*
X115438582Y-76652403D01*
X115432288Y-76665710D01*
X115424720Y-76678336D01*
X115415952Y-76690159D01*
X115406066Y-76701066D01*
X115395159Y-76710952D01*
X115383336Y-76719720D01*
X115370710Y-76727288D01*
X115357403Y-76733582D01*
X115343543Y-76738541D01*
X115329264Y-76742118D01*
X115314703Y-76744278D01*
X115300000Y-76745000D01*
X113650000Y-76745000D01*
X113635297Y-76744278D01*
X113620736Y-76742118D01*
X113606457Y-76738541D01*
X113592597Y-76733582D01*
X113579290Y-76727288D01*
X113566664Y-76719720D01*
X113554841Y-76710952D01*
X113543934Y-76701066D01*
X113534048Y-76690159D01*
X113525280Y-76678336D01*
X113517712Y-76665710D01*
X113511418Y-76652403D01*
X113506459Y-76638543D01*
X113502882Y-76624264D01*
X113500722Y-76609703D01*
X113500000Y-76595000D01*
X113500000Y-76295000D01*
X113500722Y-76280297D01*
X113502882Y-76265736D01*
X113506459Y-76251457D01*
X113511418Y-76237597D01*
X113517712Y-76224290D01*
X113525280Y-76211664D01*
X113534048Y-76199841D01*
X113543934Y-76188934D01*
X113554841Y-76179048D01*
X113566664Y-76170280D01*
X113579290Y-76162712D01*
X113592597Y-76156418D01*
X113606457Y-76151459D01*
X113620736Y-76147882D01*
X113635297Y-76145722D01*
X113650000Y-76145000D01*
X115300000Y-76145000D01*
X115314703Y-76145722D01*
G37*
G36*
X110364703Y-76145722D02*
G01*
X110379264Y-76147882D01*
X110393543Y-76151459D01*
X110407403Y-76156418D01*
X110420710Y-76162712D01*
X110433336Y-76170280D01*
X110445159Y-76179048D01*
X110456066Y-76188934D01*
X110465952Y-76199841D01*
X110474720Y-76211664D01*
X110482288Y-76224290D01*
X110488582Y-76237597D01*
X110493541Y-76251457D01*
X110497118Y-76265736D01*
X110499278Y-76280297D01*
X110500000Y-76295000D01*
X110500000Y-76595000D01*
X110499278Y-76609703D01*
X110497118Y-76624264D01*
X110493541Y-76638543D01*
X110488582Y-76652403D01*
X110482288Y-76665710D01*
X110474720Y-76678336D01*
X110465952Y-76690159D01*
X110456066Y-76701066D01*
X110445159Y-76710952D01*
X110433336Y-76719720D01*
X110420710Y-76727288D01*
X110407403Y-76733582D01*
X110393543Y-76738541D01*
X110379264Y-76742118D01*
X110364703Y-76744278D01*
X110350000Y-76745000D01*
X108700000Y-76745000D01*
X108685297Y-76744278D01*
X108670736Y-76742118D01*
X108656457Y-76738541D01*
X108642597Y-76733582D01*
X108629290Y-76727288D01*
X108616664Y-76719720D01*
X108604841Y-76710952D01*
X108593934Y-76701066D01*
X108584048Y-76690159D01*
X108575280Y-76678336D01*
X108567712Y-76665710D01*
X108561418Y-76652403D01*
X108556459Y-76638543D01*
X108552882Y-76624264D01*
X108550722Y-76609703D01*
X108550000Y-76595000D01*
X108550000Y-76295000D01*
X108550722Y-76280297D01*
X108552882Y-76265736D01*
X108556459Y-76251457D01*
X108561418Y-76237597D01*
X108567712Y-76224290D01*
X108575280Y-76211664D01*
X108584048Y-76199841D01*
X108593934Y-76188934D01*
X108604841Y-76179048D01*
X108616664Y-76170280D01*
X108629290Y-76162712D01*
X108642597Y-76156418D01*
X108656457Y-76151459D01*
X108670736Y-76147882D01*
X108685297Y-76145722D01*
X108700000Y-76145000D01*
X110350000Y-76145000D01*
X110364703Y-76145722D01*
G37*
G36*
X110364703Y-74875722D02*
G01*
X110379264Y-74877882D01*
X110393543Y-74881459D01*
X110407403Y-74886418D01*
X110420710Y-74892712D01*
X110433336Y-74900280D01*
X110445159Y-74909048D01*
X110456066Y-74918934D01*
X110465952Y-74929841D01*
X110474720Y-74941664D01*
X110482288Y-74954290D01*
X110488582Y-74967597D01*
X110493541Y-74981457D01*
X110497118Y-74995736D01*
X110499278Y-75010297D01*
X110500000Y-75025000D01*
X110500000Y-75325000D01*
X110499278Y-75339703D01*
X110497118Y-75354264D01*
X110493541Y-75368543D01*
X110488582Y-75382403D01*
X110482288Y-75395710D01*
X110474720Y-75408336D01*
X110465952Y-75420159D01*
X110456066Y-75431066D01*
X110445159Y-75440952D01*
X110433336Y-75449720D01*
X110420710Y-75457288D01*
X110407403Y-75463582D01*
X110393543Y-75468541D01*
X110379264Y-75472118D01*
X110364703Y-75474278D01*
X110350000Y-75475000D01*
X108700000Y-75475000D01*
X108685297Y-75474278D01*
X108670736Y-75472118D01*
X108656457Y-75468541D01*
X108642597Y-75463582D01*
X108629290Y-75457288D01*
X108616664Y-75449720D01*
X108604841Y-75440952D01*
X108593934Y-75431066D01*
X108584048Y-75420159D01*
X108575280Y-75408336D01*
X108567712Y-75395710D01*
X108561418Y-75382403D01*
X108556459Y-75368543D01*
X108552882Y-75354264D01*
X108550722Y-75339703D01*
X108550000Y-75325000D01*
X108550000Y-75025000D01*
X108550722Y-75010297D01*
X108552882Y-74995736D01*
X108556459Y-74981457D01*
X108561418Y-74967597D01*
X108567712Y-74954290D01*
X108575280Y-74941664D01*
X108584048Y-74929841D01*
X108593934Y-74918934D01*
X108604841Y-74909048D01*
X108616664Y-74900280D01*
X108629290Y-74892712D01*
X108642597Y-74886418D01*
X108656457Y-74881459D01*
X108670736Y-74877882D01*
X108685297Y-74875722D01*
X108700000Y-74875000D01*
X110350000Y-74875000D01*
X110364703Y-74875722D01*
G37*
G36*
X110364703Y-73605722D02*
G01*
X110379264Y-73607882D01*
X110393543Y-73611459D01*
X110407403Y-73616418D01*
X110420710Y-73622712D01*
X110433336Y-73630280D01*
X110445159Y-73639048D01*
X110456066Y-73648934D01*
X110465952Y-73659841D01*
X110474720Y-73671664D01*
X110482288Y-73684290D01*
X110488582Y-73697597D01*
X110493541Y-73711457D01*
X110497118Y-73725736D01*
X110499278Y-73740297D01*
X110500000Y-73755000D01*
X110500000Y-74055000D01*
X110499278Y-74069703D01*
X110497118Y-74084264D01*
X110493541Y-74098543D01*
X110488582Y-74112403D01*
X110482288Y-74125710D01*
X110474720Y-74138336D01*
X110465952Y-74150159D01*
X110456066Y-74161066D01*
X110445159Y-74170952D01*
X110433336Y-74179720D01*
X110420710Y-74187288D01*
X110407403Y-74193582D01*
X110393543Y-74198541D01*
X110379264Y-74202118D01*
X110364703Y-74204278D01*
X110350000Y-74205000D01*
X108700000Y-74205000D01*
X108685297Y-74204278D01*
X108670736Y-74202118D01*
X108656457Y-74198541D01*
X108642597Y-74193582D01*
X108629290Y-74187288D01*
X108616664Y-74179720D01*
X108604841Y-74170952D01*
X108593934Y-74161066D01*
X108584048Y-74150159D01*
X108575280Y-74138336D01*
X108567712Y-74125710D01*
X108561418Y-74112403D01*
X108556459Y-74098543D01*
X108552882Y-74084264D01*
X108550722Y-74069703D01*
X108550000Y-74055000D01*
X108550000Y-73755000D01*
X108550722Y-73740297D01*
X108552882Y-73725736D01*
X108556459Y-73711457D01*
X108561418Y-73697597D01*
X108567712Y-73684290D01*
X108575280Y-73671664D01*
X108584048Y-73659841D01*
X108593934Y-73648934D01*
X108604841Y-73639048D01*
X108616664Y-73630280D01*
X108629290Y-73622712D01*
X108642597Y-73616418D01*
X108656457Y-73611459D01*
X108670736Y-73607882D01*
X108685297Y-73605722D01*
X108700000Y-73605000D01*
X110350000Y-73605000D01*
X110364703Y-73605722D01*
G37*
G36*
X110364703Y-72335722D02*
G01*
X110379264Y-72337882D01*
X110393543Y-72341459D01*
X110407403Y-72346418D01*
X110420710Y-72352712D01*
X110433336Y-72360280D01*
X110445159Y-72369048D01*
X110456066Y-72378934D01*
X110465952Y-72389841D01*
X110474720Y-72401664D01*
X110482288Y-72414290D01*
X110488582Y-72427597D01*
X110493541Y-72441457D01*
X110497118Y-72455736D01*
X110499278Y-72470297D01*
X110500000Y-72485000D01*
X110500000Y-72785000D01*
X110499278Y-72799703D01*
X110497118Y-72814264D01*
X110493541Y-72828543D01*
X110488582Y-72842403D01*
X110482288Y-72855710D01*
X110474720Y-72868336D01*
X110465952Y-72880159D01*
X110456066Y-72891066D01*
X110445159Y-72900952D01*
X110433336Y-72909720D01*
X110420710Y-72917288D01*
X110407403Y-72923582D01*
X110393543Y-72928541D01*
X110379264Y-72932118D01*
X110364703Y-72934278D01*
X110350000Y-72935000D01*
X108700000Y-72935000D01*
X108685297Y-72934278D01*
X108670736Y-72932118D01*
X108656457Y-72928541D01*
X108642597Y-72923582D01*
X108629290Y-72917288D01*
X108616664Y-72909720D01*
X108604841Y-72900952D01*
X108593934Y-72891066D01*
X108584048Y-72880159D01*
X108575280Y-72868336D01*
X108567712Y-72855710D01*
X108561418Y-72842403D01*
X108556459Y-72828543D01*
X108552882Y-72814264D01*
X108550722Y-72799703D01*
X108550000Y-72785000D01*
X108550000Y-72485000D01*
X108550722Y-72470297D01*
X108552882Y-72455736D01*
X108556459Y-72441457D01*
X108561418Y-72427597D01*
X108567712Y-72414290D01*
X108575280Y-72401664D01*
X108584048Y-72389841D01*
X108593934Y-72378934D01*
X108604841Y-72369048D01*
X108616664Y-72360280D01*
X108629290Y-72352712D01*
X108642597Y-72346418D01*
X108656457Y-72341459D01*
X108670736Y-72337882D01*
X108685297Y-72335722D01*
X108700000Y-72335000D01*
X110350000Y-72335000D01*
X110364703Y-72335722D01*
G37*
G36*
X110364703Y-71065722D02*
G01*
X110379264Y-71067882D01*
X110393543Y-71071459D01*
X110407403Y-71076418D01*
X110420710Y-71082712D01*
X110433336Y-71090280D01*
X110445159Y-71099048D01*
X110456066Y-71108934D01*
X110465952Y-71119841D01*
X110474720Y-71131664D01*
X110482288Y-71144290D01*
X110488582Y-71157597D01*
X110493541Y-71171457D01*
X110497118Y-71185736D01*
X110499278Y-71200297D01*
X110500000Y-71215000D01*
X110500000Y-71515000D01*
X110499278Y-71529703D01*
X110497118Y-71544264D01*
X110493541Y-71558543D01*
X110488582Y-71572403D01*
X110482288Y-71585710D01*
X110474720Y-71598336D01*
X110465952Y-71610159D01*
X110456066Y-71621066D01*
X110445159Y-71630952D01*
X110433336Y-71639720D01*
X110420710Y-71647288D01*
X110407403Y-71653582D01*
X110393543Y-71658541D01*
X110379264Y-71662118D01*
X110364703Y-71664278D01*
X110350000Y-71665000D01*
X108700000Y-71665000D01*
X108685297Y-71664278D01*
X108670736Y-71662118D01*
X108656457Y-71658541D01*
X108642597Y-71653582D01*
X108629290Y-71647288D01*
X108616664Y-71639720D01*
X108604841Y-71630952D01*
X108593934Y-71621066D01*
X108584048Y-71610159D01*
X108575280Y-71598336D01*
X108567712Y-71585710D01*
X108561418Y-71572403D01*
X108556459Y-71558543D01*
X108552882Y-71544264D01*
X108550722Y-71529703D01*
X108550000Y-71515000D01*
X108550000Y-71215000D01*
X108550722Y-71200297D01*
X108552882Y-71185736D01*
X108556459Y-71171457D01*
X108561418Y-71157597D01*
X108567712Y-71144290D01*
X108575280Y-71131664D01*
X108584048Y-71119841D01*
X108593934Y-71108934D01*
X108604841Y-71099048D01*
X108616664Y-71090280D01*
X108629290Y-71082712D01*
X108642597Y-71076418D01*
X108656457Y-71071459D01*
X108670736Y-71067882D01*
X108685297Y-71065722D01*
X108700000Y-71065000D01*
X110350000Y-71065000D01*
X110364703Y-71065722D01*
G37*
G36*
X110364703Y-69795722D02*
G01*
X110379264Y-69797882D01*
X110393543Y-69801459D01*
X110407403Y-69806418D01*
X110420710Y-69812712D01*
X110433336Y-69820280D01*
X110445159Y-69829048D01*
X110456066Y-69838934D01*
X110465952Y-69849841D01*
X110474720Y-69861664D01*
X110482288Y-69874290D01*
X110488582Y-69887597D01*
X110493541Y-69901457D01*
X110497118Y-69915736D01*
X110499278Y-69930297D01*
X110500000Y-69945000D01*
X110500000Y-70245000D01*
X110499278Y-70259703D01*
X110497118Y-70274264D01*
X110493541Y-70288543D01*
X110488582Y-70302403D01*
X110482288Y-70315710D01*
X110474720Y-70328336D01*
X110465952Y-70340159D01*
X110456066Y-70351066D01*
X110445159Y-70360952D01*
X110433336Y-70369720D01*
X110420710Y-70377288D01*
X110407403Y-70383582D01*
X110393543Y-70388541D01*
X110379264Y-70392118D01*
X110364703Y-70394278D01*
X110350000Y-70395000D01*
X108700000Y-70395000D01*
X108685297Y-70394278D01*
X108670736Y-70392118D01*
X108656457Y-70388541D01*
X108642597Y-70383582D01*
X108629290Y-70377288D01*
X108616664Y-70369720D01*
X108604841Y-70360952D01*
X108593934Y-70351066D01*
X108584048Y-70340159D01*
X108575280Y-70328336D01*
X108567712Y-70315710D01*
X108561418Y-70302403D01*
X108556459Y-70288543D01*
X108552882Y-70274264D01*
X108550722Y-70259703D01*
X108550000Y-70245000D01*
X108550000Y-69945000D01*
X108550722Y-69930297D01*
X108552882Y-69915736D01*
X108556459Y-69901457D01*
X108561418Y-69887597D01*
X108567712Y-69874290D01*
X108575280Y-69861664D01*
X108584048Y-69849841D01*
X108593934Y-69838934D01*
X108604841Y-69829048D01*
X108616664Y-69820280D01*
X108629290Y-69812712D01*
X108642597Y-69806418D01*
X108656457Y-69801459D01*
X108670736Y-69797882D01*
X108685297Y-69795722D01*
X108700000Y-69795000D01*
X110350000Y-69795000D01*
X110364703Y-69795722D01*
G37*
G36*
X110364703Y-68525722D02*
G01*
X110379264Y-68527882D01*
X110393543Y-68531459D01*
X110407403Y-68536418D01*
X110420710Y-68542712D01*
X110433336Y-68550280D01*
X110445159Y-68559048D01*
X110456066Y-68568934D01*
X110465952Y-68579841D01*
X110474720Y-68591664D01*
X110482288Y-68604290D01*
X110488582Y-68617597D01*
X110493541Y-68631457D01*
X110497118Y-68645736D01*
X110499278Y-68660297D01*
X110500000Y-68675000D01*
X110500000Y-68975000D01*
X110499278Y-68989703D01*
X110497118Y-69004264D01*
X110493541Y-69018543D01*
X110488582Y-69032403D01*
X110482288Y-69045710D01*
X110474720Y-69058336D01*
X110465952Y-69070159D01*
X110456066Y-69081066D01*
X110445159Y-69090952D01*
X110433336Y-69099720D01*
X110420710Y-69107288D01*
X110407403Y-69113582D01*
X110393543Y-69118541D01*
X110379264Y-69122118D01*
X110364703Y-69124278D01*
X110350000Y-69125000D01*
X108700000Y-69125000D01*
X108685297Y-69124278D01*
X108670736Y-69122118D01*
X108656457Y-69118541D01*
X108642597Y-69113582D01*
X108629290Y-69107288D01*
X108616664Y-69099720D01*
X108604841Y-69090952D01*
X108593934Y-69081066D01*
X108584048Y-69070159D01*
X108575280Y-69058336D01*
X108567712Y-69045710D01*
X108561418Y-69032403D01*
X108556459Y-69018543D01*
X108552882Y-69004264D01*
X108550722Y-68989703D01*
X108550000Y-68975000D01*
X108550000Y-68675000D01*
X108550722Y-68660297D01*
X108552882Y-68645736D01*
X108556459Y-68631457D01*
X108561418Y-68617597D01*
X108567712Y-68604290D01*
X108575280Y-68591664D01*
X108584048Y-68579841D01*
X108593934Y-68568934D01*
X108604841Y-68559048D01*
X108616664Y-68550280D01*
X108629290Y-68542712D01*
X108642597Y-68536418D01*
X108656457Y-68531459D01*
X108670736Y-68527882D01*
X108685297Y-68525722D01*
X108700000Y-68525000D01*
X110350000Y-68525000D01*
X110364703Y-68525722D01*
G37*
G36*
X110364703Y-67255722D02*
G01*
X110379264Y-67257882D01*
X110393543Y-67261459D01*
X110407403Y-67266418D01*
X110420710Y-67272712D01*
X110433336Y-67280280D01*
X110445159Y-67289048D01*
X110456066Y-67298934D01*
X110465952Y-67309841D01*
X110474720Y-67321664D01*
X110482288Y-67334290D01*
X110488582Y-67347597D01*
X110493541Y-67361457D01*
X110497118Y-67375736D01*
X110499278Y-67390297D01*
X110500000Y-67405000D01*
X110500000Y-67705000D01*
X110499278Y-67719703D01*
X110497118Y-67734264D01*
X110493541Y-67748543D01*
X110488582Y-67762403D01*
X110482288Y-67775710D01*
X110474720Y-67788336D01*
X110465952Y-67800159D01*
X110456066Y-67811066D01*
X110445159Y-67820952D01*
X110433336Y-67829720D01*
X110420710Y-67837288D01*
X110407403Y-67843582D01*
X110393543Y-67848541D01*
X110379264Y-67852118D01*
X110364703Y-67854278D01*
X110350000Y-67855000D01*
X108700000Y-67855000D01*
X108685297Y-67854278D01*
X108670736Y-67852118D01*
X108656457Y-67848541D01*
X108642597Y-67843582D01*
X108629290Y-67837288D01*
X108616664Y-67829720D01*
X108604841Y-67820952D01*
X108593934Y-67811066D01*
X108584048Y-67800159D01*
X108575280Y-67788336D01*
X108567712Y-67775710D01*
X108561418Y-67762403D01*
X108556459Y-67748543D01*
X108552882Y-67734264D01*
X108550722Y-67719703D01*
X108550000Y-67705000D01*
X108550000Y-67405000D01*
X108550722Y-67390297D01*
X108552882Y-67375736D01*
X108556459Y-67361457D01*
X108561418Y-67347597D01*
X108567712Y-67334290D01*
X108575280Y-67321664D01*
X108584048Y-67309841D01*
X108593934Y-67298934D01*
X108604841Y-67289048D01*
X108616664Y-67280280D01*
X108629290Y-67272712D01*
X108642597Y-67266418D01*
X108656457Y-67261459D01*
X108670736Y-67257882D01*
X108685297Y-67255722D01*
X108700000Y-67255000D01*
X110350000Y-67255000D01*
X110364703Y-67255722D01*
G37*
G36*
X133260779Y-92601144D02*
G01*
X133283834Y-92604563D01*
X133306443Y-92610227D01*
X133328387Y-92618079D01*
X133349457Y-92628044D01*
X133369448Y-92640026D01*
X133388168Y-92653910D01*
X133405438Y-92669562D01*
X133421090Y-92686832D01*
X133434974Y-92705552D01*
X133446956Y-92725543D01*
X133456921Y-92746613D01*
X133464773Y-92768557D01*
X133470437Y-92791166D01*
X133473856Y-92814221D01*
X133475000Y-92837500D01*
X133475000Y-93412500D01*
X133473856Y-93435779D01*
X133470437Y-93458834D01*
X133464773Y-93481443D01*
X133456921Y-93503387D01*
X133446956Y-93524457D01*
X133434974Y-93544448D01*
X133421090Y-93563168D01*
X133405438Y-93580438D01*
X133388168Y-93596090D01*
X133369448Y-93609974D01*
X133349457Y-93621956D01*
X133328387Y-93631921D01*
X133306443Y-93639773D01*
X133283834Y-93645437D01*
X133260779Y-93648856D01*
X133237500Y-93650000D01*
X132762500Y-93650000D01*
X132739221Y-93648856D01*
X132716166Y-93645437D01*
X132693557Y-93639773D01*
X132671613Y-93631921D01*
X132650543Y-93621956D01*
X132630552Y-93609974D01*
X132611832Y-93596090D01*
X132594562Y-93580438D01*
X132578910Y-93563168D01*
X132565026Y-93544448D01*
X132553044Y-93524457D01*
X132543079Y-93503387D01*
X132535227Y-93481443D01*
X132529563Y-93458834D01*
X132526144Y-93435779D01*
X132525000Y-93412500D01*
X132525000Y-92837500D01*
X132526144Y-92814221D01*
X132529563Y-92791166D01*
X132535227Y-92768557D01*
X132543079Y-92746613D01*
X132553044Y-92725543D01*
X132565026Y-92705552D01*
X132578910Y-92686832D01*
X132594562Y-92669562D01*
X132611832Y-92653910D01*
X132630552Y-92640026D01*
X132650543Y-92628044D01*
X132671613Y-92618079D01*
X132693557Y-92610227D01*
X132716166Y-92604563D01*
X132739221Y-92601144D01*
X132762500Y-92600000D01*
X133237500Y-92600000D01*
X133260779Y-92601144D01*
G37*
G36*
X133260779Y-94351144D02*
G01*
X133283834Y-94354563D01*
X133306443Y-94360227D01*
X133328387Y-94368079D01*
X133349457Y-94378044D01*
X133369448Y-94390026D01*
X133388168Y-94403910D01*
X133405438Y-94419562D01*
X133421090Y-94436832D01*
X133434974Y-94455552D01*
X133446956Y-94475543D01*
X133456921Y-94496613D01*
X133464773Y-94518557D01*
X133470437Y-94541166D01*
X133473856Y-94564221D01*
X133475000Y-94587500D01*
X133475000Y-95162500D01*
X133473856Y-95185779D01*
X133470437Y-95208834D01*
X133464773Y-95231443D01*
X133456921Y-95253387D01*
X133446956Y-95274457D01*
X133434974Y-95294448D01*
X133421090Y-95313168D01*
X133405438Y-95330438D01*
X133388168Y-95346090D01*
X133369448Y-95359974D01*
X133349457Y-95371956D01*
X133328387Y-95381921D01*
X133306443Y-95389773D01*
X133283834Y-95395437D01*
X133260779Y-95398856D01*
X133237500Y-95400000D01*
X132762500Y-95400000D01*
X132739221Y-95398856D01*
X132716166Y-95395437D01*
X132693557Y-95389773D01*
X132671613Y-95381921D01*
X132650543Y-95371956D01*
X132630552Y-95359974D01*
X132611832Y-95346090D01*
X132594562Y-95330438D01*
X132578910Y-95313168D01*
X132565026Y-95294448D01*
X132553044Y-95274457D01*
X132543079Y-95253387D01*
X132535227Y-95231443D01*
X132529563Y-95208834D01*
X132526144Y-95185779D01*
X132525000Y-95162500D01*
X132525000Y-94587500D01*
X132526144Y-94564221D01*
X132529563Y-94541166D01*
X132535227Y-94518557D01*
X132543079Y-94496613D01*
X132553044Y-94475543D01*
X132565026Y-94455552D01*
X132578910Y-94436832D01*
X132594562Y-94419562D01*
X132611832Y-94403910D01*
X132630552Y-94390026D01*
X132650543Y-94378044D01*
X132671613Y-94368079D01*
X132693557Y-94360227D01*
X132716166Y-94354563D01*
X132739221Y-94351144D01*
X132762500Y-94350000D01*
X133237500Y-94350000D01*
X133260779Y-94351144D01*
G37*
G36*
X133260779Y-84601144D02*
G01*
X133283834Y-84604563D01*
X133306443Y-84610227D01*
X133328387Y-84618079D01*
X133349457Y-84628044D01*
X133369448Y-84640026D01*
X133388168Y-84653910D01*
X133405438Y-84669562D01*
X133421090Y-84686832D01*
X133434974Y-84705552D01*
X133446956Y-84725543D01*
X133456921Y-84746613D01*
X133464773Y-84768557D01*
X133470437Y-84791166D01*
X133473856Y-84814221D01*
X133475000Y-84837500D01*
X133475000Y-85412500D01*
X133473856Y-85435779D01*
X133470437Y-85458834D01*
X133464773Y-85481443D01*
X133456921Y-85503387D01*
X133446956Y-85524457D01*
X133434974Y-85544448D01*
X133421090Y-85563168D01*
X133405438Y-85580438D01*
X133388168Y-85596090D01*
X133369448Y-85609974D01*
X133349457Y-85621956D01*
X133328387Y-85631921D01*
X133306443Y-85639773D01*
X133283834Y-85645437D01*
X133260779Y-85648856D01*
X133237500Y-85650000D01*
X132762500Y-85650000D01*
X132739221Y-85648856D01*
X132716166Y-85645437D01*
X132693557Y-85639773D01*
X132671613Y-85631921D01*
X132650543Y-85621956D01*
X132630552Y-85609974D01*
X132611832Y-85596090D01*
X132594562Y-85580438D01*
X132578910Y-85563168D01*
X132565026Y-85544448D01*
X132553044Y-85524457D01*
X132543079Y-85503387D01*
X132535227Y-85481443D01*
X132529563Y-85458834D01*
X132526144Y-85435779D01*
X132525000Y-85412500D01*
X132525000Y-84837500D01*
X132526144Y-84814221D01*
X132529563Y-84791166D01*
X132535227Y-84768557D01*
X132543079Y-84746613D01*
X132553044Y-84725543D01*
X132565026Y-84705552D01*
X132578910Y-84686832D01*
X132594562Y-84669562D01*
X132611832Y-84653910D01*
X132630552Y-84640026D01*
X132650543Y-84628044D01*
X132671613Y-84618079D01*
X132693557Y-84610227D01*
X132716166Y-84604563D01*
X132739221Y-84601144D01*
X132762500Y-84600000D01*
X133237500Y-84600000D01*
X133260779Y-84601144D01*
G37*
G36*
X133260779Y-86351144D02*
G01*
X133283834Y-86354563D01*
X133306443Y-86360227D01*
X133328387Y-86368079D01*
X133349457Y-86378044D01*
X133369448Y-86390026D01*
X133388168Y-86403910D01*
X133405438Y-86419562D01*
X133421090Y-86436832D01*
X133434974Y-86455552D01*
X133446956Y-86475543D01*
X133456921Y-86496613D01*
X133464773Y-86518557D01*
X133470437Y-86541166D01*
X133473856Y-86564221D01*
X133475000Y-86587500D01*
X133475000Y-87162500D01*
X133473856Y-87185779D01*
X133470437Y-87208834D01*
X133464773Y-87231443D01*
X133456921Y-87253387D01*
X133446956Y-87274457D01*
X133434974Y-87294448D01*
X133421090Y-87313168D01*
X133405438Y-87330438D01*
X133388168Y-87346090D01*
X133369448Y-87359974D01*
X133349457Y-87371956D01*
X133328387Y-87381921D01*
X133306443Y-87389773D01*
X133283834Y-87395437D01*
X133260779Y-87398856D01*
X133237500Y-87400000D01*
X132762500Y-87400000D01*
X132739221Y-87398856D01*
X132716166Y-87395437D01*
X132693557Y-87389773D01*
X132671613Y-87381921D01*
X132650543Y-87371956D01*
X132630552Y-87359974D01*
X132611832Y-87346090D01*
X132594562Y-87330438D01*
X132578910Y-87313168D01*
X132565026Y-87294448D01*
X132553044Y-87274457D01*
X132543079Y-87253387D01*
X132535227Y-87231443D01*
X132529563Y-87208834D01*
X132526144Y-87185779D01*
X132525000Y-87162500D01*
X132525000Y-86587500D01*
X132526144Y-86564221D01*
X132529563Y-86541166D01*
X132535227Y-86518557D01*
X132543079Y-86496613D01*
X132553044Y-86475543D01*
X132565026Y-86455552D01*
X132578910Y-86436832D01*
X132594562Y-86419562D01*
X132611832Y-86403910D01*
X132630552Y-86390026D01*
X132650543Y-86378044D01*
X132671613Y-86368079D01*
X132693557Y-86360227D01*
X132716166Y-86354563D01*
X132739221Y-86351144D01*
X132762500Y-86350000D01*
X133237500Y-86350000D01*
X133260779Y-86351144D01*
G37*
G36*
X133260779Y-76476144D02*
G01*
X133283834Y-76479563D01*
X133306443Y-76485227D01*
X133328387Y-76493079D01*
X133349457Y-76503044D01*
X133369448Y-76515026D01*
X133388168Y-76528910D01*
X133405438Y-76544562D01*
X133421090Y-76561832D01*
X133434974Y-76580552D01*
X133446956Y-76600543D01*
X133456921Y-76621613D01*
X133464773Y-76643557D01*
X133470437Y-76666166D01*
X133473856Y-76689221D01*
X133475000Y-76712500D01*
X133475000Y-77287500D01*
X133473856Y-77310779D01*
X133470437Y-77333834D01*
X133464773Y-77356443D01*
X133456921Y-77378387D01*
X133446956Y-77399457D01*
X133434974Y-77419448D01*
X133421090Y-77438168D01*
X133405438Y-77455438D01*
X133388168Y-77471090D01*
X133369448Y-77484974D01*
X133349457Y-77496956D01*
X133328387Y-77506921D01*
X133306443Y-77514773D01*
X133283834Y-77520437D01*
X133260779Y-77523856D01*
X133237500Y-77525000D01*
X132762500Y-77525000D01*
X132739221Y-77523856D01*
X132716166Y-77520437D01*
X132693557Y-77514773D01*
X132671613Y-77506921D01*
X132650543Y-77496956D01*
X132630552Y-77484974D01*
X132611832Y-77471090D01*
X132594562Y-77455438D01*
X132578910Y-77438168D01*
X132565026Y-77419448D01*
X132553044Y-77399457D01*
X132543079Y-77378387D01*
X132535227Y-77356443D01*
X132529563Y-77333834D01*
X132526144Y-77310779D01*
X132525000Y-77287500D01*
X132525000Y-76712500D01*
X132526144Y-76689221D01*
X132529563Y-76666166D01*
X132535227Y-76643557D01*
X132543079Y-76621613D01*
X132553044Y-76600543D01*
X132565026Y-76580552D01*
X132578910Y-76561832D01*
X132594562Y-76544562D01*
X132611832Y-76528910D01*
X132630552Y-76515026D01*
X132650543Y-76503044D01*
X132671613Y-76493079D01*
X132693557Y-76485227D01*
X132716166Y-76479563D01*
X132739221Y-76476144D01*
X132762500Y-76475000D01*
X133237500Y-76475000D01*
X133260779Y-76476144D01*
G37*
G36*
X133260779Y-78226144D02*
G01*
X133283834Y-78229563D01*
X133306443Y-78235227D01*
X133328387Y-78243079D01*
X133349457Y-78253044D01*
X133369448Y-78265026D01*
X133388168Y-78278910D01*
X133405438Y-78294562D01*
X133421090Y-78311832D01*
X133434974Y-78330552D01*
X133446956Y-78350543D01*
X133456921Y-78371613D01*
X133464773Y-78393557D01*
X133470437Y-78416166D01*
X133473856Y-78439221D01*
X133475000Y-78462500D01*
X133475000Y-79037500D01*
X133473856Y-79060779D01*
X133470437Y-79083834D01*
X133464773Y-79106443D01*
X133456921Y-79128387D01*
X133446956Y-79149457D01*
X133434974Y-79169448D01*
X133421090Y-79188168D01*
X133405438Y-79205438D01*
X133388168Y-79221090D01*
X133369448Y-79234974D01*
X133349457Y-79246956D01*
X133328387Y-79256921D01*
X133306443Y-79264773D01*
X133283834Y-79270437D01*
X133260779Y-79273856D01*
X133237500Y-79275000D01*
X132762500Y-79275000D01*
X132739221Y-79273856D01*
X132716166Y-79270437D01*
X132693557Y-79264773D01*
X132671613Y-79256921D01*
X132650543Y-79246956D01*
X132630552Y-79234974D01*
X132611832Y-79221090D01*
X132594562Y-79205438D01*
X132578910Y-79188168D01*
X132565026Y-79169448D01*
X132553044Y-79149457D01*
X132543079Y-79128387D01*
X132535227Y-79106443D01*
X132529563Y-79083834D01*
X132526144Y-79060779D01*
X132525000Y-79037500D01*
X132525000Y-78462500D01*
X132526144Y-78439221D01*
X132529563Y-78416166D01*
X132535227Y-78393557D01*
X132543079Y-78371613D01*
X132553044Y-78350543D01*
X132565026Y-78330552D01*
X132578910Y-78311832D01*
X132594562Y-78294562D01*
X132611832Y-78278910D01*
X132630552Y-78265026D01*
X132650543Y-78253044D01*
X132671613Y-78243079D01*
X132693557Y-78235227D01*
X132716166Y-78229563D01*
X132739221Y-78226144D01*
X132762500Y-78225000D01*
X133237500Y-78225000D01*
X133260779Y-78226144D01*
G37*
G36*
X133260779Y-68476144D02*
G01*
X133283834Y-68479563D01*
X133306443Y-68485227D01*
X133328387Y-68493079D01*
X133349457Y-68503044D01*
X133369448Y-68515026D01*
X133388168Y-68528910D01*
X133405438Y-68544562D01*
X133421090Y-68561832D01*
X133434974Y-68580552D01*
X133446956Y-68600543D01*
X133456921Y-68621613D01*
X133464773Y-68643557D01*
X133470437Y-68666166D01*
X133473856Y-68689221D01*
X133475000Y-68712500D01*
X133475000Y-69287500D01*
X133473856Y-69310779D01*
X133470437Y-69333834D01*
X133464773Y-69356443D01*
X133456921Y-69378387D01*
X133446956Y-69399457D01*
X133434974Y-69419448D01*
X133421090Y-69438168D01*
X133405438Y-69455438D01*
X133388168Y-69471090D01*
X133369448Y-69484974D01*
X133349457Y-69496956D01*
X133328387Y-69506921D01*
X133306443Y-69514773D01*
X133283834Y-69520437D01*
X133260779Y-69523856D01*
X133237500Y-69525000D01*
X132762500Y-69525000D01*
X132739221Y-69523856D01*
X132716166Y-69520437D01*
X132693557Y-69514773D01*
X132671613Y-69506921D01*
X132650543Y-69496956D01*
X132630552Y-69484974D01*
X132611832Y-69471090D01*
X132594562Y-69455438D01*
X132578910Y-69438168D01*
X132565026Y-69419448D01*
X132553044Y-69399457D01*
X132543079Y-69378387D01*
X132535227Y-69356443D01*
X132529563Y-69333834D01*
X132526144Y-69310779D01*
X132525000Y-69287500D01*
X132525000Y-68712500D01*
X132526144Y-68689221D01*
X132529563Y-68666166D01*
X132535227Y-68643557D01*
X132543079Y-68621613D01*
X132553044Y-68600543D01*
X132565026Y-68580552D01*
X132578910Y-68561832D01*
X132594562Y-68544562D01*
X132611832Y-68528910D01*
X132630552Y-68515026D01*
X132650543Y-68503044D01*
X132671613Y-68493079D01*
X132693557Y-68485227D01*
X132716166Y-68479563D01*
X132739221Y-68476144D01*
X132762500Y-68475000D01*
X133237500Y-68475000D01*
X133260779Y-68476144D01*
G37*
G36*
X133260779Y-70226144D02*
G01*
X133283834Y-70229563D01*
X133306443Y-70235227D01*
X133328387Y-70243079D01*
X133349457Y-70253044D01*
X133369448Y-70265026D01*
X133388168Y-70278910D01*
X133405438Y-70294562D01*
X133421090Y-70311832D01*
X133434974Y-70330552D01*
X133446956Y-70350543D01*
X133456921Y-70371613D01*
X133464773Y-70393557D01*
X133470437Y-70416166D01*
X133473856Y-70439221D01*
X133475000Y-70462500D01*
X133475000Y-71037500D01*
X133473856Y-71060779D01*
X133470437Y-71083834D01*
X133464773Y-71106443D01*
X133456921Y-71128387D01*
X133446956Y-71149457D01*
X133434974Y-71169448D01*
X133421090Y-71188168D01*
X133405438Y-71205438D01*
X133388168Y-71221090D01*
X133369448Y-71234974D01*
X133349457Y-71246956D01*
X133328387Y-71256921D01*
X133306443Y-71264773D01*
X133283834Y-71270437D01*
X133260779Y-71273856D01*
X133237500Y-71275000D01*
X132762500Y-71275000D01*
X132739221Y-71273856D01*
X132716166Y-71270437D01*
X132693557Y-71264773D01*
X132671613Y-71256921D01*
X132650543Y-71246956D01*
X132630552Y-71234974D01*
X132611832Y-71221090D01*
X132594562Y-71205438D01*
X132578910Y-71188168D01*
X132565026Y-71169448D01*
X132553044Y-71149457D01*
X132543079Y-71128387D01*
X132535227Y-71106443D01*
X132529563Y-71083834D01*
X132526144Y-71060779D01*
X132525000Y-71037500D01*
X132525000Y-70462500D01*
X132526144Y-70439221D01*
X132529563Y-70416166D01*
X132535227Y-70393557D01*
X132543079Y-70371613D01*
X132553044Y-70350543D01*
X132565026Y-70330552D01*
X132578910Y-70311832D01*
X132594562Y-70294562D01*
X132611832Y-70278910D01*
X132630552Y-70265026D01*
X132650543Y-70253044D01*
X132671613Y-70243079D01*
X132693557Y-70235227D01*
X132716166Y-70229563D01*
X132739221Y-70226144D01*
X132762500Y-70225000D01*
X133237500Y-70225000D01*
X133260779Y-70226144D01*
G37*
G36*
X119260779Y-69351144D02*
G01*
X119283834Y-69354563D01*
X119306443Y-69360227D01*
X119328387Y-69368079D01*
X119349457Y-69378044D01*
X119369448Y-69390026D01*
X119388168Y-69403910D01*
X119405438Y-69419562D01*
X119421090Y-69436832D01*
X119434974Y-69455552D01*
X119446956Y-69475543D01*
X119456921Y-69496613D01*
X119464773Y-69518557D01*
X119470437Y-69541166D01*
X119473856Y-69564221D01*
X119475000Y-69587500D01*
X119475000Y-70162500D01*
X119473856Y-70185779D01*
X119470437Y-70208834D01*
X119464773Y-70231443D01*
X119456921Y-70253387D01*
X119446956Y-70274457D01*
X119434974Y-70294448D01*
X119421090Y-70313168D01*
X119405438Y-70330438D01*
X119388168Y-70346090D01*
X119369448Y-70359974D01*
X119349457Y-70371956D01*
X119328387Y-70381921D01*
X119306443Y-70389773D01*
X119283834Y-70395437D01*
X119260779Y-70398856D01*
X119237500Y-70400000D01*
X118762500Y-70400000D01*
X118739221Y-70398856D01*
X118716166Y-70395437D01*
X118693557Y-70389773D01*
X118671613Y-70381921D01*
X118650543Y-70371956D01*
X118630552Y-70359974D01*
X118611832Y-70346090D01*
X118594562Y-70330438D01*
X118578910Y-70313168D01*
X118565026Y-70294448D01*
X118553044Y-70274457D01*
X118543079Y-70253387D01*
X118535227Y-70231443D01*
X118529563Y-70208834D01*
X118526144Y-70185779D01*
X118525000Y-70162500D01*
X118525000Y-69587500D01*
X118526144Y-69564221D01*
X118529563Y-69541166D01*
X118535227Y-69518557D01*
X118543079Y-69496613D01*
X118553044Y-69475543D01*
X118565026Y-69455552D01*
X118578910Y-69436832D01*
X118594562Y-69419562D01*
X118611832Y-69403910D01*
X118630552Y-69390026D01*
X118650543Y-69378044D01*
X118671613Y-69368079D01*
X118693557Y-69360227D01*
X118716166Y-69354563D01*
X118739221Y-69351144D01*
X118762500Y-69350000D01*
X119237500Y-69350000D01*
X119260779Y-69351144D01*
G37*
G36*
X119260779Y-67601144D02*
G01*
X119283834Y-67604563D01*
X119306443Y-67610227D01*
X119328387Y-67618079D01*
X119349457Y-67628044D01*
X119369448Y-67640026D01*
X119388168Y-67653910D01*
X119405438Y-67669562D01*
X119421090Y-67686832D01*
X119434974Y-67705552D01*
X119446956Y-67725543D01*
X119456921Y-67746613D01*
X119464773Y-67768557D01*
X119470437Y-67791166D01*
X119473856Y-67814221D01*
X119475000Y-67837500D01*
X119475000Y-68412500D01*
X119473856Y-68435779D01*
X119470437Y-68458834D01*
X119464773Y-68481443D01*
X119456921Y-68503387D01*
X119446956Y-68524457D01*
X119434974Y-68544448D01*
X119421090Y-68563168D01*
X119405438Y-68580438D01*
X119388168Y-68596090D01*
X119369448Y-68609974D01*
X119349457Y-68621956D01*
X119328387Y-68631921D01*
X119306443Y-68639773D01*
X119283834Y-68645437D01*
X119260779Y-68648856D01*
X119237500Y-68650000D01*
X118762500Y-68650000D01*
X118739221Y-68648856D01*
X118716166Y-68645437D01*
X118693557Y-68639773D01*
X118671613Y-68631921D01*
X118650543Y-68621956D01*
X118630552Y-68609974D01*
X118611832Y-68596090D01*
X118594562Y-68580438D01*
X118578910Y-68563168D01*
X118565026Y-68544448D01*
X118553044Y-68524457D01*
X118543079Y-68503387D01*
X118535227Y-68481443D01*
X118529563Y-68458834D01*
X118526144Y-68435779D01*
X118525000Y-68412500D01*
X118525000Y-67837500D01*
X118526144Y-67814221D01*
X118529563Y-67791166D01*
X118535227Y-67768557D01*
X118543079Y-67746613D01*
X118553044Y-67725543D01*
X118565026Y-67705552D01*
X118578910Y-67686832D01*
X118594562Y-67669562D01*
X118611832Y-67653910D01*
X118630552Y-67640026D01*
X118650543Y-67628044D01*
X118671613Y-67618079D01*
X118693557Y-67610227D01*
X118716166Y-67604563D01*
X118739221Y-67601144D01*
X118762500Y-67600000D01*
X119237500Y-67600000D01*
X119260779Y-67601144D01*
G37*
M02*
