M48
; DRILL file {KiCad 5.1.5-52549c5~84~ubuntu18.04.1} date Tue 03 Mar 2020 07:20:38 PM MST
; FORMAT={-:-/ absolute / inch / decimal}
; #@! TF.CreationDate,2020-03-03T19:20:38-07:00
; #@! TF.GenerationSoftware,Kicad,Pcbnew,5.1.5-52549c5~84~ubuntu18.04.1
; #@! TF.FileFunction,Plated,1,2,PTH
FMAT,2
INCH
T1C0.0157
T2C0.0299
T3C0.0394
%
G90
G05
T1
X3.6024Y-3.0906
X3.6614Y-2.7067
X3.8583Y-2.7264
X3.9075Y-2.7559
X4.065Y-3.1102
X4.1142Y-2.8346
X4.1535Y-2.9134
X4.2126Y-2.8642
X4.3799Y-2.7953
X4.3898Y-2.6476
X4.4193Y-3.0217
X4.4291Y-2.7461
X4.5965Y-2.9626
X4.6555Y-2.9134
X4.9106Y-2.7811
X5.0097Y-2.8061
X5.1673Y-3.4154
X5.1673Y-3.7402
T2
X4.6063Y-3.2677
X4.6563Y-3.1677
X4.7063Y-3.2677
X4.7563Y-3.1677
X4.8063Y-3.2677
X4.8563Y-3.1677
X4.9063Y-3.2677
X4.9563Y-3.1677
X3.8583Y-3.2677
X3.9083Y-3.1677
X3.9583Y-3.2677
X4.0083Y-3.1677
X4.0583Y-3.2677
X4.1083Y-3.1677
X4.1583Y-3.2677
X4.2083Y-3.1677
T3
X3.4646Y-3.3646
X3.4646Y-3.4646
X5.3937Y-2.9921
X5.3937Y-3.0921
X3.4646Y-3.6614
X3.4646Y-3.7614
X5.3937Y-3.3071
X5.3937Y-3.4071
X3.4646Y-2.6772
X3.4646Y-2.7772
X3.4646Y-2.8772
X5.3937Y-3.622
X5.3937Y-3.722
X3.4646Y-3.0709
X3.4646Y-3.1709
X5.3937Y-2.6772
X5.3937Y-2.7772
T0
M30
