G04 #@! TF.GenerationSoftware,KiCad,Pcbnew,5.1.5-52549c5~84~ubuntu18.04.1*
G04 #@! TF.CreationDate,2020-03-03T19:20:35-07:00*
G04 #@! TF.ProjectId,transmitter-test,7472616e-736d-4697-9474-65722d746573,rev?*
G04 #@! TF.SameCoordinates,Original*
G04 #@! TF.FileFunction,Copper,L1,Top*
G04 #@! TF.FilePolarity,Positive*
%FSLAX46Y46*%
G04 Gerber Fmt 4.6, Leading zero omitted, Abs format (unit mm)*
G04 Created by KiCad (PCBNEW 5.1.5-52549c5~84~ubuntu18.04.1) date 2020-03-03 19:20:35*
%MOMM*%
%LPD*%
G04 APERTURE LIST*
%ADD10C,0.100000*%
%ADD11O,1.700000X1.700000*%
%ADD12R,1.700000X1.700000*%
%ADD13C,1.500000*%
%ADD14R,1.500000X1.500000*%
%ADD15C,0.800000*%
%ADD16C,0.500000*%
%ADD17C,0.250000*%
%ADD18C,0.254000*%
G04 APERTURE END LIST*
G04 #@! TA.AperFunction,SMDPad,CuDef*
D10*
G36*
X115314703Y-67255722D02*
G01*
X115329264Y-67257882D01*
X115343543Y-67261459D01*
X115357403Y-67266418D01*
X115370710Y-67272712D01*
X115383336Y-67280280D01*
X115395159Y-67289048D01*
X115406066Y-67298934D01*
X115415952Y-67309841D01*
X115424720Y-67321664D01*
X115432288Y-67334290D01*
X115438582Y-67347597D01*
X115443541Y-67361457D01*
X115447118Y-67375736D01*
X115449278Y-67390297D01*
X115450000Y-67405000D01*
X115450000Y-67705000D01*
X115449278Y-67719703D01*
X115447118Y-67734264D01*
X115443541Y-67748543D01*
X115438582Y-67762403D01*
X115432288Y-67775710D01*
X115424720Y-67788336D01*
X115415952Y-67800159D01*
X115406066Y-67811066D01*
X115395159Y-67820952D01*
X115383336Y-67829720D01*
X115370710Y-67837288D01*
X115357403Y-67843582D01*
X115343543Y-67848541D01*
X115329264Y-67852118D01*
X115314703Y-67854278D01*
X115300000Y-67855000D01*
X113650000Y-67855000D01*
X113635297Y-67854278D01*
X113620736Y-67852118D01*
X113606457Y-67848541D01*
X113592597Y-67843582D01*
X113579290Y-67837288D01*
X113566664Y-67829720D01*
X113554841Y-67820952D01*
X113543934Y-67811066D01*
X113534048Y-67800159D01*
X113525280Y-67788336D01*
X113517712Y-67775710D01*
X113511418Y-67762403D01*
X113506459Y-67748543D01*
X113502882Y-67734264D01*
X113500722Y-67719703D01*
X113500000Y-67705000D01*
X113500000Y-67405000D01*
X113500722Y-67390297D01*
X113502882Y-67375736D01*
X113506459Y-67361457D01*
X113511418Y-67347597D01*
X113517712Y-67334290D01*
X113525280Y-67321664D01*
X113534048Y-67309841D01*
X113543934Y-67298934D01*
X113554841Y-67289048D01*
X113566664Y-67280280D01*
X113579290Y-67272712D01*
X113592597Y-67266418D01*
X113606457Y-67261459D01*
X113620736Y-67257882D01*
X113635297Y-67255722D01*
X113650000Y-67255000D01*
X115300000Y-67255000D01*
X115314703Y-67255722D01*
G37*
G04 #@! TD.AperFunction*
G04 #@! TA.AperFunction,SMDPad,CuDef*
G36*
X115314703Y-68525722D02*
G01*
X115329264Y-68527882D01*
X115343543Y-68531459D01*
X115357403Y-68536418D01*
X115370710Y-68542712D01*
X115383336Y-68550280D01*
X115395159Y-68559048D01*
X115406066Y-68568934D01*
X115415952Y-68579841D01*
X115424720Y-68591664D01*
X115432288Y-68604290D01*
X115438582Y-68617597D01*
X115443541Y-68631457D01*
X115447118Y-68645736D01*
X115449278Y-68660297D01*
X115450000Y-68675000D01*
X115450000Y-68975000D01*
X115449278Y-68989703D01*
X115447118Y-69004264D01*
X115443541Y-69018543D01*
X115438582Y-69032403D01*
X115432288Y-69045710D01*
X115424720Y-69058336D01*
X115415952Y-69070159D01*
X115406066Y-69081066D01*
X115395159Y-69090952D01*
X115383336Y-69099720D01*
X115370710Y-69107288D01*
X115357403Y-69113582D01*
X115343543Y-69118541D01*
X115329264Y-69122118D01*
X115314703Y-69124278D01*
X115300000Y-69125000D01*
X113650000Y-69125000D01*
X113635297Y-69124278D01*
X113620736Y-69122118D01*
X113606457Y-69118541D01*
X113592597Y-69113582D01*
X113579290Y-69107288D01*
X113566664Y-69099720D01*
X113554841Y-69090952D01*
X113543934Y-69081066D01*
X113534048Y-69070159D01*
X113525280Y-69058336D01*
X113517712Y-69045710D01*
X113511418Y-69032403D01*
X113506459Y-69018543D01*
X113502882Y-69004264D01*
X113500722Y-68989703D01*
X113500000Y-68975000D01*
X113500000Y-68675000D01*
X113500722Y-68660297D01*
X113502882Y-68645736D01*
X113506459Y-68631457D01*
X113511418Y-68617597D01*
X113517712Y-68604290D01*
X113525280Y-68591664D01*
X113534048Y-68579841D01*
X113543934Y-68568934D01*
X113554841Y-68559048D01*
X113566664Y-68550280D01*
X113579290Y-68542712D01*
X113592597Y-68536418D01*
X113606457Y-68531459D01*
X113620736Y-68527882D01*
X113635297Y-68525722D01*
X113650000Y-68525000D01*
X115300000Y-68525000D01*
X115314703Y-68525722D01*
G37*
G04 #@! TD.AperFunction*
G04 #@! TA.AperFunction,SMDPad,CuDef*
G36*
X115314703Y-69795722D02*
G01*
X115329264Y-69797882D01*
X115343543Y-69801459D01*
X115357403Y-69806418D01*
X115370710Y-69812712D01*
X115383336Y-69820280D01*
X115395159Y-69829048D01*
X115406066Y-69838934D01*
X115415952Y-69849841D01*
X115424720Y-69861664D01*
X115432288Y-69874290D01*
X115438582Y-69887597D01*
X115443541Y-69901457D01*
X115447118Y-69915736D01*
X115449278Y-69930297D01*
X115450000Y-69945000D01*
X115450000Y-70245000D01*
X115449278Y-70259703D01*
X115447118Y-70274264D01*
X115443541Y-70288543D01*
X115438582Y-70302403D01*
X115432288Y-70315710D01*
X115424720Y-70328336D01*
X115415952Y-70340159D01*
X115406066Y-70351066D01*
X115395159Y-70360952D01*
X115383336Y-70369720D01*
X115370710Y-70377288D01*
X115357403Y-70383582D01*
X115343543Y-70388541D01*
X115329264Y-70392118D01*
X115314703Y-70394278D01*
X115300000Y-70395000D01*
X113650000Y-70395000D01*
X113635297Y-70394278D01*
X113620736Y-70392118D01*
X113606457Y-70388541D01*
X113592597Y-70383582D01*
X113579290Y-70377288D01*
X113566664Y-70369720D01*
X113554841Y-70360952D01*
X113543934Y-70351066D01*
X113534048Y-70340159D01*
X113525280Y-70328336D01*
X113517712Y-70315710D01*
X113511418Y-70302403D01*
X113506459Y-70288543D01*
X113502882Y-70274264D01*
X113500722Y-70259703D01*
X113500000Y-70245000D01*
X113500000Y-69945000D01*
X113500722Y-69930297D01*
X113502882Y-69915736D01*
X113506459Y-69901457D01*
X113511418Y-69887597D01*
X113517712Y-69874290D01*
X113525280Y-69861664D01*
X113534048Y-69849841D01*
X113543934Y-69838934D01*
X113554841Y-69829048D01*
X113566664Y-69820280D01*
X113579290Y-69812712D01*
X113592597Y-69806418D01*
X113606457Y-69801459D01*
X113620736Y-69797882D01*
X113635297Y-69795722D01*
X113650000Y-69795000D01*
X115300000Y-69795000D01*
X115314703Y-69795722D01*
G37*
G04 #@! TD.AperFunction*
G04 #@! TA.AperFunction,SMDPad,CuDef*
G36*
X115314703Y-71065722D02*
G01*
X115329264Y-71067882D01*
X115343543Y-71071459D01*
X115357403Y-71076418D01*
X115370710Y-71082712D01*
X115383336Y-71090280D01*
X115395159Y-71099048D01*
X115406066Y-71108934D01*
X115415952Y-71119841D01*
X115424720Y-71131664D01*
X115432288Y-71144290D01*
X115438582Y-71157597D01*
X115443541Y-71171457D01*
X115447118Y-71185736D01*
X115449278Y-71200297D01*
X115450000Y-71215000D01*
X115450000Y-71515000D01*
X115449278Y-71529703D01*
X115447118Y-71544264D01*
X115443541Y-71558543D01*
X115438582Y-71572403D01*
X115432288Y-71585710D01*
X115424720Y-71598336D01*
X115415952Y-71610159D01*
X115406066Y-71621066D01*
X115395159Y-71630952D01*
X115383336Y-71639720D01*
X115370710Y-71647288D01*
X115357403Y-71653582D01*
X115343543Y-71658541D01*
X115329264Y-71662118D01*
X115314703Y-71664278D01*
X115300000Y-71665000D01*
X113650000Y-71665000D01*
X113635297Y-71664278D01*
X113620736Y-71662118D01*
X113606457Y-71658541D01*
X113592597Y-71653582D01*
X113579290Y-71647288D01*
X113566664Y-71639720D01*
X113554841Y-71630952D01*
X113543934Y-71621066D01*
X113534048Y-71610159D01*
X113525280Y-71598336D01*
X113517712Y-71585710D01*
X113511418Y-71572403D01*
X113506459Y-71558543D01*
X113502882Y-71544264D01*
X113500722Y-71529703D01*
X113500000Y-71515000D01*
X113500000Y-71215000D01*
X113500722Y-71200297D01*
X113502882Y-71185736D01*
X113506459Y-71171457D01*
X113511418Y-71157597D01*
X113517712Y-71144290D01*
X113525280Y-71131664D01*
X113534048Y-71119841D01*
X113543934Y-71108934D01*
X113554841Y-71099048D01*
X113566664Y-71090280D01*
X113579290Y-71082712D01*
X113592597Y-71076418D01*
X113606457Y-71071459D01*
X113620736Y-71067882D01*
X113635297Y-71065722D01*
X113650000Y-71065000D01*
X115300000Y-71065000D01*
X115314703Y-71065722D01*
G37*
G04 #@! TD.AperFunction*
G04 #@! TA.AperFunction,SMDPad,CuDef*
G36*
X115314703Y-72335722D02*
G01*
X115329264Y-72337882D01*
X115343543Y-72341459D01*
X115357403Y-72346418D01*
X115370710Y-72352712D01*
X115383336Y-72360280D01*
X115395159Y-72369048D01*
X115406066Y-72378934D01*
X115415952Y-72389841D01*
X115424720Y-72401664D01*
X115432288Y-72414290D01*
X115438582Y-72427597D01*
X115443541Y-72441457D01*
X115447118Y-72455736D01*
X115449278Y-72470297D01*
X115450000Y-72485000D01*
X115450000Y-72785000D01*
X115449278Y-72799703D01*
X115447118Y-72814264D01*
X115443541Y-72828543D01*
X115438582Y-72842403D01*
X115432288Y-72855710D01*
X115424720Y-72868336D01*
X115415952Y-72880159D01*
X115406066Y-72891066D01*
X115395159Y-72900952D01*
X115383336Y-72909720D01*
X115370710Y-72917288D01*
X115357403Y-72923582D01*
X115343543Y-72928541D01*
X115329264Y-72932118D01*
X115314703Y-72934278D01*
X115300000Y-72935000D01*
X113650000Y-72935000D01*
X113635297Y-72934278D01*
X113620736Y-72932118D01*
X113606457Y-72928541D01*
X113592597Y-72923582D01*
X113579290Y-72917288D01*
X113566664Y-72909720D01*
X113554841Y-72900952D01*
X113543934Y-72891066D01*
X113534048Y-72880159D01*
X113525280Y-72868336D01*
X113517712Y-72855710D01*
X113511418Y-72842403D01*
X113506459Y-72828543D01*
X113502882Y-72814264D01*
X113500722Y-72799703D01*
X113500000Y-72785000D01*
X113500000Y-72485000D01*
X113500722Y-72470297D01*
X113502882Y-72455736D01*
X113506459Y-72441457D01*
X113511418Y-72427597D01*
X113517712Y-72414290D01*
X113525280Y-72401664D01*
X113534048Y-72389841D01*
X113543934Y-72378934D01*
X113554841Y-72369048D01*
X113566664Y-72360280D01*
X113579290Y-72352712D01*
X113592597Y-72346418D01*
X113606457Y-72341459D01*
X113620736Y-72337882D01*
X113635297Y-72335722D01*
X113650000Y-72335000D01*
X115300000Y-72335000D01*
X115314703Y-72335722D01*
G37*
G04 #@! TD.AperFunction*
G04 #@! TA.AperFunction,SMDPad,CuDef*
G36*
X115314703Y-73605722D02*
G01*
X115329264Y-73607882D01*
X115343543Y-73611459D01*
X115357403Y-73616418D01*
X115370710Y-73622712D01*
X115383336Y-73630280D01*
X115395159Y-73639048D01*
X115406066Y-73648934D01*
X115415952Y-73659841D01*
X115424720Y-73671664D01*
X115432288Y-73684290D01*
X115438582Y-73697597D01*
X115443541Y-73711457D01*
X115447118Y-73725736D01*
X115449278Y-73740297D01*
X115450000Y-73755000D01*
X115450000Y-74055000D01*
X115449278Y-74069703D01*
X115447118Y-74084264D01*
X115443541Y-74098543D01*
X115438582Y-74112403D01*
X115432288Y-74125710D01*
X115424720Y-74138336D01*
X115415952Y-74150159D01*
X115406066Y-74161066D01*
X115395159Y-74170952D01*
X115383336Y-74179720D01*
X115370710Y-74187288D01*
X115357403Y-74193582D01*
X115343543Y-74198541D01*
X115329264Y-74202118D01*
X115314703Y-74204278D01*
X115300000Y-74205000D01*
X113650000Y-74205000D01*
X113635297Y-74204278D01*
X113620736Y-74202118D01*
X113606457Y-74198541D01*
X113592597Y-74193582D01*
X113579290Y-74187288D01*
X113566664Y-74179720D01*
X113554841Y-74170952D01*
X113543934Y-74161066D01*
X113534048Y-74150159D01*
X113525280Y-74138336D01*
X113517712Y-74125710D01*
X113511418Y-74112403D01*
X113506459Y-74098543D01*
X113502882Y-74084264D01*
X113500722Y-74069703D01*
X113500000Y-74055000D01*
X113500000Y-73755000D01*
X113500722Y-73740297D01*
X113502882Y-73725736D01*
X113506459Y-73711457D01*
X113511418Y-73697597D01*
X113517712Y-73684290D01*
X113525280Y-73671664D01*
X113534048Y-73659841D01*
X113543934Y-73648934D01*
X113554841Y-73639048D01*
X113566664Y-73630280D01*
X113579290Y-73622712D01*
X113592597Y-73616418D01*
X113606457Y-73611459D01*
X113620736Y-73607882D01*
X113635297Y-73605722D01*
X113650000Y-73605000D01*
X115300000Y-73605000D01*
X115314703Y-73605722D01*
G37*
G04 #@! TD.AperFunction*
G04 #@! TA.AperFunction,SMDPad,CuDef*
G36*
X115314703Y-74875722D02*
G01*
X115329264Y-74877882D01*
X115343543Y-74881459D01*
X115357403Y-74886418D01*
X115370710Y-74892712D01*
X115383336Y-74900280D01*
X115395159Y-74909048D01*
X115406066Y-74918934D01*
X115415952Y-74929841D01*
X115424720Y-74941664D01*
X115432288Y-74954290D01*
X115438582Y-74967597D01*
X115443541Y-74981457D01*
X115447118Y-74995736D01*
X115449278Y-75010297D01*
X115450000Y-75025000D01*
X115450000Y-75325000D01*
X115449278Y-75339703D01*
X115447118Y-75354264D01*
X115443541Y-75368543D01*
X115438582Y-75382403D01*
X115432288Y-75395710D01*
X115424720Y-75408336D01*
X115415952Y-75420159D01*
X115406066Y-75431066D01*
X115395159Y-75440952D01*
X115383336Y-75449720D01*
X115370710Y-75457288D01*
X115357403Y-75463582D01*
X115343543Y-75468541D01*
X115329264Y-75472118D01*
X115314703Y-75474278D01*
X115300000Y-75475000D01*
X113650000Y-75475000D01*
X113635297Y-75474278D01*
X113620736Y-75472118D01*
X113606457Y-75468541D01*
X113592597Y-75463582D01*
X113579290Y-75457288D01*
X113566664Y-75449720D01*
X113554841Y-75440952D01*
X113543934Y-75431066D01*
X113534048Y-75420159D01*
X113525280Y-75408336D01*
X113517712Y-75395710D01*
X113511418Y-75382403D01*
X113506459Y-75368543D01*
X113502882Y-75354264D01*
X113500722Y-75339703D01*
X113500000Y-75325000D01*
X113500000Y-75025000D01*
X113500722Y-75010297D01*
X113502882Y-74995736D01*
X113506459Y-74981457D01*
X113511418Y-74967597D01*
X113517712Y-74954290D01*
X113525280Y-74941664D01*
X113534048Y-74929841D01*
X113543934Y-74918934D01*
X113554841Y-74909048D01*
X113566664Y-74900280D01*
X113579290Y-74892712D01*
X113592597Y-74886418D01*
X113606457Y-74881459D01*
X113620736Y-74877882D01*
X113635297Y-74875722D01*
X113650000Y-74875000D01*
X115300000Y-74875000D01*
X115314703Y-74875722D01*
G37*
G04 #@! TD.AperFunction*
G04 #@! TA.AperFunction,SMDPad,CuDef*
G36*
X115314703Y-76145722D02*
G01*
X115329264Y-76147882D01*
X115343543Y-76151459D01*
X115357403Y-76156418D01*
X115370710Y-76162712D01*
X115383336Y-76170280D01*
X115395159Y-76179048D01*
X115406066Y-76188934D01*
X115415952Y-76199841D01*
X115424720Y-76211664D01*
X115432288Y-76224290D01*
X115438582Y-76237597D01*
X115443541Y-76251457D01*
X115447118Y-76265736D01*
X115449278Y-76280297D01*
X115450000Y-76295000D01*
X115450000Y-76595000D01*
X115449278Y-76609703D01*
X115447118Y-76624264D01*
X115443541Y-76638543D01*
X115438582Y-76652403D01*
X115432288Y-76665710D01*
X115424720Y-76678336D01*
X115415952Y-76690159D01*
X115406066Y-76701066D01*
X115395159Y-76710952D01*
X115383336Y-76719720D01*
X115370710Y-76727288D01*
X115357403Y-76733582D01*
X115343543Y-76738541D01*
X115329264Y-76742118D01*
X115314703Y-76744278D01*
X115300000Y-76745000D01*
X113650000Y-76745000D01*
X113635297Y-76744278D01*
X113620736Y-76742118D01*
X113606457Y-76738541D01*
X113592597Y-76733582D01*
X113579290Y-76727288D01*
X113566664Y-76719720D01*
X113554841Y-76710952D01*
X113543934Y-76701066D01*
X113534048Y-76690159D01*
X113525280Y-76678336D01*
X113517712Y-76665710D01*
X113511418Y-76652403D01*
X113506459Y-76638543D01*
X113502882Y-76624264D01*
X113500722Y-76609703D01*
X113500000Y-76595000D01*
X113500000Y-76295000D01*
X113500722Y-76280297D01*
X113502882Y-76265736D01*
X113506459Y-76251457D01*
X113511418Y-76237597D01*
X113517712Y-76224290D01*
X113525280Y-76211664D01*
X113534048Y-76199841D01*
X113543934Y-76188934D01*
X113554841Y-76179048D01*
X113566664Y-76170280D01*
X113579290Y-76162712D01*
X113592597Y-76156418D01*
X113606457Y-76151459D01*
X113620736Y-76147882D01*
X113635297Y-76145722D01*
X113650000Y-76145000D01*
X115300000Y-76145000D01*
X115314703Y-76145722D01*
G37*
G04 #@! TD.AperFunction*
G04 #@! TA.AperFunction,SMDPad,CuDef*
G36*
X110364703Y-76145722D02*
G01*
X110379264Y-76147882D01*
X110393543Y-76151459D01*
X110407403Y-76156418D01*
X110420710Y-76162712D01*
X110433336Y-76170280D01*
X110445159Y-76179048D01*
X110456066Y-76188934D01*
X110465952Y-76199841D01*
X110474720Y-76211664D01*
X110482288Y-76224290D01*
X110488582Y-76237597D01*
X110493541Y-76251457D01*
X110497118Y-76265736D01*
X110499278Y-76280297D01*
X110500000Y-76295000D01*
X110500000Y-76595000D01*
X110499278Y-76609703D01*
X110497118Y-76624264D01*
X110493541Y-76638543D01*
X110488582Y-76652403D01*
X110482288Y-76665710D01*
X110474720Y-76678336D01*
X110465952Y-76690159D01*
X110456066Y-76701066D01*
X110445159Y-76710952D01*
X110433336Y-76719720D01*
X110420710Y-76727288D01*
X110407403Y-76733582D01*
X110393543Y-76738541D01*
X110379264Y-76742118D01*
X110364703Y-76744278D01*
X110350000Y-76745000D01*
X108700000Y-76745000D01*
X108685297Y-76744278D01*
X108670736Y-76742118D01*
X108656457Y-76738541D01*
X108642597Y-76733582D01*
X108629290Y-76727288D01*
X108616664Y-76719720D01*
X108604841Y-76710952D01*
X108593934Y-76701066D01*
X108584048Y-76690159D01*
X108575280Y-76678336D01*
X108567712Y-76665710D01*
X108561418Y-76652403D01*
X108556459Y-76638543D01*
X108552882Y-76624264D01*
X108550722Y-76609703D01*
X108550000Y-76595000D01*
X108550000Y-76295000D01*
X108550722Y-76280297D01*
X108552882Y-76265736D01*
X108556459Y-76251457D01*
X108561418Y-76237597D01*
X108567712Y-76224290D01*
X108575280Y-76211664D01*
X108584048Y-76199841D01*
X108593934Y-76188934D01*
X108604841Y-76179048D01*
X108616664Y-76170280D01*
X108629290Y-76162712D01*
X108642597Y-76156418D01*
X108656457Y-76151459D01*
X108670736Y-76147882D01*
X108685297Y-76145722D01*
X108700000Y-76145000D01*
X110350000Y-76145000D01*
X110364703Y-76145722D01*
G37*
G04 #@! TD.AperFunction*
G04 #@! TA.AperFunction,SMDPad,CuDef*
G36*
X110364703Y-74875722D02*
G01*
X110379264Y-74877882D01*
X110393543Y-74881459D01*
X110407403Y-74886418D01*
X110420710Y-74892712D01*
X110433336Y-74900280D01*
X110445159Y-74909048D01*
X110456066Y-74918934D01*
X110465952Y-74929841D01*
X110474720Y-74941664D01*
X110482288Y-74954290D01*
X110488582Y-74967597D01*
X110493541Y-74981457D01*
X110497118Y-74995736D01*
X110499278Y-75010297D01*
X110500000Y-75025000D01*
X110500000Y-75325000D01*
X110499278Y-75339703D01*
X110497118Y-75354264D01*
X110493541Y-75368543D01*
X110488582Y-75382403D01*
X110482288Y-75395710D01*
X110474720Y-75408336D01*
X110465952Y-75420159D01*
X110456066Y-75431066D01*
X110445159Y-75440952D01*
X110433336Y-75449720D01*
X110420710Y-75457288D01*
X110407403Y-75463582D01*
X110393543Y-75468541D01*
X110379264Y-75472118D01*
X110364703Y-75474278D01*
X110350000Y-75475000D01*
X108700000Y-75475000D01*
X108685297Y-75474278D01*
X108670736Y-75472118D01*
X108656457Y-75468541D01*
X108642597Y-75463582D01*
X108629290Y-75457288D01*
X108616664Y-75449720D01*
X108604841Y-75440952D01*
X108593934Y-75431066D01*
X108584048Y-75420159D01*
X108575280Y-75408336D01*
X108567712Y-75395710D01*
X108561418Y-75382403D01*
X108556459Y-75368543D01*
X108552882Y-75354264D01*
X108550722Y-75339703D01*
X108550000Y-75325000D01*
X108550000Y-75025000D01*
X108550722Y-75010297D01*
X108552882Y-74995736D01*
X108556459Y-74981457D01*
X108561418Y-74967597D01*
X108567712Y-74954290D01*
X108575280Y-74941664D01*
X108584048Y-74929841D01*
X108593934Y-74918934D01*
X108604841Y-74909048D01*
X108616664Y-74900280D01*
X108629290Y-74892712D01*
X108642597Y-74886418D01*
X108656457Y-74881459D01*
X108670736Y-74877882D01*
X108685297Y-74875722D01*
X108700000Y-74875000D01*
X110350000Y-74875000D01*
X110364703Y-74875722D01*
G37*
G04 #@! TD.AperFunction*
G04 #@! TA.AperFunction,SMDPad,CuDef*
G36*
X110364703Y-73605722D02*
G01*
X110379264Y-73607882D01*
X110393543Y-73611459D01*
X110407403Y-73616418D01*
X110420710Y-73622712D01*
X110433336Y-73630280D01*
X110445159Y-73639048D01*
X110456066Y-73648934D01*
X110465952Y-73659841D01*
X110474720Y-73671664D01*
X110482288Y-73684290D01*
X110488582Y-73697597D01*
X110493541Y-73711457D01*
X110497118Y-73725736D01*
X110499278Y-73740297D01*
X110500000Y-73755000D01*
X110500000Y-74055000D01*
X110499278Y-74069703D01*
X110497118Y-74084264D01*
X110493541Y-74098543D01*
X110488582Y-74112403D01*
X110482288Y-74125710D01*
X110474720Y-74138336D01*
X110465952Y-74150159D01*
X110456066Y-74161066D01*
X110445159Y-74170952D01*
X110433336Y-74179720D01*
X110420710Y-74187288D01*
X110407403Y-74193582D01*
X110393543Y-74198541D01*
X110379264Y-74202118D01*
X110364703Y-74204278D01*
X110350000Y-74205000D01*
X108700000Y-74205000D01*
X108685297Y-74204278D01*
X108670736Y-74202118D01*
X108656457Y-74198541D01*
X108642597Y-74193582D01*
X108629290Y-74187288D01*
X108616664Y-74179720D01*
X108604841Y-74170952D01*
X108593934Y-74161066D01*
X108584048Y-74150159D01*
X108575280Y-74138336D01*
X108567712Y-74125710D01*
X108561418Y-74112403D01*
X108556459Y-74098543D01*
X108552882Y-74084264D01*
X108550722Y-74069703D01*
X108550000Y-74055000D01*
X108550000Y-73755000D01*
X108550722Y-73740297D01*
X108552882Y-73725736D01*
X108556459Y-73711457D01*
X108561418Y-73697597D01*
X108567712Y-73684290D01*
X108575280Y-73671664D01*
X108584048Y-73659841D01*
X108593934Y-73648934D01*
X108604841Y-73639048D01*
X108616664Y-73630280D01*
X108629290Y-73622712D01*
X108642597Y-73616418D01*
X108656457Y-73611459D01*
X108670736Y-73607882D01*
X108685297Y-73605722D01*
X108700000Y-73605000D01*
X110350000Y-73605000D01*
X110364703Y-73605722D01*
G37*
G04 #@! TD.AperFunction*
G04 #@! TA.AperFunction,SMDPad,CuDef*
G36*
X110364703Y-72335722D02*
G01*
X110379264Y-72337882D01*
X110393543Y-72341459D01*
X110407403Y-72346418D01*
X110420710Y-72352712D01*
X110433336Y-72360280D01*
X110445159Y-72369048D01*
X110456066Y-72378934D01*
X110465952Y-72389841D01*
X110474720Y-72401664D01*
X110482288Y-72414290D01*
X110488582Y-72427597D01*
X110493541Y-72441457D01*
X110497118Y-72455736D01*
X110499278Y-72470297D01*
X110500000Y-72485000D01*
X110500000Y-72785000D01*
X110499278Y-72799703D01*
X110497118Y-72814264D01*
X110493541Y-72828543D01*
X110488582Y-72842403D01*
X110482288Y-72855710D01*
X110474720Y-72868336D01*
X110465952Y-72880159D01*
X110456066Y-72891066D01*
X110445159Y-72900952D01*
X110433336Y-72909720D01*
X110420710Y-72917288D01*
X110407403Y-72923582D01*
X110393543Y-72928541D01*
X110379264Y-72932118D01*
X110364703Y-72934278D01*
X110350000Y-72935000D01*
X108700000Y-72935000D01*
X108685297Y-72934278D01*
X108670736Y-72932118D01*
X108656457Y-72928541D01*
X108642597Y-72923582D01*
X108629290Y-72917288D01*
X108616664Y-72909720D01*
X108604841Y-72900952D01*
X108593934Y-72891066D01*
X108584048Y-72880159D01*
X108575280Y-72868336D01*
X108567712Y-72855710D01*
X108561418Y-72842403D01*
X108556459Y-72828543D01*
X108552882Y-72814264D01*
X108550722Y-72799703D01*
X108550000Y-72785000D01*
X108550000Y-72485000D01*
X108550722Y-72470297D01*
X108552882Y-72455736D01*
X108556459Y-72441457D01*
X108561418Y-72427597D01*
X108567712Y-72414290D01*
X108575280Y-72401664D01*
X108584048Y-72389841D01*
X108593934Y-72378934D01*
X108604841Y-72369048D01*
X108616664Y-72360280D01*
X108629290Y-72352712D01*
X108642597Y-72346418D01*
X108656457Y-72341459D01*
X108670736Y-72337882D01*
X108685297Y-72335722D01*
X108700000Y-72335000D01*
X110350000Y-72335000D01*
X110364703Y-72335722D01*
G37*
G04 #@! TD.AperFunction*
G04 #@! TA.AperFunction,SMDPad,CuDef*
G36*
X110364703Y-71065722D02*
G01*
X110379264Y-71067882D01*
X110393543Y-71071459D01*
X110407403Y-71076418D01*
X110420710Y-71082712D01*
X110433336Y-71090280D01*
X110445159Y-71099048D01*
X110456066Y-71108934D01*
X110465952Y-71119841D01*
X110474720Y-71131664D01*
X110482288Y-71144290D01*
X110488582Y-71157597D01*
X110493541Y-71171457D01*
X110497118Y-71185736D01*
X110499278Y-71200297D01*
X110500000Y-71215000D01*
X110500000Y-71515000D01*
X110499278Y-71529703D01*
X110497118Y-71544264D01*
X110493541Y-71558543D01*
X110488582Y-71572403D01*
X110482288Y-71585710D01*
X110474720Y-71598336D01*
X110465952Y-71610159D01*
X110456066Y-71621066D01*
X110445159Y-71630952D01*
X110433336Y-71639720D01*
X110420710Y-71647288D01*
X110407403Y-71653582D01*
X110393543Y-71658541D01*
X110379264Y-71662118D01*
X110364703Y-71664278D01*
X110350000Y-71665000D01*
X108700000Y-71665000D01*
X108685297Y-71664278D01*
X108670736Y-71662118D01*
X108656457Y-71658541D01*
X108642597Y-71653582D01*
X108629290Y-71647288D01*
X108616664Y-71639720D01*
X108604841Y-71630952D01*
X108593934Y-71621066D01*
X108584048Y-71610159D01*
X108575280Y-71598336D01*
X108567712Y-71585710D01*
X108561418Y-71572403D01*
X108556459Y-71558543D01*
X108552882Y-71544264D01*
X108550722Y-71529703D01*
X108550000Y-71515000D01*
X108550000Y-71215000D01*
X108550722Y-71200297D01*
X108552882Y-71185736D01*
X108556459Y-71171457D01*
X108561418Y-71157597D01*
X108567712Y-71144290D01*
X108575280Y-71131664D01*
X108584048Y-71119841D01*
X108593934Y-71108934D01*
X108604841Y-71099048D01*
X108616664Y-71090280D01*
X108629290Y-71082712D01*
X108642597Y-71076418D01*
X108656457Y-71071459D01*
X108670736Y-71067882D01*
X108685297Y-71065722D01*
X108700000Y-71065000D01*
X110350000Y-71065000D01*
X110364703Y-71065722D01*
G37*
G04 #@! TD.AperFunction*
G04 #@! TA.AperFunction,SMDPad,CuDef*
G36*
X110364703Y-69795722D02*
G01*
X110379264Y-69797882D01*
X110393543Y-69801459D01*
X110407403Y-69806418D01*
X110420710Y-69812712D01*
X110433336Y-69820280D01*
X110445159Y-69829048D01*
X110456066Y-69838934D01*
X110465952Y-69849841D01*
X110474720Y-69861664D01*
X110482288Y-69874290D01*
X110488582Y-69887597D01*
X110493541Y-69901457D01*
X110497118Y-69915736D01*
X110499278Y-69930297D01*
X110500000Y-69945000D01*
X110500000Y-70245000D01*
X110499278Y-70259703D01*
X110497118Y-70274264D01*
X110493541Y-70288543D01*
X110488582Y-70302403D01*
X110482288Y-70315710D01*
X110474720Y-70328336D01*
X110465952Y-70340159D01*
X110456066Y-70351066D01*
X110445159Y-70360952D01*
X110433336Y-70369720D01*
X110420710Y-70377288D01*
X110407403Y-70383582D01*
X110393543Y-70388541D01*
X110379264Y-70392118D01*
X110364703Y-70394278D01*
X110350000Y-70395000D01*
X108700000Y-70395000D01*
X108685297Y-70394278D01*
X108670736Y-70392118D01*
X108656457Y-70388541D01*
X108642597Y-70383582D01*
X108629290Y-70377288D01*
X108616664Y-70369720D01*
X108604841Y-70360952D01*
X108593934Y-70351066D01*
X108584048Y-70340159D01*
X108575280Y-70328336D01*
X108567712Y-70315710D01*
X108561418Y-70302403D01*
X108556459Y-70288543D01*
X108552882Y-70274264D01*
X108550722Y-70259703D01*
X108550000Y-70245000D01*
X108550000Y-69945000D01*
X108550722Y-69930297D01*
X108552882Y-69915736D01*
X108556459Y-69901457D01*
X108561418Y-69887597D01*
X108567712Y-69874290D01*
X108575280Y-69861664D01*
X108584048Y-69849841D01*
X108593934Y-69838934D01*
X108604841Y-69829048D01*
X108616664Y-69820280D01*
X108629290Y-69812712D01*
X108642597Y-69806418D01*
X108656457Y-69801459D01*
X108670736Y-69797882D01*
X108685297Y-69795722D01*
X108700000Y-69795000D01*
X110350000Y-69795000D01*
X110364703Y-69795722D01*
G37*
G04 #@! TD.AperFunction*
G04 #@! TA.AperFunction,SMDPad,CuDef*
G36*
X110364703Y-68525722D02*
G01*
X110379264Y-68527882D01*
X110393543Y-68531459D01*
X110407403Y-68536418D01*
X110420710Y-68542712D01*
X110433336Y-68550280D01*
X110445159Y-68559048D01*
X110456066Y-68568934D01*
X110465952Y-68579841D01*
X110474720Y-68591664D01*
X110482288Y-68604290D01*
X110488582Y-68617597D01*
X110493541Y-68631457D01*
X110497118Y-68645736D01*
X110499278Y-68660297D01*
X110500000Y-68675000D01*
X110500000Y-68975000D01*
X110499278Y-68989703D01*
X110497118Y-69004264D01*
X110493541Y-69018543D01*
X110488582Y-69032403D01*
X110482288Y-69045710D01*
X110474720Y-69058336D01*
X110465952Y-69070159D01*
X110456066Y-69081066D01*
X110445159Y-69090952D01*
X110433336Y-69099720D01*
X110420710Y-69107288D01*
X110407403Y-69113582D01*
X110393543Y-69118541D01*
X110379264Y-69122118D01*
X110364703Y-69124278D01*
X110350000Y-69125000D01*
X108700000Y-69125000D01*
X108685297Y-69124278D01*
X108670736Y-69122118D01*
X108656457Y-69118541D01*
X108642597Y-69113582D01*
X108629290Y-69107288D01*
X108616664Y-69099720D01*
X108604841Y-69090952D01*
X108593934Y-69081066D01*
X108584048Y-69070159D01*
X108575280Y-69058336D01*
X108567712Y-69045710D01*
X108561418Y-69032403D01*
X108556459Y-69018543D01*
X108552882Y-69004264D01*
X108550722Y-68989703D01*
X108550000Y-68975000D01*
X108550000Y-68675000D01*
X108550722Y-68660297D01*
X108552882Y-68645736D01*
X108556459Y-68631457D01*
X108561418Y-68617597D01*
X108567712Y-68604290D01*
X108575280Y-68591664D01*
X108584048Y-68579841D01*
X108593934Y-68568934D01*
X108604841Y-68559048D01*
X108616664Y-68550280D01*
X108629290Y-68542712D01*
X108642597Y-68536418D01*
X108656457Y-68531459D01*
X108670736Y-68527882D01*
X108685297Y-68525722D01*
X108700000Y-68525000D01*
X110350000Y-68525000D01*
X110364703Y-68525722D01*
G37*
G04 #@! TD.AperFunction*
G04 #@! TA.AperFunction,SMDPad,CuDef*
G36*
X110364703Y-67255722D02*
G01*
X110379264Y-67257882D01*
X110393543Y-67261459D01*
X110407403Y-67266418D01*
X110420710Y-67272712D01*
X110433336Y-67280280D01*
X110445159Y-67289048D01*
X110456066Y-67298934D01*
X110465952Y-67309841D01*
X110474720Y-67321664D01*
X110482288Y-67334290D01*
X110488582Y-67347597D01*
X110493541Y-67361457D01*
X110497118Y-67375736D01*
X110499278Y-67390297D01*
X110500000Y-67405000D01*
X110500000Y-67705000D01*
X110499278Y-67719703D01*
X110497118Y-67734264D01*
X110493541Y-67748543D01*
X110488582Y-67762403D01*
X110482288Y-67775710D01*
X110474720Y-67788336D01*
X110465952Y-67800159D01*
X110456066Y-67811066D01*
X110445159Y-67820952D01*
X110433336Y-67829720D01*
X110420710Y-67837288D01*
X110407403Y-67843582D01*
X110393543Y-67848541D01*
X110379264Y-67852118D01*
X110364703Y-67854278D01*
X110350000Y-67855000D01*
X108700000Y-67855000D01*
X108685297Y-67854278D01*
X108670736Y-67852118D01*
X108656457Y-67848541D01*
X108642597Y-67843582D01*
X108629290Y-67837288D01*
X108616664Y-67829720D01*
X108604841Y-67820952D01*
X108593934Y-67811066D01*
X108584048Y-67800159D01*
X108575280Y-67788336D01*
X108567712Y-67775710D01*
X108561418Y-67762403D01*
X108556459Y-67748543D01*
X108552882Y-67734264D01*
X108550722Y-67719703D01*
X108550000Y-67705000D01*
X108550000Y-67405000D01*
X108550722Y-67390297D01*
X108552882Y-67375736D01*
X108556459Y-67361457D01*
X108561418Y-67347597D01*
X108567712Y-67334290D01*
X108575280Y-67321664D01*
X108584048Y-67309841D01*
X108593934Y-67298934D01*
X108604841Y-67289048D01*
X108616664Y-67280280D01*
X108629290Y-67272712D01*
X108642597Y-67266418D01*
X108656457Y-67261459D01*
X108670736Y-67257882D01*
X108685297Y-67255722D01*
X108700000Y-67255000D01*
X110350000Y-67255000D01*
X110364703Y-67255722D01*
G37*
G04 #@! TD.AperFunction*
D11*
X137000000Y-94540000D03*
D12*
X137000000Y-92000000D03*
D11*
X137000000Y-86540000D03*
D12*
X137000000Y-84000000D03*
D11*
X137000000Y-78540000D03*
D12*
X137000000Y-76000000D03*
D11*
X137000000Y-70540000D03*
D12*
X137000000Y-68000000D03*
D13*
X125890000Y-80460000D03*
X124620000Y-83000000D03*
X123350000Y-80460000D03*
X122080000Y-83000000D03*
X120810000Y-80460000D03*
X119540000Y-83000000D03*
X118270000Y-80460000D03*
D14*
X117000000Y-83000000D03*
D13*
X106890000Y-80460000D03*
X105620000Y-83000000D03*
X104350000Y-80460000D03*
X103080000Y-83000000D03*
X101810000Y-80460000D03*
X100540000Y-83000000D03*
X99270000Y-80460000D03*
D14*
X98000000Y-83000000D03*
D11*
X88000000Y-95540000D03*
D12*
X88000000Y-93000000D03*
D11*
X88000000Y-88000000D03*
D12*
X88000000Y-85460000D03*
D11*
X88000000Y-80540000D03*
D12*
X88000000Y-78000000D03*
D11*
X88000000Y-73080000D03*
X88000000Y-70540000D03*
D12*
X88000000Y-68000000D03*
G04 #@! TA.AperFunction,SMDPad,CuDef*
D10*
G36*
X133260779Y-92601144D02*
G01*
X133283834Y-92604563D01*
X133306443Y-92610227D01*
X133328387Y-92618079D01*
X133349457Y-92628044D01*
X133369448Y-92640026D01*
X133388168Y-92653910D01*
X133405438Y-92669562D01*
X133421090Y-92686832D01*
X133434974Y-92705552D01*
X133446956Y-92725543D01*
X133456921Y-92746613D01*
X133464773Y-92768557D01*
X133470437Y-92791166D01*
X133473856Y-92814221D01*
X133475000Y-92837500D01*
X133475000Y-93412500D01*
X133473856Y-93435779D01*
X133470437Y-93458834D01*
X133464773Y-93481443D01*
X133456921Y-93503387D01*
X133446956Y-93524457D01*
X133434974Y-93544448D01*
X133421090Y-93563168D01*
X133405438Y-93580438D01*
X133388168Y-93596090D01*
X133369448Y-93609974D01*
X133349457Y-93621956D01*
X133328387Y-93631921D01*
X133306443Y-93639773D01*
X133283834Y-93645437D01*
X133260779Y-93648856D01*
X133237500Y-93650000D01*
X132762500Y-93650000D01*
X132739221Y-93648856D01*
X132716166Y-93645437D01*
X132693557Y-93639773D01*
X132671613Y-93631921D01*
X132650543Y-93621956D01*
X132630552Y-93609974D01*
X132611832Y-93596090D01*
X132594562Y-93580438D01*
X132578910Y-93563168D01*
X132565026Y-93544448D01*
X132553044Y-93524457D01*
X132543079Y-93503387D01*
X132535227Y-93481443D01*
X132529563Y-93458834D01*
X132526144Y-93435779D01*
X132525000Y-93412500D01*
X132525000Y-92837500D01*
X132526144Y-92814221D01*
X132529563Y-92791166D01*
X132535227Y-92768557D01*
X132543079Y-92746613D01*
X132553044Y-92725543D01*
X132565026Y-92705552D01*
X132578910Y-92686832D01*
X132594562Y-92669562D01*
X132611832Y-92653910D01*
X132630552Y-92640026D01*
X132650543Y-92628044D01*
X132671613Y-92618079D01*
X132693557Y-92610227D01*
X132716166Y-92604563D01*
X132739221Y-92601144D01*
X132762500Y-92600000D01*
X133237500Y-92600000D01*
X133260779Y-92601144D01*
G37*
G04 #@! TD.AperFunction*
G04 #@! TA.AperFunction,SMDPad,CuDef*
G36*
X133260779Y-94351144D02*
G01*
X133283834Y-94354563D01*
X133306443Y-94360227D01*
X133328387Y-94368079D01*
X133349457Y-94378044D01*
X133369448Y-94390026D01*
X133388168Y-94403910D01*
X133405438Y-94419562D01*
X133421090Y-94436832D01*
X133434974Y-94455552D01*
X133446956Y-94475543D01*
X133456921Y-94496613D01*
X133464773Y-94518557D01*
X133470437Y-94541166D01*
X133473856Y-94564221D01*
X133475000Y-94587500D01*
X133475000Y-95162500D01*
X133473856Y-95185779D01*
X133470437Y-95208834D01*
X133464773Y-95231443D01*
X133456921Y-95253387D01*
X133446956Y-95274457D01*
X133434974Y-95294448D01*
X133421090Y-95313168D01*
X133405438Y-95330438D01*
X133388168Y-95346090D01*
X133369448Y-95359974D01*
X133349457Y-95371956D01*
X133328387Y-95381921D01*
X133306443Y-95389773D01*
X133283834Y-95395437D01*
X133260779Y-95398856D01*
X133237500Y-95400000D01*
X132762500Y-95400000D01*
X132739221Y-95398856D01*
X132716166Y-95395437D01*
X132693557Y-95389773D01*
X132671613Y-95381921D01*
X132650543Y-95371956D01*
X132630552Y-95359974D01*
X132611832Y-95346090D01*
X132594562Y-95330438D01*
X132578910Y-95313168D01*
X132565026Y-95294448D01*
X132553044Y-95274457D01*
X132543079Y-95253387D01*
X132535227Y-95231443D01*
X132529563Y-95208834D01*
X132526144Y-95185779D01*
X132525000Y-95162500D01*
X132525000Y-94587500D01*
X132526144Y-94564221D01*
X132529563Y-94541166D01*
X132535227Y-94518557D01*
X132543079Y-94496613D01*
X132553044Y-94475543D01*
X132565026Y-94455552D01*
X132578910Y-94436832D01*
X132594562Y-94419562D01*
X132611832Y-94403910D01*
X132630552Y-94390026D01*
X132650543Y-94378044D01*
X132671613Y-94368079D01*
X132693557Y-94360227D01*
X132716166Y-94354563D01*
X132739221Y-94351144D01*
X132762500Y-94350000D01*
X133237500Y-94350000D01*
X133260779Y-94351144D01*
G37*
G04 #@! TD.AperFunction*
G04 #@! TA.AperFunction,SMDPad,CuDef*
G36*
X133260779Y-84601144D02*
G01*
X133283834Y-84604563D01*
X133306443Y-84610227D01*
X133328387Y-84618079D01*
X133349457Y-84628044D01*
X133369448Y-84640026D01*
X133388168Y-84653910D01*
X133405438Y-84669562D01*
X133421090Y-84686832D01*
X133434974Y-84705552D01*
X133446956Y-84725543D01*
X133456921Y-84746613D01*
X133464773Y-84768557D01*
X133470437Y-84791166D01*
X133473856Y-84814221D01*
X133475000Y-84837500D01*
X133475000Y-85412500D01*
X133473856Y-85435779D01*
X133470437Y-85458834D01*
X133464773Y-85481443D01*
X133456921Y-85503387D01*
X133446956Y-85524457D01*
X133434974Y-85544448D01*
X133421090Y-85563168D01*
X133405438Y-85580438D01*
X133388168Y-85596090D01*
X133369448Y-85609974D01*
X133349457Y-85621956D01*
X133328387Y-85631921D01*
X133306443Y-85639773D01*
X133283834Y-85645437D01*
X133260779Y-85648856D01*
X133237500Y-85650000D01*
X132762500Y-85650000D01*
X132739221Y-85648856D01*
X132716166Y-85645437D01*
X132693557Y-85639773D01*
X132671613Y-85631921D01*
X132650543Y-85621956D01*
X132630552Y-85609974D01*
X132611832Y-85596090D01*
X132594562Y-85580438D01*
X132578910Y-85563168D01*
X132565026Y-85544448D01*
X132553044Y-85524457D01*
X132543079Y-85503387D01*
X132535227Y-85481443D01*
X132529563Y-85458834D01*
X132526144Y-85435779D01*
X132525000Y-85412500D01*
X132525000Y-84837500D01*
X132526144Y-84814221D01*
X132529563Y-84791166D01*
X132535227Y-84768557D01*
X132543079Y-84746613D01*
X132553044Y-84725543D01*
X132565026Y-84705552D01*
X132578910Y-84686832D01*
X132594562Y-84669562D01*
X132611832Y-84653910D01*
X132630552Y-84640026D01*
X132650543Y-84628044D01*
X132671613Y-84618079D01*
X132693557Y-84610227D01*
X132716166Y-84604563D01*
X132739221Y-84601144D01*
X132762500Y-84600000D01*
X133237500Y-84600000D01*
X133260779Y-84601144D01*
G37*
G04 #@! TD.AperFunction*
G04 #@! TA.AperFunction,SMDPad,CuDef*
G36*
X133260779Y-86351144D02*
G01*
X133283834Y-86354563D01*
X133306443Y-86360227D01*
X133328387Y-86368079D01*
X133349457Y-86378044D01*
X133369448Y-86390026D01*
X133388168Y-86403910D01*
X133405438Y-86419562D01*
X133421090Y-86436832D01*
X133434974Y-86455552D01*
X133446956Y-86475543D01*
X133456921Y-86496613D01*
X133464773Y-86518557D01*
X133470437Y-86541166D01*
X133473856Y-86564221D01*
X133475000Y-86587500D01*
X133475000Y-87162500D01*
X133473856Y-87185779D01*
X133470437Y-87208834D01*
X133464773Y-87231443D01*
X133456921Y-87253387D01*
X133446956Y-87274457D01*
X133434974Y-87294448D01*
X133421090Y-87313168D01*
X133405438Y-87330438D01*
X133388168Y-87346090D01*
X133369448Y-87359974D01*
X133349457Y-87371956D01*
X133328387Y-87381921D01*
X133306443Y-87389773D01*
X133283834Y-87395437D01*
X133260779Y-87398856D01*
X133237500Y-87400000D01*
X132762500Y-87400000D01*
X132739221Y-87398856D01*
X132716166Y-87395437D01*
X132693557Y-87389773D01*
X132671613Y-87381921D01*
X132650543Y-87371956D01*
X132630552Y-87359974D01*
X132611832Y-87346090D01*
X132594562Y-87330438D01*
X132578910Y-87313168D01*
X132565026Y-87294448D01*
X132553044Y-87274457D01*
X132543079Y-87253387D01*
X132535227Y-87231443D01*
X132529563Y-87208834D01*
X132526144Y-87185779D01*
X132525000Y-87162500D01*
X132525000Y-86587500D01*
X132526144Y-86564221D01*
X132529563Y-86541166D01*
X132535227Y-86518557D01*
X132543079Y-86496613D01*
X132553044Y-86475543D01*
X132565026Y-86455552D01*
X132578910Y-86436832D01*
X132594562Y-86419562D01*
X132611832Y-86403910D01*
X132630552Y-86390026D01*
X132650543Y-86378044D01*
X132671613Y-86368079D01*
X132693557Y-86360227D01*
X132716166Y-86354563D01*
X132739221Y-86351144D01*
X132762500Y-86350000D01*
X133237500Y-86350000D01*
X133260779Y-86351144D01*
G37*
G04 #@! TD.AperFunction*
G04 #@! TA.AperFunction,SMDPad,CuDef*
G36*
X133260779Y-76476144D02*
G01*
X133283834Y-76479563D01*
X133306443Y-76485227D01*
X133328387Y-76493079D01*
X133349457Y-76503044D01*
X133369448Y-76515026D01*
X133388168Y-76528910D01*
X133405438Y-76544562D01*
X133421090Y-76561832D01*
X133434974Y-76580552D01*
X133446956Y-76600543D01*
X133456921Y-76621613D01*
X133464773Y-76643557D01*
X133470437Y-76666166D01*
X133473856Y-76689221D01*
X133475000Y-76712500D01*
X133475000Y-77287500D01*
X133473856Y-77310779D01*
X133470437Y-77333834D01*
X133464773Y-77356443D01*
X133456921Y-77378387D01*
X133446956Y-77399457D01*
X133434974Y-77419448D01*
X133421090Y-77438168D01*
X133405438Y-77455438D01*
X133388168Y-77471090D01*
X133369448Y-77484974D01*
X133349457Y-77496956D01*
X133328387Y-77506921D01*
X133306443Y-77514773D01*
X133283834Y-77520437D01*
X133260779Y-77523856D01*
X133237500Y-77525000D01*
X132762500Y-77525000D01*
X132739221Y-77523856D01*
X132716166Y-77520437D01*
X132693557Y-77514773D01*
X132671613Y-77506921D01*
X132650543Y-77496956D01*
X132630552Y-77484974D01*
X132611832Y-77471090D01*
X132594562Y-77455438D01*
X132578910Y-77438168D01*
X132565026Y-77419448D01*
X132553044Y-77399457D01*
X132543079Y-77378387D01*
X132535227Y-77356443D01*
X132529563Y-77333834D01*
X132526144Y-77310779D01*
X132525000Y-77287500D01*
X132525000Y-76712500D01*
X132526144Y-76689221D01*
X132529563Y-76666166D01*
X132535227Y-76643557D01*
X132543079Y-76621613D01*
X132553044Y-76600543D01*
X132565026Y-76580552D01*
X132578910Y-76561832D01*
X132594562Y-76544562D01*
X132611832Y-76528910D01*
X132630552Y-76515026D01*
X132650543Y-76503044D01*
X132671613Y-76493079D01*
X132693557Y-76485227D01*
X132716166Y-76479563D01*
X132739221Y-76476144D01*
X132762500Y-76475000D01*
X133237500Y-76475000D01*
X133260779Y-76476144D01*
G37*
G04 #@! TD.AperFunction*
G04 #@! TA.AperFunction,SMDPad,CuDef*
G36*
X133260779Y-78226144D02*
G01*
X133283834Y-78229563D01*
X133306443Y-78235227D01*
X133328387Y-78243079D01*
X133349457Y-78253044D01*
X133369448Y-78265026D01*
X133388168Y-78278910D01*
X133405438Y-78294562D01*
X133421090Y-78311832D01*
X133434974Y-78330552D01*
X133446956Y-78350543D01*
X133456921Y-78371613D01*
X133464773Y-78393557D01*
X133470437Y-78416166D01*
X133473856Y-78439221D01*
X133475000Y-78462500D01*
X133475000Y-79037500D01*
X133473856Y-79060779D01*
X133470437Y-79083834D01*
X133464773Y-79106443D01*
X133456921Y-79128387D01*
X133446956Y-79149457D01*
X133434974Y-79169448D01*
X133421090Y-79188168D01*
X133405438Y-79205438D01*
X133388168Y-79221090D01*
X133369448Y-79234974D01*
X133349457Y-79246956D01*
X133328387Y-79256921D01*
X133306443Y-79264773D01*
X133283834Y-79270437D01*
X133260779Y-79273856D01*
X133237500Y-79275000D01*
X132762500Y-79275000D01*
X132739221Y-79273856D01*
X132716166Y-79270437D01*
X132693557Y-79264773D01*
X132671613Y-79256921D01*
X132650543Y-79246956D01*
X132630552Y-79234974D01*
X132611832Y-79221090D01*
X132594562Y-79205438D01*
X132578910Y-79188168D01*
X132565026Y-79169448D01*
X132553044Y-79149457D01*
X132543079Y-79128387D01*
X132535227Y-79106443D01*
X132529563Y-79083834D01*
X132526144Y-79060779D01*
X132525000Y-79037500D01*
X132525000Y-78462500D01*
X132526144Y-78439221D01*
X132529563Y-78416166D01*
X132535227Y-78393557D01*
X132543079Y-78371613D01*
X132553044Y-78350543D01*
X132565026Y-78330552D01*
X132578910Y-78311832D01*
X132594562Y-78294562D01*
X132611832Y-78278910D01*
X132630552Y-78265026D01*
X132650543Y-78253044D01*
X132671613Y-78243079D01*
X132693557Y-78235227D01*
X132716166Y-78229563D01*
X132739221Y-78226144D01*
X132762500Y-78225000D01*
X133237500Y-78225000D01*
X133260779Y-78226144D01*
G37*
G04 #@! TD.AperFunction*
G04 #@! TA.AperFunction,SMDPad,CuDef*
G36*
X133260779Y-68476144D02*
G01*
X133283834Y-68479563D01*
X133306443Y-68485227D01*
X133328387Y-68493079D01*
X133349457Y-68503044D01*
X133369448Y-68515026D01*
X133388168Y-68528910D01*
X133405438Y-68544562D01*
X133421090Y-68561832D01*
X133434974Y-68580552D01*
X133446956Y-68600543D01*
X133456921Y-68621613D01*
X133464773Y-68643557D01*
X133470437Y-68666166D01*
X133473856Y-68689221D01*
X133475000Y-68712500D01*
X133475000Y-69287500D01*
X133473856Y-69310779D01*
X133470437Y-69333834D01*
X133464773Y-69356443D01*
X133456921Y-69378387D01*
X133446956Y-69399457D01*
X133434974Y-69419448D01*
X133421090Y-69438168D01*
X133405438Y-69455438D01*
X133388168Y-69471090D01*
X133369448Y-69484974D01*
X133349457Y-69496956D01*
X133328387Y-69506921D01*
X133306443Y-69514773D01*
X133283834Y-69520437D01*
X133260779Y-69523856D01*
X133237500Y-69525000D01*
X132762500Y-69525000D01*
X132739221Y-69523856D01*
X132716166Y-69520437D01*
X132693557Y-69514773D01*
X132671613Y-69506921D01*
X132650543Y-69496956D01*
X132630552Y-69484974D01*
X132611832Y-69471090D01*
X132594562Y-69455438D01*
X132578910Y-69438168D01*
X132565026Y-69419448D01*
X132553044Y-69399457D01*
X132543079Y-69378387D01*
X132535227Y-69356443D01*
X132529563Y-69333834D01*
X132526144Y-69310779D01*
X132525000Y-69287500D01*
X132525000Y-68712500D01*
X132526144Y-68689221D01*
X132529563Y-68666166D01*
X132535227Y-68643557D01*
X132543079Y-68621613D01*
X132553044Y-68600543D01*
X132565026Y-68580552D01*
X132578910Y-68561832D01*
X132594562Y-68544562D01*
X132611832Y-68528910D01*
X132630552Y-68515026D01*
X132650543Y-68503044D01*
X132671613Y-68493079D01*
X132693557Y-68485227D01*
X132716166Y-68479563D01*
X132739221Y-68476144D01*
X132762500Y-68475000D01*
X133237500Y-68475000D01*
X133260779Y-68476144D01*
G37*
G04 #@! TD.AperFunction*
G04 #@! TA.AperFunction,SMDPad,CuDef*
G36*
X133260779Y-70226144D02*
G01*
X133283834Y-70229563D01*
X133306443Y-70235227D01*
X133328387Y-70243079D01*
X133349457Y-70253044D01*
X133369448Y-70265026D01*
X133388168Y-70278910D01*
X133405438Y-70294562D01*
X133421090Y-70311832D01*
X133434974Y-70330552D01*
X133446956Y-70350543D01*
X133456921Y-70371613D01*
X133464773Y-70393557D01*
X133470437Y-70416166D01*
X133473856Y-70439221D01*
X133475000Y-70462500D01*
X133475000Y-71037500D01*
X133473856Y-71060779D01*
X133470437Y-71083834D01*
X133464773Y-71106443D01*
X133456921Y-71128387D01*
X133446956Y-71149457D01*
X133434974Y-71169448D01*
X133421090Y-71188168D01*
X133405438Y-71205438D01*
X133388168Y-71221090D01*
X133369448Y-71234974D01*
X133349457Y-71246956D01*
X133328387Y-71256921D01*
X133306443Y-71264773D01*
X133283834Y-71270437D01*
X133260779Y-71273856D01*
X133237500Y-71275000D01*
X132762500Y-71275000D01*
X132739221Y-71273856D01*
X132716166Y-71270437D01*
X132693557Y-71264773D01*
X132671613Y-71256921D01*
X132650543Y-71246956D01*
X132630552Y-71234974D01*
X132611832Y-71221090D01*
X132594562Y-71205438D01*
X132578910Y-71188168D01*
X132565026Y-71169448D01*
X132553044Y-71149457D01*
X132543079Y-71128387D01*
X132535227Y-71106443D01*
X132529563Y-71083834D01*
X132526144Y-71060779D01*
X132525000Y-71037500D01*
X132525000Y-70462500D01*
X132526144Y-70439221D01*
X132529563Y-70416166D01*
X132535227Y-70393557D01*
X132543079Y-70371613D01*
X132553044Y-70350543D01*
X132565026Y-70330552D01*
X132578910Y-70311832D01*
X132594562Y-70294562D01*
X132611832Y-70278910D01*
X132630552Y-70265026D01*
X132650543Y-70253044D01*
X132671613Y-70243079D01*
X132693557Y-70235227D01*
X132716166Y-70229563D01*
X132739221Y-70226144D01*
X132762500Y-70225000D01*
X133237500Y-70225000D01*
X133260779Y-70226144D01*
G37*
G04 #@! TD.AperFunction*
G04 #@! TA.AperFunction,SMDPad,CuDef*
G36*
X119260779Y-69351144D02*
G01*
X119283834Y-69354563D01*
X119306443Y-69360227D01*
X119328387Y-69368079D01*
X119349457Y-69378044D01*
X119369448Y-69390026D01*
X119388168Y-69403910D01*
X119405438Y-69419562D01*
X119421090Y-69436832D01*
X119434974Y-69455552D01*
X119446956Y-69475543D01*
X119456921Y-69496613D01*
X119464773Y-69518557D01*
X119470437Y-69541166D01*
X119473856Y-69564221D01*
X119475000Y-69587500D01*
X119475000Y-70162500D01*
X119473856Y-70185779D01*
X119470437Y-70208834D01*
X119464773Y-70231443D01*
X119456921Y-70253387D01*
X119446956Y-70274457D01*
X119434974Y-70294448D01*
X119421090Y-70313168D01*
X119405438Y-70330438D01*
X119388168Y-70346090D01*
X119369448Y-70359974D01*
X119349457Y-70371956D01*
X119328387Y-70381921D01*
X119306443Y-70389773D01*
X119283834Y-70395437D01*
X119260779Y-70398856D01*
X119237500Y-70400000D01*
X118762500Y-70400000D01*
X118739221Y-70398856D01*
X118716166Y-70395437D01*
X118693557Y-70389773D01*
X118671613Y-70381921D01*
X118650543Y-70371956D01*
X118630552Y-70359974D01*
X118611832Y-70346090D01*
X118594562Y-70330438D01*
X118578910Y-70313168D01*
X118565026Y-70294448D01*
X118553044Y-70274457D01*
X118543079Y-70253387D01*
X118535227Y-70231443D01*
X118529563Y-70208834D01*
X118526144Y-70185779D01*
X118525000Y-70162500D01*
X118525000Y-69587500D01*
X118526144Y-69564221D01*
X118529563Y-69541166D01*
X118535227Y-69518557D01*
X118543079Y-69496613D01*
X118553044Y-69475543D01*
X118565026Y-69455552D01*
X118578910Y-69436832D01*
X118594562Y-69419562D01*
X118611832Y-69403910D01*
X118630552Y-69390026D01*
X118650543Y-69378044D01*
X118671613Y-69368079D01*
X118693557Y-69360227D01*
X118716166Y-69354563D01*
X118739221Y-69351144D01*
X118762500Y-69350000D01*
X119237500Y-69350000D01*
X119260779Y-69351144D01*
G37*
G04 #@! TD.AperFunction*
G04 #@! TA.AperFunction,SMDPad,CuDef*
G36*
X119260779Y-67601144D02*
G01*
X119283834Y-67604563D01*
X119306443Y-67610227D01*
X119328387Y-67618079D01*
X119349457Y-67628044D01*
X119369448Y-67640026D01*
X119388168Y-67653910D01*
X119405438Y-67669562D01*
X119421090Y-67686832D01*
X119434974Y-67705552D01*
X119446956Y-67725543D01*
X119456921Y-67746613D01*
X119464773Y-67768557D01*
X119470437Y-67791166D01*
X119473856Y-67814221D01*
X119475000Y-67837500D01*
X119475000Y-68412500D01*
X119473856Y-68435779D01*
X119470437Y-68458834D01*
X119464773Y-68481443D01*
X119456921Y-68503387D01*
X119446956Y-68524457D01*
X119434974Y-68544448D01*
X119421090Y-68563168D01*
X119405438Y-68580438D01*
X119388168Y-68596090D01*
X119369448Y-68609974D01*
X119349457Y-68621956D01*
X119328387Y-68631921D01*
X119306443Y-68639773D01*
X119283834Y-68645437D01*
X119260779Y-68648856D01*
X119237500Y-68650000D01*
X118762500Y-68650000D01*
X118739221Y-68648856D01*
X118716166Y-68645437D01*
X118693557Y-68639773D01*
X118671613Y-68631921D01*
X118650543Y-68621956D01*
X118630552Y-68609974D01*
X118611832Y-68596090D01*
X118594562Y-68580438D01*
X118578910Y-68563168D01*
X118565026Y-68544448D01*
X118553044Y-68524457D01*
X118543079Y-68503387D01*
X118535227Y-68481443D01*
X118529563Y-68458834D01*
X118526144Y-68435779D01*
X118525000Y-68412500D01*
X118525000Y-67837500D01*
X118526144Y-67814221D01*
X118529563Y-67791166D01*
X118535227Y-67768557D01*
X118543079Y-67746613D01*
X118553044Y-67725543D01*
X118565026Y-67705552D01*
X118578910Y-67686832D01*
X118594562Y-67669562D01*
X118611832Y-67653910D01*
X118630552Y-67640026D01*
X118650543Y-67628044D01*
X118671613Y-67618079D01*
X118693557Y-67610227D01*
X118716166Y-67604563D01*
X118739221Y-67601144D01*
X118762500Y-67600000D01*
X119237500Y-67600000D01*
X119260779Y-67601144D01*
G37*
G04 #@! TD.AperFunction*
D15*
X112250000Y-76750000D03*
X112500000Y-69750000D03*
X111250000Y-71000000D03*
X111500000Y-67250000D03*
X104500000Y-72000000D03*
X103250000Y-79000000D03*
X131250000Y-86750000D03*
X131250000Y-95000000D03*
X91500000Y-78500000D03*
X93000000Y-68750000D03*
X107000000Y-72750000D03*
X105500000Y-74000000D03*
X99250000Y-70000000D03*
X98000000Y-69250000D03*
X127245332Y-71274990D03*
X124730256Y-70639990D03*
X118250000Y-74000000D03*
X116750000Y-75250000D03*
D16*
X88000000Y-76650000D02*
X88000000Y-78000000D01*
X86699999Y-75349999D02*
X88000000Y-76650000D01*
X88000000Y-68000000D02*
X86699999Y-69300001D01*
X86699999Y-69300001D02*
X86699999Y-75349999D01*
X88000000Y-84110000D02*
X88000000Y-85460000D01*
X86699999Y-82809999D02*
X88000000Y-84110000D01*
X88000000Y-78000000D02*
X86699999Y-79300001D01*
X86699999Y-79300001D02*
X86699999Y-82809999D01*
X88000000Y-91650000D02*
X88000000Y-93000000D01*
X86699999Y-90349999D02*
X88000000Y-91650000D01*
X88000000Y-85460000D02*
X86699999Y-86760001D01*
X86699999Y-86760001D02*
X86699999Y-90349999D01*
X98080000Y-85460000D02*
X100540000Y-83000000D01*
X88000000Y-85460000D02*
X98080000Y-85460000D01*
X101810000Y-81730000D02*
X100540000Y-83000000D01*
X101810000Y-80460000D02*
X101810000Y-81730000D01*
X117080000Y-85460000D02*
X119540000Y-83000000D01*
X119540000Y-81730000D02*
X120810000Y-80460000D01*
X119540000Y-83000000D02*
X119540000Y-81730000D01*
X117415000Y-85125000D02*
X133000000Y-85125000D01*
X117080000Y-85460000D02*
X117415000Y-85125000D01*
X135875000Y-85125000D02*
X137000000Y-84000000D01*
X133000000Y-85125000D02*
X135875000Y-85125000D01*
X137000000Y-90650000D02*
X137000000Y-92000000D01*
X138300001Y-89349999D02*
X137000000Y-90650000D01*
X137000000Y-84000000D02*
X138300001Y-85300001D01*
X138300001Y-85300001D02*
X138300001Y-89349999D01*
X134125000Y-92000000D02*
X133000000Y-93125000D01*
X137000000Y-92000000D02*
X134125000Y-92000000D01*
X138300001Y-77300001D02*
X137000000Y-76000000D01*
X138300001Y-81349999D02*
X138300001Y-77300001D01*
X137000000Y-84000000D02*
X137000000Y-82650000D01*
X137000000Y-82650000D02*
X138300001Y-81349999D01*
X138300001Y-69300001D02*
X137000000Y-68000000D01*
X138300001Y-73349999D02*
X138300001Y-69300001D01*
X137000000Y-76000000D02*
X137000000Y-74650000D01*
X137000000Y-74650000D02*
X138300001Y-73349999D01*
X136000000Y-69000000D02*
X137000000Y-68000000D01*
X133000000Y-69000000D02*
X136000000Y-69000000D01*
X134000000Y-76000000D02*
X133000000Y-77000000D01*
X137000000Y-76000000D02*
X134000000Y-76000000D01*
X98080000Y-85460000D02*
X108500000Y-85500000D01*
X108500000Y-85500000D02*
X117080000Y-85460000D01*
D17*
X104764340Y-76445000D02*
X108550000Y-76445000D01*
X101810000Y-80460000D02*
X101810000Y-79399340D01*
X108550000Y-76445000D02*
X109525000Y-76445000D01*
X101810000Y-79399340D02*
X104764340Y-76445000D01*
X109525000Y-76445000D02*
X111945000Y-76445000D01*
X111945000Y-76445000D02*
X112250000Y-76750000D01*
X118525000Y-69875000D02*
X119000000Y-69875000D01*
X118119990Y-69469990D02*
X118525000Y-69875000D01*
X112500000Y-69750000D02*
X113065685Y-69750000D01*
X113345695Y-69469990D02*
X118119990Y-69469990D01*
X113065685Y-69750000D02*
X113345695Y-69469990D01*
X115045000Y-68125000D02*
X119000000Y-68125000D01*
X114475000Y-67555000D02*
X115045000Y-68125000D01*
X89805001Y-71274999D02*
X108459999Y-71274999D01*
X108459999Y-71274999D02*
X108550000Y-71365000D01*
X88000000Y-73080000D02*
X89805001Y-71274999D01*
X108550000Y-71365000D02*
X109525000Y-71365000D01*
X109525000Y-71365000D02*
X110885000Y-71365000D01*
X110885000Y-71365000D02*
X111250000Y-71000000D01*
X114170000Y-67250000D02*
X114475000Y-67555000D01*
X111500000Y-67250000D02*
X114170000Y-67250000D01*
X132275000Y-72000000D02*
X133000000Y-71275000D01*
X104500000Y-72000000D02*
X132275000Y-72000000D01*
X133000000Y-71275000D02*
X133000000Y-70750000D01*
X136790000Y-70750000D02*
X137000000Y-70540000D01*
X133000000Y-70750000D02*
X136790000Y-70750000D01*
X136790000Y-78750000D02*
X137000000Y-78540000D01*
X133000000Y-78750000D02*
X136790000Y-78750000D01*
X132750000Y-79000000D02*
X133000000Y-78750000D01*
X103250000Y-79000000D02*
X132750000Y-79000000D01*
X136665000Y-86875000D02*
X137000000Y-86540000D01*
X133000000Y-86875000D02*
X136665000Y-86875000D01*
X132875000Y-86750000D02*
X133000000Y-86875000D01*
X131250000Y-86750000D02*
X132875000Y-86750000D01*
X136665000Y-94875000D02*
X137000000Y-94540000D01*
X133000000Y-94875000D02*
X136665000Y-94875000D01*
X132875000Y-95000000D02*
X133000000Y-94875000D01*
X131250000Y-95000000D02*
X132875000Y-95000000D01*
X92187081Y-67555000D02*
X109525000Y-67555000D01*
X88000000Y-70540000D02*
X89202081Y-70540000D01*
X89202081Y-70540000D02*
X92187081Y-67555000D01*
X93365000Y-75175000D02*
X88849999Y-79690001D01*
X88849999Y-79690001D02*
X88000000Y-80540000D01*
X109525000Y-75175000D02*
X93365000Y-75175000D01*
X114475000Y-76445000D02*
X113849990Y-75819990D01*
X94180010Y-75819990D02*
X91500000Y-78500000D01*
X113849990Y-75819990D02*
X94180010Y-75819990D01*
X93550010Y-68199990D02*
X93000000Y-68750000D01*
X114475000Y-68825000D02*
X113849990Y-68199990D01*
X113849990Y-68199990D02*
X93550010Y-68199990D01*
X109410000Y-72750000D02*
X109525000Y-72635000D01*
X107000000Y-72750000D02*
X109410000Y-72750000D01*
X105595000Y-73905000D02*
X105500000Y-74000000D01*
X109525000Y-73905000D02*
X105595000Y-73905000D01*
X109525000Y-70095000D02*
X99345000Y-70095000D01*
X99345000Y-70095000D02*
X99250000Y-70000000D01*
X109525000Y-68825000D02*
X98425000Y-68825000D01*
X98425000Y-68825000D02*
X98000000Y-69250000D01*
X114475000Y-71365000D02*
X127155322Y-71365000D01*
X127155322Y-71365000D02*
X127245332Y-71274990D01*
X124164571Y-70639990D02*
X124730256Y-70639990D01*
X114475000Y-70095000D02*
X115110373Y-70730373D01*
X124074188Y-70730373D02*
X124164571Y-70639990D01*
X115110373Y-70730373D02*
X124074188Y-70730373D01*
X114475000Y-73905000D02*
X116753322Y-73905000D01*
X116848322Y-74000000D02*
X118250000Y-74000000D01*
X116753322Y-73905000D02*
X116848322Y-74000000D01*
X114475000Y-75175000D02*
X116675000Y-75175000D01*
X116675000Y-75175000D02*
X116750000Y-75250000D01*
D18*
G36*
X138340000Y-74746112D02*
G01*
X138301185Y-74698815D01*
X138204494Y-74619463D01*
X138094180Y-74560498D01*
X137974482Y-74524188D01*
X137850000Y-74511928D01*
X137285750Y-74515000D01*
X137127000Y-74673750D01*
X137127000Y-75873000D01*
X137147000Y-75873000D01*
X137147000Y-76127000D01*
X137127000Y-76127000D01*
X137127000Y-76147000D01*
X136873000Y-76147000D01*
X136873000Y-76127000D01*
X135673750Y-76127000D01*
X135515000Y-76285750D01*
X135511928Y-76850000D01*
X135524188Y-76974482D01*
X135560498Y-77094180D01*
X135619463Y-77204494D01*
X135698815Y-77301185D01*
X135795506Y-77380537D01*
X135905820Y-77439502D01*
X135978380Y-77461513D01*
X135846525Y-77593368D01*
X135684010Y-77836589D01*
X135620465Y-77990000D01*
X133972964Y-77990000D01*
X133965512Y-77976058D01*
X133945901Y-77952161D01*
X134005537Y-77879494D01*
X134064502Y-77769180D01*
X134100812Y-77649482D01*
X134113072Y-77525000D01*
X134110000Y-77285750D01*
X133951250Y-77127000D01*
X133127000Y-77127000D01*
X133127000Y-77147000D01*
X132873000Y-77147000D01*
X132873000Y-77127000D01*
X132048750Y-77127000D01*
X131890000Y-77285750D01*
X131886928Y-77525000D01*
X131899188Y-77649482D01*
X131935498Y-77769180D01*
X131994463Y-77879494D01*
X132054099Y-77952161D01*
X132034488Y-77976058D01*
X131953577Y-78127433D01*
X131919430Y-78240000D01*
X103953711Y-78240000D01*
X103909774Y-78196063D01*
X103740256Y-78082795D01*
X103551898Y-78004774D01*
X103351939Y-77965000D01*
X103148061Y-77965000D01*
X102948102Y-78004774D01*
X102759744Y-78082795D01*
X102590226Y-78196063D01*
X102446063Y-78340226D01*
X102332795Y-78509744D01*
X102254774Y-78698102D01*
X102215000Y-78898061D01*
X102215000Y-79101939D01*
X102221588Y-79135061D01*
X102010040Y-79082750D01*
X101737508Y-79070188D01*
X101467762Y-79111035D01*
X101211168Y-79203723D01*
X101098137Y-79264140D01*
X101032612Y-79503007D01*
X101810000Y-80280395D01*
X101824143Y-80266253D01*
X102003748Y-80445858D01*
X101989605Y-80460000D01*
X102766993Y-81237388D01*
X103005860Y-81171863D01*
X103080164Y-81013523D01*
X103122629Y-81116043D01*
X103274201Y-81342886D01*
X103467114Y-81535799D01*
X103693957Y-81687371D01*
X103946011Y-81791775D01*
X104213589Y-81845000D01*
X104486411Y-81845000D01*
X104753989Y-81791775D01*
X105006043Y-81687371D01*
X105232886Y-81535799D01*
X105425799Y-81342886D01*
X105577371Y-81116043D01*
X105620000Y-81013127D01*
X105662629Y-81116043D01*
X105814201Y-81342886D01*
X106007114Y-81535799D01*
X106233957Y-81687371D01*
X106486011Y-81791775D01*
X106753589Y-81845000D01*
X107026411Y-81845000D01*
X107293989Y-81791775D01*
X107546043Y-81687371D01*
X107772886Y-81535799D01*
X107965799Y-81342886D01*
X108117371Y-81116043D01*
X108221775Y-80863989D01*
X108275000Y-80596411D01*
X108275000Y-80323589D01*
X108221775Y-80056011D01*
X108117371Y-79803957D01*
X108088000Y-79760000D01*
X117072000Y-79760000D01*
X117042629Y-79803957D01*
X116938225Y-80056011D01*
X116885000Y-80323589D01*
X116885000Y-80596411D01*
X116938225Y-80863989D01*
X117042629Y-81116043D01*
X117194201Y-81342886D01*
X117387114Y-81535799D01*
X117501049Y-81611928D01*
X116250000Y-81611928D01*
X116125518Y-81624188D01*
X116005820Y-81660498D01*
X115895506Y-81719463D01*
X115798815Y-81798815D01*
X115719463Y-81895506D01*
X115660498Y-82005820D01*
X115624188Y-82125518D01*
X115611928Y-82250000D01*
X115611928Y-83750000D01*
X115624188Y-83874482D01*
X115660498Y-83994180D01*
X115719463Y-84104494D01*
X115798815Y-84201185D01*
X115895506Y-84280537D01*
X116005820Y-84339502D01*
X116125518Y-84375812D01*
X116250000Y-84388072D01*
X117750000Y-84388072D01*
X117874482Y-84375812D01*
X117994180Y-84339502D01*
X118104494Y-84280537D01*
X118201185Y-84201185D01*
X118280537Y-84104494D01*
X118339502Y-83994180D01*
X118350782Y-83956993D01*
X118762612Y-83956993D01*
X118828137Y-84195860D01*
X119075116Y-84311760D01*
X119339960Y-84377250D01*
X119612492Y-84389812D01*
X119882238Y-84348965D01*
X120138832Y-84256277D01*
X120251863Y-84195860D01*
X120317388Y-83956993D01*
X119540000Y-83179605D01*
X118762612Y-83956993D01*
X118350782Y-83956993D01*
X118375812Y-83874482D01*
X118388072Y-83750000D01*
X118388072Y-83723914D01*
X118583007Y-83777388D01*
X119360395Y-83000000D01*
X119719605Y-83000000D01*
X120496993Y-83777388D01*
X120735860Y-83711863D01*
X120810164Y-83553523D01*
X120852629Y-83656043D01*
X121004201Y-83882886D01*
X121197114Y-84075799D01*
X121423957Y-84227371D01*
X121676011Y-84331775D01*
X121943589Y-84385000D01*
X122216411Y-84385000D01*
X122483989Y-84331775D01*
X122736043Y-84227371D01*
X122962886Y-84075799D01*
X123155799Y-83882886D01*
X123307371Y-83656043D01*
X123350000Y-83553127D01*
X123392629Y-83656043D01*
X123544201Y-83882886D01*
X123737114Y-84075799D01*
X123963957Y-84227371D01*
X124216011Y-84331775D01*
X124483589Y-84385000D01*
X124756411Y-84385000D01*
X125023989Y-84331775D01*
X125276043Y-84227371D01*
X125502886Y-84075799D01*
X125695799Y-83882886D01*
X125847371Y-83656043D01*
X125951775Y-83403989D01*
X126002296Y-83150000D01*
X135511928Y-83150000D01*
X135515000Y-83714250D01*
X135673750Y-83873000D01*
X136873000Y-83873000D01*
X136873000Y-82673750D01*
X136714250Y-82515000D01*
X136150000Y-82511928D01*
X136025518Y-82524188D01*
X135905820Y-82560498D01*
X135795506Y-82619463D01*
X135698815Y-82698815D01*
X135619463Y-82795506D01*
X135560498Y-82905820D01*
X135524188Y-83025518D01*
X135511928Y-83150000D01*
X126002296Y-83150000D01*
X126005000Y-83136411D01*
X126005000Y-82863589D01*
X125951775Y-82596011D01*
X125847371Y-82343957D01*
X125695799Y-82117114D01*
X125502886Y-81924201D01*
X125276043Y-81772629D01*
X125023989Y-81668225D01*
X124756411Y-81615000D01*
X124483589Y-81615000D01*
X124216011Y-81668225D01*
X123963957Y-81772629D01*
X123737114Y-81924201D01*
X123544201Y-82117114D01*
X123392629Y-82343957D01*
X123350000Y-82446873D01*
X123307371Y-82343957D01*
X123155799Y-82117114D01*
X122962886Y-81924201D01*
X122736043Y-81772629D01*
X122483989Y-81668225D01*
X122216411Y-81615000D01*
X121943589Y-81615000D01*
X121676011Y-81668225D01*
X121423957Y-81772629D01*
X121197114Y-81924201D01*
X121004201Y-82117114D01*
X120852629Y-82343957D01*
X120811489Y-82443279D01*
X120796277Y-82401168D01*
X120735860Y-82288137D01*
X120496993Y-82222612D01*
X119719605Y-83000000D01*
X119360395Y-83000000D01*
X118583007Y-82222612D01*
X118388072Y-82276086D01*
X118388072Y-82250000D01*
X118375812Y-82125518D01*
X118350783Y-82043007D01*
X118762612Y-82043007D01*
X119540000Y-82820395D01*
X120317388Y-82043007D01*
X120251863Y-81804140D01*
X120004884Y-81688240D01*
X119740040Y-81622750D01*
X119467508Y-81610188D01*
X119197762Y-81651035D01*
X118941168Y-81743723D01*
X118828137Y-81804140D01*
X118762612Y-82043007D01*
X118350783Y-82043007D01*
X118339502Y-82005820D01*
X118280537Y-81895506D01*
X118239088Y-81845000D01*
X118406411Y-81845000D01*
X118673989Y-81791775D01*
X118926043Y-81687371D01*
X119152886Y-81535799D01*
X119271692Y-81416993D01*
X120032612Y-81416993D01*
X120098137Y-81655860D01*
X120345116Y-81771760D01*
X120609960Y-81837250D01*
X120882492Y-81849812D01*
X121152238Y-81808965D01*
X121408832Y-81716277D01*
X121521863Y-81655860D01*
X121587388Y-81416993D01*
X120810000Y-80639605D01*
X120032612Y-81416993D01*
X119271692Y-81416993D01*
X119345799Y-81342886D01*
X119497371Y-81116043D01*
X119538511Y-81016721D01*
X119553723Y-81058832D01*
X119614140Y-81171863D01*
X119853007Y-81237388D01*
X120630395Y-80460000D01*
X120616253Y-80445858D01*
X120795858Y-80266253D01*
X120810000Y-80280395D01*
X120824143Y-80266253D01*
X121003748Y-80445858D01*
X120989605Y-80460000D01*
X121766993Y-81237388D01*
X122005860Y-81171863D01*
X122080164Y-81013523D01*
X122122629Y-81116043D01*
X122274201Y-81342886D01*
X122467114Y-81535799D01*
X122693957Y-81687371D01*
X122946011Y-81791775D01*
X123213589Y-81845000D01*
X123486411Y-81845000D01*
X123753989Y-81791775D01*
X124006043Y-81687371D01*
X124232886Y-81535799D01*
X124425799Y-81342886D01*
X124577371Y-81116043D01*
X124620000Y-81013127D01*
X124662629Y-81116043D01*
X124814201Y-81342886D01*
X125007114Y-81535799D01*
X125233957Y-81687371D01*
X125486011Y-81791775D01*
X125753589Y-81845000D01*
X126026411Y-81845000D01*
X126293989Y-81791775D01*
X126546043Y-81687371D01*
X126772886Y-81535799D01*
X126965799Y-81342886D01*
X127117371Y-81116043D01*
X127221775Y-80863989D01*
X127275000Y-80596411D01*
X127275000Y-80323589D01*
X127221775Y-80056011D01*
X127117371Y-79803957D01*
X127088000Y-79760000D01*
X132269342Y-79760000D01*
X132276058Y-79765512D01*
X132427433Y-79846423D01*
X132591684Y-79896248D01*
X132762500Y-79913072D01*
X133237500Y-79913072D01*
X133408316Y-79896248D01*
X133572567Y-79846423D01*
X133723942Y-79765512D01*
X133856623Y-79656623D01*
X133965512Y-79523942D01*
X133972964Y-79510000D01*
X135869893Y-79510000D01*
X136053368Y-79693475D01*
X136296589Y-79855990D01*
X136566842Y-79967932D01*
X136853740Y-80025000D01*
X137146260Y-80025000D01*
X137433158Y-79967932D01*
X137703411Y-79855990D01*
X137946632Y-79693475D01*
X138153475Y-79486632D01*
X138315990Y-79243411D01*
X138340000Y-79185444D01*
X138340001Y-82746112D01*
X138301185Y-82698815D01*
X138204494Y-82619463D01*
X138094180Y-82560498D01*
X137974482Y-82524188D01*
X137850000Y-82511928D01*
X137285750Y-82515000D01*
X137127000Y-82673750D01*
X137127000Y-83873000D01*
X137147000Y-83873000D01*
X137147000Y-84127000D01*
X137127000Y-84127000D01*
X137127000Y-84147000D01*
X136873000Y-84147000D01*
X136873000Y-84127000D01*
X135673750Y-84127000D01*
X135515000Y-84285750D01*
X135511928Y-84850000D01*
X135524188Y-84974482D01*
X135560498Y-85094180D01*
X135619463Y-85204494D01*
X135698815Y-85301185D01*
X135795506Y-85380537D01*
X135905820Y-85439502D01*
X135978380Y-85461513D01*
X135846525Y-85593368D01*
X135684010Y-85836589D01*
X135572068Y-86106842D01*
X135570445Y-86115000D01*
X133972964Y-86115000D01*
X133965512Y-86101058D01*
X133945901Y-86077161D01*
X134005537Y-86004494D01*
X134064502Y-85894180D01*
X134100812Y-85774482D01*
X134113072Y-85650000D01*
X134110000Y-85410750D01*
X133951250Y-85252000D01*
X133127000Y-85252000D01*
X133127000Y-85272000D01*
X132873000Y-85272000D01*
X132873000Y-85252000D01*
X132048750Y-85252000D01*
X131890000Y-85410750D01*
X131886928Y-85650000D01*
X131899188Y-85774482D01*
X131935498Y-85894180D01*
X131986716Y-85990000D01*
X131953711Y-85990000D01*
X131909774Y-85946063D01*
X131740256Y-85832795D01*
X131551898Y-85754774D01*
X131351939Y-85715000D01*
X131148061Y-85715000D01*
X130948102Y-85754774D01*
X130759744Y-85832795D01*
X130590226Y-85946063D01*
X130446063Y-86090226D01*
X130332795Y-86259744D01*
X130254774Y-86448102D01*
X130215000Y-86648061D01*
X130215000Y-86851939D01*
X130254774Y-87051898D01*
X130332795Y-87240256D01*
X130446063Y-87409774D01*
X130590226Y-87553937D01*
X130759744Y-87667205D01*
X130948102Y-87745226D01*
X131148061Y-87785000D01*
X131351939Y-87785000D01*
X131551898Y-87745226D01*
X131740256Y-87667205D01*
X131909774Y-87553937D01*
X131953711Y-87510000D01*
X131960223Y-87510000D01*
X132034488Y-87648942D01*
X132143377Y-87781623D01*
X132276058Y-87890512D01*
X132427433Y-87971423D01*
X132591684Y-88021248D01*
X132762500Y-88038072D01*
X133237500Y-88038072D01*
X133408316Y-88021248D01*
X133572567Y-87971423D01*
X133723942Y-87890512D01*
X133856623Y-87781623D01*
X133965512Y-87648942D01*
X133972964Y-87635000D01*
X135994893Y-87635000D01*
X136053368Y-87693475D01*
X136296589Y-87855990D01*
X136566842Y-87967932D01*
X136853740Y-88025000D01*
X137146260Y-88025000D01*
X137433158Y-87967932D01*
X137703411Y-87855990D01*
X137946632Y-87693475D01*
X138153475Y-87486632D01*
X138315990Y-87243411D01*
X138340001Y-87185444D01*
X138340001Y-90746112D01*
X138301185Y-90698815D01*
X138204494Y-90619463D01*
X138094180Y-90560498D01*
X137974482Y-90524188D01*
X137850000Y-90511928D01*
X137285750Y-90515000D01*
X137127000Y-90673750D01*
X137127000Y-91873000D01*
X137147000Y-91873000D01*
X137147000Y-92127000D01*
X137127000Y-92127000D01*
X137127000Y-92147000D01*
X136873000Y-92147000D01*
X136873000Y-92127000D01*
X135673750Y-92127000D01*
X135515000Y-92285750D01*
X135511928Y-92850000D01*
X135524188Y-92974482D01*
X135560498Y-93094180D01*
X135619463Y-93204494D01*
X135698815Y-93301185D01*
X135795506Y-93380537D01*
X135905820Y-93439502D01*
X135978380Y-93461513D01*
X135846525Y-93593368D01*
X135684010Y-93836589D01*
X135572068Y-94106842D01*
X135570445Y-94115000D01*
X133972964Y-94115000D01*
X133965512Y-94101058D01*
X133945901Y-94077161D01*
X134005537Y-94004494D01*
X134064502Y-93894180D01*
X134100812Y-93774482D01*
X134113072Y-93650000D01*
X134110000Y-93410750D01*
X133951250Y-93252000D01*
X133127000Y-93252000D01*
X133127000Y-93272000D01*
X132873000Y-93272000D01*
X132873000Y-93252000D01*
X132048750Y-93252000D01*
X131890000Y-93410750D01*
X131886928Y-93650000D01*
X131899188Y-93774482D01*
X131935498Y-93894180D01*
X131994463Y-94004494D01*
X132054099Y-94077161D01*
X132034488Y-94101058D01*
X131960223Y-94240000D01*
X131953711Y-94240000D01*
X131909774Y-94196063D01*
X131740256Y-94082795D01*
X131551898Y-94004774D01*
X131351939Y-93965000D01*
X131148061Y-93965000D01*
X130948102Y-94004774D01*
X130759744Y-94082795D01*
X130590226Y-94196063D01*
X130446063Y-94340226D01*
X130332795Y-94509744D01*
X130254774Y-94698102D01*
X130215000Y-94898061D01*
X130215000Y-95101939D01*
X130254774Y-95301898D01*
X130332795Y-95490256D01*
X130446063Y-95659774D01*
X130590226Y-95803937D01*
X130759744Y-95917205D01*
X130948102Y-95995226D01*
X131148061Y-96035000D01*
X131351939Y-96035000D01*
X131551898Y-95995226D01*
X131740256Y-95917205D01*
X131909774Y-95803937D01*
X131953711Y-95760000D01*
X132125631Y-95760000D01*
X132143377Y-95781623D01*
X132276058Y-95890512D01*
X132427433Y-95971423D01*
X132591684Y-96021248D01*
X132762500Y-96038072D01*
X133237500Y-96038072D01*
X133408316Y-96021248D01*
X133572567Y-95971423D01*
X133723942Y-95890512D01*
X133856623Y-95781623D01*
X133965512Y-95648942D01*
X133972964Y-95635000D01*
X135994893Y-95635000D01*
X136053368Y-95693475D01*
X136296589Y-95855990D01*
X136566842Y-95967932D01*
X136853740Y-96025000D01*
X137146260Y-96025000D01*
X137433158Y-95967932D01*
X137703411Y-95855990D01*
X137946632Y-95693475D01*
X138153475Y-95486632D01*
X138315990Y-95243411D01*
X138340001Y-95185443D01*
X138340001Y-97090000D01*
X86660000Y-97090000D01*
X86660000Y-96185445D01*
X86684010Y-96243411D01*
X86846525Y-96486632D01*
X87053368Y-96693475D01*
X87296589Y-96855990D01*
X87566842Y-96967932D01*
X87853740Y-97025000D01*
X88146260Y-97025000D01*
X88433158Y-96967932D01*
X88703411Y-96855990D01*
X88946632Y-96693475D01*
X89153475Y-96486632D01*
X89315990Y-96243411D01*
X89427932Y-95973158D01*
X89485000Y-95686260D01*
X89485000Y-95393740D01*
X89427932Y-95106842D01*
X89315990Y-94836589D01*
X89153475Y-94593368D01*
X89021620Y-94461513D01*
X89094180Y-94439502D01*
X89204494Y-94380537D01*
X89301185Y-94301185D01*
X89380537Y-94204494D01*
X89439502Y-94094180D01*
X89475812Y-93974482D01*
X89488072Y-93850000D01*
X89485000Y-93285750D01*
X89326250Y-93127000D01*
X88127000Y-93127000D01*
X88127000Y-93147000D01*
X87873000Y-93147000D01*
X87873000Y-93127000D01*
X87853000Y-93127000D01*
X87853000Y-92873000D01*
X87873000Y-92873000D01*
X87873000Y-91673750D01*
X88127000Y-91673750D01*
X88127000Y-92873000D01*
X89326250Y-92873000D01*
X89485000Y-92714250D01*
X89485622Y-92600000D01*
X131886928Y-92600000D01*
X131890000Y-92839250D01*
X132048750Y-92998000D01*
X132873000Y-92998000D01*
X132873000Y-92123750D01*
X133127000Y-92123750D01*
X133127000Y-92998000D01*
X133951250Y-92998000D01*
X134110000Y-92839250D01*
X134113072Y-92600000D01*
X134100812Y-92475518D01*
X134064502Y-92355820D01*
X134005537Y-92245506D01*
X133926185Y-92148815D01*
X133829494Y-92069463D01*
X133719180Y-92010498D01*
X133599482Y-91974188D01*
X133475000Y-91961928D01*
X133285750Y-91965000D01*
X133127000Y-92123750D01*
X132873000Y-92123750D01*
X132714250Y-91965000D01*
X132525000Y-91961928D01*
X132400518Y-91974188D01*
X132280820Y-92010498D01*
X132170506Y-92069463D01*
X132073815Y-92148815D01*
X131994463Y-92245506D01*
X131935498Y-92355820D01*
X131899188Y-92475518D01*
X131886928Y-92600000D01*
X89485622Y-92600000D01*
X89488072Y-92150000D01*
X89475812Y-92025518D01*
X89439502Y-91905820D01*
X89380537Y-91795506D01*
X89301185Y-91698815D01*
X89204494Y-91619463D01*
X89094180Y-91560498D01*
X88974482Y-91524188D01*
X88850000Y-91511928D01*
X88285750Y-91515000D01*
X88127000Y-91673750D01*
X87873000Y-91673750D01*
X87714250Y-91515000D01*
X87150000Y-91511928D01*
X87025518Y-91524188D01*
X86905820Y-91560498D01*
X86795506Y-91619463D01*
X86698815Y-91698815D01*
X86660000Y-91746111D01*
X86660000Y-88645445D01*
X86684010Y-88703411D01*
X86846525Y-88946632D01*
X87053368Y-89153475D01*
X87296589Y-89315990D01*
X87566842Y-89427932D01*
X87853740Y-89485000D01*
X88146260Y-89485000D01*
X88433158Y-89427932D01*
X88703411Y-89315990D01*
X88946632Y-89153475D01*
X88970235Y-89129872D01*
X94495000Y-89129872D01*
X94495000Y-89570128D01*
X94580890Y-90001925D01*
X94749369Y-90408669D01*
X94993962Y-90774729D01*
X95305271Y-91086038D01*
X95671331Y-91330631D01*
X96078075Y-91499110D01*
X96509872Y-91585000D01*
X96950128Y-91585000D01*
X97381925Y-91499110D01*
X97788669Y-91330631D01*
X98154729Y-91086038D01*
X98466038Y-90774729D01*
X98710631Y-90408669D01*
X98879110Y-90001925D01*
X98965000Y-89570128D01*
X98965000Y-89129872D01*
X105925000Y-89129872D01*
X105925000Y-89570128D01*
X106010890Y-90001925D01*
X106179369Y-90408669D01*
X106423962Y-90774729D01*
X106735271Y-91086038D01*
X107101331Y-91330631D01*
X107508075Y-91499110D01*
X107939872Y-91585000D01*
X108380128Y-91585000D01*
X108811925Y-91499110D01*
X109218669Y-91330631D01*
X109584729Y-91086038D01*
X109896038Y-90774729D01*
X110140631Y-90408669D01*
X110309110Y-90001925D01*
X110395000Y-89570128D01*
X110395000Y-89129872D01*
X113495000Y-89129872D01*
X113495000Y-89570128D01*
X113580890Y-90001925D01*
X113749369Y-90408669D01*
X113993962Y-90774729D01*
X114305271Y-91086038D01*
X114671331Y-91330631D01*
X115078075Y-91499110D01*
X115509872Y-91585000D01*
X115950128Y-91585000D01*
X116381925Y-91499110D01*
X116788669Y-91330631D01*
X117154729Y-91086038D01*
X117466038Y-90774729D01*
X117710631Y-90408669D01*
X117879110Y-90001925D01*
X117965000Y-89570128D01*
X117965000Y-89129872D01*
X124925000Y-89129872D01*
X124925000Y-89570128D01*
X125010890Y-90001925D01*
X125179369Y-90408669D01*
X125423962Y-90774729D01*
X125735271Y-91086038D01*
X126101331Y-91330631D01*
X126508075Y-91499110D01*
X126939872Y-91585000D01*
X127380128Y-91585000D01*
X127811925Y-91499110D01*
X128218669Y-91330631D01*
X128489002Y-91150000D01*
X135511928Y-91150000D01*
X135515000Y-91714250D01*
X135673750Y-91873000D01*
X136873000Y-91873000D01*
X136873000Y-90673750D01*
X136714250Y-90515000D01*
X136150000Y-90511928D01*
X136025518Y-90524188D01*
X135905820Y-90560498D01*
X135795506Y-90619463D01*
X135698815Y-90698815D01*
X135619463Y-90795506D01*
X135560498Y-90905820D01*
X135524188Y-91025518D01*
X135511928Y-91150000D01*
X128489002Y-91150000D01*
X128584729Y-91086038D01*
X128896038Y-90774729D01*
X129140631Y-90408669D01*
X129309110Y-90001925D01*
X129395000Y-89570128D01*
X129395000Y-89129872D01*
X129309110Y-88698075D01*
X129140631Y-88291331D01*
X128896038Y-87925271D01*
X128584729Y-87613962D01*
X128218669Y-87369369D01*
X127811925Y-87200890D01*
X127380128Y-87115000D01*
X126939872Y-87115000D01*
X126508075Y-87200890D01*
X126101331Y-87369369D01*
X125735271Y-87613962D01*
X125423962Y-87925271D01*
X125179369Y-88291331D01*
X125010890Y-88698075D01*
X124925000Y-89129872D01*
X117965000Y-89129872D01*
X117879110Y-88698075D01*
X117710631Y-88291331D01*
X117466038Y-87925271D01*
X117154729Y-87613962D01*
X116788669Y-87369369D01*
X116381925Y-87200890D01*
X115950128Y-87115000D01*
X115509872Y-87115000D01*
X115078075Y-87200890D01*
X114671331Y-87369369D01*
X114305271Y-87613962D01*
X113993962Y-87925271D01*
X113749369Y-88291331D01*
X113580890Y-88698075D01*
X113495000Y-89129872D01*
X110395000Y-89129872D01*
X110309110Y-88698075D01*
X110140631Y-88291331D01*
X109896038Y-87925271D01*
X109584729Y-87613962D01*
X109218669Y-87369369D01*
X108811925Y-87200890D01*
X108380128Y-87115000D01*
X107939872Y-87115000D01*
X107508075Y-87200890D01*
X107101331Y-87369369D01*
X106735271Y-87613962D01*
X106423962Y-87925271D01*
X106179369Y-88291331D01*
X106010890Y-88698075D01*
X105925000Y-89129872D01*
X98965000Y-89129872D01*
X98879110Y-88698075D01*
X98710631Y-88291331D01*
X98466038Y-87925271D01*
X98154729Y-87613962D01*
X97788669Y-87369369D01*
X97381925Y-87200890D01*
X96950128Y-87115000D01*
X96509872Y-87115000D01*
X96078075Y-87200890D01*
X95671331Y-87369369D01*
X95305271Y-87613962D01*
X94993962Y-87925271D01*
X94749369Y-88291331D01*
X94580890Y-88698075D01*
X94495000Y-89129872D01*
X88970235Y-89129872D01*
X89153475Y-88946632D01*
X89315990Y-88703411D01*
X89427932Y-88433158D01*
X89485000Y-88146260D01*
X89485000Y-87853740D01*
X89427932Y-87566842D01*
X89315990Y-87296589D01*
X89153475Y-87053368D01*
X89021620Y-86921513D01*
X89094180Y-86899502D01*
X89204494Y-86840537D01*
X89301185Y-86761185D01*
X89380537Y-86664494D01*
X89439502Y-86554180D01*
X89475812Y-86434482D01*
X89488072Y-86310000D01*
X89485000Y-85745750D01*
X89326250Y-85587000D01*
X88127000Y-85587000D01*
X88127000Y-85607000D01*
X87873000Y-85607000D01*
X87873000Y-85587000D01*
X87853000Y-85587000D01*
X87853000Y-85333000D01*
X87873000Y-85333000D01*
X87873000Y-84133750D01*
X88127000Y-84133750D01*
X88127000Y-85333000D01*
X89326250Y-85333000D01*
X89485000Y-85174250D01*
X89488072Y-84610000D01*
X89487088Y-84600000D01*
X131886928Y-84600000D01*
X131890000Y-84839250D01*
X132048750Y-84998000D01*
X132873000Y-84998000D01*
X132873000Y-84123750D01*
X133127000Y-84123750D01*
X133127000Y-84998000D01*
X133951250Y-84998000D01*
X134110000Y-84839250D01*
X134113072Y-84600000D01*
X134100812Y-84475518D01*
X134064502Y-84355820D01*
X134005537Y-84245506D01*
X133926185Y-84148815D01*
X133829494Y-84069463D01*
X133719180Y-84010498D01*
X133599482Y-83974188D01*
X133475000Y-83961928D01*
X133285750Y-83965000D01*
X133127000Y-84123750D01*
X132873000Y-84123750D01*
X132714250Y-83965000D01*
X132525000Y-83961928D01*
X132400518Y-83974188D01*
X132280820Y-84010498D01*
X132170506Y-84069463D01*
X132073815Y-84148815D01*
X131994463Y-84245506D01*
X131935498Y-84355820D01*
X131899188Y-84475518D01*
X131886928Y-84600000D01*
X89487088Y-84600000D01*
X89475812Y-84485518D01*
X89439502Y-84365820D01*
X89380537Y-84255506D01*
X89301185Y-84158815D01*
X89204494Y-84079463D01*
X89094180Y-84020498D01*
X88974482Y-83984188D01*
X88850000Y-83971928D01*
X88285750Y-83975000D01*
X88127000Y-84133750D01*
X87873000Y-84133750D01*
X87714250Y-83975000D01*
X87150000Y-83971928D01*
X87025518Y-83984188D01*
X86905820Y-84020498D01*
X86795506Y-84079463D01*
X86698815Y-84158815D01*
X86660000Y-84206111D01*
X86660000Y-82250000D01*
X96611928Y-82250000D01*
X96611928Y-83750000D01*
X96624188Y-83874482D01*
X96660498Y-83994180D01*
X96719463Y-84104494D01*
X96798815Y-84201185D01*
X96895506Y-84280537D01*
X97005820Y-84339502D01*
X97125518Y-84375812D01*
X97250000Y-84388072D01*
X98750000Y-84388072D01*
X98874482Y-84375812D01*
X98994180Y-84339502D01*
X99104494Y-84280537D01*
X99201185Y-84201185D01*
X99280537Y-84104494D01*
X99339502Y-83994180D01*
X99350782Y-83956993D01*
X99762612Y-83956993D01*
X99828137Y-84195860D01*
X100075116Y-84311760D01*
X100339960Y-84377250D01*
X100612492Y-84389812D01*
X100882238Y-84348965D01*
X101138832Y-84256277D01*
X101251863Y-84195860D01*
X101317388Y-83956993D01*
X100540000Y-83179605D01*
X99762612Y-83956993D01*
X99350782Y-83956993D01*
X99375812Y-83874482D01*
X99388072Y-83750000D01*
X99388072Y-83723914D01*
X99583007Y-83777388D01*
X100360395Y-83000000D01*
X100719605Y-83000000D01*
X101496993Y-83777388D01*
X101735860Y-83711863D01*
X101810164Y-83553523D01*
X101852629Y-83656043D01*
X102004201Y-83882886D01*
X102197114Y-84075799D01*
X102423957Y-84227371D01*
X102676011Y-84331775D01*
X102943589Y-84385000D01*
X103216411Y-84385000D01*
X103483989Y-84331775D01*
X103736043Y-84227371D01*
X103962886Y-84075799D01*
X104155799Y-83882886D01*
X104307371Y-83656043D01*
X104350000Y-83553127D01*
X104392629Y-83656043D01*
X104544201Y-83882886D01*
X104737114Y-84075799D01*
X104963957Y-84227371D01*
X105216011Y-84331775D01*
X105483589Y-84385000D01*
X105756411Y-84385000D01*
X106023989Y-84331775D01*
X106276043Y-84227371D01*
X106502886Y-84075799D01*
X106695799Y-83882886D01*
X106847371Y-83656043D01*
X106951775Y-83403989D01*
X107005000Y-83136411D01*
X107005000Y-82863589D01*
X106951775Y-82596011D01*
X106847371Y-82343957D01*
X106695799Y-82117114D01*
X106502886Y-81924201D01*
X106276043Y-81772629D01*
X106023989Y-81668225D01*
X105756411Y-81615000D01*
X105483589Y-81615000D01*
X105216011Y-81668225D01*
X104963957Y-81772629D01*
X104737114Y-81924201D01*
X104544201Y-82117114D01*
X104392629Y-82343957D01*
X104350000Y-82446873D01*
X104307371Y-82343957D01*
X104155799Y-82117114D01*
X103962886Y-81924201D01*
X103736043Y-81772629D01*
X103483989Y-81668225D01*
X103216411Y-81615000D01*
X102943589Y-81615000D01*
X102676011Y-81668225D01*
X102423957Y-81772629D01*
X102197114Y-81924201D01*
X102004201Y-82117114D01*
X101852629Y-82343957D01*
X101811489Y-82443279D01*
X101796277Y-82401168D01*
X101735860Y-82288137D01*
X101496993Y-82222612D01*
X100719605Y-83000000D01*
X100360395Y-83000000D01*
X99583007Y-82222612D01*
X99388072Y-82276086D01*
X99388072Y-82250000D01*
X99375812Y-82125518D01*
X99350783Y-82043007D01*
X99762612Y-82043007D01*
X100540000Y-82820395D01*
X101317388Y-82043007D01*
X101251863Y-81804140D01*
X101004884Y-81688240D01*
X100740040Y-81622750D01*
X100467508Y-81610188D01*
X100197762Y-81651035D01*
X99941168Y-81743723D01*
X99828137Y-81804140D01*
X99762612Y-82043007D01*
X99350783Y-82043007D01*
X99339502Y-82005820D01*
X99280537Y-81895506D01*
X99239088Y-81845000D01*
X99406411Y-81845000D01*
X99673989Y-81791775D01*
X99926043Y-81687371D01*
X100152886Y-81535799D01*
X100271692Y-81416993D01*
X101032612Y-81416993D01*
X101098137Y-81655860D01*
X101345116Y-81771760D01*
X101609960Y-81837250D01*
X101882492Y-81849812D01*
X102152238Y-81808965D01*
X102408832Y-81716277D01*
X102521863Y-81655860D01*
X102587388Y-81416993D01*
X101810000Y-80639605D01*
X101032612Y-81416993D01*
X100271692Y-81416993D01*
X100345799Y-81342886D01*
X100497371Y-81116043D01*
X100538511Y-81016721D01*
X100553723Y-81058832D01*
X100614140Y-81171863D01*
X100853007Y-81237388D01*
X101630395Y-80460000D01*
X100853007Y-79682612D01*
X100614140Y-79748137D01*
X100539836Y-79906477D01*
X100497371Y-79803957D01*
X100345799Y-79577114D01*
X100152886Y-79384201D01*
X99926043Y-79232629D01*
X99673989Y-79128225D01*
X99406411Y-79075000D01*
X99133589Y-79075000D01*
X98866011Y-79128225D01*
X98613957Y-79232629D01*
X98387114Y-79384201D01*
X98194201Y-79577114D01*
X98042629Y-79803957D01*
X97938225Y-80056011D01*
X97885000Y-80323589D01*
X97885000Y-80596411D01*
X97938225Y-80863989D01*
X98042629Y-81116043D01*
X98194201Y-81342886D01*
X98387114Y-81535799D01*
X98501049Y-81611928D01*
X97250000Y-81611928D01*
X97125518Y-81624188D01*
X97005820Y-81660498D01*
X96895506Y-81719463D01*
X96798815Y-81798815D01*
X96719463Y-81895506D01*
X96660498Y-82005820D01*
X96624188Y-82125518D01*
X96611928Y-82250000D01*
X86660000Y-82250000D01*
X86660000Y-81185445D01*
X86684010Y-81243411D01*
X86846525Y-81486632D01*
X87053368Y-81693475D01*
X87296589Y-81855990D01*
X87566842Y-81967932D01*
X87853740Y-82025000D01*
X88146260Y-82025000D01*
X88433158Y-81967932D01*
X88703411Y-81855990D01*
X88946632Y-81693475D01*
X89153475Y-81486632D01*
X89315990Y-81243411D01*
X89427932Y-80973158D01*
X89485000Y-80686260D01*
X89485000Y-80393740D01*
X89441209Y-80173592D01*
X90599518Y-79015283D01*
X90696063Y-79159774D01*
X90840226Y-79303937D01*
X91009744Y-79417205D01*
X91198102Y-79495226D01*
X91398061Y-79535000D01*
X91601939Y-79535000D01*
X91801898Y-79495226D01*
X91990256Y-79417205D01*
X92159774Y-79303937D01*
X92303937Y-79159774D01*
X92417205Y-78990256D01*
X92495226Y-78801898D01*
X92535000Y-78601939D01*
X92535000Y-78539801D01*
X94494813Y-76579990D01*
X108065760Y-76579990D01*
X107915000Y-76730750D01*
X107911928Y-76745000D01*
X107924188Y-76869482D01*
X107960498Y-76989180D01*
X108019463Y-77099494D01*
X108098815Y-77196185D01*
X108195506Y-77275537D01*
X108305820Y-77334502D01*
X108425518Y-77370812D01*
X108550000Y-77383072D01*
X109239250Y-77380000D01*
X109398000Y-77221250D01*
X109398000Y-76579990D01*
X109652000Y-76579990D01*
X109652000Y-77221250D01*
X109810750Y-77380000D01*
X110500000Y-77383072D01*
X110624482Y-77370812D01*
X110744180Y-77334502D01*
X110854494Y-77275537D01*
X110951185Y-77196185D01*
X111030537Y-77099494D01*
X111089502Y-76989180D01*
X111125812Y-76869482D01*
X111138072Y-76745000D01*
X111135000Y-76730750D01*
X110984240Y-76579990D01*
X112861928Y-76579990D01*
X112861928Y-76595000D01*
X112877071Y-76748745D01*
X112921916Y-76896582D01*
X112994742Y-77032829D01*
X113092749Y-77152251D01*
X113212171Y-77250258D01*
X113348418Y-77323084D01*
X113496255Y-77367929D01*
X113650000Y-77383072D01*
X115300000Y-77383072D01*
X115453745Y-77367929D01*
X115601582Y-77323084D01*
X115737829Y-77250258D01*
X115857251Y-77152251D01*
X115955258Y-77032829D01*
X116028084Y-76896582D01*
X116072929Y-76748745D01*
X116088072Y-76595000D01*
X116088072Y-76475000D01*
X131886928Y-76475000D01*
X131890000Y-76714250D01*
X132048750Y-76873000D01*
X132873000Y-76873000D01*
X132873000Y-75998750D01*
X133127000Y-75998750D01*
X133127000Y-76873000D01*
X133951250Y-76873000D01*
X134110000Y-76714250D01*
X134113072Y-76475000D01*
X134100812Y-76350518D01*
X134064502Y-76230820D01*
X134005537Y-76120506D01*
X133926185Y-76023815D01*
X133829494Y-75944463D01*
X133719180Y-75885498D01*
X133599482Y-75849188D01*
X133475000Y-75836928D01*
X133285750Y-75840000D01*
X133127000Y-75998750D01*
X132873000Y-75998750D01*
X132714250Y-75840000D01*
X132525000Y-75836928D01*
X132400518Y-75849188D01*
X132280820Y-75885498D01*
X132170506Y-75944463D01*
X132073815Y-76023815D01*
X131994463Y-76120506D01*
X131935498Y-76230820D01*
X131899188Y-76350518D01*
X131886928Y-76475000D01*
X116088072Y-76475000D01*
X116088072Y-76295000D01*
X116072929Y-76141255D01*
X116028084Y-75993418D01*
X116026220Y-75989931D01*
X116090226Y-76053937D01*
X116259744Y-76167205D01*
X116448102Y-76245226D01*
X116648061Y-76285000D01*
X116851939Y-76285000D01*
X117051898Y-76245226D01*
X117240256Y-76167205D01*
X117409774Y-76053937D01*
X117553937Y-75909774D01*
X117667205Y-75740256D01*
X117745226Y-75551898D01*
X117785000Y-75351939D01*
X117785000Y-75150000D01*
X135511928Y-75150000D01*
X135515000Y-75714250D01*
X135673750Y-75873000D01*
X136873000Y-75873000D01*
X136873000Y-74673750D01*
X136714250Y-74515000D01*
X136150000Y-74511928D01*
X136025518Y-74524188D01*
X135905820Y-74560498D01*
X135795506Y-74619463D01*
X135698815Y-74698815D01*
X135619463Y-74795506D01*
X135560498Y-74905820D01*
X135524188Y-75025518D01*
X135511928Y-75150000D01*
X117785000Y-75150000D01*
X117785000Y-75148061D01*
X117745226Y-74948102D01*
X117721974Y-74891968D01*
X117759744Y-74917205D01*
X117948102Y-74995226D01*
X118148061Y-75035000D01*
X118351939Y-75035000D01*
X118551898Y-74995226D01*
X118740256Y-74917205D01*
X118909774Y-74803937D01*
X119053937Y-74659774D01*
X119167205Y-74490256D01*
X119245226Y-74301898D01*
X119285000Y-74101939D01*
X119285000Y-73898061D01*
X119245226Y-73698102D01*
X119167205Y-73509744D01*
X119053937Y-73340226D01*
X118909774Y-73196063D01*
X118740256Y-73082795D01*
X118551898Y-73004774D01*
X118351939Y-72965000D01*
X118148061Y-72965000D01*
X117948102Y-73004774D01*
X117759744Y-73082795D01*
X117590226Y-73196063D01*
X117546289Y-73240000D01*
X117121424Y-73240000D01*
X117045569Y-73199454D01*
X116902308Y-73155997D01*
X116790655Y-73145000D01*
X116790644Y-73145000D01*
X116753322Y-73141324D01*
X116716000Y-73145000D01*
X115996859Y-73145000D01*
X116028084Y-73086582D01*
X116072929Y-72938745D01*
X116088072Y-72785000D01*
X116088072Y-72760000D01*
X132237678Y-72760000D01*
X132275000Y-72763676D01*
X132312322Y-72760000D01*
X132312333Y-72760000D01*
X132423986Y-72749003D01*
X132567247Y-72705546D01*
X132699276Y-72634974D01*
X132815001Y-72540001D01*
X132838803Y-72510998D01*
X133473252Y-71876550D01*
X133572567Y-71846423D01*
X133723942Y-71765512D01*
X133856623Y-71656623D01*
X133965512Y-71523942D01*
X133972964Y-71510000D01*
X135869893Y-71510000D01*
X136053368Y-71693475D01*
X136296589Y-71855990D01*
X136566842Y-71967932D01*
X136853740Y-72025000D01*
X137146260Y-72025000D01*
X137433158Y-71967932D01*
X137703411Y-71855990D01*
X137946632Y-71693475D01*
X138153475Y-71486632D01*
X138315990Y-71243411D01*
X138340000Y-71185445D01*
X138340000Y-74746112D01*
G37*
X138340000Y-74746112D02*
X138301185Y-74698815D01*
X138204494Y-74619463D01*
X138094180Y-74560498D01*
X137974482Y-74524188D01*
X137850000Y-74511928D01*
X137285750Y-74515000D01*
X137127000Y-74673750D01*
X137127000Y-75873000D01*
X137147000Y-75873000D01*
X137147000Y-76127000D01*
X137127000Y-76127000D01*
X137127000Y-76147000D01*
X136873000Y-76147000D01*
X136873000Y-76127000D01*
X135673750Y-76127000D01*
X135515000Y-76285750D01*
X135511928Y-76850000D01*
X135524188Y-76974482D01*
X135560498Y-77094180D01*
X135619463Y-77204494D01*
X135698815Y-77301185D01*
X135795506Y-77380537D01*
X135905820Y-77439502D01*
X135978380Y-77461513D01*
X135846525Y-77593368D01*
X135684010Y-77836589D01*
X135620465Y-77990000D01*
X133972964Y-77990000D01*
X133965512Y-77976058D01*
X133945901Y-77952161D01*
X134005537Y-77879494D01*
X134064502Y-77769180D01*
X134100812Y-77649482D01*
X134113072Y-77525000D01*
X134110000Y-77285750D01*
X133951250Y-77127000D01*
X133127000Y-77127000D01*
X133127000Y-77147000D01*
X132873000Y-77147000D01*
X132873000Y-77127000D01*
X132048750Y-77127000D01*
X131890000Y-77285750D01*
X131886928Y-77525000D01*
X131899188Y-77649482D01*
X131935498Y-77769180D01*
X131994463Y-77879494D01*
X132054099Y-77952161D01*
X132034488Y-77976058D01*
X131953577Y-78127433D01*
X131919430Y-78240000D01*
X103953711Y-78240000D01*
X103909774Y-78196063D01*
X103740256Y-78082795D01*
X103551898Y-78004774D01*
X103351939Y-77965000D01*
X103148061Y-77965000D01*
X102948102Y-78004774D01*
X102759744Y-78082795D01*
X102590226Y-78196063D01*
X102446063Y-78340226D01*
X102332795Y-78509744D01*
X102254774Y-78698102D01*
X102215000Y-78898061D01*
X102215000Y-79101939D01*
X102221588Y-79135061D01*
X102010040Y-79082750D01*
X101737508Y-79070188D01*
X101467762Y-79111035D01*
X101211168Y-79203723D01*
X101098137Y-79264140D01*
X101032612Y-79503007D01*
X101810000Y-80280395D01*
X101824143Y-80266253D01*
X102003748Y-80445858D01*
X101989605Y-80460000D01*
X102766993Y-81237388D01*
X103005860Y-81171863D01*
X103080164Y-81013523D01*
X103122629Y-81116043D01*
X103274201Y-81342886D01*
X103467114Y-81535799D01*
X103693957Y-81687371D01*
X103946011Y-81791775D01*
X104213589Y-81845000D01*
X104486411Y-81845000D01*
X104753989Y-81791775D01*
X105006043Y-81687371D01*
X105232886Y-81535799D01*
X105425799Y-81342886D01*
X105577371Y-81116043D01*
X105620000Y-81013127D01*
X105662629Y-81116043D01*
X105814201Y-81342886D01*
X106007114Y-81535799D01*
X106233957Y-81687371D01*
X106486011Y-81791775D01*
X106753589Y-81845000D01*
X107026411Y-81845000D01*
X107293989Y-81791775D01*
X107546043Y-81687371D01*
X107772886Y-81535799D01*
X107965799Y-81342886D01*
X108117371Y-81116043D01*
X108221775Y-80863989D01*
X108275000Y-80596411D01*
X108275000Y-80323589D01*
X108221775Y-80056011D01*
X108117371Y-79803957D01*
X108088000Y-79760000D01*
X117072000Y-79760000D01*
X117042629Y-79803957D01*
X116938225Y-80056011D01*
X116885000Y-80323589D01*
X116885000Y-80596411D01*
X116938225Y-80863989D01*
X117042629Y-81116043D01*
X117194201Y-81342886D01*
X117387114Y-81535799D01*
X117501049Y-81611928D01*
X116250000Y-81611928D01*
X116125518Y-81624188D01*
X116005820Y-81660498D01*
X115895506Y-81719463D01*
X115798815Y-81798815D01*
X115719463Y-81895506D01*
X115660498Y-82005820D01*
X115624188Y-82125518D01*
X115611928Y-82250000D01*
X115611928Y-83750000D01*
X115624188Y-83874482D01*
X115660498Y-83994180D01*
X115719463Y-84104494D01*
X115798815Y-84201185D01*
X115895506Y-84280537D01*
X116005820Y-84339502D01*
X116125518Y-84375812D01*
X116250000Y-84388072D01*
X117750000Y-84388072D01*
X117874482Y-84375812D01*
X117994180Y-84339502D01*
X118104494Y-84280537D01*
X118201185Y-84201185D01*
X118280537Y-84104494D01*
X118339502Y-83994180D01*
X118350782Y-83956993D01*
X118762612Y-83956993D01*
X118828137Y-84195860D01*
X119075116Y-84311760D01*
X119339960Y-84377250D01*
X119612492Y-84389812D01*
X119882238Y-84348965D01*
X120138832Y-84256277D01*
X120251863Y-84195860D01*
X120317388Y-83956993D01*
X119540000Y-83179605D01*
X118762612Y-83956993D01*
X118350782Y-83956993D01*
X118375812Y-83874482D01*
X118388072Y-83750000D01*
X118388072Y-83723914D01*
X118583007Y-83777388D01*
X119360395Y-83000000D01*
X119719605Y-83000000D01*
X120496993Y-83777388D01*
X120735860Y-83711863D01*
X120810164Y-83553523D01*
X120852629Y-83656043D01*
X121004201Y-83882886D01*
X121197114Y-84075799D01*
X121423957Y-84227371D01*
X121676011Y-84331775D01*
X121943589Y-84385000D01*
X122216411Y-84385000D01*
X122483989Y-84331775D01*
X122736043Y-84227371D01*
X122962886Y-84075799D01*
X123155799Y-83882886D01*
X123307371Y-83656043D01*
X123350000Y-83553127D01*
X123392629Y-83656043D01*
X123544201Y-83882886D01*
X123737114Y-84075799D01*
X123963957Y-84227371D01*
X124216011Y-84331775D01*
X124483589Y-84385000D01*
X124756411Y-84385000D01*
X125023989Y-84331775D01*
X125276043Y-84227371D01*
X125502886Y-84075799D01*
X125695799Y-83882886D01*
X125847371Y-83656043D01*
X125951775Y-83403989D01*
X126002296Y-83150000D01*
X135511928Y-83150000D01*
X135515000Y-83714250D01*
X135673750Y-83873000D01*
X136873000Y-83873000D01*
X136873000Y-82673750D01*
X136714250Y-82515000D01*
X136150000Y-82511928D01*
X136025518Y-82524188D01*
X135905820Y-82560498D01*
X135795506Y-82619463D01*
X135698815Y-82698815D01*
X135619463Y-82795506D01*
X135560498Y-82905820D01*
X135524188Y-83025518D01*
X135511928Y-83150000D01*
X126002296Y-83150000D01*
X126005000Y-83136411D01*
X126005000Y-82863589D01*
X125951775Y-82596011D01*
X125847371Y-82343957D01*
X125695799Y-82117114D01*
X125502886Y-81924201D01*
X125276043Y-81772629D01*
X125023989Y-81668225D01*
X124756411Y-81615000D01*
X124483589Y-81615000D01*
X124216011Y-81668225D01*
X123963957Y-81772629D01*
X123737114Y-81924201D01*
X123544201Y-82117114D01*
X123392629Y-82343957D01*
X123350000Y-82446873D01*
X123307371Y-82343957D01*
X123155799Y-82117114D01*
X122962886Y-81924201D01*
X122736043Y-81772629D01*
X122483989Y-81668225D01*
X122216411Y-81615000D01*
X121943589Y-81615000D01*
X121676011Y-81668225D01*
X121423957Y-81772629D01*
X121197114Y-81924201D01*
X121004201Y-82117114D01*
X120852629Y-82343957D01*
X120811489Y-82443279D01*
X120796277Y-82401168D01*
X120735860Y-82288137D01*
X120496993Y-82222612D01*
X119719605Y-83000000D01*
X119360395Y-83000000D01*
X118583007Y-82222612D01*
X118388072Y-82276086D01*
X118388072Y-82250000D01*
X118375812Y-82125518D01*
X118350783Y-82043007D01*
X118762612Y-82043007D01*
X119540000Y-82820395D01*
X120317388Y-82043007D01*
X120251863Y-81804140D01*
X120004884Y-81688240D01*
X119740040Y-81622750D01*
X119467508Y-81610188D01*
X119197762Y-81651035D01*
X118941168Y-81743723D01*
X118828137Y-81804140D01*
X118762612Y-82043007D01*
X118350783Y-82043007D01*
X118339502Y-82005820D01*
X118280537Y-81895506D01*
X118239088Y-81845000D01*
X118406411Y-81845000D01*
X118673989Y-81791775D01*
X118926043Y-81687371D01*
X119152886Y-81535799D01*
X119271692Y-81416993D01*
X120032612Y-81416993D01*
X120098137Y-81655860D01*
X120345116Y-81771760D01*
X120609960Y-81837250D01*
X120882492Y-81849812D01*
X121152238Y-81808965D01*
X121408832Y-81716277D01*
X121521863Y-81655860D01*
X121587388Y-81416993D01*
X120810000Y-80639605D01*
X120032612Y-81416993D01*
X119271692Y-81416993D01*
X119345799Y-81342886D01*
X119497371Y-81116043D01*
X119538511Y-81016721D01*
X119553723Y-81058832D01*
X119614140Y-81171863D01*
X119853007Y-81237388D01*
X120630395Y-80460000D01*
X120616253Y-80445858D01*
X120795858Y-80266253D01*
X120810000Y-80280395D01*
X120824143Y-80266253D01*
X121003748Y-80445858D01*
X120989605Y-80460000D01*
X121766993Y-81237388D01*
X122005860Y-81171863D01*
X122080164Y-81013523D01*
X122122629Y-81116043D01*
X122274201Y-81342886D01*
X122467114Y-81535799D01*
X122693957Y-81687371D01*
X122946011Y-81791775D01*
X123213589Y-81845000D01*
X123486411Y-81845000D01*
X123753989Y-81791775D01*
X124006043Y-81687371D01*
X124232886Y-81535799D01*
X124425799Y-81342886D01*
X124577371Y-81116043D01*
X124620000Y-81013127D01*
X124662629Y-81116043D01*
X124814201Y-81342886D01*
X125007114Y-81535799D01*
X125233957Y-81687371D01*
X125486011Y-81791775D01*
X125753589Y-81845000D01*
X126026411Y-81845000D01*
X126293989Y-81791775D01*
X126546043Y-81687371D01*
X126772886Y-81535799D01*
X126965799Y-81342886D01*
X127117371Y-81116043D01*
X127221775Y-80863989D01*
X127275000Y-80596411D01*
X127275000Y-80323589D01*
X127221775Y-80056011D01*
X127117371Y-79803957D01*
X127088000Y-79760000D01*
X132269342Y-79760000D01*
X132276058Y-79765512D01*
X132427433Y-79846423D01*
X132591684Y-79896248D01*
X132762500Y-79913072D01*
X133237500Y-79913072D01*
X133408316Y-79896248D01*
X133572567Y-79846423D01*
X133723942Y-79765512D01*
X133856623Y-79656623D01*
X133965512Y-79523942D01*
X133972964Y-79510000D01*
X135869893Y-79510000D01*
X136053368Y-79693475D01*
X136296589Y-79855990D01*
X136566842Y-79967932D01*
X136853740Y-80025000D01*
X137146260Y-80025000D01*
X137433158Y-79967932D01*
X137703411Y-79855990D01*
X137946632Y-79693475D01*
X138153475Y-79486632D01*
X138315990Y-79243411D01*
X138340000Y-79185444D01*
X138340001Y-82746112D01*
X138301185Y-82698815D01*
X138204494Y-82619463D01*
X138094180Y-82560498D01*
X137974482Y-82524188D01*
X137850000Y-82511928D01*
X137285750Y-82515000D01*
X137127000Y-82673750D01*
X137127000Y-83873000D01*
X137147000Y-83873000D01*
X137147000Y-84127000D01*
X137127000Y-84127000D01*
X137127000Y-84147000D01*
X136873000Y-84147000D01*
X136873000Y-84127000D01*
X135673750Y-84127000D01*
X135515000Y-84285750D01*
X135511928Y-84850000D01*
X135524188Y-84974482D01*
X135560498Y-85094180D01*
X135619463Y-85204494D01*
X135698815Y-85301185D01*
X135795506Y-85380537D01*
X135905820Y-85439502D01*
X135978380Y-85461513D01*
X135846525Y-85593368D01*
X135684010Y-85836589D01*
X135572068Y-86106842D01*
X135570445Y-86115000D01*
X133972964Y-86115000D01*
X133965512Y-86101058D01*
X133945901Y-86077161D01*
X134005537Y-86004494D01*
X134064502Y-85894180D01*
X134100812Y-85774482D01*
X134113072Y-85650000D01*
X134110000Y-85410750D01*
X133951250Y-85252000D01*
X133127000Y-85252000D01*
X133127000Y-85272000D01*
X132873000Y-85272000D01*
X132873000Y-85252000D01*
X132048750Y-85252000D01*
X131890000Y-85410750D01*
X131886928Y-85650000D01*
X131899188Y-85774482D01*
X131935498Y-85894180D01*
X131986716Y-85990000D01*
X131953711Y-85990000D01*
X131909774Y-85946063D01*
X131740256Y-85832795D01*
X131551898Y-85754774D01*
X131351939Y-85715000D01*
X131148061Y-85715000D01*
X130948102Y-85754774D01*
X130759744Y-85832795D01*
X130590226Y-85946063D01*
X130446063Y-86090226D01*
X130332795Y-86259744D01*
X130254774Y-86448102D01*
X130215000Y-86648061D01*
X130215000Y-86851939D01*
X130254774Y-87051898D01*
X130332795Y-87240256D01*
X130446063Y-87409774D01*
X130590226Y-87553937D01*
X130759744Y-87667205D01*
X130948102Y-87745226D01*
X131148061Y-87785000D01*
X131351939Y-87785000D01*
X131551898Y-87745226D01*
X131740256Y-87667205D01*
X131909774Y-87553937D01*
X131953711Y-87510000D01*
X131960223Y-87510000D01*
X132034488Y-87648942D01*
X132143377Y-87781623D01*
X132276058Y-87890512D01*
X132427433Y-87971423D01*
X132591684Y-88021248D01*
X132762500Y-88038072D01*
X133237500Y-88038072D01*
X133408316Y-88021248D01*
X133572567Y-87971423D01*
X133723942Y-87890512D01*
X133856623Y-87781623D01*
X133965512Y-87648942D01*
X133972964Y-87635000D01*
X135994893Y-87635000D01*
X136053368Y-87693475D01*
X136296589Y-87855990D01*
X136566842Y-87967932D01*
X136853740Y-88025000D01*
X137146260Y-88025000D01*
X137433158Y-87967932D01*
X137703411Y-87855990D01*
X137946632Y-87693475D01*
X138153475Y-87486632D01*
X138315990Y-87243411D01*
X138340001Y-87185444D01*
X138340001Y-90746112D01*
X138301185Y-90698815D01*
X138204494Y-90619463D01*
X138094180Y-90560498D01*
X137974482Y-90524188D01*
X137850000Y-90511928D01*
X137285750Y-90515000D01*
X137127000Y-90673750D01*
X137127000Y-91873000D01*
X137147000Y-91873000D01*
X137147000Y-92127000D01*
X137127000Y-92127000D01*
X137127000Y-92147000D01*
X136873000Y-92147000D01*
X136873000Y-92127000D01*
X135673750Y-92127000D01*
X135515000Y-92285750D01*
X135511928Y-92850000D01*
X135524188Y-92974482D01*
X135560498Y-93094180D01*
X135619463Y-93204494D01*
X135698815Y-93301185D01*
X135795506Y-93380537D01*
X135905820Y-93439502D01*
X135978380Y-93461513D01*
X135846525Y-93593368D01*
X135684010Y-93836589D01*
X135572068Y-94106842D01*
X135570445Y-94115000D01*
X133972964Y-94115000D01*
X133965512Y-94101058D01*
X133945901Y-94077161D01*
X134005537Y-94004494D01*
X134064502Y-93894180D01*
X134100812Y-93774482D01*
X134113072Y-93650000D01*
X134110000Y-93410750D01*
X133951250Y-93252000D01*
X133127000Y-93252000D01*
X133127000Y-93272000D01*
X132873000Y-93272000D01*
X132873000Y-93252000D01*
X132048750Y-93252000D01*
X131890000Y-93410750D01*
X131886928Y-93650000D01*
X131899188Y-93774482D01*
X131935498Y-93894180D01*
X131994463Y-94004494D01*
X132054099Y-94077161D01*
X132034488Y-94101058D01*
X131960223Y-94240000D01*
X131953711Y-94240000D01*
X131909774Y-94196063D01*
X131740256Y-94082795D01*
X131551898Y-94004774D01*
X131351939Y-93965000D01*
X131148061Y-93965000D01*
X130948102Y-94004774D01*
X130759744Y-94082795D01*
X130590226Y-94196063D01*
X130446063Y-94340226D01*
X130332795Y-94509744D01*
X130254774Y-94698102D01*
X130215000Y-94898061D01*
X130215000Y-95101939D01*
X130254774Y-95301898D01*
X130332795Y-95490256D01*
X130446063Y-95659774D01*
X130590226Y-95803937D01*
X130759744Y-95917205D01*
X130948102Y-95995226D01*
X131148061Y-96035000D01*
X131351939Y-96035000D01*
X131551898Y-95995226D01*
X131740256Y-95917205D01*
X131909774Y-95803937D01*
X131953711Y-95760000D01*
X132125631Y-95760000D01*
X132143377Y-95781623D01*
X132276058Y-95890512D01*
X132427433Y-95971423D01*
X132591684Y-96021248D01*
X132762500Y-96038072D01*
X133237500Y-96038072D01*
X133408316Y-96021248D01*
X133572567Y-95971423D01*
X133723942Y-95890512D01*
X133856623Y-95781623D01*
X133965512Y-95648942D01*
X133972964Y-95635000D01*
X135994893Y-95635000D01*
X136053368Y-95693475D01*
X136296589Y-95855990D01*
X136566842Y-95967932D01*
X136853740Y-96025000D01*
X137146260Y-96025000D01*
X137433158Y-95967932D01*
X137703411Y-95855990D01*
X137946632Y-95693475D01*
X138153475Y-95486632D01*
X138315990Y-95243411D01*
X138340001Y-95185443D01*
X138340001Y-97090000D01*
X86660000Y-97090000D01*
X86660000Y-96185445D01*
X86684010Y-96243411D01*
X86846525Y-96486632D01*
X87053368Y-96693475D01*
X87296589Y-96855990D01*
X87566842Y-96967932D01*
X87853740Y-97025000D01*
X88146260Y-97025000D01*
X88433158Y-96967932D01*
X88703411Y-96855990D01*
X88946632Y-96693475D01*
X89153475Y-96486632D01*
X89315990Y-96243411D01*
X89427932Y-95973158D01*
X89485000Y-95686260D01*
X89485000Y-95393740D01*
X89427932Y-95106842D01*
X89315990Y-94836589D01*
X89153475Y-94593368D01*
X89021620Y-94461513D01*
X89094180Y-94439502D01*
X89204494Y-94380537D01*
X89301185Y-94301185D01*
X89380537Y-94204494D01*
X89439502Y-94094180D01*
X89475812Y-93974482D01*
X89488072Y-93850000D01*
X89485000Y-93285750D01*
X89326250Y-93127000D01*
X88127000Y-93127000D01*
X88127000Y-93147000D01*
X87873000Y-93147000D01*
X87873000Y-93127000D01*
X87853000Y-93127000D01*
X87853000Y-92873000D01*
X87873000Y-92873000D01*
X87873000Y-91673750D01*
X88127000Y-91673750D01*
X88127000Y-92873000D01*
X89326250Y-92873000D01*
X89485000Y-92714250D01*
X89485622Y-92600000D01*
X131886928Y-92600000D01*
X131890000Y-92839250D01*
X132048750Y-92998000D01*
X132873000Y-92998000D01*
X132873000Y-92123750D01*
X133127000Y-92123750D01*
X133127000Y-92998000D01*
X133951250Y-92998000D01*
X134110000Y-92839250D01*
X134113072Y-92600000D01*
X134100812Y-92475518D01*
X134064502Y-92355820D01*
X134005537Y-92245506D01*
X133926185Y-92148815D01*
X133829494Y-92069463D01*
X133719180Y-92010498D01*
X133599482Y-91974188D01*
X133475000Y-91961928D01*
X133285750Y-91965000D01*
X133127000Y-92123750D01*
X132873000Y-92123750D01*
X132714250Y-91965000D01*
X132525000Y-91961928D01*
X132400518Y-91974188D01*
X132280820Y-92010498D01*
X132170506Y-92069463D01*
X132073815Y-92148815D01*
X131994463Y-92245506D01*
X131935498Y-92355820D01*
X131899188Y-92475518D01*
X131886928Y-92600000D01*
X89485622Y-92600000D01*
X89488072Y-92150000D01*
X89475812Y-92025518D01*
X89439502Y-91905820D01*
X89380537Y-91795506D01*
X89301185Y-91698815D01*
X89204494Y-91619463D01*
X89094180Y-91560498D01*
X88974482Y-91524188D01*
X88850000Y-91511928D01*
X88285750Y-91515000D01*
X88127000Y-91673750D01*
X87873000Y-91673750D01*
X87714250Y-91515000D01*
X87150000Y-91511928D01*
X87025518Y-91524188D01*
X86905820Y-91560498D01*
X86795506Y-91619463D01*
X86698815Y-91698815D01*
X86660000Y-91746111D01*
X86660000Y-88645445D01*
X86684010Y-88703411D01*
X86846525Y-88946632D01*
X87053368Y-89153475D01*
X87296589Y-89315990D01*
X87566842Y-89427932D01*
X87853740Y-89485000D01*
X88146260Y-89485000D01*
X88433158Y-89427932D01*
X88703411Y-89315990D01*
X88946632Y-89153475D01*
X88970235Y-89129872D01*
X94495000Y-89129872D01*
X94495000Y-89570128D01*
X94580890Y-90001925D01*
X94749369Y-90408669D01*
X94993962Y-90774729D01*
X95305271Y-91086038D01*
X95671331Y-91330631D01*
X96078075Y-91499110D01*
X96509872Y-91585000D01*
X96950128Y-91585000D01*
X97381925Y-91499110D01*
X97788669Y-91330631D01*
X98154729Y-91086038D01*
X98466038Y-90774729D01*
X98710631Y-90408669D01*
X98879110Y-90001925D01*
X98965000Y-89570128D01*
X98965000Y-89129872D01*
X105925000Y-89129872D01*
X105925000Y-89570128D01*
X106010890Y-90001925D01*
X106179369Y-90408669D01*
X106423962Y-90774729D01*
X106735271Y-91086038D01*
X107101331Y-91330631D01*
X107508075Y-91499110D01*
X107939872Y-91585000D01*
X108380128Y-91585000D01*
X108811925Y-91499110D01*
X109218669Y-91330631D01*
X109584729Y-91086038D01*
X109896038Y-90774729D01*
X110140631Y-90408669D01*
X110309110Y-90001925D01*
X110395000Y-89570128D01*
X110395000Y-89129872D01*
X113495000Y-89129872D01*
X113495000Y-89570128D01*
X113580890Y-90001925D01*
X113749369Y-90408669D01*
X113993962Y-90774729D01*
X114305271Y-91086038D01*
X114671331Y-91330631D01*
X115078075Y-91499110D01*
X115509872Y-91585000D01*
X115950128Y-91585000D01*
X116381925Y-91499110D01*
X116788669Y-91330631D01*
X117154729Y-91086038D01*
X117466038Y-90774729D01*
X117710631Y-90408669D01*
X117879110Y-90001925D01*
X117965000Y-89570128D01*
X117965000Y-89129872D01*
X124925000Y-89129872D01*
X124925000Y-89570128D01*
X125010890Y-90001925D01*
X125179369Y-90408669D01*
X125423962Y-90774729D01*
X125735271Y-91086038D01*
X126101331Y-91330631D01*
X126508075Y-91499110D01*
X126939872Y-91585000D01*
X127380128Y-91585000D01*
X127811925Y-91499110D01*
X128218669Y-91330631D01*
X128489002Y-91150000D01*
X135511928Y-91150000D01*
X135515000Y-91714250D01*
X135673750Y-91873000D01*
X136873000Y-91873000D01*
X136873000Y-90673750D01*
X136714250Y-90515000D01*
X136150000Y-90511928D01*
X136025518Y-90524188D01*
X135905820Y-90560498D01*
X135795506Y-90619463D01*
X135698815Y-90698815D01*
X135619463Y-90795506D01*
X135560498Y-90905820D01*
X135524188Y-91025518D01*
X135511928Y-91150000D01*
X128489002Y-91150000D01*
X128584729Y-91086038D01*
X128896038Y-90774729D01*
X129140631Y-90408669D01*
X129309110Y-90001925D01*
X129395000Y-89570128D01*
X129395000Y-89129872D01*
X129309110Y-88698075D01*
X129140631Y-88291331D01*
X128896038Y-87925271D01*
X128584729Y-87613962D01*
X128218669Y-87369369D01*
X127811925Y-87200890D01*
X127380128Y-87115000D01*
X126939872Y-87115000D01*
X126508075Y-87200890D01*
X126101331Y-87369369D01*
X125735271Y-87613962D01*
X125423962Y-87925271D01*
X125179369Y-88291331D01*
X125010890Y-88698075D01*
X124925000Y-89129872D01*
X117965000Y-89129872D01*
X117879110Y-88698075D01*
X117710631Y-88291331D01*
X117466038Y-87925271D01*
X117154729Y-87613962D01*
X116788669Y-87369369D01*
X116381925Y-87200890D01*
X115950128Y-87115000D01*
X115509872Y-87115000D01*
X115078075Y-87200890D01*
X114671331Y-87369369D01*
X114305271Y-87613962D01*
X113993962Y-87925271D01*
X113749369Y-88291331D01*
X113580890Y-88698075D01*
X113495000Y-89129872D01*
X110395000Y-89129872D01*
X110309110Y-88698075D01*
X110140631Y-88291331D01*
X109896038Y-87925271D01*
X109584729Y-87613962D01*
X109218669Y-87369369D01*
X108811925Y-87200890D01*
X108380128Y-87115000D01*
X107939872Y-87115000D01*
X107508075Y-87200890D01*
X107101331Y-87369369D01*
X106735271Y-87613962D01*
X106423962Y-87925271D01*
X106179369Y-88291331D01*
X106010890Y-88698075D01*
X105925000Y-89129872D01*
X98965000Y-89129872D01*
X98879110Y-88698075D01*
X98710631Y-88291331D01*
X98466038Y-87925271D01*
X98154729Y-87613962D01*
X97788669Y-87369369D01*
X97381925Y-87200890D01*
X96950128Y-87115000D01*
X96509872Y-87115000D01*
X96078075Y-87200890D01*
X95671331Y-87369369D01*
X95305271Y-87613962D01*
X94993962Y-87925271D01*
X94749369Y-88291331D01*
X94580890Y-88698075D01*
X94495000Y-89129872D01*
X88970235Y-89129872D01*
X89153475Y-88946632D01*
X89315990Y-88703411D01*
X89427932Y-88433158D01*
X89485000Y-88146260D01*
X89485000Y-87853740D01*
X89427932Y-87566842D01*
X89315990Y-87296589D01*
X89153475Y-87053368D01*
X89021620Y-86921513D01*
X89094180Y-86899502D01*
X89204494Y-86840537D01*
X89301185Y-86761185D01*
X89380537Y-86664494D01*
X89439502Y-86554180D01*
X89475812Y-86434482D01*
X89488072Y-86310000D01*
X89485000Y-85745750D01*
X89326250Y-85587000D01*
X88127000Y-85587000D01*
X88127000Y-85607000D01*
X87873000Y-85607000D01*
X87873000Y-85587000D01*
X87853000Y-85587000D01*
X87853000Y-85333000D01*
X87873000Y-85333000D01*
X87873000Y-84133750D01*
X88127000Y-84133750D01*
X88127000Y-85333000D01*
X89326250Y-85333000D01*
X89485000Y-85174250D01*
X89488072Y-84610000D01*
X89487088Y-84600000D01*
X131886928Y-84600000D01*
X131890000Y-84839250D01*
X132048750Y-84998000D01*
X132873000Y-84998000D01*
X132873000Y-84123750D01*
X133127000Y-84123750D01*
X133127000Y-84998000D01*
X133951250Y-84998000D01*
X134110000Y-84839250D01*
X134113072Y-84600000D01*
X134100812Y-84475518D01*
X134064502Y-84355820D01*
X134005537Y-84245506D01*
X133926185Y-84148815D01*
X133829494Y-84069463D01*
X133719180Y-84010498D01*
X133599482Y-83974188D01*
X133475000Y-83961928D01*
X133285750Y-83965000D01*
X133127000Y-84123750D01*
X132873000Y-84123750D01*
X132714250Y-83965000D01*
X132525000Y-83961928D01*
X132400518Y-83974188D01*
X132280820Y-84010498D01*
X132170506Y-84069463D01*
X132073815Y-84148815D01*
X131994463Y-84245506D01*
X131935498Y-84355820D01*
X131899188Y-84475518D01*
X131886928Y-84600000D01*
X89487088Y-84600000D01*
X89475812Y-84485518D01*
X89439502Y-84365820D01*
X89380537Y-84255506D01*
X89301185Y-84158815D01*
X89204494Y-84079463D01*
X89094180Y-84020498D01*
X88974482Y-83984188D01*
X88850000Y-83971928D01*
X88285750Y-83975000D01*
X88127000Y-84133750D01*
X87873000Y-84133750D01*
X87714250Y-83975000D01*
X87150000Y-83971928D01*
X87025518Y-83984188D01*
X86905820Y-84020498D01*
X86795506Y-84079463D01*
X86698815Y-84158815D01*
X86660000Y-84206111D01*
X86660000Y-82250000D01*
X96611928Y-82250000D01*
X96611928Y-83750000D01*
X96624188Y-83874482D01*
X96660498Y-83994180D01*
X96719463Y-84104494D01*
X96798815Y-84201185D01*
X96895506Y-84280537D01*
X97005820Y-84339502D01*
X97125518Y-84375812D01*
X97250000Y-84388072D01*
X98750000Y-84388072D01*
X98874482Y-84375812D01*
X98994180Y-84339502D01*
X99104494Y-84280537D01*
X99201185Y-84201185D01*
X99280537Y-84104494D01*
X99339502Y-83994180D01*
X99350782Y-83956993D01*
X99762612Y-83956993D01*
X99828137Y-84195860D01*
X100075116Y-84311760D01*
X100339960Y-84377250D01*
X100612492Y-84389812D01*
X100882238Y-84348965D01*
X101138832Y-84256277D01*
X101251863Y-84195860D01*
X101317388Y-83956993D01*
X100540000Y-83179605D01*
X99762612Y-83956993D01*
X99350782Y-83956993D01*
X99375812Y-83874482D01*
X99388072Y-83750000D01*
X99388072Y-83723914D01*
X99583007Y-83777388D01*
X100360395Y-83000000D01*
X100719605Y-83000000D01*
X101496993Y-83777388D01*
X101735860Y-83711863D01*
X101810164Y-83553523D01*
X101852629Y-83656043D01*
X102004201Y-83882886D01*
X102197114Y-84075799D01*
X102423957Y-84227371D01*
X102676011Y-84331775D01*
X102943589Y-84385000D01*
X103216411Y-84385000D01*
X103483989Y-84331775D01*
X103736043Y-84227371D01*
X103962886Y-84075799D01*
X104155799Y-83882886D01*
X104307371Y-83656043D01*
X104350000Y-83553127D01*
X104392629Y-83656043D01*
X104544201Y-83882886D01*
X104737114Y-84075799D01*
X104963957Y-84227371D01*
X105216011Y-84331775D01*
X105483589Y-84385000D01*
X105756411Y-84385000D01*
X106023989Y-84331775D01*
X106276043Y-84227371D01*
X106502886Y-84075799D01*
X106695799Y-83882886D01*
X106847371Y-83656043D01*
X106951775Y-83403989D01*
X107005000Y-83136411D01*
X107005000Y-82863589D01*
X106951775Y-82596011D01*
X106847371Y-82343957D01*
X106695799Y-82117114D01*
X106502886Y-81924201D01*
X106276043Y-81772629D01*
X106023989Y-81668225D01*
X105756411Y-81615000D01*
X105483589Y-81615000D01*
X105216011Y-81668225D01*
X104963957Y-81772629D01*
X104737114Y-81924201D01*
X104544201Y-82117114D01*
X104392629Y-82343957D01*
X104350000Y-82446873D01*
X104307371Y-82343957D01*
X104155799Y-82117114D01*
X103962886Y-81924201D01*
X103736043Y-81772629D01*
X103483989Y-81668225D01*
X103216411Y-81615000D01*
X102943589Y-81615000D01*
X102676011Y-81668225D01*
X102423957Y-81772629D01*
X102197114Y-81924201D01*
X102004201Y-82117114D01*
X101852629Y-82343957D01*
X101811489Y-82443279D01*
X101796277Y-82401168D01*
X101735860Y-82288137D01*
X101496993Y-82222612D01*
X100719605Y-83000000D01*
X100360395Y-83000000D01*
X99583007Y-82222612D01*
X99388072Y-82276086D01*
X99388072Y-82250000D01*
X99375812Y-82125518D01*
X99350783Y-82043007D01*
X99762612Y-82043007D01*
X100540000Y-82820395D01*
X101317388Y-82043007D01*
X101251863Y-81804140D01*
X101004884Y-81688240D01*
X100740040Y-81622750D01*
X100467508Y-81610188D01*
X100197762Y-81651035D01*
X99941168Y-81743723D01*
X99828137Y-81804140D01*
X99762612Y-82043007D01*
X99350783Y-82043007D01*
X99339502Y-82005820D01*
X99280537Y-81895506D01*
X99239088Y-81845000D01*
X99406411Y-81845000D01*
X99673989Y-81791775D01*
X99926043Y-81687371D01*
X100152886Y-81535799D01*
X100271692Y-81416993D01*
X101032612Y-81416993D01*
X101098137Y-81655860D01*
X101345116Y-81771760D01*
X101609960Y-81837250D01*
X101882492Y-81849812D01*
X102152238Y-81808965D01*
X102408832Y-81716277D01*
X102521863Y-81655860D01*
X102587388Y-81416993D01*
X101810000Y-80639605D01*
X101032612Y-81416993D01*
X100271692Y-81416993D01*
X100345799Y-81342886D01*
X100497371Y-81116043D01*
X100538511Y-81016721D01*
X100553723Y-81058832D01*
X100614140Y-81171863D01*
X100853007Y-81237388D01*
X101630395Y-80460000D01*
X100853007Y-79682612D01*
X100614140Y-79748137D01*
X100539836Y-79906477D01*
X100497371Y-79803957D01*
X100345799Y-79577114D01*
X100152886Y-79384201D01*
X99926043Y-79232629D01*
X99673989Y-79128225D01*
X99406411Y-79075000D01*
X99133589Y-79075000D01*
X98866011Y-79128225D01*
X98613957Y-79232629D01*
X98387114Y-79384201D01*
X98194201Y-79577114D01*
X98042629Y-79803957D01*
X97938225Y-80056011D01*
X97885000Y-80323589D01*
X97885000Y-80596411D01*
X97938225Y-80863989D01*
X98042629Y-81116043D01*
X98194201Y-81342886D01*
X98387114Y-81535799D01*
X98501049Y-81611928D01*
X97250000Y-81611928D01*
X97125518Y-81624188D01*
X97005820Y-81660498D01*
X96895506Y-81719463D01*
X96798815Y-81798815D01*
X96719463Y-81895506D01*
X96660498Y-82005820D01*
X96624188Y-82125518D01*
X96611928Y-82250000D01*
X86660000Y-82250000D01*
X86660000Y-81185445D01*
X86684010Y-81243411D01*
X86846525Y-81486632D01*
X87053368Y-81693475D01*
X87296589Y-81855990D01*
X87566842Y-81967932D01*
X87853740Y-82025000D01*
X88146260Y-82025000D01*
X88433158Y-81967932D01*
X88703411Y-81855990D01*
X88946632Y-81693475D01*
X89153475Y-81486632D01*
X89315990Y-81243411D01*
X89427932Y-80973158D01*
X89485000Y-80686260D01*
X89485000Y-80393740D01*
X89441209Y-80173592D01*
X90599518Y-79015283D01*
X90696063Y-79159774D01*
X90840226Y-79303937D01*
X91009744Y-79417205D01*
X91198102Y-79495226D01*
X91398061Y-79535000D01*
X91601939Y-79535000D01*
X91801898Y-79495226D01*
X91990256Y-79417205D01*
X92159774Y-79303937D01*
X92303937Y-79159774D01*
X92417205Y-78990256D01*
X92495226Y-78801898D01*
X92535000Y-78601939D01*
X92535000Y-78539801D01*
X94494813Y-76579990D01*
X108065760Y-76579990D01*
X107915000Y-76730750D01*
X107911928Y-76745000D01*
X107924188Y-76869482D01*
X107960498Y-76989180D01*
X108019463Y-77099494D01*
X108098815Y-77196185D01*
X108195506Y-77275537D01*
X108305820Y-77334502D01*
X108425518Y-77370812D01*
X108550000Y-77383072D01*
X109239250Y-77380000D01*
X109398000Y-77221250D01*
X109398000Y-76579990D01*
X109652000Y-76579990D01*
X109652000Y-77221250D01*
X109810750Y-77380000D01*
X110500000Y-77383072D01*
X110624482Y-77370812D01*
X110744180Y-77334502D01*
X110854494Y-77275537D01*
X110951185Y-77196185D01*
X111030537Y-77099494D01*
X111089502Y-76989180D01*
X111125812Y-76869482D01*
X111138072Y-76745000D01*
X111135000Y-76730750D01*
X110984240Y-76579990D01*
X112861928Y-76579990D01*
X112861928Y-76595000D01*
X112877071Y-76748745D01*
X112921916Y-76896582D01*
X112994742Y-77032829D01*
X113092749Y-77152251D01*
X113212171Y-77250258D01*
X113348418Y-77323084D01*
X113496255Y-77367929D01*
X113650000Y-77383072D01*
X115300000Y-77383072D01*
X115453745Y-77367929D01*
X115601582Y-77323084D01*
X115737829Y-77250258D01*
X115857251Y-77152251D01*
X115955258Y-77032829D01*
X116028084Y-76896582D01*
X116072929Y-76748745D01*
X116088072Y-76595000D01*
X116088072Y-76475000D01*
X131886928Y-76475000D01*
X131890000Y-76714250D01*
X132048750Y-76873000D01*
X132873000Y-76873000D01*
X132873000Y-75998750D01*
X133127000Y-75998750D01*
X133127000Y-76873000D01*
X133951250Y-76873000D01*
X134110000Y-76714250D01*
X134113072Y-76475000D01*
X134100812Y-76350518D01*
X134064502Y-76230820D01*
X134005537Y-76120506D01*
X133926185Y-76023815D01*
X133829494Y-75944463D01*
X133719180Y-75885498D01*
X133599482Y-75849188D01*
X133475000Y-75836928D01*
X133285750Y-75840000D01*
X133127000Y-75998750D01*
X132873000Y-75998750D01*
X132714250Y-75840000D01*
X132525000Y-75836928D01*
X132400518Y-75849188D01*
X132280820Y-75885498D01*
X132170506Y-75944463D01*
X132073815Y-76023815D01*
X131994463Y-76120506D01*
X131935498Y-76230820D01*
X131899188Y-76350518D01*
X131886928Y-76475000D01*
X116088072Y-76475000D01*
X116088072Y-76295000D01*
X116072929Y-76141255D01*
X116028084Y-75993418D01*
X116026220Y-75989931D01*
X116090226Y-76053937D01*
X116259744Y-76167205D01*
X116448102Y-76245226D01*
X116648061Y-76285000D01*
X116851939Y-76285000D01*
X117051898Y-76245226D01*
X117240256Y-76167205D01*
X117409774Y-76053937D01*
X117553937Y-75909774D01*
X117667205Y-75740256D01*
X117745226Y-75551898D01*
X117785000Y-75351939D01*
X117785000Y-75150000D01*
X135511928Y-75150000D01*
X135515000Y-75714250D01*
X135673750Y-75873000D01*
X136873000Y-75873000D01*
X136873000Y-74673750D01*
X136714250Y-74515000D01*
X136150000Y-74511928D01*
X136025518Y-74524188D01*
X135905820Y-74560498D01*
X135795506Y-74619463D01*
X135698815Y-74698815D01*
X135619463Y-74795506D01*
X135560498Y-74905820D01*
X135524188Y-75025518D01*
X135511928Y-75150000D01*
X117785000Y-75150000D01*
X117785000Y-75148061D01*
X117745226Y-74948102D01*
X117721974Y-74891968D01*
X117759744Y-74917205D01*
X117948102Y-74995226D01*
X118148061Y-75035000D01*
X118351939Y-75035000D01*
X118551898Y-74995226D01*
X118740256Y-74917205D01*
X118909774Y-74803937D01*
X119053937Y-74659774D01*
X119167205Y-74490256D01*
X119245226Y-74301898D01*
X119285000Y-74101939D01*
X119285000Y-73898061D01*
X119245226Y-73698102D01*
X119167205Y-73509744D01*
X119053937Y-73340226D01*
X118909774Y-73196063D01*
X118740256Y-73082795D01*
X118551898Y-73004774D01*
X118351939Y-72965000D01*
X118148061Y-72965000D01*
X117948102Y-73004774D01*
X117759744Y-73082795D01*
X117590226Y-73196063D01*
X117546289Y-73240000D01*
X117121424Y-73240000D01*
X117045569Y-73199454D01*
X116902308Y-73155997D01*
X116790655Y-73145000D01*
X116790644Y-73145000D01*
X116753322Y-73141324D01*
X116716000Y-73145000D01*
X115996859Y-73145000D01*
X116028084Y-73086582D01*
X116072929Y-72938745D01*
X116088072Y-72785000D01*
X116088072Y-72760000D01*
X132237678Y-72760000D01*
X132275000Y-72763676D01*
X132312322Y-72760000D01*
X132312333Y-72760000D01*
X132423986Y-72749003D01*
X132567247Y-72705546D01*
X132699276Y-72634974D01*
X132815001Y-72540001D01*
X132838803Y-72510998D01*
X133473252Y-71876550D01*
X133572567Y-71846423D01*
X133723942Y-71765512D01*
X133856623Y-71656623D01*
X133965512Y-71523942D01*
X133972964Y-71510000D01*
X135869893Y-71510000D01*
X136053368Y-71693475D01*
X136296589Y-71855990D01*
X136566842Y-71967932D01*
X136853740Y-72025000D01*
X137146260Y-72025000D01*
X137433158Y-71967932D01*
X137703411Y-71855990D01*
X137946632Y-71693475D01*
X138153475Y-71486632D01*
X138315990Y-71243411D01*
X138340000Y-71185445D01*
X138340000Y-74746112D01*
G36*
X86698815Y-86761185D02*
G01*
X86795506Y-86840537D01*
X86905820Y-86899502D01*
X86978380Y-86921513D01*
X86846525Y-87053368D01*
X86684010Y-87296589D01*
X86660000Y-87354555D01*
X86660000Y-86713889D01*
X86698815Y-86761185D01*
G37*
X86698815Y-86761185D02*
X86795506Y-86840537D01*
X86905820Y-86899502D01*
X86978380Y-86921513D01*
X86846525Y-87053368D01*
X86684010Y-87296589D01*
X86660000Y-87354555D01*
X86660000Y-86713889D01*
X86698815Y-86761185D01*
G36*
X138340001Y-85894556D02*
G01*
X138315990Y-85836589D01*
X138153475Y-85593368D01*
X138021620Y-85461513D01*
X138094180Y-85439502D01*
X138204494Y-85380537D01*
X138301185Y-85301185D01*
X138340001Y-85253888D01*
X138340001Y-85894556D01*
G37*
X138340001Y-85894556D02*
X138315990Y-85836589D01*
X138153475Y-85593368D01*
X138021620Y-85461513D01*
X138094180Y-85439502D01*
X138204494Y-85380537D01*
X138301185Y-85301185D01*
X138340001Y-85253888D01*
X138340001Y-85894556D01*
G36*
X86698815Y-79301185D02*
G01*
X86795506Y-79380537D01*
X86905820Y-79439502D01*
X86978380Y-79461513D01*
X86846525Y-79593368D01*
X86684010Y-79836589D01*
X86660000Y-79894555D01*
X86660000Y-79253889D01*
X86698815Y-79301185D01*
G37*
X86698815Y-79301185D02*
X86795506Y-79380537D01*
X86905820Y-79439502D01*
X86978380Y-79461513D01*
X86846525Y-79593368D01*
X86684010Y-79836589D01*
X86660000Y-79894555D01*
X86660000Y-79253889D01*
X86698815Y-79301185D01*
G36*
X103465000Y-72101939D02*
G01*
X103504774Y-72301898D01*
X103582795Y-72490256D01*
X103696063Y-72659774D01*
X103840226Y-72803937D01*
X104009744Y-72917205D01*
X104198102Y-72995226D01*
X104398061Y-73035000D01*
X104601939Y-73035000D01*
X104801898Y-72995226D01*
X104990256Y-72917205D01*
X105159774Y-72803937D01*
X105203711Y-72760000D01*
X105965000Y-72760000D01*
X105965000Y-72851939D01*
X106004774Y-73051898D01*
X106028026Y-73108032D01*
X105990256Y-73082795D01*
X105801898Y-73004774D01*
X105601939Y-72965000D01*
X105398061Y-72965000D01*
X105198102Y-73004774D01*
X105009744Y-73082795D01*
X104840226Y-73196063D01*
X104696063Y-73340226D01*
X104582795Y-73509744D01*
X104504774Y-73698102D01*
X104465000Y-73898061D01*
X104465000Y-74101939D01*
X104504774Y-74301898D01*
X104551623Y-74415000D01*
X93402325Y-74415000D01*
X93365000Y-74411324D01*
X93327675Y-74415000D01*
X93327667Y-74415000D01*
X93216014Y-74425997D01*
X93072753Y-74469454D01*
X92940724Y-74540026D01*
X92824999Y-74634999D01*
X92801201Y-74663997D01*
X89485000Y-77980198D01*
X89485000Y-77872998D01*
X89326252Y-77872998D01*
X89485000Y-77714250D01*
X89488072Y-77150000D01*
X89475812Y-77025518D01*
X89439502Y-76905820D01*
X89380537Y-76795506D01*
X89301185Y-76698815D01*
X89204494Y-76619463D01*
X89094180Y-76560498D01*
X88974482Y-76524188D01*
X88850000Y-76511928D01*
X88285750Y-76515000D01*
X88127000Y-76673750D01*
X88127000Y-77873000D01*
X88147000Y-77873000D01*
X88147000Y-78127000D01*
X88127000Y-78127000D01*
X88127000Y-78147000D01*
X87873000Y-78147000D01*
X87873000Y-78127000D01*
X87853000Y-78127000D01*
X87853000Y-77873000D01*
X87873000Y-77873000D01*
X87873000Y-76673750D01*
X87714250Y-76515000D01*
X87150000Y-76511928D01*
X87025518Y-76524188D01*
X86905820Y-76560498D01*
X86795506Y-76619463D01*
X86698815Y-76698815D01*
X86660000Y-76746111D01*
X86660000Y-73725445D01*
X86684010Y-73783411D01*
X86846525Y-74026632D01*
X87053368Y-74233475D01*
X87296589Y-74395990D01*
X87566842Y-74507932D01*
X87853740Y-74565000D01*
X88146260Y-74565000D01*
X88433158Y-74507932D01*
X88703411Y-74395990D01*
X88946632Y-74233475D01*
X89153475Y-74026632D01*
X89315990Y-73783411D01*
X89427932Y-73513158D01*
X89485000Y-73226260D01*
X89485000Y-72933740D01*
X89441210Y-72713592D01*
X90119803Y-72034999D01*
X103465000Y-72034999D01*
X103465000Y-72101939D01*
G37*
X103465000Y-72101939D02*
X103504774Y-72301898D01*
X103582795Y-72490256D01*
X103696063Y-72659774D01*
X103840226Y-72803937D01*
X104009744Y-72917205D01*
X104198102Y-72995226D01*
X104398061Y-73035000D01*
X104601939Y-73035000D01*
X104801898Y-72995226D01*
X104990256Y-72917205D01*
X105159774Y-72803937D01*
X105203711Y-72760000D01*
X105965000Y-72760000D01*
X105965000Y-72851939D01*
X106004774Y-73051898D01*
X106028026Y-73108032D01*
X105990256Y-73082795D01*
X105801898Y-73004774D01*
X105601939Y-72965000D01*
X105398061Y-72965000D01*
X105198102Y-73004774D01*
X105009744Y-73082795D01*
X104840226Y-73196063D01*
X104696063Y-73340226D01*
X104582795Y-73509744D01*
X104504774Y-73698102D01*
X104465000Y-73898061D01*
X104465000Y-74101939D01*
X104504774Y-74301898D01*
X104551623Y-74415000D01*
X93402325Y-74415000D01*
X93365000Y-74411324D01*
X93327675Y-74415000D01*
X93327667Y-74415000D01*
X93216014Y-74425997D01*
X93072753Y-74469454D01*
X92940724Y-74540026D01*
X92824999Y-74634999D01*
X92801201Y-74663997D01*
X89485000Y-77980198D01*
X89485000Y-77872998D01*
X89326252Y-77872998D01*
X89485000Y-77714250D01*
X89488072Y-77150000D01*
X89475812Y-77025518D01*
X89439502Y-76905820D01*
X89380537Y-76795506D01*
X89301185Y-76698815D01*
X89204494Y-76619463D01*
X89094180Y-76560498D01*
X88974482Y-76524188D01*
X88850000Y-76511928D01*
X88285750Y-76515000D01*
X88127000Y-76673750D01*
X88127000Y-77873000D01*
X88147000Y-77873000D01*
X88147000Y-78127000D01*
X88127000Y-78127000D01*
X88127000Y-78147000D01*
X87873000Y-78147000D01*
X87873000Y-78127000D01*
X87853000Y-78127000D01*
X87853000Y-77873000D01*
X87873000Y-77873000D01*
X87873000Y-76673750D01*
X87714250Y-76515000D01*
X87150000Y-76511928D01*
X87025518Y-76524188D01*
X86905820Y-76560498D01*
X86795506Y-76619463D01*
X86698815Y-76698815D01*
X86660000Y-76746111D01*
X86660000Y-73725445D01*
X86684010Y-73783411D01*
X86846525Y-74026632D01*
X87053368Y-74233475D01*
X87296589Y-74395990D01*
X87566842Y-74507932D01*
X87853740Y-74565000D01*
X88146260Y-74565000D01*
X88433158Y-74507932D01*
X88703411Y-74395990D01*
X88946632Y-74233475D01*
X89153475Y-74026632D01*
X89315990Y-73783411D01*
X89427932Y-73513158D01*
X89485000Y-73226260D01*
X89485000Y-72933740D01*
X89441210Y-72713592D01*
X90119803Y-72034999D01*
X103465000Y-72034999D01*
X103465000Y-72101939D01*
G36*
X138340000Y-77894555D02*
G01*
X138315990Y-77836589D01*
X138153475Y-77593368D01*
X138021620Y-77461513D01*
X138094180Y-77439502D01*
X138204494Y-77380537D01*
X138301185Y-77301185D01*
X138340000Y-77253888D01*
X138340000Y-77894555D01*
G37*
X138340000Y-77894555D02*
X138315990Y-77836589D01*
X138153475Y-77593368D01*
X138021620Y-77461513D01*
X138094180Y-77439502D01*
X138204494Y-77380537D01*
X138301185Y-77301185D01*
X138340000Y-77253888D01*
X138340000Y-77894555D01*
G36*
X112861928Y-68975000D02*
G01*
X112877071Y-69128745D01*
X112921916Y-69276582D01*
X112994742Y-69412829D01*
X113033454Y-69460000D01*
X112994742Y-69507171D01*
X112921916Y-69643418D01*
X112877071Y-69791255D01*
X112861928Y-69945000D01*
X112861928Y-70245000D01*
X112877071Y-70398745D01*
X112921916Y-70546582D01*
X112994742Y-70682829D01*
X113033454Y-70730000D01*
X112994742Y-70777171D01*
X112921916Y-70913418D01*
X112877071Y-71061255D01*
X112861928Y-71215000D01*
X112861928Y-71240000D01*
X112257538Y-71240000D01*
X112285000Y-71101939D01*
X112285000Y-70898061D01*
X112245226Y-70698102D01*
X112167205Y-70509744D01*
X112053937Y-70340226D01*
X111909774Y-70196063D01*
X111740256Y-70082795D01*
X111551898Y-70004774D01*
X111351939Y-69965000D01*
X111148061Y-69965000D01*
X111138072Y-69966987D01*
X111138072Y-69945000D01*
X111122929Y-69791255D01*
X111078084Y-69643418D01*
X111005258Y-69507171D01*
X110966546Y-69460000D01*
X111005258Y-69412829D01*
X111078084Y-69276582D01*
X111122929Y-69128745D01*
X111138072Y-68975000D01*
X111138072Y-68959990D01*
X112861928Y-68959990D01*
X112861928Y-68975000D01*
G37*
X112861928Y-68975000D02*
X112877071Y-69128745D01*
X112921916Y-69276582D01*
X112994742Y-69412829D01*
X113033454Y-69460000D01*
X112994742Y-69507171D01*
X112921916Y-69643418D01*
X112877071Y-69791255D01*
X112861928Y-69945000D01*
X112861928Y-70245000D01*
X112877071Y-70398745D01*
X112921916Y-70546582D01*
X112994742Y-70682829D01*
X113033454Y-70730000D01*
X112994742Y-70777171D01*
X112921916Y-70913418D01*
X112877071Y-71061255D01*
X112861928Y-71215000D01*
X112861928Y-71240000D01*
X112257538Y-71240000D01*
X112285000Y-71101939D01*
X112285000Y-70898061D01*
X112245226Y-70698102D01*
X112167205Y-70509744D01*
X112053937Y-70340226D01*
X111909774Y-70196063D01*
X111740256Y-70082795D01*
X111551898Y-70004774D01*
X111351939Y-69965000D01*
X111148061Y-69965000D01*
X111138072Y-69966987D01*
X111138072Y-69945000D01*
X111122929Y-69791255D01*
X111078084Y-69643418D01*
X111005258Y-69507171D01*
X110966546Y-69460000D01*
X111005258Y-69412829D01*
X111078084Y-69276582D01*
X111122929Y-69128745D01*
X111138072Y-68975000D01*
X111138072Y-68959990D01*
X112861928Y-68959990D01*
X112861928Y-68975000D01*
G36*
X135698815Y-66698815D02*
G01*
X135619463Y-66795506D01*
X135560498Y-66905820D01*
X135524188Y-67025518D01*
X135511928Y-67150000D01*
X135515000Y-67714250D01*
X135673750Y-67873000D01*
X136873000Y-67873000D01*
X136873000Y-67853000D01*
X137127000Y-67853000D01*
X137127000Y-67873000D01*
X137147000Y-67873000D01*
X137147000Y-68127000D01*
X137127000Y-68127000D01*
X137127000Y-68147000D01*
X136873000Y-68147000D01*
X136873000Y-68127000D01*
X135673750Y-68127000D01*
X135515000Y-68285750D01*
X135511928Y-68850000D01*
X135524188Y-68974482D01*
X135560498Y-69094180D01*
X135619463Y-69204494D01*
X135698815Y-69301185D01*
X135795506Y-69380537D01*
X135905820Y-69439502D01*
X135978380Y-69461513D01*
X135846525Y-69593368D01*
X135684010Y-69836589D01*
X135620465Y-69990000D01*
X133972964Y-69990000D01*
X133965512Y-69976058D01*
X133945901Y-69952161D01*
X134005537Y-69879494D01*
X134064502Y-69769180D01*
X134100812Y-69649482D01*
X134113072Y-69525000D01*
X134110000Y-69285750D01*
X133951250Y-69127000D01*
X133127000Y-69127000D01*
X133127000Y-69147000D01*
X132873000Y-69147000D01*
X132873000Y-69127000D01*
X132048750Y-69127000D01*
X131890000Y-69285750D01*
X131886928Y-69525000D01*
X131899188Y-69649482D01*
X131935498Y-69769180D01*
X131994463Y-69879494D01*
X132054099Y-69952161D01*
X132034488Y-69976058D01*
X131953577Y-70127433D01*
X131903752Y-70291684D01*
X131886928Y-70462500D01*
X131886928Y-71037500D01*
X131903752Y-71208316D01*
X131913363Y-71240000D01*
X128280332Y-71240000D01*
X128280332Y-71173051D01*
X128240558Y-70973092D01*
X128162537Y-70784734D01*
X128049269Y-70615216D01*
X127905106Y-70471053D01*
X127735588Y-70357785D01*
X127547230Y-70279764D01*
X127347271Y-70239990D01*
X127143393Y-70239990D01*
X126943434Y-70279764D01*
X126755076Y-70357785D01*
X126585558Y-70471053D01*
X126451611Y-70605000D01*
X125765256Y-70605000D01*
X125765256Y-70538051D01*
X125725482Y-70338092D01*
X125647461Y-70149734D01*
X125534193Y-69980216D01*
X125390030Y-69836053D01*
X125220512Y-69722785D01*
X125032154Y-69644764D01*
X124832195Y-69604990D01*
X124628317Y-69604990D01*
X124428358Y-69644764D01*
X124240000Y-69722785D01*
X124070482Y-69836053D01*
X124015532Y-69891003D01*
X123872324Y-69934444D01*
X123805107Y-69970373D01*
X116088072Y-69970373D01*
X116088072Y-69945000D01*
X116072929Y-69791255D01*
X116028084Y-69643418D01*
X115955258Y-69507171D01*
X115916546Y-69460000D01*
X115955258Y-69412829D01*
X116028084Y-69276582D01*
X116072929Y-69128745D01*
X116088072Y-68975000D01*
X116088072Y-68885000D01*
X118027036Y-68885000D01*
X118034488Y-68898942D01*
X118054099Y-68922839D01*
X117994463Y-68995506D01*
X117935498Y-69105820D01*
X117899188Y-69225518D01*
X117886928Y-69350000D01*
X117890000Y-69589250D01*
X118048750Y-69748000D01*
X118873000Y-69748000D01*
X118873000Y-69728000D01*
X119127000Y-69728000D01*
X119127000Y-69748000D01*
X119951250Y-69748000D01*
X120110000Y-69589250D01*
X120113072Y-69350000D01*
X120100812Y-69225518D01*
X120064502Y-69105820D01*
X120005537Y-68995506D01*
X119945901Y-68922839D01*
X119965512Y-68898942D01*
X120046423Y-68747567D01*
X120096248Y-68583316D01*
X120106916Y-68475000D01*
X131886928Y-68475000D01*
X131890000Y-68714250D01*
X132048750Y-68873000D01*
X132873000Y-68873000D01*
X132873000Y-67998750D01*
X133127000Y-67998750D01*
X133127000Y-68873000D01*
X133951250Y-68873000D01*
X134110000Y-68714250D01*
X134113072Y-68475000D01*
X134100812Y-68350518D01*
X134064502Y-68230820D01*
X134005537Y-68120506D01*
X133926185Y-68023815D01*
X133829494Y-67944463D01*
X133719180Y-67885498D01*
X133599482Y-67849188D01*
X133475000Y-67836928D01*
X133285750Y-67840000D01*
X133127000Y-67998750D01*
X132873000Y-67998750D01*
X132714250Y-67840000D01*
X132525000Y-67836928D01*
X132400518Y-67849188D01*
X132280820Y-67885498D01*
X132170506Y-67944463D01*
X132073815Y-68023815D01*
X131994463Y-68120506D01*
X131935498Y-68230820D01*
X131899188Y-68350518D01*
X131886928Y-68475000D01*
X120106916Y-68475000D01*
X120113072Y-68412500D01*
X120113072Y-67837500D01*
X120096248Y-67666684D01*
X120046423Y-67502433D01*
X119965512Y-67351058D01*
X119856623Y-67218377D01*
X119723942Y-67109488D01*
X119572567Y-67028577D01*
X119408316Y-66978752D01*
X119237500Y-66961928D01*
X118762500Y-66961928D01*
X118591684Y-66978752D01*
X118427433Y-67028577D01*
X118276058Y-67109488D01*
X118143377Y-67218377D01*
X118034488Y-67351058D01*
X118027036Y-67365000D01*
X116084132Y-67365000D01*
X116072929Y-67251255D01*
X116028084Y-67103418D01*
X115955258Y-66967171D01*
X115857251Y-66847749D01*
X115737829Y-66749742D01*
X115601582Y-66676916D01*
X115545816Y-66660000D01*
X135746111Y-66660000D01*
X135698815Y-66698815D01*
G37*
X135698815Y-66698815D02*
X135619463Y-66795506D01*
X135560498Y-66905820D01*
X135524188Y-67025518D01*
X135511928Y-67150000D01*
X135515000Y-67714250D01*
X135673750Y-67873000D01*
X136873000Y-67873000D01*
X136873000Y-67853000D01*
X137127000Y-67853000D01*
X137127000Y-67873000D01*
X137147000Y-67873000D01*
X137147000Y-68127000D01*
X137127000Y-68127000D01*
X137127000Y-68147000D01*
X136873000Y-68147000D01*
X136873000Y-68127000D01*
X135673750Y-68127000D01*
X135515000Y-68285750D01*
X135511928Y-68850000D01*
X135524188Y-68974482D01*
X135560498Y-69094180D01*
X135619463Y-69204494D01*
X135698815Y-69301185D01*
X135795506Y-69380537D01*
X135905820Y-69439502D01*
X135978380Y-69461513D01*
X135846525Y-69593368D01*
X135684010Y-69836589D01*
X135620465Y-69990000D01*
X133972964Y-69990000D01*
X133965512Y-69976058D01*
X133945901Y-69952161D01*
X134005537Y-69879494D01*
X134064502Y-69769180D01*
X134100812Y-69649482D01*
X134113072Y-69525000D01*
X134110000Y-69285750D01*
X133951250Y-69127000D01*
X133127000Y-69127000D01*
X133127000Y-69147000D01*
X132873000Y-69147000D01*
X132873000Y-69127000D01*
X132048750Y-69127000D01*
X131890000Y-69285750D01*
X131886928Y-69525000D01*
X131899188Y-69649482D01*
X131935498Y-69769180D01*
X131994463Y-69879494D01*
X132054099Y-69952161D01*
X132034488Y-69976058D01*
X131953577Y-70127433D01*
X131903752Y-70291684D01*
X131886928Y-70462500D01*
X131886928Y-71037500D01*
X131903752Y-71208316D01*
X131913363Y-71240000D01*
X128280332Y-71240000D01*
X128280332Y-71173051D01*
X128240558Y-70973092D01*
X128162537Y-70784734D01*
X128049269Y-70615216D01*
X127905106Y-70471053D01*
X127735588Y-70357785D01*
X127547230Y-70279764D01*
X127347271Y-70239990D01*
X127143393Y-70239990D01*
X126943434Y-70279764D01*
X126755076Y-70357785D01*
X126585558Y-70471053D01*
X126451611Y-70605000D01*
X125765256Y-70605000D01*
X125765256Y-70538051D01*
X125725482Y-70338092D01*
X125647461Y-70149734D01*
X125534193Y-69980216D01*
X125390030Y-69836053D01*
X125220512Y-69722785D01*
X125032154Y-69644764D01*
X124832195Y-69604990D01*
X124628317Y-69604990D01*
X124428358Y-69644764D01*
X124240000Y-69722785D01*
X124070482Y-69836053D01*
X124015532Y-69891003D01*
X123872324Y-69934444D01*
X123805107Y-69970373D01*
X116088072Y-69970373D01*
X116088072Y-69945000D01*
X116072929Y-69791255D01*
X116028084Y-69643418D01*
X115955258Y-69507171D01*
X115916546Y-69460000D01*
X115955258Y-69412829D01*
X116028084Y-69276582D01*
X116072929Y-69128745D01*
X116088072Y-68975000D01*
X116088072Y-68885000D01*
X118027036Y-68885000D01*
X118034488Y-68898942D01*
X118054099Y-68922839D01*
X117994463Y-68995506D01*
X117935498Y-69105820D01*
X117899188Y-69225518D01*
X117886928Y-69350000D01*
X117890000Y-69589250D01*
X118048750Y-69748000D01*
X118873000Y-69748000D01*
X118873000Y-69728000D01*
X119127000Y-69728000D01*
X119127000Y-69748000D01*
X119951250Y-69748000D01*
X120110000Y-69589250D01*
X120113072Y-69350000D01*
X120100812Y-69225518D01*
X120064502Y-69105820D01*
X120005537Y-68995506D01*
X119945901Y-68922839D01*
X119965512Y-68898942D01*
X120046423Y-68747567D01*
X120096248Y-68583316D01*
X120106916Y-68475000D01*
X131886928Y-68475000D01*
X131890000Y-68714250D01*
X132048750Y-68873000D01*
X132873000Y-68873000D01*
X132873000Y-67998750D01*
X133127000Y-67998750D01*
X133127000Y-68873000D01*
X133951250Y-68873000D01*
X134110000Y-68714250D01*
X134113072Y-68475000D01*
X134100812Y-68350518D01*
X134064502Y-68230820D01*
X134005537Y-68120506D01*
X133926185Y-68023815D01*
X133829494Y-67944463D01*
X133719180Y-67885498D01*
X133599482Y-67849188D01*
X133475000Y-67836928D01*
X133285750Y-67840000D01*
X133127000Y-67998750D01*
X132873000Y-67998750D01*
X132714250Y-67840000D01*
X132525000Y-67836928D01*
X132400518Y-67849188D01*
X132280820Y-67885498D01*
X132170506Y-67944463D01*
X132073815Y-68023815D01*
X131994463Y-68120506D01*
X131935498Y-68230820D01*
X131899188Y-68350518D01*
X131886928Y-68475000D01*
X120106916Y-68475000D01*
X120113072Y-68412500D01*
X120113072Y-67837500D01*
X120096248Y-67666684D01*
X120046423Y-67502433D01*
X119965512Y-67351058D01*
X119856623Y-67218377D01*
X119723942Y-67109488D01*
X119572567Y-67028577D01*
X119408316Y-66978752D01*
X119237500Y-66961928D01*
X118762500Y-66961928D01*
X118591684Y-66978752D01*
X118427433Y-67028577D01*
X118276058Y-67109488D01*
X118143377Y-67218377D01*
X118034488Y-67351058D01*
X118027036Y-67365000D01*
X116084132Y-67365000D01*
X116072929Y-67251255D01*
X116028084Y-67103418D01*
X115955258Y-66967171D01*
X115857251Y-66847749D01*
X115737829Y-66749742D01*
X115601582Y-66676916D01*
X115545816Y-66660000D01*
X135746111Y-66660000D01*
X135698815Y-66698815D01*
G36*
X86698815Y-69301185D02*
G01*
X86795506Y-69380537D01*
X86905820Y-69439502D01*
X86978380Y-69461513D01*
X86846525Y-69593368D01*
X86684010Y-69836589D01*
X86660000Y-69894555D01*
X86660000Y-69253889D01*
X86698815Y-69301185D01*
G37*
X86698815Y-69301185D02*
X86795506Y-69380537D01*
X86905820Y-69439502D01*
X86978380Y-69461513D01*
X86846525Y-69593368D01*
X86684010Y-69836589D01*
X86660000Y-69894555D01*
X86660000Y-69253889D01*
X86698815Y-69301185D01*
G36*
X138340000Y-69894555D02*
G01*
X138315990Y-69836589D01*
X138153475Y-69593368D01*
X138021620Y-69461513D01*
X138094180Y-69439502D01*
X138204494Y-69380537D01*
X138301185Y-69301185D01*
X138340000Y-69253889D01*
X138340000Y-69894555D01*
G37*
X138340000Y-69894555D02*
X138315990Y-69836589D01*
X138153475Y-69593368D01*
X138021620Y-69461513D01*
X138094180Y-69439502D01*
X138204494Y-69380537D01*
X138301185Y-69301185D01*
X138340000Y-69253889D01*
X138340000Y-69894555D01*
G36*
X108398418Y-66676916D02*
G01*
X108262171Y-66749742D01*
X108207024Y-66795000D01*
X92224403Y-66795000D01*
X92187080Y-66791324D01*
X92149757Y-66795000D01*
X92149748Y-66795000D01*
X92038095Y-66805997D01*
X91894834Y-66849454D01*
X91762805Y-66920026D01*
X91762803Y-66920027D01*
X91762804Y-66920027D01*
X91676077Y-66991201D01*
X91676073Y-66991205D01*
X91647080Y-67014999D01*
X91623286Y-67043992D01*
X89113693Y-69553586D01*
X89021620Y-69461513D01*
X89094180Y-69439502D01*
X89204494Y-69380537D01*
X89301185Y-69301185D01*
X89380537Y-69204494D01*
X89439502Y-69094180D01*
X89475812Y-68974482D01*
X89488072Y-68850000D01*
X89485000Y-68285750D01*
X89326250Y-68127000D01*
X88127000Y-68127000D01*
X88127000Y-68147000D01*
X87873000Y-68147000D01*
X87873000Y-68127000D01*
X87853000Y-68127000D01*
X87853000Y-67873000D01*
X87873000Y-67873000D01*
X87873000Y-67853000D01*
X88127000Y-67853000D01*
X88127000Y-67873000D01*
X89326250Y-67873000D01*
X89485000Y-67714250D01*
X89488072Y-67150000D01*
X89475812Y-67025518D01*
X89439502Y-66905820D01*
X89380537Y-66795506D01*
X89301185Y-66698815D01*
X89253889Y-66660000D01*
X108454184Y-66660000D01*
X108398418Y-66676916D01*
G37*
X108398418Y-66676916D02*
X108262171Y-66749742D01*
X108207024Y-66795000D01*
X92224403Y-66795000D01*
X92187080Y-66791324D01*
X92149757Y-66795000D01*
X92149748Y-66795000D01*
X92038095Y-66805997D01*
X91894834Y-66849454D01*
X91762805Y-66920026D01*
X91762803Y-66920027D01*
X91762804Y-66920027D01*
X91676077Y-66991201D01*
X91676073Y-66991205D01*
X91647080Y-67014999D01*
X91623286Y-67043992D01*
X89113693Y-69553586D01*
X89021620Y-69461513D01*
X89094180Y-69439502D01*
X89204494Y-69380537D01*
X89301185Y-69301185D01*
X89380537Y-69204494D01*
X89439502Y-69094180D01*
X89475812Y-68974482D01*
X89488072Y-68850000D01*
X89485000Y-68285750D01*
X89326250Y-68127000D01*
X88127000Y-68127000D01*
X88127000Y-68147000D01*
X87873000Y-68147000D01*
X87873000Y-68127000D01*
X87853000Y-68127000D01*
X87853000Y-67873000D01*
X87873000Y-67873000D01*
X87873000Y-67853000D01*
X88127000Y-67853000D01*
X88127000Y-67873000D01*
X89326250Y-67873000D01*
X89485000Y-67714250D01*
X89488072Y-67150000D01*
X89475812Y-67025518D01*
X89439502Y-66905820D01*
X89380537Y-66795506D01*
X89301185Y-66698815D01*
X89253889Y-66660000D01*
X108454184Y-66660000D01*
X108398418Y-66676916D01*
M02*
