G04 #@! TF.GenerationSoftware,KiCad,Pcbnew,5.1.5-52549c5~84~ubuntu18.04.1*
G04 #@! TF.CreationDate,2020-03-03T19:20:35-07:00*
G04 #@! TF.ProjectId,transmitter-test,7472616e-736d-4697-9474-65722d746573,rev?*
G04 #@! TF.SameCoordinates,Original*
G04 #@! TF.FileFunction,Copper,L2,Bot*
G04 #@! TF.FilePolarity,Positive*
%FSLAX46Y46*%
G04 Gerber Fmt 4.6, Leading zero omitted, Abs format (unit mm)*
G04 Created by KiCad (PCBNEW 5.1.5-52549c5~84~ubuntu18.04.1) date 2020-03-03 19:20:35*
%MOMM*%
%LPD*%
G04 APERTURE LIST*
%ADD10O,1.700000X1.700000*%
%ADD11R,1.700000X1.700000*%
%ADD12C,1.500000*%
%ADD13R,1.500000X1.500000*%
%ADD14C,0.800000*%
%ADD15C,0.250000*%
%ADD16C,0.254000*%
G04 APERTURE END LIST*
D10*
X137000000Y-94540000D03*
D11*
X137000000Y-92000000D03*
D10*
X137000000Y-86540000D03*
D11*
X137000000Y-84000000D03*
D10*
X137000000Y-78540000D03*
D11*
X137000000Y-76000000D03*
D10*
X137000000Y-70540000D03*
D11*
X137000000Y-68000000D03*
D12*
X125890000Y-80460000D03*
X124620000Y-83000000D03*
X123350000Y-80460000D03*
X122080000Y-83000000D03*
X120810000Y-80460000D03*
X119540000Y-83000000D03*
X118270000Y-80460000D03*
D13*
X117000000Y-83000000D03*
D12*
X106890000Y-80460000D03*
X105620000Y-83000000D03*
X104350000Y-80460000D03*
X103080000Y-83000000D03*
X101810000Y-80460000D03*
X100540000Y-83000000D03*
X99270000Y-80460000D03*
D13*
X98000000Y-83000000D03*
D10*
X88000000Y-95540000D03*
D11*
X88000000Y-93000000D03*
D10*
X88000000Y-88000000D03*
D11*
X88000000Y-85460000D03*
D10*
X88000000Y-80540000D03*
D11*
X88000000Y-78000000D03*
D10*
X88000000Y-73080000D03*
X88000000Y-70540000D03*
D11*
X88000000Y-68000000D03*
D14*
X112250000Y-76750000D03*
X112500000Y-69750000D03*
X111250000Y-71000000D03*
X111500000Y-67250000D03*
X104500000Y-72000000D03*
X103250000Y-79000000D03*
X131250000Y-86750000D03*
X131250000Y-95000000D03*
X91500000Y-78500000D03*
X93000000Y-68750000D03*
X107000000Y-72750000D03*
X105500000Y-74000000D03*
X99250000Y-70000000D03*
X98000000Y-69250000D03*
X127245332Y-71274990D03*
X124730256Y-70639990D03*
X118250000Y-74000000D03*
X116750000Y-75250000D03*
D15*
X112250000Y-76750000D02*
X112250000Y-70000000D01*
X112250000Y-70000000D02*
X112500000Y-69750000D01*
X111250000Y-71000000D02*
X111250000Y-67500000D01*
X111250000Y-67500000D02*
X111500000Y-67250000D01*
X104350000Y-80460000D02*
X104350000Y-72150000D01*
X104350000Y-72150000D02*
X104500000Y-72000000D01*
X103080000Y-83000000D02*
X103080000Y-79170000D01*
X103080000Y-79170000D02*
X103250000Y-79000000D01*
X126778998Y-86750000D02*
X131250000Y-86750000D01*
X123350000Y-80460000D02*
X123350000Y-83321002D01*
X123350000Y-83321002D02*
X126778998Y-86750000D01*
X129960998Y-95000000D02*
X131250000Y-95000000D01*
X122080000Y-83000000D02*
X122080000Y-87119002D01*
X122080000Y-87119002D02*
X129960998Y-95000000D01*
X91500000Y-84500000D02*
X88000000Y-88000000D01*
X91500000Y-78500000D02*
X91500000Y-84500000D01*
X92600001Y-90939999D02*
X88849999Y-94690001D01*
X88849999Y-94690001D02*
X88000000Y-95540000D01*
X93000000Y-68750000D02*
X92600001Y-69149999D01*
X92600001Y-69149999D02*
X92600001Y-90939999D01*
X106890000Y-72860000D02*
X107000000Y-72750000D01*
X106890000Y-80460000D02*
X106890000Y-72860000D01*
X105500000Y-82880000D02*
X105620000Y-83000000D01*
X105500000Y-74000000D02*
X105500000Y-82880000D01*
X99250000Y-80440000D02*
X99270000Y-80460000D01*
X99250000Y-70000000D02*
X99250000Y-80440000D01*
X98000000Y-69250000D02*
X98000000Y-83000000D01*
X125890000Y-80460000D02*
X125890000Y-72630322D01*
X125890000Y-72630322D02*
X127245332Y-71274990D01*
X124620000Y-83000000D02*
X124620000Y-70750246D01*
X124620000Y-70750246D02*
X124730256Y-70639990D01*
X118250000Y-80440000D02*
X118270000Y-80460000D01*
X118250000Y-74000000D02*
X118250000Y-80440000D01*
X116750000Y-82750000D02*
X117000000Y-83000000D01*
X116750000Y-75250000D02*
X116750000Y-82750000D01*
D16*
G36*
X110582795Y-66759744D02*
G01*
X110504774Y-66948102D01*
X110465000Y-67148061D01*
X110465000Y-67351939D01*
X110489015Y-67472674D01*
X110486324Y-67500000D01*
X110490001Y-67537332D01*
X110490000Y-70296289D01*
X110446063Y-70340226D01*
X110332795Y-70509744D01*
X110254774Y-70698102D01*
X110215000Y-70898061D01*
X110215000Y-71101939D01*
X110254774Y-71301898D01*
X110332795Y-71490256D01*
X110446063Y-71659774D01*
X110590226Y-71803937D01*
X110759744Y-71917205D01*
X110948102Y-71995226D01*
X111148061Y-72035000D01*
X111351939Y-72035000D01*
X111551898Y-71995226D01*
X111740256Y-71917205D01*
X111909774Y-71803937D01*
X112053937Y-71659774D01*
X112167205Y-71490256D01*
X112245226Y-71301898D01*
X112285000Y-71101939D01*
X112285000Y-70898061D01*
X112245226Y-70698102D01*
X112167205Y-70509744D01*
X112053937Y-70340226D01*
X112010000Y-70296289D01*
X112010000Y-68154013D01*
X112159774Y-68053937D01*
X112303937Y-67909774D01*
X112417205Y-67740256D01*
X112495226Y-67551898D01*
X112535000Y-67351939D01*
X112535000Y-67148061D01*
X112495226Y-66948102D01*
X112417205Y-66759744D01*
X112350558Y-66660000D01*
X135746111Y-66660000D01*
X135698815Y-66698815D01*
X135619463Y-66795506D01*
X135560498Y-66905820D01*
X135524188Y-67025518D01*
X135511928Y-67150000D01*
X135515000Y-67714250D01*
X135673750Y-67873000D01*
X136873000Y-67873000D01*
X136873000Y-67853000D01*
X137127000Y-67853000D01*
X137127000Y-67873000D01*
X137147000Y-67873000D01*
X137147000Y-68127000D01*
X137127000Y-68127000D01*
X137127000Y-68147000D01*
X136873000Y-68147000D01*
X136873000Y-68127000D01*
X135673750Y-68127000D01*
X135515000Y-68285750D01*
X135511928Y-68850000D01*
X135524188Y-68974482D01*
X135560498Y-69094180D01*
X135619463Y-69204494D01*
X135698815Y-69301185D01*
X135795506Y-69380537D01*
X135905820Y-69439502D01*
X135978380Y-69461513D01*
X135846525Y-69593368D01*
X135684010Y-69836589D01*
X135572068Y-70106842D01*
X135515000Y-70393740D01*
X135515000Y-70686260D01*
X135572068Y-70973158D01*
X135684010Y-71243411D01*
X135846525Y-71486632D01*
X136053368Y-71693475D01*
X136296589Y-71855990D01*
X136566842Y-71967932D01*
X136853740Y-72025000D01*
X137146260Y-72025000D01*
X137433158Y-71967932D01*
X137703411Y-71855990D01*
X137946632Y-71693475D01*
X138153475Y-71486632D01*
X138315990Y-71243411D01*
X138340000Y-71185445D01*
X138340000Y-74746112D01*
X138301185Y-74698815D01*
X138204494Y-74619463D01*
X138094180Y-74560498D01*
X137974482Y-74524188D01*
X137850000Y-74511928D01*
X137285750Y-74515000D01*
X137127000Y-74673750D01*
X137127000Y-75873000D01*
X137147000Y-75873000D01*
X137147000Y-76127000D01*
X137127000Y-76127000D01*
X137127000Y-76147000D01*
X136873000Y-76147000D01*
X136873000Y-76127000D01*
X135673750Y-76127000D01*
X135515000Y-76285750D01*
X135511928Y-76850000D01*
X135524188Y-76974482D01*
X135560498Y-77094180D01*
X135619463Y-77204494D01*
X135698815Y-77301185D01*
X135795506Y-77380537D01*
X135905820Y-77439502D01*
X135978380Y-77461513D01*
X135846525Y-77593368D01*
X135684010Y-77836589D01*
X135572068Y-78106842D01*
X135515000Y-78393740D01*
X135515000Y-78686260D01*
X135572068Y-78973158D01*
X135684010Y-79243411D01*
X135846525Y-79486632D01*
X136053368Y-79693475D01*
X136296589Y-79855990D01*
X136566842Y-79967932D01*
X136853740Y-80025000D01*
X137146260Y-80025000D01*
X137433158Y-79967932D01*
X137703411Y-79855990D01*
X137946632Y-79693475D01*
X138153475Y-79486632D01*
X138315990Y-79243411D01*
X138340000Y-79185444D01*
X138340001Y-82746112D01*
X138301185Y-82698815D01*
X138204494Y-82619463D01*
X138094180Y-82560498D01*
X137974482Y-82524188D01*
X137850000Y-82511928D01*
X137285750Y-82515000D01*
X137127000Y-82673750D01*
X137127000Y-83873000D01*
X137147000Y-83873000D01*
X137147000Y-84127000D01*
X137127000Y-84127000D01*
X137127000Y-84147000D01*
X136873000Y-84147000D01*
X136873000Y-84127000D01*
X135673750Y-84127000D01*
X135515000Y-84285750D01*
X135511928Y-84850000D01*
X135524188Y-84974482D01*
X135560498Y-85094180D01*
X135619463Y-85204494D01*
X135698815Y-85301185D01*
X135795506Y-85380537D01*
X135905820Y-85439502D01*
X135978380Y-85461513D01*
X135846525Y-85593368D01*
X135684010Y-85836589D01*
X135572068Y-86106842D01*
X135515000Y-86393740D01*
X135515000Y-86686260D01*
X135572068Y-86973158D01*
X135684010Y-87243411D01*
X135846525Y-87486632D01*
X136053368Y-87693475D01*
X136296589Y-87855990D01*
X136566842Y-87967932D01*
X136853740Y-88025000D01*
X137146260Y-88025000D01*
X137433158Y-87967932D01*
X137703411Y-87855990D01*
X137946632Y-87693475D01*
X138153475Y-87486632D01*
X138315990Y-87243411D01*
X138340001Y-87185444D01*
X138340001Y-90746112D01*
X138301185Y-90698815D01*
X138204494Y-90619463D01*
X138094180Y-90560498D01*
X137974482Y-90524188D01*
X137850000Y-90511928D01*
X137285750Y-90515000D01*
X137127000Y-90673750D01*
X137127000Y-91873000D01*
X137147000Y-91873000D01*
X137147000Y-92127000D01*
X137127000Y-92127000D01*
X137127000Y-92147000D01*
X136873000Y-92147000D01*
X136873000Y-92127000D01*
X135673750Y-92127000D01*
X135515000Y-92285750D01*
X135511928Y-92850000D01*
X135524188Y-92974482D01*
X135560498Y-93094180D01*
X135619463Y-93204494D01*
X135698815Y-93301185D01*
X135795506Y-93380537D01*
X135905820Y-93439502D01*
X135978380Y-93461513D01*
X135846525Y-93593368D01*
X135684010Y-93836589D01*
X135572068Y-94106842D01*
X135515000Y-94393740D01*
X135515000Y-94686260D01*
X135572068Y-94973158D01*
X135684010Y-95243411D01*
X135846525Y-95486632D01*
X136053368Y-95693475D01*
X136296589Y-95855990D01*
X136566842Y-95967932D01*
X136853740Y-96025000D01*
X137146260Y-96025000D01*
X137433158Y-95967932D01*
X137703411Y-95855990D01*
X137946632Y-95693475D01*
X138153475Y-95486632D01*
X138315990Y-95243411D01*
X138340001Y-95185443D01*
X138340001Y-97090000D01*
X86660000Y-97090000D01*
X86660000Y-96185445D01*
X86684010Y-96243411D01*
X86846525Y-96486632D01*
X87053368Y-96693475D01*
X87296589Y-96855990D01*
X87566842Y-96967932D01*
X87853740Y-97025000D01*
X88146260Y-97025000D01*
X88433158Y-96967932D01*
X88703411Y-96855990D01*
X88946632Y-96693475D01*
X89153475Y-96486632D01*
X89315990Y-96243411D01*
X89427932Y-95973158D01*
X89485000Y-95686260D01*
X89485000Y-95393740D01*
X89441209Y-95173592D01*
X93111004Y-91503798D01*
X93140002Y-91480000D01*
X93234975Y-91364275D01*
X93305547Y-91232246D01*
X93349004Y-91088985D01*
X93360001Y-90977332D01*
X93360001Y-90977324D01*
X93363677Y-90939999D01*
X93360001Y-90902674D01*
X93360001Y-89129872D01*
X94495000Y-89129872D01*
X94495000Y-89570128D01*
X94580890Y-90001925D01*
X94749369Y-90408669D01*
X94993962Y-90774729D01*
X95305271Y-91086038D01*
X95671331Y-91330631D01*
X96078075Y-91499110D01*
X96509872Y-91585000D01*
X96950128Y-91585000D01*
X97381925Y-91499110D01*
X97788669Y-91330631D01*
X98154729Y-91086038D01*
X98466038Y-90774729D01*
X98710631Y-90408669D01*
X98879110Y-90001925D01*
X98965000Y-89570128D01*
X98965000Y-89129872D01*
X105925000Y-89129872D01*
X105925000Y-89570128D01*
X106010890Y-90001925D01*
X106179369Y-90408669D01*
X106423962Y-90774729D01*
X106735271Y-91086038D01*
X107101331Y-91330631D01*
X107508075Y-91499110D01*
X107939872Y-91585000D01*
X108380128Y-91585000D01*
X108811925Y-91499110D01*
X109218669Y-91330631D01*
X109584729Y-91086038D01*
X109896038Y-90774729D01*
X110140631Y-90408669D01*
X110309110Y-90001925D01*
X110395000Y-89570128D01*
X110395000Y-89129872D01*
X113495000Y-89129872D01*
X113495000Y-89570128D01*
X113580890Y-90001925D01*
X113749369Y-90408669D01*
X113993962Y-90774729D01*
X114305271Y-91086038D01*
X114671331Y-91330631D01*
X115078075Y-91499110D01*
X115509872Y-91585000D01*
X115950128Y-91585000D01*
X116381925Y-91499110D01*
X116788669Y-91330631D01*
X117154729Y-91086038D01*
X117466038Y-90774729D01*
X117710631Y-90408669D01*
X117879110Y-90001925D01*
X117965000Y-89570128D01*
X117965000Y-89129872D01*
X117879110Y-88698075D01*
X117710631Y-88291331D01*
X117466038Y-87925271D01*
X117154729Y-87613962D01*
X116788669Y-87369369D01*
X116381925Y-87200890D01*
X115950128Y-87115000D01*
X115509872Y-87115000D01*
X115078075Y-87200890D01*
X114671331Y-87369369D01*
X114305271Y-87613962D01*
X113993962Y-87925271D01*
X113749369Y-88291331D01*
X113580890Y-88698075D01*
X113495000Y-89129872D01*
X110395000Y-89129872D01*
X110309110Y-88698075D01*
X110140631Y-88291331D01*
X109896038Y-87925271D01*
X109584729Y-87613962D01*
X109218669Y-87369369D01*
X108811925Y-87200890D01*
X108380128Y-87115000D01*
X107939872Y-87115000D01*
X107508075Y-87200890D01*
X107101331Y-87369369D01*
X106735271Y-87613962D01*
X106423962Y-87925271D01*
X106179369Y-88291331D01*
X106010890Y-88698075D01*
X105925000Y-89129872D01*
X98965000Y-89129872D01*
X98879110Y-88698075D01*
X98710631Y-88291331D01*
X98466038Y-87925271D01*
X98154729Y-87613962D01*
X97788669Y-87369369D01*
X97381925Y-87200890D01*
X96950128Y-87115000D01*
X96509872Y-87115000D01*
X96078075Y-87200890D01*
X95671331Y-87369369D01*
X95305271Y-87613962D01*
X94993962Y-87925271D01*
X94749369Y-88291331D01*
X94580890Y-88698075D01*
X94495000Y-89129872D01*
X93360001Y-89129872D01*
X93360001Y-82250000D01*
X96611928Y-82250000D01*
X96611928Y-83750000D01*
X96624188Y-83874482D01*
X96660498Y-83994180D01*
X96719463Y-84104494D01*
X96798815Y-84201185D01*
X96895506Y-84280537D01*
X97005820Y-84339502D01*
X97125518Y-84375812D01*
X97250000Y-84388072D01*
X98750000Y-84388072D01*
X98874482Y-84375812D01*
X98994180Y-84339502D01*
X99104494Y-84280537D01*
X99201185Y-84201185D01*
X99280537Y-84104494D01*
X99339502Y-83994180D01*
X99350782Y-83956993D01*
X99762612Y-83956993D01*
X99828137Y-84195860D01*
X100075116Y-84311760D01*
X100339960Y-84377250D01*
X100612492Y-84389812D01*
X100882238Y-84348965D01*
X101138832Y-84256277D01*
X101251863Y-84195860D01*
X101317388Y-83956993D01*
X100540000Y-83179605D01*
X99762612Y-83956993D01*
X99350782Y-83956993D01*
X99375812Y-83874482D01*
X99388072Y-83750000D01*
X99388072Y-83723914D01*
X99583007Y-83777388D01*
X100360395Y-83000000D01*
X100719605Y-83000000D01*
X101496993Y-83777388D01*
X101735860Y-83711863D01*
X101810164Y-83553523D01*
X101852629Y-83656043D01*
X102004201Y-83882886D01*
X102197114Y-84075799D01*
X102423957Y-84227371D01*
X102676011Y-84331775D01*
X102943589Y-84385000D01*
X103216411Y-84385000D01*
X103483989Y-84331775D01*
X103736043Y-84227371D01*
X103962886Y-84075799D01*
X104155799Y-83882886D01*
X104307371Y-83656043D01*
X104350000Y-83553127D01*
X104392629Y-83656043D01*
X104544201Y-83882886D01*
X104737114Y-84075799D01*
X104963957Y-84227371D01*
X105216011Y-84331775D01*
X105483589Y-84385000D01*
X105756411Y-84385000D01*
X106023989Y-84331775D01*
X106276043Y-84227371D01*
X106502886Y-84075799D01*
X106695799Y-83882886D01*
X106847371Y-83656043D01*
X106951775Y-83403989D01*
X107005000Y-83136411D01*
X107005000Y-82863589D01*
X106951775Y-82596011D01*
X106847371Y-82343957D01*
X106784591Y-82250000D01*
X115611928Y-82250000D01*
X115611928Y-83750000D01*
X115624188Y-83874482D01*
X115660498Y-83994180D01*
X115719463Y-84104494D01*
X115798815Y-84201185D01*
X115895506Y-84280537D01*
X116005820Y-84339502D01*
X116125518Y-84375812D01*
X116250000Y-84388072D01*
X117750000Y-84388072D01*
X117874482Y-84375812D01*
X117994180Y-84339502D01*
X118104494Y-84280537D01*
X118201185Y-84201185D01*
X118280537Y-84104494D01*
X118339502Y-83994180D01*
X118350782Y-83956993D01*
X118762612Y-83956993D01*
X118828137Y-84195860D01*
X119075116Y-84311760D01*
X119339960Y-84377250D01*
X119612492Y-84389812D01*
X119882238Y-84348965D01*
X120138832Y-84256277D01*
X120251863Y-84195860D01*
X120317388Y-83956993D01*
X119540000Y-83179605D01*
X118762612Y-83956993D01*
X118350782Y-83956993D01*
X118375812Y-83874482D01*
X118388072Y-83750000D01*
X118388072Y-83723914D01*
X118583007Y-83777388D01*
X119360395Y-83000000D01*
X119719605Y-83000000D01*
X120496993Y-83777388D01*
X120735860Y-83711863D01*
X120810164Y-83553523D01*
X120852629Y-83656043D01*
X121004201Y-83882886D01*
X121197114Y-84075799D01*
X121320000Y-84157909D01*
X121320001Y-87081670D01*
X121316324Y-87119002D01*
X121320001Y-87156335D01*
X121330998Y-87267988D01*
X121339674Y-87296589D01*
X121374454Y-87411248D01*
X121445026Y-87543278D01*
X121503036Y-87613962D01*
X121540000Y-87659003D01*
X121568998Y-87682801D01*
X129397199Y-95511003D01*
X129420997Y-95540001D01*
X129536722Y-95634974D01*
X129668751Y-95705546D01*
X129812012Y-95749003D01*
X129923665Y-95760000D01*
X129923674Y-95760000D01*
X129960997Y-95763676D01*
X129998320Y-95760000D01*
X130546289Y-95760000D01*
X130590226Y-95803937D01*
X130759744Y-95917205D01*
X130948102Y-95995226D01*
X131148061Y-96035000D01*
X131351939Y-96035000D01*
X131551898Y-95995226D01*
X131740256Y-95917205D01*
X131909774Y-95803937D01*
X132053937Y-95659774D01*
X132167205Y-95490256D01*
X132245226Y-95301898D01*
X132285000Y-95101939D01*
X132285000Y-94898061D01*
X132245226Y-94698102D01*
X132167205Y-94509744D01*
X132053937Y-94340226D01*
X131909774Y-94196063D01*
X131740256Y-94082795D01*
X131551898Y-94004774D01*
X131351939Y-93965000D01*
X131148061Y-93965000D01*
X130948102Y-94004774D01*
X130759744Y-94082795D01*
X130590226Y-94196063D01*
X130546289Y-94240000D01*
X130275800Y-94240000D01*
X127580870Y-91545070D01*
X127811925Y-91499110D01*
X128218669Y-91330631D01*
X128489002Y-91150000D01*
X135511928Y-91150000D01*
X135515000Y-91714250D01*
X135673750Y-91873000D01*
X136873000Y-91873000D01*
X136873000Y-90673750D01*
X136714250Y-90515000D01*
X136150000Y-90511928D01*
X136025518Y-90524188D01*
X135905820Y-90560498D01*
X135795506Y-90619463D01*
X135698815Y-90698815D01*
X135619463Y-90795506D01*
X135560498Y-90905820D01*
X135524188Y-91025518D01*
X135511928Y-91150000D01*
X128489002Y-91150000D01*
X128584729Y-91086038D01*
X128896038Y-90774729D01*
X129140631Y-90408669D01*
X129309110Y-90001925D01*
X129395000Y-89570128D01*
X129395000Y-89129872D01*
X129309110Y-88698075D01*
X129140631Y-88291331D01*
X128896038Y-87925271D01*
X128584729Y-87613962D01*
X128429139Y-87510000D01*
X130546289Y-87510000D01*
X130590226Y-87553937D01*
X130759744Y-87667205D01*
X130948102Y-87745226D01*
X131148061Y-87785000D01*
X131351939Y-87785000D01*
X131551898Y-87745226D01*
X131740256Y-87667205D01*
X131909774Y-87553937D01*
X132053937Y-87409774D01*
X132167205Y-87240256D01*
X132245226Y-87051898D01*
X132285000Y-86851939D01*
X132285000Y-86648061D01*
X132245226Y-86448102D01*
X132167205Y-86259744D01*
X132053937Y-86090226D01*
X131909774Y-85946063D01*
X131740256Y-85832795D01*
X131551898Y-85754774D01*
X131351939Y-85715000D01*
X131148061Y-85715000D01*
X130948102Y-85754774D01*
X130759744Y-85832795D01*
X130590226Y-85946063D01*
X130546289Y-85990000D01*
X127093801Y-85990000D01*
X125309090Y-84205290D01*
X125502886Y-84075799D01*
X125695799Y-83882886D01*
X125847371Y-83656043D01*
X125951775Y-83403989D01*
X126002296Y-83150000D01*
X135511928Y-83150000D01*
X135515000Y-83714250D01*
X135673750Y-83873000D01*
X136873000Y-83873000D01*
X136873000Y-82673750D01*
X136714250Y-82515000D01*
X136150000Y-82511928D01*
X136025518Y-82524188D01*
X135905820Y-82560498D01*
X135795506Y-82619463D01*
X135698815Y-82698815D01*
X135619463Y-82795506D01*
X135560498Y-82905820D01*
X135524188Y-83025518D01*
X135511928Y-83150000D01*
X126002296Y-83150000D01*
X126005000Y-83136411D01*
X126005000Y-82863589D01*
X125951775Y-82596011D01*
X125847371Y-82343957D01*
X125695799Y-82117114D01*
X125502886Y-81924201D01*
X125380000Y-81842091D01*
X125380000Y-81747864D01*
X125486011Y-81791775D01*
X125753589Y-81845000D01*
X126026411Y-81845000D01*
X126293989Y-81791775D01*
X126546043Y-81687371D01*
X126772886Y-81535799D01*
X126965799Y-81342886D01*
X127117371Y-81116043D01*
X127221775Y-80863989D01*
X127275000Y-80596411D01*
X127275000Y-80323589D01*
X127221775Y-80056011D01*
X127117371Y-79803957D01*
X126965799Y-79577114D01*
X126772886Y-79384201D01*
X126650000Y-79302091D01*
X126650000Y-75150000D01*
X135511928Y-75150000D01*
X135515000Y-75714250D01*
X135673750Y-75873000D01*
X136873000Y-75873000D01*
X136873000Y-74673750D01*
X136714250Y-74515000D01*
X136150000Y-74511928D01*
X136025518Y-74524188D01*
X135905820Y-74560498D01*
X135795506Y-74619463D01*
X135698815Y-74698815D01*
X135619463Y-74795506D01*
X135560498Y-74905820D01*
X135524188Y-75025518D01*
X135511928Y-75150000D01*
X126650000Y-75150000D01*
X126650000Y-72945123D01*
X127285134Y-72309990D01*
X127347271Y-72309990D01*
X127547230Y-72270216D01*
X127735588Y-72192195D01*
X127905106Y-72078927D01*
X128049269Y-71934764D01*
X128162537Y-71765246D01*
X128240558Y-71576888D01*
X128280332Y-71376929D01*
X128280332Y-71173051D01*
X128240558Y-70973092D01*
X128162537Y-70784734D01*
X128049269Y-70615216D01*
X127905106Y-70471053D01*
X127735588Y-70357785D01*
X127547230Y-70279764D01*
X127347271Y-70239990D01*
X127143393Y-70239990D01*
X126943434Y-70279764D01*
X126755076Y-70357785D01*
X126585558Y-70471053D01*
X126441395Y-70615216D01*
X126328127Y-70784734D01*
X126250106Y-70973092D01*
X126210332Y-71173051D01*
X126210332Y-71235188D01*
X125380000Y-72065521D01*
X125380000Y-71450629D01*
X125390030Y-71443927D01*
X125534193Y-71299764D01*
X125647461Y-71130246D01*
X125725482Y-70941888D01*
X125765256Y-70741929D01*
X125765256Y-70538051D01*
X125725482Y-70338092D01*
X125647461Y-70149734D01*
X125534193Y-69980216D01*
X125390030Y-69836053D01*
X125220512Y-69722785D01*
X125032154Y-69644764D01*
X124832195Y-69604990D01*
X124628317Y-69604990D01*
X124428358Y-69644764D01*
X124240000Y-69722785D01*
X124070482Y-69836053D01*
X123926319Y-69980216D01*
X123813051Y-70149734D01*
X123735030Y-70338092D01*
X123695256Y-70538051D01*
X123695256Y-70741929D01*
X123735030Y-70941888D01*
X123813051Y-71130246D01*
X123860001Y-71200512D01*
X123860000Y-79172136D01*
X123753989Y-79128225D01*
X123486411Y-79075000D01*
X123213589Y-79075000D01*
X122946011Y-79128225D01*
X122693957Y-79232629D01*
X122467114Y-79384201D01*
X122274201Y-79577114D01*
X122122629Y-79803957D01*
X122081489Y-79903279D01*
X122066277Y-79861168D01*
X122005860Y-79748137D01*
X121766993Y-79682612D01*
X120989605Y-80460000D01*
X121766993Y-81237388D01*
X122005860Y-81171863D01*
X122080164Y-81013523D01*
X122122629Y-81116043D01*
X122274201Y-81342886D01*
X122467114Y-81535799D01*
X122590000Y-81617909D01*
X122590000Y-81712136D01*
X122483989Y-81668225D01*
X122216411Y-81615000D01*
X121943589Y-81615000D01*
X121676011Y-81668225D01*
X121423957Y-81772629D01*
X121197114Y-81924201D01*
X121004201Y-82117114D01*
X120852629Y-82343957D01*
X120811489Y-82443279D01*
X120796277Y-82401168D01*
X120735860Y-82288137D01*
X120496993Y-82222612D01*
X119719605Y-83000000D01*
X119360395Y-83000000D01*
X118583007Y-82222612D01*
X118388072Y-82276086D01*
X118388072Y-82250000D01*
X118375812Y-82125518D01*
X118350783Y-82043007D01*
X118762612Y-82043007D01*
X119540000Y-82820395D01*
X120317388Y-82043007D01*
X120251863Y-81804140D01*
X120004884Y-81688240D01*
X119740040Y-81622750D01*
X119467508Y-81610188D01*
X119197762Y-81651035D01*
X118941168Y-81743723D01*
X118828137Y-81804140D01*
X118762612Y-82043007D01*
X118350783Y-82043007D01*
X118339502Y-82005820D01*
X118280537Y-81895506D01*
X118239088Y-81845000D01*
X118406411Y-81845000D01*
X118673989Y-81791775D01*
X118926043Y-81687371D01*
X119152886Y-81535799D01*
X119271692Y-81416993D01*
X120032612Y-81416993D01*
X120098137Y-81655860D01*
X120345116Y-81771760D01*
X120609960Y-81837250D01*
X120882492Y-81849812D01*
X121152238Y-81808965D01*
X121408832Y-81716277D01*
X121521863Y-81655860D01*
X121587388Y-81416993D01*
X120810000Y-80639605D01*
X120032612Y-81416993D01*
X119271692Y-81416993D01*
X119345799Y-81342886D01*
X119497371Y-81116043D01*
X119538511Y-81016721D01*
X119553723Y-81058832D01*
X119614140Y-81171863D01*
X119853007Y-81237388D01*
X120630395Y-80460000D01*
X119853007Y-79682612D01*
X119614140Y-79748137D01*
X119539836Y-79906477D01*
X119497371Y-79803957D01*
X119345799Y-79577114D01*
X119271692Y-79503007D01*
X120032612Y-79503007D01*
X120810000Y-80280395D01*
X121587388Y-79503007D01*
X121521863Y-79264140D01*
X121274884Y-79148240D01*
X121010040Y-79082750D01*
X120737508Y-79070188D01*
X120467762Y-79111035D01*
X120211168Y-79203723D01*
X120098137Y-79264140D01*
X120032612Y-79503007D01*
X119271692Y-79503007D01*
X119152886Y-79384201D01*
X119010000Y-79288727D01*
X119010000Y-74703711D01*
X119053937Y-74659774D01*
X119167205Y-74490256D01*
X119245226Y-74301898D01*
X119285000Y-74101939D01*
X119285000Y-73898061D01*
X119245226Y-73698102D01*
X119167205Y-73509744D01*
X119053937Y-73340226D01*
X118909774Y-73196063D01*
X118740256Y-73082795D01*
X118551898Y-73004774D01*
X118351939Y-72965000D01*
X118148061Y-72965000D01*
X117948102Y-73004774D01*
X117759744Y-73082795D01*
X117590226Y-73196063D01*
X117446063Y-73340226D01*
X117332795Y-73509744D01*
X117254774Y-73698102D01*
X117215000Y-73898061D01*
X117215000Y-74101939D01*
X117254774Y-74301898D01*
X117278026Y-74358032D01*
X117240256Y-74332795D01*
X117051898Y-74254774D01*
X116851939Y-74215000D01*
X116648061Y-74215000D01*
X116448102Y-74254774D01*
X116259744Y-74332795D01*
X116090226Y-74446063D01*
X115946063Y-74590226D01*
X115832795Y-74759744D01*
X115754774Y-74948102D01*
X115715000Y-75148061D01*
X115715000Y-75351939D01*
X115754774Y-75551898D01*
X115832795Y-75740256D01*
X115946063Y-75909774D01*
X115990000Y-75953711D01*
X115990001Y-81668954D01*
X115895506Y-81719463D01*
X115798815Y-81798815D01*
X115719463Y-81895506D01*
X115660498Y-82005820D01*
X115624188Y-82125518D01*
X115611928Y-82250000D01*
X106784591Y-82250000D01*
X106695799Y-82117114D01*
X106502886Y-81924201D01*
X106276043Y-81772629D01*
X106260000Y-81765984D01*
X106260000Y-81698158D01*
X106486011Y-81791775D01*
X106753589Y-81845000D01*
X107026411Y-81845000D01*
X107293989Y-81791775D01*
X107546043Y-81687371D01*
X107772886Y-81535799D01*
X107965799Y-81342886D01*
X108117371Y-81116043D01*
X108221775Y-80863989D01*
X108275000Y-80596411D01*
X108275000Y-80323589D01*
X108221775Y-80056011D01*
X108117371Y-79803957D01*
X107965799Y-79577114D01*
X107772886Y-79384201D01*
X107650000Y-79302091D01*
X107650000Y-73560468D01*
X107659774Y-73553937D01*
X107803937Y-73409774D01*
X107917205Y-73240256D01*
X107995226Y-73051898D01*
X108035000Y-72851939D01*
X108035000Y-72648061D01*
X107995226Y-72448102D01*
X107917205Y-72259744D01*
X107803937Y-72090226D01*
X107659774Y-71946063D01*
X107490256Y-71832795D01*
X107301898Y-71754774D01*
X107101939Y-71715000D01*
X106898061Y-71715000D01*
X106698102Y-71754774D01*
X106509744Y-71832795D01*
X106340226Y-71946063D01*
X106196063Y-72090226D01*
X106082795Y-72259744D01*
X106004774Y-72448102D01*
X105965000Y-72648061D01*
X105965000Y-72851939D01*
X106004774Y-73051898D01*
X106028026Y-73108032D01*
X105990256Y-73082795D01*
X105801898Y-73004774D01*
X105601939Y-72965000D01*
X105398061Y-72965000D01*
X105198102Y-73004774D01*
X105110000Y-73041267D01*
X105110000Y-72837195D01*
X105159774Y-72803937D01*
X105303937Y-72659774D01*
X105417205Y-72490256D01*
X105495226Y-72301898D01*
X105535000Y-72101939D01*
X105535000Y-71898061D01*
X105495226Y-71698102D01*
X105417205Y-71509744D01*
X105303937Y-71340226D01*
X105159774Y-71196063D01*
X104990256Y-71082795D01*
X104801898Y-71004774D01*
X104601939Y-70965000D01*
X104398061Y-70965000D01*
X104198102Y-71004774D01*
X104009744Y-71082795D01*
X103840226Y-71196063D01*
X103696063Y-71340226D01*
X103582795Y-71509744D01*
X103504774Y-71698102D01*
X103465000Y-71898061D01*
X103465000Y-72101939D01*
X103504774Y-72301898D01*
X103582795Y-72490256D01*
X103590001Y-72501041D01*
X103590000Y-78020557D01*
X103551898Y-78004774D01*
X103351939Y-77965000D01*
X103148061Y-77965000D01*
X102948102Y-78004774D01*
X102759744Y-78082795D01*
X102590226Y-78196063D01*
X102446063Y-78340226D01*
X102332795Y-78509744D01*
X102254774Y-78698102D01*
X102215000Y-78898061D01*
X102215000Y-79101939D01*
X102221588Y-79135061D01*
X102010040Y-79082750D01*
X101737508Y-79070188D01*
X101467762Y-79111035D01*
X101211168Y-79203723D01*
X101098137Y-79264140D01*
X101032612Y-79503007D01*
X101810000Y-80280395D01*
X101824143Y-80266253D01*
X102003748Y-80445858D01*
X101989605Y-80460000D01*
X102003748Y-80474143D01*
X101824143Y-80653748D01*
X101810000Y-80639605D01*
X101032612Y-81416993D01*
X101098137Y-81655860D01*
X101345116Y-81771760D01*
X101609960Y-81837250D01*
X101882492Y-81849812D01*
X102152238Y-81808965D01*
X102320000Y-81748365D01*
X102320000Y-81842091D01*
X102197114Y-81924201D01*
X102004201Y-82117114D01*
X101852629Y-82343957D01*
X101811489Y-82443279D01*
X101796277Y-82401168D01*
X101735860Y-82288137D01*
X101496993Y-82222612D01*
X100719605Y-83000000D01*
X100360395Y-83000000D01*
X99583007Y-82222612D01*
X99388072Y-82276086D01*
X99388072Y-82250000D01*
X99375812Y-82125518D01*
X99350783Y-82043007D01*
X99762612Y-82043007D01*
X100540000Y-82820395D01*
X101317388Y-82043007D01*
X101251863Y-81804140D01*
X101004884Y-81688240D01*
X100740040Y-81622750D01*
X100467508Y-81610188D01*
X100197762Y-81651035D01*
X99941168Y-81743723D01*
X99828137Y-81804140D01*
X99762612Y-82043007D01*
X99350783Y-82043007D01*
X99339502Y-82005820D01*
X99280537Y-81895506D01*
X99239088Y-81845000D01*
X99406411Y-81845000D01*
X99673989Y-81791775D01*
X99926043Y-81687371D01*
X100152886Y-81535799D01*
X100345799Y-81342886D01*
X100497371Y-81116043D01*
X100538511Y-81016721D01*
X100553723Y-81058832D01*
X100614140Y-81171863D01*
X100853007Y-81237388D01*
X101630395Y-80460000D01*
X100853007Y-79682612D01*
X100614140Y-79748137D01*
X100539836Y-79906477D01*
X100497371Y-79803957D01*
X100345799Y-79577114D01*
X100152886Y-79384201D01*
X100010000Y-79288727D01*
X100010000Y-70703711D01*
X100053937Y-70659774D01*
X100167205Y-70490256D01*
X100245226Y-70301898D01*
X100285000Y-70101939D01*
X100285000Y-69898061D01*
X100245226Y-69698102D01*
X100167205Y-69509744D01*
X100053937Y-69340226D01*
X99909774Y-69196063D01*
X99740256Y-69082795D01*
X99551898Y-69004774D01*
X99351939Y-68965000D01*
X99148061Y-68965000D01*
X99004276Y-68993600D01*
X98995226Y-68948102D01*
X98917205Y-68759744D01*
X98803937Y-68590226D01*
X98659774Y-68446063D01*
X98490256Y-68332795D01*
X98301898Y-68254774D01*
X98101939Y-68215000D01*
X97898061Y-68215000D01*
X97698102Y-68254774D01*
X97509744Y-68332795D01*
X97340226Y-68446063D01*
X97196063Y-68590226D01*
X97082795Y-68759744D01*
X97004774Y-68948102D01*
X96965000Y-69148061D01*
X96965000Y-69351939D01*
X97004774Y-69551898D01*
X97082795Y-69740256D01*
X97196063Y-69909774D01*
X97240000Y-69953711D01*
X97240001Y-81612913D01*
X97125518Y-81624188D01*
X97005820Y-81660498D01*
X96895506Y-81719463D01*
X96798815Y-81798815D01*
X96719463Y-81895506D01*
X96660498Y-82005820D01*
X96624188Y-82125518D01*
X96611928Y-82250000D01*
X93360001Y-82250000D01*
X93360001Y-69721159D01*
X93490256Y-69667205D01*
X93659774Y-69553937D01*
X93803937Y-69409774D01*
X93917205Y-69240256D01*
X93995226Y-69051898D01*
X94035000Y-68851939D01*
X94035000Y-68648061D01*
X93995226Y-68448102D01*
X93917205Y-68259744D01*
X93803937Y-68090226D01*
X93659774Y-67946063D01*
X93490256Y-67832795D01*
X93301898Y-67754774D01*
X93101939Y-67715000D01*
X92898061Y-67715000D01*
X92698102Y-67754774D01*
X92509744Y-67832795D01*
X92340226Y-67946063D01*
X92196063Y-68090226D01*
X92082795Y-68259744D01*
X92004774Y-68448102D01*
X91965000Y-68648061D01*
X91965000Y-68725774D01*
X91898599Y-68850000D01*
X91894455Y-68857753D01*
X91850998Y-69001014D01*
X91840001Y-69112667D01*
X91840001Y-69112677D01*
X91836325Y-69149999D01*
X91840001Y-69187321D01*
X91840001Y-77520557D01*
X91801898Y-77504774D01*
X91601939Y-77465000D01*
X91398061Y-77465000D01*
X91198102Y-77504774D01*
X91009744Y-77582795D01*
X90840226Y-77696063D01*
X90696063Y-77840226D01*
X90582795Y-78009744D01*
X90504774Y-78198102D01*
X90465000Y-78398061D01*
X90465000Y-78601939D01*
X90504774Y-78801898D01*
X90582795Y-78990256D01*
X90696063Y-79159774D01*
X90740000Y-79203711D01*
X90740001Y-84185196D01*
X89485000Y-85440198D01*
X89485000Y-85332998D01*
X89326252Y-85332998D01*
X89485000Y-85174250D01*
X89488072Y-84610000D01*
X89475812Y-84485518D01*
X89439502Y-84365820D01*
X89380537Y-84255506D01*
X89301185Y-84158815D01*
X89204494Y-84079463D01*
X89094180Y-84020498D01*
X88974482Y-83984188D01*
X88850000Y-83971928D01*
X88285750Y-83975000D01*
X88127000Y-84133750D01*
X88127000Y-85333000D01*
X88147000Y-85333000D01*
X88147000Y-85587000D01*
X88127000Y-85587000D01*
X88127000Y-85607000D01*
X87873000Y-85607000D01*
X87873000Y-85587000D01*
X87853000Y-85587000D01*
X87853000Y-85333000D01*
X87873000Y-85333000D01*
X87873000Y-84133750D01*
X87714250Y-83975000D01*
X87150000Y-83971928D01*
X87025518Y-83984188D01*
X86905820Y-84020498D01*
X86795506Y-84079463D01*
X86698815Y-84158815D01*
X86660000Y-84206111D01*
X86660000Y-81185445D01*
X86684010Y-81243411D01*
X86846525Y-81486632D01*
X87053368Y-81693475D01*
X87296589Y-81855990D01*
X87566842Y-81967932D01*
X87853740Y-82025000D01*
X88146260Y-82025000D01*
X88433158Y-81967932D01*
X88703411Y-81855990D01*
X88946632Y-81693475D01*
X89153475Y-81486632D01*
X89315990Y-81243411D01*
X89427932Y-80973158D01*
X89485000Y-80686260D01*
X89485000Y-80393740D01*
X89427932Y-80106842D01*
X89315990Y-79836589D01*
X89153475Y-79593368D01*
X89021620Y-79461513D01*
X89094180Y-79439502D01*
X89204494Y-79380537D01*
X89301185Y-79301185D01*
X89380537Y-79204494D01*
X89439502Y-79094180D01*
X89475812Y-78974482D01*
X89488072Y-78850000D01*
X89485000Y-78285750D01*
X89326250Y-78127000D01*
X88127000Y-78127000D01*
X88127000Y-78147000D01*
X87873000Y-78147000D01*
X87873000Y-78127000D01*
X87853000Y-78127000D01*
X87853000Y-77873000D01*
X87873000Y-77873000D01*
X87873000Y-76673750D01*
X88127000Y-76673750D01*
X88127000Y-77873000D01*
X89326250Y-77873000D01*
X89485000Y-77714250D01*
X89488072Y-77150000D01*
X89475812Y-77025518D01*
X89439502Y-76905820D01*
X89380537Y-76795506D01*
X89301185Y-76698815D01*
X89204494Y-76619463D01*
X89094180Y-76560498D01*
X88974482Y-76524188D01*
X88850000Y-76511928D01*
X88285750Y-76515000D01*
X88127000Y-76673750D01*
X87873000Y-76673750D01*
X87714250Y-76515000D01*
X87150000Y-76511928D01*
X87025518Y-76524188D01*
X86905820Y-76560498D01*
X86795506Y-76619463D01*
X86698815Y-76698815D01*
X86660000Y-76746111D01*
X86660000Y-73725445D01*
X86684010Y-73783411D01*
X86846525Y-74026632D01*
X87053368Y-74233475D01*
X87296589Y-74395990D01*
X87566842Y-74507932D01*
X87853740Y-74565000D01*
X88146260Y-74565000D01*
X88433158Y-74507932D01*
X88703411Y-74395990D01*
X88946632Y-74233475D01*
X89153475Y-74026632D01*
X89315990Y-73783411D01*
X89427932Y-73513158D01*
X89485000Y-73226260D01*
X89485000Y-72933740D01*
X89427932Y-72646842D01*
X89315990Y-72376589D01*
X89153475Y-72133368D01*
X88946632Y-71926525D01*
X88772240Y-71810000D01*
X88946632Y-71693475D01*
X89153475Y-71486632D01*
X89315990Y-71243411D01*
X89427932Y-70973158D01*
X89485000Y-70686260D01*
X89485000Y-70393740D01*
X89427932Y-70106842D01*
X89315990Y-69836589D01*
X89153475Y-69593368D01*
X89021620Y-69461513D01*
X89094180Y-69439502D01*
X89204494Y-69380537D01*
X89301185Y-69301185D01*
X89380537Y-69204494D01*
X89439502Y-69094180D01*
X89475812Y-68974482D01*
X89488072Y-68850000D01*
X89485000Y-68285750D01*
X89326250Y-68127000D01*
X88127000Y-68127000D01*
X88127000Y-68147000D01*
X87873000Y-68147000D01*
X87873000Y-68127000D01*
X87853000Y-68127000D01*
X87853000Y-67873000D01*
X87873000Y-67873000D01*
X87873000Y-67853000D01*
X88127000Y-67853000D01*
X88127000Y-67873000D01*
X89326250Y-67873000D01*
X89485000Y-67714250D01*
X89488072Y-67150000D01*
X89475812Y-67025518D01*
X89439502Y-66905820D01*
X89380537Y-66795506D01*
X89301185Y-66698815D01*
X89253889Y-66660000D01*
X110649442Y-66660000D01*
X110582795Y-66759744D01*
G37*
X110582795Y-66759744D02*
X110504774Y-66948102D01*
X110465000Y-67148061D01*
X110465000Y-67351939D01*
X110489015Y-67472674D01*
X110486324Y-67500000D01*
X110490001Y-67537332D01*
X110490000Y-70296289D01*
X110446063Y-70340226D01*
X110332795Y-70509744D01*
X110254774Y-70698102D01*
X110215000Y-70898061D01*
X110215000Y-71101939D01*
X110254774Y-71301898D01*
X110332795Y-71490256D01*
X110446063Y-71659774D01*
X110590226Y-71803937D01*
X110759744Y-71917205D01*
X110948102Y-71995226D01*
X111148061Y-72035000D01*
X111351939Y-72035000D01*
X111551898Y-71995226D01*
X111740256Y-71917205D01*
X111909774Y-71803937D01*
X112053937Y-71659774D01*
X112167205Y-71490256D01*
X112245226Y-71301898D01*
X112285000Y-71101939D01*
X112285000Y-70898061D01*
X112245226Y-70698102D01*
X112167205Y-70509744D01*
X112053937Y-70340226D01*
X112010000Y-70296289D01*
X112010000Y-68154013D01*
X112159774Y-68053937D01*
X112303937Y-67909774D01*
X112417205Y-67740256D01*
X112495226Y-67551898D01*
X112535000Y-67351939D01*
X112535000Y-67148061D01*
X112495226Y-66948102D01*
X112417205Y-66759744D01*
X112350558Y-66660000D01*
X135746111Y-66660000D01*
X135698815Y-66698815D01*
X135619463Y-66795506D01*
X135560498Y-66905820D01*
X135524188Y-67025518D01*
X135511928Y-67150000D01*
X135515000Y-67714250D01*
X135673750Y-67873000D01*
X136873000Y-67873000D01*
X136873000Y-67853000D01*
X137127000Y-67853000D01*
X137127000Y-67873000D01*
X137147000Y-67873000D01*
X137147000Y-68127000D01*
X137127000Y-68127000D01*
X137127000Y-68147000D01*
X136873000Y-68147000D01*
X136873000Y-68127000D01*
X135673750Y-68127000D01*
X135515000Y-68285750D01*
X135511928Y-68850000D01*
X135524188Y-68974482D01*
X135560498Y-69094180D01*
X135619463Y-69204494D01*
X135698815Y-69301185D01*
X135795506Y-69380537D01*
X135905820Y-69439502D01*
X135978380Y-69461513D01*
X135846525Y-69593368D01*
X135684010Y-69836589D01*
X135572068Y-70106842D01*
X135515000Y-70393740D01*
X135515000Y-70686260D01*
X135572068Y-70973158D01*
X135684010Y-71243411D01*
X135846525Y-71486632D01*
X136053368Y-71693475D01*
X136296589Y-71855990D01*
X136566842Y-71967932D01*
X136853740Y-72025000D01*
X137146260Y-72025000D01*
X137433158Y-71967932D01*
X137703411Y-71855990D01*
X137946632Y-71693475D01*
X138153475Y-71486632D01*
X138315990Y-71243411D01*
X138340000Y-71185445D01*
X138340000Y-74746112D01*
X138301185Y-74698815D01*
X138204494Y-74619463D01*
X138094180Y-74560498D01*
X137974482Y-74524188D01*
X137850000Y-74511928D01*
X137285750Y-74515000D01*
X137127000Y-74673750D01*
X137127000Y-75873000D01*
X137147000Y-75873000D01*
X137147000Y-76127000D01*
X137127000Y-76127000D01*
X137127000Y-76147000D01*
X136873000Y-76147000D01*
X136873000Y-76127000D01*
X135673750Y-76127000D01*
X135515000Y-76285750D01*
X135511928Y-76850000D01*
X135524188Y-76974482D01*
X135560498Y-77094180D01*
X135619463Y-77204494D01*
X135698815Y-77301185D01*
X135795506Y-77380537D01*
X135905820Y-77439502D01*
X135978380Y-77461513D01*
X135846525Y-77593368D01*
X135684010Y-77836589D01*
X135572068Y-78106842D01*
X135515000Y-78393740D01*
X135515000Y-78686260D01*
X135572068Y-78973158D01*
X135684010Y-79243411D01*
X135846525Y-79486632D01*
X136053368Y-79693475D01*
X136296589Y-79855990D01*
X136566842Y-79967932D01*
X136853740Y-80025000D01*
X137146260Y-80025000D01*
X137433158Y-79967932D01*
X137703411Y-79855990D01*
X137946632Y-79693475D01*
X138153475Y-79486632D01*
X138315990Y-79243411D01*
X138340000Y-79185444D01*
X138340001Y-82746112D01*
X138301185Y-82698815D01*
X138204494Y-82619463D01*
X138094180Y-82560498D01*
X137974482Y-82524188D01*
X137850000Y-82511928D01*
X137285750Y-82515000D01*
X137127000Y-82673750D01*
X137127000Y-83873000D01*
X137147000Y-83873000D01*
X137147000Y-84127000D01*
X137127000Y-84127000D01*
X137127000Y-84147000D01*
X136873000Y-84147000D01*
X136873000Y-84127000D01*
X135673750Y-84127000D01*
X135515000Y-84285750D01*
X135511928Y-84850000D01*
X135524188Y-84974482D01*
X135560498Y-85094180D01*
X135619463Y-85204494D01*
X135698815Y-85301185D01*
X135795506Y-85380537D01*
X135905820Y-85439502D01*
X135978380Y-85461513D01*
X135846525Y-85593368D01*
X135684010Y-85836589D01*
X135572068Y-86106842D01*
X135515000Y-86393740D01*
X135515000Y-86686260D01*
X135572068Y-86973158D01*
X135684010Y-87243411D01*
X135846525Y-87486632D01*
X136053368Y-87693475D01*
X136296589Y-87855990D01*
X136566842Y-87967932D01*
X136853740Y-88025000D01*
X137146260Y-88025000D01*
X137433158Y-87967932D01*
X137703411Y-87855990D01*
X137946632Y-87693475D01*
X138153475Y-87486632D01*
X138315990Y-87243411D01*
X138340001Y-87185444D01*
X138340001Y-90746112D01*
X138301185Y-90698815D01*
X138204494Y-90619463D01*
X138094180Y-90560498D01*
X137974482Y-90524188D01*
X137850000Y-90511928D01*
X137285750Y-90515000D01*
X137127000Y-90673750D01*
X137127000Y-91873000D01*
X137147000Y-91873000D01*
X137147000Y-92127000D01*
X137127000Y-92127000D01*
X137127000Y-92147000D01*
X136873000Y-92147000D01*
X136873000Y-92127000D01*
X135673750Y-92127000D01*
X135515000Y-92285750D01*
X135511928Y-92850000D01*
X135524188Y-92974482D01*
X135560498Y-93094180D01*
X135619463Y-93204494D01*
X135698815Y-93301185D01*
X135795506Y-93380537D01*
X135905820Y-93439502D01*
X135978380Y-93461513D01*
X135846525Y-93593368D01*
X135684010Y-93836589D01*
X135572068Y-94106842D01*
X135515000Y-94393740D01*
X135515000Y-94686260D01*
X135572068Y-94973158D01*
X135684010Y-95243411D01*
X135846525Y-95486632D01*
X136053368Y-95693475D01*
X136296589Y-95855990D01*
X136566842Y-95967932D01*
X136853740Y-96025000D01*
X137146260Y-96025000D01*
X137433158Y-95967932D01*
X137703411Y-95855990D01*
X137946632Y-95693475D01*
X138153475Y-95486632D01*
X138315990Y-95243411D01*
X138340001Y-95185443D01*
X138340001Y-97090000D01*
X86660000Y-97090000D01*
X86660000Y-96185445D01*
X86684010Y-96243411D01*
X86846525Y-96486632D01*
X87053368Y-96693475D01*
X87296589Y-96855990D01*
X87566842Y-96967932D01*
X87853740Y-97025000D01*
X88146260Y-97025000D01*
X88433158Y-96967932D01*
X88703411Y-96855990D01*
X88946632Y-96693475D01*
X89153475Y-96486632D01*
X89315990Y-96243411D01*
X89427932Y-95973158D01*
X89485000Y-95686260D01*
X89485000Y-95393740D01*
X89441209Y-95173592D01*
X93111004Y-91503798D01*
X93140002Y-91480000D01*
X93234975Y-91364275D01*
X93305547Y-91232246D01*
X93349004Y-91088985D01*
X93360001Y-90977332D01*
X93360001Y-90977324D01*
X93363677Y-90939999D01*
X93360001Y-90902674D01*
X93360001Y-89129872D01*
X94495000Y-89129872D01*
X94495000Y-89570128D01*
X94580890Y-90001925D01*
X94749369Y-90408669D01*
X94993962Y-90774729D01*
X95305271Y-91086038D01*
X95671331Y-91330631D01*
X96078075Y-91499110D01*
X96509872Y-91585000D01*
X96950128Y-91585000D01*
X97381925Y-91499110D01*
X97788669Y-91330631D01*
X98154729Y-91086038D01*
X98466038Y-90774729D01*
X98710631Y-90408669D01*
X98879110Y-90001925D01*
X98965000Y-89570128D01*
X98965000Y-89129872D01*
X105925000Y-89129872D01*
X105925000Y-89570128D01*
X106010890Y-90001925D01*
X106179369Y-90408669D01*
X106423962Y-90774729D01*
X106735271Y-91086038D01*
X107101331Y-91330631D01*
X107508075Y-91499110D01*
X107939872Y-91585000D01*
X108380128Y-91585000D01*
X108811925Y-91499110D01*
X109218669Y-91330631D01*
X109584729Y-91086038D01*
X109896038Y-90774729D01*
X110140631Y-90408669D01*
X110309110Y-90001925D01*
X110395000Y-89570128D01*
X110395000Y-89129872D01*
X113495000Y-89129872D01*
X113495000Y-89570128D01*
X113580890Y-90001925D01*
X113749369Y-90408669D01*
X113993962Y-90774729D01*
X114305271Y-91086038D01*
X114671331Y-91330631D01*
X115078075Y-91499110D01*
X115509872Y-91585000D01*
X115950128Y-91585000D01*
X116381925Y-91499110D01*
X116788669Y-91330631D01*
X117154729Y-91086038D01*
X117466038Y-90774729D01*
X117710631Y-90408669D01*
X117879110Y-90001925D01*
X117965000Y-89570128D01*
X117965000Y-89129872D01*
X117879110Y-88698075D01*
X117710631Y-88291331D01*
X117466038Y-87925271D01*
X117154729Y-87613962D01*
X116788669Y-87369369D01*
X116381925Y-87200890D01*
X115950128Y-87115000D01*
X115509872Y-87115000D01*
X115078075Y-87200890D01*
X114671331Y-87369369D01*
X114305271Y-87613962D01*
X113993962Y-87925271D01*
X113749369Y-88291331D01*
X113580890Y-88698075D01*
X113495000Y-89129872D01*
X110395000Y-89129872D01*
X110309110Y-88698075D01*
X110140631Y-88291331D01*
X109896038Y-87925271D01*
X109584729Y-87613962D01*
X109218669Y-87369369D01*
X108811925Y-87200890D01*
X108380128Y-87115000D01*
X107939872Y-87115000D01*
X107508075Y-87200890D01*
X107101331Y-87369369D01*
X106735271Y-87613962D01*
X106423962Y-87925271D01*
X106179369Y-88291331D01*
X106010890Y-88698075D01*
X105925000Y-89129872D01*
X98965000Y-89129872D01*
X98879110Y-88698075D01*
X98710631Y-88291331D01*
X98466038Y-87925271D01*
X98154729Y-87613962D01*
X97788669Y-87369369D01*
X97381925Y-87200890D01*
X96950128Y-87115000D01*
X96509872Y-87115000D01*
X96078075Y-87200890D01*
X95671331Y-87369369D01*
X95305271Y-87613962D01*
X94993962Y-87925271D01*
X94749369Y-88291331D01*
X94580890Y-88698075D01*
X94495000Y-89129872D01*
X93360001Y-89129872D01*
X93360001Y-82250000D01*
X96611928Y-82250000D01*
X96611928Y-83750000D01*
X96624188Y-83874482D01*
X96660498Y-83994180D01*
X96719463Y-84104494D01*
X96798815Y-84201185D01*
X96895506Y-84280537D01*
X97005820Y-84339502D01*
X97125518Y-84375812D01*
X97250000Y-84388072D01*
X98750000Y-84388072D01*
X98874482Y-84375812D01*
X98994180Y-84339502D01*
X99104494Y-84280537D01*
X99201185Y-84201185D01*
X99280537Y-84104494D01*
X99339502Y-83994180D01*
X99350782Y-83956993D01*
X99762612Y-83956993D01*
X99828137Y-84195860D01*
X100075116Y-84311760D01*
X100339960Y-84377250D01*
X100612492Y-84389812D01*
X100882238Y-84348965D01*
X101138832Y-84256277D01*
X101251863Y-84195860D01*
X101317388Y-83956993D01*
X100540000Y-83179605D01*
X99762612Y-83956993D01*
X99350782Y-83956993D01*
X99375812Y-83874482D01*
X99388072Y-83750000D01*
X99388072Y-83723914D01*
X99583007Y-83777388D01*
X100360395Y-83000000D01*
X100719605Y-83000000D01*
X101496993Y-83777388D01*
X101735860Y-83711863D01*
X101810164Y-83553523D01*
X101852629Y-83656043D01*
X102004201Y-83882886D01*
X102197114Y-84075799D01*
X102423957Y-84227371D01*
X102676011Y-84331775D01*
X102943589Y-84385000D01*
X103216411Y-84385000D01*
X103483989Y-84331775D01*
X103736043Y-84227371D01*
X103962886Y-84075799D01*
X104155799Y-83882886D01*
X104307371Y-83656043D01*
X104350000Y-83553127D01*
X104392629Y-83656043D01*
X104544201Y-83882886D01*
X104737114Y-84075799D01*
X104963957Y-84227371D01*
X105216011Y-84331775D01*
X105483589Y-84385000D01*
X105756411Y-84385000D01*
X106023989Y-84331775D01*
X106276043Y-84227371D01*
X106502886Y-84075799D01*
X106695799Y-83882886D01*
X106847371Y-83656043D01*
X106951775Y-83403989D01*
X107005000Y-83136411D01*
X107005000Y-82863589D01*
X106951775Y-82596011D01*
X106847371Y-82343957D01*
X106784591Y-82250000D01*
X115611928Y-82250000D01*
X115611928Y-83750000D01*
X115624188Y-83874482D01*
X115660498Y-83994180D01*
X115719463Y-84104494D01*
X115798815Y-84201185D01*
X115895506Y-84280537D01*
X116005820Y-84339502D01*
X116125518Y-84375812D01*
X116250000Y-84388072D01*
X117750000Y-84388072D01*
X117874482Y-84375812D01*
X117994180Y-84339502D01*
X118104494Y-84280537D01*
X118201185Y-84201185D01*
X118280537Y-84104494D01*
X118339502Y-83994180D01*
X118350782Y-83956993D01*
X118762612Y-83956993D01*
X118828137Y-84195860D01*
X119075116Y-84311760D01*
X119339960Y-84377250D01*
X119612492Y-84389812D01*
X119882238Y-84348965D01*
X120138832Y-84256277D01*
X120251863Y-84195860D01*
X120317388Y-83956993D01*
X119540000Y-83179605D01*
X118762612Y-83956993D01*
X118350782Y-83956993D01*
X118375812Y-83874482D01*
X118388072Y-83750000D01*
X118388072Y-83723914D01*
X118583007Y-83777388D01*
X119360395Y-83000000D01*
X119719605Y-83000000D01*
X120496993Y-83777388D01*
X120735860Y-83711863D01*
X120810164Y-83553523D01*
X120852629Y-83656043D01*
X121004201Y-83882886D01*
X121197114Y-84075799D01*
X121320000Y-84157909D01*
X121320001Y-87081670D01*
X121316324Y-87119002D01*
X121320001Y-87156335D01*
X121330998Y-87267988D01*
X121339674Y-87296589D01*
X121374454Y-87411248D01*
X121445026Y-87543278D01*
X121503036Y-87613962D01*
X121540000Y-87659003D01*
X121568998Y-87682801D01*
X129397199Y-95511003D01*
X129420997Y-95540001D01*
X129536722Y-95634974D01*
X129668751Y-95705546D01*
X129812012Y-95749003D01*
X129923665Y-95760000D01*
X129923674Y-95760000D01*
X129960997Y-95763676D01*
X129998320Y-95760000D01*
X130546289Y-95760000D01*
X130590226Y-95803937D01*
X130759744Y-95917205D01*
X130948102Y-95995226D01*
X131148061Y-96035000D01*
X131351939Y-96035000D01*
X131551898Y-95995226D01*
X131740256Y-95917205D01*
X131909774Y-95803937D01*
X132053937Y-95659774D01*
X132167205Y-95490256D01*
X132245226Y-95301898D01*
X132285000Y-95101939D01*
X132285000Y-94898061D01*
X132245226Y-94698102D01*
X132167205Y-94509744D01*
X132053937Y-94340226D01*
X131909774Y-94196063D01*
X131740256Y-94082795D01*
X131551898Y-94004774D01*
X131351939Y-93965000D01*
X131148061Y-93965000D01*
X130948102Y-94004774D01*
X130759744Y-94082795D01*
X130590226Y-94196063D01*
X130546289Y-94240000D01*
X130275800Y-94240000D01*
X127580870Y-91545070D01*
X127811925Y-91499110D01*
X128218669Y-91330631D01*
X128489002Y-91150000D01*
X135511928Y-91150000D01*
X135515000Y-91714250D01*
X135673750Y-91873000D01*
X136873000Y-91873000D01*
X136873000Y-90673750D01*
X136714250Y-90515000D01*
X136150000Y-90511928D01*
X136025518Y-90524188D01*
X135905820Y-90560498D01*
X135795506Y-90619463D01*
X135698815Y-90698815D01*
X135619463Y-90795506D01*
X135560498Y-90905820D01*
X135524188Y-91025518D01*
X135511928Y-91150000D01*
X128489002Y-91150000D01*
X128584729Y-91086038D01*
X128896038Y-90774729D01*
X129140631Y-90408669D01*
X129309110Y-90001925D01*
X129395000Y-89570128D01*
X129395000Y-89129872D01*
X129309110Y-88698075D01*
X129140631Y-88291331D01*
X128896038Y-87925271D01*
X128584729Y-87613962D01*
X128429139Y-87510000D01*
X130546289Y-87510000D01*
X130590226Y-87553937D01*
X130759744Y-87667205D01*
X130948102Y-87745226D01*
X131148061Y-87785000D01*
X131351939Y-87785000D01*
X131551898Y-87745226D01*
X131740256Y-87667205D01*
X131909774Y-87553937D01*
X132053937Y-87409774D01*
X132167205Y-87240256D01*
X132245226Y-87051898D01*
X132285000Y-86851939D01*
X132285000Y-86648061D01*
X132245226Y-86448102D01*
X132167205Y-86259744D01*
X132053937Y-86090226D01*
X131909774Y-85946063D01*
X131740256Y-85832795D01*
X131551898Y-85754774D01*
X131351939Y-85715000D01*
X131148061Y-85715000D01*
X130948102Y-85754774D01*
X130759744Y-85832795D01*
X130590226Y-85946063D01*
X130546289Y-85990000D01*
X127093801Y-85990000D01*
X125309090Y-84205290D01*
X125502886Y-84075799D01*
X125695799Y-83882886D01*
X125847371Y-83656043D01*
X125951775Y-83403989D01*
X126002296Y-83150000D01*
X135511928Y-83150000D01*
X135515000Y-83714250D01*
X135673750Y-83873000D01*
X136873000Y-83873000D01*
X136873000Y-82673750D01*
X136714250Y-82515000D01*
X136150000Y-82511928D01*
X136025518Y-82524188D01*
X135905820Y-82560498D01*
X135795506Y-82619463D01*
X135698815Y-82698815D01*
X135619463Y-82795506D01*
X135560498Y-82905820D01*
X135524188Y-83025518D01*
X135511928Y-83150000D01*
X126002296Y-83150000D01*
X126005000Y-83136411D01*
X126005000Y-82863589D01*
X125951775Y-82596011D01*
X125847371Y-82343957D01*
X125695799Y-82117114D01*
X125502886Y-81924201D01*
X125380000Y-81842091D01*
X125380000Y-81747864D01*
X125486011Y-81791775D01*
X125753589Y-81845000D01*
X126026411Y-81845000D01*
X126293989Y-81791775D01*
X126546043Y-81687371D01*
X126772886Y-81535799D01*
X126965799Y-81342886D01*
X127117371Y-81116043D01*
X127221775Y-80863989D01*
X127275000Y-80596411D01*
X127275000Y-80323589D01*
X127221775Y-80056011D01*
X127117371Y-79803957D01*
X126965799Y-79577114D01*
X126772886Y-79384201D01*
X126650000Y-79302091D01*
X126650000Y-75150000D01*
X135511928Y-75150000D01*
X135515000Y-75714250D01*
X135673750Y-75873000D01*
X136873000Y-75873000D01*
X136873000Y-74673750D01*
X136714250Y-74515000D01*
X136150000Y-74511928D01*
X136025518Y-74524188D01*
X135905820Y-74560498D01*
X135795506Y-74619463D01*
X135698815Y-74698815D01*
X135619463Y-74795506D01*
X135560498Y-74905820D01*
X135524188Y-75025518D01*
X135511928Y-75150000D01*
X126650000Y-75150000D01*
X126650000Y-72945123D01*
X127285134Y-72309990D01*
X127347271Y-72309990D01*
X127547230Y-72270216D01*
X127735588Y-72192195D01*
X127905106Y-72078927D01*
X128049269Y-71934764D01*
X128162537Y-71765246D01*
X128240558Y-71576888D01*
X128280332Y-71376929D01*
X128280332Y-71173051D01*
X128240558Y-70973092D01*
X128162537Y-70784734D01*
X128049269Y-70615216D01*
X127905106Y-70471053D01*
X127735588Y-70357785D01*
X127547230Y-70279764D01*
X127347271Y-70239990D01*
X127143393Y-70239990D01*
X126943434Y-70279764D01*
X126755076Y-70357785D01*
X126585558Y-70471053D01*
X126441395Y-70615216D01*
X126328127Y-70784734D01*
X126250106Y-70973092D01*
X126210332Y-71173051D01*
X126210332Y-71235188D01*
X125380000Y-72065521D01*
X125380000Y-71450629D01*
X125390030Y-71443927D01*
X125534193Y-71299764D01*
X125647461Y-71130246D01*
X125725482Y-70941888D01*
X125765256Y-70741929D01*
X125765256Y-70538051D01*
X125725482Y-70338092D01*
X125647461Y-70149734D01*
X125534193Y-69980216D01*
X125390030Y-69836053D01*
X125220512Y-69722785D01*
X125032154Y-69644764D01*
X124832195Y-69604990D01*
X124628317Y-69604990D01*
X124428358Y-69644764D01*
X124240000Y-69722785D01*
X124070482Y-69836053D01*
X123926319Y-69980216D01*
X123813051Y-70149734D01*
X123735030Y-70338092D01*
X123695256Y-70538051D01*
X123695256Y-70741929D01*
X123735030Y-70941888D01*
X123813051Y-71130246D01*
X123860001Y-71200512D01*
X123860000Y-79172136D01*
X123753989Y-79128225D01*
X123486411Y-79075000D01*
X123213589Y-79075000D01*
X122946011Y-79128225D01*
X122693957Y-79232629D01*
X122467114Y-79384201D01*
X122274201Y-79577114D01*
X122122629Y-79803957D01*
X122081489Y-79903279D01*
X122066277Y-79861168D01*
X122005860Y-79748137D01*
X121766993Y-79682612D01*
X120989605Y-80460000D01*
X121766993Y-81237388D01*
X122005860Y-81171863D01*
X122080164Y-81013523D01*
X122122629Y-81116043D01*
X122274201Y-81342886D01*
X122467114Y-81535799D01*
X122590000Y-81617909D01*
X122590000Y-81712136D01*
X122483989Y-81668225D01*
X122216411Y-81615000D01*
X121943589Y-81615000D01*
X121676011Y-81668225D01*
X121423957Y-81772629D01*
X121197114Y-81924201D01*
X121004201Y-82117114D01*
X120852629Y-82343957D01*
X120811489Y-82443279D01*
X120796277Y-82401168D01*
X120735860Y-82288137D01*
X120496993Y-82222612D01*
X119719605Y-83000000D01*
X119360395Y-83000000D01*
X118583007Y-82222612D01*
X118388072Y-82276086D01*
X118388072Y-82250000D01*
X118375812Y-82125518D01*
X118350783Y-82043007D01*
X118762612Y-82043007D01*
X119540000Y-82820395D01*
X120317388Y-82043007D01*
X120251863Y-81804140D01*
X120004884Y-81688240D01*
X119740040Y-81622750D01*
X119467508Y-81610188D01*
X119197762Y-81651035D01*
X118941168Y-81743723D01*
X118828137Y-81804140D01*
X118762612Y-82043007D01*
X118350783Y-82043007D01*
X118339502Y-82005820D01*
X118280537Y-81895506D01*
X118239088Y-81845000D01*
X118406411Y-81845000D01*
X118673989Y-81791775D01*
X118926043Y-81687371D01*
X119152886Y-81535799D01*
X119271692Y-81416993D01*
X120032612Y-81416993D01*
X120098137Y-81655860D01*
X120345116Y-81771760D01*
X120609960Y-81837250D01*
X120882492Y-81849812D01*
X121152238Y-81808965D01*
X121408832Y-81716277D01*
X121521863Y-81655860D01*
X121587388Y-81416993D01*
X120810000Y-80639605D01*
X120032612Y-81416993D01*
X119271692Y-81416993D01*
X119345799Y-81342886D01*
X119497371Y-81116043D01*
X119538511Y-81016721D01*
X119553723Y-81058832D01*
X119614140Y-81171863D01*
X119853007Y-81237388D01*
X120630395Y-80460000D01*
X119853007Y-79682612D01*
X119614140Y-79748137D01*
X119539836Y-79906477D01*
X119497371Y-79803957D01*
X119345799Y-79577114D01*
X119271692Y-79503007D01*
X120032612Y-79503007D01*
X120810000Y-80280395D01*
X121587388Y-79503007D01*
X121521863Y-79264140D01*
X121274884Y-79148240D01*
X121010040Y-79082750D01*
X120737508Y-79070188D01*
X120467762Y-79111035D01*
X120211168Y-79203723D01*
X120098137Y-79264140D01*
X120032612Y-79503007D01*
X119271692Y-79503007D01*
X119152886Y-79384201D01*
X119010000Y-79288727D01*
X119010000Y-74703711D01*
X119053937Y-74659774D01*
X119167205Y-74490256D01*
X119245226Y-74301898D01*
X119285000Y-74101939D01*
X119285000Y-73898061D01*
X119245226Y-73698102D01*
X119167205Y-73509744D01*
X119053937Y-73340226D01*
X118909774Y-73196063D01*
X118740256Y-73082795D01*
X118551898Y-73004774D01*
X118351939Y-72965000D01*
X118148061Y-72965000D01*
X117948102Y-73004774D01*
X117759744Y-73082795D01*
X117590226Y-73196063D01*
X117446063Y-73340226D01*
X117332795Y-73509744D01*
X117254774Y-73698102D01*
X117215000Y-73898061D01*
X117215000Y-74101939D01*
X117254774Y-74301898D01*
X117278026Y-74358032D01*
X117240256Y-74332795D01*
X117051898Y-74254774D01*
X116851939Y-74215000D01*
X116648061Y-74215000D01*
X116448102Y-74254774D01*
X116259744Y-74332795D01*
X116090226Y-74446063D01*
X115946063Y-74590226D01*
X115832795Y-74759744D01*
X115754774Y-74948102D01*
X115715000Y-75148061D01*
X115715000Y-75351939D01*
X115754774Y-75551898D01*
X115832795Y-75740256D01*
X115946063Y-75909774D01*
X115990000Y-75953711D01*
X115990001Y-81668954D01*
X115895506Y-81719463D01*
X115798815Y-81798815D01*
X115719463Y-81895506D01*
X115660498Y-82005820D01*
X115624188Y-82125518D01*
X115611928Y-82250000D01*
X106784591Y-82250000D01*
X106695799Y-82117114D01*
X106502886Y-81924201D01*
X106276043Y-81772629D01*
X106260000Y-81765984D01*
X106260000Y-81698158D01*
X106486011Y-81791775D01*
X106753589Y-81845000D01*
X107026411Y-81845000D01*
X107293989Y-81791775D01*
X107546043Y-81687371D01*
X107772886Y-81535799D01*
X107965799Y-81342886D01*
X108117371Y-81116043D01*
X108221775Y-80863989D01*
X108275000Y-80596411D01*
X108275000Y-80323589D01*
X108221775Y-80056011D01*
X108117371Y-79803957D01*
X107965799Y-79577114D01*
X107772886Y-79384201D01*
X107650000Y-79302091D01*
X107650000Y-73560468D01*
X107659774Y-73553937D01*
X107803937Y-73409774D01*
X107917205Y-73240256D01*
X107995226Y-73051898D01*
X108035000Y-72851939D01*
X108035000Y-72648061D01*
X107995226Y-72448102D01*
X107917205Y-72259744D01*
X107803937Y-72090226D01*
X107659774Y-71946063D01*
X107490256Y-71832795D01*
X107301898Y-71754774D01*
X107101939Y-71715000D01*
X106898061Y-71715000D01*
X106698102Y-71754774D01*
X106509744Y-71832795D01*
X106340226Y-71946063D01*
X106196063Y-72090226D01*
X106082795Y-72259744D01*
X106004774Y-72448102D01*
X105965000Y-72648061D01*
X105965000Y-72851939D01*
X106004774Y-73051898D01*
X106028026Y-73108032D01*
X105990256Y-73082795D01*
X105801898Y-73004774D01*
X105601939Y-72965000D01*
X105398061Y-72965000D01*
X105198102Y-73004774D01*
X105110000Y-73041267D01*
X105110000Y-72837195D01*
X105159774Y-72803937D01*
X105303937Y-72659774D01*
X105417205Y-72490256D01*
X105495226Y-72301898D01*
X105535000Y-72101939D01*
X105535000Y-71898061D01*
X105495226Y-71698102D01*
X105417205Y-71509744D01*
X105303937Y-71340226D01*
X105159774Y-71196063D01*
X104990256Y-71082795D01*
X104801898Y-71004774D01*
X104601939Y-70965000D01*
X104398061Y-70965000D01*
X104198102Y-71004774D01*
X104009744Y-71082795D01*
X103840226Y-71196063D01*
X103696063Y-71340226D01*
X103582795Y-71509744D01*
X103504774Y-71698102D01*
X103465000Y-71898061D01*
X103465000Y-72101939D01*
X103504774Y-72301898D01*
X103582795Y-72490256D01*
X103590001Y-72501041D01*
X103590000Y-78020557D01*
X103551898Y-78004774D01*
X103351939Y-77965000D01*
X103148061Y-77965000D01*
X102948102Y-78004774D01*
X102759744Y-78082795D01*
X102590226Y-78196063D01*
X102446063Y-78340226D01*
X102332795Y-78509744D01*
X102254774Y-78698102D01*
X102215000Y-78898061D01*
X102215000Y-79101939D01*
X102221588Y-79135061D01*
X102010040Y-79082750D01*
X101737508Y-79070188D01*
X101467762Y-79111035D01*
X101211168Y-79203723D01*
X101098137Y-79264140D01*
X101032612Y-79503007D01*
X101810000Y-80280395D01*
X101824143Y-80266253D01*
X102003748Y-80445858D01*
X101989605Y-80460000D01*
X102003748Y-80474143D01*
X101824143Y-80653748D01*
X101810000Y-80639605D01*
X101032612Y-81416993D01*
X101098137Y-81655860D01*
X101345116Y-81771760D01*
X101609960Y-81837250D01*
X101882492Y-81849812D01*
X102152238Y-81808965D01*
X102320000Y-81748365D01*
X102320000Y-81842091D01*
X102197114Y-81924201D01*
X102004201Y-82117114D01*
X101852629Y-82343957D01*
X101811489Y-82443279D01*
X101796277Y-82401168D01*
X101735860Y-82288137D01*
X101496993Y-82222612D01*
X100719605Y-83000000D01*
X100360395Y-83000000D01*
X99583007Y-82222612D01*
X99388072Y-82276086D01*
X99388072Y-82250000D01*
X99375812Y-82125518D01*
X99350783Y-82043007D01*
X99762612Y-82043007D01*
X100540000Y-82820395D01*
X101317388Y-82043007D01*
X101251863Y-81804140D01*
X101004884Y-81688240D01*
X100740040Y-81622750D01*
X100467508Y-81610188D01*
X100197762Y-81651035D01*
X99941168Y-81743723D01*
X99828137Y-81804140D01*
X99762612Y-82043007D01*
X99350783Y-82043007D01*
X99339502Y-82005820D01*
X99280537Y-81895506D01*
X99239088Y-81845000D01*
X99406411Y-81845000D01*
X99673989Y-81791775D01*
X99926043Y-81687371D01*
X100152886Y-81535799D01*
X100345799Y-81342886D01*
X100497371Y-81116043D01*
X100538511Y-81016721D01*
X100553723Y-81058832D01*
X100614140Y-81171863D01*
X100853007Y-81237388D01*
X101630395Y-80460000D01*
X100853007Y-79682612D01*
X100614140Y-79748137D01*
X100539836Y-79906477D01*
X100497371Y-79803957D01*
X100345799Y-79577114D01*
X100152886Y-79384201D01*
X100010000Y-79288727D01*
X100010000Y-70703711D01*
X100053937Y-70659774D01*
X100167205Y-70490256D01*
X100245226Y-70301898D01*
X100285000Y-70101939D01*
X100285000Y-69898061D01*
X100245226Y-69698102D01*
X100167205Y-69509744D01*
X100053937Y-69340226D01*
X99909774Y-69196063D01*
X99740256Y-69082795D01*
X99551898Y-69004774D01*
X99351939Y-68965000D01*
X99148061Y-68965000D01*
X99004276Y-68993600D01*
X98995226Y-68948102D01*
X98917205Y-68759744D01*
X98803937Y-68590226D01*
X98659774Y-68446063D01*
X98490256Y-68332795D01*
X98301898Y-68254774D01*
X98101939Y-68215000D01*
X97898061Y-68215000D01*
X97698102Y-68254774D01*
X97509744Y-68332795D01*
X97340226Y-68446063D01*
X97196063Y-68590226D01*
X97082795Y-68759744D01*
X97004774Y-68948102D01*
X96965000Y-69148061D01*
X96965000Y-69351939D01*
X97004774Y-69551898D01*
X97082795Y-69740256D01*
X97196063Y-69909774D01*
X97240000Y-69953711D01*
X97240001Y-81612913D01*
X97125518Y-81624188D01*
X97005820Y-81660498D01*
X96895506Y-81719463D01*
X96798815Y-81798815D01*
X96719463Y-81895506D01*
X96660498Y-82005820D01*
X96624188Y-82125518D01*
X96611928Y-82250000D01*
X93360001Y-82250000D01*
X93360001Y-69721159D01*
X93490256Y-69667205D01*
X93659774Y-69553937D01*
X93803937Y-69409774D01*
X93917205Y-69240256D01*
X93995226Y-69051898D01*
X94035000Y-68851939D01*
X94035000Y-68648061D01*
X93995226Y-68448102D01*
X93917205Y-68259744D01*
X93803937Y-68090226D01*
X93659774Y-67946063D01*
X93490256Y-67832795D01*
X93301898Y-67754774D01*
X93101939Y-67715000D01*
X92898061Y-67715000D01*
X92698102Y-67754774D01*
X92509744Y-67832795D01*
X92340226Y-67946063D01*
X92196063Y-68090226D01*
X92082795Y-68259744D01*
X92004774Y-68448102D01*
X91965000Y-68648061D01*
X91965000Y-68725774D01*
X91898599Y-68850000D01*
X91894455Y-68857753D01*
X91850998Y-69001014D01*
X91840001Y-69112667D01*
X91840001Y-69112677D01*
X91836325Y-69149999D01*
X91840001Y-69187321D01*
X91840001Y-77520557D01*
X91801898Y-77504774D01*
X91601939Y-77465000D01*
X91398061Y-77465000D01*
X91198102Y-77504774D01*
X91009744Y-77582795D01*
X90840226Y-77696063D01*
X90696063Y-77840226D01*
X90582795Y-78009744D01*
X90504774Y-78198102D01*
X90465000Y-78398061D01*
X90465000Y-78601939D01*
X90504774Y-78801898D01*
X90582795Y-78990256D01*
X90696063Y-79159774D01*
X90740000Y-79203711D01*
X90740001Y-84185196D01*
X89485000Y-85440198D01*
X89485000Y-85332998D01*
X89326252Y-85332998D01*
X89485000Y-85174250D01*
X89488072Y-84610000D01*
X89475812Y-84485518D01*
X89439502Y-84365820D01*
X89380537Y-84255506D01*
X89301185Y-84158815D01*
X89204494Y-84079463D01*
X89094180Y-84020498D01*
X88974482Y-83984188D01*
X88850000Y-83971928D01*
X88285750Y-83975000D01*
X88127000Y-84133750D01*
X88127000Y-85333000D01*
X88147000Y-85333000D01*
X88147000Y-85587000D01*
X88127000Y-85587000D01*
X88127000Y-85607000D01*
X87873000Y-85607000D01*
X87873000Y-85587000D01*
X87853000Y-85587000D01*
X87853000Y-85333000D01*
X87873000Y-85333000D01*
X87873000Y-84133750D01*
X87714250Y-83975000D01*
X87150000Y-83971928D01*
X87025518Y-83984188D01*
X86905820Y-84020498D01*
X86795506Y-84079463D01*
X86698815Y-84158815D01*
X86660000Y-84206111D01*
X86660000Y-81185445D01*
X86684010Y-81243411D01*
X86846525Y-81486632D01*
X87053368Y-81693475D01*
X87296589Y-81855990D01*
X87566842Y-81967932D01*
X87853740Y-82025000D01*
X88146260Y-82025000D01*
X88433158Y-81967932D01*
X88703411Y-81855990D01*
X88946632Y-81693475D01*
X89153475Y-81486632D01*
X89315990Y-81243411D01*
X89427932Y-80973158D01*
X89485000Y-80686260D01*
X89485000Y-80393740D01*
X89427932Y-80106842D01*
X89315990Y-79836589D01*
X89153475Y-79593368D01*
X89021620Y-79461513D01*
X89094180Y-79439502D01*
X89204494Y-79380537D01*
X89301185Y-79301185D01*
X89380537Y-79204494D01*
X89439502Y-79094180D01*
X89475812Y-78974482D01*
X89488072Y-78850000D01*
X89485000Y-78285750D01*
X89326250Y-78127000D01*
X88127000Y-78127000D01*
X88127000Y-78147000D01*
X87873000Y-78147000D01*
X87873000Y-78127000D01*
X87853000Y-78127000D01*
X87853000Y-77873000D01*
X87873000Y-77873000D01*
X87873000Y-76673750D01*
X88127000Y-76673750D01*
X88127000Y-77873000D01*
X89326250Y-77873000D01*
X89485000Y-77714250D01*
X89488072Y-77150000D01*
X89475812Y-77025518D01*
X89439502Y-76905820D01*
X89380537Y-76795506D01*
X89301185Y-76698815D01*
X89204494Y-76619463D01*
X89094180Y-76560498D01*
X88974482Y-76524188D01*
X88850000Y-76511928D01*
X88285750Y-76515000D01*
X88127000Y-76673750D01*
X87873000Y-76673750D01*
X87714250Y-76515000D01*
X87150000Y-76511928D01*
X87025518Y-76524188D01*
X86905820Y-76560498D01*
X86795506Y-76619463D01*
X86698815Y-76698815D01*
X86660000Y-76746111D01*
X86660000Y-73725445D01*
X86684010Y-73783411D01*
X86846525Y-74026632D01*
X87053368Y-74233475D01*
X87296589Y-74395990D01*
X87566842Y-74507932D01*
X87853740Y-74565000D01*
X88146260Y-74565000D01*
X88433158Y-74507932D01*
X88703411Y-74395990D01*
X88946632Y-74233475D01*
X89153475Y-74026632D01*
X89315990Y-73783411D01*
X89427932Y-73513158D01*
X89485000Y-73226260D01*
X89485000Y-72933740D01*
X89427932Y-72646842D01*
X89315990Y-72376589D01*
X89153475Y-72133368D01*
X88946632Y-71926525D01*
X88772240Y-71810000D01*
X88946632Y-71693475D01*
X89153475Y-71486632D01*
X89315990Y-71243411D01*
X89427932Y-70973158D01*
X89485000Y-70686260D01*
X89485000Y-70393740D01*
X89427932Y-70106842D01*
X89315990Y-69836589D01*
X89153475Y-69593368D01*
X89021620Y-69461513D01*
X89094180Y-69439502D01*
X89204494Y-69380537D01*
X89301185Y-69301185D01*
X89380537Y-69204494D01*
X89439502Y-69094180D01*
X89475812Y-68974482D01*
X89488072Y-68850000D01*
X89485000Y-68285750D01*
X89326250Y-68127000D01*
X88127000Y-68127000D01*
X88127000Y-68147000D01*
X87873000Y-68147000D01*
X87873000Y-68127000D01*
X87853000Y-68127000D01*
X87853000Y-67873000D01*
X87873000Y-67873000D01*
X87873000Y-67853000D01*
X88127000Y-67853000D01*
X88127000Y-67873000D01*
X89326250Y-67873000D01*
X89485000Y-67714250D01*
X89488072Y-67150000D01*
X89475812Y-67025518D01*
X89439502Y-66905820D01*
X89380537Y-66795506D01*
X89301185Y-66698815D01*
X89253889Y-66660000D01*
X110649442Y-66660000D01*
X110582795Y-66759744D01*
G36*
X91840002Y-90625196D02*
G01*
X89485000Y-92980198D01*
X89485000Y-92872998D01*
X89326252Y-92872998D01*
X89485000Y-92714250D01*
X89488072Y-92150000D01*
X89475812Y-92025518D01*
X89439502Y-91905820D01*
X89380537Y-91795506D01*
X89301185Y-91698815D01*
X89204494Y-91619463D01*
X89094180Y-91560498D01*
X88974482Y-91524188D01*
X88850000Y-91511928D01*
X88285750Y-91515000D01*
X88127000Y-91673750D01*
X88127000Y-92873000D01*
X88147000Y-92873000D01*
X88147000Y-93127000D01*
X88127000Y-93127000D01*
X88127000Y-93147000D01*
X87873000Y-93147000D01*
X87873000Y-93127000D01*
X87853000Y-93127000D01*
X87853000Y-92873000D01*
X87873000Y-92873000D01*
X87873000Y-91673750D01*
X87714250Y-91515000D01*
X87150000Y-91511928D01*
X87025518Y-91524188D01*
X86905820Y-91560498D01*
X86795506Y-91619463D01*
X86698815Y-91698815D01*
X86660000Y-91746111D01*
X86660000Y-88645445D01*
X86684010Y-88703411D01*
X86846525Y-88946632D01*
X87053368Y-89153475D01*
X87296589Y-89315990D01*
X87566842Y-89427932D01*
X87853740Y-89485000D01*
X88146260Y-89485000D01*
X88433158Y-89427932D01*
X88703411Y-89315990D01*
X88946632Y-89153475D01*
X89153475Y-88946632D01*
X89315990Y-88703411D01*
X89427932Y-88433158D01*
X89485000Y-88146260D01*
X89485000Y-87853740D01*
X89441210Y-87633592D01*
X91840002Y-85234801D01*
X91840002Y-90625196D01*
G37*
X91840002Y-90625196D02*
X89485000Y-92980198D01*
X89485000Y-92872998D01*
X89326252Y-92872998D01*
X89485000Y-92714250D01*
X89488072Y-92150000D01*
X89475812Y-92025518D01*
X89439502Y-91905820D01*
X89380537Y-91795506D01*
X89301185Y-91698815D01*
X89204494Y-91619463D01*
X89094180Y-91560498D01*
X88974482Y-91524188D01*
X88850000Y-91511928D01*
X88285750Y-91515000D01*
X88127000Y-91673750D01*
X88127000Y-92873000D01*
X88147000Y-92873000D01*
X88147000Y-93127000D01*
X88127000Y-93127000D01*
X88127000Y-93147000D01*
X87873000Y-93147000D01*
X87873000Y-93127000D01*
X87853000Y-93127000D01*
X87853000Y-92873000D01*
X87873000Y-92873000D01*
X87873000Y-91673750D01*
X87714250Y-91515000D01*
X87150000Y-91511928D01*
X87025518Y-91524188D01*
X86905820Y-91560498D01*
X86795506Y-91619463D01*
X86698815Y-91698815D01*
X86660000Y-91746111D01*
X86660000Y-88645445D01*
X86684010Y-88703411D01*
X86846525Y-88946632D01*
X87053368Y-89153475D01*
X87296589Y-89315990D01*
X87566842Y-89427932D01*
X87853740Y-89485000D01*
X88146260Y-89485000D01*
X88433158Y-89427932D01*
X88703411Y-89315990D01*
X88946632Y-89153475D01*
X89153475Y-88946632D01*
X89315990Y-88703411D01*
X89427932Y-88433158D01*
X89485000Y-88146260D01*
X89485000Y-87853740D01*
X89441210Y-87633592D01*
X91840002Y-85234801D01*
X91840002Y-90625196D01*
M02*
