%FSLAX45Y45*%
G04 Gerber Fmt 4.5, Leading zero omitted, Abs format (unit mm)*
G04 Created by KiCad (PCBNEW 6.0.4-6f826c9f35~116~ubuntu20.04.1) date 2022-04-29 20:49:02*
%MOMM*%
%LPD*%
G01*
G04 APERTURE LIST*
%TA.AperFunction,Profile*%
%ADD10C,0.100000*%
%TD*%
%ADD11C,0.200000*%
%ADD12C,0.100000*%
G04 APERTURE END LIST*
D10*
X3610000Y-6520000D02*
X3610000Y-3450000D01*
X4610000Y-3450000D02*
X4610000Y-6520000D01*
X3610000Y-6520000D02*
X4610000Y-6520000D01*
X3610000Y-3450000D02*
X4610000Y-3450000D01*
D11*
D12*
X3802000Y-4460000D02*
X3902000Y-4560000D01*
X3902000Y-4460000D02*
X3802000Y-4560000D01*
X4056000Y-4460000D02*
X4156000Y-4560000D01*
X4156000Y-4460000D02*
X4056000Y-4560000D01*
X4310000Y-4460000D02*
X4410000Y-4560000D01*
X4410000Y-4460000D02*
X4310000Y-4560000D01*
D11*
X3862619Y-6835476D02*
X3862619Y-6635476D01*
X3910238Y-6635476D01*
X3938809Y-6645000D01*
X3957857Y-6664048D01*
X3967381Y-6683095D01*
X3976905Y-6721190D01*
X3976905Y-6749762D01*
X3967381Y-6787857D01*
X3957857Y-6806905D01*
X3938809Y-6825952D01*
X3910238Y-6835476D01*
X3862619Y-6835476D01*
X4062619Y-6835476D02*
X4062619Y-6702143D01*
X4062619Y-6740238D02*
X4072143Y-6721190D01*
X4081667Y-6711667D01*
X4100714Y-6702143D01*
X4119762Y-6702143D01*
X4186428Y-6835476D02*
X4186428Y-6702143D01*
X4186428Y-6635476D02*
X4176905Y-6645000D01*
X4186428Y-6654524D01*
X4195952Y-6645000D01*
X4186428Y-6635476D01*
X4186428Y-6654524D01*
X4310238Y-6835476D02*
X4291190Y-6825952D01*
X4281667Y-6806905D01*
X4281667Y-6635476D01*
X4415000Y-6835476D02*
X4395952Y-6825952D01*
X4386429Y-6806905D01*
X4386429Y-6635476D01*
X4643571Y-6835476D02*
X4643571Y-6635476D01*
X4710238Y-6778333D01*
X4776905Y-6635476D01*
X4776905Y-6835476D01*
X4957857Y-6835476D02*
X4957857Y-6730714D01*
X4948333Y-6711667D01*
X4929286Y-6702143D01*
X4891190Y-6702143D01*
X4872143Y-6711667D01*
X4957857Y-6825952D02*
X4938810Y-6835476D01*
X4891190Y-6835476D01*
X4872143Y-6825952D01*
X4862619Y-6806905D01*
X4862619Y-6787857D01*
X4872143Y-6768809D01*
X4891190Y-6759286D01*
X4938810Y-6759286D01*
X4957857Y-6749762D01*
X5053095Y-6702143D02*
X5053095Y-6902143D01*
X5053095Y-6711667D02*
X5072143Y-6702143D01*
X5110238Y-6702143D01*
X5129286Y-6711667D01*
X5138810Y-6721190D01*
X5148333Y-6740238D01*
X5148333Y-6797381D01*
X5138810Y-6816428D01*
X5129286Y-6825952D01*
X5110238Y-6835476D01*
X5072143Y-6835476D01*
X5053095Y-6825952D01*
X5234048Y-6816428D02*
X5243571Y-6825952D01*
X5234048Y-6835476D01*
X5224524Y-6825952D01*
X5234048Y-6816428D01*
X5234048Y-6835476D01*
X5234048Y-6711667D02*
X5243571Y-6721190D01*
X5234048Y-6730714D01*
X5224524Y-6721190D01*
X5234048Y-6711667D01*
X5234048Y-6730714D01*
D12*
X3505000Y-7115000D02*
X3605000Y-7215000D01*
X3605000Y-7115000D02*
X3505000Y-7215000D01*
D11*
X3967381Y-7255476D02*
X3853095Y-7255476D01*
X3910238Y-7255476D02*
X3910238Y-7055476D01*
X3891190Y-7084048D01*
X3872143Y-7103095D01*
X3853095Y-7112619D01*
X4053095Y-7236428D02*
X4062619Y-7245952D01*
X4053095Y-7255476D01*
X4043571Y-7245952D01*
X4053095Y-7236428D01*
X4053095Y-7255476D01*
X4186428Y-7055476D02*
X4205476Y-7055476D01*
X4224524Y-7065000D01*
X4234048Y-7074524D01*
X4243571Y-7093571D01*
X4253095Y-7131667D01*
X4253095Y-7179286D01*
X4243571Y-7217381D01*
X4234048Y-7236428D01*
X4224524Y-7245952D01*
X4205476Y-7255476D01*
X4186428Y-7255476D01*
X4167381Y-7245952D01*
X4157857Y-7236428D01*
X4148333Y-7217381D01*
X4138809Y-7179286D01*
X4138809Y-7131667D01*
X4148333Y-7093571D01*
X4157857Y-7074524D01*
X4167381Y-7065000D01*
X4186428Y-7055476D01*
X4376905Y-7055476D02*
X4395952Y-7055476D01*
X4415000Y-7065000D01*
X4424524Y-7074524D01*
X4434048Y-7093571D01*
X4443571Y-7131667D01*
X4443571Y-7179286D01*
X4434048Y-7217381D01*
X4424524Y-7236428D01*
X4415000Y-7245952D01*
X4395952Y-7255476D01*
X4376905Y-7255476D01*
X4357857Y-7245952D01*
X4348333Y-7236428D01*
X4338810Y-7217381D01*
X4329286Y-7179286D01*
X4329286Y-7131667D01*
X4338810Y-7093571D01*
X4348333Y-7074524D01*
X4357857Y-7065000D01*
X4376905Y-7055476D01*
X4567381Y-7055476D02*
X4586429Y-7055476D01*
X4605476Y-7065000D01*
X4615000Y-7074524D01*
X4624524Y-7093571D01*
X4634048Y-7131667D01*
X4634048Y-7179286D01*
X4624524Y-7217381D01*
X4615000Y-7236428D01*
X4605476Y-7245952D01*
X4586429Y-7255476D01*
X4567381Y-7255476D01*
X4548333Y-7245952D01*
X4538810Y-7236428D01*
X4529286Y-7217381D01*
X4519762Y-7179286D01*
X4519762Y-7131667D01*
X4529286Y-7093571D01*
X4538810Y-7074524D01*
X4548333Y-7065000D01*
X4567381Y-7055476D01*
X4719762Y-7255476D02*
X4719762Y-7122143D01*
X4719762Y-7141190D02*
X4729286Y-7131667D01*
X4748333Y-7122143D01*
X4776905Y-7122143D01*
X4795952Y-7131667D01*
X4805476Y-7150714D01*
X4805476Y-7255476D01*
X4805476Y-7150714D02*
X4815000Y-7131667D01*
X4834048Y-7122143D01*
X4862619Y-7122143D01*
X4881667Y-7131667D01*
X4891190Y-7150714D01*
X4891190Y-7255476D01*
X4986429Y-7255476D02*
X4986429Y-7122143D01*
X4986429Y-7141190D02*
X4995952Y-7131667D01*
X5015000Y-7122143D01*
X5043571Y-7122143D01*
X5062619Y-7131667D01*
X5072143Y-7150714D01*
X5072143Y-7255476D01*
X5072143Y-7150714D02*
X5081667Y-7131667D01*
X5100714Y-7122143D01*
X5129286Y-7122143D01*
X5148333Y-7131667D01*
X5157857Y-7150714D01*
X5157857Y-7255476D01*
X5548333Y-7045952D02*
X5376905Y-7303095D01*
X5805476Y-7055476D02*
X5824524Y-7055476D01*
X5843571Y-7065000D01*
X5853095Y-7074524D01*
X5862619Y-7093571D01*
X5872143Y-7131667D01*
X5872143Y-7179286D01*
X5862619Y-7217381D01*
X5853095Y-7236428D01*
X5843571Y-7245952D01*
X5824524Y-7255476D01*
X5805476Y-7255476D01*
X5786428Y-7245952D01*
X5776905Y-7236428D01*
X5767381Y-7217381D01*
X5757857Y-7179286D01*
X5757857Y-7131667D01*
X5767381Y-7093571D01*
X5776905Y-7074524D01*
X5786428Y-7065000D01*
X5805476Y-7055476D01*
X5957857Y-7236428D02*
X5967381Y-7245952D01*
X5957857Y-7255476D01*
X5948333Y-7245952D01*
X5957857Y-7236428D01*
X5957857Y-7255476D01*
X6091190Y-7055476D02*
X6110238Y-7055476D01*
X6129286Y-7065000D01*
X6138809Y-7074524D01*
X6148333Y-7093571D01*
X6157857Y-7131667D01*
X6157857Y-7179286D01*
X6148333Y-7217381D01*
X6138809Y-7236428D01*
X6129286Y-7245952D01*
X6110238Y-7255476D01*
X6091190Y-7255476D01*
X6072143Y-7245952D01*
X6062619Y-7236428D01*
X6053095Y-7217381D01*
X6043571Y-7179286D01*
X6043571Y-7131667D01*
X6053095Y-7093571D01*
X6062619Y-7074524D01*
X6072143Y-7065000D01*
X6091190Y-7055476D01*
X6224524Y-7055476D02*
X6348333Y-7055476D01*
X6281667Y-7131667D01*
X6310238Y-7131667D01*
X6329286Y-7141190D01*
X6338809Y-7150714D01*
X6348333Y-7169762D01*
X6348333Y-7217381D01*
X6338809Y-7236428D01*
X6329286Y-7245952D01*
X6310238Y-7255476D01*
X6253095Y-7255476D01*
X6234048Y-7245952D01*
X6224524Y-7236428D01*
X6443571Y-7255476D02*
X6481667Y-7255476D01*
X6500714Y-7245952D01*
X6510238Y-7236428D01*
X6529286Y-7207857D01*
X6538809Y-7169762D01*
X6538809Y-7093571D01*
X6529286Y-7074524D01*
X6519762Y-7065000D01*
X6500714Y-7055476D01*
X6462619Y-7055476D01*
X6443571Y-7065000D01*
X6434048Y-7074524D01*
X6424524Y-7093571D01*
X6424524Y-7141190D01*
X6434048Y-7160238D01*
X6443571Y-7169762D01*
X6462619Y-7179286D01*
X6500714Y-7179286D01*
X6519762Y-7169762D01*
X6529286Y-7160238D01*
X6538809Y-7141190D01*
X6710238Y-7122143D02*
X6710238Y-7255476D01*
X6662619Y-7045952D02*
X6615000Y-7188809D01*
X6738809Y-7188809D01*
X6805476Y-7055476D02*
X6805476Y-7093571D01*
X6881667Y-7055476D02*
X6881667Y-7093571D01*
X7176905Y-7331667D02*
X7167381Y-7322143D01*
X7148333Y-7293571D01*
X7138809Y-7274524D01*
X7129286Y-7245952D01*
X7119762Y-7198333D01*
X7119762Y-7160238D01*
X7129286Y-7112619D01*
X7138809Y-7084048D01*
X7148333Y-7065000D01*
X7167381Y-7036428D01*
X7176905Y-7026905D01*
X7234048Y-7055476D02*
X7357857Y-7055476D01*
X7291190Y-7131667D01*
X7319762Y-7131667D01*
X7338809Y-7141190D01*
X7348333Y-7150714D01*
X7357857Y-7169762D01*
X7357857Y-7217381D01*
X7348333Y-7236428D01*
X7338809Y-7245952D01*
X7319762Y-7255476D01*
X7262619Y-7255476D01*
X7243571Y-7245952D01*
X7234048Y-7236428D01*
X7595952Y-7255476D02*
X7595952Y-7055476D01*
X7681667Y-7255476D02*
X7681667Y-7150714D01*
X7672143Y-7131667D01*
X7653095Y-7122143D01*
X7624524Y-7122143D01*
X7605476Y-7131667D01*
X7595952Y-7141190D01*
X7805476Y-7255476D02*
X7786428Y-7245952D01*
X7776905Y-7236428D01*
X7767381Y-7217381D01*
X7767381Y-7160238D01*
X7776905Y-7141190D01*
X7786428Y-7131667D01*
X7805476Y-7122143D01*
X7834048Y-7122143D01*
X7853095Y-7131667D01*
X7862619Y-7141190D01*
X7872143Y-7160238D01*
X7872143Y-7217381D01*
X7862619Y-7236428D01*
X7853095Y-7245952D01*
X7834048Y-7255476D01*
X7805476Y-7255476D01*
X7986428Y-7255476D02*
X7967381Y-7245952D01*
X7957857Y-7226905D01*
X7957857Y-7055476D01*
X8138809Y-7245952D02*
X8119762Y-7255476D01*
X8081667Y-7255476D01*
X8062619Y-7245952D01*
X8053095Y-7226905D01*
X8053095Y-7150714D01*
X8062619Y-7131667D01*
X8081667Y-7122143D01*
X8119762Y-7122143D01*
X8138809Y-7131667D01*
X8148333Y-7150714D01*
X8148333Y-7169762D01*
X8053095Y-7188809D01*
X8224524Y-7245952D02*
X8243571Y-7255476D01*
X8281667Y-7255476D01*
X8300714Y-7245952D01*
X8310238Y-7226905D01*
X8310238Y-7217381D01*
X8300714Y-7198333D01*
X8281667Y-7188809D01*
X8253095Y-7188809D01*
X8234048Y-7179286D01*
X8224524Y-7160238D01*
X8224524Y-7150714D01*
X8234048Y-7131667D01*
X8253095Y-7122143D01*
X8281667Y-7122143D01*
X8300714Y-7131667D01*
X8376905Y-7331667D02*
X8386428Y-7322143D01*
X8405476Y-7293571D01*
X8415000Y-7274524D01*
X8424524Y-7245952D01*
X8434048Y-7198333D01*
X8434048Y-7160238D01*
X8424524Y-7112619D01*
X8415000Y-7084048D01*
X8405476Y-7065000D01*
X8386428Y-7036428D01*
X8376905Y-7026905D01*
M02*
