%TF.GenerationSoftware,KiCad,Pcbnew,6.0.4-6f826c9f35~116~ubuntu20.04.1*%
%TF.CreationDate,2022-04-29T20:49:00-06:00*%
%TF.ProjectId,slider,736c6964-6572-42e6-9b69-6361645f7063,rev?*%
%TF.SameCoordinates,Original*%
%TF.FileFunction,Legend,Top*%
%TF.FilePolarity,Positive*%
%FSLAX46Y46*%
G04 Gerber Fmt 4.6, Leading zero omitted, Abs format (unit mm)*
G04 Created by KiCad (PCBNEW 6.0.4-6f826c9f35~116~ubuntu20.04.1) date 2022-04-29 20:49:00*
%MOMM*%
%LPD*%
G01*
G04 APERTURE LIST*
G04 Aperture macros list*
%AMRoundRect*
0 Rectangle with rounded corners*
0 $1 Rounding radius*
0 $2 $3 $4 $5 $6 $7 $8 $9 X,Y pos of 4 corners*
0 Add a 4 corners polygon primitive as box body*
4,1,4,$2,$3,$4,$5,$6,$7,$8,$9,$2,$3,0*
0 Add four circle primitives for the rounded corners*
1,1,$1+$1,$2,$3*
1,1,$1+$1,$4,$5*
1,1,$1+$1,$6,$7*
1,1,$1+$1,$8,$9*
0 Add four rect primitives between the rounded corners*
20,1,$1+$1,$2,$3,$4,$5,0*
20,1,$1+$1,$4,$5,$6,$7,0*
20,1,$1+$1,$6,$7,$8,$9,0*
20,1,$1+$1,$8,$9,$2,$3,0*%
G04 Aperture macros list end*
%ADD10C,0.150000*%
%ADD11C,0.120000*%
%ADD12R,1.000000X1.500000*%
%ADD13RoundRect,0.225000X-0.225000X-0.250000X0.225000X-0.250000X0.225000X0.250000X-0.225000X0.250000X0*%
%ADD14RoundRect,0.200000X-0.200000X-0.275000X0.200000X-0.275000X0.200000X0.275000X-0.200000X0.275000X0*%
%ADD15RoundRect,0.140000X-0.140000X-0.170000X0.140000X-0.170000X0.140000X0.170000X-0.140000X0.170000X0*%
%ADD16R,1.700000X1.700000*%
%ADD17O,1.700000X1.700000*%
G04 APERTURE END LIST*
D10*
X44685714Y-38552380D02*
X44114285Y-38552380D01*
X44400000Y-38552380D02*
X44400000Y-37552380D01*
X44304761Y-37695238D01*
X44209523Y-37790476D01*
X44114285Y-37838095D01*
X44214285Y-49547619D02*
X44261904Y-49500000D01*
X44357142Y-49452380D01*
X44595238Y-49452380D01*
X44690476Y-49500000D01*
X44738095Y-49547619D01*
X44785714Y-49642857D01*
X44785714Y-49738095D01*
X44738095Y-49880952D01*
X44166666Y-50452380D01*
X44785714Y-50452380D01*
X44166666Y-60952380D02*
X44785714Y-60952380D01*
X44452380Y-61333333D01*
X44595238Y-61333333D01*
X44690476Y-61380952D01*
X44738095Y-61428571D01*
X44785714Y-61523809D01*
X44785714Y-61761904D01*
X44738095Y-61857142D01*
X44690476Y-61904761D01*
X44595238Y-61952380D01*
X44309523Y-61952380D01*
X44214285Y-61904761D01*
X44166666Y-61857142D01*
%TO.C,D1*%
X39982380Y-41964285D02*
X39982380Y-42535714D01*
X39982380Y-42250000D02*
X38982380Y-42250000D01*
X39125238Y-42345238D01*
X39220476Y-42440476D01*
X39268095Y-42535714D01*
%TO.C,D2*%
X39892380Y-53744285D02*
X39892380Y-54315714D01*
X39892380Y-54030000D02*
X38892380Y-54030000D01*
X39035238Y-54125238D01*
X39130476Y-54220476D01*
X39178095Y-54315714D01*
%TO.C,D3*%
X39952380Y-65464285D02*
X39952380Y-66035714D01*
X39952380Y-65750000D02*
X38952380Y-65750000D01*
X39095238Y-65845238D01*
X39190476Y-65940476D01*
X39238095Y-66035714D01*
D11*
%TO.C,D1*%
X38380000Y-41750000D02*
X38380000Y-34450000D01*
X43880000Y-34450000D02*
X42730000Y-34450000D01*
X43880000Y-41750000D02*
X43880000Y-34450000D01*
%TO.C,D2*%
X43790000Y-46230000D02*
X42640000Y-46230000D01*
X43790000Y-53530000D02*
X43790000Y-46230000D01*
X38290000Y-53530000D02*
X38290000Y-46230000D01*
%TO.C,C1*%
X40059420Y-56010000D02*
X40340580Y-56010000D01*
X40059420Y-54990000D02*
X40340580Y-54990000D01*
%TO.C,R1*%
X40962742Y-42177500D02*
X41437258Y-42177500D01*
X40962742Y-43222500D02*
X41437258Y-43222500D01*
%TO.C,D3*%
X43850000Y-57950000D02*
X42700000Y-57950000D01*
X38350000Y-65250000D02*
X38350000Y-57950000D01*
X43850000Y-65250000D02*
X43850000Y-57950000D01*
%TO.C,C2*%
X38392164Y-43460000D02*
X38607836Y-43460000D01*
X38392164Y-42740000D02*
X38607836Y-42740000D01*
%TD*%
%LPC*%
D12*
%TO.C,D1*%
X39530000Y-40550000D03*
X42730000Y-40550000D03*
X42730000Y-35650000D03*
X39530000Y-35650000D03*
%TD*%
%TO.C,D2*%
X39440000Y-52330000D03*
X42640000Y-52330000D03*
X42640000Y-47430000D03*
X39440000Y-47430000D03*
%TD*%
D13*
%TO.C,C1*%
X39425000Y-55500000D03*
X40975000Y-55500000D03*
%TD*%
D14*
%TO.C,R1*%
X40375000Y-42700000D03*
X42025000Y-42700000D03*
%TD*%
D12*
%TO.C,D3*%
X39500000Y-64050000D03*
X42700000Y-64050000D03*
X42700000Y-59150000D03*
X39500000Y-59150000D03*
%TD*%
D15*
%TO.C,C2*%
X38020000Y-43100000D03*
X38980000Y-43100000D03*
%TD*%
D16*
%TO.C,J1*%
X43600000Y-45100000D03*
D17*
X41060000Y-45100000D03*
X38520000Y-45100000D03*
%TD*%
M02*
