G04 #@! TF.GenerationSoftware,KiCad,Pcbnew,5.1.9-73d0e3b20d~88~ubuntu20.04.1*
G04 #@! TF.CreationDate,2021-04-26T21:02:44-06:00*
G04 #@! TF.ProjectId,pole-node,706f6c65-2d6e-46f6-9465-2e6b69636164,rev?*
G04 #@! TF.SameCoordinates,Original*
G04 #@! TF.FileFunction,Soldermask,Top*
G04 #@! TF.FilePolarity,Negative*
%FSLAX46Y46*%
G04 Gerber Fmt 4.6, Leading zero omitted, Abs format (unit mm)*
G04 Created by KiCad (PCBNEW 5.1.9-73d0e3b20d~88~ubuntu20.04.1) date 2021-04-26 21:02:44*
%MOMM*%
%LPD*%
G01*
G04 APERTURE LIST*
%ADD10C,2.000000*%
%ADD11R,2.000000X2.000000*%
%ADD12R,2.500000X2.300000*%
%ADD13R,2.300000X2.500000*%
%ADD14O,1.700000X1.700000*%
%ADD15R,1.700000X1.700000*%
%ADD16O,6.030000X2.070000*%
%ADD17C,5.200000*%
%ADD18R,0.650000X1.060000*%
%ADD19R,5.900000X1.600000*%
%ADD20C,1.500000*%
%ADD21R,1.500000X1.500000*%
%ADD22C,3.200000*%
%ADD23R,0.450000X0.600000*%
%ADD24R,0.900000X1.200000*%
G04 APERTURE END LIST*
D10*
X45500000Y-63500000D03*
D11*
X40500000Y-63500000D03*
D12*
X88850000Y-53800000D03*
X93150000Y-53800000D03*
D13*
X52400000Y-58400000D03*
X52400000Y-62700000D03*
D12*
X44850000Y-48600000D03*
X40550000Y-48600000D03*
X56250000Y-38100000D03*
X51950000Y-38100000D03*
X98650000Y-48600000D03*
X102950000Y-48600000D03*
X98650000Y-53800000D03*
X102950000Y-53800000D03*
X88850000Y-48600000D03*
X93150000Y-48600000D03*
X63850000Y-67200000D03*
X59550000Y-67200000D03*
X55550000Y-67200000D03*
X51250000Y-67200000D03*
D10*
X50500000Y-46000000D03*
D11*
X55500000Y-46000000D03*
D14*
X60920000Y-72000000D03*
X63460000Y-72000000D03*
D15*
X66000000Y-72000000D03*
D14*
X50420000Y-72000000D03*
X52960000Y-72000000D03*
D15*
X55500000Y-72000000D03*
D14*
X39920000Y-72000000D03*
X42460000Y-72000000D03*
D15*
X45000000Y-72000000D03*
D14*
X66080000Y-41000000D03*
X63540000Y-41000000D03*
D15*
X61000000Y-41000000D03*
D16*
X82950000Y-53000000D03*
X75050000Y-53000000D03*
X75050000Y-58910000D03*
X82950000Y-58910000D03*
D13*
X68000000Y-63350000D03*
X68000000Y-67650000D03*
G36*
G01*
X59750000Y-60325000D02*
X60250000Y-60325000D01*
G75*
G02*
X60475000Y-60550000I0J-225000D01*
G01*
X60475000Y-61000000D01*
G75*
G02*
X60250000Y-61225000I-225000J0D01*
G01*
X59750000Y-61225000D01*
G75*
G02*
X59525000Y-61000000I0J225000D01*
G01*
X59525000Y-60550000D01*
G75*
G02*
X59750000Y-60325000I225000J0D01*
G01*
G37*
G36*
G01*
X59750000Y-58775000D02*
X60250000Y-58775000D01*
G75*
G02*
X60475000Y-59000000I0J-225000D01*
G01*
X60475000Y-59450000D01*
G75*
G02*
X60250000Y-59675000I-225000J0D01*
G01*
X59750000Y-59675000D01*
G75*
G02*
X59525000Y-59450000I0J225000D01*
G01*
X59525000Y-59000000D01*
G75*
G02*
X59750000Y-58775000I225000J0D01*
G01*
G37*
D17*
X100500000Y-40500000D03*
X43500000Y-40500000D03*
G36*
G01*
X60250000Y-63956250D02*
X60250000Y-63443750D01*
G75*
G02*
X60468750Y-63225000I218750J0D01*
G01*
X60906250Y-63225000D01*
G75*
G02*
X61125000Y-63443750I0J-218750D01*
G01*
X61125000Y-63956250D01*
G75*
G02*
X60906250Y-64175000I-218750J0D01*
G01*
X60468750Y-64175000D01*
G75*
G02*
X60250000Y-63956250I0J218750D01*
G01*
G37*
G36*
G01*
X58675000Y-63956250D02*
X58675000Y-63443750D01*
G75*
G02*
X58893750Y-63225000I218750J0D01*
G01*
X59331250Y-63225000D01*
G75*
G02*
X59550000Y-63443750I0J-218750D01*
G01*
X59550000Y-63956250D01*
G75*
G02*
X59331250Y-64175000I-218750J0D01*
G01*
X58893750Y-64175000D01*
G75*
G02*
X58675000Y-63956250I0J218750D01*
G01*
G37*
G36*
G01*
X43500000Y-52745000D02*
X43500000Y-52445000D01*
G75*
G02*
X43650000Y-52295000I150000J0D01*
G01*
X45300000Y-52295000D01*
G75*
G02*
X45450000Y-52445000I0J-150000D01*
G01*
X45450000Y-52745000D01*
G75*
G02*
X45300000Y-52895000I-150000J0D01*
G01*
X43650000Y-52895000D01*
G75*
G02*
X43500000Y-52745000I0J150000D01*
G01*
G37*
G36*
G01*
X43500000Y-54015000D02*
X43500000Y-53715000D01*
G75*
G02*
X43650000Y-53565000I150000J0D01*
G01*
X45300000Y-53565000D01*
G75*
G02*
X45450000Y-53715000I0J-150000D01*
G01*
X45450000Y-54015000D01*
G75*
G02*
X45300000Y-54165000I-150000J0D01*
G01*
X43650000Y-54165000D01*
G75*
G02*
X43500000Y-54015000I0J150000D01*
G01*
G37*
G36*
G01*
X43500000Y-55285000D02*
X43500000Y-54985000D01*
G75*
G02*
X43650000Y-54835000I150000J0D01*
G01*
X45300000Y-54835000D01*
G75*
G02*
X45450000Y-54985000I0J-150000D01*
G01*
X45450000Y-55285000D01*
G75*
G02*
X45300000Y-55435000I-150000J0D01*
G01*
X43650000Y-55435000D01*
G75*
G02*
X43500000Y-55285000I0J150000D01*
G01*
G37*
G36*
G01*
X43500000Y-56555000D02*
X43500000Y-56255000D01*
G75*
G02*
X43650000Y-56105000I150000J0D01*
G01*
X45300000Y-56105000D01*
G75*
G02*
X45450000Y-56255000I0J-150000D01*
G01*
X45450000Y-56555000D01*
G75*
G02*
X45300000Y-56705000I-150000J0D01*
G01*
X43650000Y-56705000D01*
G75*
G02*
X43500000Y-56555000I0J150000D01*
G01*
G37*
G36*
G01*
X38550000Y-56555000D02*
X38550000Y-56255000D01*
G75*
G02*
X38700000Y-56105000I150000J0D01*
G01*
X40350000Y-56105000D01*
G75*
G02*
X40500000Y-56255000I0J-150000D01*
G01*
X40500000Y-56555000D01*
G75*
G02*
X40350000Y-56705000I-150000J0D01*
G01*
X38700000Y-56705000D01*
G75*
G02*
X38550000Y-56555000I0J150000D01*
G01*
G37*
G36*
G01*
X38550000Y-55285000D02*
X38550000Y-54985000D01*
G75*
G02*
X38700000Y-54835000I150000J0D01*
G01*
X40350000Y-54835000D01*
G75*
G02*
X40500000Y-54985000I0J-150000D01*
G01*
X40500000Y-55285000D01*
G75*
G02*
X40350000Y-55435000I-150000J0D01*
G01*
X38700000Y-55435000D01*
G75*
G02*
X38550000Y-55285000I0J150000D01*
G01*
G37*
G36*
G01*
X38550000Y-54015000D02*
X38550000Y-53715000D01*
G75*
G02*
X38700000Y-53565000I150000J0D01*
G01*
X40350000Y-53565000D01*
G75*
G02*
X40500000Y-53715000I0J-150000D01*
G01*
X40500000Y-54015000D01*
G75*
G02*
X40350000Y-54165000I-150000J0D01*
G01*
X38700000Y-54165000D01*
G75*
G02*
X38550000Y-54015000I0J150000D01*
G01*
G37*
G36*
G01*
X38550000Y-52745000D02*
X38550000Y-52445000D01*
G75*
G02*
X38700000Y-52295000I150000J0D01*
G01*
X40350000Y-52295000D01*
G75*
G02*
X40500000Y-52445000I0J-150000D01*
G01*
X40500000Y-52745000D01*
G75*
G02*
X40350000Y-52895000I-150000J0D01*
G01*
X38700000Y-52895000D01*
G75*
G02*
X38550000Y-52745000I0J150000D01*
G01*
G37*
G36*
G01*
X65000000Y-48255000D02*
X65000000Y-48555000D01*
G75*
G02*
X64850000Y-48705000I-150000J0D01*
G01*
X63200000Y-48705000D01*
G75*
G02*
X63050000Y-48555000I0J150000D01*
G01*
X63050000Y-48255000D01*
G75*
G02*
X63200000Y-48105000I150000J0D01*
G01*
X64850000Y-48105000D01*
G75*
G02*
X65000000Y-48255000I0J-150000D01*
G01*
G37*
G36*
G01*
X65000000Y-46985000D02*
X65000000Y-47285000D01*
G75*
G02*
X64850000Y-47435000I-150000J0D01*
G01*
X63200000Y-47435000D01*
G75*
G02*
X63050000Y-47285000I0J150000D01*
G01*
X63050000Y-46985000D01*
G75*
G02*
X63200000Y-46835000I150000J0D01*
G01*
X64850000Y-46835000D01*
G75*
G02*
X65000000Y-46985000I0J-150000D01*
G01*
G37*
G36*
G01*
X65000000Y-45715000D02*
X65000000Y-46015000D01*
G75*
G02*
X64850000Y-46165000I-150000J0D01*
G01*
X63200000Y-46165000D01*
G75*
G02*
X63050000Y-46015000I0J150000D01*
G01*
X63050000Y-45715000D01*
G75*
G02*
X63200000Y-45565000I150000J0D01*
G01*
X64850000Y-45565000D01*
G75*
G02*
X65000000Y-45715000I0J-150000D01*
G01*
G37*
G36*
G01*
X65000000Y-44445000D02*
X65000000Y-44745000D01*
G75*
G02*
X64850000Y-44895000I-150000J0D01*
G01*
X63200000Y-44895000D01*
G75*
G02*
X63050000Y-44745000I0J150000D01*
G01*
X63050000Y-44445000D01*
G75*
G02*
X63200000Y-44295000I150000J0D01*
G01*
X64850000Y-44295000D01*
G75*
G02*
X65000000Y-44445000I0J-150000D01*
G01*
G37*
G36*
G01*
X69950000Y-44445000D02*
X69950000Y-44745000D01*
G75*
G02*
X69800000Y-44895000I-150000J0D01*
G01*
X68150000Y-44895000D01*
G75*
G02*
X68000000Y-44745000I0J150000D01*
G01*
X68000000Y-44445000D01*
G75*
G02*
X68150000Y-44295000I150000J0D01*
G01*
X69800000Y-44295000D01*
G75*
G02*
X69950000Y-44445000I0J-150000D01*
G01*
G37*
G36*
G01*
X69950000Y-45715000D02*
X69950000Y-46015000D01*
G75*
G02*
X69800000Y-46165000I-150000J0D01*
G01*
X68150000Y-46165000D01*
G75*
G02*
X68000000Y-46015000I0J150000D01*
G01*
X68000000Y-45715000D01*
G75*
G02*
X68150000Y-45565000I150000J0D01*
G01*
X69800000Y-45565000D01*
G75*
G02*
X69950000Y-45715000I0J-150000D01*
G01*
G37*
G36*
G01*
X69950000Y-46985000D02*
X69950000Y-47285000D01*
G75*
G02*
X69800000Y-47435000I-150000J0D01*
G01*
X68150000Y-47435000D01*
G75*
G02*
X68000000Y-47285000I0J150000D01*
G01*
X68000000Y-46985000D01*
G75*
G02*
X68150000Y-46835000I150000J0D01*
G01*
X69800000Y-46835000D01*
G75*
G02*
X69950000Y-46985000I0J-150000D01*
G01*
G37*
G36*
G01*
X69950000Y-48255000D02*
X69950000Y-48555000D01*
G75*
G02*
X69800000Y-48705000I-150000J0D01*
G01*
X68150000Y-48705000D01*
G75*
G02*
X68000000Y-48555000I0J150000D01*
G01*
X68000000Y-48255000D01*
G75*
G02*
X68150000Y-48105000I150000J0D01*
G01*
X69800000Y-48105000D01*
G75*
G02*
X69950000Y-48255000I0J-150000D01*
G01*
G37*
D18*
X66000000Y-54400000D03*
X65050000Y-54400000D03*
X66950000Y-54400000D03*
X66950000Y-56600000D03*
X66000000Y-56600000D03*
X65050000Y-56600000D03*
G36*
G01*
X57743750Y-60350000D02*
X58256250Y-60350000D01*
G75*
G02*
X58475000Y-60568750I0J-218750D01*
G01*
X58475000Y-61006250D01*
G75*
G02*
X58256250Y-61225000I-218750J0D01*
G01*
X57743750Y-61225000D01*
G75*
G02*
X57525000Y-61006250I0J218750D01*
G01*
X57525000Y-60568750D01*
G75*
G02*
X57743750Y-60350000I218750J0D01*
G01*
G37*
G36*
G01*
X57743750Y-58775000D02*
X58256250Y-58775000D01*
G75*
G02*
X58475000Y-58993750I0J-218750D01*
G01*
X58475000Y-59431250D01*
G75*
G02*
X58256250Y-59650000I-218750J0D01*
G01*
X57743750Y-59650000D01*
G75*
G02*
X57525000Y-59431250I0J218750D01*
G01*
X57525000Y-58993750D01*
G75*
G02*
X57743750Y-58775000I218750J0D01*
G01*
G37*
G36*
G01*
X48350000Y-55256250D02*
X48350000Y-54743750D01*
G75*
G02*
X48568750Y-54525000I218750J0D01*
G01*
X49006250Y-54525000D01*
G75*
G02*
X49225000Y-54743750I0J-218750D01*
G01*
X49225000Y-55256250D01*
G75*
G02*
X49006250Y-55475000I-218750J0D01*
G01*
X48568750Y-55475000D01*
G75*
G02*
X48350000Y-55256250I0J218750D01*
G01*
G37*
G36*
G01*
X46775000Y-55256250D02*
X46775000Y-54743750D01*
G75*
G02*
X46993750Y-54525000I218750J0D01*
G01*
X47431250Y-54525000D01*
G75*
G02*
X47650000Y-54743750I0J-218750D01*
G01*
X47650000Y-55256250D01*
G75*
G02*
X47431250Y-55475000I-218750J0D01*
G01*
X46993750Y-55475000D01*
G75*
G02*
X46775000Y-55256250I0J218750D01*
G01*
G37*
G36*
G01*
X60150000Y-45743750D02*
X60150000Y-46256250D01*
G75*
G02*
X59931250Y-46475000I-218750J0D01*
G01*
X59493750Y-46475000D01*
G75*
G02*
X59275000Y-46256250I0J218750D01*
G01*
X59275000Y-45743750D01*
G75*
G02*
X59493750Y-45525000I218750J0D01*
G01*
X59931250Y-45525000D01*
G75*
G02*
X60150000Y-45743750I0J-218750D01*
G01*
G37*
G36*
G01*
X61725000Y-45743750D02*
X61725000Y-46256250D01*
G75*
G02*
X61506250Y-46475000I-218750J0D01*
G01*
X61068750Y-46475000D01*
G75*
G02*
X60850000Y-46256250I0J218750D01*
G01*
X60850000Y-45743750D01*
G75*
G02*
X61068750Y-45525000I218750J0D01*
G01*
X61506250Y-45525000D01*
G75*
G02*
X61725000Y-45743750I0J-218750D01*
G01*
G37*
G36*
G01*
X68243750Y-59850000D02*
X68756250Y-59850000D01*
G75*
G02*
X68975000Y-60068750I0J-218750D01*
G01*
X68975000Y-60506250D01*
G75*
G02*
X68756250Y-60725000I-218750J0D01*
G01*
X68243750Y-60725000D01*
G75*
G02*
X68025000Y-60506250I0J218750D01*
G01*
X68025000Y-60068750D01*
G75*
G02*
X68243750Y-59850000I218750J0D01*
G01*
G37*
G36*
G01*
X68243750Y-58275000D02*
X68756250Y-58275000D01*
G75*
G02*
X68975000Y-58493750I0J-218750D01*
G01*
X68975000Y-58931250D01*
G75*
G02*
X68756250Y-59150000I-218750J0D01*
G01*
X68243750Y-59150000D01*
G75*
G02*
X68025000Y-58931250I0J218750D01*
G01*
X68025000Y-58493750D01*
G75*
G02*
X68243750Y-58275000I218750J0D01*
G01*
G37*
G36*
G01*
X66756250Y-59150000D02*
X66243750Y-59150000D01*
G75*
G02*
X66025000Y-58931250I0J218750D01*
G01*
X66025000Y-58493750D01*
G75*
G02*
X66243750Y-58275000I218750J0D01*
G01*
X66756250Y-58275000D01*
G75*
G02*
X66975000Y-58493750I0J-218750D01*
G01*
X66975000Y-58931250D01*
G75*
G02*
X66756250Y-59150000I-218750J0D01*
G01*
G37*
G36*
G01*
X66756250Y-60725000D02*
X66243750Y-60725000D01*
G75*
G02*
X66025000Y-60506250I0J218750D01*
G01*
X66025000Y-60068750D01*
G75*
G02*
X66243750Y-59850000I218750J0D01*
G01*
X66756250Y-59850000D01*
G75*
G02*
X66975000Y-60068750I0J-218750D01*
G01*
X66975000Y-60506250D01*
G75*
G02*
X66756250Y-60725000I-218750J0D01*
G01*
G37*
D19*
X60000000Y-56850000D03*
X60000000Y-52150000D03*
D20*
X102390000Y-60190000D03*
X101120000Y-62730000D03*
X99850000Y-60190000D03*
X98580000Y-62730000D03*
X97310000Y-60190000D03*
X96040000Y-62730000D03*
X94770000Y-60190000D03*
D21*
X93500000Y-62730000D03*
D22*
X92230000Y-69080000D03*
X103660000Y-69080000D03*
G36*
G01*
X55993750Y-60350000D02*
X56506250Y-60350000D01*
G75*
G02*
X56725000Y-60568750I0J-218750D01*
G01*
X56725000Y-61006250D01*
G75*
G02*
X56506250Y-61225000I-218750J0D01*
G01*
X55993750Y-61225000D01*
G75*
G02*
X55775000Y-61006250I0J218750D01*
G01*
X55775000Y-60568750D01*
G75*
G02*
X55993750Y-60350000I218750J0D01*
G01*
G37*
G36*
G01*
X55993750Y-58775000D02*
X56506250Y-58775000D01*
G75*
G02*
X56725000Y-58993750I0J-218750D01*
G01*
X56725000Y-59431250D01*
G75*
G02*
X56506250Y-59650000I-218750J0D01*
G01*
X55993750Y-59650000D01*
G75*
G02*
X55775000Y-59431250I0J218750D01*
G01*
X55775000Y-58993750D01*
G75*
G02*
X55993750Y-58775000I218750J0D01*
G01*
G37*
D23*
X64500000Y-64050000D03*
X64500000Y-61950000D03*
D24*
X68150000Y-51500000D03*
X64850000Y-51500000D03*
G36*
G01*
X56850000Y-63956250D02*
X56850000Y-63443750D01*
G75*
G02*
X57068750Y-63225000I218750J0D01*
G01*
X57506250Y-63225000D01*
G75*
G02*
X57725000Y-63443750I0J-218750D01*
G01*
X57725000Y-63956250D01*
G75*
G02*
X57506250Y-64175000I-218750J0D01*
G01*
X57068750Y-64175000D01*
G75*
G02*
X56850000Y-63956250I0J218750D01*
G01*
G37*
G36*
G01*
X55275000Y-63956250D02*
X55275000Y-63443750D01*
G75*
G02*
X55493750Y-63225000I218750J0D01*
G01*
X55931250Y-63225000D01*
G75*
G02*
X56150000Y-63443750I0J-218750D01*
G01*
X56150000Y-63956250D01*
G75*
G02*
X55931250Y-64175000I-218750J0D01*
G01*
X55493750Y-64175000D01*
G75*
G02*
X55275000Y-63956250I0J218750D01*
G01*
G37*
G36*
G01*
X48350000Y-52756250D02*
X48350000Y-52243750D01*
G75*
G02*
X48568750Y-52025000I218750J0D01*
G01*
X49006250Y-52025000D01*
G75*
G02*
X49225000Y-52243750I0J-218750D01*
G01*
X49225000Y-52756250D01*
G75*
G02*
X49006250Y-52975000I-218750J0D01*
G01*
X48568750Y-52975000D01*
G75*
G02*
X48350000Y-52756250I0J218750D01*
G01*
G37*
G36*
G01*
X46775000Y-52756250D02*
X46775000Y-52243750D01*
G75*
G02*
X46993750Y-52025000I218750J0D01*
G01*
X47431250Y-52025000D01*
G75*
G02*
X47650000Y-52243750I0J-218750D01*
G01*
X47650000Y-52756250D01*
G75*
G02*
X47431250Y-52975000I-218750J0D01*
G01*
X46993750Y-52975000D01*
G75*
G02*
X46775000Y-52756250I0J218750D01*
G01*
G37*
G36*
G01*
X60150000Y-48243750D02*
X60150000Y-48756250D01*
G75*
G02*
X59931250Y-48975000I-218750J0D01*
G01*
X59493750Y-48975000D01*
G75*
G02*
X59275000Y-48756250I0J218750D01*
G01*
X59275000Y-48243750D01*
G75*
G02*
X59493750Y-48025000I218750J0D01*
G01*
X59931250Y-48025000D01*
G75*
G02*
X60150000Y-48243750I0J-218750D01*
G01*
G37*
G36*
G01*
X61725000Y-48243750D02*
X61725000Y-48756250D01*
G75*
G02*
X61506250Y-48975000I-218750J0D01*
G01*
X61068750Y-48975000D01*
G75*
G02*
X60850000Y-48756250I0J218750D01*
G01*
X60850000Y-48243750D01*
G75*
G02*
X61068750Y-48025000I218750J0D01*
G01*
X61506250Y-48025000D01*
G75*
G02*
X61725000Y-48243750I0J-218750D01*
G01*
G37*
G36*
G01*
X47650000Y-56743750D02*
X47650000Y-57256250D01*
G75*
G02*
X47431250Y-57475000I-218750J0D01*
G01*
X46993750Y-57475000D01*
G75*
G02*
X46775000Y-57256250I0J218750D01*
G01*
X46775000Y-56743750D01*
G75*
G02*
X46993750Y-56525000I218750J0D01*
G01*
X47431250Y-56525000D01*
G75*
G02*
X47650000Y-56743750I0J-218750D01*
G01*
G37*
G36*
G01*
X49225000Y-56743750D02*
X49225000Y-57256250D01*
G75*
G02*
X49006250Y-57475000I-218750J0D01*
G01*
X48568750Y-57475000D01*
G75*
G02*
X48350000Y-57256250I0J218750D01*
G01*
X48350000Y-56743750D01*
G75*
G02*
X48568750Y-56525000I218750J0D01*
G01*
X49006250Y-56525000D01*
G75*
G02*
X49225000Y-56743750I0J-218750D01*
G01*
G37*
G36*
G01*
X60850000Y-44256250D02*
X60850000Y-43743750D01*
G75*
G02*
X61068750Y-43525000I218750J0D01*
G01*
X61506250Y-43525000D01*
G75*
G02*
X61725000Y-43743750I0J-218750D01*
G01*
X61725000Y-44256250D01*
G75*
G02*
X61506250Y-44475000I-218750J0D01*
G01*
X61068750Y-44475000D01*
G75*
G02*
X60850000Y-44256250I0J218750D01*
G01*
G37*
G36*
G01*
X59275000Y-44256250D02*
X59275000Y-43743750D01*
G75*
G02*
X59493750Y-43525000I218750J0D01*
G01*
X59931250Y-43525000D01*
G75*
G02*
X60150000Y-43743750I0J-218750D01*
G01*
X60150000Y-44256250D01*
G75*
G02*
X59931250Y-44475000I-218750J0D01*
G01*
X59493750Y-44475000D01*
G75*
G02*
X59275000Y-44256250I0J218750D01*
G01*
G37*
G36*
G01*
X61543750Y-60450000D02*
X62456250Y-60450000D01*
G75*
G02*
X62700000Y-60693750I0J-243750D01*
G01*
X62700000Y-61181250D01*
G75*
G02*
X62456250Y-61425000I-243750J0D01*
G01*
X61543750Y-61425000D01*
G75*
G02*
X61300000Y-61181250I0J243750D01*
G01*
X61300000Y-60693750D01*
G75*
G02*
X61543750Y-60450000I243750J0D01*
G01*
G37*
G36*
G01*
X61543750Y-58575000D02*
X62456250Y-58575000D01*
G75*
G02*
X62700000Y-58818750I0J-243750D01*
G01*
X62700000Y-59306250D01*
G75*
G02*
X62456250Y-59550000I-243750J0D01*
G01*
X61543750Y-59550000D01*
G75*
G02*
X61300000Y-59306250I0J243750D01*
G01*
X61300000Y-58818750D01*
G75*
G02*
X61543750Y-58575000I243750J0D01*
G01*
G37*
G36*
G01*
X64756250Y-59150000D02*
X64243750Y-59150000D01*
G75*
G02*
X64025000Y-58931250I0J218750D01*
G01*
X64025000Y-58493750D01*
G75*
G02*
X64243750Y-58275000I218750J0D01*
G01*
X64756250Y-58275000D01*
G75*
G02*
X64975000Y-58493750I0J-218750D01*
G01*
X64975000Y-58931250D01*
G75*
G02*
X64756250Y-59150000I-218750J0D01*
G01*
G37*
G36*
G01*
X64756250Y-60725000D02*
X64243750Y-60725000D01*
G75*
G02*
X64025000Y-60506250I0J218750D01*
G01*
X64025000Y-60068750D01*
G75*
G02*
X64243750Y-59850000I218750J0D01*
G01*
X64756250Y-59850000D01*
G75*
G02*
X64975000Y-60068750I0J-218750D01*
G01*
X64975000Y-60506250D01*
G75*
G02*
X64756250Y-60725000I-218750J0D01*
G01*
G37*
G36*
G01*
X69043750Y-55950000D02*
X69956250Y-55950000D01*
G75*
G02*
X70200000Y-56193750I0J-243750D01*
G01*
X70200000Y-56681250D01*
G75*
G02*
X69956250Y-56925000I-243750J0D01*
G01*
X69043750Y-56925000D01*
G75*
G02*
X68800000Y-56681250I0J243750D01*
G01*
X68800000Y-56193750D01*
G75*
G02*
X69043750Y-55950000I243750J0D01*
G01*
G37*
G36*
G01*
X69043750Y-54075000D02*
X69956250Y-54075000D01*
G75*
G02*
X70200000Y-54318750I0J-243750D01*
G01*
X70200000Y-54806250D01*
G75*
G02*
X69956250Y-55050000I-243750J0D01*
G01*
X69043750Y-55050000D01*
G75*
G02*
X68800000Y-54806250I0J243750D01*
G01*
X68800000Y-54318750D01*
G75*
G02*
X69043750Y-54075000I243750J0D01*
G01*
G37*
M02*
