G04 #@! TF.GenerationSoftware,KiCad,Pcbnew,7.0.2-6a45011f42~172~ubuntu22.04.1*
G04 #@! TF.CreationDate,2023-05-09T21:58:53-06:00*
G04 #@! TF.ProjectId,pole-node,706f6c65-2d6e-46f6-9465-2e6b69636164,rev?*
G04 #@! TF.SameCoordinates,Original*
G04 #@! TF.FileFunction,Soldermask,Bot*
G04 #@! TF.FilePolarity,Negative*
%FSLAX46Y46*%
G04 Gerber Fmt 4.6, Leading zero omitted, Abs format (unit mm)*
G04 Created by KiCad (PCBNEW 7.0.2-6a45011f42~172~ubuntu22.04.1) date 2023-05-09 21:58:53*
%MOMM*%
%LPD*%
G01*
G04 APERTURE LIST*
G04 Aperture macros list*
%AMRoundRect*
0 Rectangle with rounded corners*
0 $1 Rounding radius*
0 $2 $3 $4 $5 $6 $7 $8 $9 X,Y pos of 4 corners*
0 Add a 4 corners polygon primitive as box body*
4,1,4,$2,$3,$4,$5,$6,$7,$8,$9,$2,$3,0*
0 Add four circle primitives for the rounded corners*
1,1,$1+$1,$2,$3*
1,1,$1+$1,$4,$5*
1,1,$1+$1,$6,$7*
1,1,$1+$1,$8,$9*
0 Add four rect primitives between the rounded corners*
20,1,$1+$1,$2,$3,$4,$5,0*
20,1,$1+$1,$4,$5,$6,$7,0*
20,1,$1+$1,$6,$7,$8,$9,0*
20,1,$1+$1,$8,$9,$2,$3,0*%
G04 Aperture macros list end*
%ADD10RoundRect,0.150000X0.150000X-0.650000X0.150000X0.650000X-0.150000X0.650000X-0.150000X-0.650000X0*%
%ADD11RoundRect,0.250000X-1.450000X0.312500X-1.450000X-0.312500X1.450000X-0.312500X1.450000X0.312500X0*%
%ADD12RoundRect,0.200000X0.200000X0.275000X-0.200000X0.275000X-0.200000X-0.275000X0.200000X-0.275000X0*%
%ADD13RoundRect,0.200000X0.275000X-0.200000X0.275000X0.200000X-0.275000X0.200000X-0.275000X-0.200000X0*%
%ADD14RoundRect,0.200000X-0.275000X0.200000X-0.275000X-0.200000X0.275000X-0.200000X0.275000X0.200000X0*%
%ADD15R,2.400000X3.500000*%
%ADD16RoundRect,0.250000X0.650000X-1.000000X0.650000X1.000000X-0.650000X1.000000X-0.650000X-1.000000X0*%
%ADD17RoundRect,0.140000X0.170000X-0.140000X0.170000X0.140000X-0.170000X0.140000X-0.170000X-0.140000X0*%
%ADD18RoundRect,0.140000X-0.140000X-0.170000X0.140000X-0.170000X0.140000X0.170000X-0.140000X0.170000X0*%
%ADD19RoundRect,0.250000X-0.475000X0.250000X-0.475000X-0.250000X0.475000X-0.250000X0.475000X0.250000X0*%
%ADD20R,2.000000X2.000000*%
%ADD21C,2.000000*%
%ADD22R,2.300000X2.500000*%
%ADD23R,2.500000X2.300000*%
%ADD24R,1.700000X1.700000*%
%ADD25O,1.700000X1.700000*%
%ADD26O,6.030000X2.070000*%
%ADD27C,5.200000*%
%ADD28RoundRect,0.150000X-0.825000X-0.150000X0.825000X-0.150000X0.825000X0.150000X-0.825000X0.150000X0*%
%ADD29RoundRect,0.218750X-0.218750X-0.256250X0.218750X-0.256250X0.218750X0.256250X-0.218750X0.256250X0*%
%ADD30RoundRect,0.218750X-0.256250X0.218750X-0.256250X-0.218750X0.256250X-0.218750X0.256250X0.218750X0*%
%ADD31RoundRect,0.218750X0.218750X0.256250X-0.218750X0.256250X-0.218750X-0.256250X0.218750X-0.256250X0*%
%ADD32C,3.200000*%
%ADD33R,1.500000X1.500000*%
%ADD34C,1.500000*%
%ADD35RoundRect,0.218750X0.256250X-0.218750X0.256250X0.218750X-0.256250X0.218750X-0.256250X-0.218750X0*%
%ADD36RoundRect,0.243750X0.456250X-0.243750X0.456250X0.243750X-0.456250X0.243750X-0.456250X-0.243750X0*%
G04 APERTURE END LIST*
D10*
X77105000Y-61800000D03*
X75835000Y-61800000D03*
X74565000Y-61800000D03*
X73295000Y-61800000D03*
X73295000Y-69000000D03*
X74565000Y-69000000D03*
X75835000Y-69000000D03*
X77105000Y-69000000D03*
D11*
X89600000Y-65775000D03*
X89600000Y-61500000D03*
D12*
X121700000Y-70600000D03*
X120050000Y-70600000D03*
X115500000Y-69300000D03*
X113850000Y-69300000D03*
D13*
X57800000Y-67975000D03*
X57800000Y-69625000D03*
D14*
X47000000Y-69275000D03*
X47000000Y-70925000D03*
D15*
X70550000Y-72600000D03*
X63650000Y-72600000D03*
D16*
X80900000Y-66200000D03*
X80900000Y-62200000D03*
X81300000Y-73500000D03*
X81300000Y-69500000D03*
D17*
X78600000Y-65880000D03*
X78600000Y-64920000D03*
X64100000Y-66880000D03*
X64100000Y-65920000D03*
D18*
X126640000Y-74000000D03*
X127600000Y-74000000D03*
X116040000Y-74000000D03*
X117000000Y-74000000D03*
D17*
X95500000Y-75980000D03*
X95500000Y-75020000D03*
X82700000Y-76480000D03*
X82700000Y-75520000D03*
D19*
X78400000Y-70950000D03*
X78400000Y-72850000D03*
D20*
X52500000Y-65000000D03*
D21*
X52500000Y-60000000D03*
D22*
X95000000Y-52350000D03*
X95000000Y-56650000D03*
X69100000Y-66550000D03*
X69100000Y-62250000D03*
D23*
X50850000Y-75000000D03*
X55150000Y-75000000D03*
X40850000Y-75000000D03*
X45150000Y-75000000D03*
D22*
X105000000Y-52350000D03*
X105000000Y-56650000D03*
X110000000Y-56650000D03*
X110000000Y-52350000D03*
X100000000Y-56650000D03*
X100000000Y-52350000D03*
X125500000Y-68150000D03*
X125500000Y-63850000D03*
X120000000Y-68150000D03*
X120000000Y-63850000D03*
D20*
X115000000Y-65500000D03*
D21*
X115000000Y-60500000D03*
D24*
X128500000Y-72000000D03*
D25*
X125960000Y-72000000D03*
X123420000Y-72000000D03*
D24*
X118000000Y-72000000D03*
D25*
X115460000Y-72000000D03*
X112920000Y-72000000D03*
X49920000Y-71500000D03*
X52460000Y-71500000D03*
D24*
X55000000Y-71500000D03*
X45000000Y-71500000D03*
D25*
X42460000Y-71500000D03*
X39920000Y-71500000D03*
D26*
X79550000Y-59000000D03*
X87450000Y-59000000D03*
X62550000Y-58910000D03*
X70450000Y-58910000D03*
D22*
X85200000Y-66350000D03*
X85200000Y-62050000D03*
D27*
X124500000Y-56000000D03*
X43500000Y-56000000D03*
D28*
X98025000Y-75405000D03*
X98025000Y-74135000D03*
X98025000Y-72865000D03*
X98025000Y-71595000D03*
X102975000Y-71595000D03*
X102975000Y-72865000D03*
X102975000Y-74135000D03*
X102975000Y-75405000D03*
X84525000Y-75405000D03*
X84525000Y-74135000D03*
X84525000Y-72865000D03*
X84525000Y-71595000D03*
X89475000Y-71595000D03*
X89475000Y-72865000D03*
X89475000Y-74135000D03*
X89475000Y-75405000D03*
D29*
X39112500Y-63300000D03*
X40687500Y-63300000D03*
D30*
X107500000Y-63212500D03*
X107500000Y-64787500D03*
D31*
X94987500Y-65400000D03*
X93412500Y-65400000D03*
D32*
X106660000Y-69350000D03*
X95230000Y-69350000D03*
D33*
X96500000Y-63000000D03*
D34*
X97770000Y-60460000D03*
X99040000Y-63000000D03*
X100310000Y-60460000D03*
X101580000Y-63000000D03*
X102850000Y-60460000D03*
X104120000Y-63000000D03*
X105390000Y-60460000D03*
D31*
X105787500Y-65000000D03*
X104212500Y-65000000D03*
D35*
X93400000Y-63687500D03*
X93400000Y-62112500D03*
D36*
X65700000Y-67237500D03*
X65700000Y-65362500D03*
M02*
