%TF.GenerationSoftware,KiCad,Pcbnew,7.0.2-6a45011f42~172~ubuntu22.04.1*%
%TF.CreationDate,2023-05-14T21:03:15-06:00*%
%TF.ProjectId,pole-node,706f6c65-2d6e-46f6-9465-2e6b69636164,rev?*%
%TF.SameCoordinates,Original*%
%TF.FileFunction,Drillmap*%
%TF.FilePolarity,Positive*%
%FSLAX45Y45*%
G04 Gerber Fmt 4.5, Leading zero omitted, Abs format (unit mm)*
G04 Created by KiCad (PCBNEW 7.0.2-6a45011f42~172~ubuntu22.04.1) date 2023-05-14 21:03:15*
%MOMM*%
%LPD*%
G01*
G04 APERTURE LIST*
%ADD10C,0.050000*%
%ADD11C,0.200000*%
%ADD12C,0.320000*%
G04 APERTURE END LIST*
D10*
X3750000Y-7650000D02*
X3750000Y-5100000D01*
X3850000Y-5000000D02*
X12950000Y-5000000D01*
X3850000Y-5000000D02*
G75*
G03*
X3750000Y-5100000I0J-100000D01*
G01*
X13050000Y-7650000D02*
X13050000Y-5100000D01*
X12950000Y-7750000D02*
G75*
G03*
X13050000Y-7650000I0J100000D01*
G01*
X12950000Y-7750000D02*
X3850000Y-7750000D01*
X3750000Y-7650000D02*
G75*
G03*
X3850000Y-7750000I100000J0D01*
G01*
X13050000Y-5100000D02*
G75*
G03*
X12950000Y-5000000I-100000J0D01*
G01*
D11*
D12*
X9363000Y-6775000D02*
X9683000Y-7095000D01*
X9683000Y-6775000D02*
X9363000Y-7095000D01*
X10506000Y-6775000D02*
X10826000Y-7095000D01*
X10826000Y-6775000D02*
X10506000Y-7095000D01*
D11*
X3995119Y-8065024D02*
X3995119Y-7865024D01*
X3995119Y-7865024D02*
X4042738Y-7865024D01*
X4042738Y-7865024D02*
X4071309Y-7874548D01*
X4071309Y-7874548D02*
X4090357Y-7893595D01*
X4090357Y-7893595D02*
X4099881Y-7912643D01*
X4099881Y-7912643D02*
X4109405Y-7950738D01*
X4109405Y-7950738D02*
X4109405Y-7979309D01*
X4109405Y-7979309D02*
X4099881Y-8017405D01*
X4099881Y-8017405D02*
X4090357Y-8036452D01*
X4090357Y-8036452D02*
X4071309Y-8055500D01*
X4071309Y-8055500D02*
X4042738Y-8065024D01*
X4042738Y-8065024D02*
X3995119Y-8065024D01*
X4195119Y-8065024D02*
X4195119Y-7931690D01*
X4195119Y-7969786D02*
X4204643Y-7950738D01*
X4204643Y-7950738D02*
X4214167Y-7941214D01*
X4214167Y-7941214D02*
X4233214Y-7931690D01*
X4233214Y-7931690D02*
X4252262Y-7931690D01*
X4318929Y-8065024D02*
X4318929Y-7931690D01*
X4318929Y-7865024D02*
X4309405Y-7874548D01*
X4309405Y-7874548D02*
X4318929Y-7884071D01*
X4318929Y-7884071D02*
X4328452Y-7874548D01*
X4328452Y-7874548D02*
X4318929Y-7865024D01*
X4318929Y-7865024D02*
X4318929Y-7884071D01*
X4442738Y-8065024D02*
X4423690Y-8055500D01*
X4423690Y-8055500D02*
X4414167Y-8036452D01*
X4414167Y-8036452D02*
X4414167Y-7865024D01*
X4547500Y-8065024D02*
X4528452Y-8055500D01*
X4528452Y-8055500D02*
X4518929Y-8036452D01*
X4518929Y-8036452D02*
X4518929Y-7865024D01*
X4776071Y-8065024D02*
X4776071Y-7865024D01*
X4776071Y-7865024D02*
X4842738Y-8007881D01*
X4842738Y-8007881D02*
X4909405Y-7865024D01*
X4909405Y-7865024D02*
X4909405Y-8065024D01*
X5090357Y-8065024D02*
X5090357Y-7960262D01*
X5090357Y-7960262D02*
X5080833Y-7941214D01*
X5080833Y-7941214D02*
X5061786Y-7931690D01*
X5061786Y-7931690D02*
X5023690Y-7931690D01*
X5023690Y-7931690D02*
X5004643Y-7941214D01*
X5090357Y-8055500D02*
X5071310Y-8065024D01*
X5071310Y-8065024D02*
X5023690Y-8065024D01*
X5023690Y-8065024D02*
X5004643Y-8055500D01*
X5004643Y-8055500D02*
X4995119Y-8036452D01*
X4995119Y-8036452D02*
X4995119Y-8017405D01*
X4995119Y-8017405D02*
X5004643Y-7998357D01*
X5004643Y-7998357D02*
X5023690Y-7988833D01*
X5023690Y-7988833D02*
X5071310Y-7988833D01*
X5071310Y-7988833D02*
X5090357Y-7979309D01*
X5185595Y-7931690D02*
X5185595Y-8131690D01*
X5185595Y-7941214D02*
X5204643Y-7931690D01*
X5204643Y-7931690D02*
X5242738Y-7931690D01*
X5242738Y-7931690D02*
X5261786Y-7941214D01*
X5261786Y-7941214D02*
X5271310Y-7950738D01*
X5271310Y-7950738D02*
X5280833Y-7969786D01*
X5280833Y-7969786D02*
X5280833Y-8026928D01*
X5280833Y-8026928D02*
X5271310Y-8045976D01*
X5271310Y-8045976D02*
X5261786Y-8055500D01*
X5261786Y-8055500D02*
X5242738Y-8065024D01*
X5242738Y-8065024D02*
X5204643Y-8065024D01*
X5204643Y-8065024D02*
X5185595Y-8055500D01*
X5366548Y-8045976D02*
X5376071Y-8055500D01*
X5376071Y-8055500D02*
X5366548Y-8065024D01*
X5366548Y-8065024D02*
X5357024Y-8055500D01*
X5357024Y-8055500D02*
X5366548Y-8045976D01*
X5366548Y-8045976D02*
X5366548Y-8065024D01*
X5366548Y-7941214D02*
X5376071Y-7950738D01*
X5376071Y-7950738D02*
X5366548Y-7960262D01*
X5366548Y-7960262D02*
X5357024Y-7950738D01*
X5357024Y-7950738D02*
X5366548Y-7941214D01*
X5366548Y-7941214D02*
X5366548Y-7960262D01*
X3547500Y-8292500D02*
X3747500Y-8492500D01*
X3747500Y-8292500D02*
X3547500Y-8492500D01*
X3976071Y-8285024D02*
X4099881Y-8285024D01*
X4099881Y-8285024D02*
X4033214Y-8361214D01*
X4033214Y-8361214D02*
X4061786Y-8361214D01*
X4061786Y-8361214D02*
X4080833Y-8370738D01*
X4080833Y-8370738D02*
X4090357Y-8380262D01*
X4090357Y-8380262D02*
X4099881Y-8399310D01*
X4099881Y-8399310D02*
X4099881Y-8446929D01*
X4099881Y-8446929D02*
X4090357Y-8465976D01*
X4090357Y-8465976D02*
X4080833Y-8475500D01*
X4080833Y-8475500D02*
X4061786Y-8485024D01*
X4061786Y-8485024D02*
X4004643Y-8485024D01*
X4004643Y-8485024D02*
X3985595Y-8475500D01*
X3985595Y-8475500D02*
X3976071Y-8465976D01*
X4185595Y-8465976D02*
X4195119Y-8475500D01*
X4195119Y-8475500D02*
X4185595Y-8485024D01*
X4185595Y-8485024D02*
X4176071Y-8475500D01*
X4176071Y-8475500D02*
X4185595Y-8465976D01*
X4185595Y-8465976D02*
X4185595Y-8485024D01*
X4271310Y-8304071D02*
X4280833Y-8294548D01*
X4280833Y-8294548D02*
X4299881Y-8285024D01*
X4299881Y-8285024D02*
X4347500Y-8285024D01*
X4347500Y-8285024D02*
X4366548Y-8294548D01*
X4366548Y-8294548D02*
X4376071Y-8304071D01*
X4376071Y-8304071D02*
X4385595Y-8323119D01*
X4385595Y-8323119D02*
X4385595Y-8342167D01*
X4385595Y-8342167D02*
X4376071Y-8370738D01*
X4376071Y-8370738D02*
X4261786Y-8485024D01*
X4261786Y-8485024D02*
X4385595Y-8485024D01*
X4509405Y-8285024D02*
X4528452Y-8285024D01*
X4528452Y-8285024D02*
X4547500Y-8294548D01*
X4547500Y-8294548D02*
X4557024Y-8304071D01*
X4557024Y-8304071D02*
X4566548Y-8323119D01*
X4566548Y-8323119D02*
X4576071Y-8361214D01*
X4576071Y-8361214D02*
X4576071Y-8408833D01*
X4576071Y-8408833D02*
X4566548Y-8446929D01*
X4566548Y-8446929D02*
X4557024Y-8465976D01*
X4557024Y-8465976D02*
X4547500Y-8475500D01*
X4547500Y-8475500D02*
X4528452Y-8485024D01*
X4528452Y-8485024D02*
X4509405Y-8485024D01*
X4509405Y-8485024D02*
X4490357Y-8475500D01*
X4490357Y-8475500D02*
X4480833Y-8465976D01*
X4480833Y-8465976D02*
X4471310Y-8446929D01*
X4471310Y-8446929D02*
X4461786Y-8408833D01*
X4461786Y-8408833D02*
X4461786Y-8361214D01*
X4461786Y-8361214D02*
X4471310Y-8323119D01*
X4471310Y-8323119D02*
X4480833Y-8304071D01*
X4480833Y-8304071D02*
X4490357Y-8294548D01*
X4490357Y-8294548D02*
X4509405Y-8285024D01*
X4699881Y-8285024D02*
X4718929Y-8285024D01*
X4718929Y-8285024D02*
X4737976Y-8294548D01*
X4737976Y-8294548D02*
X4747500Y-8304071D01*
X4747500Y-8304071D02*
X4757024Y-8323119D01*
X4757024Y-8323119D02*
X4766548Y-8361214D01*
X4766548Y-8361214D02*
X4766548Y-8408833D01*
X4766548Y-8408833D02*
X4757024Y-8446929D01*
X4757024Y-8446929D02*
X4747500Y-8465976D01*
X4747500Y-8465976D02*
X4737976Y-8475500D01*
X4737976Y-8475500D02*
X4718929Y-8485024D01*
X4718929Y-8485024D02*
X4699881Y-8485024D01*
X4699881Y-8485024D02*
X4680833Y-8475500D01*
X4680833Y-8475500D02*
X4671310Y-8465976D01*
X4671310Y-8465976D02*
X4661786Y-8446929D01*
X4661786Y-8446929D02*
X4652262Y-8408833D01*
X4652262Y-8408833D02*
X4652262Y-8361214D01*
X4652262Y-8361214D02*
X4661786Y-8323119D01*
X4661786Y-8323119D02*
X4671310Y-8304071D01*
X4671310Y-8304071D02*
X4680833Y-8294548D01*
X4680833Y-8294548D02*
X4699881Y-8285024D01*
X4852262Y-8485024D02*
X4852262Y-8351690D01*
X4852262Y-8370738D02*
X4861786Y-8361214D01*
X4861786Y-8361214D02*
X4880833Y-8351690D01*
X4880833Y-8351690D02*
X4909405Y-8351690D01*
X4909405Y-8351690D02*
X4928452Y-8361214D01*
X4928452Y-8361214D02*
X4937976Y-8380262D01*
X4937976Y-8380262D02*
X4937976Y-8485024D01*
X4937976Y-8380262D02*
X4947500Y-8361214D01*
X4947500Y-8361214D02*
X4966548Y-8351690D01*
X4966548Y-8351690D02*
X4995119Y-8351690D01*
X4995119Y-8351690D02*
X5014167Y-8361214D01*
X5014167Y-8361214D02*
X5023691Y-8380262D01*
X5023691Y-8380262D02*
X5023691Y-8485024D01*
X5118929Y-8485024D02*
X5118929Y-8351690D01*
X5118929Y-8370738D02*
X5128452Y-8361214D01*
X5128452Y-8361214D02*
X5147500Y-8351690D01*
X5147500Y-8351690D02*
X5176072Y-8351690D01*
X5176072Y-8351690D02*
X5195119Y-8361214D01*
X5195119Y-8361214D02*
X5204643Y-8380262D01*
X5204643Y-8380262D02*
X5204643Y-8485024D01*
X5204643Y-8380262D02*
X5214167Y-8361214D01*
X5214167Y-8361214D02*
X5233214Y-8351690D01*
X5233214Y-8351690D02*
X5261786Y-8351690D01*
X5261786Y-8351690D02*
X5280833Y-8361214D01*
X5280833Y-8361214D02*
X5290357Y-8380262D01*
X5290357Y-8380262D02*
X5290357Y-8485024D01*
X5680833Y-8275500D02*
X5509405Y-8532643D01*
X5937976Y-8285024D02*
X5957024Y-8285024D01*
X5957024Y-8285024D02*
X5976072Y-8294548D01*
X5976072Y-8294548D02*
X5985595Y-8304071D01*
X5985595Y-8304071D02*
X5995119Y-8323119D01*
X5995119Y-8323119D02*
X6004643Y-8361214D01*
X6004643Y-8361214D02*
X6004643Y-8408833D01*
X6004643Y-8408833D02*
X5995119Y-8446929D01*
X5995119Y-8446929D02*
X5985595Y-8465976D01*
X5985595Y-8465976D02*
X5976072Y-8475500D01*
X5976072Y-8475500D02*
X5957024Y-8485024D01*
X5957024Y-8485024D02*
X5937976Y-8485024D01*
X5937976Y-8485024D02*
X5918929Y-8475500D01*
X5918929Y-8475500D02*
X5909405Y-8465976D01*
X5909405Y-8465976D02*
X5899881Y-8446929D01*
X5899881Y-8446929D02*
X5890357Y-8408833D01*
X5890357Y-8408833D02*
X5890357Y-8361214D01*
X5890357Y-8361214D02*
X5899881Y-8323119D01*
X5899881Y-8323119D02*
X5909405Y-8304071D01*
X5909405Y-8304071D02*
X5918929Y-8294548D01*
X5918929Y-8294548D02*
X5937976Y-8285024D01*
X6090357Y-8465976D02*
X6099881Y-8475500D01*
X6099881Y-8475500D02*
X6090357Y-8485024D01*
X6090357Y-8485024D02*
X6080833Y-8475500D01*
X6080833Y-8475500D02*
X6090357Y-8465976D01*
X6090357Y-8465976D02*
X6090357Y-8485024D01*
X6290357Y-8485024D02*
X6176072Y-8485024D01*
X6233214Y-8485024D02*
X6233214Y-8285024D01*
X6233214Y-8285024D02*
X6214167Y-8313595D01*
X6214167Y-8313595D02*
X6195119Y-8332643D01*
X6195119Y-8332643D02*
X6176072Y-8342167D01*
X6366548Y-8304071D02*
X6376072Y-8294548D01*
X6376072Y-8294548D02*
X6395119Y-8285024D01*
X6395119Y-8285024D02*
X6442738Y-8285024D01*
X6442738Y-8285024D02*
X6461786Y-8294548D01*
X6461786Y-8294548D02*
X6471310Y-8304071D01*
X6471310Y-8304071D02*
X6480833Y-8323119D01*
X6480833Y-8323119D02*
X6480833Y-8342167D01*
X6480833Y-8342167D02*
X6471310Y-8370738D01*
X6471310Y-8370738D02*
X6357024Y-8485024D01*
X6357024Y-8485024D02*
X6480833Y-8485024D01*
X6652262Y-8285024D02*
X6614167Y-8285024D01*
X6614167Y-8285024D02*
X6595119Y-8294548D01*
X6595119Y-8294548D02*
X6585595Y-8304071D01*
X6585595Y-8304071D02*
X6566548Y-8332643D01*
X6566548Y-8332643D02*
X6557024Y-8370738D01*
X6557024Y-8370738D02*
X6557024Y-8446929D01*
X6557024Y-8446929D02*
X6566548Y-8465976D01*
X6566548Y-8465976D02*
X6576072Y-8475500D01*
X6576072Y-8475500D02*
X6595119Y-8485024D01*
X6595119Y-8485024D02*
X6633214Y-8485024D01*
X6633214Y-8485024D02*
X6652262Y-8475500D01*
X6652262Y-8475500D02*
X6661786Y-8465976D01*
X6661786Y-8465976D02*
X6671310Y-8446929D01*
X6671310Y-8446929D02*
X6671310Y-8399310D01*
X6671310Y-8399310D02*
X6661786Y-8380262D01*
X6661786Y-8380262D02*
X6652262Y-8370738D01*
X6652262Y-8370738D02*
X6633214Y-8361214D01*
X6633214Y-8361214D02*
X6595119Y-8361214D01*
X6595119Y-8361214D02*
X6576072Y-8370738D01*
X6576072Y-8370738D02*
X6566548Y-8380262D01*
X6566548Y-8380262D02*
X6557024Y-8399310D01*
X6795119Y-8285024D02*
X6814167Y-8285024D01*
X6814167Y-8285024D02*
X6833214Y-8294548D01*
X6833214Y-8294548D02*
X6842738Y-8304071D01*
X6842738Y-8304071D02*
X6852262Y-8323119D01*
X6852262Y-8323119D02*
X6861786Y-8361214D01*
X6861786Y-8361214D02*
X6861786Y-8408833D01*
X6861786Y-8408833D02*
X6852262Y-8446929D01*
X6852262Y-8446929D02*
X6842738Y-8465976D01*
X6842738Y-8465976D02*
X6833214Y-8475500D01*
X6833214Y-8475500D02*
X6814167Y-8485024D01*
X6814167Y-8485024D02*
X6795119Y-8485024D01*
X6795119Y-8485024D02*
X6776072Y-8475500D01*
X6776072Y-8475500D02*
X6766548Y-8465976D01*
X6766548Y-8465976D02*
X6757024Y-8446929D01*
X6757024Y-8446929D02*
X6747500Y-8408833D01*
X6747500Y-8408833D02*
X6747500Y-8361214D01*
X6747500Y-8361214D02*
X6757024Y-8323119D01*
X6757024Y-8323119D02*
X6766548Y-8304071D01*
X6766548Y-8304071D02*
X6776072Y-8294548D01*
X6776072Y-8294548D02*
X6795119Y-8285024D01*
X6937976Y-8285024D02*
X6937976Y-8323119D01*
X7014167Y-8285024D02*
X7014167Y-8323119D01*
X7309405Y-8561214D02*
X7299881Y-8551690D01*
X7299881Y-8551690D02*
X7280834Y-8523119D01*
X7280834Y-8523119D02*
X7271310Y-8504071D01*
X7271310Y-8504071D02*
X7261786Y-8475500D01*
X7261786Y-8475500D02*
X7252262Y-8427881D01*
X7252262Y-8427881D02*
X7252262Y-8389786D01*
X7252262Y-8389786D02*
X7261786Y-8342167D01*
X7261786Y-8342167D02*
X7271310Y-8313595D01*
X7271310Y-8313595D02*
X7280834Y-8294548D01*
X7280834Y-8294548D02*
X7299881Y-8265976D01*
X7299881Y-8265976D02*
X7309405Y-8256452D01*
X7376072Y-8304071D02*
X7385595Y-8294548D01*
X7385595Y-8294548D02*
X7404643Y-8285024D01*
X7404643Y-8285024D02*
X7452262Y-8285024D01*
X7452262Y-8285024D02*
X7471310Y-8294548D01*
X7471310Y-8294548D02*
X7480834Y-8304071D01*
X7480834Y-8304071D02*
X7490357Y-8323119D01*
X7490357Y-8323119D02*
X7490357Y-8342167D01*
X7490357Y-8342167D02*
X7480834Y-8370738D01*
X7480834Y-8370738D02*
X7366548Y-8485024D01*
X7366548Y-8485024D02*
X7490357Y-8485024D01*
X7728453Y-8485024D02*
X7728453Y-8285024D01*
X7814167Y-8485024D02*
X7814167Y-8380262D01*
X7814167Y-8380262D02*
X7804643Y-8361214D01*
X7804643Y-8361214D02*
X7785596Y-8351690D01*
X7785596Y-8351690D02*
X7757024Y-8351690D01*
X7757024Y-8351690D02*
X7737976Y-8361214D01*
X7737976Y-8361214D02*
X7728453Y-8370738D01*
X7937976Y-8485024D02*
X7918929Y-8475500D01*
X7918929Y-8475500D02*
X7909405Y-8465976D01*
X7909405Y-8465976D02*
X7899881Y-8446929D01*
X7899881Y-8446929D02*
X7899881Y-8389786D01*
X7899881Y-8389786D02*
X7909405Y-8370738D01*
X7909405Y-8370738D02*
X7918929Y-8361214D01*
X7918929Y-8361214D02*
X7937976Y-8351690D01*
X7937976Y-8351690D02*
X7966548Y-8351690D01*
X7966548Y-8351690D02*
X7985596Y-8361214D01*
X7985596Y-8361214D02*
X7995119Y-8370738D01*
X7995119Y-8370738D02*
X8004643Y-8389786D01*
X8004643Y-8389786D02*
X8004643Y-8446929D01*
X8004643Y-8446929D02*
X7995119Y-8465976D01*
X7995119Y-8465976D02*
X7985596Y-8475500D01*
X7985596Y-8475500D02*
X7966548Y-8485024D01*
X7966548Y-8485024D02*
X7937976Y-8485024D01*
X8118929Y-8485024D02*
X8099881Y-8475500D01*
X8099881Y-8475500D02*
X8090357Y-8456452D01*
X8090357Y-8456452D02*
X8090357Y-8285024D01*
X8271310Y-8475500D02*
X8252262Y-8485024D01*
X8252262Y-8485024D02*
X8214167Y-8485024D01*
X8214167Y-8485024D02*
X8195119Y-8475500D01*
X8195119Y-8475500D02*
X8185596Y-8456452D01*
X8185596Y-8456452D02*
X8185596Y-8380262D01*
X8185596Y-8380262D02*
X8195119Y-8361214D01*
X8195119Y-8361214D02*
X8214167Y-8351690D01*
X8214167Y-8351690D02*
X8252262Y-8351690D01*
X8252262Y-8351690D02*
X8271310Y-8361214D01*
X8271310Y-8361214D02*
X8280834Y-8380262D01*
X8280834Y-8380262D02*
X8280834Y-8399310D01*
X8280834Y-8399310D02*
X8185596Y-8418357D01*
X8357024Y-8475500D02*
X8376072Y-8485024D01*
X8376072Y-8485024D02*
X8414167Y-8485024D01*
X8414167Y-8485024D02*
X8433215Y-8475500D01*
X8433215Y-8475500D02*
X8442739Y-8456452D01*
X8442739Y-8456452D02*
X8442739Y-8446929D01*
X8442739Y-8446929D02*
X8433215Y-8427881D01*
X8433215Y-8427881D02*
X8414167Y-8418357D01*
X8414167Y-8418357D02*
X8385596Y-8418357D01*
X8385596Y-8418357D02*
X8366548Y-8408833D01*
X8366548Y-8408833D02*
X8357024Y-8389786D01*
X8357024Y-8389786D02*
X8357024Y-8380262D01*
X8357024Y-8380262D02*
X8366548Y-8361214D01*
X8366548Y-8361214D02*
X8385596Y-8351690D01*
X8385596Y-8351690D02*
X8414167Y-8351690D01*
X8414167Y-8351690D02*
X8433215Y-8361214D01*
X8509405Y-8561214D02*
X8518929Y-8551690D01*
X8518929Y-8551690D02*
X8537977Y-8523119D01*
X8537977Y-8523119D02*
X8547500Y-8504071D01*
X8547500Y-8504071D02*
X8557024Y-8475500D01*
X8557024Y-8475500D02*
X8566548Y-8427881D01*
X8566548Y-8427881D02*
X8566548Y-8389786D01*
X8566548Y-8389786D02*
X8557024Y-8342167D01*
X8557024Y-8342167D02*
X8547500Y-8313595D01*
X8547500Y-8313595D02*
X8537977Y-8294548D01*
X8537977Y-8294548D02*
X8518929Y-8265976D01*
X8518929Y-8265976D02*
X8509405Y-8256452D01*
X8871310Y-8561214D02*
X8861786Y-8551690D01*
X8861786Y-8551690D02*
X8842739Y-8523119D01*
X8842739Y-8523119D02*
X8833215Y-8504071D01*
X8833215Y-8504071D02*
X8823691Y-8475500D01*
X8823691Y-8475500D02*
X8814167Y-8427881D01*
X8814167Y-8427881D02*
X8814167Y-8389786D01*
X8814167Y-8389786D02*
X8823691Y-8342167D01*
X8823691Y-8342167D02*
X8833215Y-8313595D01*
X8833215Y-8313595D02*
X8842739Y-8294548D01*
X8842739Y-8294548D02*
X8861786Y-8265976D01*
X8861786Y-8265976D02*
X8871310Y-8256452D01*
X8947500Y-8351690D02*
X8947500Y-8485024D01*
X8947500Y-8370738D02*
X8957024Y-8361214D01*
X8957024Y-8361214D02*
X8976072Y-8351690D01*
X8976072Y-8351690D02*
X9004643Y-8351690D01*
X9004643Y-8351690D02*
X9023691Y-8361214D01*
X9023691Y-8361214D02*
X9033215Y-8380262D01*
X9033215Y-8380262D02*
X9033215Y-8485024D01*
X9157024Y-8485024D02*
X9137977Y-8475500D01*
X9137977Y-8475500D02*
X9128453Y-8465976D01*
X9128453Y-8465976D02*
X9118929Y-8446929D01*
X9118929Y-8446929D02*
X9118929Y-8389786D01*
X9118929Y-8389786D02*
X9128453Y-8370738D01*
X9128453Y-8370738D02*
X9137977Y-8361214D01*
X9137977Y-8361214D02*
X9157024Y-8351690D01*
X9157024Y-8351690D02*
X9185596Y-8351690D01*
X9185596Y-8351690D02*
X9204643Y-8361214D01*
X9204643Y-8361214D02*
X9214167Y-8370738D01*
X9214167Y-8370738D02*
X9223691Y-8389786D01*
X9223691Y-8389786D02*
X9223691Y-8446929D01*
X9223691Y-8446929D02*
X9214167Y-8465976D01*
X9214167Y-8465976D02*
X9204643Y-8475500D01*
X9204643Y-8475500D02*
X9185596Y-8485024D01*
X9185596Y-8485024D02*
X9157024Y-8485024D01*
X9280834Y-8351690D02*
X9357024Y-8351690D01*
X9309405Y-8285024D02*
X9309405Y-8456452D01*
X9309405Y-8456452D02*
X9318929Y-8475500D01*
X9318929Y-8475500D02*
X9337977Y-8485024D01*
X9337977Y-8485024D02*
X9357024Y-8485024D01*
X9576072Y-8351690D02*
X9576072Y-8551690D01*
X9576072Y-8361214D02*
X9595120Y-8351690D01*
X9595120Y-8351690D02*
X9633215Y-8351690D01*
X9633215Y-8351690D02*
X9652262Y-8361214D01*
X9652262Y-8361214D02*
X9661786Y-8370738D01*
X9661786Y-8370738D02*
X9671310Y-8389786D01*
X9671310Y-8389786D02*
X9671310Y-8446929D01*
X9671310Y-8446929D02*
X9661786Y-8465976D01*
X9661786Y-8465976D02*
X9652262Y-8475500D01*
X9652262Y-8475500D02*
X9633215Y-8485024D01*
X9633215Y-8485024D02*
X9595120Y-8485024D01*
X9595120Y-8485024D02*
X9576072Y-8475500D01*
X9785596Y-8485024D02*
X9766548Y-8475500D01*
X9766548Y-8475500D02*
X9757024Y-8456452D01*
X9757024Y-8456452D02*
X9757024Y-8285024D01*
X9947501Y-8485024D02*
X9947501Y-8380262D01*
X9947501Y-8380262D02*
X9937977Y-8361214D01*
X9937977Y-8361214D02*
X9918929Y-8351690D01*
X9918929Y-8351690D02*
X9880834Y-8351690D01*
X9880834Y-8351690D02*
X9861786Y-8361214D01*
X9947501Y-8475500D02*
X9928453Y-8485024D01*
X9928453Y-8485024D02*
X9880834Y-8485024D01*
X9880834Y-8485024D02*
X9861786Y-8475500D01*
X9861786Y-8475500D02*
X9852262Y-8456452D01*
X9852262Y-8456452D02*
X9852262Y-8437405D01*
X9852262Y-8437405D02*
X9861786Y-8418357D01*
X9861786Y-8418357D02*
X9880834Y-8408833D01*
X9880834Y-8408833D02*
X9928453Y-8408833D01*
X9928453Y-8408833D02*
X9947501Y-8399310D01*
X10014167Y-8351690D02*
X10090358Y-8351690D01*
X10042739Y-8285024D02*
X10042739Y-8456452D01*
X10042739Y-8456452D02*
X10052262Y-8475500D01*
X10052262Y-8475500D02*
X10071310Y-8485024D01*
X10071310Y-8485024D02*
X10090358Y-8485024D01*
X10233215Y-8475500D02*
X10214167Y-8485024D01*
X10214167Y-8485024D02*
X10176072Y-8485024D01*
X10176072Y-8485024D02*
X10157024Y-8475500D01*
X10157024Y-8475500D02*
X10147501Y-8456452D01*
X10147501Y-8456452D02*
X10147501Y-8380262D01*
X10147501Y-8380262D02*
X10157024Y-8361214D01*
X10157024Y-8361214D02*
X10176072Y-8351690D01*
X10176072Y-8351690D02*
X10214167Y-8351690D01*
X10214167Y-8351690D02*
X10233215Y-8361214D01*
X10233215Y-8361214D02*
X10242739Y-8380262D01*
X10242739Y-8380262D02*
X10242739Y-8399310D01*
X10242739Y-8399310D02*
X10147501Y-8418357D01*
X10414167Y-8485024D02*
X10414167Y-8285024D01*
X10414167Y-8475500D02*
X10395120Y-8485024D01*
X10395120Y-8485024D02*
X10357024Y-8485024D01*
X10357024Y-8485024D02*
X10337977Y-8475500D01*
X10337977Y-8475500D02*
X10328453Y-8465976D01*
X10328453Y-8465976D02*
X10318929Y-8446929D01*
X10318929Y-8446929D02*
X10318929Y-8389786D01*
X10318929Y-8389786D02*
X10328453Y-8370738D01*
X10328453Y-8370738D02*
X10337977Y-8361214D01*
X10337977Y-8361214D02*
X10357024Y-8351690D01*
X10357024Y-8351690D02*
X10395120Y-8351690D01*
X10395120Y-8351690D02*
X10414167Y-8361214D01*
X10490358Y-8561214D02*
X10499882Y-8551690D01*
X10499882Y-8551690D02*
X10518929Y-8523119D01*
X10518929Y-8523119D02*
X10528453Y-8504071D01*
X10528453Y-8504071D02*
X10537977Y-8475500D01*
X10537977Y-8475500D02*
X10547501Y-8427881D01*
X10547501Y-8427881D02*
X10547501Y-8389786D01*
X10547501Y-8389786D02*
X10537977Y-8342167D01*
X10537977Y-8342167D02*
X10528453Y-8313595D01*
X10528453Y-8313595D02*
X10518929Y-8294548D01*
X10518929Y-8294548D02*
X10499882Y-8265976D01*
X10499882Y-8265976D02*
X10490358Y-8256452D01*
M02*
