G04 #@! TF.GenerationSoftware,KiCad,Pcbnew,5.1.10-88a1d61d58~88~ubuntu20.04.1*
G04 #@! TF.CreationDate,2021-05-15T17:55:39-06:00*
G04 #@! TF.ProjectId,pole-node,706f6c65-2d6e-46f6-9465-2e6b69636164,rev?*
G04 #@! TF.SameCoordinates,Original*
G04 #@! TF.FileFunction,Legend,Top*
G04 #@! TF.FilePolarity,Positive*
%FSLAX46Y46*%
G04 Gerber Fmt 4.6, Leading zero omitted, Abs format (unit mm)*
G04 Created by KiCad (PCBNEW 5.1.10-88a1d61d58~88~ubuntu20.04.1) date 2021-05-15 17:55:39*
%MOMM*%
%LPD*%
G01*
G04 APERTURE LIST*
%ADD10C,0.150000*%
%ADD11C,0.200000*%
%ADD12C,0.250000*%
%ADD13C,0.120000*%
G04 APERTURE END LIST*
D10*
X45261904Y-68800000D02*
X45166666Y-68752380D01*
X45023809Y-68752380D01*
X44880952Y-68800000D01*
X44785714Y-68895238D01*
X44738095Y-68990476D01*
X44690476Y-69180952D01*
X44690476Y-69323809D01*
X44738095Y-69514285D01*
X44785714Y-69609523D01*
X44880952Y-69704761D01*
X45023809Y-69752380D01*
X45119047Y-69752380D01*
X45261904Y-69704761D01*
X45309523Y-69657142D01*
X45309523Y-69323809D01*
X45119047Y-69323809D01*
X38380952Y-69752380D02*
X38380952Y-68752380D01*
X38761904Y-68752380D01*
X38857142Y-68800000D01*
X38904761Y-68847619D01*
X38952380Y-68942857D01*
X38952380Y-69085714D01*
X38904761Y-69180952D01*
X38857142Y-69228571D01*
X38761904Y-69276190D01*
X38380952Y-69276190D01*
X39571428Y-68752380D02*
X39761904Y-68752380D01*
X39857142Y-68800000D01*
X39952380Y-68895238D01*
X40000000Y-69085714D01*
X40000000Y-69419047D01*
X39952380Y-69609523D01*
X39857142Y-69704761D01*
X39761904Y-69752380D01*
X39571428Y-69752380D01*
X39476190Y-69704761D01*
X39380952Y-69609523D01*
X39333333Y-69419047D01*
X39333333Y-69085714D01*
X39380952Y-68895238D01*
X39476190Y-68800000D01*
X39571428Y-68752380D01*
X40428571Y-69752380D02*
X40428571Y-68752380D01*
X40666666Y-68752380D01*
X40809523Y-68800000D01*
X40904761Y-68895238D01*
X40952380Y-68990476D01*
X41000000Y-69180952D01*
X41000000Y-69323809D01*
X40952380Y-69514285D01*
X40904761Y-69609523D01*
X40809523Y-69704761D01*
X40666666Y-69752380D01*
X40428571Y-69752380D01*
X41428571Y-69752380D02*
X41428571Y-68752380D01*
X41904761Y-68752380D02*
X41904761Y-69561904D01*
X41952380Y-69657142D01*
X42000000Y-69704761D01*
X42095238Y-69752380D01*
X42285714Y-69752380D01*
X42380952Y-69704761D01*
X42428571Y-69657142D01*
X42476190Y-69561904D01*
X42476190Y-68752380D01*
X42952380Y-69752380D02*
X42952380Y-68752380D01*
X43285714Y-69466666D01*
X43619047Y-68752380D01*
X43619047Y-69752380D01*
D11*
X38100000Y-64078571D02*
X38100000Y-62578571D01*
X38671428Y-62578571D01*
X38814285Y-62650000D01*
X38885714Y-62721428D01*
X38957142Y-62864285D01*
X38957142Y-63078571D01*
X38885714Y-63221428D01*
X38814285Y-63292857D01*
X38671428Y-63364285D01*
X38100000Y-63364285D01*
X39457142Y-62578571D02*
X39814285Y-64078571D01*
X40100000Y-63007142D01*
X40385714Y-64078571D01*
X40742857Y-62578571D01*
X42171428Y-64078571D02*
X41671428Y-63364285D01*
X41314285Y-64078571D02*
X41314285Y-62578571D01*
X41885714Y-62578571D01*
X42028571Y-62650000D01*
X42100000Y-62721428D01*
X42171428Y-62864285D01*
X42171428Y-63078571D01*
X42100000Y-63221428D01*
X42028571Y-63292857D01*
X41885714Y-63364285D01*
X41314285Y-63364285D01*
D12*
X60571428Y-52071428D02*
X60571428Y-54071428D01*
X60571428Y-52166666D02*
X60761904Y-52071428D01*
X61142857Y-52071428D01*
X61333333Y-52166666D01*
X61428571Y-52261904D01*
X61523809Y-52452380D01*
X61523809Y-53023809D01*
X61428571Y-53214285D01*
X61333333Y-53309523D01*
X61142857Y-53404761D01*
X60761904Y-53404761D01*
X60571428Y-53309523D01*
X62666666Y-53404761D02*
X62476190Y-53309523D01*
X62380952Y-53214285D01*
X62285714Y-53023809D01*
X62285714Y-52452380D01*
X62380952Y-52261904D01*
X62476190Y-52166666D01*
X62666666Y-52071428D01*
X62952380Y-52071428D01*
X63142857Y-52166666D01*
X63238095Y-52261904D01*
X63333333Y-52452380D01*
X63333333Y-53023809D01*
X63238095Y-53214285D01*
X63142857Y-53309523D01*
X62952380Y-53404761D01*
X62666666Y-53404761D01*
X64476190Y-53404761D02*
X64285714Y-53309523D01*
X64190476Y-53119047D01*
X64190476Y-51404761D01*
X65999999Y-53309523D02*
X65809523Y-53404761D01*
X65428571Y-53404761D01*
X65238095Y-53309523D01*
X65142857Y-53119047D01*
X65142857Y-52357142D01*
X65238095Y-52166666D01*
X65428571Y-52071428D01*
X65809523Y-52071428D01*
X65999999Y-52166666D01*
X66095238Y-52357142D01*
X66095238Y-52547619D01*
X65142857Y-52738095D01*
X66952380Y-52642857D02*
X68476190Y-52642857D01*
X69428571Y-52071428D02*
X69428571Y-53404761D01*
X69428571Y-52261904D02*
X69523809Y-52166666D01*
X69714285Y-52071428D01*
X70000000Y-52071428D01*
X70190476Y-52166666D01*
X70285714Y-52357142D01*
X70285714Y-53404761D01*
X71523809Y-53404761D02*
X71333333Y-53309523D01*
X71238095Y-53214285D01*
X71142857Y-53023809D01*
X71142857Y-52452380D01*
X71238095Y-52261904D01*
X71333333Y-52166666D01*
X71523809Y-52071428D01*
X71809523Y-52071428D01*
X72000000Y-52166666D01*
X72095238Y-52261904D01*
X72190476Y-52452380D01*
X72190476Y-53023809D01*
X72095238Y-53214285D01*
X72000000Y-53309523D01*
X71809523Y-53404761D01*
X71523809Y-53404761D01*
X73904761Y-53404761D02*
X73904761Y-51404761D01*
X73904761Y-53309523D02*
X73714285Y-53404761D01*
X73333333Y-53404761D01*
X73142857Y-53309523D01*
X73047619Y-53214285D01*
X72952380Y-53023809D01*
X72952380Y-52452380D01*
X73047619Y-52261904D01*
X73142857Y-52166666D01*
X73333333Y-52071428D01*
X73714285Y-52071428D01*
X73904761Y-52166666D01*
X75619047Y-53309523D02*
X75428571Y-53404761D01*
X75047619Y-53404761D01*
X74857142Y-53309523D01*
X74761904Y-53119047D01*
X74761904Y-52357142D01*
X74857142Y-52166666D01*
X75047619Y-52071428D01*
X75428571Y-52071428D01*
X75619047Y-52166666D01*
X75714285Y-52357142D01*
X75714285Y-52547619D01*
X74761904Y-52738095D01*
X77904761Y-52071428D02*
X78380952Y-53404761D01*
X78857142Y-52071428D01*
X80666666Y-53404761D02*
X79523809Y-53404761D01*
X80095238Y-53404761D02*
X80095238Y-51404761D01*
X79904761Y-51690476D01*
X79714285Y-51880952D01*
X79523809Y-51976190D01*
X81523809Y-53214285D02*
X81619047Y-53309523D01*
X81523809Y-53404761D01*
X81428571Y-53309523D01*
X81523809Y-53214285D01*
X81523809Y-53404761D01*
X82380952Y-51595238D02*
X82476190Y-51500000D01*
X82666666Y-51404761D01*
X83142857Y-51404761D01*
X83333333Y-51500000D01*
X83428571Y-51595238D01*
X83523809Y-51785714D01*
X83523809Y-51976190D01*
X83428571Y-52261904D01*
X82285714Y-53404761D01*
X83523809Y-53404761D01*
D10*
X123209523Y-68752380D02*
X122733333Y-68752380D01*
X122685714Y-69228571D01*
X122733333Y-69180952D01*
X122828571Y-69133333D01*
X123066666Y-69133333D01*
X123161904Y-69180952D01*
X123209523Y-69228571D01*
X123257142Y-69323809D01*
X123257142Y-69561904D01*
X123209523Y-69657142D01*
X123161904Y-69704761D01*
X123066666Y-69752380D01*
X122828571Y-69752380D01*
X122733333Y-69704761D01*
X122685714Y-69657142D01*
X123542857Y-68752380D02*
X123876190Y-69752380D01*
X124209523Y-68752380D01*
X112609523Y-68852380D02*
X112133333Y-68852380D01*
X112085714Y-69328571D01*
X112133333Y-69280952D01*
X112228571Y-69233333D01*
X112466666Y-69233333D01*
X112561904Y-69280952D01*
X112609523Y-69328571D01*
X112657142Y-69423809D01*
X112657142Y-69661904D01*
X112609523Y-69757142D01*
X112561904Y-69804761D01*
X112466666Y-69852380D01*
X112228571Y-69852380D01*
X112133333Y-69804761D01*
X112085714Y-69757142D01*
X112942857Y-68852380D02*
X113276190Y-69852380D01*
X113609523Y-68852380D01*
X49109523Y-68752380D02*
X48633333Y-68752380D01*
X48585714Y-69228571D01*
X48633333Y-69180952D01*
X48728571Y-69133333D01*
X48966666Y-69133333D01*
X49061904Y-69180952D01*
X49109523Y-69228571D01*
X49157142Y-69323809D01*
X49157142Y-69561904D01*
X49109523Y-69657142D01*
X49061904Y-69704761D01*
X48966666Y-69752380D01*
X48728571Y-69752380D01*
X48633333Y-69704761D01*
X48585714Y-69657142D01*
X49442857Y-68752380D02*
X49776190Y-69752380D01*
X50109523Y-68752380D01*
X121266666Y-77014285D02*
X121266666Y-76538095D01*
X121552380Y-77109523D02*
X120552380Y-76776190D01*
X121552380Y-76442857D01*
X120552380Y-76109523D02*
X121361904Y-76109523D01*
X121457142Y-76061904D01*
X121504761Y-76014285D01*
X121552380Y-75919047D01*
X121552380Y-75728571D01*
X121504761Y-75633333D01*
X121457142Y-75585714D01*
X121361904Y-75538095D01*
X120552380Y-75538095D01*
X120552380Y-75157142D02*
X121552380Y-74490476D01*
X120552380Y-74490476D02*
X121552380Y-75157142D01*
X120647619Y-74157142D02*
X120600000Y-74109523D01*
X120552380Y-74014285D01*
X120552380Y-73776190D01*
X120600000Y-73680952D01*
X120647619Y-73633333D01*
X120742857Y-73585714D01*
X120838095Y-73585714D01*
X120980952Y-73633333D01*
X121552380Y-74204761D01*
X121552380Y-73585714D01*
X110566666Y-77014285D02*
X110566666Y-76538095D01*
X110852380Y-77109523D02*
X109852380Y-76776190D01*
X110852380Y-76442857D01*
X109852380Y-76109523D02*
X110661904Y-76109523D01*
X110757142Y-76061904D01*
X110804761Y-76014285D01*
X110852380Y-75919047D01*
X110852380Y-75728571D01*
X110804761Y-75633333D01*
X110757142Y-75585714D01*
X110661904Y-75538095D01*
X109852380Y-75538095D01*
X109852380Y-75157142D02*
X110852380Y-74490476D01*
X109852380Y-74490476D02*
X110852380Y-75157142D01*
X110852380Y-73585714D02*
X110852380Y-74157142D01*
X110852380Y-73871428D02*
X109852380Y-73871428D01*
X109995238Y-73966666D01*
X110090476Y-74061904D01*
X110138095Y-74157142D01*
X50957142Y-69752380D02*
X50957142Y-68752380D01*
X51338095Y-68752380D01*
X51433333Y-68800000D01*
X51480952Y-68847619D01*
X51528571Y-68942857D01*
X51528571Y-69085714D01*
X51480952Y-69180952D01*
X51433333Y-69228571D01*
X51338095Y-69276190D01*
X50957142Y-69276190D01*
X52147619Y-68752380D02*
X52338095Y-68752380D01*
X52433333Y-68800000D01*
X52528571Y-68895238D01*
X52576190Y-69085714D01*
X52576190Y-69419047D01*
X52528571Y-69609523D01*
X52433333Y-69704761D01*
X52338095Y-69752380D01*
X52147619Y-69752380D01*
X52052380Y-69704761D01*
X51957142Y-69609523D01*
X51909523Y-69419047D01*
X51909523Y-69085714D01*
X51957142Y-68895238D01*
X52052380Y-68800000D01*
X52147619Y-68752380D01*
X53480952Y-69752380D02*
X53004761Y-69752380D01*
X53004761Y-68752380D01*
X53814285Y-69228571D02*
X54147619Y-69228571D01*
X54290476Y-69752380D02*
X53814285Y-69752380D01*
X53814285Y-68752380D01*
X54290476Y-68752380D01*
X128761904Y-69000000D02*
X128666666Y-68952380D01*
X128523809Y-68952380D01*
X128380952Y-69000000D01*
X128285714Y-69095238D01*
X128238095Y-69190476D01*
X128190476Y-69380952D01*
X128190476Y-69523809D01*
X128238095Y-69714285D01*
X128285714Y-69809523D01*
X128380952Y-69904761D01*
X128523809Y-69952380D01*
X128619047Y-69952380D01*
X128761904Y-69904761D01*
X128809523Y-69857142D01*
X128809523Y-69523809D01*
X128619047Y-69523809D01*
X118261904Y-69000000D02*
X118166666Y-68952380D01*
X118023809Y-68952380D01*
X117880952Y-69000000D01*
X117785714Y-69095238D01*
X117738095Y-69190476D01*
X117690476Y-69380952D01*
X117690476Y-69523809D01*
X117738095Y-69714285D01*
X117785714Y-69809523D01*
X117880952Y-69904761D01*
X118023809Y-69952380D01*
X118119047Y-69952380D01*
X118261904Y-69904761D01*
X118309523Y-69857142D01*
X118309523Y-69523809D01*
X118119047Y-69523809D01*
X55861904Y-68800000D02*
X55766666Y-68752380D01*
X55623809Y-68752380D01*
X55480952Y-68800000D01*
X55385714Y-68895238D01*
X55338095Y-68990476D01*
X55290476Y-69180952D01*
X55290476Y-69323809D01*
X55338095Y-69514285D01*
X55385714Y-69609523D01*
X55480952Y-69704761D01*
X55623809Y-69752380D01*
X55719047Y-69752380D01*
X55861904Y-69704761D01*
X55909523Y-69657142D01*
X55909523Y-69323809D01*
X55719047Y-69323809D01*
D13*
X57620000Y-62500000D02*
G75*
G03*
X57620000Y-62500000I-5120000J0D01*
G01*
X47420000Y-62500000D02*
X57580000Y-62500000D01*
X47420000Y-62460000D02*
X57580000Y-62460000D01*
X47420000Y-62420000D02*
X57580000Y-62420000D01*
X47421000Y-62380000D02*
X57579000Y-62380000D01*
X47422000Y-62340000D02*
X57578000Y-62340000D01*
X47423000Y-62300000D02*
X57577000Y-62300000D01*
X47425000Y-62260000D02*
X57575000Y-62260000D01*
X47427000Y-62220000D02*
X57573000Y-62220000D01*
X47430000Y-62180000D02*
X57570000Y-62180000D01*
X47432000Y-62140000D02*
X57568000Y-62140000D01*
X47435000Y-62100000D02*
X57565000Y-62100000D01*
X47438000Y-62060000D02*
X57562000Y-62060000D01*
X47442000Y-62020000D02*
X57558000Y-62020000D01*
X47446000Y-61980000D02*
X57554000Y-61980000D01*
X47450000Y-61940000D02*
X57550000Y-61940000D01*
X47455000Y-61900000D02*
X57545000Y-61900000D01*
X47460000Y-61860000D02*
X57540000Y-61860000D01*
X47465000Y-61820000D02*
X57535000Y-61820000D01*
X47470000Y-61779000D02*
X57530000Y-61779000D01*
X47476000Y-61739000D02*
X57524000Y-61739000D01*
X47482000Y-61699000D02*
X57518000Y-61699000D01*
X47489000Y-61659000D02*
X57511000Y-61659000D01*
X47496000Y-61619000D02*
X57504000Y-61619000D01*
X47503000Y-61579000D02*
X57497000Y-61579000D01*
X47510000Y-61539000D02*
X57490000Y-61539000D01*
X47518000Y-61499000D02*
X57482000Y-61499000D01*
X47526000Y-61459000D02*
X57474000Y-61459000D01*
X47535000Y-61419000D02*
X57465000Y-61419000D01*
X47544000Y-61379000D02*
X57456000Y-61379000D01*
X47553000Y-61339000D02*
X57447000Y-61339000D01*
X47562000Y-61299000D02*
X57438000Y-61299000D01*
X47572000Y-61259000D02*
X57428000Y-61259000D01*
X47582000Y-61219000D02*
X51259000Y-61219000D01*
X53741000Y-61219000D02*
X57418000Y-61219000D01*
X47593000Y-61179000D02*
X51259000Y-61179000D01*
X53741000Y-61179000D02*
X57407000Y-61179000D01*
X47603000Y-61139000D02*
X51259000Y-61139000D01*
X53741000Y-61139000D02*
X57397000Y-61139000D01*
X47615000Y-61099000D02*
X51259000Y-61099000D01*
X53741000Y-61099000D02*
X57385000Y-61099000D01*
X47626000Y-61059000D02*
X51259000Y-61059000D01*
X53741000Y-61059000D02*
X57374000Y-61059000D01*
X47638000Y-61019000D02*
X51259000Y-61019000D01*
X53741000Y-61019000D02*
X57362000Y-61019000D01*
X47650000Y-60979000D02*
X51259000Y-60979000D01*
X53741000Y-60979000D02*
X57350000Y-60979000D01*
X47663000Y-60939000D02*
X51259000Y-60939000D01*
X53741000Y-60939000D02*
X57337000Y-60939000D01*
X47676000Y-60899000D02*
X51259000Y-60899000D01*
X53741000Y-60899000D02*
X57324000Y-60899000D01*
X47689000Y-60859000D02*
X51259000Y-60859000D01*
X53741000Y-60859000D02*
X57311000Y-60859000D01*
X47703000Y-60819000D02*
X51259000Y-60819000D01*
X53741000Y-60819000D02*
X57297000Y-60819000D01*
X47717000Y-60779000D02*
X51259000Y-60779000D01*
X53741000Y-60779000D02*
X57283000Y-60779000D01*
X47732000Y-60739000D02*
X51259000Y-60739000D01*
X53741000Y-60739000D02*
X57268000Y-60739000D01*
X47746000Y-60699000D02*
X51259000Y-60699000D01*
X53741000Y-60699000D02*
X57254000Y-60699000D01*
X47762000Y-60659000D02*
X51259000Y-60659000D01*
X53741000Y-60659000D02*
X57238000Y-60659000D01*
X47777000Y-60619000D02*
X51259000Y-60619000D01*
X53741000Y-60619000D02*
X57223000Y-60619000D01*
X47793000Y-60579000D02*
X51259000Y-60579000D01*
X53741000Y-60579000D02*
X57207000Y-60579000D01*
X47810000Y-60539000D02*
X51259000Y-60539000D01*
X53741000Y-60539000D02*
X57190000Y-60539000D01*
X47826000Y-60499000D02*
X51259000Y-60499000D01*
X53741000Y-60499000D02*
X57174000Y-60499000D01*
X47843000Y-60459000D02*
X51259000Y-60459000D01*
X53741000Y-60459000D02*
X57157000Y-60459000D01*
X47861000Y-60419000D02*
X51259000Y-60419000D01*
X53741000Y-60419000D02*
X57139000Y-60419000D01*
X47879000Y-60379000D02*
X51259000Y-60379000D01*
X53741000Y-60379000D02*
X57121000Y-60379000D01*
X47897000Y-60339000D02*
X51259000Y-60339000D01*
X53741000Y-60339000D02*
X57103000Y-60339000D01*
X47916000Y-60299000D02*
X51259000Y-60299000D01*
X53741000Y-60299000D02*
X57084000Y-60299000D01*
X47936000Y-60259000D02*
X51259000Y-60259000D01*
X53741000Y-60259000D02*
X57064000Y-60259000D01*
X47955000Y-60219000D02*
X51259000Y-60219000D01*
X53741000Y-60219000D02*
X57045000Y-60219000D01*
X47975000Y-60179000D02*
X51259000Y-60179000D01*
X53741000Y-60179000D02*
X57025000Y-60179000D01*
X47996000Y-60139000D02*
X51259000Y-60139000D01*
X53741000Y-60139000D02*
X57004000Y-60139000D01*
X48017000Y-60099000D02*
X51259000Y-60099000D01*
X53741000Y-60099000D02*
X56983000Y-60099000D01*
X48038000Y-60059000D02*
X51259000Y-60059000D01*
X53741000Y-60059000D02*
X56962000Y-60059000D01*
X48060000Y-60019000D02*
X51259000Y-60019000D01*
X53741000Y-60019000D02*
X56940000Y-60019000D01*
X48083000Y-59979000D02*
X51259000Y-59979000D01*
X53741000Y-59979000D02*
X56917000Y-59979000D01*
X48105000Y-59939000D02*
X51259000Y-59939000D01*
X53741000Y-59939000D02*
X56895000Y-59939000D01*
X48129000Y-59899000D02*
X51259000Y-59899000D01*
X53741000Y-59899000D02*
X56871000Y-59899000D01*
X48153000Y-59859000D02*
X51259000Y-59859000D01*
X53741000Y-59859000D02*
X56847000Y-59859000D01*
X48177000Y-59819000D02*
X51259000Y-59819000D01*
X53741000Y-59819000D02*
X56823000Y-59819000D01*
X48202000Y-59779000D02*
X51259000Y-59779000D01*
X53741000Y-59779000D02*
X56798000Y-59779000D01*
X48227000Y-59739000D02*
X51259000Y-59739000D01*
X53741000Y-59739000D02*
X56773000Y-59739000D01*
X48253000Y-59699000D02*
X51259000Y-59699000D01*
X53741000Y-59699000D02*
X56747000Y-59699000D01*
X48279000Y-59659000D02*
X51259000Y-59659000D01*
X53741000Y-59659000D02*
X56721000Y-59659000D01*
X48306000Y-59619000D02*
X51259000Y-59619000D01*
X53741000Y-59619000D02*
X56694000Y-59619000D01*
X48334000Y-59579000D02*
X51259000Y-59579000D01*
X53741000Y-59579000D02*
X56666000Y-59579000D01*
X48362000Y-59539000D02*
X51259000Y-59539000D01*
X53741000Y-59539000D02*
X56638000Y-59539000D01*
X48390000Y-59499000D02*
X51259000Y-59499000D01*
X53741000Y-59499000D02*
X56610000Y-59499000D01*
X48420000Y-59459000D02*
X51259000Y-59459000D01*
X53741000Y-59459000D02*
X56580000Y-59459000D01*
X48450000Y-59419000D02*
X51259000Y-59419000D01*
X53741000Y-59419000D02*
X56550000Y-59419000D01*
X48480000Y-59379000D02*
X51259000Y-59379000D01*
X53741000Y-59379000D02*
X56520000Y-59379000D01*
X48511000Y-59339000D02*
X51259000Y-59339000D01*
X53741000Y-59339000D02*
X56489000Y-59339000D01*
X48543000Y-59299000D02*
X51259000Y-59299000D01*
X53741000Y-59299000D02*
X56457000Y-59299000D01*
X48575000Y-59259000D02*
X51259000Y-59259000D01*
X53741000Y-59259000D02*
X56425000Y-59259000D01*
X48608000Y-59219000D02*
X51259000Y-59219000D01*
X53741000Y-59219000D02*
X56392000Y-59219000D01*
X48642000Y-59179000D02*
X51259000Y-59179000D01*
X53741000Y-59179000D02*
X56358000Y-59179000D01*
X48676000Y-59139000D02*
X51259000Y-59139000D01*
X53741000Y-59139000D02*
X56324000Y-59139000D01*
X48711000Y-59099000D02*
X51259000Y-59099000D01*
X53741000Y-59099000D02*
X56289000Y-59099000D01*
X48747000Y-59059000D02*
X51259000Y-59059000D01*
X53741000Y-59059000D02*
X56253000Y-59059000D01*
X48784000Y-59019000D02*
X51259000Y-59019000D01*
X53741000Y-59019000D02*
X56216000Y-59019000D01*
X48821000Y-58979000D02*
X51259000Y-58979000D01*
X53741000Y-58979000D02*
X56179000Y-58979000D01*
X48860000Y-58939000D02*
X51259000Y-58939000D01*
X53741000Y-58939000D02*
X56140000Y-58939000D01*
X48899000Y-58899000D02*
X51259000Y-58899000D01*
X53741000Y-58899000D02*
X56101000Y-58899000D01*
X48939000Y-58859000D02*
X51259000Y-58859000D01*
X53741000Y-58859000D02*
X56061000Y-58859000D01*
X48980000Y-58819000D02*
X51259000Y-58819000D01*
X53741000Y-58819000D02*
X56020000Y-58819000D01*
X49022000Y-58779000D02*
X51259000Y-58779000D01*
X53741000Y-58779000D02*
X55978000Y-58779000D01*
X49064000Y-58739000D02*
X55936000Y-58739000D01*
X49108000Y-58699000D02*
X55892000Y-58699000D01*
X49153000Y-58659000D02*
X55847000Y-58659000D01*
X49199000Y-58619000D02*
X55801000Y-58619000D01*
X49246000Y-58579000D02*
X55754000Y-58579000D01*
X49294000Y-58539000D02*
X55706000Y-58539000D01*
X49344000Y-58499000D02*
X55656000Y-58499000D01*
X49394000Y-58459000D02*
X55606000Y-58459000D01*
X49446000Y-58419000D02*
X55554000Y-58419000D01*
X49500000Y-58379000D02*
X55500000Y-58379000D01*
X49555000Y-58339000D02*
X55445000Y-58339000D01*
X49611000Y-58299000D02*
X55389000Y-58299000D01*
X49670000Y-58259000D02*
X55330000Y-58259000D01*
X49730000Y-58219000D02*
X55270000Y-58219000D01*
X49791000Y-58179000D02*
X55209000Y-58179000D01*
X49855000Y-58139000D02*
X55145000Y-58139000D01*
X49921000Y-58099000D02*
X55079000Y-58099000D01*
X49990000Y-58059000D02*
X55010000Y-58059000D01*
X50061000Y-58019000D02*
X54939000Y-58019000D01*
X50135000Y-57979000D02*
X54865000Y-57979000D01*
X50211000Y-57939000D02*
X54789000Y-57939000D01*
X50291000Y-57899000D02*
X54709000Y-57899000D01*
X50375000Y-57859000D02*
X54625000Y-57859000D01*
X50463000Y-57819000D02*
X54537000Y-57819000D01*
X50556000Y-57779000D02*
X54444000Y-57779000D01*
X50654000Y-57739000D02*
X54346000Y-57739000D01*
X50758000Y-57699000D02*
X54242000Y-57699000D01*
X50870000Y-57659000D02*
X54130000Y-57659000D01*
X50990000Y-57619000D02*
X54010000Y-57619000D01*
X51122000Y-57579000D02*
X53878000Y-57579000D01*
X51270000Y-57539000D02*
X53730000Y-57539000D01*
X51438000Y-57499000D02*
X53562000Y-57499000D01*
X51638000Y-57459000D02*
X53362000Y-57459000D01*
X51901000Y-57419000D02*
X53099000Y-57419000D01*
X49625000Y-67979646D02*
X49625000Y-66979646D01*
X49125000Y-67479646D02*
X50125000Y-67479646D01*
X120120000Y-63000000D02*
G75*
G03*
X120120000Y-63000000I-5120000J0D01*
G01*
X109920000Y-63000000D02*
X120080000Y-63000000D01*
X109920000Y-62960000D02*
X120080000Y-62960000D01*
X109920000Y-62920000D02*
X120080000Y-62920000D01*
X109921000Y-62880000D02*
X120079000Y-62880000D01*
X109922000Y-62840000D02*
X120078000Y-62840000D01*
X109923000Y-62800000D02*
X120077000Y-62800000D01*
X109925000Y-62760000D02*
X120075000Y-62760000D01*
X109927000Y-62720000D02*
X120073000Y-62720000D01*
X109930000Y-62680000D02*
X120070000Y-62680000D01*
X109932000Y-62640000D02*
X120068000Y-62640000D01*
X109935000Y-62600000D02*
X120065000Y-62600000D01*
X109938000Y-62560000D02*
X120062000Y-62560000D01*
X109942000Y-62520000D02*
X120058000Y-62520000D01*
X109946000Y-62480000D02*
X120054000Y-62480000D01*
X109950000Y-62440000D02*
X120050000Y-62440000D01*
X109955000Y-62400000D02*
X120045000Y-62400000D01*
X109960000Y-62360000D02*
X120040000Y-62360000D01*
X109965000Y-62320000D02*
X120035000Y-62320000D01*
X109970000Y-62279000D02*
X120030000Y-62279000D01*
X109976000Y-62239000D02*
X120024000Y-62239000D01*
X109982000Y-62199000D02*
X120018000Y-62199000D01*
X109989000Y-62159000D02*
X120011000Y-62159000D01*
X109996000Y-62119000D02*
X120004000Y-62119000D01*
X110003000Y-62079000D02*
X119997000Y-62079000D01*
X110010000Y-62039000D02*
X119990000Y-62039000D01*
X110018000Y-61999000D02*
X119982000Y-61999000D01*
X110026000Y-61959000D02*
X119974000Y-61959000D01*
X110035000Y-61919000D02*
X119965000Y-61919000D01*
X110044000Y-61879000D02*
X119956000Y-61879000D01*
X110053000Y-61839000D02*
X119947000Y-61839000D01*
X110062000Y-61799000D02*
X119938000Y-61799000D01*
X110072000Y-61759000D02*
X119928000Y-61759000D01*
X110082000Y-61719000D02*
X113759000Y-61719000D01*
X116241000Y-61719000D02*
X119918000Y-61719000D01*
X110093000Y-61679000D02*
X113759000Y-61679000D01*
X116241000Y-61679000D02*
X119907000Y-61679000D01*
X110103000Y-61639000D02*
X113759000Y-61639000D01*
X116241000Y-61639000D02*
X119897000Y-61639000D01*
X110115000Y-61599000D02*
X113759000Y-61599000D01*
X116241000Y-61599000D02*
X119885000Y-61599000D01*
X110126000Y-61559000D02*
X113759000Y-61559000D01*
X116241000Y-61559000D02*
X119874000Y-61559000D01*
X110138000Y-61519000D02*
X113759000Y-61519000D01*
X116241000Y-61519000D02*
X119862000Y-61519000D01*
X110150000Y-61479000D02*
X113759000Y-61479000D01*
X116241000Y-61479000D02*
X119850000Y-61479000D01*
X110163000Y-61439000D02*
X113759000Y-61439000D01*
X116241000Y-61439000D02*
X119837000Y-61439000D01*
X110176000Y-61399000D02*
X113759000Y-61399000D01*
X116241000Y-61399000D02*
X119824000Y-61399000D01*
X110189000Y-61359000D02*
X113759000Y-61359000D01*
X116241000Y-61359000D02*
X119811000Y-61359000D01*
X110203000Y-61319000D02*
X113759000Y-61319000D01*
X116241000Y-61319000D02*
X119797000Y-61319000D01*
X110217000Y-61279000D02*
X113759000Y-61279000D01*
X116241000Y-61279000D02*
X119783000Y-61279000D01*
X110232000Y-61239000D02*
X113759000Y-61239000D01*
X116241000Y-61239000D02*
X119768000Y-61239000D01*
X110246000Y-61199000D02*
X113759000Y-61199000D01*
X116241000Y-61199000D02*
X119754000Y-61199000D01*
X110262000Y-61159000D02*
X113759000Y-61159000D01*
X116241000Y-61159000D02*
X119738000Y-61159000D01*
X110277000Y-61119000D02*
X113759000Y-61119000D01*
X116241000Y-61119000D02*
X119723000Y-61119000D01*
X110293000Y-61079000D02*
X113759000Y-61079000D01*
X116241000Y-61079000D02*
X119707000Y-61079000D01*
X110310000Y-61039000D02*
X113759000Y-61039000D01*
X116241000Y-61039000D02*
X119690000Y-61039000D01*
X110326000Y-60999000D02*
X113759000Y-60999000D01*
X116241000Y-60999000D02*
X119674000Y-60999000D01*
X110343000Y-60959000D02*
X113759000Y-60959000D01*
X116241000Y-60959000D02*
X119657000Y-60959000D01*
X110361000Y-60919000D02*
X113759000Y-60919000D01*
X116241000Y-60919000D02*
X119639000Y-60919000D01*
X110379000Y-60879000D02*
X113759000Y-60879000D01*
X116241000Y-60879000D02*
X119621000Y-60879000D01*
X110397000Y-60839000D02*
X113759000Y-60839000D01*
X116241000Y-60839000D02*
X119603000Y-60839000D01*
X110416000Y-60799000D02*
X113759000Y-60799000D01*
X116241000Y-60799000D02*
X119584000Y-60799000D01*
X110436000Y-60759000D02*
X113759000Y-60759000D01*
X116241000Y-60759000D02*
X119564000Y-60759000D01*
X110455000Y-60719000D02*
X113759000Y-60719000D01*
X116241000Y-60719000D02*
X119545000Y-60719000D01*
X110475000Y-60679000D02*
X113759000Y-60679000D01*
X116241000Y-60679000D02*
X119525000Y-60679000D01*
X110496000Y-60639000D02*
X113759000Y-60639000D01*
X116241000Y-60639000D02*
X119504000Y-60639000D01*
X110517000Y-60599000D02*
X113759000Y-60599000D01*
X116241000Y-60599000D02*
X119483000Y-60599000D01*
X110538000Y-60559000D02*
X113759000Y-60559000D01*
X116241000Y-60559000D02*
X119462000Y-60559000D01*
X110560000Y-60519000D02*
X113759000Y-60519000D01*
X116241000Y-60519000D02*
X119440000Y-60519000D01*
X110583000Y-60479000D02*
X113759000Y-60479000D01*
X116241000Y-60479000D02*
X119417000Y-60479000D01*
X110605000Y-60439000D02*
X113759000Y-60439000D01*
X116241000Y-60439000D02*
X119395000Y-60439000D01*
X110629000Y-60399000D02*
X113759000Y-60399000D01*
X116241000Y-60399000D02*
X119371000Y-60399000D01*
X110653000Y-60359000D02*
X113759000Y-60359000D01*
X116241000Y-60359000D02*
X119347000Y-60359000D01*
X110677000Y-60319000D02*
X113759000Y-60319000D01*
X116241000Y-60319000D02*
X119323000Y-60319000D01*
X110702000Y-60279000D02*
X113759000Y-60279000D01*
X116241000Y-60279000D02*
X119298000Y-60279000D01*
X110727000Y-60239000D02*
X113759000Y-60239000D01*
X116241000Y-60239000D02*
X119273000Y-60239000D01*
X110753000Y-60199000D02*
X113759000Y-60199000D01*
X116241000Y-60199000D02*
X119247000Y-60199000D01*
X110779000Y-60159000D02*
X113759000Y-60159000D01*
X116241000Y-60159000D02*
X119221000Y-60159000D01*
X110806000Y-60119000D02*
X113759000Y-60119000D01*
X116241000Y-60119000D02*
X119194000Y-60119000D01*
X110834000Y-60079000D02*
X113759000Y-60079000D01*
X116241000Y-60079000D02*
X119166000Y-60079000D01*
X110862000Y-60039000D02*
X113759000Y-60039000D01*
X116241000Y-60039000D02*
X119138000Y-60039000D01*
X110890000Y-59999000D02*
X113759000Y-59999000D01*
X116241000Y-59999000D02*
X119110000Y-59999000D01*
X110920000Y-59959000D02*
X113759000Y-59959000D01*
X116241000Y-59959000D02*
X119080000Y-59959000D01*
X110950000Y-59919000D02*
X113759000Y-59919000D01*
X116241000Y-59919000D02*
X119050000Y-59919000D01*
X110980000Y-59879000D02*
X113759000Y-59879000D01*
X116241000Y-59879000D02*
X119020000Y-59879000D01*
X111011000Y-59839000D02*
X113759000Y-59839000D01*
X116241000Y-59839000D02*
X118989000Y-59839000D01*
X111043000Y-59799000D02*
X113759000Y-59799000D01*
X116241000Y-59799000D02*
X118957000Y-59799000D01*
X111075000Y-59759000D02*
X113759000Y-59759000D01*
X116241000Y-59759000D02*
X118925000Y-59759000D01*
X111108000Y-59719000D02*
X113759000Y-59719000D01*
X116241000Y-59719000D02*
X118892000Y-59719000D01*
X111142000Y-59679000D02*
X113759000Y-59679000D01*
X116241000Y-59679000D02*
X118858000Y-59679000D01*
X111176000Y-59639000D02*
X113759000Y-59639000D01*
X116241000Y-59639000D02*
X118824000Y-59639000D01*
X111211000Y-59599000D02*
X113759000Y-59599000D01*
X116241000Y-59599000D02*
X118789000Y-59599000D01*
X111247000Y-59559000D02*
X113759000Y-59559000D01*
X116241000Y-59559000D02*
X118753000Y-59559000D01*
X111284000Y-59519000D02*
X113759000Y-59519000D01*
X116241000Y-59519000D02*
X118716000Y-59519000D01*
X111321000Y-59479000D02*
X113759000Y-59479000D01*
X116241000Y-59479000D02*
X118679000Y-59479000D01*
X111360000Y-59439000D02*
X113759000Y-59439000D01*
X116241000Y-59439000D02*
X118640000Y-59439000D01*
X111399000Y-59399000D02*
X113759000Y-59399000D01*
X116241000Y-59399000D02*
X118601000Y-59399000D01*
X111439000Y-59359000D02*
X113759000Y-59359000D01*
X116241000Y-59359000D02*
X118561000Y-59359000D01*
X111480000Y-59319000D02*
X113759000Y-59319000D01*
X116241000Y-59319000D02*
X118520000Y-59319000D01*
X111522000Y-59279000D02*
X113759000Y-59279000D01*
X116241000Y-59279000D02*
X118478000Y-59279000D01*
X111564000Y-59239000D02*
X118436000Y-59239000D01*
X111608000Y-59199000D02*
X118392000Y-59199000D01*
X111653000Y-59159000D02*
X118347000Y-59159000D01*
X111699000Y-59119000D02*
X118301000Y-59119000D01*
X111746000Y-59079000D02*
X118254000Y-59079000D01*
X111794000Y-59039000D02*
X118206000Y-59039000D01*
X111844000Y-58999000D02*
X118156000Y-58999000D01*
X111894000Y-58959000D02*
X118106000Y-58959000D01*
X111946000Y-58919000D02*
X118054000Y-58919000D01*
X112000000Y-58879000D02*
X118000000Y-58879000D01*
X112055000Y-58839000D02*
X117945000Y-58839000D01*
X112111000Y-58799000D02*
X117889000Y-58799000D01*
X112170000Y-58759000D02*
X117830000Y-58759000D01*
X112230000Y-58719000D02*
X117770000Y-58719000D01*
X112291000Y-58679000D02*
X117709000Y-58679000D01*
X112355000Y-58639000D02*
X117645000Y-58639000D01*
X112421000Y-58599000D02*
X117579000Y-58599000D01*
X112490000Y-58559000D02*
X117510000Y-58559000D01*
X112561000Y-58519000D02*
X117439000Y-58519000D01*
X112635000Y-58479000D02*
X117365000Y-58479000D01*
X112711000Y-58439000D02*
X117289000Y-58439000D01*
X112791000Y-58399000D02*
X117209000Y-58399000D01*
X112875000Y-58359000D02*
X117125000Y-58359000D01*
X112963000Y-58319000D02*
X117037000Y-58319000D01*
X113056000Y-58279000D02*
X116944000Y-58279000D01*
X113154000Y-58239000D02*
X116846000Y-58239000D01*
X113258000Y-58199000D02*
X116742000Y-58199000D01*
X113370000Y-58159000D02*
X116630000Y-58159000D01*
X113490000Y-58119000D02*
X116510000Y-58119000D01*
X113622000Y-58079000D02*
X116378000Y-58079000D01*
X113770000Y-58039000D02*
X116230000Y-58039000D01*
X113938000Y-57999000D02*
X116062000Y-57999000D01*
X114138000Y-57959000D02*
X115862000Y-57959000D01*
X114401000Y-57919000D02*
X115599000Y-57919000D01*
X112125000Y-68479646D02*
X112125000Y-67479646D01*
X111625000Y-67979646D02*
X112625000Y-67979646D01*
X129770000Y-70730000D02*
X129770000Y-72000000D01*
X128500000Y-70730000D02*
X129770000Y-70730000D01*
X123040000Y-73042929D02*
X123040000Y-73440000D01*
X123800000Y-73042929D02*
X123800000Y-73440000D01*
X123040000Y-82100000D02*
X123040000Y-76100000D01*
X123800000Y-82100000D02*
X123040000Y-82100000D01*
X123800000Y-76100000D02*
X123800000Y-82100000D01*
X124690000Y-73440000D02*
X124690000Y-76100000D01*
X125580000Y-73042929D02*
X125580000Y-73440000D01*
X126340000Y-73042929D02*
X126340000Y-73440000D01*
X125580000Y-82100000D02*
X125580000Y-76100000D01*
X126340000Y-82100000D02*
X125580000Y-82100000D01*
X126340000Y-76100000D02*
X126340000Y-82100000D01*
X127230000Y-73440000D02*
X127230000Y-76100000D01*
X128120000Y-73110000D02*
X128120000Y-73440000D01*
X128880000Y-73110000D02*
X128880000Y-73440000D01*
X128220000Y-76100000D02*
X128220000Y-82100000D01*
X128340000Y-76100000D02*
X128340000Y-82100000D01*
X128460000Y-76100000D02*
X128460000Y-82100000D01*
X128580000Y-76100000D02*
X128580000Y-82100000D01*
X128700000Y-76100000D02*
X128700000Y-82100000D01*
X128820000Y-76100000D02*
X128820000Y-82100000D01*
X128120000Y-82100000D02*
X128120000Y-76100000D01*
X128880000Y-82100000D02*
X128120000Y-82100000D01*
X128880000Y-76100000D02*
X128880000Y-82100000D01*
X129830000Y-76100000D02*
X129830000Y-73440000D01*
X122090000Y-76100000D02*
X129830000Y-76100000D01*
X122090000Y-73440000D02*
X122090000Y-76100000D01*
X129830000Y-73440000D02*
X122090000Y-73440000D01*
X119270000Y-70730000D02*
X119270000Y-72000000D01*
X118000000Y-70730000D02*
X119270000Y-70730000D01*
X112540000Y-73042929D02*
X112540000Y-73440000D01*
X113300000Y-73042929D02*
X113300000Y-73440000D01*
X112540000Y-82100000D02*
X112540000Y-76100000D01*
X113300000Y-82100000D02*
X112540000Y-82100000D01*
X113300000Y-76100000D02*
X113300000Y-82100000D01*
X114190000Y-73440000D02*
X114190000Y-76100000D01*
X115080000Y-73042929D02*
X115080000Y-73440000D01*
X115840000Y-73042929D02*
X115840000Y-73440000D01*
X115080000Y-82100000D02*
X115080000Y-76100000D01*
X115840000Y-82100000D02*
X115080000Y-82100000D01*
X115840000Y-76100000D02*
X115840000Y-82100000D01*
X116730000Y-73440000D02*
X116730000Y-76100000D01*
X117620000Y-73110000D02*
X117620000Y-73440000D01*
X118380000Y-73110000D02*
X118380000Y-73440000D01*
X117720000Y-76100000D02*
X117720000Y-82100000D01*
X117840000Y-76100000D02*
X117840000Y-82100000D01*
X117960000Y-76100000D02*
X117960000Y-82100000D01*
X118080000Y-76100000D02*
X118080000Y-82100000D01*
X118200000Y-76100000D02*
X118200000Y-82100000D01*
X118320000Y-76100000D02*
X118320000Y-82100000D01*
X117620000Y-82100000D02*
X117620000Y-76100000D01*
X118380000Y-82100000D02*
X117620000Y-82100000D01*
X118380000Y-76100000D02*
X118380000Y-82100000D01*
X119330000Y-76100000D02*
X119330000Y-73440000D01*
X111590000Y-76100000D02*
X119330000Y-76100000D01*
X111590000Y-73440000D02*
X111590000Y-76100000D01*
X119330000Y-73440000D02*
X111590000Y-73440000D01*
X56270000Y-70230000D02*
X56270000Y-71500000D01*
X55000000Y-70230000D02*
X56270000Y-70230000D01*
X49540000Y-72542929D02*
X49540000Y-72940000D01*
X50300000Y-72542929D02*
X50300000Y-72940000D01*
X49540000Y-81600000D02*
X49540000Y-75600000D01*
X50300000Y-81600000D02*
X49540000Y-81600000D01*
X50300000Y-75600000D02*
X50300000Y-81600000D01*
X51190000Y-72940000D02*
X51190000Y-75600000D01*
X52080000Y-72542929D02*
X52080000Y-72940000D01*
X52840000Y-72542929D02*
X52840000Y-72940000D01*
X52080000Y-81600000D02*
X52080000Y-75600000D01*
X52840000Y-81600000D02*
X52080000Y-81600000D01*
X52840000Y-75600000D02*
X52840000Y-81600000D01*
X53730000Y-72940000D02*
X53730000Y-75600000D01*
X54620000Y-72610000D02*
X54620000Y-72940000D01*
X55380000Y-72610000D02*
X55380000Y-72940000D01*
X54720000Y-75600000D02*
X54720000Y-81600000D01*
X54840000Y-75600000D02*
X54840000Y-81600000D01*
X54960000Y-75600000D02*
X54960000Y-81600000D01*
X55080000Y-75600000D02*
X55080000Y-81600000D01*
X55200000Y-75600000D02*
X55200000Y-81600000D01*
X55320000Y-75600000D02*
X55320000Y-81600000D01*
X54620000Y-81600000D02*
X54620000Y-75600000D01*
X55380000Y-81600000D02*
X54620000Y-81600000D01*
X55380000Y-75600000D02*
X55380000Y-81600000D01*
X56330000Y-75600000D02*
X56330000Y-72940000D01*
X48590000Y-75600000D02*
X56330000Y-75600000D01*
X48590000Y-72940000D02*
X48590000Y-75600000D01*
X56330000Y-72940000D02*
X48590000Y-72940000D01*
X46270000Y-70230000D02*
X46270000Y-71500000D01*
X45000000Y-70230000D02*
X46270000Y-70230000D01*
X39540000Y-72542929D02*
X39540000Y-72940000D01*
X40300000Y-72542929D02*
X40300000Y-72940000D01*
X39540000Y-81600000D02*
X39540000Y-75600000D01*
X40300000Y-81600000D02*
X39540000Y-81600000D01*
X40300000Y-75600000D02*
X40300000Y-81600000D01*
X41190000Y-72940000D02*
X41190000Y-75600000D01*
X42080000Y-72542929D02*
X42080000Y-72940000D01*
X42840000Y-72542929D02*
X42840000Y-72940000D01*
X42080000Y-81600000D02*
X42080000Y-75600000D01*
X42840000Y-81600000D02*
X42080000Y-81600000D01*
X42840000Y-75600000D02*
X42840000Y-81600000D01*
X43730000Y-72940000D02*
X43730000Y-75600000D01*
X44620000Y-72610000D02*
X44620000Y-72940000D01*
X45380000Y-72610000D02*
X45380000Y-72940000D01*
X44720000Y-75600000D02*
X44720000Y-81600000D01*
X44840000Y-75600000D02*
X44840000Y-81600000D01*
X44960000Y-75600000D02*
X44960000Y-81600000D01*
X45080000Y-75600000D02*
X45080000Y-81600000D01*
X45200000Y-75600000D02*
X45200000Y-81600000D01*
X45320000Y-75600000D02*
X45320000Y-81600000D01*
X44620000Y-81600000D02*
X44620000Y-75600000D01*
X45380000Y-81600000D02*
X44620000Y-81600000D01*
X45380000Y-75600000D02*
X45380000Y-81600000D01*
X46330000Y-75600000D02*
X46330000Y-72940000D01*
X38590000Y-75600000D02*
X46330000Y-75600000D01*
X38590000Y-72940000D02*
X38590000Y-75600000D01*
X46330000Y-72940000D02*
X38590000Y-72940000D01*
D10*
X89750000Y-77250000D02*
X77250000Y-77250000D01*
X91200000Y-87100000D02*
X75800000Y-87100000D01*
X91200000Y-87250000D02*
X91200000Y-78250000D01*
X91200000Y-64000000D02*
X75800000Y-64000000D01*
X75800000Y-64000000D02*
X75800000Y-76250000D01*
X83500000Y-87000000D02*
X83500000Y-64000000D01*
X91200000Y-76250000D02*
X91200000Y-64000000D01*
X75800000Y-78250000D02*
X75800000Y-87250000D01*
X91200000Y-64000000D02*
X91200000Y-57250000D01*
X91200000Y-57250000D02*
X75800000Y-57250000D01*
X75800000Y-57250000D02*
X75800000Y-64000000D01*
X72750000Y-77160000D02*
X60250000Y-77160000D01*
X74200000Y-87010000D02*
X58800000Y-87010000D01*
X74200000Y-87160000D02*
X74200000Y-78160000D01*
X74200000Y-63910000D02*
X58800000Y-63910000D01*
X58800000Y-63910000D02*
X58800000Y-76160000D01*
X66500000Y-86910000D02*
X66500000Y-63910000D01*
X74200000Y-76160000D02*
X74200000Y-63910000D01*
X58800000Y-78160000D02*
X58800000Y-87160000D01*
X74200000Y-63910000D02*
X74200000Y-57160000D01*
X74200000Y-57160000D02*
X58800000Y-57160000D01*
X58800000Y-57160000D02*
X58800000Y-63910000D01*
X129500000Y-56000000D02*
G75*
G03*
X129500000Y-56000000I-5000000J0D01*
G01*
X48500000Y-56000000D02*
G75*
G03*
X48500000Y-56000000I-5000000J0D01*
G01*
D13*
X93185000Y-59120000D02*
X93185000Y-77080000D01*
X108705000Y-59120000D02*
X93185000Y-59120000D01*
X108705000Y-59120000D02*
X108705000Y-77080000D01*
X93185000Y-77080000D02*
X108705000Y-77080000D01*
X93000000Y-63000000D02*
X92500000Y-62500000D01*
X92500000Y-62500000D02*
X92500000Y-63500000D01*
X92500000Y-63500000D02*
X93000000Y-63000000D01*
X38415000Y-65885000D02*
X40700000Y-65885000D01*
X38415000Y-64415000D02*
X38415000Y-65885000D01*
X40700000Y-64415000D02*
X38415000Y-64415000D01*
D10*
X87559523Y-62952380D02*
X87226190Y-62476190D01*
X86988095Y-62952380D02*
X86988095Y-61952380D01*
X87369047Y-61952380D01*
X87464285Y-62000000D01*
X87511904Y-62047619D01*
X87559523Y-62142857D01*
X87559523Y-62285714D01*
X87511904Y-62380952D01*
X87464285Y-62428571D01*
X87369047Y-62476190D01*
X86988095Y-62476190D01*
X79821428Y-62428571D02*
X79964285Y-62476190D01*
X80011904Y-62523809D01*
X80059523Y-62619047D01*
X80059523Y-62761904D01*
X80011904Y-62857142D01*
X79964285Y-62904761D01*
X79869047Y-62952380D01*
X79488095Y-62952380D01*
X79488095Y-61952380D01*
X79821428Y-61952380D01*
X79916666Y-62000000D01*
X79964285Y-62047619D01*
X80011904Y-62142857D01*
X80011904Y-62238095D01*
X79964285Y-62333333D01*
X79916666Y-62380952D01*
X79821428Y-62428571D01*
X79488095Y-62428571D01*
X70559523Y-62862380D02*
X70226190Y-62386190D01*
X69988095Y-62862380D02*
X69988095Y-61862380D01*
X70369047Y-61862380D01*
X70464285Y-61910000D01*
X70511904Y-61957619D01*
X70559523Y-62052857D01*
X70559523Y-62195714D01*
X70511904Y-62290952D01*
X70464285Y-62338571D01*
X70369047Y-62386190D01*
X69988095Y-62386190D01*
X62821428Y-62338571D02*
X62964285Y-62386190D01*
X63011904Y-62433809D01*
X63059523Y-62529047D01*
X63059523Y-62671904D01*
X63011904Y-62767142D01*
X62964285Y-62814761D01*
X62869047Y-62862380D01*
X62488095Y-62862380D01*
X62488095Y-61862380D01*
X62821428Y-61862380D01*
X62916666Y-61910000D01*
X62964285Y-61957619D01*
X63011904Y-62052857D01*
X63011904Y-62148095D01*
X62964285Y-62243333D01*
X62916666Y-62290952D01*
X62821428Y-62338571D01*
X62488095Y-62338571D01*
M02*
