M48
; DRILL file {KiCad 5.1.10-88a1d61d58~88~ubuntu20.04.1} date Sat May 15 17:55:41 2021
; FORMAT={-:-/ absolute / inch / decimal}
; #@! TF.CreationDate,2021-05-15T17:55:41-06:00
; #@! TF.GenerationSoftware,Kicad,Pcbnew,5.1.10-88a1d61d58~88~ubuntu20.04.1
; #@! TF.FileFunction,Plated,1,2,PTH
FMAT,2
INCH
T1C0.0157
T2C0.0299
T3C0.0394
T4C0.0500
T5C0.1969
%
G90
G05
T1
X1.5157Y-3.0
X1.5236Y-2.6299
X1.5276Y-2.0236
X1.5394Y-2.4252
X1.565Y-2.2047
X1.6083Y-2.1004
X1.6083Y-2.3091
X1.7126Y-2.0571
X1.7126Y-2.3524
X1.8169Y-2.1004
X1.8169Y-2.3091
X1.8602Y-2.2047
X1.8976Y-2.6063
X2.0827Y-2.0118
X2.0866Y-3.0266
X2.4291Y-2.8346
X2.7441Y-2.0197
X2.7756Y-2.8346
X3.0906Y-2.7953
X3.1102Y-2.5591
X3.1496Y-2.9528
X3.3942Y-3.0034
X3.4291Y-2.9331
X3.4843Y-2.5276
X3.5413Y-2.061
X3.6417Y-2.3583
X3.689Y-2.8937
X3.9488Y-3.0079
X3.9606Y-2.8858
X4.2559Y-2.3701
X4.4724Y-2.9252
X4.5118Y-2.0315
X4.6102Y-2.6969
X4.7539Y-2.2047
X4.7677Y-2.8504
X4.7972Y-2.1004
X4.7972Y-2.3091
X4.8386Y-2.6614
X4.9016Y-2.0571
X4.9016Y-2.3524
X5.0059Y-2.1004
X5.0059Y-2.3091
X5.0492Y-2.2047
X5.0709Y-2.0315
X5.0827Y-2.5236
X5.0866Y-3.0079
T2
X3.7992Y-2.4803
X3.8492Y-2.3803
X3.8992Y-2.4803
X3.9492Y-2.3803
X3.9992Y-2.4803
X4.0492Y-2.3803
X4.0992Y-2.4803
X4.1492Y-2.3803
T3
X1.5717Y-2.815
X1.6717Y-2.815
X1.7717Y-2.815
X1.9654Y-2.815
X2.0654Y-2.815
X2.0669Y-2.3622
X2.0669Y-2.5591
X2.1654Y-2.815
X4.4457Y-2.8346
X4.5276Y-2.3819
X4.5276Y-2.5787
X4.5457Y-2.8346
X4.6457Y-2.8346
X4.8591Y-2.8346
X4.9591Y-2.8346
X5.0591Y-2.8346
T5
X1.7126Y-2.2047
X4.9016Y-2.2047
T4
G00X2.5406Y-2.3193
M15
G01X2.3846Y-2.3193
M16
G05
G00X2.8516Y-2.3193
M15
G01X2.6957Y-2.3193
M16
G05
G00X3.2098Y-2.3228
M15
G01X3.0539Y-2.3228
M16
G05
G00X3.5209Y-2.3228
M15
G01X3.365Y-2.3228
M16
G05
T0
M30
