G04 #@! TF.GenerationSoftware,KiCad,Pcbnew,5.1.5-52549c5~84~ubuntu18.04.1*
G04 #@! TF.CreationDate,2020-03-03T19:35:01-07:00*
G04 #@! TF.ProjectId,pole-node,706f6c65-2d6e-46f6-9465-2e6b69636164,rev?*
G04 #@! TF.SameCoordinates,Original*
G04 #@! TF.FileFunction,Copper,L2,Bot*
G04 #@! TF.FilePolarity,Positive*
%FSLAX46Y46*%
G04 Gerber Fmt 4.6, Leading zero omitted, Abs format (unit mm)*
G04 Created by KiCad (PCBNEW 5.1.5-52549c5~84~ubuntu18.04.1) date 2020-03-03 19:35:01*
%MOMM*%
%LPD*%
G04 APERTURE LIST*
%ADD10C,0.600000*%
%ADD11C,5.200000*%
%ADD12O,1.700000X1.700000*%
%ADD13R,1.700000X1.700000*%
%ADD14O,1.970000X5.930000*%
%ADD15C,1.500000*%
%ADD16R,1.500000X1.500000*%
%ADD17C,0.800000*%
%ADD18C,1.000000*%
%ADD19C,0.500000*%
%ADD20C,0.250000*%
%ADD21C,0.254000*%
G04 APERTURE END LIST*
D10*
X196650000Y-41150000D03*
X191350000Y-41150000D03*
X196650000Y-35850000D03*
X191350000Y-35850000D03*
X190250000Y-38500000D03*
X197750000Y-38500000D03*
X194000000Y-42250000D03*
X194000000Y-34750000D03*
D11*
X194000000Y-38500000D03*
D10*
X196650000Y-64150000D03*
X191350000Y-64150000D03*
X196650000Y-58850000D03*
X191350000Y-58850000D03*
X190250000Y-61500000D03*
X197750000Y-61500000D03*
X194000000Y-65250000D03*
X194000000Y-57750000D03*
D11*
X194000000Y-61500000D03*
D12*
X201750000Y-47330000D03*
X201750000Y-44790000D03*
D13*
X201750000Y-42250000D03*
D14*
X171500000Y-55050000D03*
X171500000Y-62950000D03*
D12*
X201750000Y-56080000D03*
X201750000Y-53540000D03*
D13*
X201750000Y-51000000D03*
D12*
X201750000Y-64830000D03*
X201750000Y-62290000D03*
D13*
X201750000Y-59750000D03*
D12*
X201750000Y-38540000D03*
D13*
X201750000Y-36000000D03*
D15*
X170040000Y-45890000D03*
X167500000Y-44620000D03*
X170040000Y-43350000D03*
X167500000Y-42080000D03*
X170040000Y-40810000D03*
X167500000Y-39540000D03*
X170040000Y-38270000D03*
D16*
X167500000Y-37000000D03*
D17*
X174000000Y-65500000D03*
X181500000Y-55000000D03*
X186000000Y-55000000D03*
X182750000Y-50500000D03*
X182750000Y-42805010D03*
X180000000Y-42805010D03*
X186750000Y-58749998D03*
X186750000Y-49750000D03*
X187000000Y-45750000D03*
D18*
X171500000Y-55050000D02*
X171500000Y-58000000D01*
X171500000Y-58000000D02*
X174000000Y-60500000D01*
X174000000Y-60500000D02*
X174000000Y-65500000D01*
X171500000Y-55050000D02*
X181450000Y-55050000D01*
X181450000Y-55050000D02*
X181500000Y-55000000D01*
X181500000Y-55000000D02*
X186000000Y-55000000D01*
D19*
X171500000Y-55050000D02*
X178200000Y-55050000D01*
X178200000Y-55050000D02*
X182750000Y-50500000D01*
X180000000Y-42805010D02*
X182750000Y-42805010D01*
D20*
X200650000Y-51000000D02*
X201750000Y-51000000D01*
X200574999Y-51075001D02*
X200650000Y-51000000D01*
X200574999Y-57474999D02*
X200574999Y-51075001D01*
X201750000Y-59750000D02*
X201750000Y-58650000D01*
X201750000Y-58650000D02*
X200574999Y-57474999D01*
X186750000Y-58749998D02*
X187149999Y-59149999D01*
X187149999Y-59149999D02*
X189350001Y-59149999D01*
X200900001Y-61440001D02*
X201750000Y-62290000D01*
X196584999Y-57124999D02*
X200900001Y-61440001D01*
X189350001Y-59149999D02*
X191375001Y-57124999D01*
X191375001Y-57124999D02*
X196584999Y-57124999D01*
X170040000Y-43350000D02*
X171750000Y-45060000D01*
X171750000Y-45060000D02*
X171750000Y-49250000D01*
X171750000Y-49250000D02*
X172250000Y-49750000D01*
X172250000Y-49750000D02*
X186750000Y-49750000D01*
X167500000Y-42080000D02*
X184330000Y-42080000D01*
X184330000Y-42080000D02*
X187000000Y-44750000D01*
X187000000Y-44750000D02*
X187000000Y-45750000D01*
D21*
G36*
X159725271Y-33993962D02*
G01*
X159413962Y-34305271D01*
X159169369Y-34671331D01*
X159000890Y-35078075D01*
X158915000Y-35509872D01*
X158915000Y-35950128D01*
X159000890Y-36381925D01*
X159169369Y-36788669D01*
X159413962Y-37154729D01*
X159725271Y-37466038D01*
X160091331Y-37710631D01*
X160498075Y-37879110D01*
X160929872Y-37965000D01*
X161370128Y-37965000D01*
X161801925Y-37879110D01*
X162208669Y-37710631D01*
X162574729Y-37466038D01*
X162886038Y-37154729D01*
X163130631Y-36788669D01*
X163299110Y-36381925D01*
X163325351Y-36250000D01*
X166111928Y-36250000D01*
X166111928Y-37750000D01*
X166124188Y-37874482D01*
X166160498Y-37994180D01*
X166219463Y-38104494D01*
X166298815Y-38201185D01*
X166395506Y-38280537D01*
X166505820Y-38339502D01*
X166625518Y-38375812D01*
X166750000Y-38388072D01*
X166776086Y-38388072D01*
X166722612Y-38583007D01*
X167500000Y-39360395D01*
X168277388Y-38583007D01*
X168223914Y-38388072D01*
X168250000Y-38388072D01*
X168374482Y-38375812D01*
X168494180Y-38339502D01*
X168604494Y-38280537D01*
X168655000Y-38239088D01*
X168655000Y-38406411D01*
X168708225Y-38673989D01*
X168812629Y-38926043D01*
X168964201Y-39152886D01*
X169157114Y-39345799D01*
X169383957Y-39497371D01*
X169483279Y-39538511D01*
X169441168Y-39553723D01*
X169328137Y-39614140D01*
X169262612Y-39853007D01*
X170040000Y-40630395D01*
X170817388Y-39853007D01*
X170751863Y-39614140D01*
X170593523Y-39539836D01*
X170696043Y-39497371D01*
X170922886Y-39345799D01*
X171115799Y-39152886D01*
X171267371Y-38926043D01*
X171371775Y-38673989D01*
X171425000Y-38406411D01*
X171425000Y-38133589D01*
X171371775Y-37866011D01*
X171267371Y-37613957D01*
X171115799Y-37387114D01*
X170922886Y-37194201D01*
X170696043Y-37042629D01*
X170443989Y-36938225D01*
X170176411Y-36885000D01*
X169903589Y-36885000D01*
X169636011Y-36938225D01*
X169383957Y-37042629D01*
X169157114Y-37194201D01*
X168964201Y-37387114D01*
X168888072Y-37501049D01*
X168888072Y-36250000D01*
X168875812Y-36125518D01*
X168839502Y-36005820D01*
X168780537Y-35895506D01*
X168701185Y-35798815D01*
X168604494Y-35719463D01*
X168494180Y-35660498D01*
X168374482Y-35624188D01*
X168250000Y-35611928D01*
X166750000Y-35611928D01*
X166625518Y-35624188D01*
X166505820Y-35660498D01*
X166395506Y-35719463D01*
X166298815Y-35798815D01*
X166219463Y-35895506D01*
X166160498Y-36005820D01*
X166124188Y-36125518D01*
X166111928Y-36250000D01*
X163325351Y-36250000D01*
X163385000Y-35950128D01*
X163385000Y-35509872D01*
X163299110Y-35078075D01*
X163130631Y-34671331D01*
X162886038Y-34305271D01*
X162574729Y-33993962D01*
X162449071Y-33910000D01*
X193584667Y-33910000D01*
X193557111Y-33921414D01*
X193403972Y-34023738D01*
X193273738Y-34153972D01*
X193171414Y-34307111D01*
X193100932Y-34477271D01*
X193065000Y-34657911D01*
X193065000Y-34842089D01*
X193100932Y-35022729D01*
X193171414Y-35192889D01*
X193273738Y-35346028D01*
X193273785Y-35346075D01*
X193056385Y-35389319D01*
X192467653Y-35633180D01*
X192284528Y-35755540D01*
X192249068Y-35577271D01*
X192178586Y-35407111D01*
X192076262Y-35253972D01*
X191946028Y-35123738D01*
X191792889Y-35021414D01*
X191622729Y-34950932D01*
X191442089Y-34915000D01*
X191257911Y-34915000D01*
X191077271Y-34950932D01*
X190907111Y-35021414D01*
X190753972Y-35123738D01*
X190623738Y-35253972D01*
X190521414Y-35407111D01*
X190450932Y-35577271D01*
X190415000Y-35757911D01*
X190415000Y-35942089D01*
X190450932Y-36122729D01*
X190521414Y-36292889D01*
X190623738Y-36446028D01*
X190753972Y-36576262D01*
X190907111Y-36678586D01*
X191077271Y-36749068D01*
X191255540Y-36784528D01*
X191133180Y-36967653D01*
X190889319Y-37556385D01*
X190846075Y-37773785D01*
X190846028Y-37773738D01*
X190692889Y-37671414D01*
X190522729Y-37600932D01*
X190342089Y-37565000D01*
X190157911Y-37565000D01*
X189977271Y-37600932D01*
X189807111Y-37671414D01*
X189653972Y-37773738D01*
X189523738Y-37903972D01*
X189421414Y-38057111D01*
X189350932Y-38227271D01*
X189315000Y-38407911D01*
X189315000Y-38592089D01*
X189350932Y-38772729D01*
X189421414Y-38942889D01*
X189523738Y-39096028D01*
X189653972Y-39226262D01*
X189807111Y-39328586D01*
X189977271Y-39399068D01*
X190157911Y-39435000D01*
X190342089Y-39435000D01*
X190522729Y-39399068D01*
X190692889Y-39328586D01*
X190846028Y-39226262D01*
X190846075Y-39226215D01*
X190889319Y-39443615D01*
X191133180Y-40032347D01*
X191255540Y-40215472D01*
X191077271Y-40250932D01*
X190907111Y-40321414D01*
X190753972Y-40423738D01*
X190623738Y-40553972D01*
X190521414Y-40707111D01*
X190450932Y-40877271D01*
X190415000Y-41057911D01*
X190415000Y-41242089D01*
X190450932Y-41422729D01*
X190521414Y-41592889D01*
X190623738Y-41746028D01*
X190753972Y-41876262D01*
X190907111Y-41978586D01*
X191077271Y-42049068D01*
X191257911Y-42085000D01*
X191442089Y-42085000D01*
X191622729Y-42049068D01*
X191792889Y-41978586D01*
X191946028Y-41876262D01*
X192076262Y-41746028D01*
X192178586Y-41592889D01*
X192249068Y-41422729D01*
X192284528Y-41244460D01*
X192467653Y-41366820D01*
X193056385Y-41610681D01*
X193273785Y-41653925D01*
X193273738Y-41653972D01*
X193171414Y-41807111D01*
X193100932Y-41977271D01*
X193065000Y-42157911D01*
X193065000Y-42342089D01*
X193100932Y-42522729D01*
X193171414Y-42692889D01*
X193273738Y-42846028D01*
X193403972Y-42976262D01*
X193557111Y-43078586D01*
X193727271Y-43149068D01*
X193907911Y-43185000D01*
X194092089Y-43185000D01*
X194272729Y-43149068D01*
X194442889Y-43078586D01*
X194596028Y-42976262D01*
X194726262Y-42846028D01*
X194828586Y-42692889D01*
X194899068Y-42522729D01*
X194935000Y-42342089D01*
X194935000Y-42157911D01*
X194899068Y-41977271D01*
X194828586Y-41807111D01*
X194726262Y-41653972D01*
X194726215Y-41653925D01*
X194943615Y-41610681D01*
X195532347Y-41366820D01*
X195715472Y-41244460D01*
X195750932Y-41422729D01*
X195821414Y-41592889D01*
X195923738Y-41746028D01*
X196053972Y-41876262D01*
X196207111Y-41978586D01*
X196377271Y-42049068D01*
X196557911Y-42085000D01*
X196742089Y-42085000D01*
X196922729Y-42049068D01*
X197092889Y-41978586D01*
X197246028Y-41876262D01*
X197376262Y-41746028D01*
X197478586Y-41592889D01*
X197549068Y-41422729D01*
X197553589Y-41400000D01*
X200261928Y-41400000D01*
X200265000Y-41964250D01*
X200423750Y-42123000D01*
X201623000Y-42123000D01*
X201623000Y-40923750D01*
X201464250Y-40765000D01*
X200900000Y-40761928D01*
X200775518Y-40774188D01*
X200655820Y-40810498D01*
X200545506Y-40869463D01*
X200448815Y-40948815D01*
X200369463Y-41045506D01*
X200310498Y-41155820D01*
X200274188Y-41275518D01*
X200261928Y-41400000D01*
X197553589Y-41400000D01*
X197585000Y-41242089D01*
X197585000Y-41057911D01*
X197549068Y-40877271D01*
X197478586Y-40707111D01*
X197376262Y-40553972D01*
X197246028Y-40423738D01*
X197092889Y-40321414D01*
X196922729Y-40250932D01*
X196744460Y-40215472D01*
X196866820Y-40032347D01*
X197110681Y-39443615D01*
X197153925Y-39226215D01*
X197153972Y-39226262D01*
X197307111Y-39328586D01*
X197477271Y-39399068D01*
X197657911Y-39435000D01*
X197842089Y-39435000D01*
X198022729Y-39399068D01*
X198192889Y-39328586D01*
X198346028Y-39226262D01*
X198476262Y-39096028D01*
X198578586Y-38942889D01*
X198649068Y-38772729D01*
X198685000Y-38592089D01*
X198685000Y-38407911D01*
X198649068Y-38227271D01*
X198578586Y-38057111D01*
X198476262Y-37903972D01*
X198346028Y-37773738D01*
X198192889Y-37671414D01*
X198022729Y-37600932D01*
X197842089Y-37565000D01*
X197657911Y-37565000D01*
X197477271Y-37600932D01*
X197307111Y-37671414D01*
X197153972Y-37773738D01*
X197153925Y-37773785D01*
X197110681Y-37556385D01*
X196866820Y-36967653D01*
X196744460Y-36784528D01*
X196922729Y-36749068D01*
X197092889Y-36678586D01*
X197246028Y-36576262D01*
X197376262Y-36446028D01*
X197478586Y-36292889D01*
X197549068Y-36122729D01*
X197585000Y-35942089D01*
X197585000Y-35757911D01*
X197549068Y-35577271D01*
X197478586Y-35407111D01*
X197376262Y-35253972D01*
X197272290Y-35150000D01*
X200261928Y-35150000D01*
X200265000Y-35714250D01*
X200423750Y-35873000D01*
X201623000Y-35873000D01*
X201623000Y-34673750D01*
X201464250Y-34515000D01*
X200900000Y-34511928D01*
X200775518Y-34524188D01*
X200655820Y-34560498D01*
X200545506Y-34619463D01*
X200448815Y-34698815D01*
X200369463Y-34795506D01*
X200310498Y-34905820D01*
X200274188Y-35025518D01*
X200261928Y-35150000D01*
X197272290Y-35150000D01*
X197246028Y-35123738D01*
X197092889Y-35021414D01*
X196922729Y-34950932D01*
X196742089Y-34915000D01*
X196557911Y-34915000D01*
X196377271Y-34950932D01*
X196207111Y-35021414D01*
X196053972Y-35123738D01*
X195923738Y-35253972D01*
X195821414Y-35407111D01*
X195750932Y-35577271D01*
X195715472Y-35755540D01*
X195532347Y-35633180D01*
X194943615Y-35389319D01*
X194726215Y-35346075D01*
X194726262Y-35346028D01*
X194828586Y-35192889D01*
X194899068Y-35022729D01*
X194935000Y-34842089D01*
X194935000Y-34657911D01*
X194899068Y-34477271D01*
X194828586Y-34307111D01*
X194726262Y-34153972D01*
X194596028Y-34023738D01*
X194442889Y-33921414D01*
X194415333Y-33910000D01*
X202840000Y-33910000D01*
X202840000Y-34559230D01*
X202724482Y-34524188D01*
X202600000Y-34511928D01*
X202035750Y-34515000D01*
X201877000Y-34673750D01*
X201877000Y-35873000D01*
X201897000Y-35873000D01*
X201897000Y-36127000D01*
X201877000Y-36127000D01*
X201877000Y-36147000D01*
X201623000Y-36147000D01*
X201623000Y-36127000D01*
X200423750Y-36127000D01*
X200265000Y-36285750D01*
X200261928Y-36850000D01*
X200274188Y-36974482D01*
X200310498Y-37094180D01*
X200369463Y-37204494D01*
X200448815Y-37301185D01*
X200545506Y-37380537D01*
X200655820Y-37439502D01*
X200728380Y-37461513D01*
X200596525Y-37593368D01*
X200434010Y-37836589D01*
X200322068Y-38106842D01*
X200265000Y-38393740D01*
X200265000Y-38686260D01*
X200322068Y-38973158D01*
X200434010Y-39243411D01*
X200596525Y-39486632D01*
X200803368Y-39693475D01*
X201046589Y-39855990D01*
X201316842Y-39967932D01*
X201603740Y-40025000D01*
X201896260Y-40025000D01*
X202183158Y-39967932D01*
X202453411Y-39855990D01*
X202696632Y-39693475D01*
X202840000Y-39550107D01*
X202840000Y-40809230D01*
X202724482Y-40774188D01*
X202600000Y-40761928D01*
X202035750Y-40765000D01*
X201877000Y-40923750D01*
X201877000Y-42123000D01*
X201897000Y-42123000D01*
X201897000Y-42377000D01*
X201877000Y-42377000D01*
X201877000Y-42397000D01*
X201623000Y-42397000D01*
X201623000Y-42377000D01*
X200423750Y-42377000D01*
X200265000Y-42535750D01*
X200261928Y-43100000D01*
X200274188Y-43224482D01*
X200310498Y-43344180D01*
X200369463Y-43454494D01*
X200448815Y-43551185D01*
X200545506Y-43630537D01*
X200655820Y-43689502D01*
X200728380Y-43711513D01*
X200596525Y-43843368D01*
X200434010Y-44086589D01*
X200322068Y-44356842D01*
X200265000Y-44643740D01*
X200265000Y-44936260D01*
X200322068Y-45223158D01*
X200434010Y-45493411D01*
X200596525Y-45736632D01*
X200803368Y-45943475D01*
X200977760Y-46060000D01*
X200803368Y-46176525D01*
X200596525Y-46383368D01*
X200434010Y-46626589D01*
X200322068Y-46896842D01*
X200265000Y-47183740D01*
X200265000Y-47476260D01*
X200322068Y-47763158D01*
X200434010Y-48033411D01*
X200596525Y-48276632D01*
X200803368Y-48483475D01*
X201046589Y-48645990D01*
X201316842Y-48757932D01*
X201603740Y-48815000D01*
X201896260Y-48815000D01*
X202183158Y-48757932D01*
X202453411Y-48645990D01*
X202696632Y-48483475D01*
X202840000Y-48340107D01*
X202840000Y-49559230D01*
X202724482Y-49524188D01*
X202600000Y-49511928D01*
X202035750Y-49515000D01*
X201877000Y-49673750D01*
X201877000Y-50873000D01*
X201897000Y-50873000D01*
X201897000Y-51127000D01*
X201877000Y-51127000D01*
X201877000Y-51147000D01*
X201623000Y-51147000D01*
X201623000Y-51127000D01*
X200423750Y-51127000D01*
X200265000Y-51285750D01*
X200261928Y-51850000D01*
X200274188Y-51974482D01*
X200310498Y-52094180D01*
X200369463Y-52204494D01*
X200448815Y-52301185D01*
X200545506Y-52380537D01*
X200655820Y-52439502D01*
X200728380Y-52461513D01*
X200596525Y-52593368D01*
X200434010Y-52836589D01*
X200322068Y-53106842D01*
X200265000Y-53393740D01*
X200265000Y-53686260D01*
X200322068Y-53973158D01*
X200434010Y-54243411D01*
X200596525Y-54486632D01*
X200803368Y-54693475D01*
X200977760Y-54810000D01*
X200803368Y-54926525D01*
X200596525Y-55133368D01*
X200434010Y-55376589D01*
X200322068Y-55646842D01*
X200265000Y-55933740D01*
X200265000Y-56226260D01*
X200322068Y-56513158D01*
X200434010Y-56783411D01*
X200596525Y-57026632D01*
X200803368Y-57233475D01*
X201046589Y-57395990D01*
X201316842Y-57507932D01*
X201603740Y-57565000D01*
X201896260Y-57565000D01*
X202183158Y-57507932D01*
X202453411Y-57395990D01*
X202696632Y-57233475D01*
X202840001Y-57090106D01*
X202840001Y-58309230D01*
X202724482Y-58274188D01*
X202600000Y-58261928D01*
X202035750Y-58265000D01*
X201877000Y-58423750D01*
X201877000Y-59623000D01*
X201897000Y-59623000D01*
X201897000Y-59877000D01*
X201877000Y-59877000D01*
X201877000Y-59897000D01*
X201623000Y-59897000D01*
X201623000Y-59877000D01*
X201603000Y-59877000D01*
X201603000Y-59623000D01*
X201623000Y-59623000D01*
X201623000Y-58423750D01*
X201464250Y-58265000D01*
X200900000Y-58261928D01*
X200775518Y-58274188D01*
X200655820Y-58310498D01*
X200545506Y-58369463D01*
X200448815Y-58448815D01*
X200369463Y-58545506D01*
X200310498Y-58655820D01*
X200274188Y-58775518D01*
X200261928Y-58900000D01*
X200265000Y-59464250D01*
X200423748Y-59622998D01*
X200265000Y-59622998D01*
X200265000Y-59730198D01*
X197148803Y-56614002D01*
X197125000Y-56584998D01*
X197009275Y-56490025D01*
X196877246Y-56419453D01*
X196733985Y-56375996D01*
X196622332Y-56364999D01*
X196622321Y-56364999D01*
X196584999Y-56361323D01*
X196547677Y-56364999D01*
X191412323Y-56364999D01*
X191375000Y-56361323D01*
X191337677Y-56364999D01*
X191337668Y-56364999D01*
X191226015Y-56375996D01*
X191082754Y-56419453D01*
X190950725Y-56490025D01*
X190950723Y-56490026D01*
X190950724Y-56490026D01*
X190863997Y-56561200D01*
X190863993Y-56561204D01*
X190835000Y-56584998D01*
X190811206Y-56613991D01*
X189035200Y-58389999D01*
X187721160Y-58389999D01*
X187667205Y-58259742D01*
X187553937Y-58090224D01*
X187409774Y-57946061D01*
X187240256Y-57832793D01*
X187051898Y-57754772D01*
X186851939Y-57714998D01*
X186648061Y-57714998D01*
X186448102Y-57754772D01*
X186259744Y-57832793D01*
X186090226Y-57946061D01*
X185946063Y-58090224D01*
X185832795Y-58259742D01*
X185754774Y-58448100D01*
X185715000Y-58648059D01*
X185715000Y-58851937D01*
X185754774Y-59051896D01*
X185832795Y-59240254D01*
X185946063Y-59409772D01*
X186090226Y-59553935D01*
X186259744Y-59667203D01*
X186448102Y-59745224D01*
X186648061Y-59784998D01*
X186725770Y-59784998D01*
X186857752Y-59855545D01*
X187001013Y-59899002D01*
X187112666Y-59909999D01*
X187112673Y-59909999D01*
X187149996Y-59913675D01*
X187187319Y-59909999D01*
X189312679Y-59909999D01*
X189350001Y-59913675D01*
X189387323Y-59909999D01*
X189387334Y-59909999D01*
X189498987Y-59899002D01*
X189642248Y-59855545D01*
X189774277Y-59784973D01*
X189890002Y-59690000D01*
X189913805Y-59660997D01*
X190451266Y-59123536D01*
X190521414Y-59292889D01*
X190623738Y-59446028D01*
X190753972Y-59576262D01*
X190907111Y-59678586D01*
X191077271Y-59749068D01*
X191255540Y-59784528D01*
X191133180Y-59967653D01*
X190889319Y-60556385D01*
X190846075Y-60773785D01*
X190846028Y-60773738D01*
X190692889Y-60671414D01*
X190522729Y-60600932D01*
X190342089Y-60565000D01*
X190157911Y-60565000D01*
X189977271Y-60600932D01*
X189807111Y-60671414D01*
X189653972Y-60773738D01*
X189523738Y-60903972D01*
X189421414Y-61057111D01*
X189350932Y-61227271D01*
X189315000Y-61407911D01*
X189315000Y-61592089D01*
X189350932Y-61772729D01*
X189421414Y-61942889D01*
X189523738Y-62096028D01*
X189653972Y-62226262D01*
X189807111Y-62328586D01*
X189977271Y-62399068D01*
X190157911Y-62435000D01*
X190342089Y-62435000D01*
X190522729Y-62399068D01*
X190692889Y-62328586D01*
X190846028Y-62226262D01*
X190846075Y-62226215D01*
X190889319Y-62443615D01*
X191133180Y-63032347D01*
X191255540Y-63215472D01*
X191077271Y-63250932D01*
X190907111Y-63321414D01*
X190753972Y-63423738D01*
X190623738Y-63553972D01*
X190521414Y-63707111D01*
X190450932Y-63877271D01*
X190415000Y-64057911D01*
X190415000Y-64242089D01*
X190450932Y-64422729D01*
X190521414Y-64592889D01*
X190623738Y-64746028D01*
X190753972Y-64876262D01*
X190907111Y-64978586D01*
X191077271Y-65049068D01*
X191257911Y-65085000D01*
X191442089Y-65085000D01*
X191622729Y-65049068D01*
X191792889Y-64978586D01*
X191946028Y-64876262D01*
X192076262Y-64746028D01*
X192178586Y-64592889D01*
X192249068Y-64422729D01*
X192284528Y-64244460D01*
X192467653Y-64366820D01*
X193056385Y-64610681D01*
X193273785Y-64653925D01*
X193273738Y-64653972D01*
X193171414Y-64807111D01*
X193100932Y-64977271D01*
X193065000Y-65157911D01*
X193065000Y-65342089D01*
X193100932Y-65522729D01*
X193171414Y-65692889D01*
X193273738Y-65846028D01*
X193403972Y-65976262D01*
X193557111Y-66078586D01*
X193584667Y-66090000D01*
X172640156Y-66090000D01*
X172651055Y-66081055D01*
X172853498Y-65834378D01*
X173003926Y-65552947D01*
X173096560Y-65247575D01*
X173120000Y-65009582D01*
X173120000Y-60890418D01*
X173096560Y-60652425D01*
X173003926Y-60347053D01*
X172853498Y-60065622D01*
X172651055Y-59818945D01*
X172404377Y-59616502D01*
X172122946Y-59466074D01*
X171817574Y-59373440D01*
X171500000Y-59342162D01*
X171182425Y-59373440D01*
X170877053Y-59466074D01*
X170595622Y-59616502D01*
X170348945Y-59818945D01*
X170146502Y-60065623D01*
X169996074Y-60347054D01*
X169903440Y-60652426D01*
X169880000Y-60890419D01*
X169880001Y-65009582D01*
X169903441Y-65247575D01*
X169996075Y-65552947D01*
X170146503Y-65834378D01*
X170348946Y-66081055D01*
X170359845Y-66090000D01*
X153660000Y-66090000D01*
X153660000Y-55177000D01*
X169880000Y-55177000D01*
X169880000Y-57157000D01*
X169935904Y-57470606D01*
X170051916Y-57767280D01*
X170223577Y-58035621D01*
X170444290Y-58265316D01*
X170705573Y-58447539D01*
X170997386Y-58575286D01*
X171121920Y-58605263D01*
X171373000Y-58485721D01*
X171373000Y-55177000D01*
X171627000Y-55177000D01*
X171627000Y-58485721D01*
X171878080Y-58605263D01*
X172002614Y-58575286D01*
X172294427Y-58447539D01*
X172555710Y-58265316D01*
X172776423Y-58035621D01*
X172948084Y-57767280D01*
X173064096Y-57470606D01*
X173120000Y-57157000D01*
X173120000Y-55177000D01*
X171627000Y-55177000D01*
X171373000Y-55177000D01*
X169880000Y-55177000D01*
X153660000Y-55177000D01*
X153660000Y-52943000D01*
X169880000Y-52943000D01*
X169880000Y-54923000D01*
X171373000Y-54923000D01*
X171373000Y-51614279D01*
X171627000Y-51614279D01*
X171627000Y-54923000D01*
X173120000Y-54923000D01*
X173120000Y-52943000D01*
X173064096Y-52629394D01*
X172948084Y-52332720D01*
X172776423Y-52064379D01*
X172555710Y-51834684D01*
X172294427Y-51652461D01*
X172002614Y-51524714D01*
X171878080Y-51494737D01*
X171627000Y-51614279D01*
X171373000Y-51614279D01*
X171121920Y-51494737D01*
X170997386Y-51524714D01*
X170705573Y-51652461D01*
X170444290Y-51834684D01*
X170223577Y-52064379D01*
X170051916Y-52332720D01*
X169935904Y-52629394D01*
X169880000Y-52943000D01*
X153660000Y-52943000D01*
X153660000Y-46939872D01*
X158915000Y-46939872D01*
X158915000Y-47380128D01*
X159000890Y-47811925D01*
X159169369Y-48218669D01*
X159413962Y-48584729D01*
X159725271Y-48896038D01*
X160091331Y-49140631D01*
X160498075Y-49309110D01*
X160929872Y-49395000D01*
X161370128Y-49395000D01*
X161801925Y-49309110D01*
X162208669Y-49140631D01*
X162574729Y-48896038D01*
X162886038Y-48584729D01*
X163130631Y-48218669D01*
X163299110Y-47811925D01*
X163385000Y-47380128D01*
X163385000Y-46939872D01*
X163299110Y-46508075D01*
X163130631Y-46101331D01*
X162886038Y-45735271D01*
X162574729Y-45423962D01*
X162208669Y-45179369D01*
X161801925Y-45010890D01*
X161370128Y-44925000D01*
X160929872Y-44925000D01*
X160498075Y-45010890D01*
X160091331Y-45179369D01*
X159725271Y-45423962D01*
X159413962Y-45735271D01*
X159169369Y-46101331D01*
X159000890Y-46508075D01*
X158915000Y-46939872D01*
X153660000Y-46939872D01*
X153660000Y-41943589D01*
X166115000Y-41943589D01*
X166115000Y-42216411D01*
X166168225Y-42483989D01*
X166272629Y-42736043D01*
X166424201Y-42962886D01*
X166617114Y-43155799D01*
X166843957Y-43307371D01*
X166946873Y-43350000D01*
X166843957Y-43392629D01*
X166617114Y-43544201D01*
X166424201Y-43737114D01*
X166272629Y-43963957D01*
X166168225Y-44216011D01*
X166115000Y-44483589D01*
X166115000Y-44756411D01*
X166168225Y-45023989D01*
X166272629Y-45276043D01*
X166424201Y-45502886D01*
X166617114Y-45695799D01*
X166843957Y-45847371D01*
X167096011Y-45951775D01*
X167363589Y-46005000D01*
X167636411Y-46005000D01*
X167903989Y-45951775D01*
X168156043Y-45847371D01*
X168382886Y-45695799D01*
X168575799Y-45502886D01*
X168727371Y-45276043D01*
X168831775Y-45023989D01*
X168885000Y-44756411D01*
X168885000Y-44483589D01*
X168831775Y-44216011D01*
X168727371Y-43963957D01*
X168575799Y-43737114D01*
X168382886Y-43544201D01*
X168156043Y-43392629D01*
X168053127Y-43350000D01*
X168156043Y-43307371D01*
X168382886Y-43155799D01*
X168575799Y-42962886D01*
X168657909Y-42840000D01*
X168752136Y-42840000D01*
X168708225Y-42946011D01*
X168655000Y-43213589D01*
X168655000Y-43486411D01*
X168708225Y-43753989D01*
X168812629Y-44006043D01*
X168964201Y-44232886D01*
X169157114Y-44425799D01*
X169383957Y-44577371D01*
X169486873Y-44620000D01*
X169383957Y-44662629D01*
X169157114Y-44814201D01*
X168964201Y-45007114D01*
X168812629Y-45233957D01*
X168708225Y-45486011D01*
X168655000Y-45753589D01*
X168655000Y-46026411D01*
X168708225Y-46293989D01*
X168812629Y-46546043D01*
X168964201Y-46772886D01*
X169157114Y-46965799D01*
X169383957Y-47117371D01*
X169636011Y-47221775D01*
X169903589Y-47275000D01*
X170176411Y-47275000D01*
X170443989Y-47221775D01*
X170696043Y-47117371D01*
X170922886Y-46965799D01*
X170990000Y-46898685D01*
X170990001Y-49212668D01*
X170986324Y-49250000D01*
X170990001Y-49287333D01*
X171000606Y-49395000D01*
X171000998Y-49398985D01*
X171044454Y-49542246D01*
X171115026Y-49674276D01*
X171177172Y-49750000D01*
X171210000Y-49790001D01*
X171238998Y-49813799D01*
X171686196Y-50260997D01*
X171709999Y-50290001D01*
X171825724Y-50384974D01*
X171957753Y-50455546D01*
X172101014Y-50499003D01*
X172212667Y-50510000D01*
X172212675Y-50510000D01*
X172250000Y-50513676D01*
X172287325Y-50510000D01*
X186046289Y-50510000D01*
X186090226Y-50553937D01*
X186259744Y-50667205D01*
X186448102Y-50745226D01*
X186648061Y-50785000D01*
X186851939Y-50785000D01*
X187051898Y-50745226D01*
X187240256Y-50667205D01*
X187409774Y-50553937D01*
X187553937Y-50409774D01*
X187667205Y-50240256D01*
X187704590Y-50150000D01*
X200261928Y-50150000D01*
X200265000Y-50714250D01*
X200423750Y-50873000D01*
X201623000Y-50873000D01*
X201623000Y-49673750D01*
X201464250Y-49515000D01*
X200900000Y-49511928D01*
X200775518Y-49524188D01*
X200655820Y-49560498D01*
X200545506Y-49619463D01*
X200448815Y-49698815D01*
X200369463Y-49795506D01*
X200310498Y-49905820D01*
X200274188Y-50025518D01*
X200261928Y-50150000D01*
X187704590Y-50150000D01*
X187745226Y-50051898D01*
X187785000Y-49851939D01*
X187785000Y-49648061D01*
X187745226Y-49448102D01*
X187667205Y-49259744D01*
X187553937Y-49090226D01*
X187409774Y-48946063D01*
X187240256Y-48832795D01*
X187051898Y-48754774D01*
X186851939Y-48715000D01*
X186648061Y-48715000D01*
X186448102Y-48754774D01*
X186259744Y-48832795D01*
X186090226Y-48946063D01*
X186046289Y-48990000D01*
X172564801Y-48990000D01*
X172510000Y-48935199D01*
X172510000Y-45097322D01*
X172513676Y-45059999D01*
X172510000Y-45022676D01*
X172510000Y-45022667D01*
X172499003Y-44911014D01*
X172455546Y-44767753D01*
X172384974Y-44635724D01*
X172290001Y-44519999D01*
X172261004Y-44496202D01*
X171396167Y-43631365D01*
X171425000Y-43486411D01*
X171425000Y-43213589D01*
X171371775Y-42946011D01*
X171327864Y-42840000D01*
X184015199Y-42840000D01*
X186230744Y-45055545D01*
X186196063Y-45090226D01*
X186082795Y-45259744D01*
X186004774Y-45448102D01*
X185965000Y-45648061D01*
X185965000Y-45851939D01*
X186004774Y-46051898D01*
X186082795Y-46240256D01*
X186196063Y-46409774D01*
X186340226Y-46553937D01*
X186509744Y-46667205D01*
X186698102Y-46745226D01*
X186898061Y-46785000D01*
X187101939Y-46785000D01*
X187301898Y-46745226D01*
X187490256Y-46667205D01*
X187659774Y-46553937D01*
X187803937Y-46409774D01*
X187917205Y-46240256D01*
X187995226Y-46051898D01*
X188035000Y-45851939D01*
X188035000Y-45648061D01*
X187995226Y-45448102D01*
X187917205Y-45259744D01*
X187803937Y-45090226D01*
X187760000Y-45046289D01*
X187760000Y-44787322D01*
X187763676Y-44749999D01*
X187760000Y-44712676D01*
X187760000Y-44712667D01*
X187749003Y-44601014D01*
X187705546Y-44457753D01*
X187634974Y-44325724D01*
X187540001Y-44209999D01*
X187511004Y-44186202D01*
X184893804Y-41569003D01*
X184870001Y-41539999D01*
X184754276Y-41445026D01*
X184622247Y-41374454D01*
X184478986Y-41330997D01*
X184367333Y-41320000D01*
X184367322Y-41320000D01*
X184330000Y-41316324D01*
X184292678Y-41320000D01*
X171330588Y-41320000D01*
X171351760Y-41274884D01*
X171417250Y-41010040D01*
X171429812Y-40737508D01*
X171388965Y-40467762D01*
X171296277Y-40211168D01*
X171235860Y-40098137D01*
X170996993Y-40032612D01*
X170219605Y-40810000D01*
X170233748Y-40824143D01*
X170054143Y-41003748D01*
X170040000Y-40989605D01*
X170025858Y-41003748D01*
X169846253Y-40824143D01*
X169860395Y-40810000D01*
X169083007Y-40032612D01*
X168844140Y-40098137D01*
X168728240Y-40345116D01*
X168662750Y-40609960D01*
X168650188Y-40882492D01*
X168691035Y-41152238D01*
X168751635Y-41320000D01*
X168657909Y-41320000D01*
X168575799Y-41197114D01*
X168382886Y-41004201D01*
X168156043Y-40852629D01*
X168056721Y-40811489D01*
X168098832Y-40796277D01*
X168211863Y-40735860D01*
X168277388Y-40496993D01*
X167500000Y-39719605D01*
X166722612Y-40496993D01*
X166788137Y-40735860D01*
X166946477Y-40810164D01*
X166843957Y-40852629D01*
X166617114Y-41004201D01*
X166424201Y-41197114D01*
X166272629Y-41423957D01*
X166168225Y-41676011D01*
X166115000Y-41943589D01*
X153660000Y-41943589D01*
X153660000Y-39612492D01*
X166110188Y-39612492D01*
X166151035Y-39882238D01*
X166243723Y-40138832D01*
X166304140Y-40251863D01*
X166543007Y-40317388D01*
X167320395Y-39540000D01*
X167679605Y-39540000D01*
X168456993Y-40317388D01*
X168695860Y-40251863D01*
X168811760Y-40004884D01*
X168877250Y-39740040D01*
X168889812Y-39467508D01*
X168848965Y-39197762D01*
X168756277Y-38941168D01*
X168695860Y-38828137D01*
X168456993Y-38762612D01*
X167679605Y-39540000D01*
X167320395Y-39540000D01*
X166543007Y-38762612D01*
X166304140Y-38828137D01*
X166188240Y-39075116D01*
X166122750Y-39339960D01*
X166110188Y-39612492D01*
X153660000Y-39612492D01*
X153660000Y-33910000D01*
X159850929Y-33910000D01*
X159725271Y-33993962D01*
G37*
X159725271Y-33993962D02*
X159413962Y-34305271D01*
X159169369Y-34671331D01*
X159000890Y-35078075D01*
X158915000Y-35509872D01*
X158915000Y-35950128D01*
X159000890Y-36381925D01*
X159169369Y-36788669D01*
X159413962Y-37154729D01*
X159725271Y-37466038D01*
X160091331Y-37710631D01*
X160498075Y-37879110D01*
X160929872Y-37965000D01*
X161370128Y-37965000D01*
X161801925Y-37879110D01*
X162208669Y-37710631D01*
X162574729Y-37466038D01*
X162886038Y-37154729D01*
X163130631Y-36788669D01*
X163299110Y-36381925D01*
X163325351Y-36250000D01*
X166111928Y-36250000D01*
X166111928Y-37750000D01*
X166124188Y-37874482D01*
X166160498Y-37994180D01*
X166219463Y-38104494D01*
X166298815Y-38201185D01*
X166395506Y-38280537D01*
X166505820Y-38339502D01*
X166625518Y-38375812D01*
X166750000Y-38388072D01*
X166776086Y-38388072D01*
X166722612Y-38583007D01*
X167500000Y-39360395D01*
X168277388Y-38583007D01*
X168223914Y-38388072D01*
X168250000Y-38388072D01*
X168374482Y-38375812D01*
X168494180Y-38339502D01*
X168604494Y-38280537D01*
X168655000Y-38239088D01*
X168655000Y-38406411D01*
X168708225Y-38673989D01*
X168812629Y-38926043D01*
X168964201Y-39152886D01*
X169157114Y-39345799D01*
X169383957Y-39497371D01*
X169483279Y-39538511D01*
X169441168Y-39553723D01*
X169328137Y-39614140D01*
X169262612Y-39853007D01*
X170040000Y-40630395D01*
X170817388Y-39853007D01*
X170751863Y-39614140D01*
X170593523Y-39539836D01*
X170696043Y-39497371D01*
X170922886Y-39345799D01*
X171115799Y-39152886D01*
X171267371Y-38926043D01*
X171371775Y-38673989D01*
X171425000Y-38406411D01*
X171425000Y-38133589D01*
X171371775Y-37866011D01*
X171267371Y-37613957D01*
X171115799Y-37387114D01*
X170922886Y-37194201D01*
X170696043Y-37042629D01*
X170443989Y-36938225D01*
X170176411Y-36885000D01*
X169903589Y-36885000D01*
X169636011Y-36938225D01*
X169383957Y-37042629D01*
X169157114Y-37194201D01*
X168964201Y-37387114D01*
X168888072Y-37501049D01*
X168888072Y-36250000D01*
X168875812Y-36125518D01*
X168839502Y-36005820D01*
X168780537Y-35895506D01*
X168701185Y-35798815D01*
X168604494Y-35719463D01*
X168494180Y-35660498D01*
X168374482Y-35624188D01*
X168250000Y-35611928D01*
X166750000Y-35611928D01*
X166625518Y-35624188D01*
X166505820Y-35660498D01*
X166395506Y-35719463D01*
X166298815Y-35798815D01*
X166219463Y-35895506D01*
X166160498Y-36005820D01*
X166124188Y-36125518D01*
X166111928Y-36250000D01*
X163325351Y-36250000D01*
X163385000Y-35950128D01*
X163385000Y-35509872D01*
X163299110Y-35078075D01*
X163130631Y-34671331D01*
X162886038Y-34305271D01*
X162574729Y-33993962D01*
X162449071Y-33910000D01*
X193584667Y-33910000D01*
X193557111Y-33921414D01*
X193403972Y-34023738D01*
X193273738Y-34153972D01*
X193171414Y-34307111D01*
X193100932Y-34477271D01*
X193065000Y-34657911D01*
X193065000Y-34842089D01*
X193100932Y-35022729D01*
X193171414Y-35192889D01*
X193273738Y-35346028D01*
X193273785Y-35346075D01*
X193056385Y-35389319D01*
X192467653Y-35633180D01*
X192284528Y-35755540D01*
X192249068Y-35577271D01*
X192178586Y-35407111D01*
X192076262Y-35253972D01*
X191946028Y-35123738D01*
X191792889Y-35021414D01*
X191622729Y-34950932D01*
X191442089Y-34915000D01*
X191257911Y-34915000D01*
X191077271Y-34950932D01*
X190907111Y-35021414D01*
X190753972Y-35123738D01*
X190623738Y-35253972D01*
X190521414Y-35407111D01*
X190450932Y-35577271D01*
X190415000Y-35757911D01*
X190415000Y-35942089D01*
X190450932Y-36122729D01*
X190521414Y-36292889D01*
X190623738Y-36446028D01*
X190753972Y-36576262D01*
X190907111Y-36678586D01*
X191077271Y-36749068D01*
X191255540Y-36784528D01*
X191133180Y-36967653D01*
X190889319Y-37556385D01*
X190846075Y-37773785D01*
X190846028Y-37773738D01*
X190692889Y-37671414D01*
X190522729Y-37600932D01*
X190342089Y-37565000D01*
X190157911Y-37565000D01*
X189977271Y-37600932D01*
X189807111Y-37671414D01*
X189653972Y-37773738D01*
X189523738Y-37903972D01*
X189421414Y-38057111D01*
X189350932Y-38227271D01*
X189315000Y-38407911D01*
X189315000Y-38592089D01*
X189350932Y-38772729D01*
X189421414Y-38942889D01*
X189523738Y-39096028D01*
X189653972Y-39226262D01*
X189807111Y-39328586D01*
X189977271Y-39399068D01*
X190157911Y-39435000D01*
X190342089Y-39435000D01*
X190522729Y-39399068D01*
X190692889Y-39328586D01*
X190846028Y-39226262D01*
X190846075Y-39226215D01*
X190889319Y-39443615D01*
X191133180Y-40032347D01*
X191255540Y-40215472D01*
X191077271Y-40250932D01*
X190907111Y-40321414D01*
X190753972Y-40423738D01*
X190623738Y-40553972D01*
X190521414Y-40707111D01*
X190450932Y-40877271D01*
X190415000Y-41057911D01*
X190415000Y-41242089D01*
X190450932Y-41422729D01*
X190521414Y-41592889D01*
X190623738Y-41746028D01*
X190753972Y-41876262D01*
X190907111Y-41978586D01*
X191077271Y-42049068D01*
X191257911Y-42085000D01*
X191442089Y-42085000D01*
X191622729Y-42049068D01*
X191792889Y-41978586D01*
X191946028Y-41876262D01*
X192076262Y-41746028D01*
X192178586Y-41592889D01*
X192249068Y-41422729D01*
X192284528Y-41244460D01*
X192467653Y-41366820D01*
X193056385Y-41610681D01*
X193273785Y-41653925D01*
X193273738Y-41653972D01*
X193171414Y-41807111D01*
X193100932Y-41977271D01*
X193065000Y-42157911D01*
X193065000Y-42342089D01*
X193100932Y-42522729D01*
X193171414Y-42692889D01*
X193273738Y-42846028D01*
X193403972Y-42976262D01*
X193557111Y-43078586D01*
X193727271Y-43149068D01*
X193907911Y-43185000D01*
X194092089Y-43185000D01*
X194272729Y-43149068D01*
X194442889Y-43078586D01*
X194596028Y-42976262D01*
X194726262Y-42846028D01*
X194828586Y-42692889D01*
X194899068Y-42522729D01*
X194935000Y-42342089D01*
X194935000Y-42157911D01*
X194899068Y-41977271D01*
X194828586Y-41807111D01*
X194726262Y-41653972D01*
X194726215Y-41653925D01*
X194943615Y-41610681D01*
X195532347Y-41366820D01*
X195715472Y-41244460D01*
X195750932Y-41422729D01*
X195821414Y-41592889D01*
X195923738Y-41746028D01*
X196053972Y-41876262D01*
X196207111Y-41978586D01*
X196377271Y-42049068D01*
X196557911Y-42085000D01*
X196742089Y-42085000D01*
X196922729Y-42049068D01*
X197092889Y-41978586D01*
X197246028Y-41876262D01*
X197376262Y-41746028D01*
X197478586Y-41592889D01*
X197549068Y-41422729D01*
X197553589Y-41400000D01*
X200261928Y-41400000D01*
X200265000Y-41964250D01*
X200423750Y-42123000D01*
X201623000Y-42123000D01*
X201623000Y-40923750D01*
X201464250Y-40765000D01*
X200900000Y-40761928D01*
X200775518Y-40774188D01*
X200655820Y-40810498D01*
X200545506Y-40869463D01*
X200448815Y-40948815D01*
X200369463Y-41045506D01*
X200310498Y-41155820D01*
X200274188Y-41275518D01*
X200261928Y-41400000D01*
X197553589Y-41400000D01*
X197585000Y-41242089D01*
X197585000Y-41057911D01*
X197549068Y-40877271D01*
X197478586Y-40707111D01*
X197376262Y-40553972D01*
X197246028Y-40423738D01*
X197092889Y-40321414D01*
X196922729Y-40250932D01*
X196744460Y-40215472D01*
X196866820Y-40032347D01*
X197110681Y-39443615D01*
X197153925Y-39226215D01*
X197153972Y-39226262D01*
X197307111Y-39328586D01*
X197477271Y-39399068D01*
X197657911Y-39435000D01*
X197842089Y-39435000D01*
X198022729Y-39399068D01*
X198192889Y-39328586D01*
X198346028Y-39226262D01*
X198476262Y-39096028D01*
X198578586Y-38942889D01*
X198649068Y-38772729D01*
X198685000Y-38592089D01*
X198685000Y-38407911D01*
X198649068Y-38227271D01*
X198578586Y-38057111D01*
X198476262Y-37903972D01*
X198346028Y-37773738D01*
X198192889Y-37671414D01*
X198022729Y-37600932D01*
X197842089Y-37565000D01*
X197657911Y-37565000D01*
X197477271Y-37600932D01*
X197307111Y-37671414D01*
X197153972Y-37773738D01*
X197153925Y-37773785D01*
X197110681Y-37556385D01*
X196866820Y-36967653D01*
X196744460Y-36784528D01*
X196922729Y-36749068D01*
X197092889Y-36678586D01*
X197246028Y-36576262D01*
X197376262Y-36446028D01*
X197478586Y-36292889D01*
X197549068Y-36122729D01*
X197585000Y-35942089D01*
X197585000Y-35757911D01*
X197549068Y-35577271D01*
X197478586Y-35407111D01*
X197376262Y-35253972D01*
X197272290Y-35150000D01*
X200261928Y-35150000D01*
X200265000Y-35714250D01*
X200423750Y-35873000D01*
X201623000Y-35873000D01*
X201623000Y-34673750D01*
X201464250Y-34515000D01*
X200900000Y-34511928D01*
X200775518Y-34524188D01*
X200655820Y-34560498D01*
X200545506Y-34619463D01*
X200448815Y-34698815D01*
X200369463Y-34795506D01*
X200310498Y-34905820D01*
X200274188Y-35025518D01*
X200261928Y-35150000D01*
X197272290Y-35150000D01*
X197246028Y-35123738D01*
X197092889Y-35021414D01*
X196922729Y-34950932D01*
X196742089Y-34915000D01*
X196557911Y-34915000D01*
X196377271Y-34950932D01*
X196207111Y-35021414D01*
X196053972Y-35123738D01*
X195923738Y-35253972D01*
X195821414Y-35407111D01*
X195750932Y-35577271D01*
X195715472Y-35755540D01*
X195532347Y-35633180D01*
X194943615Y-35389319D01*
X194726215Y-35346075D01*
X194726262Y-35346028D01*
X194828586Y-35192889D01*
X194899068Y-35022729D01*
X194935000Y-34842089D01*
X194935000Y-34657911D01*
X194899068Y-34477271D01*
X194828586Y-34307111D01*
X194726262Y-34153972D01*
X194596028Y-34023738D01*
X194442889Y-33921414D01*
X194415333Y-33910000D01*
X202840000Y-33910000D01*
X202840000Y-34559230D01*
X202724482Y-34524188D01*
X202600000Y-34511928D01*
X202035750Y-34515000D01*
X201877000Y-34673750D01*
X201877000Y-35873000D01*
X201897000Y-35873000D01*
X201897000Y-36127000D01*
X201877000Y-36127000D01*
X201877000Y-36147000D01*
X201623000Y-36147000D01*
X201623000Y-36127000D01*
X200423750Y-36127000D01*
X200265000Y-36285750D01*
X200261928Y-36850000D01*
X200274188Y-36974482D01*
X200310498Y-37094180D01*
X200369463Y-37204494D01*
X200448815Y-37301185D01*
X200545506Y-37380537D01*
X200655820Y-37439502D01*
X200728380Y-37461513D01*
X200596525Y-37593368D01*
X200434010Y-37836589D01*
X200322068Y-38106842D01*
X200265000Y-38393740D01*
X200265000Y-38686260D01*
X200322068Y-38973158D01*
X200434010Y-39243411D01*
X200596525Y-39486632D01*
X200803368Y-39693475D01*
X201046589Y-39855990D01*
X201316842Y-39967932D01*
X201603740Y-40025000D01*
X201896260Y-40025000D01*
X202183158Y-39967932D01*
X202453411Y-39855990D01*
X202696632Y-39693475D01*
X202840000Y-39550107D01*
X202840000Y-40809230D01*
X202724482Y-40774188D01*
X202600000Y-40761928D01*
X202035750Y-40765000D01*
X201877000Y-40923750D01*
X201877000Y-42123000D01*
X201897000Y-42123000D01*
X201897000Y-42377000D01*
X201877000Y-42377000D01*
X201877000Y-42397000D01*
X201623000Y-42397000D01*
X201623000Y-42377000D01*
X200423750Y-42377000D01*
X200265000Y-42535750D01*
X200261928Y-43100000D01*
X200274188Y-43224482D01*
X200310498Y-43344180D01*
X200369463Y-43454494D01*
X200448815Y-43551185D01*
X200545506Y-43630537D01*
X200655820Y-43689502D01*
X200728380Y-43711513D01*
X200596525Y-43843368D01*
X200434010Y-44086589D01*
X200322068Y-44356842D01*
X200265000Y-44643740D01*
X200265000Y-44936260D01*
X200322068Y-45223158D01*
X200434010Y-45493411D01*
X200596525Y-45736632D01*
X200803368Y-45943475D01*
X200977760Y-46060000D01*
X200803368Y-46176525D01*
X200596525Y-46383368D01*
X200434010Y-46626589D01*
X200322068Y-46896842D01*
X200265000Y-47183740D01*
X200265000Y-47476260D01*
X200322068Y-47763158D01*
X200434010Y-48033411D01*
X200596525Y-48276632D01*
X200803368Y-48483475D01*
X201046589Y-48645990D01*
X201316842Y-48757932D01*
X201603740Y-48815000D01*
X201896260Y-48815000D01*
X202183158Y-48757932D01*
X202453411Y-48645990D01*
X202696632Y-48483475D01*
X202840000Y-48340107D01*
X202840000Y-49559230D01*
X202724482Y-49524188D01*
X202600000Y-49511928D01*
X202035750Y-49515000D01*
X201877000Y-49673750D01*
X201877000Y-50873000D01*
X201897000Y-50873000D01*
X201897000Y-51127000D01*
X201877000Y-51127000D01*
X201877000Y-51147000D01*
X201623000Y-51147000D01*
X201623000Y-51127000D01*
X200423750Y-51127000D01*
X200265000Y-51285750D01*
X200261928Y-51850000D01*
X200274188Y-51974482D01*
X200310498Y-52094180D01*
X200369463Y-52204494D01*
X200448815Y-52301185D01*
X200545506Y-52380537D01*
X200655820Y-52439502D01*
X200728380Y-52461513D01*
X200596525Y-52593368D01*
X200434010Y-52836589D01*
X200322068Y-53106842D01*
X200265000Y-53393740D01*
X200265000Y-53686260D01*
X200322068Y-53973158D01*
X200434010Y-54243411D01*
X200596525Y-54486632D01*
X200803368Y-54693475D01*
X200977760Y-54810000D01*
X200803368Y-54926525D01*
X200596525Y-55133368D01*
X200434010Y-55376589D01*
X200322068Y-55646842D01*
X200265000Y-55933740D01*
X200265000Y-56226260D01*
X200322068Y-56513158D01*
X200434010Y-56783411D01*
X200596525Y-57026632D01*
X200803368Y-57233475D01*
X201046589Y-57395990D01*
X201316842Y-57507932D01*
X201603740Y-57565000D01*
X201896260Y-57565000D01*
X202183158Y-57507932D01*
X202453411Y-57395990D01*
X202696632Y-57233475D01*
X202840001Y-57090106D01*
X202840001Y-58309230D01*
X202724482Y-58274188D01*
X202600000Y-58261928D01*
X202035750Y-58265000D01*
X201877000Y-58423750D01*
X201877000Y-59623000D01*
X201897000Y-59623000D01*
X201897000Y-59877000D01*
X201877000Y-59877000D01*
X201877000Y-59897000D01*
X201623000Y-59897000D01*
X201623000Y-59877000D01*
X201603000Y-59877000D01*
X201603000Y-59623000D01*
X201623000Y-59623000D01*
X201623000Y-58423750D01*
X201464250Y-58265000D01*
X200900000Y-58261928D01*
X200775518Y-58274188D01*
X200655820Y-58310498D01*
X200545506Y-58369463D01*
X200448815Y-58448815D01*
X200369463Y-58545506D01*
X200310498Y-58655820D01*
X200274188Y-58775518D01*
X200261928Y-58900000D01*
X200265000Y-59464250D01*
X200423748Y-59622998D01*
X200265000Y-59622998D01*
X200265000Y-59730198D01*
X197148803Y-56614002D01*
X197125000Y-56584998D01*
X197009275Y-56490025D01*
X196877246Y-56419453D01*
X196733985Y-56375996D01*
X196622332Y-56364999D01*
X196622321Y-56364999D01*
X196584999Y-56361323D01*
X196547677Y-56364999D01*
X191412323Y-56364999D01*
X191375000Y-56361323D01*
X191337677Y-56364999D01*
X191337668Y-56364999D01*
X191226015Y-56375996D01*
X191082754Y-56419453D01*
X190950725Y-56490025D01*
X190950723Y-56490026D01*
X190950724Y-56490026D01*
X190863997Y-56561200D01*
X190863993Y-56561204D01*
X190835000Y-56584998D01*
X190811206Y-56613991D01*
X189035200Y-58389999D01*
X187721160Y-58389999D01*
X187667205Y-58259742D01*
X187553937Y-58090224D01*
X187409774Y-57946061D01*
X187240256Y-57832793D01*
X187051898Y-57754772D01*
X186851939Y-57714998D01*
X186648061Y-57714998D01*
X186448102Y-57754772D01*
X186259744Y-57832793D01*
X186090226Y-57946061D01*
X185946063Y-58090224D01*
X185832795Y-58259742D01*
X185754774Y-58448100D01*
X185715000Y-58648059D01*
X185715000Y-58851937D01*
X185754774Y-59051896D01*
X185832795Y-59240254D01*
X185946063Y-59409772D01*
X186090226Y-59553935D01*
X186259744Y-59667203D01*
X186448102Y-59745224D01*
X186648061Y-59784998D01*
X186725770Y-59784998D01*
X186857752Y-59855545D01*
X187001013Y-59899002D01*
X187112666Y-59909999D01*
X187112673Y-59909999D01*
X187149996Y-59913675D01*
X187187319Y-59909999D01*
X189312679Y-59909999D01*
X189350001Y-59913675D01*
X189387323Y-59909999D01*
X189387334Y-59909999D01*
X189498987Y-59899002D01*
X189642248Y-59855545D01*
X189774277Y-59784973D01*
X189890002Y-59690000D01*
X189913805Y-59660997D01*
X190451266Y-59123536D01*
X190521414Y-59292889D01*
X190623738Y-59446028D01*
X190753972Y-59576262D01*
X190907111Y-59678586D01*
X191077271Y-59749068D01*
X191255540Y-59784528D01*
X191133180Y-59967653D01*
X190889319Y-60556385D01*
X190846075Y-60773785D01*
X190846028Y-60773738D01*
X190692889Y-60671414D01*
X190522729Y-60600932D01*
X190342089Y-60565000D01*
X190157911Y-60565000D01*
X189977271Y-60600932D01*
X189807111Y-60671414D01*
X189653972Y-60773738D01*
X189523738Y-60903972D01*
X189421414Y-61057111D01*
X189350932Y-61227271D01*
X189315000Y-61407911D01*
X189315000Y-61592089D01*
X189350932Y-61772729D01*
X189421414Y-61942889D01*
X189523738Y-62096028D01*
X189653972Y-62226262D01*
X189807111Y-62328586D01*
X189977271Y-62399068D01*
X190157911Y-62435000D01*
X190342089Y-62435000D01*
X190522729Y-62399068D01*
X190692889Y-62328586D01*
X190846028Y-62226262D01*
X190846075Y-62226215D01*
X190889319Y-62443615D01*
X191133180Y-63032347D01*
X191255540Y-63215472D01*
X191077271Y-63250932D01*
X190907111Y-63321414D01*
X190753972Y-63423738D01*
X190623738Y-63553972D01*
X190521414Y-63707111D01*
X190450932Y-63877271D01*
X190415000Y-64057911D01*
X190415000Y-64242089D01*
X190450932Y-64422729D01*
X190521414Y-64592889D01*
X190623738Y-64746028D01*
X190753972Y-64876262D01*
X190907111Y-64978586D01*
X191077271Y-65049068D01*
X191257911Y-65085000D01*
X191442089Y-65085000D01*
X191622729Y-65049068D01*
X191792889Y-64978586D01*
X191946028Y-64876262D01*
X192076262Y-64746028D01*
X192178586Y-64592889D01*
X192249068Y-64422729D01*
X192284528Y-64244460D01*
X192467653Y-64366820D01*
X193056385Y-64610681D01*
X193273785Y-64653925D01*
X193273738Y-64653972D01*
X193171414Y-64807111D01*
X193100932Y-64977271D01*
X193065000Y-65157911D01*
X193065000Y-65342089D01*
X193100932Y-65522729D01*
X193171414Y-65692889D01*
X193273738Y-65846028D01*
X193403972Y-65976262D01*
X193557111Y-66078586D01*
X193584667Y-66090000D01*
X172640156Y-66090000D01*
X172651055Y-66081055D01*
X172853498Y-65834378D01*
X173003926Y-65552947D01*
X173096560Y-65247575D01*
X173120000Y-65009582D01*
X173120000Y-60890418D01*
X173096560Y-60652425D01*
X173003926Y-60347053D01*
X172853498Y-60065622D01*
X172651055Y-59818945D01*
X172404377Y-59616502D01*
X172122946Y-59466074D01*
X171817574Y-59373440D01*
X171500000Y-59342162D01*
X171182425Y-59373440D01*
X170877053Y-59466074D01*
X170595622Y-59616502D01*
X170348945Y-59818945D01*
X170146502Y-60065623D01*
X169996074Y-60347054D01*
X169903440Y-60652426D01*
X169880000Y-60890419D01*
X169880001Y-65009582D01*
X169903441Y-65247575D01*
X169996075Y-65552947D01*
X170146503Y-65834378D01*
X170348946Y-66081055D01*
X170359845Y-66090000D01*
X153660000Y-66090000D01*
X153660000Y-55177000D01*
X169880000Y-55177000D01*
X169880000Y-57157000D01*
X169935904Y-57470606D01*
X170051916Y-57767280D01*
X170223577Y-58035621D01*
X170444290Y-58265316D01*
X170705573Y-58447539D01*
X170997386Y-58575286D01*
X171121920Y-58605263D01*
X171373000Y-58485721D01*
X171373000Y-55177000D01*
X171627000Y-55177000D01*
X171627000Y-58485721D01*
X171878080Y-58605263D01*
X172002614Y-58575286D01*
X172294427Y-58447539D01*
X172555710Y-58265316D01*
X172776423Y-58035621D01*
X172948084Y-57767280D01*
X173064096Y-57470606D01*
X173120000Y-57157000D01*
X173120000Y-55177000D01*
X171627000Y-55177000D01*
X171373000Y-55177000D01*
X169880000Y-55177000D01*
X153660000Y-55177000D01*
X153660000Y-52943000D01*
X169880000Y-52943000D01*
X169880000Y-54923000D01*
X171373000Y-54923000D01*
X171373000Y-51614279D01*
X171627000Y-51614279D01*
X171627000Y-54923000D01*
X173120000Y-54923000D01*
X173120000Y-52943000D01*
X173064096Y-52629394D01*
X172948084Y-52332720D01*
X172776423Y-52064379D01*
X172555710Y-51834684D01*
X172294427Y-51652461D01*
X172002614Y-51524714D01*
X171878080Y-51494737D01*
X171627000Y-51614279D01*
X171373000Y-51614279D01*
X171121920Y-51494737D01*
X170997386Y-51524714D01*
X170705573Y-51652461D01*
X170444290Y-51834684D01*
X170223577Y-52064379D01*
X170051916Y-52332720D01*
X169935904Y-52629394D01*
X169880000Y-52943000D01*
X153660000Y-52943000D01*
X153660000Y-46939872D01*
X158915000Y-46939872D01*
X158915000Y-47380128D01*
X159000890Y-47811925D01*
X159169369Y-48218669D01*
X159413962Y-48584729D01*
X159725271Y-48896038D01*
X160091331Y-49140631D01*
X160498075Y-49309110D01*
X160929872Y-49395000D01*
X161370128Y-49395000D01*
X161801925Y-49309110D01*
X162208669Y-49140631D01*
X162574729Y-48896038D01*
X162886038Y-48584729D01*
X163130631Y-48218669D01*
X163299110Y-47811925D01*
X163385000Y-47380128D01*
X163385000Y-46939872D01*
X163299110Y-46508075D01*
X163130631Y-46101331D01*
X162886038Y-45735271D01*
X162574729Y-45423962D01*
X162208669Y-45179369D01*
X161801925Y-45010890D01*
X161370128Y-44925000D01*
X160929872Y-44925000D01*
X160498075Y-45010890D01*
X160091331Y-45179369D01*
X159725271Y-45423962D01*
X159413962Y-45735271D01*
X159169369Y-46101331D01*
X159000890Y-46508075D01*
X158915000Y-46939872D01*
X153660000Y-46939872D01*
X153660000Y-41943589D01*
X166115000Y-41943589D01*
X166115000Y-42216411D01*
X166168225Y-42483989D01*
X166272629Y-42736043D01*
X166424201Y-42962886D01*
X166617114Y-43155799D01*
X166843957Y-43307371D01*
X166946873Y-43350000D01*
X166843957Y-43392629D01*
X166617114Y-43544201D01*
X166424201Y-43737114D01*
X166272629Y-43963957D01*
X166168225Y-44216011D01*
X166115000Y-44483589D01*
X166115000Y-44756411D01*
X166168225Y-45023989D01*
X166272629Y-45276043D01*
X166424201Y-45502886D01*
X166617114Y-45695799D01*
X166843957Y-45847371D01*
X167096011Y-45951775D01*
X167363589Y-46005000D01*
X167636411Y-46005000D01*
X167903989Y-45951775D01*
X168156043Y-45847371D01*
X168382886Y-45695799D01*
X168575799Y-45502886D01*
X168727371Y-45276043D01*
X168831775Y-45023989D01*
X168885000Y-44756411D01*
X168885000Y-44483589D01*
X168831775Y-44216011D01*
X168727371Y-43963957D01*
X168575799Y-43737114D01*
X168382886Y-43544201D01*
X168156043Y-43392629D01*
X168053127Y-43350000D01*
X168156043Y-43307371D01*
X168382886Y-43155799D01*
X168575799Y-42962886D01*
X168657909Y-42840000D01*
X168752136Y-42840000D01*
X168708225Y-42946011D01*
X168655000Y-43213589D01*
X168655000Y-43486411D01*
X168708225Y-43753989D01*
X168812629Y-44006043D01*
X168964201Y-44232886D01*
X169157114Y-44425799D01*
X169383957Y-44577371D01*
X169486873Y-44620000D01*
X169383957Y-44662629D01*
X169157114Y-44814201D01*
X168964201Y-45007114D01*
X168812629Y-45233957D01*
X168708225Y-45486011D01*
X168655000Y-45753589D01*
X168655000Y-46026411D01*
X168708225Y-46293989D01*
X168812629Y-46546043D01*
X168964201Y-46772886D01*
X169157114Y-46965799D01*
X169383957Y-47117371D01*
X169636011Y-47221775D01*
X169903589Y-47275000D01*
X170176411Y-47275000D01*
X170443989Y-47221775D01*
X170696043Y-47117371D01*
X170922886Y-46965799D01*
X170990000Y-46898685D01*
X170990001Y-49212668D01*
X170986324Y-49250000D01*
X170990001Y-49287333D01*
X171000606Y-49395000D01*
X171000998Y-49398985D01*
X171044454Y-49542246D01*
X171115026Y-49674276D01*
X171177172Y-49750000D01*
X171210000Y-49790001D01*
X171238998Y-49813799D01*
X171686196Y-50260997D01*
X171709999Y-50290001D01*
X171825724Y-50384974D01*
X171957753Y-50455546D01*
X172101014Y-50499003D01*
X172212667Y-50510000D01*
X172212675Y-50510000D01*
X172250000Y-50513676D01*
X172287325Y-50510000D01*
X186046289Y-50510000D01*
X186090226Y-50553937D01*
X186259744Y-50667205D01*
X186448102Y-50745226D01*
X186648061Y-50785000D01*
X186851939Y-50785000D01*
X187051898Y-50745226D01*
X187240256Y-50667205D01*
X187409774Y-50553937D01*
X187553937Y-50409774D01*
X187667205Y-50240256D01*
X187704590Y-50150000D01*
X200261928Y-50150000D01*
X200265000Y-50714250D01*
X200423750Y-50873000D01*
X201623000Y-50873000D01*
X201623000Y-49673750D01*
X201464250Y-49515000D01*
X200900000Y-49511928D01*
X200775518Y-49524188D01*
X200655820Y-49560498D01*
X200545506Y-49619463D01*
X200448815Y-49698815D01*
X200369463Y-49795506D01*
X200310498Y-49905820D01*
X200274188Y-50025518D01*
X200261928Y-50150000D01*
X187704590Y-50150000D01*
X187745226Y-50051898D01*
X187785000Y-49851939D01*
X187785000Y-49648061D01*
X187745226Y-49448102D01*
X187667205Y-49259744D01*
X187553937Y-49090226D01*
X187409774Y-48946063D01*
X187240256Y-48832795D01*
X187051898Y-48754774D01*
X186851939Y-48715000D01*
X186648061Y-48715000D01*
X186448102Y-48754774D01*
X186259744Y-48832795D01*
X186090226Y-48946063D01*
X186046289Y-48990000D01*
X172564801Y-48990000D01*
X172510000Y-48935199D01*
X172510000Y-45097322D01*
X172513676Y-45059999D01*
X172510000Y-45022676D01*
X172510000Y-45022667D01*
X172499003Y-44911014D01*
X172455546Y-44767753D01*
X172384974Y-44635724D01*
X172290001Y-44519999D01*
X172261004Y-44496202D01*
X171396167Y-43631365D01*
X171425000Y-43486411D01*
X171425000Y-43213589D01*
X171371775Y-42946011D01*
X171327864Y-42840000D01*
X184015199Y-42840000D01*
X186230744Y-45055545D01*
X186196063Y-45090226D01*
X186082795Y-45259744D01*
X186004774Y-45448102D01*
X185965000Y-45648061D01*
X185965000Y-45851939D01*
X186004774Y-46051898D01*
X186082795Y-46240256D01*
X186196063Y-46409774D01*
X186340226Y-46553937D01*
X186509744Y-46667205D01*
X186698102Y-46745226D01*
X186898061Y-46785000D01*
X187101939Y-46785000D01*
X187301898Y-46745226D01*
X187490256Y-46667205D01*
X187659774Y-46553937D01*
X187803937Y-46409774D01*
X187917205Y-46240256D01*
X187995226Y-46051898D01*
X188035000Y-45851939D01*
X188035000Y-45648061D01*
X187995226Y-45448102D01*
X187917205Y-45259744D01*
X187803937Y-45090226D01*
X187760000Y-45046289D01*
X187760000Y-44787322D01*
X187763676Y-44749999D01*
X187760000Y-44712676D01*
X187760000Y-44712667D01*
X187749003Y-44601014D01*
X187705546Y-44457753D01*
X187634974Y-44325724D01*
X187540001Y-44209999D01*
X187511004Y-44186202D01*
X184893804Y-41569003D01*
X184870001Y-41539999D01*
X184754276Y-41445026D01*
X184622247Y-41374454D01*
X184478986Y-41330997D01*
X184367333Y-41320000D01*
X184367322Y-41320000D01*
X184330000Y-41316324D01*
X184292678Y-41320000D01*
X171330588Y-41320000D01*
X171351760Y-41274884D01*
X171417250Y-41010040D01*
X171429812Y-40737508D01*
X171388965Y-40467762D01*
X171296277Y-40211168D01*
X171235860Y-40098137D01*
X170996993Y-40032612D01*
X170219605Y-40810000D01*
X170233748Y-40824143D01*
X170054143Y-41003748D01*
X170040000Y-40989605D01*
X170025858Y-41003748D01*
X169846253Y-40824143D01*
X169860395Y-40810000D01*
X169083007Y-40032612D01*
X168844140Y-40098137D01*
X168728240Y-40345116D01*
X168662750Y-40609960D01*
X168650188Y-40882492D01*
X168691035Y-41152238D01*
X168751635Y-41320000D01*
X168657909Y-41320000D01*
X168575799Y-41197114D01*
X168382886Y-41004201D01*
X168156043Y-40852629D01*
X168056721Y-40811489D01*
X168098832Y-40796277D01*
X168211863Y-40735860D01*
X168277388Y-40496993D01*
X167500000Y-39719605D01*
X166722612Y-40496993D01*
X166788137Y-40735860D01*
X166946477Y-40810164D01*
X166843957Y-40852629D01*
X166617114Y-41004201D01*
X166424201Y-41197114D01*
X166272629Y-41423957D01*
X166168225Y-41676011D01*
X166115000Y-41943589D01*
X153660000Y-41943589D01*
X153660000Y-39612492D01*
X166110188Y-39612492D01*
X166151035Y-39882238D01*
X166243723Y-40138832D01*
X166304140Y-40251863D01*
X166543007Y-40317388D01*
X167320395Y-39540000D01*
X167679605Y-39540000D01*
X168456993Y-40317388D01*
X168695860Y-40251863D01*
X168811760Y-40004884D01*
X168877250Y-39740040D01*
X168889812Y-39467508D01*
X168848965Y-39197762D01*
X168756277Y-38941168D01*
X168695860Y-38828137D01*
X168456993Y-38762612D01*
X167679605Y-39540000D01*
X167320395Y-39540000D01*
X166543007Y-38762612D01*
X166304140Y-38828137D01*
X166188240Y-39075116D01*
X166122750Y-39339960D01*
X166110188Y-39612492D01*
X153660000Y-39612492D01*
X153660000Y-33910000D01*
X159850929Y-33910000D01*
X159725271Y-33993962D01*
M02*
