M48
; DRILL file {KiCad 7.0.2-6a45011f42~172~ubuntu22.04.1} date Tue 09 May 2023 09:59:07 PM MDT
; FORMAT={-:-/ absolute / metric / decimal}
; #@! TF.CreationDate,2023-05-09T21:59:07-06:00
; #@! TF.GenerationSoftware,Kicad,Pcbnew,7.0.2-6a45011f42~172~ubuntu22.04.1
; #@! TF.FileFunction,Plated,1,2,PTH
FMAT,2
METRIC
; #@! TA.AperFunction,Plated,PTH,ViaDrill
T1C0.400
; #@! TA.AperFunction,Plated,PTH,ComponentDrill
T2C0.400
; #@! TA.AperFunction,Plated,PTH,ComponentDrill
T3C0.760
; #@! TA.AperFunction,Plated,PTH,ComponentDrill
T4C1.000
; #@! TA.AperFunction,Plated,PTH,ComponentDrill
T5C1.270
; #@! TA.AperFunction,Plated,PTH,ComponentDrill
T6C5.000
%
G90
G05
T1
X38.5Y-76.2
X38.7Y-66.8
X38.8Y-51.4
X39.1Y-61.6
X42.9Y-75.5
X48.2Y-66.2
X52.7Y-74.9
X52.9Y-51.1
X60.1Y-71.1
X67.6Y-73.1
X69.7Y-51.3
X71.4Y-69.0
X74.5Y-73.6
X86.9Y-72.6
X87.272Y-74.175
X87.4Y-75.9
X89.7Y-64.6
X89.95Y-52.35
X91.0Y-67.7
X92.5Y-59.9
X93.7Y-73.5
X96.7Y-76.2
X100.3Y-76.4
X100.6Y-73.3
X101.4Y-72.1
X102.9Y-67.2
X102.9Y-70.3
X110.3Y-69.9
X111.5Y-67.1
X113.6Y-74.3
X114.6Y-51.6
X119.0Y-70.0
X121.2Y-72.9
X128.8Y-51.6
X129.1Y-64.1
X129.2Y-76.4
T2
X39.75Y-56.0
X40.85Y-53.35
X40.85Y-58.65
X43.5Y-52.25
X43.5Y-59.75
X46.15Y-53.35
X46.15Y-58.65
X47.25Y-56.0
X120.75Y-56.0
X121.85Y-53.35
X121.85Y-58.65
X124.5Y-52.25
X124.5Y-59.75
X127.15Y-53.35
X127.15Y-58.65
X128.25Y-56.0
T3
X96.5Y-63.0
X97.77Y-60.46
X99.04Y-63.0
X100.31Y-60.46
X101.58Y-63.0
X102.85Y-60.46
X104.12Y-63.0
X105.39Y-60.46
T4
X39.92Y-71.5
X42.46Y-71.5
X45.0Y-71.5
X49.92Y-71.5
X52.46Y-71.5
X52.5Y-60.0
X52.5Y-65.0
X55.0Y-71.5
X112.92Y-72.0
X115.0Y-60.5
X115.0Y-65.5
X115.46Y-72.0
X118.0Y-72.0
X123.42Y-72.0
X125.96Y-72.0
X128.5Y-72.0
T6
X43.5Y-56.0
X124.5Y-56.0
T5
X64.53Y-58.91G85X60.57Y-58.91
G05
X72.43Y-58.91G85X68.47Y-58.91
G05
X81.53Y-59.0G85X77.57Y-59.0
G05
X89.43Y-59.0G85X85.47Y-59.0
G05
T0
M30
