G04 #@! TF.GenerationSoftware,KiCad,Pcbnew,7.0.2-6a45011f42~172~ubuntu22.04.1*
G04 #@! TF.CreationDate,2023-05-09T21:58:52-06:00*
G04 #@! TF.ProjectId,pole-node,706f6c65-2d6e-46f6-9465-2e6b69636164,rev?*
G04 #@! TF.SameCoordinates,Original*
G04 #@! TF.FileFunction,Legend,Bot*
G04 #@! TF.FilePolarity,Positive*
%FSLAX46Y46*%
G04 Gerber Fmt 4.6, Leading zero omitted, Abs format (unit mm)*
G04 Created by KiCad (PCBNEW 7.0.2-6a45011f42~172~ubuntu22.04.1) date 2023-05-09 21:58:52*
%MOMM*%
%LPD*%
G01*
G04 APERTURE LIST*
G04 Aperture macros list*
%AMRoundRect*
0 Rectangle with rounded corners*
0 $1 Rounding radius*
0 $2 $3 $4 $5 $6 $7 $8 $9 X,Y pos of 4 corners*
0 Add a 4 corners polygon primitive as box body*
4,1,4,$2,$3,$4,$5,$6,$7,$8,$9,$2,$3,0*
0 Add four circle primitives for the rounded corners*
1,1,$1+$1,$2,$3*
1,1,$1+$1,$4,$5*
1,1,$1+$1,$6,$7*
1,1,$1+$1,$8,$9*
0 Add four rect primitives between the rounded corners*
20,1,$1+$1,$2,$3,$4,$5,0*
20,1,$1+$1,$4,$5,$6,$7,0*
20,1,$1+$1,$6,$7,$8,$9,0*
20,1,$1+$1,$8,$9,$2,$3,0*%
G04 Aperture macros list end*
%ADD10C,0.150000*%
%ADD11C,0.120000*%
%ADD12RoundRect,0.150000X0.150000X-0.650000X0.150000X0.650000X-0.150000X0.650000X-0.150000X-0.650000X0*%
%ADD13RoundRect,0.250000X-1.450000X0.312500X-1.450000X-0.312500X1.450000X-0.312500X1.450000X0.312500X0*%
%ADD14RoundRect,0.200000X0.200000X0.275000X-0.200000X0.275000X-0.200000X-0.275000X0.200000X-0.275000X0*%
%ADD15RoundRect,0.200000X0.275000X-0.200000X0.275000X0.200000X-0.275000X0.200000X-0.275000X-0.200000X0*%
%ADD16RoundRect,0.200000X-0.275000X0.200000X-0.275000X-0.200000X0.275000X-0.200000X0.275000X0.200000X0*%
%ADD17R,2.400000X3.500000*%
%ADD18RoundRect,0.250000X0.650000X-1.000000X0.650000X1.000000X-0.650000X1.000000X-0.650000X-1.000000X0*%
%ADD19RoundRect,0.140000X0.170000X-0.140000X0.170000X0.140000X-0.170000X0.140000X-0.170000X-0.140000X0*%
%ADD20RoundRect,0.140000X-0.140000X-0.170000X0.140000X-0.170000X0.140000X0.170000X-0.140000X0.170000X0*%
%ADD21RoundRect,0.250000X-0.475000X0.250000X-0.475000X-0.250000X0.475000X-0.250000X0.475000X0.250000X0*%
%ADD22R,2.000000X2.000000*%
%ADD23C,2.000000*%
%ADD24R,2.300000X2.500000*%
%ADD25R,2.500000X2.300000*%
%ADD26R,1.700000X1.700000*%
%ADD27O,1.700000X1.700000*%
%ADD28O,6.030000X2.070000*%
%ADD29C,5.200000*%
%ADD30RoundRect,0.150000X-0.825000X-0.150000X0.825000X-0.150000X0.825000X0.150000X-0.825000X0.150000X0*%
%ADD31RoundRect,0.218750X-0.218750X-0.256250X0.218750X-0.256250X0.218750X0.256250X-0.218750X0.256250X0*%
%ADD32RoundRect,0.218750X-0.256250X0.218750X-0.256250X-0.218750X0.256250X-0.218750X0.256250X0.218750X0*%
%ADD33RoundRect,0.218750X0.218750X0.256250X-0.218750X0.256250X-0.218750X-0.256250X0.218750X-0.256250X0*%
%ADD34C,3.200000*%
%ADD35R,1.500000X1.500000*%
%ADD36C,1.500000*%
%ADD37RoundRect,0.218750X0.256250X-0.218750X0.256250X0.218750X-0.256250X0.218750X-0.256250X-0.218750X0*%
%ADD38RoundRect,0.243750X0.456250X-0.243750X0.456250X0.243750X-0.456250X0.243750X-0.456250X-0.243750X0*%
G04 APERTURE END LIST*
D10*
X54738095Y-69310238D02*
X54833333Y-69262619D01*
X54833333Y-69262619D02*
X54976190Y-69262619D01*
X54976190Y-69262619D02*
X55119047Y-69310238D01*
X55119047Y-69310238D02*
X55214285Y-69405476D01*
X55214285Y-69405476D02*
X55261904Y-69500714D01*
X55261904Y-69500714D02*
X55309523Y-69691190D01*
X55309523Y-69691190D02*
X55309523Y-69834047D01*
X55309523Y-69834047D02*
X55261904Y-70024523D01*
X55261904Y-70024523D02*
X55214285Y-70119761D01*
X55214285Y-70119761D02*
X55119047Y-70215000D01*
X55119047Y-70215000D02*
X54976190Y-70262619D01*
X54976190Y-70262619D02*
X54880952Y-70262619D01*
X54880952Y-70262619D02*
X54738095Y-70215000D01*
X54738095Y-70215000D02*
X54690476Y-70167380D01*
X54690476Y-70167380D02*
X54690476Y-69834047D01*
X54690476Y-69834047D02*
X54880952Y-69834047D01*
X117738095Y-73610238D02*
X117833333Y-73562619D01*
X117833333Y-73562619D02*
X117976190Y-73562619D01*
X117976190Y-73562619D02*
X118119047Y-73610238D01*
X118119047Y-73610238D02*
X118214285Y-73705476D01*
X118214285Y-73705476D02*
X118261904Y-73800714D01*
X118261904Y-73800714D02*
X118309523Y-73991190D01*
X118309523Y-73991190D02*
X118309523Y-74134047D01*
X118309523Y-74134047D02*
X118261904Y-74324523D01*
X118261904Y-74324523D02*
X118214285Y-74419761D01*
X118214285Y-74419761D02*
X118119047Y-74515000D01*
X118119047Y-74515000D02*
X117976190Y-74562619D01*
X117976190Y-74562619D02*
X117880952Y-74562619D01*
X117880952Y-74562619D02*
X117738095Y-74515000D01*
X117738095Y-74515000D02*
X117690476Y-74467380D01*
X117690476Y-74467380D02*
X117690476Y-74134047D01*
X117690476Y-74134047D02*
X117880952Y-74134047D01*
X128338095Y-73710238D02*
X128433333Y-73662619D01*
X128433333Y-73662619D02*
X128576190Y-73662619D01*
X128576190Y-73662619D02*
X128719047Y-73710238D01*
X128719047Y-73710238D02*
X128814285Y-73805476D01*
X128814285Y-73805476D02*
X128861904Y-73900714D01*
X128861904Y-73900714D02*
X128909523Y-74091190D01*
X128909523Y-74091190D02*
X128909523Y-74234047D01*
X128909523Y-74234047D02*
X128861904Y-74424523D01*
X128861904Y-74424523D02*
X128814285Y-74519761D01*
X128814285Y-74519761D02*
X128719047Y-74615000D01*
X128719047Y-74615000D02*
X128576190Y-74662619D01*
X128576190Y-74662619D02*
X128480952Y-74662619D01*
X128480952Y-74662619D02*
X128338095Y-74615000D01*
X128338095Y-74615000D02*
X128290476Y-74567380D01*
X128290476Y-74567380D02*
X128290476Y-74234047D01*
X128290476Y-74234047D02*
X128480952Y-74234047D01*
X88071428Y-57462619D02*
X88642856Y-57462619D01*
X88357142Y-57462619D02*
X88357142Y-56462619D01*
X88357142Y-56462619D02*
X88452380Y-56605476D01*
X88452380Y-56605476D02*
X88547618Y-56700714D01*
X88547618Y-56700714D02*
X88642856Y-56748333D01*
X87690475Y-56557857D02*
X87642856Y-56510238D01*
X87642856Y-56510238D02*
X87547618Y-56462619D01*
X87547618Y-56462619D02*
X87309523Y-56462619D01*
X87309523Y-56462619D02*
X87214285Y-56510238D01*
X87214285Y-56510238D02*
X87166666Y-56557857D01*
X87166666Y-56557857D02*
X87119047Y-56653095D01*
X87119047Y-56653095D02*
X87119047Y-56748333D01*
X87119047Y-56748333D02*
X87166666Y-56891190D01*
X87166666Y-56891190D02*
X87738094Y-57462619D01*
X87738094Y-57462619D02*
X87119047Y-57462619D01*
X86785713Y-56795952D02*
X86547618Y-57462619D01*
X86547618Y-57462619D02*
X86309523Y-56795952D01*
X79238095Y-56610238D02*
X79333333Y-56562619D01*
X79333333Y-56562619D02*
X79476190Y-56562619D01*
X79476190Y-56562619D02*
X79619047Y-56610238D01*
X79619047Y-56610238D02*
X79714285Y-56705476D01*
X79714285Y-56705476D02*
X79761904Y-56800714D01*
X79761904Y-56800714D02*
X79809523Y-56991190D01*
X79809523Y-56991190D02*
X79809523Y-57134047D01*
X79809523Y-57134047D02*
X79761904Y-57324523D01*
X79761904Y-57324523D02*
X79714285Y-57419761D01*
X79714285Y-57419761D02*
X79619047Y-57515000D01*
X79619047Y-57515000D02*
X79476190Y-57562619D01*
X79476190Y-57562619D02*
X79380952Y-57562619D01*
X79380952Y-57562619D02*
X79238095Y-57515000D01*
X79238095Y-57515000D02*
X79190476Y-57467380D01*
X79190476Y-57467380D02*
X79190476Y-57134047D01*
X79190476Y-57134047D02*
X79380952Y-57134047D01*
X71071428Y-57462619D02*
X71642856Y-57462619D01*
X71357142Y-57462619D02*
X71357142Y-56462619D01*
X71357142Y-56462619D02*
X71452380Y-56605476D01*
X71452380Y-56605476D02*
X71547618Y-56700714D01*
X71547618Y-56700714D02*
X71642856Y-56748333D01*
X70690475Y-56557857D02*
X70642856Y-56510238D01*
X70642856Y-56510238D02*
X70547618Y-56462619D01*
X70547618Y-56462619D02*
X70309523Y-56462619D01*
X70309523Y-56462619D02*
X70214285Y-56510238D01*
X70214285Y-56510238D02*
X70166666Y-56557857D01*
X70166666Y-56557857D02*
X70119047Y-56653095D01*
X70119047Y-56653095D02*
X70119047Y-56748333D01*
X70119047Y-56748333D02*
X70166666Y-56891190D01*
X70166666Y-56891190D02*
X70738094Y-57462619D01*
X70738094Y-57462619D02*
X70119047Y-57462619D01*
X69785713Y-56795952D02*
X69547618Y-57462619D01*
X69547618Y-57462619D02*
X69309523Y-56795952D01*
X62338095Y-56510238D02*
X62433333Y-56462619D01*
X62433333Y-56462619D02*
X62576190Y-56462619D01*
X62576190Y-56462619D02*
X62719047Y-56510238D01*
X62719047Y-56510238D02*
X62814285Y-56605476D01*
X62814285Y-56605476D02*
X62861904Y-56700714D01*
X62861904Y-56700714D02*
X62909523Y-56891190D01*
X62909523Y-56891190D02*
X62909523Y-57034047D01*
X62909523Y-57034047D02*
X62861904Y-57224523D01*
X62861904Y-57224523D02*
X62814285Y-57319761D01*
X62814285Y-57319761D02*
X62719047Y-57415000D01*
X62719047Y-57415000D02*
X62576190Y-57462619D01*
X62576190Y-57462619D02*
X62480952Y-57462619D01*
X62480952Y-57462619D02*
X62338095Y-57415000D01*
X62338095Y-57415000D02*
X62290476Y-57367380D01*
X62290476Y-57367380D02*
X62290476Y-57034047D01*
X62290476Y-57034047D02*
X62480952Y-57034047D01*
X101885713Y-64257857D02*
X101838094Y-64210238D01*
X101838094Y-64210238D02*
X101742856Y-64162619D01*
X101742856Y-64162619D02*
X101504761Y-64162619D01*
X101504761Y-64162619D02*
X101409523Y-64210238D01*
X101409523Y-64210238D02*
X101361904Y-64257857D01*
X101361904Y-64257857D02*
X101314285Y-64353095D01*
X101314285Y-64353095D02*
X101314285Y-64448333D01*
X101314285Y-64448333D02*
X101361904Y-64591190D01*
X101361904Y-64591190D02*
X101933332Y-65162619D01*
X101933332Y-65162619D02*
X101314285Y-65162619D01*
X102514285Y-59362619D02*
X103085713Y-59362619D01*
X102799999Y-59362619D02*
X102799999Y-58362619D01*
X102799999Y-58362619D02*
X102895237Y-58505476D01*
X102895237Y-58505476D02*
X102990475Y-58600714D01*
X102990475Y-58600714D02*
X103085713Y-58648333D01*
X107442142Y-61285713D02*
X107489761Y-61238094D01*
X107489761Y-61238094D02*
X107537380Y-61142856D01*
X107537380Y-61142856D02*
X107537380Y-60904761D01*
X107537380Y-60904761D02*
X107489761Y-60809523D01*
X107489761Y-60809523D02*
X107442142Y-60761904D01*
X107442142Y-60761904D02*
X107346904Y-60714285D01*
X107346904Y-60714285D02*
X107251666Y-60714285D01*
X107251666Y-60714285D02*
X107108809Y-60761904D01*
X107108809Y-60761904D02*
X106537380Y-61333332D01*
X106537380Y-61333332D02*
X106537380Y-60714285D01*
X107061190Y-59952380D02*
X107013571Y-59809523D01*
X107013571Y-59809523D02*
X106965952Y-59761904D01*
X106965952Y-59761904D02*
X106870714Y-59714285D01*
X106870714Y-59714285D02*
X106727857Y-59714285D01*
X106727857Y-59714285D02*
X106632619Y-59761904D01*
X106632619Y-59761904D02*
X106585000Y-59809523D01*
X106585000Y-59809523D02*
X106537380Y-59904761D01*
X106537380Y-59904761D02*
X106537380Y-60285713D01*
X106537380Y-60285713D02*
X107537380Y-60285713D01*
X107537380Y-60285713D02*
X107537380Y-59952380D01*
X107537380Y-59952380D02*
X107489761Y-59857142D01*
X107489761Y-59857142D02*
X107442142Y-59809523D01*
X107442142Y-59809523D02*
X107346904Y-59761904D01*
X107346904Y-59761904D02*
X107251666Y-59761904D01*
X107251666Y-59761904D02*
X107156428Y-59809523D01*
X107156428Y-59809523D02*
X107108809Y-59857142D01*
X107108809Y-59857142D02*
X107061190Y-59952380D01*
X107061190Y-59952380D02*
X107061190Y-60285713D01*
X106242142Y-63714285D02*
X106289761Y-63666666D01*
X106289761Y-63666666D02*
X106337380Y-63571428D01*
X106337380Y-63571428D02*
X106337380Y-63333333D01*
X106337380Y-63333333D02*
X106289761Y-63238095D01*
X106289761Y-63238095D02*
X106242142Y-63190476D01*
X106242142Y-63190476D02*
X106146904Y-63142857D01*
X106146904Y-63142857D02*
X106051666Y-63142857D01*
X106051666Y-63142857D02*
X105908809Y-63190476D01*
X105908809Y-63190476D02*
X105337380Y-63761904D01*
X105337380Y-63761904D02*
X105337380Y-63142857D01*
X105623095Y-62761904D02*
X105623095Y-62285714D01*
X105337380Y-62857142D02*
X106337380Y-62523809D01*
X106337380Y-62523809D02*
X105337380Y-62190476D01*
X96662619Y-60285714D02*
X96662619Y-59714286D01*
X96662619Y-60000000D02*
X95662619Y-60000000D01*
X95662619Y-60000000D02*
X95805476Y-59904762D01*
X95805476Y-59904762D02*
X95900714Y-59809524D01*
X95900714Y-59809524D02*
X95948333Y-59714286D01*
X96138809Y-61047619D02*
X96186428Y-61190476D01*
X96186428Y-61190476D02*
X96234047Y-61238095D01*
X96234047Y-61238095D02*
X96329285Y-61285714D01*
X96329285Y-61285714D02*
X96472142Y-61285714D01*
X96472142Y-61285714D02*
X96567380Y-61238095D01*
X96567380Y-61238095D02*
X96615000Y-61190476D01*
X96615000Y-61190476D02*
X96662619Y-61095238D01*
X96662619Y-61095238D02*
X96662619Y-60714286D01*
X96662619Y-60714286D02*
X95662619Y-60714286D01*
X95662619Y-60714286D02*
X95662619Y-61047619D01*
X95662619Y-61047619D02*
X95710238Y-61142857D01*
X95710238Y-61142857D02*
X95757857Y-61190476D01*
X95757857Y-61190476D02*
X95853095Y-61238095D01*
X95853095Y-61238095D02*
X95948333Y-61238095D01*
X95948333Y-61238095D02*
X96043571Y-61190476D01*
X96043571Y-61190476D02*
X96091190Y-61142857D01*
X96091190Y-61142857D02*
X96138809Y-61047619D01*
X96138809Y-61047619D02*
X96138809Y-60714286D01*
X95362619Y-62757142D02*
X95362619Y-62185714D01*
X95362619Y-62471428D02*
X94362619Y-62471428D01*
X94362619Y-62471428D02*
X94505476Y-62376190D01*
X94505476Y-62376190D02*
X94600714Y-62280952D01*
X94600714Y-62280952D02*
X94648333Y-62185714D01*
X95076904Y-63138095D02*
X95076904Y-63614285D01*
X95362619Y-63042857D02*
X94362619Y-63376190D01*
X94362619Y-63376190D02*
X95362619Y-63709523D01*
X100038095Y-58410238D02*
X100133333Y-58362619D01*
X100133333Y-58362619D02*
X100276190Y-58362619D01*
X100276190Y-58362619D02*
X100419047Y-58410238D01*
X100419047Y-58410238D02*
X100514285Y-58505476D01*
X100514285Y-58505476D02*
X100561904Y-58600714D01*
X100561904Y-58600714D02*
X100609523Y-58791190D01*
X100609523Y-58791190D02*
X100609523Y-58934047D01*
X100609523Y-58934047D02*
X100561904Y-59124523D01*
X100561904Y-59124523D02*
X100514285Y-59219761D01*
X100514285Y-59219761D02*
X100419047Y-59315000D01*
X100419047Y-59315000D02*
X100276190Y-59362619D01*
X100276190Y-59362619D02*
X100180952Y-59362619D01*
X100180952Y-59362619D02*
X100038095Y-59315000D01*
X100038095Y-59315000D02*
X99990476Y-59267380D01*
X99990476Y-59267380D02*
X99990476Y-58934047D01*
X99990476Y-58934047D02*
X100180952Y-58934047D01*
X98838095Y-64210238D02*
X98933333Y-64162619D01*
X98933333Y-64162619D02*
X99076190Y-64162619D01*
X99076190Y-64162619D02*
X99219047Y-64210238D01*
X99219047Y-64210238D02*
X99314285Y-64305476D01*
X99314285Y-64305476D02*
X99361904Y-64400714D01*
X99361904Y-64400714D02*
X99409523Y-64591190D01*
X99409523Y-64591190D02*
X99409523Y-64734047D01*
X99409523Y-64734047D02*
X99361904Y-64924523D01*
X99361904Y-64924523D02*
X99314285Y-65019761D01*
X99314285Y-65019761D02*
X99219047Y-65115000D01*
X99219047Y-65115000D02*
X99076190Y-65162619D01*
X99076190Y-65162619D02*
X98980952Y-65162619D01*
X98980952Y-65162619D02*
X98838095Y-65115000D01*
X98838095Y-65115000D02*
X98790476Y-65067380D01*
X98790476Y-65067380D02*
X98790476Y-64734047D01*
X98790476Y-64734047D02*
X98980952Y-64734047D01*
D11*
X77925000Y-65400000D02*
X77925000Y-62675000D01*
X77925000Y-62675000D02*
X77665000Y-62675000D01*
X72475000Y-65400000D02*
X72475000Y-68125000D01*
X72475000Y-65400000D02*
X72475000Y-62675000D01*
X72475000Y-62675000D02*
X72735000Y-62675000D01*
X77925000Y-68125000D02*
X77665000Y-68125000D01*
X77925000Y-65400000D02*
X77925000Y-68125000D01*
X77665000Y-68125000D02*
X77665000Y-69800000D01*
X72475000Y-68125000D02*
X72735000Y-68125000D01*
X87890000Y-62251248D02*
X87890000Y-65023752D01*
X91310000Y-62251248D02*
X91310000Y-65023752D01*
X121112258Y-71122500D02*
X120637742Y-71122500D01*
X121112258Y-70077500D02*
X120637742Y-70077500D01*
X114912258Y-69822500D02*
X114437742Y-69822500D01*
X114912258Y-68777500D02*
X114437742Y-68777500D01*
X58322500Y-69037258D02*
X58322500Y-68562742D01*
X57277500Y-69037258D02*
X57277500Y-68562742D01*
X47522500Y-69862742D02*
X47522500Y-70337258D01*
X46477500Y-69862742D02*
X46477500Y-70337258D01*
D10*
X71900000Y-68300000D02*
X62300000Y-68300000D01*
X62300000Y-68300000D02*
X62300000Y-76900000D01*
X62300000Y-76900000D02*
X71900000Y-76900000D01*
X71900000Y-76900000D02*
X71900000Y-68300000D01*
D11*
X79250000Y-67710000D02*
X79250000Y-62200000D01*
X82550000Y-67710000D02*
X79250000Y-67710000D01*
X82550000Y-67710000D02*
X82550000Y-62200000D01*
X79650000Y-75010000D02*
X79650000Y-69500000D01*
X82950000Y-75010000D02*
X79650000Y-75010000D01*
X82950000Y-75010000D02*
X82950000Y-69500000D01*
X78240000Y-65507836D02*
X78240000Y-65292164D01*
X78960000Y-65507836D02*
X78960000Y-65292164D01*
X63740000Y-66507836D02*
X63740000Y-66292164D01*
X64460000Y-66507836D02*
X64460000Y-66292164D01*
X127012164Y-73640000D02*
X127227836Y-73640000D01*
X127012164Y-74360000D02*
X127227836Y-74360000D01*
X116412164Y-73640000D02*
X116627836Y-73640000D01*
X116412164Y-74360000D02*
X116627836Y-74360000D01*
X95140000Y-75607836D02*
X95140000Y-75392164D01*
X95860000Y-75607836D02*
X95860000Y-75392164D01*
X82340000Y-76107836D02*
X82340000Y-75892164D01*
X83060000Y-76107836D02*
X83060000Y-75892164D01*
X79135000Y-71638748D02*
X79135000Y-72161252D01*
X77665000Y-71638748D02*
X77665000Y-72161252D01*
X97150000Y-58050000D02*
X97150000Y-52350000D01*
X92850000Y-58050000D02*
X92850000Y-52350000D01*
X97150000Y-58050000D02*
X92850000Y-58050000D01*
X71250000Y-67950000D02*
X66950000Y-67950000D01*
X66950000Y-67950000D02*
X66950000Y-62250000D01*
X71250000Y-67950000D02*
X71250000Y-62250000D01*
X49450000Y-77150000D02*
X49450000Y-72850000D01*
X49450000Y-72850000D02*
X55150000Y-72850000D01*
X49450000Y-77150000D02*
X55150000Y-77150000D01*
X39450000Y-77150000D02*
X39450000Y-72850000D01*
X39450000Y-72850000D02*
X45150000Y-72850000D01*
X39450000Y-77150000D02*
X45150000Y-77150000D01*
X107150000Y-58050000D02*
X107150000Y-52350000D01*
X102850000Y-58050000D02*
X102850000Y-52350000D01*
X107150000Y-58050000D02*
X102850000Y-58050000D01*
X107850000Y-50950000D02*
X107850000Y-56650000D01*
X112150000Y-50950000D02*
X112150000Y-56650000D01*
X107850000Y-50950000D02*
X112150000Y-50950000D01*
X97850000Y-50950000D02*
X97850000Y-56650000D01*
X102150000Y-50950000D02*
X102150000Y-56650000D01*
X97850000Y-50950000D02*
X102150000Y-50950000D01*
X127650000Y-69550000D02*
X123350000Y-69550000D01*
X123350000Y-69550000D02*
X123350000Y-63850000D01*
X127650000Y-69550000D02*
X127650000Y-63850000D01*
X122150000Y-69550000D02*
X117850000Y-69550000D01*
X117850000Y-69550000D02*
X117850000Y-63850000D01*
X122150000Y-69550000D02*
X122150000Y-63850000D01*
X87350000Y-67750000D02*
X87350000Y-62050000D01*
X83050000Y-67750000D02*
X83050000Y-62050000D01*
X87350000Y-67750000D02*
X83050000Y-67750000D01*
D10*
X129500000Y-56000000D02*
G75*
G03*
X129500000Y-56000000I-5000000J0D01*
G01*
X48500000Y-56000000D02*
G75*
G03*
X48500000Y-56000000I-5000000J0D01*
G01*
D11*
X100500000Y-76060000D02*
X97050000Y-76060000D01*
X100500000Y-76060000D02*
X102450000Y-76060000D01*
X100500000Y-70940000D02*
X98550000Y-70940000D01*
X100500000Y-70940000D02*
X102450000Y-70940000D01*
X87000000Y-76060000D02*
X83550000Y-76060000D01*
X87000000Y-76060000D02*
X88950000Y-76060000D01*
X87000000Y-70940000D02*
X85050000Y-70940000D01*
X87000000Y-70940000D02*
X88950000Y-70940000D01*
X39737221Y-62790000D02*
X40062779Y-62790000D01*
X39737221Y-63810000D02*
X40062779Y-63810000D01*
X108010000Y-63837221D02*
X108010000Y-64162779D01*
X106990000Y-63837221D02*
X106990000Y-64162779D01*
X94362779Y-65910000D02*
X94037221Y-65910000D01*
X94362779Y-64890000D02*
X94037221Y-64890000D01*
X105162779Y-65510000D02*
X104837221Y-65510000D01*
X105162779Y-64490000D02*
X104837221Y-64490000D01*
X92890000Y-63062779D02*
X92890000Y-62737221D01*
X93910000Y-63062779D02*
X93910000Y-62737221D01*
X64990000Y-66558578D02*
X64990000Y-66041422D01*
X66410000Y-66558578D02*
X66410000Y-66041422D01*
%LPC*%
D12*
X77105000Y-61800000D03*
X75835000Y-61800000D03*
X74565000Y-61800000D03*
X73295000Y-61800000D03*
X73295000Y-69000000D03*
X74565000Y-69000000D03*
X75835000Y-69000000D03*
X77105000Y-69000000D03*
D13*
X89600000Y-65775000D03*
X89600000Y-61500000D03*
D14*
X121700000Y-70600000D03*
X120050000Y-70600000D03*
X115500000Y-69300000D03*
X113850000Y-69300000D03*
D15*
X57800000Y-67975000D03*
X57800000Y-69625000D03*
D16*
X47000000Y-69275000D03*
X47000000Y-70925000D03*
D17*
X70550000Y-72600000D03*
X63650000Y-72600000D03*
D18*
X80900000Y-66200000D03*
X80900000Y-62200000D03*
X81300000Y-73500000D03*
X81300000Y-69500000D03*
D19*
X78600000Y-65880000D03*
X78600000Y-64920000D03*
X64100000Y-66880000D03*
X64100000Y-65920000D03*
D20*
X126640000Y-74000000D03*
X127600000Y-74000000D03*
X116040000Y-74000000D03*
X117000000Y-74000000D03*
D19*
X95500000Y-75980000D03*
X95500000Y-75020000D03*
X82700000Y-76480000D03*
X82700000Y-75520000D03*
D21*
X78400000Y-70950000D03*
X78400000Y-72850000D03*
D22*
X52500000Y-65000000D03*
D23*
X52500000Y-60000000D03*
D24*
X95000000Y-52350000D03*
X95000000Y-56650000D03*
X69100000Y-66550000D03*
X69100000Y-62250000D03*
D25*
X50850000Y-75000000D03*
X55150000Y-75000000D03*
X40850000Y-75000000D03*
X45150000Y-75000000D03*
D24*
X105000000Y-52350000D03*
X105000000Y-56650000D03*
X110000000Y-56650000D03*
X110000000Y-52350000D03*
X100000000Y-56650000D03*
X100000000Y-52350000D03*
X125500000Y-68150000D03*
X125500000Y-63850000D03*
X120000000Y-68150000D03*
X120000000Y-63850000D03*
D22*
X115000000Y-65500000D03*
D23*
X115000000Y-60500000D03*
D26*
X128500000Y-72000000D03*
D27*
X125960000Y-72000000D03*
X123420000Y-72000000D03*
D26*
X118000000Y-72000000D03*
D27*
X115460000Y-72000000D03*
X112920000Y-72000000D03*
X49920000Y-71500000D03*
X52460000Y-71500000D03*
D26*
X55000000Y-71500000D03*
X45000000Y-71500000D03*
D27*
X42460000Y-71500000D03*
X39920000Y-71500000D03*
D28*
X79550000Y-59000000D03*
X87450000Y-59000000D03*
X62550000Y-58910000D03*
X70450000Y-58910000D03*
D24*
X85200000Y-66350000D03*
X85200000Y-62050000D03*
D29*
X124500000Y-56000000D03*
X43500000Y-56000000D03*
D30*
X98025000Y-75405000D03*
X98025000Y-74135000D03*
X98025000Y-72865000D03*
X98025000Y-71595000D03*
X102975000Y-71595000D03*
X102975000Y-72865000D03*
X102975000Y-74135000D03*
X102975000Y-75405000D03*
X84525000Y-75405000D03*
X84525000Y-74135000D03*
X84525000Y-72865000D03*
X84525000Y-71595000D03*
X89475000Y-71595000D03*
X89475000Y-72865000D03*
X89475000Y-74135000D03*
X89475000Y-75405000D03*
D31*
X39112500Y-63300000D03*
X40687500Y-63300000D03*
D32*
X107500000Y-63212500D03*
X107500000Y-64787500D03*
D33*
X94987500Y-65400000D03*
X93412500Y-65400000D03*
D34*
X106660000Y-69350000D03*
X95230000Y-69350000D03*
D35*
X96500000Y-63000000D03*
D36*
X97770000Y-60460000D03*
X99040000Y-63000000D03*
X100310000Y-60460000D03*
X101580000Y-63000000D03*
X102850000Y-60460000D03*
X104120000Y-63000000D03*
X105390000Y-60460000D03*
D33*
X105787500Y-65000000D03*
X104212500Y-65000000D03*
D37*
X93400000Y-63687500D03*
X93400000Y-62112500D03*
D38*
X65700000Y-67237500D03*
X65700000Y-65362500D03*
%LPD*%
M02*
