G04 #@! TF.GenerationSoftware,KiCad,Pcbnew,5.1.9-73d0e3b20d~88~ubuntu20.04.1*
G04 #@! TF.CreationDate,2021-04-26T21:02:44-06:00*
G04 #@! TF.ProjectId,pole-node,706f6c65-2d6e-46f6-9465-2e6b69636164,rev?*
G04 #@! TF.SameCoordinates,Original*
G04 #@! TF.FileFunction,Copper,L2,Bot*
G04 #@! TF.FilePolarity,Positive*
%FSLAX46Y46*%
G04 Gerber Fmt 4.6, Leading zero omitted, Abs format (unit mm)*
G04 Created by KiCad (PCBNEW 5.1.9-73d0e3b20d~88~ubuntu20.04.1) date 2021-04-26 21:02:44*
%MOMM*%
%LPD*%
G01*
G04 APERTURE LIST*
G04 #@! TA.AperFunction,ComponentPad*
%ADD10C,2.000000*%
G04 #@! TD*
G04 #@! TA.AperFunction,ComponentPad*
%ADD11R,2.000000X2.000000*%
G04 #@! TD*
G04 #@! TA.AperFunction,ComponentPad*
%ADD12O,1.700000X1.700000*%
G04 #@! TD*
G04 #@! TA.AperFunction,ComponentPad*
%ADD13R,1.700000X1.700000*%
G04 #@! TD*
G04 #@! TA.AperFunction,ComponentPad*
%ADD14O,6.030000X2.070000*%
G04 #@! TD*
G04 #@! TA.AperFunction,ComponentPad*
%ADD15C,5.200000*%
G04 #@! TD*
G04 #@! TA.AperFunction,ComponentPad*
%ADD16C,0.600000*%
G04 #@! TD*
G04 #@! TA.AperFunction,ComponentPad*
%ADD17C,1.500000*%
G04 #@! TD*
G04 #@! TA.AperFunction,ComponentPad*
%ADD18R,1.500000X1.500000*%
G04 #@! TD*
G04 #@! TA.AperFunction,ViaPad*
%ADD19C,0.800000*%
G04 #@! TD*
G04 #@! TA.AperFunction,Conductor*
%ADD20C,1.000000*%
G04 #@! TD*
G04 #@! TA.AperFunction,Conductor*
%ADD21C,3.000000*%
G04 #@! TD*
G04 #@! TA.AperFunction,Conductor*
%ADD22C,0.500000*%
G04 #@! TD*
G04 #@! TA.AperFunction,Conductor*
%ADD23C,0.250000*%
G04 #@! TD*
G04 #@! TA.AperFunction,Conductor*
%ADD24C,0.254000*%
G04 #@! TD*
G04 #@! TA.AperFunction,Conductor*
%ADD25C,0.100000*%
G04 #@! TD*
G04 APERTURE END LIST*
D10*
X45500000Y-63500000D03*
D11*
X40500000Y-63500000D03*
D10*
X50500000Y-46000000D03*
D11*
X55500000Y-46000000D03*
D12*
X60920000Y-72000000D03*
X63460000Y-72000000D03*
D13*
X66000000Y-72000000D03*
D12*
X50420000Y-72000000D03*
X52960000Y-72000000D03*
D13*
X55500000Y-72000000D03*
D12*
X39920000Y-72000000D03*
X42460000Y-72000000D03*
D13*
X45000000Y-72000000D03*
D12*
X66080000Y-41000000D03*
X63540000Y-41000000D03*
D13*
X61000000Y-41000000D03*
D14*
X82950000Y-53000000D03*
X75050000Y-53000000D03*
X75050000Y-58910000D03*
X82950000Y-58910000D03*
D15*
X100500000Y-40500000D03*
D16*
X100500000Y-36750000D03*
X100500000Y-44250000D03*
X104250000Y-40500000D03*
X96750000Y-40500000D03*
X97850000Y-37850000D03*
X103150000Y-37850000D03*
X97850000Y-43150000D03*
X103150000Y-43150000D03*
X46150000Y-43150000D03*
X40850000Y-43150000D03*
X46150000Y-37850000D03*
X40850000Y-37850000D03*
X39750000Y-40500000D03*
X47250000Y-40500000D03*
X43500000Y-44250000D03*
X43500000Y-36750000D03*
D15*
X43500000Y-40500000D03*
D17*
X102390000Y-60190000D03*
X101120000Y-62730000D03*
X99850000Y-60190000D03*
X98580000Y-62730000D03*
X97310000Y-60190000D03*
X96040000Y-62730000D03*
X94770000Y-60190000D03*
D18*
X93500000Y-62730000D03*
D19*
X66000000Y-44500000D03*
X73100000Y-75500000D03*
X58400000Y-75500000D03*
X55300000Y-56200000D03*
X55800000Y-50500000D03*
X39400000Y-58600000D03*
X39400000Y-75300000D03*
X77600000Y-37300000D03*
X90500000Y-43200000D03*
X104800000Y-37500000D03*
X93700000Y-37000000D03*
X80200000Y-44000000D03*
X49100000Y-36800000D03*
X104700000Y-75600000D03*
X95200000Y-68900000D03*
X85400000Y-69200000D03*
X87500000Y-75700000D03*
X71000000Y-46149990D03*
X61600000Y-36600000D03*
X67600000Y-42900000D03*
X39000000Y-36700000D03*
X38900000Y-46200000D03*
X42800000Y-50800000D03*
X59000000Y-39200000D03*
X93500000Y-51300000D03*
X105400000Y-50900000D03*
X42000000Y-53000000D03*
X61000000Y-74400000D03*
X91000000Y-53700000D03*
X66400000Y-45900000D03*
X47000000Y-58500000D03*
X50000000Y-54000000D03*
D20*
X45000000Y-64000000D02*
X45500000Y-63500000D01*
X45000000Y-72000000D02*
X45000000Y-64000000D01*
D21*
X50500000Y-46000000D02*
X54000000Y-42500000D01*
X59500000Y-42500000D02*
X60989999Y-41010001D01*
X54000000Y-42500000D02*
X59500000Y-42500000D01*
X80897888Y-53000000D02*
X82950000Y-53000000D01*
X78162878Y-50264990D02*
X80897888Y-53000000D01*
X76840487Y-50264990D02*
X78162878Y-50264990D01*
X66799990Y-49799990D02*
X76375487Y-49799990D01*
X76375487Y-49799990D02*
X76840487Y-50264990D01*
X59500000Y-42500000D02*
X66799990Y-49799990D01*
D22*
X66000000Y-44500000D02*
X69350010Y-44500000D01*
X69350010Y-44500000D02*
X71000000Y-46149990D01*
D23*
X40500000Y-54500000D02*
X40500000Y-63500000D01*
X42000000Y-53000000D02*
X40500000Y-54500000D01*
D22*
X60920000Y-74320000D02*
X61000000Y-74400000D01*
X60920000Y-72000000D02*
X60920000Y-74320000D01*
X67500000Y-47000000D02*
X66400000Y-45900000D01*
X84300000Y-47000000D02*
X67500000Y-47000000D01*
X91000000Y-53700000D02*
X84300000Y-47000000D01*
X101120000Y-62730000D02*
X99919999Y-63930001D01*
X99919999Y-63930001D02*
X52430001Y-63930001D01*
X52430001Y-63930001D02*
X47399999Y-58899999D01*
X47399999Y-58899999D02*
X47000000Y-58500000D01*
X102390000Y-60190000D02*
X101080000Y-61500000D01*
X101080000Y-61500000D02*
X95000000Y-61500000D01*
X57500000Y-61500000D02*
X50000000Y-54000000D01*
X95000000Y-61500000D02*
X57500000Y-61500000D01*
D21*
X80960000Y-58910000D02*
X75050000Y-53000000D01*
X82950000Y-58910000D02*
X80960000Y-58910000D01*
X55500000Y-46000000D02*
X62500000Y-53000000D01*
X62500000Y-53000000D02*
X75050000Y-53000000D01*
D24*
X42671414Y-36307111D02*
X42600932Y-36477271D01*
X42565000Y-36657911D01*
X42565000Y-36842089D01*
X42600932Y-37022729D01*
X42671414Y-37192889D01*
X42773738Y-37346028D01*
X42773785Y-37346075D01*
X42556385Y-37389319D01*
X41967653Y-37633180D01*
X41784528Y-37755540D01*
X41749068Y-37577271D01*
X41678586Y-37407111D01*
X41576262Y-37253972D01*
X41446028Y-37123738D01*
X41292889Y-37021414D01*
X41122729Y-36950932D01*
X40942089Y-36915000D01*
X40757911Y-36915000D01*
X40577271Y-36950932D01*
X40407111Y-37021414D01*
X40253972Y-37123738D01*
X40123738Y-37253972D01*
X40021414Y-37407111D01*
X39950932Y-37577271D01*
X39915000Y-37757911D01*
X39915000Y-37942089D01*
X39950932Y-38122729D01*
X40021414Y-38292889D01*
X40123738Y-38446028D01*
X40253972Y-38576262D01*
X40407111Y-38678586D01*
X40577271Y-38749068D01*
X40755540Y-38784528D01*
X40633180Y-38967653D01*
X40389319Y-39556385D01*
X40346075Y-39773785D01*
X40346028Y-39773738D01*
X40192889Y-39671414D01*
X40022729Y-39600932D01*
X39842089Y-39565000D01*
X39657911Y-39565000D01*
X39477271Y-39600932D01*
X39307111Y-39671414D01*
X39153972Y-39773738D01*
X39023738Y-39903972D01*
X38921414Y-40057111D01*
X38850932Y-40227271D01*
X38815000Y-40407911D01*
X38815000Y-40592089D01*
X38850932Y-40772729D01*
X38921414Y-40942889D01*
X39023738Y-41096028D01*
X39153972Y-41226262D01*
X39307111Y-41328586D01*
X39477271Y-41399068D01*
X39657911Y-41435000D01*
X39842089Y-41435000D01*
X40022729Y-41399068D01*
X40192889Y-41328586D01*
X40346028Y-41226262D01*
X40346075Y-41226215D01*
X40389319Y-41443615D01*
X40633180Y-42032347D01*
X40755540Y-42215472D01*
X40577271Y-42250932D01*
X40407111Y-42321414D01*
X40253972Y-42423738D01*
X40123738Y-42553972D01*
X40021414Y-42707111D01*
X39950932Y-42877271D01*
X39915000Y-43057911D01*
X39915000Y-43242089D01*
X39950932Y-43422729D01*
X40021414Y-43592889D01*
X40123738Y-43746028D01*
X40253972Y-43876262D01*
X40407111Y-43978586D01*
X40577271Y-44049068D01*
X40757911Y-44085000D01*
X40942089Y-44085000D01*
X41122729Y-44049068D01*
X41292889Y-43978586D01*
X41446028Y-43876262D01*
X41576262Y-43746028D01*
X41678586Y-43592889D01*
X41749068Y-43422729D01*
X41784528Y-43244460D01*
X41967653Y-43366820D01*
X42556385Y-43610681D01*
X42773785Y-43653925D01*
X42773738Y-43653972D01*
X42671414Y-43807111D01*
X42600932Y-43977271D01*
X42565000Y-44157911D01*
X42565000Y-44342089D01*
X42600932Y-44522729D01*
X42671414Y-44692889D01*
X42773738Y-44846028D01*
X42903972Y-44976262D01*
X43057111Y-45078586D01*
X43227271Y-45149068D01*
X43407911Y-45185000D01*
X43592089Y-45185000D01*
X43772729Y-45149068D01*
X43942889Y-45078586D01*
X44096028Y-44976262D01*
X44207703Y-44864587D01*
X49544192Y-44864587D01*
X50500000Y-45820395D01*
X51455808Y-44864587D01*
X51360044Y-44600186D01*
X51070429Y-44459296D01*
X50758892Y-44377616D01*
X50437405Y-44358282D01*
X50118325Y-44402039D01*
X49813912Y-44507205D01*
X49639956Y-44600186D01*
X49544192Y-44864587D01*
X44207703Y-44864587D01*
X44226262Y-44846028D01*
X44328586Y-44692889D01*
X44399068Y-44522729D01*
X44435000Y-44342089D01*
X44435000Y-44157911D01*
X44399068Y-43977271D01*
X44328586Y-43807111D01*
X44226262Y-43653972D01*
X44226215Y-43653925D01*
X44443615Y-43610681D01*
X45032347Y-43366820D01*
X45215472Y-43244460D01*
X45250932Y-43422729D01*
X45321414Y-43592889D01*
X45423738Y-43746028D01*
X45553972Y-43876262D01*
X45707111Y-43978586D01*
X45877271Y-44049068D01*
X46057911Y-44085000D01*
X46242089Y-44085000D01*
X46422729Y-44049068D01*
X46592889Y-43978586D01*
X46746028Y-43876262D01*
X46876262Y-43746028D01*
X46978586Y-43592889D01*
X47049068Y-43422729D01*
X47085000Y-43242089D01*
X47085000Y-43057911D01*
X47049068Y-42877271D01*
X46978586Y-42707111D01*
X46876262Y-42553972D01*
X46746028Y-42423738D01*
X46592889Y-42321414D01*
X46422729Y-42250932D01*
X46244460Y-42215472D01*
X46366820Y-42032347D01*
X46442350Y-41850000D01*
X59511928Y-41850000D01*
X59524188Y-41974482D01*
X59560498Y-42094180D01*
X59619463Y-42204494D01*
X59698815Y-42301185D01*
X59795506Y-42380537D01*
X59905820Y-42439502D01*
X60025518Y-42475812D01*
X60150000Y-42488072D01*
X60714250Y-42485000D01*
X60873000Y-42326250D01*
X60873000Y-41127000D01*
X59673750Y-41127000D01*
X59515000Y-41285750D01*
X59511928Y-41850000D01*
X46442350Y-41850000D01*
X46610681Y-41443615D01*
X46653925Y-41226215D01*
X46653972Y-41226262D01*
X46807111Y-41328586D01*
X46977271Y-41399068D01*
X47157911Y-41435000D01*
X47342089Y-41435000D01*
X47522729Y-41399068D01*
X47692889Y-41328586D01*
X47846028Y-41226262D01*
X47976262Y-41096028D01*
X48078586Y-40942889D01*
X48149068Y-40772729D01*
X48185000Y-40592089D01*
X48185000Y-40407911D01*
X48149068Y-40227271D01*
X48117062Y-40150000D01*
X59511928Y-40150000D01*
X59515000Y-40714250D01*
X59673750Y-40873000D01*
X60873000Y-40873000D01*
X60873000Y-39673750D01*
X61127000Y-39673750D01*
X61127000Y-40873000D01*
X61147000Y-40873000D01*
X61147000Y-41127000D01*
X61127000Y-41127000D01*
X61127000Y-42326250D01*
X61285750Y-42485000D01*
X61850000Y-42488072D01*
X61974482Y-42475812D01*
X62094180Y-42439502D01*
X62204494Y-42380537D01*
X62301185Y-42301185D01*
X62380537Y-42204494D01*
X62439502Y-42094180D01*
X62461513Y-42021620D01*
X62593368Y-42153475D01*
X62836589Y-42315990D01*
X63106842Y-42427932D01*
X63393740Y-42485000D01*
X63686260Y-42485000D01*
X63973158Y-42427932D01*
X64243411Y-42315990D01*
X64486632Y-42153475D01*
X64693475Y-41946632D01*
X64810000Y-41772240D01*
X64926525Y-41946632D01*
X65133368Y-42153475D01*
X65376589Y-42315990D01*
X65646842Y-42427932D01*
X65933740Y-42485000D01*
X66226260Y-42485000D01*
X66513158Y-42427932D01*
X66783411Y-42315990D01*
X67026632Y-42153475D01*
X67233475Y-41946632D01*
X67395990Y-41703411D01*
X67507932Y-41433158D01*
X67565000Y-41146260D01*
X67565000Y-40853740D01*
X67507932Y-40566842D01*
X67395990Y-40296589D01*
X67233475Y-40053368D01*
X67026632Y-39846525D01*
X66783411Y-39684010D01*
X66513158Y-39572068D01*
X66226260Y-39515000D01*
X65933740Y-39515000D01*
X65646842Y-39572068D01*
X65376589Y-39684010D01*
X65133368Y-39846525D01*
X64926525Y-40053368D01*
X64810000Y-40227760D01*
X64693475Y-40053368D01*
X64486632Y-39846525D01*
X64243411Y-39684010D01*
X63973158Y-39572068D01*
X63686260Y-39515000D01*
X63393740Y-39515000D01*
X63106842Y-39572068D01*
X62836589Y-39684010D01*
X62593368Y-39846525D01*
X62461513Y-39978380D01*
X62439502Y-39905820D01*
X62380537Y-39795506D01*
X62301185Y-39698815D01*
X62204494Y-39619463D01*
X62094180Y-39560498D01*
X61974482Y-39524188D01*
X61850000Y-39511928D01*
X61285750Y-39515000D01*
X61127000Y-39673750D01*
X60873000Y-39673750D01*
X60714250Y-39515000D01*
X60150000Y-39511928D01*
X60025518Y-39524188D01*
X59905820Y-39560498D01*
X59795506Y-39619463D01*
X59698815Y-39698815D01*
X59619463Y-39795506D01*
X59560498Y-39905820D01*
X59524188Y-40025518D01*
X59511928Y-40150000D01*
X48117062Y-40150000D01*
X48078586Y-40057111D01*
X47976262Y-39903972D01*
X47846028Y-39773738D01*
X47692889Y-39671414D01*
X47522729Y-39600932D01*
X47342089Y-39565000D01*
X47157911Y-39565000D01*
X46977271Y-39600932D01*
X46807111Y-39671414D01*
X46653972Y-39773738D01*
X46653925Y-39773785D01*
X46610681Y-39556385D01*
X46366820Y-38967653D01*
X46244460Y-38784528D01*
X46422729Y-38749068D01*
X46592889Y-38678586D01*
X46746028Y-38576262D01*
X46876262Y-38446028D01*
X46978586Y-38292889D01*
X47049068Y-38122729D01*
X47085000Y-37942089D01*
X47085000Y-37757911D01*
X47049068Y-37577271D01*
X46978586Y-37407111D01*
X46876262Y-37253972D01*
X46746028Y-37123738D01*
X46592889Y-37021414D01*
X46422729Y-36950932D01*
X46242089Y-36915000D01*
X46057911Y-36915000D01*
X45877271Y-36950932D01*
X45707111Y-37021414D01*
X45553972Y-37123738D01*
X45423738Y-37253972D01*
X45321414Y-37407111D01*
X45250932Y-37577271D01*
X45215472Y-37755540D01*
X45032347Y-37633180D01*
X44443615Y-37389319D01*
X44226215Y-37346075D01*
X44226262Y-37346028D01*
X44328586Y-37192889D01*
X44399068Y-37022729D01*
X44435000Y-36842089D01*
X44435000Y-36657911D01*
X44399068Y-36477271D01*
X44328586Y-36307111D01*
X44230290Y-36160000D01*
X99769710Y-36160000D01*
X99671414Y-36307111D01*
X99600932Y-36477271D01*
X99565000Y-36657911D01*
X99565000Y-36842089D01*
X99600932Y-37022729D01*
X99671414Y-37192889D01*
X99773738Y-37346028D01*
X99773785Y-37346075D01*
X99556385Y-37389319D01*
X98967653Y-37633180D01*
X98784528Y-37755540D01*
X98749068Y-37577271D01*
X98678586Y-37407111D01*
X98576262Y-37253972D01*
X98446028Y-37123738D01*
X98292889Y-37021414D01*
X98122729Y-36950932D01*
X97942089Y-36915000D01*
X97757911Y-36915000D01*
X97577271Y-36950932D01*
X97407111Y-37021414D01*
X97253972Y-37123738D01*
X97123738Y-37253972D01*
X97021414Y-37407111D01*
X96950932Y-37577271D01*
X96915000Y-37757911D01*
X96915000Y-37942089D01*
X96950932Y-38122729D01*
X97021414Y-38292889D01*
X97123738Y-38446028D01*
X97253972Y-38576262D01*
X97407111Y-38678586D01*
X97577271Y-38749068D01*
X97755540Y-38784528D01*
X97633180Y-38967653D01*
X97389319Y-39556385D01*
X97346075Y-39773785D01*
X97346028Y-39773738D01*
X97192889Y-39671414D01*
X97022729Y-39600932D01*
X96842089Y-39565000D01*
X96657911Y-39565000D01*
X96477271Y-39600932D01*
X96307111Y-39671414D01*
X96153972Y-39773738D01*
X96023738Y-39903972D01*
X95921414Y-40057111D01*
X95850932Y-40227271D01*
X95815000Y-40407911D01*
X95815000Y-40592089D01*
X95850932Y-40772729D01*
X95921414Y-40942889D01*
X96023738Y-41096028D01*
X96153972Y-41226262D01*
X96307111Y-41328586D01*
X96477271Y-41399068D01*
X96657911Y-41435000D01*
X96842089Y-41435000D01*
X97022729Y-41399068D01*
X97192889Y-41328586D01*
X97346028Y-41226262D01*
X97346075Y-41226215D01*
X97389319Y-41443615D01*
X97633180Y-42032347D01*
X97755540Y-42215472D01*
X97577271Y-42250932D01*
X97407111Y-42321414D01*
X97253972Y-42423738D01*
X97123738Y-42553972D01*
X97021414Y-42707111D01*
X96950932Y-42877271D01*
X96915000Y-43057911D01*
X96915000Y-43242089D01*
X96950932Y-43422729D01*
X97021414Y-43592889D01*
X97123738Y-43746028D01*
X97253972Y-43876262D01*
X97407111Y-43978586D01*
X97577271Y-44049068D01*
X97757911Y-44085000D01*
X97942089Y-44085000D01*
X98122729Y-44049068D01*
X98292889Y-43978586D01*
X98446028Y-43876262D01*
X98576262Y-43746028D01*
X98678586Y-43592889D01*
X98749068Y-43422729D01*
X98784528Y-43244460D01*
X98967653Y-43366820D01*
X99556385Y-43610681D01*
X99773785Y-43653925D01*
X99773738Y-43653972D01*
X99671414Y-43807111D01*
X99600932Y-43977271D01*
X99565000Y-44157911D01*
X99565000Y-44342089D01*
X99600932Y-44522729D01*
X99671414Y-44692889D01*
X99773738Y-44846028D01*
X99903972Y-44976262D01*
X100057111Y-45078586D01*
X100227271Y-45149068D01*
X100407911Y-45185000D01*
X100592089Y-45185000D01*
X100772729Y-45149068D01*
X100942889Y-45078586D01*
X101096028Y-44976262D01*
X101226262Y-44846028D01*
X101328586Y-44692889D01*
X101399068Y-44522729D01*
X101435000Y-44342089D01*
X101435000Y-44157911D01*
X101399068Y-43977271D01*
X101328586Y-43807111D01*
X101226262Y-43653972D01*
X101226215Y-43653925D01*
X101443615Y-43610681D01*
X102032347Y-43366820D01*
X102215472Y-43244460D01*
X102250932Y-43422729D01*
X102321414Y-43592889D01*
X102423738Y-43746028D01*
X102553972Y-43876262D01*
X102707111Y-43978586D01*
X102877271Y-44049068D01*
X103057911Y-44085000D01*
X103242089Y-44085000D01*
X103422729Y-44049068D01*
X103592889Y-43978586D01*
X103746028Y-43876262D01*
X103876262Y-43746028D01*
X103978586Y-43592889D01*
X104049068Y-43422729D01*
X104085000Y-43242089D01*
X104085000Y-43057911D01*
X104049068Y-42877271D01*
X103978586Y-42707111D01*
X103876262Y-42553972D01*
X103746028Y-42423738D01*
X103592889Y-42321414D01*
X103422729Y-42250932D01*
X103244460Y-42215472D01*
X103366820Y-42032347D01*
X103610681Y-41443615D01*
X103653925Y-41226215D01*
X103653972Y-41226262D01*
X103807111Y-41328586D01*
X103977271Y-41399068D01*
X104157911Y-41435000D01*
X104342089Y-41435000D01*
X104522729Y-41399068D01*
X104692889Y-41328586D01*
X104846028Y-41226262D01*
X104976262Y-41096028D01*
X105078586Y-40942889D01*
X105149068Y-40772729D01*
X105185000Y-40592089D01*
X105185000Y-40407911D01*
X105149068Y-40227271D01*
X105078586Y-40057111D01*
X104976262Y-39903972D01*
X104846028Y-39773738D01*
X104692889Y-39671414D01*
X104522729Y-39600932D01*
X104342089Y-39565000D01*
X104157911Y-39565000D01*
X103977271Y-39600932D01*
X103807111Y-39671414D01*
X103653972Y-39773738D01*
X103653925Y-39773785D01*
X103610681Y-39556385D01*
X103366820Y-38967653D01*
X103244460Y-38784528D01*
X103422729Y-38749068D01*
X103592889Y-38678586D01*
X103746028Y-38576262D01*
X103876262Y-38446028D01*
X103978586Y-38292889D01*
X104049068Y-38122729D01*
X104085000Y-37942089D01*
X104085000Y-37757911D01*
X104049068Y-37577271D01*
X103978586Y-37407111D01*
X103876262Y-37253972D01*
X103746028Y-37123738D01*
X103592889Y-37021414D01*
X103422729Y-36950932D01*
X103242089Y-36915000D01*
X103057911Y-36915000D01*
X102877271Y-36950932D01*
X102707111Y-37021414D01*
X102553972Y-37123738D01*
X102423738Y-37253972D01*
X102321414Y-37407111D01*
X102250932Y-37577271D01*
X102215472Y-37755540D01*
X102032347Y-37633180D01*
X101443615Y-37389319D01*
X101226215Y-37346075D01*
X101226262Y-37346028D01*
X101328586Y-37192889D01*
X101399068Y-37022729D01*
X101435000Y-36842089D01*
X101435000Y-36657911D01*
X101399068Y-36477271D01*
X101328586Y-36307111D01*
X101230290Y-36160000D01*
X105467721Y-36160000D01*
X105565424Y-36169580D01*
X105628356Y-36188580D01*
X105686405Y-36219445D01*
X105737343Y-36260989D01*
X105779248Y-36311644D01*
X105810515Y-36369471D01*
X105829956Y-36432272D01*
X105840001Y-36527845D01*
X105840000Y-68583370D01*
X105809110Y-68428075D01*
X105640631Y-68021331D01*
X105396038Y-67655271D01*
X105084729Y-67343962D01*
X104718669Y-67099369D01*
X104311925Y-66930890D01*
X103880128Y-66845000D01*
X103439872Y-66845000D01*
X103008075Y-66930890D01*
X102601331Y-67099369D01*
X102235271Y-67343962D01*
X101923962Y-67655271D01*
X101679369Y-68021331D01*
X101510890Y-68428075D01*
X101425000Y-68859872D01*
X101425000Y-69300128D01*
X101510890Y-69731925D01*
X101679369Y-70138669D01*
X101923962Y-70504729D01*
X102235271Y-70816038D01*
X102601331Y-71060631D01*
X103008075Y-71229110D01*
X103439872Y-71315000D01*
X103880128Y-71315000D01*
X104311925Y-71229110D01*
X104718669Y-71060631D01*
X105084729Y-70816038D01*
X105396038Y-70504729D01*
X105640631Y-70138669D01*
X105809110Y-69731925D01*
X105840000Y-69576630D01*
X105840000Y-76467721D01*
X105830420Y-76565424D01*
X105811420Y-76628357D01*
X105780554Y-76686406D01*
X105739011Y-76737343D01*
X105688356Y-76779248D01*
X105630529Y-76810515D01*
X105567728Y-76829956D01*
X105472165Y-76840000D01*
X38532279Y-76840000D01*
X38434576Y-76830420D01*
X38371643Y-76811420D01*
X38313594Y-76780554D01*
X38262657Y-76739011D01*
X38220752Y-76688356D01*
X38189485Y-76630529D01*
X38170044Y-76567728D01*
X38160000Y-76472165D01*
X38160000Y-71853740D01*
X38435000Y-71853740D01*
X38435000Y-72146260D01*
X38492068Y-72433158D01*
X38604010Y-72703411D01*
X38766525Y-72946632D01*
X38973368Y-73153475D01*
X39216589Y-73315990D01*
X39486842Y-73427932D01*
X39773740Y-73485000D01*
X40066260Y-73485000D01*
X40353158Y-73427932D01*
X40623411Y-73315990D01*
X40866632Y-73153475D01*
X41073475Y-72946632D01*
X41190000Y-72772240D01*
X41306525Y-72946632D01*
X41513368Y-73153475D01*
X41756589Y-73315990D01*
X42026842Y-73427932D01*
X42313740Y-73485000D01*
X42606260Y-73485000D01*
X42893158Y-73427932D01*
X43163411Y-73315990D01*
X43406632Y-73153475D01*
X43538487Y-73021620D01*
X43560498Y-73094180D01*
X43619463Y-73204494D01*
X43698815Y-73301185D01*
X43795506Y-73380537D01*
X43905820Y-73439502D01*
X44025518Y-73475812D01*
X44150000Y-73488072D01*
X44714250Y-73485000D01*
X44873000Y-73326250D01*
X44873000Y-72127000D01*
X45127000Y-72127000D01*
X45127000Y-73326250D01*
X45285750Y-73485000D01*
X45850000Y-73488072D01*
X45974482Y-73475812D01*
X46094180Y-73439502D01*
X46204494Y-73380537D01*
X46301185Y-73301185D01*
X46380537Y-73204494D01*
X46439502Y-73094180D01*
X46475812Y-72974482D01*
X46488072Y-72850000D01*
X46485000Y-72285750D01*
X46326250Y-72127000D01*
X45127000Y-72127000D01*
X44873000Y-72127000D01*
X44853000Y-72127000D01*
X44853000Y-71873000D01*
X44873000Y-71873000D01*
X44873000Y-70673750D01*
X45127000Y-70673750D01*
X45127000Y-71873000D01*
X46326250Y-71873000D01*
X46345510Y-71853740D01*
X48935000Y-71853740D01*
X48935000Y-72146260D01*
X48992068Y-72433158D01*
X49104010Y-72703411D01*
X49266525Y-72946632D01*
X49473368Y-73153475D01*
X49716589Y-73315990D01*
X49986842Y-73427932D01*
X50273740Y-73485000D01*
X50566260Y-73485000D01*
X50853158Y-73427932D01*
X51123411Y-73315990D01*
X51366632Y-73153475D01*
X51573475Y-72946632D01*
X51690000Y-72772240D01*
X51806525Y-72946632D01*
X52013368Y-73153475D01*
X52256589Y-73315990D01*
X52526842Y-73427932D01*
X52813740Y-73485000D01*
X53106260Y-73485000D01*
X53393158Y-73427932D01*
X53663411Y-73315990D01*
X53906632Y-73153475D01*
X54038487Y-73021620D01*
X54060498Y-73094180D01*
X54119463Y-73204494D01*
X54198815Y-73301185D01*
X54295506Y-73380537D01*
X54405820Y-73439502D01*
X54525518Y-73475812D01*
X54650000Y-73488072D01*
X55214250Y-73485000D01*
X55373000Y-73326250D01*
X55373000Y-72127000D01*
X55627000Y-72127000D01*
X55627000Y-73326250D01*
X55785750Y-73485000D01*
X56350000Y-73488072D01*
X56474482Y-73475812D01*
X56594180Y-73439502D01*
X56704494Y-73380537D01*
X56801185Y-73301185D01*
X56880537Y-73204494D01*
X56939502Y-73094180D01*
X56975812Y-72974482D01*
X56988072Y-72850000D01*
X56985000Y-72285750D01*
X56826250Y-72127000D01*
X55627000Y-72127000D01*
X55373000Y-72127000D01*
X55353000Y-72127000D01*
X55353000Y-71873000D01*
X55373000Y-71873000D01*
X55373000Y-70673750D01*
X55627000Y-70673750D01*
X55627000Y-71873000D01*
X56826250Y-71873000D01*
X56845510Y-71853740D01*
X59435000Y-71853740D01*
X59435000Y-72146260D01*
X59492068Y-72433158D01*
X59604010Y-72703411D01*
X59766525Y-72946632D01*
X59973368Y-73153475D01*
X60035001Y-73194657D01*
X60035001Y-74025128D01*
X60004774Y-74098102D01*
X59965000Y-74298061D01*
X59965000Y-74501939D01*
X60004774Y-74701898D01*
X60082795Y-74890256D01*
X60196063Y-75059774D01*
X60340226Y-75203937D01*
X60509744Y-75317205D01*
X60698102Y-75395226D01*
X60898061Y-75435000D01*
X61101939Y-75435000D01*
X61301898Y-75395226D01*
X61490256Y-75317205D01*
X61659774Y-75203937D01*
X61803937Y-75059774D01*
X61917205Y-74890256D01*
X61995226Y-74701898D01*
X62035000Y-74501939D01*
X62035000Y-74298061D01*
X61995226Y-74098102D01*
X61917205Y-73909744D01*
X61805000Y-73741817D01*
X61805000Y-73194656D01*
X61866632Y-73153475D01*
X62073475Y-72946632D01*
X62190000Y-72772240D01*
X62306525Y-72946632D01*
X62513368Y-73153475D01*
X62756589Y-73315990D01*
X63026842Y-73427932D01*
X63313740Y-73485000D01*
X63606260Y-73485000D01*
X63893158Y-73427932D01*
X64163411Y-73315990D01*
X64406632Y-73153475D01*
X64538487Y-73021620D01*
X64560498Y-73094180D01*
X64619463Y-73204494D01*
X64698815Y-73301185D01*
X64795506Y-73380537D01*
X64905820Y-73439502D01*
X65025518Y-73475812D01*
X65150000Y-73488072D01*
X65714250Y-73485000D01*
X65873000Y-73326250D01*
X65873000Y-72127000D01*
X66127000Y-72127000D01*
X66127000Y-73326250D01*
X66285750Y-73485000D01*
X66850000Y-73488072D01*
X66974482Y-73475812D01*
X67094180Y-73439502D01*
X67204494Y-73380537D01*
X67301185Y-73301185D01*
X67380537Y-73204494D01*
X67439502Y-73094180D01*
X67475812Y-72974482D01*
X67488072Y-72850000D01*
X67485000Y-72285750D01*
X67326250Y-72127000D01*
X66127000Y-72127000D01*
X65873000Y-72127000D01*
X65853000Y-72127000D01*
X65853000Y-71873000D01*
X65873000Y-71873000D01*
X65873000Y-70673750D01*
X66127000Y-70673750D01*
X66127000Y-71873000D01*
X67326250Y-71873000D01*
X67485000Y-71714250D01*
X67488072Y-71150000D01*
X67475812Y-71025518D01*
X67439502Y-70905820D01*
X67380537Y-70795506D01*
X67301185Y-70698815D01*
X67204494Y-70619463D01*
X67094180Y-70560498D01*
X66974482Y-70524188D01*
X66850000Y-70511928D01*
X66285750Y-70515000D01*
X66127000Y-70673750D01*
X65873000Y-70673750D01*
X65714250Y-70515000D01*
X65150000Y-70511928D01*
X65025518Y-70524188D01*
X64905820Y-70560498D01*
X64795506Y-70619463D01*
X64698815Y-70698815D01*
X64619463Y-70795506D01*
X64560498Y-70905820D01*
X64538487Y-70978380D01*
X64406632Y-70846525D01*
X64163411Y-70684010D01*
X63893158Y-70572068D01*
X63606260Y-70515000D01*
X63313740Y-70515000D01*
X63026842Y-70572068D01*
X62756589Y-70684010D01*
X62513368Y-70846525D01*
X62306525Y-71053368D01*
X62190000Y-71227760D01*
X62073475Y-71053368D01*
X61866632Y-70846525D01*
X61623411Y-70684010D01*
X61353158Y-70572068D01*
X61066260Y-70515000D01*
X60773740Y-70515000D01*
X60486842Y-70572068D01*
X60216589Y-70684010D01*
X59973368Y-70846525D01*
X59766525Y-71053368D01*
X59604010Y-71296589D01*
X59492068Y-71566842D01*
X59435000Y-71853740D01*
X56845510Y-71853740D01*
X56985000Y-71714250D01*
X56988072Y-71150000D01*
X56975812Y-71025518D01*
X56939502Y-70905820D01*
X56880537Y-70795506D01*
X56801185Y-70698815D01*
X56704494Y-70619463D01*
X56594180Y-70560498D01*
X56474482Y-70524188D01*
X56350000Y-70511928D01*
X55785750Y-70515000D01*
X55627000Y-70673750D01*
X55373000Y-70673750D01*
X55214250Y-70515000D01*
X54650000Y-70511928D01*
X54525518Y-70524188D01*
X54405820Y-70560498D01*
X54295506Y-70619463D01*
X54198815Y-70698815D01*
X54119463Y-70795506D01*
X54060498Y-70905820D01*
X54038487Y-70978380D01*
X53906632Y-70846525D01*
X53663411Y-70684010D01*
X53393158Y-70572068D01*
X53106260Y-70515000D01*
X52813740Y-70515000D01*
X52526842Y-70572068D01*
X52256589Y-70684010D01*
X52013368Y-70846525D01*
X51806525Y-71053368D01*
X51690000Y-71227760D01*
X51573475Y-71053368D01*
X51366632Y-70846525D01*
X51123411Y-70684010D01*
X50853158Y-70572068D01*
X50566260Y-70515000D01*
X50273740Y-70515000D01*
X49986842Y-70572068D01*
X49716589Y-70684010D01*
X49473368Y-70846525D01*
X49266525Y-71053368D01*
X49104010Y-71296589D01*
X48992068Y-71566842D01*
X48935000Y-71853740D01*
X46345510Y-71853740D01*
X46485000Y-71714250D01*
X46488072Y-71150000D01*
X46475812Y-71025518D01*
X46439502Y-70905820D01*
X46380537Y-70795506D01*
X46301185Y-70698815D01*
X46204494Y-70619463D01*
X46094180Y-70560498D01*
X45974482Y-70524188D01*
X45850000Y-70511928D01*
X45285750Y-70515000D01*
X45127000Y-70673750D01*
X44873000Y-70673750D01*
X44714250Y-70515000D01*
X44150000Y-70511928D01*
X44025518Y-70524188D01*
X43905820Y-70560498D01*
X43795506Y-70619463D01*
X43698815Y-70698815D01*
X43619463Y-70795506D01*
X43560498Y-70905820D01*
X43538487Y-70978380D01*
X43406632Y-70846525D01*
X43163411Y-70684010D01*
X42893158Y-70572068D01*
X42606260Y-70515000D01*
X42313740Y-70515000D01*
X42026842Y-70572068D01*
X41756589Y-70684010D01*
X41513368Y-70846525D01*
X41306525Y-71053368D01*
X41190000Y-71227760D01*
X41073475Y-71053368D01*
X40866632Y-70846525D01*
X40623411Y-70684010D01*
X40353158Y-70572068D01*
X40066260Y-70515000D01*
X39773740Y-70515000D01*
X39486842Y-70572068D01*
X39216589Y-70684010D01*
X38973368Y-70846525D01*
X38766525Y-71053368D01*
X38604010Y-71296589D01*
X38492068Y-71566842D01*
X38435000Y-71853740D01*
X38160000Y-71853740D01*
X38160000Y-68859872D01*
X89995000Y-68859872D01*
X89995000Y-69300128D01*
X90080890Y-69731925D01*
X90249369Y-70138669D01*
X90493962Y-70504729D01*
X90805271Y-70816038D01*
X91171331Y-71060631D01*
X91578075Y-71229110D01*
X92009872Y-71315000D01*
X92450128Y-71315000D01*
X92881925Y-71229110D01*
X93288669Y-71060631D01*
X93654729Y-70816038D01*
X93966038Y-70504729D01*
X94210631Y-70138669D01*
X94379110Y-69731925D01*
X94465000Y-69300128D01*
X94465000Y-68859872D01*
X94379110Y-68428075D01*
X94210631Y-68021331D01*
X93966038Y-67655271D01*
X93654729Y-67343962D01*
X93288669Y-67099369D01*
X92881925Y-66930890D01*
X92450128Y-66845000D01*
X92009872Y-66845000D01*
X91578075Y-66930890D01*
X91171331Y-67099369D01*
X90805271Y-67343962D01*
X90493962Y-67655271D01*
X90249369Y-68021331D01*
X90080890Y-68428075D01*
X89995000Y-68859872D01*
X38160000Y-68859872D01*
X38160000Y-62500000D01*
X38861928Y-62500000D01*
X38861928Y-64500000D01*
X38874188Y-64624482D01*
X38910498Y-64744180D01*
X38969463Y-64854494D01*
X39048815Y-64951185D01*
X39145506Y-65030537D01*
X39255820Y-65089502D01*
X39375518Y-65125812D01*
X39500000Y-65138072D01*
X41500000Y-65138072D01*
X41624482Y-65125812D01*
X41744180Y-65089502D01*
X41854494Y-65030537D01*
X41951185Y-64951185D01*
X42030537Y-64854494D01*
X42089502Y-64744180D01*
X42122496Y-64635413D01*
X44544192Y-64635413D01*
X44639956Y-64899814D01*
X44929571Y-65040704D01*
X45241108Y-65122384D01*
X45562595Y-65141718D01*
X45881675Y-65097961D01*
X46186088Y-64992795D01*
X46360044Y-64899814D01*
X46455808Y-64635413D01*
X45500000Y-63679605D01*
X44544192Y-64635413D01*
X42122496Y-64635413D01*
X42125812Y-64624482D01*
X42138072Y-64500000D01*
X42138072Y-63562595D01*
X43858282Y-63562595D01*
X43902039Y-63881675D01*
X44007205Y-64186088D01*
X44100186Y-64360044D01*
X44364587Y-64455808D01*
X45320395Y-63500000D01*
X45679605Y-63500000D01*
X46635413Y-64455808D01*
X46899814Y-64360044D01*
X47040704Y-64070429D01*
X47122384Y-63758892D01*
X47141718Y-63437405D01*
X47097961Y-63118325D01*
X46992795Y-62813912D01*
X46899814Y-62639956D01*
X46635413Y-62544192D01*
X45679605Y-63500000D01*
X45320395Y-63500000D01*
X44364587Y-62544192D01*
X44100186Y-62639956D01*
X43959296Y-62929571D01*
X43877616Y-63241108D01*
X43858282Y-63562595D01*
X42138072Y-63562595D01*
X42138072Y-62500000D01*
X42125812Y-62375518D01*
X42122497Y-62364587D01*
X44544192Y-62364587D01*
X45500000Y-63320395D01*
X46455808Y-62364587D01*
X46360044Y-62100186D01*
X46070429Y-61959296D01*
X45758892Y-61877616D01*
X45437405Y-61858282D01*
X45118325Y-61902039D01*
X44813912Y-62007205D01*
X44639956Y-62100186D01*
X44544192Y-62364587D01*
X42122497Y-62364587D01*
X42089502Y-62255820D01*
X42030537Y-62145506D01*
X41951185Y-62048815D01*
X41854494Y-61969463D01*
X41744180Y-61910498D01*
X41624482Y-61874188D01*
X41500000Y-61861928D01*
X41260000Y-61861928D01*
X41260000Y-58398061D01*
X45965000Y-58398061D01*
X45965000Y-58601939D01*
X46004774Y-58801898D01*
X46082795Y-58990256D01*
X46196063Y-59159774D01*
X46340226Y-59303937D01*
X46509744Y-59417205D01*
X46698102Y-59495226D01*
X46754957Y-59506535D01*
X51773471Y-64525050D01*
X51801184Y-64558818D01*
X51834952Y-64586531D01*
X51834954Y-64586533D01*
X51881195Y-64624482D01*
X51935942Y-64669412D01*
X52089688Y-64751590D01*
X52256511Y-64802196D01*
X52386524Y-64815001D01*
X52386534Y-64815001D01*
X52430000Y-64819282D01*
X52473467Y-64815001D01*
X99876530Y-64815001D01*
X99919999Y-64819282D01*
X99963468Y-64815001D01*
X99963476Y-64815001D01*
X100093489Y-64802196D01*
X100260312Y-64751590D01*
X100414058Y-64669412D01*
X100548816Y-64558818D01*
X100576533Y-64525045D01*
X100986578Y-64115000D01*
X101256411Y-64115000D01*
X101523989Y-64061775D01*
X101776043Y-63957371D01*
X102002886Y-63805799D01*
X102195799Y-63612886D01*
X102347371Y-63386043D01*
X102451775Y-63133989D01*
X102505000Y-62866411D01*
X102505000Y-62593589D01*
X102451775Y-62326011D01*
X102347371Y-62073957D01*
X102195799Y-61847114D01*
X102090132Y-61741447D01*
X102256578Y-61575000D01*
X102526411Y-61575000D01*
X102793989Y-61521775D01*
X103046043Y-61417371D01*
X103272886Y-61265799D01*
X103465799Y-61072886D01*
X103617371Y-60846043D01*
X103721775Y-60593989D01*
X103775000Y-60326411D01*
X103775000Y-60053589D01*
X103721775Y-59786011D01*
X103617371Y-59533957D01*
X103465799Y-59307114D01*
X103272886Y-59114201D01*
X103046043Y-58962629D01*
X102793989Y-58858225D01*
X102526411Y-58805000D01*
X102253589Y-58805000D01*
X101986011Y-58858225D01*
X101733957Y-58962629D01*
X101507114Y-59114201D01*
X101314201Y-59307114D01*
X101162629Y-59533957D01*
X101120000Y-59636873D01*
X101077371Y-59533957D01*
X100925799Y-59307114D01*
X100732886Y-59114201D01*
X100506043Y-58962629D01*
X100253989Y-58858225D01*
X99986411Y-58805000D01*
X99713589Y-58805000D01*
X99446011Y-58858225D01*
X99193957Y-58962629D01*
X98967114Y-59114201D01*
X98774201Y-59307114D01*
X98622629Y-59533957D01*
X98581489Y-59633279D01*
X98566277Y-59591168D01*
X98505860Y-59478137D01*
X98266993Y-59412612D01*
X97489605Y-60190000D01*
X97503748Y-60204143D01*
X97324143Y-60383748D01*
X97310000Y-60369605D01*
X97295858Y-60383748D01*
X97116253Y-60204143D01*
X97130395Y-60190000D01*
X96353007Y-59412612D01*
X96114140Y-59478137D01*
X96039836Y-59636477D01*
X95997371Y-59533957D01*
X95845799Y-59307114D01*
X95771692Y-59233007D01*
X96532612Y-59233007D01*
X97310000Y-60010395D01*
X98087388Y-59233007D01*
X98021863Y-58994140D01*
X97774884Y-58878240D01*
X97510040Y-58812750D01*
X97237508Y-58800188D01*
X96967762Y-58841035D01*
X96711168Y-58933723D01*
X96598137Y-58994140D01*
X96532612Y-59233007D01*
X95771692Y-59233007D01*
X95652886Y-59114201D01*
X95426043Y-58962629D01*
X95173989Y-58858225D01*
X94906411Y-58805000D01*
X94633589Y-58805000D01*
X94366011Y-58858225D01*
X94113957Y-58962629D01*
X93887114Y-59114201D01*
X93694201Y-59307114D01*
X93542629Y-59533957D01*
X93438225Y-59786011D01*
X93385000Y-60053589D01*
X93385000Y-60326411D01*
X93438225Y-60593989D01*
X93446928Y-60615000D01*
X84237871Y-60615000D01*
X84280518Y-60580000D01*
X85012037Y-60580000D01*
X85257377Y-60555836D01*
X85572173Y-60460344D01*
X85862291Y-60305273D01*
X86116582Y-60096582D01*
X86325273Y-59842291D01*
X86480344Y-59552173D01*
X86575836Y-59237377D01*
X86608080Y-58910000D01*
X86575836Y-58582623D01*
X86480344Y-58267827D01*
X86325273Y-57977709D01*
X86116582Y-57723418D01*
X85862291Y-57514727D01*
X85572173Y-57359656D01*
X85257377Y-57264164D01*
X85012037Y-57240000D01*
X84280518Y-57240000D01*
X84141881Y-57126223D01*
X83770982Y-56927974D01*
X83368533Y-56805892D01*
X83054882Y-56775000D01*
X81844346Y-56775000D01*
X78610874Y-53541529D01*
X78658075Y-53385925D01*
X79345204Y-53385925D01*
X79378520Y-53521749D01*
X79510888Y-53822206D01*
X79699329Y-54091066D01*
X79936601Y-54317997D01*
X80213586Y-54494278D01*
X80519639Y-54613135D01*
X80843000Y-54670000D01*
X82823000Y-54670000D01*
X82823000Y-53127000D01*
X83077000Y-53127000D01*
X83077000Y-54670000D01*
X85057000Y-54670000D01*
X85380361Y-54613135D01*
X85686414Y-54494278D01*
X85963399Y-54317997D01*
X86200671Y-54091066D01*
X86389112Y-53822206D01*
X86521480Y-53521749D01*
X86554796Y-53385925D01*
X86435904Y-53127000D01*
X83077000Y-53127000D01*
X82823000Y-53127000D01*
X79464096Y-53127000D01*
X79345204Y-53385925D01*
X78658075Y-53385925D01*
X78675836Y-53327377D01*
X78708080Y-53000000D01*
X78675836Y-52672623D01*
X78658076Y-52614075D01*
X79345204Y-52614075D01*
X79464096Y-52873000D01*
X82823000Y-52873000D01*
X82823000Y-51330000D01*
X83077000Y-51330000D01*
X83077000Y-52873000D01*
X86435904Y-52873000D01*
X86554796Y-52614075D01*
X86521480Y-52478251D01*
X86389112Y-52177794D01*
X86200671Y-51908934D01*
X85963399Y-51682003D01*
X85686414Y-51505722D01*
X85380361Y-51386865D01*
X85057000Y-51330000D01*
X83077000Y-51330000D01*
X82823000Y-51330000D01*
X80843000Y-51330000D01*
X80519639Y-51386865D01*
X80213586Y-51505722D01*
X79936601Y-51682003D01*
X79699329Y-51908934D01*
X79510888Y-52177794D01*
X79378520Y-52478251D01*
X79345204Y-52614075D01*
X78658076Y-52614075D01*
X78580344Y-52357827D01*
X78425273Y-52067709D01*
X78216582Y-51813418D01*
X77962291Y-51604727D01*
X77672173Y-51449656D01*
X77357377Y-51354164D01*
X77112037Y-51330000D01*
X76380518Y-51330000D01*
X76241881Y-51216223D01*
X75870982Y-51017974D01*
X75468533Y-50895892D01*
X75154882Y-50865000D01*
X75154872Y-50865000D01*
X75050000Y-50854671D01*
X74945128Y-50865000D01*
X63384346Y-50865000D01*
X58317407Y-45798061D01*
X65365000Y-45798061D01*
X65365000Y-46001939D01*
X65404774Y-46201898D01*
X65482795Y-46390256D01*
X65596063Y-46559774D01*
X65740226Y-46703937D01*
X65909744Y-46817205D01*
X66098102Y-46895226D01*
X66154957Y-46906535D01*
X66843470Y-47595049D01*
X66871183Y-47628817D01*
X66904951Y-47656530D01*
X66904953Y-47656532D01*
X67005941Y-47739411D01*
X67159687Y-47821589D01*
X67275903Y-47856843D01*
X67326509Y-47872195D01*
X67341306Y-47873652D01*
X67456523Y-47885000D01*
X67456531Y-47885000D01*
X67500000Y-47889281D01*
X67543469Y-47885000D01*
X83933422Y-47885000D01*
X89993465Y-53945044D01*
X90004774Y-54001898D01*
X90082795Y-54190256D01*
X90196063Y-54359774D01*
X90340226Y-54503937D01*
X90509744Y-54617205D01*
X90698102Y-54695226D01*
X90898061Y-54735000D01*
X91101939Y-54735000D01*
X91301898Y-54695226D01*
X91490256Y-54617205D01*
X91659774Y-54503937D01*
X91803937Y-54359774D01*
X91917205Y-54190256D01*
X91995226Y-54001898D01*
X92035000Y-53801939D01*
X92035000Y-53598061D01*
X91995226Y-53398102D01*
X91917205Y-53209744D01*
X91803937Y-53040226D01*
X91659774Y-52896063D01*
X91490256Y-52782795D01*
X91301898Y-52704774D01*
X91245044Y-52693465D01*
X84956534Y-46404956D01*
X84928817Y-46371183D01*
X84794059Y-46260589D01*
X84640313Y-46178411D01*
X84473490Y-46127805D01*
X84343477Y-46115000D01*
X84343469Y-46115000D01*
X84300000Y-46110719D01*
X84256531Y-46115000D01*
X67866579Y-46115000D01*
X67406535Y-45654957D01*
X67395226Y-45598102D01*
X67317205Y-45409744D01*
X67203937Y-45240226D01*
X67059774Y-45096063D01*
X66890256Y-44982795D01*
X66701898Y-44904774D01*
X66501939Y-44865000D01*
X66298061Y-44865000D01*
X66098102Y-44904774D01*
X65909744Y-44982795D01*
X65740226Y-45096063D01*
X65596063Y-45240226D01*
X65482795Y-45409744D01*
X65404774Y-45598102D01*
X65365000Y-45798061D01*
X58317407Y-45798061D01*
X56935510Y-44416165D01*
X56691881Y-44216224D01*
X56320982Y-44017975D01*
X55918533Y-43895893D01*
X55500000Y-43854671D01*
X55081467Y-43895893D01*
X54679018Y-44017975D01*
X54308119Y-44216224D01*
X53983023Y-44483023D01*
X53716224Y-44808119D01*
X53517975Y-45179018D01*
X53395893Y-45581467D01*
X53354671Y-46000000D01*
X53395893Y-46418533D01*
X53517975Y-46820982D01*
X53716224Y-47191881D01*
X53916165Y-47435510D01*
X60916167Y-54435513D01*
X60983023Y-54516977D01*
X61064487Y-54583833D01*
X61064489Y-54583835D01*
X61236338Y-54724868D01*
X61308119Y-54783777D01*
X61480768Y-54876060D01*
X61679017Y-54982026D01*
X61722532Y-54995226D01*
X62081467Y-55104108D01*
X62395118Y-55135000D01*
X62395128Y-55135000D01*
X62500000Y-55145329D01*
X62604872Y-55135000D01*
X74165655Y-55135000D01*
X76270655Y-57240000D01*
X75177000Y-57240000D01*
X75177000Y-58783000D01*
X75197000Y-58783000D01*
X75197000Y-59037000D01*
X75177000Y-59037000D01*
X75177000Y-60580000D01*
X77157000Y-60580000D01*
X77480361Y-60523135D01*
X77786414Y-60404278D01*
X78063399Y-60227997D01*
X78300671Y-60001066D01*
X78489112Y-59732206D01*
X78572831Y-59542176D01*
X79376167Y-60345513D01*
X79443023Y-60426977D01*
X79524487Y-60493833D01*
X79524489Y-60493835D01*
X79646527Y-60593989D01*
X79672129Y-60615000D01*
X57866579Y-60615000D01*
X56547504Y-59295925D01*
X71445204Y-59295925D01*
X71478520Y-59431749D01*
X71610888Y-59732206D01*
X71799329Y-60001066D01*
X72036601Y-60227997D01*
X72313586Y-60404278D01*
X72619639Y-60523135D01*
X72943000Y-60580000D01*
X74923000Y-60580000D01*
X74923000Y-59037000D01*
X71564096Y-59037000D01*
X71445204Y-59295925D01*
X56547504Y-59295925D01*
X55775654Y-58524075D01*
X71445204Y-58524075D01*
X71564096Y-58783000D01*
X74923000Y-58783000D01*
X74923000Y-57240000D01*
X72943000Y-57240000D01*
X72619639Y-57296865D01*
X72313586Y-57415722D01*
X72036601Y-57592003D01*
X71799329Y-57818934D01*
X71610888Y-58087794D01*
X71478520Y-58388251D01*
X71445204Y-58524075D01*
X55775654Y-58524075D01*
X51006535Y-53754957D01*
X50995226Y-53698102D01*
X50917205Y-53509744D01*
X50803937Y-53340226D01*
X50659774Y-53196063D01*
X50490256Y-53082795D01*
X50301898Y-53004774D01*
X50101939Y-52965000D01*
X49898061Y-52965000D01*
X49698102Y-53004774D01*
X49509744Y-53082795D01*
X49340226Y-53196063D01*
X49196063Y-53340226D01*
X49082795Y-53509744D01*
X49004774Y-53698102D01*
X48965000Y-53898061D01*
X48965000Y-54101939D01*
X49004774Y-54301898D01*
X49082795Y-54490256D01*
X49196063Y-54659774D01*
X49340226Y-54803937D01*
X49509744Y-54917205D01*
X49698102Y-54995226D01*
X49754957Y-55006535D01*
X56843470Y-62095049D01*
X56871183Y-62128817D01*
X56904951Y-62156530D01*
X56904953Y-62156532D01*
X57001713Y-62235941D01*
X57005941Y-62239411D01*
X57159687Y-62321589D01*
X57326510Y-62372195D01*
X57456523Y-62385000D01*
X57456531Y-62385000D01*
X57500000Y-62389281D01*
X57543469Y-62385000D01*
X92111928Y-62385000D01*
X92111928Y-63045001D01*
X52796580Y-63045001D01*
X48006535Y-58254957D01*
X47995226Y-58198102D01*
X47917205Y-58009744D01*
X47803937Y-57840226D01*
X47659774Y-57696063D01*
X47490256Y-57582795D01*
X47301898Y-57504774D01*
X47101939Y-57465000D01*
X46898061Y-57465000D01*
X46698102Y-57504774D01*
X46509744Y-57582795D01*
X46340226Y-57696063D01*
X46196063Y-57840226D01*
X46082795Y-58009744D01*
X46004774Y-58198102D01*
X45965000Y-58398061D01*
X41260000Y-58398061D01*
X41260000Y-54814801D01*
X42039802Y-54035000D01*
X42101939Y-54035000D01*
X42301898Y-53995226D01*
X42490256Y-53917205D01*
X42659774Y-53803937D01*
X42803937Y-53659774D01*
X42917205Y-53490256D01*
X42995226Y-53301898D01*
X43035000Y-53101939D01*
X43035000Y-52898061D01*
X42995226Y-52698102D01*
X42917205Y-52509744D01*
X42803937Y-52340226D01*
X42659774Y-52196063D01*
X42490256Y-52082795D01*
X42301898Y-52004774D01*
X42101939Y-51965000D01*
X41898061Y-51965000D01*
X41698102Y-52004774D01*
X41509744Y-52082795D01*
X41340226Y-52196063D01*
X41196063Y-52340226D01*
X41082795Y-52509744D01*
X41004774Y-52698102D01*
X40965000Y-52898061D01*
X40965000Y-52960198D01*
X39989003Y-53936196D01*
X39959999Y-53959999D01*
X39925614Y-54001898D01*
X39865026Y-54075724D01*
X39851014Y-54101939D01*
X39794454Y-54207754D01*
X39750997Y-54351015D01*
X39740000Y-54462668D01*
X39740000Y-54462678D01*
X39736324Y-54500000D01*
X39740000Y-54537322D01*
X39740001Y-61861928D01*
X39500000Y-61861928D01*
X39375518Y-61874188D01*
X39255820Y-61910498D01*
X39145506Y-61969463D01*
X39048815Y-62048815D01*
X38969463Y-62145506D01*
X38910498Y-62255820D01*
X38874188Y-62375518D01*
X38861928Y-62500000D01*
X38160000Y-62500000D01*
X38160000Y-47135413D01*
X49544192Y-47135413D01*
X49639956Y-47399814D01*
X49929571Y-47540704D01*
X50241108Y-47622384D01*
X50562595Y-47641718D01*
X50881675Y-47597961D01*
X51186088Y-47492795D01*
X51360044Y-47399814D01*
X51455808Y-47135413D01*
X50500000Y-46179605D01*
X49544192Y-47135413D01*
X38160000Y-47135413D01*
X38160000Y-46062595D01*
X48858282Y-46062595D01*
X48902039Y-46381675D01*
X49007205Y-46686088D01*
X49100186Y-46860044D01*
X49364587Y-46955808D01*
X50320395Y-46000000D01*
X50679605Y-46000000D01*
X51635413Y-46955808D01*
X51899814Y-46860044D01*
X52040704Y-46570429D01*
X52122384Y-46258892D01*
X52141718Y-45937405D01*
X52097961Y-45618325D01*
X51992795Y-45313912D01*
X51899814Y-45139956D01*
X51635413Y-45044192D01*
X50679605Y-46000000D01*
X50320395Y-46000000D01*
X49364587Y-45044192D01*
X49100186Y-45139956D01*
X48959296Y-45429571D01*
X48877616Y-45741108D01*
X48858282Y-46062595D01*
X38160000Y-46062595D01*
X38160000Y-36532279D01*
X38169580Y-36434576D01*
X38188580Y-36371644D01*
X38219445Y-36313595D01*
X38260989Y-36262657D01*
X38311644Y-36220752D01*
X38369471Y-36189485D01*
X38432272Y-36170044D01*
X38527835Y-36160000D01*
X42769710Y-36160000D01*
X42671414Y-36307111D01*
G04 #@! TA.AperFunction,Conductor*
D25*
G36*
X42671414Y-36307111D02*
G01*
X42600932Y-36477271D01*
X42565000Y-36657911D01*
X42565000Y-36842089D01*
X42600932Y-37022729D01*
X42671414Y-37192889D01*
X42773738Y-37346028D01*
X42773785Y-37346075D01*
X42556385Y-37389319D01*
X41967653Y-37633180D01*
X41784528Y-37755540D01*
X41749068Y-37577271D01*
X41678586Y-37407111D01*
X41576262Y-37253972D01*
X41446028Y-37123738D01*
X41292889Y-37021414D01*
X41122729Y-36950932D01*
X40942089Y-36915000D01*
X40757911Y-36915000D01*
X40577271Y-36950932D01*
X40407111Y-37021414D01*
X40253972Y-37123738D01*
X40123738Y-37253972D01*
X40021414Y-37407111D01*
X39950932Y-37577271D01*
X39915000Y-37757911D01*
X39915000Y-37942089D01*
X39950932Y-38122729D01*
X40021414Y-38292889D01*
X40123738Y-38446028D01*
X40253972Y-38576262D01*
X40407111Y-38678586D01*
X40577271Y-38749068D01*
X40755540Y-38784528D01*
X40633180Y-38967653D01*
X40389319Y-39556385D01*
X40346075Y-39773785D01*
X40346028Y-39773738D01*
X40192889Y-39671414D01*
X40022729Y-39600932D01*
X39842089Y-39565000D01*
X39657911Y-39565000D01*
X39477271Y-39600932D01*
X39307111Y-39671414D01*
X39153972Y-39773738D01*
X39023738Y-39903972D01*
X38921414Y-40057111D01*
X38850932Y-40227271D01*
X38815000Y-40407911D01*
X38815000Y-40592089D01*
X38850932Y-40772729D01*
X38921414Y-40942889D01*
X39023738Y-41096028D01*
X39153972Y-41226262D01*
X39307111Y-41328586D01*
X39477271Y-41399068D01*
X39657911Y-41435000D01*
X39842089Y-41435000D01*
X40022729Y-41399068D01*
X40192889Y-41328586D01*
X40346028Y-41226262D01*
X40346075Y-41226215D01*
X40389319Y-41443615D01*
X40633180Y-42032347D01*
X40755540Y-42215472D01*
X40577271Y-42250932D01*
X40407111Y-42321414D01*
X40253972Y-42423738D01*
X40123738Y-42553972D01*
X40021414Y-42707111D01*
X39950932Y-42877271D01*
X39915000Y-43057911D01*
X39915000Y-43242089D01*
X39950932Y-43422729D01*
X40021414Y-43592889D01*
X40123738Y-43746028D01*
X40253972Y-43876262D01*
X40407111Y-43978586D01*
X40577271Y-44049068D01*
X40757911Y-44085000D01*
X40942089Y-44085000D01*
X41122729Y-44049068D01*
X41292889Y-43978586D01*
X41446028Y-43876262D01*
X41576262Y-43746028D01*
X41678586Y-43592889D01*
X41749068Y-43422729D01*
X41784528Y-43244460D01*
X41967653Y-43366820D01*
X42556385Y-43610681D01*
X42773785Y-43653925D01*
X42773738Y-43653972D01*
X42671414Y-43807111D01*
X42600932Y-43977271D01*
X42565000Y-44157911D01*
X42565000Y-44342089D01*
X42600932Y-44522729D01*
X42671414Y-44692889D01*
X42773738Y-44846028D01*
X42903972Y-44976262D01*
X43057111Y-45078586D01*
X43227271Y-45149068D01*
X43407911Y-45185000D01*
X43592089Y-45185000D01*
X43772729Y-45149068D01*
X43942889Y-45078586D01*
X44096028Y-44976262D01*
X44207703Y-44864587D01*
X49544192Y-44864587D01*
X50500000Y-45820395D01*
X51455808Y-44864587D01*
X51360044Y-44600186D01*
X51070429Y-44459296D01*
X50758892Y-44377616D01*
X50437405Y-44358282D01*
X50118325Y-44402039D01*
X49813912Y-44507205D01*
X49639956Y-44600186D01*
X49544192Y-44864587D01*
X44207703Y-44864587D01*
X44226262Y-44846028D01*
X44328586Y-44692889D01*
X44399068Y-44522729D01*
X44435000Y-44342089D01*
X44435000Y-44157911D01*
X44399068Y-43977271D01*
X44328586Y-43807111D01*
X44226262Y-43653972D01*
X44226215Y-43653925D01*
X44443615Y-43610681D01*
X45032347Y-43366820D01*
X45215472Y-43244460D01*
X45250932Y-43422729D01*
X45321414Y-43592889D01*
X45423738Y-43746028D01*
X45553972Y-43876262D01*
X45707111Y-43978586D01*
X45877271Y-44049068D01*
X46057911Y-44085000D01*
X46242089Y-44085000D01*
X46422729Y-44049068D01*
X46592889Y-43978586D01*
X46746028Y-43876262D01*
X46876262Y-43746028D01*
X46978586Y-43592889D01*
X47049068Y-43422729D01*
X47085000Y-43242089D01*
X47085000Y-43057911D01*
X47049068Y-42877271D01*
X46978586Y-42707111D01*
X46876262Y-42553972D01*
X46746028Y-42423738D01*
X46592889Y-42321414D01*
X46422729Y-42250932D01*
X46244460Y-42215472D01*
X46366820Y-42032347D01*
X46442350Y-41850000D01*
X59511928Y-41850000D01*
X59524188Y-41974482D01*
X59560498Y-42094180D01*
X59619463Y-42204494D01*
X59698815Y-42301185D01*
X59795506Y-42380537D01*
X59905820Y-42439502D01*
X60025518Y-42475812D01*
X60150000Y-42488072D01*
X60714250Y-42485000D01*
X60873000Y-42326250D01*
X60873000Y-41127000D01*
X59673750Y-41127000D01*
X59515000Y-41285750D01*
X59511928Y-41850000D01*
X46442350Y-41850000D01*
X46610681Y-41443615D01*
X46653925Y-41226215D01*
X46653972Y-41226262D01*
X46807111Y-41328586D01*
X46977271Y-41399068D01*
X47157911Y-41435000D01*
X47342089Y-41435000D01*
X47522729Y-41399068D01*
X47692889Y-41328586D01*
X47846028Y-41226262D01*
X47976262Y-41096028D01*
X48078586Y-40942889D01*
X48149068Y-40772729D01*
X48185000Y-40592089D01*
X48185000Y-40407911D01*
X48149068Y-40227271D01*
X48117062Y-40150000D01*
X59511928Y-40150000D01*
X59515000Y-40714250D01*
X59673750Y-40873000D01*
X60873000Y-40873000D01*
X60873000Y-39673750D01*
X61127000Y-39673750D01*
X61127000Y-40873000D01*
X61147000Y-40873000D01*
X61147000Y-41127000D01*
X61127000Y-41127000D01*
X61127000Y-42326250D01*
X61285750Y-42485000D01*
X61850000Y-42488072D01*
X61974482Y-42475812D01*
X62094180Y-42439502D01*
X62204494Y-42380537D01*
X62301185Y-42301185D01*
X62380537Y-42204494D01*
X62439502Y-42094180D01*
X62461513Y-42021620D01*
X62593368Y-42153475D01*
X62836589Y-42315990D01*
X63106842Y-42427932D01*
X63393740Y-42485000D01*
X63686260Y-42485000D01*
X63973158Y-42427932D01*
X64243411Y-42315990D01*
X64486632Y-42153475D01*
X64693475Y-41946632D01*
X64810000Y-41772240D01*
X64926525Y-41946632D01*
X65133368Y-42153475D01*
X65376589Y-42315990D01*
X65646842Y-42427932D01*
X65933740Y-42485000D01*
X66226260Y-42485000D01*
X66513158Y-42427932D01*
X66783411Y-42315990D01*
X67026632Y-42153475D01*
X67233475Y-41946632D01*
X67395990Y-41703411D01*
X67507932Y-41433158D01*
X67565000Y-41146260D01*
X67565000Y-40853740D01*
X67507932Y-40566842D01*
X67395990Y-40296589D01*
X67233475Y-40053368D01*
X67026632Y-39846525D01*
X66783411Y-39684010D01*
X66513158Y-39572068D01*
X66226260Y-39515000D01*
X65933740Y-39515000D01*
X65646842Y-39572068D01*
X65376589Y-39684010D01*
X65133368Y-39846525D01*
X64926525Y-40053368D01*
X64810000Y-40227760D01*
X64693475Y-40053368D01*
X64486632Y-39846525D01*
X64243411Y-39684010D01*
X63973158Y-39572068D01*
X63686260Y-39515000D01*
X63393740Y-39515000D01*
X63106842Y-39572068D01*
X62836589Y-39684010D01*
X62593368Y-39846525D01*
X62461513Y-39978380D01*
X62439502Y-39905820D01*
X62380537Y-39795506D01*
X62301185Y-39698815D01*
X62204494Y-39619463D01*
X62094180Y-39560498D01*
X61974482Y-39524188D01*
X61850000Y-39511928D01*
X61285750Y-39515000D01*
X61127000Y-39673750D01*
X60873000Y-39673750D01*
X60714250Y-39515000D01*
X60150000Y-39511928D01*
X60025518Y-39524188D01*
X59905820Y-39560498D01*
X59795506Y-39619463D01*
X59698815Y-39698815D01*
X59619463Y-39795506D01*
X59560498Y-39905820D01*
X59524188Y-40025518D01*
X59511928Y-40150000D01*
X48117062Y-40150000D01*
X48078586Y-40057111D01*
X47976262Y-39903972D01*
X47846028Y-39773738D01*
X47692889Y-39671414D01*
X47522729Y-39600932D01*
X47342089Y-39565000D01*
X47157911Y-39565000D01*
X46977271Y-39600932D01*
X46807111Y-39671414D01*
X46653972Y-39773738D01*
X46653925Y-39773785D01*
X46610681Y-39556385D01*
X46366820Y-38967653D01*
X46244460Y-38784528D01*
X46422729Y-38749068D01*
X46592889Y-38678586D01*
X46746028Y-38576262D01*
X46876262Y-38446028D01*
X46978586Y-38292889D01*
X47049068Y-38122729D01*
X47085000Y-37942089D01*
X47085000Y-37757911D01*
X47049068Y-37577271D01*
X46978586Y-37407111D01*
X46876262Y-37253972D01*
X46746028Y-37123738D01*
X46592889Y-37021414D01*
X46422729Y-36950932D01*
X46242089Y-36915000D01*
X46057911Y-36915000D01*
X45877271Y-36950932D01*
X45707111Y-37021414D01*
X45553972Y-37123738D01*
X45423738Y-37253972D01*
X45321414Y-37407111D01*
X45250932Y-37577271D01*
X45215472Y-37755540D01*
X45032347Y-37633180D01*
X44443615Y-37389319D01*
X44226215Y-37346075D01*
X44226262Y-37346028D01*
X44328586Y-37192889D01*
X44399068Y-37022729D01*
X44435000Y-36842089D01*
X44435000Y-36657911D01*
X44399068Y-36477271D01*
X44328586Y-36307111D01*
X44230290Y-36160000D01*
X99769710Y-36160000D01*
X99671414Y-36307111D01*
X99600932Y-36477271D01*
X99565000Y-36657911D01*
X99565000Y-36842089D01*
X99600932Y-37022729D01*
X99671414Y-37192889D01*
X99773738Y-37346028D01*
X99773785Y-37346075D01*
X99556385Y-37389319D01*
X98967653Y-37633180D01*
X98784528Y-37755540D01*
X98749068Y-37577271D01*
X98678586Y-37407111D01*
X98576262Y-37253972D01*
X98446028Y-37123738D01*
X98292889Y-37021414D01*
X98122729Y-36950932D01*
X97942089Y-36915000D01*
X97757911Y-36915000D01*
X97577271Y-36950932D01*
X97407111Y-37021414D01*
X97253972Y-37123738D01*
X97123738Y-37253972D01*
X97021414Y-37407111D01*
X96950932Y-37577271D01*
X96915000Y-37757911D01*
X96915000Y-37942089D01*
X96950932Y-38122729D01*
X97021414Y-38292889D01*
X97123738Y-38446028D01*
X97253972Y-38576262D01*
X97407111Y-38678586D01*
X97577271Y-38749068D01*
X97755540Y-38784528D01*
X97633180Y-38967653D01*
X97389319Y-39556385D01*
X97346075Y-39773785D01*
X97346028Y-39773738D01*
X97192889Y-39671414D01*
X97022729Y-39600932D01*
X96842089Y-39565000D01*
X96657911Y-39565000D01*
X96477271Y-39600932D01*
X96307111Y-39671414D01*
X96153972Y-39773738D01*
X96023738Y-39903972D01*
X95921414Y-40057111D01*
X95850932Y-40227271D01*
X95815000Y-40407911D01*
X95815000Y-40592089D01*
X95850932Y-40772729D01*
X95921414Y-40942889D01*
X96023738Y-41096028D01*
X96153972Y-41226262D01*
X96307111Y-41328586D01*
X96477271Y-41399068D01*
X96657911Y-41435000D01*
X96842089Y-41435000D01*
X97022729Y-41399068D01*
X97192889Y-41328586D01*
X97346028Y-41226262D01*
X97346075Y-41226215D01*
X97389319Y-41443615D01*
X97633180Y-42032347D01*
X97755540Y-42215472D01*
X97577271Y-42250932D01*
X97407111Y-42321414D01*
X97253972Y-42423738D01*
X97123738Y-42553972D01*
X97021414Y-42707111D01*
X96950932Y-42877271D01*
X96915000Y-43057911D01*
X96915000Y-43242089D01*
X96950932Y-43422729D01*
X97021414Y-43592889D01*
X97123738Y-43746028D01*
X97253972Y-43876262D01*
X97407111Y-43978586D01*
X97577271Y-44049068D01*
X97757911Y-44085000D01*
X97942089Y-44085000D01*
X98122729Y-44049068D01*
X98292889Y-43978586D01*
X98446028Y-43876262D01*
X98576262Y-43746028D01*
X98678586Y-43592889D01*
X98749068Y-43422729D01*
X98784528Y-43244460D01*
X98967653Y-43366820D01*
X99556385Y-43610681D01*
X99773785Y-43653925D01*
X99773738Y-43653972D01*
X99671414Y-43807111D01*
X99600932Y-43977271D01*
X99565000Y-44157911D01*
X99565000Y-44342089D01*
X99600932Y-44522729D01*
X99671414Y-44692889D01*
X99773738Y-44846028D01*
X99903972Y-44976262D01*
X100057111Y-45078586D01*
X100227271Y-45149068D01*
X100407911Y-45185000D01*
X100592089Y-45185000D01*
X100772729Y-45149068D01*
X100942889Y-45078586D01*
X101096028Y-44976262D01*
X101226262Y-44846028D01*
X101328586Y-44692889D01*
X101399068Y-44522729D01*
X101435000Y-44342089D01*
X101435000Y-44157911D01*
X101399068Y-43977271D01*
X101328586Y-43807111D01*
X101226262Y-43653972D01*
X101226215Y-43653925D01*
X101443615Y-43610681D01*
X102032347Y-43366820D01*
X102215472Y-43244460D01*
X102250932Y-43422729D01*
X102321414Y-43592889D01*
X102423738Y-43746028D01*
X102553972Y-43876262D01*
X102707111Y-43978586D01*
X102877271Y-44049068D01*
X103057911Y-44085000D01*
X103242089Y-44085000D01*
X103422729Y-44049068D01*
X103592889Y-43978586D01*
X103746028Y-43876262D01*
X103876262Y-43746028D01*
X103978586Y-43592889D01*
X104049068Y-43422729D01*
X104085000Y-43242089D01*
X104085000Y-43057911D01*
X104049068Y-42877271D01*
X103978586Y-42707111D01*
X103876262Y-42553972D01*
X103746028Y-42423738D01*
X103592889Y-42321414D01*
X103422729Y-42250932D01*
X103244460Y-42215472D01*
X103366820Y-42032347D01*
X103610681Y-41443615D01*
X103653925Y-41226215D01*
X103653972Y-41226262D01*
X103807111Y-41328586D01*
X103977271Y-41399068D01*
X104157911Y-41435000D01*
X104342089Y-41435000D01*
X104522729Y-41399068D01*
X104692889Y-41328586D01*
X104846028Y-41226262D01*
X104976262Y-41096028D01*
X105078586Y-40942889D01*
X105149068Y-40772729D01*
X105185000Y-40592089D01*
X105185000Y-40407911D01*
X105149068Y-40227271D01*
X105078586Y-40057111D01*
X104976262Y-39903972D01*
X104846028Y-39773738D01*
X104692889Y-39671414D01*
X104522729Y-39600932D01*
X104342089Y-39565000D01*
X104157911Y-39565000D01*
X103977271Y-39600932D01*
X103807111Y-39671414D01*
X103653972Y-39773738D01*
X103653925Y-39773785D01*
X103610681Y-39556385D01*
X103366820Y-38967653D01*
X103244460Y-38784528D01*
X103422729Y-38749068D01*
X103592889Y-38678586D01*
X103746028Y-38576262D01*
X103876262Y-38446028D01*
X103978586Y-38292889D01*
X104049068Y-38122729D01*
X104085000Y-37942089D01*
X104085000Y-37757911D01*
X104049068Y-37577271D01*
X103978586Y-37407111D01*
X103876262Y-37253972D01*
X103746028Y-37123738D01*
X103592889Y-37021414D01*
X103422729Y-36950932D01*
X103242089Y-36915000D01*
X103057911Y-36915000D01*
X102877271Y-36950932D01*
X102707111Y-37021414D01*
X102553972Y-37123738D01*
X102423738Y-37253972D01*
X102321414Y-37407111D01*
X102250932Y-37577271D01*
X102215472Y-37755540D01*
X102032347Y-37633180D01*
X101443615Y-37389319D01*
X101226215Y-37346075D01*
X101226262Y-37346028D01*
X101328586Y-37192889D01*
X101399068Y-37022729D01*
X101435000Y-36842089D01*
X101435000Y-36657911D01*
X101399068Y-36477271D01*
X101328586Y-36307111D01*
X101230290Y-36160000D01*
X105467721Y-36160000D01*
X105565424Y-36169580D01*
X105628356Y-36188580D01*
X105686405Y-36219445D01*
X105737343Y-36260989D01*
X105779248Y-36311644D01*
X105810515Y-36369471D01*
X105829956Y-36432272D01*
X105840001Y-36527845D01*
X105840000Y-68583370D01*
X105809110Y-68428075D01*
X105640631Y-68021331D01*
X105396038Y-67655271D01*
X105084729Y-67343962D01*
X104718669Y-67099369D01*
X104311925Y-66930890D01*
X103880128Y-66845000D01*
X103439872Y-66845000D01*
X103008075Y-66930890D01*
X102601331Y-67099369D01*
X102235271Y-67343962D01*
X101923962Y-67655271D01*
X101679369Y-68021331D01*
X101510890Y-68428075D01*
X101425000Y-68859872D01*
X101425000Y-69300128D01*
X101510890Y-69731925D01*
X101679369Y-70138669D01*
X101923962Y-70504729D01*
X102235271Y-70816038D01*
X102601331Y-71060631D01*
X103008075Y-71229110D01*
X103439872Y-71315000D01*
X103880128Y-71315000D01*
X104311925Y-71229110D01*
X104718669Y-71060631D01*
X105084729Y-70816038D01*
X105396038Y-70504729D01*
X105640631Y-70138669D01*
X105809110Y-69731925D01*
X105840000Y-69576630D01*
X105840000Y-76467721D01*
X105830420Y-76565424D01*
X105811420Y-76628357D01*
X105780554Y-76686406D01*
X105739011Y-76737343D01*
X105688356Y-76779248D01*
X105630529Y-76810515D01*
X105567728Y-76829956D01*
X105472165Y-76840000D01*
X38532279Y-76840000D01*
X38434576Y-76830420D01*
X38371643Y-76811420D01*
X38313594Y-76780554D01*
X38262657Y-76739011D01*
X38220752Y-76688356D01*
X38189485Y-76630529D01*
X38170044Y-76567728D01*
X38160000Y-76472165D01*
X38160000Y-71853740D01*
X38435000Y-71853740D01*
X38435000Y-72146260D01*
X38492068Y-72433158D01*
X38604010Y-72703411D01*
X38766525Y-72946632D01*
X38973368Y-73153475D01*
X39216589Y-73315990D01*
X39486842Y-73427932D01*
X39773740Y-73485000D01*
X40066260Y-73485000D01*
X40353158Y-73427932D01*
X40623411Y-73315990D01*
X40866632Y-73153475D01*
X41073475Y-72946632D01*
X41190000Y-72772240D01*
X41306525Y-72946632D01*
X41513368Y-73153475D01*
X41756589Y-73315990D01*
X42026842Y-73427932D01*
X42313740Y-73485000D01*
X42606260Y-73485000D01*
X42893158Y-73427932D01*
X43163411Y-73315990D01*
X43406632Y-73153475D01*
X43538487Y-73021620D01*
X43560498Y-73094180D01*
X43619463Y-73204494D01*
X43698815Y-73301185D01*
X43795506Y-73380537D01*
X43905820Y-73439502D01*
X44025518Y-73475812D01*
X44150000Y-73488072D01*
X44714250Y-73485000D01*
X44873000Y-73326250D01*
X44873000Y-72127000D01*
X45127000Y-72127000D01*
X45127000Y-73326250D01*
X45285750Y-73485000D01*
X45850000Y-73488072D01*
X45974482Y-73475812D01*
X46094180Y-73439502D01*
X46204494Y-73380537D01*
X46301185Y-73301185D01*
X46380537Y-73204494D01*
X46439502Y-73094180D01*
X46475812Y-72974482D01*
X46488072Y-72850000D01*
X46485000Y-72285750D01*
X46326250Y-72127000D01*
X45127000Y-72127000D01*
X44873000Y-72127000D01*
X44853000Y-72127000D01*
X44853000Y-71873000D01*
X44873000Y-71873000D01*
X44873000Y-70673750D01*
X45127000Y-70673750D01*
X45127000Y-71873000D01*
X46326250Y-71873000D01*
X46345510Y-71853740D01*
X48935000Y-71853740D01*
X48935000Y-72146260D01*
X48992068Y-72433158D01*
X49104010Y-72703411D01*
X49266525Y-72946632D01*
X49473368Y-73153475D01*
X49716589Y-73315990D01*
X49986842Y-73427932D01*
X50273740Y-73485000D01*
X50566260Y-73485000D01*
X50853158Y-73427932D01*
X51123411Y-73315990D01*
X51366632Y-73153475D01*
X51573475Y-72946632D01*
X51690000Y-72772240D01*
X51806525Y-72946632D01*
X52013368Y-73153475D01*
X52256589Y-73315990D01*
X52526842Y-73427932D01*
X52813740Y-73485000D01*
X53106260Y-73485000D01*
X53393158Y-73427932D01*
X53663411Y-73315990D01*
X53906632Y-73153475D01*
X54038487Y-73021620D01*
X54060498Y-73094180D01*
X54119463Y-73204494D01*
X54198815Y-73301185D01*
X54295506Y-73380537D01*
X54405820Y-73439502D01*
X54525518Y-73475812D01*
X54650000Y-73488072D01*
X55214250Y-73485000D01*
X55373000Y-73326250D01*
X55373000Y-72127000D01*
X55627000Y-72127000D01*
X55627000Y-73326250D01*
X55785750Y-73485000D01*
X56350000Y-73488072D01*
X56474482Y-73475812D01*
X56594180Y-73439502D01*
X56704494Y-73380537D01*
X56801185Y-73301185D01*
X56880537Y-73204494D01*
X56939502Y-73094180D01*
X56975812Y-72974482D01*
X56988072Y-72850000D01*
X56985000Y-72285750D01*
X56826250Y-72127000D01*
X55627000Y-72127000D01*
X55373000Y-72127000D01*
X55353000Y-72127000D01*
X55353000Y-71873000D01*
X55373000Y-71873000D01*
X55373000Y-70673750D01*
X55627000Y-70673750D01*
X55627000Y-71873000D01*
X56826250Y-71873000D01*
X56845510Y-71853740D01*
X59435000Y-71853740D01*
X59435000Y-72146260D01*
X59492068Y-72433158D01*
X59604010Y-72703411D01*
X59766525Y-72946632D01*
X59973368Y-73153475D01*
X60035001Y-73194657D01*
X60035001Y-74025128D01*
X60004774Y-74098102D01*
X59965000Y-74298061D01*
X59965000Y-74501939D01*
X60004774Y-74701898D01*
X60082795Y-74890256D01*
X60196063Y-75059774D01*
X60340226Y-75203937D01*
X60509744Y-75317205D01*
X60698102Y-75395226D01*
X60898061Y-75435000D01*
X61101939Y-75435000D01*
X61301898Y-75395226D01*
X61490256Y-75317205D01*
X61659774Y-75203937D01*
X61803937Y-75059774D01*
X61917205Y-74890256D01*
X61995226Y-74701898D01*
X62035000Y-74501939D01*
X62035000Y-74298061D01*
X61995226Y-74098102D01*
X61917205Y-73909744D01*
X61805000Y-73741817D01*
X61805000Y-73194656D01*
X61866632Y-73153475D01*
X62073475Y-72946632D01*
X62190000Y-72772240D01*
X62306525Y-72946632D01*
X62513368Y-73153475D01*
X62756589Y-73315990D01*
X63026842Y-73427932D01*
X63313740Y-73485000D01*
X63606260Y-73485000D01*
X63893158Y-73427932D01*
X64163411Y-73315990D01*
X64406632Y-73153475D01*
X64538487Y-73021620D01*
X64560498Y-73094180D01*
X64619463Y-73204494D01*
X64698815Y-73301185D01*
X64795506Y-73380537D01*
X64905820Y-73439502D01*
X65025518Y-73475812D01*
X65150000Y-73488072D01*
X65714250Y-73485000D01*
X65873000Y-73326250D01*
X65873000Y-72127000D01*
X66127000Y-72127000D01*
X66127000Y-73326250D01*
X66285750Y-73485000D01*
X66850000Y-73488072D01*
X66974482Y-73475812D01*
X67094180Y-73439502D01*
X67204494Y-73380537D01*
X67301185Y-73301185D01*
X67380537Y-73204494D01*
X67439502Y-73094180D01*
X67475812Y-72974482D01*
X67488072Y-72850000D01*
X67485000Y-72285750D01*
X67326250Y-72127000D01*
X66127000Y-72127000D01*
X65873000Y-72127000D01*
X65853000Y-72127000D01*
X65853000Y-71873000D01*
X65873000Y-71873000D01*
X65873000Y-70673750D01*
X66127000Y-70673750D01*
X66127000Y-71873000D01*
X67326250Y-71873000D01*
X67485000Y-71714250D01*
X67488072Y-71150000D01*
X67475812Y-71025518D01*
X67439502Y-70905820D01*
X67380537Y-70795506D01*
X67301185Y-70698815D01*
X67204494Y-70619463D01*
X67094180Y-70560498D01*
X66974482Y-70524188D01*
X66850000Y-70511928D01*
X66285750Y-70515000D01*
X66127000Y-70673750D01*
X65873000Y-70673750D01*
X65714250Y-70515000D01*
X65150000Y-70511928D01*
X65025518Y-70524188D01*
X64905820Y-70560498D01*
X64795506Y-70619463D01*
X64698815Y-70698815D01*
X64619463Y-70795506D01*
X64560498Y-70905820D01*
X64538487Y-70978380D01*
X64406632Y-70846525D01*
X64163411Y-70684010D01*
X63893158Y-70572068D01*
X63606260Y-70515000D01*
X63313740Y-70515000D01*
X63026842Y-70572068D01*
X62756589Y-70684010D01*
X62513368Y-70846525D01*
X62306525Y-71053368D01*
X62190000Y-71227760D01*
X62073475Y-71053368D01*
X61866632Y-70846525D01*
X61623411Y-70684010D01*
X61353158Y-70572068D01*
X61066260Y-70515000D01*
X60773740Y-70515000D01*
X60486842Y-70572068D01*
X60216589Y-70684010D01*
X59973368Y-70846525D01*
X59766525Y-71053368D01*
X59604010Y-71296589D01*
X59492068Y-71566842D01*
X59435000Y-71853740D01*
X56845510Y-71853740D01*
X56985000Y-71714250D01*
X56988072Y-71150000D01*
X56975812Y-71025518D01*
X56939502Y-70905820D01*
X56880537Y-70795506D01*
X56801185Y-70698815D01*
X56704494Y-70619463D01*
X56594180Y-70560498D01*
X56474482Y-70524188D01*
X56350000Y-70511928D01*
X55785750Y-70515000D01*
X55627000Y-70673750D01*
X55373000Y-70673750D01*
X55214250Y-70515000D01*
X54650000Y-70511928D01*
X54525518Y-70524188D01*
X54405820Y-70560498D01*
X54295506Y-70619463D01*
X54198815Y-70698815D01*
X54119463Y-70795506D01*
X54060498Y-70905820D01*
X54038487Y-70978380D01*
X53906632Y-70846525D01*
X53663411Y-70684010D01*
X53393158Y-70572068D01*
X53106260Y-70515000D01*
X52813740Y-70515000D01*
X52526842Y-70572068D01*
X52256589Y-70684010D01*
X52013368Y-70846525D01*
X51806525Y-71053368D01*
X51690000Y-71227760D01*
X51573475Y-71053368D01*
X51366632Y-70846525D01*
X51123411Y-70684010D01*
X50853158Y-70572068D01*
X50566260Y-70515000D01*
X50273740Y-70515000D01*
X49986842Y-70572068D01*
X49716589Y-70684010D01*
X49473368Y-70846525D01*
X49266525Y-71053368D01*
X49104010Y-71296589D01*
X48992068Y-71566842D01*
X48935000Y-71853740D01*
X46345510Y-71853740D01*
X46485000Y-71714250D01*
X46488072Y-71150000D01*
X46475812Y-71025518D01*
X46439502Y-70905820D01*
X46380537Y-70795506D01*
X46301185Y-70698815D01*
X46204494Y-70619463D01*
X46094180Y-70560498D01*
X45974482Y-70524188D01*
X45850000Y-70511928D01*
X45285750Y-70515000D01*
X45127000Y-70673750D01*
X44873000Y-70673750D01*
X44714250Y-70515000D01*
X44150000Y-70511928D01*
X44025518Y-70524188D01*
X43905820Y-70560498D01*
X43795506Y-70619463D01*
X43698815Y-70698815D01*
X43619463Y-70795506D01*
X43560498Y-70905820D01*
X43538487Y-70978380D01*
X43406632Y-70846525D01*
X43163411Y-70684010D01*
X42893158Y-70572068D01*
X42606260Y-70515000D01*
X42313740Y-70515000D01*
X42026842Y-70572068D01*
X41756589Y-70684010D01*
X41513368Y-70846525D01*
X41306525Y-71053368D01*
X41190000Y-71227760D01*
X41073475Y-71053368D01*
X40866632Y-70846525D01*
X40623411Y-70684010D01*
X40353158Y-70572068D01*
X40066260Y-70515000D01*
X39773740Y-70515000D01*
X39486842Y-70572068D01*
X39216589Y-70684010D01*
X38973368Y-70846525D01*
X38766525Y-71053368D01*
X38604010Y-71296589D01*
X38492068Y-71566842D01*
X38435000Y-71853740D01*
X38160000Y-71853740D01*
X38160000Y-68859872D01*
X89995000Y-68859872D01*
X89995000Y-69300128D01*
X90080890Y-69731925D01*
X90249369Y-70138669D01*
X90493962Y-70504729D01*
X90805271Y-70816038D01*
X91171331Y-71060631D01*
X91578075Y-71229110D01*
X92009872Y-71315000D01*
X92450128Y-71315000D01*
X92881925Y-71229110D01*
X93288669Y-71060631D01*
X93654729Y-70816038D01*
X93966038Y-70504729D01*
X94210631Y-70138669D01*
X94379110Y-69731925D01*
X94465000Y-69300128D01*
X94465000Y-68859872D01*
X94379110Y-68428075D01*
X94210631Y-68021331D01*
X93966038Y-67655271D01*
X93654729Y-67343962D01*
X93288669Y-67099369D01*
X92881925Y-66930890D01*
X92450128Y-66845000D01*
X92009872Y-66845000D01*
X91578075Y-66930890D01*
X91171331Y-67099369D01*
X90805271Y-67343962D01*
X90493962Y-67655271D01*
X90249369Y-68021331D01*
X90080890Y-68428075D01*
X89995000Y-68859872D01*
X38160000Y-68859872D01*
X38160000Y-62500000D01*
X38861928Y-62500000D01*
X38861928Y-64500000D01*
X38874188Y-64624482D01*
X38910498Y-64744180D01*
X38969463Y-64854494D01*
X39048815Y-64951185D01*
X39145506Y-65030537D01*
X39255820Y-65089502D01*
X39375518Y-65125812D01*
X39500000Y-65138072D01*
X41500000Y-65138072D01*
X41624482Y-65125812D01*
X41744180Y-65089502D01*
X41854494Y-65030537D01*
X41951185Y-64951185D01*
X42030537Y-64854494D01*
X42089502Y-64744180D01*
X42122496Y-64635413D01*
X44544192Y-64635413D01*
X44639956Y-64899814D01*
X44929571Y-65040704D01*
X45241108Y-65122384D01*
X45562595Y-65141718D01*
X45881675Y-65097961D01*
X46186088Y-64992795D01*
X46360044Y-64899814D01*
X46455808Y-64635413D01*
X45500000Y-63679605D01*
X44544192Y-64635413D01*
X42122496Y-64635413D01*
X42125812Y-64624482D01*
X42138072Y-64500000D01*
X42138072Y-63562595D01*
X43858282Y-63562595D01*
X43902039Y-63881675D01*
X44007205Y-64186088D01*
X44100186Y-64360044D01*
X44364587Y-64455808D01*
X45320395Y-63500000D01*
X45679605Y-63500000D01*
X46635413Y-64455808D01*
X46899814Y-64360044D01*
X47040704Y-64070429D01*
X47122384Y-63758892D01*
X47141718Y-63437405D01*
X47097961Y-63118325D01*
X46992795Y-62813912D01*
X46899814Y-62639956D01*
X46635413Y-62544192D01*
X45679605Y-63500000D01*
X45320395Y-63500000D01*
X44364587Y-62544192D01*
X44100186Y-62639956D01*
X43959296Y-62929571D01*
X43877616Y-63241108D01*
X43858282Y-63562595D01*
X42138072Y-63562595D01*
X42138072Y-62500000D01*
X42125812Y-62375518D01*
X42122497Y-62364587D01*
X44544192Y-62364587D01*
X45500000Y-63320395D01*
X46455808Y-62364587D01*
X46360044Y-62100186D01*
X46070429Y-61959296D01*
X45758892Y-61877616D01*
X45437405Y-61858282D01*
X45118325Y-61902039D01*
X44813912Y-62007205D01*
X44639956Y-62100186D01*
X44544192Y-62364587D01*
X42122497Y-62364587D01*
X42089502Y-62255820D01*
X42030537Y-62145506D01*
X41951185Y-62048815D01*
X41854494Y-61969463D01*
X41744180Y-61910498D01*
X41624482Y-61874188D01*
X41500000Y-61861928D01*
X41260000Y-61861928D01*
X41260000Y-58398061D01*
X45965000Y-58398061D01*
X45965000Y-58601939D01*
X46004774Y-58801898D01*
X46082795Y-58990256D01*
X46196063Y-59159774D01*
X46340226Y-59303937D01*
X46509744Y-59417205D01*
X46698102Y-59495226D01*
X46754957Y-59506535D01*
X51773471Y-64525050D01*
X51801184Y-64558818D01*
X51834952Y-64586531D01*
X51834954Y-64586533D01*
X51881195Y-64624482D01*
X51935942Y-64669412D01*
X52089688Y-64751590D01*
X52256511Y-64802196D01*
X52386524Y-64815001D01*
X52386534Y-64815001D01*
X52430000Y-64819282D01*
X52473467Y-64815001D01*
X99876530Y-64815001D01*
X99919999Y-64819282D01*
X99963468Y-64815001D01*
X99963476Y-64815001D01*
X100093489Y-64802196D01*
X100260312Y-64751590D01*
X100414058Y-64669412D01*
X100548816Y-64558818D01*
X100576533Y-64525045D01*
X100986578Y-64115000D01*
X101256411Y-64115000D01*
X101523989Y-64061775D01*
X101776043Y-63957371D01*
X102002886Y-63805799D01*
X102195799Y-63612886D01*
X102347371Y-63386043D01*
X102451775Y-63133989D01*
X102505000Y-62866411D01*
X102505000Y-62593589D01*
X102451775Y-62326011D01*
X102347371Y-62073957D01*
X102195799Y-61847114D01*
X102090132Y-61741447D01*
X102256578Y-61575000D01*
X102526411Y-61575000D01*
X102793989Y-61521775D01*
X103046043Y-61417371D01*
X103272886Y-61265799D01*
X103465799Y-61072886D01*
X103617371Y-60846043D01*
X103721775Y-60593989D01*
X103775000Y-60326411D01*
X103775000Y-60053589D01*
X103721775Y-59786011D01*
X103617371Y-59533957D01*
X103465799Y-59307114D01*
X103272886Y-59114201D01*
X103046043Y-58962629D01*
X102793989Y-58858225D01*
X102526411Y-58805000D01*
X102253589Y-58805000D01*
X101986011Y-58858225D01*
X101733957Y-58962629D01*
X101507114Y-59114201D01*
X101314201Y-59307114D01*
X101162629Y-59533957D01*
X101120000Y-59636873D01*
X101077371Y-59533957D01*
X100925799Y-59307114D01*
X100732886Y-59114201D01*
X100506043Y-58962629D01*
X100253989Y-58858225D01*
X99986411Y-58805000D01*
X99713589Y-58805000D01*
X99446011Y-58858225D01*
X99193957Y-58962629D01*
X98967114Y-59114201D01*
X98774201Y-59307114D01*
X98622629Y-59533957D01*
X98581489Y-59633279D01*
X98566277Y-59591168D01*
X98505860Y-59478137D01*
X98266993Y-59412612D01*
X97489605Y-60190000D01*
X97503748Y-60204143D01*
X97324143Y-60383748D01*
X97310000Y-60369605D01*
X97295858Y-60383748D01*
X97116253Y-60204143D01*
X97130395Y-60190000D01*
X96353007Y-59412612D01*
X96114140Y-59478137D01*
X96039836Y-59636477D01*
X95997371Y-59533957D01*
X95845799Y-59307114D01*
X95771692Y-59233007D01*
X96532612Y-59233007D01*
X97310000Y-60010395D01*
X98087388Y-59233007D01*
X98021863Y-58994140D01*
X97774884Y-58878240D01*
X97510040Y-58812750D01*
X97237508Y-58800188D01*
X96967762Y-58841035D01*
X96711168Y-58933723D01*
X96598137Y-58994140D01*
X96532612Y-59233007D01*
X95771692Y-59233007D01*
X95652886Y-59114201D01*
X95426043Y-58962629D01*
X95173989Y-58858225D01*
X94906411Y-58805000D01*
X94633589Y-58805000D01*
X94366011Y-58858225D01*
X94113957Y-58962629D01*
X93887114Y-59114201D01*
X93694201Y-59307114D01*
X93542629Y-59533957D01*
X93438225Y-59786011D01*
X93385000Y-60053589D01*
X93385000Y-60326411D01*
X93438225Y-60593989D01*
X93446928Y-60615000D01*
X84237871Y-60615000D01*
X84280518Y-60580000D01*
X85012037Y-60580000D01*
X85257377Y-60555836D01*
X85572173Y-60460344D01*
X85862291Y-60305273D01*
X86116582Y-60096582D01*
X86325273Y-59842291D01*
X86480344Y-59552173D01*
X86575836Y-59237377D01*
X86608080Y-58910000D01*
X86575836Y-58582623D01*
X86480344Y-58267827D01*
X86325273Y-57977709D01*
X86116582Y-57723418D01*
X85862291Y-57514727D01*
X85572173Y-57359656D01*
X85257377Y-57264164D01*
X85012037Y-57240000D01*
X84280518Y-57240000D01*
X84141881Y-57126223D01*
X83770982Y-56927974D01*
X83368533Y-56805892D01*
X83054882Y-56775000D01*
X81844346Y-56775000D01*
X78610874Y-53541529D01*
X78658075Y-53385925D01*
X79345204Y-53385925D01*
X79378520Y-53521749D01*
X79510888Y-53822206D01*
X79699329Y-54091066D01*
X79936601Y-54317997D01*
X80213586Y-54494278D01*
X80519639Y-54613135D01*
X80843000Y-54670000D01*
X82823000Y-54670000D01*
X82823000Y-53127000D01*
X83077000Y-53127000D01*
X83077000Y-54670000D01*
X85057000Y-54670000D01*
X85380361Y-54613135D01*
X85686414Y-54494278D01*
X85963399Y-54317997D01*
X86200671Y-54091066D01*
X86389112Y-53822206D01*
X86521480Y-53521749D01*
X86554796Y-53385925D01*
X86435904Y-53127000D01*
X83077000Y-53127000D01*
X82823000Y-53127000D01*
X79464096Y-53127000D01*
X79345204Y-53385925D01*
X78658075Y-53385925D01*
X78675836Y-53327377D01*
X78708080Y-53000000D01*
X78675836Y-52672623D01*
X78658076Y-52614075D01*
X79345204Y-52614075D01*
X79464096Y-52873000D01*
X82823000Y-52873000D01*
X82823000Y-51330000D01*
X83077000Y-51330000D01*
X83077000Y-52873000D01*
X86435904Y-52873000D01*
X86554796Y-52614075D01*
X86521480Y-52478251D01*
X86389112Y-52177794D01*
X86200671Y-51908934D01*
X85963399Y-51682003D01*
X85686414Y-51505722D01*
X85380361Y-51386865D01*
X85057000Y-51330000D01*
X83077000Y-51330000D01*
X82823000Y-51330000D01*
X80843000Y-51330000D01*
X80519639Y-51386865D01*
X80213586Y-51505722D01*
X79936601Y-51682003D01*
X79699329Y-51908934D01*
X79510888Y-52177794D01*
X79378520Y-52478251D01*
X79345204Y-52614075D01*
X78658076Y-52614075D01*
X78580344Y-52357827D01*
X78425273Y-52067709D01*
X78216582Y-51813418D01*
X77962291Y-51604727D01*
X77672173Y-51449656D01*
X77357377Y-51354164D01*
X77112037Y-51330000D01*
X76380518Y-51330000D01*
X76241881Y-51216223D01*
X75870982Y-51017974D01*
X75468533Y-50895892D01*
X75154882Y-50865000D01*
X75154872Y-50865000D01*
X75050000Y-50854671D01*
X74945128Y-50865000D01*
X63384346Y-50865000D01*
X58317407Y-45798061D01*
X65365000Y-45798061D01*
X65365000Y-46001939D01*
X65404774Y-46201898D01*
X65482795Y-46390256D01*
X65596063Y-46559774D01*
X65740226Y-46703937D01*
X65909744Y-46817205D01*
X66098102Y-46895226D01*
X66154957Y-46906535D01*
X66843470Y-47595049D01*
X66871183Y-47628817D01*
X66904951Y-47656530D01*
X66904953Y-47656532D01*
X67005941Y-47739411D01*
X67159687Y-47821589D01*
X67275903Y-47856843D01*
X67326509Y-47872195D01*
X67341306Y-47873652D01*
X67456523Y-47885000D01*
X67456531Y-47885000D01*
X67500000Y-47889281D01*
X67543469Y-47885000D01*
X83933422Y-47885000D01*
X89993465Y-53945044D01*
X90004774Y-54001898D01*
X90082795Y-54190256D01*
X90196063Y-54359774D01*
X90340226Y-54503937D01*
X90509744Y-54617205D01*
X90698102Y-54695226D01*
X90898061Y-54735000D01*
X91101939Y-54735000D01*
X91301898Y-54695226D01*
X91490256Y-54617205D01*
X91659774Y-54503937D01*
X91803937Y-54359774D01*
X91917205Y-54190256D01*
X91995226Y-54001898D01*
X92035000Y-53801939D01*
X92035000Y-53598061D01*
X91995226Y-53398102D01*
X91917205Y-53209744D01*
X91803937Y-53040226D01*
X91659774Y-52896063D01*
X91490256Y-52782795D01*
X91301898Y-52704774D01*
X91245044Y-52693465D01*
X84956534Y-46404956D01*
X84928817Y-46371183D01*
X84794059Y-46260589D01*
X84640313Y-46178411D01*
X84473490Y-46127805D01*
X84343477Y-46115000D01*
X84343469Y-46115000D01*
X84300000Y-46110719D01*
X84256531Y-46115000D01*
X67866579Y-46115000D01*
X67406535Y-45654957D01*
X67395226Y-45598102D01*
X67317205Y-45409744D01*
X67203937Y-45240226D01*
X67059774Y-45096063D01*
X66890256Y-44982795D01*
X66701898Y-44904774D01*
X66501939Y-44865000D01*
X66298061Y-44865000D01*
X66098102Y-44904774D01*
X65909744Y-44982795D01*
X65740226Y-45096063D01*
X65596063Y-45240226D01*
X65482795Y-45409744D01*
X65404774Y-45598102D01*
X65365000Y-45798061D01*
X58317407Y-45798061D01*
X56935510Y-44416165D01*
X56691881Y-44216224D01*
X56320982Y-44017975D01*
X55918533Y-43895893D01*
X55500000Y-43854671D01*
X55081467Y-43895893D01*
X54679018Y-44017975D01*
X54308119Y-44216224D01*
X53983023Y-44483023D01*
X53716224Y-44808119D01*
X53517975Y-45179018D01*
X53395893Y-45581467D01*
X53354671Y-46000000D01*
X53395893Y-46418533D01*
X53517975Y-46820982D01*
X53716224Y-47191881D01*
X53916165Y-47435510D01*
X60916167Y-54435513D01*
X60983023Y-54516977D01*
X61064487Y-54583833D01*
X61064489Y-54583835D01*
X61236338Y-54724868D01*
X61308119Y-54783777D01*
X61480768Y-54876060D01*
X61679017Y-54982026D01*
X61722532Y-54995226D01*
X62081467Y-55104108D01*
X62395118Y-55135000D01*
X62395128Y-55135000D01*
X62500000Y-55145329D01*
X62604872Y-55135000D01*
X74165655Y-55135000D01*
X76270655Y-57240000D01*
X75177000Y-57240000D01*
X75177000Y-58783000D01*
X75197000Y-58783000D01*
X75197000Y-59037000D01*
X75177000Y-59037000D01*
X75177000Y-60580000D01*
X77157000Y-60580000D01*
X77480361Y-60523135D01*
X77786414Y-60404278D01*
X78063399Y-60227997D01*
X78300671Y-60001066D01*
X78489112Y-59732206D01*
X78572831Y-59542176D01*
X79376167Y-60345513D01*
X79443023Y-60426977D01*
X79524487Y-60493833D01*
X79524489Y-60493835D01*
X79646527Y-60593989D01*
X79672129Y-60615000D01*
X57866579Y-60615000D01*
X56547504Y-59295925D01*
X71445204Y-59295925D01*
X71478520Y-59431749D01*
X71610888Y-59732206D01*
X71799329Y-60001066D01*
X72036601Y-60227997D01*
X72313586Y-60404278D01*
X72619639Y-60523135D01*
X72943000Y-60580000D01*
X74923000Y-60580000D01*
X74923000Y-59037000D01*
X71564096Y-59037000D01*
X71445204Y-59295925D01*
X56547504Y-59295925D01*
X55775654Y-58524075D01*
X71445204Y-58524075D01*
X71564096Y-58783000D01*
X74923000Y-58783000D01*
X74923000Y-57240000D01*
X72943000Y-57240000D01*
X72619639Y-57296865D01*
X72313586Y-57415722D01*
X72036601Y-57592003D01*
X71799329Y-57818934D01*
X71610888Y-58087794D01*
X71478520Y-58388251D01*
X71445204Y-58524075D01*
X55775654Y-58524075D01*
X51006535Y-53754957D01*
X50995226Y-53698102D01*
X50917205Y-53509744D01*
X50803937Y-53340226D01*
X50659774Y-53196063D01*
X50490256Y-53082795D01*
X50301898Y-53004774D01*
X50101939Y-52965000D01*
X49898061Y-52965000D01*
X49698102Y-53004774D01*
X49509744Y-53082795D01*
X49340226Y-53196063D01*
X49196063Y-53340226D01*
X49082795Y-53509744D01*
X49004774Y-53698102D01*
X48965000Y-53898061D01*
X48965000Y-54101939D01*
X49004774Y-54301898D01*
X49082795Y-54490256D01*
X49196063Y-54659774D01*
X49340226Y-54803937D01*
X49509744Y-54917205D01*
X49698102Y-54995226D01*
X49754957Y-55006535D01*
X56843470Y-62095049D01*
X56871183Y-62128817D01*
X56904951Y-62156530D01*
X56904953Y-62156532D01*
X57001713Y-62235941D01*
X57005941Y-62239411D01*
X57159687Y-62321589D01*
X57326510Y-62372195D01*
X57456523Y-62385000D01*
X57456531Y-62385000D01*
X57500000Y-62389281D01*
X57543469Y-62385000D01*
X92111928Y-62385000D01*
X92111928Y-63045001D01*
X52796580Y-63045001D01*
X48006535Y-58254957D01*
X47995226Y-58198102D01*
X47917205Y-58009744D01*
X47803937Y-57840226D01*
X47659774Y-57696063D01*
X47490256Y-57582795D01*
X47301898Y-57504774D01*
X47101939Y-57465000D01*
X46898061Y-57465000D01*
X46698102Y-57504774D01*
X46509744Y-57582795D01*
X46340226Y-57696063D01*
X46196063Y-57840226D01*
X46082795Y-58009744D01*
X46004774Y-58198102D01*
X45965000Y-58398061D01*
X41260000Y-58398061D01*
X41260000Y-54814801D01*
X42039802Y-54035000D01*
X42101939Y-54035000D01*
X42301898Y-53995226D01*
X42490256Y-53917205D01*
X42659774Y-53803937D01*
X42803937Y-53659774D01*
X42917205Y-53490256D01*
X42995226Y-53301898D01*
X43035000Y-53101939D01*
X43035000Y-52898061D01*
X42995226Y-52698102D01*
X42917205Y-52509744D01*
X42803937Y-52340226D01*
X42659774Y-52196063D01*
X42490256Y-52082795D01*
X42301898Y-52004774D01*
X42101939Y-51965000D01*
X41898061Y-51965000D01*
X41698102Y-52004774D01*
X41509744Y-52082795D01*
X41340226Y-52196063D01*
X41196063Y-52340226D01*
X41082795Y-52509744D01*
X41004774Y-52698102D01*
X40965000Y-52898061D01*
X40965000Y-52960198D01*
X39989003Y-53936196D01*
X39959999Y-53959999D01*
X39925614Y-54001898D01*
X39865026Y-54075724D01*
X39851014Y-54101939D01*
X39794454Y-54207754D01*
X39750997Y-54351015D01*
X39740000Y-54462668D01*
X39740000Y-54462678D01*
X39736324Y-54500000D01*
X39740000Y-54537322D01*
X39740001Y-61861928D01*
X39500000Y-61861928D01*
X39375518Y-61874188D01*
X39255820Y-61910498D01*
X39145506Y-61969463D01*
X39048815Y-62048815D01*
X38969463Y-62145506D01*
X38910498Y-62255820D01*
X38874188Y-62375518D01*
X38861928Y-62500000D01*
X38160000Y-62500000D01*
X38160000Y-47135413D01*
X49544192Y-47135413D01*
X49639956Y-47399814D01*
X49929571Y-47540704D01*
X50241108Y-47622384D01*
X50562595Y-47641718D01*
X50881675Y-47597961D01*
X51186088Y-47492795D01*
X51360044Y-47399814D01*
X51455808Y-47135413D01*
X50500000Y-46179605D01*
X49544192Y-47135413D01*
X38160000Y-47135413D01*
X38160000Y-46062595D01*
X48858282Y-46062595D01*
X48902039Y-46381675D01*
X49007205Y-46686088D01*
X49100186Y-46860044D01*
X49364587Y-46955808D01*
X50320395Y-46000000D01*
X50679605Y-46000000D01*
X51635413Y-46955808D01*
X51899814Y-46860044D01*
X52040704Y-46570429D01*
X52122384Y-46258892D01*
X52141718Y-45937405D01*
X52097961Y-45618325D01*
X51992795Y-45313912D01*
X51899814Y-45139956D01*
X51635413Y-45044192D01*
X50679605Y-46000000D01*
X50320395Y-46000000D01*
X49364587Y-45044192D01*
X49100186Y-45139956D01*
X48959296Y-45429571D01*
X48877616Y-45741108D01*
X48858282Y-46062595D01*
X38160000Y-46062595D01*
X38160000Y-36532279D01*
X38169580Y-36434576D01*
X38188580Y-36371644D01*
X38219445Y-36313595D01*
X38260989Y-36262657D01*
X38311644Y-36220752D01*
X38369471Y-36189485D01*
X38432272Y-36170044D01*
X38527835Y-36160000D01*
X42769710Y-36160000D01*
X42671414Y-36307111D01*
G37*
G04 #@! TD.AperFunction*
D24*
X96233748Y-62715858D02*
X96219605Y-62730000D01*
X96233748Y-62744143D01*
X96054143Y-62923748D01*
X96040000Y-62909605D01*
X96025858Y-62923748D01*
X95846253Y-62744143D01*
X95860395Y-62730000D01*
X95846253Y-62715858D01*
X96025858Y-62536253D01*
X96040000Y-62550395D01*
X96054143Y-62536253D01*
X96233748Y-62715858D01*
G04 #@! TA.AperFunction,Conductor*
D25*
G36*
X96233748Y-62715858D02*
G01*
X96219605Y-62730000D01*
X96233748Y-62744143D01*
X96054143Y-62923748D01*
X96040000Y-62909605D01*
X96025858Y-62923748D01*
X95846253Y-62744143D01*
X95860395Y-62730000D01*
X95846253Y-62715858D01*
X96025858Y-62536253D01*
X96040000Y-62550395D01*
X96054143Y-62536253D01*
X96233748Y-62715858D01*
G37*
G04 #@! TD.AperFunction*
M02*
