G04 #@! TF.GenerationSoftware,KiCad,Pcbnew,5.1.5-52549c5~84~ubuntu18.04.1*
G04 #@! TF.CreationDate,2020-03-03T19:35:01-07:00*
G04 #@! TF.ProjectId,pole-node,706f6c65-2d6e-46f6-9465-2e6b69636164,rev?*
G04 #@! TF.SameCoordinates,Original*
G04 #@! TF.FileFunction,Legend,Top*
G04 #@! TF.FilePolarity,Positive*
%FSLAX46Y46*%
G04 Gerber Fmt 4.6, Leading zero omitted, Abs format (unit mm)*
G04 Created by KiCad (PCBNEW 5.1.5-52549c5~84~ubuntu18.04.1) date 2020-03-03 19:35:01*
%MOMM*%
%LPD*%
G04 APERTURE LIST*
%ADD10C,0.150000*%
%ADD11C,0.120000*%
G04 APERTURE END LIST*
D10*
X199000000Y-38500000D02*
G75*
G03X199000000Y-38500000I-5000000J0D01*
G01*
X199000000Y-61500000D02*
G75*
G03X199000000Y-61500000I-5000000J0D01*
G01*
D11*
X200420000Y-40920000D02*
X201750000Y-40920000D01*
X200420000Y-42250000D02*
X200420000Y-40920000D01*
X200420000Y-43520000D02*
X203080000Y-43520000D01*
X203080000Y-43520000D02*
X203080000Y-48660000D01*
X200420000Y-43520000D02*
X200420000Y-48660000D01*
X200420000Y-48660000D02*
X203080000Y-48660000D01*
X189100000Y-44300000D02*
X189100000Y-46150000D01*
X187900000Y-44300000D02*
X187900000Y-46150000D01*
X187900000Y-46150000D02*
X189100000Y-46150000D01*
X190760000Y-44912779D02*
X190760000Y-44587221D01*
X189740000Y-44912779D02*
X189740000Y-44587221D01*
D10*
X153250000Y-65250000D02*
X153250000Y-52750000D01*
X143360000Y-66390000D02*
X143360000Y-51610000D01*
X143250000Y-66500000D02*
X152250000Y-66500000D01*
X166500000Y-66500000D02*
X166500000Y-51500000D01*
X166500000Y-51500000D02*
X154250000Y-51500000D01*
X143500000Y-59000000D02*
X166500000Y-59000000D01*
X154250000Y-66500000D02*
X166500000Y-66500000D01*
X152250000Y-51500000D02*
X143250000Y-51500000D01*
X166500000Y-66500000D02*
X173250000Y-66500000D01*
X173250000Y-66500000D02*
X173250000Y-51500000D01*
X173250000Y-51500000D02*
X166500000Y-51500000D01*
D11*
X182500000Y-48060000D02*
X185950000Y-48060000D01*
X182500000Y-48060000D02*
X180550000Y-48060000D01*
X182500000Y-42940000D02*
X184450000Y-42940000D01*
X182500000Y-42940000D02*
X180550000Y-42940000D01*
X182500000Y-39560000D02*
X185950000Y-39560000D01*
X182500000Y-39560000D02*
X180550000Y-39560000D01*
X182500000Y-34440000D02*
X184450000Y-34440000D01*
X182500000Y-34440000D02*
X180550000Y-34440000D01*
X180110000Y-62400000D02*
X180110000Y-59950000D01*
X176890000Y-60600000D02*
X176890000Y-62400000D01*
X186510000Y-57162779D02*
X186510000Y-56837221D01*
X185490000Y-57162779D02*
X185490000Y-56837221D01*
X176662779Y-44490000D02*
X176337221Y-44490000D01*
X176662779Y-45510000D02*
X176337221Y-45510000D01*
X176662779Y-35990000D02*
X176337221Y-35990000D01*
X176662779Y-37010000D02*
X176337221Y-37010000D01*
X176510000Y-57662779D02*
X176510000Y-57337221D01*
X175490000Y-57662779D02*
X175490000Y-57337221D01*
X177490000Y-57337221D02*
X177490000Y-57662779D01*
X178510000Y-57337221D02*
X178510000Y-57662779D01*
X187600000Y-65650000D02*
X187600000Y-59350000D01*
X181400000Y-65650000D02*
X181400000Y-59350000D01*
X200420000Y-49670000D02*
X201750000Y-49670000D01*
X200420000Y-51000000D02*
X200420000Y-49670000D01*
X200420000Y-52270000D02*
X203080000Y-52270000D01*
X203080000Y-52270000D02*
X203080000Y-57410000D01*
X200420000Y-52270000D02*
X200420000Y-57410000D01*
X200420000Y-57410000D02*
X203080000Y-57410000D01*
X200420000Y-58420000D02*
X201750000Y-58420000D01*
X200420000Y-59750000D02*
X200420000Y-58420000D01*
X200420000Y-61020000D02*
X203080000Y-61020000D01*
X203080000Y-61020000D02*
X203080000Y-66160000D01*
X200420000Y-61020000D02*
X200420000Y-66160000D01*
X200420000Y-66160000D02*
X203080000Y-66160000D01*
X200420000Y-34670000D02*
X201750000Y-34670000D01*
X200420000Y-36000000D02*
X200420000Y-34670000D01*
X200420000Y-37270000D02*
X203080000Y-37270000D01*
X203080000Y-37270000D02*
X203080000Y-39870000D01*
X200420000Y-37270000D02*
X200420000Y-39870000D01*
X200420000Y-39870000D02*
X203080000Y-39870000D01*
X171380000Y-33685000D02*
X153420000Y-33685000D01*
X171380000Y-49205000D02*
X171380000Y-33685000D01*
X171380000Y-49205000D02*
X153420000Y-49205000D01*
X153420000Y-33685000D02*
X153420000Y-49205000D01*
X167500000Y-33500000D02*
X168000000Y-33000000D01*
X168000000Y-33000000D02*
X167000000Y-33000000D01*
X167000000Y-33000000D02*
X167500000Y-33500000D01*
X188985000Y-58485000D02*
X188985000Y-56200000D01*
X187515000Y-58485000D02*
X188985000Y-58485000D01*
X187515000Y-56200000D02*
X187515000Y-58485000D01*
X189100000Y-52050000D02*
X189100000Y-53900000D01*
X187900000Y-52050000D02*
X187900000Y-53900000D01*
X187900000Y-53900000D02*
X189100000Y-53900000D01*
X179150000Y-55500000D02*
X179150000Y-52950000D01*
X180850000Y-55500000D02*
X180850000Y-52950000D01*
X179150000Y-55500000D02*
X180850000Y-55500000D01*
X180250000Y-66500000D02*
X176350000Y-66500000D01*
X180250000Y-64500000D02*
X176350000Y-64500000D01*
X180250000Y-66500000D02*
X180250000Y-64500000D01*
X190760000Y-52912779D02*
X190760000Y-52587221D01*
X189740000Y-52912779D02*
X189740000Y-52587221D01*
X176662779Y-46990000D02*
X176337221Y-46990000D01*
X176662779Y-48010000D02*
X176337221Y-48010000D01*
X176662779Y-38490000D02*
X176337221Y-38490000D01*
X176662779Y-39510000D02*
X176337221Y-39510000D01*
X176337221Y-43510000D02*
X176662779Y-43510000D01*
X176337221Y-42490000D02*
X176662779Y-42490000D01*
X176337221Y-35010000D02*
X176662779Y-35010000D01*
X176337221Y-33990000D02*
X176662779Y-33990000D01*
X183210000Y-57258578D02*
X183210000Y-56741422D01*
X181790000Y-57258578D02*
X181790000Y-56741422D01*
X179490000Y-57337221D02*
X179490000Y-57662779D01*
X180510000Y-57337221D02*
X180510000Y-57662779D01*
X175710000Y-61758578D02*
X175710000Y-61241422D01*
X174290000Y-61758578D02*
X174290000Y-61241422D01*
D10*
X168452380Y-62440476D02*
X167976190Y-62773809D01*
X168452380Y-63011904D02*
X167452380Y-63011904D01*
X167452380Y-62630952D01*
X167500000Y-62535714D01*
X167547619Y-62488095D01*
X167642857Y-62440476D01*
X167785714Y-62440476D01*
X167880952Y-62488095D01*
X167928571Y-62535714D01*
X167976190Y-62630952D01*
X167976190Y-63011904D01*
X167928571Y-55178571D02*
X167976190Y-55035714D01*
X168023809Y-54988095D01*
X168119047Y-54940476D01*
X168261904Y-54940476D01*
X168357142Y-54988095D01*
X168404761Y-55035714D01*
X168452380Y-55130952D01*
X168452380Y-55511904D01*
X167452380Y-55511904D01*
X167452380Y-55178571D01*
X167500000Y-55083333D01*
X167547619Y-55035714D01*
X167642857Y-54988095D01*
X167738095Y-54988095D01*
X167833333Y-55035714D01*
X167880952Y-55083333D01*
X167928571Y-55178571D01*
X167928571Y-55511904D01*
M02*
