G04 #@! TF.GenerationSoftware,KiCad,Pcbnew,5.1.10-88a1d61d58~88~ubuntu20.04.1*
G04 #@! TF.CreationDate,2021-05-15T17:55:39-06:00*
G04 #@! TF.ProjectId,pole-node,706f6c65-2d6e-46f6-9465-2e6b69636164,rev?*
G04 #@! TF.SameCoordinates,Original*
G04 #@! TF.FileFunction,Soldermask,Top*
G04 #@! TF.FilePolarity,Negative*
%FSLAX46Y46*%
G04 Gerber Fmt 4.6, Leading zero omitted, Abs format (unit mm)*
G04 Created by KiCad (PCBNEW 5.1.10-88a1d61d58~88~ubuntu20.04.1) date 2021-05-15 17:55:39*
%MOMM*%
%LPD*%
G01*
G04 APERTURE LIST*
%ADD10C,2.000000*%
%ADD11R,2.000000X2.000000*%
%ADD12O,1.700000X1.700000*%
%ADD13R,1.700000X1.700000*%
%ADD14O,6.030000X2.070000*%
%ADD15C,5.200000*%
%ADD16C,1.500000*%
%ADD17R,1.500000X1.500000*%
%ADD18C,3.200000*%
G04 APERTURE END LIST*
D10*
X52500000Y-60000000D03*
D11*
X52500000Y-65000000D03*
D10*
X115000000Y-60500000D03*
D11*
X115000000Y-65500000D03*
D12*
X123420000Y-72000000D03*
X125960000Y-72000000D03*
D13*
X128500000Y-72000000D03*
D12*
X112920000Y-72000000D03*
X115460000Y-72000000D03*
D13*
X118000000Y-72000000D03*
D12*
X49920000Y-71500000D03*
X52460000Y-71500000D03*
D13*
X55000000Y-71500000D03*
D12*
X39920000Y-71500000D03*
X42460000Y-71500000D03*
D13*
X45000000Y-71500000D03*
D14*
X79550000Y-59000000D03*
X87450000Y-59000000D03*
X62550000Y-58910000D03*
X70450000Y-58910000D03*
D15*
X124500000Y-56000000D03*
X43500000Y-56000000D03*
D16*
X105390000Y-60460000D03*
X104120000Y-63000000D03*
X102850000Y-60460000D03*
X101580000Y-63000000D03*
X100310000Y-60460000D03*
X99040000Y-63000000D03*
X97770000Y-60460000D03*
D17*
X96500000Y-63000000D03*
D18*
X95230000Y-69350000D03*
X106660000Y-69350000D03*
G36*
G01*
X40250000Y-65406250D02*
X40250000Y-64893750D01*
G75*
G02*
X40468750Y-64675000I218750J0D01*
G01*
X40906250Y-64675000D01*
G75*
G02*
X41125000Y-64893750I0J-218750D01*
G01*
X41125000Y-65406250D01*
G75*
G02*
X40906250Y-65625000I-218750J0D01*
G01*
X40468750Y-65625000D01*
G75*
G02*
X40250000Y-65406250I0J218750D01*
G01*
G37*
G36*
G01*
X38675000Y-65406250D02*
X38675000Y-64893750D01*
G75*
G02*
X38893750Y-64675000I218750J0D01*
G01*
X39331250Y-64675000D01*
G75*
G02*
X39550000Y-64893750I0J-218750D01*
G01*
X39550000Y-65406250D01*
G75*
G02*
X39331250Y-65625000I-218750J0D01*
G01*
X38893750Y-65625000D01*
G75*
G02*
X38675000Y-65406250I0J218750D01*
G01*
G37*
M02*
