G04 #@! TF.GenerationSoftware,KiCad,Pcbnew,5.1.10-88a1d61d58~88~ubuntu20.04.1*
G04 #@! TF.CreationDate,2021-05-15T17:55:39-06:00*
G04 #@! TF.ProjectId,pole-node,706f6c65-2d6e-46f6-9465-2e6b69636164,rev?*
G04 #@! TF.SameCoordinates,Original*
G04 #@! TF.FileFunction,Copper,L2,Bot*
G04 #@! TF.FilePolarity,Positive*
%FSLAX46Y46*%
G04 Gerber Fmt 4.6, Leading zero omitted, Abs format (unit mm)*
G04 Created by KiCad (PCBNEW 5.1.10-88a1d61d58~88~ubuntu20.04.1) date 2021-05-15 17:55:39*
%MOMM*%
%LPD*%
G01*
G04 APERTURE LIST*
G04 #@! TA.AperFunction,ComponentPad*
%ADD10C,2.000000*%
G04 #@! TD*
G04 #@! TA.AperFunction,ComponentPad*
%ADD11R,2.000000X2.000000*%
G04 #@! TD*
G04 #@! TA.AperFunction,SMDPad,CuDef*
%ADD12R,2.300000X2.500000*%
G04 #@! TD*
G04 #@! TA.AperFunction,SMDPad,CuDef*
%ADD13R,2.500000X2.300000*%
G04 #@! TD*
G04 #@! TA.AperFunction,ComponentPad*
%ADD14O,1.700000X1.700000*%
G04 #@! TD*
G04 #@! TA.AperFunction,ComponentPad*
%ADD15R,1.700000X1.700000*%
G04 #@! TD*
G04 #@! TA.AperFunction,ComponentPad*
%ADD16O,6.030000X2.070000*%
G04 #@! TD*
G04 #@! TA.AperFunction,ComponentPad*
%ADD17C,5.200000*%
G04 #@! TD*
G04 #@! TA.AperFunction,ComponentPad*
%ADD18C,0.600000*%
G04 #@! TD*
G04 #@! TA.AperFunction,SMDPad,CuDef*
%ADD19R,0.650000X1.060000*%
G04 #@! TD*
G04 #@! TA.AperFunction,SMDPad,CuDef*
%ADD20R,5.900000X1.600000*%
G04 #@! TD*
G04 #@! TA.AperFunction,ComponentPad*
%ADD21C,1.500000*%
G04 #@! TD*
G04 #@! TA.AperFunction,ComponentPad*
%ADD22R,1.500000X1.500000*%
G04 #@! TD*
G04 #@! TA.AperFunction,SMDPad,CuDef*
%ADD23R,0.450000X0.600000*%
G04 #@! TD*
G04 #@! TA.AperFunction,SMDPad,CuDef*
%ADD24R,0.900000X1.200000*%
G04 #@! TD*
G04 #@! TA.AperFunction,ViaPad*
%ADD25C,0.800000*%
G04 #@! TD*
G04 #@! TA.AperFunction,Conductor*
%ADD26C,3.000000*%
G04 #@! TD*
G04 #@! TA.AperFunction,Conductor*
%ADD27C,1.000000*%
G04 #@! TD*
G04 #@! TA.AperFunction,Conductor*
%ADD28C,0.750000*%
G04 #@! TD*
G04 #@! TA.AperFunction,Conductor*
%ADD29C,0.500000*%
G04 #@! TD*
G04 #@! TA.AperFunction,Conductor*
%ADD30C,0.250000*%
G04 #@! TD*
G04 #@! TA.AperFunction,Conductor*
%ADD31C,2.000000*%
G04 #@! TD*
G04 #@! TA.AperFunction,Conductor*
%ADD32C,0.254000*%
G04 #@! TD*
G04 #@! TA.AperFunction,Conductor*
%ADD33C,0.100000*%
G04 #@! TD*
G04 APERTURE END LIST*
D10*
X52500000Y-60000000D03*
D11*
X52500000Y-65000000D03*
D12*
X95000000Y-56650000D03*
X95000000Y-52350000D03*
X63500000Y-62350000D03*
X63500000Y-66650000D03*
D13*
X55150000Y-75000000D03*
X50850000Y-75000000D03*
X45150000Y-75000000D03*
X40850000Y-75000000D03*
D12*
X105000000Y-56650000D03*
X105000000Y-52350000D03*
X110000000Y-52350000D03*
X110000000Y-56650000D03*
X100000000Y-52350000D03*
X100000000Y-56650000D03*
X125500000Y-63850000D03*
X125500000Y-68150000D03*
X120000000Y-63850000D03*
X120000000Y-68150000D03*
D10*
X115000000Y-60500000D03*
D11*
X115000000Y-65500000D03*
D14*
X123420000Y-72000000D03*
X125960000Y-72000000D03*
D15*
X128500000Y-72000000D03*
D14*
X112920000Y-72000000D03*
X115460000Y-72000000D03*
D15*
X118000000Y-72000000D03*
D14*
X49920000Y-71500000D03*
X52460000Y-71500000D03*
D15*
X55000000Y-71500000D03*
D14*
X39920000Y-71500000D03*
X42460000Y-71500000D03*
D15*
X45000000Y-71500000D03*
D16*
X79550000Y-59000000D03*
X87450000Y-59000000D03*
X62550000Y-58910000D03*
X70450000Y-58910000D03*
D13*
X67850000Y-62700000D03*
X72150000Y-62700000D03*
G04 #@! TA.AperFunction,SMDPad,CuDef*
G36*
G01*
X70750000Y-66675000D02*
X70250000Y-66675000D01*
G75*
G02*
X70025000Y-66450000I0J225000D01*
G01*
X70025000Y-66000000D01*
G75*
G02*
X70250000Y-65775000I225000J0D01*
G01*
X70750000Y-65775000D01*
G75*
G02*
X70975000Y-66000000I0J-225000D01*
G01*
X70975000Y-66450000D01*
G75*
G02*
X70750000Y-66675000I-225000J0D01*
G01*
G37*
G04 #@! TD.AperFunction*
G04 #@! TA.AperFunction,SMDPad,CuDef*
G36*
G01*
X70750000Y-68225000D02*
X70250000Y-68225000D01*
G75*
G02*
X70025000Y-68000000I0J225000D01*
G01*
X70025000Y-67550000D01*
G75*
G02*
X70250000Y-67325000I225000J0D01*
G01*
X70750000Y-67325000D01*
G75*
G02*
X70975000Y-67550000I0J-225000D01*
G01*
X70975000Y-68000000D01*
G75*
G02*
X70750000Y-68225000I-225000J0D01*
G01*
G37*
G04 #@! TD.AperFunction*
D17*
X124500000Y-56000000D03*
D18*
X124500000Y-52250000D03*
X124500000Y-59750000D03*
X128250000Y-56000000D03*
X120750000Y-56000000D03*
X121850000Y-53350000D03*
X127150000Y-53350000D03*
X121850000Y-58650000D03*
X127150000Y-58650000D03*
X46150000Y-58650000D03*
X40850000Y-58650000D03*
X46150000Y-53350000D03*
X40850000Y-53350000D03*
X39750000Y-56000000D03*
X47250000Y-56000000D03*
X43500000Y-59750000D03*
X43500000Y-52250000D03*
D17*
X43500000Y-56000000D03*
G04 #@! TA.AperFunction,SMDPad,CuDef*
G36*
G01*
X127350000Y-74756250D02*
X127350000Y-74243750D01*
G75*
G02*
X127568750Y-74025000I218750J0D01*
G01*
X128006250Y-74025000D01*
G75*
G02*
X128225000Y-74243750I0J-218750D01*
G01*
X128225000Y-74756250D01*
G75*
G02*
X128006250Y-74975000I-218750J0D01*
G01*
X127568750Y-74975000D01*
G75*
G02*
X127350000Y-74756250I0J218750D01*
G01*
G37*
G04 #@! TD.AperFunction*
G04 #@! TA.AperFunction,SMDPad,CuDef*
G36*
G01*
X125775000Y-74756250D02*
X125775000Y-74243750D01*
G75*
G02*
X125993750Y-74025000I218750J0D01*
G01*
X126431250Y-74025000D01*
G75*
G02*
X126650000Y-74243750I0J-218750D01*
G01*
X126650000Y-74756250D01*
G75*
G02*
X126431250Y-74975000I-218750J0D01*
G01*
X125993750Y-74975000D01*
G75*
G02*
X125775000Y-74756250I0J218750D01*
G01*
G37*
G04 #@! TD.AperFunction*
G04 #@! TA.AperFunction,SMDPad,CuDef*
G36*
G01*
X102000000Y-75555000D02*
X102000000Y-75255000D01*
G75*
G02*
X102150000Y-75105000I150000J0D01*
G01*
X103800000Y-75105000D01*
G75*
G02*
X103950000Y-75255000I0J-150000D01*
G01*
X103950000Y-75555000D01*
G75*
G02*
X103800000Y-75705000I-150000J0D01*
G01*
X102150000Y-75705000D01*
G75*
G02*
X102000000Y-75555000I0J150000D01*
G01*
G37*
G04 #@! TD.AperFunction*
G04 #@! TA.AperFunction,SMDPad,CuDef*
G36*
G01*
X102000000Y-74285000D02*
X102000000Y-73985000D01*
G75*
G02*
X102150000Y-73835000I150000J0D01*
G01*
X103800000Y-73835000D01*
G75*
G02*
X103950000Y-73985000I0J-150000D01*
G01*
X103950000Y-74285000D01*
G75*
G02*
X103800000Y-74435000I-150000J0D01*
G01*
X102150000Y-74435000D01*
G75*
G02*
X102000000Y-74285000I0J150000D01*
G01*
G37*
G04 #@! TD.AperFunction*
G04 #@! TA.AperFunction,SMDPad,CuDef*
G36*
G01*
X102000000Y-73015000D02*
X102000000Y-72715000D01*
G75*
G02*
X102150000Y-72565000I150000J0D01*
G01*
X103800000Y-72565000D01*
G75*
G02*
X103950000Y-72715000I0J-150000D01*
G01*
X103950000Y-73015000D01*
G75*
G02*
X103800000Y-73165000I-150000J0D01*
G01*
X102150000Y-73165000D01*
G75*
G02*
X102000000Y-73015000I0J150000D01*
G01*
G37*
G04 #@! TD.AperFunction*
G04 #@! TA.AperFunction,SMDPad,CuDef*
G36*
G01*
X102000000Y-71745000D02*
X102000000Y-71445000D01*
G75*
G02*
X102150000Y-71295000I150000J0D01*
G01*
X103800000Y-71295000D01*
G75*
G02*
X103950000Y-71445000I0J-150000D01*
G01*
X103950000Y-71745000D01*
G75*
G02*
X103800000Y-71895000I-150000J0D01*
G01*
X102150000Y-71895000D01*
G75*
G02*
X102000000Y-71745000I0J150000D01*
G01*
G37*
G04 #@! TD.AperFunction*
G04 #@! TA.AperFunction,SMDPad,CuDef*
G36*
G01*
X97050000Y-71745000D02*
X97050000Y-71445000D01*
G75*
G02*
X97200000Y-71295000I150000J0D01*
G01*
X98850000Y-71295000D01*
G75*
G02*
X99000000Y-71445000I0J-150000D01*
G01*
X99000000Y-71745000D01*
G75*
G02*
X98850000Y-71895000I-150000J0D01*
G01*
X97200000Y-71895000D01*
G75*
G02*
X97050000Y-71745000I0J150000D01*
G01*
G37*
G04 #@! TD.AperFunction*
G04 #@! TA.AperFunction,SMDPad,CuDef*
G36*
G01*
X97050000Y-73015000D02*
X97050000Y-72715000D01*
G75*
G02*
X97200000Y-72565000I150000J0D01*
G01*
X98850000Y-72565000D01*
G75*
G02*
X99000000Y-72715000I0J-150000D01*
G01*
X99000000Y-73015000D01*
G75*
G02*
X98850000Y-73165000I-150000J0D01*
G01*
X97200000Y-73165000D01*
G75*
G02*
X97050000Y-73015000I0J150000D01*
G01*
G37*
G04 #@! TD.AperFunction*
G04 #@! TA.AperFunction,SMDPad,CuDef*
G36*
G01*
X97050000Y-74285000D02*
X97050000Y-73985000D01*
G75*
G02*
X97200000Y-73835000I150000J0D01*
G01*
X98850000Y-73835000D01*
G75*
G02*
X99000000Y-73985000I0J-150000D01*
G01*
X99000000Y-74285000D01*
G75*
G02*
X98850000Y-74435000I-150000J0D01*
G01*
X97200000Y-74435000D01*
G75*
G02*
X97050000Y-74285000I0J150000D01*
G01*
G37*
G04 #@! TD.AperFunction*
G04 #@! TA.AperFunction,SMDPad,CuDef*
G36*
G01*
X97050000Y-75555000D02*
X97050000Y-75255000D01*
G75*
G02*
X97200000Y-75105000I150000J0D01*
G01*
X98850000Y-75105000D01*
G75*
G02*
X99000000Y-75255000I0J-150000D01*
G01*
X99000000Y-75555000D01*
G75*
G02*
X98850000Y-75705000I-150000J0D01*
G01*
X97200000Y-75705000D01*
G75*
G02*
X97050000Y-75555000I0J150000D01*
G01*
G37*
G04 #@! TD.AperFunction*
G04 #@! TA.AperFunction,SMDPad,CuDef*
G36*
G01*
X88500000Y-75555000D02*
X88500000Y-75255000D01*
G75*
G02*
X88650000Y-75105000I150000J0D01*
G01*
X90300000Y-75105000D01*
G75*
G02*
X90450000Y-75255000I0J-150000D01*
G01*
X90450000Y-75555000D01*
G75*
G02*
X90300000Y-75705000I-150000J0D01*
G01*
X88650000Y-75705000D01*
G75*
G02*
X88500000Y-75555000I0J150000D01*
G01*
G37*
G04 #@! TD.AperFunction*
G04 #@! TA.AperFunction,SMDPad,CuDef*
G36*
G01*
X88500000Y-74285000D02*
X88500000Y-73985000D01*
G75*
G02*
X88650000Y-73835000I150000J0D01*
G01*
X90300000Y-73835000D01*
G75*
G02*
X90450000Y-73985000I0J-150000D01*
G01*
X90450000Y-74285000D01*
G75*
G02*
X90300000Y-74435000I-150000J0D01*
G01*
X88650000Y-74435000D01*
G75*
G02*
X88500000Y-74285000I0J150000D01*
G01*
G37*
G04 #@! TD.AperFunction*
G04 #@! TA.AperFunction,SMDPad,CuDef*
G36*
G01*
X88500000Y-73015000D02*
X88500000Y-72715000D01*
G75*
G02*
X88650000Y-72565000I150000J0D01*
G01*
X90300000Y-72565000D01*
G75*
G02*
X90450000Y-72715000I0J-150000D01*
G01*
X90450000Y-73015000D01*
G75*
G02*
X90300000Y-73165000I-150000J0D01*
G01*
X88650000Y-73165000D01*
G75*
G02*
X88500000Y-73015000I0J150000D01*
G01*
G37*
G04 #@! TD.AperFunction*
G04 #@! TA.AperFunction,SMDPad,CuDef*
G36*
G01*
X88500000Y-71745000D02*
X88500000Y-71445000D01*
G75*
G02*
X88650000Y-71295000I150000J0D01*
G01*
X90300000Y-71295000D01*
G75*
G02*
X90450000Y-71445000I0J-150000D01*
G01*
X90450000Y-71745000D01*
G75*
G02*
X90300000Y-71895000I-150000J0D01*
G01*
X88650000Y-71895000D01*
G75*
G02*
X88500000Y-71745000I0J150000D01*
G01*
G37*
G04 #@! TD.AperFunction*
G04 #@! TA.AperFunction,SMDPad,CuDef*
G36*
G01*
X83550000Y-71745000D02*
X83550000Y-71445000D01*
G75*
G02*
X83700000Y-71295000I150000J0D01*
G01*
X85350000Y-71295000D01*
G75*
G02*
X85500000Y-71445000I0J-150000D01*
G01*
X85500000Y-71745000D01*
G75*
G02*
X85350000Y-71895000I-150000J0D01*
G01*
X83700000Y-71895000D01*
G75*
G02*
X83550000Y-71745000I0J150000D01*
G01*
G37*
G04 #@! TD.AperFunction*
G04 #@! TA.AperFunction,SMDPad,CuDef*
G36*
G01*
X83550000Y-73015000D02*
X83550000Y-72715000D01*
G75*
G02*
X83700000Y-72565000I150000J0D01*
G01*
X85350000Y-72565000D01*
G75*
G02*
X85500000Y-72715000I0J-150000D01*
G01*
X85500000Y-73015000D01*
G75*
G02*
X85350000Y-73165000I-150000J0D01*
G01*
X83700000Y-73165000D01*
G75*
G02*
X83550000Y-73015000I0J150000D01*
G01*
G37*
G04 #@! TD.AperFunction*
G04 #@! TA.AperFunction,SMDPad,CuDef*
G36*
G01*
X83550000Y-74285000D02*
X83550000Y-73985000D01*
G75*
G02*
X83700000Y-73835000I150000J0D01*
G01*
X85350000Y-73835000D01*
G75*
G02*
X85500000Y-73985000I0J-150000D01*
G01*
X85500000Y-74285000D01*
G75*
G02*
X85350000Y-74435000I-150000J0D01*
G01*
X83700000Y-74435000D01*
G75*
G02*
X83550000Y-74285000I0J150000D01*
G01*
G37*
G04 #@! TD.AperFunction*
G04 #@! TA.AperFunction,SMDPad,CuDef*
G36*
G01*
X83550000Y-75555000D02*
X83550000Y-75255000D01*
G75*
G02*
X83700000Y-75105000I150000J0D01*
G01*
X85350000Y-75105000D01*
G75*
G02*
X85500000Y-75255000I0J-150000D01*
G01*
X85500000Y-75555000D01*
G75*
G02*
X85350000Y-75705000I-150000J0D01*
G01*
X83700000Y-75705000D01*
G75*
G02*
X83550000Y-75555000I0J150000D01*
G01*
G37*
G04 #@! TD.AperFunction*
D19*
X76500000Y-72600000D03*
X75550000Y-72600000D03*
X77450000Y-72600000D03*
X77450000Y-70400000D03*
X76500000Y-70400000D03*
X75550000Y-70400000D03*
G04 #@! TA.AperFunction,SMDPad,CuDef*
G36*
G01*
X40250000Y-63556250D02*
X40250000Y-63043750D01*
G75*
G02*
X40468750Y-62825000I218750J0D01*
G01*
X40906250Y-62825000D01*
G75*
G02*
X41125000Y-63043750I0J-218750D01*
G01*
X41125000Y-63556250D01*
G75*
G02*
X40906250Y-63775000I-218750J0D01*
G01*
X40468750Y-63775000D01*
G75*
G02*
X40250000Y-63556250I0J218750D01*
G01*
G37*
G04 #@! TD.AperFunction*
G04 #@! TA.AperFunction,SMDPad,CuDef*
G36*
G01*
X38675000Y-63556250D02*
X38675000Y-63043750D01*
G75*
G02*
X38893750Y-62825000I218750J0D01*
G01*
X39331250Y-62825000D01*
G75*
G02*
X39550000Y-63043750I0J-218750D01*
G01*
X39550000Y-63556250D01*
G75*
G02*
X39331250Y-63775000I-218750J0D01*
G01*
X38893750Y-63775000D01*
G75*
G02*
X38675000Y-63556250I0J218750D01*
G01*
G37*
G04 #@! TD.AperFunction*
G04 #@! TA.AperFunction,SMDPad,CuDef*
G36*
G01*
X107243750Y-64350000D02*
X107756250Y-64350000D01*
G75*
G02*
X107975000Y-64568750I0J-218750D01*
G01*
X107975000Y-65006250D01*
G75*
G02*
X107756250Y-65225000I-218750J0D01*
G01*
X107243750Y-65225000D01*
G75*
G02*
X107025000Y-65006250I0J218750D01*
G01*
X107025000Y-64568750D01*
G75*
G02*
X107243750Y-64350000I218750J0D01*
G01*
G37*
G04 #@! TD.AperFunction*
G04 #@! TA.AperFunction,SMDPad,CuDef*
G36*
G01*
X107243750Y-62775000D02*
X107756250Y-62775000D01*
G75*
G02*
X107975000Y-62993750I0J-218750D01*
G01*
X107975000Y-63431250D01*
G75*
G02*
X107756250Y-63650000I-218750J0D01*
G01*
X107243750Y-63650000D01*
G75*
G02*
X107025000Y-63431250I0J218750D01*
G01*
X107025000Y-62993750D01*
G75*
G02*
X107243750Y-62775000I218750J0D01*
G01*
G37*
G04 #@! TD.AperFunction*
G04 #@! TA.AperFunction,SMDPad,CuDef*
G36*
G01*
X93850000Y-65143750D02*
X93850000Y-65656250D01*
G75*
G02*
X93631250Y-65875000I-218750J0D01*
G01*
X93193750Y-65875000D01*
G75*
G02*
X92975000Y-65656250I0J218750D01*
G01*
X92975000Y-65143750D01*
G75*
G02*
X93193750Y-64925000I218750J0D01*
G01*
X93631250Y-64925000D01*
G75*
G02*
X93850000Y-65143750I0J-218750D01*
G01*
G37*
G04 #@! TD.AperFunction*
G04 #@! TA.AperFunction,SMDPad,CuDef*
G36*
G01*
X95425000Y-65143750D02*
X95425000Y-65656250D01*
G75*
G02*
X95206250Y-65875000I-218750J0D01*
G01*
X94768750Y-65875000D01*
G75*
G02*
X94550000Y-65656250I0J218750D01*
G01*
X94550000Y-65143750D01*
G75*
G02*
X94768750Y-64925000I218750J0D01*
G01*
X95206250Y-64925000D01*
G75*
G02*
X95425000Y-65143750I0J-218750D01*
G01*
G37*
G04 #@! TD.AperFunction*
G04 #@! TA.AperFunction,SMDPad,CuDef*
G36*
G01*
X79256250Y-67150000D02*
X78743750Y-67150000D01*
G75*
G02*
X78525000Y-66931250I0J218750D01*
G01*
X78525000Y-66493750D01*
G75*
G02*
X78743750Y-66275000I218750J0D01*
G01*
X79256250Y-66275000D01*
G75*
G02*
X79475000Y-66493750I0J-218750D01*
G01*
X79475000Y-66931250D01*
G75*
G02*
X79256250Y-67150000I-218750J0D01*
G01*
G37*
G04 #@! TD.AperFunction*
G04 #@! TA.AperFunction,SMDPad,CuDef*
G36*
G01*
X79256250Y-68725000D02*
X78743750Y-68725000D01*
G75*
G02*
X78525000Y-68506250I0J218750D01*
G01*
X78525000Y-68068750D01*
G75*
G02*
X78743750Y-67850000I218750J0D01*
G01*
X79256250Y-67850000D01*
G75*
G02*
X79475000Y-68068750I0J-218750D01*
G01*
X79475000Y-68506250D01*
G75*
G02*
X79256250Y-68725000I-218750J0D01*
G01*
G37*
G04 #@! TD.AperFunction*
G04 #@! TA.AperFunction,SMDPad,CuDef*
G36*
G01*
X76743750Y-67850000D02*
X77256250Y-67850000D01*
G75*
G02*
X77475000Y-68068750I0J-218750D01*
G01*
X77475000Y-68506250D01*
G75*
G02*
X77256250Y-68725000I-218750J0D01*
G01*
X76743750Y-68725000D01*
G75*
G02*
X76525000Y-68506250I0J218750D01*
G01*
X76525000Y-68068750D01*
G75*
G02*
X76743750Y-67850000I218750J0D01*
G01*
G37*
G04 #@! TD.AperFunction*
G04 #@! TA.AperFunction,SMDPad,CuDef*
G36*
G01*
X76743750Y-66275000D02*
X77256250Y-66275000D01*
G75*
G02*
X77475000Y-66493750I0J-218750D01*
G01*
X77475000Y-66931250D01*
G75*
G02*
X77256250Y-67150000I-218750J0D01*
G01*
X76743750Y-67150000D01*
G75*
G02*
X76525000Y-66931250I0J218750D01*
G01*
X76525000Y-66493750D01*
G75*
G02*
X76743750Y-66275000I218750J0D01*
G01*
G37*
G04 #@! TD.AperFunction*
D20*
X70500000Y-70150000D03*
X70500000Y-74850000D03*
D21*
X105390000Y-60460000D03*
X104120000Y-63000000D03*
X102850000Y-60460000D03*
X101580000Y-63000000D03*
X100310000Y-60460000D03*
X99040000Y-63000000D03*
X97770000Y-60460000D03*
D22*
X96500000Y-63000000D03*
D23*
X75000000Y-62950000D03*
X75000000Y-65050000D03*
D24*
X78650000Y-75000000D03*
X75350000Y-75000000D03*
G04 #@! TA.AperFunction,SMDPad,CuDef*
G36*
G01*
X116637500Y-74756250D02*
X116637500Y-74243750D01*
G75*
G02*
X116856250Y-74025000I218750J0D01*
G01*
X117293750Y-74025000D01*
G75*
G02*
X117512500Y-74243750I0J-218750D01*
G01*
X117512500Y-74756250D01*
G75*
G02*
X117293750Y-74975000I-218750J0D01*
G01*
X116856250Y-74975000D01*
G75*
G02*
X116637500Y-74756250I0J218750D01*
G01*
G37*
G04 #@! TD.AperFunction*
G04 #@! TA.AperFunction,SMDPad,CuDef*
G36*
G01*
X115062500Y-74756250D02*
X115062500Y-74243750D01*
G75*
G02*
X115281250Y-74025000I218750J0D01*
G01*
X115718750Y-74025000D01*
G75*
G02*
X115937500Y-74243750I0J-218750D01*
G01*
X115937500Y-74756250D01*
G75*
G02*
X115718750Y-74975000I-218750J0D01*
G01*
X115281250Y-74975000D01*
G75*
G02*
X115062500Y-74756250I0J218750D01*
G01*
G37*
G04 #@! TD.AperFunction*
G04 #@! TA.AperFunction,SMDPad,CuDef*
G36*
G01*
X95756250Y-75150000D02*
X95243750Y-75150000D01*
G75*
G02*
X95025000Y-74931250I0J218750D01*
G01*
X95025000Y-74493750D01*
G75*
G02*
X95243750Y-74275000I218750J0D01*
G01*
X95756250Y-74275000D01*
G75*
G02*
X95975000Y-74493750I0J-218750D01*
G01*
X95975000Y-74931250D01*
G75*
G02*
X95756250Y-75150000I-218750J0D01*
G01*
G37*
G04 #@! TD.AperFunction*
G04 #@! TA.AperFunction,SMDPad,CuDef*
G36*
G01*
X95756250Y-76725000D02*
X95243750Y-76725000D01*
G75*
G02*
X95025000Y-76506250I0J218750D01*
G01*
X95025000Y-76068750D01*
G75*
G02*
X95243750Y-75850000I218750J0D01*
G01*
X95756250Y-75850000D01*
G75*
G02*
X95975000Y-76068750I0J-218750D01*
G01*
X95975000Y-76506250D01*
G75*
G02*
X95756250Y-76725000I-218750J0D01*
G01*
G37*
G04 #@! TD.AperFunction*
G04 #@! TA.AperFunction,SMDPad,CuDef*
G36*
G01*
X82256250Y-75150000D02*
X81743750Y-75150000D01*
G75*
G02*
X81525000Y-74931250I0J218750D01*
G01*
X81525000Y-74493750D01*
G75*
G02*
X81743750Y-74275000I218750J0D01*
G01*
X82256250Y-74275000D01*
G75*
G02*
X82475000Y-74493750I0J-218750D01*
G01*
X82475000Y-74931250D01*
G75*
G02*
X82256250Y-75150000I-218750J0D01*
G01*
G37*
G04 #@! TD.AperFunction*
G04 #@! TA.AperFunction,SMDPad,CuDef*
G36*
G01*
X82256250Y-76725000D02*
X81743750Y-76725000D01*
G75*
G02*
X81525000Y-76506250I0J218750D01*
G01*
X81525000Y-76068750D01*
G75*
G02*
X81743750Y-75850000I218750J0D01*
G01*
X82256250Y-75850000D01*
G75*
G02*
X82475000Y-76068750I0J-218750D01*
G01*
X82475000Y-76506250D01*
G75*
G02*
X82256250Y-76725000I-218750J0D01*
G01*
G37*
G04 #@! TD.AperFunction*
G04 #@! TA.AperFunction,SMDPad,CuDef*
G36*
G01*
X104650000Y-64743750D02*
X104650000Y-65256250D01*
G75*
G02*
X104431250Y-65475000I-218750J0D01*
G01*
X103993750Y-65475000D01*
G75*
G02*
X103775000Y-65256250I0J218750D01*
G01*
X103775000Y-64743750D01*
G75*
G02*
X103993750Y-64525000I218750J0D01*
G01*
X104431250Y-64525000D01*
G75*
G02*
X104650000Y-64743750I0J-218750D01*
G01*
G37*
G04 #@! TD.AperFunction*
G04 #@! TA.AperFunction,SMDPad,CuDef*
G36*
G01*
X106225000Y-64743750D02*
X106225000Y-65256250D01*
G75*
G02*
X106006250Y-65475000I-218750J0D01*
G01*
X105568750Y-65475000D01*
G75*
G02*
X105350000Y-65256250I0J218750D01*
G01*
X105350000Y-64743750D01*
G75*
G02*
X105568750Y-64525000I218750J0D01*
G01*
X106006250Y-64525000D01*
G75*
G02*
X106225000Y-64743750I0J-218750D01*
G01*
G37*
G04 #@! TD.AperFunction*
G04 #@! TA.AperFunction,SMDPad,CuDef*
G36*
G01*
X93656250Y-62550000D02*
X93143750Y-62550000D01*
G75*
G02*
X92925000Y-62331250I0J218750D01*
G01*
X92925000Y-61893750D01*
G75*
G02*
X93143750Y-61675000I218750J0D01*
G01*
X93656250Y-61675000D01*
G75*
G02*
X93875000Y-61893750I0J-218750D01*
G01*
X93875000Y-62331250D01*
G75*
G02*
X93656250Y-62550000I-218750J0D01*
G01*
G37*
G04 #@! TD.AperFunction*
G04 #@! TA.AperFunction,SMDPad,CuDef*
G36*
G01*
X93656250Y-64125000D02*
X93143750Y-64125000D01*
G75*
G02*
X92925000Y-63906250I0J218750D01*
G01*
X92925000Y-63468750D01*
G75*
G02*
X93143750Y-63250000I218750J0D01*
G01*
X93656250Y-63250000D01*
G75*
G02*
X93875000Y-63468750I0J-218750D01*
G01*
X93875000Y-63906250D01*
G75*
G02*
X93656250Y-64125000I-218750J0D01*
G01*
G37*
G04 #@! TD.AperFunction*
G04 #@! TA.AperFunction,SMDPad,CuDef*
G36*
G01*
X72956250Y-66550000D02*
X72043750Y-66550000D01*
G75*
G02*
X71800000Y-66306250I0J243750D01*
G01*
X71800000Y-65818750D01*
G75*
G02*
X72043750Y-65575000I243750J0D01*
G01*
X72956250Y-65575000D01*
G75*
G02*
X73200000Y-65818750I0J-243750D01*
G01*
X73200000Y-66306250D01*
G75*
G02*
X72956250Y-66550000I-243750J0D01*
G01*
G37*
G04 #@! TD.AperFunction*
G04 #@! TA.AperFunction,SMDPad,CuDef*
G36*
G01*
X72956250Y-68425000D02*
X72043750Y-68425000D01*
G75*
G02*
X71800000Y-68181250I0J243750D01*
G01*
X71800000Y-67693750D01*
G75*
G02*
X72043750Y-67450000I243750J0D01*
G01*
X72956250Y-67450000D01*
G75*
G02*
X73200000Y-67693750I0J-243750D01*
G01*
X73200000Y-68181250D01*
G75*
G02*
X72956250Y-68425000I-243750J0D01*
G01*
G37*
G04 #@! TD.AperFunction*
G04 #@! TA.AperFunction,SMDPad,CuDef*
G36*
G01*
X74743750Y-67850000D02*
X75256250Y-67850000D01*
G75*
G02*
X75475000Y-68068750I0J-218750D01*
G01*
X75475000Y-68506250D01*
G75*
G02*
X75256250Y-68725000I-218750J0D01*
G01*
X74743750Y-68725000D01*
G75*
G02*
X74525000Y-68506250I0J218750D01*
G01*
X74525000Y-68068750D01*
G75*
G02*
X74743750Y-67850000I218750J0D01*
G01*
G37*
G04 #@! TD.AperFunction*
G04 #@! TA.AperFunction,SMDPad,CuDef*
G36*
G01*
X74743750Y-66275000D02*
X75256250Y-66275000D01*
G75*
G02*
X75475000Y-66493750I0J-218750D01*
G01*
X75475000Y-66931250D01*
G75*
G02*
X75256250Y-67150000I-218750J0D01*
G01*
X74743750Y-67150000D01*
G75*
G02*
X74525000Y-66931250I0J218750D01*
G01*
X74525000Y-66493750D01*
G75*
G02*
X74743750Y-66275000I218750J0D01*
G01*
G37*
G04 #@! TD.AperFunction*
G04 #@! TA.AperFunction,SMDPad,CuDef*
G36*
G01*
X80456250Y-71050000D02*
X79543750Y-71050000D01*
G75*
G02*
X79300000Y-70806250I0J243750D01*
G01*
X79300000Y-70318750D01*
G75*
G02*
X79543750Y-70075000I243750J0D01*
G01*
X80456250Y-70075000D01*
G75*
G02*
X80700000Y-70318750I0J-243750D01*
G01*
X80700000Y-70806250D01*
G75*
G02*
X80456250Y-71050000I-243750J0D01*
G01*
G37*
G04 #@! TD.AperFunction*
G04 #@! TA.AperFunction,SMDPad,CuDef*
G36*
G01*
X80456250Y-72925000D02*
X79543750Y-72925000D01*
G75*
G02*
X79300000Y-72681250I0J243750D01*
G01*
X79300000Y-72193750D01*
G75*
G02*
X79543750Y-71950000I243750J0D01*
G01*
X80456250Y-71950000D01*
G75*
G02*
X80700000Y-72193750I0J-243750D01*
G01*
X80700000Y-72681250D01*
G75*
G02*
X80456250Y-72925000I-243750J0D01*
G01*
G37*
G04 #@! TD.AperFunction*
D25*
X79000000Y-65000000D03*
X80000000Y-75000000D03*
X78500000Y-71000000D03*
X48200000Y-66200000D03*
X38700000Y-66800000D03*
X38500000Y-76200000D03*
X38800000Y-51400000D03*
X52900000Y-51100000D03*
X61700000Y-72000000D03*
X87100000Y-74500000D03*
X88500000Y-64200000D03*
X92500000Y-59900000D03*
X69700000Y-51300000D03*
X89950000Y-52350000D03*
X100600000Y-73300000D03*
X93700000Y-73500000D03*
X100300000Y-76400000D03*
X113600000Y-74300000D03*
X129200000Y-76400000D03*
X121100000Y-72400000D03*
X128800000Y-51600000D03*
X114600000Y-51600000D03*
X129100000Y-64100000D03*
X70500000Y-72000000D03*
X86212500Y-76287500D03*
X39100000Y-61600000D03*
X53000000Y-76875000D03*
X117100000Y-68500000D03*
X108100000Y-60200000D03*
X122900000Y-67600000D03*
D26*
X86200000Y-52350000D02*
X89950000Y-52350000D01*
X79550000Y-59000000D02*
X86200000Y-52350000D01*
X95000000Y-52350000D02*
X100000000Y-52350000D01*
X100000000Y-52350000D02*
X105000000Y-52350000D01*
X105000000Y-52350000D02*
X110000000Y-52350000D01*
X115000000Y-56189998D02*
X115000000Y-60500000D01*
X111160002Y-52350000D02*
X115000000Y-56189998D01*
X110000000Y-52350000D02*
X111160002Y-52350000D01*
X62550000Y-61400000D02*
X63500000Y-62350000D01*
X62550000Y-58910000D02*
X62550000Y-61400000D01*
X67500000Y-62350000D02*
X67850000Y-62700000D01*
X63500000Y-62350000D02*
X67500000Y-62350000D01*
X65750009Y-55709991D02*
X76259991Y-55709991D01*
X62550000Y-58910000D02*
X65750009Y-55709991D01*
X76259991Y-55709991D02*
X79550000Y-59000000D01*
D27*
X70487500Y-66212500D02*
X70500000Y-66225000D01*
X68500000Y-66212500D02*
X70487500Y-66212500D01*
X72337500Y-66225000D02*
X72500000Y-66062500D01*
X70500000Y-66225000D02*
X72337500Y-66225000D01*
X67850000Y-65562500D02*
X68500000Y-66212500D01*
X67850000Y-62700000D02*
X67850000Y-65562500D01*
D28*
X80000000Y-70562500D02*
X79200010Y-71362490D01*
X79200010Y-71362490D02*
X78350001Y-71362490D01*
D29*
X76764999Y-71380001D02*
X76500000Y-71115002D01*
X78332490Y-71380001D02*
X76764999Y-71380001D01*
X76500000Y-71115002D02*
X76500000Y-70400000D01*
X78350001Y-71362490D02*
X78332490Y-71380001D01*
D27*
X79000000Y-65000000D02*
X79000000Y-66712500D01*
X80175010Y-70387490D02*
X80000000Y-70562500D01*
X80175010Y-67412510D02*
X80175010Y-70387490D01*
X79475000Y-66712500D02*
X80175010Y-67412510D01*
X79000000Y-66712500D02*
X79475000Y-66712500D01*
D26*
X61460000Y-60000000D02*
X62550000Y-58910000D01*
X52500000Y-60000000D02*
X61460000Y-60000000D01*
D27*
X45150000Y-71650000D02*
X45000000Y-71500000D01*
X45150000Y-75000000D02*
X45150000Y-71650000D01*
X55150000Y-71650000D02*
X55000000Y-71500000D01*
X55150000Y-75000000D02*
X55150000Y-71650000D01*
X78650000Y-75000000D02*
X80000000Y-75000000D01*
X79562500Y-71000000D02*
X80000000Y-70562500D01*
X78500000Y-71000000D02*
X79562500Y-71000000D01*
D29*
X82577500Y-74135000D02*
X84525000Y-74135000D01*
X82000000Y-74712500D02*
X82577500Y-74135000D01*
X84525000Y-74135000D02*
X84525000Y-72865000D01*
X80000000Y-75000000D02*
X80287500Y-74712500D01*
X80287500Y-74712500D02*
X82000000Y-74712500D01*
D27*
X128500000Y-66850000D02*
X125500000Y-63850000D01*
X128500000Y-72000000D02*
X128500000Y-66850000D01*
D30*
X98025000Y-72865000D02*
X98025000Y-74135000D01*
D26*
X89950000Y-52350000D02*
X95000000Y-52350000D01*
D27*
X70500000Y-74850000D02*
X74700000Y-74850000D01*
X74700000Y-73450000D02*
X75474999Y-72675001D01*
X74700000Y-74850000D02*
X74700000Y-73450000D01*
D29*
X74774999Y-68512501D02*
X75000000Y-68287500D01*
X74774999Y-71824999D02*
X74774999Y-68512501D01*
X75550000Y-72600000D02*
X74774999Y-71824999D01*
D28*
X74850000Y-75000000D02*
X74700000Y-74850000D01*
X75350000Y-75000000D02*
X74850000Y-75000000D01*
D29*
X75925010Y-68783262D02*
X75925010Y-67637510D01*
X75925010Y-67637510D02*
X75000000Y-66712500D01*
X75550000Y-69158272D02*
X75925010Y-68783262D01*
X75550000Y-70400000D02*
X75550000Y-69158272D01*
X75000000Y-66712500D02*
X75000000Y-65050000D01*
D27*
X70500000Y-70150000D02*
X70500000Y-67775000D01*
X72337500Y-67775000D02*
X72500000Y-67937500D01*
X70500000Y-67775000D02*
X72337500Y-67775000D01*
X63937500Y-66212500D02*
X63500000Y-66650000D01*
X67000000Y-70150000D02*
X70500000Y-70150000D01*
X63500000Y-66650000D02*
X67000000Y-70150000D01*
D28*
X73949990Y-66487510D02*
X72500000Y-67937500D01*
X73949990Y-64075010D02*
X73949990Y-66487510D01*
X75000000Y-63025000D02*
X73949990Y-64075010D01*
X75000000Y-62950000D02*
X75000000Y-63025000D01*
X77000000Y-64950000D02*
X75000000Y-62950000D01*
X77000000Y-66712500D02*
X77000000Y-64950000D01*
D31*
X54150000Y-66650000D02*
X52500000Y-65000000D01*
X63500000Y-66650000D02*
X54150000Y-66650000D01*
D29*
X88592500Y-76287500D02*
X89475000Y-75405000D01*
D28*
X70500000Y-70150000D02*
X70500000Y-72000000D01*
D29*
X86212500Y-76287500D02*
X88592500Y-76287500D01*
X82000000Y-76287500D02*
X86212500Y-76287500D01*
X94617500Y-75405000D02*
X95500000Y-76287500D01*
X89475000Y-75405000D02*
X94617500Y-75405000D01*
D30*
X95500000Y-76287500D02*
X95500000Y-76200000D01*
X102349990Y-74779990D02*
X102975000Y-75405000D01*
X96920010Y-74779990D02*
X102349990Y-74779990D01*
X95500000Y-76200000D02*
X96920010Y-74779990D01*
D29*
X109515000Y-75405000D02*
X112920000Y-72000000D01*
X102975000Y-75405000D02*
X109515000Y-75405000D01*
X122119999Y-70699999D02*
X123420000Y-72000000D01*
X114220001Y-70699999D02*
X122119999Y-70699999D01*
X112920000Y-72000000D02*
X114220001Y-70699999D01*
D27*
X96500000Y-63000000D02*
X95000000Y-61500000D01*
D29*
X93887500Y-62112500D02*
X95000000Y-61000000D01*
X93400000Y-62112500D02*
X93887500Y-62112500D01*
D27*
X95000000Y-61000000D02*
X95000000Y-56650000D01*
X95000000Y-61500000D02*
X95000000Y-61000000D01*
D29*
X90450000Y-72865000D02*
X89475000Y-72865000D01*
X92474990Y-70840010D02*
X90450000Y-72865000D01*
X92474990Y-63037510D02*
X92474990Y-70840010D01*
X93400000Y-62112500D02*
X92474990Y-63037510D01*
X93400000Y-65387500D02*
X93412500Y-65400000D01*
X93400000Y-63687500D02*
X93400000Y-65387500D01*
D27*
X104120000Y-63000000D02*
X104120000Y-61336002D01*
D29*
X104120000Y-57530000D02*
X105000000Y-56650000D01*
D27*
X104120000Y-58920000D02*
X104120000Y-59583998D01*
D29*
X104120000Y-61336002D02*
X104120000Y-58920000D01*
X104120000Y-58920000D02*
X104120000Y-57530000D01*
D27*
X104120000Y-58920000D02*
X104120000Y-58020000D01*
D29*
X104212500Y-63092500D02*
X104120000Y-63000000D01*
X104212500Y-65000000D02*
X104212500Y-63092500D01*
X103528544Y-72865000D02*
X102975000Y-72865000D01*
X104400010Y-71993534D02*
X103528544Y-72865000D01*
X104400010Y-65187510D02*
X104400010Y-71993534D01*
X104212500Y-65000000D02*
X104400010Y-65187510D01*
X106000000Y-64787500D02*
X105787500Y-65000000D01*
X107500000Y-64787500D02*
X106000000Y-64787500D01*
D30*
X39112500Y-61612500D02*
X39100000Y-61600000D01*
X39100000Y-63287500D02*
X39112500Y-63300000D01*
X39100000Y-61600000D02*
X39100000Y-63287500D01*
D27*
X106190000Y-60460000D02*
X110000000Y-56650000D01*
X105390000Y-60460000D02*
X106190000Y-60460000D01*
D29*
X107500000Y-62570000D02*
X105390000Y-60460000D01*
X107500000Y-63212500D02*
X107500000Y-62570000D01*
X104909002Y-74135000D02*
X102975000Y-74135000D01*
X108710001Y-70334001D02*
X104909002Y-74135000D01*
X108710001Y-64422501D02*
X108710001Y-70334001D01*
X107500000Y-63212500D02*
X108710001Y-64422501D01*
D27*
X97770000Y-58880000D02*
X100000000Y-56650000D01*
X97770000Y-60460000D02*
X97770000Y-58880000D01*
D29*
X97770000Y-64040002D02*
X97770000Y-60460000D01*
X96410002Y-65400000D02*
X97770000Y-64040002D01*
X94987500Y-65400000D02*
X96410002Y-65400000D01*
X90450000Y-74135000D02*
X89475000Y-74135000D01*
X93179999Y-71405001D02*
X90450000Y-74135000D01*
X93179999Y-67207501D02*
X93179999Y-71405001D01*
X94987500Y-65400000D02*
X93179999Y-67207501D01*
D27*
X40850000Y-73110000D02*
X42460000Y-71500000D01*
X40850000Y-75000000D02*
X40850000Y-73110000D01*
D30*
X52326995Y-76475001D02*
X42325001Y-76475001D01*
X52651998Y-76149998D02*
X52326995Y-76475001D01*
X53348002Y-76149998D02*
X52651998Y-76149998D01*
X56660001Y-76475001D02*
X53673005Y-76475001D01*
X79741751Y-76424989D02*
X56710013Y-76424989D01*
X80641750Y-75524990D02*
X79741751Y-76424989D01*
X56710013Y-76424989D02*
X56660001Y-76475001D01*
X84525000Y-75405000D02*
X83550000Y-75405000D01*
X83550000Y-75405000D02*
X83430010Y-75524990D01*
X53673005Y-76475001D02*
X53348002Y-76149998D01*
X83430010Y-75524990D02*
X80641750Y-75524990D01*
X42325001Y-76475001D02*
X40850000Y-75000000D01*
D27*
X50850000Y-73110000D02*
X52460000Y-71500000D01*
X50850000Y-75000000D02*
X50850000Y-73110000D01*
D30*
X96379990Y-77050010D02*
X81050010Y-77050010D01*
X98025000Y-75405000D02*
X96379990Y-77050010D01*
X53403587Y-76875000D02*
X53000000Y-76875000D01*
X53453599Y-76925012D02*
X53403587Y-76875000D01*
X80925012Y-76925012D02*
X53453599Y-76925012D01*
X81050010Y-77050010D02*
X80925012Y-76925012D01*
D29*
X77712500Y-70137500D02*
X77450000Y-70400000D01*
X77712500Y-68287500D02*
X77712500Y-70137500D01*
X79000000Y-68287500D02*
X77712500Y-68287500D01*
X77712500Y-68287500D02*
X77000000Y-68287500D01*
D30*
X115500000Y-72040000D02*
X115460000Y-72000000D01*
X115500000Y-74500000D02*
X115500000Y-72040000D01*
D27*
X119650000Y-68500000D02*
X120000000Y-68150000D01*
X117100000Y-68500000D02*
X119650000Y-68500000D01*
D30*
X108100000Y-61185002D02*
X108100000Y-60200000D01*
X115064998Y-68150000D02*
X108100000Y-61185002D01*
X120000000Y-68150000D02*
X115064998Y-68150000D01*
X126212500Y-72252500D02*
X125960000Y-72000000D01*
X126212500Y-74500000D02*
X126212500Y-72252500D01*
D27*
X125960000Y-68610000D02*
X125500000Y-68150000D01*
X125960000Y-72000000D02*
X125960000Y-68610000D01*
D30*
X123450000Y-68150000D02*
X125500000Y-68150000D01*
X122900000Y-67600000D02*
X123450000Y-68150000D01*
D26*
X72150000Y-60610000D02*
X70450000Y-58910000D01*
X72150000Y-62700000D02*
X72150000Y-60610000D01*
D31*
X81990772Y-61700009D02*
X83190781Y-60500000D01*
X85950000Y-60500000D02*
X87450000Y-59000000D01*
X83190781Y-60500000D02*
X85950000Y-60500000D01*
D27*
X80000000Y-72437500D02*
X76675008Y-72437500D01*
X81400010Y-71737490D02*
X81400010Y-62400010D01*
X80000000Y-72437500D02*
X80700000Y-72437500D01*
X80700000Y-72437500D02*
X81400010Y-71737490D01*
D32*
X121949461Y-71781039D02*
X121935000Y-71853740D01*
X121935000Y-72146260D01*
X121992068Y-72433158D01*
X122104010Y-72703411D01*
X122266525Y-72946632D01*
X122473368Y-73153475D01*
X122716589Y-73315990D01*
X122986842Y-73427932D01*
X123273740Y-73485000D01*
X123566260Y-73485000D01*
X123853158Y-73427932D01*
X124123411Y-73315990D01*
X124366632Y-73153475D01*
X124573475Y-72946632D01*
X124690000Y-72772240D01*
X124806525Y-72946632D01*
X125013368Y-73153475D01*
X125256589Y-73315990D01*
X125452500Y-73397139D01*
X125452500Y-73584857D01*
X125387885Y-73637885D01*
X125281329Y-73767725D01*
X125202150Y-73915858D01*
X125153392Y-74076592D01*
X125136928Y-74243750D01*
X125136928Y-74756250D01*
X125153392Y-74923408D01*
X125202150Y-75084142D01*
X125281329Y-75232275D01*
X125387885Y-75362115D01*
X125517725Y-75468671D01*
X125665858Y-75547850D01*
X125826592Y-75596608D01*
X125993750Y-75613072D01*
X126431250Y-75613072D01*
X126598408Y-75596608D01*
X126759142Y-75547850D01*
X126907275Y-75468671D01*
X126928930Y-75450900D01*
X126995506Y-75505537D01*
X127105820Y-75564502D01*
X127225518Y-75600812D01*
X127350000Y-75613072D01*
X127501750Y-75610000D01*
X127660500Y-75451250D01*
X127660500Y-74627000D01*
X127914500Y-74627000D01*
X127914500Y-75451250D01*
X128073250Y-75610000D01*
X128225000Y-75613072D01*
X128349482Y-75600812D01*
X128469180Y-75564502D01*
X128579494Y-75505537D01*
X128676185Y-75426185D01*
X128755537Y-75329494D01*
X128814502Y-75219180D01*
X128850812Y-75099482D01*
X128863072Y-74975000D01*
X128860000Y-74785750D01*
X128701250Y-74627000D01*
X127914500Y-74627000D01*
X127660500Y-74627000D01*
X127640500Y-74627000D01*
X127640500Y-74373000D01*
X127660500Y-74373000D01*
X127660500Y-74353000D01*
X127914500Y-74353000D01*
X127914500Y-74373000D01*
X128701250Y-74373000D01*
X128860000Y-74214250D01*
X128863072Y-74025000D01*
X128850812Y-73900518D01*
X128814502Y-73780820D01*
X128755537Y-73670506D01*
X128676185Y-73573815D01*
X128579494Y-73494463D01*
X128561790Y-73485000D01*
X128627002Y-73485000D01*
X128627002Y-73326252D01*
X128785750Y-73485000D01*
X129350000Y-73488072D01*
X129474482Y-73475812D01*
X129594180Y-73439502D01*
X129704494Y-73380537D01*
X129801185Y-73301185D01*
X129840000Y-73253888D01*
X129840000Y-76467721D01*
X129830420Y-76565424D01*
X129811420Y-76628357D01*
X129780554Y-76686406D01*
X129739011Y-76737343D01*
X129688356Y-76779248D01*
X129630529Y-76810515D01*
X129567728Y-76829956D01*
X129472165Y-76840000D01*
X97664802Y-76840000D01*
X98161730Y-76343072D01*
X98850000Y-76343072D01*
X99003745Y-76327929D01*
X99151582Y-76283084D01*
X99287829Y-76210258D01*
X99407251Y-76112251D01*
X99505258Y-75992829D01*
X99578084Y-75856582D01*
X99622929Y-75708745D01*
X99638072Y-75555000D01*
X99638072Y-75539990D01*
X101361928Y-75539990D01*
X101361928Y-75555000D01*
X101377071Y-75708745D01*
X101421916Y-75856582D01*
X101494742Y-75992829D01*
X101592749Y-76112251D01*
X101712171Y-76210258D01*
X101848418Y-76283084D01*
X101996255Y-76327929D01*
X102150000Y-76343072D01*
X103800000Y-76343072D01*
X103953745Y-76327929D01*
X104078783Y-76290000D01*
X109471531Y-76290000D01*
X109515000Y-76294281D01*
X109558469Y-76290000D01*
X109558477Y-76290000D01*
X109688490Y-76277195D01*
X109855313Y-76226589D01*
X110009059Y-76144411D01*
X110143817Y-76033817D01*
X110171534Y-76000044D01*
X112701040Y-73470539D01*
X112773740Y-73485000D01*
X113066260Y-73485000D01*
X113353158Y-73427932D01*
X113623411Y-73315990D01*
X113866632Y-73153475D01*
X114073475Y-72946632D01*
X114190000Y-72772240D01*
X114306525Y-72946632D01*
X114513368Y-73153475D01*
X114740000Y-73304906D01*
X114740000Y-73584857D01*
X114675385Y-73637885D01*
X114568829Y-73767725D01*
X114489650Y-73915858D01*
X114440892Y-74076592D01*
X114424428Y-74243750D01*
X114424428Y-74756250D01*
X114440892Y-74923408D01*
X114489650Y-75084142D01*
X114568829Y-75232275D01*
X114675385Y-75362115D01*
X114805225Y-75468671D01*
X114953358Y-75547850D01*
X115114092Y-75596608D01*
X115281250Y-75613072D01*
X115718750Y-75613072D01*
X115885908Y-75596608D01*
X116046642Y-75547850D01*
X116194775Y-75468671D01*
X116216430Y-75450900D01*
X116283006Y-75505537D01*
X116393320Y-75564502D01*
X116513018Y-75600812D01*
X116637500Y-75613072D01*
X116789250Y-75610000D01*
X116948000Y-75451250D01*
X116948000Y-74627000D01*
X117202000Y-74627000D01*
X117202000Y-75451250D01*
X117360750Y-75610000D01*
X117512500Y-75613072D01*
X117636982Y-75600812D01*
X117756680Y-75564502D01*
X117866994Y-75505537D01*
X117963685Y-75426185D01*
X118043037Y-75329494D01*
X118102002Y-75219180D01*
X118138312Y-75099482D01*
X118150572Y-74975000D01*
X118147500Y-74785750D01*
X117988750Y-74627000D01*
X117202000Y-74627000D01*
X116948000Y-74627000D01*
X116928000Y-74627000D01*
X116928000Y-74373000D01*
X116948000Y-74373000D01*
X116948000Y-74353000D01*
X117202000Y-74353000D01*
X117202000Y-74373000D01*
X117988750Y-74373000D01*
X118147500Y-74214250D01*
X118150572Y-74025000D01*
X118138312Y-73900518D01*
X118102002Y-73780820D01*
X118043037Y-73670506D01*
X117963685Y-73573815D01*
X117866994Y-73494463D01*
X117761289Y-73437961D01*
X117873000Y-73326250D01*
X117873000Y-72127000D01*
X118127000Y-72127000D01*
X118127000Y-73326250D01*
X118285750Y-73485000D01*
X118850000Y-73488072D01*
X118974482Y-73475812D01*
X119094180Y-73439502D01*
X119204494Y-73380537D01*
X119301185Y-73301185D01*
X119380537Y-73204494D01*
X119439502Y-73094180D01*
X119475812Y-72974482D01*
X119488072Y-72850000D01*
X119485000Y-72285750D01*
X119326250Y-72127000D01*
X118127000Y-72127000D01*
X117873000Y-72127000D01*
X117853000Y-72127000D01*
X117853000Y-71873000D01*
X117873000Y-71873000D01*
X117873000Y-71853000D01*
X118127000Y-71853000D01*
X118127000Y-71873000D01*
X119326250Y-71873000D01*
X119485000Y-71714250D01*
X119485704Y-71584999D01*
X121753421Y-71584999D01*
X121949461Y-71781039D01*
G04 #@! TA.AperFunction,Conductor*
D33*
G36*
X121949461Y-71781039D02*
G01*
X121935000Y-71853740D01*
X121935000Y-72146260D01*
X121992068Y-72433158D01*
X122104010Y-72703411D01*
X122266525Y-72946632D01*
X122473368Y-73153475D01*
X122716589Y-73315990D01*
X122986842Y-73427932D01*
X123273740Y-73485000D01*
X123566260Y-73485000D01*
X123853158Y-73427932D01*
X124123411Y-73315990D01*
X124366632Y-73153475D01*
X124573475Y-72946632D01*
X124690000Y-72772240D01*
X124806525Y-72946632D01*
X125013368Y-73153475D01*
X125256589Y-73315990D01*
X125452500Y-73397139D01*
X125452500Y-73584857D01*
X125387885Y-73637885D01*
X125281329Y-73767725D01*
X125202150Y-73915858D01*
X125153392Y-74076592D01*
X125136928Y-74243750D01*
X125136928Y-74756250D01*
X125153392Y-74923408D01*
X125202150Y-75084142D01*
X125281329Y-75232275D01*
X125387885Y-75362115D01*
X125517725Y-75468671D01*
X125665858Y-75547850D01*
X125826592Y-75596608D01*
X125993750Y-75613072D01*
X126431250Y-75613072D01*
X126598408Y-75596608D01*
X126759142Y-75547850D01*
X126907275Y-75468671D01*
X126928930Y-75450900D01*
X126995506Y-75505537D01*
X127105820Y-75564502D01*
X127225518Y-75600812D01*
X127350000Y-75613072D01*
X127501750Y-75610000D01*
X127660500Y-75451250D01*
X127660500Y-74627000D01*
X127914500Y-74627000D01*
X127914500Y-75451250D01*
X128073250Y-75610000D01*
X128225000Y-75613072D01*
X128349482Y-75600812D01*
X128469180Y-75564502D01*
X128579494Y-75505537D01*
X128676185Y-75426185D01*
X128755537Y-75329494D01*
X128814502Y-75219180D01*
X128850812Y-75099482D01*
X128863072Y-74975000D01*
X128860000Y-74785750D01*
X128701250Y-74627000D01*
X127914500Y-74627000D01*
X127660500Y-74627000D01*
X127640500Y-74627000D01*
X127640500Y-74373000D01*
X127660500Y-74373000D01*
X127660500Y-74353000D01*
X127914500Y-74353000D01*
X127914500Y-74373000D01*
X128701250Y-74373000D01*
X128860000Y-74214250D01*
X128863072Y-74025000D01*
X128850812Y-73900518D01*
X128814502Y-73780820D01*
X128755537Y-73670506D01*
X128676185Y-73573815D01*
X128579494Y-73494463D01*
X128561790Y-73485000D01*
X128627002Y-73485000D01*
X128627002Y-73326252D01*
X128785750Y-73485000D01*
X129350000Y-73488072D01*
X129474482Y-73475812D01*
X129594180Y-73439502D01*
X129704494Y-73380537D01*
X129801185Y-73301185D01*
X129840000Y-73253888D01*
X129840000Y-76467721D01*
X129830420Y-76565424D01*
X129811420Y-76628357D01*
X129780554Y-76686406D01*
X129739011Y-76737343D01*
X129688356Y-76779248D01*
X129630529Y-76810515D01*
X129567728Y-76829956D01*
X129472165Y-76840000D01*
X97664802Y-76840000D01*
X98161730Y-76343072D01*
X98850000Y-76343072D01*
X99003745Y-76327929D01*
X99151582Y-76283084D01*
X99287829Y-76210258D01*
X99407251Y-76112251D01*
X99505258Y-75992829D01*
X99578084Y-75856582D01*
X99622929Y-75708745D01*
X99638072Y-75555000D01*
X99638072Y-75539990D01*
X101361928Y-75539990D01*
X101361928Y-75555000D01*
X101377071Y-75708745D01*
X101421916Y-75856582D01*
X101494742Y-75992829D01*
X101592749Y-76112251D01*
X101712171Y-76210258D01*
X101848418Y-76283084D01*
X101996255Y-76327929D01*
X102150000Y-76343072D01*
X103800000Y-76343072D01*
X103953745Y-76327929D01*
X104078783Y-76290000D01*
X109471531Y-76290000D01*
X109515000Y-76294281D01*
X109558469Y-76290000D01*
X109558477Y-76290000D01*
X109688490Y-76277195D01*
X109855313Y-76226589D01*
X110009059Y-76144411D01*
X110143817Y-76033817D01*
X110171534Y-76000044D01*
X112701040Y-73470539D01*
X112773740Y-73485000D01*
X113066260Y-73485000D01*
X113353158Y-73427932D01*
X113623411Y-73315990D01*
X113866632Y-73153475D01*
X114073475Y-72946632D01*
X114190000Y-72772240D01*
X114306525Y-72946632D01*
X114513368Y-73153475D01*
X114740000Y-73304906D01*
X114740000Y-73584857D01*
X114675385Y-73637885D01*
X114568829Y-73767725D01*
X114489650Y-73915858D01*
X114440892Y-74076592D01*
X114424428Y-74243750D01*
X114424428Y-74756250D01*
X114440892Y-74923408D01*
X114489650Y-75084142D01*
X114568829Y-75232275D01*
X114675385Y-75362115D01*
X114805225Y-75468671D01*
X114953358Y-75547850D01*
X115114092Y-75596608D01*
X115281250Y-75613072D01*
X115718750Y-75613072D01*
X115885908Y-75596608D01*
X116046642Y-75547850D01*
X116194775Y-75468671D01*
X116216430Y-75450900D01*
X116283006Y-75505537D01*
X116393320Y-75564502D01*
X116513018Y-75600812D01*
X116637500Y-75613072D01*
X116789250Y-75610000D01*
X116948000Y-75451250D01*
X116948000Y-74627000D01*
X117202000Y-74627000D01*
X117202000Y-75451250D01*
X117360750Y-75610000D01*
X117512500Y-75613072D01*
X117636982Y-75600812D01*
X117756680Y-75564502D01*
X117866994Y-75505537D01*
X117963685Y-75426185D01*
X118043037Y-75329494D01*
X118102002Y-75219180D01*
X118138312Y-75099482D01*
X118150572Y-74975000D01*
X118147500Y-74785750D01*
X117988750Y-74627000D01*
X117202000Y-74627000D01*
X116948000Y-74627000D01*
X116928000Y-74627000D01*
X116928000Y-74373000D01*
X116948000Y-74373000D01*
X116948000Y-74353000D01*
X117202000Y-74353000D01*
X117202000Y-74373000D01*
X117988750Y-74373000D01*
X118147500Y-74214250D01*
X118150572Y-74025000D01*
X118138312Y-73900518D01*
X118102002Y-73780820D01*
X118043037Y-73670506D01*
X117963685Y-73573815D01*
X117866994Y-73494463D01*
X117761289Y-73437961D01*
X117873000Y-73326250D01*
X117873000Y-72127000D01*
X118127000Y-72127000D01*
X118127000Y-73326250D01*
X118285750Y-73485000D01*
X118850000Y-73488072D01*
X118974482Y-73475812D01*
X119094180Y-73439502D01*
X119204494Y-73380537D01*
X119301185Y-73301185D01*
X119380537Y-73204494D01*
X119439502Y-73094180D01*
X119475812Y-72974482D01*
X119488072Y-72850000D01*
X119485000Y-72285750D01*
X119326250Y-72127000D01*
X118127000Y-72127000D01*
X117873000Y-72127000D01*
X117853000Y-72127000D01*
X117853000Y-71873000D01*
X117873000Y-71873000D01*
X117873000Y-71853000D01*
X118127000Y-71853000D01*
X118127000Y-71873000D01*
X119326250Y-71873000D01*
X119485000Y-71714250D01*
X119485704Y-71584999D01*
X121753421Y-71584999D01*
X121949461Y-71781039D01*
G37*
G04 #@! TD.AperFunction*
D32*
X93319463Y-50745506D02*
X93260498Y-50855820D01*
X93224188Y-50975518D01*
X93211928Y-51100000D01*
X93215000Y-52064250D01*
X93373750Y-52223000D01*
X94873000Y-52223000D01*
X94873000Y-52203000D01*
X95127000Y-52203000D01*
X95127000Y-52223000D01*
X96626250Y-52223000D01*
X96785000Y-52064250D01*
X96788072Y-51100000D01*
X96775812Y-50975518D01*
X96739502Y-50855820D01*
X96680537Y-50745506D01*
X96610364Y-50660000D01*
X98389636Y-50660000D01*
X98319463Y-50745506D01*
X98260498Y-50855820D01*
X98224188Y-50975518D01*
X98211928Y-51100000D01*
X98215000Y-52064250D01*
X98373750Y-52223000D01*
X99873000Y-52223000D01*
X99873000Y-52203000D01*
X100127000Y-52203000D01*
X100127000Y-52223000D01*
X101626250Y-52223000D01*
X101785000Y-52064250D01*
X101788072Y-51100000D01*
X101775812Y-50975518D01*
X101739502Y-50855820D01*
X101680537Y-50745506D01*
X101610364Y-50660000D01*
X103389636Y-50660000D01*
X103319463Y-50745506D01*
X103260498Y-50855820D01*
X103224188Y-50975518D01*
X103211928Y-51100000D01*
X103215000Y-52064250D01*
X103373750Y-52223000D01*
X104873000Y-52223000D01*
X104873000Y-52203000D01*
X105127000Y-52203000D01*
X105127000Y-52223000D01*
X106626250Y-52223000D01*
X106785000Y-52064250D01*
X106788072Y-51100000D01*
X106775812Y-50975518D01*
X106739502Y-50855820D01*
X106680537Y-50745506D01*
X106610364Y-50660000D01*
X108389636Y-50660000D01*
X108319463Y-50745506D01*
X108260498Y-50855820D01*
X108224188Y-50975518D01*
X108211928Y-51100000D01*
X108215000Y-52064250D01*
X108373750Y-52223000D01*
X109873000Y-52223000D01*
X109873000Y-52203000D01*
X110127000Y-52203000D01*
X110127000Y-52223000D01*
X111626250Y-52223000D01*
X111785000Y-52064250D01*
X111788072Y-51100000D01*
X111775812Y-50975518D01*
X111739502Y-50855820D01*
X111680537Y-50745506D01*
X111610364Y-50660000D01*
X129467721Y-50660000D01*
X129565424Y-50669580D01*
X129628356Y-50688580D01*
X129686405Y-50719445D01*
X129737343Y-50760989D01*
X129779248Y-50811644D01*
X129810515Y-50869471D01*
X129829956Y-50932272D01*
X129840001Y-51027845D01*
X129840000Y-70746112D01*
X129801185Y-70698815D01*
X129704494Y-70619463D01*
X129594180Y-70560498D01*
X129474482Y-70524188D01*
X129350000Y-70511928D01*
X128785750Y-70515000D01*
X128627000Y-70673750D01*
X128627000Y-71873000D01*
X128647000Y-71873000D01*
X128647000Y-72127000D01*
X128627000Y-72127000D01*
X128627000Y-72147000D01*
X128373000Y-72147000D01*
X128373000Y-72127000D01*
X128353000Y-72127000D01*
X128353000Y-71873000D01*
X128373000Y-71873000D01*
X128373000Y-70673750D01*
X128214250Y-70515000D01*
X127650000Y-70511928D01*
X127525518Y-70524188D01*
X127405820Y-70560498D01*
X127295506Y-70619463D01*
X127198815Y-70698815D01*
X127119463Y-70795506D01*
X127095000Y-70841272D01*
X127095000Y-69856261D01*
X127101185Y-69851185D01*
X127180537Y-69754494D01*
X127239502Y-69644180D01*
X127275812Y-69524482D01*
X127288072Y-69400000D01*
X127288072Y-66900000D01*
X127275812Y-66775518D01*
X127239502Y-66655820D01*
X127180537Y-66545506D01*
X127101185Y-66448815D01*
X127004494Y-66369463D01*
X126894180Y-66310498D01*
X126774482Y-66274188D01*
X126650000Y-66261928D01*
X124350000Y-66261928D01*
X124225518Y-66274188D01*
X124105820Y-66310498D01*
X123995506Y-66369463D01*
X123898815Y-66448815D01*
X123819463Y-66545506D01*
X123760498Y-66655820D01*
X123724188Y-66775518D01*
X123711928Y-66900000D01*
X123711928Y-66952185D01*
X123703937Y-66940226D01*
X123559774Y-66796063D01*
X123390256Y-66682795D01*
X123201898Y-66604774D01*
X123001939Y-66565000D01*
X122798061Y-66565000D01*
X122598102Y-66604774D01*
X122409744Y-66682795D01*
X122240226Y-66796063D01*
X122096063Y-66940226D01*
X121982795Y-67109744D01*
X121904774Y-67298102D01*
X121865000Y-67498061D01*
X121865000Y-67701939D01*
X121904774Y-67901898D01*
X121982795Y-68090256D01*
X122096063Y-68259774D01*
X122240226Y-68403937D01*
X122409744Y-68517205D01*
X122598102Y-68595226D01*
X122798061Y-68635000D01*
X122860197Y-68635000D01*
X122886205Y-68661007D01*
X122909999Y-68690001D01*
X122938992Y-68713795D01*
X122938996Y-68713799D01*
X122995900Y-68760498D01*
X123025724Y-68784974D01*
X123157753Y-68855546D01*
X123301014Y-68899003D01*
X123412667Y-68910000D01*
X123412676Y-68910000D01*
X123449999Y-68913676D01*
X123487322Y-68910000D01*
X123711928Y-68910000D01*
X123711928Y-69400000D01*
X123724188Y-69524482D01*
X123760498Y-69644180D01*
X123819463Y-69754494D01*
X123898815Y-69851185D01*
X123995506Y-69930537D01*
X124105820Y-69989502D01*
X124225518Y-70025812D01*
X124350000Y-70038072D01*
X124825001Y-70038072D01*
X124825000Y-71034893D01*
X124806525Y-71053368D01*
X124690000Y-71227760D01*
X124573475Y-71053368D01*
X124366632Y-70846525D01*
X124123411Y-70684010D01*
X123853158Y-70572068D01*
X123566260Y-70515000D01*
X123273740Y-70515000D01*
X123201039Y-70529461D01*
X122776533Y-70104955D01*
X122748816Y-70071182D01*
X122614058Y-69960588D01*
X122460312Y-69878410D01*
X122293489Y-69827804D01*
X122163476Y-69814999D01*
X122163468Y-69814999D01*
X122119999Y-69810718D01*
X122076530Y-69814999D01*
X121630882Y-69814999D01*
X121680537Y-69754494D01*
X121739502Y-69644180D01*
X121775812Y-69524482D01*
X121788072Y-69400000D01*
X121788072Y-66900000D01*
X121775812Y-66775518D01*
X121739502Y-66655820D01*
X121680537Y-66545506D01*
X121601185Y-66448815D01*
X121504494Y-66369463D01*
X121394180Y-66310498D01*
X121274482Y-66274188D01*
X121150000Y-66261928D01*
X118850000Y-66261928D01*
X118725518Y-66274188D01*
X118605820Y-66310498D01*
X118495506Y-66369463D01*
X118398815Y-66448815D01*
X118319463Y-66545506D01*
X118260498Y-66655820D01*
X118224188Y-66775518D01*
X118211928Y-66900000D01*
X118211928Y-67365000D01*
X117044248Y-67365000D01*
X116877501Y-67381423D01*
X116849227Y-67390000D01*
X115379800Y-67390000D01*
X115127872Y-67138072D01*
X116000000Y-67138072D01*
X116124482Y-67125812D01*
X116244180Y-67089502D01*
X116354494Y-67030537D01*
X116451185Y-66951185D01*
X116530537Y-66854494D01*
X116589502Y-66744180D01*
X116625812Y-66624482D01*
X116638072Y-66500000D01*
X116638072Y-65100000D01*
X118211928Y-65100000D01*
X118224188Y-65224482D01*
X118260498Y-65344180D01*
X118319463Y-65454494D01*
X118398815Y-65551185D01*
X118495506Y-65630537D01*
X118605820Y-65689502D01*
X118725518Y-65725812D01*
X118850000Y-65738072D01*
X119714250Y-65735000D01*
X119873000Y-65576250D01*
X119873000Y-63977000D01*
X120127000Y-63977000D01*
X120127000Y-65576250D01*
X120285750Y-65735000D01*
X121150000Y-65738072D01*
X121274482Y-65725812D01*
X121394180Y-65689502D01*
X121504494Y-65630537D01*
X121601185Y-65551185D01*
X121680537Y-65454494D01*
X121739502Y-65344180D01*
X121775812Y-65224482D01*
X121788072Y-65100000D01*
X123711928Y-65100000D01*
X123724188Y-65224482D01*
X123760498Y-65344180D01*
X123819463Y-65454494D01*
X123898815Y-65551185D01*
X123995506Y-65630537D01*
X124105820Y-65689502D01*
X124225518Y-65725812D01*
X124350000Y-65738072D01*
X125214250Y-65735000D01*
X125373000Y-65576250D01*
X125373000Y-63977000D01*
X125627000Y-63977000D01*
X125627000Y-65576250D01*
X125785750Y-65735000D01*
X126650000Y-65738072D01*
X126774482Y-65725812D01*
X126894180Y-65689502D01*
X127004494Y-65630537D01*
X127101185Y-65551185D01*
X127180537Y-65454494D01*
X127239502Y-65344180D01*
X127275812Y-65224482D01*
X127288072Y-65100000D01*
X127285000Y-64135750D01*
X127126250Y-63977000D01*
X125627000Y-63977000D01*
X125373000Y-63977000D01*
X123873750Y-63977000D01*
X123715000Y-64135750D01*
X123711928Y-65100000D01*
X121788072Y-65100000D01*
X121785000Y-64135750D01*
X121626250Y-63977000D01*
X120127000Y-63977000D01*
X119873000Y-63977000D01*
X118373750Y-63977000D01*
X118215000Y-64135750D01*
X118211928Y-65100000D01*
X116638072Y-65100000D01*
X116638072Y-64500000D01*
X116625812Y-64375518D01*
X116589502Y-64255820D01*
X116530537Y-64145506D01*
X116451185Y-64048815D01*
X116354494Y-63969463D01*
X116244180Y-63910498D01*
X116124482Y-63874188D01*
X116000000Y-63861928D01*
X114000000Y-63861928D01*
X113875518Y-63874188D01*
X113755820Y-63910498D01*
X113645506Y-63969463D01*
X113548815Y-64048815D01*
X113469463Y-64145506D01*
X113410498Y-64255820D01*
X113374188Y-64375518D01*
X113361928Y-64500000D01*
X113361928Y-65372128D01*
X110589800Y-62600000D01*
X118211928Y-62600000D01*
X118215000Y-63564250D01*
X118373750Y-63723000D01*
X119873000Y-63723000D01*
X119873000Y-62123750D01*
X120127000Y-62123750D01*
X120127000Y-63723000D01*
X121626250Y-63723000D01*
X121785000Y-63564250D01*
X121788072Y-62600000D01*
X123711928Y-62600000D01*
X123715000Y-63564250D01*
X123873750Y-63723000D01*
X125373000Y-63723000D01*
X125373000Y-62123750D01*
X125627000Y-62123750D01*
X125627000Y-63723000D01*
X127126250Y-63723000D01*
X127285000Y-63564250D01*
X127288072Y-62600000D01*
X127275812Y-62475518D01*
X127239502Y-62355820D01*
X127180537Y-62245506D01*
X127101185Y-62148815D01*
X127004494Y-62069463D01*
X126894180Y-62010498D01*
X126774482Y-61974188D01*
X126650000Y-61961928D01*
X125785750Y-61965000D01*
X125627000Y-62123750D01*
X125373000Y-62123750D01*
X125214250Y-61965000D01*
X124350000Y-61961928D01*
X124225518Y-61974188D01*
X124105820Y-62010498D01*
X123995506Y-62069463D01*
X123898815Y-62148815D01*
X123819463Y-62245506D01*
X123760498Y-62355820D01*
X123724188Y-62475518D01*
X123711928Y-62600000D01*
X121788072Y-62600000D01*
X121775812Y-62475518D01*
X121739502Y-62355820D01*
X121680537Y-62245506D01*
X121601185Y-62148815D01*
X121504494Y-62069463D01*
X121394180Y-62010498D01*
X121274482Y-61974188D01*
X121150000Y-61961928D01*
X120285750Y-61965000D01*
X120127000Y-62123750D01*
X119873000Y-62123750D01*
X119714250Y-61965000D01*
X118850000Y-61961928D01*
X118725518Y-61974188D01*
X118605820Y-62010498D01*
X118495506Y-62069463D01*
X118398815Y-62148815D01*
X118319463Y-62245506D01*
X118260498Y-62355820D01*
X118224188Y-62475518D01*
X118211928Y-62600000D01*
X110589800Y-62600000D01*
X109625213Y-61635413D01*
X114044192Y-61635413D01*
X114139956Y-61899814D01*
X114429571Y-62040704D01*
X114741108Y-62122384D01*
X115062595Y-62141718D01*
X115381675Y-62097961D01*
X115686088Y-61992795D01*
X115860044Y-61899814D01*
X115955808Y-61635413D01*
X115000000Y-60679605D01*
X114044192Y-61635413D01*
X109625213Y-61635413D01*
X108876755Y-60886956D01*
X108903937Y-60859774D01*
X109017205Y-60690256D01*
X109070084Y-60562595D01*
X113358282Y-60562595D01*
X113402039Y-60881675D01*
X113507205Y-61186088D01*
X113600186Y-61360044D01*
X113864587Y-61455808D01*
X114820395Y-60500000D01*
X115179605Y-60500000D01*
X116135413Y-61455808D01*
X116399814Y-61360044D01*
X116540704Y-61070429D01*
X116622384Y-60758892D01*
X116641718Y-60437405D01*
X116597961Y-60118325D01*
X116492795Y-59813912D01*
X116399814Y-59639956D01*
X116135413Y-59544192D01*
X115179605Y-60500000D01*
X114820395Y-60500000D01*
X113864587Y-59544192D01*
X113600186Y-59639956D01*
X113459296Y-59929571D01*
X113377616Y-60241108D01*
X113358282Y-60562595D01*
X109070084Y-60562595D01*
X109095226Y-60501898D01*
X109135000Y-60301939D01*
X109135000Y-60098061D01*
X109095226Y-59898102D01*
X109017205Y-59709744D01*
X108903937Y-59540226D01*
X108809421Y-59445710D01*
X108890544Y-59364587D01*
X114044192Y-59364587D01*
X115000000Y-60320395D01*
X115955808Y-59364587D01*
X115860044Y-59100186D01*
X115570429Y-58959296D01*
X115258892Y-58877616D01*
X114937405Y-58858282D01*
X114618325Y-58902039D01*
X114313912Y-59007205D01*
X114139956Y-59100186D01*
X114044192Y-59364587D01*
X108890544Y-59364587D01*
X109717060Y-58538072D01*
X111150000Y-58538072D01*
X111274482Y-58525812D01*
X111394180Y-58489502D01*
X111504494Y-58430537D01*
X111601185Y-58351185D01*
X111680537Y-58254494D01*
X111739502Y-58144180D01*
X111775812Y-58024482D01*
X111788072Y-57900000D01*
X111788072Y-55907911D01*
X119815000Y-55907911D01*
X119815000Y-56092089D01*
X119850932Y-56272729D01*
X119921414Y-56442889D01*
X120023738Y-56596028D01*
X120153972Y-56726262D01*
X120307111Y-56828586D01*
X120477271Y-56899068D01*
X120657911Y-56935000D01*
X120842089Y-56935000D01*
X121022729Y-56899068D01*
X121192889Y-56828586D01*
X121346028Y-56726262D01*
X121346075Y-56726215D01*
X121389319Y-56943615D01*
X121633180Y-57532347D01*
X121755540Y-57715472D01*
X121577271Y-57750932D01*
X121407111Y-57821414D01*
X121253972Y-57923738D01*
X121123738Y-58053972D01*
X121021414Y-58207111D01*
X120950932Y-58377271D01*
X120915000Y-58557911D01*
X120915000Y-58742089D01*
X120950932Y-58922729D01*
X121021414Y-59092889D01*
X121123738Y-59246028D01*
X121253972Y-59376262D01*
X121407111Y-59478586D01*
X121577271Y-59549068D01*
X121757911Y-59585000D01*
X121942089Y-59585000D01*
X122122729Y-59549068D01*
X122292889Y-59478586D01*
X122446028Y-59376262D01*
X122576262Y-59246028D01*
X122678586Y-59092889D01*
X122749068Y-58922729D01*
X122784528Y-58744460D01*
X122967653Y-58866820D01*
X123556385Y-59110681D01*
X123773785Y-59153925D01*
X123773738Y-59153972D01*
X123671414Y-59307111D01*
X123600932Y-59477271D01*
X123565000Y-59657911D01*
X123565000Y-59842089D01*
X123600932Y-60022729D01*
X123671414Y-60192889D01*
X123773738Y-60346028D01*
X123903972Y-60476262D01*
X124057111Y-60578586D01*
X124227271Y-60649068D01*
X124407911Y-60685000D01*
X124592089Y-60685000D01*
X124772729Y-60649068D01*
X124942889Y-60578586D01*
X125096028Y-60476262D01*
X125226262Y-60346028D01*
X125328586Y-60192889D01*
X125399068Y-60022729D01*
X125435000Y-59842089D01*
X125435000Y-59657911D01*
X125399068Y-59477271D01*
X125328586Y-59307111D01*
X125226262Y-59153972D01*
X125226215Y-59153925D01*
X125443615Y-59110681D01*
X126032347Y-58866820D01*
X126215472Y-58744460D01*
X126250932Y-58922729D01*
X126321414Y-59092889D01*
X126423738Y-59246028D01*
X126553972Y-59376262D01*
X126707111Y-59478586D01*
X126877271Y-59549068D01*
X127057911Y-59585000D01*
X127242089Y-59585000D01*
X127422729Y-59549068D01*
X127592889Y-59478586D01*
X127746028Y-59376262D01*
X127876262Y-59246028D01*
X127978586Y-59092889D01*
X128049068Y-58922729D01*
X128085000Y-58742089D01*
X128085000Y-58557911D01*
X128049068Y-58377271D01*
X127978586Y-58207111D01*
X127876262Y-58053972D01*
X127746028Y-57923738D01*
X127592889Y-57821414D01*
X127422729Y-57750932D01*
X127244460Y-57715472D01*
X127366820Y-57532347D01*
X127610681Y-56943615D01*
X127653925Y-56726215D01*
X127653972Y-56726262D01*
X127807111Y-56828586D01*
X127977271Y-56899068D01*
X128157911Y-56935000D01*
X128342089Y-56935000D01*
X128522729Y-56899068D01*
X128692889Y-56828586D01*
X128846028Y-56726262D01*
X128976262Y-56596028D01*
X129078586Y-56442889D01*
X129149068Y-56272729D01*
X129185000Y-56092089D01*
X129185000Y-55907911D01*
X129149068Y-55727271D01*
X129078586Y-55557111D01*
X128976262Y-55403972D01*
X128846028Y-55273738D01*
X128692889Y-55171414D01*
X128522729Y-55100932D01*
X128342089Y-55065000D01*
X128157911Y-55065000D01*
X127977271Y-55100932D01*
X127807111Y-55171414D01*
X127653972Y-55273738D01*
X127653925Y-55273785D01*
X127610681Y-55056385D01*
X127366820Y-54467653D01*
X127244460Y-54284528D01*
X127422729Y-54249068D01*
X127592889Y-54178586D01*
X127746028Y-54076262D01*
X127876262Y-53946028D01*
X127978586Y-53792889D01*
X128049068Y-53622729D01*
X128085000Y-53442089D01*
X128085000Y-53257911D01*
X128049068Y-53077271D01*
X127978586Y-52907111D01*
X127876262Y-52753972D01*
X127746028Y-52623738D01*
X127592889Y-52521414D01*
X127422729Y-52450932D01*
X127242089Y-52415000D01*
X127057911Y-52415000D01*
X126877271Y-52450932D01*
X126707111Y-52521414D01*
X126553972Y-52623738D01*
X126423738Y-52753972D01*
X126321414Y-52907111D01*
X126250932Y-53077271D01*
X126215472Y-53255540D01*
X126032347Y-53133180D01*
X125443615Y-52889319D01*
X125226215Y-52846075D01*
X125226262Y-52846028D01*
X125328586Y-52692889D01*
X125399068Y-52522729D01*
X125435000Y-52342089D01*
X125435000Y-52157911D01*
X125399068Y-51977271D01*
X125328586Y-51807111D01*
X125226262Y-51653972D01*
X125096028Y-51523738D01*
X124942889Y-51421414D01*
X124772729Y-51350932D01*
X124592089Y-51315000D01*
X124407911Y-51315000D01*
X124227271Y-51350932D01*
X124057111Y-51421414D01*
X123903972Y-51523738D01*
X123773738Y-51653972D01*
X123671414Y-51807111D01*
X123600932Y-51977271D01*
X123565000Y-52157911D01*
X123565000Y-52342089D01*
X123600932Y-52522729D01*
X123671414Y-52692889D01*
X123773738Y-52846028D01*
X123773785Y-52846075D01*
X123556385Y-52889319D01*
X122967653Y-53133180D01*
X122784528Y-53255540D01*
X122749068Y-53077271D01*
X122678586Y-52907111D01*
X122576262Y-52753972D01*
X122446028Y-52623738D01*
X122292889Y-52521414D01*
X122122729Y-52450932D01*
X121942089Y-52415000D01*
X121757911Y-52415000D01*
X121577271Y-52450932D01*
X121407111Y-52521414D01*
X121253972Y-52623738D01*
X121123738Y-52753972D01*
X121021414Y-52907111D01*
X120950932Y-53077271D01*
X120915000Y-53257911D01*
X120915000Y-53442089D01*
X120950932Y-53622729D01*
X121021414Y-53792889D01*
X121123738Y-53946028D01*
X121253972Y-54076262D01*
X121407111Y-54178586D01*
X121577271Y-54249068D01*
X121755540Y-54284528D01*
X121633180Y-54467653D01*
X121389319Y-55056385D01*
X121346075Y-55273785D01*
X121346028Y-55273738D01*
X121192889Y-55171414D01*
X121022729Y-55100932D01*
X120842089Y-55065000D01*
X120657911Y-55065000D01*
X120477271Y-55100932D01*
X120307111Y-55171414D01*
X120153972Y-55273738D01*
X120023738Y-55403972D01*
X119921414Y-55557111D01*
X119850932Y-55727271D01*
X119815000Y-55907911D01*
X111788072Y-55907911D01*
X111788072Y-55400000D01*
X111775812Y-55275518D01*
X111739502Y-55155820D01*
X111680537Y-55045506D01*
X111601185Y-54948815D01*
X111504494Y-54869463D01*
X111394180Y-54810498D01*
X111274482Y-54774188D01*
X111150000Y-54761928D01*
X108850000Y-54761928D01*
X108725518Y-54774188D01*
X108605820Y-54810498D01*
X108495506Y-54869463D01*
X108398815Y-54948815D01*
X108319463Y-55045506D01*
X108260498Y-55155820D01*
X108224188Y-55275518D01*
X108211928Y-55400000D01*
X108211928Y-56832940D01*
X105880719Y-59164150D01*
X105793989Y-59128225D01*
X105526411Y-59075000D01*
X105255000Y-59075000D01*
X105255000Y-58538072D01*
X106150000Y-58538072D01*
X106274482Y-58525812D01*
X106394180Y-58489502D01*
X106504494Y-58430537D01*
X106601185Y-58351185D01*
X106680537Y-58254494D01*
X106739502Y-58144180D01*
X106775812Y-58024482D01*
X106788072Y-57900000D01*
X106788072Y-55400000D01*
X106775812Y-55275518D01*
X106739502Y-55155820D01*
X106680537Y-55045506D01*
X106601185Y-54948815D01*
X106504494Y-54869463D01*
X106394180Y-54810498D01*
X106274482Y-54774188D01*
X106150000Y-54761928D01*
X103850000Y-54761928D01*
X103725518Y-54774188D01*
X103605820Y-54810498D01*
X103495506Y-54869463D01*
X103398815Y-54948815D01*
X103319463Y-55045506D01*
X103260498Y-55155820D01*
X103224188Y-55275518D01*
X103211928Y-55400000D01*
X103211928Y-57337380D01*
X103171717Y-57386377D01*
X103066324Y-57583553D01*
X103001423Y-57797501D01*
X102985000Y-57964248D01*
X102985000Y-59075000D01*
X102713589Y-59075000D01*
X102446011Y-59128225D01*
X102193957Y-59232629D01*
X101967114Y-59384201D01*
X101774201Y-59577114D01*
X101622629Y-59803957D01*
X101581489Y-59903279D01*
X101566277Y-59861168D01*
X101505860Y-59748137D01*
X101266993Y-59682612D01*
X100489605Y-60460000D01*
X101266993Y-61237388D01*
X101505860Y-61171863D01*
X101580164Y-61013523D01*
X101622629Y-61116043D01*
X101774201Y-61342886D01*
X101967114Y-61535799D01*
X102193957Y-61687371D01*
X102446011Y-61791775D01*
X102713589Y-61845000D01*
X102985000Y-61845000D01*
X102985000Y-62205714D01*
X102892629Y-62343957D01*
X102850000Y-62446873D01*
X102807371Y-62343957D01*
X102655799Y-62117114D01*
X102462886Y-61924201D01*
X102236043Y-61772629D01*
X101983989Y-61668225D01*
X101716411Y-61615000D01*
X101443589Y-61615000D01*
X101176011Y-61668225D01*
X100923957Y-61772629D01*
X100697114Y-61924201D01*
X100504201Y-62117114D01*
X100352629Y-62343957D01*
X100311489Y-62443279D01*
X100296277Y-62401168D01*
X100235860Y-62288137D01*
X99996993Y-62222612D01*
X99219605Y-63000000D01*
X99996993Y-63777388D01*
X100235860Y-63711863D01*
X100310164Y-63553523D01*
X100352629Y-63656043D01*
X100504201Y-63882886D01*
X100697114Y-64075799D01*
X100923957Y-64227371D01*
X101176011Y-64331775D01*
X101443589Y-64385000D01*
X101716411Y-64385000D01*
X101983989Y-64331775D01*
X102236043Y-64227371D01*
X102462886Y-64075799D01*
X102655799Y-63882886D01*
X102807371Y-63656043D01*
X102850000Y-63553127D01*
X102892629Y-63656043D01*
X103044201Y-63882886D01*
X103237114Y-64075799D01*
X103327500Y-64136193D01*
X103327500Y-64211464D01*
X103281329Y-64267725D01*
X103202150Y-64415858D01*
X103153392Y-64576592D01*
X103136928Y-64743750D01*
X103136928Y-65256250D01*
X103153392Y-65423408D01*
X103202150Y-65584142D01*
X103281329Y-65732275D01*
X103387885Y-65862115D01*
X103515010Y-65966443D01*
X103515011Y-70658867D01*
X103260750Y-70660000D01*
X103102000Y-70818750D01*
X103102000Y-71468000D01*
X103122000Y-71468000D01*
X103122000Y-71722000D01*
X103102000Y-71722000D01*
X103102000Y-71742000D01*
X102848000Y-71742000D01*
X102848000Y-71722000D01*
X101523750Y-71722000D01*
X101365000Y-71880750D01*
X101361928Y-71895000D01*
X101374188Y-72019482D01*
X101410498Y-72139180D01*
X101469463Y-72249494D01*
X101493730Y-72279064D01*
X101421916Y-72413418D01*
X101377071Y-72561255D01*
X101361928Y-72715000D01*
X101361928Y-73015000D01*
X101377071Y-73168745D01*
X101421916Y-73316582D01*
X101494742Y-73452829D01*
X101533454Y-73500000D01*
X101494742Y-73547171D01*
X101421916Y-73683418D01*
X101377071Y-73831255D01*
X101361928Y-73985000D01*
X101361928Y-74019990D01*
X99635000Y-74019990D01*
X99635000Y-74007998D01*
X99476252Y-74007998D01*
X99635000Y-73849250D01*
X99638072Y-73835000D01*
X99625812Y-73710518D01*
X99589502Y-73590820D01*
X99540957Y-73500000D01*
X99589502Y-73409180D01*
X99625812Y-73289482D01*
X99638072Y-73165000D01*
X99635000Y-73150750D01*
X99476250Y-72992000D01*
X98152000Y-72992000D01*
X98152000Y-74008000D01*
X98172000Y-74008000D01*
X98172000Y-74019990D01*
X97878000Y-74019990D01*
X97878000Y-74008000D01*
X97898000Y-74008000D01*
X97898000Y-72992000D01*
X96573750Y-72992000D01*
X96415000Y-73150750D01*
X96411928Y-73165000D01*
X96424188Y-73289482D01*
X96460498Y-73409180D01*
X96509043Y-73500000D01*
X96460498Y-73590820D01*
X96424188Y-73710518D01*
X96414013Y-73813826D01*
X96329494Y-73744463D01*
X96219180Y-73685498D01*
X96099482Y-73649188D01*
X95975000Y-73636928D01*
X95785750Y-73640000D01*
X95627000Y-73798750D01*
X95627000Y-74585500D01*
X95647000Y-74585500D01*
X95647000Y-74839500D01*
X95627000Y-74839500D01*
X95627000Y-74859500D01*
X95373000Y-74859500D01*
X95373000Y-74839500D01*
X95353000Y-74839500D01*
X95353000Y-74585500D01*
X95373000Y-74585500D01*
X95373000Y-73798750D01*
X95214250Y-73640000D01*
X95025000Y-73636928D01*
X94900518Y-73649188D01*
X94780820Y-73685498D01*
X94670506Y-73744463D01*
X94573815Y-73823815D01*
X94494463Y-73920506D01*
X94435498Y-74030820D01*
X94399188Y-74150518D01*
X94386928Y-74275000D01*
X94390000Y-74426750D01*
X94483250Y-74520000D01*
X91316578Y-74520000D01*
X93775048Y-72061531D01*
X93808816Y-72033818D01*
X93836570Y-72000001D01*
X93919410Y-71899060D01*
X94001588Y-71745315D01*
X94052194Y-71578491D01*
X94056038Y-71539463D01*
X94064999Y-71448478D01*
X94064999Y-71448470D01*
X94069280Y-71405001D01*
X94064999Y-71361532D01*
X94064999Y-71259582D01*
X94171331Y-71330631D01*
X94578075Y-71499110D01*
X95009872Y-71585000D01*
X95450128Y-71585000D01*
X95881925Y-71499110D01*
X96288669Y-71330631D01*
X96447273Y-71224655D01*
X96427071Y-71291255D01*
X96411928Y-71445000D01*
X96411928Y-71745000D01*
X96427071Y-71898745D01*
X96471916Y-72046582D01*
X96543730Y-72180936D01*
X96519463Y-72210506D01*
X96460498Y-72320820D01*
X96424188Y-72440518D01*
X96411928Y-72565000D01*
X96415000Y-72579250D01*
X96573750Y-72738000D01*
X97898000Y-72738000D01*
X97898000Y-72718000D01*
X98152000Y-72718000D01*
X98152000Y-72738000D01*
X99476250Y-72738000D01*
X99635000Y-72579250D01*
X99638072Y-72565000D01*
X99625812Y-72440518D01*
X99589502Y-72320820D01*
X99530537Y-72210506D01*
X99506270Y-72180936D01*
X99578084Y-72046582D01*
X99622929Y-71898745D01*
X99638072Y-71745000D01*
X99638072Y-71445000D01*
X99623298Y-71295000D01*
X101361928Y-71295000D01*
X101365000Y-71309250D01*
X101523750Y-71468000D01*
X102848000Y-71468000D01*
X102848000Y-70818750D01*
X102689250Y-70660000D01*
X102000000Y-70656928D01*
X101875518Y-70669188D01*
X101755820Y-70705498D01*
X101645506Y-70764463D01*
X101548815Y-70843815D01*
X101469463Y-70940506D01*
X101410498Y-71050820D01*
X101374188Y-71170518D01*
X101361928Y-71295000D01*
X99623298Y-71295000D01*
X99622929Y-71291255D01*
X99578084Y-71143418D01*
X99505258Y-71007171D01*
X99407251Y-70887749D01*
X99287829Y-70789742D01*
X99151582Y-70716916D01*
X99003745Y-70672071D01*
X98850000Y-70656928D01*
X97200000Y-70656928D01*
X97046255Y-70672071D01*
X97031677Y-70676493D01*
X97210631Y-70408669D01*
X97379110Y-70001925D01*
X97465000Y-69570128D01*
X97465000Y-69129872D01*
X97379110Y-68698075D01*
X97210631Y-68291331D01*
X96966038Y-67925271D01*
X96654729Y-67613962D01*
X96288669Y-67369369D01*
X95881925Y-67200890D01*
X95450128Y-67115000D01*
X95009872Y-67115000D01*
X94578075Y-67200890D01*
X94339273Y-67299805D01*
X95126007Y-66513072D01*
X95206250Y-66513072D01*
X95373408Y-66496608D01*
X95534142Y-66447850D01*
X95682275Y-66368671D01*
X95784229Y-66285000D01*
X96366533Y-66285000D01*
X96410002Y-66289281D01*
X96453471Y-66285000D01*
X96453479Y-66285000D01*
X96583492Y-66272195D01*
X96750315Y-66221589D01*
X96904061Y-66139411D01*
X97038819Y-66028817D01*
X97066536Y-65995044D01*
X98365050Y-64696531D01*
X98398817Y-64668819D01*
X98443798Y-64614011D01*
X98509411Y-64534061D01*
X98591589Y-64380316D01*
X98609785Y-64320333D01*
X98839960Y-64377250D01*
X99112492Y-64389812D01*
X99382238Y-64348965D01*
X99638832Y-64256277D01*
X99751863Y-64195860D01*
X99817388Y-63956993D01*
X99040000Y-63179605D01*
X99025858Y-63193748D01*
X98846253Y-63014143D01*
X98860395Y-63000000D01*
X98846253Y-62985858D01*
X99025858Y-62806253D01*
X99040000Y-62820395D01*
X99817388Y-62043007D01*
X99751863Y-61804140D01*
X99504884Y-61688240D01*
X99240040Y-61622750D01*
X98967508Y-61610188D01*
X98697762Y-61651035D01*
X98655000Y-61666482D01*
X98655000Y-61533685D01*
X98771692Y-61416993D01*
X99532612Y-61416993D01*
X99598137Y-61655860D01*
X99845116Y-61771760D01*
X100109960Y-61837250D01*
X100382492Y-61849812D01*
X100652238Y-61808965D01*
X100908832Y-61716277D01*
X101021863Y-61655860D01*
X101087388Y-61416993D01*
X100310000Y-60639605D01*
X99532612Y-61416993D01*
X98771692Y-61416993D01*
X98845799Y-61342886D01*
X98997371Y-61116043D01*
X99038511Y-61016721D01*
X99053723Y-61058832D01*
X99114140Y-61171863D01*
X99353007Y-61237388D01*
X100130395Y-60460000D01*
X99353007Y-59682612D01*
X99114140Y-59748137D01*
X99039836Y-59906477D01*
X98997371Y-59803957D01*
X98905000Y-59665714D01*
X98905000Y-59503007D01*
X99532612Y-59503007D01*
X100310000Y-60280395D01*
X101087388Y-59503007D01*
X101021863Y-59264140D01*
X100774884Y-59148240D01*
X100510040Y-59082750D01*
X100237508Y-59070188D01*
X99967762Y-59111035D01*
X99711168Y-59203723D01*
X99598137Y-59264140D01*
X99532612Y-59503007D01*
X98905000Y-59503007D01*
X98905000Y-59350131D01*
X99717060Y-58538072D01*
X101150000Y-58538072D01*
X101274482Y-58525812D01*
X101394180Y-58489502D01*
X101504494Y-58430537D01*
X101601185Y-58351185D01*
X101680537Y-58254494D01*
X101739502Y-58144180D01*
X101775812Y-58024482D01*
X101788072Y-57900000D01*
X101788072Y-55400000D01*
X101775812Y-55275518D01*
X101739502Y-55155820D01*
X101680537Y-55045506D01*
X101601185Y-54948815D01*
X101504494Y-54869463D01*
X101394180Y-54810498D01*
X101274482Y-54774188D01*
X101150000Y-54761928D01*
X98850000Y-54761928D01*
X98725518Y-54774188D01*
X98605820Y-54810498D01*
X98495506Y-54869463D01*
X98398815Y-54948815D01*
X98319463Y-55045506D01*
X98260498Y-55155820D01*
X98224188Y-55275518D01*
X98211928Y-55400000D01*
X98211928Y-56832940D01*
X97006860Y-58038009D01*
X96963552Y-58073551D01*
X96821717Y-58246377D01*
X96810252Y-58267827D01*
X96716324Y-58443554D01*
X96702386Y-58489502D01*
X96651423Y-58657501D01*
X96639063Y-58783000D01*
X96629509Y-58880000D01*
X96635000Y-58935751D01*
X96635000Y-59665714D01*
X96542629Y-59803957D01*
X96438225Y-60056011D01*
X96385000Y-60323589D01*
X96385000Y-60596411D01*
X96438225Y-60863989D01*
X96542629Y-61116043D01*
X96694201Y-61342886D01*
X96885001Y-61533686D01*
X96885001Y-61611928D01*
X96717060Y-61611928D01*
X96135000Y-61029869D01*
X96135000Y-58538072D01*
X96150000Y-58538072D01*
X96274482Y-58525812D01*
X96394180Y-58489502D01*
X96504494Y-58430537D01*
X96601185Y-58351185D01*
X96680537Y-58254494D01*
X96739502Y-58144180D01*
X96775812Y-58024482D01*
X96788072Y-57900000D01*
X96788072Y-55400000D01*
X96775812Y-55275518D01*
X96739502Y-55155820D01*
X96680537Y-55045506D01*
X96601185Y-54948815D01*
X96504494Y-54869463D01*
X96394180Y-54810498D01*
X96274482Y-54774188D01*
X96150000Y-54761928D01*
X93850000Y-54761928D01*
X93725518Y-54774188D01*
X93605820Y-54810498D01*
X93495506Y-54869463D01*
X93398815Y-54948815D01*
X93319463Y-55045506D01*
X93260498Y-55155820D01*
X93224188Y-55275518D01*
X93211928Y-55400000D01*
X93211928Y-57900000D01*
X93224188Y-58024482D01*
X93260498Y-58144180D01*
X93319463Y-58254494D01*
X93398815Y-58351185D01*
X93495506Y-58430537D01*
X93605820Y-58489502D01*
X93725518Y-58525812D01*
X93850000Y-58538072D01*
X93865001Y-58538072D01*
X93865000Y-60883421D01*
X93706540Y-61041881D01*
X93656250Y-61036928D01*
X93143750Y-61036928D01*
X92976592Y-61053392D01*
X92815858Y-61102150D01*
X92667725Y-61181329D01*
X92537885Y-61287885D01*
X92431329Y-61417725D01*
X92352150Y-61565858D01*
X92303392Y-61726592D01*
X92286928Y-61893750D01*
X92286928Y-61973994D01*
X91879946Y-62380976D01*
X91846173Y-62408693D01*
X91735579Y-62543452D01*
X91653401Y-62697198D01*
X91622228Y-62799960D01*
X91603037Y-62863224D01*
X91602795Y-62864021D01*
X91589990Y-62994034D01*
X91589990Y-62994041D01*
X91585709Y-63037510D01*
X91589990Y-63080979D01*
X91589991Y-70473430D01*
X91030132Y-71033290D01*
X90980537Y-70940506D01*
X90901185Y-70843815D01*
X90804494Y-70764463D01*
X90694180Y-70705498D01*
X90574482Y-70669188D01*
X90450000Y-70656928D01*
X89760750Y-70660000D01*
X89602000Y-70818750D01*
X89602000Y-71468000D01*
X89622000Y-71468000D01*
X89622000Y-71722000D01*
X89602000Y-71722000D01*
X89602000Y-71742000D01*
X89348000Y-71742000D01*
X89348000Y-71722000D01*
X88023750Y-71722000D01*
X87865000Y-71880750D01*
X87861928Y-71895000D01*
X87874188Y-72019482D01*
X87910498Y-72139180D01*
X87969463Y-72249494D01*
X87993730Y-72279064D01*
X87921916Y-72413418D01*
X87877071Y-72561255D01*
X87861928Y-72715000D01*
X87861928Y-73015000D01*
X87877071Y-73168745D01*
X87921916Y-73316582D01*
X87994742Y-73452829D01*
X88033454Y-73500000D01*
X87994742Y-73547171D01*
X87921916Y-73683418D01*
X87877071Y-73831255D01*
X87861928Y-73985000D01*
X87861928Y-74285000D01*
X87877071Y-74438745D01*
X87921916Y-74586582D01*
X87994742Y-74722829D01*
X88033454Y-74770000D01*
X87994742Y-74817171D01*
X87921916Y-74953418D01*
X87877071Y-75101255D01*
X87861928Y-75255000D01*
X87861928Y-75402500D01*
X86750954Y-75402500D01*
X86702756Y-75370295D01*
X86514398Y-75292274D01*
X86314439Y-75252500D01*
X86137826Y-75252500D01*
X86122929Y-75101255D01*
X86078084Y-74953418D01*
X86006270Y-74819064D01*
X86030537Y-74789494D01*
X86089502Y-74679180D01*
X86125812Y-74559482D01*
X86138072Y-74435000D01*
X86135000Y-74420750D01*
X85976250Y-74262000D01*
X84652000Y-74262000D01*
X84652000Y-74282000D01*
X84398000Y-74282000D01*
X84398000Y-74262000D01*
X84378000Y-74262000D01*
X84378000Y-74008000D01*
X84398000Y-74008000D01*
X84398000Y-72992000D01*
X84652000Y-72992000D01*
X84652000Y-74008000D01*
X85976250Y-74008000D01*
X86135000Y-73849250D01*
X86138072Y-73835000D01*
X86125812Y-73710518D01*
X86089502Y-73590820D01*
X86040957Y-73500000D01*
X86089502Y-73409180D01*
X86125812Y-73289482D01*
X86138072Y-73165000D01*
X86135000Y-73150750D01*
X85976250Y-72992000D01*
X84652000Y-72992000D01*
X84398000Y-72992000D01*
X83073750Y-72992000D01*
X82915000Y-73150750D01*
X82911928Y-73165000D01*
X82924188Y-73289482D01*
X82960498Y-73409180D01*
X83009043Y-73500000D01*
X82960498Y-73590820D01*
X82924188Y-73710518D01*
X82914013Y-73813826D01*
X82829494Y-73744463D01*
X82719180Y-73685498D01*
X82599482Y-73649188D01*
X82475000Y-73636928D01*
X82285750Y-73640000D01*
X82127000Y-73798750D01*
X82127000Y-74585500D01*
X82147000Y-74585500D01*
X82147000Y-74764990D01*
X80679075Y-74764990D01*
X80641750Y-74761314D01*
X80604425Y-74764990D01*
X80604417Y-74764990D01*
X80492764Y-74775987D01*
X80349503Y-74819444D01*
X80217474Y-74890016D01*
X80101749Y-74984989D01*
X80077951Y-75013987D01*
X79735689Y-75356249D01*
X79735000Y-75285750D01*
X79576250Y-75127000D01*
X78777000Y-75127000D01*
X78777000Y-75147000D01*
X78523000Y-75147000D01*
X78523000Y-75127000D01*
X77723750Y-75127000D01*
X77565000Y-75285750D01*
X77561928Y-75600000D01*
X77568329Y-75664989D01*
X76431671Y-75664989D01*
X76438072Y-75600000D01*
X76438072Y-74400000D01*
X77561928Y-74400000D01*
X77565000Y-74714250D01*
X77723750Y-74873000D01*
X78523000Y-74873000D01*
X78523000Y-73923750D01*
X78777000Y-73923750D01*
X78777000Y-74873000D01*
X79576250Y-74873000D01*
X79735000Y-74714250D01*
X79738072Y-74400000D01*
X79725812Y-74275518D01*
X79725655Y-74275000D01*
X80886928Y-74275000D01*
X80890000Y-74426750D01*
X81048750Y-74585500D01*
X81873000Y-74585500D01*
X81873000Y-73798750D01*
X81714250Y-73640000D01*
X81525000Y-73636928D01*
X81400518Y-73649188D01*
X81280820Y-73685498D01*
X81170506Y-73744463D01*
X81073815Y-73823815D01*
X80994463Y-73920506D01*
X80935498Y-74030820D01*
X80899188Y-74150518D01*
X80886928Y-74275000D01*
X79725655Y-74275000D01*
X79689502Y-74155820D01*
X79630537Y-74045506D01*
X79551185Y-73948815D01*
X79454494Y-73869463D01*
X79344180Y-73810498D01*
X79224482Y-73774188D01*
X79100000Y-73761928D01*
X78935750Y-73765000D01*
X78777000Y-73923750D01*
X78523000Y-73923750D01*
X78364250Y-73765000D01*
X78200000Y-73761928D01*
X78075518Y-73774188D01*
X77955820Y-73810498D01*
X77845506Y-73869463D01*
X77748815Y-73948815D01*
X77669463Y-74045506D01*
X77610498Y-74155820D01*
X77574188Y-74275518D01*
X77561928Y-74400000D01*
X76438072Y-74400000D01*
X76425812Y-74275518D01*
X76389502Y-74155820D01*
X76330537Y-74045506D01*
X76251185Y-73948815D01*
X76154494Y-73869463D01*
X76044180Y-73810498D01*
X75967802Y-73787329D01*
X75999302Y-73755830D01*
X75999482Y-73755812D01*
X76025000Y-73748071D01*
X76050518Y-73755812D01*
X76175000Y-73768072D01*
X76825000Y-73768072D01*
X76949482Y-73755812D01*
X76975000Y-73748071D01*
X77000518Y-73755812D01*
X77125000Y-73768072D01*
X77775000Y-73768072D01*
X77899482Y-73755812D01*
X78019180Y-73719502D01*
X78129494Y-73660537D01*
X78226185Y-73581185D01*
X78233313Y-73572500D01*
X80644249Y-73572500D01*
X80700000Y-73577991D01*
X80755751Y-73572500D01*
X80755752Y-73572500D01*
X80922499Y-73556077D01*
X81136447Y-73491176D01*
X81333623Y-73385784D01*
X81506449Y-73243949D01*
X81541995Y-73200636D01*
X82163150Y-72579482D01*
X82206459Y-72543939D01*
X82348294Y-72371113D01*
X82453686Y-72173937D01*
X82518587Y-71959989D01*
X82535010Y-71793242D01*
X82535010Y-71793241D01*
X82540501Y-71737490D01*
X82535010Y-71681738D01*
X82535010Y-71445000D01*
X82911928Y-71445000D01*
X82911928Y-71745000D01*
X82927071Y-71898745D01*
X82971916Y-72046582D01*
X83043730Y-72180936D01*
X83019463Y-72210506D01*
X82960498Y-72320820D01*
X82924188Y-72440518D01*
X82911928Y-72565000D01*
X82915000Y-72579250D01*
X83073750Y-72738000D01*
X84398000Y-72738000D01*
X84398000Y-72718000D01*
X84652000Y-72718000D01*
X84652000Y-72738000D01*
X85976250Y-72738000D01*
X86135000Y-72579250D01*
X86138072Y-72565000D01*
X86125812Y-72440518D01*
X86089502Y-72320820D01*
X86030537Y-72210506D01*
X86006270Y-72180936D01*
X86078084Y-72046582D01*
X86122929Y-71898745D01*
X86138072Y-71745000D01*
X86138072Y-71445000D01*
X86123298Y-71295000D01*
X87861928Y-71295000D01*
X87865000Y-71309250D01*
X88023750Y-71468000D01*
X89348000Y-71468000D01*
X89348000Y-70818750D01*
X89189250Y-70660000D01*
X88500000Y-70656928D01*
X88375518Y-70669188D01*
X88255820Y-70705498D01*
X88145506Y-70764463D01*
X88048815Y-70843815D01*
X87969463Y-70940506D01*
X87910498Y-71050820D01*
X87874188Y-71170518D01*
X87861928Y-71295000D01*
X86123298Y-71295000D01*
X86122929Y-71291255D01*
X86078084Y-71143418D01*
X86005258Y-71007171D01*
X85907251Y-70887749D01*
X85787829Y-70789742D01*
X85651582Y-70716916D01*
X85503745Y-70672071D01*
X85350000Y-70656928D01*
X83700000Y-70656928D01*
X83546255Y-70672071D01*
X83398418Y-70716916D01*
X83262171Y-70789742D01*
X83142749Y-70887749D01*
X83044742Y-71007171D01*
X82971916Y-71143418D01*
X82927071Y-71291255D01*
X82911928Y-71445000D01*
X82535010Y-71445000D01*
X82535010Y-63243486D01*
X82619486Y-63217861D01*
X82903524Y-63066039D01*
X83090095Y-62912924D01*
X83868020Y-62135000D01*
X85869681Y-62135000D01*
X85950000Y-62142911D01*
X86030319Y-62135000D01*
X86030322Y-62135000D01*
X86270516Y-62111343D01*
X86578715Y-62017852D01*
X86862752Y-61866031D01*
X87111714Y-61661714D01*
X87162925Y-61599314D01*
X88092239Y-60670000D01*
X89512037Y-60670000D01*
X89757377Y-60645836D01*
X90072173Y-60550344D01*
X90362291Y-60395273D01*
X90616582Y-60186582D01*
X90825273Y-59932291D01*
X90980344Y-59642173D01*
X91075836Y-59327377D01*
X91108080Y-59000000D01*
X91075836Y-58672623D01*
X90980344Y-58357827D01*
X90825273Y-58067709D01*
X90616582Y-57813418D01*
X90362291Y-57604727D01*
X90072173Y-57449656D01*
X89757377Y-57354164D01*
X89512037Y-57330000D01*
X85387963Y-57330000D01*
X85142623Y-57354164D01*
X84827827Y-57449656D01*
X84537709Y-57604727D01*
X84283418Y-57813418D01*
X84074727Y-58067709D01*
X83919656Y-58357827D01*
X83824164Y-58672623D01*
X83805216Y-58865000D01*
X83271100Y-58865000D01*
X83190780Y-58857089D01*
X83110461Y-58865000D01*
X83110459Y-58865000D01*
X83036220Y-58872312D01*
X83154796Y-58614075D01*
X83121480Y-58478251D01*
X82989112Y-58177794D01*
X82800671Y-57908934D01*
X82563399Y-57682003D01*
X82286414Y-57505722D01*
X81980361Y-57386865D01*
X81657000Y-57330000D01*
X79677000Y-57330000D01*
X79677000Y-58873000D01*
X79697000Y-58873000D01*
X79697000Y-59127000D01*
X79677000Y-59127000D01*
X79677000Y-60670000D01*
X80720972Y-60670000D01*
X80624742Y-60787257D01*
X80472920Y-61071295D01*
X80379430Y-61379493D01*
X80347861Y-61700009D01*
X80369543Y-61920144D01*
X80346335Y-61963563D01*
X80281434Y-62177511D01*
X80265011Y-62344258D01*
X80265010Y-69460740D01*
X80127000Y-69598750D01*
X80127000Y-70435500D01*
X80147000Y-70435500D01*
X80147000Y-70689500D01*
X80127000Y-70689500D01*
X80127000Y-70709500D01*
X79873000Y-70709500D01*
X79873000Y-70689500D01*
X78823750Y-70689500D01*
X78665000Y-70848250D01*
X78661928Y-71050000D01*
X78674188Y-71174482D01*
X78710498Y-71294180D01*
X78714945Y-71302500D01*
X78290760Y-71302500D01*
X78305537Y-71284494D01*
X78364502Y-71174180D01*
X78400812Y-71054482D01*
X78413072Y-70930000D01*
X78413072Y-70678884D01*
X78451911Y-70631559D01*
X78534089Y-70477813D01*
X78584695Y-70310990D01*
X78597500Y-70180977D01*
X78597500Y-70180967D01*
X78601781Y-70137501D01*
X78597500Y-70094034D01*
X78597500Y-70075000D01*
X78661928Y-70075000D01*
X78665000Y-70276750D01*
X78823750Y-70435500D01*
X79873000Y-70435500D01*
X79873000Y-69598750D01*
X79714250Y-69440000D01*
X79300000Y-69436928D01*
X79175518Y-69449188D01*
X79055820Y-69485498D01*
X78945506Y-69544463D01*
X78848815Y-69623815D01*
X78769463Y-69720506D01*
X78710498Y-69830820D01*
X78674188Y-69950518D01*
X78661928Y-70075000D01*
X78597500Y-70075000D01*
X78597500Y-69348667D01*
X78743750Y-69363072D01*
X79256250Y-69363072D01*
X79423408Y-69346608D01*
X79584142Y-69297850D01*
X79732275Y-69218671D01*
X79862115Y-69112115D01*
X79968671Y-68982275D01*
X80047850Y-68834142D01*
X80096608Y-68673408D01*
X80113072Y-68506250D01*
X80113072Y-68068750D01*
X80096608Y-67901592D01*
X80047850Y-67740858D01*
X79968671Y-67592725D01*
X79950900Y-67571070D01*
X80005537Y-67504494D01*
X80064502Y-67394180D01*
X80100812Y-67274482D01*
X80113072Y-67150000D01*
X80110000Y-66998250D01*
X79951250Y-66839500D01*
X79127000Y-66839500D01*
X79127000Y-66859500D01*
X78873000Y-66859500D01*
X78873000Y-66839500D01*
X78853000Y-66839500D01*
X78853000Y-66585500D01*
X78873000Y-66585500D01*
X78873000Y-65798750D01*
X79127000Y-65798750D01*
X79127000Y-66585500D01*
X79951250Y-66585500D01*
X80110000Y-66426750D01*
X80113072Y-66275000D01*
X80100812Y-66150518D01*
X80064502Y-66030820D01*
X80005537Y-65920506D01*
X79926185Y-65823815D01*
X79829494Y-65744463D01*
X79719180Y-65685498D01*
X79599482Y-65649188D01*
X79475000Y-65636928D01*
X79285750Y-65640000D01*
X79127000Y-65798750D01*
X78873000Y-65798750D01*
X78714250Y-65640000D01*
X78525000Y-65636928D01*
X78400518Y-65649188D01*
X78280820Y-65685498D01*
X78170506Y-65744463D01*
X78073815Y-65823815D01*
X78010000Y-65901574D01*
X78010000Y-64999604D01*
X78014886Y-64949999D01*
X78009315Y-64893441D01*
X77995385Y-64752006D01*
X77937632Y-64561620D01*
X77843847Y-64386160D01*
X77717633Y-64232367D01*
X77679094Y-64200739D01*
X75749261Y-62270906D01*
X75717633Y-62232367D01*
X75563840Y-62106153D01*
X75388379Y-62012368D01*
X75323856Y-61992795D01*
X75197994Y-61954615D01*
X75000000Y-61935114D01*
X74802006Y-61954615D01*
X74611620Y-62012368D01*
X74436160Y-62106153D01*
X74285000Y-62230206D01*
X74285000Y-60714871D01*
X74295329Y-60609999D01*
X74285000Y-60505127D01*
X74285000Y-60505118D01*
X74254108Y-60191467D01*
X74132026Y-59789018D01*
X73989426Y-59522232D01*
X74030774Y-59385925D01*
X75945204Y-59385925D01*
X75978520Y-59521749D01*
X76110888Y-59822206D01*
X76299329Y-60091066D01*
X76536601Y-60317997D01*
X76813586Y-60494278D01*
X77119639Y-60613135D01*
X77443000Y-60670000D01*
X79423000Y-60670000D01*
X79423000Y-59127000D01*
X76064096Y-59127000D01*
X75945204Y-59385925D01*
X74030774Y-59385925D01*
X74075836Y-59237377D01*
X74108080Y-58910000D01*
X74078934Y-58614075D01*
X75945204Y-58614075D01*
X76064096Y-58873000D01*
X79423000Y-58873000D01*
X79423000Y-57330000D01*
X77443000Y-57330000D01*
X77119639Y-57386865D01*
X76813586Y-57505722D01*
X76536601Y-57682003D01*
X76299329Y-57908934D01*
X76110888Y-58177794D01*
X75978520Y-58478251D01*
X75945204Y-58614075D01*
X74078934Y-58614075D01*
X74075836Y-58582623D01*
X73980344Y-58267827D01*
X73825273Y-57977709D01*
X73616582Y-57723418D01*
X73362291Y-57514727D01*
X73072173Y-57359656D01*
X72757377Y-57264164D01*
X72512037Y-57240000D01*
X71780518Y-57240000D01*
X71641881Y-57126224D01*
X71270982Y-56927975D01*
X70868533Y-56805893D01*
X70450000Y-56764671D01*
X70031467Y-56805893D01*
X69629018Y-56927975D01*
X69258119Y-57126224D01*
X69119482Y-57240000D01*
X68387963Y-57240000D01*
X68142623Y-57264164D01*
X67827827Y-57359656D01*
X67537709Y-57514727D01*
X67283418Y-57723418D01*
X67074727Y-57977709D01*
X66919656Y-58267827D01*
X66824164Y-58582623D01*
X66791920Y-58910000D01*
X66824164Y-59237377D01*
X66919656Y-59552173D01*
X67074727Y-59842291D01*
X67283418Y-60096582D01*
X67537709Y-60305273D01*
X67827827Y-60460344D01*
X68142623Y-60555836D01*
X68387963Y-60580000D01*
X69100655Y-60580000D01*
X70015000Y-61494346D01*
X70015000Y-62804881D01*
X70045892Y-63118532D01*
X70167974Y-63520981D01*
X70261928Y-63696758D01*
X70261928Y-63850000D01*
X70274188Y-63974482D01*
X70310498Y-64094180D01*
X70369463Y-64204494D01*
X70448815Y-64301185D01*
X70545506Y-64380537D01*
X70655820Y-64439502D01*
X70775518Y-64475812D01*
X70900000Y-64488072D01*
X70966154Y-64488072D01*
X71329018Y-64682026D01*
X71731467Y-64804108D01*
X72150000Y-64845330D01*
X72568532Y-64804108D01*
X72939990Y-64691427D01*
X72939990Y-64938856D01*
X72785750Y-64940000D01*
X72627000Y-65098750D01*
X72627000Y-65935500D01*
X72647000Y-65935500D01*
X72647000Y-66189500D01*
X72627000Y-66189500D01*
X72627000Y-66209500D01*
X72373000Y-66209500D01*
X72373000Y-66189500D01*
X72353000Y-66189500D01*
X72353000Y-65935500D01*
X72373000Y-65935500D01*
X72373000Y-65098750D01*
X72214250Y-64940000D01*
X71800000Y-64936928D01*
X71675518Y-64949188D01*
X71555820Y-64985498D01*
X71445506Y-65044463D01*
X71348815Y-65123815D01*
X71274101Y-65214854D01*
X71219180Y-65185498D01*
X71099482Y-65149188D01*
X70975000Y-65136928D01*
X70785750Y-65140000D01*
X70627000Y-65298750D01*
X70627000Y-66098000D01*
X70647000Y-66098000D01*
X70647000Y-66352000D01*
X70627000Y-66352000D01*
X70627000Y-66372000D01*
X70373000Y-66372000D01*
X70373000Y-66352000D01*
X69548750Y-66352000D01*
X69390000Y-66510750D01*
X69386928Y-66675000D01*
X69399188Y-66799482D01*
X69435498Y-66919180D01*
X69494463Y-67029494D01*
X69530700Y-67073649D01*
X69452625Y-67219717D01*
X69403512Y-67381623D01*
X69389210Y-67526831D01*
X69381423Y-67552501D01*
X69359509Y-67775000D01*
X69365001Y-67830761D01*
X69365001Y-68711928D01*
X67550000Y-68711928D01*
X67425518Y-68724188D01*
X67305820Y-68760498D01*
X67247046Y-68791914D01*
X65288072Y-66832941D01*
X65288072Y-65775000D01*
X69386928Y-65775000D01*
X69390000Y-65939250D01*
X69548750Y-66098000D01*
X70373000Y-66098000D01*
X70373000Y-65298750D01*
X70214250Y-65140000D01*
X70025000Y-65136928D01*
X69900518Y-65149188D01*
X69780820Y-65185498D01*
X69670506Y-65244463D01*
X69573815Y-65323815D01*
X69494463Y-65420506D01*
X69435498Y-65530820D01*
X69399188Y-65650518D01*
X69386928Y-65775000D01*
X65288072Y-65775000D01*
X65288072Y-65400000D01*
X65275812Y-65275518D01*
X65239502Y-65155820D01*
X65180537Y-65045506D01*
X65101185Y-64948815D01*
X65004494Y-64869463D01*
X64894180Y-64810498D01*
X64774482Y-64774188D01*
X64650000Y-64761928D01*
X62350000Y-64761928D01*
X62225518Y-64774188D01*
X62105820Y-64810498D01*
X61995506Y-64869463D01*
X61898815Y-64948815D01*
X61844499Y-65015000D01*
X54827239Y-65015000D01*
X54138072Y-64325834D01*
X54138072Y-64000000D01*
X54125812Y-63875518D01*
X54089502Y-63755820D01*
X54030537Y-63645506D01*
X53993192Y-63600000D01*
X61711928Y-63600000D01*
X61724188Y-63724482D01*
X61760498Y-63844180D01*
X61819463Y-63954494D01*
X61898815Y-64051185D01*
X61995506Y-64130537D01*
X62105820Y-64189502D01*
X62225518Y-64225812D01*
X62350000Y-64238072D01*
X63214250Y-64235000D01*
X63373000Y-64076250D01*
X63373000Y-62477000D01*
X63627000Y-62477000D01*
X63627000Y-64076250D01*
X63785750Y-64235000D01*
X64650000Y-64238072D01*
X64774482Y-64225812D01*
X64894180Y-64189502D01*
X65004494Y-64130537D01*
X65101185Y-64051185D01*
X65180537Y-63954494D01*
X65236391Y-63850000D01*
X65961928Y-63850000D01*
X65974188Y-63974482D01*
X66010498Y-64094180D01*
X66069463Y-64204494D01*
X66148815Y-64301185D01*
X66245506Y-64380537D01*
X66355820Y-64439502D01*
X66475518Y-64475812D01*
X66600000Y-64488072D01*
X67564250Y-64485000D01*
X67723000Y-64326250D01*
X67723000Y-62827000D01*
X67977000Y-62827000D01*
X67977000Y-64326250D01*
X68135750Y-64485000D01*
X69100000Y-64488072D01*
X69224482Y-64475812D01*
X69344180Y-64439502D01*
X69454494Y-64380537D01*
X69551185Y-64301185D01*
X69630537Y-64204494D01*
X69689502Y-64094180D01*
X69725812Y-63974482D01*
X69738072Y-63850000D01*
X69735000Y-62985750D01*
X69576250Y-62827000D01*
X67977000Y-62827000D01*
X67723000Y-62827000D01*
X66123750Y-62827000D01*
X65965000Y-62985750D01*
X65961928Y-63850000D01*
X65236391Y-63850000D01*
X65239502Y-63844180D01*
X65275812Y-63724482D01*
X65288072Y-63600000D01*
X65285000Y-62635750D01*
X65126250Y-62477000D01*
X63627000Y-62477000D01*
X63373000Y-62477000D01*
X61873750Y-62477000D01*
X61715000Y-62635750D01*
X61711928Y-63600000D01*
X53993192Y-63600000D01*
X53951185Y-63548815D01*
X53854494Y-63469463D01*
X53744180Y-63410498D01*
X53624482Y-63374188D01*
X53500000Y-63361928D01*
X52549130Y-63361928D01*
X52500000Y-63357089D01*
X52450870Y-63361928D01*
X51500000Y-63361928D01*
X51375518Y-63374188D01*
X51255820Y-63410498D01*
X51145506Y-63469463D01*
X51048815Y-63548815D01*
X50969463Y-63645506D01*
X50910498Y-63755820D01*
X50874188Y-63875518D01*
X50861928Y-64000000D01*
X50861928Y-64950870D01*
X50857089Y-65000000D01*
X50861928Y-65049130D01*
X50861928Y-66000000D01*
X50874188Y-66124482D01*
X50910498Y-66244180D01*
X50969463Y-66354494D01*
X51048815Y-66451185D01*
X51145506Y-66530537D01*
X51255820Y-66589502D01*
X51375518Y-66625812D01*
X51500000Y-66638072D01*
X51825834Y-66638072D01*
X52937079Y-67749318D01*
X52988286Y-67811714D01*
X53237248Y-68016031D01*
X53521285Y-68167852D01*
X53829484Y-68261343D01*
X54069678Y-68285000D01*
X54069680Y-68285000D01*
X54149999Y-68292911D01*
X54230319Y-68285000D01*
X61844499Y-68285000D01*
X61898815Y-68351185D01*
X61995506Y-68430537D01*
X62105820Y-68489502D01*
X62225518Y-68525812D01*
X62350000Y-68538072D01*
X63782941Y-68538072D01*
X66158009Y-70913141D01*
X66193551Y-70956449D01*
X66366377Y-71098284D01*
X66563553Y-71203676D01*
X66777501Y-71268577D01*
X66944248Y-71285000D01*
X66944257Y-71285000D01*
X66999999Y-71290490D01*
X67011379Y-71289369D01*
X67019463Y-71304494D01*
X67098815Y-71401185D01*
X67195506Y-71480537D01*
X67305820Y-71539502D01*
X67425518Y-71575812D01*
X67550000Y-71588072D01*
X69490001Y-71588072D01*
X69490001Y-71772372D01*
X69465000Y-71898061D01*
X69465000Y-72101939D01*
X69504774Y-72301898D01*
X69582795Y-72490256D01*
X69696063Y-72659774D01*
X69840226Y-72803937D01*
X70009744Y-72917205D01*
X70198102Y-72995226D01*
X70398061Y-73035000D01*
X70601939Y-73035000D01*
X70801898Y-72995226D01*
X70990256Y-72917205D01*
X71159774Y-72803937D01*
X71303937Y-72659774D01*
X71417205Y-72490256D01*
X71495226Y-72301898D01*
X71535000Y-72101939D01*
X71535000Y-71898061D01*
X71510000Y-71772377D01*
X71510000Y-71588072D01*
X73450000Y-71588072D01*
X73574482Y-71575812D01*
X73694180Y-71539502D01*
X73804494Y-71480537D01*
X73889999Y-71410365D01*
X73889999Y-71781530D01*
X73885718Y-71824999D01*
X73889999Y-71868468D01*
X73889999Y-71868475D01*
X73897587Y-71945518D01*
X73902804Y-71998489D01*
X73909850Y-72021715D01*
X73953410Y-72165311D01*
X74035588Y-72319057D01*
X74121332Y-72423536D01*
X73936860Y-72608009D01*
X73893552Y-72643551D01*
X73751717Y-72816377D01*
X73646324Y-73013553D01*
X73581423Y-73227501D01*
X73574166Y-73301185D01*
X73562171Y-73422975D01*
X73450000Y-73411928D01*
X67550000Y-73411928D01*
X67425518Y-73424188D01*
X67305820Y-73460498D01*
X67195506Y-73519463D01*
X67098815Y-73598815D01*
X67019463Y-73695506D01*
X66960498Y-73805820D01*
X66924188Y-73925518D01*
X66911928Y-74050000D01*
X66911928Y-75650000D01*
X66913404Y-75664989D01*
X57036348Y-75664989D01*
X57035000Y-75285750D01*
X56876250Y-75127000D01*
X55277000Y-75127000D01*
X55277000Y-75147000D01*
X55023000Y-75147000D01*
X55023000Y-75127000D01*
X53423750Y-75127000D01*
X53265000Y-75285750D01*
X53264629Y-75389998D01*
X52738072Y-75389998D01*
X52738072Y-73850000D01*
X53261928Y-73850000D01*
X53265000Y-74714250D01*
X53423750Y-74873000D01*
X55023000Y-74873000D01*
X55023000Y-73373750D01*
X55277000Y-73373750D01*
X55277000Y-74873000D01*
X56876250Y-74873000D01*
X57035000Y-74714250D01*
X57038072Y-73850000D01*
X57025812Y-73725518D01*
X56989502Y-73605820D01*
X56930537Y-73495506D01*
X56851185Y-73398815D01*
X56754494Y-73319463D01*
X56644180Y-73260498D01*
X56524482Y-73224188D01*
X56400000Y-73211928D01*
X55435750Y-73215000D01*
X55277000Y-73373750D01*
X55023000Y-73373750D01*
X54864250Y-73215000D01*
X53900000Y-73211928D01*
X53775518Y-73224188D01*
X53655820Y-73260498D01*
X53545506Y-73319463D01*
X53448815Y-73398815D01*
X53369463Y-73495506D01*
X53310498Y-73605820D01*
X53274188Y-73725518D01*
X53261928Y-73850000D01*
X52738072Y-73850000D01*
X52725812Y-73725518D01*
X52689502Y-73605820D01*
X52630537Y-73495506D01*
X52551185Y-73398815D01*
X52454494Y-73319463D01*
X52344180Y-73260498D01*
X52313838Y-73251294D01*
X52580132Y-72985000D01*
X52606260Y-72985000D01*
X52893158Y-72927932D01*
X53163411Y-72815990D01*
X53406632Y-72653475D01*
X53538487Y-72521620D01*
X53560498Y-72594180D01*
X53619463Y-72704494D01*
X53698815Y-72801185D01*
X53795506Y-72880537D01*
X53905820Y-72939502D01*
X54025518Y-72975812D01*
X54150000Y-72988072D01*
X54714250Y-72985000D01*
X54873000Y-72826250D01*
X54873000Y-71627000D01*
X55127000Y-71627000D01*
X55127000Y-72826250D01*
X55285750Y-72985000D01*
X55850000Y-72988072D01*
X55974482Y-72975812D01*
X56094180Y-72939502D01*
X56204494Y-72880537D01*
X56301185Y-72801185D01*
X56380537Y-72704494D01*
X56439502Y-72594180D01*
X56475812Y-72474482D01*
X56488072Y-72350000D01*
X56485000Y-71785750D01*
X56326250Y-71627000D01*
X55127000Y-71627000D01*
X54873000Y-71627000D01*
X54853000Y-71627000D01*
X54853000Y-71373000D01*
X54873000Y-71373000D01*
X54873000Y-70173750D01*
X55127000Y-70173750D01*
X55127000Y-71373000D01*
X56326250Y-71373000D01*
X56485000Y-71214250D01*
X56488072Y-70650000D01*
X56475812Y-70525518D01*
X56439502Y-70405820D01*
X56380537Y-70295506D01*
X56301185Y-70198815D01*
X56204494Y-70119463D01*
X56094180Y-70060498D01*
X55974482Y-70024188D01*
X55850000Y-70011928D01*
X55285750Y-70015000D01*
X55127000Y-70173750D01*
X54873000Y-70173750D01*
X54714250Y-70015000D01*
X54150000Y-70011928D01*
X54025518Y-70024188D01*
X53905820Y-70060498D01*
X53795506Y-70119463D01*
X53698815Y-70198815D01*
X53619463Y-70295506D01*
X53560498Y-70405820D01*
X53538487Y-70478380D01*
X53406632Y-70346525D01*
X53163411Y-70184010D01*
X52893158Y-70072068D01*
X52606260Y-70015000D01*
X52313740Y-70015000D01*
X52026842Y-70072068D01*
X51756589Y-70184010D01*
X51513368Y-70346525D01*
X51306525Y-70553368D01*
X51190000Y-70727760D01*
X51073475Y-70553368D01*
X50866632Y-70346525D01*
X50623411Y-70184010D01*
X50353158Y-70072068D01*
X50066260Y-70015000D01*
X49773740Y-70015000D01*
X49486842Y-70072068D01*
X49216589Y-70184010D01*
X48973368Y-70346525D01*
X48766525Y-70553368D01*
X48604010Y-70796589D01*
X48492068Y-71066842D01*
X48435000Y-71353740D01*
X48435000Y-71646260D01*
X48492068Y-71933158D01*
X48604010Y-72203411D01*
X48766525Y-72446632D01*
X48973368Y-72653475D01*
X49216589Y-72815990D01*
X49486842Y-72927932D01*
X49722818Y-72974871D01*
X49709509Y-73110000D01*
X49715001Y-73165761D01*
X49715001Y-73211928D01*
X49600000Y-73211928D01*
X49475518Y-73224188D01*
X49355820Y-73260498D01*
X49245506Y-73319463D01*
X49148815Y-73398815D01*
X49069463Y-73495506D01*
X49010498Y-73605820D01*
X48974188Y-73725518D01*
X48961928Y-73850000D01*
X48961928Y-75715001D01*
X47036526Y-75715001D01*
X47035000Y-75285750D01*
X46876250Y-75127000D01*
X45277000Y-75127000D01*
X45277000Y-75147000D01*
X45023000Y-75147000D01*
X45023000Y-75127000D01*
X43423750Y-75127000D01*
X43265000Y-75285750D01*
X43263474Y-75715001D01*
X42738072Y-75715001D01*
X42738072Y-73850000D01*
X43261928Y-73850000D01*
X43265000Y-74714250D01*
X43423750Y-74873000D01*
X45023000Y-74873000D01*
X45023000Y-73373750D01*
X45277000Y-73373750D01*
X45277000Y-74873000D01*
X46876250Y-74873000D01*
X47035000Y-74714250D01*
X47038072Y-73850000D01*
X47025812Y-73725518D01*
X46989502Y-73605820D01*
X46930537Y-73495506D01*
X46851185Y-73398815D01*
X46754494Y-73319463D01*
X46644180Y-73260498D01*
X46524482Y-73224188D01*
X46400000Y-73211928D01*
X45435750Y-73215000D01*
X45277000Y-73373750D01*
X45023000Y-73373750D01*
X44864250Y-73215000D01*
X43900000Y-73211928D01*
X43775518Y-73224188D01*
X43655820Y-73260498D01*
X43545506Y-73319463D01*
X43448815Y-73398815D01*
X43369463Y-73495506D01*
X43310498Y-73605820D01*
X43274188Y-73725518D01*
X43261928Y-73850000D01*
X42738072Y-73850000D01*
X42725812Y-73725518D01*
X42689502Y-73605820D01*
X42630537Y-73495506D01*
X42551185Y-73398815D01*
X42454494Y-73319463D01*
X42344180Y-73260498D01*
X42313838Y-73251294D01*
X42580132Y-72985000D01*
X42606260Y-72985000D01*
X42893158Y-72927932D01*
X43163411Y-72815990D01*
X43406632Y-72653475D01*
X43538487Y-72521620D01*
X43560498Y-72594180D01*
X43619463Y-72704494D01*
X43698815Y-72801185D01*
X43795506Y-72880537D01*
X43905820Y-72939502D01*
X44025518Y-72975812D01*
X44150000Y-72988072D01*
X44714250Y-72985000D01*
X44873000Y-72826250D01*
X44873000Y-71627000D01*
X45127000Y-71627000D01*
X45127000Y-72826250D01*
X45285750Y-72985000D01*
X45850000Y-72988072D01*
X45974482Y-72975812D01*
X46094180Y-72939502D01*
X46204494Y-72880537D01*
X46301185Y-72801185D01*
X46380537Y-72704494D01*
X46439502Y-72594180D01*
X46475812Y-72474482D01*
X46488072Y-72350000D01*
X46485000Y-71785750D01*
X46326250Y-71627000D01*
X45127000Y-71627000D01*
X44873000Y-71627000D01*
X44853000Y-71627000D01*
X44853000Y-71373000D01*
X44873000Y-71373000D01*
X44873000Y-70173750D01*
X45127000Y-70173750D01*
X45127000Y-71373000D01*
X46326250Y-71373000D01*
X46485000Y-71214250D01*
X46488072Y-70650000D01*
X46475812Y-70525518D01*
X46439502Y-70405820D01*
X46380537Y-70295506D01*
X46301185Y-70198815D01*
X46204494Y-70119463D01*
X46094180Y-70060498D01*
X45974482Y-70024188D01*
X45850000Y-70011928D01*
X45285750Y-70015000D01*
X45127000Y-70173750D01*
X44873000Y-70173750D01*
X44714250Y-70015000D01*
X44150000Y-70011928D01*
X44025518Y-70024188D01*
X43905820Y-70060498D01*
X43795506Y-70119463D01*
X43698815Y-70198815D01*
X43619463Y-70295506D01*
X43560498Y-70405820D01*
X43538487Y-70478380D01*
X43406632Y-70346525D01*
X43163411Y-70184010D01*
X42893158Y-70072068D01*
X42606260Y-70015000D01*
X42313740Y-70015000D01*
X42026842Y-70072068D01*
X41756589Y-70184010D01*
X41513368Y-70346525D01*
X41306525Y-70553368D01*
X41190000Y-70727760D01*
X41073475Y-70553368D01*
X40866632Y-70346525D01*
X40623411Y-70184010D01*
X40353158Y-70072068D01*
X40066260Y-70015000D01*
X39773740Y-70015000D01*
X39486842Y-70072068D01*
X39216589Y-70184010D01*
X38973368Y-70346525D01*
X38766525Y-70553368D01*
X38604010Y-70796589D01*
X38492068Y-71066842D01*
X38435000Y-71353740D01*
X38435000Y-71646260D01*
X38492068Y-71933158D01*
X38604010Y-72203411D01*
X38766525Y-72446632D01*
X38973368Y-72653475D01*
X39216589Y-72815990D01*
X39486842Y-72927932D01*
X39722818Y-72974871D01*
X39709509Y-73110000D01*
X39715001Y-73165761D01*
X39715001Y-73211928D01*
X39600000Y-73211928D01*
X39475518Y-73224188D01*
X39355820Y-73260498D01*
X39245506Y-73319463D01*
X39148815Y-73398815D01*
X39069463Y-73495506D01*
X39010498Y-73605820D01*
X38974188Y-73725518D01*
X38961928Y-73850000D01*
X38961928Y-76150000D01*
X38974188Y-76274482D01*
X39010498Y-76394180D01*
X39069463Y-76504494D01*
X39148815Y-76601185D01*
X39245506Y-76680537D01*
X39355820Y-76739502D01*
X39475518Y-76775812D01*
X39600000Y-76788072D01*
X41563269Y-76788072D01*
X41615197Y-76840000D01*
X38532279Y-76840000D01*
X38434576Y-76830420D01*
X38371643Y-76811420D01*
X38313594Y-76780554D01*
X38262657Y-76739011D01*
X38220752Y-76688356D01*
X38189485Y-76630529D01*
X38170044Y-76567728D01*
X38160000Y-76472165D01*
X38160000Y-63992371D01*
X38181329Y-64032275D01*
X38287885Y-64162115D01*
X38417725Y-64268671D01*
X38565858Y-64347850D01*
X38726592Y-64396608D01*
X38893750Y-64413072D01*
X39331250Y-64413072D01*
X39498408Y-64396608D01*
X39659142Y-64347850D01*
X39807275Y-64268671D01*
X39828930Y-64250900D01*
X39895506Y-64305537D01*
X40005820Y-64364502D01*
X40125518Y-64400812D01*
X40250000Y-64413072D01*
X40401750Y-64410000D01*
X40560500Y-64251250D01*
X40560500Y-63427000D01*
X40814500Y-63427000D01*
X40814500Y-64251250D01*
X40973250Y-64410000D01*
X41125000Y-64413072D01*
X41249482Y-64400812D01*
X41369180Y-64364502D01*
X41479494Y-64305537D01*
X41576185Y-64226185D01*
X41655537Y-64129494D01*
X41714502Y-64019180D01*
X41750812Y-63899482D01*
X41763072Y-63775000D01*
X41760000Y-63585750D01*
X41601250Y-63427000D01*
X40814500Y-63427000D01*
X40560500Y-63427000D01*
X40540500Y-63427000D01*
X40540500Y-63173000D01*
X40560500Y-63173000D01*
X40560500Y-62348750D01*
X40814500Y-62348750D01*
X40814500Y-63173000D01*
X41601250Y-63173000D01*
X41760000Y-63014250D01*
X41763072Y-62825000D01*
X41750812Y-62700518D01*
X41714502Y-62580820D01*
X41655537Y-62470506D01*
X41576185Y-62373815D01*
X41479494Y-62294463D01*
X41369180Y-62235498D01*
X41249482Y-62199188D01*
X41125000Y-62186928D01*
X40973250Y-62190000D01*
X40814500Y-62348750D01*
X40560500Y-62348750D01*
X40401750Y-62190000D01*
X40250000Y-62186928D01*
X40125518Y-62199188D01*
X40005820Y-62235498D01*
X39895506Y-62294463D01*
X39860000Y-62323602D01*
X39860000Y-62303711D01*
X39903937Y-62259774D01*
X40017205Y-62090256D01*
X40095226Y-61901898D01*
X40135000Y-61701939D01*
X40135000Y-61498061D01*
X40095226Y-61298102D01*
X40027838Y-61135413D01*
X51544192Y-61135413D01*
X51639956Y-61399814D01*
X51929571Y-61540704D01*
X52241108Y-61622384D01*
X52562595Y-61641718D01*
X52881675Y-61597961D01*
X53186088Y-61492795D01*
X53360044Y-61399814D01*
X53455808Y-61135413D01*
X52500000Y-60179605D01*
X51544192Y-61135413D01*
X40027838Y-61135413D01*
X40017205Y-61109744D01*
X39903937Y-60940226D01*
X39759774Y-60796063D01*
X39590256Y-60682795D01*
X39401898Y-60604774D01*
X39201939Y-60565000D01*
X38998061Y-60565000D01*
X38798102Y-60604774D01*
X38609744Y-60682795D01*
X38440226Y-60796063D01*
X38296063Y-60940226D01*
X38182795Y-61109744D01*
X38160000Y-61164776D01*
X38160000Y-55907911D01*
X38815000Y-55907911D01*
X38815000Y-56092089D01*
X38850932Y-56272729D01*
X38921414Y-56442889D01*
X39023738Y-56596028D01*
X39153972Y-56726262D01*
X39307111Y-56828586D01*
X39477271Y-56899068D01*
X39657911Y-56935000D01*
X39842089Y-56935000D01*
X40022729Y-56899068D01*
X40192889Y-56828586D01*
X40346028Y-56726262D01*
X40346075Y-56726215D01*
X40389319Y-56943615D01*
X40633180Y-57532347D01*
X40755540Y-57715472D01*
X40577271Y-57750932D01*
X40407111Y-57821414D01*
X40253972Y-57923738D01*
X40123738Y-58053972D01*
X40021414Y-58207111D01*
X39950932Y-58377271D01*
X39915000Y-58557911D01*
X39915000Y-58742089D01*
X39950932Y-58922729D01*
X40021414Y-59092889D01*
X40123738Y-59246028D01*
X40253972Y-59376262D01*
X40407111Y-59478586D01*
X40577271Y-59549068D01*
X40757911Y-59585000D01*
X40942089Y-59585000D01*
X41122729Y-59549068D01*
X41292889Y-59478586D01*
X41446028Y-59376262D01*
X41576262Y-59246028D01*
X41678586Y-59092889D01*
X41749068Y-58922729D01*
X41784528Y-58744460D01*
X41967653Y-58866820D01*
X42556385Y-59110681D01*
X42773785Y-59153925D01*
X42773738Y-59153972D01*
X42671414Y-59307111D01*
X42600932Y-59477271D01*
X42565000Y-59657911D01*
X42565000Y-59842089D01*
X42600932Y-60022729D01*
X42671414Y-60192889D01*
X42773738Y-60346028D01*
X42903972Y-60476262D01*
X43057111Y-60578586D01*
X43227271Y-60649068D01*
X43407911Y-60685000D01*
X43592089Y-60685000D01*
X43772729Y-60649068D01*
X43942889Y-60578586D01*
X44096028Y-60476262D01*
X44226262Y-60346028D01*
X44328586Y-60192889D01*
X44382555Y-60062595D01*
X50858282Y-60062595D01*
X50902039Y-60381675D01*
X51007205Y-60686088D01*
X51100186Y-60860044D01*
X51364587Y-60955808D01*
X52320395Y-60000000D01*
X52679605Y-60000000D01*
X53635413Y-60955808D01*
X53899814Y-60860044D01*
X54040704Y-60570429D01*
X54122384Y-60258892D01*
X54141718Y-59937405D01*
X54097961Y-59618325D01*
X53992795Y-59313912D01*
X53983181Y-59295925D01*
X58945204Y-59295925D01*
X58978520Y-59431749D01*
X59110888Y-59732206D01*
X59299329Y-60001066D01*
X59536601Y-60227997D01*
X59813586Y-60404278D01*
X60119639Y-60523135D01*
X60443000Y-60580000D01*
X61982667Y-60580000D01*
X61898815Y-60648815D01*
X61819463Y-60745506D01*
X61760498Y-60855820D01*
X61724188Y-60975518D01*
X61711928Y-61100000D01*
X61715000Y-62064250D01*
X61873750Y-62223000D01*
X63373000Y-62223000D01*
X63373000Y-62203000D01*
X63627000Y-62203000D01*
X63627000Y-62223000D01*
X65126250Y-62223000D01*
X65285000Y-62064250D01*
X65286638Y-61550000D01*
X65961928Y-61550000D01*
X65965000Y-62414250D01*
X66123750Y-62573000D01*
X67723000Y-62573000D01*
X67723000Y-61073750D01*
X67977000Y-61073750D01*
X67977000Y-62573000D01*
X69576250Y-62573000D01*
X69735000Y-62414250D01*
X69738072Y-61550000D01*
X69725812Y-61425518D01*
X69689502Y-61305820D01*
X69630537Y-61195506D01*
X69551185Y-61098815D01*
X69454494Y-61019463D01*
X69344180Y-60960498D01*
X69224482Y-60924188D01*
X69100000Y-60911928D01*
X68135750Y-60915000D01*
X67977000Y-61073750D01*
X67723000Y-61073750D01*
X67564250Y-60915000D01*
X66600000Y-60911928D01*
X66475518Y-60924188D01*
X66355820Y-60960498D01*
X66245506Y-61019463D01*
X66148815Y-61098815D01*
X66069463Y-61195506D01*
X66010498Y-61305820D01*
X65974188Y-61425518D01*
X65961928Y-61550000D01*
X65286638Y-61550000D01*
X65288072Y-61100000D01*
X65275812Y-60975518D01*
X65239502Y-60855820D01*
X65180537Y-60745506D01*
X65101185Y-60648815D01*
X65004494Y-60569463D01*
X64933304Y-60531410D01*
X64980361Y-60523135D01*
X65286414Y-60404278D01*
X65563399Y-60227997D01*
X65800671Y-60001066D01*
X65989112Y-59732206D01*
X66121480Y-59431749D01*
X66154796Y-59295925D01*
X66035904Y-59037000D01*
X62677000Y-59037000D01*
X62677000Y-59057000D01*
X62423000Y-59057000D01*
X62423000Y-59037000D01*
X59064096Y-59037000D01*
X58945204Y-59295925D01*
X53983181Y-59295925D01*
X53899814Y-59139956D01*
X53635413Y-59044192D01*
X52679605Y-60000000D01*
X52320395Y-60000000D01*
X51364587Y-59044192D01*
X51100186Y-59139956D01*
X50959296Y-59429571D01*
X50877616Y-59741108D01*
X50858282Y-60062595D01*
X44382555Y-60062595D01*
X44399068Y-60022729D01*
X44435000Y-59842089D01*
X44435000Y-59657911D01*
X44399068Y-59477271D01*
X44328586Y-59307111D01*
X44226262Y-59153972D01*
X44226215Y-59153925D01*
X44443615Y-59110681D01*
X45032347Y-58866820D01*
X45215472Y-58744460D01*
X45250932Y-58922729D01*
X45321414Y-59092889D01*
X45423738Y-59246028D01*
X45553972Y-59376262D01*
X45707111Y-59478586D01*
X45877271Y-59549068D01*
X46057911Y-59585000D01*
X46242089Y-59585000D01*
X46422729Y-59549068D01*
X46592889Y-59478586D01*
X46746028Y-59376262D01*
X46876262Y-59246028D01*
X46978586Y-59092889D01*
X47049068Y-58922729D01*
X47060633Y-58864587D01*
X51544192Y-58864587D01*
X52500000Y-59820395D01*
X53455808Y-58864587D01*
X53360044Y-58600186D01*
X53203590Y-58524075D01*
X58945204Y-58524075D01*
X59064096Y-58783000D01*
X62423000Y-58783000D01*
X62423000Y-57240000D01*
X62677000Y-57240000D01*
X62677000Y-58783000D01*
X66035904Y-58783000D01*
X66154796Y-58524075D01*
X66121480Y-58388251D01*
X65989112Y-58087794D01*
X65800671Y-57818934D01*
X65563399Y-57592003D01*
X65286414Y-57415722D01*
X64980361Y-57296865D01*
X64657000Y-57240000D01*
X62677000Y-57240000D01*
X62423000Y-57240000D01*
X60443000Y-57240000D01*
X60119639Y-57296865D01*
X59813586Y-57415722D01*
X59536601Y-57592003D01*
X59299329Y-57818934D01*
X59110888Y-58087794D01*
X58978520Y-58388251D01*
X58945204Y-58524075D01*
X53203590Y-58524075D01*
X53070429Y-58459296D01*
X52758892Y-58377616D01*
X52437405Y-58358282D01*
X52118325Y-58402039D01*
X51813912Y-58507205D01*
X51639956Y-58600186D01*
X51544192Y-58864587D01*
X47060633Y-58864587D01*
X47085000Y-58742089D01*
X47085000Y-58557911D01*
X47049068Y-58377271D01*
X46978586Y-58207111D01*
X46876262Y-58053972D01*
X46746028Y-57923738D01*
X46592889Y-57821414D01*
X46422729Y-57750932D01*
X46244460Y-57715472D01*
X46366820Y-57532347D01*
X46610681Y-56943615D01*
X46653925Y-56726215D01*
X46653972Y-56726262D01*
X46807111Y-56828586D01*
X46977271Y-56899068D01*
X47157911Y-56935000D01*
X47342089Y-56935000D01*
X47522729Y-56899068D01*
X47692889Y-56828586D01*
X47846028Y-56726262D01*
X47976262Y-56596028D01*
X48078586Y-56442889D01*
X48149068Y-56272729D01*
X48185000Y-56092089D01*
X48185000Y-55907911D01*
X48149068Y-55727271D01*
X48078586Y-55557111D01*
X47976262Y-55403972D01*
X47846028Y-55273738D01*
X47692889Y-55171414D01*
X47522729Y-55100932D01*
X47342089Y-55065000D01*
X47157911Y-55065000D01*
X46977271Y-55100932D01*
X46807111Y-55171414D01*
X46653972Y-55273738D01*
X46653925Y-55273785D01*
X46610681Y-55056385D01*
X46366820Y-54467653D01*
X46244460Y-54284528D01*
X46422729Y-54249068D01*
X46592889Y-54178586D01*
X46746028Y-54076262D01*
X46876262Y-53946028D01*
X46978586Y-53792889D01*
X47049068Y-53622729D01*
X47053589Y-53600000D01*
X93211928Y-53600000D01*
X93224188Y-53724482D01*
X93260498Y-53844180D01*
X93319463Y-53954494D01*
X93398815Y-54051185D01*
X93495506Y-54130537D01*
X93605820Y-54189502D01*
X93725518Y-54225812D01*
X93850000Y-54238072D01*
X94714250Y-54235000D01*
X94873000Y-54076250D01*
X94873000Y-52477000D01*
X95127000Y-52477000D01*
X95127000Y-54076250D01*
X95285750Y-54235000D01*
X96150000Y-54238072D01*
X96274482Y-54225812D01*
X96394180Y-54189502D01*
X96504494Y-54130537D01*
X96601185Y-54051185D01*
X96680537Y-53954494D01*
X96739502Y-53844180D01*
X96775812Y-53724482D01*
X96788072Y-53600000D01*
X98211928Y-53600000D01*
X98224188Y-53724482D01*
X98260498Y-53844180D01*
X98319463Y-53954494D01*
X98398815Y-54051185D01*
X98495506Y-54130537D01*
X98605820Y-54189502D01*
X98725518Y-54225812D01*
X98850000Y-54238072D01*
X99714250Y-54235000D01*
X99873000Y-54076250D01*
X99873000Y-52477000D01*
X100127000Y-52477000D01*
X100127000Y-54076250D01*
X100285750Y-54235000D01*
X101150000Y-54238072D01*
X101274482Y-54225812D01*
X101394180Y-54189502D01*
X101504494Y-54130537D01*
X101601185Y-54051185D01*
X101680537Y-53954494D01*
X101739502Y-53844180D01*
X101775812Y-53724482D01*
X101788072Y-53600000D01*
X103211928Y-53600000D01*
X103224188Y-53724482D01*
X103260498Y-53844180D01*
X103319463Y-53954494D01*
X103398815Y-54051185D01*
X103495506Y-54130537D01*
X103605820Y-54189502D01*
X103725518Y-54225812D01*
X103850000Y-54238072D01*
X104714250Y-54235000D01*
X104873000Y-54076250D01*
X104873000Y-52477000D01*
X105127000Y-52477000D01*
X105127000Y-54076250D01*
X105285750Y-54235000D01*
X106150000Y-54238072D01*
X106274482Y-54225812D01*
X106394180Y-54189502D01*
X106504494Y-54130537D01*
X106601185Y-54051185D01*
X106680537Y-53954494D01*
X106739502Y-53844180D01*
X106775812Y-53724482D01*
X106788072Y-53600000D01*
X108211928Y-53600000D01*
X108224188Y-53724482D01*
X108260498Y-53844180D01*
X108319463Y-53954494D01*
X108398815Y-54051185D01*
X108495506Y-54130537D01*
X108605820Y-54189502D01*
X108725518Y-54225812D01*
X108850000Y-54238072D01*
X109714250Y-54235000D01*
X109873000Y-54076250D01*
X109873000Y-52477000D01*
X110127000Y-52477000D01*
X110127000Y-54076250D01*
X110285750Y-54235000D01*
X111150000Y-54238072D01*
X111274482Y-54225812D01*
X111394180Y-54189502D01*
X111504494Y-54130537D01*
X111601185Y-54051185D01*
X111680537Y-53954494D01*
X111739502Y-53844180D01*
X111775812Y-53724482D01*
X111788072Y-53600000D01*
X111785000Y-52635750D01*
X111626250Y-52477000D01*
X110127000Y-52477000D01*
X109873000Y-52477000D01*
X108373750Y-52477000D01*
X108215000Y-52635750D01*
X108211928Y-53600000D01*
X106788072Y-53600000D01*
X106785000Y-52635750D01*
X106626250Y-52477000D01*
X105127000Y-52477000D01*
X104873000Y-52477000D01*
X103373750Y-52477000D01*
X103215000Y-52635750D01*
X103211928Y-53600000D01*
X101788072Y-53600000D01*
X101785000Y-52635750D01*
X101626250Y-52477000D01*
X100127000Y-52477000D01*
X99873000Y-52477000D01*
X98373750Y-52477000D01*
X98215000Y-52635750D01*
X98211928Y-53600000D01*
X96788072Y-53600000D01*
X96785000Y-52635750D01*
X96626250Y-52477000D01*
X95127000Y-52477000D01*
X94873000Y-52477000D01*
X93373750Y-52477000D01*
X93215000Y-52635750D01*
X93211928Y-53600000D01*
X47053589Y-53600000D01*
X47085000Y-53442089D01*
X47085000Y-53257911D01*
X47049068Y-53077271D01*
X46978586Y-52907111D01*
X46876262Y-52753972D01*
X46746028Y-52623738D01*
X46592889Y-52521414D01*
X46422729Y-52450932D01*
X46242089Y-52415000D01*
X46057911Y-52415000D01*
X45877271Y-52450932D01*
X45707111Y-52521414D01*
X45553972Y-52623738D01*
X45423738Y-52753972D01*
X45321414Y-52907111D01*
X45250932Y-53077271D01*
X45215472Y-53255540D01*
X45032347Y-53133180D01*
X44443615Y-52889319D01*
X44226215Y-52846075D01*
X44226262Y-52846028D01*
X44328586Y-52692889D01*
X44399068Y-52522729D01*
X44435000Y-52342089D01*
X44435000Y-52157911D01*
X44399068Y-51977271D01*
X44328586Y-51807111D01*
X44226262Y-51653972D01*
X44096028Y-51523738D01*
X43942889Y-51421414D01*
X43772729Y-51350932D01*
X43592089Y-51315000D01*
X43407911Y-51315000D01*
X43227271Y-51350932D01*
X43057111Y-51421414D01*
X42903972Y-51523738D01*
X42773738Y-51653972D01*
X42671414Y-51807111D01*
X42600932Y-51977271D01*
X42565000Y-52157911D01*
X42565000Y-52342089D01*
X42600932Y-52522729D01*
X42671414Y-52692889D01*
X42773738Y-52846028D01*
X42773785Y-52846075D01*
X42556385Y-52889319D01*
X41967653Y-53133180D01*
X41784528Y-53255540D01*
X41749068Y-53077271D01*
X41678586Y-52907111D01*
X41576262Y-52753972D01*
X41446028Y-52623738D01*
X41292889Y-52521414D01*
X41122729Y-52450932D01*
X40942089Y-52415000D01*
X40757911Y-52415000D01*
X40577271Y-52450932D01*
X40407111Y-52521414D01*
X40253972Y-52623738D01*
X40123738Y-52753972D01*
X40021414Y-52907111D01*
X39950932Y-53077271D01*
X39915000Y-53257911D01*
X39915000Y-53442089D01*
X39950932Y-53622729D01*
X40021414Y-53792889D01*
X40123738Y-53946028D01*
X40253972Y-54076262D01*
X40407111Y-54178586D01*
X40577271Y-54249068D01*
X40755540Y-54284528D01*
X40633180Y-54467653D01*
X40389319Y-55056385D01*
X40346075Y-55273785D01*
X40346028Y-55273738D01*
X40192889Y-55171414D01*
X40022729Y-55100932D01*
X39842089Y-55065000D01*
X39657911Y-55065000D01*
X39477271Y-55100932D01*
X39307111Y-55171414D01*
X39153972Y-55273738D01*
X39023738Y-55403972D01*
X38921414Y-55557111D01*
X38850932Y-55727271D01*
X38815000Y-55907911D01*
X38160000Y-55907911D01*
X38160000Y-51032279D01*
X38169580Y-50934576D01*
X38188580Y-50871644D01*
X38219445Y-50813595D01*
X38260989Y-50762657D01*
X38311644Y-50720752D01*
X38369471Y-50689485D01*
X38432272Y-50670044D01*
X38527835Y-50660000D01*
X93389636Y-50660000D01*
X93319463Y-50745506D01*
G04 #@! TA.AperFunction,Conductor*
D33*
G36*
X93319463Y-50745506D02*
G01*
X93260498Y-50855820D01*
X93224188Y-50975518D01*
X93211928Y-51100000D01*
X93215000Y-52064250D01*
X93373750Y-52223000D01*
X94873000Y-52223000D01*
X94873000Y-52203000D01*
X95127000Y-52203000D01*
X95127000Y-52223000D01*
X96626250Y-52223000D01*
X96785000Y-52064250D01*
X96788072Y-51100000D01*
X96775812Y-50975518D01*
X96739502Y-50855820D01*
X96680537Y-50745506D01*
X96610364Y-50660000D01*
X98389636Y-50660000D01*
X98319463Y-50745506D01*
X98260498Y-50855820D01*
X98224188Y-50975518D01*
X98211928Y-51100000D01*
X98215000Y-52064250D01*
X98373750Y-52223000D01*
X99873000Y-52223000D01*
X99873000Y-52203000D01*
X100127000Y-52203000D01*
X100127000Y-52223000D01*
X101626250Y-52223000D01*
X101785000Y-52064250D01*
X101788072Y-51100000D01*
X101775812Y-50975518D01*
X101739502Y-50855820D01*
X101680537Y-50745506D01*
X101610364Y-50660000D01*
X103389636Y-50660000D01*
X103319463Y-50745506D01*
X103260498Y-50855820D01*
X103224188Y-50975518D01*
X103211928Y-51100000D01*
X103215000Y-52064250D01*
X103373750Y-52223000D01*
X104873000Y-52223000D01*
X104873000Y-52203000D01*
X105127000Y-52203000D01*
X105127000Y-52223000D01*
X106626250Y-52223000D01*
X106785000Y-52064250D01*
X106788072Y-51100000D01*
X106775812Y-50975518D01*
X106739502Y-50855820D01*
X106680537Y-50745506D01*
X106610364Y-50660000D01*
X108389636Y-50660000D01*
X108319463Y-50745506D01*
X108260498Y-50855820D01*
X108224188Y-50975518D01*
X108211928Y-51100000D01*
X108215000Y-52064250D01*
X108373750Y-52223000D01*
X109873000Y-52223000D01*
X109873000Y-52203000D01*
X110127000Y-52203000D01*
X110127000Y-52223000D01*
X111626250Y-52223000D01*
X111785000Y-52064250D01*
X111788072Y-51100000D01*
X111775812Y-50975518D01*
X111739502Y-50855820D01*
X111680537Y-50745506D01*
X111610364Y-50660000D01*
X129467721Y-50660000D01*
X129565424Y-50669580D01*
X129628356Y-50688580D01*
X129686405Y-50719445D01*
X129737343Y-50760989D01*
X129779248Y-50811644D01*
X129810515Y-50869471D01*
X129829956Y-50932272D01*
X129840001Y-51027845D01*
X129840000Y-70746112D01*
X129801185Y-70698815D01*
X129704494Y-70619463D01*
X129594180Y-70560498D01*
X129474482Y-70524188D01*
X129350000Y-70511928D01*
X128785750Y-70515000D01*
X128627000Y-70673750D01*
X128627000Y-71873000D01*
X128647000Y-71873000D01*
X128647000Y-72127000D01*
X128627000Y-72127000D01*
X128627000Y-72147000D01*
X128373000Y-72147000D01*
X128373000Y-72127000D01*
X128353000Y-72127000D01*
X128353000Y-71873000D01*
X128373000Y-71873000D01*
X128373000Y-70673750D01*
X128214250Y-70515000D01*
X127650000Y-70511928D01*
X127525518Y-70524188D01*
X127405820Y-70560498D01*
X127295506Y-70619463D01*
X127198815Y-70698815D01*
X127119463Y-70795506D01*
X127095000Y-70841272D01*
X127095000Y-69856261D01*
X127101185Y-69851185D01*
X127180537Y-69754494D01*
X127239502Y-69644180D01*
X127275812Y-69524482D01*
X127288072Y-69400000D01*
X127288072Y-66900000D01*
X127275812Y-66775518D01*
X127239502Y-66655820D01*
X127180537Y-66545506D01*
X127101185Y-66448815D01*
X127004494Y-66369463D01*
X126894180Y-66310498D01*
X126774482Y-66274188D01*
X126650000Y-66261928D01*
X124350000Y-66261928D01*
X124225518Y-66274188D01*
X124105820Y-66310498D01*
X123995506Y-66369463D01*
X123898815Y-66448815D01*
X123819463Y-66545506D01*
X123760498Y-66655820D01*
X123724188Y-66775518D01*
X123711928Y-66900000D01*
X123711928Y-66952185D01*
X123703937Y-66940226D01*
X123559774Y-66796063D01*
X123390256Y-66682795D01*
X123201898Y-66604774D01*
X123001939Y-66565000D01*
X122798061Y-66565000D01*
X122598102Y-66604774D01*
X122409744Y-66682795D01*
X122240226Y-66796063D01*
X122096063Y-66940226D01*
X121982795Y-67109744D01*
X121904774Y-67298102D01*
X121865000Y-67498061D01*
X121865000Y-67701939D01*
X121904774Y-67901898D01*
X121982795Y-68090256D01*
X122096063Y-68259774D01*
X122240226Y-68403937D01*
X122409744Y-68517205D01*
X122598102Y-68595226D01*
X122798061Y-68635000D01*
X122860197Y-68635000D01*
X122886205Y-68661007D01*
X122909999Y-68690001D01*
X122938992Y-68713795D01*
X122938996Y-68713799D01*
X122995900Y-68760498D01*
X123025724Y-68784974D01*
X123157753Y-68855546D01*
X123301014Y-68899003D01*
X123412667Y-68910000D01*
X123412676Y-68910000D01*
X123449999Y-68913676D01*
X123487322Y-68910000D01*
X123711928Y-68910000D01*
X123711928Y-69400000D01*
X123724188Y-69524482D01*
X123760498Y-69644180D01*
X123819463Y-69754494D01*
X123898815Y-69851185D01*
X123995506Y-69930537D01*
X124105820Y-69989502D01*
X124225518Y-70025812D01*
X124350000Y-70038072D01*
X124825001Y-70038072D01*
X124825000Y-71034893D01*
X124806525Y-71053368D01*
X124690000Y-71227760D01*
X124573475Y-71053368D01*
X124366632Y-70846525D01*
X124123411Y-70684010D01*
X123853158Y-70572068D01*
X123566260Y-70515000D01*
X123273740Y-70515000D01*
X123201039Y-70529461D01*
X122776533Y-70104955D01*
X122748816Y-70071182D01*
X122614058Y-69960588D01*
X122460312Y-69878410D01*
X122293489Y-69827804D01*
X122163476Y-69814999D01*
X122163468Y-69814999D01*
X122119999Y-69810718D01*
X122076530Y-69814999D01*
X121630882Y-69814999D01*
X121680537Y-69754494D01*
X121739502Y-69644180D01*
X121775812Y-69524482D01*
X121788072Y-69400000D01*
X121788072Y-66900000D01*
X121775812Y-66775518D01*
X121739502Y-66655820D01*
X121680537Y-66545506D01*
X121601185Y-66448815D01*
X121504494Y-66369463D01*
X121394180Y-66310498D01*
X121274482Y-66274188D01*
X121150000Y-66261928D01*
X118850000Y-66261928D01*
X118725518Y-66274188D01*
X118605820Y-66310498D01*
X118495506Y-66369463D01*
X118398815Y-66448815D01*
X118319463Y-66545506D01*
X118260498Y-66655820D01*
X118224188Y-66775518D01*
X118211928Y-66900000D01*
X118211928Y-67365000D01*
X117044248Y-67365000D01*
X116877501Y-67381423D01*
X116849227Y-67390000D01*
X115379800Y-67390000D01*
X115127872Y-67138072D01*
X116000000Y-67138072D01*
X116124482Y-67125812D01*
X116244180Y-67089502D01*
X116354494Y-67030537D01*
X116451185Y-66951185D01*
X116530537Y-66854494D01*
X116589502Y-66744180D01*
X116625812Y-66624482D01*
X116638072Y-66500000D01*
X116638072Y-65100000D01*
X118211928Y-65100000D01*
X118224188Y-65224482D01*
X118260498Y-65344180D01*
X118319463Y-65454494D01*
X118398815Y-65551185D01*
X118495506Y-65630537D01*
X118605820Y-65689502D01*
X118725518Y-65725812D01*
X118850000Y-65738072D01*
X119714250Y-65735000D01*
X119873000Y-65576250D01*
X119873000Y-63977000D01*
X120127000Y-63977000D01*
X120127000Y-65576250D01*
X120285750Y-65735000D01*
X121150000Y-65738072D01*
X121274482Y-65725812D01*
X121394180Y-65689502D01*
X121504494Y-65630537D01*
X121601185Y-65551185D01*
X121680537Y-65454494D01*
X121739502Y-65344180D01*
X121775812Y-65224482D01*
X121788072Y-65100000D01*
X123711928Y-65100000D01*
X123724188Y-65224482D01*
X123760498Y-65344180D01*
X123819463Y-65454494D01*
X123898815Y-65551185D01*
X123995506Y-65630537D01*
X124105820Y-65689502D01*
X124225518Y-65725812D01*
X124350000Y-65738072D01*
X125214250Y-65735000D01*
X125373000Y-65576250D01*
X125373000Y-63977000D01*
X125627000Y-63977000D01*
X125627000Y-65576250D01*
X125785750Y-65735000D01*
X126650000Y-65738072D01*
X126774482Y-65725812D01*
X126894180Y-65689502D01*
X127004494Y-65630537D01*
X127101185Y-65551185D01*
X127180537Y-65454494D01*
X127239502Y-65344180D01*
X127275812Y-65224482D01*
X127288072Y-65100000D01*
X127285000Y-64135750D01*
X127126250Y-63977000D01*
X125627000Y-63977000D01*
X125373000Y-63977000D01*
X123873750Y-63977000D01*
X123715000Y-64135750D01*
X123711928Y-65100000D01*
X121788072Y-65100000D01*
X121785000Y-64135750D01*
X121626250Y-63977000D01*
X120127000Y-63977000D01*
X119873000Y-63977000D01*
X118373750Y-63977000D01*
X118215000Y-64135750D01*
X118211928Y-65100000D01*
X116638072Y-65100000D01*
X116638072Y-64500000D01*
X116625812Y-64375518D01*
X116589502Y-64255820D01*
X116530537Y-64145506D01*
X116451185Y-64048815D01*
X116354494Y-63969463D01*
X116244180Y-63910498D01*
X116124482Y-63874188D01*
X116000000Y-63861928D01*
X114000000Y-63861928D01*
X113875518Y-63874188D01*
X113755820Y-63910498D01*
X113645506Y-63969463D01*
X113548815Y-64048815D01*
X113469463Y-64145506D01*
X113410498Y-64255820D01*
X113374188Y-64375518D01*
X113361928Y-64500000D01*
X113361928Y-65372128D01*
X110589800Y-62600000D01*
X118211928Y-62600000D01*
X118215000Y-63564250D01*
X118373750Y-63723000D01*
X119873000Y-63723000D01*
X119873000Y-62123750D01*
X120127000Y-62123750D01*
X120127000Y-63723000D01*
X121626250Y-63723000D01*
X121785000Y-63564250D01*
X121788072Y-62600000D01*
X123711928Y-62600000D01*
X123715000Y-63564250D01*
X123873750Y-63723000D01*
X125373000Y-63723000D01*
X125373000Y-62123750D01*
X125627000Y-62123750D01*
X125627000Y-63723000D01*
X127126250Y-63723000D01*
X127285000Y-63564250D01*
X127288072Y-62600000D01*
X127275812Y-62475518D01*
X127239502Y-62355820D01*
X127180537Y-62245506D01*
X127101185Y-62148815D01*
X127004494Y-62069463D01*
X126894180Y-62010498D01*
X126774482Y-61974188D01*
X126650000Y-61961928D01*
X125785750Y-61965000D01*
X125627000Y-62123750D01*
X125373000Y-62123750D01*
X125214250Y-61965000D01*
X124350000Y-61961928D01*
X124225518Y-61974188D01*
X124105820Y-62010498D01*
X123995506Y-62069463D01*
X123898815Y-62148815D01*
X123819463Y-62245506D01*
X123760498Y-62355820D01*
X123724188Y-62475518D01*
X123711928Y-62600000D01*
X121788072Y-62600000D01*
X121775812Y-62475518D01*
X121739502Y-62355820D01*
X121680537Y-62245506D01*
X121601185Y-62148815D01*
X121504494Y-62069463D01*
X121394180Y-62010498D01*
X121274482Y-61974188D01*
X121150000Y-61961928D01*
X120285750Y-61965000D01*
X120127000Y-62123750D01*
X119873000Y-62123750D01*
X119714250Y-61965000D01*
X118850000Y-61961928D01*
X118725518Y-61974188D01*
X118605820Y-62010498D01*
X118495506Y-62069463D01*
X118398815Y-62148815D01*
X118319463Y-62245506D01*
X118260498Y-62355820D01*
X118224188Y-62475518D01*
X118211928Y-62600000D01*
X110589800Y-62600000D01*
X109625213Y-61635413D01*
X114044192Y-61635413D01*
X114139956Y-61899814D01*
X114429571Y-62040704D01*
X114741108Y-62122384D01*
X115062595Y-62141718D01*
X115381675Y-62097961D01*
X115686088Y-61992795D01*
X115860044Y-61899814D01*
X115955808Y-61635413D01*
X115000000Y-60679605D01*
X114044192Y-61635413D01*
X109625213Y-61635413D01*
X108876755Y-60886956D01*
X108903937Y-60859774D01*
X109017205Y-60690256D01*
X109070084Y-60562595D01*
X113358282Y-60562595D01*
X113402039Y-60881675D01*
X113507205Y-61186088D01*
X113600186Y-61360044D01*
X113864587Y-61455808D01*
X114820395Y-60500000D01*
X115179605Y-60500000D01*
X116135413Y-61455808D01*
X116399814Y-61360044D01*
X116540704Y-61070429D01*
X116622384Y-60758892D01*
X116641718Y-60437405D01*
X116597961Y-60118325D01*
X116492795Y-59813912D01*
X116399814Y-59639956D01*
X116135413Y-59544192D01*
X115179605Y-60500000D01*
X114820395Y-60500000D01*
X113864587Y-59544192D01*
X113600186Y-59639956D01*
X113459296Y-59929571D01*
X113377616Y-60241108D01*
X113358282Y-60562595D01*
X109070084Y-60562595D01*
X109095226Y-60501898D01*
X109135000Y-60301939D01*
X109135000Y-60098061D01*
X109095226Y-59898102D01*
X109017205Y-59709744D01*
X108903937Y-59540226D01*
X108809421Y-59445710D01*
X108890544Y-59364587D01*
X114044192Y-59364587D01*
X115000000Y-60320395D01*
X115955808Y-59364587D01*
X115860044Y-59100186D01*
X115570429Y-58959296D01*
X115258892Y-58877616D01*
X114937405Y-58858282D01*
X114618325Y-58902039D01*
X114313912Y-59007205D01*
X114139956Y-59100186D01*
X114044192Y-59364587D01*
X108890544Y-59364587D01*
X109717060Y-58538072D01*
X111150000Y-58538072D01*
X111274482Y-58525812D01*
X111394180Y-58489502D01*
X111504494Y-58430537D01*
X111601185Y-58351185D01*
X111680537Y-58254494D01*
X111739502Y-58144180D01*
X111775812Y-58024482D01*
X111788072Y-57900000D01*
X111788072Y-55907911D01*
X119815000Y-55907911D01*
X119815000Y-56092089D01*
X119850932Y-56272729D01*
X119921414Y-56442889D01*
X120023738Y-56596028D01*
X120153972Y-56726262D01*
X120307111Y-56828586D01*
X120477271Y-56899068D01*
X120657911Y-56935000D01*
X120842089Y-56935000D01*
X121022729Y-56899068D01*
X121192889Y-56828586D01*
X121346028Y-56726262D01*
X121346075Y-56726215D01*
X121389319Y-56943615D01*
X121633180Y-57532347D01*
X121755540Y-57715472D01*
X121577271Y-57750932D01*
X121407111Y-57821414D01*
X121253972Y-57923738D01*
X121123738Y-58053972D01*
X121021414Y-58207111D01*
X120950932Y-58377271D01*
X120915000Y-58557911D01*
X120915000Y-58742089D01*
X120950932Y-58922729D01*
X121021414Y-59092889D01*
X121123738Y-59246028D01*
X121253972Y-59376262D01*
X121407111Y-59478586D01*
X121577271Y-59549068D01*
X121757911Y-59585000D01*
X121942089Y-59585000D01*
X122122729Y-59549068D01*
X122292889Y-59478586D01*
X122446028Y-59376262D01*
X122576262Y-59246028D01*
X122678586Y-59092889D01*
X122749068Y-58922729D01*
X122784528Y-58744460D01*
X122967653Y-58866820D01*
X123556385Y-59110681D01*
X123773785Y-59153925D01*
X123773738Y-59153972D01*
X123671414Y-59307111D01*
X123600932Y-59477271D01*
X123565000Y-59657911D01*
X123565000Y-59842089D01*
X123600932Y-60022729D01*
X123671414Y-60192889D01*
X123773738Y-60346028D01*
X123903972Y-60476262D01*
X124057111Y-60578586D01*
X124227271Y-60649068D01*
X124407911Y-60685000D01*
X124592089Y-60685000D01*
X124772729Y-60649068D01*
X124942889Y-60578586D01*
X125096028Y-60476262D01*
X125226262Y-60346028D01*
X125328586Y-60192889D01*
X125399068Y-60022729D01*
X125435000Y-59842089D01*
X125435000Y-59657911D01*
X125399068Y-59477271D01*
X125328586Y-59307111D01*
X125226262Y-59153972D01*
X125226215Y-59153925D01*
X125443615Y-59110681D01*
X126032347Y-58866820D01*
X126215472Y-58744460D01*
X126250932Y-58922729D01*
X126321414Y-59092889D01*
X126423738Y-59246028D01*
X126553972Y-59376262D01*
X126707111Y-59478586D01*
X126877271Y-59549068D01*
X127057911Y-59585000D01*
X127242089Y-59585000D01*
X127422729Y-59549068D01*
X127592889Y-59478586D01*
X127746028Y-59376262D01*
X127876262Y-59246028D01*
X127978586Y-59092889D01*
X128049068Y-58922729D01*
X128085000Y-58742089D01*
X128085000Y-58557911D01*
X128049068Y-58377271D01*
X127978586Y-58207111D01*
X127876262Y-58053972D01*
X127746028Y-57923738D01*
X127592889Y-57821414D01*
X127422729Y-57750932D01*
X127244460Y-57715472D01*
X127366820Y-57532347D01*
X127610681Y-56943615D01*
X127653925Y-56726215D01*
X127653972Y-56726262D01*
X127807111Y-56828586D01*
X127977271Y-56899068D01*
X128157911Y-56935000D01*
X128342089Y-56935000D01*
X128522729Y-56899068D01*
X128692889Y-56828586D01*
X128846028Y-56726262D01*
X128976262Y-56596028D01*
X129078586Y-56442889D01*
X129149068Y-56272729D01*
X129185000Y-56092089D01*
X129185000Y-55907911D01*
X129149068Y-55727271D01*
X129078586Y-55557111D01*
X128976262Y-55403972D01*
X128846028Y-55273738D01*
X128692889Y-55171414D01*
X128522729Y-55100932D01*
X128342089Y-55065000D01*
X128157911Y-55065000D01*
X127977271Y-55100932D01*
X127807111Y-55171414D01*
X127653972Y-55273738D01*
X127653925Y-55273785D01*
X127610681Y-55056385D01*
X127366820Y-54467653D01*
X127244460Y-54284528D01*
X127422729Y-54249068D01*
X127592889Y-54178586D01*
X127746028Y-54076262D01*
X127876262Y-53946028D01*
X127978586Y-53792889D01*
X128049068Y-53622729D01*
X128085000Y-53442089D01*
X128085000Y-53257911D01*
X128049068Y-53077271D01*
X127978586Y-52907111D01*
X127876262Y-52753972D01*
X127746028Y-52623738D01*
X127592889Y-52521414D01*
X127422729Y-52450932D01*
X127242089Y-52415000D01*
X127057911Y-52415000D01*
X126877271Y-52450932D01*
X126707111Y-52521414D01*
X126553972Y-52623738D01*
X126423738Y-52753972D01*
X126321414Y-52907111D01*
X126250932Y-53077271D01*
X126215472Y-53255540D01*
X126032347Y-53133180D01*
X125443615Y-52889319D01*
X125226215Y-52846075D01*
X125226262Y-52846028D01*
X125328586Y-52692889D01*
X125399068Y-52522729D01*
X125435000Y-52342089D01*
X125435000Y-52157911D01*
X125399068Y-51977271D01*
X125328586Y-51807111D01*
X125226262Y-51653972D01*
X125096028Y-51523738D01*
X124942889Y-51421414D01*
X124772729Y-51350932D01*
X124592089Y-51315000D01*
X124407911Y-51315000D01*
X124227271Y-51350932D01*
X124057111Y-51421414D01*
X123903972Y-51523738D01*
X123773738Y-51653972D01*
X123671414Y-51807111D01*
X123600932Y-51977271D01*
X123565000Y-52157911D01*
X123565000Y-52342089D01*
X123600932Y-52522729D01*
X123671414Y-52692889D01*
X123773738Y-52846028D01*
X123773785Y-52846075D01*
X123556385Y-52889319D01*
X122967653Y-53133180D01*
X122784528Y-53255540D01*
X122749068Y-53077271D01*
X122678586Y-52907111D01*
X122576262Y-52753972D01*
X122446028Y-52623738D01*
X122292889Y-52521414D01*
X122122729Y-52450932D01*
X121942089Y-52415000D01*
X121757911Y-52415000D01*
X121577271Y-52450932D01*
X121407111Y-52521414D01*
X121253972Y-52623738D01*
X121123738Y-52753972D01*
X121021414Y-52907111D01*
X120950932Y-53077271D01*
X120915000Y-53257911D01*
X120915000Y-53442089D01*
X120950932Y-53622729D01*
X121021414Y-53792889D01*
X121123738Y-53946028D01*
X121253972Y-54076262D01*
X121407111Y-54178586D01*
X121577271Y-54249068D01*
X121755540Y-54284528D01*
X121633180Y-54467653D01*
X121389319Y-55056385D01*
X121346075Y-55273785D01*
X121346028Y-55273738D01*
X121192889Y-55171414D01*
X121022729Y-55100932D01*
X120842089Y-55065000D01*
X120657911Y-55065000D01*
X120477271Y-55100932D01*
X120307111Y-55171414D01*
X120153972Y-55273738D01*
X120023738Y-55403972D01*
X119921414Y-55557111D01*
X119850932Y-55727271D01*
X119815000Y-55907911D01*
X111788072Y-55907911D01*
X111788072Y-55400000D01*
X111775812Y-55275518D01*
X111739502Y-55155820D01*
X111680537Y-55045506D01*
X111601185Y-54948815D01*
X111504494Y-54869463D01*
X111394180Y-54810498D01*
X111274482Y-54774188D01*
X111150000Y-54761928D01*
X108850000Y-54761928D01*
X108725518Y-54774188D01*
X108605820Y-54810498D01*
X108495506Y-54869463D01*
X108398815Y-54948815D01*
X108319463Y-55045506D01*
X108260498Y-55155820D01*
X108224188Y-55275518D01*
X108211928Y-55400000D01*
X108211928Y-56832940D01*
X105880719Y-59164150D01*
X105793989Y-59128225D01*
X105526411Y-59075000D01*
X105255000Y-59075000D01*
X105255000Y-58538072D01*
X106150000Y-58538072D01*
X106274482Y-58525812D01*
X106394180Y-58489502D01*
X106504494Y-58430537D01*
X106601185Y-58351185D01*
X106680537Y-58254494D01*
X106739502Y-58144180D01*
X106775812Y-58024482D01*
X106788072Y-57900000D01*
X106788072Y-55400000D01*
X106775812Y-55275518D01*
X106739502Y-55155820D01*
X106680537Y-55045506D01*
X106601185Y-54948815D01*
X106504494Y-54869463D01*
X106394180Y-54810498D01*
X106274482Y-54774188D01*
X106150000Y-54761928D01*
X103850000Y-54761928D01*
X103725518Y-54774188D01*
X103605820Y-54810498D01*
X103495506Y-54869463D01*
X103398815Y-54948815D01*
X103319463Y-55045506D01*
X103260498Y-55155820D01*
X103224188Y-55275518D01*
X103211928Y-55400000D01*
X103211928Y-57337380D01*
X103171717Y-57386377D01*
X103066324Y-57583553D01*
X103001423Y-57797501D01*
X102985000Y-57964248D01*
X102985000Y-59075000D01*
X102713589Y-59075000D01*
X102446011Y-59128225D01*
X102193957Y-59232629D01*
X101967114Y-59384201D01*
X101774201Y-59577114D01*
X101622629Y-59803957D01*
X101581489Y-59903279D01*
X101566277Y-59861168D01*
X101505860Y-59748137D01*
X101266993Y-59682612D01*
X100489605Y-60460000D01*
X101266993Y-61237388D01*
X101505860Y-61171863D01*
X101580164Y-61013523D01*
X101622629Y-61116043D01*
X101774201Y-61342886D01*
X101967114Y-61535799D01*
X102193957Y-61687371D01*
X102446011Y-61791775D01*
X102713589Y-61845000D01*
X102985000Y-61845000D01*
X102985000Y-62205714D01*
X102892629Y-62343957D01*
X102850000Y-62446873D01*
X102807371Y-62343957D01*
X102655799Y-62117114D01*
X102462886Y-61924201D01*
X102236043Y-61772629D01*
X101983989Y-61668225D01*
X101716411Y-61615000D01*
X101443589Y-61615000D01*
X101176011Y-61668225D01*
X100923957Y-61772629D01*
X100697114Y-61924201D01*
X100504201Y-62117114D01*
X100352629Y-62343957D01*
X100311489Y-62443279D01*
X100296277Y-62401168D01*
X100235860Y-62288137D01*
X99996993Y-62222612D01*
X99219605Y-63000000D01*
X99996993Y-63777388D01*
X100235860Y-63711863D01*
X100310164Y-63553523D01*
X100352629Y-63656043D01*
X100504201Y-63882886D01*
X100697114Y-64075799D01*
X100923957Y-64227371D01*
X101176011Y-64331775D01*
X101443589Y-64385000D01*
X101716411Y-64385000D01*
X101983989Y-64331775D01*
X102236043Y-64227371D01*
X102462886Y-64075799D01*
X102655799Y-63882886D01*
X102807371Y-63656043D01*
X102850000Y-63553127D01*
X102892629Y-63656043D01*
X103044201Y-63882886D01*
X103237114Y-64075799D01*
X103327500Y-64136193D01*
X103327500Y-64211464D01*
X103281329Y-64267725D01*
X103202150Y-64415858D01*
X103153392Y-64576592D01*
X103136928Y-64743750D01*
X103136928Y-65256250D01*
X103153392Y-65423408D01*
X103202150Y-65584142D01*
X103281329Y-65732275D01*
X103387885Y-65862115D01*
X103515010Y-65966443D01*
X103515011Y-70658867D01*
X103260750Y-70660000D01*
X103102000Y-70818750D01*
X103102000Y-71468000D01*
X103122000Y-71468000D01*
X103122000Y-71722000D01*
X103102000Y-71722000D01*
X103102000Y-71742000D01*
X102848000Y-71742000D01*
X102848000Y-71722000D01*
X101523750Y-71722000D01*
X101365000Y-71880750D01*
X101361928Y-71895000D01*
X101374188Y-72019482D01*
X101410498Y-72139180D01*
X101469463Y-72249494D01*
X101493730Y-72279064D01*
X101421916Y-72413418D01*
X101377071Y-72561255D01*
X101361928Y-72715000D01*
X101361928Y-73015000D01*
X101377071Y-73168745D01*
X101421916Y-73316582D01*
X101494742Y-73452829D01*
X101533454Y-73500000D01*
X101494742Y-73547171D01*
X101421916Y-73683418D01*
X101377071Y-73831255D01*
X101361928Y-73985000D01*
X101361928Y-74019990D01*
X99635000Y-74019990D01*
X99635000Y-74007998D01*
X99476252Y-74007998D01*
X99635000Y-73849250D01*
X99638072Y-73835000D01*
X99625812Y-73710518D01*
X99589502Y-73590820D01*
X99540957Y-73500000D01*
X99589502Y-73409180D01*
X99625812Y-73289482D01*
X99638072Y-73165000D01*
X99635000Y-73150750D01*
X99476250Y-72992000D01*
X98152000Y-72992000D01*
X98152000Y-74008000D01*
X98172000Y-74008000D01*
X98172000Y-74019990D01*
X97878000Y-74019990D01*
X97878000Y-74008000D01*
X97898000Y-74008000D01*
X97898000Y-72992000D01*
X96573750Y-72992000D01*
X96415000Y-73150750D01*
X96411928Y-73165000D01*
X96424188Y-73289482D01*
X96460498Y-73409180D01*
X96509043Y-73500000D01*
X96460498Y-73590820D01*
X96424188Y-73710518D01*
X96414013Y-73813826D01*
X96329494Y-73744463D01*
X96219180Y-73685498D01*
X96099482Y-73649188D01*
X95975000Y-73636928D01*
X95785750Y-73640000D01*
X95627000Y-73798750D01*
X95627000Y-74585500D01*
X95647000Y-74585500D01*
X95647000Y-74839500D01*
X95627000Y-74839500D01*
X95627000Y-74859500D01*
X95373000Y-74859500D01*
X95373000Y-74839500D01*
X95353000Y-74839500D01*
X95353000Y-74585500D01*
X95373000Y-74585500D01*
X95373000Y-73798750D01*
X95214250Y-73640000D01*
X95025000Y-73636928D01*
X94900518Y-73649188D01*
X94780820Y-73685498D01*
X94670506Y-73744463D01*
X94573815Y-73823815D01*
X94494463Y-73920506D01*
X94435498Y-74030820D01*
X94399188Y-74150518D01*
X94386928Y-74275000D01*
X94390000Y-74426750D01*
X94483250Y-74520000D01*
X91316578Y-74520000D01*
X93775048Y-72061531D01*
X93808816Y-72033818D01*
X93836570Y-72000001D01*
X93919410Y-71899060D01*
X94001588Y-71745315D01*
X94052194Y-71578491D01*
X94056038Y-71539463D01*
X94064999Y-71448478D01*
X94064999Y-71448470D01*
X94069280Y-71405001D01*
X94064999Y-71361532D01*
X94064999Y-71259582D01*
X94171331Y-71330631D01*
X94578075Y-71499110D01*
X95009872Y-71585000D01*
X95450128Y-71585000D01*
X95881925Y-71499110D01*
X96288669Y-71330631D01*
X96447273Y-71224655D01*
X96427071Y-71291255D01*
X96411928Y-71445000D01*
X96411928Y-71745000D01*
X96427071Y-71898745D01*
X96471916Y-72046582D01*
X96543730Y-72180936D01*
X96519463Y-72210506D01*
X96460498Y-72320820D01*
X96424188Y-72440518D01*
X96411928Y-72565000D01*
X96415000Y-72579250D01*
X96573750Y-72738000D01*
X97898000Y-72738000D01*
X97898000Y-72718000D01*
X98152000Y-72718000D01*
X98152000Y-72738000D01*
X99476250Y-72738000D01*
X99635000Y-72579250D01*
X99638072Y-72565000D01*
X99625812Y-72440518D01*
X99589502Y-72320820D01*
X99530537Y-72210506D01*
X99506270Y-72180936D01*
X99578084Y-72046582D01*
X99622929Y-71898745D01*
X99638072Y-71745000D01*
X99638072Y-71445000D01*
X99623298Y-71295000D01*
X101361928Y-71295000D01*
X101365000Y-71309250D01*
X101523750Y-71468000D01*
X102848000Y-71468000D01*
X102848000Y-70818750D01*
X102689250Y-70660000D01*
X102000000Y-70656928D01*
X101875518Y-70669188D01*
X101755820Y-70705498D01*
X101645506Y-70764463D01*
X101548815Y-70843815D01*
X101469463Y-70940506D01*
X101410498Y-71050820D01*
X101374188Y-71170518D01*
X101361928Y-71295000D01*
X99623298Y-71295000D01*
X99622929Y-71291255D01*
X99578084Y-71143418D01*
X99505258Y-71007171D01*
X99407251Y-70887749D01*
X99287829Y-70789742D01*
X99151582Y-70716916D01*
X99003745Y-70672071D01*
X98850000Y-70656928D01*
X97200000Y-70656928D01*
X97046255Y-70672071D01*
X97031677Y-70676493D01*
X97210631Y-70408669D01*
X97379110Y-70001925D01*
X97465000Y-69570128D01*
X97465000Y-69129872D01*
X97379110Y-68698075D01*
X97210631Y-68291331D01*
X96966038Y-67925271D01*
X96654729Y-67613962D01*
X96288669Y-67369369D01*
X95881925Y-67200890D01*
X95450128Y-67115000D01*
X95009872Y-67115000D01*
X94578075Y-67200890D01*
X94339273Y-67299805D01*
X95126007Y-66513072D01*
X95206250Y-66513072D01*
X95373408Y-66496608D01*
X95534142Y-66447850D01*
X95682275Y-66368671D01*
X95784229Y-66285000D01*
X96366533Y-66285000D01*
X96410002Y-66289281D01*
X96453471Y-66285000D01*
X96453479Y-66285000D01*
X96583492Y-66272195D01*
X96750315Y-66221589D01*
X96904061Y-66139411D01*
X97038819Y-66028817D01*
X97066536Y-65995044D01*
X98365050Y-64696531D01*
X98398817Y-64668819D01*
X98443798Y-64614011D01*
X98509411Y-64534061D01*
X98591589Y-64380316D01*
X98609785Y-64320333D01*
X98839960Y-64377250D01*
X99112492Y-64389812D01*
X99382238Y-64348965D01*
X99638832Y-64256277D01*
X99751863Y-64195860D01*
X99817388Y-63956993D01*
X99040000Y-63179605D01*
X99025858Y-63193748D01*
X98846253Y-63014143D01*
X98860395Y-63000000D01*
X98846253Y-62985858D01*
X99025858Y-62806253D01*
X99040000Y-62820395D01*
X99817388Y-62043007D01*
X99751863Y-61804140D01*
X99504884Y-61688240D01*
X99240040Y-61622750D01*
X98967508Y-61610188D01*
X98697762Y-61651035D01*
X98655000Y-61666482D01*
X98655000Y-61533685D01*
X98771692Y-61416993D01*
X99532612Y-61416993D01*
X99598137Y-61655860D01*
X99845116Y-61771760D01*
X100109960Y-61837250D01*
X100382492Y-61849812D01*
X100652238Y-61808965D01*
X100908832Y-61716277D01*
X101021863Y-61655860D01*
X101087388Y-61416993D01*
X100310000Y-60639605D01*
X99532612Y-61416993D01*
X98771692Y-61416993D01*
X98845799Y-61342886D01*
X98997371Y-61116043D01*
X99038511Y-61016721D01*
X99053723Y-61058832D01*
X99114140Y-61171863D01*
X99353007Y-61237388D01*
X100130395Y-60460000D01*
X99353007Y-59682612D01*
X99114140Y-59748137D01*
X99039836Y-59906477D01*
X98997371Y-59803957D01*
X98905000Y-59665714D01*
X98905000Y-59503007D01*
X99532612Y-59503007D01*
X100310000Y-60280395D01*
X101087388Y-59503007D01*
X101021863Y-59264140D01*
X100774884Y-59148240D01*
X100510040Y-59082750D01*
X100237508Y-59070188D01*
X99967762Y-59111035D01*
X99711168Y-59203723D01*
X99598137Y-59264140D01*
X99532612Y-59503007D01*
X98905000Y-59503007D01*
X98905000Y-59350131D01*
X99717060Y-58538072D01*
X101150000Y-58538072D01*
X101274482Y-58525812D01*
X101394180Y-58489502D01*
X101504494Y-58430537D01*
X101601185Y-58351185D01*
X101680537Y-58254494D01*
X101739502Y-58144180D01*
X101775812Y-58024482D01*
X101788072Y-57900000D01*
X101788072Y-55400000D01*
X101775812Y-55275518D01*
X101739502Y-55155820D01*
X101680537Y-55045506D01*
X101601185Y-54948815D01*
X101504494Y-54869463D01*
X101394180Y-54810498D01*
X101274482Y-54774188D01*
X101150000Y-54761928D01*
X98850000Y-54761928D01*
X98725518Y-54774188D01*
X98605820Y-54810498D01*
X98495506Y-54869463D01*
X98398815Y-54948815D01*
X98319463Y-55045506D01*
X98260498Y-55155820D01*
X98224188Y-55275518D01*
X98211928Y-55400000D01*
X98211928Y-56832940D01*
X97006860Y-58038009D01*
X96963552Y-58073551D01*
X96821717Y-58246377D01*
X96810252Y-58267827D01*
X96716324Y-58443554D01*
X96702386Y-58489502D01*
X96651423Y-58657501D01*
X96639063Y-58783000D01*
X96629509Y-58880000D01*
X96635000Y-58935751D01*
X96635000Y-59665714D01*
X96542629Y-59803957D01*
X96438225Y-60056011D01*
X96385000Y-60323589D01*
X96385000Y-60596411D01*
X96438225Y-60863989D01*
X96542629Y-61116043D01*
X96694201Y-61342886D01*
X96885001Y-61533686D01*
X96885001Y-61611928D01*
X96717060Y-61611928D01*
X96135000Y-61029869D01*
X96135000Y-58538072D01*
X96150000Y-58538072D01*
X96274482Y-58525812D01*
X96394180Y-58489502D01*
X96504494Y-58430537D01*
X96601185Y-58351185D01*
X96680537Y-58254494D01*
X96739502Y-58144180D01*
X96775812Y-58024482D01*
X96788072Y-57900000D01*
X96788072Y-55400000D01*
X96775812Y-55275518D01*
X96739502Y-55155820D01*
X96680537Y-55045506D01*
X96601185Y-54948815D01*
X96504494Y-54869463D01*
X96394180Y-54810498D01*
X96274482Y-54774188D01*
X96150000Y-54761928D01*
X93850000Y-54761928D01*
X93725518Y-54774188D01*
X93605820Y-54810498D01*
X93495506Y-54869463D01*
X93398815Y-54948815D01*
X93319463Y-55045506D01*
X93260498Y-55155820D01*
X93224188Y-55275518D01*
X93211928Y-55400000D01*
X93211928Y-57900000D01*
X93224188Y-58024482D01*
X93260498Y-58144180D01*
X93319463Y-58254494D01*
X93398815Y-58351185D01*
X93495506Y-58430537D01*
X93605820Y-58489502D01*
X93725518Y-58525812D01*
X93850000Y-58538072D01*
X93865001Y-58538072D01*
X93865000Y-60883421D01*
X93706540Y-61041881D01*
X93656250Y-61036928D01*
X93143750Y-61036928D01*
X92976592Y-61053392D01*
X92815858Y-61102150D01*
X92667725Y-61181329D01*
X92537885Y-61287885D01*
X92431329Y-61417725D01*
X92352150Y-61565858D01*
X92303392Y-61726592D01*
X92286928Y-61893750D01*
X92286928Y-61973994D01*
X91879946Y-62380976D01*
X91846173Y-62408693D01*
X91735579Y-62543452D01*
X91653401Y-62697198D01*
X91622228Y-62799960D01*
X91603037Y-62863224D01*
X91602795Y-62864021D01*
X91589990Y-62994034D01*
X91589990Y-62994041D01*
X91585709Y-63037510D01*
X91589990Y-63080979D01*
X91589991Y-70473430D01*
X91030132Y-71033290D01*
X90980537Y-70940506D01*
X90901185Y-70843815D01*
X90804494Y-70764463D01*
X90694180Y-70705498D01*
X90574482Y-70669188D01*
X90450000Y-70656928D01*
X89760750Y-70660000D01*
X89602000Y-70818750D01*
X89602000Y-71468000D01*
X89622000Y-71468000D01*
X89622000Y-71722000D01*
X89602000Y-71722000D01*
X89602000Y-71742000D01*
X89348000Y-71742000D01*
X89348000Y-71722000D01*
X88023750Y-71722000D01*
X87865000Y-71880750D01*
X87861928Y-71895000D01*
X87874188Y-72019482D01*
X87910498Y-72139180D01*
X87969463Y-72249494D01*
X87993730Y-72279064D01*
X87921916Y-72413418D01*
X87877071Y-72561255D01*
X87861928Y-72715000D01*
X87861928Y-73015000D01*
X87877071Y-73168745D01*
X87921916Y-73316582D01*
X87994742Y-73452829D01*
X88033454Y-73500000D01*
X87994742Y-73547171D01*
X87921916Y-73683418D01*
X87877071Y-73831255D01*
X87861928Y-73985000D01*
X87861928Y-74285000D01*
X87877071Y-74438745D01*
X87921916Y-74586582D01*
X87994742Y-74722829D01*
X88033454Y-74770000D01*
X87994742Y-74817171D01*
X87921916Y-74953418D01*
X87877071Y-75101255D01*
X87861928Y-75255000D01*
X87861928Y-75402500D01*
X86750954Y-75402500D01*
X86702756Y-75370295D01*
X86514398Y-75292274D01*
X86314439Y-75252500D01*
X86137826Y-75252500D01*
X86122929Y-75101255D01*
X86078084Y-74953418D01*
X86006270Y-74819064D01*
X86030537Y-74789494D01*
X86089502Y-74679180D01*
X86125812Y-74559482D01*
X86138072Y-74435000D01*
X86135000Y-74420750D01*
X85976250Y-74262000D01*
X84652000Y-74262000D01*
X84652000Y-74282000D01*
X84398000Y-74282000D01*
X84398000Y-74262000D01*
X84378000Y-74262000D01*
X84378000Y-74008000D01*
X84398000Y-74008000D01*
X84398000Y-72992000D01*
X84652000Y-72992000D01*
X84652000Y-74008000D01*
X85976250Y-74008000D01*
X86135000Y-73849250D01*
X86138072Y-73835000D01*
X86125812Y-73710518D01*
X86089502Y-73590820D01*
X86040957Y-73500000D01*
X86089502Y-73409180D01*
X86125812Y-73289482D01*
X86138072Y-73165000D01*
X86135000Y-73150750D01*
X85976250Y-72992000D01*
X84652000Y-72992000D01*
X84398000Y-72992000D01*
X83073750Y-72992000D01*
X82915000Y-73150750D01*
X82911928Y-73165000D01*
X82924188Y-73289482D01*
X82960498Y-73409180D01*
X83009043Y-73500000D01*
X82960498Y-73590820D01*
X82924188Y-73710518D01*
X82914013Y-73813826D01*
X82829494Y-73744463D01*
X82719180Y-73685498D01*
X82599482Y-73649188D01*
X82475000Y-73636928D01*
X82285750Y-73640000D01*
X82127000Y-73798750D01*
X82127000Y-74585500D01*
X82147000Y-74585500D01*
X82147000Y-74764990D01*
X80679075Y-74764990D01*
X80641750Y-74761314D01*
X80604425Y-74764990D01*
X80604417Y-74764990D01*
X80492764Y-74775987D01*
X80349503Y-74819444D01*
X80217474Y-74890016D01*
X80101749Y-74984989D01*
X80077951Y-75013987D01*
X79735689Y-75356249D01*
X79735000Y-75285750D01*
X79576250Y-75127000D01*
X78777000Y-75127000D01*
X78777000Y-75147000D01*
X78523000Y-75147000D01*
X78523000Y-75127000D01*
X77723750Y-75127000D01*
X77565000Y-75285750D01*
X77561928Y-75600000D01*
X77568329Y-75664989D01*
X76431671Y-75664989D01*
X76438072Y-75600000D01*
X76438072Y-74400000D01*
X77561928Y-74400000D01*
X77565000Y-74714250D01*
X77723750Y-74873000D01*
X78523000Y-74873000D01*
X78523000Y-73923750D01*
X78777000Y-73923750D01*
X78777000Y-74873000D01*
X79576250Y-74873000D01*
X79735000Y-74714250D01*
X79738072Y-74400000D01*
X79725812Y-74275518D01*
X79725655Y-74275000D01*
X80886928Y-74275000D01*
X80890000Y-74426750D01*
X81048750Y-74585500D01*
X81873000Y-74585500D01*
X81873000Y-73798750D01*
X81714250Y-73640000D01*
X81525000Y-73636928D01*
X81400518Y-73649188D01*
X81280820Y-73685498D01*
X81170506Y-73744463D01*
X81073815Y-73823815D01*
X80994463Y-73920506D01*
X80935498Y-74030820D01*
X80899188Y-74150518D01*
X80886928Y-74275000D01*
X79725655Y-74275000D01*
X79689502Y-74155820D01*
X79630537Y-74045506D01*
X79551185Y-73948815D01*
X79454494Y-73869463D01*
X79344180Y-73810498D01*
X79224482Y-73774188D01*
X79100000Y-73761928D01*
X78935750Y-73765000D01*
X78777000Y-73923750D01*
X78523000Y-73923750D01*
X78364250Y-73765000D01*
X78200000Y-73761928D01*
X78075518Y-73774188D01*
X77955820Y-73810498D01*
X77845506Y-73869463D01*
X77748815Y-73948815D01*
X77669463Y-74045506D01*
X77610498Y-74155820D01*
X77574188Y-74275518D01*
X77561928Y-74400000D01*
X76438072Y-74400000D01*
X76425812Y-74275518D01*
X76389502Y-74155820D01*
X76330537Y-74045506D01*
X76251185Y-73948815D01*
X76154494Y-73869463D01*
X76044180Y-73810498D01*
X75967802Y-73787329D01*
X75999302Y-73755830D01*
X75999482Y-73755812D01*
X76025000Y-73748071D01*
X76050518Y-73755812D01*
X76175000Y-73768072D01*
X76825000Y-73768072D01*
X76949482Y-73755812D01*
X76975000Y-73748071D01*
X77000518Y-73755812D01*
X77125000Y-73768072D01*
X77775000Y-73768072D01*
X77899482Y-73755812D01*
X78019180Y-73719502D01*
X78129494Y-73660537D01*
X78226185Y-73581185D01*
X78233313Y-73572500D01*
X80644249Y-73572500D01*
X80700000Y-73577991D01*
X80755751Y-73572500D01*
X80755752Y-73572500D01*
X80922499Y-73556077D01*
X81136447Y-73491176D01*
X81333623Y-73385784D01*
X81506449Y-73243949D01*
X81541995Y-73200636D01*
X82163150Y-72579482D01*
X82206459Y-72543939D01*
X82348294Y-72371113D01*
X82453686Y-72173937D01*
X82518587Y-71959989D01*
X82535010Y-71793242D01*
X82535010Y-71793241D01*
X82540501Y-71737490D01*
X82535010Y-71681738D01*
X82535010Y-71445000D01*
X82911928Y-71445000D01*
X82911928Y-71745000D01*
X82927071Y-71898745D01*
X82971916Y-72046582D01*
X83043730Y-72180936D01*
X83019463Y-72210506D01*
X82960498Y-72320820D01*
X82924188Y-72440518D01*
X82911928Y-72565000D01*
X82915000Y-72579250D01*
X83073750Y-72738000D01*
X84398000Y-72738000D01*
X84398000Y-72718000D01*
X84652000Y-72718000D01*
X84652000Y-72738000D01*
X85976250Y-72738000D01*
X86135000Y-72579250D01*
X86138072Y-72565000D01*
X86125812Y-72440518D01*
X86089502Y-72320820D01*
X86030537Y-72210506D01*
X86006270Y-72180936D01*
X86078084Y-72046582D01*
X86122929Y-71898745D01*
X86138072Y-71745000D01*
X86138072Y-71445000D01*
X86123298Y-71295000D01*
X87861928Y-71295000D01*
X87865000Y-71309250D01*
X88023750Y-71468000D01*
X89348000Y-71468000D01*
X89348000Y-70818750D01*
X89189250Y-70660000D01*
X88500000Y-70656928D01*
X88375518Y-70669188D01*
X88255820Y-70705498D01*
X88145506Y-70764463D01*
X88048815Y-70843815D01*
X87969463Y-70940506D01*
X87910498Y-71050820D01*
X87874188Y-71170518D01*
X87861928Y-71295000D01*
X86123298Y-71295000D01*
X86122929Y-71291255D01*
X86078084Y-71143418D01*
X86005258Y-71007171D01*
X85907251Y-70887749D01*
X85787829Y-70789742D01*
X85651582Y-70716916D01*
X85503745Y-70672071D01*
X85350000Y-70656928D01*
X83700000Y-70656928D01*
X83546255Y-70672071D01*
X83398418Y-70716916D01*
X83262171Y-70789742D01*
X83142749Y-70887749D01*
X83044742Y-71007171D01*
X82971916Y-71143418D01*
X82927071Y-71291255D01*
X82911928Y-71445000D01*
X82535010Y-71445000D01*
X82535010Y-63243486D01*
X82619486Y-63217861D01*
X82903524Y-63066039D01*
X83090095Y-62912924D01*
X83868020Y-62135000D01*
X85869681Y-62135000D01*
X85950000Y-62142911D01*
X86030319Y-62135000D01*
X86030322Y-62135000D01*
X86270516Y-62111343D01*
X86578715Y-62017852D01*
X86862752Y-61866031D01*
X87111714Y-61661714D01*
X87162925Y-61599314D01*
X88092239Y-60670000D01*
X89512037Y-60670000D01*
X89757377Y-60645836D01*
X90072173Y-60550344D01*
X90362291Y-60395273D01*
X90616582Y-60186582D01*
X90825273Y-59932291D01*
X90980344Y-59642173D01*
X91075836Y-59327377D01*
X91108080Y-59000000D01*
X91075836Y-58672623D01*
X90980344Y-58357827D01*
X90825273Y-58067709D01*
X90616582Y-57813418D01*
X90362291Y-57604727D01*
X90072173Y-57449656D01*
X89757377Y-57354164D01*
X89512037Y-57330000D01*
X85387963Y-57330000D01*
X85142623Y-57354164D01*
X84827827Y-57449656D01*
X84537709Y-57604727D01*
X84283418Y-57813418D01*
X84074727Y-58067709D01*
X83919656Y-58357827D01*
X83824164Y-58672623D01*
X83805216Y-58865000D01*
X83271100Y-58865000D01*
X83190780Y-58857089D01*
X83110461Y-58865000D01*
X83110459Y-58865000D01*
X83036220Y-58872312D01*
X83154796Y-58614075D01*
X83121480Y-58478251D01*
X82989112Y-58177794D01*
X82800671Y-57908934D01*
X82563399Y-57682003D01*
X82286414Y-57505722D01*
X81980361Y-57386865D01*
X81657000Y-57330000D01*
X79677000Y-57330000D01*
X79677000Y-58873000D01*
X79697000Y-58873000D01*
X79697000Y-59127000D01*
X79677000Y-59127000D01*
X79677000Y-60670000D01*
X80720972Y-60670000D01*
X80624742Y-60787257D01*
X80472920Y-61071295D01*
X80379430Y-61379493D01*
X80347861Y-61700009D01*
X80369543Y-61920144D01*
X80346335Y-61963563D01*
X80281434Y-62177511D01*
X80265011Y-62344258D01*
X80265010Y-69460740D01*
X80127000Y-69598750D01*
X80127000Y-70435500D01*
X80147000Y-70435500D01*
X80147000Y-70689500D01*
X80127000Y-70689500D01*
X80127000Y-70709500D01*
X79873000Y-70709500D01*
X79873000Y-70689500D01*
X78823750Y-70689500D01*
X78665000Y-70848250D01*
X78661928Y-71050000D01*
X78674188Y-71174482D01*
X78710498Y-71294180D01*
X78714945Y-71302500D01*
X78290760Y-71302500D01*
X78305537Y-71284494D01*
X78364502Y-71174180D01*
X78400812Y-71054482D01*
X78413072Y-70930000D01*
X78413072Y-70678884D01*
X78451911Y-70631559D01*
X78534089Y-70477813D01*
X78584695Y-70310990D01*
X78597500Y-70180977D01*
X78597500Y-70180967D01*
X78601781Y-70137501D01*
X78597500Y-70094034D01*
X78597500Y-70075000D01*
X78661928Y-70075000D01*
X78665000Y-70276750D01*
X78823750Y-70435500D01*
X79873000Y-70435500D01*
X79873000Y-69598750D01*
X79714250Y-69440000D01*
X79300000Y-69436928D01*
X79175518Y-69449188D01*
X79055820Y-69485498D01*
X78945506Y-69544463D01*
X78848815Y-69623815D01*
X78769463Y-69720506D01*
X78710498Y-69830820D01*
X78674188Y-69950518D01*
X78661928Y-70075000D01*
X78597500Y-70075000D01*
X78597500Y-69348667D01*
X78743750Y-69363072D01*
X79256250Y-69363072D01*
X79423408Y-69346608D01*
X79584142Y-69297850D01*
X79732275Y-69218671D01*
X79862115Y-69112115D01*
X79968671Y-68982275D01*
X80047850Y-68834142D01*
X80096608Y-68673408D01*
X80113072Y-68506250D01*
X80113072Y-68068750D01*
X80096608Y-67901592D01*
X80047850Y-67740858D01*
X79968671Y-67592725D01*
X79950900Y-67571070D01*
X80005537Y-67504494D01*
X80064502Y-67394180D01*
X80100812Y-67274482D01*
X80113072Y-67150000D01*
X80110000Y-66998250D01*
X79951250Y-66839500D01*
X79127000Y-66839500D01*
X79127000Y-66859500D01*
X78873000Y-66859500D01*
X78873000Y-66839500D01*
X78853000Y-66839500D01*
X78853000Y-66585500D01*
X78873000Y-66585500D01*
X78873000Y-65798750D01*
X79127000Y-65798750D01*
X79127000Y-66585500D01*
X79951250Y-66585500D01*
X80110000Y-66426750D01*
X80113072Y-66275000D01*
X80100812Y-66150518D01*
X80064502Y-66030820D01*
X80005537Y-65920506D01*
X79926185Y-65823815D01*
X79829494Y-65744463D01*
X79719180Y-65685498D01*
X79599482Y-65649188D01*
X79475000Y-65636928D01*
X79285750Y-65640000D01*
X79127000Y-65798750D01*
X78873000Y-65798750D01*
X78714250Y-65640000D01*
X78525000Y-65636928D01*
X78400518Y-65649188D01*
X78280820Y-65685498D01*
X78170506Y-65744463D01*
X78073815Y-65823815D01*
X78010000Y-65901574D01*
X78010000Y-64999604D01*
X78014886Y-64949999D01*
X78009315Y-64893441D01*
X77995385Y-64752006D01*
X77937632Y-64561620D01*
X77843847Y-64386160D01*
X77717633Y-64232367D01*
X77679094Y-64200739D01*
X75749261Y-62270906D01*
X75717633Y-62232367D01*
X75563840Y-62106153D01*
X75388379Y-62012368D01*
X75323856Y-61992795D01*
X75197994Y-61954615D01*
X75000000Y-61935114D01*
X74802006Y-61954615D01*
X74611620Y-62012368D01*
X74436160Y-62106153D01*
X74285000Y-62230206D01*
X74285000Y-60714871D01*
X74295329Y-60609999D01*
X74285000Y-60505127D01*
X74285000Y-60505118D01*
X74254108Y-60191467D01*
X74132026Y-59789018D01*
X73989426Y-59522232D01*
X74030774Y-59385925D01*
X75945204Y-59385925D01*
X75978520Y-59521749D01*
X76110888Y-59822206D01*
X76299329Y-60091066D01*
X76536601Y-60317997D01*
X76813586Y-60494278D01*
X77119639Y-60613135D01*
X77443000Y-60670000D01*
X79423000Y-60670000D01*
X79423000Y-59127000D01*
X76064096Y-59127000D01*
X75945204Y-59385925D01*
X74030774Y-59385925D01*
X74075836Y-59237377D01*
X74108080Y-58910000D01*
X74078934Y-58614075D01*
X75945204Y-58614075D01*
X76064096Y-58873000D01*
X79423000Y-58873000D01*
X79423000Y-57330000D01*
X77443000Y-57330000D01*
X77119639Y-57386865D01*
X76813586Y-57505722D01*
X76536601Y-57682003D01*
X76299329Y-57908934D01*
X76110888Y-58177794D01*
X75978520Y-58478251D01*
X75945204Y-58614075D01*
X74078934Y-58614075D01*
X74075836Y-58582623D01*
X73980344Y-58267827D01*
X73825273Y-57977709D01*
X73616582Y-57723418D01*
X73362291Y-57514727D01*
X73072173Y-57359656D01*
X72757377Y-57264164D01*
X72512037Y-57240000D01*
X71780518Y-57240000D01*
X71641881Y-57126224D01*
X71270982Y-56927975D01*
X70868533Y-56805893D01*
X70450000Y-56764671D01*
X70031467Y-56805893D01*
X69629018Y-56927975D01*
X69258119Y-57126224D01*
X69119482Y-57240000D01*
X68387963Y-57240000D01*
X68142623Y-57264164D01*
X67827827Y-57359656D01*
X67537709Y-57514727D01*
X67283418Y-57723418D01*
X67074727Y-57977709D01*
X66919656Y-58267827D01*
X66824164Y-58582623D01*
X66791920Y-58910000D01*
X66824164Y-59237377D01*
X66919656Y-59552173D01*
X67074727Y-59842291D01*
X67283418Y-60096582D01*
X67537709Y-60305273D01*
X67827827Y-60460344D01*
X68142623Y-60555836D01*
X68387963Y-60580000D01*
X69100655Y-60580000D01*
X70015000Y-61494346D01*
X70015000Y-62804881D01*
X70045892Y-63118532D01*
X70167974Y-63520981D01*
X70261928Y-63696758D01*
X70261928Y-63850000D01*
X70274188Y-63974482D01*
X70310498Y-64094180D01*
X70369463Y-64204494D01*
X70448815Y-64301185D01*
X70545506Y-64380537D01*
X70655820Y-64439502D01*
X70775518Y-64475812D01*
X70900000Y-64488072D01*
X70966154Y-64488072D01*
X71329018Y-64682026D01*
X71731467Y-64804108D01*
X72150000Y-64845330D01*
X72568532Y-64804108D01*
X72939990Y-64691427D01*
X72939990Y-64938856D01*
X72785750Y-64940000D01*
X72627000Y-65098750D01*
X72627000Y-65935500D01*
X72647000Y-65935500D01*
X72647000Y-66189500D01*
X72627000Y-66189500D01*
X72627000Y-66209500D01*
X72373000Y-66209500D01*
X72373000Y-66189500D01*
X72353000Y-66189500D01*
X72353000Y-65935500D01*
X72373000Y-65935500D01*
X72373000Y-65098750D01*
X72214250Y-64940000D01*
X71800000Y-64936928D01*
X71675518Y-64949188D01*
X71555820Y-64985498D01*
X71445506Y-65044463D01*
X71348815Y-65123815D01*
X71274101Y-65214854D01*
X71219180Y-65185498D01*
X71099482Y-65149188D01*
X70975000Y-65136928D01*
X70785750Y-65140000D01*
X70627000Y-65298750D01*
X70627000Y-66098000D01*
X70647000Y-66098000D01*
X70647000Y-66352000D01*
X70627000Y-66352000D01*
X70627000Y-66372000D01*
X70373000Y-66372000D01*
X70373000Y-66352000D01*
X69548750Y-66352000D01*
X69390000Y-66510750D01*
X69386928Y-66675000D01*
X69399188Y-66799482D01*
X69435498Y-66919180D01*
X69494463Y-67029494D01*
X69530700Y-67073649D01*
X69452625Y-67219717D01*
X69403512Y-67381623D01*
X69389210Y-67526831D01*
X69381423Y-67552501D01*
X69359509Y-67775000D01*
X69365001Y-67830761D01*
X69365001Y-68711928D01*
X67550000Y-68711928D01*
X67425518Y-68724188D01*
X67305820Y-68760498D01*
X67247046Y-68791914D01*
X65288072Y-66832941D01*
X65288072Y-65775000D01*
X69386928Y-65775000D01*
X69390000Y-65939250D01*
X69548750Y-66098000D01*
X70373000Y-66098000D01*
X70373000Y-65298750D01*
X70214250Y-65140000D01*
X70025000Y-65136928D01*
X69900518Y-65149188D01*
X69780820Y-65185498D01*
X69670506Y-65244463D01*
X69573815Y-65323815D01*
X69494463Y-65420506D01*
X69435498Y-65530820D01*
X69399188Y-65650518D01*
X69386928Y-65775000D01*
X65288072Y-65775000D01*
X65288072Y-65400000D01*
X65275812Y-65275518D01*
X65239502Y-65155820D01*
X65180537Y-65045506D01*
X65101185Y-64948815D01*
X65004494Y-64869463D01*
X64894180Y-64810498D01*
X64774482Y-64774188D01*
X64650000Y-64761928D01*
X62350000Y-64761928D01*
X62225518Y-64774188D01*
X62105820Y-64810498D01*
X61995506Y-64869463D01*
X61898815Y-64948815D01*
X61844499Y-65015000D01*
X54827239Y-65015000D01*
X54138072Y-64325834D01*
X54138072Y-64000000D01*
X54125812Y-63875518D01*
X54089502Y-63755820D01*
X54030537Y-63645506D01*
X53993192Y-63600000D01*
X61711928Y-63600000D01*
X61724188Y-63724482D01*
X61760498Y-63844180D01*
X61819463Y-63954494D01*
X61898815Y-64051185D01*
X61995506Y-64130537D01*
X62105820Y-64189502D01*
X62225518Y-64225812D01*
X62350000Y-64238072D01*
X63214250Y-64235000D01*
X63373000Y-64076250D01*
X63373000Y-62477000D01*
X63627000Y-62477000D01*
X63627000Y-64076250D01*
X63785750Y-64235000D01*
X64650000Y-64238072D01*
X64774482Y-64225812D01*
X64894180Y-64189502D01*
X65004494Y-64130537D01*
X65101185Y-64051185D01*
X65180537Y-63954494D01*
X65236391Y-63850000D01*
X65961928Y-63850000D01*
X65974188Y-63974482D01*
X66010498Y-64094180D01*
X66069463Y-64204494D01*
X66148815Y-64301185D01*
X66245506Y-64380537D01*
X66355820Y-64439502D01*
X66475518Y-64475812D01*
X66600000Y-64488072D01*
X67564250Y-64485000D01*
X67723000Y-64326250D01*
X67723000Y-62827000D01*
X67977000Y-62827000D01*
X67977000Y-64326250D01*
X68135750Y-64485000D01*
X69100000Y-64488072D01*
X69224482Y-64475812D01*
X69344180Y-64439502D01*
X69454494Y-64380537D01*
X69551185Y-64301185D01*
X69630537Y-64204494D01*
X69689502Y-64094180D01*
X69725812Y-63974482D01*
X69738072Y-63850000D01*
X69735000Y-62985750D01*
X69576250Y-62827000D01*
X67977000Y-62827000D01*
X67723000Y-62827000D01*
X66123750Y-62827000D01*
X65965000Y-62985750D01*
X65961928Y-63850000D01*
X65236391Y-63850000D01*
X65239502Y-63844180D01*
X65275812Y-63724482D01*
X65288072Y-63600000D01*
X65285000Y-62635750D01*
X65126250Y-62477000D01*
X63627000Y-62477000D01*
X63373000Y-62477000D01*
X61873750Y-62477000D01*
X61715000Y-62635750D01*
X61711928Y-63600000D01*
X53993192Y-63600000D01*
X53951185Y-63548815D01*
X53854494Y-63469463D01*
X53744180Y-63410498D01*
X53624482Y-63374188D01*
X53500000Y-63361928D01*
X52549130Y-63361928D01*
X52500000Y-63357089D01*
X52450870Y-63361928D01*
X51500000Y-63361928D01*
X51375518Y-63374188D01*
X51255820Y-63410498D01*
X51145506Y-63469463D01*
X51048815Y-63548815D01*
X50969463Y-63645506D01*
X50910498Y-63755820D01*
X50874188Y-63875518D01*
X50861928Y-64000000D01*
X50861928Y-64950870D01*
X50857089Y-65000000D01*
X50861928Y-65049130D01*
X50861928Y-66000000D01*
X50874188Y-66124482D01*
X50910498Y-66244180D01*
X50969463Y-66354494D01*
X51048815Y-66451185D01*
X51145506Y-66530537D01*
X51255820Y-66589502D01*
X51375518Y-66625812D01*
X51500000Y-66638072D01*
X51825834Y-66638072D01*
X52937079Y-67749318D01*
X52988286Y-67811714D01*
X53237248Y-68016031D01*
X53521285Y-68167852D01*
X53829484Y-68261343D01*
X54069678Y-68285000D01*
X54069680Y-68285000D01*
X54149999Y-68292911D01*
X54230319Y-68285000D01*
X61844499Y-68285000D01*
X61898815Y-68351185D01*
X61995506Y-68430537D01*
X62105820Y-68489502D01*
X62225518Y-68525812D01*
X62350000Y-68538072D01*
X63782941Y-68538072D01*
X66158009Y-70913141D01*
X66193551Y-70956449D01*
X66366377Y-71098284D01*
X66563553Y-71203676D01*
X66777501Y-71268577D01*
X66944248Y-71285000D01*
X66944257Y-71285000D01*
X66999999Y-71290490D01*
X67011379Y-71289369D01*
X67019463Y-71304494D01*
X67098815Y-71401185D01*
X67195506Y-71480537D01*
X67305820Y-71539502D01*
X67425518Y-71575812D01*
X67550000Y-71588072D01*
X69490001Y-71588072D01*
X69490001Y-71772372D01*
X69465000Y-71898061D01*
X69465000Y-72101939D01*
X69504774Y-72301898D01*
X69582795Y-72490256D01*
X69696063Y-72659774D01*
X69840226Y-72803937D01*
X70009744Y-72917205D01*
X70198102Y-72995226D01*
X70398061Y-73035000D01*
X70601939Y-73035000D01*
X70801898Y-72995226D01*
X70990256Y-72917205D01*
X71159774Y-72803937D01*
X71303937Y-72659774D01*
X71417205Y-72490256D01*
X71495226Y-72301898D01*
X71535000Y-72101939D01*
X71535000Y-71898061D01*
X71510000Y-71772377D01*
X71510000Y-71588072D01*
X73450000Y-71588072D01*
X73574482Y-71575812D01*
X73694180Y-71539502D01*
X73804494Y-71480537D01*
X73889999Y-71410365D01*
X73889999Y-71781530D01*
X73885718Y-71824999D01*
X73889999Y-71868468D01*
X73889999Y-71868475D01*
X73897587Y-71945518D01*
X73902804Y-71998489D01*
X73909850Y-72021715D01*
X73953410Y-72165311D01*
X74035588Y-72319057D01*
X74121332Y-72423536D01*
X73936860Y-72608009D01*
X73893552Y-72643551D01*
X73751717Y-72816377D01*
X73646324Y-73013553D01*
X73581423Y-73227501D01*
X73574166Y-73301185D01*
X73562171Y-73422975D01*
X73450000Y-73411928D01*
X67550000Y-73411928D01*
X67425518Y-73424188D01*
X67305820Y-73460498D01*
X67195506Y-73519463D01*
X67098815Y-73598815D01*
X67019463Y-73695506D01*
X66960498Y-73805820D01*
X66924188Y-73925518D01*
X66911928Y-74050000D01*
X66911928Y-75650000D01*
X66913404Y-75664989D01*
X57036348Y-75664989D01*
X57035000Y-75285750D01*
X56876250Y-75127000D01*
X55277000Y-75127000D01*
X55277000Y-75147000D01*
X55023000Y-75147000D01*
X55023000Y-75127000D01*
X53423750Y-75127000D01*
X53265000Y-75285750D01*
X53264629Y-75389998D01*
X52738072Y-75389998D01*
X52738072Y-73850000D01*
X53261928Y-73850000D01*
X53265000Y-74714250D01*
X53423750Y-74873000D01*
X55023000Y-74873000D01*
X55023000Y-73373750D01*
X55277000Y-73373750D01*
X55277000Y-74873000D01*
X56876250Y-74873000D01*
X57035000Y-74714250D01*
X57038072Y-73850000D01*
X57025812Y-73725518D01*
X56989502Y-73605820D01*
X56930537Y-73495506D01*
X56851185Y-73398815D01*
X56754494Y-73319463D01*
X56644180Y-73260498D01*
X56524482Y-73224188D01*
X56400000Y-73211928D01*
X55435750Y-73215000D01*
X55277000Y-73373750D01*
X55023000Y-73373750D01*
X54864250Y-73215000D01*
X53900000Y-73211928D01*
X53775518Y-73224188D01*
X53655820Y-73260498D01*
X53545506Y-73319463D01*
X53448815Y-73398815D01*
X53369463Y-73495506D01*
X53310498Y-73605820D01*
X53274188Y-73725518D01*
X53261928Y-73850000D01*
X52738072Y-73850000D01*
X52725812Y-73725518D01*
X52689502Y-73605820D01*
X52630537Y-73495506D01*
X52551185Y-73398815D01*
X52454494Y-73319463D01*
X52344180Y-73260498D01*
X52313838Y-73251294D01*
X52580132Y-72985000D01*
X52606260Y-72985000D01*
X52893158Y-72927932D01*
X53163411Y-72815990D01*
X53406632Y-72653475D01*
X53538487Y-72521620D01*
X53560498Y-72594180D01*
X53619463Y-72704494D01*
X53698815Y-72801185D01*
X53795506Y-72880537D01*
X53905820Y-72939502D01*
X54025518Y-72975812D01*
X54150000Y-72988072D01*
X54714250Y-72985000D01*
X54873000Y-72826250D01*
X54873000Y-71627000D01*
X55127000Y-71627000D01*
X55127000Y-72826250D01*
X55285750Y-72985000D01*
X55850000Y-72988072D01*
X55974482Y-72975812D01*
X56094180Y-72939502D01*
X56204494Y-72880537D01*
X56301185Y-72801185D01*
X56380537Y-72704494D01*
X56439502Y-72594180D01*
X56475812Y-72474482D01*
X56488072Y-72350000D01*
X56485000Y-71785750D01*
X56326250Y-71627000D01*
X55127000Y-71627000D01*
X54873000Y-71627000D01*
X54853000Y-71627000D01*
X54853000Y-71373000D01*
X54873000Y-71373000D01*
X54873000Y-70173750D01*
X55127000Y-70173750D01*
X55127000Y-71373000D01*
X56326250Y-71373000D01*
X56485000Y-71214250D01*
X56488072Y-70650000D01*
X56475812Y-70525518D01*
X56439502Y-70405820D01*
X56380537Y-70295506D01*
X56301185Y-70198815D01*
X56204494Y-70119463D01*
X56094180Y-70060498D01*
X55974482Y-70024188D01*
X55850000Y-70011928D01*
X55285750Y-70015000D01*
X55127000Y-70173750D01*
X54873000Y-70173750D01*
X54714250Y-70015000D01*
X54150000Y-70011928D01*
X54025518Y-70024188D01*
X53905820Y-70060498D01*
X53795506Y-70119463D01*
X53698815Y-70198815D01*
X53619463Y-70295506D01*
X53560498Y-70405820D01*
X53538487Y-70478380D01*
X53406632Y-70346525D01*
X53163411Y-70184010D01*
X52893158Y-70072068D01*
X52606260Y-70015000D01*
X52313740Y-70015000D01*
X52026842Y-70072068D01*
X51756589Y-70184010D01*
X51513368Y-70346525D01*
X51306525Y-70553368D01*
X51190000Y-70727760D01*
X51073475Y-70553368D01*
X50866632Y-70346525D01*
X50623411Y-70184010D01*
X50353158Y-70072068D01*
X50066260Y-70015000D01*
X49773740Y-70015000D01*
X49486842Y-70072068D01*
X49216589Y-70184010D01*
X48973368Y-70346525D01*
X48766525Y-70553368D01*
X48604010Y-70796589D01*
X48492068Y-71066842D01*
X48435000Y-71353740D01*
X48435000Y-71646260D01*
X48492068Y-71933158D01*
X48604010Y-72203411D01*
X48766525Y-72446632D01*
X48973368Y-72653475D01*
X49216589Y-72815990D01*
X49486842Y-72927932D01*
X49722818Y-72974871D01*
X49709509Y-73110000D01*
X49715001Y-73165761D01*
X49715001Y-73211928D01*
X49600000Y-73211928D01*
X49475518Y-73224188D01*
X49355820Y-73260498D01*
X49245506Y-73319463D01*
X49148815Y-73398815D01*
X49069463Y-73495506D01*
X49010498Y-73605820D01*
X48974188Y-73725518D01*
X48961928Y-73850000D01*
X48961928Y-75715001D01*
X47036526Y-75715001D01*
X47035000Y-75285750D01*
X46876250Y-75127000D01*
X45277000Y-75127000D01*
X45277000Y-75147000D01*
X45023000Y-75147000D01*
X45023000Y-75127000D01*
X43423750Y-75127000D01*
X43265000Y-75285750D01*
X43263474Y-75715001D01*
X42738072Y-75715001D01*
X42738072Y-73850000D01*
X43261928Y-73850000D01*
X43265000Y-74714250D01*
X43423750Y-74873000D01*
X45023000Y-74873000D01*
X45023000Y-73373750D01*
X45277000Y-73373750D01*
X45277000Y-74873000D01*
X46876250Y-74873000D01*
X47035000Y-74714250D01*
X47038072Y-73850000D01*
X47025812Y-73725518D01*
X46989502Y-73605820D01*
X46930537Y-73495506D01*
X46851185Y-73398815D01*
X46754494Y-73319463D01*
X46644180Y-73260498D01*
X46524482Y-73224188D01*
X46400000Y-73211928D01*
X45435750Y-73215000D01*
X45277000Y-73373750D01*
X45023000Y-73373750D01*
X44864250Y-73215000D01*
X43900000Y-73211928D01*
X43775518Y-73224188D01*
X43655820Y-73260498D01*
X43545506Y-73319463D01*
X43448815Y-73398815D01*
X43369463Y-73495506D01*
X43310498Y-73605820D01*
X43274188Y-73725518D01*
X43261928Y-73850000D01*
X42738072Y-73850000D01*
X42725812Y-73725518D01*
X42689502Y-73605820D01*
X42630537Y-73495506D01*
X42551185Y-73398815D01*
X42454494Y-73319463D01*
X42344180Y-73260498D01*
X42313838Y-73251294D01*
X42580132Y-72985000D01*
X42606260Y-72985000D01*
X42893158Y-72927932D01*
X43163411Y-72815990D01*
X43406632Y-72653475D01*
X43538487Y-72521620D01*
X43560498Y-72594180D01*
X43619463Y-72704494D01*
X43698815Y-72801185D01*
X43795506Y-72880537D01*
X43905820Y-72939502D01*
X44025518Y-72975812D01*
X44150000Y-72988072D01*
X44714250Y-72985000D01*
X44873000Y-72826250D01*
X44873000Y-71627000D01*
X45127000Y-71627000D01*
X45127000Y-72826250D01*
X45285750Y-72985000D01*
X45850000Y-72988072D01*
X45974482Y-72975812D01*
X46094180Y-72939502D01*
X46204494Y-72880537D01*
X46301185Y-72801185D01*
X46380537Y-72704494D01*
X46439502Y-72594180D01*
X46475812Y-72474482D01*
X46488072Y-72350000D01*
X46485000Y-71785750D01*
X46326250Y-71627000D01*
X45127000Y-71627000D01*
X44873000Y-71627000D01*
X44853000Y-71627000D01*
X44853000Y-71373000D01*
X44873000Y-71373000D01*
X44873000Y-70173750D01*
X45127000Y-70173750D01*
X45127000Y-71373000D01*
X46326250Y-71373000D01*
X46485000Y-71214250D01*
X46488072Y-70650000D01*
X46475812Y-70525518D01*
X46439502Y-70405820D01*
X46380537Y-70295506D01*
X46301185Y-70198815D01*
X46204494Y-70119463D01*
X46094180Y-70060498D01*
X45974482Y-70024188D01*
X45850000Y-70011928D01*
X45285750Y-70015000D01*
X45127000Y-70173750D01*
X44873000Y-70173750D01*
X44714250Y-70015000D01*
X44150000Y-70011928D01*
X44025518Y-70024188D01*
X43905820Y-70060498D01*
X43795506Y-70119463D01*
X43698815Y-70198815D01*
X43619463Y-70295506D01*
X43560498Y-70405820D01*
X43538487Y-70478380D01*
X43406632Y-70346525D01*
X43163411Y-70184010D01*
X42893158Y-70072068D01*
X42606260Y-70015000D01*
X42313740Y-70015000D01*
X42026842Y-70072068D01*
X41756589Y-70184010D01*
X41513368Y-70346525D01*
X41306525Y-70553368D01*
X41190000Y-70727760D01*
X41073475Y-70553368D01*
X40866632Y-70346525D01*
X40623411Y-70184010D01*
X40353158Y-70072068D01*
X40066260Y-70015000D01*
X39773740Y-70015000D01*
X39486842Y-70072068D01*
X39216589Y-70184010D01*
X38973368Y-70346525D01*
X38766525Y-70553368D01*
X38604010Y-70796589D01*
X38492068Y-71066842D01*
X38435000Y-71353740D01*
X38435000Y-71646260D01*
X38492068Y-71933158D01*
X38604010Y-72203411D01*
X38766525Y-72446632D01*
X38973368Y-72653475D01*
X39216589Y-72815990D01*
X39486842Y-72927932D01*
X39722818Y-72974871D01*
X39709509Y-73110000D01*
X39715001Y-73165761D01*
X39715001Y-73211928D01*
X39600000Y-73211928D01*
X39475518Y-73224188D01*
X39355820Y-73260498D01*
X39245506Y-73319463D01*
X39148815Y-73398815D01*
X39069463Y-73495506D01*
X39010498Y-73605820D01*
X38974188Y-73725518D01*
X38961928Y-73850000D01*
X38961928Y-76150000D01*
X38974188Y-76274482D01*
X39010498Y-76394180D01*
X39069463Y-76504494D01*
X39148815Y-76601185D01*
X39245506Y-76680537D01*
X39355820Y-76739502D01*
X39475518Y-76775812D01*
X39600000Y-76788072D01*
X41563269Y-76788072D01*
X41615197Y-76840000D01*
X38532279Y-76840000D01*
X38434576Y-76830420D01*
X38371643Y-76811420D01*
X38313594Y-76780554D01*
X38262657Y-76739011D01*
X38220752Y-76688356D01*
X38189485Y-76630529D01*
X38170044Y-76567728D01*
X38160000Y-76472165D01*
X38160000Y-63992371D01*
X38181329Y-64032275D01*
X38287885Y-64162115D01*
X38417725Y-64268671D01*
X38565858Y-64347850D01*
X38726592Y-64396608D01*
X38893750Y-64413072D01*
X39331250Y-64413072D01*
X39498408Y-64396608D01*
X39659142Y-64347850D01*
X39807275Y-64268671D01*
X39828930Y-64250900D01*
X39895506Y-64305537D01*
X40005820Y-64364502D01*
X40125518Y-64400812D01*
X40250000Y-64413072D01*
X40401750Y-64410000D01*
X40560500Y-64251250D01*
X40560500Y-63427000D01*
X40814500Y-63427000D01*
X40814500Y-64251250D01*
X40973250Y-64410000D01*
X41125000Y-64413072D01*
X41249482Y-64400812D01*
X41369180Y-64364502D01*
X41479494Y-64305537D01*
X41576185Y-64226185D01*
X41655537Y-64129494D01*
X41714502Y-64019180D01*
X41750812Y-63899482D01*
X41763072Y-63775000D01*
X41760000Y-63585750D01*
X41601250Y-63427000D01*
X40814500Y-63427000D01*
X40560500Y-63427000D01*
X40540500Y-63427000D01*
X40540500Y-63173000D01*
X40560500Y-63173000D01*
X40560500Y-62348750D01*
X40814500Y-62348750D01*
X40814500Y-63173000D01*
X41601250Y-63173000D01*
X41760000Y-63014250D01*
X41763072Y-62825000D01*
X41750812Y-62700518D01*
X41714502Y-62580820D01*
X41655537Y-62470506D01*
X41576185Y-62373815D01*
X41479494Y-62294463D01*
X41369180Y-62235498D01*
X41249482Y-62199188D01*
X41125000Y-62186928D01*
X40973250Y-62190000D01*
X40814500Y-62348750D01*
X40560500Y-62348750D01*
X40401750Y-62190000D01*
X40250000Y-62186928D01*
X40125518Y-62199188D01*
X40005820Y-62235498D01*
X39895506Y-62294463D01*
X39860000Y-62323602D01*
X39860000Y-62303711D01*
X39903937Y-62259774D01*
X40017205Y-62090256D01*
X40095226Y-61901898D01*
X40135000Y-61701939D01*
X40135000Y-61498061D01*
X40095226Y-61298102D01*
X40027838Y-61135413D01*
X51544192Y-61135413D01*
X51639956Y-61399814D01*
X51929571Y-61540704D01*
X52241108Y-61622384D01*
X52562595Y-61641718D01*
X52881675Y-61597961D01*
X53186088Y-61492795D01*
X53360044Y-61399814D01*
X53455808Y-61135413D01*
X52500000Y-60179605D01*
X51544192Y-61135413D01*
X40027838Y-61135413D01*
X40017205Y-61109744D01*
X39903937Y-60940226D01*
X39759774Y-60796063D01*
X39590256Y-60682795D01*
X39401898Y-60604774D01*
X39201939Y-60565000D01*
X38998061Y-60565000D01*
X38798102Y-60604774D01*
X38609744Y-60682795D01*
X38440226Y-60796063D01*
X38296063Y-60940226D01*
X38182795Y-61109744D01*
X38160000Y-61164776D01*
X38160000Y-55907911D01*
X38815000Y-55907911D01*
X38815000Y-56092089D01*
X38850932Y-56272729D01*
X38921414Y-56442889D01*
X39023738Y-56596028D01*
X39153972Y-56726262D01*
X39307111Y-56828586D01*
X39477271Y-56899068D01*
X39657911Y-56935000D01*
X39842089Y-56935000D01*
X40022729Y-56899068D01*
X40192889Y-56828586D01*
X40346028Y-56726262D01*
X40346075Y-56726215D01*
X40389319Y-56943615D01*
X40633180Y-57532347D01*
X40755540Y-57715472D01*
X40577271Y-57750932D01*
X40407111Y-57821414D01*
X40253972Y-57923738D01*
X40123738Y-58053972D01*
X40021414Y-58207111D01*
X39950932Y-58377271D01*
X39915000Y-58557911D01*
X39915000Y-58742089D01*
X39950932Y-58922729D01*
X40021414Y-59092889D01*
X40123738Y-59246028D01*
X40253972Y-59376262D01*
X40407111Y-59478586D01*
X40577271Y-59549068D01*
X40757911Y-59585000D01*
X40942089Y-59585000D01*
X41122729Y-59549068D01*
X41292889Y-59478586D01*
X41446028Y-59376262D01*
X41576262Y-59246028D01*
X41678586Y-59092889D01*
X41749068Y-58922729D01*
X41784528Y-58744460D01*
X41967653Y-58866820D01*
X42556385Y-59110681D01*
X42773785Y-59153925D01*
X42773738Y-59153972D01*
X42671414Y-59307111D01*
X42600932Y-59477271D01*
X42565000Y-59657911D01*
X42565000Y-59842089D01*
X42600932Y-60022729D01*
X42671414Y-60192889D01*
X42773738Y-60346028D01*
X42903972Y-60476262D01*
X43057111Y-60578586D01*
X43227271Y-60649068D01*
X43407911Y-60685000D01*
X43592089Y-60685000D01*
X43772729Y-60649068D01*
X43942889Y-60578586D01*
X44096028Y-60476262D01*
X44226262Y-60346028D01*
X44328586Y-60192889D01*
X44382555Y-60062595D01*
X50858282Y-60062595D01*
X50902039Y-60381675D01*
X51007205Y-60686088D01*
X51100186Y-60860044D01*
X51364587Y-60955808D01*
X52320395Y-60000000D01*
X52679605Y-60000000D01*
X53635413Y-60955808D01*
X53899814Y-60860044D01*
X54040704Y-60570429D01*
X54122384Y-60258892D01*
X54141718Y-59937405D01*
X54097961Y-59618325D01*
X53992795Y-59313912D01*
X53983181Y-59295925D01*
X58945204Y-59295925D01*
X58978520Y-59431749D01*
X59110888Y-59732206D01*
X59299329Y-60001066D01*
X59536601Y-60227997D01*
X59813586Y-60404278D01*
X60119639Y-60523135D01*
X60443000Y-60580000D01*
X61982667Y-60580000D01*
X61898815Y-60648815D01*
X61819463Y-60745506D01*
X61760498Y-60855820D01*
X61724188Y-60975518D01*
X61711928Y-61100000D01*
X61715000Y-62064250D01*
X61873750Y-62223000D01*
X63373000Y-62223000D01*
X63373000Y-62203000D01*
X63627000Y-62203000D01*
X63627000Y-62223000D01*
X65126250Y-62223000D01*
X65285000Y-62064250D01*
X65286638Y-61550000D01*
X65961928Y-61550000D01*
X65965000Y-62414250D01*
X66123750Y-62573000D01*
X67723000Y-62573000D01*
X67723000Y-61073750D01*
X67977000Y-61073750D01*
X67977000Y-62573000D01*
X69576250Y-62573000D01*
X69735000Y-62414250D01*
X69738072Y-61550000D01*
X69725812Y-61425518D01*
X69689502Y-61305820D01*
X69630537Y-61195506D01*
X69551185Y-61098815D01*
X69454494Y-61019463D01*
X69344180Y-60960498D01*
X69224482Y-60924188D01*
X69100000Y-60911928D01*
X68135750Y-60915000D01*
X67977000Y-61073750D01*
X67723000Y-61073750D01*
X67564250Y-60915000D01*
X66600000Y-60911928D01*
X66475518Y-60924188D01*
X66355820Y-60960498D01*
X66245506Y-61019463D01*
X66148815Y-61098815D01*
X66069463Y-61195506D01*
X66010498Y-61305820D01*
X65974188Y-61425518D01*
X65961928Y-61550000D01*
X65286638Y-61550000D01*
X65288072Y-61100000D01*
X65275812Y-60975518D01*
X65239502Y-60855820D01*
X65180537Y-60745506D01*
X65101185Y-60648815D01*
X65004494Y-60569463D01*
X64933304Y-60531410D01*
X64980361Y-60523135D01*
X65286414Y-60404278D01*
X65563399Y-60227997D01*
X65800671Y-60001066D01*
X65989112Y-59732206D01*
X66121480Y-59431749D01*
X66154796Y-59295925D01*
X66035904Y-59037000D01*
X62677000Y-59037000D01*
X62677000Y-59057000D01*
X62423000Y-59057000D01*
X62423000Y-59037000D01*
X59064096Y-59037000D01*
X58945204Y-59295925D01*
X53983181Y-59295925D01*
X53899814Y-59139956D01*
X53635413Y-59044192D01*
X52679605Y-60000000D01*
X52320395Y-60000000D01*
X51364587Y-59044192D01*
X51100186Y-59139956D01*
X50959296Y-59429571D01*
X50877616Y-59741108D01*
X50858282Y-60062595D01*
X44382555Y-60062595D01*
X44399068Y-60022729D01*
X44435000Y-59842089D01*
X44435000Y-59657911D01*
X44399068Y-59477271D01*
X44328586Y-59307111D01*
X44226262Y-59153972D01*
X44226215Y-59153925D01*
X44443615Y-59110681D01*
X45032347Y-58866820D01*
X45215472Y-58744460D01*
X45250932Y-58922729D01*
X45321414Y-59092889D01*
X45423738Y-59246028D01*
X45553972Y-59376262D01*
X45707111Y-59478586D01*
X45877271Y-59549068D01*
X46057911Y-59585000D01*
X46242089Y-59585000D01*
X46422729Y-59549068D01*
X46592889Y-59478586D01*
X46746028Y-59376262D01*
X46876262Y-59246028D01*
X46978586Y-59092889D01*
X47049068Y-58922729D01*
X47060633Y-58864587D01*
X51544192Y-58864587D01*
X52500000Y-59820395D01*
X53455808Y-58864587D01*
X53360044Y-58600186D01*
X53203590Y-58524075D01*
X58945204Y-58524075D01*
X59064096Y-58783000D01*
X62423000Y-58783000D01*
X62423000Y-57240000D01*
X62677000Y-57240000D01*
X62677000Y-58783000D01*
X66035904Y-58783000D01*
X66154796Y-58524075D01*
X66121480Y-58388251D01*
X65989112Y-58087794D01*
X65800671Y-57818934D01*
X65563399Y-57592003D01*
X65286414Y-57415722D01*
X64980361Y-57296865D01*
X64657000Y-57240000D01*
X62677000Y-57240000D01*
X62423000Y-57240000D01*
X60443000Y-57240000D01*
X60119639Y-57296865D01*
X59813586Y-57415722D01*
X59536601Y-57592003D01*
X59299329Y-57818934D01*
X59110888Y-58087794D01*
X58978520Y-58388251D01*
X58945204Y-58524075D01*
X53203590Y-58524075D01*
X53070429Y-58459296D01*
X52758892Y-58377616D01*
X52437405Y-58358282D01*
X52118325Y-58402039D01*
X51813912Y-58507205D01*
X51639956Y-58600186D01*
X51544192Y-58864587D01*
X47060633Y-58864587D01*
X47085000Y-58742089D01*
X47085000Y-58557911D01*
X47049068Y-58377271D01*
X46978586Y-58207111D01*
X46876262Y-58053972D01*
X46746028Y-57923738D01*
X46592889Y-57821414D01*
X46422729Y-57750932D01*
X46244460Y-57715472D01*
X46366820Y-57532347D01*
X46610681Y-56943615D01*
X46653925Y-56726215D01*
X46653972Y-56726262D01*
X46807111Y-56828586D01*
X46977271Y-56899068D01*
X47157911Y-56935000D01*
X47342089Y-56935000D01*
X47522729Y-56899068D01*
X47692889Y-56828586D01*
X47846028Y-56726262D01*
X47976262Y-56596028D01*
X48078586Y-56442889D01*
X48149068Y-56272729D01*
X48185000Y-56092089D01*
X48185000Y-55907911D01*
X48149068Y-55727271D01*
X48078586Y-55557111D01*
X47976262Y-55403972D01*
X47846028Y-55273738D01*
X47692889Y-55171414D01*
X47522729Y-55100932D01*
X47342089Y-55065000D01*
X47157911Y-55065000D01*
X46977271Y-55100932D01*
X46807111Y-55171414D01*
X46653972Y-55273738D01*
X46653925Y-55273785D01*
X46610681Y-55056385D01*
X46366820Y-54467653D01*
X46244460Y-54284528D01*
X46422729Y-54249068D01*
X46592889Y-54178586D01*
X46746028Y-54076262D01*
X46876262Y-53946028D01*
X46978586Y-53792889D01*
X47049068Y-53622729D01*
X47053589Y-53600000D01*
X93211928Y-53600000D01*
X93224188Y-53724482D01*
X93260498Y-53844180D01*
X93319463Y-53954494D01*
X93398815Y-54051185D01*
X93495506Y-54130537D01*
X93605820Y-54189502D01*
X93725518Y-54225812D01*
X93850000Y-54238072D01*
X94714250Y-54235000D01*
X94873000Y-54076250D01*
X94873000Y-52477000D01*
X95127000Y-52477000D01*
X95127000Y-54076250D01*
X95285750Y-54235000D01*
X96150000Y-54238072D01*
X96274482Y-54225812D01*
X96394180Y-54189502D01*
X96504494Y-54130537D01*
X96601185Y-54051185D01*
X96680537Y-53954494D01*
X96739502Y-53844180D01*
X96775812Y-53724482D01*
X96788072Y-53600000D01*
X98211928Y-53600000D01*
X98224188Y-53724482D01*
X98260498Y-53844180D01*
X98319463Y-53954494D01*
X98398815Y-54051185D01*
X98495506Y-54130537D01*
X98605820Y-54189502D01*
X98725518Y-54225812D01*
X98850000Y-54238072D01*
X99714250Y-54235000D01*
X99873000Y-54076250D01*
X99873000Y-52477000D01*
X100127000Y-52477000D01*
X100127000Y-54076250D01*
X100285750Y-54235000D01*
X101150000Y-54238072D01*
X101274482Y-54225812D01*
X101394180Y-54189502D01*
X101504494Y-54130537D01*
X101601185Y-54051185D01*
X101680537Y-53954494D01*
X101739502Y-53844180D01*
X101775812Y-53724482D01*
X101788072Y-53600000D01*
X103211928Y-53600000D01*
X103224188Y-53724482D01*
X103260498Y-53844180D01*
X103319463Y-53954494D01*
X103398815Y-54051185D01*
X103495506Y-54130537D01*
X103605820Y-54189502D01*
X103725518Y-54225812D01*
X103850000Y-54238072D01*
X104714250Y-54235000D01*
X104873000Y-54076250D01*
X104873000Y-52477000D01*
X105127000Y-52477000D01*
X105127000Y-54076250D01*
X105285750Y-54235000D01*
X106150000Y-54238072D01*
X106274482Y-54225812D01*
X106394180Y-54189502D01*
X106504494Y-54130537D01*
X106601185Y-54051185D01*
X106680537Y-53954494D01*
X106739502Y-53844180D01*
X106775812Y-53724482D01*
X106788072Y-53600000D01*
X108211928Y-53600000D01*
X108224188Y-53724482D01*
X108260498Y-53844180D01*
X108319463Y-53954494D01*
X108398815Y-54051185D01*
X108495506Y-54130537D01*
X108605820Y-54189502D01*
X108725518Y-54225812D01*
X108850000Y-54238072D01*
X109714250Y-54235000D01*
X109873000Y-54076250D01*
X109873000Y-52477000D01*
X110127000Y-52477000D01*
X110127000Y-54076250D01*
X110285750Y-54235000D01*
X111150000Y-54238072D01*
X111274482Y-54225812D01*
X111394180Y-54189502D01*
X111504494Y-54130537D01*
X111601185Y-54051185D01*
X111680537Y-53954494D01*
X111739502Y-53844180D01*
X111775812Y-53724482D01*
X111788072Y-53600000D01*
X111785000Y-52635750D01*
X111626250Y-52477000D01*
X110127000Y-52477000D01*
X109873000Y-52477000D01*
X108373750Y-52477000D01*
X108215000Y-52635750D01*
X108211928Y-53600000D01*
X106788072Y-53600000D01*
X106785000Y-52635750D01*
X106626250Y-52477000D01*
X105127000Y-52477000D01*
X104873000Y-52477000D01*
X103373750Y-52477000D01*
X103215000Y-52635750D01*
X103211928Y-53600000D01*
X101788072Y-53600000D01*
X101785000Y-52635750D01*
X101626250Y-52477000D01*
X100127000Y-52477000D01*
X99873000Y-52477000D01*
X98373750Y-52477000D01*
X98215000Y-52635750D01*
X98211928Y-53600000D01*
X96788072Y-53600000D01*
X96785000Y-52635750D01*
X96626250Y-52477000D01*
X95127000Y-52477000D01*
X94873000Y-52477000D01*
X93373750Y-52477000D01*
X93215000Y-52635750D01*
X93211928Y-53600000D01*
X47053589Y-53600000D01*
X47085000Y-53442089D01*
X47085000Y-53257911D01*
X47049068Y-53077271D01*
X46978586Y-52907111D01*
X46876262Y-52753972D01*
X46746028Y-52623738D01*
X46592889Y-52521414D01*
X46422729Y-52450932D01*
X46242089Y-52415000D01*
X46057911Y-52415000D01*
X45877271Y-52450932D01*
X45707111Y-52521414D01*
X45553972Y-52623738D01*
X45423738Y-52753972D01*
X45321414Y-52907111D01*
X45250932Y-53077271D01*
X45215472Y-53255540D01*
X45032347Y-53133180D01*
X44443615Y-52889319D01*
X44226215Y-52846075D01*
X44226262Y-52846028D01*
X44328586Y-52692889D01*
X44399068Y-52522729D01*
X44435000Y-52342089D01*
X44435000Y-52157911D01*
X44399068Y-51977271D01*
X44328586Y-51807111D01*
X44226262Y-51653972D01*
X44096028Y-51523738D01*
X43942889Y-51421414D01*
X43772729Y-51350932D01*
X43592089Y-51315000D01*
X43407911Y-51315000D01*
X43227271Y-51350932D01*
X43057111Y-51421414D01*
X42903972Y-51523738D01*
X42773738Y-51653972D01*
X42671414Y-51807111D01*
X42600932Y-51977271D01*
X42565000Y-52157911D01*
X42565000Y-52342089D01*
X42600932Y-52522729D01*
X42671414Y-52692889D01*
X42773738Y-52846028D01*
X42773785Y-52846075D01*
X42556385Y-52889319D01*
X41967653Y-53133180D01*
X41784528Y-53255540D01*
X41749068Y-53077271D01*
X41678586Y-52907111D01*
X41576262Y-52753972D01*
X41446028Y-52623738D01*
X41292889Y-52521414D01*
X41122729Y-52450932D01*
X40942089Y-52415000D01*
X40757911Y-52415000D01*
X40577271Y-52450932D01*
X40407111Y-52521414D01*
X40253972Y-52623738D01*
X40123738Y-52753972D01*
X40021414Y-52907111D01*
X39950932Y-53077271D01*
X39915000Y-53257911D01*
X39915000Y-53442089D01*
X39950932Y-53622729D01*
X40021414Y-53792889D01*
X40123738Y-53946028D01*
X40253972Y-54076262D01*
X40407111Y-54178586D01*
X40577271Y-54249068D01*
X40755540Y-54284528D01*
X40633180Y-54467653D01*
X40389319Y-55056385D01*
X40346075Y-55273785D01*
X40346028Y-55273738D01*
X40192889Y-55171414D01*
X40022729Y-55100932D01*
X39842089Y-55065000D01*
X39657911Y-55065000D01*
X39477271Y-55100932D01*
X39307111Y-55171414D01*
X39153972Y-55273738D01*
X39023738Y-55403972D01*
X38921414Y-55557111D01*
X38850932Y-55727271D01*
X38815000Y-55907911D01*
X38160000Y-55907911D01*
X38160000Y-51032279D01*
X38169580Y-50934576D01*
X38188580Y-50871644D01*
X38219445Y-50813595D01*
X38260989Y-50762657D01*
X38311644Y-50720752D01*
X38369471Y-50689485D01*
X38432272Y-50670044D01*
X38527835Y-50660000D01*
X93389636Y-50660000D01*
X93319463Y-50745506D01*
G37*
G04 #@! TD.AperFunction*
M02*
