M48
; DRILL file {KiCad 5.1.5-52549c5~84~ubuntu18.04.1} date Tue 03 Mar 2020 07:35:02 PM MST
; FORMAT={-:-/ absolute / inch / decimal}
; #@! TF.CreationDate,2020-03-03T19:35:02-07:00
; #@! TF.GenerationSoftware,Kicad,Pcbnew,5.1.5-52549c5~84~ubuntu18.04.1
; #@! TF.FileFunction,Plated,1,2,PTH
FMAT,2
INCH
T1C0.0157
T2C0.0299
T3C0.0394
T4C0.0500
T5C0.1969
%
G90
G05
T1
X6.8504Y-2.5787
X7.0866Y-1.6852
X7.1457Y-2.1654
X7.1949Y-1.6852
X7.1949Y-1.9882
X7.3228Y-2.1654
X7.3524Y-1.9587
X7.3524Y-2.313
X7.3622Y-1.8012
X7.4902Y-1.5157
X7.5335Y-1.4114
X7.5335Y-1.6201
X7.6378Y-1.3681
X7.6378Y-1.6634
X7.7421Y-1.4114
X7.7421Y-1.6201
X7.7854Y-1.5157
X7.4902Y-2.4213
X7.5335Y-2.3169
X7.5335Y-2.5256
X7.6378Y-2.2736
X7.6378Y-2.5689
X7.7421Y-2.3169
X7.7421Y-2.5256
X7.7854Y-2.4213
T2
X6.5945Y-1.4567
X6.5945Y-1.5567
X6.5945Y-1.6567
X6.5945Y-1.7567
X6.6945Y-1.5067
X6.6945Y-1.6067
X6.6945Y-1.7067
X6.6945Y-1.8067
T3
X7.9429Y-2.0079
X7.9429Y-2.1079
X7.9429Y-2.2079
X7.9429Y-1.6634
X7.9429Y-1.7634
X7.9429Y-1.8634
X7.9429Y-2.3524
X7.9429Y-2.4524
X7.9429Y-2.5524
X7.9429Y-1.4173
X7.9429Y-1.5173
T5
X7.6378Y-1.5157
X7.6378Y-2.4213
T4
G00X6.752Y-2.2453
M15
G01X6.752Y-2.0894
M16
G05
G00X6.752Y-2.5563
M15
G01X6.752Y-2.4004
M16
G05
T0
M30
