G04 #@! TF.GenerationSoftware,KiCad,Pcbnew,5.1.9-73d0e3b20d~88~ubuntu20.04.1*
G04 #@! TF.CreationDate,2021-04-26T21:02:44-06:00*
G04 #@! TF.ProjectId,pole-node,706f6c65-2d6e-46f6-9465-2e6b69636164,rev?*
G04 #@! TF.SameCoordinates,Original*
G04 #@! TF.FileFunction,Legend,Top*
G04 #@! TF.FilePolarity,Positive*
%FSLAX46Y46*%
G04 Gerber Fmt 4.6, Leading zero omitted, Abs format (unit mm)*
G04 Created by KiCad (PCBNEW 5.1.9-73d0e3b20d~88~ubuntu20.04.1) date 2021-04-26 21:02:44*
%MOMM*%
%LPD*%
G01*
G04 APERTURE LIST*
%ADD10C,0.200000*%
%ADD11C,0.250000*%
%ADD12C,0.150000*%
%ADD13C,0.120000*%
G04 APERTURE END LIST*
D10*
X51100000Y-60678571D02*
X51100000Y-59178571D01*
X51671428Y-59178571D01*
X51814285Y-59250000D01*
X51885714Y-59321428D01*
X51957142Y-59464285D01*
X51957142Y-59678571D01*
X51885714Y-59821428D01*
X51814285Y-59892857D01*
X51671428Y-59964285D01*
X51100000Y-59964285D01*
X52457142Y-59178571D02*
X52814285Y-60678571D01*
X53100000Y-59607142D01*
X53385714Y-60678571D01*
X53742857Y-59178571D01*
X55171428Y-60678571D02*
X54671428Y-59964285D01*
X54314285Y-60678571D02*
X54314285Y-59178571D01*
X54885714Y-59178571D01*
X55028571Y-59250000D01*
X55100000Y-59321428D01*
X55171428Y-59464285D01*
X55171428Y-59678571D01*
X55100000Y-59821428D01*
X55028571Y-59892857D01*
X54885714Y-59964285D01*
X54314285Y-59964285D01*
D11*
X88442857Y-39971428D02*
X88919047Y-41304761D01*
X89395238Y-39971428D01*
X91204761Y-41304761D02*
X90061904Y-41304761D01*
X90633333Y-41304761D02*
X90633333Y-39304761D01*
X90442857Y-39590476D01*
X90252380Y-39780952D01*
X90061904Y-39876190D01*
X92061904Y-41114285D02*
X92157142Y-41209523D01*
X92061904Y-41304761D01*
X91966666Y-41209523D01*
X92061904Y-41114285D01*
X92061904Y-41304761D01*
X94061904Y-41304761D02*
X92919047Y-41304761D01*
X93490476Y-41304761D02*
X93490476Y-39304761D01*
X93300000Y-39590476D01*
X93109523Y-39780952D01*
X92919047Y-39876190D01*
D12*
X60709523Y-68752380D02*
X60233333Y-68752380D01*
X60185714Y-69228571D01*
X60233333Y-69180952D01*
X60328571Y-69133333D01*
X60566666Y-69133333D01*
X60661904Y-69180952D01*
X60709523Y-69228571D01*
X60757142Y-69323809D01*
X60757142Y-69561904D01*
X60709523Y-69657142D01*
X60661904Y-69704761D01*
X60566666Y-69752380D01*
X60328571Y-69752380D01*
X60233333Y-69704761D01*
X60185714Y-69657142D01*
X61042857Y-68752380D02*
X61376190Y-69752380D01*
X61709523Y-68752380D01*
X50109523Y-68852380D02*
X49633333Y-68852380D01*
X49585714Y-69328571D01*
X49633333Y-69280952D01*
X49728571Y-69233333D01*
X49966666Y-69233333D01*
X50061904Y-69280952D01*
X50109523Y-69328571D01*
X50157142Y-69423809D01*
X50157142Y-69661904D01*
X50109523Y-69757142D01*
X50061904Y-69804761D01*
X49966666Y-69852380D01*
X49728571Y-69852380D01*
X49633333Y-69804761D01*
X49585714Y-69757142D01*
X50442857Y-68852380D02*
X50776190Y-69852380D01*
X51109523Y-68852380D01*
X39109523Y-68752380D02*
X38633333Y-68752380D01*
X38585714Y-69228571D01*
X38633333Y-69180952D01*
X38728571Y-69133333D01*
X38966666Y-69133333D01*
X39061904Y-69180952D01*
X39109523Y-69228571D01*
X39157142Y-69323809D01*
X39157142Y-69561904D01*
X39109523Y-69657142D01*
X39061904Y-69704761D01*
X38966666Y-69752380D01*
X38728571Y-69752380D01*
X38633333Y-69704761D01*
X38585714Y-69657142D01*
X39442857Y-68752380D02*
X39776190Y-69752380D01*
X40109523Y-68752380D01*
X69052380Y-38319047D02*
X69052380Y-38795238D01*
X68052380Y-38795238D01*
X68528571Y-37985714D02*
X68528571Y-37652380D01*
X69052380Y-37509523D02*
X69052380Y-37985714D01*
X68052380Y-37985714D01*
X68052380Y-37509523D01*
X69052380Y-37080952D02*
X68052380Y-37080952D01*
X68052380Y-36842857D01*
X68100000Y-36700000D01*
X68195238Y-36604761D01*
X68290476Y-36557142D01*
X68480952Y-36509523D01*
X68623809Y-36509523D01*
X68814285Y-36557142D01*
X68909523Y-36604761D01*
X69004761Y-36700000D01*
X69052380Y-36842857D01*
X69052380Y-37080952D01*
X69052380Y-35557142D02*
X69052380Y-36128571D01*
X69052380Y-35842857D02*
X68052380Y-35842857D01*
X68195238Y-35938095D01*
X68290476Y-36033333D01*
X68338095Y-36128571D01*
X68666666Y-76914285D02*
X68666666Y-76438095D01*
X68952380Y-77009523D02*
X67952380Y-76676190D01*
X68952380Y-76342857D01*
X67952380Y-76009523D02*
X68761904Y-76009523D01*
X68857142Y-75961904D01*
X68904761Y-75914285D01*
X68952380Y-75819047D01*
X68952380Y-75628571D01*
X68904761Y-75533333D01*
X68857142Y-75485714D01*
X68761904Y-75438095D01*
X67952380Y-75438095D01*
X67952380Y-75057142D02*
X68952380Y-74390476D01*
X67952380Y-74390476D02*
X68952380Y-75057142D01*
X68047619Y-74057142D02*
X68000000Y-74009523D01*
X67952380Y-73914285D01*
X67952380Y-73676190D01*
X68000000Y-73580952D01*
X68047619Y-73533333D01*
X68142857Y-73485714D01*
X68238095Y-73485714D01*
X68380952Y-73533333D01*
X68952380Y-74104761D01*
X68952380Y-73485714D01*
X57966666Y-76214285D02*
X57966666Y-75738095D01*
X58252380Y-76309523D02*
X57252380Y-75976190D01*
X58252380Y-75642857D01*
X57252380Y-75309523D02*
X58061904Y-75309523D01*
X58157142Y-75261904D01*
X58204761Y-75214285D01*
X58252380Y-75119047D01*
X58252380Y-74928571D01*
X58204761Y-74833333D01*
X58157142Y-74785714D01*
X58061904Y-74738095D01*
X57252380Y-74738095D01*
X57252380Y-74357142D02*
X58252380Y-73690476D01*
X57252380Y-73690476D02*
X58252380Y-74357142D01*
X58252380Y-72785714D02*
X58252380Y-73357142D01*
X58252380Y-73071428D02*
X57252380Y-73071428D01*
X57395238Y-73166666D01*
X57490476Y-73261904D01*
X57538095Y-73357142D01*
X47752380Y-75819047D02*
X47752380Y-76295238D01*
X46752380Y-76295238D01*
X47228571Y-75485714D02*
X47228571Y-75152380D01*
X47752380Y-75009523D02*
X47752380Y-75485714D01*
X46752380Y-75485714D01*
X46752380Y-75009523D01*
X47752380Y-74580952D02*
X46752380Y-74580952D01*
X46752380Y-74342857D01*
X46800000Y-74200000D01*
X46895238Y-74104761D01*
X46990476Y-74057142D01*
X47180952Y-74009523D01*
X47323809Y-74009523D01*
X47514285Y-74057142D01*
X47609523Y-74104761D01*
X47704761Y-74200000D01*
X47752380Y-74342857D01*
X47752380Y-74580952D01*
X46847619Y-73628571D02*
X46800000Y-73580952D01*
X46752380Y-73485714D01*
X46752380Y-73247619D01*
X46800000Y-73152380D01*
X46847619Y-73104761D01*
X46942857Y-73057142D01*
X47038095Y-73057142D01*
X47180952Y-73104761D01*
X47752380Y-73676190D01*
X47752380Y-73057142D01*
X68661904Y-71700000D02*
X68566666Y-71652380D01*
X68423809Y-71652380D01*
X68280952Y-71700000D01*
X68185714Y-71795238D01*
X68138095Y-71890476D01*
X68090476Y-72080952D01*
X68090476Y-72223809D01*
X68138095Y-72414285D01*
X68185714Y-72509523D01*
X68280952Y-72604761D01*
X68423809Y-72652380D01*
X68519047Y-72652380D01*
X68661904Y-72604761D01*
X68709523Y-72557142D01*
X68709523Y-72223809D01*
X68519047Y-72223809D01*
X56661904Y-68700000D02*
X56566666Y-68652380D01*
X56423809Y-68652380D01*
X56280952Y-68700000D01*
X56185714Y-68795238D01*
X56138095Y-68890476D01*
X56090476Y-69080952D01*
X56090476Y-69223809D01*
X56138095Y-69414285D01*
X56185714Y-69509523D01*
X56280952Y-69604761D01*
X56423809Y-69652380D01*
X56519047Y-69652380D01*
X56661904Y-69604761D01*
X56709523Y-69557142D01*
X56709523Y-69223809D01*
X56519047Y-69223809D01*
X45861904Y-68800000D02*
X45766666Y-68752380D01*
X45623809Y-68752380D01*
X45480952Y-68800000D01*
X45385714Y-68895238D01*
X45338095Y-68990476D01*
X45290476Y-69180952D01*
X45290476Y-69323809D01*
X45338095Y-69514285D01*
X45385714Y-69609523D01*
X45480952Y-69704761D01*
X45623809Y-69752380D01*
X45719047Y-69752380D01*
X45861904Y-69704761D01*
X45909523Y-69657142D01*
X45909523Y-69323809D01*
X45719047Y-69323809D01*
X58261904Y-40700000D02*
X58166666Y-40652380D01*
X58023809Y-40652380D01*
X57880952Y-40700000D01*
X57785714Y-40795238D01*
X57738095Y-40890476D01*
X57690476Y-41080952D01*
X57690476Y-41223809D01*
X57738095Y-41414285D01*
X57785714Y-41509523D01*
X57880952Y-41604761D01*
X58023809Y-41652380D01*
X58119047Y-41652380D01*
X58261904Y-41604761D01*
X58309523Y-41557142D01*
X58309523Y-41223809D01*
X58119047Y-41223809D01*
D13*
X48120000Y-63500000D02*
G75*
G03*
X48120000Y-63500000I-5120000J0D01*
G01*
X43000000Y-58420000D02*
X43000000Y-68580000D01*
X43040000Y-58420000D02*
X43040000Y-68580000D01*
X43080000Y-58420000D02*
X43080000Y-68580000D01*
X43120000Y-58421000D02*
X43120000Y-68579000D01*
X43160000Y-58422000D02*
X43160000Y-68578000D01*
X43200000Y-58423000D02*
X43200000Y-68577000D01*
X43240000Y-58425000D02*
X43240000Y-68575000D01*
X43280000Y-58427000D02*
X43280000Y-68573000D01*
X43320000Y-58430000D02*
X43320000Y-68570000D01*
X43360000Y-58432000D02*
X43360000Y-68568000D01*
X43400000Y-58435000D02*
X43400000Y-68565000D01*
X43440000Y-58438000D02*
X43440000Y-68562000D01*
X43480000Y-58442000D02*
X43480000Y-68558000D01*
X43520000Y-58446000D02*
X43520000Y-68554000D01*
X43560000Y-58450000D02*
X43560000Y-68550000D01*
X43600000Y-58455000D02*
X43600000Y-68545000D01*
X43640000Y-58460000D02*
X43640000Y-68540000D01*
X43680000Y-58465000D02*
X43680000Y-68535000D01*
X43721000Y-58470000D02*
X43721000Y-68530000D01*
X43761000Y-58476000D02*
X43761000Y-68524000D01*
X43801000Y-58482000D02*
X43801000Y-68518000D01*
X43841000Y-58489000D02*
X43841000Y-68511000D01*
X43881000Y-58496000D02*
X43881000Y-68504000D01*
X43921000Y-58503000D02*
X43921000Y-68497000D01*
X43961000Y-58510000D02*
X43961000Y-68490000D01*
X44001000Y-58518000D02*
X44001000Y-68482000D01*
X44041000Y-58526000D02*
X44041000Y-68474000D01*
X44081000Y-58535000D02*
X44081000Y-68465000D01*
X44121000Y-58544000D02*
X44121000Y-68456000D01*
X44161000Y-58553000D02*
X44161000Y-68447000D01*
X44201000Y-58562000D02*
X44201000Y-68438000D01*
X44241000Y-58572000D02*
X44241000Y-68428000D01*
X44281000Y-58582000D02*
X44281000Y-62259000D01*
X44281000Y-64741000D02*
X44281000Y-68418000D01*
X44321000Y-58593000D02*
X44321000Y-62259000D01*
X44321000Y-64741000D02*
X44321000Y-68407000D01*
X44361000Y-58603000D02*
X44361000Y-62259000D01*
X44361000Y-64741000D02*
X44361000Y-68397000D01*
X44401000Y-58615000D02*
X44401000Y-62259000D01*
X44401000Y-64741000D02*
X44401000Y-68385000D01*
X44441000Y-58626000D02*
X44441000Y-62259000D01*
X44441000Y-64741000D02*
X44441000Y-68374000D01*
X44481000Y-58638000D02*
X44481000Y-62259000D01*
X44481000Y-64741000D02*
X44481000Y-68362000D01*
X44521000Y-58650000D02*
X44521000Y-62259000D01*
X44521000Y-64741000D02*
X44521000Y-68350000D01*
X44561000Y-58663000D02*
X44561000Y-62259000D01*
X44561000Y-64741000D02*
X44561000Y-68337000D01*
X44601000Y-58676000D02*
X44601000Y-62259000D01*
X44601000Y-64741000D02*
X44601000Y-68324000D01*
X44641000Y-58689000D02*
X44641000Y-62259000D01*
X44641000Y-64741000D02*
X44641000Y-68311000D01*
X44681000Y-58703000D02*
X44681000Y-62259000D01*
X44681000Y-64741000D02*
X44681000Y-68297000D01*
X44721000Y-58717000D02*
X44721000Y-62259000D01*
X44721000Y-64741000D02*
X44721000Y-68283000D01*
X44761000Y-58732000D02*
X44761000Y-62259000D01*
X44761000Y-64741000D02*
X44761000Y-68268000D01*
X44801000Y-58746000D02*
X44801000Y-62259000D01*
X44801000Y-64741000D02*
X44801000Y-68254000D01*
X44841000Y-58762000D02*
X44841000Y-62259000D01*
X44841000Y-64741000D02*
X44841000Y-68238000D01*
X44881000Y-58777000D02*
X44881000Y-62259000D01*
X44881000Y-64741000D02*
X44881000Y-68223000D01*
X44921000Y-58793000D02*
X44921000Y-62259000D01*
X44921000Y-64741000D02*
X44921000Y-68207000D01*
X44961000Y-58810000D02*
X44961000Y-62259000D01*
X44961000Y-64741000D02*
X44961000Y-68190000D01*
X45001000Y-58826000D02*
X45001000Y-62259000D01*
X45001000Y-64741000D02*
X45001000Y-68174000D01*
X45041000Y-58843000D02*
X45041000Y-62259000D01*
X45041000Y-64741000D02*
X45041000Y-68157000D01*
X45081000Y-58861000D02*
X45081000Y-62259000D01*
X45081000Y-64741000D02*
X45081000Y-68139000D01*
X45121000Y-58879000D02*
X45121000Y-62259000D01*
X45121000Y-64741000D02*
X45121000Y-68121000D01*
X45161000Y-58897000D02*
X45161000Y-62259000D01*
X45161000Y-64741000D02*
X45161000Y-68103000D01*
X45201000Y-58916000D02*
X45201000Y-62259000D01*
X45201000Y-64741000D02*
X45201000Y-68084000D01*
X45241000Y-58936000D02*
X45241000Y-62259000D01*
X45241000Y-64741000D02*
X45241000Y-68064000D01*
X45281000Y-58955000D02*
X45281000Y-62259000D01*
X45281000Y-64741000D02*
X45281000Y-68045000D01*
X45321000Y-58975000D02*
X45321000Y-62259000D01*
X45321000Y-64741000D02*
X45321000Y-68025000D01*
X45361000Y-58996000D02*
X45361000Y-62259000D01*
X45361000Y-64741000D02*
X45361000Y-68004000D01*
X45401000Y-59017000D02*
X45401000Y-62259000D01*
X45401000Y-64741000D02*
X45401000Y-67983000D01*
X45441000Y-59038000D02*
X45441000Y-62259000D01*
X45441000Y-64741000D02*
X45441000Y-67962000D01*
X45481000Y-59060000D02*
X45481000Y-62259000D01*
X45481000Y-64741000D02*
X45481000Y-67940000D01*
X45521000Y-59083000D02*
X45521000Y-62259000D01*
X45521000Y-64741000D02*
X45521000Y-67917000D01*
X45561000Y-59105000D02*
X45561000Y-62259000D01*
X45561000Y-64741000D02*
X45561000Y-67895000D01*
X45601000Y-59129000D02*
X45601000Y-62259000D01*
X45601000Y-64741000D02*
X45601000Y-67871000D01*
X45641000Y-59153000D02*
X45641000Y-62259000D01*
X45641000Y-64741000D02*
X45641000Y-67847000D01*
X45681000Y-59177000D02*
X45681000Y-62259000D01*
X45681000Y-64741000D02*
X45681000Y-67823000D01*
X45721000Y-59202000D02*
X45721000Y-62259000D01*
X45721000Y-64741000D02*
X45721000Y-67798000D01*
X45761000Y-59227000D02*
X45761000Y-62259000D01*
X45761000Y-64741000D02*
X45761000Y-67773000D01*
X45801000Y-59253000D02*
X45801000Y-62259000D01*
X45801000Y-64741000D02*
X45801000Y-67747000D01*
X45841000Y-59279000D02*
X45841000Y-62259000D01*
X45841000Y-64741000D02*
X45841000Y-67721000D01*
X45881000Y-59306000D02*
X45881000Y-62259000D01*
X45881000Y-64741000D02*
X45881000Y-67694000D01*
X45921000Y-59334000D02*
X45921000Y-62259000D01*
X45921000Y-64741000D02*
X45921000Y-67666000D01*
X45961000Y-59362000D02*
X45961000Y-62259000D01*
X45961000Y-64741000D02*
X45961000Y-67638000D01*
X46001000Y-59390000D02*
X46001000Y-62259000D01*
X46001000Y-64741000D02*
X46001000Y-67610000D01*
X46041000Y-59420000D02*
X46041000Y-62259000D01*
X46041000Y-64741000D02*
X46041000Y-67580000D01*
X46081000Y-59450000D02*
X46081000Y-62259000D01*
X46081000Y-64741000D02*
X46081000Y-67550000D01*
X46121000Y-59480000D02*
X46121000Y-62259000D01*
X46121000Y-64741000D02*
X46121000Y-67520000D01*
X46161000Y-59511000D02*
X46161000Y-62259000D01*
X46161000Y-64741000D02*
X46161000Y-67489000D01*
X46201000Y-59543000D02*
X46201000Y-62259000D01*
X46201000Y-64741000D02*
X46201000Y-67457000D01*
X46241000Y-59575000D02*
X46241000Y-62259000D01*
X46241000Y-64741000D02*
X46241000Y-67425000D01*
X46281000Y-59608000D02*
X46281000Y-62259000D01*
X46281000Y-64741000D02*
X46281000Y-67392000D01*
X46321000Y-59642000D02*
X46321000Y-62259000D01*
X46321000Y-64741000D02*
X46321000Y-67358000D01*
X46361000Y-59676000D02*
X46361000Y-62259000D01*
X46361000Y-64741000D02*
X46361000Y-67324000D01*
X46401000Y-59711000D02*
X46401000Y-62259000D01*
X46401000Y-64741000D02*
X46401000Y-67289000D01*
X46441000Y-59747000D02*
X46441000Y-62259000D01*
X46441000Y-64741000D02*
X46441000Y-67253000D01*
X46481000Y-59784000D02*
X46481000Y-62259000D01*
X46481000Y-64741000D02*
X46481000Y-67216000D01*
X46521000Y-59821000D02*
X46521000Y-62259000D01*
X46521000Y-64741000D02*
X46521000Y-67179000D01*
X46561000Y-59860000D02*
X46561000Y-62259000D01*
X46561000Y-64741000D02*
X46561000Y-67140000D01*
X46601000Y-59899000D02*
X46601000Y-62259000D01*
X46601000Y-64741000D02*
X46601000Y-67101000D01*
X46641000Y-59939000D02*
X46641000Y-62259000D01*
X46641000Y-64741000D02*
X46641000Y-67061000D01*
X46681000Y-59980000D02*
X46681000Y-62259000D01*
X46681000Y-64741000D02*
X46681000Y-67020000D01*
X46721000Y-60022000D02*
X46721000Y-62259000D01*
X46721000Y-64741000D02*
X46721000Y-66978000D01*
X46761000Y-60064000D02*
X46761000Y-66936000D01*
X46801000Y-60108000D02*
X46801000Y-66892000D01*
X46841000Y-60153000D02*
X46841000Y-66847000D01*
X46881000Y-60199000D02*
X46881000Y-66801000D01*
X46921000Y-60246000D02*
X46921000Y-66754000D01*
X46961000Y-60294000D02*
X46961000Y-66706000D01*
X47001000Y-60344000D02*
X47001000Y-66656000D01*
X47041000Y-60394000D02*
X47041000Y-66606000D01*
X47081000Y-60446000D02*
X47081000Y-66554000D01*
X47121000Y-60500000D02*
X47121000Y-66500000D01*
X47161000Y-60555000D02*
X47161000Y-66445000D01*
X47201000Y-60611000D02*
X47201000Y-66389000D01*
X47241000Y-60670000D02*
X47241000Y-66330000D01*
X47281000Y-60730000D02*
X47281000Y-66270000D01*
X47321000Y-60791000D02*
X47321000Y-66209000D01*
X47361000Y-60855000D02*
X47361000Y-66145000D01*
X47401000Y-60921000D02*
X47401000Y-66079000D01*
X47441000Y-60990000D02*
X47441000Y-66010000D01*
X47481000Y-61061000D02*
X47481000Y-65939000D01*
X47521000Y-61135000D02*
X47521000Y-65865000D01*
X47561000Y-61211000D02*
X47561000Y-65789000D01*
X47601000Y-61291000D02*
X47601000Y-65709000D01*
X47641000Y-61375000D02*
X47641000Y-65625000D01*
X47681000Y-61463000D02*
X47681000Y-65537000D01*
X47721000Y-61556000D02*
X47721000Y-65444000D01*
X47761000Y-61654000D02*
X47761000Y-65346000D01*
X47801000Y-61758000D02*
X47801000Y-65242000D01*
X47841000Y-61870000D02*
X47841000Y-65130000D01*
X47881000Y-61990000D02*
X47881000Y-65010000D01*
X47921000Y-62122000D02*
X47921000Y-64878000D01*
X47961000Y-62270000D02*
X47961000Y-64730000D01*
X48001000Y-62438000D02*
X48001000Y-64562000D01*
X48041000Y-62638000D02*
X48041000Y-64362000D01*
X48081000Y-62901000D02*
X48081000Y-64099000D01*
X37520354Y-60625000D02*
X38520354Y-60625000D01*
X38020354Y-60125000D02*
X38020354Y-61125000D01*
X87450000Y-51650000D02*
X93150000Y-51650000D01*
X87450000Y-55950000D02*
X93150000Y-55950000D01*
X87450000Y-51650000D02*
X87450000Y-55950000D01*
X50250000Y-64100000D02*
X54550000Y-64100000D01*
X54550000Y-64100000D02*
X54550000Y-58400000D01*
X50250000Y-64100000D02*
X50250000Y-58400000D01*
X39150000Y-46450000D02*
X39150000Y-50750000D01*
X39150000Y-50750000D02*
X44850000Y-50750000D01*
X39150000Y-46450000D02*
X44850000Y-46450000D01*
X50550000Y-35950000D02*
X50550000Y-40250000D01*
X50550000Y-40250000D02*
X56250000Y-40250000D01*
X50550000Y-35950000D02*
X56250000Y-35950000D01*
X97250000Y-46450000D02*
X102950000Y-46450000D01*
X97250000Y-50750000D02*
X102950000Y-50750000D01*
X97250000Y-46450000D02*
X97250000Y-50750000D01*
X97250000Y-51650000D02*
X102950000Y-51650000D01*
X97250000Y-55950000D02*
X102950000Y-55950000D01*
X97250000Y-51650000D02*
X97250000Y-55950000D01*
X87450000Y-46450000D02*
X93150000Y-46450000D01*
X87450000Y-50750000D02*
X93150000Y-50750000D01*
X87450000Y-46450000D02*
X87450000Y-50750000D01*
X58150000Y-65050000D02*
X58150000Y-69350000D01*
X58150000Y-69350000D02*
X63850000Y-69350000D01*
X58150000Y-65050000D02*
X63850000Y-65050000D01*
X49850000Y-65050000D02*
X49850000Y-69350000D01*
X49850000Y-69350000D02*
X55550000Y-69350000D01*
X49850000Y-65050000D02*
X55550000Y-65050000D01*
X58120000Y-46000000D02*
G75*
G03*
X58120000Y-46000000I-5120000J0D01*
G01*
X53000000Y-51080000D02*
X53000000Y-40920000D01*
X52960000Y-51080000D02*
X52960000Y-40920000D01*
X52920000Y-51080000D02*
X52920000Y-40920000D01*
X52880000Y-51079000D02*
X52880000Y-40921000D01*
X52840000Y-51078000D02*
X52840000Y-40922000D01*
X52800000Y-51077000D02*
X52800000Y-40923000D01*
X52760000Y-51075000D02*
X52760000Y-40925000D01*
X52720000Y-51073000D02*
X52720000Y-40927000D01*
X52680000Y-51070000D02*
X52680000Y-40930000D01*
X52640000Y-51068000D02*
X52640000Y-40932000D01*
X52600000Y-51065000D02*
X52600000Y-40935000D01*
X52560000Y-51062000D02*
X52560000Y-40938000D01*
X52520000Y-51058000D02*
X52520000Y-40942000D01*
X52480000Y-51054000D02*
X52480000Y-40946000D01*
X52440000Y-51050000D02*
X52440000Y-40950000D01*
X52400000Y-51045000D02*
X52400000Y-40955000D01*
X52360000Y-51040000D02*
X52360000Y-40960000D01*
X52320000Y-51035000D02*
X52320000Y-40965000D01*
X52279000Y-51030000D02*
X52279000Y-40970000D01*
X52239000Y-51024000D02*
X52239000Y-40976000D01*
X52199000Y-51018000D02*
X52199000Y-40982000D01*
X52159000Y-51011000D02*
X52159000Y-40989000D01*
X52119000Y-51004000D02*
X52119000Y-40996000D01*
X52079000Y-50997000D02*
X52079000Y-41003000D01*
X52039000Y-50990000D02*
X52039000Y-41010000D01*
X51999000Y-50982000D02*
X51999000Y-41018000D01*
X51959000Y-50974000D02*
X51959000Y-41026000D01*
X51919000Y-50965000D02*
X51919000Y-41035000D01*
X51879000Y-50956000D02*
X51879000Y-41044000D01*
X51839000Y-50947000D02*
X51839000Y-41053000D01*
X51799000Y-50938000D02*
X51799000Y-41062000D01*
X51759000Y-50928000D02*
X51759000Y-41072000D01*
X51719000Y-50918000D02*
X51719000Y-47241000D01*
X51719000Y-44759000D02*
X51719000Y-41082000D01*
X51679000Y-50907000D02*
X51679000Y-47241000D01*
X51679000Y-44759000D02*
X51679000Y-41093000D01*
X51639000Y-50897000D02*
X51639000Y-47241000D01*
X51639000Y-44759000D02*
X51639000Y-41103000D01*
X51599000Y-50885000D02*
X51599000Y-47241000D01*
X51599000Y-44759000D02*
X51599000Y-41115000D01*
X51559000Y-50874000D02*
X51559000Y-47241000D01*
X51559000Y-44759000D02*
X51559000Y-41126000D01*
X51519000Y-50862000D02*
X51519000Y-47241000D01*
X51519000Y-44759000D02*
X51519000Y-41138000D01*
X51479000Y-50850000D02*
X51479000Y-47241000D01*
X51479000Y-44759000D02*
X51479000Y-41150000D01*
X51439000Y-50837000D02*
X51439000Y-47241000D01*
X51439000Y-44759000D02*
X51439000Y-41163000D01*
X51399000Y-50824000D02*
X51399000Y-47241000D01*
X51399000Y-44759000D02*
X51399000Y-41176000D01*
X51359000Y-50811000D02*
X51359000Y-47241000D01*
X51359000Y-44759000D02*
X51359000Y-41189000D01*
X51319000Y-50797000D02*
X51319000Y-47241000D01*
X51319000Y-44759000D02*
X51319000Y-41203000D01*
X51279000Y-50783000D02*
X51279000Y-47241000D01*
X51279000Y-44759000D02*
X51279000Y-41217000D01*
X51239000Y-50768000D02*
X51239000Y-47241000D01*
X51239000Y-44759000D02*
X51239000Y-41232000D01*
X51199000Y-50754000D02*
X51199000Y-47241000D01*
X51199000Y-44759000D02*
X51199000Y-41246000D01*
X51159000Y-50738000D02*
X51159000Y-47241000D01*
X51159000Y-44759000D02*
X51159000Y-41262000D01*
X51119000Y-50723000D02*
X51119000Y-47241000D01*
X51119000Y-44759000D02*
X51119000Y-41277000D01*
X51079000Y-50707000D02*
X51079000Y-47241000D01*
X51079000Y-44759000D02*
X51079000Y-41293000D01*
X51039000Y-50690000D02*
X51039000Y-47241000D01*
X51039000Y-44759000D02*
X51039000Y-41310000D01*
X50999000Y-50674000D02*
X50999000Y-47241000D01*
X50999000Y-44759000D02*
X50999000Y-41326000D01*
X50959000Y-50657000D02*
X50959000Y-47241000D01*
X50959000Y-44759000D02*
X50959000Y-41343000D01*
X50919000Y-50639000D02*
X50919000Y-47241000D01*
X50919000Y-44759000D02*
X50919000Y-41361000D01*
X50879000Y-50621000D02*
X50879000Y-47241000D01*
X50879000Y-44759000D02*
X50879000Y-41379000D01*
X50839000Y-50603000D02*
X50839000Y-47241000D01*
X50839000Y-44759000D02*
X50839000Y-41397000D01*
X50799000Y-50584000D02*
X50799000Y-47241000D01*
X50799000Y-44759000D02*
X50799000Y-41416000D01*
X50759000Y-50564000D02*
X50759000Y-47241000D01*
X50759000Y-44759000D02*
X50759000Y-41436000D01*
X50719000Y-50545000D02*
X50719000Y-47241000D01*
X50719000Y-44759000D02*
X50719000Y-41455000D01*
X50679000Y-50525000D02*
X50679000Y-47241000D01*
X50679000Y-44759000D02*
X50679000Y-41475000D01*
X50639000Y-50504000D02*
X50639000Y-47241000D01*
X50639000Y-44759000D02*
X50639000Y-41496000D01*
X50599000Y-50483000D02*
X50599000Y-47241000D01*
X50599000Y-44759000D02*
X50599000Y-41517000D01*
X50559000Y-50462000D02*
X50559000Y-47241000D01*
X50559000Y-44759000D02*
X50559000Y-41538000D01*
X50519000Y-50440000D02*
X50519000Y-47241000D01*
X50519000Y-44759000D02*
X50519000Y-41560000D01*
X50479000Y-50417000D02*
X50479000Y-47241000D01*
X50479000Y-44759000D02*
X50479000Y-41583000D01*
X50439000Y-50395000D02*
X50439000Y-47241000D01*
X50439000Y-44759000D02*
X50439000Y-41605000D01*
X50399000Y-50371000D02*
X50399000Y-47241000D01*
X50399000Y-44759000D02*
X50399000Y-41629000D01*
X50359000Y-50347000D02*
X50359000Y-47241000D01*
X50359000Y-44759000D02*
X50359000Y-41653000D01*
X50319000Y-50323000D02*
X50319000Y-47241000D01*
X50319000Y-44759000D02*
X50319000Y-41677000D01*
X50279000Y-50298000D02*
X50279000Y-47241000D01*
X50279000Y-44759000D02*
X50279000Y-41702000D01*
X50239000Y-50273000D02*
X50239000Y-47241000D01*
X50239000Y-44759000D02*
X50239000Y-41727000D01*
X50199000Y-50247000D02*
X50199000Y-47241000D01*
X50199000Y-44759000D02*
X50199000Y-41753000D01*
X50159000Y-50221000D02*
X50159000Y-47241000D01*
X50159000Y-44759000D02*
X50159000Y-41779000D01*
X50119000Y-50194000D02*
X50119000Y-47241000D01*
X50119000Y-44759000D02*
X50119000Y-41806000D01*
X50079000Y-50166000D02*
X50079000Y-47241000D01*
X50079000Y-44759000D02*
X50079000Y-41834000D01*
X50039000Y-50138000D02*
X50039000Y-47241000D01*
X50039000Y-44759000D02*
X50039000Y-41862000D01*
X49999000Y-50110000D02*
X49999000Y-47241000D01*
X49999000Y-44759000D02*
X49999000Y-41890000D01*
X49959000Y-50080000D02*
X49959000Y-47241000D01*
X49959000Y-44759000D02*
X49959000Y-41920000D01*
X49919000Y-50050000D02*
X49919000Y-47241000D01*
X49919000Y-44759000D02*
X49919000Y-41950000D01*
X49879000Y-50020000D02*
X49879000Y-47241000D01*
X49879000Y-44759000D02*
X49879000Y-41980000D01*
X49839000Y-49989000D02*
X49839000Y-47241000D01*
X49839000Y-44759000D02*
X49839000Y-42011000D01*
X49799000Y-49957000D02*
X49799000Y-47241000D01*
X49799000Y-44759000D02*
X49799000Y-42043000D01*
X49759000Y-49925000D02*
X49759000Y-47241000D01*
X49759000Y-44759000D02*
X49759000Y-42075000D01*
X49719000Y-49892000D02*
X49719000Y-47241000D01*
X49719000Y-44759000D02*
X49719000Y-42108000D01*
X49679000Y-49858000D02*
X49679000Y-47241000D01*
X49679000Y-44759000D02*
X49679000Y-42142000D01*
X49639000Y-49824000D02*
X49639000Y-47241000D01*
X49639000Y-44759000D02*
X49639000Y-42176000D01*
X49599000Y-49789000D02*
X49599000Y-47241000D01*
X49599000Y-44759000D02*
X49599000Y-42211000D01*
X49559000Y-49753000D02*
X49559000Y-47241000D01*
X49559000Y-44759000D02*
X49559000Y-42247000D01*
X49519000Y-49716000D02*
X49519000Y-47241000D01*
X49519000Y-44759000D02*
X49519000Y-42284000D01*
X49479000Y-49679000D02*
X49479000Y-47241000D01*
X49479000Y-44759000D02*
X49479000Y-42321000D01*
X49439000Y-49640000D02*
X49439000Y-47241000D01*
X49439000Y-44759000D02*
X49439000Y-42360000D01*
X49399000Y-49601000D02*
X49399000Y-47241000D01*
X49399000Y-44759000D02*
X49399000Y-42399000D01*
X49359000Y-49561000D02*
X49359000Y-47241000D01*
X49359000Y-44759000D02*
X49359000Y-42439000D01*
X49319000Y-49520000D02*
X49319000Y-47241000D01*
X49319000Y-44759000D02*
X49319000Y-42480000D01*
X49279000Y-49478000D02*
X49279000Y-47241000D01*
X49279000Y-44759000D02*
X49279000Y-42522000D01*
X49239000Y-49436000D02*
X49239000Y-42564000D01*
X49199000Y-49392000D02*
X49199000Y-42608000D01*
X49159000Y-49347000D02*
X49159000Y-42653000D01*
X49119000Y-49301000D02*
X49119000Y-42699000D01*
X49079000Y-49254000D02*
X49079000Y-42746000D01*
X49039000Y-49206000D02*
X49039000Y-42794000D01*
X48999000Y-49156000D02*
X48999000Y-42844000D01*
X48959000Y-49106000D02*
X48959000Y-42894000D01*
X48919000Y-49054000D02*
X48919000Y-42946000D01*
X48879000Y-49000000D02*
X48879000Y-43000000D01*
X48839000Y-48945000D02*
X48839000Y-43055000D01*
X48799000Y-48889000D02*
X48799000Y-43111000D01*
X48759000Y-48830000D02*
X48759000Y-43170000D01*
X48719000Y-48770000D02*
X48719000Y-43230000D01*
X48679000Y-48709000D02*
X48679000Y-43291000D01*
X48639000Y-48645000D02*
X48639000Y-43355000D01*
X48599000Y-48579000D02*
X48599000Y-43421000D01*
X48559000Y-48510000D02*
X48559000Y-43490000D01*
X48519000Y-48439000D02*
X48519000Y-43561000D01*
X48479000Y-48365000D02*
X48479000Y-43635000D01*
X48439000Y-48289000D02*
X48439000Y-43711000D01*
X48399000Y-48209000D02*
X48399000Y-43791000D01*
X48359000Y-48125000D02*
X48359000Y-43875000D01*
X48319000Y-48037000D02*
X48319000Y-43963000D01*
X48279000Y-47944000D02*
X48279000Y-44056000D01*
X48239000Y-47846000D02*
X48239000Y-44154000D01*
X48199000Y-47742000D02*
X48199000Y-44258000D01*
X48159000Y-47630000D02*
X48159000Y-44370000D01*
X48119000Y-47510000D02*
X48119000Y-44490000D01*
X48079000Y-47378000D02*
X48079000Y-44622000D01*
X48039000Y-47230000D02*
X48039000Y-44770000D01*
X47999000Y-47062000D02*
X47999000Y-44938000D01*
X47959000Y-46862000D02*
X47959000Y-45138000D01*
X47919000Y-46599000D02*
X47919000Y-45401000D01*
X58479646Y-48875000D02*
X57479646Y-48875000D01*
X57979646Y-49375000D02*
X57979646Y-48375000D01*
X67270000Y-70730000D02*
X67270000Y-72000000D01*
X66000000Y-70730000D02*
X67270000Y-70730000D01*
X60540000Y-73042929D02*
X60540000Y-73440000D01*
X61300000Y-73042929D02*
X61300000Y-73440000D01*
X60540000Y-82100000D02*
X60540000Y-76100000D01*
X61300000Y-82100000D02*
X60540000Y-82100000D01*
X61300000Y-76100000D02*
X61300000Y-82100000D01*
X62190000Y-73440000D02*
X62190000Y-76100000D01*
X63080000Y-73042929D02*
X63080000Y-73440000D01*
X63840000Y-73042929D02*
X63840000Y-73440000D01*
X63080000Y-82100000D02*
X63080000Y-76100000D01*
X63840000Y-82100000D02*
X63080000Y-82100000D01*
X63840000Y-76100000D02*
X63840000Y-82100000D01*
X64730000Y-73440000D02*
X64730000Y-76100000D01*
X65620000Y-73110000D02*
X65620000Y-73440000D01*
X66380000Y-73110000D02*
X66380000Y-73440000D01*
X65720000Y-76100000D02*
X65720000Y-82100000D01*
X65840000Y-76100000D02*
X65840000Y-82100000D01*
X65960000Y-76100000D02*
X65960000Y-82100000D01*
X66080000Y-76100000D02*
X66080000Y-82100000D01*
X66200000Y-76100000D02*
X66200000Y-82100000D01*
X66320000Y-76100000D02*
X66320000Y-82100000D01*
X65620000Y-82100000D02*
X65620000Y-76100000D01*
X66380000Y-82100000D02*
X65620000Y-82100000D01*
X66380000Y-76100000D02*
X66380000Y-82100000D01*
X67330000Y-76100000D02*
X67330000Y-73440000D01*
X59590000Y-76100000D02*
X67330000Y-76100000D01*
X59590000Y-73440000D02*
X59590000Y-76100000D01*
X67330000Y-73440000D02*
X59590000Y-73440000D01*
X56770000Y-70730000D02*
X56770000Y-72000000D01*
X55500000Y-70730000D02*
X56770000Y-70730000D01*
X50040000Y-73042929D02*
X50040000Y-73440000D01*
X50800000Y-73042929D02*
X50800000Y-73440000D01*
X50040000Y-82100000D02*
X50040000Y-76100000D01*
X50800000Y-82100000D02*
X50040000Y-82100000D01*
X50800000Y-76100000D02*
X50800000Y-82100000D01*
X51690000Y-73440000D02*
X51690000Y-76100000D01*
X52580000Y-73042929D02*
X52580000Y-73440000D01*
X53340000Y-73042929D02*
X53340000Y-73440000D01*
X52580000Y-82100000D02*
X52580000Y-76100000D01*
X53340000Y-82100000D02*
X52580000Y-82100000D01*
X53340000Y-76100000D02*
X53340000Y-82100000D01*
X54230000Y-73440000D02*
X54230000Y-76100000D01*
X55120000Y-73110000D02*
X55120000Y-73440000D01*
X55880000Y-73110000D02*
X55880000Y-73440000D01*
X55220000Y-76100000D02*
X55220000Y-82100000D01*
X55340000Y-76100000D02*
X55340000Y-82100000D01*
X55460000Y-76100000D02*
X55460000Y-82100000D01*
X55580000Y-76100000D02*
X55580000Y-82100000D01*
X55700000Y-76100000D02*
X55700000Y-82100000D01*
X55820000Y-76100000D02*
X55820000Y-82100000D01*
X55120000Y-82100000D02*
X55120000Y-76100000D01*
X55880000Y-82100000D02*
X55120000Y-82100000D01*
X55880000Y-76100000D02*
X55880000Y-82100000D01*
X56830000Y-76100000D02*
X56830000Y-73440000D01*
X49090000Y-76100000D02*
X56830000Y-76100000D01*
X49090000Y-73440000D02*
X49090000Y-76100000D01*
X56830000Y-73440000D02*
X49090000Y-73440000D01*
X46270000Y-70730000D02*
X46270000Y-72000000D01*
X45000000Y-70730000D02*
X46270000Y-70730000D01*
X39540000Y-73042929D02*
X39540000Y-73440000D01*
X40300000Y-73042929D02*
X40300000Y-73440000D01*
X39540000Y-82100000D02*
X39540000Y-76100000D01*
X40300000Y-82100000D02*
X39540000Y-82100000D01*
X40300000Y-76100000D02*
X40300000Y-82100000D01*
X41190000Y-73440000D02*
X41190000Y-76100000D01*
X42080000Y-73042929D02*
X42080000Y-73440000D01*
X42840000Y-73042929D02*
X42840000Y-73440000D01*
X42080000Y-82100000D02*
X42080000Y-76100000D01*
X42840000Y-82100000D02*
X42080000Y-82100000D01*
X42840000Y-76100000D02*
X42840000Y-82100000D01*
X43730000Y-73440000D02*
X43730000Y-76100000D01*
X44620000Y-73110000D02*
X44620000Y-73440000D01*
X45380000Y-73110000D02*
X45380000Y-73440000D01*
X44720000Y-76100000D02*
X44720000Y-82100000D01*
X44840000Y-76100000D02*
X44840000Y-82100000D01*
X44960000Y-76100000D02*
X44960000Y-82100000D01*
X45080000Y-76100000D02*
X45080000Y-82100000D01*
X45200000Y-76100000D02*
X45200000Y-82100000D01*
X45320000Y-76100000D02*
X45320000Y-82100000D01*
X44620000Y-82100000D02*
X44620000Y-76100000D01*
X45380000Y-82100000D02*
X44620000Y-82100000D01*
X45380000Y-76100000D02*
X45380000Y-82100000D01*
X46330000Y-76100000D02*
X46330000Y-73440000D01*
X38590000Y-76100000D02*
X46330000Y-76100000D01*
X38590000Y-73440000D02*
X38590000Y-76100000D01*
X46330000Y-73440000D02*
X38590000Y-73440000D01*
X59730000Y-42270000D02*
X59730000Y-41000000D01*
X61000000Y-42270000D02*
X59730000Y-42270000D01*
X66460000Y-39957071D02*
X66460000Y-39560000D01*
X65700000Y-39957071D02*
X65700000Y-39560000D01*
X66460000Y-30900000D02*
X66460000Y-36900000D01*
X65700000Y-30900000D02*
X66460000Y-30900000D01*
X65700000Y-36900000D02*
X65700000Y-30900000D01*
X64810000Y-39560000D02*
X64810000Y-36900000D01*
X63920000Y-39957071D02*
X63920000Y-39560000D01*
X63160000Y-39957071D02*
X63160000Y-39560000D01*
X63920000Y-30900000D02*
X63920000Y-36900000D01*
X63160000Y-30900000D02*
X63920000Y-30900000D01*
X63160000Y-36900000D02*
X63160000Y-30900000D01*
X62270000Y-39560000D02*
X62270000Y-36900000D01*
X61380000Y-39890000D02*
X61380000Y-39560000D01*
X60620000Y-39890000D02*
X60620000Y-39560000D01*
X61280000Y-36900000D02*
X61280000Y-30900000D01*
X61160000Y-36900000D02*
X61160000Y-30900000D01*
X61040000Y-36900000D02*
X61040000Y-30900000D01*
X60920000Y-36900000D02*
X60920000Y-30900000D01*
X60800000Y-36900000D02*
X60800000Y-30900000D01*
X60680000Y-36900000D02*
X60680000Y-30900000D01*
X61380000Y-30900000D02*
X61380000Y-36900000D01*
X60620000Y-30900000D02*
X61380000Y-30900000D01*
X60620000Y-36900000D02*
X60620000Y-30900000D01*
X59670000Y-36900000D02*
X59670000Y-39560000D01*
X67410000Y-36900000D02*
X59670000Y-36900000D01*
X67410000Y-39560000D02*
X67410000Y-36900000D01*
X59670000Y-39560000D02*
X67410000Y-39560000D01*
D12*
X72750000Y-34750000D02*
X85250000Y-34750000D01*
X71300000Y-24900000D02*
X86700000Y-24900000D01*
X71300000Y-24750000D02*
X71300000Y-33750000D01*
X71300000Y-48000000D02*
X86700000Y-48000000D01*
X86700000Y-48000000D02*
X86700000Y-35750000D01*
X79000000Y-25000000D02*
X79000000Y-48000000D01*
X71300000Y-35750000D02*
X71300000Y-48000000D01*
X86700000Y-33750000D02*
X86700000Y-24750000D01*
X71300000Y-48000000D02*
X71300000Y-54750000D01*
X71300000Y-54750000D02*
X86700000Y-54750000D01*
X86700000Y-54750000D02*
X86700000Y-48000000D01*
X85250000Y-77160000D02*
X72750000Y-77160000D01*
X86700000Y-87010000D02*
X71300000Y-87010000D01*
X86700000Y-87160000D02*
X86700000Y-78160000D01*
X86700000Y-63910000D02*
X71300000Y-63910000D01*
X71300000Y-63910000D02*
X71300000Y-76160000D01*
X79000000Y-86910000D02*
X79000000Y-63910000D01*
X86700000Y-76160000D02*
X86700000Y-63910000D01*
X71300000Y-78160000D02*
X71300000Y-87160000D01*
X86700000Y-63910000D02*
X86700000Y-57160000D01*
X86700000Y-57160000D02*
X71300000Y-57160000D01*
X71300000Y-57160000D02*
X71300000Y-63910000D01*
D13*
X65850000Y-69050000D02*
X65850000Y-63350000D01*
X70150000Y-69050000D02*
X70150000Y-63350000D01*
X65850000Y-69050000D02*
X70150000Y-69050000D01*
X59490000Y-59859420D02*
X59490000Y-60140580D01*
X60510000Y-59859420D02*
X60510000Y-60140580D01*
D12*
X105500000Y-40500000D02*
G75*
G03*
X105500000Y-40500000I-5000000J0D01*
G01*
X48500000Y-40500000D02*
G75*
G03*
X48500000Y-40500000I-5000000J0D01*
G01*
D13*
X59737221Y-64210000D02*
X60062779Y-64210000D01*
X59737221Y-63190000D02*
X60062779Y-63190000D01*
X42000000Y-51940000D02*
X38550000Y-51940000D01*
X42000000Y-51940000D02*
X43950000Y-51940000D01*
X42000000Y-57060000D02*
X40050000Y-57060000D01*
X42000000Y-57060000D02*
X43950000Y-57060000D01*
X66500000Y-49060000D02*
X69950000Y-49060000D01*
X66500000Y-49060000D02*
X64550000Y-49060000D01*
X66500000Y-43940000D02*
X68450000Y-43940000D01*
X66500000Y-43940000D02*
X64550000Y-43940000D01*
X64390000Y-54600000D02*
X64390000Y-57050000D01*
X67610000Y-56400000D02*
X67610000Y-54600000D01*
X57490000Y-59837221D02*
X57490000Y-60162779D01*
X58510000Y-59837221D02*
X58510000Y-60162779D01*
X47837221Y-55510000D02*
X48162779Y-55510000D01*
X47837221Y-54490000D02*
X48162779Y-54490000D01*
X60662779Y-45490000D02*
X60337221Y-45490000D01*
X60662779Y-46510000D02*
X60337221Y-46510000D01*
X67990000Y-59337221D02*
X67990000Y-59662779D01*
X69010000Y-59337221D02*
X69010000Y-59662779D01*
X67010000Y-59662779D02*
X67010000Y-59337221D01*
X65990000Y-59662779D02*
X65990000Y-59337221D01*
X56900000Y-51350000D02*
X56900000Y-57650000D01*
X63100000Y-51350000D02*
X63100000Y-57650000D01*
X90185000Y-58850000D02*
X90185000Y-76810000D01*
X105705000Y-58850000D02*
X90185000Y-58850000D01*
X105705000Y-58850000D02*
X105705000Y-76810000D01*
X90185000Y-76810000D02*
X105705000Y-76810000D01*
X90000000Y-62730000D02*
X89500000Y-62230000D01*
X89500000Y-62230000D02*
X89500000Y-63230000D01*
X89500000Y-63230000D02*
X90000000Y-62730000D01*
X55515000Y-58515000D02*
X55515000Y-60800000D01*
X56985000Y-58515000D02*
X55515000Y-58515000D01*
X56985000Y-60800000D02*
X56985000Y-58515000D01*
X65350000Y-61500000D02*
X65350000Y-64050000D01*
X63650000Y-61500000D02*
X63650000Y-64050000D01*
X65350000Y-61500000D02*
X63650000Y-61500000D01*
X64250000Y-50500000D02*
X68150000Y-50500000D01*
X64250000Y-52500000D02*
X68150000Y-52500000D01*
X64250000Y-50500000D02*
X64250000Y-52500000D01*
X56337221Y-64210000D02*
X56662779Y-64210000D01*
X56337221Y-63190000D02*
X56662779Y-63190000D01*
X47837221Y-53010000D02*
X48162779Y-53010000D01*
X47837221Y-51990000D02*
X48162779Y-51990000D01*
X60662779Y-47990000D02*
X60337221Y-47990000D01*
X60662779Y-49010000D02*
X60337221Y-49010000D01*
X48162779Y-56490000D02*
X47837221Y-56490000D01*
X48162779Y-57510000D02*
X47837221Y-57510000D01*
X60337221Y-44510000D02*
X60662779Y-44510000D01*
X60337221Y-43490000D02*
X60662779Y-43490000D01*
X61290000Y-59741422D02*
X61290000Y-60258578D01*
X62710000Y-59741422D02*
X62710000Y-60258578D01*
X65010000Y-59662779D02*
X65010000Y-59337221D01*
X63990000Y-59662779D02*
X63990000Y-59337221D01*
X68790000Y-55241422D02*
X68790000Y-55758578D01*
X70210000Y-55241422D02*
X70210000Y-55758578D01*
D12*
X75559523Y-49952380D02*
X75226190Y-49476190D01*
X74988095Y-49952380D02*
X74988095Y-48952380D01*
X75369047Y-48952380D01*
X75464285Y-49000000D01*
X75511904Y-49047619D01*
X75559523Y-49142857D01*
X75559523Y-49285714D01*
X75511904Y-49380952D01*
X75464285Y-49428571D01*
X75369047Y-49476190D01*
X74988095Y-49476190D01*
X82821428Y-49428571D02*
X82964285Y-49476190D01*
X83011904Y-49523809D01*
X83059523Y-49619047D01*
X83059523Y-49761904D01*
X83011904Y-49857142D01*
X82964285Y-49904761D01*
X82869047Y-49952380D01*
X82488095Y-49952380D01*
X82488095Y-48952380D01*
X82821428Y-48952380D01*
X82916666Y-49000000D01*
X82964285Y-49047619D01*
X83011904Y-49142857D01*
X83011904Y-49238095D01*
X82964285Y-49333333D01*
X82916666Y-49380952D01*
X82821428Y-49428571D01*
X82488095Y-49428571D01*
X83059523Y-62862380D02*
X82726190Y-62386190D01*
X82488095Y-62862380D02*
X82488095Y-61862380D01*
X82869047Y-61862380D01*
X82964285Y-61910000D01*
X83011904Y-61957619D01*
X83059523Y-62052857D01*
X83059523Y-62195714D01*
X83011904Y-62290952D01*
X82964285Y-62338571D01*
X82869047Y-62386190D01*
X82488095Y-62386190D01*
X75321428Y-62338571D02*
X75464285Y-62386190D01*
X75511904Y-62433809D01*
X75559523Y-62529047D01*
X75559523Y-62671904D01*
X75511904Y-62767142D01*
X75464285Y-62814761D01*
X75369047Y-62862380D01*
X74988095Y-62862380D01*
X74988095Y-61862380D01*
X75321428Y-61862380D01*
X75416666Y-61910000D01*
X75464285Y-61957619D01*
X75511904Y-62052857D01*
X75511904Y-62148095D01*
X75464285Y-62243333D01*
X75416666Y-62290952D01*
X75321428Y-62338571D01*
X74988095Y-62338571D01*
M02*
