G04 #@! TF.GenerationSoftware,KiCad,Pcbnew,5.1.5-52549c5~84~ubuntu18.04.1*
G04 #@! TF.CreationDate,2020-03-03T19:35:01-07:00*
G04 #@! TF.ProjectId,pole-node,706f6c65-2d6e-46f6-9465-2e6b69636164,rev?*
G04 #@! TF.SameCoordinates,Original*
G04 #@! TF.FileFunction,Soldermask,Bot*
G04 #@! TF.FilePolarity,Negative*
%FSLAX46Y46*%
G04 Gerber Fmt 4.6, Leading zero omitted, Abs format (unit mm)*
G04 Created by KiCad (PCBNEW 5.1.5-52549c5~84~ubuntu18.04.1) date 2020-03-03 19:35:01*
%MOMM*%
%LPD*%
G04 APERTURE LIST*
%ADD10C,0.100000*%
G04 APERTURE END LIST*
D10*
G36*
X171703088Y-59948990D02*
G01*
X171898380Y-60008231D01*
X172059883Y-60094557D01*
X172078355Y-60104430D01*
X172236107Y-60233893D01*
X172342355Y-60363357D01*
X172365571Y-60391646D01*
X172461769Y-60571619D01*
X172521010Y-60766911D01*
X172536000Y-60919109D01*
X172536000Y-64980891D01*
X172521010Y-65133089D01*
X172461769Y-65328381D01*
X172365571Y-65508354D01*
X172236107Y-65666107D01*
X172078354Y-65795571D01*
X171898381Y-65891769D01*
X171703089Y-65951010D01*
X171500000Y-65971012D01*
X171296912Y-65951010D01*
X171101620Y-65891769D01*
X170921647Y-65795571D01*
X170763894Y-65666107D01*
X170634430Y-65508354D01*
X170538232Y-65328381D01*
X170478991Y-65133089D01*
X170464001Y-64980891D01*
X170464000Y-60919110D01*
X170478990Y-60766912D01*
X170538231Y-60571620D01*
X170634429Y-60391647D01*
X170634430Y-60391645D01*
X170763893Y-60233893D01*
X170921645Y-60104430D01*
X170921644Y-60104430D01*
X170921646Y-60104429D01*
X171101619Y-60008231D01*
X171296911Y-59948990D01*
X171500000Y-59928988D01*
X171703088Y-59948990D01*
G37*
G36*
X201863512Y-63933927D02*
G01*
X202012812Y-63963624D01*
X202176784Y-64031544D01*
X202324354Y-64130147D01*
X202449853Y-64255646D01*
X202548456Y-64403216D01*
X202616376Y-64567188D01*
X202651000Y-64741259D01*
X202651000Y-64918741D01*
X202616376Y-65092812D01*
X202548456Y-65256784D01*
X202449853Y-65404354D01*
X202324354Y-65529853D01*
X202176784Y-65628456D01*
X202012812Y-65696376D01*
X201863512Y-65726073D01*
X201838742Y-65731000D01*
X201661258Y-65731000D01*
X201636488Y-65726073D01*
X201487188Y-65696376D01*
X201323216Y-65628456D01*
X201175646Y-65529853D01*
X201050147Y-65404354D01*
X200951544Y-65256784D01*
X200883624Y-65092812D01*
X200849000Y-64918741D01*
X200849000Y-64741259D01*
X200883624Y-64567188D01*
X200951544Y-64403216D01*
X201050147Y-64255646D01*
X201175646Y-64130147D01*
X201323216Y-64031544D01*
X201487188Y-63963624D01*
X201636488Y-63933927D01*
X201661258Y-63929000D01*
X201838742Y-63929000D01*
X201863512Y-63933927D01*
G37*
G36*
X194517184Y-58899938D02*
G01*
X194773268Y-58950876D01*
X194973105Y-59033651D01*
X195255718Y-59150713D01*
X195255719Y-59150714D01*
X195689914Y-59440834D01*
X196059166Y-59810086D01*
X196059167Y-59810088D01*
X196349287Y-60244282D01*
X196410327Y-60391646D01*
X196549124Y-60726732D01*
X196651000Y-61238899D01*
X196651000Y-61761101D01*
X196549124Y-62273268D01*
X196505435Y-62378742D01*
X196349287Y-62755718D01*
X196205212Y-62971341D01*
X196059166Y-63189914D01*
X195689914Y-63559166D01*
X195471341Y-63705212D01*
X195255718Y-63849287D01*
X195063273Y-63929000D01*
X194773268Y-64049124D01*
X194261102Y-64151000D01*
X193738898Y-64151000D01*
X193226732Y-64049124D01*
X192936727Y-63929000D01*
X192744282Y-63849287D01*
X192528659Y-63705212D01*
X192310086Y-63559166D01*
X191940834Y-63189914D01*
X191794788Y-62971341D01*
X191650713Y-62755718D01*
X191494565Y-62378742D01*
X191450876Y-62273268D01*
X191349000Y-61761101D01*
X191349000Y-61238899D01*
X191450876Y-60726732D01*
X191589673Y-60391646D01*
X191650713Y-60244282D01*
X191940833Y-59810088D01*
X191940834Y-59810086D01*
X192310086Y-59440834D01*
X192744281Y-59150714D01*
X192744282Y-59150713D01*
X193026895Y-59033651D01*
X193226732Y-58950876D01*
X193482816Y-58899938D01*
X193738898Y-58849000D01*
X194261102Y-58849000D01*
X194517184Y-58899938D01*
G37*
G36*
X201863512Y-61393927D02*
G01*
X202012812Y-61423624D01*
X202176784Y-61491544D01*
X202324354Y-61590147D01*
X202449853Y-61715646D01*
X202548456Y-61863216D01*
X202616376Y-62027188D01*
X202651000Y-62201259D01*
X202651000Y-62378741D01*
X202616376Y-62552812D01*
X202548456Y-62716784D01*
X202449853Y-62864354D01*
X202324354Y-62989853D01*
X202176784Y-63088456D01*
X202012812Y-63156376D01*
X201863512Y-63186073D01*
X201838742Y-63191000D01*
X201661258Y-63191000D01*
X201636488Y-63186073D01*
X201487188Y-63156376D01*
X201323216Y-63088456D01*
X201175646Y-62989853D01*
X201050147Y-62864354D01*
X200951544Y-62716784D01*
X200883624Y-62552812D01*
X200849000Y-62378741D01*
X200849000Y-62201259D01*
X200883624Y-62027188D01*
X200951544Y-61863216D01*
X201050147Y-61715646D01*
X201175646Y-61590147D01*
X201323216Y-61491544D01*
X201487188Y-61423624D01*
X201636488Y-61393927D01*
X201661258Y-61389000D01*
X201838742Y-61389000D01*
X201863512Y-61393927D01*
G37*
G36*
X202651000Y-60651000D02*
G01*
X200849000Y-60651000D01*
X200849000Y-58849000D01*
X202651000Y-58849000D01*
X202651000Y-60651000D01*
G37*
G36*
X171703088Y-52048990D02*
G01*
X171898380Y-52108231D01*
X172059883Y-52194557D01*
X172078355Y-52204430D01*
X172236107Y-52333893D01*
X172342355Y-52463357D01*
X172365571Y-52491646D01*
X172461769Y-52671619D01*
X172521010Y-52866911D01*
X172536000Y-53019109D01*
X172536000Y-57080891D01*
X172521010Y-57233089D01*
X172461769Y-57428381D01*
X172365571Y-57608354D01*
X172236107Y-57766107D01*
X172078354Y-57895571D01*
X171898381Y-57991769D01*
X171703089Y-58051010D01*
X171500000Y-58071012D01*
X171296912Y-58051010D01*
X171101620Y-57991769D01*
X170921647Y-57895571D01*
X170763894Y-57766107D01*
X170634430Y-57608354D01*
X170538232Y-57428381D01*
X170478991Y-57233089D01*
X170464001Y-57080891D01*
X170464000Y-53019110D01*
X170478990Y-52866912D01*
X170538231Y-52671620D01*
X170634429Y-52491647D01*
X170634430Y-52491645D01*
X170763893Y-52333893D01*
X170921645Y-52204430D01*
X170921644Y-52204430D01*
X170921646Y-52204429D01*
X171101619Y-52108231D01*
X171296911Y-52048990D01*
X171500000Y-52028988D01*
X171703088Y-52048990D01*
G37*
G36*
X201863512Y-55183927D02*
G01*
X202012812Y-55213624D01*
X202176784Y-55281544D01*
X202324354Y-55380147D01*
X202449853Y-55505646D01*
X202548456Y-55653216D01*
X202616376Y-55817188D01*
X202651000Y-55991259D01*
X202651000Y-56168741D01*
X202616376Y-56342812D01*
X202548456Y-56506784D01*
X202449853Y-56654354D01*
X202324354Y-56779853D01*
X202176784Y-56878456D01*
X202012812Y-56946376D01*
X201863512Y-56976073D01*
X201838742Y-56981000D01*
X201661258Y-56981000D01*
X201636488Y-56976073D01*
X201487188Y-56946376D01*
X201323216Y-56878456D01*
X201175646Y-56779853D01*
X201050147Y-56654354D01*
X200951544Y-56506784D01*
X200883624Y-56342812D01*
X200849000Y-56168741D01*
X200849000Y-55991259D01*
X200883624Y-55817188D01*
X200951544Y-55653216D01*
X201050147Y-55505646D01*
X201175646Y-55380147D01*
X201323216Y-55281544D01*
X201487188Y-55213624D01*
X201636488Y-55183927D01*
X201661258Y-55179000D01*
X201838742Y-55179000D01*
X201863512Y-55183927D01*
G37*
G36*
X201863512Y-52643927D02*
G01*
X202012812Y-52673624D01*
X202176784Y-52741544D01*
X202324354Y-52840147D01*
X202449853Y-52965646D01*
X202548456Y-53113216D01*
X202616376Y-53277188D01*
X202651000Y-53451259D01*
X202651000Y-53628741D01*
X202616376Y-53802812D01*
X202548456Y-53966784D01*
X202449853Y-54114354D01*
X202324354Y-54239853D01*
X202176784Y-54338456D01*
X202012812Y-54406376D01*
X201863512Y-54436073D01*
X201838742Y-54441000D01*
X201661258Y-54441000D01*
X201636488Y-54436073D01*
X201487188Y-54406376D01*
X201323216Y-54338456D01*
X201175646Y-54239853D01*
X201050147Y-54114354D01*
X200951544Y-53966784D01*
X200883624Y-53802812D01*
X200849000Y-53628741D01*
X200849000Y-53451259D01*
X200883624Y-53277188D01*
X200951544Y-53113216D01*
X201050147Y-52965646D01*
X201175646Y-52840147D01*
X201323216Y-52741544D01*
X201487188Y-52673624D01*
X201636488Y-52643927D01*
X201661258Y-52639000D01*
X201838742Y-52639000D01*
X201863512Y-52643927D01*
G37*
G36*
X202651000Y-51901000D02*
G01*
X200849000Y-51901000D01*
X200849000Y-50099000D01*
X202651000Y-50099000D01*
X202651000Y-51901000D01*
G37*
G36*
X161525256Y-45551298D02*
G01*
X161631579Y-45572447D01*
X161932042Y-45696903D01*
X162202451Y-45877585D01*
X162432415Y-46107549D01*
X162613097Y-46377958D01*
X162717558Y-46630148D01*
X162737553Y-46678422D01*
X162782268Y-46903216D01*
X162801000Y-46997391D01*
X162801000Y-47322609D01*
X162737553Y-47641579D01*
X162613097Y-47942042D01*
X162432415Y-48212451D01*
X162202451Y-48442415D01*
X161932042Y-48623097D01*
X161631579Y-48747553D01*
X161525256Y-48768702D01*
X161312611Y-48811000D01*
X160987389Y-48811000D01*
X160774744Y-48768702D01*
X160668421Y-48747553D01*
X160367958Y-48623097D01*
X160097549Y-48442415D01*
X159867585Y-48212451D01*
X159686903Y-47942042D01*
X159562447Y-47641579D01*
X159499000Y-47322609D01*
X159499000Y-46997391D01*
X159517733Y-46903216D01*
X159562447Y-46678422D01*
X159582443Y-46630148D01*
X159686903Y-46377958D01*
X159867585Y-46107549D01*
X160097549Y-45877585D01*
X160367958Y-45696903D01*
X160668421Y-45572447D01*
X160774744Y-45551298D01*
X160987389Y-45509000D01*
X161312611Y-45509000D01*
X161525256Y-45551298D01*
G37*
G36*
X201863512Y-46433927D02*
G01*
X202012812Y-46463624D01*
X202176784Y-46531544D01*
X202324354Y-46630147D01*
X202449853Y-46755646D01*
X202548456Y-46903216D01*
X202616376Y-47067188D01*
X202651000Y-47241259D01*
X202651000Y-47418741D01*
X202616376Y-47592812D01*
X202548456Y-47756784D01*
X202449853Y-47904354D01*
X202324354Y-48029853D01*
X202176784Y-48128456D01*
X202012812Y-48196376D01*
X201863512Y-48226073D01*
X201838742Y-48231000D01*
X201661258Y-48231000D01*
X201636488Y-48226073D01*
X201487188Y-48196376D01*
X201323216Y-48128456D01*
X201175646Y-48029853D01*
X201050147Y-47904354D01*
X200951544Y-47756784D01*
X200883624Y-47592812D01*
X200849000Y-47418741D01*
X200849000Y-47241259D01*
X200883624Y-47067188D01*
X200951544Y-46903216D01*
X201050147Y-46755646D01*
X201175646Y-46630147D01*
X201323216Y-46531544D01*
X201487188Y-46463624D01*
X201636488Y-46433927D01*
X201661258Y-46429000D01*
X201838742Y-46429000D01*
X201863512Y-46433927D01*
G37*
G36*
X170273642Y-45119781D02*
G01*
X170419414Y-45180162D01*
X170419416Y-45180163D01*
X170550608Y-45267822D01*
X170662178Y-45379392D01*
X170749837Y-45510584D01*
X170749838Y-45510586D01*
X170810219Y-45656358D01*
X170841000Y-45811107D01*
X170841000Y-45968893D01*
X170810219Y-46123642D01*
X170749838Y-46269414D01*
X170749837Y-46269416D01*
X170662178Y-46400608D01*
X170550608Y-46512178D01*
X170419416Y-46599837D01*
X170419415Y-46599838D01*
X170419414Y-46599838D01*
X170273642Y-46660219D01*
X170118893Y-46691000D01*
X169961107Y-46691000D01*
X169806358Y-46660219D01*
X169660586Y-46599838D01*
X169660585Y-46599838D01*
X169660584Y-46599837D01*
X169529392Y-46512178D01*
X169417822Y-46400608D01*
X169330163Y-46269416D01*
X169330162Y-46269414D01*
X169269781Y-46123642D01*
X169239000Y-45968893D01*
X169239000Y-45811107D01*
X169269781Y-45656358D01*
X169330162Y-45510586D01*
X169330163Y-45510584D01*
X169417822Y-45379392D01*
X169529392Y-45267822D01*
X169660584Y-45180163D01*
X169660586Y-45180162D01*
X169806358Y-45119781D01*
X169961107Y-45089000D01*
X170118893Y-45089000D01*
X170273642Y-45119781D01*
G37*
G36*
X201863512Y-43893927D02*
G01*
X202012812Y-43923624D01*
X202176784Y-43991544D01*
X202324354Y-44090147D01*
X202449853Y-44215646D01*
X202548456Y-44363216D01*
X202616376Y-44527188D01*
X202646073Y-44676488D01*
X202650530Y-44698893D01*
X202651000Y-44701259D01*
X202651000Y-44878741D01*
X202616376Y-45052812D01*
X202548456Y-45216784D01*
X202449853Y-45364354D01*
X202324354Y-45489853D01*
X202176784Y-45588456D01*
X202012812Y-45656376D01*
X201863512Y-45686073D01*
X201838742Y-45691000D01*
X201661258Y-45691000D01*
X201636488Y-45686073D01*
X201487188Y-45656376D01*
X201323216Y-45588456D01*
X201175646Y-45489853D01*
X201050147Y-45364354D01*
X200951544Y-45216784D01*
X200883624Y-45052812D01*
X200849000Y-44878741D01*
X200849000Y-44701259D01*
X200849471Y-44698893D01*
X200853927Y-44676488D01*
X200883624Y-44527188D01*
X200951544Y-44363216D01*
X201050147Y-44215646D01*
X201175646Y-44090147D01*
X201323216Y-43991544D01*
X201487188Y-43923624D01*
X201636488Y-43893927D01*
X201661258Y-43889000D01*
X201838742Y-43889000D01*
X201863512Y-43893927D01*
G37*
G36*
X167733642Y-43849781D02*
G01*
X167879414Y-43910162D01*
X167879416Y-43910163D01*
X168010608Y-43997822D01*
X168122178Y-44109392D01*
X168209837Y-44240584D01*
X168209838Y-44240586D01*
X168270219Y-44386358D01*
X168301000Y-44541107D01*
X168301000Y-44698893D01*
X168270219Y-44853642D01*
X168259822Y-44878742D01*
X168209837Y-44999416D01*
X168122178Y-45130608D01*
X168010608Y-45242178D01*
X167879416Y-45329837D01*
X167879415Y-45329838D01*
X167879414Y-45329838D01*
X167733642Y-45390219D01*
X167578893Y-45421000D01*
X167421107Y-45421000D01*
X167266358Y-45390219D01*
X167120586Y-45329838D01*
X167120585Y-45329838D01*
X167120584Y-45329837D01*
X166989392Y-45242178D01*
X166877822Y-45130608D01*
X166790163Y-44999416D01*
X166740178Y-44878742D01*
X166729781Y-44853642D01*
X166699000Y-44698893D01*
X166699000Y-44541107D01*
X166729781Y-44386358D01*
X166790162Y-44240586D01*
X166790163Y-44240584D01*
X166877822Y-44109392D01*
X166989392Y-43997822D01*
X167120584Y-43910163D01*
X167120586Y-43910162D01*
X167266358Y-43849781D01*
X167421107Y-43819000D01*
X167578893Y-43819000D01*
X167733642Y-43849781D01*
G37*
G36*
X170273642Y-42579781D02*
G01*
X170419414Y-42640162D01*
X170419416Y-42640163D01*
X170550608Y-42727822D01*
X170662178Y-42839392D01*
X170669412Y-42850219D01*
X170749838Y-42970586D01*
X170810219Y-43116358D01*
X170841000Y-43271107D01*
X170841000Y-43428893D01*
X170810219Y-43583642D01*
X170749838Y-43729414D01*
X170749837Y-43729416D01*
X170662178Y-43860608D01*
X170550608Y-43972178D01*
X170419416Y-44059837D01*
X170419415Y-44059838D01*
X170419414Y-44059838D01*
X170273642Y-44120219D01*
X170118893Y-44151000D01*
X169961107Y-44151000D01*
X169806358Y-44120219D01*
X169660586Y-44059838D01*
X169660585Y-44059838D01*
X169660584Y-44059837D01*
X169529392Y-43972178D01*
X169417822Y-43860608D01*
X169330163Y-43729416D01*
X169330162Y-43729414D01*
X169269781Y-43583642D01*
X169239000Y-43428893D01*
X169239000Y-43271107D01*
X169269781Y-43116358D01*
X169330162Y-42970586D01*
X169410588Y-42850219D01*
X169417822Y-42839392D01*
X169529392Y-42727822D01*
X169660584Y-42640163D01*
X169660586Y-42640162D01*
X169806358Y-42579781D01*
X169961107Y-42549000D01*
X170118893Y-42549000D01*
X170273642Y-42579781D01*
G37*
G36*
X202651000Y-43151000D02*
G01*
X200849000Y-43151000D01*
X200849000Y-41349000D01*
X202651000Y-41349000D01*
X202651000Y-43151000D01*
G37*
G36*
X167733642Y-41309781D02*
G01*
X167879414Y-41370162D01*
X167879416Y-41370163D01*
X168010608Y-41457822D01*
X168122178Y-41569392D01*
X168129412Y-41580219D01*
X168209838Y-41700586D01*
X168270219Y-41846358D01*
X168301000Y-42001107D01*
X168301000Y-42158893D01*
X168270219Y-42313642D01*
X168209838Y-42459414D01*
X168209837Y-42459416D01*
X168122178Y-42590608D01*
X168010608Y-42702178D01*
X167879416Y-42789837D01*
X167879415Y-42789838D01*
X167879414Y-42789838D01*
X167733642Y-42850219D01*
X167578893Y-42881000D01*
X167421107Y-42881000D01*
X167266358Y-42850219D01*
X167120586Y-42789838D01*
X167120585Y-42789838D01*
X167120584Y-42789837D01*
X166989392Y-42702178D01*
X166877822Y-42590608D01*
X166790163Y-42459416D01*
X166790162Y-42459414D01*
X166729781Y-42313642D01*
X166699000Y-42158893D01*
X166699000Y-42001107D01*
X166729781Y-41846358D01*
X166790162Y-41700586D01*
X166870588Y-41580219D01*
X166877822Y-41569392D01*
X166989392Y-41457822D01*
X167120584Y-41370163D01*
X167120586Y-41370162D01*
X167266358Y-41309781D01*
X167421107Y-41279000D01*
X167578893Y-41279000D01*
X167733642Y-41309781D01*
G37*
G36*
X170273642Y-40039781D02*
G01*
X170419414Y-40100162D01*
X170419416Y-40100163D01*
X170550608Y-40187822D01*
X170662178Y-40299392D01*
X170669412Y-40310219D01*
X170749838Y-40430586D01*
X170810219Y-40576358D01*
X170841000Y-40731107D01*
X170841000Y-40888893D01*
X170810219Y-41043642D01*
X170749838Y-41189414D01*
X170749837Y-41189416D01*
X170662178Y-41320608D01*
X170550608Y-41432178D01*
X170419416Y-41519837D01*
X170419415Y-41519838D01*
X170419414Y-41519838D01*
X170273642Y-41580219D01*
X170118893Y-41611000D01*
X169961107Y-41611000D01*
X169806358Y-41580219D01*
X169660586Y-41519838D01*
X169660585Y-41519838D01*
X169660584Y-41519837D01*
X169529392Y-41432178D01*
X169417822Y-41320608D01*
X169330163Y-41189416D01*
X169330162Y-41189414D01*
X169269781Y-41043642D01*
X169239000Y-40888893D01*
X169239000Y-40731107D01*
X169269781Y-40576358D01*
X169330162Y-40430586D01*
X169410588Y-40310219D01*
X169417822Y-40299392D01*
X169529392Y-40187822D01*
X169660584Y-40100163D01*
X169660586Y-40100162D01*
X169806358Y-40039781D01*
X169961107Y-40009000D01*
X170118893Y-40009000D01*
X170273642Y-40039781D01*
G37*
G36*
X194480339Y-35892609D02*
G01*
X194773268Y-35950876D01*
X194973105Y-36033651D01*
X195255718Y-36150713D01*
X195346810Y-36211579D01*
X195689914Y-36440834D01*
X196059166Y-36810086D01*
X196059167Y-36810088D01*
X196349287Y-37244282D01*
X196405917Y-37381000D01*
X196549124Y-37726732D01*
X196571684Y-37840148D01*
X196651000Y-38238898D01*
X196651000Y-38761102D01*
X196642703Y-38802812D01*
X196549124Y-39273268D01*
X196522122Y-39338456D01*
X196349287Y-39755718D01*
X196239907Y-39919416D01*
X196059166Y-40189914D01*
X195689914Y-40559166D01*
X195664184Y-40576358D01*
X195255718Y-40849287D01*
X194973105Y-40966349D01*
X194773268Y-41049124D01*
X194261102Y-41151000D01*
X193738898Y-41151000D01*
X193226732Y-41049124D01*
X193026895Y-40966349D01*
X192744282Y-40849287D01*
X192335816Y-40576358D01*
X192310086Y-40559166D01*
X191940834Y-40189914D01*
X191760093Y-39919416D01*
X191650713Y-39755718D01*
X191477878Y-39338456D01*
X191450876Y-39273268D01*
X191357297Y-38802812D01*
X191349000Y-38761102D01*
X191349000Y-38238898D01*
X191428316Y-37840148D01*
X191450876Y-37726732D01*
X191594083Y-37381000D01*
X191650713Y-37244282D01*
X191940833Y-36810088D01*
X191940834Y-36810086D01*
X192310086Y-36440834D01*
X192653190Y-36211579D01*
X192744282Y-36150713D01*
X193026895Y-36033651D01*
X193226732Y-35950876D01*
X193519661Y-35892609D01*
X193738898Y-35849000D01*
X194261102Y-35849000D01*
X194480339Y-35892609D01*
G37*
G36*
X167733642Y-38769781D02*
G01*
X167879414Y-38830162D01*
X167879416Y-38830163D01*
X168010608Y-38917822D01*
X168122178Y-39029392D01*
X168178947Y-39114354D01*
X168209838Y-39160586D01*
X168270219Y-39306358D01*
X168301000Y-39461107D01*
X168301000Y-39618893D01*
X168270219Y-39773642D01*
X168209838Y-39919414D01*
X168209837Y-39919416D01*
X168122178Y-40050608D01*
X168010608Y-40162178D01*
X167879416Y-40249837D01*
X167879415Y-40249838D01*
X167879414Y-40249838D01*
X167733642Y-40310219D01*
X167578893Y-40341000D01*
X167421107Y-40341000D01*
X167266358Y-40310219D01*
X167120586Y-40249838D01*
X167120585Y-40249838D01*
X167120584Y-40249837D01*
X166989392Y-40162178D01*
X166877822Y-40050608D01*
X166790163Y-39919416D01*
X166790162Y-39919414D01*
X166729781Y-39773642D01*
X166699000Y-39618893D01*
X166699000Y-39461107D01*
X166729781Y-39306358D01*
X166790162Y-39160586D01*
X166821053Y-39114354D01*
X166877822Y-39029392D01*
X166989392Y-38917822D01*
X167120584Y-38830163D01*
X167120586Y-38830162D01*
X167266358Y-38769781D01*
X167421107Y-38739000D01*
X167578893Y-38739000D01*
X167733642Y-38769781D01*
G37*
G36*
X201863512Y-37643927D02*
G01*
X202012812Y-37673624D01*
X202176784Y-37741544D01*
X202324354Y-37840147D01*
X202449853Y-37965646D01*
X202548456Y-38113216D01*
X202616376Y-38277188D01*
X202651000Y-38451259D01*
X202651000Y-38628741D01*
X202616376Y-38802812D01*
X202548456Y-38966784D01*
X202449853Y-39114354D01*
X202324354Y-39239853D01*
X202176784Y-39338456D01*
X202012812Y-39406376D01*
X201863512Y-39436073D01*
X201838742Y-39441000D01*
X201661258Y-39441000D01*
X201636488Y-39436073D01*
X201487188Y-39406376D01*
X201323216Y-39338456D01*
X201175646Y-39239853D01*
X201050147Y-39114354D01*
X200951544Y-38966784D01*
X200883624Y-38802812D01*
X200849000Y-38628741D01*
X200849000Y-38451259D01*
X200883624Y-38277188D01*
X200951544Y-38113216D01*
X201050147Y-37965646D01*
X201175646Y-37840147D01*
X201323216Y-37741544D01*
X201487188Y-37673624D01*
X201636488Y-37643927D01*
X201661258Y-37639000D01*
X201838742Y-37639000D01*
X201863512Y-37643927D01*
G37*
G36*
X170273642Y-37499781D02*
G01*
X170419414Y-37560162D01*
X170419416Y-37560163D01*
X170550608Y-37647822D01*
X170662178Y-37759392D01*
X170689979Y-37801000D01*
X170749838Y-37890586D01*
X170810219Y-38036358D01*
X170841000Y-38191107D01*
X170841000Y-38348893D01*
X170810219Y-38503642D01*
X170749838Y-38649414D01*
X170749837Y-38649416D01*
X170662178Y-38780608D01*
X170550608Y-38892178D01*
X170419416Y-38979837D01*
X170419415Y-38979838D01*
X170419414Y-38979838D01*
X170273642Y-39040219D01*
X170118893Y-39071000D01*
X169961107Y-39071000D01*
X169806358Y-39040219D01*
X169660586Y-38979838D01*
X169660585Y-38979838D01*
X169660584Y-38979837D01*
X169529392Y-38892178D01*
X169417822Y-38780608D01*
X169330163Y-38649416D01*
X169330162Y-38649414D01*
X169269781Y-38503642D01*
X169239000Y-38348893D01*
X169239000Y-38191107D01*
X169269781Y-38036358D01*
X169330162Y-37890586D01*
X169390021Y-37801000D01*
X169417822Y-37759392D01*
X169529392Y-37647822D01*
X169660584Y-37560163D01*
X169660586Y-37560162D01*
X169806358Y-37499781D01*
X169961107Y-37469000D01*
X170118893Y-37469000D01*
X170273642Y-37499781D01*
G37*
G36*
X168301000Y-37801000D02*
G01*
X166699000Y-37801000D01*
X166699000Y-36199000D01*
X168301000Y-36199000D01*
X168301000Y-37801000D01*
G37*
G36*
X161525256Y-34121298D02*
G01*
X161631579Y-34142447D01*
X161932042Y-34266903D01*
X162202451Y-34447585D01*
X162432415Y-34677549D01*
X162613097Y-34947958D01*
X162737553Y-35248421D01*
X162801000Y-35567391D01*
X162801000Y-35892609D01*
X162737553Y-36211579D01*
X162613097Y-36512042D01*
X162432415Y-36782451D01*
X162202451Y-37012415D01*
X161932042Y-37193097D01*
X161631579Y-37317553D01*
X161525256Y-37338702D01*
X161312611Y-37381000D01*
X160987389Y-37381000D01*
X160774744Y-37338702D01*
X160668421Y-37317553D01*
X160367958Y-37193097D01*
X160097549Y-37012415D01*
X159867585Y-36782451D01*
X159686903Y-36512042D01*
X159562447Y-36211579D01*
X159499000Y-35892609D01*
X159499000Y-35567391D01*
X159562447Y-35248421D01*
X159686903Y-34947958D01*
X159867585Y-34677549D01*
X160097549Y-34447585D01*
X160367958Y-34266903D01*
X160668421Y-34142447D01*
X160774744Y-34121298D01*
X160987389Y-34079000D01*
X161312611Y-34079000D01*
X161525256Y-34121298D01*
G37*
G36*
X202651000Y-36901000D02*
G01*
X200849000Y-36901000D01*
X200849000Y-35099000D01*
X202651000Y-35099000D01*
X202651000Y-36901000D01*
G37*
M02*
