G04 #@! TF.GenerationSoftware,KiCad,Pcbnew,5.1.9-73d0e3b20d~88~ubuntu20.04.1*
G04 #@! TF.CreationDate,2021-04-26T21:02:44-06:00*
G04 #@! TF.ProjectId,pole-node,706f6c65-2d6e-46f6-9465-2e6b69636164,rev?*
G04 #@! TF.SameCoordinates,Original*
G04 #@! TF.FileFunction,Legend,Bot*
G04 #@! TF.FilePolarity,Positive*
%FSLAX46Y46*%
G04 Gerber Fmt 4.6, Leading zero omitted, Abs format (unit mm)*
G04 Created by KiCad (PCBNEW 5.1.9-73d0e3b20d~88~ubuntu20.04.1) date 2021-04-26 21:02:44*
%MOMM*%
%LPD*%
G01*
G04 APERTURE LIST*
%ADD10C,0.250000*%
%ADD11C,0.150000*%
G04 APERTURE END LIST*
D10*
X90428571Y-42971428D02*
X90428571Y-44971428D01*
X90428571Y-43066666D02*
X90238095Y-42971428D01*
X89857142Y-42971428D01*
X89666666Y-43066666D01*
X89571428Y-43161904D01*
X89476190Y-43352380D01*
X89476190Y-43923809D01*
X89571428Y-44114285D01*
X89666666Y-44209523D01*
X89857142Y-44304761D01*
X90238095Y-44304761D01*
X90428571Y-44209523D01*
X88333333Y-44304761D02*
X88523809Y-44209523D01*
X88619047Y-44114285D01*
X88714285Y-43923809D01*
X88714285Y-43352380D01*
X88619047Y-43161904D01*
X88523809Y-43066666D01*
X88333333Y-42971428D01*
X88047619Y-42971428D01*
X87857142Y-43066666D01*
X87761904Y-43161904D01*
X87666666Y-43352380D01*
X87666666Y-43923809D01*
X87761904Y-44114285D01*
X87857142Y-44209523D01*
X88047619Y-44304761D01*
X88333333Y-44304761D01*
X86523809Y-44304761D02*
X86714285Y-44209523D01*
X86809523Y-44019047D01*
X86809523Y-42304761D01*
X85000000Y-44209523D02*
X85190476Y-44304761D01*
X85571428Y-44304761D01*
X85761904Y-44209523D01*
X85857142Y-44019047D01*
X85857142Y-43257142D01*
X85761904Y-43066666D01*
X85571428Y-42971428D01*
X85190476Y-42971428D01*
X85000000Y-43066666D01*
X84904761Y-43257142D01*
X84904761Y-43447619D01*
X85857142Y-43638095D01*
X84047619Y-43542857D02*
X82523809Y-43542857D01*
X81571428Y-42971428D02*
X81571428Y-44304761D01*
X81571428Y-43161904D02*
X81476190Y-43066666D01*
X81285714Y-42971428D01*
X81000000Y-42971428D01*
X80809523Y-43066666D01*
X80714285Y-43257142D01*
X80714285Y-44304761D01*
X79476190Y-44304761D02*
X79666666Y-44209523D01*
X79761904Y-44114285D01*
X79857142Y-43923809D01*
X79857142Y-43352380D01*
X79761904Y-43161904D01*
X79666666Y-43066666D01*
X79476190Y-42971428D01*
X79190476Y-42971428D01*
X79000000Y-43066666D01*
X78904761Y-43161904D01*
X78809523Y-43352380D01*
X78809523Y-43923809D01*
X78904761Y-44114285D01*
X79000000Y-44209523D01*
X79190476Y-44304761D01*
X79476190Y-44304761D01*
X77095238Y-44304761D02*
X77095238Y-42304761D01*
X77095238Y-44209523D02*
X77285714Y-44304761D01*
X77666666Y-44304761D01*
X77857142Y-44209523D01*
X77952380Y-44114285D01*
X78047619Y-43923809D01*
X78047619Y-43352380D01*
X77952380Y-43161904D01*
X77857142Y-43066666D01*
X77666666Y-42971428D01*
X77285714Y-42971428D01*
X77095238Y-43066666D01*
X75380952Y-44209523D02*
X75571428Y-44304761D01*
X75952380Y-44304761D01*
X76142857Y-44209523D01*
X76238095Y-44019047D01*
X76238095Y-43257142D01*
X76142857Y-43066666D01*
X75952380Y-42971428D01*
X75571428Y-42971428D01*
X75380952Y-43066666D01*
X75285714Y-43257142D01*
X75285714Y-43447619D01*
X76238095Y-43638095D01*
X73095238Y-42971428D02*
X72619047Y-44304761D01*
X72142857Y-42971428D01*
X70333333Y-44304761D02*
X71476190Y-44304761D01*
X70904761Y-44304761D02*
X70904761Y-42304761D01*
X71095238Y-42590476D01*
X71285714Y-42780952D01*
X71476190Y-42876190D01*
X69476190Y-44114285D02*
X69380952Y-44209523D01*
X69476190Y-44304761D01*
X69571428Y-44209523D01*
X69476190Y-44114285D01*
X69476190Y-44304761D01*
X67476190Y-44304761D02*
X68619047Y-44304761D01*
X68047619Y-44304761D02*
X68047619Y-42304761D01*
X68238095Y-42590476D01*
X68428571Y-42780952D01*
X68619047Y-42876190D01*
D11*
X60738095Y-38600000D02*
X60833333Y-38552380D01*
X60976190Y-38552380D01*
X61119047Y-38600000D01*
X61214285Y-38695238D01*
X61261904Y-38790476D01*
X61309523Y-38980952D01*
X61309523Y-39123809D01*
X61261904Y-39314285D01*
X61214285Y-39409523D01*
X61119047Y-39504761D01*
X60976190Y-39552380D01*
X60880952Y-39552380D01*
X60738095Y-39504761D01*
X60690476Y-39457142D01*
X60690476Y-39123809D01*
X60880952Y-39123809D01*
X44738095Y-73600000D02*
X44833333Y-73552380D01*
X44976190Y-73552380D01*
X45119047Y-73600000D01*
X45214285Y-73695238D01*
X45261904Y-73790476D01*
X45309523Y-73980952D01*
X45309523Y-74123809D01*
X45261904Y-74314285D01*
X45214285Y-74409523D01*
X45119047Y-74504761D01*
X44976190Y-74552380D01*
X44880952Y-74552380D01*
X44738095Y-74504761D01*
X44690476Y-74457142D01*
X44690476Y-74123809D01*
X44880952Y-74123809D01*
X55238095Y-73600000D02*
X55333333Y-73552380D01*
X55476190Y-73552380D01*
X55619047Y-73600000D01*
X55714285Y-73695238D01*
X55761904Y-73790476D01*
X55809523Y-73980952D01*
X55809523Y-74123809D01*
X55761904Y-74314285D01*
X55714285Y-74409523D01*
X55619047Y-74504761D01*
X55476190Y-74552380D01*
X55380952Y-74552380D01*
X55238095Y-74504761D01*
X55190476Y-74457142D01*
X55190476Y-74123809D01*
X55380952Y-74123809D01*
X65838095Y-73700000D02*
X65933333Y-73652380D01*
X66076190Y-73652380D01*
X66219047Y-73700000D01*
X66314285Y-73795238D01*
X66361904Y-73890476D01*
X66409523Y-74080952D01*
X66409523Y-74223809D01*
X66361904Y-74414285D01*
X66314285Y-74509523D01*
X66219047Y-74604761D01*
X66076190Y-74652380D01*
X65980952Y-74652380D01*
X65838095Y-74604761D01*
X65790476Y-74557142D01*
X65790476Y-74223809D01*
X65980952Y-74223809D01*
X75571428Y-51552380D02*
X76142857Y-51552380D01*
X75857142Y-51552380D02*
X75857142Y-50552380D01*
X75952380Y-50695238D01*
X76047619Y-50790476D01*
X76142857Y-50838095D01*
X75190476Y-50647619D02*
X75142857Y-50600000D01*
X75047619Y-50552380D01*
X74809523Y-50552380D01*
X74714285Y-50600000D01*
X74666666Y-50647619D01*
X74619047Y-50742857D01*
X74619047Y-50838095D01*
X74666666Y-50980952D01*
X75238095Y-51552380D01*
X74619047Y-51552380D01*
X74285714Y-50885714D02*
X74047619Y-51552380D01*
X73809523Y-50885714D01*
X82638095Y-50600000D02*
X82733333Y-50552380D01*
X82876190Y-50552380D01*
X83019047Y-50600000D01*
X83114285Y-50695238D01*
X83161904Y-50790476D01*
X83209523Y-50980952D01*
X83209523Y-51123809D01*
X83161904Y-51314285D01*
X83114285Y-51409523D01*
X83019047Y-51504761D01*
X82876190Y-51552380D01*
X82780952Y-51552380D01*
X82638095Y-51504761D01*
X82590476Y-51457142D01*
X82590476Y-51123809D01*
X82780952Y-51123809D01*
X83571428Y-61452380D02*
X84142857Y-61452380D01*
X83857142Y-61452380D02*
X83857142Y-60452380D01*
X83952380Y-60595238D01*
X84047619Y-60690476D01*
X84142857Y-60738095D01*
X83190476Y-60547619D02*
X83142857Y-60500000D01*
X83047619Y-60452380D01*
X82809523Y-60452380D01*
X82714285Y-60500000D01*
X82666666Y-60547619D01*
X82619047Y-60642857D01*
X82619047Y-60738095D01*
X82666666Y-60880952D01*
X83238095Y-61452380D01*
X82619047Y-61452380D01*
X82285714Y-60785714D02*
X82047619Y-61452380D01*
X81809523Y-60785714D01*
X74838095Y-60600000D02*
X74933333Y-60552380D01*
X75076190Y-60552380D01*
X75219047Y-60600000D01*
X75314285Y-60695238D01*
X75361904Y-60790476D01*
X75409523Y-60980952D01*
X75409523Y-61123809D01*
X75361904Y-61314285D01*
X75314285Y-61409523D01*
X75219047Y-61504761D01*
X75076190Y-61552380D01*
X74980952Y-61552380D01*
X74838095Y-61504761D01*
X74790476Y-61457142D01*
X74790476Y-61123809D01*
X74980952Y-61123809D01*
X100085714Y-58047619D02*
X100038095Y-58000000D01*
X99942857Y-57952380D01*
X99704761Y-57952380D01*
X99609523Y-58000000D01*
X99561904Y-58047619D01*
X99514285Y-58142857D01*
X99514285Y-58238095D01*
X99561904Y-58380952D01*
X100133333Y-58952380D01*
X99514285Y-58952380D01*
X98314285Y-64952380D02*
X98885714Y-64952380D01*
X98600000Y-64952380D02*
X98600000Y-63952380D01*
X98695238Y-64095238D01*
X98790476Y-64190476D01*
X98885714Y-64238095D01*
X103185714Y-58047619D02*
X103138095Y-58000000D01*
X103042857Y-57952380D01*
X102804761Y-57952380D01*
X102709523Y-58000000D01*
X102661904Y-58047619D01*
X102614285Y-58142857D01*
X102614285Y-58238095D01*
X102661904Y-58380952D01*
X103233333Y-58952380D01*
X102614285Y-58952380D01*
X101852380Y-58428571D02*
X101709523Y-58476190D01*
X101661904Y-58523809D01*
X101614285Y-58619047D01*
X101614285Y-58761904D01*
X101661904Y-58857142D01*
X101709523Y-58904761D01*
X101804761Y-58952380D01*
X102185714Y-58952380D01*
X102185714Y-57952380D01*
X101852380Y-57952380D01*
X101757142Y-58000000D01*
X101709523Y-58047619D01*
X101661904Y-58142857D01*
X101661904Y-58238095D01*
X101709523Y-58333333D01*
X101757142Y-58380952D01*
X101852380Y-58428571D01*
X102185714Y-58428571D01*
X101914285Y-64147619D02*
X101866666Y-64100000D01*
X101771428Y-64052380D01*
X101533333Y-64052380D01*
X101438095Y-64100000D01*
X101390476Y-64147619D01*
X101342857Y-64242857D01*
X101342857Y-64338095D01*
X101390476Y-64480952D01*
X101961904Y-65052380D01*
X101342857Y-65052380D01*
X100961904Y-64766666D02*
X100485714Y-64766666D01*
X101057142Y-65052380D02*
X100723809Y-64052380D01*
X100390476Y-65052380D01*
X95014285Y-58952380D02*
X95585714Y-58952380D01*
X95300000Y-58952380D02*
X95300000Y-57952380D01*
X95395238Y-58095238D01*
X95490476Y-58190476D01*
X95585714Y-58238095D01*
X94252380Y-58428571D02*
X94109523Y-58476190D01*
X94061904Y-58523809D01*
X94014285Y-58619047D01*
X94014285Y-58761904D01*
X94061904Y-58857142D01*
X94109523Y-58904761D01*
X94204761Y-58952380D01*
X94585714Y-58952380D01*
X94585714Y-57952380D01*
X94252380Y-57952380D01*
X94157142Y-58000000D01*
X94109523Y-58047619D01*
X94061904Y-58142857D01*
X94061904Y-58238095D01*
X94109523Y-58333333D01*
X94157142Y-58380952D01*
X94252380Y-58428571D01*
X94585714Y-58428571D01*
X93642857Y-64952380D02*
X94214285Y-64952380D01*
X93928571Y-64952380D02*
X93928571Y-63952380D01*
X94023809Y-64095238D01*
X94119047Y-64190476D01*
X94214285Y-64238095D01*
X93261904Y-64666666D02*
X92785714Y-64666666D01*
X93357142Y-64952380D02*
X93023809Y-63952380D01*
X92690476Y-64952380D01*
X97038095Y-58000000D02*
X97133333Y-57952380D01*
X97276190Y-57952380D01*
X97419047Y-58000000D01*
X97514285Y-58095238D01*
X97561904Y-58190476D01*
X97609523Y-58380952D01*
X97609523Y-58523809D01*
X97561904Y-58714285D01*
X97514285Y-58809523D01*
X97419047Y-58904761D01*
X97276190Y-58952380D01*
X97180952Y-58952380D01*
X97038095Y-58904761D01*
X96990476Y-58857142D01*
X96990476Y-58523809D01*
X97180952Y-58523809D01*
X95738095Y-64000000D02*
X95833333Y-63952380D01*
X95976190Y-63952380D01*
X96119047Y-64000000D01*
X96214285Y-64095238D01*
X96261904Y-64190476D01*
X96309523Y-64380952D01*
X96309523Y-64523809D01*
X96261904Y-64714285D01*
X96214285Y-64809523D01*
X96119047Y-64904761D01*
X95976190Y-64952380D01*
X95880952Y-64952380D01*
X95738095Y-64904761D01*
X95690476Y-64857142D01*
X95690476Y-64523809D01*
X95880952Y-64523809D01*
X105500000Y-40500000D02*
G75*
G03*
X105500000Y-40500000I-5000000J0D01*
G01*
X48500000Y-40500000D02*
G75*
G03*
X48500000Y-40500000I-5000000J0D01*
G01*
M02*
