G04 #@! TF.GenerationSoftware,KiCad,Pcbnew,7.0.2-6a45011f42~172~ubuntu22.04.1*
G04 #@! TF.CreationDate,2023-05-09T21:58:52-06:00*
G04 #@! TF.ProjectId,pole-node,706f6c65-2d6e-46f6-9465-2e6b69636164,rev?*
G04 #@! TF.SameCoordinates,Original*
G04 #@! TF.FileFunction,Copper,L1,Top*
G04 #@! TF.FilePolarity,Positive*
%FSLAX46Y46*%
G04 Gerber Fmt 4.6, Leading zero omitted, Abs format (unit mm)*
G04 Created by KiCad (PCBNEW 7.0.2-6a45011f42~172~ubuntu22.04.1) date 2023-05-09 21:58:52*
%MOMM*%
%LPD*%
G01*
G04 APERTURE LIST*
G04 Aperture macros list*
%AMRoundRect*
0 Rectangle with rounded corners*
0 $1 Rounding radius*
0 $2 $3 $4 $5 $6 $7 $8 $9 X,Y pos of 4 corners*
0 Add a 4 corners polygon primitive as box body*
4,1,4,$2,$3,$4,$5,$6,$7,$8,$9,$2,$3,0*
0 Add four circle primitives for the rounded corners*
1,1,$1+$1,$2,$3*
1,1,$1+$1,$4,$5*
1,1,$1+$1,$6,$7*
1,1,$1+$1,$8,$9*
0 Add four rect primitives between the rounded corners*
20,1,$1+$1,$2,$3,$4,$5,0*
20,1,$1+$1,$4,$5,$6,$7,0*
20,1,$1+$1,$6,$7,$8,$9,0*
20,1,$1+$1,$8,$9,$2,$3,0*%
G04 Aperture macros list end*
G04 #@! TA.AperFunction,ComponentPad*
%ADD10R,2.000000X2.000000*%
G04 #@! TD*
G04 #@! TA.AperFunction,ComponentPad*
%ADD11C,2.000000*%
G04 #@! TD*
G04 #@! TA.AperFunction,ComponentPad*
%ADD12R,1.700000X1.700000*%
G04 #@! TD*
G04 #@! TA.AperFunction,ComponentPad*
%ADD13O,1.700000X1.700000*%
G04 #@! TD*
G04 #@! TA.AperFunction,ComponentPad*
%ADD14O,6.030000X2.070000*%
G04 #@! TD*
G04 #@! TA.AperFunction,ComponentPad*
%ADD15C,5.200000*%
G04 #@! TD*
G04 #@! TA.AperFunction,ComponentPad*
%ADD16C,0.600000*%
G04 #@! TD*
G04 #@! TA.AperFunction,ComponentPad*
%ADD17R,1.500000X1.500000*%
G04 #@! TD*
G04 #@! TA.AperFunction,ComponentPad*
%ADD18C,1.500000*%
G04 #@! TD*
G04 #@! TA.AperFunction,SMDPad,CuDef*
%ADD19RoundRect,0.218750X-0.218750X-0.256250X0.218750X-0.256250X0.218750X0.256250X-0.218750X0.256250X0*%
G04 #@! TD*
G04 #@! TA.AperFunction,ViaPad*
%ADD20C,0.800000*%
G04 #@! TD*
G04 #@! TA.AperFunction,Conductor*
%ADD21C,0.500000*%
G04 #@! TD*
G04 #@! TA.AperFunction,Conductor*
%ADD22C,0.250000*%
G04 #@! TD*
G04 #@! TA.AperFunction,Conductor*
%ADD23C,2.000000*%
G04 #@! TD*
G04 #@! TA.AperFunction,Conductor*
%ADD24C,3.000000*%
G04 #@! TD*
G04 APERTURE END LIST*
D10*
X52500000Y-65000000D03*
D11*
X52500000Y-60000000D03*
D10*
X115000000Y-65500000D03*
D11*
X115000000Y-60500000D03*
D12*
X128500000Y-72000000D03*
D13*
X125960000Y-72000000D03*
X123420000Y-72000000D03*
D12*
X118000000Y-72000000D03*
D13*
X115460000Y-72000000D03*
X112920000Y-72000000D03*
X49920000Y-71500000D03*
X52460000Y-71500000D03*
D12*
X55000000Y-71500000D03*
X45000000Y-71500000D03*
D13*
X42460000Y-71500000D03*
X39920000Y-71500000D03*
D14*
X79550000Y-59000000D03*
X87450000Y-59000000D03*
X62550000Y-58910000D03*
X70450000Y-58910000D03*
D15*
X124500000Y-56000000D03*
D16*
X124500000Y-52250000D03*
X124500000Y-59750000D03*
X128250000Y-56000000D03*
X120750000Y-56000000D03*
X121850000Y-53350000D03*
X127150000Y-53350000D03*
X121850000Y-58650000D03*
X127150000Y-58650000D03*
X46150000Y-58650000D03*
X40850000Y-58650000D03*
X46150000Y-53350000D03*
X40850000Y-53350000D03*
X39750000Y-56000000D03*
X47250000Y-56000000D03*
X43500000Y-59750000D03*
X43500000Y-52250000D03*
D15*
X43500000Y-56000000D03*
D17*
X96500000Y-63000000D03*
D18*
X97770000Y-60460000D03*
X99040000Y-63000000D03*
X100310000Y-60460000D03*
X101580000Y-63000000D03*
X102850000Y-60460000D03*
X104120000Y-63000000D03*
X105390000Y-60460000D03*
D19*
X39112500Y-65150000D03*
X40687500Y-65150000D03*
D20*
X102900000Y-70300000D03*
X110300000Y-69900000D03*
X91000000Y-67700000D03*
X86900000Y-72600000D03*
X74500000Y-73600000D03*
X71400000Y-69000000D03*
X67600000Y-73100000D03*
X60100000Y-71100000D03*
X89700000Y-64600000D03*
X87400000Y-75900000D03*
X42900000Y-75500000D03*
X52700000Y-74900000D03*
X96700000Y-76200000D03*
X101400000Y-72100000D03*
X119000000Y-70000000D03*
X111500000Y-67100000D03*
X102900000Y-67200000D03*
X48200000Y-66200000D03*
X38700000Y-66800000D03*
X38500000Y-76200000D03*
X38800000Y-51400000D03*
X52900000Y-51100000D03*
X87271927Y-74175500D03*
X92500000Y-59900000D03*
X69700000Y-51300000D03*
X89950000Y-52350000D03*
X100600000Y-73300000D03*
X93700000Y-73500000D03*
X100300000Y-76400000D03*
X113600000Y-74300000D03*
X129200000Y-76400000D03*
X121200000Y-72900000D03*
X128800000Y-51600000D03*
X114600000Y-51600000D03*
X129100000Y-64100000D03*
X39100000Y-61600000D03*
D21*
X89700000Y-64600000D02*
X90600000Y-65500000D01*
X90600000Y-65500000D02*
X115000000Y-65500000D01*
D22*
X87400000Y-75900000D02*
X43300000Y-75900000D01*
X43300000Y-75900000D02*
X42900000Y-75500000D01*
X52700000Y-74900000D02*
X95400000Y-74900000D01*
X95400000Y-74900000D02*
X96700000Y-76200000D01*
X102475000Y-73175000D02*
X109625000Y-73175000D01*
X101400000Y-72100000D02*
X102475000Y-73175000D01*
X109625000Y-73175000D02*
X112800000Y-70000000D01*
X112800000Y-70000000D02*
X119000000Y-70000000D01*
X111500000Y-67100000D02*
X103000000Y-67100000D01*
X103000000Y-67100000D02*
X102900000Y-67200000D01*
X112920000Y-72000000D02*
X114095000Y-70825000D01*
X114095000Y-70825000D02*
X122245000Y-70825000D01*
X122245000Y-70825000D02*
X123420000Y-72000000D01*
D23*
X49920000Y-67580000D02*
X49920000Y-71500000D01*
X52500000Y-65000000D02*
X49920000Y-67580000D01*
D22*
X40837500Y-65000000D02*
X52500000Y-65000000D01*
X39100000Y-63287500D02*
X39112500Y-63300000D01*
X39100000Y-61600000D02*
X39100000Y-63287500D01*
X39112500Y-65150000D02*
X39112500Y-63300000D01*
D24*
X84714990Y-56264990D02*
X87450000Y-59000000D01*
X73095010Y-56264990D02*
X84714990Y-56264990D01*
X70450000Y-58910000D02*
X73095010Y-56264990D01*
G04 #@! TA.AperFunction,Conductor*
G36*
X129505474Y-50025978D02*
G01*
X129658242Y-50039344D01*
X129679866Y-50043157D01*
X129822660Y-50081419D01*
X129843281Y-50088924D01*
X129977265Y-50151402D01*
X129996276Y-50162378D01*
X130117370Y-50247169D01*
X130134194Y-50261287D01*
X130238712Y-50365805D01*
X130252830Y-50382629D01*
X130337618Y-50503718D01*
X130348600Y-50522739D01*
X130411071Y-50656709D01*
X130418583Y-50677348D01*
X130456841Y-50820131D01*
X130460654Y-50841760D01*
X130474020Y-50994525D01*
X130474500Y-51005507D01*
X130474500Y-76494492D01*
X130474020Y-76505474D01*
X130460654Y-76658239D01*
X130456841Y-76679868D01*
X130418583Y-76822651D01*
X130411071Y-76843290D01*
X130348600Y-76977260D01*
X130337618Y-76996281D01*
X130252830Y-77117370D01*
X130238712Y-77134194D01*
X130134194Y-77238712D01*
X130117370Y-77252830D01*
X129996281Y-77337618D01*
X129977260Y-77348600D01*
X129843290Y-77411071D01*
X129822651Y-77418583D01*
X129679868Y-77456841D01*
X129658239Y-77460654D01*
X129505475Y-77474020D01*
X129494493Y-77474500D01*
X38505507Y-77474500D01*
X38494525Y-77474020D01*
X38341760Y-77460654D01*
X38320131Y-77456841D01*
X38203516Y-77425594D01*
X38177346Y-77418582D01*
X38156712Y-77411072D01*
X38022738Y-77348599D01*
X38003718Y-77337618D01*
X37882629Y-77252830D01*
X37865805Y-77238712D01*
X37761287Y-77134194D01*
X37747169Y-77117370D01*
X37728319Y-77090449D01*
X37662378Y-76996276D01*
X37651402Y-76977265D01*
X37588924Y-76843281D01*
X37581419Y-76822660D01*
X37543157Y-76679866D01*
X37539344Y-76658238D01*
X37525979Y-76505473D01*
X37525500Y-76494492D01*
X37525500Y-75500000D01*
X41986496Y-75500000D01*
X42006458Y-75689929D01*
X42065472Y-75871556D01*
X42160958Y-76036942D01*
X42160960Y-76036944D01*
X42288747Y-76178866D01*
X42443248Y-76291118D01*
X42617712Y-76368794D01*
X42804513Y-76408500D01*
X42877619Y-76408500D01*
X42938308Y-76424079D01*
X42942420Y-76426339D01*
X42958959Y-76437202D01*
X42974959Y-76449613D01*
X43015525Y-76467167D01*
X43026188Y-76472391D01*
X43061338Y-76491715D01*
X43064940Y-76493695D01*
X43084562Y-76498733D01*
X43103267Y-76505137D01*
X43121855Y-76513181D01*
X43165522Y-76520096D01*
X43177129Y-76522500D01*
X43219970Y-76533500D01*
X43240231Y-76533500D01*
X43259939Y-76535050D01*
X43279943Y-76538219D01*
X43279943Y-76538218D01*
X43279944Y-76538219D01*
X43323954Y-76534059D01*
X43335811Y-76533500D01*
X86691800Y-76533500D01*
X86759921Y-76553502D01*
X86785435Y-76575188D01*
X86788746Y-76578866D01*
X86876893Y-76642908D01*
X86943248Y-76691118D01*
X87117712Y-76768794D01*
X87304513Y-76808500D01*
X87304515Y-76808500D01*
X87495485Y-76808500D01*
X87495487Y-76808500D01*
X87682288Y-76768794D01*
X87856752Y-76691118D01*
X88011253Y-76578866D01*
X88139040Y-76436944D01*
X88234527Y-76271556D01*
X88293542Y-76089928D01*
X88313504Y-75900000D01*
X88293542Y-75710072D01*
X88289760Y-75698435D01*
X88287734Y-75627468D01*
X88324396Y-75566670D01*
X88388109Y-75535345D01*
X88409594Y-75533500D01*
X95085406Y-75533500D01*
X95153527Y-75553502D01*
X95174501Y-75570405D01*
X95752877Y-76148781D01*
X95786903Y-76211093D01*
X95789092Y-76224705D01*
X95806458Y-76389929D01*
X95865472Y-76571556D01*
X95960958Y-76736942D01*
X95960960Y-76736944D01*
X96088747Y-76878866D01*
X96243248Y-76991118D01*
X96417712Y-77068794D01*
X96604513Y-77108500D01*
X96604515Y-77108500D01*
X96795485Y-77108500D01*
X96795487Y-77108500D01*
X96982288Y-77068794D01*
X97156752Y-76991118D01*
X97311253Y-76878866D01*
X97439040Y-76736944D01*
X97534527Y-76571556D01*
X97593542Y-76389928D01*
X97613504Y-76200000D01*
X97593542Y-76010072D01*
X97534527Y-75828444D01*
X97534527Y-75828443D01*
X97439041Y-75663057D01*
X97311252Y-75521133D01*
X97156753Y-75408883D01*
X97156752Y-75408882D01*
X96982288Y-75331206D01*
X96795487Y-75291500D01*
X96795485Y-75291500D01*
X96739595Y-75291500D01*
X96671474Y-75271498D01*
X96650499Y-75254595D01*
X95907241Y-74511336D01*
X95894169Y-74495019D01*
X95842347Y-74446355D01*
X95839505Y-74443600D01*
X95822574Y-74426669D01*
X95819770Y-74423865D01*
X95816575Y-74421386D01*
X95807554Y-74413682D01*
X95775320Y-74383413D01*
X95757567Y-74373653D01*
X95741041Y-74362797D01*
X95725041Y-74350386D01*
X95684466Y-74332828D01*
X95673804Y-74327604D01*
X95635063Y-74306305D01*
X95621313Y-74302775D01*
X95615437Y-74301266D01*
X95596731Y-74294862D01*
X95578145Y-74286819D01*
X95534475Y-74279902D01*
X95522853Y-74277495D01*
X95480030Y-74266500D01*
X95480029Y-74266500D01*
X95459776Y-74266500D01*
X95440066Y-74264949D01*
X95420057Y-74261779D01*
X95376039Y-74265941D01*
X95364181Y-74266500D01*
X53408200Y-74266500D01*
X53340079Y-74246498D01*
X53314565Y-74224812D01*
X53311253Y-74221133D01*
X53156753Y-74108883D01*
X53156752Y-74108882D01*
X52982288Y-74031206D01*
X52795487Y-73991500D01*
X52604513Y-73991500D01*
X52479978Y-74017970D01*
X52417711Y-74031206D01*
X52243246Y-74108883D01*
X52088747Y-74221133D01*
X51960958Y-74363057D01*
X51865472Y-74528443D01*
X51806458Y-74710070D01*
X51786496Y-74899999D01*
X51806458Y-75089930D01*
X51810239Y-75101564D01*
X51812266Y-75172532D01*
X51775604Y-75233330D01*
X51711891Y-75264655D01*
X51690406Y-75266500D01*
X43870928Y-75266500D01*
X43802807Y-75246498D01*
X43756314Y-75192842D01*
X43751095Y-75179435D01*
X43734527Y-75128444D01*
X43639041Y-74963057D01*
X43511252Y-74821133D01*
X43356753Y-74708883D01*
X43356752Y-74708882D01*
X43182288Y-74631206D01*
X42995487Y-74591500D01*
X42804513Y-74591500D01*
X42679978Y-74617970D01*
X42617711Y-74631206D01*
X42443246Y-74708883D01*
X42288747Y-74821133D01*
X42160958Y-74963057D01*
X42065472Y-75128443D01*
X42006458Y-75310070D01*
X41986496Y-75500000D01*
X37525500Y-75500000D01*
X37525500Y-71500000D01*
X38556844Y-71500000D01*
X38575436Y-71724368D01*
X38575436Y-71724371D01*
X38575437Y-71724372D01*
X38630702Y-71942611D01*
X38630703Y-71942614D01*
X38630704Y-71942616D01*
X38649155Y-71984680D01*
X38721139Y-72148790D01*
X38738701Y-72175670D01*
X38844278Y-72337268D01*
X38903672Y-72401787D01*
X38996762Y-72502908D01*
X39168970Y-72636944D01*
X39174424Y-72641189D01*
X39372426Y-72748342D01*
X39585365Y-72821444D01*
X39807431Y-72858500D01*
X39807434Y-72858500D01*
X40032566Y-72858500D01*
X40032569Y-72858500D01*
X40254635Y-72821444D01*
X40467574Y-72748342D01*
X40665576Y-72641189D01*
X40843240Y-72502906D01*
X40995722Y-72337268D01*
X41084518Y-72201354D01*
X41138521Y-72155268D01*
X41208869Y-72145693D01*
X41273226Y-72175670D01*
X41295480Y-72201353D01*
X41384278Y-72337268D01*
X41443672Y-72401787D01*
X41536762Y-72502908D01*
X41708970Y-72636944D01*
X41714424Y-72641189D01*
X41912426Y-72748342D01*
X42125365Y-72821444D01*
X42347431Y-72858500D01*
X42347434Y-72858500D01*
X42572566Y-72858500D01*
X42572569Y-72858500D01*
X42794635Y-72821444D01*
X43007574Y-72748342D01*
X43205576Y-72641189D01*
X43383240Y-72502906D01*
X43444626Y-72436222D01*
X43505476Y-72399654D01*
X43576440Y-72401787D01*
X43634986Y-72441948D01*
X43655381Y-72477529D01*
X43699554Y-72595963D01*
X43787095Y-72712904D01*
X43904037Y-72800445D01*
X44040906Y-72851494D01*
X44098063Y-72857640D01*
X44104777Y-72858000D01*
X44746000Y-72858000D01*
X44746000Y-71933674D01*
X44857685Y-71984680D01*
X44964237Y-72000000D01*
X45035763Y-72000000D01*
X45142315Y-71984680D01*
X45254000Y-71933674D01*
X45254000Y-72858000D01*
X45895223Y-72858000D01*
X45901936Y-72857640D01*
X45959093Y-72851494D01*
X46095962Y-72800445D01*
X46212904Y-72712904D01*
X46300445Y-72595962D01*
X46351494Y-72459093D01*
X46357640Y-72401936D01*
X46358000Y-72395222D01*
X46358000Y-71754000D01*
X45431116Y-71754000D01*
X45459493Y-71709844D01*
X45500000Y-71571889D01*
X45500000Y-71428111D01*
X45459493Y-71290156D01*
X45431116Y-71246000D01*
X46358000Y-71246000D01*
X46358000Y-70604777D01*
X46357640Y-70598063D01*
X46351494Y-70540906D01*
X46300445Y-70404037D01*
X46212904Y-70287095D01*
X46095962Y-70199554D01*
X45959093Y-70148505D01*
X45901936Y-70142359D01*
X45895223Y-70142000D01*
X45254000Y-70142000D01*
X45254000Y-71066325D01*
X45142315Y-71015320D01*
X45035763Y-71000000D01*
X44964237Y-71000000D01*
X44857685Y-71015320D01*
X44746000Y-71066325D01*
X44746000Y-70142000D01*
X44104777Y-70142000D01*
X44098063Y-70142359D01*
X44040906Y-70148505D01*
X43904037Y-70199554D01*
X43787095Y-70287095D01*
X43699554Y-70404036D01*
X43655381Y-70522470D01*
X43612834Y-70579305D01*
X43546313Y-70604116D01*
X43476939Y-70589024D01*
X43444624Y-70563774D01*
X43383240Y-70497093D01*
X43205578Y-70358812D01*
X43007573Y-70251657D01*
X42855800Y-70199554D01*
X42794635Y-70178556D01*
X42572569Y-70141500D01*
X42347431Y-70141500D01*
X42125365Y-70178556D01*
X42125362Y-70178556D01*
X42125362Y-70178557D01*
X41912426Y-70251657D01*
X41714421Y-70358812D01*
X41536762Y-70497091D01*
X41384278Y-70662731D01*
X41295483Y-70798643D01*
X41241479Y-70844731D01*
X41171131Y-70854306D01*
X41106774Y-70824328D01*
X41084517Y-70798643D01*
X41053820Y-70751658D01*
X40995722Y-70662732D01*
X40843240Y-70497094D01*
X40843239Y-70497093D01*
X40843237Y-70497091D01*
X40665578Y-70358812D01*
X40467573Y-70251657D01*
X40315800Y-70199554D01*
X40254635Y-70178556D01*
X40032569Y-70141500D01*
X39807431Y-70141500D01*
X39585365Y-70178556D01*
X39585362Y-70178556D01*
X39585362Y-70178557D01*
X39372426Y-70251657D01*
X39174421Y-70358812D01*
X38996762Y-70497091D01*
X38844278Y-70662731D01*
X38721139Y-70851209D01*
X38630702Y-71057388D01*
X38575437Y-71275627D01*
X38575436Y-71275632D01*
X38556844Y-71500000D01*
X37525500Y-71500000D01*
X37525500Y-65451523D01*
X38166500Y-65451523D01*
X38166501Y-65454710D01*
X38176676Y-65554314D01*
X38230151Y-65715692D01*
X38268233Y-65777432D01*
X38319402Y-65860390D01*
X38439609Y-65980597D01*
X38439611Y-65980598D01*
X38439613Y-65980600D01*
X38584305Y-66069847D01*
X38584310Y-66069850D01*
X38745686Y-66123324D01*
X38842087Y-66133173D01*
X38842089Y-66133173D01*
X38845289Y-66133500D01*
X39379710Y-66133499D01*
X39479314Y-66123324D01*
X39640692Y-66069849D01*
X39785387Y-65980600D01*
X39810905Y-65955081D01*
X39873215Y-65921057D01*
X39944031Y-65926121D01*
X39989094Y-65955081D01*
X40014613Y-65980600D01*
X40159305Y-66069847D01*
X40159310Y-66069850D01*
X40320686Y-66123324D01*
X40417087Y-66133173D01*
X40417089Y-66133173D01*
X40420289Y-66133500D01*
X40954710Y-66133499D01*
X41054314Y-66123324D01*
X41215692Y-66069849D01*
X41360387Y-65980600D01*
X41480600Y-65860387D01*
X41569849Y-65715692D01*
X41569849Y-65715691D01*
X41577580Y-65703158D01*
X41579299Y-65704218D01*
X41608879Y-65661496D01*
X41674435Y-65634240D01*
X41688070Y-65633500D01*
X49428967Y-65633500D01*
X49497088Y-65653502D01*
X49543581Y-65707158D01*
X49553685Y-65777432D01*
X49524191Y-65842012D01*
X49518062Y-65848596D01*
X48864957Y-66501699D01*
X48863147Y-66503473D01*
X48787198Y-66576424D01*
X48743718Y-66634285D01*
X48738966Y-66640226D01*
X48692055Y-66695377D01*
X48677177Y-66719987D01*
X48672066Y-66728444D01*
X48671660Y-66729115D01*
X48664564Y-66739619D01*
X48640883Y-66771135D01*
X48640881Y-66771137D01*
X48640882Y-66771137D01*
X48607249Y-66835216D01*
X48603513Y-66841840D01*
X48566052Y-66903810D01*
X48551330Y-66940389D01*
X48546011Y-66951896D01*
X48527697Y-66986791D01*
X48504770Y-67055462D01*
X48502145Y-67062600D01*
X48475116Y-67129761D01*
X48466454Y-67168219D01*
X48463050Y-67180429D01*
X48450568Y-67217818D01*
X48438957Y-67289267D01*
X48437510Y-67296740D01*
X48421604Y-67367362D01*
X48419224Y-67406715D01*
X48417822Y-67419317D01*
X48411500Y-67458218D01*
X48411500Y-67530596D01*
X48411270Y-67538204D01*
X48406898Y-67610475D01*
X48410862Y-67649709D01*
X48411500Y-67662374D01*
X48411500Y-71560797D01*
X48411704Y-71563326D01*
X48411705Y-71563346D01*
X48426189Y-71742762D01*
X48426189Y-71742765D01*
X48426190Y-71742768D01*
X48471873Y-71928111D01*
X48484478Y-71979251D01*
X48579944Y-72203316D01*
X48710117Y-72409169D01*
X48827352Y-72541500D01*
X48871625Y-72591474D01*
X49060286Y-72745510D01*
X49271213Y-72867289D01*
X49498943Y-72953656D01*
X49737579Y-73002374D01*
X49980939Y-73012181D01*
X50222720Y-72982823D01*
X50456662Y-72915061D01*
X50676704Y-72810650D01*
X50877148Y-72672293D01*
X51052802Y-72503575D01*
X51180298Y-72333907D01*
X51237212Y-72291465D01*
X51308036Y-72286530D01*
X51370286Y-72320669D01*
X51379779Y-72332380D01*
X51384276Y-72337265D01*
X51384278Y-72337268D01*
X51480644Y-72441948D01*
X51536762Y-72502908D01*
X51708970Y-72636944D01*
X51714424Y-72641189D01*
X51912426Y-72748342D01*
X52125365Y-72821444D01*
X52347431Y-72858500D01*
X52347434Y-72858500D01*
X52572566Y-72858500D01*
X52572569Y-72858500D01*
X52794635Y-72821444D01*
X53007574Y-72748342D01*
X53205576Y-72641189D01*
X53383240Y-72502906D01*
X53444626Y-72436222D01*
X53505476Y-72399654D01*
X53576440Y-72401787D01*
X53634986Y-72441948D01*
X53655381Y-72477529D01*
X53699554Y-72595963D01*
X53787095Y-72712904D01*
X53904037Y-72800445D01*
X54040906Y-72851494D01*
X54098063Y-72857640D01*
X54104777Y-72858000D01*
X54746000Y-72858000D01*
X54745999Y-71933674D01*
X54857685Y-71984680D01*
X54964237Y-72000000D01*
X55035763Y-72000000D01*
X55142315Y-71984680D01*
X55254000Y-71933674D01*
X55254000Y-72858000D01*
X55895223Y-72858000D01*
X55901936Y-72857640D01*
X55959093Y-72851494D01*
X56095962Y-72800445D01*
X56212904Y-72712904D01*
X56300445Y-72595962D01*
X56351494Y-72459093D01*
X56357640Y-72401936D01*
X56358000Y-72395222D01*
X56358000Y-72100000D01*
X100486496Y-72100000D01*
X100506458Y-72289929D01*
X100565472Y-72471556D01*
X100660958Y-72636942D01*
X100692788Y-72672293D01*
X100788747Y-72778866D01*
X100943248Y-72891118D01*
X101117712Y-72968794D01*
X101304513Y-73008500D01*
X101360406Y-73008500D01*
X101428527Y-73028502D01*
X101449501Y-73045405D01*
X101967751Y-73563655D01*
X101980835Y-73579985D01*
X102032666Y-73628657D01*
X102035509Y-73631413D01*
X102055231Y-73651135D01*
X102058359Y-73653561D01*
X102058360Y-73653562D01*
X102058414Y-73653604D01*
X102067446Y-73661317D01*
X102086855Y-73679543D01*
X102099679Y-73691586D01*
X102117432Y-73701346D01*
X102133955Y-73712200D01*
X102149957Y-73724612D01*
X102149960Y-73724614D01*
X102190539Y-73742174D01*
X102201188Y-73747391D01*
X102239935Y-73768693D01*
X102239937Y-73768693D01*
X102239940Y-73768695D01*
X102259574Y-73773736D01*
X102278259Y-73780134D01*
X102296855Y-73788181D01*
X102340530Y-73795098D01*
X102352125Y-73797498D01*
X102394970Y-73808500D01*
X102415224Y-73808500D01*
X102434934Y-73810051D01*
X102454942Y-73813220D01*
X102454942Y-73813219D01*
X102454943Y-73813220D01*
X102498961Y-73809058D01*
X102510819Y-73808500D01*
X109541147Y-73808500D01*
X109561935Y-73810795D01*
X109564907Y-73810701D01*
X109564909Y-73810702D01*
X109632985Y-73808562D01*
X109636945Y-73808500D01*
X109660894Y-73808500D01*
X109664856Y-73808500D01*
X109668856Y-73807994D01*
X109680699Y-73807061D01*
X109724889Y-73805673D01*
X109744338Y-73800021D01*
X109763698Y-73796012D01*
X109783797Y-73793474D01*
X109824915Y-73777193D01*
X109836117Y-73773357D01*
X109878593Y-73761018D01*
X109896039Y-73750699D01*
X109913780Y-73742009D01*
X109932617Y-73734552D01*
X109968392Y-73708558D01*
X109978303Y-73702048D01*
X110016362Y-73679542D01*
X110030691Y-73665212D01*
X110045719Y-73652377D01*
X110062107Y-73640472D01*
X110090303Y-73606386D01*
X110098272Y-73597630D01*
X111397640Y-72298262D01*
X111459951Y-72264238D01*
X111530767Y-72269303D01*
X111587602Y-72311850D01*
X111608878Y-72356428D01*
X111630702Y-72442611D01*
X111630703Y-72442614D01*
X111630704Y-72442616D01*
X111643398Y-72471556D01*
X111721139Y-72648790D01*
X111786180Y-72748342D01*
X111844278Y-72837268D01*
X111965357Y-72968794D01*
X111996762Y-73002908D01*
X112003947Y-73008500D01*
X112174424Y-73141189D01*
X112372426Y-73248342D01*
X112585365Y-73321444D01*
X112807431Y-73358500D01*
X112807434Y-73358500D01*
X113032566Y-73358500D01*
X113032569Y-73358500D01*
X113254635Y-73321444D01*
X113467574Y-73248342D01*
X113665576Y-73141189D01*
X113843240Y-73002906D01*
X113995722Y-72837268D01*
X114084518Y-72701354D01*
X114138521Y-72655268D01*
X114208869Y-72645693D01*
X114273226Y-72675670D01*
X114295480Y-72701353D01*
X114384278Y-72837268D01*
X114505357Y-72968794D01*
X114536762Y-73002908D01*
X114543947Y-73008500D01*
X114714424Y-73141189D01*
X114912426Y-73248342D01*
X115125365Y-73321444D01*
X115347431Y-73358500D01*
X115347434Y-73358500D01*
X115572566Y-73358500D01*
X115572569Y-73358500D01*
X115794635Y-73321444D01*
X116007574Y-73248342D01*
X116205576Y-73141189D01*
X116383240Y-73002906D01*
X116444626Y-72936222D01*
X116505476Y-72899654D01*
X116576440Y-72901787D01*
X116634986Y-72941948D01*
X116655381Y-72977529D01*
X116699554Y-73095963D01*
X116787095Y-73212904D01*
X116904037Y-73300445D01*
X117040906Y-73351494D01*
X117098063Y-73357640D01*
X117104777Y-73358000D01*
X117746000Y-73358000D01*
X117745999Y-72433674D01*
X117857685Y-72484680D01*
X117964237Y-72500000D01*
X118035763Y-72500000D01*
X118142315Y-72484680D01*
X118254000Y-72433674D01*
X118254000Y-73358000D01*
X118895223Y-73358000D01*
X118901936Y-73357640D01*
X118959093Y-73351494D01*
X119095962Y-73300445D01*
X119212904Y-73212904D01*
X119300445Y-73095962D01*
X119351494Y-72959093D01*
X119357640Y-72901936D01*
X119358000Y-72895222D01*
X119358000Y-72254000D01*
X118431116Y-72254000D01*
X118459493Y-72209844D01*
X118500000Y-72071889D01*
X118500000Y-71928111D01*
X118459493Y-71790156D01*
X118431116Y-71746000D01*
X119358000Y-71746000D01*
X119358000Y-71584500D01*
X119378002Y-71516379D01*
X119431658Y-71469886D01*
X119484000Y-71458500D01*
X121930406Y-71458500D01*
X121998527Y-71478502D01*
X122019501Y-71495405D01*
X122070132Y-71546036D01*
X122104158Y-71608348D01*
X122103182Y-71666060D01*
X122075436Y-71775629D01*
X122064296Y-71910070D01*
X122056844Y-72000000D01*
X122075436Y-72224368D01*
X122075436Y-72224371D01*
X122075437Y-72224372D01*
X122130702Y-72442611D01*
X122130703Y-72442614D01*
X122130704Y-72442616D01*
X122143398Y-72471556D01*
X122221139Y-72648790D01*
X122286180Y-72748342D01*
X122344278Y-72837268D01*
X122465357Y-72968794D01*
X122496762Y-73002908D01*
X122503947Y-73008500D01*
X122674424Y-73141189D01*
X122872426Y-73248342D01*
X123085365Y-73321444D01*
X123307431Y-73358500D01*
X123307434Y-73358500D01*
X123532566Y-73358500D01*
X123532569Y-73358500D01*
X123754635Y-73321444D01*
X123967574Y-73248342D01*
X124165576Y-73141189D01*
X124343240Y-73002906D01*
X124495722Y-72837268D01*
X124584518Y-72701354D01*
X124638520Y-72655267D01*
X124708868Y-72645692D01*
X124773226Y-72675669D01*
X124795480Y-72701353D01*
X124884278Y-72837268D01*
X125013399Y-72977529D01*
X125036762Y-73002908D01*
X125043947Y-73008500D01*
X125214424Y-73141189D01*
X125412426Y-73248342D01*
X125625365Y-73321444D01*
X125847431Y-73358500D01*
X125847434Y-73358500D01*
X126072566Y-73358500D01*
X126072569Y-73358500D01*
X126294635Y-73321444D01*
X126507574Y-73248342D01*
X126705576Y-73141189D01*
X126883240Y-73002906D01*
X126944626Y-72936222D01*
X127005476Y-72899654D01*
X127076440Y-72901787D01*
X127134986Y-72941948D01*
X127155381Y-72977529D01*
X127199554Y-73095963D01*
X127287095Y-73212904D01*
X127404037Y-73300445D01*
X127540906Y-73351494D01*
X127598063Y-73357640D01*
X127604777Y-73358000D01*
X128246000Y-73358000D01*
X128246000Y-72433674D01*
X128357685Y-72484680D01*
X128464237Y-72500000D01*
X128535763Y-72500000D01*
X128642315Y-72484680D01*
X128753999Y-72433674D01*
X128754000Y-73358000D01*
X129395223Y-73358000D01*
X129401936Y-73357640D01*
X129459093Y-73351494D01*
X129595962Y-73300445D01*
X129712904Y-73212904D01*
X129800445Y-73095962D01*
X129851494Y-72959093D01*
X129857640Y-72901936D01*
X129858000Y-72895222D01*
X129858000Y-72254000D01*
X128931116Y-72254000D01*
X128959493Y-72209844D01*
X129000000Y-72071889D01*
X129000000Y-71928111D01*
X128959493Y-71790156D01*
X128931116Y-71746000D01*
X129858000Y-71746000D01*
X129858000Y-71104777D01*
X129857640Y-71098063D01*
X129851494Y-71040906D01*
X129800445Y-70904037D01*
X129712904Y-70787095D01*
X129595962Y-70699554D01*
X129459093Y-70648505D01*
X129401936Y-70642359D01*
X129395223Y-70642000D01*
X128754000Y-70642000D01*
X128753999Y-71566325D01*
X128642315Y-71515320D01*
X128535763Y-71500000D01*
X128464237Y-71500000D01*
X128357685Y-71515320D01*
X128246000Y-71566325D01*
X128246000Y-70642000D01*
X127604777Y-70642000D01*
X127598063Y-70642359D01*
X127540906Y-70648505D01*
X127404037Y-70699554D01*
X127287095Y-70787095D01*
X127199554Y-70904036D01*
X127155381Y-71022470D01*
X127112834Y-71079305D01*
X127046313Y-71104116D01*
X126976939Y-71089024D01*
X126944624Y-71063774D01*
X126883240Y-70997093D01*
X126705578Y-70858812D01*
X126507573Y-70751657D01*
X126355800Y-70699554D01*
X126294635Y-70678556D01*
X126072569Y-70641500D01*
X125847431Y-70641500D01*
X125625365Y-70678556D01*
X125625362Y-70678556D01*
X125625362Y-70678557D01*
X125412426Y-70751657D01*
X125214421Y-70858812D01*
X125036762Y-70997091D01*
X124884278Y-71162731D01*
X124859603Y-71200500D01*
X124795481Y-71298645D01*
X124741479Y-71344732D01*
X124671131Y-71354307D01*
X124606774Y-71324330D01*
X124584519Y-71298646D01*
X124495722Y-71162732D01*
X124343240Y-70997094D01*
X124343239Y-70997093D01*
X124343237Y-70997091D01*
X124165578Y-70858812D01*
X123967573Y-70751657D01*
X123815800Y-70699554D01*
X123754635Y-70678556D01*
X123532569Y-70641500D01*
X123307431Y-70641500D01*
X123085365Y-70678556D01*
X123085360Y-70678557D01*
X123075068Y-70680275D01*
X123074529Y-70677046D01*
X123021119Y-70679440D01*
X122962076Y-70646171D01*
X122752244Y-70436339D01*
X122739171Y-70420021D01*
X122687347Y-70371355D01*
X122684505Y-70368600D01*
X122667574Y-70351669D01*
X122664770Y-70348865D01*
X122661575Y-70346386D01*
X122652554Y-70338682D01*
X122620320Y-70308413D01*
X122602567Y-70298653D01*
X122586041Y-70287797D01*
X122570041Y-70275386D01*
X122529466Y-70257828D01*
X122518804Y-70252604D01*
X122480063Y-70231305D01*
X122466313Y-70227775D01*
X122460437Y-70226266D01*
X122441731Y-70219862D01*
X122423145Y-70211819D01*
X122379475Y-70204902D01*
X122367853Y-70202495D01*
X122325030Y-70191500D01*
X122325029Y-70191500D01*
X122304776Y-70191500D01*
X122285066Y-70189949D01*
X122265057Y-70186779D01*
X122221039Y-70190941D01*
X122209181Y-70191500D01*
X120033314Y-70191500D01*
X119965193Y-70171498D01*
X119918700Y-70117842D01*
X119908004Y-70052330D01*
X119908211Y-70050352D01*
X119913504Y-70000000D01*
X119893542Y-69810072D01*
X119834527Y-69628444D01*
X119834527Y-69628443D01*
X119739041Y-69463057D01*
X119611252Y-69321133D01*
X119456753Y-69208883D01*
X119456752Y-69208882D01*
X119282288Y-69131206D01*
X119095487Y-69091500D01*
X118904513Y-69091500D01*
X118779979Y-69117970D01*
X118717711Y-69131206D01*
X118543246Y-69208883D01*
X118388746Y-69321133D01*
X118385435Y-69324812D01*
X118324988Y-69362051D01*
X118291800Y-69366500D01*
X112883853Y-69366500D01*
X112863064Y-69364204D01*
X112792014Y-69366438D01*
X112788055Y-69366500D01*
X112760144Y-69366500D01*
X112756218Y-69366995D01*
X112756200Y-69366997D01*
X112756108Y-69367009D01*
X112744303Y-69367937D01*
X112700111Y-69369326D01*
X112680658Y-69374978D01*
X112661304Y-69378986D01*
X112641205Y-69381525D01*
X112627090Y-69387113D01*
X112600091Y-69397802D01*
X112588874Y-69401643D01*
X112546407Y-69413982D01*
X112528964Y-69424297D01*
X112511217Y-69432990D01*
X112492384Y-69440446D01*
X112456611Y-69466437D01*
X112446693Y-69472951D01*
X112408639Y-69495457D01*
X112394312Y-69509783D01*
X112379283Y-69522618D01*
X112362894Y-69534525D01*
X112334701Y-69568604D01*
X112326713Y-69577381D01*
X109399500Y-72504595D01*
X109337188Y-72538621D01*
X109310405Y-72541500D01*
X102789595Y-72541500D01*
X102721474Y-72521498D01*
X102700499Y-72504595D01*
X102347120Y-72151215D01*
X102313095Y-72088903D01*
X102310908Y-72075306D01*
X102293542Y-71910072D01*
X102254579Y-71790156D01*
X102234527Y-71728443D01*
X102139041Y-71563057D01*
X102011252Y-71421133D01*
X101856753Y-71308883D01*
X101856752Y-71308882D01*
X101682288Y-71231206D01*
X101495487Y-71191500D01*
X101304513Y-71191500D01*
X101179979Y-71217970D01*
X101117711Y-71231206D01*
X100943246Y-71308883D01*
X100788747Y-71421133D01*
X100660958Y-71563057D01*
X100565472Y-71728443D01*
X100506458Y-71910070D01*
X100486496Y-72100000D01*
X56358000Y-72100000D01*
X56358000Y-71754000D01*
X55431116Y-71754000D01*
X55459493Y-71709844D01*
X55500000Y-71571889D01*
X55500000Y-71428111D01*
X55459493Y-71290156D01*
X55431116Y-71246000D01*
X56358000Y-71246000D01*
X56358000Y-70604777D01*
X56357640Y-70598063D01*
X56351494Y-70540906D01*
X56300445Y-70404037D01*
X56212904Y-70287095D01*
X56095962Y-70199554D01*
X55959093Y-70148505D01*
X55901936Y-70142359D01*
X55895223Y-70142000D01*
X55254000Y-70142000D01*
X55254000Y-71066325D01*
X55142315Y-71015320D01*
X55035763Y-71000000D01*
X54964237Y-71000000D01*
X54857685Y-71015320D01*
X54745999Y-71066325D01*
X54746000Y-70142000D01*
X54104777Y-70142000D01*
X54098063Y-70142359D01*
X54040906Y-70148505D01*
X53904037Y-70199554D01*
X53787095Y-70287095D01*
X53699554Y-70404036D01*
X53655381Y-70522470D01*
X53612834Y-70579305D01*
X53546313Y-70604116D01*
X53476939Y-70589024D01*
X53444624Y-70563774D01*
X53383240Y-70497093D01*
X53205578Y-70358812D01*
X53007573Y-70251657D01*
X52855800Y-70199554D01*
X52794635Y-70178556D01*
X52572569Y-70141500D01*
X52347431Y-70141500D01*
X52125365Y-70178556D01*
X52125362Y-70178556D01*
X52125362Y-70178557D01*
X51912426Y-70251657D01*
X51714425Y-70358810D01*
X51679401Y-70386071D01*
X51635783Y-70420021D01*
X51631891Y-70423050D01*
X51565849Y-70449106D01*
X51496203Y-70435321D01*
X51445067Y-70386071D01*
X51428500Y-70323618D01*
X51428500Y-69417766D01*
X93375787Y-69417766D01*
X93405413Y-69687015D01*
X93405414Y-69687018D01*
X93473928Y-69949088D01*
X93517801Y-70052330D01*
X93576704Y-70190941D01*
X93579870Y-70198390D01*
X93720982Y-70429610D01*
X93894255Y-70637820D01*
X93894256Y-70637821D01*
X93894258Y-70637823D01*
X94095993Y-70818578D01*
X94095995Y-70818579D01*
X94095998Y-70818582D01*
X94321910Y-70968044D01*
X94418648Y-71013393D01*
X94567171Y-71083018D01*
X94567173Y-71083018D01*
X94567176Y-71083020D01*
X94826569Y-71161060D01*
X94826572Y-71161060D01*
X94826574Y-71161061D01*
X95094558Y-71200500D01*
X95094561Y-71200500D01*
X95295330Y-71200500D01*
X95297631Y-71200500D01*
X95500156Y-71185677D01*
X95764553Y-71126780D01*
X96017558Y-71030014D01*
X96253777Y-70897441D01*
X96468177Y-70731888D01*
X96656186Y-70536881D01*
X96813799Y-70316579D01*
X96937656Y-70075675D01*
X97025118Y-69819305D01*
X97074319Y-69552933D01*
X97084212Y-69282235D01*
X97054586Y-69012982D01*
X96986072Y-68750912D01*
X96880130Y-68501610D01*
X96739018Y-68270390D01*
X96565745Y-68062180D01*
X96565741Y-68062176D01*
X96364006Y-67881421D01*
X96364003Y-67881419D01*
X96364002Y-67881418D01*
X96138090Y-67731956D01*
X96138086Y-67731954D01*
X95892828Y-67616981D01*
X95633425Y-67538938D01*
X95365442Y-67499500D01*
X95365439Y-67499500D01*
X95162369Y-67499500D01*
X95160099Y-67499666D01*
X95160075Y-67499667D01*
X94959839Y-67514323D01*
X94695449Y-67573219D01*
X94442441Y-67669985D01*
X94206225Y-67802557D01*
X93991820Y-67968114D01*
X93803815Y-68163117D01*
X93646200Y-68383422D01*
X93522342Y-68624328D01*
X93434882Y-68880693D01*
X93385681Y-69147065D01*
X93375787Y-69417766D01*
X51428500Y-69417766D01*
X51428500Y-68257031D01*
X51448502Y-68188910D01*
X51465405Y-68167936D01*
X53087937Y-66545405D01*
X53150249Y-66511379D01*
X53177032Y-66508500D01*
X53545269Y-66508500D01*
X53548638Y-66508500D01*
X53609201Y-66501989D01*
X53746204Y-66450889D01*
X53863261Y-66363261D01*
X53950889Y-66246204D01*
X54001989Y-66109201D01*
X54008500Y-66048638D01*
X54008500Y-65049401D01*
X54008730Y-65041794D01*
X54013102Y-64969524D01*
X54009138Y-64930299D01*
X54008499Y-64917630D01*
X54008499Y-64599999D01*
X88786496Y-64599999D01*
X88806458Y-64789929D01*
X88865472Y-64971556D01*
X88960958Y-65136942D01*
X88960960Y-65136944D01*
X89088747Y-65278866D01*
X89243248Y-65391118D01*
X89417712Y-65468794D01*
X89480771Y-65482197D01*
X89543244Y-65515926D01*
X89543668Y-65516349D01*
X90018092Y-65990773D01*
X90030060Y-66004620D01*
X90044531Y-66024058D01*
X90077814Y-66051986D01*
X90082870Y-66056228D01*
X90090974Y-66063655D01*
X90094899Y-66067580D01*
X90119453Y-66086995D01*
X90122292Y-66089308D01*
X90181382Y-66138890D01*
X90197889Y-66149405D01*
X90267794Y-66182002D01*
X90271094Y-66183600D01*
X90340000Y-66218206D01*
X90358485Y-66224631D01*
X90359791Y-66224900D01*
X90359794Y-66224902D01*
X90434113Y-66240247D01*
X90437525Y-66241003D01*
X90511344Y-66258500D01*
X90511347Y-66258500D01*
X90512642Y-66258807D01*
X90532111Y-66260796D01*
X90533438Y-66260757D01*
X90533442Y-66260758D01*
X90607697Y-66258597D01*
X90609224Y-66258553D01*
X90612888Y-66258500D01*
X102262443Y-66258500D01*
X102330564Y-66278502D01*
X102377057Y-66332158D01*
X102387161Y-66402432D01*
X102357667Y-66467012D01*
X102336504Y-66486436D01*
X102288747Y-66521133D01*
X102160958Y-66663057D01*
X102065472Y-66828443D01*
X102006458Y-67010070D01*
X101986496Y-67200000D01*
X102006458Y-67389929D01*
X102065472Y-67571556D01*
X102160958Y-67736942D01*
X102160960Y-67736944D01*
X102288747Y-67878866D01*
X102443248Y-67991118D01*
X102617712Y-68068794D01*
X102804513Y-68108500D01*
X102804515Y-68108500D01*
X102995485Y-68108500D01*
X102995487Y-68108500D01*
X103182288Y-68068794D01*
X103356752Y-67991118D01*
X103511253Y-67878866D01*
X103579962Y-67802557D01*
X103604604Y-67775190D01*
X103665050Y-67737950D01*
X103698240Y-67733500D01*
X105356320Y-67733500D01*
X105424441Y-67753502D01*
X105470934Y-67807158D01*
X105481038Y-67877432D01*
X105451544Y-67942012D01*
X105433328Y-67959228D01*
X105421824Y-67968110D01*
X105233815Y-68163117D01*
X105076200Y-68383422D01*
X104952342Y-68624328D01*
X104864882Y-68880693D01*
X104815681Y-69147065D01*
X104805787Y-69417766D01*
X104835413Y-69687015D01*
X104835414Y-69687018D01*
X104903928Y-69949088D01*
X104947801Y-70052330D01*
X105006704Y-70190941D01*
X105009870Y-70198390D01*
X105150982Y-70429610D01*
X105324255Y-70637820D01*
X105324256Y-70637821D01*
X105324258Y-70637823D01*
X105525993Y-70818578D01*
X105525995Y-70818579D01*
X105525998Y-70818582D01*
X105751910Y-70968044D01*
X105848648Y-71013393D01*
X105997171Y-71083018D01*
X105997173Y-71083018D01*
X105997176Y-71083020D01*
X106256569Y-71161060D01*
X106256572Y-71161060D01*
X106256574Y-71161061D01*
X106524558Y-71200500D01*
X106524561Y-71200500D01*
X106725330Y-71200500D01*
X106727631Y-71200500D01*
X106930156Y-71185677D01*
X107194553Y-71126780D01*
X107447558Y-71030014D01*
X107683777Y-70897441D01*
X107898177Y-70731888D01*
X108086186Y-70536881D01*
X108243799Y-70316579D01*
X108367656Y-70075675D01*
X108455118Y-69819305D01*
X108504319Y-69552933D01*
X108514212Y-69282235D01*
X108484586Y-69012982D01*
X108416072Y-68750912D01*
X108310130Y-68501610D01*
X108169018Y-68270390D01*
X107995745Y-68062180D01*
X107995741Y-68062176D01*
X107874274Y-67953341D01*
X107836887Y-67892986D01*
X107838066Y-67821999D01*
X107877436Y-67762919D01*
X107942498Y-67734502D01*
X107958356Y-67733500D01*
X110791800Y-67733500D01*
X110859921Y-67753502D01*
X110885435Y-67775188D01*
X110888746Y-67778866D01*
X110921357Y-67802559D01*
X111043248Y-67891118D01*
X111217712Y-67968794D01*
X111404513Y-68008500D01*
X111404515Y-68008500D01*
X111595485Y-68008500D01*
X111595487Y-68008500D01*
X111782288Y-67968794D01*
X111956752Y-67891118D01*
X112111253Y-67778866D01*
X112239040Y-67636944D01*
X112334527Y-67471556D01*
X112393542Y-67289928D01*
X112413504Y-67100000D01*
X112393542Y-66910072D01*
X112334527Y-66728444D01*
X112334527Y-66728443D01*
X112239039Y-66563054D01*
X112154182Y-66468810D01*
X112123464Y-66404803D01*
X112132229Y-66334349D01*
X112177692Y-66279818D01*
X112245419Y-66258523D01*
X112247818Y-66258500D01*
X113365500Y-66258500D01*
X113433621Y-66278502D01*
X113480114Y-66332158D01*
X113491500Y-66384499D01*
X113491500Y-66548638D01*
X113498011Y-66609201D01*
X113523561Y-66677702D01*
X113549111Y-66746205D01*
X113636738Y-66863261D01*
X113753794Y-66950888D01*
X113753795Y-66950888D01*
X113753796Y-66950889D01*
X113890799Y-67001989D01*
X113951362Y-67008500D01*
X113954731Y-67008500D01*
X116045269Y-67008500D01*
X116048638Y-67008500D01*
X116109201Y-67001989D01*
X116246204Y-66950889D01*
X116363261Y-66863261D01*
X116450889Y-66746204D01*
X116501989Y-66609201D01*
X116508500Y-66548638D01*
X116508500Y-64451362D01*
X116501989Y-64390799D01*
X116450889Y-64253796D01*
X116450888Y-64253794D01*
X116363261Y-64136738D01*
X116246205Y-64049111D01*
X116177702Y-64023561D01*
X116109201Y-63998011D01*
X116048638Y-63991500D01*
X113951362Y-63991500D01*
X113948013Y-63991859D01*
X113948013Y-63991860D01*
X113890799Y-63998011D01*
X113753794Y-64049111D01*
X113636738Y-64136738D01*
X113549111Y-64253794D01*
X113511321Y-64355114D01*
X113498011Y-64390799D01*
X113491500Y-64451362D01*
X113491500Y-64454730D01*
X113491500Y-64615500D01*
X113471498Y-64683621D01*
X113417842Y-64730114D01*
X113365500Y-64741500D01*
X90966371Y-64741500D01*
X90898250Y-64721498D01*
X90877276Y-64704595D01*
X90620126Y-64447445D01*
X90589388Y-64397286D01*
X90534527Y-64228444D01*
X90439041Y-64063057D01*
X90311252Y-63921133D01*
X90226010Y-63859201D01*
X90156752Y-63808882D01*
X90133743Y-63798638D01*
X95241500Y-63798638D01*
X95241860Y-63801986D01*
X95248011Y-63859200D01*
X95299111Y-63996205D01*
X95386738Y-64113261D01*
X95503794Y-64200888D01*
X95503795Y-64200888D01*
X95503796Y-64200889D01*
X95640799Y-64251989D01*
X95701362Y-64258500D01*
X95704731Y-64258500D01*
X97295269Y-64258500D01*
X97298638Y-64258500D01*
X97359201Y-64251989D01*
X97496204Y-64200889D01*
X97613261Y-64113261D01*
X97700889Y-63996204D01*
X97751989Y-63859201D01*
X97758500Y-63798638D01*
X97758500Y-63762704D01*
X97778502Y-63694583D01*
X97832158Y-63648090D01*
X97902432Y-63637986D01*
X97967012Y-63667480D01*
X97987713Y-63690433D01*
X97988801Y-63691986D01*
X98656702Y-63024085D01*
X98656062Y-63031814D01*
X98687195Y-63154755D01*
X98756559Y-63260925D01*
X98856639Y-63338821D01*
X98976589Y-63380000D01*
X99019209Y-63380000D01*
X98348012Y-64051196D01*
X98348012Y-64051198D01*
X98408595Y-64093620D01*
X98608094Y-64186649D01*
X98820715Y-64243619D01*
X99040000Y-64262804D01*
X99259284Y-64243619D01*
X99471904Y-64186649D01*
X99671405Y-64093619D01*
X99731986Y-64051198D01*
X99731986Y-64051197D01*
X99060790Y-63380000D01*
X99071486Y-63380000D01*
X99165092Y-63364380D01*
X99276628Y-63304020D01*
X99362522Y-63210714D01*
X99413465Y-63094574D01*
X99419611Y-63020400D01*
X100091196Y-63691986D01*
X100091198Y-63691986D01*
X100133619Y-63631405D01*
X100195529Y-63498639D01*
X100242446Y-63445354D01*
X100310723Y-63425893D01*
X100378683Y-63446435D01*
X100423919Y-63498640D01*
X100485943Y-63631653D01*
X100612253Y-63812041D01*
X100767958Y-63967746D01*
X100767961Y-63967748D01*
X100767962Y-63967749D01*
X100948346Y-64094056D01*
X101147924Y-64187120D01*
X101199310Y-64200889D01*
X101360624Y-64244114D01*
X101360625Y-64244114D01*
X101360629Y-64244115D01*
X101580000Y-64263307D01*
X101799371Y-64244115D01*
X102012076Y-64187120D01*
X102211654Y-64094056D01*
X102392038Y-63967749D01*
X102547749Y-63812038D01*
X102674056Y-63631654D01*
X102735805Y-63499230D01*
X102782722Y-63445945D01*
X102850999Y-63426484D01*
X102918959Y-63447025D01*
X102964195Y-63499231D01*
X103025943Y-63631653D01*
X103152253Y-63812041D01*
X103307958Y-63967746D01*
X103307961Y-63967748D01*
X103307962Y-63967749D01*
X103488346Y-64094056D01*
X103687924Y-64187120D01*
X103739310Y-64200889D01*
X103900624Y-64244114D01*
X103900625Y-64244114D01*
X103900629Y-64244115D01*
X104120000Y-64263307D01*
X104339371Y-64244115D01*
X104552076Y-64187120D01*
X104751654Y-64094056D01*
X104932038Y-63967749D01*
X105087749Y-63812038D01*
X105214056Y-63631654D01*
X105307120Y-63432076D01*
X105364115Y-63219371D01*
X105383307Y-63000000D01*
X105364115Y-62780629D01*
X105352980Y-62739075D01*
X105307120Y-62567925D01*
X105300927Y-62554645D01*
X105214056Y-62368347D01*
X105087749Y-62187962D01*
X105087748Y-62187961D01*
X105087746Y-62187958D01*
X104932041Y-62032253D01*
X104751653Y-61905943D01*
X104552074Y-61812879D01*
X104339375Y-61755885D01*
X104120000Y-61736693D01*
X103900624Y-61755885D01*
X103687925Y-61812879D01*
X103488347Y-61905943D01*
X103307958Y-62032253D01*
X103152253Y-62187958D01*
X103025944Y-62368346D01*
X102964194Y-62500769D01*
X102917276Y-62554054D01*
X102848999Y-62573515D01*
X102781039Y-62552973D01*
X102735805Y-62500769D01*
X102674056Y-62368347D01*
X102547749Y-62187962D01*
X102547748Y-62187961D01*
X102547746Y-62187958D01*
X102392041Y-62032253D01*
X102211653Y-61905943D01*
X102012074Y-61812879D01*
X101799375Y-61755885D01*
X101623874Y-61740531D01*
X101580000Y-61736693D01*
X101579999Y-61736693D01*
X101360624Y-61755885D01*
X101147925Y-61812879D01*
X100948347Y-61905943D01*
X100767958Y-62032253D01*
X100612253Y-62187958D01*
X100485944Y-62368346D01*
X100423919Y-62501360D01*
X100377002Y-62554645D01*
X100308724Y-62574106D01*
X100240764Y-62553564D01*
X100195529Y-62501360D01*
X100133620Y-62368597D01*
X100091198Y-62308012D01*
X100091197Y-62308012D01*
X99423297Y-62975911D01*
X99423938Y-62968186D01*
X99392805Y-62845245D01*
X99323441Y-62739075D01*
X99223361Y-62661179D01*
X99103411Y-62620000D01*
X99060789Y-62620000D01*
X99731986Y-61948801D01*
X99731986Y-61948800D01*
X99671403Y-61906379D01*
X99471905Y-61813350D01*
X99259284Y-61756380D01*
X99040000Y-61737195D01*
X98820715Y-61756380D01*
X98608092Y-61813351D01*
X98408598Y-61906378D01*
X98348011Y-61948801D01*
X99019210Y-62620000D01*
X99008514Y-62620000D01*
X98914908Y-62635620D01*
X98803372Y-62695980D01*
X98717478Y-62789286D01*
X98666535Y-62905426D01*
X98660388Y-62979598D01*
X97988801Y-62308011D01*
X97987714Y-62309565D01*
X97932257Y-62353894D01*
X97861638Y-62361204D01*
X97798277Y-62329173D01*
X97762292Y-62267972D01*
X97758500Y-62237295D01*
X97758500Y-62204730D01*
X97758500Y-62204729D01*
X97758500Y-62201362D01*
X97751989Y-62140799D01*
X97700889Y-62003796D01*
X97700888Y-62003794D01*
X97640233Y-61922768D01*
X97615422Y-61856248D01*
X97630513Y-61786874D01*
X97680716Y-61736672D01*
X97750090Y-61721580D01*
X97751997Y-61721732D01*
X97770000Y-61723307D01*
X97989371Y-61704115D01*
X98202076Y-61647120D01*
X98401654Y-61554056D01*
X98582038Y-61427749D01*
X98737749Y-61272038D01*
X98864056Y-61091654D01*
X98926081Y-60958639D01*
X98972996Y-60905355D01*
X99041274Y-60885894D01*
X99109234Y-60906435D01*
X99154470Y-60958640D01*
X99216379Y-61091403D01*
X99258800Y-61151986D01*
X99258802Y-61151986D01*
X99926702Y-60484085D01*
X99926062Y-60491814D01*
X99957195Y-60614755D01*
X100026559Y-60720925D01*
X100126639Y-60798821D01*
X100246589Y-60840000D01*
X100289209Y-60840000D01*
X99618012Y-61511196D01*
X99618012Y-61511198D01*
X99678595Y-61553620D01*
X99878094Y-61646649D01*
X100090715Y-61703619D01*
X100310000Y-61722804D01*
X100529284Y-61703619D01*
X100741904Y-61646649D01*
X100941405Y-61553619D01*
X101001986Y-61511198D01*
X101001986Y-61511197D01*
X100330790Y-60840000D01*
X100341486Y-60840000D01*
X100435092Y-60824380D01*
X100546628Y-60764020D01*
X100632522Y-60670714D01*
X100683465Y-60554574D01*
X100689611Y-60480400D01*
X101361197Y-61151986D01*
X101361198Y-61151986D01*
X101403619Y-61091405D01*
X101465529Y-60958639D01*
X101512446Y-60905354D01*
X101580723Y-60885893D01*
X101648683Y-60906435D01*
X101693919Y-60958640D01*
X101755943Y-61091653D01*
X101882253Y-61272041D01*
X102037958Y-61427746D01*
X102037961Y-61427748D01*
X102037962Y-61427749D01*
X102218346Y-61554056D01*
X102417924Y-61647120D01*
X102511707Y-61672249D01*
X102630624Y-61704114D01*
X102630625Y-61704114D01*
X102630629Y-61704115D01*
X102850000Y-61723307D01*
X103069371Y-61704115D01*
X103282076Y-61647120D01*
X103481654Y-61554056D01*
X103662038Y-61427749D01*
X103817749Y-61272038D01*
X103944056Y-61091654D01*
X104005805Y-60959230D01*
X104052722Y-60905945D01*
X104120999Y-60886484D01*
X104188959Y-60907025D01*
X104234194Y-60959230D01*
X104235393Y-60961801D01*
X104295943Y-61091653D01*
X104422253Y-61272041D01*
X104577958Y-61427746D01*
X104577961Y-61427748D01*
X104577962Y-61427749D01*
X104758346Y-61554056D01*
X104957924Y-61647120D01*
X105051707Y-61672249D01*
X105170624Y-61704114D01*
X105170625Y-61704114D01*
X105170629Y-61704115D01*
X105390000Y-61723307D01*
X105609371Y-61704115D01*
X105822076Y-61647120D01*
X106021654Y-61554056D01*
X106202038Y-61427749D01*
X106357749Y-61272038D01*
X106484056Y-61091654D01*
X106577120Y-60892076D01*
X106634115Y-60679371D01*
X106649808Y-60500000D01*
X113487337Y-60500000D01*
X113505960Y-60736633D01*
X113561372Y-60967440D01*
X113652208Y-61186738D01*
X113766896Y-61373891D01*
X113766897Y-61373891D01*
X114515638Y-60625150D01*
X114540507Y-60709844D01*
X114618239Y-60830798D01*
X114726900Y-60924952D01*
X114857685Y-60984680D01*
X114872412Y-60986797D01*
X114126107Y-61733101D01*
X114126107Y-61733102D01*
X114313261Y-61847791D01*
X114532559Y-61938627D01*
X114763366Y-61994039D01*
X115000000Y-62012662D01*
X115236633Y-61994039D01*
X115467440Y-61938627D01*
X115686738Y-61847791D01*
X115873891Y-61733102D01*
X115873892Y-61733101D01*
X115127588Y-60986797D01*
X115142315Y-60984680D01*
X115273100Y-60924952D01*
X115381761Y-60830798D01*
X115459493Y-60709844D01*
X115484360Y-60625152D01*
X116233101Y-61373892D01*
X116233102Y-61373891D01*
X116347791Y-61186738D01*
X116438627Y-60967440D01*
X116494039Y-60736633D01*
X116512662Y-60500000D01*
X116494039Y-60263366D01*
X116438627Y-60032559D01*
X116347791Y-59813261D01*
X116233102Y-59626107D01*
X116233101Y-59626107D01*
X115484360Y-60374847D01*
X115459493Y-60290156D01*
X115381761Y-60169202D01*
X115273100Y-60075048D01*
X115142315Y-60015320D01*
X115127587Y-60013202D01*
X115873891Y-59266897D01*
X115873891Y-59266896D01*
X115686738Y-59152208D01*
X115467440Y-59061372D01*
X115236633Y-59005960D01*
X114999999Y-58987337D01*
X114763366Y-59005960D01*
X114532559Y-59061372D01*
X114313264Y-59152207D01*
X114126107Y-59266896D01*
X114126107Y-59266898D01*
X114872411Y-60013202D01*
X114857685Y-60015320D01*
X114726900Y-60075048D01*
X114618239Y-60169202D01*
X114540507Y-60290156D01*
X114515639Y-60374848D01*
X113766898Y-59626107D01*
X113766896Y-59626107D01*
X113652207Y-59813264D01*
X113561372Y-60032559D01*
X113505960Y-60263366D01*
X113487337Y-60500000D01*
X106649808Y-60500000D01*
X106653307Y-60460000D01*
X106634115Y-60240629D01*
X106633398Y-60237954D01*
X106589117Y-60072696D01*
X106577120Y-60027924D01*
X106484056Y-59828347D01*
X106357749Y-59647962D01*
X106357748Y-59647961D01*
X106357746Y-59647958D01*
X106202041Y-59492253D01*
X106021653Y-59365943D01*
X105822074Y-59272879D01*
X105609375Y-59215885D01*
X105390000Y-59196693D01*
X105170624Y-59215885D01*
X104957925Y-59272879D01*
X104758347Y-59365943D01*
X104577958Y-59492253D01*
X104422253Y-59647958D01*
X104295944Y-59828345D01*
X104234195Y-59960769D01*
X104187278Y-60014054D01*
X104119001Y-60033515D01*
X104051041Y-60012973D01*
X104005805Y-59960769D01*
X103991946Y-59931049D01*
X103944056Y-59828347D01*
X103917314Y-59790156D01*
X103817746Y-59647958D01*
X103662041Y-59492253D01*
X103481653Y-59365943D01*
X103282074Y-59272879D01*
X103069375Y-59215885D01*
X102850000Y-59196693D01*
X102630624Y-59215885D01*
X102417925Y-59272879D01*
X102218347Y-59365943D01*
X102037958Y-59492253D01*
X101882253Y-59647958D01*
X101755944Y-59828346D01*
X101693919Y-59961360D01*
X101647002Y-60014645D01*
X101578724Y-60034106D01*
X101510764Y-60013564D01*
X101465529Y-59961360D01*
X101403620Y-59828597D01*
X101361198Y-59768012D01*
X101361196Y-59768012D01*
X100693297Y-60435910D01*
X100693938Y-60428186D01*
X100662805Y-60305245D01*
X100593441Y-60199075D01*
X100493361Y-60121179D01*
X100373411Y-60080000D01*
X100330789Y-60080000D01*
X101001986Y-59408801D01*
X101001986Y-59408800D01*
X100941403Y-59366379D01*
X100741905Y-59273350D01*
X100529284Y-59216380D01*
X100310000Y-59197195D01*
X100090715Y-59216380D01*
X99878092Y-59273351D01*
X99678598Y-59366378D01*
X99618011Y-59408801D01*
X100289210Y-60080000D01*
X100278514Y-60080000D01*
X100184908Y-60095620D01*
X100073372Y-60155980D01*
X99987478Y-60249286D01*
X99936535Y-60365426D01*
X99930388Y-60439598D01*
X99258800Y-59768011D01*
X99216378Y-59828598D01*
X99154469Y-59961361D01*
X99107552Y-60014646D01*
X99039274Y-60034106D01*
X98971314Y-60013564D01*
X98926080Y-59961359D01*
X98911946Y-59931049D01*
X98864056Y-59828347D01*
X98737749Y-59647962D01*
X98737748Y-59647961D01*
X98737746Y-59647958D01*
X98582041Y-59492253D01*
X98401653Y-59365943D01*
X98202074Y-59272879D01*
X97989375Y-59215885D01*
X97813874Y-59200531D01*
X97770000Y-59196693D01*
X97769999Y-59196693D01*
X97550624Y-59215885D01*
X97337925Y-59272879D01*
X97138347Y-59365943D01*
X96957958Y-59492253D01*
X96802253Y-59647958D01*
X96675943Y-59828347D01*
X96582879Y-60027925D01*
X96525885Y-60240624D01*
X96506693Y-60459999D01*
X96525885Y-60679375D01*
X96582879Y-60892074D01*
X96675943Y-61091653D01*
X96802253Y-61272041D01*
X96957958Y-61427746D01*
X96957961Y-61427748D01*
X96957962Y-61427749D01*
X97052633Y-61494039D01*
X97078694Y-61512287D01*
X97123022Y-61567744D01*
X97130331Y-61638364D01*
X97098300Y-61701724D01*
X97037099Y-61737709D01*
X97006423Y-61741500D01*
X95701362Y-61741500D01*
X95698013Y-61741859D01*
X95698013Y-61741860D01*
X95640799Y-61748011D01*
X95503794Y-61799111D01*
X95386738Y-61886738D01*
X95299111Y-62003794D01*
X95249450Y-62136942D01*
X95248011Y-62140799D01*
X95241500Y-62201362D01*
X95241500Y-63798638D01*
X90133743Y-63798638D01*
X89982288Y-63731206D01*
X89795487Y-63691500D01*
X89604513Y-63691500D01*
X89479978Y-63717970D01*
X89417711Y-63731206D01*
X89243246Y-63808883D01*
X89088747Y-63921133D01*
X88960958Y-64063057D01*
X88865472Y-64228443D01*
X88806458Y-64410070D01*
X88786496Y-64599999D01*
X54008499Y-64599999D01*
X54008499Y-64439611D01*
X54008500Y-63951362D01*
X54001989Y-63890799D01*
X53950889Y-63753796D01*
X53950888Y-63753794D01*
X53863261Y-63636738D01*
X53746205Y-63549111D01*
X53677702Y-63523561D01*
X53609201Y-63498011D01*
X53548638Y-63491500D01*
X53545269Y-63491500D01*
X52516457Y-63491500D01*
X52513919Y-63491474D01*
X52408623Y-63489352D01*
X52402301Y-63490250D01*
X52384599Y-63491500D01*
X51451362Y-63491500D01*
X51448013Y-63491859D01*
X51448013Y-63491860D01*
X51390799Y-63498011D01*
X51253794Y-63549111D01*
X51136738Y-63636738D01*
X51049111Y-63753794D01*
X50998010Y-63890798D01*
X50998011Y-63890799D01*
X50991500Y-63951362D01*
X50991500Y-63954730D01*
X50991500Y-64240500D01*
X50971498Y-64308621D01*
X50917842Y-64355114D01*
X50865500Y-64366500D01*
X41459678Y-64366500D01*
X41391557Y-64346498D01*
X41370583Y-64329595D01*
X41360390Y-64319402D01*
X41342911Y-64308621D01*
X41255335Y-64254603D01*
X41215689Y-64230149D01*
X41054313Y-64176675D01*
X40957912Y-64166826D01*
X40957891Y-64166824D01*
X40954711Y-64166500D01*
X40951505Y-64166500D01*
X40423495Y-64166500D01*
X40423475Y-64166500D01*
X40420290Y-64166501D01*
X40417111Y-64166825D01*
X40417106Y-64166826D01*
X40320696Y-64176675D01*
X40320686Y-64176676D01*
X40159308Y-64230151D01*
X40105554Y-64263307D01*
X40014611Y-64319401D01*
X39989093Y-64344919D01*
X39926781Y-64378943D01*
X39855965Y-64373877D01*
X39810904Y-64344917D01*
X39785387Y-64319400D01*
X39785386Y-64319399D01*
X39782903Y-64316916D01*
X39748879Y-64254603D01*
X39746000Y-64227822D01*
X39746000Y-63383853D01*
X39748295Y-63363062D01*
X39747048Y-63323391D01*
X39746062Y-63292000D01*
X39746000Y-63288042D01*
X39746000Y-63264108D01*
X39746000Y-63260144D01*
X39745495Y-63256152D01*
X39744562Y-63244306D01*
X39743174Y-63200111D01*
X39738503Y-63184032D01*
X39733500Y-63148880D01*
X39733500Y-62302524D01*
X39753502Y-62234403D01*
X39765858Y-62218220D01*
X39839040Y-62136944D01*
X39934527Y-61971556D01*
X39993542Y-61789928D01*
X40013504Y-61600000D01*
X39993542Y-61410072D01*
X39948692Y-61272038D01*
X39934527Y-61228443D01*
X39839041Y-61063057D01*
X39745024Y-60958641D01*
X39711253Y-60921134D01*
X39693723Y-60908398D01*
X39591119Y-60833851D01*
X39556752Y-60808882D01*
X39382288Y-60731206D01*
X39195487Y-60691500D01*
X39004513Y-60691500D01*
X38918212Y-60709844D01*
X38817711Y-60731206D01*
X38746703Y-60762821D01*
X38665846Y-60798821D01*
X38643246Y-60808883D01*
X38488747Y-60921133D01*
X38360958Y-61063057D01*
X38265472Y-61228443D01*
X38206458Y-61410070D01*
X38186496Y-61600000D01*
X38206458Y-61789929D01*
X38265472Y-61971556D01*
X38360958Y-62136942D01*
X38360960Y-62136944D01*
X38434137Y-62218215D01*
X38464853Y-62282220D01*
X38466500Y-62302524D01*
X38466500Y-63203647D01*
X38464204Y-63224435D01*
X38466438Y-63295484D01*
X38466500Y-63299443D01*
X38466500Y-63327356D01*
X38466995Y-63331274D01*
X38466997Y-63331306D01*
X38467008Y-63331388D01*
X38467937Y-63343197D01*
X38469326Y-63387387D01*
X38473997Y-63403462D01*
X38479000Y-63438616D01*
X38479000Y-64227821D01*
X38458998Y-64295942D01*
X38442096Y-64316916D01*
X38319401Y-64439611D01*
X38230149Y-64584310D01*
X38176675Y-64745686D01*
X38166826Y-64842087D01*
X38166824Y-64842109D01*
X38166500Y-64845289D01*
X38166500Y-64848493D01*
X38166500Y-64848494D01*
X38166500Y-65451504D01*
X38166500Y-65451523D01*
X37525500Y-65451523D01*
X37525500Y-56000000D01*
X38936384Y-56000000D01*
X38956783Y-56181049D01*
X39016956Y-56353014D01*
X39113889Y-56507282D01*
X39242717Y-56636110D01*
X39332932Y-56692796D01*
X39396985Y-56733043D01*
X39568953Y-56793217D01*
X39750000Y-56813616D01*
X39931047Y-56793217D01*
X40103015Y-56733043D01*
X40213866Y-56663390D01*
X40269302Y-56628558D01*
X40270342Y-56630214D01*
X40316864Y-56604807D01*
X40387680Y-56609867D01*
X40444519Y-56652410D01*
X40464731Y-56693044D01*
X40560333Y-57024884D01*
X40560342Y-57024912D01*
X40561316Y-57028290D01*
X40562666Y-57031549D01*
X40562667Y-57031552D01*
X40686119Y-57329595D01*
X40694925Y-57350853D01*
X40696635Y-57353947D01*
X40696636Y-57353949D01*
X40863811Y-57656428D01*
X40862135Y-57653586D01*
X40881332Y-57721552D01*
X40860628Y-57789463D01*
X40806496Y-57835400D01*
X40769447Y-57845460D01*
X40668950Y-57856783D01*
X40496985Y-57916956D01*
X40342717Y-58013889D01*
X40213889Y-58142717D01*
X40116956Y-58296985D01*
X40056783Y-58468950D01*
X40036384Y-58650000D01*
X40056783Y-58831049D01*
X40116956Y-59003014D01*
X40213889Y-59157282D01*
X40342717Y-59286110D01*
X40496985Y-59383043D01*
X40570594Y-59408800D01*
X40668953Y-59443217D01*
X40850000Y-59463616D01*
X41031047Y-59443217D01*
X41203015Y-59383043D01*
X41357281Y-59286111D01*
X41486111Y-59157281D01*
X41583043Y-59003015D01*
X41643217Y-58831047D01*
X41654540Y-58730550D01*
X41682042Y-58665100D01*
X41740566Y-58624907D01*
X41811529Y-58622734D01*
X41846079Y-58637668D01*
X41843572Y-58636189D01*
X42149147Y-58805075D01*
X42471710Y-58938684D01*
X42475095Y-58939659D01*
X42475103Y-58939662D01*
X42806954Y-59035267D01*
X42866876Y-59073346D01*
X42896697Y-59137776D01*
X42886952Y-59208100D01*
X42871376Y-59230657D01*
X42871442Y-59230698D01*
X42766956Y-59396985D01*
X42706783Y-59568950D01*
X42686384Y-59750000D01*
X42706783Y-59931049D01*
X42766956Y-60103014D01*
X42863889Y-60257282D01*
X42992717Y-60386110D01*
X43146985Y-60483043D01*
X43205516Y-60503524D01*
X43318953Y-60543217D01*
X43500000Y-60563616D01*
X43681047Y-60543217D01*
X43853015Y-60483043D01*
X44007281Y-60386111D01*
X44136111Y-60257281D01*
X44233043Y-60103015D01*
X44269089Y-60000000D01*
X50987337Y-60000000D01*
X51005960Y-60236633D01*
X51061372Y-60467440D01*
X51152208Y-60686738D01*
X51266896Y-60873891D01*
X51266897Y-60873891D01*
X52015638Y-60125150D01*
X52040507Y-60209844D01*
X52118239Y-60330798D01*
X52226900Y-60424952D01*
X52357685Y-60484680D01*
X52372412Y-60486797D01*
X51626107Y-61233101D01*
X51626107Y-61233102D01*
X51813261Y-61347791D01*
X52032559Y-61438627D01*
X52263366Y-61494039D01*
X52500000Y-61512662D01*
X52736633Y-61494039D01*
X52967440Y-61438627D01*
X53186738Y-61347791D01*
X53373891Y-61233102D01*
X53373892Y-61233101D01*
X52627588Y-60486797D01*
X52642315Y-60484680D01*
X52773100Y-60424952D01*
X52881761Y-60330798D01*
X52959493Y-60209844D01*
X52984361Y-60125150D01*
X53733102Y-60873892D01*
X53733102Y-60873891D01*
X53847791Y-60686738D01*
X53938627Y-60467440D01*
X53994039Y-60236633D01*
X54012662Y-60000000D01*
X53994039Y-59763366D01*
X53938627Y-59532559D01*
X53847791Y-59313261D01*
X53756323Y-59164000D01*
X59046508Y-59164000D01*
X59053263Y-59219642D01*
X59122575Y-59458934D01*
X59229375Y-59684010D01*
X59370897Y-59889040D01*
X59543471Y-60068708D01*
X59742637Y-60218372D01*
X59963223Y-60334145D01*
X60199538Y-60413038D01*
X60445434Y-60453000D01*
X62296000Y-60453000D01*
X62296000Y-59545000D01*
X62804000Y-59545000D01*
X62804000Y-60453000D01*
X64589635Y-60453000D01*
X64594734Y-60452794D01*
X64778315Y-60437974D01*
X65020208Y-60378352D01*
X65249401Y-60280703D01*
X65459965Y-60147549D01*
X65646434Y-59982352D01*
X65803994Y-59789376D01*
X65928558Y-59573625D01*
X66016900Y-59340689D01*
X66052972Y-59164000D01*
X65112268Y-59164000D01*
X65138721Y-59107785D01*
X65164556Y-58972355D01*
X66922735Y-58972355D01*
X66945190Y-59157282D01*
X66952774Y-59219744D01*
X67022108Y-59459113D01*
X67076546Y-59573839D01*
X67128941Y-59684261D01*
X67270509Y-59889357D01*
X67409543Y-60034106D01*
X67443141Y-60069085D01*
X67642368Y-60218795D01*
X67863031Y-60334607D01*
X68097959Y-60413038D01*
X68099418Y-60413525D01*
X68345394Y-60453500D01*
X68345396Y-60453500D01*
X69112906Y-60453500D01*
X69181027Y-60473502D01*
X69185167Y-60476280D01*
X69413020Y-60635825D01*
X69663300Y-60763350D01*
X69928892Y-60854800D01*
X70204628Y-60908398D01*
X70485138Y-60923098D01*
X70764966Y-60898617D01*
X71038663Y-60835428D01*
X71300902Y-60734765D01*
X71546579Y-60598583D01*
X71705441Y-60478871D01*
X71771883Y-60453850D01*
X71781270Y-60453500D01*
X72489646Y-60453500D01*
X72492196Y-60453500D01*
X72678400Y-60438468D01*
X72920367Y-60378829D01*
X73149634Y-60281147D01*
X73360262Y-60147954D01*
X73546797Y-59982698D01*
X73704408Y-59789660D01*
X73829012Y-59573839D01*
X73917382Y-59340826D01*
X73967231Y-59096654D01*
X73977265Y-58847647D01*
X73947226Y-58600256D01*
X73912194Y-58479310D01*
X73899228Y-58434545D01*
X73899488Y-58363549D01*
X73938090Y-58303964D01*
X74002779Y-58274708D01*
X74020253Y-58273490D01*
X76012748Y-58273490D01*
X76080869Y-58293492D01*
X76127362Y-58347148D01*
X76137466Y-58417422D01*
X76130560Y-58444171D01*
X76083099Y-58569313D01*
X76047027Y-58746000D01*
X76987732Y-58746000D01*
X76961279Y-58802215D01*
X76931216Y-58959811D01*
X76941290Y-59119933D01*
X76984851Y-59254000D01*
X76046508Y-59254000D01*
X76053263Y-59309642D01*
X76122575Y-59548934D01*
X76229375Y-59774010D01*
X76370897Y-59979040D01*
X76543471Y-60158708D01*
X76742637Y-60308372D01*
X76963223Y-60424145D01*
X77199538Y-60503038D01*
X77445434Y-60543000D01*
X79296000Y-60543000D01*
X79296000Y-59635000D01*
X79804000Y-59635000D01*
X79804000Y-60543000D01*
X81589635Y-60543000D01*
X81594734Y-60542794D01*
X81778315Y-60527974D01*
X82020208Y-60468352D01*
X82249401Y-60370703D01*
X82459965Y-60237549D01*
X82646434Y-60072352D01*
X82803994Y-59879376D01*
X82928558Y-59663625D01*
X83016900Y-59430689D01*
X83052972Y-59254000D01*
X82112268Y-59254000D01*
X82138721Y-59197785D01*
X82168784Y-59040189D01*
X82158710Y-58880067D01*
X82115149Y-58746000D01*
X83053491Y-58746000D01*
X83046736Y-58690357D01*
X82974594Y-58441295D01*
X82976552Y-58440727D01*
X82967451Y-58383380D01*
X82995999Y-58318376D01*
X83055158Y-58279125D01*
X83092417Y-58273490D01*
X83830852Y-58273490D01*
X83898973Y-58293492D01*
X83919947Y-58310395D01*
X83978936Y-58369384D01*
X84012962Y-58431696D01*
X84007897Y-58502511D01*
X84007654Y-58503158D01*
X83982618Y-58569173D01*
X83968673Y-58637481D01*
X83932769Y-58813346D01*
X83923827Y-59035267D01*
X83922735Y-59062355D01*
X83948254Y-59272519D01*
X83952774Y-59309744D01*
X84022108Y-59549113D01*
X84076546Y-59663839D01*
X84128941Y-59774261D01*
X84270509Y-59979357D01*
X84442779Y-60158708D01*
X84443141Y-60159085D01*
X84642368Y-60308795D01*
X84863031Y-60424607D01*
X85088856Y-60499999D01*
X85099418Y-60503525D01*
X85345394Y-60543500D01*
X85345396Y-60543500D01*
X86117020Y-60543500D01*
X86185141Y-60563502D01*
X86199684Y-60574406D01*
X86238302Y-60607977D01*
X86473882Y-60760964D01*
X86728460Y-60879676D01*
X86997082Y-60961801D01*
X87001423Y-60962488D01*
X87001425Y-60962489D01*
X87032684Y-60967440D01*
X87274520Y-61005744D01*
X87555374Y-61010646D01*
X87834175Y-60976413D01*
X88105500Y-60903712D01*
X88364067Y-60793957D01*
X88604842Y-60649285D01*
X88700799Y-60571579D01*
X88766327Y-60544254D01*
X88780094Y-60543500D01*
X89489646Y-60543500D01*
X89492196Y-60543500D01*
X89678400Y-60528468D01*
X89920367Y-60468829D01*
X90149634Y-60371147D01*
X90360262Y-60237954D01*
X90546797Y-60072698D01*
X90704408Y-59879660D01*
X90829012Y-59663839D01*
X90917382Y-59430826D01*
X90967231Y-59186654D01*
X90977265Y-58937647D01*
X90947226Y-58690256D01*
X90877892Y-58450887D01*
X90771059Y-58225740D01*
X90713752Y-58142717D01*
X90629490Y-58020642D01*
X90456863Y-57840919D01*
X90456862Y-57840918D01*
X90456859Y-57840915D01*
X90257632Y-57691205D01*
X90036969Y-57575393D01*
X90036968Y-57575392D01*
X90036967Y-57575392D01*
X89800581Y-57496474D01*
X89554606Y-57456500D01*
X89554604Y-57456500D01*
X88799138Y-57456500D01*
X88731017Y-57436498D01*
X88710043Y-57419595D01*
X87290448Y-56000000D01*
X119936384Y-56000000D01*
X119956783Y-56181049D01*
X120016956Y-56353014D01*
X120113889Y-56507282D01*
X120242717Y-56636110D01*
X120332932Y-56692796D01*
X120396985Y-56733043D01*
X120568953Y-56793217D01*
X120750000Y-56813616D01*
X120931047Y-56793217D01*
X121103015Y-56733043D01*
X121213866Y-56663390D01*
X121269302Y-56628558D01*
X121270342Y-56630214D01*
X121316864Y-56604807D01*
X121387680Y-56609867D01*
X121444519Y-56652410D01*
X121464731Y-56693044D01*
X121560333Y-57024884D01*
X121560342Y-57024912D01*
X121561316Y-57028290D01*
X121562666Y-57031549D01*
X121562667Y-57031552D01*
X121686119Y-57329595D01*
X121694925Y-57350853D01*
X121696635Y-57353947D01*
X121696636Y-57353949D01*
X121863811Y-57656428D01*
X121862135Y-57653586D01*
X121881332Y-57721552D01*
X121860628Y-57789463D01*
X121806496Y-57835400D01*
X121769447Y-57845460D01*
X121668950Y-57856783D01*
X121496985Y-57916956D01*
X121342717Y-58013889D01*
X121213889Y-58142717D01*
X121116956Y-58296985D01*
X121056783Y-58468950D01*
X121036384Y-58649999D01*
X121056783Y-58831049D01*
X121116956Y-59003014D01*
X121213889Y-59157282D01*
X121342717Y-59286110D01*
X121496985Y-59383043D01*
X121570594Y-59408800D01*
X121668953Y-59443217D01*
X121850000Y-59463616D01*
X122031047Y-59443217D01*
X122203015Y-59383043D01*
X122357281Y-59286111D01*
X122486111Y-59157281D01*
X122583043Y-59003015D01*
X122643217Y-58831047D01*
X122654540Y-58730550D01*
X122682042Y-58665100D01*
X122740566Y-58624907D01*
X122811529Y-58622734D01*
X122846079Y-58637668D01*
X122843572Y-58636189D01*
X123149147Y-58805075D01*
X123471710Y-58938684D01*
X123475095Y-58939659D01*
X123475103Y-58939662D01*
X123806954Y-59035267D01*
X123866876Y-59073346D01*
X123896697Y-59137776D01*
X123886952Y-59208100D01*
X123871376Y-59230657D01*
X123871442Y-59230698D01*
X123766956Y-59396985D01*
X123706783Y-59568950D01*
X123693819Y-59684010D01*
X123686384Y-59750000D01*
X123693183Y-59810349D01*
X123706783Y-59931049D01*
X123766956Y-60103014D01*
X123863889Y-60257282D01*
X123992717Y-60386110D01*
X124146985Y-60483043D01*
X124205516Y-60503524D01*
X124318953Y-60543217D01*
X124500000Y-60563616D01*
X124681047Y-60543217D01*
X124853015Y-60483043D01*
X125007281Y-60386111D01*
X125136111Y-60257281D01*
X125233043Y-60103015D01*
X125293217Y-59931047D01*
X125313616Y-59750000D01*
X125293217Y-59568953D01*
X125244836Y-59430689D01*
X125233043Y-59396985D01*
X125128558Y-59230698D01*
X125130213Y-59229657D01*
X125104805Y-59183126D01*
X125109870Y-59112311D01*
X125152417Y-59055475D01*
X125193043Y-59035267D01*
X125383033Y-58980532D01*
X125524896Y-58939662D01*
X125524899Y-58939660D01*
X125528290Y-58938684D01*
X125850853Y-58805075D01*
X126156428Y-58636189D01*
X126153563Y-58637878D01*
X126221521Y-58618666D01*
X126289437Y-58639353D01*
X126335387Y-58693475D01*
X126345460Y-58730552D01*
X126356783Y-58831049D01*
X126416956Y-59003014D01*
X126513889Y-59157282D01*
X126642717Y-59286110D01*
X126796985Y-59383043D01*
X126870594Y-59408800D01*
X126968953Y-59443217D01*
X127150000Y-59463616D01*
X127331047Y-59443217D01*
X127503015Y-59383043D01*
X127657281Y-59286111D01*
X127786111Y-59157281D01*
X127883043Y-59003015D01*
X127943217Y-58831047D01*
X127963616Y-58650000D01*
X127943217Y-58468953D01*
X127905465Y-58361065D01*
X127883043Y-58296985D01*
X127786110Y-58142717D01*
X127657282Y-58013889D01*
X127503014Y-57916956D01*
X127331049Y-57856783D01*
X127230552Y-57845460D01*
X127165099Y-57817956D01*
X127124906Y-57759432D01*
X127122735Y-57688469D01*
X127137676Y-57653906D01*
X127136189Y-57656428D01*
X127305075Y-57350853D01*
X127438684Y-57028290D01*
X127535267Y-56693044D01*
X127573346Y-56633124D01*
X127637776Y-56603302D01*
X127708100Y-56613047D01*
X127730656Y-56628623D01*
X127730698Y-56628558D01*
X127832932Y-56692796D01*
X127896985Y-56733043D01*
X128068953Y-56793217D01*
X128250000Y-56813616D01*
X128431047Y-56793217D01*
X128603015Y-56733043D01*
X128757281Y-56636111D01*
X128886111Y-56507281D01*
X128983043Y-56353015D01*
X129043217Y-56181047D01*
X129063616Y-56000000D01*
X129043217Y-55818953D01*
X128983043Y-55646985D01*
X128886111Y-55492719D01*
X128886110Y-55492717D01*
X128757282Y-55363889D01*
X128603014Y-55266956D01*
X128431049Y-55206783D01*
X128310349Y-55193183D01*
X128250000Y-55186384D01*
X128249999Y-55186384D01*
X128068950Y-55206783D01*
X127896985Y-55266956D01*
X127730698Y-55371442D01*
X127729657Y-55369786D01*
X127683118Y-55395195D01*
X127612302Y-55390126D01*
X127555470Y-55347575D01*
X127535267Y-55306954D01*
X127439662Y-54975103D01*
X127439659Y-54975095D01*
X127438684Y-54971710D01*
X127305075Y-54649147D01*
X127136189Y-54343572D01*
X127137869Y-54346420D01*
X127118667Y-54278458D01*
X127139364Y-54210546D01*
X127193493Y-54164604D01*
X127230547Y-54154540D01*
X127331047Y-54143217D01*
X127503015Y-54083043D01*
X127657281Y-53986111D01*
X127786111Y-53857281D01*
X127883043Y-53703015D01*
X127943217Y-53531047D01*
X127963616Y-53350000D01*
X127943217Y-53168953D01*
X127883043Y-52996985D01*
X127862732Y-52964661D01*
X127786110Y-52842717D01*
X127657282Y-52713889D01*
X127503014Y-52616956D01*
X127331049Y-52556783D01*
X127150000Y-52536384D01*
X126968950Y-52556783D01*
X126796985Y-52616956D01*
X126642717Y-52713889D01*
X126513889Y-52842717D01*
X126416956Y-52996985D01*
X126356783Y-53168950D01*
X126345460Y-53269447D01*
X126317956Y-53334900D01*
X126259432Y-53375093D01*
X126188469Y-53377264D01*
X126153926Y-53362335D01*
X126156428Y-53363811D01*
X125853949Y-53196636D01*
X125853947Y-53196635D01*
X125850853Y-53194925D01*
X125847590Y-53193573D01*
X125847585Y-53193571D01*
X125531552Y-53062667D01*
X125531549Y-53062666D01*
X125528290Y-53061316D01*
X125524912Y-53060342D01*
X125524884Y-53060333D01*
X125193044Y-52964731D01*
X125133123Y-52926653D01*
X125103302Y-52862223D01*
X125113047Y-52791899D01*
X125128623Y-52769343D01*
X125128558Y-52769302D01*
X125163390Y-52713866D01*
X125233043Y-52603015D01*
X125293217Y-52431047D01*
X125313616Y-52250000D01*
X125293217Y-52068953D01*
X125233043Y-51896985D01*
X125136111Y-51742719D01*
X125136110Y-51742717D01*
X125007282Y-51613889D01*
X124853014Y-51516956D01*
X124681049Y-51456783D01*
X124500000Y-51436384D01*
X124318950Y-51456783D01*
X124146985Y-51516956D01*
X123992717Y-51613889D01*
X123863889Y-51742717D01*
X123766956Y-51896985D01*
X123706783Y-52068950D01*
X123686384Y-52250000D01*
X123706783Y-52431049D01*
X123766956Y-52603014D01*
X123871442Y-52769302D01*
X123869785Y-52770342D01*
X123895194Y-52816873D01*
X123890129Y-52887688D01*
X123847582Y-52944524D01*
X123806955Y-52964731D01*
X123475115Y-53060333D01*
X123475082Y-53060344D01*
X123471710Y-53061316D01*
X123468455Y-53062663D01*
X123468447Y-53062667D01*
X123152414Y-53193571D01*
X123152402Y-53193576D01*
X123149147Y-53194925D01*
X123146059Y-53196631D01*
X123146050Y-53196636D01*
X122843572Y-53363811D01*
X122846395Y-53362145D01*
X122778427Y-53381332D01*
X122710519Y-53360617D01*
X122664591Y-53306478D01*
X122654540Y-53269450D01*
X122643217Y-53168953D01*
X122583043Y-52996985D01*
X122562732Y-52964661D01*
X122486110Y-52842717D01*
X122357282Y-52713889D01*
X122203014Y-52616956D01*
X122031049Y-52556783D01*
X121910349Y-52543183D01*
X121850000Y-52536384D01*
X121849999Y-52536384D01*
X121668950Y-52556783D01*
X121496985Y-52616956D01*
X121342717Y-52713889D01*
X121213889Y-52842717D01*
X121116956Y-52996985D01*
X121056783Y-53168950D01*
X121036384Y-53350000D01*
X121056783Y-53531049D01*
X121116956Y-53703014D01*
X121213889Y-53857282D01*
X121342717Y-53986110D01*
X121342719Y-53986111D01*
X121496985Y-54083043D01*
X121668953Y-54143217D01*
X121769448Y-54154540D01*
X121834899Y-54182042D01*
X121875092Y-54240566D01*
X121877265Y-54311529D01*
X121862346Y-54346055D01*
X121863811Y-54343572D01*
X121696636Y-54646050D01*
X121696631Y-54646059D01*
X121694925Y-54649147D01*
X121693576Y-54652402D01*
X121693571Y-54652414D01*
X121562667Y-54968447D01*
X121562663Y-54968455D01*
X121561316Y-54971710D01*
X121560344Y-54975082D01*
X121560333Y-54975115D01*
X121464731Y-55306955D01*
X121426653Y-55366876D01*
X121362223Y-55396698D01*
X121291898Y-55386952D01*
X121269343Y-55371376D01*
X121269302Y-55371442D01*
X121103014Y-55266956D01*
X120931049Y-55206783D01*
X120810348Y-55193183D01*
X120750000Y-55186384D01*
X120749999Y-55186384D01*
X120568950Y-55206783D01*
X120396985Y-55266956D01*
X120242717Y-55363889D01*
X120113889Y-55492717D01*
X120016956Y-55646985D01*
X119956783Y-55818950D01*
X119936384Y-56000000D01*
X87290448Y-56000000D01*
X86174745Y-54884297D01*
X86170204Y-54879512D01*
X86116567Y-54819942D01*
X86116566Y-54819941D01*
X86113619Y-54816668D01*
X86110251Y-54813842D01*
X86110247Y-54813838D01*
X86019455Y-54737655D01*
X85999204Y-54720051D01*
X85926687Y-54657013D01*
X85923002Y-54654620D01*
X85922993Y-54654613D01*
X85918381Y-54651618D01*
X85906028Y-54642477D01*
X85901817Y-54638944D01*
X85901811Y-54638940D01*
X85898440Y-54636111D01*
X85794203Y-54570976D01*
X85691108Y-54504026D01*
X85687132Y-54502172D01*
X85687114Y-54502162D01*
X85682131Y-54499839D01*
X85668616Y-54492501D01*
X85663966Y-54489595D01*
X85663953Y-54489588D01*
X85660226Y-54487259D01*
X85656207Y-54485469D01*
X85656204Y-54485468D01*
X85547958Y-54437274D01*
X85440523Y-54387175D01*
X85440511Y-54387170D01*
X85436530Y-54385314D01*
X85432337Y-54384032D01*
X85432319Y-54384025D01*
X85427060Y-54382418D01*
X85412651Y-54377031D01*
X85403615Y-54373008D01*
X85310892Y-54346420D01*
X85285452Y-54339125D01*
X85172115Y-54304475D01*
X85172108Y-54304473D01*
X85167907Y-54303189D01*
X85163564Y-54302501D01*
X85163560Y-54302500D01*
X85158129Y-54301640D01*
X85143122Y-54298313D01*
X85133600Y-54295583D01*
X85129258Y-54294972D01*
X85129250Y-54294971D01*
X85011902Y-54278479D01*
X84894803Y-54259932D01*
X84894799Y-54259931D01*
X84890470Y-54259246D01*
X84886080Y-54259169D01*
X84886078Y-54259169D01*
X84880548Y-54259072D01*
X84865234Y-54257866D01*
X84859799Y-54257102D01*
X84859788Y-54257101D01*
X84855438Y-54256490D01*
X84851038Y-54256490D01*
X84732568Y-54256490D01*
X84614016Y-54254420D01*
X84614004Y-54254420D01*
X84609616Y-54254344D01*
X84605261Y-54254878D01*
X84605256Y-54254879D01*
X84599786Y-54255551D01*
X84584430Y-54256490D01*
X73150905Y-54256490D01*
X73144311Y-54256317D01*
X73064269Y-54252122D01*
X73064262Y-54252122D01*
X73059872Y-54251892D01*
X73055494Y-54252274D01*
X73055490Y-54252275D01*
X72937433Y-54262603D01*
X72819188Y-54270871D01*
X72819173Y-54270872D01*
X72814798Y-54271179D01*
X72810510Y-54272090D01*
X72810490Y-54272093D01*
X72805105Y-54273238D01*
X72789914Y-54275509D01*
X72784424Y-54275989D01*
X72784415Y-54275990D01*
X72780044Y-54276373D01*
X72775764Y-54277360D01*
X72775758Y-54277362D01*
X72660287Y-54304021D01*
X72544347Y-54328665D01*
X72544340Y-54328666D01*
X72540040Y-54329581D01*
X72535919Y-54331080D01*
X72535894Y-54331088D01*
X72530719Y-54332972D01*
X72515995Y-54337333D01*
X72510651Y-54338567D01*
X72510634Y-54338572D01*
X72506347Y-54339562D01*
X72502235Y-54341140D01*
X72502233Y-54341141D01*
X72391604Y-54383607D01*
X72280222Y-54424146D01*
X72280211Y-54424150D01*
X72276084Y-54425653D01*
X72272203Y-54427716D01*
X72272186Y-54427724D01*
X72267342Y-54430300D01*
X72253361Y-54436672D01*
X72248219Y-54438645D01*
X72248196Y-54438655D01*
X72244108Y-54440225D01*
X72240265Y-54442355D01*
X72240259Y-54442358D01*
X72136592Y-54499822D01*
X72031952Y-54555459D01*
X72031932Y-54555471D01*
X72028068Y-54557526D01*
X72024522Y-54560101D01*
X72024511Y-54560109D01*
X72020049Y-54563351D01*
X72007093Y-54571605D01*
X72002276Y-54574275D01*
X72002269Y-54574278D01*
X71998431Y-54576407D01*
X71994929Y-54579045D01*
X71994915Y-54579055D01*
X71901901Y-54649147D01*
X71900283Y-54650366D01*
X71800818Y-54722632D01*
X71797668Y-54725673D01*
X71797657Y-54725683D01*
X71793690Y-54729515D01*
X71781998Y-54739500D01*
X71777619Y-54742800D01*
X71777613Y-54742804D01*
X71774098Y-54745454D01*
X71770992Y-54748559D01*
X71770985Y-54748566D01*
X71705713Y-54813838D01*
X71687212Y-54832339D01*
X71598758Y-54917759D01*
X71596055Y-54921217D01*
X71596040Y-54921235D01*
X71592653Y-54925571D01*
X71582467Y-54937083D01*
X69189957Y-57329595D01*
X69127645Y-57363620D01*
X69100862Y-57366500D01*
X68407804Y-57366500D01*
X68405273Y-57366704D01*
X68405256Y-57366705D01*
X68221605Y-57381531D01*
X68221601Y-57381531D01*
X68221600Y-57381532D01*
X68118430Y-57406961D01*
X67979629Y-57441172D01*
X67750368Y-57538851D01*
X67539737Y-57672046D01*
X67353201Y-57837303D01*
X67195592Y-58030339D01*
X67070988Y-58246160D01*
X66982618Y-58479170D01*
X66932769Y-58723346D01*
X66922735Y-58972355D01*
X65164556Y-58972355D01*
X65168784Y-58950189D01*
X65158710Y-58790067D01*
X65115149Y-58656000D01*
X66053491Y-58656000D01*
X66046736Y-58600357D01*
X65977424Y-58361065D01*
X65870624Y-58135989D01*
X65729102Y-57930959D01*
X65556528Y-57751291D01*
X65357362Y-57601627D01*
X65136776Y-57485854D01*
X64900461Y-57406961D01*
X64654566Y-57367000D01*
X62804000Y-57367000D01*
X62804000Y-58275000D01*
X62296000Y-58275000D01*
X62296000Y-57367000D01*
X60510365Y-57367000D01*
X60505265Y-57367205D01*
X60321684Y-57382025D01*
X60079791Y-57441647D01*
X59850598Y-57539296D01*
X59640034Y-57672450D01*
X59453565Y-57837647D01*
X59296005Y-58030623D01*
X59171441Y-58246374D01*
X59083099Y-58479310D01*
X59047027Y-58656000D01*
X59987732Y-58656000D01*
X59961279Y-58712215D01*
X59931216Y-58869811D01*
X59941290Y-59029933D01*
X59984851Y-59164000D01*
X59046508Y-59164000D01*
X53756323Y-59164000D01*
X53733102Y-59126107D01*
X53733100Y-59126107D01*
X52984360Y-59874846D01*
X52959493Y-59790156D01*
X52881761Y-59669202D01*
X52773100Y-59575048D01*
X52642315Y-59515320D01*
X52627587Y-59513202D01*
X53373891Y-58766897D01*
X53373891Y-58766896D01*
X53186738Y-58652208D01*
X52967440Y-58561372D01*
X52736633Y-58505960D01*
X52500000Y-58487337D01*
X52263366Y-58505960D01*
X52032559Y-58561372D01*
X51813264Y-58652207D01*
X51626107Y-58766896D01*
X51626107Y-58766898D01*
X52372411Y-59513202D01*
X52357685Y-59515320D01*
X52226900Y-59575048D01*
X52118239Y-59669202D01*
X52040507Y-59790156D01*
X52015639Y-59874848D01*
X51266898Y-59126107D01*
X51266896Y-59126107D01*
X51152207Y-59313264D01*
X51061372Y-59532559D01*
X51005960Y-59763366D01*
X50987337Y-60000000D01*
X44269089Y-60000000D01*
X44293217Y-59931047D01*
X44313616Y-59750000D01*
X44293217Y-59568953D01*
X44244836Y-59430689D01*
X44233043Y-59396985D01*
X44128558Y-59230698D01*
X44130213Y-59229657D01*
X44104805Y-59183126D01*
X44109870Y-59112311D01*
X44152417Y-59055475D01*
X44193043Y-59035267D01*
X44383033Y-58980532D01*
X44524896Y-58939662D01*
X44524899Y-58939660D01*
X44528290Y-58938684D01*
X44850853Y-58805075D01*
X45156428Y-58636189D01*
X45153563Y-58637878D01*
X45221521Y-58618666D01*
X45289437Y-58639353D01*
X45335387Y-58693475D01*
X45345460Y-58730552D01*
X45356783Y-58831049D01*
X45416956Y-59003014D01*
X45513889Y-59157282D01*
X45642717Y-59286110D01*
X45796985Y-59383043D01*
X45870594Y-59408800D01*
X45968953Y-59443217D01*
X46150000Y-59463616D01*
X46331047Y-59443217D01*
X46503015Y-59383043D01*
X46657281Y-59286111D01*
X46786111Y-59157281D01*
X46883043Y-59003015D01*
X46943217Y-58831047D01*
X46963616Y-58650000D01*
X46943217Y-58468953D01*
X46905465Y-58361065D01*
X46883043Y-58296985D01*
X46786110Y-58142717D01*
X46657282Y-58013889D01*
X46503014Y-57916956D01*
X46331049Y-57856783D01*
X46230552Y-57845460D01*
X46165099Y-57817956D01*
X46124906Y-57759432D01*
X46122735Y-57688469D01*
X46137676Y-57653906D01*
X46136189Y-57656428D01*
X46305075Y-57350853D01*
X46438684Y-57028290D01*
X46535267Y-56693044D01*
X46573346Y-56633124D01*
X46637776Y-56603302D01*
X46708100Y-56613047D01*
X46730656Y-56628623D01*
X46730698Y-56628558D01*
X46832932Y-56692796D01*
X46896985Y-56733043D01*
X47068953Y-56793217D01*
X47250000Y-56813616D01*
X47431047Y-56793217D01*
X47603015Y-56733043D01*
X47757281Y-56636111D01*
X47886111Y-56507281D01*
X47983043Y-56353015D01*
X48043217Y-56181047D01*
X48063616Y-56000000D01*
X48043217Y-55818953D01*
X47983043Y-55646985D01*
X47886111Y-55492719D01*
X47886110Y-55492717D01*
X47757282Y-55363889D01*
X47603014Y-55266956D01*
X47431049Y-55206783D01*
X47250000Y-55186384D01*
X47068950Y-55206783D01*
X46896985Y-55266956D01*
X46730698Y-55371442D01*
X46729657Y-55369786D01*
X46683118Y-55395195D01*
X46612302Y-55390126D01*
X46555470Y-55347575D01*
X46535267Y-55306954D01*
X46439662Y-54975103D01*
X46439659Y-54975095D01*
X46438684Y-54971710D01*
X46305075Y-54649147D01*
X46136189Y-54343572D01*
X46137869Y-54346420D01*
X46118667Y-54278458D01*
X46139364Y-54210546D01*
X46193493Y-54164604D01*
X46230547Y-54154540D01*
X46331047Y-54143217D01*
X46503015Y-54083043D01*
X46657281Y-53986111D01*
X46786111Y-53857281D01*
X46883043Y-53703015D01*
X46943217Y-53531047D01*
X46963616Y-53350000D01*
X46943217Y-53168953D01*
X46883043Y-52996985D01*
X46862732Y-52964661D01*
X46786110Y-52842717D01*
X46657282Y-52713889D01*
X46503014Y-52616956D01*
X46331049Y-52556783D01*
X46210348Y-52543183D01*
X46150000Y-52536384D01*
X46149999Y-52536384D01*
X45968950Y-52556783D01*
X45796985Y-52616956D01*
X45642717Y-52713889D01*
X45513889Y-52842717D01*
X45416956Y-52996985D01*
X45356783Y-53168950D01*
X45345460Y-53269447D01*
X45317956Y-53334900D01*
X45259432Y-53375093D01*
X45188469Y-53377264D01*
X45153926Y-53362335D01*
X45156428Y-53363811D01*
X44853949Y-53196636D01*
X44853947Y-53196635D01*
X44850853Y-53194925D01*
X44847590Y-53193573D01*
X44847585Y-53193571D01*
X44531552Y-53062667D01*
X44531549Y-53062666D01*
X44528290Y-53061316D01*
X44524912Y-53060342D01*
X44524884Y-53060333D01*
X44193044Y-52964731D01*
X44133123Y-52926653D01*
X44103302Y-52862223D01*
X44113047Y-52791899D01*
X44128623Y-52769343D01*
X44128558Y-52769302D01*
X44163390Y-52713866D01*
X44233043Y-52603015D01*
X44293217Y-52431047D01*
X44313616Y-52250000D01*
X44293217Y-52068953D01*
X44233043Y-51896985D01*
X44136111Y-51742719D01*
X44136110Y-51742717D01*
X44007282Y-51613889D01*
X43853014Y-51516956D01*
X43681049Y-51456783D01*
X43560349Y-51443183D01*
X43500000Y-51436384D01*
X43499999Y-51436384D01*
X43318950Y-51456783D01*
X43146985Y-51516956D01*
X42992717Y-51613889D01*
X42863889Y-51742717D01*
X42766956Y-51896985D01*
X42706783Y-52068950D01*
X42686384Y-52249999D01*
X42706783Y-52431049D01*
X42766956Y-52603014D01*
X42871442Y-52769302D01*
X42869785Y-52770342D01*
X42895194Y-52816873D01*
X42890129Y-52887688D01*
X42847582Y-52944524D01*
X42806955Y-52964731D01*
X42475115Y-53060333D01*
X42475082Y-53060344D01*
X42471710Y-53061316D01*
X42468455Y-53062663D01*
X42468447Y-53062667D01*
X42152414Y-53193571D01*
X42152402Y-53193576D01*
X42149147Y-53194925D01*
X42146059Y-53196631D01*
X42146050Y-53196636D01*
X41843572Y-53363811D01*
X41846395Y-53362145D01*
X41778427Y-53381332D01*
X41710519Y-53360617D01*
X41664591Y-53306478D01*
X41654540Y-53269450D01*
X41643217Y-53168953D01*
X41583043Y-52996985D01*
X41562732Y-52964661D01*
X41486110Y-52842717D01*
X41357282Y-52713889D01*
X41203014Y-52616956D01*
X41031049Y-52556783D01*
X40850000Y-52536384D01*
X40668950Y-52556783D01*
X40496985Y-52616956D01*
X40342717Y-52713889D01*
X40213889Y-52842717D01*
X40116956Y-52996985D01*
X40056783Y-53168950D01*
X40036384Y-53349999D01*
X40056783Y-53531049D01*
X40116956Y-53703014D01*
X40213889Y-53857282D01*
X40342717Y-53986110D01*
X40342719Y-53986111D01*
X40496985Y-54083043D01*
X40668953Y-54143217D01*
X40769448Y-54154540D01*
X40834899Y-54182042D01*
X40875092Y-54240566D01*
X40877265Y-54311529D01*
X40862346Y-54346055D01*
X40863811Y-54343572D01*
X40696636Y-54646050D01*
X40696631Y-54646059D01*
X40694925Y-54649147D01*
X40693576Y-54652402D01*
X40693571Y-54652414D01*
X40562667Y-54968447D01*
X40562663Y-54968455D01*
X40561316Y-54971710D01*
X40560344Y-54975082D01*
X40560333Y-54975115D01*
X40464731Y-55306955D01*
X40426653Y-55366876D01*
X40362223Y-55396698D01*
X40291898Y-55386952D01*
X40269343Y-55371376D01*
X40269302Y-55371442D01*
X40103014Y-55266956D01*
X39931049Y-55206783D01*
X39750000Y-55186384D01*
X39568950Y-55206783D01*
X39396985Y-55266956D01*
X39242717Y-55363889D01*
X39113889Y-55492717D01*
X39016956Y-55646985D01*
X38956783Y-55818950D01*
X38936384Y-56000000D01*
X37525500Y-56000000D01*
X37525500Y-51005506D01*
X37525979Y-50994524D01*
X37539344Y-50841755D01*
X37543158Y-50820131D01*
X37581420Y-50677336D01*
X37588923Y-50656721D01*
X37651404Y-50522729D01*
X37662374Y-50503728D01*
X37747174Y-50382622D01*
X37761281Y-50365811D01*
X37865811Y-50261281D01*
X37882622Y-50247174D01*
X38003728Y-50162374D01*
X38022729Y-50151404D01*
X38156721Y-50088923D01*
X38177336Y-50081420D01*
X38320135Y-50043157D01*
X38341757Y-50039344D01*
X38459669Y-50029028D01*
X38494526Y-50025979D01*
X38505507Y-50025500D01*
X38508285Y-50025500D01*
X129491715Y-50025500D01*
X129494493Y-50025500D01*
X129505474Y-50025978D01*
G37*
G04 #@! TD.AperFunction*
M02*
