G04 #@! TF.GenerationSoftware,KiCad,Pcbnew,7.0.2-6a45011f42~172~ubuntu22.04.1*
G04 #@! TF.CreationDate,2023-05-14T21:03:13-06:00*
G04 #@! TF.ProjectId,pole-node,706f6c65-2d6e-46f6-9465-2e6b69636164,rev?*
G04 #@! TF.SameCoordinates,Original*
G04 #@! TF.FileFunction,Legend,Top*
G04 #@! TF.FilePolarity,Positive*
%FSLAX46Y46*%
G04 Gerber Fmt 4.6, Leading zero omitted, Abs format (unit mm)*
G04 Created by KiCad (PCBNEW 7.0.2-6a45011f42~172~ubuntu22.04.1) date 2023-05-14 21:03:13*
%MOMM*%
%LPD*%
G01*
G04 APERTURE LIST*
G04 Aperture macros list*
%AMRoundRect*
0 Rectangle with rounded corners*
0 $1 Rounding radius*
0 $2 $3 $4 $5 $6 $7 $8 $9 X,Y pos of 4 corners*
0 Add a 4 corners polygon primitive as box body*
4,1,4,$2,$3,$4,$5,$6,$7,$8,$9,$2,$3,0*
0 Add four circle primitives for the rounded corners*
1,1,$1+$1,$2,$3*
1,1,$1+$1,$4,$5*
1,1,$1+$1,$6,$7*
1,1,$1+$1,$8,$9*
0 Add four rect primitives between the rounded corners*
20,1,$1+$1,$2,$3,$4,$5,0*
20,1,$1+$1,$4,$5,$6,$7,0*
20,1,$1+$1,$6,$7,$8,$9,0*
20,1,$1+$1,$8,$9,$2,$3,0*%
G04 Aperture macros list end*
%ADD10C,0.150000*%
%ADD11C,0.250000*%
%ADD12C,0.200000*%
%ADD13C,0.120000*%
%ADD14RoundRect,0.218750X-0.218750X-0.256250X0.218750X-0.256250X0.218750X0.256250X-0.218750X0.256250X0*%
%ADD15O,6.030000X2.070000*%
%ADD16R,1.700000X1.700000*%
%ADD17O,1.700000X1.700000*%
%ADD18C,5.200000*%
%ADD19C,3.200000*%
%ADD20R,1.500000X1.500000*%
%ADD21C,1.500000*%
%ADD22R,2.000000X2.000000*%
%ADD23C,2.000000*%
G04 APERTURE END LIST*
D10*
X55761904Y-69110238D02*
X55666666Y-69062619D01*
X55666666Y-69062619D02*
X55523809Y-69062619D01*
X55523809Y-69062619D02*
X55380952Y-69110238D01*
X55380952Y-69110238D02*
X55285714Y-69205476D01*
X55285714Y-69205476D02*
X55238095Y-69300714D01*
X55238095Y-69300714D02*
X55190476Y-69491190D01*
X55190476Y-69491190D02*
X55190476Y-69634047D01*
X55190476Y-69634047D02*
X55238095Y-69824523D01*
X55238095Y-69824523D02*
X55285714Y-69919761D01*
X55285714Y-69919761D02*
X55380952Y-70015000D01*
X55380952Y-70015000D02*
X55523809Y-70062619D01*
X55523809Y-70062619D02*
X55619047Y-70062619D01*
X55619047Y-70062619D02*
X55761904Y-70015000D01*
X55761904Y-70015000D02*
X55809523Y-69967380D01*
X55809523Y-69967380D02*
X55809523Y-69634047D01*
X55809523Y-69634047D02*
X55619047Y-69634047D01*
X118261904Y-69010238D02*
X118166666Y-68962619D01*
X118166666Y-68962619D02*
X118023809Y-68962619D01*
X118023809Y-68962619D02*
X117880952Y-69010238D01*
X117880952Y-69010238D02*
X117785714Y-69105476D01*
X117785714Y-69105476D02*
X117738095Y-69200714D01*
X117738095Y-69200714D02*
X117690476Y-69391190D01*
X117690476Y-69391190D02*
X117690476Y-69534047D01*
X117690476Y-69534047D02*
X117738095Y-69724523D01*
X117738095Y-69724523D02*
X117785714Y-69819761D01*
X117785714Y-69819761D02*
X117880952Y-69915000D01*
X117880952Y-69915000D02*
X118023809Y-69962619D01*
X118023809Y-69962619D02*
X118119047Y-69962619D01*
X118119047Y-69962619D02*
X118261904Y-69915000D01*
X118261904Y-69915000D02*
X118309523Y-69867380D01*
X118309523Y-69867380D02*
X118309523Y-69534047D01*
X118309523Y-69534047D02*
X118119047Y-69534047D01*
X128761904Y-69010238D02*
X128666666Y-68962619D01*
X128666666Y-68962619D02*
X128523809Y-68962619D01*
X128523809Y-68962619D02*
X128380952Y-69010238D01*
X128380952Y-69010238D02*
X128285714Y-69105476D01*
X128285714Y-69105476D02*
X128238095Y-69200714D01*
X128238095Y-69200714D02*
X128190476Y-69391190D01*
X128190476Y-69391190D02*
X128190476Y-69534047D01*
X128190476Y-69534047D02*
X128238095Y-69724523D01*
X128238095Y-69724523D02*
X128285714Y-69819761D01*
X128285714Y-69819761D02*
X128380952Y-69915000D01*
X128380952Y-69915000D02*
X128523809Y-69962619D01*
X128523809Y-69962619D02*
X128619047Y-69962619D01*
X128619047Y-69962619D02*
X128761904Y-69915000D01*
X128761904Y-69915000D02*
X128809523Y-69867380D01*
X128809523Y-69867380D02*
X128809523Y-69534047D01*
X128809523Y-69534047D02*
X128619047Y-69534047D01*
X112609523Y-68862619D02*
X112133333Y-68862619D01*
X112133333Y-68862619D02*
X112085714Y-69338809D01*
X112085714Y-69338809D02*
X112133333Y-69291190D01*
X112133333Y-69291190D02*
X112228571Y-69243571D01*
X112228571Y-69243571D02*
X112466666Y-69243571D01*
X112466666Y-69243571D02*
X112561904Y-69291190D01*
X112561904Y-69291190D02*
X112609523Y-69338809D01*
X112609523Y-69338809D02*
X112657142Y-69434047D01*
X112657142Y-69434047D02*
X112657142Y-69672142D01*
X112657142Y-69672142D02*
X112609523Y-69767380D01*
X112609523Y-69767380D02*
X112561904Y-69815000D01*
X112561904Y-69815000D02*
X112466666Y-69862619D01*
X112466666Y-69862619D02*
X112228571Y-69862619D01*
X112228571Y-69862619D02*
X112133333Y-69815000D01*
X112133333Y-69815000D02*
X112085714Y-69767380D01*
X112942857Y-68862619D02*
X113276190Y-69862619D01*
X113276190Y-69862619D02*
X113609523Y-68862619D01*
X123209523Y-68762619D02*
X122733333Y-68762619D01*
X122733333Y-68762619D02*
X122685714Y-69238809D01*
X122685714Y-69238809D02*
X122733333Y-69191190D01*
X122733333Y-69191190D02*
X122828571Y-69143571D01*
X122828571Y-69143571D02*
X123066666Y-69143571D01*
X123066666Y-69143571D02*
X123161904Y-69191190D01*
X123161904Y-69191190D02*
X123209523Y-69238809D01*
X123209523Y-69238809D02*
X123257142Y-69334047D01*
X123257142Y-69334047D02*
X123257142Y-69572142D01*
X123257142Y-69572142D02*
X123209523Y-69667380D01*
X123209523Y-69667380D02*
X123161904Y-69715000D01*
X123161904Y-69715000D02*
X123066666Y-69762619D01*
X123066666Y-69762619D02*
X122828571Y-69762619D01*
X122828571Y-69762619D02*
X122733333Y-69715000D01*
X122733333Y-69715000D02*
X122685714Y-69667380D01*
X123542857Y-68762619D02*
X123876190Y-69762619D01*
X123876190Y-69762619D02*
X124209523Y-68762619D01*
D11*
X60571427Y-52091904D02*
X60571427Y-54091904D01*
X60571427Y-52187142D02*
X60761903Y-52091904D01*
X60761903Y-52091904D02*
X61142856Y-52091904D01*
X61142856Y-52091904D02*
X61333332Y-52187142D01*
X61333332Y-52187142D02*
X61428570Y-52282380D01*
X61428570Y-52282380D02*
X61523808Y-52472857D01*
X61523808Y-52472857D02*
X61523808Y-53044285D01*
X61523808Y-53044285D02*
X61428570Y-53234761D01*
X61428570Y-53234761D02*
X61333332Y-53330000D01*
X61333332Y-53330000D02*
X61142856Y-53425238D01*
X61142856Y-53425238D02*
X60761903Y-53425238D01*
X60761903Y-53425238D02*
X60571427Y-53330000D01*
X62666665Y-53425238D02*
X62476189Y-53330000D01*
X62476189Y-53330000D02*
X62380951Y-53234761D01*
X62380951Y-53234761D02*
X62285713Y-53044285D01*
X62285713Y-53044285D02*
X62285713Y-52472857D01*
X62285713Y-52472857D02*
X62380951Y-52282380D01*
X62380951Y-52282380D02*
X62476189Y-52187142D01*
X62476189Y-52187142D02*
X62666665Y-52091904D01*
X62666665Y-52091904D02*
X62952380Y-52091904D01*
X62952380Y-52091904D02*
X63142856Y-52187142D01*
X63142856Y-52187142D02*
X63238094Y-52282380D01*
X63238094Y-52282380D02*
X63333332Y-52472857D01*
X63333332Y-52472857D02*
X63333332Y-53044285D01*
X63333332Y-53044285D02*
X63238094Y-53234761D01*
X63238094Y-53234761D02*
X63142856Y-53330000D01*
X63142856Y-53330000D02*
X62952380Y-53425238D01*
X62952380Y-53425238D02*
X62666665Y-53425238D01*
X64476189Y-53425238D02*
X64285713Y-53330000D01*
X64285713Y-53330000D02*
X64190475Y-53139523D01*
X64190475Y-53139523D02*
X64190475Y-51425238D01*
X65999999Y-53330000D02*
X65809523Y-53425238D01*
X65809523Y-53425238D02*
X65428570Y-53425238D01*
X65428570Y-53425238D02*
X65238094Y-53330000D01*
X65238094Y-53330000D02*
X65142856Y-53139523D01*
X65142856Y-53139523D02*
X65142856Y-52377619D01*
X65142856Y-52377619D02*
X65238094Y-52187142D01*
X65238094Y-52187142D02*
X65428570Y-52091904D01*
X65428570Y-52091904D02*
X65809523Y-52091904D01*
X65809523Y-52091904D02*
X65999999Y-52187142D01*
X65999999Y-52187142D02*
X66095237Y-52377619D01*
X66095237Y-52377619D02*
X66095237Y-52568095D01*
X66095237Y-52568095D02*
X65142856Y-52758571D01*
X66952380Y-52663333D02*
X68476190Y-52663333D01*
X69428570Y-52091904D02*
X69428570Y-53425238D01*
X69428570Y-52282380D02*
X69523808Y-52187142D01*
X69523808Y-52187142D02*
X69714284Y-52091904D01*
X69714284Y-52091904D02*
X69999999Y-52091904D01*
X69999999Y-52091904D02*
X70190475Y-52187142D01*
X70190475Y-52187142D02*
X70285713Y-52377619D01*
X70285713Y-52377619D02*
X70285713Y-53425238D01*
X71523808Y-53425238D02*
X71333332Y-53330000D01*
X71333332Y-53330000D02*
X71238094Y-53234761D01*
X71238094Y-53234761D02*
X71142856Y-53044285D01*
X71142856Y-53044285D02*
X71142856Y-52472857D01*
X71142856Y-52472857D02*
X71238094Y-52282380D01*
X71238094Y-52282380D02*
X71333332Y-52187142D01*
X71333332Y-52187142D02*
X71523808Y-52091904D01*
X71523808Y-52091904D02*
X71809523Y-52091904D01*
X71809523Y-52091904D02*
X71999999Y-52187142D01*
X71999999Y-52187142D02*
X72095237Y-52282380D01*
X72095237Y-52282380D02*
X72190475Y-52472857D01*
X72190475Y-52472857D02*
X72190475Y-53044285D01*
X72190475Y-53044285D02*
X72095237Y-53234761D01*
X72095237Y-53234761D02*
X71999999Y-53330000D01*
X71999999Y-53330000D02*
X71809523Y-53425238D01*
X71809523Y-53425238D02*
X71523808Y-53425238D01*
X73904761Y-53425238D02*
X73904761Y-51425238D01*
X73904761Y-53330000D02*
X73714285Y-53425238D01*
X73714285Y-53425238D02*
X73333332Y-53425238D01*
X73333332Y-53425238D02*
X73142856Y-53330000D01*
X73142856Y-53330000D02*
X73047618Y-53234761D01*
X73047618Y-53234761D02*
X72952380Y-53044285D01*
X72952380Y-53044285D02*
X72952380Y-52472857D01*
X72952380Y-52472857D02*
X73047618Y-52282380D01*
X73047618Y-52282380D02*
X73142856Y-52187142D01*
X73142856Y-52187142D02*
X73333332Y-52091904D01*
X73333332Y-52091904D02*
X73714285Y-52091904D01*
X73714285Y-52091904D02*
X73904761Y-52187142D01*
X75619047Y-53330000D02*
X75428571Y-53425238D01*
X75428571Y-53425238D02*
X75047618Y-53425238D01*
X75047618Y-53425238D02*
X74857142Y-53330000D01*
X74857142Y-53330000D02*
X74761904Y-53139523D01*
X74761904Y-53139523D02*
X74761904Y-52377619D01*
X74761904Y-52377619D02*
X74857142Y-52187142D01*
X74857142Y-52187142D02*
X75047618Y-52091904D01*
X75047618Y-52091904D02*
X75428571Y-52091904D01*
X75428571Y-52091904D02*
X75619047Y-52187142D01*
X75619047Y-52187142D02*
X75714285Y-52377619D01*
X75714285Y-52377619D02*
X75714285Y-52568095D01*
X75714285Y-52568095D02*
X74761904Y-52758571D01*
X77904762Y-52091904D02*
X78380952Y-53425238D01*
X78380952Y-53425238D02*
X78857143Y-52091904D01*
X80666667Y-53425238D02*
X79523810Y-53425238D01*
X80095238Y-53425238D02*
X80095238Y-51425238D01*
X80095238Y-51425238D02*
X79904762Y-51710952D01*
X79904762Y-51710952D02*
X79714286Y-51901428D01*
X79714286Y-51901428D02*
X79523810Y-51996666D01*
X81523810Y-53234761D02*
X81619048Y-53330000D01*
X81619048Y-53330000D02*
X81523810Y-53425238D01*
X81523810Y-53425238D02*
X81428572Y-53330000D01*
X81428572Y-53330000D02*
X81523810Y-53234761D01*
X81523810Y-53234761D02*
X81523810Y-53425238D01*
X82285715Y-51425238D02*
X83523810Y-51425238D01*
X83523810Y-51425238D02*
X82857143Y-52187142D01*
X82857143Y-52187142D02*
X83142858Y-52187142D01*
X83142858Y-52187142D02*
X83333334Y-52282380D01*
X83333334Y-52282380D02*
X83428572Y-52377619D01*
X83428572Y-52377619D02*
X83523810Y-52568095D01*
X83523810Y-52568095D02*
X83523810Y-53044285D01*
X83523810Y-53044285D02*
X83428572Y-53234761D01*
X83428572Y-53234761D02*
X83333334Y-53330000D01*
X83333334Y-53330000D02*
X83142858Y-53425238D01*
X83142858Y-53425238D02*
X82571429Y-53425238D01*
X82571429Y-53425238D02*
X82380953Y-53330000D01*
X82380953Y-53330000D02*
X82285715Y-53234761D01*
D10*
X39223809Y-68510238D02*
X39128571Y-68462619D01*
X39128571Y-68462619D02*
X38985714Y-68462619D01*
X38985714Y-68462619D02*
X38842857Y-68510238D01*
X38842857Y-68510238D02*
X38747619Y-68605476D01*
X38747619Y-68605476D02*
X38700000Y-68700714D01*
X38700000Y-68700714D02*
X38652381Y-68891190D01*
X38652381Y-68891190D02*
X38652381Y-69034047D01*
X38652381Y-69034047D02*
X38700000Y-69224523D01*
X38700000Y-69224523D02*
X38747619Y-69319761D01*
X38747619Y-69319761D02*
X38842857Y-69415000D01*
X38842857Y-69415000D02*
X38985714Y-69462619D01*
X38985714Y-69462619D02*
X39080952Y-69462619D01*
X39080952Y-69462619D02*
X39223809Y-69415000D01*
X39223809Y-69415000D02*
X39271428Y-69367380D01*
X39271428Y-69367380D02*
X39271428Y-69034047D01*
X39271428Y-69034047D02*
X39080952Y-69034047D01*
X40271428Y-69462619D02*
X39938095Y-68986428D01*
X39700000Y-69462619D02*
X39700000Y-68462619D01*
X39700000Y-68462619D02*
X40080952Y-68462619D01*
X40080952Y-68462619D02*
X40176190Y-68510238D01*
X40176190Y-68510238D02*
X40223809Y-68557857D01*
X40223809Y-68557857D02*
X40271428Y-68653095D01*
X40271428Y-68653095D02*
X40271428Y-68795952D01*
X40271428Y-68795952D02*
X40223809Y-68891190D01*
X40223809Y-68891190D02*
X40176190Y-68938809D01*
X40176190Y-68938809D02*
X40080952Y-68986428D01*
X40080952Y-68986428D02*
X39700000Y-68986428D01*
X40700000Y-69462619D02*
X40700000Y-68462619D01*
X41176190Y-69462619D02*
X41176190Y-68462619D01*
X41176190Y-68462619D02*
X41414285Y-68462619D01*
X41414285Y-68462619D02*
X41557142Y-68510238D01*
X41557142Y-68510238D02*
X41652380Y-68605476D01*
X41652380Y-68605476D02*
X41699999Y-68700714D01*
X41699999Y-68700714D02*
X41747618Y-68891190D01*
X41747618Y-68891190D02*
X41747618Y-69034047D01*
X41747618Y-69034047D02*
X41699999Y-69224523D01*
X41699999Y-69224523D02*
X41652380Y-69319761D01*
X41652380Y-69319761D02*
X41557142Y-69415000D01*
X41557142Y-69415000D02*
X41414285Y-69462619D01*
X41414285Y-69462619D02*
X41176190Y-69462619D01*
X45261904Y-68810238D02*
X45166666Y-68762619D01*
X45166666Y-68762619D02*
X45023809Y-68762619D01*
X45023809Y-68762619D02*
X44880952Y-68810238D01*
X44880952Y-68810238D02*
X44785714Y-68905476D01*
X44785714Y-68905476D02*
X44738095Y-69000714D01*
X44738095Y-69000714D02*
X44690476Y-69191190D01*
X44690476Y-69191190D02*
X44690476Y-69334047D01*
X44690476Y-69334047D02*
X44738095Y-69524523D01*
X44738095Y-69524523D02*
X44785714Y-69619761D01*
X44785714Y-69619761D02*
X44880952Y-69715000D01*
X44880952Y-69715000D02*
X45023809Y-69762619D01*
X45023809Y-69762619D02*
X45119047Y-69762619D01*
X45119047Y-69762619D02*
X45261904Y-69715000D01*
X45261904Y-69715000D02*
X45309523Y-69667380D01*
X45309523Y-69667380D02*
X45309523Y-69334047D01*
X45309523Y-69334047D02*
X45119047Y-69334047D01*
X50957143Y-69562619D02*
X50957143Y-68562619D01*
X50957143Y-68562619D02*
X51338095Y-68562619D01*
X51338095Y-68562619D02*
X51433333Y-68610238D01*
X51433333Y-68610238D02*
X51480952Y-68657857D01*
X51480952Y-68657857D02*
X51528571Y-68753095D01*
X51528571Y-68753095D02*
X51528571Y-68895952D01*
X51528571Y-68895952D02*
X51480952Y-68991190D01*
X51480952Y-68991190D02*
X51433333Y-69038809D01*
X51433333Y-69038809D02*
X51338095Y-69086428D01*
X51338095Y-69086428D02*
X50957143Y-69086428D01*
X52147619Y-68562619D02*
X52338095Y-68562619D01*
X52338095Y-68562619D02*
X52433333Y-68610238D01*
X52433333Y-68610238D02*
X52528571Y-68705476D01*
X52528571Y-68705476D02*
X52576190Y-68895952D01*
X52576190Y-68895952D02*
X52576190Y-69229285D01*
X52576190Y-69229285D02*
X52528571Y-69419761D01*
X52528571Y-69419761D02*
X52433333Y-69515000D01*
X52433333Y-69515000D02*
X52338095Y-69562619D01*
X52338095Y-69562619D02*
X52147619Y-69562619D01*
X52147619Y-69562619D02*
X52052381Y-69515000D01*
X52052381Y-69515000D02*
X51957143Y-69419761D01*
X51957143Y-69419761D02*
X51909524Y-69229285D01*
X51909524Y-69229285D02*
X51909524Y-68895952D01*
X51909524Y-68895952D02*
X51957143Y-68705476D01*
X51957143Y-68705476D02*
X52052381Y-68610238D01*
X52052381Y-68610238D02*
X52147619Y-68562619D01*
X53480952Y-69562619D02*
X53004762Y-69562619D01*
X53004762Y-69562619D02*
X53004762Y-68562619D01*
X53814286Y-69038809D02*
X54147619Y-69038809D01*
X54290476Y-69562619D02*
X53814286Y-69562619D01*
X53814286Y-69562619D02*
X53814286Y-68562619D01*
X53814286Y-68562619D02*
X54290476Y-68562619D01*
X110576904Y-77014285D02*
X110576904Y-76538095D01*
X110862619Y-77109523D02*
X109862619Y-76776190D01*
X109862619Y-76776190D02*
X110862619Y-76442857D01*
X109862619Y-76109523D02*
X110672142Y-76109523D01*
X110672142Y-76109523D02*
X110767380Y-76061904D01*
X110767380Y-76061904D02*
X110815000Y-76014285D01*
X110815000Y-76014285D02*
X110862619Y-75919047D01*
X110862619Y-75919047D02*
X110862619Y-75728571D01*
X110862619Y-75728571D02*
X110815000Y-75633333D01*
X110815000Y-75633333D02*
X110767380Y-75585714D01*
X110767380Y-75585714D02*
X110672142Y-75538095D01*
X110672142Y-75538095D02*
X109862619Y-75538095D01*
X109862619Y-75157142D02*
X110862619Y-74490476D01*
X109862619Y-74490476D02*
X110862619Y-75157142D01*
X110862619Y-73585714D02*
X110862619Y-74157142D01*
X110862619Y-73871428D02*
X109862619Y-73871428D01*
X109862619Y-73871428D02*
X110005476Y-73966666D01*
X110005476Y-73966666D02*
X110100714Y-74061904D01*
X110100714Y-74061904D02*
X110148333Y-74157142D01*
X49409523Y-69062619D02*
X48933333Y-69062619D01*
X48933333Y-69062619D02*
X48885714Y-69538809D01*
X48885714Y-69538809D02*
X48933333Y-69491190D01*
X48933333Y-69491190D02*
X49028571Y-69443571D01*
X49028571Y-69443571D02*
X49266666Y-69443571D01*
X49266666Y-69443571D02*
X49361904Y-69491190D01*
X49361904Y-69491190D02*
X49409523Y-69538809D01*
X49409523Y-69538809D02*
X49457142Y-69634047D01*
X49457142Y-69634047D02*
X49457142Y-69872142D01*
X49457142Y-69872142D02*
X49409523Y-69967380D01*
X49409523Y-69967380D02*
X49361904Y-70015000D01*
X49361904Y-70015000D02*
X49266666Y-70062619D01*
X49266666Y-70062619D02*
X49028571Y-70062619D01*
X49028571Y-70062619D02*
X48933333Y-70015000D01*
X48933333Y-70015000D02*
X48885714Y-69967380D01*
X49742857Y-69062619D02*
X50076190Y-70062619D01*
X50076190Y-70062619D02*
X50409523Y-69062619D01*
D12*
X38099999Y-64093928D02*
X38099999Y-62593928D01*
X38099999Y-62593928D02*
X38671428Y-62593928D01*
X38671428Y-62593928D02*
X38814285Y-62665357D01*
X38814285Y-62665357D02*
X38885714Y-62736785D01*
X38885714Y-62736785D02*
X38957142Y-62879642D01*
X38957142Y-62879642D02*
X38957142Y-63093928D01*
X38957142Y-63093928D02*
X38885714Y-63236785D01*
X38885714Y-63236785D02*
X38814285Y-63308214D01*
X38814285Y-63308214D02*
X38671428Y-63379642D01*
X38671428Y-63379642D02*
X38099999Y-63379642D01*
X39457142Y-62593928D02*
X39814285Y-64093928D01*
X39814285Y-64093928D02*
X40099999Y-63022500D01*
X40099999Y-63022500D02*
X40385714Y-64093928D01*
X40385714Y-64093928D02*
X40742857Y-62593928D01*
X42171428Y-64093928D02*
X41671428Y-63379642D01*
X41314285Y-64093928D02*
X41314285Y-62593928D01*
X41314285Y-62593928D02*
X41885714Y-62593928D01*
X41885714Y-62593928D02*
X42028571Y-62665357D01*
X42028571Y-62665357D02*
X42100000Y-62736785D01*
X42100000Y-62736785D02*
X42171428Y-62879642D01*
X42171428Y-62879642D02*
X42171428Y-63093928D01*
X42171428Y-63093928D02*
X42100000Y-63236785D01*
X42100000Y-63236785D02*
X42028571Y-63308214D01*
X42028571Y-63308214D02*
X41885714Y-63379642D01*
X41885714Y-63379642D02*
X41314285Y-63379642D01*
D10*
X121276904Y-77014285D02*
X121276904Y-76538095D01*
X121562619Y-77109523D02*
X120562619Y-76776190D01*
X120562619Y-76776190D02*
X121562619Y-76442857D01*
X120562619Y-76109523D02*
X121372142Y-76109523D01*
X121372142Y-76109523D02*
X121467380Y-76061904D01*
X121467380Y-76061904D02*
X121515000Y-76014285D01*
X121515000Y-76014285D02*
X121562619Y-75919047D01*
X121562619Y-75919047D02*
X121562619Y-75728571D01*
X121562619Y-75728571D02*
X121515000Y-75633333D01*
X121515000Y-75633333D02*
X121467380Y-75585714D01*
X121467380Y-75585714D02*
X121372142Y-75538095D01*
X121372142Y-75538095D02*
X120562619Y-75538095D01*
X120562619Y-75157142D02*
X121562619Y-74490476D01*
X120562619Y-74490476D02*
X121562619Y-75157142D01*
X120657857Y-74157142D02*
X120610238Y-74109523D01*
X120610238Y-74109523D02*
X120562619Y-74014285D01*
X120562619Y-74014285D02*
X120562619Y-73776190D01*
X120562619Y-73776190D02*
X120610238Y-73680952D01*
X120610238Y-73680952D02*
X120657857Y-73633333D01*
X120657857Y-73633333D02*
X120753095Y-73585714D01*
X120753095Y-73585714D02*
X120848333Y-73585714D01*
X120848333Y-73585714D02*
X120991190Y-73633333D01*
X120991190Y-73633333D02*
X121562619Y-74204761D01*
X121562619Y-74204761D02*
X121562619Y-73585714D01*
X62821428Y-62348809D02*
X62964285Y-62396428D01*
X62964285Y-62396428D02*
X63011904Y-62444047D01*
X63011904Y-62444047D02*
X63059523Y-62539285D01*
X63059523Y-62539285D02*
X63059523Y-62682142D01*
X63059523Y-62682142D02*
X63011904Y-62777380D01*
X63011904Y-62777380D02*
X62964285Y-62825000D01*
X62964285Y-62825000D02*
X62869047Y-62872619D01*
X62869047Y-62872619D02*
X62488095Y-62872619D01*
X62488095Y-62872619D02*
X62488095Y-61872619D01*
X62488095Y-61872619D02*
X62821428Y-61872619D01*
X62821428Y-61872619D02*
X62916666Y-61920238D01*
X62916666Y-61920238D02*
X62964285Y-61967857D01*
X62964285Y-61967857D02*
X63011904Y-62063095D01*
X63011904Y-62063095D02*
X63011904Y-62158333D01*
X63011904Y-62158333D02*
X62964285Y-62253571D01*
X62964285Y-62253571D02*
X62916666Y-62301190D01*
X62916666Y-62301190D02*
X62821428Y-62348809D01*
X62821428Y-62348809D02*
X62488095Y-62348809D01*
X70559523Y-62872619D02*
X70226190Y-62396428D01*
X69988095Y-62872619D02*
X69988095Y-61872619D01*
X69988095Y-61872619D02*
X70369047Y-61872619D01*
X70369047Y-61872619D02*
X70464285Y-61920238D01*
X70464285Y-61920238D02*
X70511904Y-61967857D01*
X70511904Y-61967857D02*
X70559523Y-62063095D01*
X70559523Y-62063095D02*
X70559523Y-62205952D01*
X70559523Y-62205952D02*
X70511904Y-62301190D01*
X70511904Y-62301190D02*
X70464285Y-62348809D01*
X70464285Y-62348809D02*
X70369047Y-62396428D01*
X70369047Y-62396428D02*
X69988095Y-62396428D01*
X87559523Y-62962619D02*
X87226190Y-62486428D01*
X86988095Y-62962619D02*
X86988095Y-61962619D01*
X86988095Y-61962619D02*
X87369047Y-61962619D01*
X87369047Y-61962619D02*
X87464285Y-62010238D01*
X87464285Y-62010238D02*
X87511904Y-62057857D01*
X87511904Y-62057857D02*
X87559523Y-62153095D01*
X87559523Y-62153095D02*
X87559523Y-62295952D01*
X87559523Y-62295952D02*
X87511904Y-62391190D01*
X87511904Y-62391190D02*
X87464285Y-62438809D01*
X87464285Y-62438809D02*
X87369047Y-62486428D01*
X87369047Y-62486428D02*
X86988095Y-62486428D01*
X79821428Y-62438809D02*
X79964285Y-62486428D01*
X79964285Y-62486428D02*
X80011904Y-62534047D01*
X80011904Y-62534047D02*
X80059523Y-62629285D01*
X80059523Y-62629285D02*
X80059523Y-62772142D01*
X80059523Y-62772142D02*
X80011904Y-62867380D01*
X80011904Y-62867380D02*
X79964285Y-62915000D01*
X79964285Y-62915000D02*
X79869047Y-62962619D01*
X79869047Y-62962619D02*
X79488095Y-62962619D01*
X79488095Y-62962619D02*
X79488095Y-61962619D01*
X79488095Y-61962619D02*
X79821428Y-61962619D01*
X79821428Y-61962619D02*
X79916666Y-62010238D01*
X79916666Y-62010238D02*
X79964285Y-62057857D01*
X79964285Y-62057857D02*
X80011904Y-62153095D01*
X80011904Y-62153095D02*
X80011904Y-62248333D01*
X80011904Y-62248333D02*
X79964285Y-62343571D01*
X79964285Y-62343571D02*
X79916666Y-62391190D01*
X79916666Y-62391190D02*
X79821428Y-62438809D01*
X79821428Y-62438809D02*
X79488095Y-62438809D01*
D13*
X38415000Y-64415000D02*
X38415000Y-65885000D01*
X38415000Y-65885000D02*
X40700000Y-65885000D01*
X40700000Y-64415000D02*
X38415000Y-64415000D01*
D10*
X74200000Y-87160000D02*
X74200000Y-78160000D01*
X74200000Y-87010000D02*
X58800000Y-87010000D01*
X74200000Y-76160000D02*
X74200000Y-63910000D01*
X74200000Y-63910000D02*
X74200000Y-57160000D01*
X74200000Y-63910000D02*
X58800000Y-63910000D01*
X74200000Y-57160000D02*
X58800000Y-57160000D01*
X72750000Y-77160000D02*
X60250000Y-77160000D01*
X66500000Y-86910000D02*
X66500000Y-63910000D01*
X58800000Y-78160000D02*
X58800000Y-87160000D01*
X58800000Y-63910000D02*
X58800000Y-76160000D01*
X58800000Y-57160000D02*
X58800000Y-63910000D01*
D13*
X56270000Y-70230000D02*
X56270000Y-71500000D01*
X55000000Y-70230000D02*
X56270000Y-70230000D01*
X52840000Y-72542929D02*
X52840000Y-72940000D01*
X52080000Y-72542929D02*
X52080000Y-72940000D01*
X50300000Y-72542929D02*
X50300000Y-72940000D01*
X49540000Y-72542929D02*
X49540000Y-72940000D01*
X55380000Y-72610000D02*
X55380000Y-72940000D01*
X54620000Y-72610000D02*
X54620000Y-72940000D01*
X56330000Y-72940000D02*
X48590000Y-72940000D01*
X53730000Y-72940000D02*
X53730000Y-75600000D01*
X51190000Y-72940000D02*
X51190000Y-75600000D01*
X48590000Y-72940000D02*
X48590000Y-75600000D01*
X56330000Y-75600000D02*
X56330000Y-72940000D01*
X55380000Y-75600000D02*
X55380000Y-81600000D01*
X55320000Y-75600000D02*
X55320000Y-81600000D01*
X55200000Y-75600000D02*
X55200000Y-81600000D01*
X55080000Y-75600000D02*
X55080000Y-81600000D01*
X54960000Y-75600000D02*
X54960000Y-81600000D01*
X54840000Y-75600000D02*
X54840000Y-81600000D01*
X54720000Y-75600000D02*
X54720000Y-81600000D01*
X52840000Y-75600000D02*
X52840000Y-81600000D01*
X50300000Y-75600000D02*
X50300000Y-81600000D01*
X48590000Y-75600000D02*
X56330000Y-75600000D01*
X55380000Y-81600000D02*
X54620000Y-81600000D01*
X54620000Y-81600000D02*
X54620000Y-75600000D01*
X52840000Y-81600000D02*
X52080000Y-81600000D01*
X52080000Y-81600000D02*
X52080000Y-75600000D01*
X50300000Y-81600000D02*
X49540000Y-81600000D01*
X49540000Y-81600000D02*
X49540000Y-75600000D01*
X119270000Y-70730000D02*
X119270000Y-72000000D01*
X118000000Y-70730000D02*
X119270000Y-70730000D01*
X115840000Y-73042929D02*
X115840000Y-73440000D01*
X115080000Y-73042929D02*
X115080000Y-73440000D01*
X113300000Y-73042929D02*
X113300000Y-73440000D01*
X112540000Y-73042929D02*
X112540000Y-73440000D01*
X118380000Y-73110000D02*
X118380000Y-73440000D01*
X117620000Y-73110000D02*
X117620000Y-73440000D01*
X119330000Y-73440000D02*
X111590000Y-73440000D01*
X116730000Y-73440000D02*
X116730000Y-76100000D01*
X114190000Y-73440000D02*
X114190000Y-76100000D01*
X111590000Y-73440000D02*
X111590000Y-76100000D01*
X119330000Y-76100000D02*
X119330000Y-73440000D01*
X118380000Y-76100000D02*
X118380000Y-82100000D01*
X118320000Y-76100000D02*
X118320000Y-82100000D01*
X118200000Y-76100000D02*
X118200000Y-82100000D01*
X118080000Y-76100000D02*
X118080000Y-82100000D01*
X117960000Y-76100000D02*
X117960000Y-82100000D01*
X117840000Y-76100000D02*
X117840000Y-82100000D01*
X117720000Y-76100000D02*
X117720000Y-82100000D01*
X115840000Y-76100000D02*
X115840000Y-82100000D01*
X113300000Y-76100000D02*
X113300000Y-82100000D01*
X111590000Y-76100000D02*
X119330000Y-76100000D01*
X118380000Y-82100000D02*
X117620000Y-82100000D01*
X117620000Y-82100000D02*
X117620000Y-76100000D01*
X115840000Y-82100000D02*
X115080000Y-82100000D01*
X115080000Y-82100000D02*
X115080000Y-76100000D01*
X113300000Y-82100000D02*
X112540000Y-82100000D01*
X112540000Y-82100000D02*
X112540000Y-76100000D01*
X129770000Y-70730000D02*
X129770000Y-72000000D01*
X128500000Y-70730000D02*
X129770000Y-70730000D01*
X126340000Y-73042929D02*
X126340000Y-73440000D01*
X125580000Y-73042929D02*
X125580000Y-73440000D01*
X123800000Y-73042929D02*
X123800000Y-73440000D01*
X123040000Y-73042929D02*
X123040000Y-73440000D01*
X128880000Y-73110000D02*
X128880000Y-73440000D01*
X128120000Y-73110000D02*
X128120000Y-73440000D01*
X129830000Y-73440000D02*
X122090000Y-73440000D01*
X127230000Y-73440000D02*
X127230000Y-76100000D01*
X124690000Y-73440000D02*
X124690000Y-76100000D01*
X122090000Y-73440000D02*
X122090000Y-76100000D01*
X129830000Y-76100000D02*
X129830000Y-73440000D01*
X128880000Y-76100000D02*
X128880000Y-82100000D01*
X128820000Y-76100000D02*
X128820000Y-82100000D01*
X128700000Y-76100000D02*
X128700000Y-82100000D01*
X128580000Y-76100000D02*
X128580000Y-82100000D01*
X128460000Y-76100000D02*
X128460000Y-82100000D01*
X128340000Y-76100000D02*
X128340000Y-82100000D01*
X128220000Y-76100000D02*
X128220000Y-82100000D01*
X126340000Y-76100000D02*
X126340000Y-82100000D01*
X123800000Y-76100000D02*
X123800000Y-82100000D01*
X122090000Y-76100000D02*
X129830000Y-76100000D01*
X128880000Y-82100000D02*
X128120000Y-82100000D01*
X128120000Y-82100000D02*
X128120000Y-76100000D01*
X126340000Y-82100000D02*
X125580000Y-82100000D01*
X125580000Y-82100000D02*
X125580000Y-76100000D01*
X123800000Y-82100000D02*
X123040000Y-82100000D01*
X123040000Y-82100000D02*
X123040000Y-76100000D01*
D10*
X129500000Y-56000000D02*
G75*
G03*
X129500000Y-56000000I-5000000J0D01*
G01*
D13*
X92500000Y-62500000D02*
X92500000Y-63500000D01*
X92500000Y-63500000D02*
X93000000Y-63000000D01*
X93000000Y-63000000D02*
X92500000Y-62500000D01*
X93185000Y-59120000D02*
X93185000Y-77080000D01*
X93185000Y-77080000D02*
X108705000Y-77080000D01*
X108705000Y-59120000D02*
X93185000Y-59120000D01*
X108705000Y-59120000D02*
X108705000Y-77080000D01*
X46270000Y-70230000D02*
X46270000Y-71500000D01*
X45000000Y-70230000D02*
X46270000Y-70230000D01*
X42840000Y-72542929D02*
X42840000Y-72940000D01*
X42080000Y-72542929D02*
X42080000Y-72940000D01*
X40300000Y-72542929D02*
X40300000Y-72940000D01*
X39540000Y-72542929D02*
X39540000Y-72940000D01*
X45380000Y-72610000D02*
X45380000Y-72940000D01*
X44620000Y-72610000D02*
X44620000Y-72940000D01*
X46330000Y-72940000D02*
X38590000Y-72940000D01*
X43730000Y-72940000D02*
X43730000Y-75600000D01*
X41190000Y-72940000D02*
X41190000Y-75600000D01*
X38590000Y-72940000D02*
X38590000Y-75600000D01*
X46330000Y-75600000D02*
X46330000Y-72940000D01*
X45380000Y-75600000D02*
X45380000Y-81600000D01*
X45320000Y-75600000D02*
X45320000Y-81600000D01*
X45200000Y-75600000D02*
X45200000Y-81600000D01*
X45080000Y-75600000D02*
X45080000Y-81600000D01*
X44960000Y-75600000D02*
X44960000Y-81600000D01*
X44840000Y-75600000D02*
X44840000Y-81600000D01*
X44720000Y-75600000D02*
X44720000Y-81600000D01*
X42840000Y-75600000D02*
X42840000Y-81600000D01*
X40300000Y-75600000D02*
X40300000Y-81600000D01*
X38590000Y-75600000D02*
X46330000Y-75600000D01*
X45380000Y-81600000D02*
X44620000Y-81600000D01*
X44620000Y-81600000D02*
X44620000Y-75600000D01*
X42840000Y-81600000D02*
X42080000Y-81600000D01*
X42080000Y-81600000D02*
X42080000Y-75600000D01*
X40300000Y-81600000D02*
X39540000Y-81600000D01*
X39540000Y-81600000D02*
X39540000Y-75600000D01*
X112125000Y-68479646D02*
X112125000Y-67479646D01*
X111625000Y-67979646D02*
X112625000Y-67979646D01*
X109920000Y-63000000D02*
X120080000Y-63000000D01*
X109920000Y-62960000D02*
X120080000Y-62960000D01*
X109920000Y-62920000D02*
X120080000Y-62920000D01*
X109921000Y-62880000D02*
X120079000Y-62880000D01*
X109922000Y-62840000D02*
X120078000Y-62840000D01*
X109923000Y-62800000D02*
X120077000Y-62800000D01*
X109925000Y-62760000D02*
X120075000Y-62760000D01*
X109927000Y-62720000D02*
X120073000Y-62720000D01*
X109930000Y-62680000D02*
X120070000Y-62680000D01*
X109932000Y-62640000D02*
X120068000Y-62640000D01*
X109935000Y-62600000D02*
X120065000Y-62600000D01*
X109938000Y-62560000D02*
X120062000Y-62560000D01*
X109942000Y-62520000D02*
X120058000Y-62520000D01*
X109946000Y-62480000D02*
X120054000Y-62480000D01*
X109950000Y-62440000D02*
X120050000Y-62440000D01*
X109955000Y-62400000D02*
X120045000Y-62400000D01*
X109960000Y-62360000D02*
X120040000Y-62360000D01*
X109965000Y-62320000D02*
X120035000Y-62320000D01*
X109970000Y-62279000D02*
X120030000Y-62279000D01*
X109976000Y-62239000D02*
X120024000Y-62239000D01*
X109982000Y-62199000D02*
X120018000Y-62199000D01*
X109989000Y-62159000D02*
X120011000Y-62159000D01*
X109996000Y-62119000D02*
X120004000Y-62119000D01*
X110003000Y-62079000D02*
X119997000Y-62079000D01*
X110010000Y-62039000D02*
X119990000Y-62039000D01*
X110018000Y-61999000D02*
X119982000Y-61999000D01*
X110026000Y-61959000D02*
X119974000Y-61959000D01*
X110035000Y-61919000D02*
X119965000Y-61919000D01*
X110044000Y-61879000D02*
X119956000Y-61879000D01*
X110053000Y-61839000D02*
X119947000Y-61839000D01*
X110062000Y-61799000D02*
X119938000Y-61799000D01*
X110072000Y-61759000D02*
X119928000Y-61759000D01*
X110082000Y-61719000D02*
X113759000Y-61719000D01*
X116241000Y-61719000D02*
X119918000Y-61719000D01*
X110093000Y-61679000D02*
X113759000Y-61679000D01*
X116241000Y-61679000D02*
X119907000Y-61679000D01*
X110103000Y-61639000D02*
X113759000Y-61639000D01*
X116241000Y-61639000D02*
X119897000Y-61639000D01*
X110115000Y-61599000D02*
X113759000Y-61599000D01*
X116241000Y-61599000D02*
X119885000Y-61599000D01*
X110126000Y-61559000D02*
X113759000Y-61559000D01*
X116241000Y-61559000D02*
X119874000Y-61559000D01*
X110138000Y-61519000D02*
X113759000Y-61519000D01*
X116241000Y-61519000D02*
X119862000Y-61519000D01*
X110150000Y-61479000D02*
X113759000Y-61479000D01*
X116241000Y-61479000D02*
X119850000Y-61479000D01*
X110163000Y-61439000D02*
X113759000Y-61439000D01*
X116241000Y-61439000D02*
X119837000Y-61439000D01*
X110176000Y-61399000D02*
X113759000Y-61399000D01*
X116241000Y-61399000D02*
X119824000Y-61399000D01*
X110189000Y-61359000D02*
X113759000Y-61359000D01*
X116241000Y-61359000D02*
X119811000Y-61359000D01*
X110203000Y-61319000D02*
X113759000Y-61319000D01*
X116241000Y-61319000D02*
X119797000Y-61319000D01*
X110217000Y-61279000D02*
X113759000Y-61279000D01*
X116241000Y-61279000D02*
X119783000Y-61279000D01*
X110232000Y-61239000D02*
X113759000Y-61239000D01*
X116241000Y-61239000D02*
X119768000Y-61239000D01*
X110246000Y-61199000D02*
X113759000Y-61199000D01*
X116241000Y-61199000D02*
X119754000Y-61199000D01*
X110262000Y-61159000D02*
X113759000Y-61159000D01*
X116241000Y-61159000D02*
X119738000Y-61159000D01*
X110277000Y-61119000D02*
X113759000Y-61119000D01*
X116241000Y-61119000D02*
X119723000Y-61119000D01*
X110293000Y-61079000D02*
X113759000Y-61079000D01*
X116241000Y-61079000D02*
X119707000Y-61079000D01*
X110310000Y-61039000D02*
X113759000Y-61039000D01*
X116241000Y-61039000D02*
X119690000Y-61039000D01*
X110326000Y-60999000D02*
X113759000Y-60999000D01*
X116241000Y-60999000D02*
X119674000Y-60999000D01*
X110343000Y-60959000D02*
X113759000Y-60959000D01*
X116241000Y-60959000D02*
X119657000Y-60959000D01*
X110361000Y-60919000D02*
X113759000Y-60919000D01*
X116241000Y-60919000D02*
X119639000Y-60919000D01*
X110379000Y-60879000D02*
X113759000Y-60879000D01*
X116241000Y-60879000D02*
X119621000Y-60879000D01*
X110397000Y-60839000D02*
X113759000Y-60839000D01*
X116241000Y-60839000D02*
X119603000Y-60839000D01*
X110416000Y-60799000D02*
X113759000Y-60799000D01*
X116241000Y-60799000D02*
X119584000Y-60799000D01*
X110436000Y-60759000D02*
X113759000Y-60759000D01*
X116241000Y-60759000D02*
X119564000Y-60759000D01*
X110455000Y-60719000D02*
X113759000Y-60719000D01*
X116241000Y-60719000D02*
X119545000Y-60719000D01*
X110475000Y-60679000D02*
X113759000Y-60679000D01*
X116241000Y-60679000D02*
X119525000Y-60679000D01*
X110496000Y-60639000D02*
X113759000Y-60639000D01*
X116241000Y-60639000D02*
X119504000Y-60639000D01*
X110517000Y-60599000D02*
X113759000Y-60599000D01*
X116241000Y-60599000D02*
X119483000Y-60599000D01*
X110538000Y-60559000D02*
X113759000Y-60559000D01*
X116241000Y-60559000D02*
X119462000Y-60559000D01*
X110560000Y-60519000D02*
X113759000Y-60519000D01*
X116241000Y-60519000D02*
X119440000Y-60519000D01*
X110583000Y-60479000D02*
X113759000Y-60479000D01*
X116241000Y-60479000D02*
X119417000Y-60479000D01*
X110605000Y-60439000D02*
X113759000Y-60439000D01*
X116241000Y-60439000D02*
X119395000Y-60439000D01*
X110629000Y-60399000D02*
X113759000Y-60399000D01*
X116241000Y-60399000D02*
X119371000Y-60399000D01*
X110653000Y-60359000D02*
X113759000Y-60359000D01*
X116241000Y-60359000D02*
X119347000Y-60359000D01*
X110677000Y-60319000D02*
X113759000Y-60319000D01*
X116241000Y-60319000D02*
X119323000Y-60319000D01*
X110702000Y-60279000D02*
X113759000Y-60279000D01*
X116241000Y-60279000D02*
X119298000Y-60279000D01*
X110727000Y-60239000D02*
X113759000Y-60239000D01*
X116241000Y-60239000D02*
X119273000Y-60239000D01*
X110753000Y-60199000D02*
X113759000Y-60199000D01*
X116241000Y-60199000D02*
X119247000Y-60199000D01*
X110779000Y-60159000D02*
X113759000Y-60159000D01*
X116241000Y-60159000D02*
X119221000Y-60159000D01*
X110806000Y-60119000D02*
X113759000Y-60119000D01*
X116241000Y-60119000D02*
X119194000Y-60119000D01*
X110834000Y-60079000D02*
X113759000Y-60079000D01*
X116241000Y-60079000D02*
X119166000Y-60079000D01*
X110862000Y-60039000D02*
X113759000Y-60039000D01*
X116241000Y-60039000D02*
X119138000Y-60039000D01*
X110890000Y-59999000D02*
X113759000Y-59999000D01*
X116241000Y-59999000D02*
X119110000Y-59999000D01*
X110920000Y-59959000D02*
X113759000Y-59959000D01*
X116241000Y-59959000D02*
X119080000Y-59959000D01*
X110950000Y-59919000D02*
X113759000Y-59919000D01*
X116241000Y-59919000D02*
X119050000Y-59919000D01*
X110980000Y-59879000D02*
X113759000Y-59879000D01*
X116241000Y-59879000D02*
X119020000Y-59879000D01*
X111011000Y-59839000D02*
X113759000Y-59839000D01*
X116241000Y-59839000D02*
X118989000Y-59839000D01*
X111043000Y-59799000D02*
X113759000Y-59799000D01*
X116241000Y-59799000D02*
X118957000Y-59799000D01*
X111075000Y-59759000D02*
X113759000Y-59759000D01*
X116241000Y-59759000D02*
X118925000Y-59759000D01*
X111108000Y-59719000D02*
X113759000Y-59719000D01*
X116241000Y-59719000D02*
X118892000Y-59719000D01*
X111142000Y-59679000D02*
X113759000Y-59679000D01*
X116241000Y-59679000D02*
X118858000Y-59679000D01*
X111176000Y-59639000D02*
X113759000Y-59639000D01*
X116241000Y-59639000D02*
X118824000Y-59639000D01*
X111211000Y-59599000D02*
X113759000Y-59599000D01*
X116241000Y-59599000D02*
X118789000Y-59599000D01*
X111247000Y-59559000D02*
X113759000Y-59559000D01*
X116241000Y-59559000D02*
X118753000Y-59559000D01*
X111284000Y-59519000D02*
X113759000Y-59519000D01*
X116241000Y-59519000D02*
X118716000Y-59519000D01*
X111321000Y-59479000D02*
X113759000Y-59479000D01*
X116241000Y-59479000D02*
X118679000Y-59479000D01*
X111360000Y-59439000D02*
X113759000Y-59439000D01*
X116241000Y-59439000D02*
X118640000Y-59439000D01*
X111399000Y-59399000D02*
X113759000Y-59399000D01*
X116241000Y-59399000D02*
X118601000Y-59399000D01*
X111439000Y-59359000D02*
X113759000Y-59359000D01*
X116241000Y-59359000D02*
X118561000Y-59359000D01*
X111480000Y-59319000D02*
X113759000Y-59319000D01*
X116241000Y-59319000D02*
X118520000Y-59319000D01*
X111522000Y-59279000D02*
X113759000Y-59279000D01*
X116241000Y-59279000D02*
X118478000Y-59279000D01*
X111564000Y-59239000D02*
X118436000Y-59239000D01*
X111608000Y-59199000D02*
X118392000Y-59199000D01*
X111653000Y-59159000D02*
X118347000Y-59159000D01*
X111699000Y-59119000D02*
X118301000Y-59119000D01*
X111746000Y-59079000D02*
X118254000Y-59079000D01*
X111794000Y-59039000D02*
X118206000Y-59039000D01*
X111844000Y-58999000D02*
X118156000Y-58999000D01*
X111894000Y-58959000D02*
X118106000Y-58959000D01*
X111946000Y-58919000D02*
X118054000Y-58919000D01*
X112000000Y-58879000D02*
X118000000Y-58879000D01*
X112055000Y-58839000D02*
X117945000Y-58839000D01*
X112111000Y-58799000D02*
X117889000Y-58799000D01*
X112170000Y-58759000D02*
X117830000Y-58759000D01*
X112230000Y-58719000D02*
X117770000Y-58719000D01*
X112291000Y-58679000D02*
X117709000Y-58679000D01*
X112355000Y-58639000D02*
X117645000Y-58639000D01*
X112421000Y-58599000D02*
X117579000Y-58599000D01*
X112490000Y-58559000D02*
X117510000Y-58559000D01*
X112561000Y-58519000D02*
X117439000Y-58519000D01*
X112635000Y-58479000D02*
X117365000Y-58479000D01*
X112711000Y-58439000D02*
X117289000Y-58439000D01*
X112791000Y-58399000D02*
X117209000Y-58399000D01*
X112875000Y-58359000D02*
X117125000Y-58359000D01*
X112963000Y-58319000D02*
X117037000Y-58319000D01*
X113056000Y-58279000D02*
X116944000Y-58279000D01*
X113154000Y-58239000D02*
X116846000Y-58239000D01*
X113258000Y-58199000D02*
X116742000Y-58199000D01*
X113370000Y-58159000D02*
X116630000Y-58159000D01*
X113490000Y-58119000D02*
X116510000Y-58119000D01*
X113622000Y-58079000D02*
X116378000Y-58079000D01*
X113770000Y-58039000D02*
X116230000Y-58039000D01*
X113938000Y-57999000D02*
X116062000Y-57999000D01*
X114138000Y-57959000D02*
X115862000Y-57959000D01*
X114401000Y-57919000D02*
X115599000Y-57919000D01*
X120120000Y-63000000D02*
G75*
G03*
X120120000Y-63000000I-5120000J0D01*
G01*
X49625000Y-67979646D02*
X49625000Y-66979646D01*
X49125000Y-67479646D02*
X50125000Y-67479646D01*
X47420000Y-62500000D02*
X57580000Y-62500000D01*
X47420000Y-62460000D02*
X57580000Y-62460000D01*
X47420000Y-62420000D02*
X57580000Y-62420000D01*
X47421000Y-62380000D02*
X57579000Y-62380000D01*
X47422000Y-62340000D02*
X57578000Y-62340000D01*
X47423000Y-62300000D02*
X57577000Y-62300000D01*
X47425000Y-62260000D02*
X57575000Y-62260000D01*
X47427000Y-62220000D02*
X57573000Y-62220000D01*
X47430000Y-62180000D02*
X57570000Y-62180000D01*
X47432000Y-62140000D02*
X57568000Y-62140000D01*
X47435000Y-62100000D02*
X57565000Y-62100000D01*
X47438000Y-62060000D02*
X57562000Y-62060000D01*
X47442000Y-62020000D02*
X57558000Y-62020000D01*
X47446000Y-61980000D02*
X57554000Y-61980000D01*
X47450000Y-61940000D02*
X57550000Y-61940000D01*
X47455000Y-61900000D02*
X57545000Y-61900000D01*
X47460000Y-61860000D02*
X57540000Y-61860000D01*
X47465000Y-61820000D02*
X57535000Y-61820000D01*
X47470000Y-61779000D02*
X57530000Y-61779000D01*
X47476000Y-61739000D02*
X57524000Y-61739000D01*
X47482000Y-61699000D02*
X57518000Y-61699000D01*
X47489000Y-61659000D02*
X57511000Y-61659000D01*
X47496000Y-61619000D02*
X57504000Y-61619000D01*
X47503000Y-61579000D02*
X57497000Y-61579000D01*
X47510000Y-61539000D02*
X57490000Y-61539000D01*
X47518000Y-61499000D02*
X57482000Y-61499000D01*
X47526000Y-61459000D02*
X57474000Y-61459000D01*
X47535000Y-61419000D02*
X57465000Y-61419000D01*
X47544000Y-61379000D02*
X57456000Y-61379000D01*
X47553000Y-61339000D02*
X57447000Y-61339000D01*
X47562000Y-61299000D02*
X57438000Y-61299000D01*
X47572000Y-61259000D02*
X57428000Y-61259000D01*
X47582000Y-61219000D02*
X51259000Y-61219000D01*
X53741000Y-61219000D02*
X57418000Y-61219000D01*
X47593000Y-61179000D02*
X51259000Y-61179000D01*
X53741000Y-61179000D02*
X57407000Y-61179000D01*
X47603000Y-61139000D02*
X51259000Y-61139000D01*
X53741000Y-61139000D02*
X57397000Y-61139000D01*
X47615000Y-61099000D02*
X51259000Y-61099000D01*
X53741000Y-61099000D02*
X57385000Y-61099000D01*
X47626000Y-61059000D02*
X51259000Y-61059000D01*
X53741000Y-61059000D02*
X57374000Y-61059000D01*
X47638000Y-61019000D02*
X51259000Y-61019000D01*
X53741000Y-61019000D02*
X57362000Y-61019000D01*
X47650000Y-60979000D02*
X51259000Y-60979000D01*
X53741000Y-60979000D02*
X57350000Y-60979000D01*
X47663000Y-60939000D02*
X51259000Y-60939000D01*
X53741000Y-60939000D02*
X57337000Y-60939000D01*
X47676000Y-60899000D02*
X51259000Y-60899000D01*
X53741000Y-60899000D02*
X57324000Y-60899000D01*
X47689000Y-60859000D02*
X51259000Y-60859000D01*
X53741000Y-60859000D02*
X57311000Y-60859000D01*
X47703000Y-60819000D02*
X51259000Y-60819000D01*
X53741000Y-60819000D02*
X57297000Y-60819000D01*
X47717000Y-60779000D02*
X51259000Y-60779000D01*
X53741000Y-60779000D02*
X57283000Y-60779000D01*
X47732000Y-60739000D02*
X51259000Y-60739000D01*
X53741000Y-60739000D02*
X57268000Y-60739000D01*
X47746000Y-60699000D02*
X51259000Y-60699000D01*
X53741000Y-60699000D02*
X57254000Y-60699000D01*
X47762000Y-60659000D02*
X51259000Y-60659000D01*
X53741000Y-60659000D02*
X57238000Y-60659000D01*
X47777000Y-60619000D02*
X51259000Y-60619000D01*
X53741000Y-60619000D02*
X57223000Y-60619000D01*
X47793000Y-60579000D02*
X51259000Y-60579000D01*
X53741000Y-60579000D02*
X57207000Y-60579000D01*
X47810000Y-60539000D02*
X51259000Y-60539000D01*
X53741000Y-60539000D02*
X57190000Y-60539000D01*
X47826000Y-60499000D02*
X51259000Y-60499000D01*
X53741000Y-60499000D02*
X57174000Y-60499000D01*
X47843000Y-60459000D02*
X51259000Y-60459000D01*
X53741000Y-60459000D02*
X57157000Y-60459000D01*
X47861000Y-60419000D02*
X51259000Y-60419000D01*
X53741000Y-60419000D02*
X57139000Y-60419000D01*
X47879000Y-60379000D02*
X51259000Y-60379000D01*
X53741000Y-60379000D02*
X57121000Y-60379000D01*
X47897000Y-60339000D02*
X51259000Y-60339000D01*
X53741000Y-60339000D02*
X57103000Y-60339000D01*
X47916000Y-60299000D02*
X51259000Y-60299000D01*
X53741000Y-60299000D02*
X57084000Y-60299000D01*
X47936000Y-60259000D02*
X51259000Y-60259000D01*
X53741000Y-60259000D02*
X57064000Y-60259000D01*
X47955000Y-60219000D02*
X51259000Y-60219000D01*
X53741000Y-60219000D02*
X57045000Y-60219000D01*
X47975000Y-60179000D02*
X51259000Y-60179000D01*
X53741000Y-60179000D02*
X57025000Y-60179000D01*
X47996000Y-60139000D02*
X51259000Y-60139000D01*
X53741000Y-60139000D02*
X57004000Y-60139000D01*
X48017000Y-60099000D02*
X51259000Y-60099000D01*
X53741000Y-60099000D02*
X56983000Y-60099000D01*
X48038000Y-60059000D02*
X51259000Y-60059000D01*
X53741000Y-60059000D02*
X56962000Y-60059000D01*
X48060000Y-60019000D02*
X51259000Y-60019000D01*
X53741000Y-60019000D02*
X56940000Y-60019000D01*
X48083000Y-59979000D02*
X51259000Y-59979000D01*
X53741000Y-59979000D02*
X56917000Y-59979000D01*
X48105000Y-59939000D02*
X51259000Y-59939000D01*
X53741000Y-59939000D02*
X56895000Y-59939000D01*
X48129000Y-59899000D02*
X51259000Y-59899000D01*
X53741000Y-59899000D02*
X56871000Y-59899000D01*
X48153000Y-59859000D02*
X51259000Y-59859000D01*
X53741000Y-59859000D02*
X56847000Y-59859000D01*
X48177000Y-59819000D02*
X51259000Y-59819000D01*
X53741000Y-59819000D02*
X56823000Y-59819000D01*
X48202000Y-59779000D02*
X51259000Y-59779000D01*
X53741000Y-59779000D02*
X56798000Y-59779000D01*
X48227000Y-59739000D02*
X51259000Y-59739000D01*
X53741000Y-59739000D02*
X56773000Y-59739000D01*
X48253000Y-59699000D02*
X51259000Y-59699000D01*
X53741000Y-59699000D02*
X56747000Y-59699000D01*
X48279000Y-59659000D02*
X51259000Y-59659000D01*
X53741000Y-59659000D02*
X56721000Y-59659000D01*
X48306000Y-59619000D02*
X51259000Y-59619000D01*
X53741000Y-59619000D02*
X56694000Y-59619000D01*
X48334000Y-59579000D02*
X51259000Y-59579000D01*
X53741000Y-59579000D02*
X56666000Y-59579000D01*
X48362000Y-59539000D02*
X51259000Y-59539000D01*
X53741000Y-59539000D02*
X56638000Y-59539000D01*
X48390000Y-59499000D02*
X51259000Y-59499000D01*
X53741000Y-59499000D02*
X56610000Y-59499000D01*
X48420000Y-59459000D02*
X51259000Y-59459000D01*
X53741000Y-59459000D02*
X56580000Y-59459000D01*
X48450000Y-59419000D02*
X51259000Y-59419000D01*
X53741000Y-59419000D02*
X56550000Y-59419000D01*
X48480000Y-59379000D02*
X51259000Y-59379000D01*
X53741000Y-59379000D02*
X56520000Y-59379000D01*
X48511000Y-59339000D02*
X51259000Y-59339000D01*
X53741000Y-59339000D02*
X56489000Y-59339000D01*
X48543000Y-59299000D02*
X51259000Y-59299000D01*
X53741000Y-59299000D02*
X56457000Y-59299000D01*
X48575000Y-59259000D02*
X51259000Y-59259000D01*
X53741000Y-59259000D02*
X56425000Y-59259000D01*
X48608000Y-59219000D02*
X51259000Y-59219000D01*
X53741000Y-59219000D02*
X56392000Y-59219000D01*
X48642000Y-59179000D02*
X51259000Y-59179000D01*
X53741000Y-59179000D02*
X56358000Y-59179000D01*
X48676000Y-59139000D02*
X51259000Y-59139000D01*
X53741000Y-59139000D02*
X56324000Y-59139000D01*
X48711000Y-59099000D02*
X51259000Y-59099000D01*
X53741000Y-59099000D02*
X56289000Y-59099000D01*
X48747000Y-59059000D02*
X51259000Y-59059000D01*
X53741000Y-59059000D02*
X56253000Y-59059000D01*
X48784000Y-59019000D02*
X51259000Y-59019000D01*
X53741000Y-59019000D02*
X56216000Y-59019000D01*
X48821000Y-58979000D02*
X51259000Y-58979000D01*
X53741000Y-58979000D02*
X56179000Y-58979000D01*
X48860000Y-58939000D02*
X51259000Y-58939000D01*
X53741000Y-58939000D02*
X56140000Y-58939000D01*
X48899000Y-58899000D02*
X51259000Y-58899000D01*
X53741000Y-58899000D02*
X56101000Y-58899000D01*
X48939000Y-58859000D02*
X51259000Y-58859000D01*
X53741000Y-58859000D02*
X56061000Y-58859000D01*
X48980000Y-58819000D02*
X51259000Y-58819000D01*
X53741000Y-58819000D02*
X56020000Y-58819000D01*
X49022000Y-58779000D02*
X51259000Y-58779000D01*
X53741000Y-58779000D02*
X55978000Y-58779000D01*
X49064000Y-58739000D02*
X55936000Y-58739000D01*
X49108000Y-58699000D02*
X55892000Y-58699000D01*
X49153000Y-58659000D02*
X55847000Y-58659000D01*
X49199000Y-58619000D02*
X55801000Y-58619000D01*
X49246000Y-58579000D02*
X55754000Y-58579000D01*
X49294000Y-58539000D02*
X55706000Y-58539000D01*
X49344000Y-58499000D02*
X55656000Y-58499000D01*
X49394000Y-58459000D02*
X55606000Y-58459000D01*
X49446000Y-58419000D02*
X55554000Y-58419000D01*
X49500000Y-58379000D02*
X55500000Y-58379000D01*
X49555000Y-58339000D02*
X55445000Y-58339000D01*
X49611000Y-58299000D02*
X55389000Y-58299000D01*
X49670000Y-58259000D02*
X55330000Y-58259000D01*
X49730000Y-58219000D02*
X55270000Y-58219000D01*
X49791000Y-58179000D02*
X55209000Y-58179000D01*
X49855000Y-58139000D02*
X55145000Y-58139000D01*
X49921000Y-58099000D02*
X55079000Y-58099000D01*
X49990000Y-58059000D02*
X55010000Y-58059000D01*
X50061000Y-58019000D02*
X54939000Y-58019000D01*
X50135000Y-57979000D02*
X54865000Y-57979000D01*
X50211000Y-57939000D02*
X54789000Y-57939000D01*
X50291000Y-57899000D02*
X54709000Y-57899000D01*
X50375000Y-57859000D02*
X54625000Y-57859000D01*
X50463000Y-57819000D02*
X54537000Y-57819000D01*
X50556000Y-57779000D02*
X54444000Y-57779000D01*
X50654000Y-57739000D02*
X54346000Y-57739000D01*
X50758000Y-57699000D02*
X54242000Y-57699000D01*
X50870000Y-57659000D02*
X54130000Y-57659000D01*
X50990000Y-57619000D02*
X54010000Y-57619000D01*
X51122000Y-57579000D02*
X53878000Y-57579000D01*
X51270000Y-57539000D02*
X53730000Y-57539000D01*
X51438000Y-57499000D02*
X53562000Y-57499000D01*
X51638000Y-57459000D02*
X53362000Y-57459000D01*
X51901000Y-57419000D02*
X53099000Y-57419000D01*
X57620000Y-62500000D02*
G75*
G03*
X57620000Y-62500000I-5120000J0D01*
G01*
D10*
X91200000Y-87250000D02*
X91200000Y-78250000D01*
X91200000Y-87100000D02*
X75800000Y-87100000D01*
X91200000Y-76250000D02*
X91200000Y-64000000D01*
X91200000Y-64000000D02*
X91200000Y-57250000D01*
X91200000Y-64000000D02*
X75800000Y-64000000D01*
X91200000Y-57250000D02*
X75800000Y-57250000D01*
X89750000Y-77250000D02*
X77250000Y-77250000D01*
X83500000Y-87000000D02*
X83500000Y-64000000D01*
X75800000Y-78250000D02*
X75800000Y-87250000D01*
X75800000Y-64000000D02*
X75800000Y-76250000D01*
X75800000Y-57250000D02*
X75800000Y-64000000D01*
X48500000Y-56000000D02*
G75*
G03*
X48500000Y-56000000I-5000000J0D01*
G01*
%LPC*%
D14*
X39112500Y-65150000D03*
X40687500Y-65150000D03*
D15*
X70450000Y-58910000D03*
X62550000Y-58910000D03*
D16*
X55000000Y-71500000D03*
D17*
X52460000Y-71500000D03*
X49920000Y-71500000D03*
D16*
X118000000Y-72000000D03*
D17*
X115460000Y-72000000D03*
X112920000Y-72000000D03*
D16*
X128500000Y-72000000D03*
D17*
X125960000Y-72000000D03*
X123420000Y-72000000D03*
D18*
X124500000Y-56000000D03*
D19*
X95230000Y-69350000D03*
X106660000Y-69350000D03*
D20*
X96500000Y-63000000D03*
D21*
X97770000Y-60460000D03*
X99040000Y-63000000D03*
X100310000Y-60460000D03*
X101580000Y-63000000D03*
X102850000Y-60460000D03*
X104120000Y-63000000D03*
X105390000Y-60460000D03*
D16*
X45000000Y-71500000D03*
D17*
X42460000Y-71500000D03*
X39920000Y-71500000D03*
D22*
X115000000Y-65500000D03*
D23*
X115000000Y-60500000D03*
D22*
X52500000Y-65000000D03*
D23*
X52500000Y-60000000D03*
D15*
X87450000Y-59000000D03*
X79550000Y-59000000D03*
D18*
X43500000Y-56000000D03*
%LPD*%
M02*
