G04 #@! TF.GenerationSoftware,KiCad,Pcbnew,5.1.9-73d0e3b20d~88~ubuntu20.04.1*
G04 #@! TF.CreationDate,2021-04-26T21:02:44-06:00*
G04 #@! TF.ProjectId,pole-node,706f6c65-2d6e-46f6-9465-2e6b69636164,rev?*
G04 #@! TF.SameCoordinates,Original*
G04 #@! TF.FileFunction,Copper,L1,Top*
G04 #@! TF.FilePolarity,Positive*
%FSLAX46Y46*%
G04 Gerber Fmt 4.6, Leading zero omitted, Abs format (unit mm)*
G04 Created by KiCad (PCBNEW 5.1.9-73d0e3b20d~88~ubuntu20.04.1) date 2021-04-26 21:02:44*
%MOMM*%
%LPD*%
G01*
G04 APERTURE LIST*
G04 #@! TA.AperFunction,ComponentPad*
%ADD10C,2.000000*%
G04 #@! TD*
G04 #@! TA.AperFunction,ComponentPad*
%ADD11R,2.000000X2.000000*%
G04 #@! TD*
G04 #@! TA.AperFunction,SMDPad,CuDef*
%ADD12R,2.500000X2.300000*%
G04 #@! TD*
G04 #@! TA.AperFunction,SMDPad,CuDef*
%ADD13R,2.300000X2.500000*%
G04 #@! TD*
G04 #@! TA.AperFunction,ComponentPad*
%ADD14O,1.700000X1.700000*%
G04 #@! TD*
G04 #@! TA.AperFunction,ComponentPad*
%ADD15R,1.700000X1.700000*%
G04 #@! TD*
G04 #@! TA.AperFunction,ComponentPad*
%ADD16O,6.030000X2.070000*%
G04 #@! TD*
G04 #@! TA.AperFunction,ComponentPad*
%ADD17C,5.200000*%
G04 #@! TD*
G04 #@! TA.AperFunction,ComponentPad*
%ADD18C,0.600000*%
G04 #@! TD*
G04 #@! TA.AperFunction,SMDPad,CuDef*
%ADD19R,0.650000X1.060000*%
G04 #@! TD*
G04 #@! TA.AperFunction,SMDPad,CuDef*
%ADD20R,5.900000X1.600000*%
G04 #@! TD*
G04 #@! TA.AperFunction,ComponentPad*
%ADD21C,1.500000*%
G04 #@! TD*
G04 #@! TA.AperFunction,ComponentPad*
%ADD22R,1.500000X1.500000*%
G04 #@! TD*
G04 #@! TA.AperFunction,SMDPad,CuDef*
%ADD23R,0.450000X0.600000*%
G04 #@! TD*
G04 #@! TA.AperFunction,SMDPad,CuDef*
%ADD24R,0.900000X1.200000*%
G04 #@! TD*
G04 #@! TA.AperFunction,ViaPad*
%ADD25C,0.800000*%
G04 #@! TD*
G04 #@! TA.AperFunction,Conductor*
%ADD26C,3.000000*%
G04 #@! TD*
G04 #@! TA.AperFunction,Conductor*
%ADD27C,2.000000*%
G04 #@! TD*
G04 #@! TA.AperFunction,Conductor*
%ADD28C,1.000000*%
G04 #@! TD*
G04 #@! TA.AperFunction,Conductor*
%ADD29C,0.750000*%
G04 #@! TD*
G04 #@! TA.AperFunction,Conductor*
%ADD30C,0.500000*%
G04 #@! TD*
G04 #@! TA.AperFunction,Conductor*
%ADD31C,0.250000*%
G04 #@! TD*
G04 #@! TA.AperFunction,Conductor*
%ADD32C,0.254000*%
G04 #@! TD*
G04 #@! TA.AperFunction,Conductor*
%ADD33C,0.100000*%
G04 #@! TD*
G04 APERTURE END LIST*
D10*
X45500000Y-63500000D03*
D11*
X40500000Y-63500000D03*
D12*
X88850000Y-53800000D03*
X93150000Y-53800000D03*
D13*
X52400000Y-58400000D03*
X52400000Y-62700000D03*
D12*
X44850000Y-48600000D03*
X40550000Y-48600000D03*
X56250000Y-38100000D03*
X51950000Y-38100000D03*
X98650000Y-48600000D03*
X102950000Y-48600000D03*
X98650000Y-53800000D03*
X102950000Y-53800000D03*
X88850000Y-48600000D03*
X93150000Y-48600000D03*
X63850000Y-67200000D03*
X59550000Y-67200000D03*
X55550000Y-67200000D03*
X51250000Y-67200000D03*
D10*
X50500000Y-46000000D03*
D11*
X55500000Y-46000000D03*
D14*
X60920000Y-72000000D03*
X63460000Y-72000000D03*
D15*
X66000000Y-72000000D03*
D14*
X50420000Y-72000000D03*
X52960000Y-72000000D03*
D15*
X55500000Y-72000000D03*
D14*
X39920000Y-72000000D03*
X42460000Y-72000000D03*
D15*
X45000000Y-72000000D03*
D14*
X66080000Y-41000000D03*
X63540000Y-41000000D03*
D15*
X61000000Y-41000000D03*
D16*
X82950000Y-53000000D03*
X75050000Y-53000000D03*
X75050000Y-58910000D03*
X82950000Y-58910000D03*
D13*
X68000000Y-63350000D03*
X68000000Y-67650000D03*
G04 #@! TA.AperFunction,SMDPad,CuDef*
G36*
G01*
X59750000Y-60325000D02*
X60250000Y-60325000D01*
G75*
G02*
X60475000Y-60550000I0J-225000D01*
G01*
X60475000Y-61000000D01*
G75*
G02*
X60250000Y-61225000I-225000J0D01*
G01*
X59750000Y-61225000D01*
G75*
G02*
X59525000Y-61000000I0J225000D01*
G01*
X59525000Y-60550000D01*
G75*
G02*
X59750000Y-60325000I225000J0D01*
G01*
G37*
G04 #@! TD.AperFunction*
G04 #@! TA.AperFunction,SMDPad,CuDef*
G36*
G01*
X59750000Y-58775000D02*
X60250000Y-58775000D01*
G75*
G02*
X60475000Y-59000000I0J-225000D01*
G01*
X60475000Y-59450000D01*
G75*
G02*
X60250000Y-59675000I-225000J0D01*
G01*
X59750000Y-59675000D01*
G75*
G02*
X59525000Y-59450000I0J225000D01*
G01*
X59525000Y-59000000D01*
G75*
G02*
X59750000Y-58775000I225000J0D01*
G01*
G37*
G04 #@! TD.AperFunction*
D17*
X100500000Y-40500000D03*
D18*
X100500000Y-36750000D03*
X100500000Y-44250000D03*
X104250000Y-40500000D03*
X96750000Y-40500000D03*
X97850000Y-37850000D03*
X103150000Y-37850000D03*
X97850000Y-43150000D03*
X103150000Y-43150000D03*
X46150000Y-43150000D03*
X40850000Y-43150000D03*
X46150000Y-37850000D03*
X40850000Y-37850000D03*
X39750000Y-40500000D03*
X47250000Y-40500000D03*
X43500000Y-44250000D03*
X43500000Y-36750000D03*
D17*
X43500000Y-40500000D03*
G04 #@! TA.AperFunction,SMDPad,CuDef*
G36*
G01*
X60250000Y-63956250D02*
X60250000Y-63443750D01*
G75*
G02*
X60468750Y-63225000I218750J0D01*
G01*
X60906250Y-63225000D01*
G75*
G02*
X61125000Y-63443750I0J-218750D01*
G01*
X61125000Y-63956250D01*
G75*
G02*
X60906250Y-64175000I-218750J0D01*
G01*
X60468750Y-64175000D01*
G75*
G02*
X60250000Y-63956250I0J218750D01*
G01*
G37*
G04 #@! TD.AperFunction*
G04 #@! TA.AperFunction,SMDPad,CuDef*
G36*
G01*
X58675000Y-63956250D02*
X58675000Y-63443750D01*
G75*
G02*
X58893750Y-63225000I218750J0D01*
G01*
X59331250Y-63225000D01*
G75*
G02*
X59550000Y-63443750I0J-218750D01*
G01*
X59550000Y-63956250D01*
G75*
G02*
X59331250Y-64175000I-218750J0D01*
G01*
X58893750Y-64175000D01*
G75*
G02*
X58675000Y-63956250I0J218750D01*
G01*
G37*
G04 #@! TD.AperFunction*
G04 #@! TA.AperFunction,SMDPad,CuDef*
G36*
G01*
X43500000Y-52745000D02*
X43500000Y-52445000D01*
G75*
G02*
X43650000Y-52295000I150000J0D01*
G01*
X45300000Y-52295000D01*
G75*
G02*
X45450000Y-52445000I0J-150000D01*
G01*
X45450000Y-52745000D01*
G75*
G02*
X45300000Y-52895000I-150000J0D01*
G01*
X43650000Y-52895000D01*
G75*
G02*
X43500000Y-52745000I0J150000D01*
G01*
G37*
G04 #@! TD.AperFunction*
G04 #@! TA.AperFunction,SMDPad,CuDef*
G36*
G01*
X43500000Y-54015000D02*
X43500000Y-53715000D01*
G75*
G02*
X43650000Y-53565000I150000J0D01*
G01*
X45300000Y-53565000D01*
G75*
G02*
X45450000Y-53715000I0J-150000D01*
G01*
X45450000Y-54015000D01*
G75*
G02*
X45300000Y-54165000I-150000J0D01*
G01*
X43650000Y-54165000D01*
G75*
G02*
X43500000Y-54015000I0J150000D01*
G01*
G37*
G04 #@! TD.AperFunction*
G04 #@! TA.AperFunction,SMDPad,CuDef*
G36*
G01*
X43500000Y-55285000D02*
X43500000Y-54985000D01*
G75*
G02*
X43650000Y-54835000I150000J0D01*
G01*
X45300000Y-54835000D01*
G75*
G02*
X45450000Y-54985000I0J-150000D01*
G01*
X45450000Y-55285000D01*
G75*
G02*
X45300000Y-55435000I-150000J0D01*
G01*
X43650000Y-55435000D01*
G75*
G02*
X43500000Y-55285000I0J150000D01*
G01*
G37*
G04 #@! TD.AperFunction*
G04 #@! TA.AperFunction,SMDPad,CuDef*
G36*
G01*
X43500000Y-56555000D02*
X43500000Y-56255000D01*
G75*
G02*
X43650000Y-56105000I150000J0D01*
G01*
X45300000Y-56105000D01*
G75*
G02*
X45450000Y-56255000I0J-150000D01*
G01*
X45450000Y-56555000D01*
G75*
G02*
X45300000Y-56705000I-150000J0D01*
G01*
X43650000Y-56705000D01*
G75*
G02*
X43500000Y-56555000I0J150000D01*
G01*
G37*
G04 #@! TD.AperFunction*
G04 #@! TA.AperFunction,SMDPad,CuDef*
G36*
G01*
X38550000Y-56555000D02*
X38550000Y-56255000D01*
G75*
G02*
X38700000Y-56105000I150000J0D01*
G01*
X40350000Y-56105000D01*
G75*
G02*
X40500000Y-56255000I0J-150000D01*
G01*
X40500000Y-56555000D01*
G75*
G02*
X40350000Y-56705000I-150000J0D01*
G01*
X38700000Y-56705000D01*
G75*
G02*
X38550000Y-56555000I0J150000D01*
G01*
G37*
G04 #@! TD.AperFunction*
G04 #@! TA.AperFunction,SMDPad,CuDef*
G36*
G01*
X38550000Y-55285000D02*
X38550000Y-54985000D01*
G75*
G02*
X38700000Y-54835000I150000J0D01*
G01*
X40350000Y-54835000D01*
G75*
G02*
X40500000Y-54985000I0J-150000D01*
G01*
X40500000Y-55285000D01*
G75*
G02*
X40350000Y-55435000I-150000J0D01*
G01*
X38700000Y-55435000D01*
G75*
G02*
X38550000Y-55285000I0J150000D01*
G01*
G37*
G04 #@! TD.AperFunction*
G04 #@! TA.AperFunction,SMDPad,CuDef*
G36*
G01*
X38550000Y-54015000D02*
X38550000Y-53715000D01*
G75*
G02*
X38700000Y-53565000I150000J0D01*
G01*
X40350000Y-53565000D01*
G75*
G02*
X40500000Y-53715000I0J-150000D01*
G01*
X40500000Y-54015000D01*
G75*
G02*
X40350000Y-54165000I-150000J0D01*
G01*
X38700000Y-54165000D01*
G75*
G02*
X38550000Y-54015000I0J150000D01*
G01*
G37*
G04 #@! TD.AperFunction*
G04 #@! TA.AperFunction,SMDPad,CuDef*
G36*
G01*
X38550000Y-52745000D02*
X38550000Y-52445000D01*
G75*
G02*
X38700000Y-52295000I150000J0D01*
G01*
X40350000Y-52295000D01*
G75*
G02*
X40500000Y-52445000I0J-150000D01*
G01*
X40500000Y-52745000D01*
G75*
G02*
X40350000Y-52895000I-150000J0D01*
G01*
X38700000Y-52895000D01*
G75*
G02*
X38550000Y-52745000I0J150000D01*
G01*
G37*
G04 #@! TD.AperFunction*
G04 #@! TA.AperFunction,SMDPad,CuDef*
G36*
G01*
X65000000Y-48255000D02*
X65000000Y-48555000D01*
G75*
G02*
X64850000Y-48705000I-150000J0D01*
G01*
X63200000Y-48705000D01*
G75*
G02*
X63050000Y-48555000I0J150000D01*
G01*
X63050000Y-48255000D01*
G75*
G02*
X63200000Y-48105000I150000J0D01*
G01*
X64850000Y-48105000D01*
G75*
G02*
X65000000Y-48255000I0J-150000D01*
G01*
G37*
G04 #@! TD.AperFunction*
G04 #@! TA.AperFunction,SMDPad,CuDef*
G36*
G01*
X65000000Y-46985000D02*
X65000000Y-47285000D01*
G75*
G02*
X64850000Y-47435000I-150000J0D01*
G01*
X63200000Y-47435000D01*
G75*
G02*
X63050000Y-47285000I0J150000D01*
G01*
X63050000Y-46985000D01*
G75*
G02*
X63200000Y-46835000I150000J0D01*
G01*
X64850000Y-46835000D01*
G75*
G02*
X65000000Y-46985000I0J-150000D01*
G01*
G37*
G04 #@! TD.AperFunction*
G04 #@! TA.AperFunction,SMDPad,CuDef*
G36*
G01*
X65000000Y-45715000D02*
X65000000Y-46015000D01*
G75*
G02*
X64850000Y-46165000I-150000J0D01*
G01*
X63200000Y-46165000D01*
G75*
G02*
X63050000Y-46015000I0J150000D01*
G01*
X63050000Y-45715000D01*
G75*
G02*
X63200000Y-45565000I150000J0D01*
G01*
X64850000Y-45565000D01*
G75*
G02*
X65000000Y-45715000I0J-150000D01*
G01*
G37*
G04 #@! TD.AperFunction*
G04 #@! TA.AperFunction,SMDPad,CuDef*
G36*
G01*
X65000000Y-44445000D02*
X65000000Y-44745000D01*
G75*
G02*
X64850000Y-44895000I-150000J0D01*
G01*
X63200000Y-44895000D01*
G75*
G02*
X63050000Y-44745000I0J150000D01*
G01*
X63050000Y-44445000D01*
G75*
G02*
X63200000Y-44295000I150000J0D01*
G01*
X64850000Y-44295000D01*
G75*
G02*
X65000000Y-44445000I0J-150000D01*
G01*
G37*
G04 #@! TD.AperFunction*
G04 #@! TA.AperFunction,SMDPad,CuDef*
G36*
G01*
X69950000Y-44445000D02*
X69950000Y-44745000D01*
G75*
G02*
X69800000Y-44895000I-150000J0D01*
G01*
X68150000Y-44895000D01*
G75*
G02*
X68000000Y-44745000I0J150000D01*
G01*
X68000000Y-44445000D01*
G75*
G02*
X68150000Y-44295000I150000J0D01*
G01*
X69800000Y-44295000D01*
G75*
G02*
X69950000Y-44445000I0J-150000D01*
G01*
G37*
G04 #@! TD.AperFunction*
G04 #@! TA.AperFunction,SMDPad,CuDef*
G36*
G01*
X69950000Y-45715000D02*
X69950000Y-46015000D01*
G75*
G02*
X69800000Y-46165000I-150000J0D01*
G01*
X68150000Y-46165000D01*
G75*
G02*
X68000000Y-46015000I0J150000D01*
G01*
X68000000Y-45715000D01*
G75*
G02*
X68150000Y-45565000I150000J0D01*
G01*
X69800000Y-45565000D01*
G75*
G02*
X69950000Y-45715000I0J-150000D01*
G01*
G37*
G04 #@! TD.AperFunction*
G04 #@! TA.AperFunction,SMDPad,CuDef*
G36*
G01*
X69950000Y-46985000D02*
X69950000Y-47285000D01*
G75*
G02*
X69800000Y-47435000I-150000J0D01*
G01*
X68150000Y-47435000D01*
G75*
G02*
X68000000Y-47285000I0J150000D01*
G01*
X68000000Y-46985000D01*
G75*
G02*
X68150000Y-46835000I150000J0D01*
G01*
X69800000Y-46835000D01*
G75*
G02*
X69950000Y-46985000I0J-150000D01*
G01*
G37*
G04 #@! TD.AperFunction*
G04 #@! TA.AperFunction,SMDPad,CuDef*
G36*
G01*
X69950000Y-48255000D02*
X69950000Y-48555000D01*
G75*
G02*
X69800000Y-48705000I-150000J0D01*
G01*
X68150000Y-48705000D01*
G75*
G02*
X68000000Y-48555000I0J150000D01*
G01*
X68000000Y-48255000D01*
G75*
G02*
X68150000Y-48105000I150000J0D01*
G01*
X69800000Y-48105000D01*
G75*
G02*
X69950000Y-48255000I0J-150000D01*
G01*
G37*
G04 #@! TD.AperFunction*
D19*
X66000000Y-54400000D03*
X65050000Y-54400000D03*
X66950000Y-54400000D03*
X66950000Y-56600000D03*
X66000000Y-56600000D03*
X65050000Y-56600000D03*
G04 #@! TA.AperFunction,SMDPad,CuDef*
G36*
G01*
X57743750Y-60350000D02*
X58256250Y-60350000D01*
G75*
G02*
X58475000Y-60568750I0J-218750D01*
G01*
X58475000Y-61006250D01*
G75*
G02*
X58256250Y-61225000I-218750J0D01*
G01*
X57743750Y-61225000D01*
G75*
G02*
X57525000Y-61006250I0J218750D01*
G01*
X57525000Y-60568750D01*
G75*
G02*
X57743750Y-60350000I218750J0D01*
G01*
G37*
G04 #@! TD.AperFunction*
G04 #@! TA.AperFunction,SMDPad,CuDef*
G36*
G01*
X57743750Y-58775000D02*
X58256250Y-58775000D01*
G75*
G02*
X58475000Y-58993750I0J-218750D01*
G01*
X58475000Y-59431250D01*
G75*
G02*
X58256250Y-59650000I-218750J0D01*
G01*
X57743750Y-59650000D01*
G75*
G02*
X57525000Y-59431250I0J218750D01*
G01*
X57525000Y-58993750D01*
G75*
G02*
X57743750Y-58775000I218750J0D01*
G01*
G37*
G04 #@! TD.AperFunction*
G04 #@! TA.AperFunction,SMDPad,CuDef*
G36*
G01*
X48350000Y-55256250D02*
X48350000Y-54743750D01*
G75*
G02*
X48568750Y-54525000I218750J0D01*
G01*
X49006250Y-54525000D01*
G75*
G02*
X49225000Y-54743750I0J-218750D01*
G01*
X49225000Y-55256250D01*
G75*
G02*
X49006250Y-55475000I-218750J0D01*
G01*
X48568750Y-55475000D01*
G75*
G02*
X48350000Y-55256250I0J218750D01*
G01*
G37*
G04 #@! TD.AperFunction*
G04 #@! TA.AperFunction,SMDPad,CuDef*
G36*
G01*
X46775000Y-55256250D02*
X46775000Y-54743750D01*
G75*
G02*
X46993750Y-54525000I218750J0D01*
G01*
X47431250Y-54525000D01*
G75*
G02*
X47650000Y-54743750I0J-218750D01*
G01*
X47650000Y-55256250D01*
G75*
G02*
X47431250Y-55475000I-218750J0D01*
G01*
X46993750Y-55475000D01*
G75*
G02*
X46775000Y-55256250I0J218750D01*
G01*
G37*
G04 #@! TD.AperFunction*
G04 #@! TA.AperFunction,SMDPad,CuDef*
G36*
G01*
X60150000Y-45743750D02*
X60150000Y-46256250D01*
G75*
G02*
X59931250Y-46475000I-218750J0D01*
G01*
X59493750Y-46475000D01*
G75*
G02*
X59275000Y-46256250I0J218750D01*
G01*
X59275000Y-45743750D01*
G75*
G02*
X59493750Y-45525000I218750J0D01*
G01*
X59931250Y-45525000D01*
G75*
G02*
X60150000Y-45743750I0J-218750D01*
G01*
G37*
G04 #@! TD.AperFunction*
G04 #@! TA.AperFunction,SMDPad,CuDef*
G36*
G01*
X61725000Y-45743750D02*
X61725000Y-46256250D01*
G75*
G02*
X61506250Y-46475000I-218750J0D01*
G01*
X61068750Y-46475000D01*
G75*
G02*
X60850000Y-46256250I0J218750D01*
G01*
X60850000Y-45743750D01*
G75*
G02*
X61068750Y-45525000I218750J0D01*
G01*
X61506250Y-45525000D01*
G75*
G02*
X61725000Y-45743750I0J-218750D01*
G01*
G37*
G04 #@! TD.AperFunction*
G04 #@! TA.AperFunction,SMDPad,CuDef*
G36*
G01*
X68243750Y-59850000D02*
X68756250Y-59850000D01*
G75*
G02*
X68975000Y-60068750I0J-218750D01*
G01*
X68975000Y-60506250D01*
G75*
G02*
X68756250Y-60725000I-218750J0D01*
G01*
X68243750Y-60725000D01*
G75*
G02*
X68025000Y-60506250I0J218750D01*
G01*
X68025000Y-60068750D01*
G75*
G02*
X68243750Y-59850000I218750J0D01*
G01*
G37*
G04 #@! TD.AperFunction*
G04 #@! TA.AperFunction,SMDPad,CuDef*
G36*
G01*
X68243750Y-58275000D02*
X68756250Y-58275000D01*
G75*
G02*
X68975000Y-58493750I0J-218750D01*
G01*
X68975000Y-58931250D01*
G75*
G02*
X68756250Y-59150000I-218750J0D01*
G01*
X68243750Y-59150000D01*
G75*
G02*
X68025000Y-58931250I0J218750D01*
G01*
X68025000Y-58493750D01*
G75*
G02*
X68243750Y-58275000I218750J0D01*
G01*
G37*
G04 #@! TD.AperFunction*
G04 #@! TA.AperFunction,SMDPad,CuDef*
G36*
G01*
X66756250Y-59150000D02*
X66243750Y-59150000D01*
G75*
G02*
X66025000Y-58931250I0J218750D01*
G01*
X66025000Y-58493750D01*
G75*
G02*
X66243750Y-58275000I218750J0D01*
G01*
X66756250Y-58275000D01*
G75*
G02*
X66975000Y-58493750I0J-218750D01*
G01*
X66975000Y-58931250D01*
G75*
G02*
X66756250Y-59150000I-218750J0D01*
G01*
G37*
G04 #@! TD.AperFunction*
G04 #@! TA.AperFunction,SMDPad,CuDef*
G36*
G01*
X66756250Y-60725000D02*
X66243750Y-60725000D01*
G75*
G02*
X66025000Y-60506250I0J218750D01*
G01*
X66025000Y-60068750D01*
G75*
G02*
X66243750Y-59850000I218750J0D01*
G01*
X66756250Y-59850000D01*
G75*
G02*
X66975000Y-60068750I0J-218750D01*
G01*
X66975000Y-60506250D01*
G75*
G02*
X66756250Y-60725000I-218750J0D01*
G01*
G37*
G04 #@! TD.AperFunction*
D20*
X60000000Y-56850000D03*
X60000000Y-52150000D03*
D21*
X102390000Y-60190000D03*
X101120000Y-62730000D03*
X99850000Y-60190000D03*
X98580000Y-62730000D03*
X97310000Y-60190000D03*
X96040000Y-62730000D03*
X94770000Y-60190000D03*
D22*
X93500000Y-62730000D03*
G04 #@! TA.AperFunction,SMDPad,CuDef*
G36*
G01*
X55993750Y-60350000D02*
X56506250Y-60350000D01*
G75*
G02*
X56725000Y-60568750I0J-218750D01*
G01*
X56725000Y-61006250D01*
G75*
G02*
X56506250Y-61225000I-218750J0D01*
G01*
X55993750Y-61225000D01*
G75*
G02*
X55775000Y-61006250I0J218750D01*
G01*
X55775000Y-60568750D01*
G75*
G02*
X55993750Y-60350000I218750J0D01*
G01*
G37*
G04 #@! TD.AperFunction*
G04 #@! TA.AperFunction,SMDPad,CuDef*
G36*
G01*
X55993750Y-58775000D02*
X56506250Y-58775000D01*
G75*
G02*
X56725000Y-58993750I0J-218750D01*
G01*
X56725000Y-59431250D01*
G75*
G02*
X56506250Y-59650000I-218750J0D01*
G01*
X55993750Y-59650000D01*
G75*
G02*
X55775000Y-59431250I0J218750D01*
G01*
X55775000Y-58993750D01*
G75*
G02*
X55993750Y-58775000I218750J0D01*
G01*
G37*
G04 #@! TD.AperFunction*
D23*
X64500000Y-64050000D03*
X64500000Y-61950000D03*
D24*
X68150000Y-51500000D03*
X64850000Y-51500000D03*
G04 #@! TA.AperFunction,SMDPad,CuDef*
G36*
G01*
X56850000Y-63956250D02*
X56850000Y-63443750D01*
G75*
G02*
X57068750Y-63225000I218750J0D01*
G01*
X57506250Y-63225000D01*
G75*
G02*
X57725000Y-63443750I0J-218750D01*
G01*
X57725000Y-63956250D01*
G75*
G02*
X57506250Y-64175000I-218750J0D01*
G01*
X57068750Y-64175000D01*
G75*
G02*
X56850000Y-63956250I0J218750D01*
G01*
G37*
G04 #@! TD.AperFunction*
G04 #@! TA.AperFunction,SMDPad,CuDef*
G36*
G01*
X55275000Y-63956250D02*
X55275000Y-63443750D01*
G75*
G02*
X55493750Y-63225000I218750J0D01*
G01*
X55931250Y-63225000D01*
G75*
G02*
X56150000Y-63443750I0J-218750D01*
G01*
X56150000Y-63956250D01*
G75*
G02*
X55931250Y-64175000I-218750J0D01*
G01*
X55493750Y-64175000D01*
G75*
G02*
X55275000Y-63956250I0J218750D01*
G01*
G37*
G04 #@! TD.AperFunction*
G04 #@! TA.AperFunction,SMDPad,CuDef*
G36*
G01*
X48350000Y-52756250D02*
X48350000Y-52243750D01*
G75*
G02*
X48568750Y-52025000I218750J0D01*
G01*
X49006250Y-52025000D01*
G75*
G02*
X49225000Y-52243750I0J-218750D01*
G01*
X49225000Y-52756250D01*
G75*
G02*
X49006250Y-52975000I-218750J0D01*
G01*
X48568750Y-52975000D01*
G75*
G02*
X48350000Y-52756250I0J218750D01*
G01*
G37*
G04 #@! TD.AperFunction*
G04 #@! TA.AperFunction,SMDPad,CuDef*
G36*
G01*
X46775000Y-52756250D02*
X46775000Y-52243750D01*
G75*
G02*
X46993750Y-52025000I218750J0D01*
G01*
X47431250Y-52025000D01*
G75*
G02*
X47650000Y-52243750I0J-218750D01*
G01*
X47650000Y-52756250D01*
G75*
G02*
X47431250Y-52975000I-218750J0D01*
G01*
X46993750Y-52975000D01*
G75*
G02*
X46775000Y-52756250I0J218750D01*
G01*
G37*
G04 #@! TD.AperFunction*
G04 #@! TA.AperFunction,SMDPad,CuDef*
G36*
G01*
X60150000Y-48243750D02*
X60150000Y-48756250D01*
G75*
G02*
X59931250Y-48975000I-218750J0D01*
G01*
X59493750Y-48975000D01*
G75*
G02*
X59275000Y-48756250I0J218750D01*
G01*
X59275000Y-48243750D01*
G75*
G02*
X59493750Y-48025000I218750J0D01*
G01*
X59931250Y-48025000D01*
G75*
G02*
X60150000Y-48243750I0J-218750D01*
G01*
G37*
G04 #@! TD.AperFunction*
G04 #@! TA.AperFunction,SMDPad,CuDef*
G36*
G01*
X61725000Y-48243750D02*
X61725000Y-48756250D01*
G75*
G02*
X61506250Y-48975000I-218750J0D01*
G01*
X61068750Y-48975000D01*
G75*
G02*
X60850000Y-48756250I0J218750D01*
G01*
X60850000Y-48243750D01*
G75*
G02*
X61068750Y-48025000I218750J0D01*
G01*
X61506250Y-48025000D01*
G75*
G02*
X61725000Y-48243750I0J-218750D01*
G01*
G37*
G04 #@! TD.AperFunction*
G04 #@! TA.AperFunction,SMDPad,CuDef*
G36*
G01*
X47650000Y-56743750D02*
X47650000Y-57256250D01*
G75*
G02*
X47431250Y-57475000I-218750J0D01*
G01*
X46993750Y-57475000D01*
G75*
G02*
X46775000Y-57256250I0J218750D01*
G01*
X46775000Y-56743750D01*
G75*
G02*
X46993750Y-56525000I218750J0D01*
G01*
X47431250Y-56525000D01*
G75*
G02*
X47650000Y-56743750I0J-218750D01*
G01*
G37*
G04 #@! TD.AperFunction*
G04 #@! TA.AperFunction,SMDPad,CuDef*
G36*
G01*
X49225000Y-56743750D02*
X49225000Y-57256250D01*
G75*
G02*
X49006250Y-57475000I-218750J0D01*
G01*
X48568750Y-57475000D01*
G75*
G02*
X48350000Y-57256250I0J218750D01*
G01*
X48350000Y-56743750D01*
G75*
G02*
X48568750Y-56525000I218750J0D01*
G01*
X49006250Y-56525000D01*
G75*
G02*
X49225000Y-56743750I0J-218750D01*
G01*
G37*
G04 #@! TD.AperFunction*
G04 #@! TA.AperFunction,SMDPad,CuDef*
G36*
G01*
X60850000Y-44256250D02*
X60850000Y-43743750D01*
G75*
G02*
X61068750Y-43525000I218750J0D01*
G01*
X61506250Y-43525000D01*
G75*
G02*
X61725000Y-43743750I0J-218750D01*
G01*
X61725000Y-44256250D01*
G75*
G02*
X61506250Y-44475000I-218750J0D01*
G01*
X61068750Y-44475000D01*
G75*
G02*
X60850000Y-44256250I0J218750D01*
G01*
G37*
G04 #@! TD.AperFunction*
G04 #@! TA.AperFunction,SMDPad,CuDef*
G36*
G01*
X59275000Y-44256250D02*
X59275000Y-43743750D01*
G75*
G02*
X59493750Y-43525000I218750J0D01*
G01*
X59931250Y-43525000D01*
G75*
G02*
X60150000Y-43743750I0J-218750D01*
G01*
X60150000Y-44256250D01*
G75*
G02*
X59931250Y-44475000I-218750J0D01*
G01*
X59493750Y-44475000D01*
G75*
G02*
X59275000Y-44256250I0J218750D01*
G01*
G37*
G04 #@! TD.AperFunction*
G04 #@! TA.AperFunction,SMDPad,CuDef*
G36*
G01*
X61543750Y-60450000D02*
X62456250Y-60450000D01*
G75*
G02*
X62700000Y-60693750I0J-243750D01*
G01*
X62700000Y-61181250D01*
G75*
G02*
X62456250Y-61425000I-243750J0D01*
G01*
X61543750Y-61425000D01*
G75*
G02*
X61300000Y-61181250I0J243750D01*
G01*
X61300000Y-60693750D01*
G75*
G02*
X61543750Y-60450000I243750J0D01*
G01*
G37*
G04 #@! TD.AperFunction*
G04 #@! TA.AperFunction,SMDPad,CuDef*
G36*
G01*
X61543750Y-58575000D02*
X62456250Y-58575000D01*
G75*
G02*
X62700000Y-58818750I0J-243750D01*
G01*
X62700000Y-59306250D01*
G75*
G02*
X62456250Y-59550000I-243750J0D01*
G01*
X61543750Y-59550000D01*
G75*
G02*
X61300000Y-59306250I0J243750D01*
G01*
X61300000Y-58818750D01*
G75*
G02*
X61543750Y-58575000I243750J0D01*
G01*
G37*
G04 #@! TD.AperFunction*
G04 #@! TA.AperFunction,SMDPad,CuDef*
G36*
G01*
X64756250Y-59150000D02*
X64243750Y-59150000D01*
G75*
G02*
X64025000Y-58931250I0J218750D01*
G01*
X64025000Y-58493750D01*
G75*
G02*
X64243750Y-58275000I218750J0D01*
G01*
X64756250Y-58275000D01*
G75*
G02*
X64975000Y-58493750I0J-218750D01*
G01*
X64975000Y-58931250D01*
G75*
G02*
X64756250Y-59150000I-218750J0D01*
G01*
G37*
G04 #@! TD.AperFunction*
G04 #@! TA.AperFunction,SMDPad,CuDef*
G36*
G01*
X64756250Y-60725000D02*
X64243750Y-60725000D01*
G75*
G02*
X64025000Y-60506250I0J218750D01*
G01*
X64025000Y-60068750D01*
G75*
G02*
X64243750Y-59850000I218750J0D01*
G01*
X64756250Y-59850000D01*
G75*
G02*
X64975000Y-60068750I0J-218750D01*
G01*
X64975000Y-60506250D01*
G75*
G02*
X64756250Y-60725000I-218750J0D01*
G01*
G37*
G04 #@! TD.AperFunction*
G04 #@! TA.AperFunction,SMDPad,CuDef*
G36*
G01*
X69043750Y-55950000D02*
X69956250Y-55950000D01*
G75*
G02*
X70200000Y-56193750I0J-243750D01*
G01*
X70200000Y-56681250D01*
G75*
G02*
X69956250Y-56925000I-243750J0D01*
G01*
X69043750Y-56925000D01*
G75*
G02*
X68800000Y-56681250I0J243750D01*
G01*
X68800000Y-56193750D01*
G75*
G02*
X69043750Y-55950000I243750J0D01*
G01*
G37*
G04 #@! TD.AperFunction*
G04 #@! TA.AperFunction,SMDPad,CuDef*
G36*
G01*
X69043750Y-54075000D02*
X69956250Y-54075000D01*
G75*
G02*
X70200000Y-54318750I0J-243750D01*
G01*
X70200000Y-54806250D01*
G75*
G02*
X69956250Y-55050000I-243750J0D01*
G01*
X69043750Y-55050000D01*
G75*
G02*
X68800000Y-54806250I0J243750D01*
G01*
X68800000Y-54318750D01*
G75*
G02*
X69043750Y-54075000I243750J0D01*
G01*
G37*
G04 #@! TD.AperFunction*
D25*
X66000000Y-44500000D03*
X73100000Y-75500000D03*
X58400000Y-75500000D03*
X55300000Y-56200000D03*
X55800000Y-50500000D03*
X39400000Y-58600000D03*
X39400000Y-75300000D03*
X77600000Y-37300000D03*
X90500000Y-43200000D03*
X104800000Y-37500000D03*
X93700000Y-37000000D03*
X80200000Y-44000000D03*
X49100000Y-36800000D03*
X104700000Y-75600000D03*
X95200000Y-68900000D03*
X85400000Y-69200000D03*
X87500000Y-75700000D03*
X71000000Y-46149990D03*
X61600000Y-36600000D03*
X67600000Y-42900000D03*
X39000000Y-36700000D03*
X38900000Y-46200000D03*
X42800000Y-50800000D03*
X59000000Y-39200000D03*
X93500000Y-51300000D03*
X105400000Y-50900000D03*
X42000000Y-53000000D03*
X61000000Y-74400000D03*
X91000000Y-53700000D03*
X66400000Y-45900000D03*
X47000000Y-58500000D03*
X50000000Y-54000000D03*
D26*
X77040000Y-58910000D02*
X82950000Y-53000000D01*
X75050000Y-58910000D02*
X77040000Y-58910000D01*
D27*
X75050000Y-58910000D02*
X72440000Y-58910000D01*
D28*
X71972500Y-58910000D02*
X69500000Y-56437500D01*
X75050000Y-58910000D02*
X71972500Y-58910000D01*
X71062500Y-60287500D02*
X71675000Y-59675000D01*
X68500000Y-60287500D02*
X71062500Y-60287500D01*
D27*
X71675000Y-59675000D02*
X68000000Y-63350000D01*
X72440000Y-58910000D02*
X71675000Y-59675000D01*
D28*
X68000000Y-63350000D02*
X65850000Y-65500000D01*
X64164998Y-65500000D02*
X62000000Y-63335002D01*
X65850000Y-65500000D02*
X64164998Y-65500000D01*
X60287500Y-60787500D02*
X62000000Y-62500000D01*
X62000000Y-62500000D02*
X62000000Y-60937500D01*
X58500000Y-60787500D02*
X60287500Y-60787500D01*
X62000000Y-63335002D02*
X62000000Y-62500000D01*
X68385010Y-51264990D02*
X68150000Y-51500000D01*
X81214990Y-51264990D02*
X68385010Y-51264990D01*
X82950000Y-53000000D02*
X81214990Y-51264990D01*
D29*
X69500000Y-56437500D02*
X68437500Y-56437500D01*
X68437500Y-56437500D02*
X67850001Y-55850001D01*
D30*
X66000000Y-55884998D02*
X66000000Y-56600000D01*
X66264999Y-55619999D02*
X66000000Y-55884998D01*
X67619999Y-55619999D02*
X66264999Y-55619999D01*
X67850001Y-55850001D02*
X67619999Y-55619999D01*
X96040000Y-61460000D02*
X97310000Y-60190000D01*
X96040000Y-62730000D02*
X96040000Y-61460000D01*
D31*
X65850000Y-71850000D02*
X66000000Y-72000000D01*
X39525000Y-53865000D02*
X39525000Y-55135000D01*
X41770000Y-56405000D02*
X44475000Y-56405000D01*
X40500000Y-55135000D02*
X41770000Y-56405000D01*
X39525000Y-55135000D02*
X40500000Y-55135000D01*
D30*
X96040000Y-62730000D02*
X94839999Y-63930001D01*
X94839999Y-63930001D02*
X92389999Y-63930001D01*
X92389999Y-63930001D02*
X89000000Y-60540002D01*
X64025000Y-44025000D02*
X61000000Y-41000000D01*
X64025000Y-44595000D02*
X64025000Y-44025000D01*
X65905000Y-44595000D02*
X66000000Y-44500000D01*
X64025000Y-44595000D02*
X65905000Y-44595000D01*
X68975000Y-45865000D02*
X68975000Y-47135000D01*
X50500000Y-50787500D02*
X48787500Y-52500000D01*
X50500000Y-46000000D02*
X50500000Y-50787500D01*
X40500000Y-53865000D02*
X39525000Y-53865000D01*
X40950010Y-52549990D02*
X40950010Y-53414990D01*
X40950010Y-53414990D02*
X40500000Y-53865000D01*
X41925010Y-51574990D02*
X40950010Y-52549990D01*
X48787500Y-52500000D02*
X47862490Y-51574990D01*
X58824990Y-47612490D02*
X58824990Y-43175010D01*
X58824990Y-43175010D02*
X61000000Y-41000000D01*
X59712500Y-48500000D02*
X58824990Y-47612490D01*
X65500000Y-67500000D02*
X65850000Y-67150000D01*
D28*
X65850000Y-65500000D02*
X65850000Y-67150000D01*
D30*
X65750000Y-69250000D02*
X65850000Y-69350000D01*
D28*
X65850000Y-69350000D02*
X65850000Y-71850000D01*
X65850000Y-67150000D02*
X65850000Y-69350000D01*
D30*
X89000000Y-60540002D02*
X89000000Y-59050000D01*
X84625000Y-54675000D02*
X82950000Y-53000000D01*
X85950000Y-56000000D02*
X84625000Y-54675000D01*
X87025000Y-50425000D02*
X88850000Y-48600000D01*
X89000000Y-59050000D02*
X87025000Y-57075000D01*
X87025000Y-57075000D02*
X84625000Y-54675000D01*
X97310000Y-55140000D02*
X98650000Y-53800000D01*
X97310000Y-60190000D02*
X97310000Y-55140000D01*
X87025000Y-52175000D02*
X91525000Y-52175000D01*
X87025000Y-57075000D02*
X87025000Y-52175000D01*
X91525000Y-52175000D02*
X93150000Y-53800000D01*
X87025000Y-52175000D02*
X87025000Y-50425000D01*
X101349999Y-46999999D02*
X102950000Y-48600000D01*
X97039999Y-46999999D02*
X101349999Y-46999999D01*
X96949999Y-47089999D02*
X97039999Y-46999999D01*
X96949999Y-54779999D02*
X96949999Y-47089999D01*
X97310000Y-55140000D02*
X96949999Y-54779999D01*
X68975000Y-45865000D02*
X70715010Y-45865000D01*
X70715010Y-45865000D02*
X71000000Y-46149990D01*
X44850000Y-50199980D02*
X43474990Y-51574990D01*
X44850000Y-48600000D02*
X44850000Y-50199980D01*
X43474990Y-51574990D02*
X41925010Y-51574990D01*
X47862490Y-51574990D02*
X43474990Y-51574990D01*
X55500000Y-67250000D02*
X55550000Y-67200000D01*
X55500000Y-72000000D02*
X55500000Y-67250000D01*
X55550000Y-65437500D02*
X57287500Y-63700000D01*
X55550000Y-67200000D02*
X55550000Y-65437500D01*
X57287500Y-61500000D02*
X58000000Y-60787500D01*
X57287500Y-63700000D02*
X57287500Y-61500000D01*
X63850000Y-65814998D02*
X64164998Y-65500000D01*
X63850000Y-67200000D02*
X63850000Y-65814998D01*
X61635002Y-63700000D02*
X62000000Y-63335002D01*
X60687500Y-63700000D02*
X61635002Y-63700000D01*
D28*
X60650000Y-51500000D02*
X60000000Y-52150000D01*
X64850000Y-51500000D02*
X60650000Y-51500000D01*
X64850000Y-54200000D02*
X64874992Y-54224992D01*
X64850000Y-51500000D02*
X64850000Y-54200000D01*
X64024999Y-55425001D02*
X64874992Y-54575008D01*
X64024999Y-58237499D02*
X64024999Y-55425001D01*
X64500000Y-58712500D02*
X64024999Y-58237499D01*
D30*
X65050000Y-57841728D02*
X65500000Y-58291728D01*
X65050000Y-56600000D02*
X65050000Y-57841728D01*
X65500000Y-59287500D02*
X64500000Y-60287500D01*
X65500000Y-58291728D02*
X65500000Y-59287500D01*
X64500000Y-60287500D02*
X64500000Y-61950000D01*
D28*
X62000000Y-58850000D02*
X60000000Y-56850000D01*
X62000000Y-59062500D02*
X62000000Y-58850000D01*
X55775000Y-60787500D02*
X55000000Y-60012500D01*
X56250000Y-60787500D02*
X55775000Y-60787500D01*
X56838174Y-56850000D02*
X60000000Y-56850000D01*
X55000000Y-58688174D02*
X56838174Y-56850000D01*
X55000000Y-60012500D02*
X55000000Y-58688174D01*
X65450010Y-61337490D02*
X66500000Y-60287500D01*
X65450010Y-62784992D02*
X65450010Y-61337490D01*
X64500000Y-63735002D02*
X65450010Y-62784992D01*
X64500000Y-64050000D02*
X64500000Y-63735002D01*
X63549990Y-62343507D02*
X63549990Y-61111816D01*
X63574999Y-62368516D02*
X63549990Y-62343507D01*
X63574999Y-62810001D02*
X63574999Y-62368516D01*
X63714999Y-62950001D02*
X63574999Y-62810001D01*
X64500000Y-62950001D02*
X63714999Y-62950001D01*
X64500000Y-64050000D02*
X64500000Y-62950001D01*
D29*
X63449990Y-60512490D02*
X62000000Y-59062500D01*
X63449990Y-61011816D02*
X63449990Y-60512490D01*
X63549990Y-61111816D02*
X63449990Y-61011816D01*
D28*
X60162500Y-59062500D02*
X60000000Y-59225000D01*
X62000000Y-59062500D02*
X60162500Y-59062500D01*
D31*
X44570000Y-52500000D02*
X44475000Y-52595000D01*
X47212500Y-52500000D02*
X44570000Y-52500000D01*
D28*
X40500000Y-63000000D02*
X39920000Y-62420000D01*
X40500000Y-63500000D02*
X40500000Y-63000000D01*
X39920000Y-62420000D02*
X39920000Y-72000000D01*
D31*
X61382500Y-48405000D02*
X61287500Y-48500000D01*
X64025000Y-48405000D02*
X61382500Y-48405000D01*
X56724999Y-51089999D02*
X56724999Y-56736825D01*
X56724999Y-56736825D02*
X56838174Y-56850000D01*
X58514988Y-49300010D02*
X56724999Y-51089999D01*
X60487490Y-49300010D02*
X58514988Y-49300010D01*
X61287500Y-48500000D02*
X60487490Y-49300010D01*
X42405000Y-52595000D02*
X42000000Y-53000000D01*
X44475000Y-52595000D02*
X42405000Y-52595000D01*
D28*
X54312500Y-60787500D02*
X52400000Y-62700000D01*
X56250000Y-60787500D02*
X54312500Y-60787500D01*
X44200001Y-61799999D02*
X51499999Y-61799999D01*
X42500000Y-63500000D02*
X44200001Y-61799999D01*
X51499999Y-61799999D02*
X52400000Y-62700000D01*
X40500000Y-63500000D02*
X42500000Y-63500000D01*
D30*
X49549999Y-71129999D02*
X50420000Y-72000000D01*
X50750000Y-62700000D02*
X49549999Y-63900001D01*
X49549999Y-63900001D02*
X49549999Y-71129999D01*
X52400000Y-62700000D02*
X50750000Y-62700000D01*
X52820000Y-74400000D02*
X50420000Y-72000000D01*
X61000000Y-74400000D02*
X52820000Y-74400000D01*
D31*
X63152500Y-45865000D02*
X61287500Y-44000000D01*
X64025000Y-45865000D02*
X63152500Y-45865000D01*
D30*
X93500000Y-58450000D02*
X88850000Y-53800000D01*
X93500000Y-62730000D02*
X93500000Y-58450000D01*
X90900000Y-53800000D02*
X91000000Y-53700000D01*
X88850000Y-53800000D02*
X90900000Y-53800000D01*
X64060000Y-45900000D02*
X64025000Y-45865000D01*
X66400000Y-45900000D02*
X64060000Y-45900000D01*
D31*
X59712500Y-46000000D02*
X59712500Y-44000000D01*
X45347500Y-55135000D02*
X47212500Y-57000000D01*
X44475000Y-55135000D02*
X45347500Y-55135000D01*
D30*
X47000000Y-57212500D02*
X47212500Y-57000000D01*
X47000000Y-58500000D02*
X47000000Y-57212500D01*
X98650000Y-50589998D02*
X98650000Y-48600000D01*
X101120000Y-53059998D02*
X98650000Y-50589998D01*
X101120000Y-62730000D02*
X101120000Y-53059998D01*
D31*
X48787500Y-57000000D02*
X48787500Y-55000000D01*
X58000000Y-59212500D02*
X56250000Y-59212500D01*
X46077500Y-53865000D02*
X47212500Y-55000000D01*
X44475000Y-53865000D02*
X46077500Y-53865000D01*
D30*
X48212500Y-54000000D02*
X47212500Y-55000000D01*
X50000000Y-54000000D02*
X48212500Y-54000000D01*
X102390000Y-54360000D02*
X102950000Y-53800000D01*
X102390000Y-60190000D02*
X102390000Y-54360000D01*
D31*
X62422500Y-47135000D02*
X61287500Y-46000000D01*
X64025000Y-47135000D02*
X62422500Y-47135000D01*
D30*
X65000000Y-47135000D02*
X64025000Y-47135000D01*
X67020010Y-49155010D02*
X65000000Y-47135000D01*
X70048534Y-49155010D02*
X67020010Y-49155010D01*
X72553545Y-46649999D02*
X70048534Y-49155010D01*
X91649999Y-46649999D02*
X72553545Y-46649999D01*
X93000000Y-48000000D02*
X91649999Y-46649999D01*
X95519999Y-50969999D02*
X93150000Y-48600000D01*
X95519999Y-59440001D02*
X95519999Y-50969999D01*
X94770000Y-60190000D02*
X95519999Y-59440001D01*
D31*
X68975000Y-48405000D02*
X68000000Y-48405000D01*
X68000000Y-48405000D02*
X67674990Y-48079990D01*
X67674990Y-48079990D02*
X67674990Y-45134990D01*
X67674990Y-45134990D02*
X63540000Y-41000000D01*
D29*
X53675001Y-36374999D02*
X51950000Y-38100000D01*
X58914999Y-36374999D02*
X53675001Y-36374999D01*
X63540000Y-41000000D02*
X58914999Y-36374999D01*
D31*
X41284999Y-73175001D02*
X42460000Y-72000000D01*
X38224990Y-72043992D02*
X39355999Y-73175001D01*
X38224990Y-52920010D02*
X38224990Y-72043992D01*
X38550000Y-52595000D02*
X38224990Y-52920010D01*
X39355999Y-73175001D02*
X41284999Y-73175001D01*
X39525000Y-52595000D02*
X38550000Y-52595000D01*
D30*
X40550000Y-51570000D02*
X39525000Y-52595000D01*
X40550000Y-48600000D02*
X40550000Y-51570000D01*
D28*
X68500000Y-58712500D02*
X66500000Y-58712500D01*
X68500000Y-58150000D02*
X67025001Y-56675001D01*
X68500000Y-58712500D02*
X68500000Y-58150000D01*
D31*
X99850000Y-60190000D02*
X99850000Y-64650000D01*
X97345001Y-67154999D02*
X81345001Y-67154999D01*
X99850000Y-64650000D02*
X97345001Y-67154999D01*
X54585012Y-73625012D02*
X52960000Y-72000000D01*
X74874988Y-73625012D02*
X54585012Y-73625012D01*
X81345001Y-67154999D02*
X74874988Y-73625012D01*
D30*
X52960000Y-68910000D02*
X51250000Y-67200000D01*
X52960000Y-72000000D02*
X52960000Y-68910000D01*
X52212500Y-67200000D02*
X55712500Y-63700000D01*
X51250000Y-67200000D02*
X52212500Y-67200000D01*
D31*
X98580000Y-62730000D02*
X96804988Y-64505012D01*
X96804988Y-64505012D02*
X81994988Y-64505012D01*
X64635001Y-73175001D02*
X63460000Y-72000000D01*
X73324999Y-73175001D02*
X64635001Y-73175001D01*
X81994988Y-64505012D02*
X73324999Y-73175001D01*
D30*
X59550000Y-68090000D02*
X59550000Y-67200000D01*
X63460000Y-72000000D02*
X59550000Y-68090000D01*
X59550000Y-64137500D02*
X59112500Y-63700000D01*
X59550000Y-67200000D02*
X59550000Y-64137500D01*
D27*
X74210000Y-67650000D02*
X68000000Y-67650000D01*
X82950000Y-58910000D02*
X74210000Y-67650000D01*
D28*
X71062500Y-53000000D02*
X69500000Y-54562500D01*
X75050000Y-53000000D02*
X71062500Y-53000000D01*
X66162500Y-54562500D02*
X66075001Y-54475001D01*
X69500000Y-54562500D02*
X66162500Y-54562500D01*
D32*
X99671414Y-36307111D02*
X99600932Y-36477271D01*
X99565000Y-36657911D01*
X99565000Y-36842089D01*
X99600932Y-37022729D01*
X99671414Y-37192889D01*
X99773738Y-37346028D01*
X99773785Y-37346075D01*
X99556385Y-37389319D01*
X98967653Y-37633180D01*
X98784528Y-37755540D01*
X98749068Y-37577271D01*
X98678586Y-37407111D01*
X98576262Y-37253972D01*
X98446028Y-37123738D01*
X98292889Y-37021414D01*
X98122729Y-36950932D01*
X97942089Y-36915000D01*
X97757911Y-36915000D01*
X97577271Y-36950932D01*
X97407111Y-37021414D01*
X97253972Y-37123738D01*
X97123738Y-37253972D01*
X97021414Y-37407111D01*
X96950932Y-37577271D01*
X96915000Y-37757911D01*
X96915000Y-37942089D01*
X96950932Y-38122729D01*
X97021414Y-38292889D01*
X97123738Y-38446028D01*
X97253972Y-38576262D01*
X97407111Y-38678586D01*
X97577271Y-38749068D01*
X97755540Y-38784528D01*
X97633180Y-38967653D01*
X97389319Y-39556385D01*
X97346075Y-39773785D01*
X97346028Y-39773738D01*
X97192889Y-39671414D01*
X97022729Y-39600932D01*
X96842089Y-39565000D01*
X96657911Y-39565000D01*
X96477271Y-39600932D01*
X96307111Y-39671414D01*
X96153972Y-39773738D01*
X96023738Y-39903972D01*
X95921414Y-40057111D01*
X95850932Y-40227271D01*
X95815000Y-40407911D01*
X95815000Y-40592089D01*
X95850932Y-40772729D01*
X95921414Y-40942889D01*
X96023738Y-41096028D01*
X96153972Y-41226262D01*
X96307111Y-41328586D01*
X96477271Y-41399068D01*
X96657911Y-41435000D01*
X96842089Y-41435000D01*
X97022729Y-41399068D01*
X97192889Y-41328586D01*
X97346028Y-41226262D01*
X97346075Y-41226215D01*
X97389319Y-41443615D01*
X97633180Y-42032347D01*
X97755540Y-42215472D01*
X97577271Y-42250932D01*
X97407111Y-42321414D01*
X97253972Y-42423738D01*
X97123738Y-42553972D01*
X97021414Y-42707111D01*
X96950932Y-42877271D01*
X96915000Y-43057911D01*
X96915000Y-43242089D01*
X96950932Y-43422729D01*
X97021414Y-43592889D01*
X97123738Y-43746028D01*
X97253972Y-43876262D01*
X97407111Y-43978586D01*
X97577271Y-44049068D01*
X97757911Y-44085000D01*
X97942089Y-44085000D01*
X98122729Y-44049068D01*
X98292889Y-43978586D01*
X98446028Y-43876262D01*
X98576262Y-43746028D01*
X98678586Y-43592889D01*
X98749068Y-43422729D01*
X98784528Y-43244460D01*
X98967653Y-43366820D01*
X99556385Y-43610681D01*
X99773785Y-43653925D01*
X99773738Y-43653972D01*
X99671414Y-43807111D01*
X99600932Y-43977271D01*
X99565000Y-44157911D01*
X99565000Y-44342089D01*
X99600932Y-44522729D01*
X99671414Y-44692889D01*
X99773738Y-44846028D01*
X99903972Y-44976262D01*
X100057111Y-45078586D01*
X100227271Y-45149068D01*
X100407911Y-45185000D01*
X100592089Y-45185000D01*
X100772729Y-45149068D01*
X100942889Y-45078586D01*
X101096028Y-44976262D01*
X101226262Y-44846028D01*
X101328586Y-44692889D01*
X101399068Y-44522729D01*
X101435000Y-44342089D01*
X101435000Y-44157911D01*
X101399068Y-43977271D01*
X101328586Y-43807111D01*
X101226262Y-43653972D01*
X101226215Y-43653925D01*
X101443615Y-43610681D01*
X102032347Y-43366820D01*
X102215472Y-43244460D01*
X102250932Y-43422729D01*
X102321414Y-43592889D01*
X102423738Y-43746028D01*
X102553972Y-43876262D01*
X102707111Y-43978586D01*
X102877271Y-44049068D01*
X103057911Y-44085000D01*
X103242089Y-44085000D01*
X103422729Y-44049068D01*
X103592889Y-43978586D01*
X103746028Y-43876262D01*
X103876262Y-43746028D01*
X103978586Y-43592889D01*
X104049068Y-43422729D01*
X104085000Y-43242089D01*
X104085000Y-43057911D01*
X104049068Y-42877271D01*
X103978586Y-42707111D01*
X103876262Y-42553972D01*
X103746028Y-42423738D01*
X103592889Y-42321414D01*
X103422729Y-42250932D01*
X103244460Y-42215472D01*
X103366820Y-42032347D01*
X103610681Y-41443615D01*
X103653925Y-41226215D01*
X103653972Y-41226262D01*
X103807111Y-41328586D01*
X103977271Y-41399068D01*
X104157911Y-41435000D01*
X104342089Y-41435000D01*
X104522729Y-41399068D01*
X104692889Y-41328586D01*
X104846028Y-41226262D01*
X104976262Y-41096028D01*
X105078586Y-40942889D01*
X105149068Y-40772729D01*
X105185000Y-40592089D01*
X105185000Y-40407911D01*
X105149068Y-40227271D01*
X105078586Y-40057111D01*
X104976262Y-39903972D01*
X104846028Y-39773738D01*
X104692889Y-39671414D01*
X104522729Y-39600932D01*
X104342089Y-39565000D01*
X104157911Y-39565000D01*
X103977271Y-39600932D01*
X103807111Y-39671414D01*
X103653972Y-39773738D01*
X103653925Y-39773785D01*
X103610681Y-39556385D01*
X103366820Y-38967653D01*
X103244460Y-38784528D01*
X103422729Y-38749068D01*
X103592889Y-38678586D01*
X103746028Y-38576262D01*
X103876262Y-38446028D01*
X103978586Y-38292889D01*
X104049068Y-38122729D01*
X104085000Y-37942089D01*
X104085000Y-37757911D01*
X104049068Y-37577271D01*
X103978586Y-37407111D01*
X103876262Y-37253972D01*
X103746028Y-37123738D01*
X103592889Y-37021414D01*
X103422729Y-36950932D01*
X103242089Y-36915000D01*
X103057911Y-36915000D01*
X102877271Y-36950932D01*
X102707111Y-37021414D01*
X102553972Y-37123738D01*
X102423738Y-37253972D01*
X102321414Y-37407111D01*
X102250932Y-37577271D01*
X102215472Y-37755540D01*
X102032347Y-37633180D01*
X101443615Y-37389319D01*
X101226215Y-37346075D01*
X101226262Y-37346028D01*
X101328586Y-37192889D01*
X101399068Y-37022729D01*
X101435000Y-36842089D01*
X101435000Y-36657911D01*
X101399068Y-36477271D01*
X101328586Y-36307111D01*
X101230290Y-36160000D01*
X105467721Y-36160000D01*
X105565424Y-36169580D01*
X105628356Y-36188580D01*
X105686405Y-36219445D01*
X105737343Y-36260989D01*
X105779248Y-36311644D01*
X105810515Y-36369471D01*
X105829956Y-36432272D01*
X105840001Y-36527845D01*
X105840000Y-68583370D01*
X105809110Y-68428075D01*
X105640631Y-68021331D01*
X105396038Y-67655271D01*
X105084729Y-67343962D01*
X104718669Y-67099369D01*
X104311925Y-66930890D01*
X103880128Y-66845000D01*
X103439872Y-66845000D01*
X103008075Y-66930890D01*
X102601331Y-67099369D01*
X102235271Y-67343962D01*
X101923962Y-67655271D01*
X101679369Y-68021331D01*
X101510890Y-68428075D01*
X101425000Y-68859872D01*
X101425000Y-69300128D01*
X101510890Y-69731925D01*
X101679369Y-70138669D01*
X101923962Y-70504729D01*
X102235271Y-70816038D01*
X102601331Y-71060631D01*
X103008075Y-71229110D01*
X103439872Y-71315000D01*
X103880128Y-71315000D01*
X104311925Y-71229110D01*
X104718669Y-71060631D01*
X105084729Y-70816038D01*
X105396038Y-70504729D01*
X105640631Y-70138669D01*
X105809110Y-69731925D01*
X105840000Y-69576630D01*
X105840000Y-76467721D01*
X105830420Y-76565424D01*
X105811420Y-76628357D01*
X105780554Y-76686406D01*
X105739011Y-76737343D01*
X105688356Y-76779248D01*
X105630529Y-76810515D01*
X105567728Y-76829956D01*
X105472165Y-76840000D01*
X38532279Y-76840000D01*
X38434576Y-76830420D01*
X38371643Y-76811420D01*
X38313594Y-76780554D01*
X38262657Y-76739011D01*
X38220752Y-76688356D01*
X38189485Y-76630529D01*
X38170044Y-76567728D01*
X38160000Y-76472165D01*
X38160000Y-73053803D01*
X38792200Y-73686004D01*
X38815998Y-73715002D01*
X38931723Y-73809975D01*
X39063752Y-73880547D01*
X39207013Y-73924004D01*
X39318666Y-73935001D01*
X39318675Y-73935001D01*
X39355998Y-73938677D01*
X39393321Y-73935001D01*
X41247677Y-73935001D01*
X41284999Y-73938677D01*
X41322321Y-73935001D01*
X41322332Y-73935001D01*
X41433985Y-73924004D01*
X41577246Y-73880547D01*
X41709275Y-73809975D01*
X41825000Y-73715002D01*
X41848803Y-73685998D01*
X42093592Y-73441209D01*
X42313740Y-73485000D01*
X42606260Y-73485000D01*
X42893158Y-73427932D01*
X43163411Y-73315990D01*
X43406632Y-73153475D01*
X43538487Y-73021620D01*
X43560498Y-73094180D01*
X43619463Y-73204494D01*
X43698815Y-73301185D01*
X43795506Y-73380537D01*
X43905820Y-73439502D01*
X44025518Y-73475812D01*
X44150000Y-73488072D01*
X44714250Y-73485000D01*
X44873000Y-73326250D01*
X44873000Y-72127000D01*
X45127000Y-72127000D01*
X45127000Y-73326250D01*
X45285750Y-73485000D01*
X45850000Y-73488072D01*
X45974482Y-73475812D01*
X46094180Y-73439502D01*
X46204494Y-73380537D01*
X46301185Y-73301185D01*
X46380537Y-73204494D01*
X46439502Y-73094180D01*
X46475812Y-72974482D01*
X46488072Y-72850000D01*
X46485000Y-72285750D01*
X46326250Y-72127000D01*
X45127000Y-72127000D01*
X44873000Y-72127000D01*
X44853000Y-72127000D01*
X44853000Y-71873000D01*
X44873000Y-71873000D01*
X44873000Y-70673750D01*
X45127000Y-70673750D01*
X45127000Y-71873000D01*
X46326250Y-71873000D01*
X46485000Y-71714250D01*
X46488072Y-71150000D01*
X46475812Y-71025518D01*
X46439502Y-70905820D01*
X46380537Y-70795506D01*
X46301185Y-70698815D01*
X46204494Y-70619463D01*
X46094180Y-70560498D01*
X45974482Y-70524188D01*
X45850000Y-70511928D01*
X45285750Y-70515000D01*
X45127000Y-70673750D01*
X44873000Y-70673750D01*
X44714250Y-70515000D01*
X44150000Y-70511928D01*
X44025518Y-70524188D01*
X43905820Y-70560498D01*
X43795506Y-70619463D01*
X43698815Y-70698815D01*
X43619463Y-70795506D01*
X43560498Y-70905820D01*
X43538487Y-70978380D01*
X43406632Y-70846525D01*
X43163411Y-70684010D01*
X42893158Y-70572068D01*
X42606260Y-70515000D01*
X42313740Y-70515000D01*
X42026842Y-70572068D01*
X41756589Y-70684010D01*
X41513368Y-70846525D01*
X41306525Y-71053368D01*
X41190000Y-71227760D01*
X41073475Y-71053368D01*
X41055000Y-71034893D01*
X41055000Y-65138072D01*
X41500000Y-65138072D01*
X41624482Y-65125812D01*
X41744180Y-65089502D01*
X41854494Y-65030537D01*
X41951185Y-64951185D01*
X42030537Y-64854494D01*
X42089502Y-64744180D01*
X42122621Y-64635000D01*
X42444249Y-64635000D01*
X42500000Y-64640491D01*
X42551557Y-64635413D01*
X44544192Y-64635413D01*
X44639956Y-64899814D01*
X44929571Y-65040704D01*
X45241108Y-65122384D01*
X45562595Y-65141718D01*
X45881675Y-65097961D01*
X46186088Y-64992795D01*
X46360044Y-64899814D01*
X46455808Y-64635413D01*
X45500000Y-63679605D01*
X44544192Y-64635413D01*
X42551557Y-64635413D01*
X42555751Y-64635000D01*
X42555752Y-64635000D01*
X42722499Y-64618577D01*
X42936447Y-64553676D01*
X43133623Y-64448284D01*
X43306449Y-64306449D01*
X43341996Y-64263135D01*
X43880502Y-63724629D01*
X43902039Y-63881675D01*
X44007205Y-64186088D01*
X44100186Y-64360044D01*
X44364587Y-64455808D01*
X45320395Y-63500000D01*
X45306253Y-63485858D01*
X45485858Y-63306253D01*
X45500000Y-63320395D01*
X45514143Y-63306253D01*
X45693748Y-63485858D01*
X45679605Y-63500000D01*
X46635413Y-64455808D01*
X46899814Y-64360044D01*
X47040704Y-64070429D01*
X47122384Y-63758892D01*
X47141718Y-63437405D01*
X47097961Y-63118325D01*
X47034627Y-62934999D01*
X49263423Y-62934999D01*
X48954955Y-63243467D01*
X48921182Y-63271184D01*
X48810588Y-63405943D01*
X48728410Y-63559689D01*
X48705337Y-63635750D01*
X48679022Y-63722498D01*
X48677804Y-63726512D01*
X48664999Y-63856525D01*
X48664999Y-63856532D01*
X48660718Y-63900001D01*
X48664999Y-63943470D01*
X48665000Y-71086520D01*
X48660718Y-71129999D01*
X48677804Y-71303489D01*
X48728411Y-71470312D01*
X48810589Y-71624058D01*
X48893467Y-71725045D01*
X48893470Y-71725048D01*
X48921183Y-71758816D01*
X48949293Y-71781885D01*
X48935000Y-71853740D01*
X48935000Y-72146260D01*
X48992068Y-72433158D01*
X49104010Y-72703411D01*
X49266525Y-72946632D01*
X49473368Y-73153475D01*
X49716589Y-73315990D01*
X49986842Y-73427932D01*
X50273740Y-73485000D01*
X50566260Y-73485000D01*
X50638961Y-73470539D01*
X52163470Y-74995049D01*
X52191183Y-75028817D01*
X52224951Y-75056530D01*
X52224953Y-75056532D01*
X52325941Y-75139411D01*
X52479686Y-75221589D01*
X52646510Y-75272195D01*
X52776523Y-75285000D01*
X52776531Y-75285000D01*
X52820000Y-75289281D01*
X52863469Y-75285000D01*
X60461546Y-75285000D01*
X60509744Y-75317205D01*
X60698102Y-75395226D01*
X60898061Y-75435000D01*
X61101939Y-75435000D01*
X61301898Y-75395226D01*
X61490256Y-75317205D01*
X61659774Y-75203937D01*
X61803937Y-75059774D01*
X61917205Y-74890256D01*
X61995226Y-74701898D01*
X62035000Y-74501939D01*
X62035000Y-74385012D01*
X74837666Y-74385012D01*
X74874988Y-74388688D01*
X74912310Y-74385012D01*
X74912321Y-74385012D01*
X75023974Y-74374015D01*
X75167235Y-74330558D01*
X75299264Y-74259986D01*
X75414989Y-74165013D01*
X75438792Y-74136009D01*
X81659803Y-67914999D01*
X90320418Y-67914999D01*
X90249369Y-68021331D01*
X90080890Y-68428075D01*
X89995000Y-68859872D01*
X89995000Y-69300128D01*
X90080890Y-69731925D01*
X90249369Y-70138669D01*
X90493962Y-70504729D01*
X90805271Y-70816038D01*
X91171331Y-71060631D01*
X91578075Y-71229110D01*
X92009872Y-71315000D01*
X92450128Y-71315000D01*
X92881925Y-71229110D01*
X93288669Y-71060631D01*
X93654729Y-70816038D01*
X93966038Y-70504729D01*
X94210631Y-70138669D01*
X94379110Y-69731925D01*
X94465000Y-69300128D01*
X94465000Y-68859872D01*
X94379110Y-68428075D01*
X94210631Y-68021331D01*
X94139582Y-67914999D01*
X97307679Y-67914999D01*
X97345001Y-67918675D01*
X97382323Y-67914999D01*
X97382334Y-67914999D01*
X97493987Y-67904002D01*
X97637248Y-67860545D01*
X97769277Y-67789973D01*
X97885002Y-67695000D01*
X97908805Y-67665996D01*
X100361003Y-65213799D01*
X100390001Y-65190001D01*
X100484974Y-65074276D01*
X100555546Y-64942247D01*
X100599003Y-64798986D01*
X100610000Y-64687333D01*
X100613677Y-64650000D01*
X100610000Y-64612667D01*
X100610000Y-64017864D01*
X100716011Y-64061775D01*
X100983589Y-64115000D01*
X101256411Y-64115000D01*
X101523989Y-64061775D01*
X101776043Y-63957371D01*
X102002886Y-63805799D01*
X102195799Y-63612886D01*
X102347371Y-63386043D01*
X102451775Y-63133989D01*
X102505000Y-62866411D01*
X102505000Y-62593589D01*
X102451775Y-62326011D01*
X102347371Y-62073957D01*
X102195799Y-61847114D01*
X102005000Y-61656315D01*
X102005000Y-61525552D01*
X102253589Y-61575000D01*
X102526411Y-61575000D01*
X102793989Y-61521775D01*
X103046043Y-61417371D01*
X103272886Y-61265799D01*
X103465799Y-61072886D01*
X103617371Y-60846043D01*
X103721775Y-60593989D01*
X103775000Y-60326411D01*
X103775000Y-60053589D01*
X103721775Y-59786011D01*
X103617371Y-59533957D01*
X103465799Y-59307114D01*
X103275000Y-59116315D01*
X103275000Y-55588072D01*
X104200000Y-55588072D01*
X104324482Y-55575812D01*
X104444180Y-55539502D01*
X104554494Y-55480537D01*
X104651185Y-55401185D01*
X104730537Y-55304494D01*
X104789502Y-55194180D01*
X104825812Y-55074482D01*
X104838072Y-54950000D01*
X104838072Y-52650000D01*
X104825812Y-52525518D01*
X104789502Y-52405820D01*
X104730537Y-52295506D01*
X104651185Y-52198815D01*
X104554494Y-52119463D01*
X104444180Y-52060498D01*
X104324482Y-52024188D01*
X104200000Y-52011928D01*
X101700000Y-52011928D01*
X101575518Y-52024188D01*
X101455820Y-52060498D01*
X101401248Y-52089668D01*
X99699652Y-50388072D01*
X99900000Y-50388072D01*
X100024482Y-50375812D01*
X100144180Y-50339502D01*
X100254494Y-50280537D01*
X100351185Y-50201185D01*
X100430537Y-50104494D01*
X100489502Y-49994180D01*
X100525812Y-49874482D01*
X100538072Y-49750000D01*
X101061928Y-49750000D01*
X101074188Y-49874482D01*
X101110498Y-49994180D01*
X101169463Y-50104494D01*
X101248815Y-50201185D01*
X101345506Y-50280537D01*
X101455820Y-50339502D01*
X101575518Y-50375812D01*
X101700000Y-50388072D01*
X102664250Y-50385000D01*
X102823000Y-50226250D01*
X102823000Y-48727000D01*
X103077000Y-48727000D01*
X103077000Y-50226250D01*
X103235750Y-50385000D01*
X104200000Y-50388072D01*
X104324482Y-50375812D01*
X104444180Y-50339502D01*
X104554494Y-50280537D01*
X104651185Y-50201185D01*
X104730537Y-50104494D01*
X104789502Y-49994180D01*
X104825812Y-49874482D01*
X104838072Y-49750000D01*
X104835000Y-48885750D01*
X104676250Y-48727000D01*
X103077000Y-48727000D01*
X102823000Y-48727000D01*
X101223750Y-48727000D01*
X101065000Y-48885750D01*
X101061928Y-49750000D01*
X100538072Y-49750000D01*
X100538072Y-47450000D01*
X101061928Y-47450000D01*
X101065000Y-48314250D01*
X101223750Y-48473000D01*
X102823000Y-48473000D01*
X102823000Y-46973750D01*
X103077000Y-46973750D01*
X103077000Y-48473000D01*
X104676250Y-48473000D01*
X104835000Y-48314250D01*
X104838072Y-47450000D01*
X104825812Y-47325518D01*
X104789502Y-47205820D01*
X104730537Y-47095506D01*
X104651185Y-46998815D01*
X104554494Y-46919463D01*
X104444180Y-46860498D01*
X104324482Y-46824188D01*
X104200000Y-46811928D01*
X103235750Y-46815000D01*
X103077000Y-46973750D01*
X102823000Y-46973750D01*
X102664250Y-46815000D01*
X101700000Y-46811928D01*
X101575518Y-46824188D01*
X101455820Y-46860498D01*
X101345506Y-46919463D01*
X101248815Y-46998815D01*
X101169463Y-47095506D01*
X101110498Y-47205820D01*
X101074188Y-47325518D01*
X101061928Y-47450000D01*
X100538072Y-47450000D01*
X100525812Y-47325518D01*
X100489502Y-47205820D01*
X100430537Y-47095506D01*
X100351185Y-46998815D01*
X100254494Y-46919463D01*
X100144180Y-46860498D01*
X100024482Y-46824188D01*
X99900000Y-46811928D01*
X97400000Y-46811928D01*
X97275518Y-46824188D01*
X97155820Y-46860498D01*
X97045506Y-46919463D01*
X96948815Y-46998815D01*
X96869463Y-47095506D01*
X96810498Y-47205820D01*
X96774188Y-47325518D01*
X96761928Y-47450000D01*
X96761928Y-49750000D01*
X96774188Y-49874482D01*
X96810498Y-49994180D01*
X96869463Y-50104494D01*
X96948815Y-50201185D01*
X97045506Y-50280537D01*
X97155820Y-50339502D01*
X97275518Y-50375812D01*
X97400000Y-50388072D01*
X97765000Y-50388072D01*
X97765000Y-50546529D01*
X97760719Y-50589998D01*
X97765000Y-50633467D01*
X97765000Y-50633474D01*
X97776212Y-50747312D01*
X97777805Y-50763488D01*
X97787822Y-50796509D01*
X97828411Y-50930310D01*
X97910589Y-51084056D01*
X98021183Y-51218815D01*
X98054956Y-51246532D01*
X98879587Y-52071163D01*
X98777000Y-52173750D01*
X98777000Y-53673000D01*
X98797000Y-53673000D01*
X98797000Y-53927000D01*
X98777000Y-53927000D01*
X98777000Y-55426250D01*
X98935750Y-55585000D01*
X99900000Y-55588072D01*
X100024482Y-55575812D01*
X100144180Y-55539502D01*
X100235001Y-55490957D01*
X100235000Y-58854448D01*
X99986411Y-58805000D01*
X99713589Y-58805000D01*
X99446011Y-58858225D01*
X99193957Y-58962629D01*
X98967114Y-59114201D01*
X98774201Y-59307114D01*
X98622629Y-59533957D01*
X98581489Y-59633279D01*
X98566277Y-59591168D01*
X98505860Y-59478137D01*
X98266993Y-59412612D01*
X97489605Y-60190000D01*
X98266993Y-60967388D01*
X98505860Y-60901863D01*
X98580164Y-60743523D01*
X98622629Y-60846043D01*
X98774201Y-61072886D01*
X98967114Y-61265799D01*
X99090000Y-61347909D01*
X99090000Y-61442136D01*
X98983989Y-61398225D01*
X98716411Y-61345000D01*
X98443589Y-61345000D01*
X98176011Y-61398225D01*
X97923957Y-61502629D01*
X97697114Y-61654201D01*
X97504201Y-61847114D01*
X97352629Y-62073957D01*
X97311489Y-62173279D01*
X97296277Y-62131168D01*
X97235860Y-62018137D01*
X96996993Y-61952612D01*
X96219605Y-62730000D01*
X96233748Y-62744143D01*
X96054143Y-62923748D01*
X96040000Y-62909605D01*
X95262612Y-63686993D01*
X95278528Y-63745012D01*
X94828367Y-63745012D01*
X94839502Y-63724180D01*
X94875812Y-63604482D01*
X94888072Y-63480000D01*
X94888072Y-63453914D01*
X95083007Y-63507388D01*
X95860395Y-62730000D01*
X95083007Y-61952612D01*
X94888072Y-62006086D01*
X94888072Y-61980000D01*
X94875812Y-61855518D01*
X94850783Y-61773007D01*
X95262612Y-61773007D01*
X96040000Y-62550395D01*
X96817388Y-61773007D01*
X96751863Y-61534140D01*
X96504884Y-61418240D01*
X96240040Y-61352750D01*
X95967508Y-61340188D01*
X95697762Y-61381035D01*
X95441168Y-61473723D01*
X95328137Y-61534140D01*
X95262612Y-61773007D01*
X94850783Y-61773007D01*
X94839502Y-61735820D01*
X94780537Y-61625506D01*
X94739088Y-61575000D01*
X94906411Y-61575000D01*
X95173989Y-61521775D01*
X95426043Y-61417371D01*
X95652886Y-61265799D01*
X95771692Y-61146993D01*
X96532612Y-61146993D01*
X96598137Y-61385860D01*
X96845116Y-61501760D01*
X97109960Y-61567250D01*
X97382492Y-61579812D01*
X97652238Y-61538965D01*
X97908832Y-61446277D01*
X98021863Y-61385860D01*
X98087388Y-61146993D01*
X97310000Y-60369605D01*
X96532612Y-61146993D01*
X95771692Y-61146993D01*
X95845799Y-61072886D01*
X95997371Y-60846043D01*
X96038511Y-60746721D01*
X96053723Y-60788832D01*
X96114140Y-60901863D01*
X96353007Y-60967388D01*
X97130395Y-60190000D01*
X97116253Y-60175858D01*
X97295858Y-59996253D01*
X97310000Y-60010395D01*
X98087388Y-59233007D01*
X98021863Y-58994140D01*
X97774884Y-58878240D01*
X97510040Y-58812750D01*
X97237508Y-58800188D01*
X96967762Y-58841035D01*
X96711168Y-58933723D01*
X96598137Y-58994140D01*
X96532613Y-59233005D01*
X96416157Y-59116549D01*
X96404999Y-59127707D01*
X96404999Y-54950000D01*
X96761928Y-54950000D01*
X96774188Y-55074482D01*
X96810498Y-55194180D01*
X96869463Y-55304494D01*
X96948815Y-55401185D01*
X97045506Y-55480537D01*
X97155820Y-55539502D01*
X97275518Y-55575812D01*
X97400000Y-55588072D01*
X98364250Y-55585000D01*
X98523000Y-55426250D01*
X98523000Y-53927000D01*
X96923750Y-53927000D01*
X96765000Y-54085750D01*
X96761928Y-54950000D01*
X96404999Y-54950000D01*
X96404999Y-52650000D01*
X96761928Y-52650000D01*
X96765000Y-53514250D01*
X96923750Y-53673000D01*
X98523000Y-53673000D01*
X98523000Y-52173750D01*
X98364250Y-52015000D01*
X97400000Y-52011928D01*
X97275518Y-52024188D01*
X97155820Y-52060498D01*
X97045506Y-52119463D01*
X96948815Y-52198815D01*
X96869463Y-52295506D01*
X96810498Y-52405820D01*
X96774188Y-52525518D01*
X96761928Y-52650000D01*
X96404999Y-52650000D01*
X96404999Y-51013468D01*
X96409280Y-50969999D01*
X96404999Y-50926530D01*
X96404999Y-50926522D01*
X96392194Y-50796509D01*
X96341588Y-50629686D01*
X96259410Y-50475940D01*
X96235105Y-50446324D01*
X96176531Y-50374952D01*
X96176529Y-50374950D01*
X96148816Y-50341182D01*
X96115048Y-50313469D01*
X95038072Y-49236493D01*
X95038072Y-47450000D01*
X95025812Y-47325518D01*
X94989502Y-47205820D01*
X94930537Y-47095506D01*
X94851185Y-46998815D01*
X94754494Y-46919463D01*
X94644180Y-46860498D01*
X94524482Y-46824188D01*
X94400000Y-46811928D01*
X93063507Y-46811928D01*
X92306533Y-46054955D01*
X92278816Y-46021182D01*
X92144058Y-45910588D01*
X91990312Y-45828410D01*
X91823489Y-45777804D01*
X91693476Y-45764999D01*
X91693468Y-45764999D01*
X91649999Y-45760718D01*
X91606530Y-45764999D01*
X72597014Y-45764999D01*
X72553545Y-45760718D01*
X72510076Y-45764999D01*
X72510068Y-45764999D01*
X72380055Y-45777804D01*
X72213231Y-45828410D01*
X72059486Y-45910588D01*
X71958498Y-45993467D01*
X71958496Y-45993469D01*
X71924728Y-46021182D01*
X71897015Y-46054950D01*
X70558108Y-47393858D01*
X70426250Y-47262000D01*
X69102000Y-47262000D01*
X69102000Y-47282000D01*
X68848000Y-47282000D01*
X68848000Y-47262000D01*
X68828000Y-47262000D01*
X68828000Y-47008000D01*
X68848000Y-47008000D01*
X68848000Y-45992000D01*
X69102000Y-45992000D01*
X69102000Y-47008000D01*
X70426250Y-47008000D01*
X70585000Y-46849250D01*
X70588072Y-46835000D01*
X70575812Y-46710518D01*
X70539502Y-46590820D01*
X70490957Y-46500000D01*
X70539502Y-46409180D01*
X70575812Y-46289482D01*
X70588072Y-46165000D01*
X70585000Y-46150750D01*
X70426250Y-45992000D01*
X69102000Y-45992000D01*
X68848000Y-45992000D01*
X68828000Y-45992000D01*
X68828000Y-45738000D01*
X68848000Y-45738000D01*
X68848000Y-45718000D01*
X69102000Y-45718000D01*
X69102000Y-45738000D01*
X70426250Y-45738000D01*
X70585000Y-45579250D01*
X70588072Y-45565000D01*
X70575812Y-45440518D01*
X70539502Y-45320820D01*
X70480537Y-45210506D01*
X70456270Y-45180936D01*
X70528084Y-45046582D01*
X70572929Y-44898745D01*
X70588072Y-44745000D01*
X70588072Y-44445000D01*
X70572929Y-44291255D01*
X70528084Y-44143418D01*
X70455258Y-44007171D01*
X70357251Y-43887749D01*
X70237829Y-43789742D01*
X70101582Y-43716916D01*
X69953745Y-43672071D01*
X69800000Y-43656928D01*
X68150000Y-43656928D01*
X67996255Y-43672071D01*
X67848418Y-43716916D01*
X67712171Y-43789742D01*
X67592749Y-43887749D01*
X67552092Y-43937290D01*
X66099801Y-42485000D01*
X66226260Y-42485000D01*
X66513158Y-42427932D01*
X66783411Y-42315990D01*
X67026632Y-42153475D01*
X67233475Y-41946632D01*
X67395990Y-41703411D01*
X67507932Y-41433158D01*
X67565000Y-41146260D01*
X67565000Y-40853740D01*
X67507932Y-40566842D01*
X67395990Y-40296589D01*
X67233475Y-40053368D01*
X67026632Y-39846525D01*
X66783411Y-39684010D01*
X66513158Y-39572068D01*
X66226260Y-39515000D01*
X65933740Y-39515000D01*
X65646842Y-39572068D01*
X65376589Y-39684010D01*
X65133368Y-39846525D01*
X64926525Y-40053368D01*
X64810000Y-40227760D01*
X64693475Y-40053368D01*
X64486632Y-39846525D01*
X64243411Y-39684010D01*
X63973158Y-39572068D01*
X63686260Y-39515000D01*
X63483355Y-39515000D01*
X60128355Y-36160000D01*
X99769710Y-36160000D01*
X99671414Y-36307111D01*
G04 #@! TA.AperFunction,Conductor*
D33*
G36*
X99671414Y-36307111D02*
G01*
X99600932Y-36477271D01*
X99565000Y-36657911D01*
X99565000Y-36842089D01*
X99600932Y-37022729D01*
X99671414Y-37192889D01*
X99773738Y-37346028D01*
X99773785Y-37346075D01*
X99556385Y-37389319D01*
X98967653Y-37633180D01*
X98784528Y-37755540D01*
X98749068Y-37577271D01*
X98678586Y-37407111D01*
X98576262Y-37253972D01*
X98446028Y-37123738D01*
X98292889Y-37021414D01*
X98122729Y-36950932D01*
X97942089Y-36915000D01*
X97757911Y-36915000D01*
X97577271Y-36950932D01*
X97407111Y-37021414D01*
X97253972Y-37123738D01*
X97123738Y-37253972D01*
X97021414Y-37407111D01*
X96950932Y-37577271D01*
X96915000Y-37757911D01*
X96915000Y-37942089D01*
X96950932Y-38122729D01*
X97021414Y-38292889D01*
X97123738Y-38446028D01*
X97253972Y-38576262D01*
X97407111Y-38678586D01*
X97577271Y-38749068D01*
X97755540Y-38784528D01*
X97633180Y-38967653D01*
X97389319Y-39556385D01*
X97346075Y-39773785D01*
X97346028Y-39773738D01*
X97192889Y-39671414D01*
X97022729Y-39600932D01*
X96842089Y-39565000D01*
X96657911Y-39565000D01*
X96477271Y-39600932D01*
X96307111Y-39671414D01*
X96153972Y-39773738D01*
X96023738Y-39903972D01*
X95921414Y-40057111D01*
X95850932Y-40227271D01*
X95815000Y-40407911D01*
X95815000Y-40592089D01*
X95850932Y-40772729D01*
X95921414Y-40942889D01*
X96023738Y-41096028D01*
X96153972Y-41226262D01*
X96307111Y-41328586D01*
X96477271Y-41399068D01*
X96657911Y-41435000D01*
X96842089Y-41435000D01*
X97022729Y-41399068D01*
X97192889Y-41328586D01*
X97346028Y-41226262D01*
X97346075Y-41226215D01*
X97389319Y-41443615D01*
X97633180Y-42032347D01*
X97755540Y-42215472D01*
X97577271Y-42250932D01*
X97407111Y-42321414D01*
X97253972Y-42423738D01*
X97123738Y-42553972D01*
X97021414Y-42707111D01*
X96950932Y-42877271D01*
X96915000Y-43057911D01*
X96915000Y-43242089D01*
X96950932Y-43422729D01*
X97021414Y-43592889D01*
X97123738Y-43746028D01*
X97253972Y-43876262D01*
X97407111Y-43978586D01*
X97577271Y-44049068D01*
X97757911Y-44085000D01*
X97942089Y-44085000D01*
X98122729Y-44049068D01*
X98292889Y-43978586D01*
X98446028Y-43876262D01*
X98576262Y-43746028D01*
X98678586Y-43592889D01*
X98749068Y-43422729D01*
X98784528Y-43244460D01*
X98967653Y-43366820D01*
X99556385Y-43610681D01*
X99773785Y-43653925D01*
X99773738Y-43653972D01*
X99671414Y-43807111D01*
X99600932Y-43977271D01*
X99565000Y-44157911D01*
X99565000Y-44342089D01*
X99600932Y-44522729D01*
X99671414Y-44692889D01*
X99773738Y-44846028D01*
X99903972Y-44976262D01*
X100057111Y-45078586D01*
X100227271Y-45149068D01*
X100407911Y-45185000D01*
X100592089Y-45185000D01*
X100772729Y-45149068D01*
X100942889Y-45078586D01*
X101096028Y-44976262D01*
X101226262Y-44846028D01*
X101328586Y-44692889D01*
X101399068Y-44522729D01*
X101435000Y-44342089D01*
X101435000Y-44157911D01*
X101399068Y-43977271D01*
X101328586Y-43807111D01*
X101226262Y-43653972D01*
X101226215Y-43653925D01*
X101443615Y-43610681D01*
X102032347Y-43366820D01*
X102215472Y-43244460D01*
X102250932Y-43422729D01*
X102321414Y-43592889D01*
X102423738Y-43746028D01*
X102553972Y-43876262D01*
X102707111Y-43978586D01*
X102877271Y-44049068D01*
X103057911Y-44085000D01*
X103242089Y-44085000D01*
X103422729Y-44049068D01*
X103592889Y-43978586D01*
X103746028Y-43876262D01*
X103876262Y-43746028D01*
X103978586Y-43592889D01*
X104049068Y-43422729D01*
X104085000Y-43242089D01*
X104085000Y-43057911D01*
X104049068Y-42877271D01*
X103978586Y-42707111D01*
X103876262Y-42553972D01*
X103746028Y-42423738D01*
X103592889Y-42321414D01*
X103422729Y-42250932D01*
X103244460Y-42215472D01*
X103366820Y-42032347D01*
X103610681Y-41443615D01*
X103653925Y-41226215D01*
X103653972Y-41226262D01*
X103807111Y-41328586D01*
X103977271Y-41399068D01*
X104157911Y-41435000D01*
X104342089Y-41435000D01*
X104522729Y-41399068D01*
X104692889Y-41328586D01*
X104846028Y-41226262D01*
X104976262Y-41096028D01*
X105078586Y-40942889D01*
X105149068Y-40772729D01*
X105185000Y-40592089D01*
X105185000Y-40407911D01*
X105149068Y-40227271D01*
X105078586Y-40057111D01*
X104976262Y-39903972D01*
X104846028Y-39773738D01*
X104692889Y-39671414D01*
X104522729Y-39600932D01*
X104342089Y-39565000D01*
X104157911Y-39565000D01*
X103977271Y-39600932D01*
X103807111Y-39671414D01*
X103653972Y-39773738D01*
X103653925Y-39773785D01*
X103610681Y-39556385D01*
X103366820Y-38967653D01*
X103244460Y-38784528D01*
X103422729Y-38749068D01*
X103592889Y-38678586D01*
X103746028Y-38576262D01*
X103876262Y-38446028D01*
X103978586Y-38292889D01*
X104049068Y-38122729D01*
X104085000Y-37942089D01*
X104085000Y-37757911D01*
X104049068Y-37577271D01*
X103978586Y-37407111D01*
X103876262Y-37253972D01*
X103746028Y-37123738D01*
X103592889Y-37021414D01*
X103422729Y-36950932D01*
X103242089Y-36915000D01*
X103057911Y-36915000D01*
X102877271Y-36950932D01*
X102707111Y-37021414D01*
X102553972Y-37123738D01*
X102423738Y-37253972D01*
X102321414Y-37407111D01*
X102250932Y-37577271D01*
X102215472Y-37755540D01*
X102032347Y-37633180D01*
X101443615Y-37389319D01*
X101226215Y-37346075D01*
X101226262Y-37346028D01*
X101328586Y-37192889D01*
X101399068Y-37022729D01*
X101435000Y-36842089D01*
X101435000Y-36657911D01*
X101399068Y-36477271D01*
X101328586Y-36307111D01*
X101230290Y-36160000D01*
X105467721Y-36160000D01*
X105565424Y-36169580D01*
X105628356Y-36188580D01*
X105686405Y-36219445D01*
X105737343Y-36260989D01*
X105779248Y-36311644D01*
X105810515Y-36369471D01*
X105829956Y-36432272D01*
X105840001Y-36527845D01*
X105840000Y-68583370D01*
X105809110Y-68428075D01*
X105640631Y-68021331D01*
X105396038Y-67655271D01*
X105084729Y-67343962D01*
X104718669Y-67099369D01*
X104311925Y-66930890D01*
X103880128Y-66845000D01*
X103439872Y-66845000D01*
X103008075Y-66930890D01*
X102601331Y-67099369D01*
X102235271Y-67343962D01*
X101923962Y-67655271D01*
X101679369Y-68021331D01*
X101510890Y-68428075D01*
X101425000Y-68859872D01*
X101425000Y-69300128D01*
X101510890Y-69731925D01*
X101679369Y-70138669D01*
X101923962Y-70504729D01*
X102235271Y-70816038D01*
X102601331Y-71060631D01*
X103008075Y-71229110D01*
X103439872Y-71315000D01*
X103880128Y-71315000D01*
X104311925Y-71229110D01*
X104718669Y-71060631D01*
X105084729Y-70816038D01*
X105396038Y-70504729D01*
X105640631Y-70138669D01*
X105809110Y-69731925D01*
X105840000Y-69576630D01*
X105840000Y-76467721D01*
X105830420Y-76565424D01*
X105811420Y-76628357D01*
X105780554Y-76686406D01*
X105739011Y-76737343D01*
X105688356Y-76779248D01*
X105630529Y-76810515D01*
X105567728Y-76829956D01*
X105472165Y-76840000D01*
X38532279Y-76840000D01*
X38434576Y-76830420D01*
X38371643Y-76811420D01*
X38313594Y-76780554D01*
X38262657Y-76739011D01*
X38220752Y-76688356D01*
X38189485Y-76630529D01*
X38170044Y-76567728D01*
X38160000Y-76472165D01*
X38160000Y-73053803D01*
X38792200Y-73686004D01*
X38815998Y-73715002D01*
X38931723Y-73809975D01*
X39063752Y-73880547D01*
X39207013Y-73924004D01*
X39318666Y-73935001D01*
X39318675Y-73935001D01*
X39355998Y-73938677D01*
X39393321Y-73935001D01*
X41247677Y-73935001D01*
X41284999Y-73938677D01*
X41322321Y-73935001D01*
X41322332Y-73935001D01*
X41433985Y-73924004D01*
X41577246Y-73880547D01*
X41709275Y-73809975D01*
X41825000Y-73715002D01*
X41848803Y-73685998D01*
X42093592Y-73441209D01*
X42313740Y-73485000D01*
X42606260Y-73485000D01*
X42893158Y-73427932D01*
X43163411Y-73315990D01*
X43406632Y-73153475D01*
X43538487Y-73021620D01*
X43560498Y-73094180D01*
X43619463Y-73204494D01*
X43698815Y-73301185D01*
X43795506Y-73380537D01*
X43905820Y-73439502D01*
X44025518Y-73475812D01*
X44150000Y-73488072D01*
X44714250Y-73485000D01*
X44873000Y-73326250D01*
X44873000Y-72127000D01*
X45127000Y-72127000D01*
X45127000Y-73326250D01*
X45285750Y-73485000D01*
X45850000Y-73488072D01*
X45974482Y-73475812D01*
X46094180Y-73439502D01*
X46204494Y-73380537D01*
X46301185Y-73301185D01*
X46380537Y-73204494D01*
X46439502Y-73094180D01*
X46475812Y-72974482D01*
X46488072Y-72850000D01*
X46485000Y-72285750D01*
X46326250Y-72127000D01*
X45127000Y-72127000D01*
X44873000Y-72127000D01*
X44853000Y-72127000D01*
X44853000Y-71873000D01*
X44873000Y-71873000D01*
X44873000Y-70673750D01*
X45127000Y-70673750D01*
X45127000Y-71873000D01*
X46326250Y-71873000D01*
X46485000Y-71714250D01*
X46488072Y-71150000D01*
X46475812Y-71025518D01*
X46439502Y-70905820D01*
X46380537Y-70795506D01*
X46301185Y-70698815D01*
X46204494Y-70619463D01*
X46094180Y-70560498D01*
X45974482Y-70524188D01*
X45850000Y-70511928D01*
X45285750Y-70515000D01*
X45127000Y-70673750D01*
X44873000Y-70673750D01*
X44714250Y-70515000D01*
X44150000Y-70511928D01*
X44025518Y-70524188D01*
X43905820Y-70560498D01*
X43795506Y-70619463D01*
X43698815Y-70698815D01*
X43619463Y-70795506D01*
X43560498Y-70905820D01*
X43538487Y-70978380D01*
X43406632Y-70846525D01*
X43163411Y-70684010D01*
X42893158Y-70572068D01*
X42606260Y-70515000D01*
X42313740Y-70515000D01*
X42026842Y-70572068D01*
X41756589Y-70684010D01*
X41513368Y-70846525D01*
X41306525Y-71053368D01*
X41190000Y-71227760D01*
X41073475Y-71053368D01*
X41055000Y-71034893D01*
X41055000Y-65138072D01*
X41500000Y-65138072D01*
X41624482Y-65125812D01*
X41744180Y-65089502D01*
X41854494Y-65030537D01*
X41951185Y-64951185D01*
X42030537Y-64854494D01*
X42089502Y-64744180D01*
X42122621Y-64635000D01*
X42444249Y-64635000D01*
X42500000Y-64640491D01*
X42551557Y-64635413D01*
X44544192Y-64635413D01*
X44639956Y-64899814D01*
X44929571Y-65040704D01*
X45241108Y-65122384D01*
X45562595Y-65141718D01*
X45881675Y-65097961D01*
X46186088Y-64992795D01*
X46360044Y-64899814D01*
X46455808Y-64635413D01*
X45500000Y-63679605D01*
X44544192Y-64635413D01*
X42551557Y-64635413D01*
X42555751Y-64635000D01*
X42555752Y-64635000D01*
X42722499Y-64618577D01*
X42936447Y-64553676D01*
X43133623Y-64448284D01*
X43306449Y-64306449D01*
X43341996Y-64263135D01*
X43880502Y-63724629D01*
X43902039Y-63881675D01*
X44007205Y-64186088D01*
X44100186Y-64360044D01*
X44364587Y-64455808D01*
X45320395Y-63500000D01*
X45306253Y-63485858D01*
X45485858Y-63306253D01*
X45500000Y-63320395D01*
X45514143Y-63306253D01*
X45693748Y-63485858D01*
X45679605Y-63500000D01*
X46635413Y-64455808D01*
X46899814Y-64360044D01*
X47040704Y-64070429D01*
X47122384Y-63758892D01*
X47141718Y-63437405D01*
X47097961Y-63118325D01*
X47034627Y-62934999D01*
X49263423Y-62934999D01*
X48954955Y-63243467D01*
X48921182Y-63271184D01*
X48810588Y-63405943D01*
X48728410Y-63559689D01*
X48705337Y-63635750D01*
X48679022Y-63722498D01*
X48677804Y-63726512D01*
X48664999Y-63856525D01*
X48664999Y-63856532D01*
X48660718Y-63900001D01*
X48664999Y-63943470D01*
X48665000Y-71086520D01*
X48660718Y-71129999D01*
X48677804Y-71303489D01*
X48728411Y-71470312D01*
X48810589Y-71624058D01*
X48893467Y-71725045D01*
X48893470Y-71725048D01*
X48921183Y-71758816D01*
X48949293Y-71781885D01*
X48935000Y-71853740D01*
X48935000Y-72146260D01*
X48992068Y-72433158D01*
X49104010Y-72703411D01*
X49266525Y-72946632D01*
X49473368Y-73153475D01*
X49716589Y-73315990D01*
X49986842Y-73427932D01*
X50273740Y-73485000D01*
X50566260Y-73485000D01*
X50638961Y-73470539D01*
X52163470Y-74995049D01*
X52191183Y-75028817D01*
X52224951Y-75056530D01*
X52224953Y-75056532D01*
X52325941Y-75139411D01*
X52479686Y-75221589D01*
X52646510Y-75272195D01*
X52776523Y-75285000D01*
X52776531Y-75285000D01*
X52820000Y-75289281D01*
X52863469Y-75285000D01*
X60461546Y-75285000D01*
X60509744Y-75317205D01*
X60698102Y-75395226D01*
X60898061Y-75435000D01*
X61101939Y-75435000D01*
X61301898Y-75395226D01*
X61490256Y-75317205D01*
X61659774Y-75203937D01*
X61803937Y-75059774D01*
X61917205Y-74890256D01*
X61995226Y-74701898D01*
X62035000Y-74501939D01*
X62035000Y-74385012D01*
X74837666Y-74385012D01*
X74874988Y-74388688D01*
X74912310Y-74385012D01*
X74912321Y-74385012D01*
X75023974Y-74374015D01*
X75167235Y-74330558D01*
X75299264Y-74259986D01*
X75414989Y-74165013D01*
X75438792Y-74136009D01*
X81659803Y-67914999D01*
X90320418Y-67914999D01*
X90249369Y-68021331D01*
X90080890Y-68428075D01*
X89995000Y-68859872D01*
X89995000Y-69300128D01*
X90080890Y-69731925D01*
X90249369Y-70138669D01*
X90493962Y-70504729D01*
X90805271Y-70816038D01*
X91171331Y-71060631D01*
X91578075Y-71229110D01*
X92009872Y-71315000D01*
X92450128Y-71315000D01*
X92881925Y-71229110D01*
X93288669Y-71060631D01*
X93654729Y-70816038D01*
X93966038Y-70504729D01*
X94210631Y-70138669D01*
X94379110Y-69731925D01*
X94465000Y-69300128D01*
X94465000Y-68859872D01*
X94379110Y-68428075D01*
X94210631Y-68021331D01*
X94139582Y-67914999D01*
X97307679Y-67914999D01*
X97345001Y-67918675D01*
X97382323Y-67914999D01*
X97382334Y-67914999D01*
X97493987Y-67904002D01*
X97637248Y-67860545D01*
X97769277Y-67789973D01*
X97885002Y-67695000D01*
X97908805Y-67665996D01*
X100361003Y-65213799D01*
X100390001Y-65190001D01*
X100484974Y-65074276D01*
X100555546Y-64942247D01*
X100599003Y-64798986D01*
X100610000Y-64687333D01*
X100613677Y-64650000D01*
X100610000Y-64612667D01*
X100610000Y-64017864D01*
X100716011Y-64061775D01*
X100983589Y-64115000D01*
X101256411Y-64115000D01*
X101523989Y-64061775D01*
X101776043Y-63957371D01*
X102002886Y-63805799D01*
X102195799Y-63612886D01*
X102347371Y-63386043D01*
X102451775Y-63133989D01*
X102505000Y-62866411D01*
X102505000Y-62593589D01*
X102451775Y-62326011D01*
X102347371Y-62073957D01*
X102195799Y-61847114D01*
X102005000Y-61656315D01*
X102005000Y-61525552D01*
X102253589Y-61575000D01*
X102526411Y-61575000D01*
X102793989Y-61521775D01*
X103046043Y-61417371D01*
X103272886Y-61265799D01*
X103465799Y-61072886D01*
X103617371Y-60846043D01*
X103721775Y-60593989D01*
X103775000Y-60326411D01*
X103775000Y-60053589D01*
X103721775Y-59786011D01*
X103617371Y-59533957D01*
X103465799Y-59307114D01*
X103275000Y-59116315D01*
X103275000Y-55588072D01*
X104200000Y-55588072D01*
X104324482Y-55575812D01*
X104444180Y-55539502D01*
X104554494Y-55480537D01*
X104651185Y-55401185D01*
X104730537Y-55304494D01*
X104789502Y-55194180D01*
X104825812Y-55074482D01*
X104838072Y-54950000D01*
X104838072Y-52650000D01*
X104825812Y-52525518D01*
X104789502Y-52405820D01*
X104730537Y-52295506D01*
X104651185Y-52198815D01*
X104554494Y-52119463D01*
X104444180Y-52060498D01*
X104324482Y-52024188D01*
X104200000Y-52011928D01*
X101700000Y-52011928D01*
X101575518Y-52024188D01*
X101455820Y-52060498D01*
X101401248Y-52089668D01*
X99699652Y-50388072D01*
X99900000Y-50388072D01*
X100024482Y-50375812D01*
X100144180Y-50339502D01*
X100254494Y-50280537D01*
X100351185Y-50201185D01*
X100430537Y-50104494D01*
X100489502Y-49994180D01*
X100525812Y-49874482D01*
X100538072Y-49750000D01*
X101061928Y-49750000D01*
X101074188Y-49874482D01*
X101110498Y-49994180D01*
X101169463Y-50104494D01*
X101248815Y-50201185D01*
X101345506Y-50280537D01*
X101455820Y-50339502D01*
X101575518Y-50375812D01*
X101700000Y-50388072D01*
X102664250Y-50385000D01*
X102823000Y-50226250D01*
X102823000Y-48727000D01*
X103077000Y-48727000D01*
X103077000Y-50226250D01*
X103235750Y-50385000D01*
X104200000Y-50388072D01*
X104324482Y-50375812D01*
X104444180Y-50339502D01*
X104554494Y-50280537D01*
X104651185Y-50201185D01*
X104730537Y-50104494D01*
X104789502Y-49994180D01*
X104825812Y-49874482D01*
X104838072Y-49750000D01*
X104835000Y-48885750D01*
X104676250Y-48727000D01*
X103077000Y-48727000D01*
X102823000Y-48727000D01*
X101223750Y-48727000D01*
X101065000Y-48885750D01*
X101061928Y-49750000D01*
X100538072Y-49750000D01*
X100538072Y-47450000D01*
X101061928Y-47450000D01*
X101065000Y-48314250D01*
X101223750Y-48473000D01*
X102823000Y-48473000D01*
X102823000Y-46973750D01*
X103077000Y-46973750D01*
X103077000Y-48473000D01*
X104676250Y-48473000D01*
X104835000Y-48314250D01*
X104838072Y-47450000D01*
X104825812Y-47325518D01*
X104789502Y-47205820D01*
X104730537Y-47095506D01*
X104651185Y-46998815D01*
X104554494Y-46919463D01*
X104444180Y-46860498D01*
X104324482Y-46824188D01*
X104200000Y-46811928D01*
X103235750Y-46815000D01*
X103077000Y-46973750D01*
X102823000Y-46973750D01*
X102664250Y-46815000D01*
X101700000Y-46811928D01*
X101575518Y-46824188D01*
X101455820Y-46860498D01*
X101345506Y-46919463D01*
X101248815Y-46998815D01*
X101169463Y-47095506D01*
X101110498Y-47205820D01*
X101074188Y-47325518D01*
X101061928Y-47450000D01*
X100538072Y-47450000D01*
X100525812Y-47325518D01*
X100489502Y-47205820D01*
X100430537Y-47095506D01*
X100351185Y-46998815D01*
X100254494Y-46919463D01*
X100144180Y-46860498D01*
X100024482Y-46824188D01*
X99900000Y-46811928D01*
X97400000Y-46811928D01*
X97275518Y-46824188D01*
X97155820Y-46860498D01*
X97045506Y-46919463D01*
X96948815Y-46998815D01*
X96869463Y-47095506D01*
X96810498Y-47205820D01*
X96774188Y-47325518D01*
X96761928Y-47450000D01*
X96761928Y-49750000D01*
X96774188Y-49874482D01*
X96810498Y-49994180D01*
X96869463Y-50104494D01*
X96948815Y-50201185D01*
X97045506Y-50280537D01*
X97155820Y-50339502D01*
X97275518Y-50375812D01*
X97400000Y-50388072D01*
X97765000Y-50388072D01*
X97765000Y-50546529D01*
X97760719Y-50589998D01*
X97765000Y-50633467D01*
X97765000Y-50633474D01*
X97776212Y-50747312D01*
X97777805Y-50763488D01*
X97787822Y-50796509D01*
X97828411Y-50930310D01*
X97910589Y-51084056D01*
X98021183Y-51218815D01*
X98054956Y-51246532D01*
X98879587Y-52071163D01*
X98777000Y-52173750D01*
X98777000Y-53673000D01*
X98797000Y-53673000D01*
X98797000Y-53927000D01*
X98777000Y-53927000D01*
X98777000Y-55426250D01*
X98935750Y-55585000D01*
X99900000Y-55588072D01*
X100024482Y-55575812D01*
X100144180Y-55539502D01*
X100235001Y-55490957D01*
X100235000Y-58854448D01*
X99986411Y-58805000D01*
X99713589Y-58805000D01*
X99446011Y-58858225D01*
X99193957Y-58962629D01*
X98967114Y-59114201D01*
X98774201Y-59307114D01*
X98622629Y-59533957D01*
X98581489Y-59633279D01*
X98566277Y-59591168D01*
X98505860Y-59478137D01*
X98266993Y-59412612D01*
X97489605Y-60190000D01*
X98266993Y-60967388D01*
X98505860Y-60901863D01*
X98580164Y-60743523D01*
X98622629Y-60846043D01*
X98774201Y-61072886D01*
X98967114Y-61265799D01*
X99090000Y-61347909D01*
X99090000Y-61442136D01*
X98983989Y-61398225D01*
X98716411Y-61345000D01*
X98443589Y-61345000D01*
X98176011Y-61398225D01*
X97923957Y-61502629D01*
X97697114Y-61654201D01*
X97504201Y-61847114D01*
X97352629Y-62073957D01*
X97311489Y-62173279D01*
X97296277Y-62131168D01*
X97235860Y-62018137D01*
X96996993Y-61952612D01*
X96219605Y-62730000D01*
X96233748Y-62744143D01*
X96054143Y-62923748D01*
X96040000Y-62909605D01*
X95262612Y-63686993D01*
X95278528Y-63745012D01*
X94828367Y-63745012D01*
X94839502Y-63724180D01*
X94875812Y-63604482D01*
X94888072Y-63480000D01*
X94888072Y-63453914D01*
X95083007Y-63507388D01*
X95860395Y-62730000D01*
X95083007Y-61952612D01*
X94888072Y-62006086D01*
X94888072Y-61980000D01*
X94875812Y-61855518D01*
X94850783Y-61773007D01*
X95262612Y-61773007D01*
X96040000Y-62550395D01*
X96817388Y-61773007D01*
X96751863Y-61534140D01*
X96504884Y-61418240D01*
X96240040Y-61352750D01*
X95967508Y-61340188D01*
X95697762Y-61381035D01*
X95441168Y-61473723D01*
X95328137Y-61534140D01*
X95262612Y-61773007D01*
X94850783Y-61773007D01*
X94839502Y-61735820D01*
X94780537Y-61625506D01*
X94739088Y-61575000D01*
X94906411Y-61575000D01*
X95173989Y-61521775D01*
X95426043Y-61417371D01*
X95652886Y-61265799D01*
X95771692Y-61146993D01*
X96532612Y-61146993D01*
X96598137Y-61385860D01*
X96845116Y-61501760D01*
X97109960Y-61567250D01*
X97382492Y-61579812D01*
X97652238Y-61538965D01*
X97908832Y-61446277D01*
X98021863Y-61385860D01*
X98087388Y-61146993D01*
X97310000Y-60369605D01*
X96532612Y-61146993D01*
X95771692Y-61146993D01*
X95845799Y-61072886D01*
X95997371Y-60846043D01*
X96038511Y-60746721D01*
X96053723Y-60788832D01*
X96114140Y-60901863D01*
X96353007Y-60967388D01*
X97130395Y-60190000D01*
X97116253Y-60175858D01*
X97295858Y-59996253D01*
X97310000Y-60010395D01*
X98087388Y-59233007D01*
X98021863Y-58994140D01*
X97774884Y-58878240D01*
X97510040Y-58812750D01*
X97237508Y-58800188D01*
X96967762Y-58841035D01*
X96711168Y-58933723D01*
X96598137Y-58994140D01*
X96532613Y-59233005D01*
X96416157Y-59116549D01*
X96404999Y-59127707D01*
X96404999Y-54950000D01*
X96761928Y-54950000D01*
X96774188Y-55074482D01*
X96810498Y-55194180D01*
X96869463Y-55304494D01*
X96948815Y-55401185D01*
X97045506Y-55480537D01*
X97155820Y-55539502D01*
X97275518Y-55575812D01*
X97400000Y-55588072D01*
X98364250Y-55585000D01*
X98523000Y-55426250D01*
X98523000Y-53927000D01*
X96923750Y-53927000D01*
X96765000Y-54085750D01*
X96761928Y-54950000D01*
X96404999Y-54950000D01*
X96404999Y-52650000D01*
X96761928Y-52650000D01*
X96765000Y-53514250D01*
X96923750Y-53673000D01*
X98523000Y-53673000D01*
X98523000Y-52173750D01*
X98364250Y-52015000D01*
X97400000Y-52011928D01*
X97275518Y-52024188D01*
X97155820Y-52060498D01*
X97045506Y-52119463D01*
X96948815Y-52198815D01*
X96869463Y-52295506D01*
X96810498Y-52405820D01*
X96774188Y-52525518D01*
X96761928Y-52650000D01*
X96404999Y-52650000D01*
X96404999Y-51013468D01*
X96409280Y-50969999D01*
X96404999Y-50926530D01*
X96404999Y-50926522D01*
X96392194Y-50796509D01*
X96341588Y-50629686D01*
X96259410Y-50475940D01*
X96235105Y-50446324D01*
X96176531Y-50374952D01*
X96176529Y-50374950D01*
X96148816Y-50341182D01*
X96115048Y-50313469D01*
X95038072Y-49236493D01*
X95038072Y-47450000D01*
X95025812Y-47325518D01*
X94989502Y-47205820D01*
X94930537Y-47095506D01*
X94851185Y-46998815D01*
X94754494Y-46919463D01*
X94644180Y-46860498D01*
X94524482Y-46824188D01*
X94400000Y-46811928D01*
X93063507Y-46811928D01*
X92306533Y-46054955D01*
X92278816Y-46021182D01*
X92144058Y-45910588D01*
X91990312Y-45828410D01*
X91823489Y-45777804D01*
X91693476Y-45764999D01*
X91693468Y-45764999D01*
X91649999Y-45760718D01*
X91606530Y-45764999D01*
X72597014Y-45764999D01*
X72553545Y-45760718D01*
X72510076Y-45764999D01*
X72510068Y-45764999D01*
X72380055Y-45777804D01*
X72213231Y-45828410D01*
X72059486Y-45910588D01*
X71958498Y-45993467D01*
X71958496Y-45993469D01*
X71924728Y-46021182D01*
X71897015Y-46054950D01*
X70558108Y-47393858D01*
X70426250Y-47262000D01*
X69102000Y-47262000D01*
X69102000Y-47282000D01*
X68848000Y-47282000D01*
X68848000Y-47262000D01*
X68828000Y-47262000D01*
X68828000Y-47008000D01*
X68848000Y-47008000D01*
X68848000Y-45992000D01*
X69102000Y-45992000D01*
X69102000Y-47008000D01*
X70426250Y-47008000D01*
X70585000Y-46849250D01*
X70588072Y-46835000D01*
X70575812Y-46710518D01*
X70539502Y-46590820D01*
X70490957Y-46500000D01*
X70539502Y-46409180D01*
X70575812Y-46289482D01*
X70588072Y-46165000D01*
X70585000Y-46150750D01*
X70426250Y-45992000D01*
X69102000Y-45992000D01*
X68848000Y-45992000D01*
X68828000Y-45992000D01*
X68828000Y-45738000D01*
X68848000Y-45738000D01*
X68848000Y-45718000D01*
X69102000Y-45718000D01*
X69102000Y-45738000D01*
X70426250Y-45738000D01*
X70585000Y-45579250D01*
X70588072Y-45565000D01*
X70575812Y-45440518D01*
X70539502Y-45320820D01*
X70480537Y-45210506D01*
X70456270Y-45180936D01*
X70528084Y-45046582D01*
X70572929Y-44898745D01*
X70588072Y-44745000D01*
X70588072Y-44445000D01*
X70572929Y-44291255D01*
X70528084Y-44143418D01*
X70455258Y-44007171D01*
X70357251Y-43887749D01*
X70237829Y-43789742D01*
X70101582Y-43716916D01*
X69953745Y-43672071D01*
X69800000Y-43656928D01*
X68150000Y-43656928D01*
X67996255Y-43672071D01*
X67848418Y-43716916D01*
X67712171Y-43789742D01*
X67592749Y-43887749D01*
X67552092Y-43937290D01*
X66099801Y-42485000D01*
X66226260Y-42485000D01*
X66513158Y-42427932D01*
X66783411Y-42315990D01*
X67026632Y-42153475D01*
X67233475Y-41946632D01*
X67395990Y-41703411D01*
X67507932Y-41433158D01*
X67565000Y-41146260D01*
X67565000Y-40853740D01*
X67507932Y-40566842D01*
X67395990Y-40296589D01*
X67233475Y-40053368D01*
X67026632Y-39846525D01*
X66783411Y-39684010D01*
X66513158Y-39572068D01*
X66226260Y-39515000D01*
X65933740Y-39515000D01*
X65646842Y-39572068D01*
X65376589Y-39684010D01*
X65133368Y-39846525D01*
X64926525Y-40053368D01*
X64810000Y-40227760D01*
X64693475Y-40053368D01*
X64486632Y-39846525D01*
X64243411Y-39684010D01*
X63973158Y-39572068D01*
X63686260Y-39515000D01*
X63483355Y-39515000D01*
X60128355Y-36160000D01*
X99769710Y-36160000D01*
X99671414Y-36307111D01*
G37*
G04 #@! TD.AperFunction*
D32*
X86965000Y-48314250D02*
X87123750Y-48473000D01*
X88723000Y-48473000D01*
X88723000Y-48453000D01*
X88977000Y-48453000D01*
X88977000Y-48473000D01*
X90576250Y-48473000D01*
X90735000Y-48314250D01*
X90737770Y-47534999D01*
X91261928Y-47534999D01*
X91261928Y-49750000D01*
X91274188Y-49874482D01*
X91310498Y-49994180D01*
X91369463Y-50104494D01*
X91448815Y-50201185D01*
X91545506Y-50280537D01*
X91655820Y-50339502D01*
X91775518Y-50375812D01*
X91900000Y-50388072D01*
X93686494Y-50388072D01*
X94635000Y-51336579D01*
X94635000Y-52057713D01*
X94524482Y-52024188D01*
X94400000Y-52011928D01*
X93435750Y-52015000D01*
X93277000Y-52173750D01*
X93277000Y-53673000D01*
X93297000Y-53673000D01*
X93297000Y-53927000D01*
X93277000Y-53927000D01*
X93277000Y-55426250D01*
X93435750Y-55585000D01*
X94400000Y-55588072D01*
X94524482Y-55575812D01*
X94634999Y-55542287D01*
X94634999Y-58805000D01*
X94633589Y-58805000D01*
X94385000Y-58854448D01*
X94385000Y-58493466D01*
X94389281Y-58449999D01*
X94385000Y-58406533D01*
X94385000Y-58406523D01*
X94372195Y-58276510D01*
X94321589Y-58109687D01*
X94239411Y-57955941D01*
X94214044Y-57925031D01*
X94156532Y-57854953D01*
X94156530Y-57854951D01*
X94128817Y-57821183D01*
X94095049Y-57793470D01*
X91888520Y-55586941D01*
X91900000Y-55588072D01*
X92864250Y-55585000D01*
X93023000Y-55426250D01*
X93023000Y-53927000D01*
X93003000Y-53927000D01*
X93003000Y-53673000D01*
X93023000Y-53673000D01*
X93023000Y-52173750D01*
X92864250Y-52015000D01*
X91900000Y-52011928D01*
X91775518Y-52024188D01*
X91655820Y-52060498D01*
X91545506Y-52119463D01*
X91448815Y-52198815D01*
X91369463Y-52295506D01*
X91310498Y-52405820D01*
X91274188Y-52525518D01*
X91261928Y-52650000D01*
X91262095Y-52696857D01*
X91101939Y-52665000D01*
X90898061Y-52665000D01*
X90738072Y-52696824D01*
X90738072Y-52650000D01*
X90725812Y-52525518D01*
X90689502Y-52405820D01*
X90630537Y-52295506D01*
X90551185Y-52198815D01*
X90454494Y-52119463D01*
X90344180Y-52060498D01*
X90224482Y-52024188D01*
X90100000Y-52011928D01*
X87600000Y-52011928D01*
X87475518Y-52024188D01*
X87355820Y-52060498D01*
X87245506Y-52119463D01*
X87148815Y-52198815D01*
X87069463Y-52295506D01*
X87010498Y-52405820D01*
X86974188Y-52525518D01*
X86961928Y-52650000D01*
X86961928Y-54950000D01*
X86974188Y-55074482D01*
X87010498Y-55194180D01*
X87069463Y-55304494D01*
X87148815Y-55401185D01*
X87245506Y-55480537D01*
X87355820Y-55539502D01*
X87475518Y-55575812D01*
X87600000Y-55588072D01*
X89386494Y-55588072D01*
X92615001Y-58816580D01*
X92615000Y-61357379D01*
X92505820Y-61390498D01*
X92395506Y-61449463D01*
X92298815Y-61528815D01*
X92219463Y-61625506D01*
X92160498Y-61735820D01*
X92124188Y-61855518D01*
X92111928Y-61980000D01*
X92111928Y-63480000D01*
X92124188Y-63604482D01*
X92160498Y-63724180D01*
X92171633Y-63745012D01*
X82032310Y-63745012D01*
X81994987Y-63741336D01*
X81957664Y-63745012D01*
X81957655Y-63745012D01*
X81846002Y-63756009D01*
X81727390Y-63791989D01*
X81702741Y-63799466D01*
X81570711Y-63870038D01*
X81499381Y-63928578D01*
X81454987Y-63965011D01*
X81431189Y-63994009D01*
X73010198Y-72415001D01*
X67485704Y-72415001D01*
X67485000Y-72285750D01*
X67326250Y-72127000D01*
X66127000Y-72127000D01*
X66127000Y-72147000D01*
X65873000Y-72147000D01*
X65873000Y-72127000D01*
X65853000Y-72127000D01*
X65853000Y-71873000D01*
X65873000Y-71873000D01*
X65873000Y-70673750D01*
X66127000Y-70673750D01*
X66127000Y-71873000D01*
X67326250Y-71873000D01*
X67485000Y-71714250D01*
X67488072Y-71150000D01*
X67475812Y-71025518D01*
X67439502Y-70905820D01*
X67380537Y-70795506D01*
X67301185Y-70698815D01*
X67204494Y-70619463D01*
X67094180Y-70560498D01*
X66974482Y-70524188D01*
X66850000Y-70511928D01*
X66285750Y-70515000D01*
X66127000Y-70673750D01*
X65873000Y-70673750D01*
X65714250Y-70515000D01*
X65150000Y-70511928D01*
X65025518Y-70524188D01*
X64905820Y-70560498D01*
X64795506Y-70619463D01*
X64698815Y-70698815D01*
X64619463Y-70795506D01*
X64560498Y-70905820D01*
X64538487Y-70978380D01*
X64406632Y-70846525D01*
X64163411Y-70684010D01*
X63893158Y-70572068D01*
X63606260Y-70515000D01*
X63313740Y-70515000D01*
X63241040Y-70529461D01*
X61360332Y-68648753D01*
X61389502Y-68594180D01*
X61425812Y-68474482D01*
X61438072Y-68350000D01*
X61961928Y-68350000D01*
X61974188Y-68474482D01*
X62010498Y-68594180D01*
X62069463Y-68704494D01*
X62148815Y-68801185D01*
X62245506Y-68880537D01*
X62355820Y-68939502D01*
X62475518Y-68975812D01*
X62600000Y-68988072D01*
X63564250Y-68985000D01*
X63723000Y-68826250D01*
X63723000Y-67327000D01*
X63977000Y-67327000D01*
X63977000Y-68826250D01*
X64135750Y-68985000D01*
X65100000Y-68988072D01*
X65224482Y-68975812D01*
X65344180Y-68939502D01*
X65454494Y-68880537D01*
X65551185Y-68801185D01*
X65630537Y-68704494D01*
X65689502Y-68594180D01*
X65725812Y-68474482D01*
X65738072Y-68350000D01*
X65735000Y-67485750D01*
X65576250Y-67327000D01*
X63977000Y-67327000D01*
X63723000Y-67327000D01*
X62123750Y-67327000D01*
X61965000Y-67485750D01*
X61961928Y-68350000D01*
X61438072Y-68350000D01*
X61438072Y-66050000D01*
X61961928Y-66050000D01*
X61965000Y-66914250D01*
X62123750Y-67073000D01*
X63723000Y-67073000D01*
X63723000Y-65573750D01*
X63977000Y-65573750D01*
X63977000Y-67073000D01*
X65576250Y-67073000D01*
X65735000Y-66914250D01*
X65736827Y-66400000D01*
X66211928Y-66400000D01*
X66211928Y-68900000D01*
X66224188Y-69024482D01*
X66260498Y-69144180D01*
X66319463Y-69254494D01*
X66398815Y-69351185D01*
X66495506Y-69430537D01*
X66605820Y-69489502D01*
X66725518Y-69525812D01*
X66850000Y-69538072D01*
X69150000Y-69538072D01*
X69274482Y-69525812D01*
X69394180Y-69489502D01*
X69504494Y-69430537D01*
X69601185Y-69351185D01*
X69655501Y-69285000D01*
X74129681Y-69285000D01*
X74210000Y-69292911D01*
X74290319Y-69285000D01*
X74290322Y-69285000D01*
X74530516Y-69261343D01*
X74838715Y-69167852D01*
X75122752Y-69016031D01*
X75371714Y-68811714D01*
X75422925Y-68749313D01*
X83592240Y-60580000D01*
X85012037Y-60580000D01*
X85257377Y-60555836D01*
X85572173Y-60460344D01*
X85862291Y-60305273D01*
X86116582Y-60096582D01*
X86325273Y-59842291D01*
X86480344Y-59552173D01*
X86575836Y-59237377D01*
X86608080Y-58910000D01*
X86575836Y-58582623D01*
X86480344Y-58267827D01*
X86325273Y-57977709D01*
X86116582Y-57723418D01*
X85862291Y-57514727D01*
X85572173Y-57359656D01*
X85257377Y-57264164D01*
X85012037Y-57240000D01*
X80887963Y-57240000D01*
X80642623Y-57264164D01*
X80327827Y-57359656D01*
X80037709Y-57514727D01*
X79783418Y-57723418D01*
X79574727Y-57977709D01*
X79419656Y-58267827D01*
X79324164Y-58582623D01*
X79291920Y-58910000D01*
X79324164Y-59237377D01*
X79419656Y-59552173D01*
X79574727Y-59842291D01*
X79633660Y-59914101D01*
X73532762Y-66015000D01*
X69655501Y-66015000D01*
X69601185Y-65948815D01*
X69504494Y-65869463D01*
X69394180Y-65810498D01*
X69274482Y-65774188D01*
X69150000Y-65761928D01*
X66850000Y-65761928D01*
X66725518Y-65774188D01*
X66605820Y-65810498D01*
X66495506Y-65869463D01*
X66398815Y-65948815D01*
X66319463Y-66045506D01*
X66260498Y-66155820D01*
X66224188Y-66275518D01*
X66211928Y-66400000D01*
X65736827Y-66400000D01*
X65738072Y-66050000D01*
X65725812Y-65925518D01*
X65689502Y-65805820D01*
X65630537Y-65695506D01*
X65551185Y-65598815D01*
X65454494Y-65519463D01*
X65344180Y-65460498D01*
X65224482Y-65424188D01*
X65100000Y-65411928D01*
X64135750Y-65415000D01*
X63977000Y-65573750D01*
X63723000Y-65573750D01*
X63564250Y-65415000D01*
X62600000Y-65411928D01*
X62475518Y-65424188D01*
X62355820Y-65460498D01*
X62245506Y-65519463D01*
X62148815Y-65598815D01*
X62069463Y-65695506D01*
X62010498Y-65805820D01*
X61974188Y-65925518D01*
X61961928Y-66050000D01*
X61438072Y-66050000D01*
X61425812Y-65925518D01*
X61389502Y-65805820D01*
X61330537Y-65695506D01*
X61251185Y-65598815D01*
X61154494Y-65519463D01*
X61044180Y-65460498D01*
X60924482Y-65424188D01*
X60800000Y-65411928D01*
X60435000Y-65411928D01*
X60435000Y-64776750D01*
X60560500Y-64651250D01*
X60560500Y-63827000D01*
X60814500Y-63827000D01*
X60814500Y-64651250D01*
X60973250Y-64810000D01*
X61125000Y-64813072D01*
X61249482Y-64800812D01*
X61369180Y-64764502D01*
X61479494Y-64705537D01*
X61576185Y-64626185D01*
X61655537Y-64529494D01*
X61714502Y-64419180D01*
X61750812Y-64299482D01*
X61763072Y-64175000D01*
X61760000Y-63985750D01*
X61601250Y-63827000D01*
X60814500Y-63827000D01*
X60560500Y-63827000D01*
X60540500Y-63827000D01*
X60540500Y-63573000D01*
X60560500Y-63573000D01*
X60560500Y-62748750D01*
X60814500Y-62748750D01*
X60814500Y-63573000D01*
X61601250Y-63573000D01*
X61760000Y-63414250D01*
X61763072Y-63225000D01*
X61750812Y-63100518D01*
X61714502Y-62980820D01*
X61655537Y-62870506D01*
X61576185Y-62773815D01*
X61479494Y-62694463D01*
X61369180Y-62635498D01*
X61249482Y-62599188D01*
X61125000Y-62586928D01*
X60973250Y-62590000D01*
X60814500Y-62748750D01*
X60560500Y-62748750D01*
X60401750Y-62590000D01*
X60250000Y-62586928D01*
X60125518Y-62599188D01*
X60005820Y-62635498D01*
X59895506Y-62694463D01*
X59828930Y-62749100D01*
X59807275Y-62731329D01*
X59659142Y-62652150D01*
X59498408Y-62603392D01*
X59331250Y-62586928D01*
X58893750Y-62586928D01*
X58726592Y-62603392D01*
X58565858Y-62652150D01*
X58417725Y-62731329D01*
X58287885Y-62837885D01*
X58257737Y-62874621D01*
X58255537Y-62870506D01*
X58176185Y-62773815D01*
X58079494Y-62694463D01*
X57969180Y-62635498D01*
X57849482Y-62599188D01*
X57725000Y-62586928D01*
X57573250Y-62590000D01*
X57414500Y-62748750D01*
X57414500Y-63573000D01*
X57434500Y-63573000D01*
X57434500Y-63827000D01*
X57414500Y-63827000D01*
X57414500Y-64651250D01*
X57573250Y-64810000D01*
X57725000Y-64813072D01*
X57849482Y-64800812D01*
X57969180Y-64764502D01*
X58079494Y-64705537D01*
X58176185Y-64626185D01*
X58255537Y-64529494D01*
X58257737Y-64525379D01*
X58287885Y-64562115D01*
X58417725Y-64668671D01*
X58565858Y-64747850D01*
X58665001Y-64777925D01*
X58665001Y-65411928D01*
X58300000Y-65411928D01*
X58175518Y-65424188D01*
X58055820Y-65460498D01*
X57945506Y-65519463D01*
X57848815Y-65598815D01*
X57769463Y-65695506D01*
X57710498Y-65805820D01*
X57674188Y-65925518D01*
X57661928Y-66050000D01*
X57661928Y-68350000D01*
X57674188Y-68474482D01*
X57710498Y-68594180D01*
X57769463Y-68704494D01*
X57848815Y-68801185D01*
X57945506Y-68880537D01*
X58055820Y-68939502D01*
X58175518Y-68975812D01*
X58300000Y-68988072D01*
X59196494Y-68988072D01*
X60731770Y-70523348D01*
X60486842Y-70572068D01*
X60216589Y-70684010D01*
X59973368Y-70846525D01*
X59766525Y-71053368D01*
X59604010Y-71296589D01*
X59492068Y-71566842D01*
X59435000Y-71853740D01*
X59435000Y-72146260D01*
X59492068Y-72433158D01*
X59604010Y-72703411D01*
X59711988Y-72865012D01*
X56986593Y-72865012D01*
X56988072Y-72850000D01*
X56985000Y-72285750D01*
X56826250Y-72127000D01*
X55627000Y-72127000D01*
X55627000Y-72147000D01*
X55373000Y-72147000D01*
X55373000Y-72127000D01*
X55353000Y-72127000D01*
X55353000Y-71873000D01*
X55373000Y-71873000D01*
X55373000Y-70673750D01*
X55627000Y-70673750D01*
X55627000Y-71873000D01*
X56826250Y-71873000D01*
X56985000Y-71714250D01*
X56988072Y-71150000D01*
X56975812Y-71025518D01*
X56939502Y-70905820D01*
X56880537Y-70795506D01*
X56801185Y-70698815D01*
X56704494Y-70619463D01*
X56594180Y-70560498D01*
X56474482Y-70524188D01*
X56350000Y-70511928D01*
X55785750Y-70515000D01*
X55627000Y-70673750D01*
X55373000Y-70673750D01*
X55214250Y-70515000D01*
X54650000Y-70511928D01*
X54525518Y-70524188D01*
X54405820Y-70560498D01*
X54295506Y-70619463D01*
X54198815Y-70698815D01*
X54119463Y-70795506D01*
X54060498Y-70905820D01*
X54038487Y-70978380D01*
X53906632Y-70846525D01*
X53845000Y-70805344D01*
X53845000Y-68953465D01*
X53849281Y-68909999D01*
X53845000Y-68866533D01*
X53845000Y-68866523D01*
X53837167Y-68786992D01*
X53848815Y-68801185D01*
X53945506Y-68880537D01*
X54055820Y-68939502D01*
X54175518Y-68975812D01*
X54300000Y-68988072D01*
X55264250Y-68985000D01*
X55423000Y-68826250D01*
X55423000Y-67327000D01*
X55677000Y-67327000D01*
X55677000Y-68826250D01*
X55835750Y-68985000D01*
X56800000Y-68988072D01*
X56924482Y-68975812D01*
X57044180Y-68939502D01*
X57154494Y-68880537D01*
X57251185Y-68801185D01*
X57330537Y-68704494D01*
X57389502Y-68594180D01*
X57425812Y-68474482D01*
X57438072Y-68350000D01*
X57435000Y-67485750D01*
X57276250Y-67327000D01*
X55677000Y-67327000D01*
X55423000Y-67327000D01*
X53823750Y-67327000D01*
X53665000Y-67485750D01*
X53661928Y-68350000D01*
X53664196Y-68373032D01*
X53588817Y-68281183D01*
X53555049Y-68253470D01*
X53138072Y-67836493D01*
X53138072Y-67526006D01*
X53707414Y-66956664D01*
X53823750Y-67073000D01*
X55423000Y-67073000D01*
X55423000Y-65573750D01*
X55677000Y-65573750D01*
X55677000Y-67073000D01*
X57276250Y-67073000D01*
X57435000Y-66914250D01*
X57438072Y-66050000D01*
X57425812Y-65925518D01*
X57389502Y-65805820D01*
X57330537Y-65695506D01*
X57251185Y-65598815D01*
X57154494Y-65519463D01*
X57044180Y-65460498D01*
X56924482Y-65424188D01*
X56800000Y-65411928D01*
X55835750Y-65415000D01*
X55677000Y-65573750D01*
X55423000Y-65573750D01*
X55264250Y-65415000D01*
X55249127Y-65414952D01*
X55851007Y-64813072D01*
X55931250Y-64813072D01*
X56098408Y-64796608D01*
X56259142Y-64747850D01*
X56407275Y-64668671D01*
X56428930Y-64650900D01*
X56495506Y-64705537D01*
X56605820Y-64764502D01*
X56725518Y-64800812D01*
X56850000Y-64813072D01*
X57001750Y-64810000D01*
X57160500Y-64651250D01*
X57160500Y-63827000D01*
X57140500Y-63827000D01*
X57140500Y-63573000D01*
X57160500Y-63573000D01*
X57160500Y-62748750D01*
X57001750Y-62590000D01*
X56850000Y-62586928D01*
X56725518Y-62599188D01*
X56605820Y-62635498D01*
X56495506Y-62694463D01*
X56428930Y-62749100D01*
X56407275Y-62731329D01*
X56259142Y-62652150D01*
X56098408Y-62603392D01*
X55931250Y-62586928D01*
X55493750Y-62586928D01*
X55326592Y-62603392D01*
X55165858Y-62652150D01*
X55017725Y-62731329D01*
X54887885Y-62837885D01*
X54781329Y-62967725D01*
X54702150Y-63115858D01*
X54653392Y-63276592D01*
X54636928Y-63443750D01*
X54636928Y-63523993D01*
X54185576Y-63975345D01*
X54188072Y-63950000D01*
X54188072Y-62517060D01*
X54782632Y-61922500D01*
X55719248Y-61922500D01*
X55775000Y-61927991D01*
X55830752Y-61922500D01*
X56305752Y-61922500D01*
X56472499Y-61906077D01*
X56666200Y-61847318D01*
X56673408Y-61846608D01*
X56834142Y-61797850D01*
X56982275Y-61718671D01*
X57057809Y-61656682D01*
X57073815Y-61676185D01*
X57170506Y-61755537D01*
X57280820Y-61814502D01*
X57400518Y-61850812D01*
X57525000Y-61863072D01*
X57714250Y-61860000D01*
X57873000Y-61701250D01*
X57873000Y-60914500D01*
X58127000Y-60914500D01*
X58127000Y-61701250D01*
X58285750Y-61860000D01*
X58475000Y-61863072D01*
X58599482Y-61850812D01*
X58719180Y-61814502D01*
X58829494Y-61755537D01*
X58926185Y-61676185D01*
X59000000Y-61586241D01*
X59073815Y-61676185D01*
X59170506Y-61755537D01*
X59280820Y-61814502D01*
X59400518Y-61850812D01*
X59525000Y-61863072D01*
X59714250Y-61860000D01*
X59873000Y-61701250D01*
X59873000Y-60902000D01*
X59048750Y-60902000D01*
X58993750Y-60957000D01*
X58951250Y-60914500D01*
X58127000Y-60914500D01*
X57873000Y-60914500D01*
X57853000Y-60914500D01*
X57853000Y-60660500D01*
X57873000Y-60660500D01*
X57873000Y-60640500D01*
X58127000Y-60640500D01*
X58127000Y-60660500D01*
X58951250Y-60660500D01*
X59006250Y-60605500D01*
X59048750Y-60648000D01*
X59873000Y-60648000D01*
X59873000Y-60628000D01*
X60127000Y-60628000D01*
X60127000Y-60648000D01*
X60147000Y-60648000D01*
X60147000Y-60902000D01*
X60127000Y-60902000D01*
X60127000Y-61701250D01*
X60285750Y-61860000D01*
X60475000Y-61863072D01*
X60599482Y-61850812D01*
X60719180Y-61814502D01*
X60774101Y-61785146D01*
X60848815Y-61876185D01*
X60945506Y-61955537D01*
X61055820Y-62014502D01*
X61175518Y-62050812D01*
X61300000Y-62063072D01*
X61714250Y-62060000D01*
X61873000Y-61901250D01*
X61873000Y-61064500D01*
X61853000Y-61064500D01*
X61853000Y-60810500D01*
X61873000Y-60810500D01*
X61873000Y-60790500D01*
X62127000Y-60790500D01*
X62127000Y-60810500D01*
X62147000Y-60810500D01*
X62147000Y-61064500D01*
X62127000Y-61064500D01*
X62127000Y-61901250D01*
X62285750Y-62060000D01*
X62414990Y-62060958D01*
X62414990Y-62287756D01*
X62409499Y-62343507D01*
X62418375Y-62433623D01*
X62431413Y-62566005D01*
X62439999Y-62594309D01*
X62439999Y-62754250D01*
X62434508Y-62810001D01*
X62442197Y-62888072D01*
X62456422Y-63032499D01*
X62521323Y-63246447D01*
X62626715Y-63443624D01*
X62768550Y-63616450D01*
X62811864Y-63651997D01*
X62873003Y-63713136D01*
X62908550Y-63756450D01*
X63081376Y-63898285D01*
X63278552Y-64003677D01*
X63365000Y-64029901D01*
X63365000Y-64105751D01*
X63381423Y-64272498D01*
X63446324Y-64486446D01*
X63551716Y-64683623D01*
X63693551Y-64856449D01*
X63866377Y-64998284D01*
X64063553Y-65103676D01*
X64277501Y-65168577D01*
X64500000Y-65190491D01*
X64722498Y-65168577D01*
X64936446Y-65103676D01*
X65133623Y-64998284D01*
X65306449Y-64856449D01*
X65448284Y-64683623D01*
X65553676Y-64486447D01*
X65618577Y-64272499D01*
X65624143Y-64215991D01*
X66213150Y-63626984D01*
X66256459Y-63591441D01*
X66350377Y-63477002D01*
X66373748Y-63477002D01*
X66215000Y-63635750D01*
X66211928Y-64600000D01*
X66224188Y-64724482D01*
X66260498Y-64844180D01*
X66319463Y-64954494D01*
X66398815Y-65051185D01*
X66495506Y-65130537D01*
X66605820Y-65189502D01*
X66725518Y-65225812D01*
X66850000Y-65238072D01*
X67714250Y-65235000D01*
X67873000Y-65076250D01*
X67873000Y-63477000D01*
X68127000Y-63477000D01*
X68127000Y-65076250D01*
X68285750Y-65235000D01*
X69150000Y-65238072D01*
X69274482Y-65225812D01*
X69394180Y-65189502D01*
X69504494Y-65130537D01*
X69601185Y-65051185D01*
X69680537Y-64954494D01*
X69739502Y-64844180D01*
X69775812Y-64724482D01*
X69788072Y-64600000D01*
X69785000Y-63635750D01*
X69626250Y-63477000D01*
X68127000Y-63477000D01*
X67873000Y-63477000D01*
X67853000Y-63477000D01*
X67853000Y-63223000D01*
X67873000Y-63223000D01*
X67873000Y-61623750D01*
X68127000Y-61623750D01*
X68127000Y-63223000D01*
X69626250Y-63223000D01*
X69785000Y-63064250D01*
X69788072Y-62100000D01*
X69775812Y-61975518D01*
X69739502Y-61855820D01*
X69680537Y-61745506D01*
X69601185Y-61648815D01*
X69504494Y-61569463D01*
X69394180Y-61510498D01*
X69274482Y-61474188D01*
X69150000Y-61461928D01*
X68285750Y-61465000D01*
X68127000Y-61623750D01*
X67873000Y-61623750D01*
X67714250Y-61465000D01*
X66930418Y-61462214D01*
X67106999Y-61285632D01*
X67232275Y-61218671D01*
X67362115Y-61112115D01*
X67452821Y-61001588D01*
X67494463Y-61079494D01*
X67573815Y-61176185D01*
X67670506Y-61255537D01*
X67780820Y-61314502D01*
X67900518Y-61350812D01*
X68025000Y-61363072D01*
X68214250Y-61360000D01*
X68373000Y-61201250D01*
X68373000Y-60414500D01*
X68627000Y-60414500D01*
X68627000Y-61201250D01*
X68785750Y-61360000D01*
X68975000Y-61363072D01*
X69099482Y-61350812D01*
X69219180Y-61314502D01*
X69329494Y-61255537D01*
X69426185Y-61176185D01*
X69505537Y-61079494D01*
X69564502Y-60969180D01*
X69600812Y-60849482D01*
X69613072Y-60725000D01*
X69610000Y-60573250D01*
X69451250Y-60414500D01*
X68627000Y-60414500D01*
X68373000Y-60414500D01*
X68353000Y-60414500D01*
X68353000Y-60160500D01*
X68373000Y-60160500D01*
X68373000Y-60140500D01*
X68627000Y-60140500D01*
X68627000Y-60160500D01*
X69451250Y-60160500D01*
X69610000Y-60001750D01*
X69613072Y-59850000D01*
X69600812Y-59725518D01*
X69564502Y-59605820D01*
X69505537Y-59495506D01*
X69450900Y-59428930D01*
X69468671Y-59407275D01*
X69528189Y-59295925D01*
X71445204Y-59295925D01*
X71478520Y-59431749D01*
X71610888Y-59732206D01*
X71799329Y-60001066D01*
X72036601Y-60227997D01*
X72313586Y-60404278D01*
X72619639Y-60523135D01*
X72943000Y-60580000D01*
X74923000Y-60580000D01*
X74923000Y-59037000D01*
X75177000Y-59037000D01*
X75177000Y-60580000D01*
X77157000Y-60580000D01*
X77480361Y-60523135D01*
X77786414Y-60404278D01*
X78063399Y-60227997D01*
X78300671Y-60001066D01*
X78489112Y-59732206D01*
X78621480Y-59431749D01*
X78654796Y-59295925D01*
X78535904Y-59037000D01*
X75177000Y-59037000D01*
X74923000Y-59037000D01*
X71564096Y-59037000D01*
X71445204Y-59295925D01*
X69528189Y-59295925D01*
X69547850Y-59259142D01*
X69596608Y-59098408D01*
X69609878Y-58963674D01*
X69618577Y-58934999D01*
X69625520Y-58864506D01*
X69635000Y-58768252D01*
X69635000Y-58768251D01*
X69640491Y-58712500D01*
X69635000Y-58656748D01*
X69635000Y-58524075D01*
X71445204Y-58524075D01*
X71564096Y-58783000D01*
X74923000Y-58783000D01*
X74923000Y-57240000D01*
X75177000Y-57240000D01*
X75177000Y-58783000D01*
X78535904Y-58783000D01*
X78654796Y-58524075D01*
X78621480Y-58388251D01*
X78489112Y-58087794D01*
X78300671Y-57818934D01*
X78063399Y-57592003D01*
X77786414Y-57415722D01*
X77480361Y-57296865D01*
X77157000Y-57240000D01*
X75177000Y-57240000D01*
X74923000Y-57240000D01*
X72943000Y-57240000D01*
X72619639Y-57296865D01*
X72313586Y-57415722D01*
X72036601Y-57592003D01*
X71799329Y-57818934D01*
X71610888Y-58087794D01*
X71478520Y-58388251D01*
X71445204Y-58524075D01*
X69635000Y-58524075D01*
X69635000Y-58205752D01*
X69640491Y-58150000D01*
X69618577Y-57927501D01*
X69553676Y-57713553D01*
X69448284Y-57516377D01*
X69362455Y-57411795D01*
X69373000Y-57401250D01*
X69373000Y-56564500D01*
X69627000Y-56564500D01*
X69627000Y-57401250D01*
X69785750Y-57560000D01*
X70200000Y-57563072D01*
X70324482Y-57550812D01*
X70444180Y-57514502D01*
X70554494Y-57455537D01*
X70651185Y-57376185D01*
X70730537Y-57279494D01*
X70789502Y-57169180D01*
X70825812Y-57049482D01*
X70838072Y-56925000D01*
X70835000Y-56723250D01*
X70676250Y-56564500D01*
X69627000Y-56564500D01*
X69373000Y-56564500D01*
X69353000Y-56564500D01*
X69353000Y-56310500D01*
X69373000Y-56310500D01*
X69373000Y-56290500D01*
X69627000Y-56290500D01*
X69627000Y-56310500D01*
X70676250Y-56310500D01*
X70835000Y-56151750D01*
X70838072Y-55950000D01*
X70825812Y-55825518D01*
X70789502Y-55705820D01*
X70730537Y-55595506D01*
X70651185Y-55498815D01*
X70573436Y-55435008D01*
X70579792Y-55429792D01*
X70689458Y-55296164D01*
X70770947Y-55143709D01*
X70821128Y-54978285D01*
X70835525Y-54832106D01*
X71532633Y-54135000D01*
X71841086Y-54135000D01*
X71883418Y-54186582D01*
X72137709Y-54395273D01*
X72427827Y-54550344D01*
X72742623Y-54645836D01*
X72987963Y-54670000D01*
X77112037Y-54670000D01*
X77357377Y-54645836D01*
X77672173Y-54550344D01*
X77962291Y-54395273D01*
X78216582Y-54186582D01*
X78425273Y-53932291D01*
X78580344Y-53642173D01*
X78658075Y-53385925D01*
X79345204Y-53385925D01*
X79378520Y-53521749D01*
X79510888Y-53822206D01*
X79699329Y-54091066D01*
X79936601Y-54317997D01*
X80213586Y-54494278D01*
X80519639Y-54613135D01*
X80843000Y-54670000D01*
X82823000Y-54670000D01*
X82823000Y-53127000D01*
X83077000Y-53127000D01*
X83077000Y-54670000D01*
X85057000Y-54670000D01*
X85380361Y-54613135D01*
X85686414Y-54494278D01*
X85963399Y-54317997D01*
X86200671Y-54091066D01*
X86389112Y-53822206D01*
X86521480Y-53521749D01*
X86554796Y-53385925D01*
X86435904Y-53127000D01*
X83077000Y-53127000D01*
X82823000Y-53127000D01*
X79464096Y-53127000D01*
X79345204Y-53385925D01*
X78658075Y-53385925D01*
X78675836Y-53327377D01*
X78708080Y-53000000D01*
X78675836Y-52672623D01*
X78658076Y-52614075D01*
X79345204Y-52614075D01*
X79464096Y-52873000D01*
X82823000Y-52873000D01*
X82823000Y-51330000D01*
X83077000Y-51330000D01*
X83077000Y-52873000D01*
X86435904Y-52873000D01*
X86554796Y-52614075D01*
X86521480Y-52478251D01*
X86389112Y-52177794D01*
X86200671Y-51908934D01*
X85963399Y-51682003D01*
X85686414Y-51505722D01*
X85380361Y-51386865D01*
X85057000Y-51330000D01*
X83077000Y-51330000D01*
X82823000Y-51330000D01*
X80843000Y-51330000D01*
X80519639Y-51386865D01*
X80213586Y-51505722D01*
X79936601Y-51682003D01*
X79699329Y-51908934D01*
X79510888Y-52177794D01*
X79378520Y-52478251D01*
X79345204Y-52614075D01*
X78658076Y-52614075D01*
X78580344Y-52357827D01*
X78425273Y-52067709D01*
X78216582Y-51813418D01*
X77962291Y-51604727D01*
X77672173Y-51449656D01*
X77357377Y-51354164D01*
X77112037Y-51330000D01*
X72987963Y-51330000D01*
X72742623Y-51354164D01*
X72427827Y-51449656D01*
X72137709Y-51604727D01*
X71883418Y-51813418D01*
X71841086Y-51865000D01*
X71118252Y-51865000D01*
X71062500Y-51859509D01*
X70840001Y-51881423D01*
X70626053Y-51946324D01*
X70428877Y-52051716D01*
X70299356Y-52158011D01*
X70299354Y-52158013D01*
X70256051Y-52193551D01*
X70220513Y-52236854D01*
X69029869Y-53427500D01*
X67733313Y-53427500D01*
X67726185Y-53418815D01*
X67629494Y-53339463D01*
X67519180Y-53280498D01*
X67399482Y-53244188D01*
X67275000Y-53231928D01*
X66625000Y-53231928D01*
X66500518Y-53244188D01*
X66475000Y-53251929D01*
X66449482Y-53244188D01*
X66325000Y-53231928D01*
X65985000Y-53231928D01*
X65985000Y-52100000D01*
X67061928Y-52100000D01*
X67074188Y-52224482D01*
X67110498Y-52344180D01*
X67169463Y-52454494D01*
X67248815Y-52551185D01*
X67345506Y-52630537D01*
X67455820Y-52689502D01*
X67575518Y-52725812D01*
X67700000Y-52738072D01*
X67864250Y-52735000D01*
X68023000Y-52576250D01*
X68023000Y-51627000D01*
X68277000Y-51627000D01*
X68277000Y-52576250D01*
X68435750Y-52735000D01*
X68600000Y-52738072D01*
X68724482Y-52725812D01*
X68844180Y-52689502D01*
X68954494Y-52630537D01*
X69051185Y-52551185D01*
X69130537Y-52454494D01*
X69189502Y-52344180D01*
X69225812Y-52224482D01*
X69238072Y-52100000D01*
X69235000Y-51785750D01*
X69076250Y-51627000D01*
X68277000Y-51627000D01*
X68023000Y-51627000D01*
X67223750Y-51627000D01*
X67065000Y-51785750D01*
X67061928Y-52100000D01*
X65985000Y-52100000D01*
X65985000Y-51555752D01*
X65990491Y-51500000D01*
X65968577Y-51277501D01*
X65938072Y-51176940D01*
X65938072Y-50900000D01*
X67061928Y-50900000D01*
X67065000Y-51214250D01*
X67223750Y-51373000D01*
X68023000Y-51373000D01*
X68023000Y-50423750D01*
X68277000Y-50423750D01*
X68277000Y-51373000D01*
X69076250Y-51373000D01*
X69235000Y-51214250D01*
X69238072Y-50900000D01*
X69225812Y-50775518D01*
X69189502Y-50655820D01*
X69130537Y-50545506D01*
X69051185Y-50448815D01*
X68954494Y-50369463D01*
X68844180Y-50310498D01*
X68724482Y-50274188D01*
X68600000Y-50261928D01*
X68435750Y-50265000D01*
X68277000Y-50423750D01*
X68023000Y-50423750D01*
X67864250Y-50265000D01*
X67700000Y-50261928D01*
X67575518Y-50274188D01*
X67455820Y-50310498D01*
X67345506Y-50369463D01*
X67248815Y-50448815D01*
X67169463Y-50545506D01*
X67110498Y-50655820D01*
X67074188Y-50775518D01*
X67061928Y-50900000D01*
X65938072Y-50900000D01*
X65925812Y-50775518D01*
X65889502Y-50655820D01*
X65830537Y-50545506D01*
X65751185Y-50448815D01*
X65654494Y-50369463D01*
X65544180Y-50310498D01*
X65424482Y-50274188D01*
X65300000Y-50261928D01*
X64400000Y-50261928D01*
X64275518Y-50274188D01*
X64155820Y-50310498D01*
X64053856Y-50365000D01*
X60705752Y-50365000D01*
X60650000Y-50359509D01*
X60594248Y-50365000D01*
X60427501Y-50381423D01*
X60213553Y-50446324D01*
X60016377Y-50551716D01*
X59843551Y-50693551D01*
X59828469Y-50711928D01*
X58177872Y-50711928D01*
X58829790Y-50060010D01*
X60450168Y-50060010D01*
X60487490Y-50063686D01*
X60524812Y-50060010D01*
X60524823Y-50060010D01*
X60636476Y-50049013D01*
X60779737Y-50005556D01*
X60911766Y-49934984D01*
X61027491Y-49840011D01*
X61051293Y-49811008D01*
X61249229Y-49613072D01*
X61506250Y-49613072D01*
X61673408Y-49596608D01*
X61834142Y-49547850D01*
X61982275Y-49468671D01*
X62112115Y-49362115D01*
X62218671Y-49232275D01*
X62254630Y-49165000D01*
X62707024Y-49165000D01*
X62762171Y-49210258D01*
X62898418Y-49283084D01*
X63046255Y-49327929D01*
X63200000Y-49343072D01*
X64850000Y-49343072D01*
X65003745Y-49327929D01*
X65151582Y-49283084D01*
X65287829Y-49210258D01*
X65407251Y-49112251D01*
X65505258Y-48992829D01*
X65540436Y-48927015D01*
X66363480Y-49750059D01*
X66391193Y-49783827D01*
X66424961Y-49811540D01*
X66424963Y-49811542D01*
X66525951Y-49894421D01*
X66679696Y-49976599D01*
X66775154Y-50005556D01*
X66846520Y-50027205D01*
X66976533Y-50040010D01*
X66976541Y-50040010D01*
X67020010Y-50044291D01*
X67063479Y-50040010D01*
X70005065Y-50040010D01*
X70048534Y-50044291D01*
X70092003Y-50040010D01*
X70092011Y-50040010D01*
X70222024Y-50027205D01*
X70388847Y-49976599D01*
X70542593Y-49894421D01*
X70677351Y-49783827D01*
X70705068Y-49750054D01*
X70705122Y-49750000D01*
X86961928Y-49750000D01*
X86974188Y-49874482D01*
X87010498Y-49994180D01*
X87069463Y-50104494D01*
X87148815Y-50201185D01*
X87245506Y-50280537D01*
X87355820Y-50339502D01*
X87475518Y-50375812D01*
X87600000Y-50388072D01*
X88564250Y-50385000D01*
X88723000Y-50226250D01*
X88723000Y-48727000D01*
X88977000Y-48727000D01*
X88977000Y-50226250D01*
X89135750Y-50385000D01*
X90100000Y-50388072D01*
X90224482Y-50375812D01*
X90344180Y-50339502D01*
X90454494Y-50280537D01*
X90551185Y-50201185D01*
X90630537Y-50104494D01*
X90689502Y-49994180D01*
X90725812Y-49874482D01*
X90738072Y-49750000D01*
X90735000Y-48885750D01*
X90576250Y-48727000D01*
X88977000Y-48727000D01*
X88723000Y-48727000D01*
X87123750Y-48727000D01*
X86965000Y-48885750D01*
X86961928Y-49750000D01*
X70705122Y-49750000D01*
X72920124Y-47534999D01*
X86962230Y-47534999D01*
X86965000Y-48314250D01*
G04 #@! TA.AperFunction,Conductor*
D33*
G36*
X86965000Y-48314250D02*
G01*
X87123750Y-48473000D01*
X88723000Y-48473000D01*
X88723000Y-48453000D01*
X88977000Y-48453000D01*
X88977000Y-48473000D01*
X90576250Y-48473000D01*
X90735000Y-48314250D01*
X90737770Y-47534999D01*
X91261928Y-47534999D01*
X91261928Y-49750000D01*
X91274188Y-49874482D01*
X91310498Y-49994180D01*
X91369463Y-50104494D01*
X91448815Y-50201185D01*
X91545506Y-50280537D01*
X91655820Y-50339502D01*
X91775518Y-50375812D01*
X91900000Y-50388072D01*
X93686494Y-50388072D01*
X94635000Y-51336579D01*
X94635000Y-52057713D01*
X94524482Y-52024188D01*
X94400000Y-52011928D01*
X93435750Y-52015000D01*
X93277000Y-52173750D01*
X93277000Y-53673000D01*
X93297000Y-53673000D01*
X93297000Y-53927000D01*
X93277000Y-53927000D01*
X93277000Y-55426250D01*
X93435750Y-55585000D01*
X94400000Y-55588072D01*
X94524482Y-55575812D01*
X94634999Y-55542287D01*
X94634999Y-58805000D01*
X94633589Y-58805000D01*
X94385000Y-58854448D01*
X94385000Y-58493466D01*
X94389281Y-58449999D01*
X94385000Y-58406533D01*
X94385000Y-58406523D01*
X94372195Y-58276510D01*
X94321589Y-58109687D01*
X94239411Y-57955941D01*
X94214044Y-57925031D01*
X94156532Y-57854953D01*
X94156530Y-57854951D01*
X94128817Y-57821183D01*
X94095049Y-57793470D01*
X91888520Y-55586941D01*
X91900000Y-55588072D01*
X92864250Y-55585000D01*
X93023000Y-55426250D01*
X93023000Y-53927000D01*
X93003000Y-53927000D01*
X93003000Y-53673000D01*
X93023000Y-53673000D01*
X93023000Y-52173750D01*
X92864250Y-52015000D01*
X91900000Y-52011928D01*
X91775518Y-52024188D01*
X91655820Y-52060498D01*
X91545506Y-52119463D01*
X91448815Y-52198815D01*
X91369463Y-52295506D01*
X91310498Y-52405820D01*
X91274188Y-52525518D01*
X91261928Y-52650000D01*
X91262095Y-52696857D01*
X91101939Y-52665000D01*
X90898061Y-52665000D01*
X90738072Y-52696824D01*
X90738072Y-52650000D01*
X90725812Y-52525518D01*
X90689502Y-52405820D01*
X90630537Y-52295506D01*
X90551185Y-52198815D01*
X90454494Y-52119463D01*
X90344180Y-52060498D01*
X90224482Y-52024188D01*
X90100000Y-52011928D01*
X87600000Y-52011928D01*
X87475518Y-52024188D01*
X87355820Y-52060498D01*
X87245506Y-52119463D01*
X87148815Y-52198815D01*
X87069463Y-52295506D01*
X87010498Y-52405820D01*
X86974188Y-52525518D01*
X86961928Y-52650000D01*
X86961928Y-54950000D01*
X86974188Y-55074482D01*
X87010498Y-55194180D01*
X87069463Y-55304494D01*
X87148815Y-55401185D01*
X87245506Y-55480537D01*
X87355820Y-55539502D01*
X87475518Y-55575812D01*
X87600000Y-55588072D01*
X89386494Y-55588072D01*
X92615001Y-58816580D01*
X92615000Y-61357379D01*
X92505820Y-61390498D01*
X92395506Y-61449463D01*
X92298815Y-61528815D01*
X92219463Y-61625506D01*
X92160498Y-61735820D01*
X92124188Y-61855518D01*
X92111928Y-61980000D01*
X92111928Y-63480000D01*
X92124188Y-63604482D01*
X92160498Y-63724180D01*
X92171633Y-63745012D01*
X82032310Y-63745012D01*
X81994987Y-63741336D01*
X81957664Y-63745012D01*
X81957655Y-63745012D01*
X81846002Y-63756009D01*
X81727390Y-63791989D01*
X81702741Y-63799466D01*
X81570711Y-63870038D01*
X81499381Y-63928578D01*
X81454987Y-63965011D01*
X81431189Y-63994009D01*
X73010198Y-72415001D01*
X67485704Y-72415001D01*
X67485000Y-72285750D01*
X67326250Y-72127000D01*
X66127000Y-72127000D01*
X66127000Y-72147000D01*
X65873000Y-72147000D01*
X65873000Y-72127000D01*
X65853000Y-72127000D01*
X65853000Y-71873000D01*
X65873000Y-71873000D01*
X65873000Y-70673750D01*
X66127000Y-70673750D01*
X66127000Y-71873000D01*
X67326250Y-71873000D01*
X67485000Y-71714250D01*
X67488072Y-71150000D01*
X67475812Y-71025518D01*
X67439502Y-70905820D01*
X67380537Y-70795506D01*
X67301185Y-70698815D01*
X67204494Y-70619463D01*
X67094180Y-70560498D01*
X66974482Y-70524188D01*
X66850000Y-70511928D01*
X66285750Y-70515000D01*
X66127000Y-70673750D01*
X65873000Y-70673750D01*
X65714250Y-70515000D01*
X65150000Y-70511928D01*
X65025518Y-70524188D01*
X64905820Y-70560498D01*
X64795506Y-70619463D01*
X64698815Y-70698815D01*
X64619463Y-70795506D01*
X64560498Y-70905820D01*
X64538487Y-70978380D01*
X64406632Y-70846525D01*
X64163411Y-70684010D01*
X63893158Y-70572068D01*
X63606260Y-70515000D01*
X63313740Y-70515000D01*
X63241040Y-70529461D01*
X61360332Y-68648753D01*
X61389502Y-68594180D01*
X61425812Y-68474482D01*
X61438072Y-68350000D01*
X61961928Y-68350000D01*
X61974188Y-68474482D01*
X62010498Y-68594180D01*
X62069463Y-68704494D01*
X62148815Y-68801185D01*
X62245506Y-68880537D01*
X62355820Y-68939502D01*
X62475518Y-68975812D01*
X62600000Y-68988072D01*
X63564250Y-68985000D01*
X63723000Y-68826250D01*
X63723000Y-67327000D01*
X63977000Y-67327000D01*
X63977000Y-68826250D01*
X64135750Y-68985000D01*
X65100000Y-68988072D01*
X65224482Y-68975812D01*
X65344180Y-68939502D01*
X65454494Y-68880537D01*
X65551185Y-68801185D01*
X65630537Y-68704494D01*
X65689502Y-68594180D01*
X65725812Y-68474482D01*
X65738072Y-68350000D01*
X65735000Y-67485750D01*
X65576250Y-67327000D01*
X63977000Y-67327000D01*
X63723000Y-67327000D01*
X62123750Y-67327000D01*
X61965000Y-67485750D01*
X61961928Y-68350000D01*
X61438072Y-68350000D01*
X61438072Y-66050000D01*
X61961928Y-66050000D01*
X61965000Y-66914250D01*
X62123750Y-67073000D01*
X63723000Y-67073000D01*
X63723000Y-65573750D01*
X63977000Y-65573750D01*
X63977000Y-67073000D01*
X65576250Y-67073000D01*
X65735000Y-66914250D01*
X65736827Y-66400000D01*
X66211928Y-66400000D01*
X66211928Y-68900000D01*
X66224188Y-69024482D01*
X66260498Y-69144180D01*
X66319463Y-69254494D01*
X66398815Y-69351185D01*
X66495506Y-69430537D01*
X66605820Y-69489502D01*
X66725518Y-69525812D01*
X66850000Y-69538072D01*
X69150000Y-69538072D01*
X69274482Y-69525812D01*
X69394180Y-69489502D01*
X69504494Y-69430537D01*
X69601185Y-69351185D01*
X69655501Y-69285000D01*
X74129681Y-69285000D01*
X74210000Y-69292911D01*
X74290319Y-69285000D01*
X74290322Y-69285000D01*
X74530516Y-69261343D01*
X74838715Y-69167852D01*
X75122752Y-69016031D01*
X75371714Y-68811714D01*
X75422925Y-68749313D01*
X83592240Y-60580000D01*
X85012037Y-60580000D01*
X85257377Y-60555836D01*
X85572173Y-60460344D01*
X85862291Y-60305273D01*
X86116582Y-60096582D01*
X86325273Y-59842291D01*
X86480344Y-59552173D01*
X86575836Y-59237377D01*
X86608080Y-58910000D01*
X86575836Y-58582623D01*
X86480344Y-58267827D01*
X86325273Y-57977709D01*
X86116582Y-57723418D01*
X85862291Y-57514727D01*
X85572173Y-57359656D01*
X85257377Y-57264164D01*
X85012037Y-57240000D01*
X80887963Y-57240000D01*
X80642623Y-57264164D01*
X80327827Y-57359656D01*
X80037709Y-57514727D01*
X79783418Y-57723418D01*
X79574727Y-57977709D01*
X79419656Y-58267827D01*
X79324164Y-58582623D01*
X79291920Y-58910000D01*
X79324164Y-59237377D01*
X79419656Y-59552173D01*
X79574727Y-59842291D01*
X79633660Y-59914101D01*
X73532762Y-66015000D01*
X69655501Y-66015000D01*
X69601185Y-65948815D01*
X69504494Y-65869463D01*
X69394180Y-65810498D01*
X69274482Y-65774188D01*
X69150000Y-65761928D01*
X66850000Y-65761928D01*
X66725518Y-65774188D01*
X66605820Y-65810498D01*
X66495506Y-65869463D01*
X66398815Y-65948815D01*
X66319463Y-66045506D01*
X66260498Y-66155820D01*
X66224188Y-66275518D01*
X66211928Y-66400000D01*
X65736827Y-66400000D01*
X65738072Y-66050000D01*
X65725812Y-65925518D01*
X65689502Y-65805820D01*
X65630537Y-65695506D01*
X65551185Y-65598815D01*
X65454494Y-65519463D01*
X65344180Y-65460498D01*
X65224482Y-65424188D01*
X65100000Y-65411928D01*
X64135750Y-65415000D01*
X63977000Y-65573750D01*
X63723000Y-65573750D01*
X63564250Y-65415000D01*
X62600000Y-65411928D01*
X62475518Y-65424188D01*
X62355820Y-65460498D01*
X62245506Y-65519463D01*
X62148815Y-65598815D01*
X62069463Y-65695506D01*
X62010498Y-65805820D01*
X61974188Y-65925518D01*
X61961928Y-66050000D01*
X61438072Y-66050000D01*
X61425812Y-65925518D01*
X61389502Y-65805820D01*
X61330537Y-65695506D01*
X61251185Y-65598815D01*
X61154494Y-65519463D01*
X61044180Y-65460498D01*
X60924482Y-65424188D01*
X60800000Y-65411928D01*
X60435000Y-65411928D01*
X60435000Y-64776750D01*
X60560500Y-64651250D01*
X60560500Y-63827000D01*
X60814500Y-63827000D01*
X60814500Y-64651250D01*
X60973250Y-64810000D01*
X61125000Y-64813072D01*
X61249482Y-64800812D01*
X61369180Y-64764502D01*
X61479494Y-64705537D01*
X61576185Y-64626185D01*
X61655537Y-64529494D01*
X61714502Y-64419180D01*
X61750812Y-64299482D01*
X61763072Y-64175000D01*
X61760000Y-63985750D01*
X61601250Y-63827000D01*
X60814500Y-63827000D01*
X60560500Y-63827000D01*
X60540500Y-63827000D01*
X60540500Y-63573000D01*
X60560500Y-63573000D01*
X60560500Y-62748750D01*
X60814500Y-62748750D01*
X60814500Y-63573000D01*
X61601250Y-63573000D01*
X61760000Y-63414250D01*
X61763072Y-63225000D01*
X61750812Y-63100518D01*
X61714502Y-62980820D01*
X61655537Y-62870506D01*
X61576185Y-62773815D01*
X61479494Y-62694463D01*
X61369180Y-62635498D01*
X61249482Y-62599188D01*
X61125000Y-62586928D01*
X60973250Y-62590000D01*
X60814500Y-62748750D01*
X60560500Y-62748750D01*
X60401750Y-62590000D01*
X60250000Y-62586928D01*
X60125518Y-62599188D01*
X60005820Y-62635498D01*
X59895506Y-62694463D01*
X59828930Y-62749100D01*
X59807275Y-62731329D01*
X59659142Y-62652150D01*
X59498408Y-62603392D01*
X59331250Y-62586928D01*
X58893750Y-62586928D01*
X58726592Y-62603392D01*
X58565858Y-62652150D01*
X58417725Y-62731329D01*
X58287885Y-62837885D01*
X58257737Y-62874621D01*
X58255537Y-62870506D01*
X58176185Y-62773815D01*
X58079494Y-62694463D01*
X57969180Y-62635498D01*
X57849482Y-62599188D01*
X57725000Y-62586928D01*
X57573250Y-62590000D01*
X57414500Y-62748750D01*
X57414500Y-63573000D01*
X57434500Y-63573000D01*
X57434500Y-63827000D01*
X57414500Y-63827000D01*
X57414500Y-64651250D01*
X57573250Y-64810000D01*
X57725000Y-64813072D01*
X57849482Y-64800812D01*
X57969180Y-64764502D01*
X58079494Y-64705537D01*
X58176185Y-64626185D01*
X58255537Y-64529494D01*
X58257737Y-64525379D01*
X58287885Y-64562115D01*
X58417725Y-64668671D01*
X58565858Y-64747850D01*
X58665001Y-64777925D01*
X58665001Y-65411928D01*
X58300000Y-65411928D01*
X58175518Y-65424188D01*
X58055820Y-65460498D01*
X57945506Y-65519463D01*
X57848815Y-65598815D01*
X57769463Y-65695506D01*
X57710498Y-65805820D01*
X57674188Y-65925518D01*
X57661928Y-66050000D01*
X57661928Y-68350000D01*
X57674188Y-68474482D01*
X57710498Y-68594180D01*
X57769463Y-68704494D01*
X57848815Y-68801185D01*
X57945506Y-68880537D01*
X58055820Y-68939502D01*
X58175518Y-68975812D01*
X58300000Y-68988072D01*
X59196494Y-68988072D01*
X60731770Y-70523348D01*
X60486842Y-70572068D01*
X60216589Y-70684010D01*
X59973368Y-70846525D01*
X59766525Y-71053368D01*
X59604010Y-71296589D01*
X59492068Y-71566842D01*
X59435000Y-71853740D01*
X59435000Y-72146260D01*
X59492068Y-72433158D01*
X59604010Y-72703411D01*
X59711988Y-72865012D01*
X56986593Y-72865012D01*
X56988072Y-72850000D01*
X56985000Y-72285750D01*
X56826250Y-72127000D01*
X55627000Y-72127000D01*
X55627000Y-72147000D01*
X55373000Y-72147000D01*
X55373000Y-72127000D01*
X55353000Y-72127000D01*
X55353000Y-71873000D01*
X55373000Y-71873000D01*
X55373000Y-70673750D01*
X55627000Y-70673750D01*
X55627000Y-71873000D01*
X56826250Y-71873000D01*
X56985000Y-71714250D01*
X56988072Y-71150000D01*
X56975812Y-71025518D01*
X56939502Y-70905820D01*
X56880537Y-70795506D01*
X56801185Y-70698815D01*
X56704494Y-70619463D01*
X56594180Y-70560498D01*
X56474482Y-70524188D01*
X56350000Y-70511928D01*
X55785750Y-70515000D01*
X55627000Y-70673750D01*
X55373000Y-70673750D01*
X55214250Y-70515000D01*
X54650000Y-70511928D01*
X54525518Y-70524188D01*
X54405820Y-70560498D01*
X54295506Y-70619463D01*
X54198815Y-70698815D01*
X54119463Y-70795506D01*
X54060498Y-70905820D01*
X54038487Y-70978380D01*
X53906632Y-70846525D01*
X53845000Y-70805344D01*
X53845000Y-68953465D01*
X53849281Y-68909999D01*
X53845000Y-68866533D01*
X53845000Y-68866523D01*
X53837167Y-68786992D01*
X53848815Y-68801185D01*
X53945506Y-68880537D01*
X54055820Y-68939502D01*
X54175518Y-68975812D01*
X54300000Y-68988072D01*
X55264250Y-68985000D01*
X55423000Y-68826250D01*
X55423000Y-67327000D01*
X55677000Y-67327000D01*
X55677000Y-68826250D01*
X55835750Y-68985000D01*
X56800000Y-68988072D01*
X56924482Y-68975812D01*
X57044180Y-68939502D01*
X57154494Y-68880537D01*
X57251185Y-68801185D01*
X57330537Y-68704494D01*
X57389502Y-68594180D01*
X57425812Y-68474482D01*
X57438072Y-68350000D01*
X57435000Y-67485750D01*
X57276250Y-67327000D01*
X55677000Y-67327000D01*
X55423000Y-67327000D01*
X53823750Y-67327000D01*
X53665000Y-67485750D01*
X53661928Y-68350000D01*
X53664196Y-68373032D01*
X53588817Y-68281183D01*
X53555049Y-68253470D01*
X53138072Y-67836493D01*
X53138072Y-67526006D01*
X53707414Y-66956664D01*
X53823750Y-67073000D01*
X55423000Y-67073000D01*
X55423000Y-65573750D01*
X55677000Y-65573750D01*
X55677000Y-67073000D01*
X57276250Y-67073000D01*
X57435000Y-66914250D01*
X57438072Y-66050000D01*
X57425812Y-65925518D01*
X57389502Y-65805820D01*
X57330537Y-65695506D01*
X57251185Y-65598815D01*
X57154494Y-65519463D01*
X57044180Y-65460498D01*
X56924482Y-65424188D01*
X56800000Y-65411928D01*
X55835750Y-65415000D01*
X55677000Y-65573750D01*
X55423000Y-65573750D01*
X55264250Y-65415000D01*
X55249127Y-65414952D01*
X55851007Y-64813072D01*
X55931250Y-64813072D01*
X56098408Y-64796608D01*
X56259142Y-64747850D01*
X56407275Y-64668671D01*
X56428930Y-64650900D01*
X56495506Y-64705537D01*
X56605820Y-64764502D01*
X56725518Y-64800812D01*
X56850000Y-64813072D01*
X57001750Y-64810000D01*
X57160500Y-64651250D01*
X57160500Y-63827000D01*
X57140500Y-63827000D01*
X57140500Y-63573000D01*
X57160500Y-63573000D01*
X57160500Y-62748750D01*
X57001750Y-62590000D01*
X56850000Y-62586928D01*
X56725518Y-62599188D01*
X56605820Y-62635498D01*
X56495506Y-62694463D01*
X56428930Y-62749100D01*
X56407275Y-62731329D01*
X56259142Y-62652150D01*
X56098408Y-62603392D01*
X55931250Y-62586928D01*
X55493750Y-62586928D01*
X55326592Y-62603392D01*
X55165858Y-62652150D01*
X55017725Y-62731329D01*
X54887885Y-62837885D01*
X54781329Y-62967725D01*
X54702150Y-63115858D01*
X54653392Y-63276592D01*
X54636928Y-63443750D01*
X54636928Y-63523993D01*
X54185576Y-63975345D01*
X54188072Y-63950000D01*
X54188072Y-62517060D01*
X54782632Y-61922500D01*
X55719248Y-61922500D01*
X55775000Y-61927991D01*
X55830752Y-61922500D01*
X56305752Y-61922500D01*
X56472499Y-61906077D01*
X56666200Y-61847318D01*
X56673408Y-61846608D01*
X56834142Y-61797850D01*
X56982275Y-61718671D01*
X57057809Y-61656682D01*
X57073815Y-61676185D01*
X57170506Y-61755537D01*
X57280820Y-61814502D01*
X57400518Y-61850812D01*
X57525000Y-61863072D01*
X57714250Y-61860000D01*
X57873000Y-61701250D01*
X57873000Y-60914500D01*
X58127000Y-60914500D01*
X58127000Y-61701250D01*
X58285750Y-61860000D01*
X58475000Y-61863072D01*
X58599482Y-61850812D01*
X58719180Y-61814502D01*
X58829494Y-61755537D01*
X58926185Y-61676185D01*
X59000000Y-61586241D01*
X59073815Y-61676185D01*
X59170506Y-61755537D01*
X59280820Y-61814502D01*
X59400518Y-61850812D01*
X59525000Y-61863072D01*
X59714250Y-61860000D01*
X59873000Y-61701250D01*
X59873000Y-60902000D01*
X59048750Y-60902000D01*
X58993750Y-60957000D01*
X58951250Y-60914500D01*
X58127000Y-60914500D01*
X57873000Y-60914500D01*
X57853000Y-60914500D01*
X57853000Y-60660500D01*
X57873000Y-60660500D01*
X57873000Y-60640500D01*
X58127000Y-60640500D01*
X58127000Y-60660500D01*
X58951250Y-60660500D01*
X59006250Y-60605500D01*
X59048750Y-60648000D01*
X59873000Y-60648000D01*
X59873000Y-60628000D01*
X60127000Y-60628000D01*
X60127000Y-60648000D01*
X60147000Y-60648000D01*
X60147000Y-60902000D01*
X60127000Y-60902000D01*
X60127000Y-61701250D01*
X60285750Y-61860000D01*
X60475000Y-61863072D01*
X60599482Y-61850812D01*
X60719180Y-61814502D01*
X60774101Y-61785146D01*
X60848815Y-61876185D01*
X60945506Y-61955537D01*
X61055820Y-62014502D01*
X61175518Y-62050812D01*
X61300000Y-62063072D01*
X61714250Y-62060000D01*
X61873000Y-61901250D01*
X61873000Y-61064500D01*
X61853000Y-61064500D01*
X61853000Y-60810500D01*
X61873000Y-60810500D01*
X61873000Y-60790500D01*
X62127000Y-60790500D01*
X62127000Y-60810500D01*
X62147000Y-60810500D01*
X62147000Y-61064500D01*
X62127000Y-61064500D01*
X62127000Y-61901250D01*
X62285750Y-62060000D01*
X62414990Y-62060958D01*
X62414990Y-62287756D01*
X62409499Y-62343507D01*
X62418375Y-62433623D01*
X62431413Y-62566005D01*
X62439999Y-62594309D01*
X62439999Y-62754250D01*
X62434508Y-62810001D01*
X62442197Y-62888072D01*
X62456422Y-63032499D01*
X62521323Y-63246447D01*
X62626715Y-63443624D01*
X62768550Y-63616450D01*
X62811864Y-63651997D01*
X62873003Y-63713136D01*
X62908550Y-63756450D01*
X63081376Y-63898285D01*
X63278552Y-64003677D01*
X63365000Y-64029901D01*
X63365000Y-64105751D01*
X63381423Y-64272498D01*
X63446324Y-64486446D01*
X63551716Y-64683623D01*
X63693551Y-64856449D01*
X63866377Y-64998284D01*
X64063553Y-65103676D01*
X64277501Y-65168577D01*
X64500000Y-65190491D01*
X64722498Y-65168577D01*
X64936446Y-65103676D01*
X65133623Y-64998284D01*
X65306449Y-64856449D01*
X65448284Y-64683623D01*
X65553676Y-64486447D01*
X65618577Y-64272499D01*
X65624143Y-64215991D01*
X66213150Y-63626984D01*
X66256459Y-63591441D01*
X66350377Y-63477002D01*
X66373748Y-63477002D01*
X66215000Y-63635750D01*
X66211928Y-64600000D01*
X66224188Y-64724482D01*
X66260498Y-64844180D01*
X66319463Y-64954494D01*
X66398815Y-65051185D01*
X66495506Y-65130537D01*
X66605820Y-65189502D01*
X66725518Y-65225812D01*
X66850000Y-65238072D01*
X67714250Y-65235000D01*
X67873000Y-65076250D01*
X67873000Y-63477000D01*
X68127000Y-63477000D01*
X68127000Y-65076250D01*
X68285750Y-65235000D01*
X69150000Y-65238072D01*
X69274482Y-65225812D01*
X69394180Y-65189502D01*
X69504494Y-65130537D01*
X69601185Y-65051185D01*
X69680537Y-64954494D01*
X69739502Y-64844180D01*
X69775812Y-64724482D01*
X69788072Y-64600000D01*
X69785000Y-63635750D01*
X69626250Y-63477000D01*
X68127000Y-63477000D01*
X67873000Y-63477000D01*
X67853000Y-63477000D01*
X67853000Y-63223000D01*
X67873000Y-63223000D01*
X67873000Y-61623750D01*
X68127000Y-61623750D01*
X68127000Y-63223000D01*
X69626250Y-63223000D01*
X69785000Y-63064250D01*
X69788072Y-62100000D01*
X69775812Y-61975518D01*
X69739502Y-61855820D01*
X69680537Y-61745506D01*
X69601185Y-61648815D01*
X69504494Y-61569463D01*
X69394180Y-61510498D01*
X69274482Y-61474188D01*
X69150000Y-61461928D01*
X68285750Y-61465000D01*
X68127000Y-61623750D01*
X67873000Y-61623750D01*
X67714250Y-61465000D01*
X66930418Y-61462214D01*
X67106999Y-61285632D01*
X67232275Y-61218671D01*
X67362115Y-61112115D01*
X67452821Y-61001588D01*
X67494463Y-61079494D01*
X67573815Y-61176185D01*
X67670506Y-61255537D01*
X67780820Y-61314502D01*
X67900518Y-61350812D01*
X68025000Y-61363072D01*
X68214250Y-61360000D01*
X68373000Y-61201250D01*
X68373000Y-60414500D01*
X68627000Y-60414500D01*
X68627000Y-61201250D01*
X68785750Y-61360000D01*
X68975000Y-61363072D01*
X69099482Y-61350812D01*
X69219180Y-61314502D01*
X69329494Y-61255537D01*
X69426185Y-61176185D01*
X69505537Y-61079494D01*
X69564502Y-60969180D01*
X69600812Y-60849482D01*
X69613072Y-60725000D01*
X69610000Y-60573250D01*
X69451250Y-60414500D01*
X68627000Y-60414500D01*
X68373000Y-60414500D01*
X68353000Y-60414500D01*
X68353000Y-60160500D01*
X68373000Y-60160500D01*
X68373000Y-60140500D01*
X68627000Y-60140500D01*
X68627000Y-60160500D01*
X69451250Y-60160500D01*
X69610000Y-60001750D01*
X69613072Y-59850000D01*
X69600812Y-59725518D01*
X69564502Y-59605820D01*
X69505537Y-59495506D01*
X69450900Y-59428930D01*
X69468671Y-59407275D01*
X69528189Y-59295925D01*
X71445204Y-59295925D01*
X71478520Y-59431749D01*
X71610888Y-59732206D01*
X71799329Y-60001066D01*
X72036601Y-60227997D01*
X72313586Y-60404278D01*
X72619639Y-60523135D01*
X72943000Y-60580000D01*
X74923000Y-60580000D01*
X74923000Y-59037000D01*
X75177000Y-59037000D01*
X75177000Y-60580000D01*
X77157000Y-60580000D01*
X77480361Y-60523135D01*
X77786414Y-60404278D01*
X78063399Y-60227997D01*
X78300671Y-60001066D01*
X78489112Y-59732206D01*
X78621480Y-59431749D01*
X78654796Y-59295925D01*
X78535904Y-59037000D01*
X75177000Y-59037000D01*
X74923000Y-59037000D01*
X71564096Y-59037000D01*
X71445204Y-59295925D01*
X69528189Y-59295925D01*
X69547850Y-59259142D01*
X69596608Y-59098408D01*
X69609878Y-58963674D01*
X69618577Y-58934999D01*
X69625520Y-58864506D01*
X69635000Y-58768252D01*
X69635000Y-58768251D01*
X69640491Y-58712500D01*
X69635000Y-58656748D01*
X69635000Y-58524075D01*
X71445204Y-58524075D01*
X71564096Y-58783000D01*
X74923000Y-58783000D01*
X74923000Y-57240000D01*
X75177000Y-57240000D01*
X75177000Y-58783000D01*
X78535904Y-58783000D01*
X78654796Y-58524075D01*
X78621480Y-58388251D01*
X78489112Y-58087794D01*
X78300671Y-57818934D01*
X78063399Y-57592003D01*
X77786414Y-57415722D01*
X77480361Y-57296865D01*
X77157000Y-57240000D01*
X75177000Y-57240000D01*
X74923000Y-57240000D01*
X72943000Y-57240000D01*
X72619639Y-57296865D01*
X72313586Y-57415722D01*
X72036601Y-57592003D01*
X71799329Y-57818934D01*
X71610888Y-58087794D01*
X71478520Y-58388251D01*
X71445204Y-58524075D01*
X69635000Y-58524075D01*
X69635000Y-58205752D01*
X69640491Y-58150000D01*
X69618577Y-57927501D01*
X69553676Y-57713553D01*
X69448284Y-57516377D01*
X69362455Y-57411795D01*
X69373000Y-57401250D01*
X69373000Y-56564500D01*
X69627000Y-56564500D01*
X69627000Y-57401250D01*
X69785750Y-57560000D01*
X70200000Y-57563072D01*
X70324482Y-57550812D01*
X70444180Y-57514502D01*
X70554494Y-57455537D01*
X70651185Y-57376185D01*
X70730537Y-57279494D01*
X70789502Y-57169180D01*
X70825812Y-57049482D01*
X70838072Y-56925000D01*
X70835000Y-56723250D01*
X70676250Y-56564500D01*
X69627000Y-56564500D01*
X69373000Y-56564500D01*
X69353000Y-56564500D01*
X69353000Y-56310500D01*
X69373000Y-56310500D01*
X69373000Y-56290500D01*
X69627000Y-56290500D01*
X69627000Y-56310500D01*
X70676250Y-56310500D01*
X70835000Y-56151750D01*
X70838072Y-55950000D01*
X70825812Y-55825518D01*
X70789502Y-55705820D01*
X70730537Y-55595506D01*
X70651185Y-55498815D01*
X70573436Y-55435008D01*
X70579792Y-55429792D01*
X70689458Y-55296164D01*
X70770947Y-55143709D01*
X70821128Y-54978285D01*
X70835525Y-54832106D01*
X71532633Y-54135000D01*
X71841086Y-54135000D01*
X71883418Y-54186582D01*
X72137709Y-54395273D01*
X72427827Y-54550344D01*
X72742623Y-54645836D01*
X72987963Y-54670000D01*
X77112037Y-54670000D01*
X77357377Y-54645836D01*
X77672173Y-54550344D01*
X77962291Y-54395273D01*
X78216582Y-54186582D01*
X78425273Y-53932291D01*
X78580344Y-53642173D01*
X78658075Y-53385925D01*
X79345204Y-53385925D01*
X79378520Y-53521749D01*
X79510888Y-53822206D01*
X79699329Y-54091066D01*
X79936601Y-54317997D01*
X80213586Y-54494278D01*
X80519639Y-54613135D01*
X80843000Y-54670000D01*
X82823000Y-54670000D01*
X82823000Y-53127000D01*
X83077000Y-53127000D01*
X83077000Y-54670000D01*
X85057000Y-54670000D01*
X85380361Y-54613135D01*
X85686414Y-54494278D01*
X85963399Y-54317997D01*
X86200671Y-54091066D01*
X86389112Y-53822206D01*
X86521480Y-53521749D01*
X86554796Y-53385925D01*
X86435904Y-53127000D01*
X83077000Y-53127000D01*
X82823000Y-53127000D01*
X79464096Y-53127000D01*
X79345204Y-53385925D01*
X78658075Y-53385925D01*
X78675836Y-53327377D01*
X78708080Y-53000000D01*
X78675836Y-52672623D01*
X78658076Y-52614075D01*
X79345204Y-52614075D01*
X79464096Y-52873000D01*
X82823000Y-52873000D01*
X82823000Y-51330000D01*
X83077000Y-51330000D01*
X83077000Y-52873000D01*
X86435904Y-52873000D01*
X86554796Y-52614075D01*
X86521480Y-52478251D01*
X86389112Y-52177794D01*
X86200671Y-51908934D01*
X85963399Y-51682003D01*
X85686414Y-51505722D01*
X85380361Y-51386865D01*
X85057000Y-51330000D01*
X83077000Y-51330000D01*
X82823000Y-51330000D01*
X80843000Y-51330000D01*
X80519639Y-51386865D01*
X80213586Y-51505722D01*
X79936601Y-51682003D01*
X79699329Y-51908934D01*
X79510888Y-52177794D01*
X79378520Y-52478251D01*
X79345204Y-52614075D01*
X78658076Y-52614075D01*
X78580344Y-52357827D01*
X78425273Y-52067709D01*
X78216582Y-51813418D01*
X77962291Y-51604727D01*
X77672173Y-51449656D01*
X77357377Y-51354164D01*
X77112037Y-51330000D01*
X72987963Y-51330000D01*
X72742623Y-51354164D01*
X72427827Y-51449656D01*
X72137709Y-51604727D01*
X71883418Y-51813418D01*
X71841086Y-51865000D01*
X71118252Y-51865000D01*
X71062500Y-51859509D01*
X70840001Y-51881423D01*
X70626053Y-51946324D01*
X70428877Y-52051716D01*
X70299356Y-52158011D01*
X70299354Y-52158013D01*
X70256051Y-52193551D01*
X70220513Y-52236854D01*
X69029869Y-53427500D01*
X67733313Y-53427500D01*
X67726185Y-53418815D01*
X67629494Y-53339463D01*
X67519180Y-53280498D01*
X67399482Y-53244188D01*
X67275000Y-53231928D01*
X66625000Y-53231928D01*
X66500518Y-53244188D01*
X66475000Y-53251929D01*
X66449482Y-53244188D01*
X66325000Y-53231928D01*
X65985000Y-53231928D01*
X65985000Y-52100000D01*
X67061928Y-52100000D01*
X67074188Y-52224482D01*
X67110498Y-52344180D01*
X67169463Y-52454494D01*
X67248815Y-52551185D01*
X67345506Y-52630537D01*
X67455820Y-52689502D01*
X67575518Y-52725812D01*
X67700000Y-52738072D01*
X67864250Y-52735000D01*
X68023000Y-52576250D01*
X68023000Y-51627000D01*
X68277000Y-51627000D01*
X68277000Y-52576250D01*
X68435750Y-52735000D01*
X68600000Y-52738072D01*
X68724482Y-52725812D01*
X68844180Y-52689502D01*
X68954494Y-52630537D01*
X69051185Y-52551185D01*
X69130537Y-52454494D01*
X69189502Y-52344180D01*
X69225812Y-52224482D01*
X69238072Y-52100000D01*
X69235000Y-51785750D01*
X69076250Y-51627000D01*
X68277000Y-51627000D01*
X68023000Y-51627000D01*
X67223750Y-51627000D01*
X67065000Y-51785750D01*
X67061928Y-52100000D01*
X65985000Y-52100000D01*
X65985000Y-51555752D01*
X65990491Y-51500000D01*
X65968577Y-51277501D01*
X65938072Y-51176940D01*
X65938072Y-50900000D01*
X67061928Y-50900000D01*
X67065000Y-51214250D01*
X67223750Y-51373000D01*
X68023000Y-51373000D01*
X68023000Y-50423750D01*
X68277000Y-50423750D01*
X68277000Y-51373000D01*
X69076250Y-51373000D01*
X69235000Y-51214250D01*
X69238072Y-50900000D01*
X69225812Y-50775518D01*
X69189502Y-50655820D01*
X69130537Y-50545506D01*
X69051185Y-50448815D01*
X68954494Y-50369463D01*
X68844180Y-50310498D01*
X68724482Y-50274188D01*
X68600000Y-50261928D01*
X68435750Y-50265000D01*
X68277000Y-50423750D01*
X68023000Y-50423750D01*
X67864250Y-50265000D01*
X67700000Y-50261928D01*
X67575518Y-50274188D01*
X67455820Y-50310498D01*
X67345506Y-50369463D01*
X67248815Y-50448815D01*
X67169463Y-50545506D01*
X67110498Y-50655820D01*
X67074188Y-50775518D01*
X67061928Y-50900000D01*
X65938072Y-50900000D01*
X65925812Y-50775518D01*
X65889502Y-50655820D01*
X65830537Y-50545506D01*
X65751185Y-50448815D01*
X65654494Y-50369463D01*
X65544180Y-50310498D01*
X65424482Y-50274188D01*
X65300000Y-50261928D01*
X64400000Y-50261928D01*
X64275518Y-50274188D01*
X64155820Y-50310498D01*
X64053856Y-50365000D01*
X60705752Y-50365000D01*
X60650000Y-50359509D01*
X60594248Y-50365000D01*
X60427501Y-50381423D01*
X60213553Y-50446324D01*
X60016377Y-50551716D01*
X59843551Y-50693551D01*
X59828469Y-50711928D01*
X58177872Y-50711928D01*
X58829790Y-50060010D01*
X60450168Y-50060010D01*
X60487490Y-50063686D01*
X60524812Y-50060010D01*
X60524823Y-50060010D01*
X60636476Y-50049013D01*
X60779737Y-50005556D01*
X60911766Y-49934984D01*
X61027491Y-49840011D01*
X61051293Y-49811008D01*
X61249229Y-49613072D01*
X61506250Y-49613072D01*
X61673408Y-49596608D01*
X61834142Y-49547850D01*
X61982275Y-49468671D01*
X62112115Y-49362115D01*
X62218671Y-49232275D01*
X62254630Y-49165000D01*
X62707024Y-49165000D01*
X62762171Y-49210258D01*
X62898418Y-49283084D01*
X63046255Y-49327929D01*
X63200000Y-49343072D01*
X64850000Y-49343072D01*
X65003745Y-49327929D01*
X65151582Y-49283084D01*
X65287829Y-49210258D01*
X65407251Y-49112251D01*
X65505258Y-48992829D01*
X65540436Y-48927015D01*
X66363480Y-49750059D01*
X66391193Y-49783827D01*
X66424961Y-49811540D01*
X66424963Y-49811542D01*
X66525951Y-49894421D01*
X66679696Y-49976599D01*
X66775154Y-50005556D01*
X66846520Y-50027205D01*
X66976533Y-50040010D01*
X66976541Y-50040010D01*
X67020010Y-50044291D01*
X67063479Y-50040010D01*
X70005065Y-50040010D01*
X70048534Y-50044291D01*
X70092003Y-50040010D01*
X70092011Y-50040010D01*
X70222024Y-50027205D01*
X70388847Y-49976599D01*
X70542593Y-49894421D01*
X70677351Y-49783827D01*
X70705068Y-49750054D01*
X70705122Y-49750000D01*
X86961928Y-49750000D01*
X86974188Y-49874482D01*
X87010498Y-49994180D01*
X87069463Y-50104494D01*
X87148815Y-50201185D01*
X87245506Y-50280537D01*
X87355820Y-50339502D01*
X87475518Y-50375812D01*
X87600000Y-50388072D01*
X88564250Y-50385000D01*
X88723000Y-50226250D01*
X88723000Y-48727000D01*
X88977000Y-48727000D01*
X88977000Y-50226250D01*
X89135750Y-50385000D01*
X90100000Y-50388072D01*
X90224482Y-50375812D01*
X90344180Y-50339502D01*
X90454494Y-50280537D01*
X90551185Y-50201185D01*
X90630537Y-50104494D01*
X90689502Y-49994180D01*
X90725812Y-49874482D01*
X90738072Y-49750000D01*
X90735000Y-48885750D01*
X90576250Y-48727000D01*
X88977000Y-48727000D01*
X88723000Y-48727000D01*
X87123750Y-48727000D01*
X86965000Y-48885750D01*
X86961928Y-49750000D01*
X70705122Y-49750000D01*
X72920124Y-47534999D01*
X86962230Y-47534999D01*
X86965000Y-48314250D01*
G37*
G04 #@! TD.AperFunction*
D32*
X42671414Y-36307111D02*
X42600932Y-36477271D01*
X42565000Y-36657911D01*
X42565000Y-36842089D01*
X42600932Y-37022729D01*
X42671414Y-37192889D01*
X42773738Y-37346028D01*
X42773785Y-37346075D01*
X42556385Y-37389319D01*
X41967653Y-37633180D01*
X41784528Y-37755540D01*
X41749068Y-37577271D01*
X41678586Y-37407111D01*
X41576262Y-37253972D01*
X41446028Y-37123738D01*
X41292889Y-37021414D01*
X41122729Y-36950932D01*
X40942089Y-36915000D01*
X40757911Y-36915000D01*
X40577271Y-36950932D01*
X40407111Y-37021414D01*
X40253972Y-37123738D01*
X40123738Y-37253972D01*
X40021414Y-37407111D01*
X39950932Y-37577271D01*
X39915000Y-37757911D01*
X39915000Y-37942089D01*
X39950932Y-38122729D01*
X40021414Y-38292889D01*
X40123738Y-38446028D01*
X40253972Y-38576262D01*
X40407111Y-38678586D01*
X40577271Y-38749068D01*
X40755540Y-38784528D01*
X40633180Y-38967653D01*
X40389319Y-39556385D01*
X40346075Y-39773785D01*
X40346028Y-39773738D01*
X40192889Y-39671414D01*
X40022729Y-39600932D01*
X39842089Y-39565000D01*
X39657911Y-39565000D01*
X39477271Y-39600932D01*
X39307111Y-39671414D01*
X39153972Y-39773738D01*
X39023738Y-39903972D01*
X38921414Y-40057111D01*
X38850932Y-40227271D01*
X38815000Y-40407911D01*
X38815000Y-40592089D01*
X38850932Y-40772729D01*
X38921414Y-40942889D01*
X39023738Y-41096028D01*
X39153972Y-41226262D01*
X39307111Y-41328586D01*
X39477271Y-41399068D01*
X39657911Y-41435000D01*
X39842089Y-41435000D01*
X40022729Y-41399068D01*
X40192889Y-41328586D01*
X40346028Y-41226262D01*
X40346075Y-41226215D01*
X40389319Y-41443615D01*
X40633180Y-42032347D01*
X40755540Y-42215472D01*
X40577271Y-42250932D01*
X40407111Y-42321414D01*
X40253972Y-42423738D01*
X40123738Y-42553972D01*
X40021414Y-42707111D01*
X39950932Y-42877271D01*
X39915000Y-43057911D01*
X39915000Y-43242089D01*
X39950932Y-43422729D01*
X40021414Y-43592889D01*
X40123738Y-43746028D01*
X40253972Y-43876262D01*
X40407111Y-43978586D01*
X40577271Y-44049068D01*
X40757911Y-44085000D01*
X40942089Y-44085000D01*
X41122729Y-44049068D01*
X41292889Y-43978586D01*
X41446028Y-43876262D01*
X41576262Y-43746028D01*
X41678586Y-43592889D01*
X41749068Y-43422729D01*
X41784528Y-43244460D01*
X41967653Y-43366820D01*
X42556385Y-43610681D01*
X42773785Y-43653925D01*
X42773738Y-43653972D01*
X42671414Y-43807111D01*
X42600932Y-43977271D01*
X42565000Y-44157911D01*
X42565000Y-44342089D01*
X42600932Y-44522729D01*
X42671414Y-44692889D01*
X42773738Y-44846028D01*
X42903972Y-44976262D01*
X43057111Y-45078586D01*
X43227271Y-45149068D01*
X43407911Y-45185000D01*
X43592089Y-45185000D01*
X43772729Y-45149068D01*
X43942889Y-45078586D01*
X44096028Y-44976262D01*
X44207703Y-44864587D01*
X49544192Y-44864587D01*
X50500000Y-45820395D01*
X51320395Y-45000000D01*
X53861928Y-45000000D01*
X53861928Y-47000000D01*
X53874188Y-47124482D01*
X53910498Y-47244180D01*
X53969463Y-47354494D01*
X54048815Y-47451185D01*
X54145506Y-47530537D01*
X54255820Y-47589502D01*
X54375518Y-47625812D01*
X54500000Y-47638072D01*
X56500000Y-47638072D01*
X56624482Y-47625812D01*
X56744180Y-47589502D01*
X56854494Y-47530537D01*
X56951185Y-47451185D01*
X57030537Y-47354494D01*
X57089502Y-47244180D01*
X57125812Y-47124482D01*
X57138072Y-47000000D01*
X57138072Y-45000000D01*
X57125812Y-44875518D01*
X57089502Y-44755820D01*
X57030537Y-44645506D01*
X56951185Y-44548815D01*
X56854494Y-44469463D01*
X56744180Y-44410498D01*
X56624482Y-44374188D01*
X56500000Y-44361928D01*
X54500000Y-44361928D01*
X54375518Y-44374188D01*
X54255820Y-44410498D01*
X54145506Y-44469463D01*
X54048815Y-44548815D01*
X53969463Y-44645506D01*
X53910498Y-44755820D01*
X53874188Y-44875518D01*
X53861928Y-45000000D01*
X51320395Y-45000000D01*
X51455808Y-44864587D01*
X51360044Y-44600186D01*
X51070429Y-44459296D01*
X50758892Y-44377616D01*
X50437405Y-44358282D01*
X50118325Y-44402039D01*
X49813912Y-44507205D01*
X49639956Y-44600186D01*
X49544192Y-44864587D01*
X44207703Y-44864587D01*
X44226262Y-44846028D01*
X44328586Y-44692889D01*
X44399068Y-44522729D01*
X44435000Y-44342089D01*
X44435000Y-44157911D01*
X44399068Y-43977271D01*
X44328586Y-43807111D01*
X44226262Y-43653972D01*
X44226215Y-43653925D01*
X44443615Y-43610681D01*
X45032347Y-43366820D01*
X45215472Y-43244460D01*
X45250932Y-43422729D01*
X45321414Y-43592889D01*
X45423738Y-43746028D01*
X45553972Y-43876262D01*
X45707111Y-43978586D01*
X45877271Y-44049068D01*
X46057911Y-44085000D01*
X46242089Y-44085000D01*
X46422729Y-44049068D01*
X46592889Y-43978586D01*
X46746028Y-43876262D01*
X46876262Y-43746028D01*
X46978586Y-43592889D01*
X47049068Y-43422729D01*
X47085000Y-43242089D01*
X47085000Y-43057911D01*
X47049068Y-42877271D01*
X46978586Y-42707111D01*
X46876262Y-42553972D01*
X46746028Y-42423738D01*
X46592889Y-42321414D01*
X46422729Y-42250932D01*
X46244460Y-42215472D01*
X46366820Y-42032347D01*
X46442350Y-41850000D01*
X59511928Y-41850000D01*
X59524188Y-41974482D01*
X59560498Y-42094180D01*
X59619463Y-42204494D01*
X59698815Y-42301185D01*
X59795506Y-42380537D01*
X59905820Y-42439502D01*
X60025518Y-42475812D01*
X60150000Y-42488072D01*
X60714250Y-42485000D01*
X60873000Y-42326250D01*
X60873000Y-41127000D01*
X59673750Y-41127000D01*
X59515000Y-41285750D01*
X59511928Y-41850000D01*
X46442350Y-41850000D01*
X46610681Y-41443615D01*
X46653925Y-41226215D01*
X46653972Y-41226262D01*
X46807111Y-41328586D01*
X46977271Y-41399068D01*
X47157911Y-41435000D01*
X47342089Y-41435000D01*
X47522729Y-41399068D01*
X47692889Y-41328586D01*
X47846028Y-41226262D01*
X47976262Y-41096028D01*
X48078586Y-40942889D01*
X48149068Y-40772729D01*
X48185000Y-40592089D01*
X48185000Y-40407911D01*
X48149068Y-40227271D01*
X48078586Y-40057111D01*
X47976262Y-39903972D01*
X47846028Y-39773738D01*
X47692889Y-39671414D01*
X47522729Y-39600932D01*
X47342089Y-39565000D01*
X47157911Y-39565000D01*
X46977271Y-39600932D01*
X46807111Y-39671414D01*
X46653972Y-39773738D01*
X46653925Y-39773785D01*
X46610681Y-39556385D01*
X46366820Y-38967653D01*
X46244460Y-38784528D01*
X46422729Y-38749068D01*
X46592889Y-38678586D01*
X46746028Y-38576262D01*
X46876262Y-38446028D01*
X46978586Y-38292889D01*
X47049068Y-38122729D01*
X47085000Y-37942089D01*
X47085000Y-37757911D01*
X47049068Y-37577271D01*
X46978586Y-37407111D01*
X46876262Y-37253972D01*
X46746028Y-37123738D01*
X46592889Y-37021414D01*
X46422729Y-36950932D01*
X46242089Y-36915000D01*
X46057911Y-36915000D01*
X45877271Y-36950932D01*
X45707111Y-37021414D01*
X45553972Y-37123738D01*
X45423738Y-37253972D01*
X45321414Y-37407111D01*
X45250932Y-37577271D01*
X45215472Y-37755540D01*
X45032347Y-37633180D01*
X44443615Y-37389319D01*
X44226215Y-37346075D01*
X44226262Y-37346028D01*
X44328586Y-37192889D01*
X44399068Y-37022729D01*
X44435000Y-36842089D01*
X44435000Y-36657911D01*
X44399068Y-36477271D01*
X44328586Y-36307111D01*
X44230290Y-36160000D01*
X52461644Y-36160000D01*
X52309716Y-36311928D01*
X50700000Y-36311928D01*
X50575518Y-36324188D01*
X50455820Y-36360498D01*
X50345506Y-36419463D01*
X50248815Y-36498815D01*
X50169463Y-36595506D01*
X50110498Y-36705820D01*
X50074188Y-36825518D01*
X50061928Y-36950000D01*
X50061928Y-39250000D01*
X50074188Y-39374482D01*
X50110498Y-39494180D01*
X50169463Y-39604494D01*
X50248815Y-39701185D01*
X50345506Y-39780537D01*
X50455820Y-39839502D01*
X50575518Y-39875812D01*
X50700000Y-39888072D01*
X53200000Y-39888072D01*
X53324482Y-39875812D01*
X53444180Y-39839502D01*
X53554494Y-39780537D01*
X53651185Y-39701185D01*
X53730537Y-39604494D01*
X53789502Y-39494180D01*
X53825812Y-39374482D01*
X53838072Y-39250000D01*
X54361928Y-39250000D01*
X54374188Y-39374482D01*
X54410498Y-39494180D01*
X54469463Y-39604494D01*
X54548815Y-39701185D01*
X54645506Y-39780537D01*
X54755820Y-39839502D01*
X54875518Y-39875812D01*
X55000000Y-39888072D01*
X55964250Y-39885000D01*
X56123000Y-39726250D01*
X56123000Y-38227000D01*
X56377000Y-38227000D01*
X56377000Y-39726250D01*
X56535750Y-39885000D01*
X57500000Y-39888072D01*
X57624482Y-39875812D01*
X57744180Y-39839502D01*
X57854494Y-39780537D01*
X57951185Y-39701185D01*
X58030537Y-39604494D01*
X58089502Y-39494180D01*
X58125812Y-39374482D01*
X58138072Y-39250000D01*
X58135000Y-38385750D01*
X57976250Y-38227000D01*
X56377000Y-38227000D01*
X56123000Y-38227000D01*
X54523750Y-38227000D01*
X54365000Y-38385750D01*
X54361928Y-39250000D01*
X53838072Y-39250000D01*
X53838072Y-37640284D01*
X54093357Y-37384999D01*
X54363474Y-37384999D01*
X54365000Y-37814250D01*
X54523750Y-37973000D01*
X56123000Y-37973000D01*
X56123000Y-37953000D01*
X56377000Y-37953000D01*
X56377000Y-37973000D01*
X57976250Y-37973000D01*
X58135000Y-37814250D01*
X58136526Y-37384999D01*
X58496644Y-37384999D01*
X60626165Y-39514520D01*
X60150000Y-39511928D01*
X60025518Y-39524188D01*
X59905820Y-39560498D01*
X59795506Y-39619463D01*
X59698815Y-39698815D01*
X59619463Y-39795506D01*
X59560498Y-39905820D01*
X59524188Y-40025518D01*
X59511928Y-40150000D01*
X59515000Y-40714250D01*
X59673750Y-40873000D01*
X60873000Y-40873000D01*
X60873000Y-40853000D01*
X61127000Y-40853000D01*
X61127000Y-40873000D01*
X61147000Y-40873000D01*
X61147000Y-41127000D01*
X61127000Y-41127000D01*
X61127000Y-42326250D01*
X61285750Y-42485000D01*
X61850000Y-42488072D01*
X61974482Y-42475812D01*
X62094180Y-42439502D01*
X62204494Y-42380537D01*
X62301185Y-42301185D01*
X62380537Y-42204494D01*
X62439502Y-42094180D01*
X62461513Y-42021620D01*
X62593368Y-42153475D01*
X62836589Y-42315990D01*
X63106842Y-42427932D01*
X63393740Y-42485000D01*
X63686260Y-42485000D01*
X63906408Y-42441209D01*
X65138699Y-43673501D01*
X65124482Y-43669188D01*
X65000000Y-43656928D01*
X64310750Y-43660000D01*
X64152000Y-43818750D01*
X64152000Y-44468000D01*
X65476250Y-44468000D01*
X65635000Y-44309250D01*
X65638072Y-44295000D01*
X65625812Y-44170518D01*
X65621499Y-44156301D01*
X66330198Y-44865000D01*
X66298061Y-44865000D01*
X66098102Y-44904774D01*
X65909744Y-44982795D01*
X65861546Y-45015000D01*
X65626253Y-45015000D01*
X65638072Y-44895000D01*
X65635000Y-44880750D01*
X65476250Y-44722000D01*
X64152000Y-44722000D01*
X64152000Y-44742000D01*
X63898000Y-44742000D01*
X63898000Y-44722000D01*
X63878000Y-44722000D01*
X63878000Y-44468000D01*
X63898000Y-44468000D01*
X63898000Y-43818750D01*
X63739250Y-43660000D01*
X63050000Y-43656928D01*
X62925518Y-43669188D01*
X62805820Y-43705498D01*
X62695506Y-43764463D01*
X62598815Y-43843815D01*
X62519463Y-43940506D01*
X62460498Y-44050820D01*
X62449471Y-44087170D01*
X62363072Y-44000771D01*
X62363072Y-43743750D01*
X62346608Y-43576592D01*
X62297850Y-43415858D01*
X62218671Y-43267725D01*
X62112115Y-43137885D01*
X61982275Y-43031329D01*
X61834142Y-42952150D01*
X61673408Y-42903392D01*
X61506250Y-42886928D01*
X61068750Y-42886928D01*
X60901592Y-42903392D01*
X60740858Y-42952150D01*
X60592725Y-43031329D01*
X60500000Y-43107426D01*
X60407275Y-43031329D01*
X60259142Y-42952150D01*
X60098408Y-42903392D01*
X59931250Y-42886928D01*
X59493750Y-42886928D01*
X59326592Y-42903392D01*
X59165858Y-42952150D01*
X59017725Y-43031329D01*
X58887885Y-43137885D01*
X58781329Y-43267725D01*
X58702150Y-43415858D01*
X58653392Y-43576592D01*
X58636928Y-43743750D01*
X58636928Y-44256250D01*
X58653392Y-44423408D01*
X58702150Y-44584142D01*
X58781329Y-44732275D01*
X58887885Y-44862115D01*
X58952501Y-44915143D01*
X58952500Y-45084857D01*
X58887885Y-45137885D01*
X58781329Y-45267725D01*
X58702150Y-45415858D01*
X58653392Y-45576592D01*
X58636928Y-45743750D01*
X58636928Y-46256250D01*
X58653392Y-46423408D01*
X58702150Y-46584142D01*
X58781329Y-46732275D01*
X58887885Y-46862115D01*
X59017725Y-46968671D01*
X59165858Y-47047850D01*
X59326592Y-47096608D01*
X59493750Y-47113072D01*
X59931250Y-47113072D01*
X60098408Y-47096608D01*
X60259142Y-47047850D01*
X60407275Y-46968671D01*
X60500000Y-46892574D01*
X60592725Y-46968671D01*
X60740858Y-47047850D01*
X60901592Y-47096608D01*
X61068750Y-47113072D01*
X61325770Y-47113072D01*
X61609827Y-47397130D01*
X61506250Y-47386928D01*
X61068750Y-47386928D01*
X60901592Y-47403392D01*
X60740858Y-47452150D01*
X60592725Y-47531329D01*
X60571070Y-47549100D01*
X60504494Y-47494463D01*
X60394180Y-47435498D01*
X60274482Y-47399188D01*
X60150000Y-47386928D01*
X59998250Y-47390000D01*
X59839500Y-47548750D01*
X59839500Y-48373000D01*
X59859500Y-48373000D01*
X59859500Y-48540010D01*
X58552313Y-48540010D01*
X58514988Y-48536334D01*
X58477663Y-48540010D01*
X58477655Y-48540010D01*
X58366002Y-48551007D01*
X58222741Y-48594464D01*
X58090712Y-48665036D01*
X57974987Y-48760009D01*
X57951189Y-48789007D01*
X56214002Y-50526195D01*
X56184998Y-50549998D01*
X56129870Y-50617173D01*
X56090025Y-50665723D01*
X56037769Y-50763487D01*
X56019453Y-50797753D01*
X55975996Y-50941014D01*
X55964999Y-51052667D01*
X55964999Y-51052677D01*
X55961323Y-51089999D01*
X55964999Y-51127322D01*
X55965000Y-56118041D01*
X54236860Y-57846183D01*
X54193552Y-57881725D01*
X54185710Y-57891280D01*
X54188072Y-57150000D01*
X54175812Y-57025518D01*
X54139502Y-56905820D01*
X54080537Y-56795506D01*
X54001185Y-56698815D01*
X53904494Y-56619463D01*
X53794180Y-56560498D01*
X53674482Y-56524188D01*
X53550000Y-56511928D01*
X52685750Y-56515000D01*
X52527000Y-56673750D01*
X52527000Y-58273000D01*
X52547000Y-58273000D01*
X52547000Y-58527000D01*
X52527000Y-58527000D01*
X52527000Y-60126250D01*
X52685750Y-60285000D01*
X53208012Y-60286856D01*
X52682940Y-60811928D01*
X52059185Y-60811928D01*
X51936446Y-60746323D01*
X51722498Y-60681422D01*
X51555751Y-60664999D01*
X51555750Y-60664999D01*
X51499999Y-60659508D01*
X51444248Y-60664999D01*
X44255742Y-60664999D01*
X44200000Y-60659509D01*
X44144258Y-60664999D01*
X44144249Y-60664999D01*
X43977502Y-60681422D01*
X43763554Y-60746323D01*
X43566378Y-60851715D01*
X43393552Y-60993550D01*
X43358010Y-61036859D01*
X42101034Y-62293835D01*
X42089502Y-62255820D01*
X42030537Y-62145506D01*
X41951185Y-62048815D01*
X41854494Y-61969463D01*
X41744180Y-61910498D01*
X41624482Y-61874188D01*
X41500000Y-61861928D01*
X40967059Y-61861928D01*
X40761996Y-61656865D01*
X40726449Y-61613551D01*
X40553623Y-61471716D01*
X40356446Y-61366324D01*
X40142498Y-61301423D01*
X39920000Y-61279509D01*
X39697501Y-61301423D01*
X39483553Y-61366324D01*
X39286377Y-61471716D01*
X39113551Y-61613551D01*
X38984990Y-61770203D01*
X38984990Y-59650000D01*
X50611928Y-59650000D01*
X50624188Y-59774482D01*
X50660498Y-59894180D01*
X50719463Y-60004494D01*
X50798815Y-60101185D01*
X50895506Y-60180537D01*
X51005820Y-60239502D01*
X51125518Y-60275812D01*
X51250000Y-60288072D01*
X52114250Y-60285000D01*
X52273000Y-60126250D01*
X52273000Y-58527000D01*
X50773750Y-58527000D01*
X50615000Y-58685750D01*
X50611928Y-59650000D01*
X38984990Y-59650000D01*
X38984990Y-57343072D01*
X40350000Y-57343072D01*
X40503745Y-57327929D01*
X40651582Y-57283084D01*
X40787829Y-57210258D01*
X40907251Y-57112251D01*
X41005258Y-56992829D01*
X41078084Y-56856582D01*
X41122929Y-56708745D01*
X41123297Y-56705000D01*
X42861928Y-56705000D01*
X42874188Y-56829482D01*
X42910498Y-56949180D01*
X42969463Y-57059494D01*
X43048815Y-57156185D01*
X43145506Y-57235537D01*
X43255820Y-57294502D01*
X43375518Y-57330812D01*
X43500000Y-57343072D01*
X44189250Y-57340000D01*
X44348000Y-57181250D01*
X44348000Y-56532000D01*
X43023750Y-56532000D01*
X42865000Y-56690750D01*
X42861928Y-56705000D01*
X41123297Y-56705000D01*
X41138072Y-56555000D01*
X41138072Y-56255000D01*
X41122929Y-56101255D01*
X41078084Y-55953418D01*
X41006270Y-55819064D01*
X41030537Y-55789494D01*
X41089502Y-55679180D01*
X41125812Y-55559482D01*
X41138072Y-55435000D01*
X41135000Y-55420750D01*
X40976250Y-55262000D01*
X39652000Y-55262000D01*
X39652000Y-55282000D01*
X39398000Y-55282000D01*
X39398000Y-55262000D01*
X39378000Y-55262000D01*
X39378000Y-55008000D01*
X39398000Y-55008000D01*
X39398000Y-53992000D01*
X39652000Y-53992000D01*
X39652000Y-55008000D01*
X40976250Y-55008000D01*
X41135000Y-54849250D01*
X41138072Y-54835000D01*
X41125812Y-54710518D01*
X41089502Y-54590820D01*
X41040957Y-54500000D01*
X41089502Y-54409180D01*
X41125812Y-54289482D01*
X41138072Y-54165000D01*
X41135000Y-54150750D01*
X40976250Y-53992000D01*
X39652000Y-53992000D01*
X39398000Y-53992000D01*
X39378000Y-53992000D01*
X39378000Y-53738000D01*
X39398000Y-53738000D01*
X39398000Y-53718000D01*
X39652000Y-53718000D01*
X39652000Y-53738000D01*
X40976250Y-53738000D01*
X41135000Y-53579250D01*
X41136771Y-53571036D01*
X41196063Y-53659774D01*
X41340226Y-53803937D01*
X41509744Y-53917205D01*
X41698102Y-53995226D01*
X41898061Y-54035000D01*
X42101939Y-54035000D01*
X42301898Y-53995226D01*
X42490256Y-53917205D01*
X42659774Y-53803937D01*
X42803937Y-53659774D01*
X42883145Y-53541230D01*
X42877071Y-53561255D01*
X42861928Y-53715000D01*
X42861928Y-54015000D01*
X42877071Y-54168745D01*
X42921916Y-54316582D01*
X42994742Y-54452829D01*
X43033454Y-54500000D01*
X42994742Y-54547171D01*
X42921916Y-54683418D01*
X42877071Y-54831255D01*
X42861928Y-54985000D01*
X42861928Y-55285000D01*
X42877071Y-55438745D01*
X42921916Y-55586582D01*
X42993730Y-55720936D01*
X42969463Y-55750506D01*
X42910498Y-55860820D01*
X42874188Y-55980518D01*
X42861928Y-56105000D01*
X42865000Y-56119250D01*
X43023750Y-56278000D01*
X44348000Y-56278000D01*
X44348000Y-56258000D01*
X44602000Y-56258000D01*
X44602000Y-56278000D01*
X44622000Y-56278000D01*
X44622000Y-56532000D01*
X44602000Y-56532000D01*
X44602000Y-57181250D01*
X44760750Y-57340000D01*
X45450000Y-57343072D01*
X45574482Y-57330812D01*
X45694180Y-57294502D01*
X45804494Y-57235537D01*
X45901185Y-57156185D01*
X45980537Y-57059494D01*
X46039502Y-56949180D01*
X46050529Y-56912830D01*
X46136928Y-56999230D01*
X46136928Y-57008937D01*
X46127805Y-57039010D01*
X46110719Y-57212500D01*
X46115001Y-57255978D01*
X46115000Y-57961545D01*
X46082795Y-58009744D01*
X46004774Y-58198102D01*
X45965000Y-58398061D01*
X45965000Y-58601939D01*
X46004774Y-58801898D01*
X46082795Y-58990256D01*
X46196063Y-59159774D01*
X46340226Y-59303937D01*
X46509744Y-59417205D01*
X46698102Y-59495226D01*
X46898061Y-59535000D01*
X47101939Y-59535000D01*
X47301898Y-59495226D01*
X47490256Y-59417205D01*
X47659774Y-59303937D01*
X47803937Y-59159774D01*
X47917205Y-58990256D01*
X47995226Y-58801898D01*
X48035000Y-58601939D01*
X48035000Y-58398061D01*
X47995226Y-58198102D01*
X47917205Y-58009744D01*
X47894370Y-57975569D01*
X47907275Y-57968671D01*
X48000000Y-57892574D01*
X48092725Y-57968671D01*
X48240858Y-58047850D01*
X48401592Y-58096608D01*
X48568750Y-58113072D01*
X49006250Y-58113072D01*
X49173408Y-58096608D01*
X49334142Y-58047850D01*
X49482275Y-57968671D01*
X49612115Y-57862115D01*
X49718671Y-57732275D01*
X49797850Y-57584142D01*
X49846608Y-57423408D01*
X49863072Y-57256250D01*
X49863072Y-57150000D01*
X50611928Y-57150000D01*
X50615000Y-58114250D01*
X50773750Y-58273000D01*
X52273000Y-58273000D01*
X52273000Y-56673750D01*
X52114250Y-56515000D01*
X51250000Y-56511928D01*
X51125518Y-56524188D01*
X51005820Y-56560498D01*
X50895506Y-56619463D01*
X50798815Y-56698815D01*
X50719463Y-56795506D01*
X50660498Y-56905820D01*
X50624188Y-57025518D01*
X50611928Y-57150000D01*
X49863072Y-57150000D01*
X49863072Y-56743750D01*
X49846608Y-56576592D01*
X49797850Y-56415858D01*
X49718671Y-56267725D01*
X49612115Y-56137885D01*
X49547500Y-56084857D01*
X49547500Y-55915143D01*
X49612115Y-55862115D01*
X49718671Y-55732275D01*
X49797850Y-55584142D01*
X49846608Y-55423408D01*
X49863072Y-55256250D01*
X49863072Y-55028040D01*
X49898061Y-55035000D01*
X50101939Y-55035000D01*
X50301898Y-54995226D01*
X50490256Y-54917205D01*
X50659774Y-54803937D01*
X50803937Y-54659774D01*
X50917205Y-54490256D01*
X50995226Y-54301898D01*
X51035000Y-54101939D01*
X51035000Y-53898061D01*
X50995226Y-53698102D01*
X50917205Y-53509744D01*
X50803937Y-53340226D01*
X50659774Y-53196063D01*
X50490256Y-53082795D01*
X50301898Y-53004774D01*
X50101939Y-52965000D01*
X49898061Y-52965000D01*
X49863023Y-52971969D01*
X49860000Y-52785750D01*
X49701250Y-52627000D01*
X48914500Y-52627000D01*
X48914500Y-52647000D01*
X48660500Y-52647000D01*
X48660500Y-52627000D01*
X48640500Y-52627000D01*
X48640500Y-52373000D01*
X48660500Y-52373000D01*
X48660500Y-51548750D01*
X48914500Y-51548750D01*
X48914500Y-52373000D01*
X49701250Y-52373000D01*
X49860000Y-52214250D01*
X49863072Y-52025000D01*
X49850812Y-51900518D01*
X49814502Y-51780820D01*
X49755537Y-51670506D01*
X49676185Y-51573815D01*
X49579494Y-51494463D01*
X49469180Y-51435498D01*
X49349482Y-51399188D01*
X49225000Y-51386928D01*
X49073250Y-51390000D01*
X48914500Y-51548750D01*
X48660500Y-51548750D01*
X48501750Y-51390000D01*
X48350000Y-51386928D01*
X48225518Y-51399188D01*
X48105820Y-51435498D01*
X47995506Y-51494463D01*
X47928930Y-51549100D01*
X47907275Y-51531329D01*
X47759142Y-51452150D01*
X47598408Y-51403392D01*
X47431250Y-51386928D01*
X46993750Y-51386928D01*
X46826592Y-51403392D01*
X46665858Y-51452150D01*
X46517725Y-51531329D01*
X46387885Y-51637885D01*
X46304082Y-51740000D01*
X45644769Y-51740000D01*
X45601582Y-51716916D01*
X45453745Y-51672071D01*
X45300000Y-51656928D01*
X43650000Y-51656928D01*
X43496255Y-51672071D01*
X43348418Y-51716916D01*
X43212171Y-51789742D01*
X43157024Y-51835000D01*
X42442322Y-51835000D01*
X42404999Y-51831324D01*
X42367676Y-51835000D01*
X42367667Y-51835000D01*
X42256014Y-51845997D01*
X42112753Y-51889454D01*
X41980724Y-51960026D01*
X41974663Y-51965000D01*
X41898061Y-51965000D01*
X41698102Y-52004774D01*
X41509744Y-52082795D01*
X41340226Y-52196063D01*
X41196063Y-52340226D01*
X41136528Y-52429326D01*
X41122929Y-52291255D01*
X41113013Y-52258566D01*
X41145049Y-52226530D01*
X41178817Y-52198817D01*
X41218881Y-52150000D01*
X41289411Y-52064059D01*
X41323675Y-51999954D01*
X41371589Y-51910313D01*
X41422195Y-51743490D01*
X41435000Y-51613477D01*
X41435000Y-51613469D01*
X41439281Y-51570000D01*
X41435000Y-51526531D01*
X41435000Y-50388072D01*
X41800000Y-50388072D01*
X41924482Y-50375812D01*
X42044180Y-50339502D01*
X42154494Y-50280537D01*
X42251185Y-50201185D01*
X42330537Y-50104494D01*
X42389502Y-49994180D01*
X42425812Y-49874482D01*
X42438072Y-49750000D01*
X42961928Y-49750000D01*
X42974188Y-49874482D01*
X43010498Y-49994180D01*
X43069463Y-50104494D01*
X43148815Y-50201185D01*
X43245506Y-50280537D01*
X43355820Y-50339502D01*
X43475518Y-50375812D01*
X43600000Y-50388072D01*
X44564250Y-50385000D01*
X44723000Y-50226250D01*
X44723000Y-48727000D01*
X44977000Y-48727000D01*
X44977000Y-50226250D01*
X45135750Y-50385000D01*
X46100000Y-50388072D01*
X46224482Y-50375812D01*
X46344180Y-50339502D01*
X46454494Y-50280537D01*
X46551185Y-50201185D01*
X46630537Y-50104494D01*
X46689502Y-49994180D01*
X46725812Y-49874482D01*
X46738072Y-49750000D01*
X46735000Y-48885750D01*
X46576250Y-48727000D01*
X44977000Y-48727000D01*
X44723000Y-48727000D01*
X43123750Y-48727000D01*
X42965000Y-48885750D01*
X42961928Y-49750000D01*
X42438072Y-49750000D01*
X42438072Y-47450000D01*
X42961928Y-47450000D01*
X42965000Y-48314250D01*
X43123750Y-48473000D01*
X44723000Y-48473000D01*
X44723000Y-46973750D01*
X44977000Y-46973750D01*
X44977000Y-48473000D01*
X46576250Y-48473000D01*
X46735000Y-48314250D01*
X46736028Y-48025000D01*
X58636928Y-48025000D01*
X58640000Y-48214250D01*
X58798750Y-48373000D01*
X59585500Y-48373000D01*
X59585500Y-47548750D01*
X59426750Y-47390000D01*
X59275000Y-47386928D01*
X59150518Y-47399188D01*
X59030820Y-47435498D01*
X58920506Y-47494463D01*
X58823815Y-47573815D01*
X58744463Y-47670506D01*
X58685498Y-47780820D01*
X58649188Y-47900518D01*
X58636928Y-48025000D01*
X46736028Y-48025000D01*
X46738072Y-47450000D01*
X46725812Y-47325518D01*
X46689502Y-47205820D01*
X46651869Y-47135413D01*
X49544192Y-47135413D01*
X49639956Y-47399814D01*
X49929571Y-47540704D01*
X50241108Y-47622384D01*
X50562595Y-47641718D01*
X50881675Y-47597961D01*
X51186088Y-47492795D01*
X51360044Y-47399814D01*
X51455808Y-47135413D01*
X50500000Y-46179605D01*
X49544192Y-47135413D01*
X46651869Y-47135413D01*
X46630537Y-47095506D01*
X46551185Y-46998815D01*
X46454494Y-46919463D01*
X46344180Y-46860498D01*
X46224482Y-46824188D01*
X46100000Y-46811928D01*
X45135750Y-46815000D01*
X44977000Y-46973750D01*
X44723000Y-46973750D01*
X44564250Y-46815000D01*
X43600000Y-46811928D01*
X43475518Y-46824188D01*
X43355820Y-46860498D01*
X43245506Y-46919463D01*
X43148815Y-46998815D01*
X43069463Y-47095506D01*
X43010498Y-47205820D01*
X42974188Y-47325518D01*
X42961928Y-47450000D01*
X42438072Y-47450000D01*
X42425812Y-47325518D01*
X42389502Y-47205820D01*
X42330537Y-47095506D01*
X42251185Y-46998815D01*
X42154494Y-46919463D01*
X42044180Y-46860498D01*
X41924482Y-46824188D01*
X41800000Y-46811928D01*
X39300000Y-46811928D01*
X39175518Y-46824188D01*
X39055820Y-46860498D01*
X38945506Y-46919463D01*
X38848815Y-46998815D01*
X38769463Y-47095506D01*
X38710498Y-47205820D01*
X38674188Y-47325518D01*
X38661928Y-47450000D01*
X38661928Y-49750000D01*
X38674188Y-49874482D01*
X38710498Y-49994180D01*
X38769463Y-50104494D01*
X38848815Y-50201185D01*
X38945506Y-50280537D01*
X39055820Y-50339502D01*
X39175518Y-50375812D01*
X39300000Y-50388072D01*
X39665001Y-50388072D01*
X39665001Y-51203420D01*
X39211494Y-51656928D01*
X38700000Y-51656928D01*
X38546255Y-51672071D01*
X38398418Y-51716916D01*
X38262171Y-51789742D01*
X38160000Y-51873591D01*
X38160000Y-46062595D01*
X48858282Y-46062595D01*
X48902039Y-46381675D01*
X49007205Y-46686088D01*
X49100186Y-46860044D01*
X49364587Y-46955808D01*
X50320395Y-46000000D01*
X50679605Y-46000000D01*
X51635413Y-46955808D01*
X51899814Y-46860044D01*
X52040704Y-46570429D01*
X52122384Y-46258892D01*
X52141718Y-45937405D01*
X52097961Y-45618325D01*
X51992795Y-45313912D01*
X51899814Y-45139956D01*
X51635413Y-45044192D01*
X50679605Y-46000000D01*
X50320395Y-46000000D01*
X49364587Y-45044192D01*
X49100186Y-45139956D01*
X48959296Y-45429571D01*
X48877616Y-45741108D01*
X48858282Y-46062595D01*
X38160000Y-46062595D01*
X38160000Y-36532279D01*
X38169580Y-36434576D01*
X38188580Y-36371644D01*
X38219445Y-36313595D01*
X38260989Y-36262657D01*
X38311644Y-36220752D01*
X38369471Y-36189485D01*
X38432272Y-36170044D01*
X38527835Y-36160000D01*
X42769710Y-36160000D01*
X42671414Y-36307111D01*
G04 #@! TA.AperFunction,Conductor*
D33*
G36*
X42671414Y-36307111D02*
G01*
X42600932Y-36477271D01*
X42565000Y-36657911D01*
X42565000Y-36842089D01*
X42600932Y-37022729D01*
X42671414Y-37192889D01*
X42773738Y-37346028D01*
X42773785Y-37346075D01*
X42556385Y-37389319D01*
X41967653Y-37633180D01*
X41784528Y-37755540D01*
X41749068Y-37577271D01*
X41678586Y-37407111D01*
X41576262Y-37253972D01*
X41446028Y-37123738D01*
X41292889Y-37021414D01*
X41122729Y-36950932D01*
X40942089Y-36915000D01*
X40757911Y-36915000D01*
X40577271Y-36950932D01*
X40407111Y-37021414D01*
X40253972Y-37123738D01*
X40123738Y-37253972D01*
X40021414Y-37407111D01*
X39950932Y-37577271D01*
X39915000Y-37757911D01*
X39915000Y-37942089D01*
X39950932Y-38122729D01*
X40021414Y-38292889D01*
X40123738Y-38446028D01*
X40253972Y-38576262D01*
X40407111Y-38678586D01*
X40577271Y-38749068D01*
X40755540Y-38784528D01*
X40633180Y-38967653D01*
X40389319Y-39556385D01*
X40346075Y-39773785D01*
X40346028Y-39773738D01*
X40192889Y-39671414D01*
X40022729Y-39600932D01*
X39842089Y-39565000D01*
X39657911Y-39565000D01*
X39477271Y-39600932D01*
X39307111Y-39671414D01*
X39153972Y-39773738D01*
X39023738Y-39903972D01*
X38921414Y-40057111D01*
X38850932Y-40227271D01*
X38815000Y-40407911D01*
X38815000Y-40592089D01*
X38850932Y-40772729D01*
X38921414Y-40942889D01*
X39023738Y-41096028D01*
X39153972Y-41226262D01*
X39307111Y-41328586D01*
X39477271Y-41399068D01*
X39657911Y-41435000D01*
X39842089Y-41435000D01*
X40022729Y-41399068D01*
X40192889Y-41328586D01*
X40346028Y-41226262D01*
X40346075Y-41226215D01*
X40389319Y-41443615D01*
X40633180Y-42032347D01*
X40755540Y-42215472D01*
X40577271Y-42250932D01*
X40407111Y-42321414D01*
X40253972Y-42423738D01*
X40123738Y-42553972D01*
X40021414Y-42707111D01*
X39950932Y-42877271D01*
X39915000Y-43057911D01*
X39915000Y-43242089D01*
X39950932Y-43422729D01*
X40021414Y-43592889D01*
X40123738Y-43746028D01*
X40253972Y-43876262D01*
X40407111Y-43978586D01*
X40577271Y-44049068D01*
X40757911Y-44085000D01*
X40942089Y-44085000D01*
X41122729Y-44049068D01*
X41292889Y-43978586D01*
X41446028Y-43876262D01*
X41576262Y-43746028D01*
X41678586Y-43592889D01*
X41749068Y-43422729D01*
X41784528Y-43244460D01*
X41967653Y-43366820D01*
X42556385Y-43610681D01*
X42773785Y-43653925D01*
X42773738Y-43653972D01*
X42671414Y-43807111D01*
X42600932Y-43977271D01*
X42565000Y-44157911D01*
X42565000Y-44342089D01*
X42600932Y-44522729D01*
X42671414Y-44692889D01*
X42773738Y-44846028D01*
X42903972Y-44976262D01*
X43057111Y-45078586D01*
X43227271Y-45149068D01*
X43407911Y-45185000D01*
X43592089Y-45185000D01*
X43772729Y-45149068D01*
X43942889Y-45078586D01*
X44096028Y-44976262D01*
X44207703Y-44864587D01*
X49544192Y-44864587D01*
X50500000Y-45820395D01*
X51320395Y-45000000D01*
X53861928Y-45000000D01*
X53861928Y-47000000D01*
X53874188Y-47124482D01*
X53910498Y-47244180D01*
X53969463Y-47354494D01*
X54048815Y-47451185D01*
X54145506Y-47530537D01*
X54255820Y-47589502D01*
X54375518Y-47625812D01*
X54500000Y-47638072D01*
X56500000Y-47638072D01*
X56624482Y-47625812D01*
X56744180Y-47589502D01*
X56854494Y-47530537D01*
X56951185Y-47451185D01*
X57030537Y-47354494D01*
X57089502Y-47244180D01*
X57125812Y-47124482D01*
X57138072Y-47000000D01*
X57138072Y-45000000D01*
X57125812Y-44875518D01*
X57089502Y-44755820D01*
X57030537Y-44645506D01*
X56951185Y-44548815D01*
X56854494Y-44469463D01*
X56744180Y-44410498D01*
X56624482Y-44374188D01*
X56500000Y-44361928D01*
X54500000Y-44361928D01*
X54375518Y-44374188D01*
X54255820Y-44410498D01*
X54145506Y-44469463D01*
X54048815Y-44548815D01*
X53969463Y-44645506D01*
X53910498Y-44755820D01*
X53874188Y-44875518D01*
X53861928Y-45000000D01*
X51320395Y-45000000D01*
X51455808Y-44864587D01*
X51360044Y-44600186D01*
X51070429Y-44459296D01*
X50758892Y-44377616D01*
X50437405Y-44358282D01*
X50118325Y-44402039D01*
X49813912Y-44507205D01*
X49639956Y-44600186D01*
X49544192Y-44864587D01*
X44207703Y-44864587D01*
X44226262Y-44846028D01*
X44328586Y-44692889D01*
X44399068Y-44522729D01*
X44435000Y-44342089D01*
X44435000Y-44157911D01*
X44399068Y-43977271D01*
X44328586Y-43807111D01*
X44226262Y-43653972D01*
X44226215Y-43653925D01*
X44443615Y-43610681D01*
X45032347Y-43366820D01*
X45215472Y-43244460D01*
X45250932Y-43422729D01*
X45321414Y-43592889D01*
X45423738Y-43746028D01*
X45553972Y-43876262D01*
X45707111Y-43978586D01*
X45877271Y-44049068D01*
X46057911Y-44085000D01*
X46242089Y-44085000D01*
X46422729Y-44049068D01*
X46592889Y-43978586D01*
X46746028Y-43876262D01*
X46876262Y-43746028D01*
X46978586Y-43592889D01*
X47049068Y-43422729D01*
X47085000Y-43242089D01*
X47085000Y-43057911D01*
X47049068Y-42877271D01*
X46978586Y-42707111D01*
X46876262Y-42553972D01*
X46746028Y-42423738D01*
X46592889Y-42321414D01*
X46422729Y-42250932D01*
X46244460Y-42215472D01*
X46366820Y-42032347D01*
X46442350Y-41850000D01*
X59511928Y-41850000D01*
X59524188Y-41974482D01*
X59560498Y-42094180D01*
X59619463Y-42204494D01*
X59698815Y-42301185D01*
X59795506Y-42380537D01*
X59905820Y-42439502D01*
X60025518Y-42475812D01*
X60150000Y-42488072D01*
X60714250Y-42485000D01*
X60873000Y-42326250D01*
X60873000Y-41127000D01*
X59673750Y-41127000D01*
X59515000Y-41285750D01*
X59511928Y-41850000D01*
X46442350Y-41850000D01*
X46610681Y-41443615D01*
X46653925Y-41226215D01*
X46653972Y-41226262D01*
X46807111Y-41328586D01*
X46977271Y-41399068D01*
X47157911Y-41435000D01*
X47342089Y-41435000D01*
X47522729Y-41399068D01*
X47692889Y-41328586D01*
X47846028Y-41226262D01*
X47976262Y-41096028D01*
X48078586Y-40942889D01*
X48149068Y-40772729D01*
X48185000Y-40592089D01*
X48185000Y-40407911D01*
X48149068Y-40227271D01*
X48078586Y-40057111D01*
X47976262Y-39903972D01*
X47846028Y-39773738D01*
X47692889Y-39671414D01*
X47522729Y-39600932D01*
X47342089Y-39565000D01*
X47157911Y-39565000D01*
X46977271Y-39600932D01*
X46807111Y-39671414D01*
X46653972Y-39773738D01*
X46653925Y-39773785D01*
X46610681Y-39556385D01*
X46366820Y-38967653D01*
X46244460Y-38784528D01*
X46422729Y-38749068D01*
X46592889Y-38678586D01*
X46746028Y-38576262D01*
X46876262Y-38446028D01*
X46978586Y-38292889D01*
X47049068Y-38122729D01*
X47085000Y-37942089D01*
X47085000Y-37757911D01*
X47049068Y-37577271D01*
X46978586Y-37407111D01*
X46876262Y-37253972D01*
X46746028Y-37123738D01*
X46592889Y-37021414D01*
X46422729Y-36950932D01*
X46242089Y-36915000D01*
X46057911Y-36915000D01*
X45877271Y-36950932D01*
X45707111Y-37021414D01*
X45553972Y-37123738D01*
X45423738Y-37253972D01*
X45321414Y-37407111D01*
X45250932Y-37577271D01*
X45215472Y-37755540D01*
X45032347Y-37633180D01*
X44443615Y-37389319D01*
X44226215Y-37346075D01*
X44226262Y-37346028D01*
X44328586Y-37192889D01*
X44399068Y-37022729D01*
X44435000Y-36842089D01*
X44435000Y-36657911D01*
X44399068Y-36477271D01*
X44328586Y-36307111D01*
X44230290Y-36160000D01*
X52461644Y-36160000D01*
X52309716Y-36311928D01*
X50700000Y-36311928D01*
X50575518Y-36324188D01*
X50455820Y-36360498D01*
X50345506Y-36419463D01*
X50248815Y-36498815D01*
X50169463Y-36595506D01*
X50110498Y-36705820D01*
X50074188Y-36825518D01*
X50061928Y-36950000D01*
X50061928Y-39250000D01*
X50074188Y-39374482D01*
X50110498Y-39494180D01*
X50169463Y-39604494D01*
X50248815Y-39701185D01*
X50345506Y-39780537D01*
X50455820Y-39839502D01*
X50575518Y-39875812D01*
X50700000Y-39888072D01*
X53200000Y-39888072D01*
X53324482Y-39875812D01*
X53444180Y-39839502D01*
X53554494Y-39780537D01*
X53651185Y-39701185D01*
X53730537Y-39604494D01*
X53789502Y-39494180D01*
X53825812Y-39374482D01*
X53838072Y-39250000D01*
X54361928Y-39250000D01*
X54374188Y-39374482D01*
X54410498Y-39494180D01*
X54469463Y-39604494D01*
X54548815Y-39701185D01*
X54645506Y-39780537D01*
X54755820Y-39839502D01*
X54875518Y-39875812D01*
X55000000Y-39888072D01*
X55964250Y-39885000D01*
X56123000Y-39726250D01*
X56123000Y-38227000D01*
X56377000Y-38227000D01*
X56377000Y-39726250D01*
X56535750Y-39885000D01*
X57500000Y-39888072D01*
X57624482Y-39875812D01*
X57744180Y-39839502D01*
X57854494Y-39780537D01*
X57951185Y-39701185D01*
X58030537Y-39604494D01*
X58089502Y-39494180D01*
X58125812Y-39374482D01*
X58138072Y-39250000D01*
X58135000Y-38385750D01*
X57976250Y-38227000D01*
X56377000Y-38227000D01*
X56123000Y-38227000D01*
X54523750Y-38227000D01*
X54365000Y-38385750D01*
X54361928Y-39250000D01*
X53838072Y-39250000D01*
X53838072Y-37640284D01*
X54093357Y-37384999D01*
X54363474Y-37384999D01*
X54365000Y-37814250D01*
X54523750Y-37973000D01*
X56123000Y-37973000D01*
X56123000Y-37953000D01*
X56377000Y-37953000D01*
X56377000Y-37973000D01*
X57976250Y-37973000D01*
X58135000Y-37814250D01*
X58136526Y-37384999D01*
X58496644Y-37384999D01*
X60626165Y-39514520D01*
X60150000Y-39511928D01*
X60025518Y-39524188D01*
X59905820Y-39560498D01*
X59795506Y-39619463D01*
X59698815Y-39698815D01*
X59619463Y-39795506D01*
X59560498Y-39905820D01*
X59524188Y-40025518D01*
X59511928Y-40150000D01*
X59515000Y-40714250D01*
X59673750Y-40873000D01*
X60873000Y-40873000D01*
X60873000Y-40853000D01*
X61127000Y-40853000D01*
X61127000Y-40873000D01*
X61147000Y-40873000D01*
X61147000Y-41127000D01*
X61127000Y-41127000D01*
X61127000Y-42326250D01*
X61285750Y-42485000D01*
X61850000Y-42488072D01*
X61974482Y-42475812D01*
X62094180Y-42439502D01*
X62204494Y-42380537D01*
X62301185Y-42301185D01*
X62380537Y-42204494D01*
X62439502Y-42094180D01*
X62461513Y-42021620D01*
X62593368Y-42153475D01*
X62836589Y-42315990D01*
X63106842Y-42427932D01*
X63393740Y-42485000D01*
X63686260Y-42485000D01*
X63906408Y-42441209D01*
X65138699Y-43673501D01*
X65124482Y-43669188D01*
X65000000Y-43656928D01*
X64310750Y-43660000D01*
X64152000Y-43818750D01*
X64152000Y-44468000D01*
X65476250Y-44468000D01*
X65635000Y-44309250D01*
X65638072Y-44295000D01*
X65625812Y-44170518D01*
X65621499Y-44156301D01*
X66330198Y-44865000D01*
X66298061Y-44865000D01*
X66098102Y-44904774D01*
X65909744Y-44982795D01*
X65861546Y-45015000D01*
X65626253Y-45015000D01*
X65638072Y-44895000D01*
X65635000Y-44880750D01*
X65476250Y-44722000D01*
X64152000Y-44722000D01*
X64152000Y-44742000D01*
X63898000Y-44742000D01*
X63898000Y-44722000D01*
X63878000Y-44722000D01*
X63878000Y-44468000D01*
X63898000Y-44468000D01*
X63898000Y-43818750D01*
X63739250Y-43660000D01*
X63050000Y-43656928D01*
X62925518Y-43669188D01*
X62805820Y-43705498D01*
X62695506Y-43764463D01*
X62598815Y-43843815D01*
X62519463Y-43940506D01*
X62460498Y-44050820D01*
X62449471Y-44087170D01*
X62363072Y-44000771D01*
X62363072Y-43743750D01*
X62346608Y-43576592D01*
X62297850Y-43415858D01*
X62218671Y-43267725D01*
X62112115Y-43137885D01*
X61982275Y-43031329D01*
X61834142Y-42952150D01*
X61673408Y-42903392D01*
X61506250Y-42886928D01*
X61068750Y-42886928D01*
X60901592Y-42903392D01*
X60740858Y-42952150D01*
X60592725Y-43031329D01*
X60500000Y-43107426D01*
X60407275Y-43031329D01*
X60259142Y-42952150D01*
X60098408Y-42903392D01*
X59931250Y-42886928D01*
X59493750Y-42886928D01*
X59326592Y-42903392D01*
X59165858Y-42952150D01*
X59017725Y-43031329D01*
X58887885Y-43137885D01*
X58781329Y-43267725D01*
X58702150Y-43415858D01*
X58653392Y-43576592D01*
X58636928Y-43743750D01*
X58636928Y-44256250D01*
X58653392Y-44423408D01*
X58702150Y-44584142D01*
X58781329Y-44732275D01*
X58887885Y-44862115D01*
X58952501Y-44915143D01*
X58952500Y-45084857D01*
X58887885Y-45137885D01*
X58781329Y-45267725D01*
X58702150Y-45415858D01*
X58653392Y-45576592D01*
X58636928Y-45743750D01*
X58636928Y-46256250D01*
X58653392Y-46423408D01*
X58702150Y-46584142D01*
X58781329Y-46732275D01*
X58887885Y-46862115D01*
X59017725Y-46968671D01*
X59165858Y-47047850D01*
X59326592Y-47096608D01*
X59493750Y-47113072D01*
X59931250Y-47113072D01*
X60098408Y-47096608D01*
X60259142Y-47047850D01*
X60407275Y-46968671D01*
X60500000Y-46892574D01*
X60592725Y-46968671D01*
X60740858Y-47047850D01*
X60901592Y-47096608D01*
X61068750Y-47113072D01*
X61325770Y-47113072D01*
X61609827Y-47397130D01*
X61506250Y-47386928D01*
X61068750Y-47386928D01*
X60901592Y-47403392D01*
X60740858Y-47452150D01*
X60592725Y-47531329D01*
X60571070Y-47549100D01*
X60504494Y-47494463D01*
X60394180Y-47435498D01*
X60274482Y-47399188D01*
X60150000Y-47386928D01*
X59998250Y-47390000D01*
X59839500Y-47548750D01*
X59839500Y-48373000D01*
X59859500Y-48373000D01*
X59859500Y-48540010D01*
X58552313Y-48540010D01*
X58514988Y-48536334D01*
X58477663Y-48540010D01*
X58477655Y-48540010D01*
X58366002Y-48551007D01*
X58222741Y-48594464D01*
X58090712Y-48665036D01*
X57974987Y-48760009D01*
X57951189Y-48789007D01*
X56214002Y-50526195D01*
X56184998Y-50549998D01*
X56129870Y-50617173D01*
X56090025Y-50665723D01*
X56037769Y-50763487D01*
X56019453Y-50797753D01*
X55975996Y-50941014D01*
X55964999Y-51052667D01*
X55964999Y-51052677D01*
X55961323Y-51089999D01*
X55964999Y-51127322D01*
X55965000Y-56118041D01*
X54236860Y-57846183D01*
X54193552Y-57881725D01*
X54185710Y-57891280D01*
X54188072Y-57150000D01*
X54175812Y-57025518D01*
X54139502Y-56905820D01*
X54080537Y-56795506D01*
X54001185Y-56698815D01*
X53904494Y-56619463D01*
X53794180Y-56560498D01*
X53674482Y-56524188D01*
X53550000Y-56511928D01*
X52685750Y-56515000D01*
X52527000Y-56673750D01*
X52527000Y-58273000D01*
X52547000Y-58273000D01*
X52547000Y-58527000D01*
X52527000Y-58527000D01*
X52527000Y-60126250D01*
X52685750Y-60285000D01*
X53208012Y-60286856D01*
X52682940Y-60811928D01*
X52059185Y-60811928D01*
X51936446Y-60746323D01*
X51722498Y-60681422D01*
X51555751Y-60664999D01*
X51555750Y-60664999D01*
X51499999Y-60659508D01*
X51444248Y-60664999D01*
X44255742Y-60664999D01*
X44200000Y-60659509D01*
X44144258Y-60664999D01*
X44144249Y-60664999D01*
X43977502Y-60681422D01*
X43763554Y-60746323D01*
X43566378Y-60851715D01*
X43393552Y-60993550D01*
X43358010Y-61036859D01*
X42101034Y-62293835D01*
X42089502Y-62255820D01*
X42030537Y-62145506D01*
X41951185Y-62048815D01*
X41854494Y-61969463D01*
X41744180Y-61910498D01*
X41624482Y-61874188D01*
X41500000Y-61861928D01*
X40967059Y-61861928D01*
X40761996Y-61656865D01*
X40726449Y-61613551D01*
X40553623Y-61471716D01*
X40356446Y-61366324D01*
X40142498Y-61301423D01*
X39920000Y-61279509D01*
X39697501Y-61301423D01*
X39483553Y-61366324D01*
X39286377Y-61471716D01*
X39113551Y-61613551D01*
X38984990Y-61770203D01*
X38984990Y-59650000D01*
X50611928Y-59650000D01*
X50624188Y-59774482D01*
X50660498Y-59894180D01*
X50719463Y-60004494D01*
X50798815Y-60101185D01*
X50895506Y-60180537D01*
X51005820Y-60239502D01*
X51125518Y-60275812D01*
X51250000Y-60288072D01*
X52114250Y-60285000D01*
X52273000Y-60126250D01*
X52273000Y-58527000D01*
X50773750Y-58527000D01*
X50615000Y-58685750D01*
X50611928Y-59650000D01*
X38984990Y-59650000D01*
X38984990Y-57343072D01*
X40350000Y-57343072D01*
X40503745Y-57327929D01*
X40651582Y-57283084D01*
X40787829Y-57210258D01*
X40907251Y-57112251D01*
X41005258Y-56992829D01*
X41078084Y-56856582D01*
X41122929Y-56708745D01*
X41123297Y-56705000D01*
X42861928Y-56705000D01*
X42874188Y-56829482D01*
X42910498Y-56949180D01*
X42969463Y-57059494D01*
X43048815Y-57156185D01*
X43145506Y-57235537D01*
X43255820Y-57294502D01*
X43375518Y-57330812D01*
X43500000Y-57343072D01*
X44189250Y-57340000D01*
X44348000Y-57181250D01*
X44348000Y-56532000D01*
X43023750Y-56532000D01*
X42865000Y-56690750D01*
X42861928Y-56705000D01*
X41123297Y-56705000D01*
X41138072Y-56555000D01*
X41138072Y-56255000D01*
X41122929Y-56101255D01*
X41078084Y-55953418D01*
X41006270Y-55819064D01*
X41030537Y-55789494D01*
X41089502Y-55679180D01*
X41125812Y-55559482D01*
X41138072Y-55435000D01*
X41135000Y-55420750D01*
X40976250Y-55262000D01*
X39652000Y-55262000D01*
X39652000Y-55282000D01*
X39398000Y-55282000D01*
X39398000Y-55262000D01*
X39378000Y-55262000D01*
X39378000Y-55008000D01*
X39398000Y-55008000D01*
X39398000Y-53992000D01*
X39652000Y-53992000D01*
X39652000Y-55008000D01*
X40976250Y-55008000D01*
X41135000Y-54849250D01*
X41138072Y-54835000D01*
X41125812Y-54710518D01*
X41089502Y-54590820D01*
X41040957Y-54500000D01*
X41089502Y-54409180D01*
X41125812Y-54289482D01*
X41138072Y-54165000D01*
X41135000Y-54150750D01*
X40976250Y-53992000D01*
X39652000Y-53992000D01*
X39398000Y-53992000D01*
X39378000Y-53992000D01*
X39378000Y-53738000D01*
X39398000Y-53738000D01*
X39398000Y-53718000D01*
X39652000Y-53718000D01*
X39652000Y-53738000D01*
X40976250Y-53738000D01*
X41135000Y-53579250D01*
X41136771Y-53571036D01*
X41196063Y-53659774D01*
X41340226Y-53803937D01*
X41509744Y-53917205D01*
X41698102Y-53995226D01*
X41898061Y-54035000D01*
X42101939Y-54035000D01*
X42301898Y-53995226D01*
X42490256Y-53917205D01*
X42659774Y-53803937D01*
X42803937Y-53659774D01*
X42883145Y-53541230D01*
X42877071Y-53561255D01*
X42861928Y-53715000D01*
X42861928Y-54015000D01*
X42877071Y-54168745D01*
X42921916Y-54316582D01*
X42994742Y-54452829D01*
X43033454Y-54500000D01*
X42994742Y-54547171D01*
X42921916Y-54683418D01*
X42877071Y-54831255D01*
X42861928Y-54985000D01*
X42861928Y-55285000D01*
X42877071Y-55438745D01*
X42921916Y-55586582D01*
X42993730Y-55720936D01*
X42969463Y-55750506D01*
X42910498Y-55860820D01*
X42874188Y-55980518D01*
X42861928Y-56105000D01*
X42865000Y-56119250D01*
X43023750Y-56278000D01*
X44348000Y-56278000D01*
X44348000Y-56258000D01*
X44602000Y-56258000D01*
X44602000Y-56278000D01*
X44622000Y-56278000D01*
X44622000Y-56532000D01*
X44602000Y-56532000D01*
X44602000Y-57181250D01*
X44760750Y-57340000D01*
X45450000Y-57343072D01*
X45574482Y-57330812D01*
X45694180Y-57294502D01*
X45804494Y-57235537D01*
X45901185Y-57156185D01*
X45980537Y-57059494D01*
X46039502Y-56949180D01*
X46050529Y-56912830D01*
X46136928Y-56999230D01*
X46136928Y-57008937D01*
X46127805Y-57039010D01*
X46110719Y-57212500D01*
X46115001Y-57255978D01*
X46115000Y-57961545D01*
X46082795Y-58009744D01*
X46004774Y-58198102D01*
X45965000Y-58398061D01*
X45965000Y-58601939D01*
X46004774Y-58801898D01*
X46082795Y-58990256D01*
X46196063Y-59159774D01*
X46340226Y-59303937D01*
X46509744Y-59417205D01*
X46698102Y-59495226D01*
X46898061Y-59535000D01*
X47101939Y-59535000D01*
X47301898Y-59495226D01*
X47490256Y-59417205D01*
X47659774Y-59303937D01*
X47803937Y-59159774D01*
X47917205Y-58990256D01*
X47995226Y-58801898D01*
X48035000Y-58601939D01*
X48035000Y-58398061D01*
X47995226Y-58198102D01*
X47917205Y-58009744D01*
X47894370Y-57975569D01*
X47907275Y-57968671D01*
X48000000Y-57892574D01*
X48092725Y-57968671D01*
X48240858Y-58047850D01*
X48401592Y-58096608D01*
X48568750Y-58113072D01*
X49006250Y-58113072D01*
X49173408Y-58096608D01*
X49334142Y-58047850D01*
X49482275Y-57968671D01*
X49612115Y-57862115D01*
X49718671Y-57732275D01*
X49797850Y-57584142D01*
X49846608Y-57423408D01*
X49863072Y-57256250D01*
X49863072Y-57150000D01*
X50611928Y-57150000D01*
X50615000Y-58114250D01*
X50773750Y-58273000D01*
X52273000Y-58273000D01*
X52273000Y-56673750D01*
X52114250Y-56515000D01*
X51250000Y-56511928D01*
X51125518Y-56524188D01*
X51005820Y-56560498D01*
X50895506Y-56619463D01*
X50798815Y-56698815D01*
X50719463Y-56795506D01*
X50660498Y-56905820D01*
X50624188Y-57025518D01*
X50611928Y-57150000D01*
X49863072Y-57150000D01*
X49863072Y-56743750D01*
X49846608Y-56576592D01*
X49797850Y-56415858D01*
X49718671Y-56267725D01*
X49612115Y-56137885D01*
X49547500Y-56084857D01*
X49547500Y-55915143D01*
X49612115Y-55862115D01*
X49718671Y-55732275D01*
X49797850Y-55584142D01*
X49846608Y-55423408D01*
X49863072Y-55256250D01*
X49863072Y-55028040D01*
X49898061Y-55035000D01*
X50101939Y-55035000D01*
X50301898Y-54995226D01*
X50490256Y-54917205D01*
X50659774Y-54803937D01*
X50803937Y-54659774D01*
X50917205Y-54490256D01*
X50995226Y-54301898D01*
X51035000Y-54101939D01*
X51035000Y-53898061D01*
X50995226Y-53698102D01*
X50917205Y-53509744D01*
X50803937Y-53340226D01*
X50659774Y-53196063D01*
X50490256Y-53082795D01*
X50301898Y-53004774D01*
X50101939Y-52965000D01*
X49898061Y-52965000D01*
X49863023Y-52971969D01*
X49860000Y-52785750D01*
X49701250Y-52627000D01*
X48914500Y-52627000D01*
X48914500Y-52647000D01*
X48660500Y-52647000D01*
X48660500Y-52627000D01*
X48640500Y-52627000D01*
X48640500Y-52373000D01*
X48660500Y-52373000D01*
X48660500Y-51548750D01*
X48914500Y-51548750D01*
X48914500Y-52373000D01*
X49701250Y-52373000D01*
X49860000Y-52214250D01*
X49863072Y-52025000D01*
X49850812Y-51900518D01*
X49814502Y-51780820D01*
X49755537Y-51670506D01*
X49676185Y-51573815D01*
X49579494Y-51494463D01*
X49469180Y-51435498D01*
X49349482Y-51399188D01*
X49225000Y-51386928D01*
X49073250Y-51390000D01*
X48914500Y-51548750D01*
X48660500Y-51548750D01*
X48501750Y-51390000D01*
X48350000Y-51386928D01*
X48225518Y-51399188D01*
X48105820Y-51435498D01*
X47995506Y-51494463D01*
X47928930Y-51549100D01*
X47907275Y-51531329D01*
X47759142Y-51452150D01*
X47598408Y-51403392D01*
X47431250Y-51386928D01*
X46993750Y-51386928D01*
X46826592Y-51403392D01*
X46665858Y-51452150D01*
X46517725Y-51531329D01*
X46387885Y-51637885D01*
X46304082Y-51740000D01*
X45644769Y-51740000D01*
X45601582Y-51716916D01*
X45453745Y-51672071D01*
X45300000Y-51656928D01*
X43650000Y-51656928D01*
X43496255Y-51672071D01*
X43348418Y-51716916D01*
X43212171Y-51789742D01*
X43157024Y-51835000D01*
X42442322Y-51835000D01*
X42404999Y-51831324D01*
X42367676Y-51835000D01*
X42367667Y-51835000D01*
X42256014Y-51845997D01*
X42112753Y-51889454D01*
X41980724Y-51960026D01*
X41974663Y-51965000D01*
X41898061Y-51965000D01*
X41698102Y-52004774D01*
X41509744Y-52082795D01*
X41340226Y-52196063D01*
X41196063Y-52340226D01*
X41136528Y-52429326D01*
X41122929Y-52291255D01*
X41113013Y-52258566D01*
X41145049Y-52226530D01*
X41178817Y-52198817D01*
X41218881Y-52150000D01*
X41289411Y-52064059D01*
X41323675Y-51999954D01*
X41371589Y-51910313D01*
X41422195Y-51743490D01*
X41435000Y-51613477D01*
X41435000Y-51613469D01*
X41439281Y-51570000D01*
X41435000Y-51526531D01*
X41435000Y-50388072D01*
X41800000Y-50388072D01*
X41924482Y-50375812D01*
X42044180Y-50339502D01*
X42154494Y-50280537D01*
X42251185Y-50201185D01*
X42330537Y-50104494D01*
X42389502Y-49994180D01*
X42425812Y-49874482D01*
X42438072Y-49750000D01*
X42961928Y-49750000D01*
X42974188Y-49874482D01*
X43010498Y-49994180D01*
X43069463Y-50104494D01*
X43148815Y-50201185D01*
X43245506Y-50280537D01*
X43355820Y-50339502D01*
X43475518Y-50375812D01*
X43600000Y-50388072D01*
X44564250Y-50385000D01*
X44723000Y-50226250D01*
X44723000Y-48727000D01*
X44977000Y-48727000D01*
X44977000Y-50226250D01*
X45135750Y-50385000D01*
X46100000Y-50388072D01*
X46224482Y-50375812D01*
X46344180Y-50339502D01*
X46454494Y-50280537D01*
X46551185Y-50201185D01*
X46630537Y-50104494D01*
X46689502Y-49994180D01*
X46725812Y-49874482D01*
X46738072Y-49750000D01*
X46735000Y-48885750D01*
X46576250Y-48727000D01*
X44977000Y-48727000D01*
X44723000Y-48727000D01*
X43123750Y-48727000D01*
X42965000Y-48885750D01*
X42961928Y-49750000D01*
X42438072Y-49750000D01*
X42438072Y-47450000D01*
X42961928Y-47450000D01*
X42965000Y-48314250D01*
X43123750Y-48473000D01*
X44723000Y-48473000D01*
X44723000Y-46973750D01*
X44977000Y-46973750D01*
X44977000Y-48473000D01*
X46576250Y-48473000D01*
X46735000Y-48314250D01*
X46736028Y-48025000D01*
X58636928Y-48025000D01*
X58640000Y-48214250D01*
X58798750Y-48373000D01*
X59585500Y-48373000D01*
X59585500Y-47548750D01*
X59426750Y-47390000D01*
X59275000Y-47386928D01*
X59150518Y-47399188D01*
X59030820Y-47435498D01*
X58920506Y-47494463D01*
X58823815Y-47573815D01*
X58744463Y-47670506D01*
X58685498Y-47780820D01*
X58649188Y-47900518D01*
X58636928Y-48025000D01*
X46736028Y-48025000D01*
X46738072Y-47450000D01*
X46725812Y-47325518D01*
X46689502Y-47205820D01*
X46651869Y-47135413D01*
X49544192Y-47135413D01*
X49639956Y-47399814D01*
X49929571Y-47540704D01*
X50241108Y-47622384D01*
X50562595Y-47641718D01*
X50881675Y-47597961D01*
X51186088Y-47492795D01*
X51360044Y-47399814D01*
X51455808Y-47135413D01*
X50500000Y-46179605D01*
X49544192Y-47135413D01*
X46651869Y-47135413D01*
X46630537Y-47095506D01*
X46551185Y-46998815D01*
X46454494Y-46919463D01*
X46344180Y-46860498D01*
X46224482Y-46824188D01*
X46100000Y-46811928D01*
X45135750Y-46815000D01*
X44977000Y-46973750D01*
X44723000Y-46973750D01*
X44564250Y-46815000D01*
X43600000Y-46811928D01*
X43475518Y-46824188D01*
X43355820Y-46860498D01*
X43245506Y-46919463D01*
X43148815Y-46998815D01*
X43069463Y-47095506D01*
X43010498Y-47205820D01*
X42974188Y-47325518D01*
X42961928Y-47450000D01*
X42438072Y-47450000D01*
X42425812Y-47325518D01*
X42389502Y-47205820D01*
X42330537Y-47095506D01*
X42251185Y-46998815D01*
X42154494Y-46919463D01*
X42044180Y-46860498D01*
X41924482Y-46824188D01*
X41800000Y-46811928D01*
X39300000Y-46811928D01*
X39175518Y-46824188D01*
X39055820Y-46860498D01*
X38945506Y-46919463D01*
X38848815Y-46998815D01*
X38769463Y-47095506D01*
X38710498Y-47205820D01*
X38674188Y-47325518D01*
X38661928Y-47450000D01*
X38661928Y-49750000D01*
X38674188Y-49874482D01*
X38710498Y-49994180D01*
X38769463Y-50104494D01*
X38848815Y-50201185D01*
X38945506Y-50280537D01*
X39055820Y-50339502D01*
X39175518Y-50375812D01*
X39300000Y-50388072D01*
X39665001Y-50388072D01*
X39665001Y-51203420D01*
X39211494Y-51656928D01*
X38700000Y-51656928D01*
X38546255Y-51672071D01*
X38398418Y-51716916D01*
X38262171Y-51789742D01*
X38160000Y-51873591D01*
X38160000Y-46062595D01*
X48858282Y-46062595D01*
X48902039Y-46381675D01*
X49007205Y-46686088D01*
X49100186Y-46860044D01*
X49364587Y-46955808D01*
X50320395Y-46000000D01*
X50679605Y-46000000D01*
X51635413Y-46955808D01*
X51899814Y-46860044D01*
X52040704Y-46570429D01*
X52122384Y-46258892D01*
X52141718Y-45937405D01*
X52097961Y-45618325D01*
X51992795Y-45313912D01*
X51899814Y-45139956D01*
X51635413Y-45044192D01*
X50679605Y-46000000D01*
X50320395Y-46000000D01*
X49364587Y-45044192D01*
X49100186Y-45139956D01*
X48959296Y-45429571D01*
X48877616Y-45741108D01*
X48858282Y-46062595D01*
X38160000Y-46062595D01*
X38160000Y-36532279D01*
X38169580Y-36434576D01*
X38188580Y-36371644D01*
X38219445Y-36313595D01*
X38260989Y-36262657D01*
X38311644Y-36220752D01*
X38369471Y-36189485D01*
X38432272Y-36170044D01*
X38527835Y-36160000D01*
X42769710Y-36160000D01*
X42671414Y-36307111D01*
G37*
G04 #@! TD.AperFunction*
D32*
X68210498Y-55705820D02*
X68174188Y-55825518D01*
X68161928Y-55950000D01*
X68165000Y-56151750D01*
X68323748Y-56310498D01*
X68265630Y-56310498D01*
X67900830Y-55945699D01*
X67900812Y-55945518D01*
X67864502Y-55825820D01*
X67805537Y-55715506D01*
X67790760Y-55697500D01*
X68214945Y-55697500D01*
X68210498Y-55705820D01*
G04 #@! TA.AperFunction,Conductor*
D33*
G36*
X68210498Y-55705820D02*
G01*
X68174188Y-55825518D01*
X68161928Y-55950000D01*
X68165000Y-56151750D01*
X68323748Y-56310498D01*
X68265630Y-56310498D01*
X67900830Y-55945699D01*
X67900812Y-55945518D01*
X67864502Y-55825820D01*
X67805537Y-55715506D01*
X67790760Y-55697500D01*
X68214945Y-55697500D01*
X68210498Y-55705820D01*
G37*
G04 #@! TD.AperFunction*
M02*
