M48
; DRILL file {KiCad 5.1.9-73d0e3b20d~88~ubuntu20.04.1} date Mon Apr 26 20:21:18 2021
; FORMAT={-:-/ absolute / inch / decimal}
; #@! TF.CreationDate,2021-04-26T20:21:18-06:00
; #@! TF.GenerationSoftware,Kicad,Pcbnew,5.1.9-73d0e3b20d~88~ubuntu20.04.1
; #@! TF.FileFunction,Plated,1,2,PTH
FMAT,2
INCH
T1C0.0157
T2C0.0299
T3C0.0394
T4C0.0500
T5C0.1969
%
G90
G05
T1
X1.5315Y-1.8189
X1.5354Y-1.4449
X1.5512Y-2.3071
X1.5512Y-2.9646
X1.565Y-1.5945
X1.6083Y-1.4902
X1.6083Y-1.6988
X1.6535Y-2.0866
X1.685Y-2.0
X1.7126Y-1.4469
X1.7126Y-1.7421
X1.8169Y-1.4902
X1.8169Y-1.6988
X1.8504Y-2.3031
X1.8602Y-1.5945
X1.9331Y-1.4488
X1.9685Y-2.126
X2.1772Y-2.2126
X2.1969Y-1.9882
X2.2992Y-2.9724
X2.3228Y-1.5433
X2.4016Y-2.9291
X2.4252Y-1.4409
X2.5984Y-1.752
X2.6142Y-1.8071
X2.6614Y-1.689
X2.7953Y-1.8169
X2.878Y-2.9724
X3.0551Y-1.4685
X3.1575Y-1.7323
X3.3622Y-2.7244
X3.4449Y-2.9803
X3.563Y-1.7008
X3.5827Y-2.1142
X3.6811Y-2.0197
X3.689Y-1.4567
X3.748Y-2.7126
X3.8091Y-1.5945
X3.8524Y-1.4902
X3.8524Y-1.6988
X3.9567Y-1.4469
X3.9567Y-1.7421
X4.061Y-1.4902
X4.061Y-1.6988
X4.1043Y-1.5945
X4.122Y-2.9764
X4.126Y-1.4764
X4.1496Y-2.0039
T2
X3.6811Y-2.4697
X3.7311Y-2.3697
X3.7811Y-2.4697
X3.8311Y-2.3697
X3.8811Y-2.4697
X3.9311Y-2.3697
X3.9811Y-2.4697
X4.0311Y-2.3697
T3
X1.5717Y-2.8346
X1.5945Y-2.5
X1.6717Y-2.8346
X1.7717Y-2.8346
X1.7913Y-2.5
X1.985Y-2.8346
X1.9882Y-1.811
X2.085Y-2.8346
X2.185Y-1.811
X2.185Y-2.8346
X2.3984Y-2.8346
X2.4016Y-1.6142
X2.4984Y-2.8346
X2.5016Y-1.6142
X2.5984Y-2.8346
X2.6016Y-1.6142
T5
X1.7126Y-1.5945
X3.9567Y-1.5945
T4
G00X2.8768Y-2.0866
M15
G01X3.0327Y-2.0866
M16
G05
G00X3.0327Y-2.3193
M15
G01X2.8768Y-2.3193
M16
G05
G00X3.1878Y-2.0866
M15
G01X3.3437Y-2.0866
M16
G05
G00X3.3437Y-2.3193
M15
G01X3.1878Y-2.3193
M16
G05
T0
M30
